<svg xmlns="http://www.w3.org/2000/svg" width="390.17" height="333.607"><path fill="#fff" d="M380.207 119.134c2.627-9.478-.9-24.15-5.468-28.535-2.868-18.029-15.153-32.912-31.657-39.463-8.953-13.406-24.069-22.333-41.296-22.755-9.267-9.314-22.096-15.085-36.274-15.085-4.716 0-9.28.652-13.616 1.848-8.44-6.126-18.809-9.75-30.03-9.75-6.645 0-12.986 1.281-18.813 3.588-5.825-2.307-12.168-3.588-18.812-3.588-12.008 0-23.043 4.149-31.772 11.077-3.115-.594-6.328-.917-9.617-.917-11.851 0-22.752 4.041-31.426 10.805-17.131 2.723-31.417 13.95-38.422 29.213-15.551 7.139-26.904 21.829-29.356 39.383-12.823 8.121-21.788 21.783-23.52 37.624-7.023 8.758-11.228 19.867-11.228 31.963 0 5.69.944 11.156 2.657 16.269-2.674 6.206-4.163 13.043-4.163 20.23 0 28.132 22.705 50.953 50.786 51.162 2.975 25.428 24.582 45.162 50.807 45.162 2.423 0 4.868-.694 7.253-1.455l11.741.606c1.659.483 3.372.849 5.115.849l1.905-.089v10.862c0 10.83 8.756 19.611 19.587 19.611 10.83 0 19.599-8.781 19.599-19.611 0-26.509 17.538-47.046 33.891-60.554 1.078.068 2.159.114 3.257.114 3.625 0 7.159-.381 10.569-1.1 6.989 3.58 14.901 5.615 23.292 5.615 15.265 0 28.958-6.691 38.333-17.292 17.684-5.417 31.295-20.153 35.098-38.488.977.058 1.96.091 2.95.091 24.104 0 44.303-16.668 49.729-39.104 8.812-9.193 13.182-16.298 13.182-25.035 0-6.342-.759-10.547-4.281-13.251z"/><path fill="#F6A279" d="M211.794 137.676c-.32 0-.646-.069-.955-.213-1.129-.528-1.616-1.872-1.088-3.001l11.48-24.54c.529-1.13 1.872-1.615 3.002-1.088 1.129.528 1.616 1.872 1.088 3.001l-11.48 24.54c-.384.82-1.197 1.301-2.047 1.301z"/><path fill="#F6A279" d="M154.561 331.137c-12.683 0-23-10.316-23-22.997v-7.456c-2.708-.244-5.215-1.093-7.467-1.854-.999-.338-1.955-.662-2.881-.921-.911.251-1.867.562-2.867.886-2.832.918-6.041 1.959-9.359 1.959-26.689 0-49.302-19.262-53.754-45.262-28.503-1.736-51.225-25.573-51.225-54.449 0-7.047 1.326-13.896 3.943-20.381-1.618-5.232-2.438-10.649-2.438-16.12 0-12.021 4.029-23.809 11.363-33.308 1.991-15.634 10.543-29.465 23.654-38.288 2.933-17.405 13.995-32.167 29.93-39.917 7.675-15.773 22.339-26.851 39.573-29.87 9.524-7.193 20.852-10.991 32.818-10.991 2.895 0 5.826.238 8.732.709 9.489-7.116 20.746-10.869 32.657-10.869 6.455 0 12.777 1.126 18.812 3.35 6.039-2.224 12.36-3.35 18.813-3.35 11.037 0 21.615 3.268 30.696 9.465 4.248-1.038 8.597-1.562 12.949-1.562 14.169 0 27.507 5.365 37.71 15.136 16.848.833 32.428 9.468 42.084 23.34 16.988 7.13 29.36 22.554 32.603 40.646 5.045 5.903 7.82 19.349 6.04 28.924 3.112 3.392 3.927 8.178 3.927 14.431 0 10.234-5.371 18.136-13.502 26.725-6.243 24.072-27.822 40.801-52.796 40.801l-.289-.001c-4.698 17.879-18.18 32.209-35.86 37.962-10.329 11.278-24.938 17.728-40.232 17.728-8.327 0-16.316-1.834-23.768-5.454-3.32.624-6.711.939-10.097.939-.667 0-1.366-.017-2.114-.048-21.009 17.672-31.658 36.878-31.658 57.102.001 12.679-10.316 22.995-22.997 22.995zm-16.228-37.364v14.367c0 8.946 7.28 16.224 16.228 16.224 8.947 0 16.226-7.277 16.226-16.224 0-22.343 12.146-44.186 35.127-63.166l1.033-.854 1.338.085c1.139.072 2.136.107 3.046.107 3.317 0 6.64-.345 9.873-1.026l1.174-.248 1.068.548c6.789 3.478 14.106 5.241 21.749 5.241 13.673 0 26.72-5.886 35.796-16.148l.633-.715.912-.28c16.679-5.108 29.237-18.879 32.775-35.937l.594-2.865 2.921.172c.969.058 1.869.085 2.751.085 22.143 0 41.238-15.015 46.437-36.513l.215-.888.633-.659c8.923-9.309 12.24-15.459 12.24-22.692 0-5.34-.464-8.461-2.768-10.429-.152-.101-.296-.214-.429-.337-1.615-1.173-4.017-1.9-7.563-2.46-4.56-.726-6.811 2.963-7.053 3.386-.923 1.61-2.979 2.194-4.6 1.288-1.62-.906-2.218-2.931-1.329-4.561.185-.338 4.631-8.282 14.037-6.803 2.411.381 4.482.892 6.259 1.536.646-8.282-2.349-18.169-5.262-20.965l-.821-.788-.179-1.123c-2.63-16.535-13.958-30.654-29.562-36.848l-.981-.389-.586-.877c-8.633-12.926-23.049-20.871-38.562-21.25l-1.358-.033-.959-.963c-9.039-9.084-21.069-14.087-33.874-14.087-4.281 0-8.56.581-12.717 1.726l-1.57.433-1.318-.957c-8.205-5.956-17.901-9.104-28.04-9.104-6.041 0-11.951 1.127-17.566 3.351l-1.247.494-1.247-.494c-5.612-2.223-11.522-3.351-17.565-3.351-10.881 0-21.14 3.577-29.667 10.344l-1.215.964-1.523-.29c-2.985-.569-6.007-.857-8.983-.857-10.733 0-20.88 3.489-29.344 10.089l-.688.537-.863.137c-15.776 2.504-29.188 12.702-35.877 27.279l-.524 1.141-1.141.524c-14.905 6.842-25.154 20.589-27.415 36.773l-.217 1.554-1.325.839c-12.375 7.838-20.382 20.643-21.966 35.131l-.107.98-.617.77c-6.858 8.553-10.484 18.873-10.484 29.844 0 5.167.835 10.279 2.482 15.196l.411 1.227-.512 1.189c-2.579 5.982-3.887 12.337-3.887 18.889 0 26.149 21.275 47.581 47.425 47.775l2.991.022.347 2.971c2.813 24.04 23.209 42.169 47.444 42.169 2.248 0 4.8-.828 7.27-1.628 1.361-.441 2.768-.898 4.167-1.235l.792-.19.792.191c1.467.353 2.885.832 4.255 1.296 2.381.806 4.63 1.566 6.805 1.566.304 0 .603-.021.902-.04.286-.019.572-.037.859-.047l3.504-.119z"/><path fill="#F6A279" d="M58.18 255.59c-1.855 0-3.369-1.496-3.386-3.355-.018-1.869 1.483-3.398 3.352-3.417.267-.004 26.941-.477 46.174-15.983 16.506-13.308 38.671-4.872 49.323-.817.804.306 1.55.59 2.23.84 18.632 6.864 38.167 11.104 52.255 11.343 1.869.031 3.36 1.573 3.328 3.443-.031 1.85-1.541 3.329-3.385 3.329l-.059-.001c-14.807-.25-35.174-4.646-54.482-11.759-.701-.259-1.469-.551-2.297-.866-10.199-3.881-29.183-11.106-42.663-.239-21.104 17.017-49.174 17.472-50.358 17.483l-.032-.001z"/><path fill="#F6A279" d="M315.52 172.479c-5.948 0-11.284-1.968-15.083-5.658-5.349-5.195-33.947-30.566-71.743-19.766l-1.222.349-.933-.863c-6.525-6.042-21.087-12.827-38.909-14.364-19.232-1.657-36.617 3.357-48.94 14.125-4.492 3.755-2.254 7.575-1.761 8.303.695 1.025.441 2.428-.578 3.133-1.017.704-2.408.466-3.123-.546-1.874-2.656-3.758-9.068 2.528-14.322 29.249-25.558 75.904-15.002 92.898-.489 39.587-10.615 69.323 15.757 74.929 21.202 3.742 3.636 9.549 5.106 15.926 4.042 6.845-1.145 12.81-4.932 15.197-9.65 6.117-12.089.073-24.065.012-24.185-.571-1.106-.142-2.468.963-3.042 1.107-.576 2.465-.147 3.041.956.298.569 7.201 14.104.014 28.31-3.015 5.956-10.269 10.692-18.482 12.065-1.608.268-3.192.4-4.734.4z"/><path fill="#F6A279" d="M129.518 148.979c-2.92 0-5.31-1.013-6.818-3.023-.748-.998-.546-2.413.451-3.161.998-.748 2.413-.545 3.161.451 1.373 1.832 5.438 1.559 9.883-.664 1.116-.557 2.472-.105 3.029 1.009.558 1.115.106 2.471-1.009 3.029-3.151 1.576-6.13 2.359-8.697 2.359z"/><path fill="#F6A279" d="M332.15 92.518l-.188-.008c-1.243-.103-2.167-1.193-2.064-2.436.44-5.332-2.05-11.325-6.499-15.64-4.687-4.545-10.904-6.631-17.52-5.884l-1.275.145-.776-1.021c-25.787-33.91-70.355-24.693-83.671-17.5-1.099.593-2.467.184-3.06-.913s-.184-2.467.913-3.06c7.54-4.073 22.899-8.087 38.814-7.27 14.386.737 34.597 5.702 49.828 25.016 7.487-.517 14.519 2.038 19.89 7.246 5.395 5.231 8.404 12.608 7.855 19.253-.097 1.179-1.084 2.072-2.247 2.072z"/><path fill="#F6A279" d="M262.729 196.387c-4.146 0-8.608-.534-12.803-1.637-4.736-1.245-10.682-3.642-13.95-8.155-5.958 3.316-17.636 5.602-28.004 3.993-7.015-1.087-12.427-3.846-15.799-8.027-11.571 5.579-30.932 6.144-41.521-6.693-29.456 8.912-50.938 3.736-67.512-16.226-7.148-8.61-10.384-20.987-9.358-35.793.765-11.028 3.57-19.449 3.689-19.802.398-1.182 1.678-1.815 2.859-1.418s1.816 1.678 1.419 2.859c-.027.082-2.759 8.309-3.471 18.779-.643 9.467.281 22.789 8.335 32.49 15.533 18.708 35.928 23.262 64.184 14.339l1.547-.489.957 1.311c9.196 12.604 28.57 11.41 38.448 5.77l1.889-1.079 1.148 1.848c3.138 5.049 9.279 6.958 13.877 7.67 10.875 1.687 23.201-1.566 26.581-4.456l2.293-1.96 1.233 2.752c1.536 3.426 5.906 6.239 12.304 7.921 9.565 2.515 19.921 1.55 23.232-.89 1.002-.739 2.417-.524 3.156.479s.525 2.417-.479 3.156c-2.898 2.135-8.245 3.257-14.254 3.258z"/><path fill="#F6A279" d="M95.162 216.086c-24.978 0-31.111-19.238-31.174-19.447-.361-1.193.313-2.453 1.506-2.815 1.188-.357 2.448.311 2.813 1.5.244.784 6.151 18.724 32.048 15.961 10.54-1.125 15.918-3.896 20.663-6.341 7.905-4.074 14.15-7.29 36.462-.585 25.473 7.656 41.305-1.562 41.46-1.657 1.069-.643 2.457-.293 3.097.776.641 1.07.293 2.456-.776 3.097-.712.427-17.72 10.329-45.081 2.108-20.566-6.184-25.821-3.474-33.094.274-4.844 2.496-10.873 5.603-22.252 6.817-1.989.212-3.881.312-5.672.312z"/><path fill="#F6A279" d="M219.809 76.648c-15.719 0-24.36-6.179-28.911-11.579-7.707-9.146-8.388-21.292-6.628-28.914 2.434-10.547 5.932-15.013 6.08-15.198.778-.975 2.198-1.132 3.173-.355.971.775 1.132 2.188.363 3.163-.064.083-3.057 4.047-5.217 13.406-1.525 6.607-.952 17.117 5.682 24.989 6.056 7.185 16.017 10.599 28.798 9.876 1.258-.078 2.311.881 2.382 2.126.07 1.245-.882 2.311-2.126 2.381-1.238.071-2.438.104-3.596.105z"/><path fill="#F6A279" d="M186.001 38.262c-.679 0-1.35-.305-1.794-.886-2.092-2.734-5.534-3.268-7.399-3.343-3.913-.162-7.347 1.24-8.602 2.635-.834.928-2.261 1.001-3.188.167-.927-.834-1.001-2.262-.167-3.188 2.398-2.663 7.282-4.32 12.138-4.125 4.587.184 8.424 1.999 10.805 5.111.758.99.569 2.407-.421 3.165-.412.313-.894.464-1.372.464z"/><path fill="#F6A279" d="M289.942 155.94c-.592 0-1.183-.231-1.626-.691-.865-.898-.838-2.327.06-3.192l20.694-19.941c.896-.866 2.327-.839 3.192.059s.838 2.327-.06 3.192l-20.694 19.941c-.437.422-1.002.632-1.566.632z"/><path fill="#F6A279" d="M134.943 300.663c-1.773 0-3.264-1.381-3.376-3.175-.117-1.867 1.302-3.475 3.168-3.592 6.138-.384 40.507-10.74 44.984-47.31.228-1.856 1.927-3.168 3.773-2.95 1.856.228 3.177 1.916 2.95 3.772-2.571 20.999-14.144 33.893-23.399 41.012-10.201 7.846-21.605 11.843-27.885 12.235l-.215.008z"/><path fill="#F6A279" d="M37.091 192.814l-.155-.005c-1.243-.085-2.182-1.158-2.099-2.401.015-.223 1.548-20.263 17.457-25.468-3.215-2.673-5.921-5.851-7.728-9.135-3.274-5.954-3.565-11.981-.841-17.43.558-1.115 1.914-1.566 3.029-1.01 1.115.558 1.567 1.914 1.01 3.029-4.77 9.541 4.082 19.447 11.195 23.778l5.773 3.516-6.728.659c-7.071.693-12.343 4.574-15.667 11.535-2.594 5.432-2.993 10.777-2.996 10.83-.083 1.19-1.074 2.102-2.25 2.102z"/><path fill="#F6A279" d="M152.509 104.157l-.181-.007c-27.026-2.145-25.796-25.439-25.781-25.674.083-1.244 1.156-2.19 2.402-2.103 1.242.082 2.182 1.154 2.104 2.395-.046.783-.879 19.095 21.633 20.881 1.243.099 2.17 1.186 2.072 2.429-.094 1.182-1.083 2.079-2.249 2.079z"/><path fill="#F6A279" d="M103.484 92.768c-2.016 0-2.406-2.033-2.638-3.248-.27-1.412-1.497-8.875.906-17.2 2.609-9.044 8.627-15.668 17.401-19.156 17.17-6.826 31.163-2.431 42.78 13.436.736 1.006.518 2.418-.488 3.155-1.005.735-2.418.519-3.155-.488-10.37-14.164-22.276-17.946-37.468-11.907-19.613 7.796-15.744 30.236-15.366 32.049.183.326.287.701.287 1.101-.001 1.247-1.012 2.258-2.259 2.258z"/><path fill="#F6A279" d="M171.238 132.254c-1.046 0-1.985-.731-2.208-1.796-.254-1.215.521-2.406 1.732-2.668.486-.111 4.614-1.205 4.614-6.167 0-1.502.335-2.75.995-3.708.764-1.109 1.928-1.745 3.195-1.745 2.194 0 4.464 2.04 4.464 5.453 0 .287-.021.636-.046 1.029-.083 1.29-.196 3.056.69 4 .843.899 2.581 1.087 3.891 1.087 1.247 0 2.258 1.011 2.258 2.258s-1.011 2.258-2.258 2.258c-3.203 0-5.62-.846-7.184-2.514-1.368-1.458-1.815-3.252-1.931-4.825-1.339 4.685-5.406 6.802-7.748 7.291-.155.031-.31.047-.464.047z"/><path fill="#F6A279" d="M143.104 257.565c-5.619 0-9.126-1.882-12.84-3.875-4.208-2.258-8.559-4.592-16.791-4.592-8.226 0-13.396 2.333-18.396 4.589-4.42 1.994-8.595 3.878-14.339 3.878-11.973 0-20.791-4.173-21.16-4.351-.562-.271-.798-.944-.528-1.506.269-.562.943-.798 1.505-.529.086.041 8.749 4.128 20.183 4.128 5.258 0 9.218-1.787 13.411-3.679 4.974-2.244 10.612-4.788 19.324-4.788 8.8 0 13.612 2.582 17.858 4.86 3.606 1.936 6.721 3.606 11.772 3.606 5.049 0 9.442-1.659 14.53-3.58 6.066-2.29 12.941-4.887 22.269-4.887.624 0 1.129.506 1.129 1.129s-.505 1.129-1.129 1.129c-8.916 0-15.586 2.519-21.471 4.741-5.074 1.918-9.866 3.727-15.327 3.727z"/><path fill="#F6A279" d="M143.104 248.553c-5.619 0-9.126-1.882-12.84-3.874-4.208-2.258-8.559-4.592-16.791-4.592-8.224 0-13.393 2.333-18.391 4.589-2.512 1.134-4.885 2.205-7.549 2.943-.603.169-1.223-.186-1.39-.786s.186-1.223.786-1.39c2.497-.692 4.793-1.729 7.224-2.826 4.973-2.244 10.609-4.788 19.32-4.788 8.8 0 13.612 2.582 17.858 4.86 3.606 1.935 6.721 3.605 11.772 3.605s9.445-1.658 14.533-3.578c2.983-1.126 6.068-2.29 9.554-3.21.603-.159 1.221.201 1.379.804.159.603-.201 1.221-.803 1.38-3.374.89-6.403 2.033-9.333 3.139-5.073 1.915-9.866 3.724-15.329 3.724z"/><path fill="#F6A279" d="M143.105 239.544c-5.618 0-9.125-1.882-12.838-3.874-3.339-1.792-6.791-3.644-12.233-4.322-.619-.077-1.058-.642-.98-1.26.077-.619.64-1.059 1.26-.98 5.859.73 9.664 2.771 13.021 4.573 3.606 1.935 6.72 3.605 11.771 3.605 3.954 0 7.584-1.079 10.614-2.136.591-.201 1.232.106 1.438.695.205.588-.106 1.231-.694 1.438-3.21 1.117-7.069 2.261-11.359 2.261z"/><path fill="#F6A279" d="M143.104 266.031c-5.619 0-9.126-1.882-12.84-3.874-4.208-2.258-8.559-4.592-16.791-4.592-8.226 0-13.396 2.332-18.396 4.588-4.42 1.994-8.595 3.878-14.339 3.878-11.973 0-20.791-4.173-21.16-4.351-.562-.271-.798-.944-.528-1.506.269-.561.943-.798 1.505-.529.086.041 8.749 4.128 20.183 4.128 5.258 0 9.218-1.786 13.411-3.678 4.975-2.244 10.613-4.788 19.324-4.788 8.8 0 13.612 2.582 17.858 4.86 3.606 1.935 6.721 3.605 11.772 3.605 5.049 0 9.442-1.659 14.53-3.58 6.066-2.29 12.941-4.886 22.269-4.886.624 0 1.129.506 1.129 1.129s-.505 1.129-1.129 1.129c-8.916 0-15.586 2.519-21.471 4.74-5.074 1.917-9.867 3.727-15.327 3.727z"/><path fill="#F6A279" d="M143.104 274.498c-5.619 0-9.126-1.882-12.84-3.875-4.208-2.258-8.559-4.592-16.791-4.592-8.226 0-13.396 2.333-18.396 4.589-4.42 1.994-8.595 3.878-14.339 3.878-6.558 0-12.196-1.286-15.772-2.365-.597-.181-.935-.811-.754-1.407.18-.597.808-.931 1.407-.755 3.43 1.035 8.837 2.27 15.12 2.27 5.258 0 9.218-1.787 13.411-3.679 4.974-2.244 10.612-4.788 19.324-4.788 8.8 0 13.612 2.582 17.858 4.86 3.606 1.936 6.721 3.606 11.772 3.606 5.048 0 9.442-1.659 14.53-3.579 5.404-2.041 11.53-4.354 19.439-4.806.626-.03 1.156.44 1.191 1.062.036.622-.44 1.156-1.062 1.191-7.564.433-13.262 2.584-18.771 4.663-5.074 1.917-9.867 3.727-15.327 3.727z"/><path fill="#F6A279" d="M143.102 282.964c-5.619 0-9.126-1.882-12.84-3.874-4.208-2.258-8.558-4.592-16.791-4.592-8.226 0-13.396 2.332-18.396 4.588-4.42 1.994-8.595 3.878-14.339 3.878-2.76 0-5.589-.228-8.408-.675-.616-.099-1.036-.677-.938-1.292.098-.616.676-1.03 1.292-.938 2.702.43 5.412.647 8.054.647 5.258 0 9.218-1.786 13.411-3.678 4.975-2.244 10.613-4.788 19.324-4.788 8.8 0 13.612 2.582 17.858 4.86 3.607 1.935 6.721 3.605 11.773 3.605 5.051 0 9.446-1.659 14.534-3.581 4.208-1.59 8.56-3.232 13.873-4.163.611-.102 1.2.303 1.307.918.107.614-.303 1.199-.917 1.307-5.104.893-9.354 2.498-13.465 4.051-5.075 1.916-9.869 3.727-15.332 3.727z"/><path fill="#F6A279" d="M143.104 291.429c-5.619 0-9.126-1.882-12.84-3.874-4.208-2.258-8.559-4.592-16.791-4.592-8.223 0-13.392 2.331-18.391 4.586-3.448 1.556-6.705 3.024-10.701 3.614-.622.085-1.191-.336-1.281-.952-.091-.617.335-1.19.952-1.282 3.684-.543 6.801-1.949 10.102-3.438 4.974-2.243 10.611-4.786 19.319-4.786 8.8 0 13.612 2.582 17.858 4.86 3.606 1.935 6.721 3.605 11.772 3.605 5.454 0 11.174-1.968 17.043-4.16.586-.219 1.234.079 1.453.663.218.584-.079 1.233-.663 1.452-6.07 2.269-12.002 4.304-17.832 4.304z"/><path fill="#F6A279" d="M134.381 297.975c-.156 0-.313-.032-.464-.101-1.256-.567-2.421-1.192-3.655-1.854-4.208-2.259-8.558-4.594-16.787-4.594-8.208 0-13.417 2.347-18.013 4.417-.57.252-1.237.003-1.493-.565s-.003-1.237.565-1.493c4.566-2.057 10.248-4.616 18.941-4.616 8.796 0 13.608 2.583 17.854 4.862 1.199.644 2.332 1.251 3.518 1.787.568.256.82.925.564 1.493-.189.417-.6.664-1.03.664z"/><path fill="#F6A279" d="M261.855 145.968c-.309 0-.623-.064-.924-.199-1.137-.51-1.645-1.846-1.135-2.983.15-.334 14.926-33.807 8.744-65.43-.239-1.224.559-2.41 1.783-2.649 1.218-.237 2.409.559 2.648 1.783 6.462 33.059-8.42 66.729-9.057 68.146-.375.836-1.198 1.332-2.059 1.332z"/><line x1="211.796" y1="135.418" x2="223.276" y2="110.878" fill="none"/></svg>