<?xml version="1.0" encoding="UTF-8" standalone="no"?>
<!-- Created with Sodipodi ("http://www.sodipodi.com/") -->

<svg
   xmlns:dc="http://purl.org/dc/elements/1.1/"
   xmlns:cc="http://creativecommons.org/ns#"
   xmlns:rdf="http://www.w3.org/1999/02/22-rdf-syntax-ns#"
   xmlns:svg="http://www.w3.org/2000/svg"
   xmlns="http://www.w3.org/2000/svg"
   xmlns:xlink="http://www.w3.org/1999/xlink"
   xmlns:sodipodi="http://sodipodi.sourceforge.net/DTD/sodipodi-0.dtd"
   xmlns:inkscape="http://www.inkscape.org/namespaces/inkscape"
   version="1.1"
   inkscape:version="0.92.0 unknown"
   sodipodi:docname="gnu_flatten.svg"
   sodipodi:version="0.32"
   id="svg602"
   viewBox="0 0 600 600"
   height="8.34112in"
   width="8.34112in">
  <sodipodi:namedview
     inkscape:snap-nodes="false"
     inkscape:snap-others="false"
     inkscape:current-layer="svg602"
     inkscape:window-maximized="1"
     showgrid="false"
     inkscape:window-y="0"
     inkscape:window-x="1920"
     inkscape:window-height="1029"
     inkscape:window-width="1920"
     inkscape:cy="384.60401"
     inkscape:cx="285.51618"
     inkscape:zoom="1"
     id="base" />
  <defs
     id="defs605">
    <linearGradient
       id="linearGradient659">
      <stop
         style="stop-color:#a0a0a0;stop-opacity:1.0000000;"
         offset="0.0000000"
         id="stop660" />
      <stop
         style="stop-color:#000000;stop-opacity:1.0000000;"
         offset="1.0000000"
         id="stop661" />
    </linearGradient>
    <linearGradient
       xlink:href="#linearGradient659"
       id="linearGradient662"
       x1="0.46587536"
       y1="0.96732026"
       x2="0.45994064"
       y2="0.052287582" />
  </defs>
  <path
     style="stroke-width:1.49859975;stroke-dasharray:none;stroke-linejoin:round;stroke-linecap:round;fill:none;stroke:#000000;stroke-opacity:1;stroke-miterlimit:4;stroke-dashoffset:0"
     d="M335.2118 491.4533L330.0108875 508.8458625L319.2938 522.2128L309.6694 505.3849L299.06 522.566L274.8492 505.149975L256.411896875 486.500215625L244.2655 464.9962L229.0290875 427.4198125L209.4996 384.4678"
     id="path629"
     sodipodi:nodetypes="ccccsc" />
  <path
     style="stroke-width:1.49859975;stroke-dasharray:none;stroke-linejoin:round;stroke-linecap:round;fill:none;stroke:#000000;stroke-opacity:1;fill-opacity:1;fill-rule:nonzero;stroke-miterlimit:4;stroke-dashoffset:0"
     d="M178.6188 224.9427L217.3773 197.1888125L246.9171 186.1561L265.1892625 188.9869L281.4995 193.0L302.439075 188.749425L322.9963 182.9981L362.0 192.0L382.00865 187.099121875L402.868325 188.75525L422.0438375 196.783753125L437.0 211.0L471.0 264.0L482.265625 264.328125L508.625 259.125L538.921875 239.109375L552.060546875 220.646484375L562.0 195.0L564.125 137.00000125L552.0 97.00001L525.375 68.99998125L506.578125 60.7187332812L486.0 58.99999L450.375 69.74998875L426.0 78.99998L402.0 77.00002L404.125 84.5000075L416.0 95.00001L450.75 98.625005L484.0 106.0L501.125 133.75L507.0 175.0L501.79063125 191.306995312L493.85835 200.9019875L480.0 207.0L464.93890625 204.004576563L450.28705 193.5415625L425.0 163.0L401.782025 136.541975L371.0 126.0L341.5565875 135.536L321.5298 145.5871L294.4343875 134.29715L278.661660937 126.11734375L263.0 123.0L245.216736133 127.850264648L228.309089062 138.446498437L196.5186625 169.0376625L166.424754688 199.095070313L151.637756055 209.024108789L136.8234 212.9403L125.04209375 209.270440625L116.9149 199.83865L110.0 176.0L122.375 131.1250025L140.234375 106.953125L167.0 95.99999L243.0 95.00001L258.3228125 86.1557225L265.0 77.00002L256.040575 79.73476625L239.2339 78.5871L206.9472125 63.66288625L182.312992187 57.1315682812L150.0 58.00001L110.1875 75.3124957812L78.25 104.99999375L57.1875 138.437497344L50.0 167.0L60.125 224.125L74.609375 252.359375L98.0 273.0L137.25 287.5L148.0 287.0L154.7028875 262.9604125L164.152285937 242.501848438L178.6188 224.9427L178.6188 224.9427"
     id="path630"
     sodipodi:nodetypes="cscccccccccccccssscsssccccccccs" />
  <path
     style="stroke-width:1.49859975;stroke-dasharray:none;stroke-linejoin:round;stroke-linecap:round;fill:none;stroke:#000000;stroke-opacity:1;stroke-miterlimit:4;stroke-dashoffset:0"
     d="M147.8855 287.5226L131.0 332.0L108.0 363.0L154.6118625 348.486L187.568564063 334.363209375L213.0 318.0L225.5 296.25L234.25 266.25L248.0 222.0L265.25 213.125L275.0 211.0"
     id="path631"
     sodipodi:nodetypes="cscccc" />
  <path
     style="stroke-width:1.49859975;stroke-dasharray:none;stroke-linejoin:round;stroke-linecap:round;fill:none;stroke:#000000;stroke-opacity:1;stroke-miterlimit:4;stroke-dashoffset:0"
     d="M470.7963 263.5462L479.741425 284.8725125L489.269728125 295.364785937L503.0 297.0L490.5255 311.3682125L466.0 313.75L434.3158375 303.154625L415.0 283.5L416.0 307.0L415.301 318.0486"
     id="path632"
     sodipodi:nodetypes="ccsccc" />
  <path
     style="stroke-width:1.49859975;stroke-dasharray:none;stroke-linejoin:round;stroke-linecap:round;fill:none;stroke:#000000;stroke-opacity:1;stroke-miterlimit:4;stroke-dashoffset:0"
     d=""
     id="path633"
     sodipodi:nodetypes="c" />
  <path
     style="stroke-width:1.49859975;stroke-dasharray:none;stroke-linejoin:round;stroke-linecap:round;fill:none;stroke:#000000;stroke-opacity:1;stroke-miterlimit:4;stroke-dashoffset:0"
     d="M386.4582 343.6468L370.0089375 321.017575L342.0 313.0L325.53125 320.484375L319.75 332.375L323.0 351.0"
     id="path634"
     sodipodi:nodetypes="ccc" />
  <path
     style="font-size:12;stroke:#000000;stroke-width:1.49859975;stroke-linecap:round;stroke-linejoin:round;stroke-miterlimit:4;stroke-dasharray:none;stroke-dashoffset:0;fill:none"
     d="M340.4276 333.0441L351.0635375 331.65975L362.3405 339.2184L369.5237 359.2252L357.0041 353.0151L340.4276 345.756L340.4276 333.0441L340.4276 333.0441"
     id="path635"
     sodipodi:nodetypes="csssss" />
  <path
     style="stroke-width:1.49859975;stroke-dasharray:none;stroke-linejoin:round;stroke-linecap:round;fill:none;stroke:#000000;stroke-opacity:1;stroke-miterlimit:4;stroke-dashoffset:0"
     d="M388.0 211.0L379.03125 222.09375L374.0 245.75L409.5 307.5L417.625 320.62615L428.0 325.5023L435.5964625 322.648275L445.9953 323.851L452.2600875 342.030225L448.5033 359.0L439.8165 382.0894L441.0 402.0L431.9720625 416.542925L420.0 421.0L377.5042 416.4958L331.7152 419.7380375L305.400953125 412.209057813L284.5126 387.9804"
     id="path636"
     sodipodi:nodetypes="cccssssscsc" />
  <path
     style="stroke-width:1.49859975;stroke-dasharray:none;stroke-linejoin:round;stroke-linecap:round;fill:none;stroke:#000000;stroke-opacity:1;stroke-miterlimit:4;stroke-dashoffset:0"
     d="M434.5774 415.0769L435.9275 429.1805375L430.6953 447.9338L400.1143 485.1289L387.7260875 502.582975L366.7203 522.9106L357.6787 498.4092L350.4663875 515.4914375L339.7953 525.5323L336.805875 511.5531875L332.8434 502.3056"
     id="path637"
     sodipodi:nodetypes="ccscccc" />
  <path
     style="stroke-width:1.49859975;stroke-dasharray:none;stroke-linejoin:round;stroke-linecap:round;fill:none;stroke:#000000;stroke-opacity:1;stroke-dashoffset:0;stroke-miterlimit:4"
     d="M319.0 211.0L329.0591625 225.8668125L337.2479 247.4837"
     id="path638"
     sodipodi:nodetypes="cc" />
  <path
     style="stroke-width:1.49859975;stroke-dasharray:none;stroke-linejoin:round;stroke-linecap:round;fill:none;stroke:#000000;stroke-opacity:1;stroke-miterlimit:4;stroke-dashoffset:0"
     d="M394.0 200.0L407.0 215.0L408.25 229.625L405.0 242.0"
     id="path639" />
  <path
     style="stroke-width:1.49859975;stroke-dasharray:none;stroke-linejoin:round;stroke-linecap:round;fill:none;stroke:#000000;stroke-opacity:1;stroke-miterlimit:4;stroke-dashoffset:0"
     d="M407.5 276.0L415.5509 298.9247"
     id="path640"
     sodipodi:nodetypes="cc" />
  <path
     style="stroke-width:1.49859975;stroke-dasharray:none;stroke-linejoin:round;stroke-linecap:round;fill:none;stroke:#000000;stroke-opacity:1;stroke-miterlimit:4;stroke-dashoffset:0"
     d="M407.5 249.0L407.5 241.5"
     id="path641" />
  <path
     style="stroke-width:1.49859975;stroke-dasharray:none;stroke-linejoin:round;stroke-linecap:round;fill:none;stroke:#000000;stroke-opacity:1;fill-opacity:1;stroke-miterlimit:4;stroke-dashoffset:0"
     d="M378.5 250.75L395.75 245.75L412.5 254.0L409.75 260.5L399.0 252.5L378.5 250.75L378.5 250.75"
     id="path642" />
  <path
     style="font-size:12;stroke:#000000;stroke-width:1.49859975;stroke-linecap:round;stroke-linejoin:round;stroke-miterlimit:4;stroke-dasharray:none;stroke-dashoffset:0;fill:none"
     d="M394.3958 252.1301L387.4946125 254.2292625L384.4866 261.0313L392.4543 267.8002L401.0161 260.2463L394.3958 252.1301L394.3958 252.1301"
     id="path643"
     sodipodi:nodetypes="cssss" />
  <path
     style="stroke-width:1.49859975;stroke-dasharray:none;stroke-linejoin:round;stroke-linecap:round;fill:none;stroke:#000000;stroke-opacity:1;fill-opacity:1;stroke-miterlimit:4;stroke-dashoffset:0"
     d="M319.25 255.5L314.0 245.75L287.2495 249.9993L272.0 265.0L295.7467 254.5007L319.25 255.5L319.25 255.5"
     id="path644"
     sodipodi:nodetypes="ccccsc" />
  <path
     style="stroke-width:1.49859975;stroke-dasharray:none;stroke-linejoin:round;stroke-linecap:round;fill:none;stroke:#000000;stroke-opacity:1;stroke-miterlimit:4;stroke-dashoffset:0"
     d="M277.7472 265.4998L287.004425 271.34305L303.0082 272.5024L315.59425 265.9085L317.5 262.5"
     id="path645"
     sodipodi:nodetypes="ccc" />
  <path
     style="fill:none;fill-opacity:1;stroke:#000000;stroke-width:1.49859977;stroke-linecap:round;stroke-linejoin:round;stroke-miterlimit:4;stroke-dasharray:none;stroke-dashoffset:0;stroke-opacity:1"
     d="M300.19265 254.13565L292.0595 263.1213L301.3929 270.5238L308.3705375 267.315L310.1704 260.5788L300.19265 254.13565L300.19265 254.13565"
     id="path646"
     sodipodi:nodetypes="sssss"
     inkscape:connector-curvature="0" />
  <path
     style="stroke-width:1.49859975;stroke-dasharray:none;stroke-linejoin:round;stroke-linecap:round;fill:none;stroke:#000000;stroke-opacity:1;stroke-miterlimit:4;stroke-dashoffset:0"
     d="M275.24997 247.74203L283.1891625 235.09344L293.75373 230.5L309.752315 234.719125L315.25 241.0"
     id="path647"
     sodipodi:nodetypes="ccc" />
  <path
     style="stroke-width:1.49859975;stroke-dasharray:none;stroke-linejoin:round;stroke-linecap:round;fill:none;stroke:#000000;stroke-opacity:1;stroke-miterlimit:4;stroke-dashoffset:0"
     d="M374.7512 237.753L387.2481 232.5L399.5256375 234.2497375L403.7448 237.4991"
     id="path648"
     sodipodi:nodetypes="ccc" />
  <path
     style="fill:none;fill-rule:evenodd;stroke:black;stroke-opacity:1;stroke-width:1.49859975;stroke-linejoin:round;stroke-linecap:round;stroke-dasharray:none;stroke-dashoffset:0;fill-opacity:1;stroke-miterlimit:4"
     d="M386.8886 268.5594L398.5027 269.6835L408.3685 266.0619"
     id="path652"
     sodipodi:nodetypes="ccc" />
  <path
     sodipodi:type="arc"
     style="fill-rule:evenodd;stroke:none;fill:none;fill-opacity:1;stroke-opacity:1;stroke-width:1.12394419;stroke-linejoin:round;stroke-linecap:round;stroke-miterlimit:4;stroke-dasharray:none;stroke-dashoffset:0"
     id="path657"
     d="M299.719994 261.4412L298.596047 259.38630618L296.348153 259.38630618L295.224209 261.4412L296.348156 263.49609382L298.59605 263.49609382L299.719997 261.4412L299.72 261.4412"
     sodipodi:cx="297.472137"
     sodipodi:cy="261.441223"
     sodipodi:rx="2.24789429"
     sodipodi:ry="2.37278748"
     transform="matrix(1.33334,0,0,1.33334,-98.4101,-87.60663)" />
  <path
     sodipodi:type="arc"
     style="fill-rule:evenodd;stroke:none;fill:none;fill-opacity:1;stroke-opacity:1;stroke-width:1.28450985;stroke-linejoin:round;stroke-linecap:round;stroke-miterlimit:4;stroke-dasharray:none;stroke-dashoffset:0"
     id="path658"
     d="M299.719994 261.4412L298.596047 259.38630618L296.348153 259.38630618L295.224209 261.4412L296.348156 263.49609382L298.59605 263.49609382L299.719997 261.4412L299.72 261.4412"
     sodipodi:cx="297.472137"
     sodipodi:cy="261.441223"
     sodipodi:rx="2.24789429"
     sodipodi:ry="2.37278748"
     transform="matrix(1.166669,0,0,1.166672,43.45883,-46.17665)" />
  <path
     style="fill:none;fill-rule:evenodd;stroke:black;stroke-opacity:1;stroke-width:1.49859975;stroke-linejoin:round;stroke-linecap:round;stroke-dasharray:none;stroke-dashoffset:0;fill-opacity:1;stroke-miterlimit:4"
     d="M309.731 505.1258L310.4375 492.0565"
     id="path736"
     sodipodi:nodetypes="cc" />
  <path
     style="fill:none;fill-rule:evenodd;stroke:black;stroke-opacity:1;stroke-width:1.49859975;stroke-linejoin:round;stroke-linecap:round;stroke-dasharray:none;stroke-dashoffset:0;fill-opacity:1;stroke-miterlimit:4"
     d="M357.6535 498.5306L356.7244 489.7157"
     id="path737"
     sodipodi:nodetypes="cc" />
  <metadata
     id="metadata1601">
    <rdf:RDF>
      <cc:Work
         rdf:about="">
        <dc:format>image/svg+xml</dc:format>
        <dc:type
           rdf:resource="http://purl.org/dc/dcmitype/StillImage" />
        <dc:title></dc:title>
      </cc:Work>
    </rdf:RDF>
  </metadata>
  <path
     style="fill:none;stroke:#000000;stroke-width:1.49859975;stroke-linecap:butt;stroke-linejoin:miter;stroke-opacity:1;stroke-miterlimit:4;stroke-dasharray:none"
     d="M426.917 453.2415L386.00529125 461.60253625L338.9408 458.7767"
     id="path4530"
     inkscape:connector-curvature="0"
     sodipodi:nodetypes="cc" />
  <circle
     style="opacity:1;fill:#ffffff;fill-opacity:1;fill-rule:nonzero;stroke:#000000;stroke-width:1.04901981;stroke-linecap:round;stroke-miterlimit:4;stroke-dasharray:none;stroke-dashoffset:0;stroke-opacity:1"
     id="path5367"
     cx="297.17123"
     cy="260.70691"
     r="2.3842578" />
  <circle
     style="opacity:1;fill:#ffffff;fill-opacity:1;fill-rule:nonzero;stroke:#000000;stroke-width:1.04901981;stroke-linecap:round;stroke-miterlimit:4;stroke-dasharray:none;stroke-dashoffset:0;stroke-opacity:1"
     id="path5367-3"
     cx="389.42874"
     cy="259.05118"
     r="2.3842578" />
</svg>
