<?xml version="1.0" encoding="UTF-8" standalone="no"?>
<!-- Created with Sodipodi ("http://www.sodipodi.com/") -->

<svg
   xmlns:dc="http://purl.org/dc/elements/1.1/"
   xmlns:cc="http://creativecommons.org/ns#"
   xmlns:rdf="http://www.w3.org/1999/02/22-rdf-syntax-ns#"
   xmlns:svg="http://www.w3.org/2000/svg"
   xmlns="http://www.w3.org/2000/svg"
   xmlns:xlink="http://www.w3.org/1999/xlink"
   xmlns:sodipodi="http://sodipodi.sourceforge.net/DTD/sodipodi-0.dtd"
   xmlns:inkscape="http://www.inkscape.org/namespaces/inkscape"
   version="1.1"
   inkscape:version="0.92.0 unknown"
   sodipodi:docname="gnu_flatten.svg"
   sodipodi:version="0.32"
   id="svg602"
   viewBox="0 0 600 600"
   height="8.34112in"
   width="8.34112in">
  <sodipodi:namedview
     inkscape:snap-nodes="false"
     inkscape:snap-others="false"
     inkscape:current-layer="svg602"
     inkscape:window-maximized="1"
     showgrid="false"
     inkscape:window-y="0"
     inkscape:window-x="1920"
     inkscape:window-height="1029"
     inkscape:window-width="1920"
     inkscape:cy="384.60401"
     inkscape:cx="285.51618"
     inkscape:zoom="1"
     id="base" />
  <defs
     id="defs605">
    <linearGradient
       id="linearGradient659">
      <stop
         style="stop-color:#a0a0a0;stop-opacity:1.0000000;"
         offset="0.0000000"
         id="stop660" />
      <stop
         style="stop-color:#000000;stop-opacity:1.0000000;"
         offset="1.0000000"
         id="stop661" />
    </linearGradient>
    <linearGradient
       xlink:href="#linearGradient659"
       id="linearGradient662"
       x1="0.46587536"
       y1="0.96732026"
       x2="0.45994064"
       y2="0.052287582" />
  </defs>
  <path
     style="stroke-width:1.49859975;stroke-dasharray:none;stroke-linejoin:round;stroke-linecap:round;fill:none;stroke:#000000;stroke-opacity:1;stroke-miterlimit:4;stroke-dashoffset:0"
     d="M335.2118 491.4533L330.0108875 508.8458625L319.2938 522.2128L309.6694 505.3849L299.06 522.566L274.8492 505.149975L256.411896875 486.500215625L244.2655 464.9962L229.0290875 427.4198125L209.4996 384.4678"
     id="path629"
     sodipodi:nodetypes="ccccsc" />
  <path
     style="stroke-width:1.49859975;stroke-dasharray:none;stroke-linejoin:round;stroke-linecap:round;fill:none;stroke:#000000;stroke-opacity:1;fill-opacity:1;fill-rule:nonzero;stroke-miterlimit:4;stroke-dashoffset:0"
     d="M178.6188 224.9427L217.3773 197.1888125L246.9171 186.1561L265.1892625 188.9869L281.4995 193.0L302.439075 188.749425L322.9963 182.9981L362.0 192.0L382.00865 187.099121875L402.868325 188.75525L422.0438375 196.783753125L437.0 211.0L471.0 264.0L482.265625 264.328125L508.625 259.125L538.921875 239.109375L552.060546875 220.646484375L562.0 195.0L564.125 137.00000125L552.0 97.00001L525.375 68.99998125L506.578125 60.7187332812L486.0 58.99999L450.375 69.74998875L426.0 78.99998L402.0 77.00002L404.125 84.5000075L416.0 95.00001L450.75 98.625005L484.0 106.0L501.125 133.75L507.0 175.0L501.79063125 191.306995312L493.85835 200.9019875L480.0 207.0L464.93890625 204.004576563L450.28705 193.5415625L425.0 163.0L401.782025 136.541975L371.0 126.0L341.5565875 135.536L321.5298 145.5871L294.4343875 134.29715L278.661660937 126.11734375L263.0 123.0L245.216736133 127.850264648L228.309089062 138.446498437L196.5186625 169.0376625L166.424754688 199.095070313L151.637756055 209.024108789L136.8234 212.9403L125.04209375 209.270440625L116.9149 199.83865L110.0 176.0L122.375 131.1250025L140.234375 106.953125L167.0 95.99999L243.0 95.00001L258.3228125 86.1557225L265.0 77.00002L256.040575 79.73476625L239.2339 78.5871L206.9472125 63.66288625L182.312992187 57.1315682812L150.0 58.00001L110.1875 75.3124957812L78.25 104.99999375L57.1875 138.437497344L50.0 167.0L60.125 224.125L74.609375 252.359375L98.0 273.0L137.25 287.5L148.0 287.0L154.7028875 262.9604125L164.152285937 242.501848438L178.6188 224.9427L178.6188 224.9427"
     id="path630"
     sodipodi:nodetypes="cscccccccccccccssscsssccccccccs" />
  <path
     style="stroke-width:1.49859975;stroke-dasharray:none;stroke-linejoin:round;stroke-linecap:round;fill:none;stroke:#000000;stroke-opacity:1;stroke-miterlimit:4;stroke-dashoffset:0"
     d="M147.8855 287.5226L131.0 332.0L108.0 363.0L154.6118625 348.486L187.568564063 334.363209375L213.0 318.0L225.5 296.25L234.25 266.25L248.0 222.0L265.25 213.125L275.0 211.0"
     id="path631"
     sodipodi:nodetypes="cscccc" />
  <path
     style="stroke-width:1.49859975;stroke-dasharray:none;stroke-linejoin:round;stroke-linecap:round;fill:none;stroke:#000000;stroke-opacity:1;stroke-miterlimit:4;stroke-dashoffset:0"
     d="M470.7963 263.5462L479.741425 284.8725125L489.269728125 295.364785937L503.0 297.0L490.5255 311.3682125L466.0 313.75L434.3158375 303.154625L415.0 283.5L416.0 307.0L415.301 318.0486"
     id="path632"
     sodipodi:nodetypes="ccsccc" />
  <path
     style="stroke-width:1.49859975;stroke-dasharray:none;stroke-linejoin:round;stroke-linecap:round;fill:none;stroke:#000000;stroke-opacity:1;stroke-miterlimit:4;stroke-dashoffset:0"
     d=""
     id="path633"
     sodipodi:nodetypes="c" />
  <path
     style="stroke-width:1.49859975;stroke-dasharray:none;stroke-linejoin:round;stroke-linecap:round;fill:none;stroke:#000000;stroke-opacity:1;stroke-miterlimit:4;stroke-dashoffset:0"
     d="M386.4582 343.6468L370.0089375 321.017575L342.0 313.0L325.53125 320.484375L319.75 332.375L323.0 351.0"
     id="path634"
     sodipodi:nodetypes="ccc" />
  <path
     style="fill:none;fill-rule:evenodd;stroke:black;stroke-opacity:1;stroke-width:1.49859975;stroke-linejoin:round;stroke-linecap:round;stroke-dasharray:none;stroke-dashoffset:0;fill-opacity:1;stroke-miterlimit:4"
     d="M357.6535 498.5306L356.7244 489.7157"
     id="path737"
     sodipodi:nodetypes="cc" />
  <metadata
     id="metadata1601">
    <rdf:RDF>
      <cc:Work
         rdf:about="">
        <dc:format>image/svg+xml</dc:format>
        <dc:type
           rdf:resource="http://purl.org/dc/dcmitype/StillImage" />
        <dc:title></dc:title>
      </cc:Work>
    </rdf:RDF>
  </metadata>
  <path
     style="fill:none;stroke:#000000;stroke-width:1.49859975;stroke-linecap:butt;stroke-linejoin:miter;stroke-opacity:1;stroke-miterlimit:4;stroke-dasharray:none"
     d="M426.917 453.2415L386.00529125 461.60253625L338.9408 458.7767"
     id="path4530"
     inkscape:connector-curvature="0"
     sodipodi:nodetypes="cc" />
  <circle
     style="opacity:1;fill:#ffffff;fill-opacity:1;fill-rule:nonzero;stroke:#000000;stroke-width:1.04901981;stroke-linecap:round;stroke-miterlimit:4;stroke-dasharray:none;stroke-dashoffset:0;stroke-opacity:1"
     id="path5367"
     cx="297.17123"
     cy="260.70691"
     r="2.3842578" />
  <circle
     style="opacity:1;fill:#ffffff;fill-opacity:1;fill-rule:nonzero;stroke:#000000;stroke-width:1.04901981;stroke-linecap:round;stroke-miterlimit:4;stroke-dasharray:none;stroke-dashoffset:0;stroke-opacity:1"
     id="path5367-3"
     cx="389.42874"
     cy="259.05118"
     r="2.3842578" />
</svg>
