<?xml version="1.0" encoding="UTF-8" standalone="no"?>
<!DOCTYPE svg PUBLIC "-//W3C//DTD SVG 1.1//EN"
 "http://www.w3.org/Graphics/SVG/1.1/DTD/svg11.dtd">
<!-- Generated by graphviz version 2.38.0 (20140413.2041)
 -->
<!-- Title: fastConsoleCase Pages: 1 -->
<svg width="250pt" height="104pt"
 viewBox="0.00 0.00 250.00 104.00" xmlns="http://www.w3.org/2000/svg" xmlns:xlink="http://www.w3.org/1999/xlink">
<g id="graph0" class="graph" transform="scale(1 1) rotate(0) translate(4 100)">
<title>fastConsoleCase</title>
<polygon fill="white" stroke="none" points="-4,4 -4,-100 246,-100 246,4 -4,4"/>
<!-- Node1 -->
<g id="node1" class="node"><title>Node1</title>
<polygon fill="#bfbfbf" stroke="black" points="0,-38.5 0,-57.5 92,-57.5 92,-38.5 0,-38.5"/>
<text text-anchor="middle" x="46" y="-45.5" font-family="Helvetica,sans-Serif" font-size="10.00">fastConsoleCase</text>
</g>
<!-- Node2 -->
<g id="node2" class="node"><title>Node2</title>
<g id="a_node2"><a xlink:href="a00067.html#gabb0a95fd20e5e2a894e658b64a29ee61" target="_top" xlink:title="Gets string from USART. ">
<polygon fill="white" stroke="black" points="136.5,-76.5 136.5,-95.5 233.5,-95.5 233.5,-76.5 136.5,-76.5"/>
<text text-anchor="middle" x="185" y="-83.5" font-family="Helvetica,sans-Serif" font-size="10.00">TM_USART_Gets</text>
</a>
</g>
</g>
<!-- Node1&#45;&gt;Node2 -->
<g id="edge1" class="edge"><title>Node1&#45;&gt;Node2</title>
<path fill="none" stroke="midnightblue" d="M81.5709,-57.589C99.1752,-62.4719 120.779,-68.4643 139.601,-73.685"/>
<polygon fill="midnightblue" stroke="midnightblue" points="138.868,-77.1138 149.44,-76.4141 140.739,-70.3685 138.868,-77.1138"/>
</g>
<!-- Node3 -->
<g id="node3" class="node"><title>Node3</title>
<g id="a_node3"><a xlink:href="a00132.html#ga3471071fc0b691d5ea05997762e9171c" target="_top" xlink:title="__attribute__">
<polygon fill="white" stroke="black" points="148.5,-38.5 148.5,-57.5 221.5,-57.5 221.5,-38.5 148.5,-38.5"/>
<text text-anchor="middle" x="185" y="-45.5" font-family="Helvetica,sans-Serif" font-size="10.00">__attribute__</text>
</a>
</g>
</g>
<!-- Node1&#45;&gt;Node3 -->
<g id="edge2" class="edge"><title>Node1&#45;&gt;Node3</title>
<path fill="none" stroke="midnightblue" d="M92.2386,-48C106.914,-48 123.207,-48 137.941,-48"/>
<polygon fill="midnightblue" stroke="midnightblue" points="138.35,-51.5001 148.35,-48 138.35,-44.5001 138.35,-51.5001"/>
</g>
<!-- Node4 -->
<g id="node4" class="node"><title>Node4</title>
<g id="a_node4"><a xlink:href="a00122.html#gaeb2a63cb665253a003585484f0b0eb8e" target="_top" xlink:title="MDB_GPIO_BeamPin">
<polygon fill="white" stroke="black" points="128,-0.5 128,-19.5 242,-19.5 242,-0.5 128,-0.5"/>
<text text-anchor="middle" x="185" y="-7.5" font-family="Helvetica,sans-Serif" font-size="10.00">MDB_GPIO_BeamPin</text>
</a>
</g>
</g>
<!-- Node1&#45;&gt;Node4 -->
<g id="edge3" class="edge"><title>Node1&#45;&gt;Node4</title>
<path fill="none" stroke="midnightblue" d="M81.5709,-38.411C99.1752,-33.5281 120.779,-27.5357 139.601,-22.315"/>
<polygon fill="midnightblue" stroke="midnightblue" points="140.739,-25.6315 149.44,-19.5859 138.868,-18.8862 140.739,-25.6315"/>
</g>
</g>
</svg>
