<?xml version="1.0" encoding="UTF-8" standalone="no"?>
<!DOCTYPE svg PUBLIC "-//W3C//DTD SVG 1.1//EN"
 "http://www.w3.org/Graphics/SVG/1.1/DTD/svg11.dtd">
<!-- Generated by graphviz version 2.38.0 (20140413.2041)
 -->
<!-- Title: ADC_Cmd Pages: 1 -->
<svg width="319pt" height="82pt"
 viewBox="0.00 0.00 319.00 82.04" xmlns="http://www.w3.org/2000/svg" xmlns:xlink="http://www.w3.org/1999/xlink">
<g id="graph0" class="graph" transform="scale(1 1) rotate(0) translate(4 78.0353)">
<title>ADC_Cmd</title>
<polygon fill="white" stroke="none" points="-4,4 -4,-78.0353 315,-78.0353 315,4 -4,4"/>
<!-- Node1 -->
<g id="node1" class="node"><title>Node1</title>
<polygon fill="#bfbfbf" stroke="black" points="0,-38.5 0,-57.5 65,-57.5 65,-38.5 0,-38.5"/>
<text text-anchor="middle" x="32.5" y="-45.5" font-family="Helvetica,sans-Serif" font-size="10.00">ADC_Cmd</text>
</g>
<!-- Node2 -->
<g id="node2" class="node"><title>Node2</title>
<g id="a_node2"><a xlink:href="a01287.html#ga840291bc02cba5474a4cb46a9b9566fe" target="_top" xlink:title="Main function entry. ">
<polygon fill="white" stroke="black" points="273,-38.5 273,-57.5 311,-57.5 311,-38.5 273,-38.5"/>
<text text-anchor="middle" x="292" y="-45.5" font-family="Helvetica,sans-Serif" font-size="10.00">main</text>
</a>
</g>
</g>
<!-- Node1&#45;&gt;Node2 -->
<g id="edge1" class="edge"><title>Node1&#45;&gt;Node2</title>
<path fill="none" stroke="midnightblue" d="M70.5569,-60.3978C80.344,-63.1275 90.9753,-65.616 101,-67 160.877,-75.2664 177.418,-77.1762 237,-67 249.344,-64.8918 262.618,-60.2561 272.917,-56.0917"/>
<polygon fill="midnightblue" stroke="midnightblue" points="71.3056,-56.9697 60.7241,-57.5019 69.3279,-63.6846 71.3056,-56.9697"/>
</g>
<!-- Node3 -->
<g id="node3" class="node"><title>Node3</title>
<g id="a_node3"><a xlink:href="a01271.html#ga85f5a2827c06dbdba076d4e9125a11f8" target="_top" xlink:title="ADC common and regular scan group init. ">
<polygon fill="white" stroke="black" points="103.5,-38.5 103.5,-57.5 234.5,-57.5 234.5,-38.5 103.5,-38.5"/>
<text text-anchor="middle" x="169" y="-45.5" font-family="Helvetica,sans-Serif" font-size="10.00">ADC_Scan_Group_Config</text>
</a>
</g>
</g>
<!-- Node1&#45;&gt;Node3 -->
<g id="edge2" class="edge"><title>Node1&#45;&gt;Node3</title>
<path fill="none" stroke="midnightblue" d="M75.1487,-48C84.0816,-48 93.7229,-48 103.295,-48"/>
<polygon fill="midnightblue" stroke="midnightblue" points="75.0343,-44.5001 65.0343,-48 75.0342,-51.5001 75.0343,-44.5001"/>
</g>
<!-- Node4 -->
<g id="node4" class="node"><title>Node4</title>
<g id="a_node4"><a xlink:href="a01271.html#gad273dc4b4b26574e92666e4020e1ef5a" target="_top" xlink:title="Timer&#45;triggered ADC&#45;scan mode with DMA to memory. ">
<polygon fill="white" stroke="black" points="101,-0.5 101,-19.5 237,-19.5 237,-0.5 101,-0.5"/>
<text text-anchor="middle" x="169" y="-7.5" font-family="Helvetica,sans-Serif" font-size="10.00">TIM2_DMA_Trigger_Config</text>
</a>
</g>
</g>
<!-- Node1&#45;&gt;Node4 -->
<g id="edge4" class="edge"><title>Node1&#45;&gt;Node4</title>
<path fill="none" stroke="midnightblue" d="M74.6849,-36.3641C93.7965,-30.9646 116.231,-24.6263 134.312,-19.5178"/>
<polygon fill="midnightblue" stroke="midnightblue" points="73.706,-33.0036 65.0343,-39.0907 75.6092,-39.7399 73.706,-33.0036"/>
</g>
<!-- Node3&#45;&gt;Node2 -->
<g id="edge3" class="edge"><title>Node3&#45;&gt;Node2</title>
<path fill="none" stroke="midnightblue" d="M244.78,-48C255.097,-48 264.826,-48 272.672,-48"/>
<polygon fill="midnightblue" stroke="midnightblue" points="244.751,-44.5001 234.751,-48 244.751,-51.5001 244.751,-44.5001"/>
</g>
<!-- Node4&#45;&gt;Node2 -->
<g id="edge5" class="edge"><title>Node4&#45;&gt;Node2</title>
<path fill="none" stroke="midnightblue" d="M215.097,-22.3746C222.441,-24.5085 229.949,-26.762 237,-29 248.936,-32.7881 262.204,-37.4501 272.601,-41.2079"/>
<polygon fill="midnightblue" stroke="midnightblue" points="215.82,-18.941 205.243,-19.5517 213.892,-25.6704 215.82,-18.941"/>
</g>
</g>
</svg>
