<?xml version="1.0" encoding="UTF-8" standalone="no"?>
<!DOCTYPE svg PUBLIC "-//W3C//DTD SVG 1.1//EN"
 "http://www.w3.org/Graphics/SVG/1.1/DTD/svg11.dtd">
<!-- Generated by graphviz version 2.38.0 (20140413.2041)
 -->
<!-- Title: CRYP_PhaseConfig Pages: 1 -->
<svg width="250pt" height="66pt"
 viewBox="0.00 0.00 250.00 66.00" xmlns="http://www.w3.org/2000/svg" xmlns:xlink="http://www.w3.org/1999/xlink">
<g id="graph0" class="graph" transform="scale(1 1) rotate(0) translate(4 62)">
<title>CRYP_PhaseConfig</title>
<polygon fill="white" stroke="none" points="-4,4 -4,-62 246,-62 246,4 -4,4"/>
<!-- Node1 -->
<g id="node1" class="node"><title>Node1</title>
<polygon fill="#bfbfbf" stroke="black" points="0,-19.5 0,-38.5 107,-38.5 107,-19.5 0,-19.5"/>
<text text-anchor="middle" x="53.5" y="-26.5" font-family="Helvetica,sans-Serif" font-size="10.00">CRYP_PhaseConfig</text>
</g>
<!-- Node2 -->
<g id="node2" class="node"><title>Node2</title>
<g id="a_node2"><a xlink:href="a00571.html#ga74b48d820c5c360eb303fc2fb78af055" target="_top" xlink:title="Encrypt and decrypt using AES in GCM Mode. The GCM and CCM modes are available only on STM32F437x Dev...">
<polygon fill="white" stroke="black" points="143,-38.5 143,-57.5 242,-57.5 242,-38.5 143,-38.5"/>
<text text-anchor="middle" x="192.5" y="-45.5" font-family="Helvetica,sans-Serif" font-size="10.00">CRYP_AES_GCM</text>
</a>
</g>
</g>
<!-- Node1&#45;&gt;Node2 -->
<g id="edge1" class="edge"><title>Node1&#45;&gt;Node2</title>
<path fill="none" stroke="midnightblue" d="M117.132,-37.6863C125.777,-38.8851 134.546,-40.1013 142.886,-41.2579"/>
<polygon fill="midnightblue" stroke="midnightblue" points="117.462,-34.1985 107.076,-36.2916 116.5,-41.1322 117.462,-34.1985"/>
</g>
<!-- Node3 -->
<g id="node3" class="node"><title>Node3</title>
<g id="a_node3"><a xlink:href="a00571.html#ga9d9f5c74b634b85b7aa8c2a2ea0bcd51" target="_top" xlink:title="Encrypt and decrypt using AES in CCM Mode. The GCM and CCM modes are available only on STM32F437x Dev...">
<polygon fill="white" stroke="black" points="143,-0.5 143,-19.5 242,-19.5 242,-0.5 143,-0.5"/>
<text text-anchor="middle" x="192.5" y="-7.5" font-family="Helvetica,sans-Serif" font-size="10.00">CRYP_AES_CCM</text>
</a>
</g>
</g>
<!-- Node1&#45;&gt;Node3 -->
<g id="edge2" class="edge"><title>Node1&#45;&gt;Node3</title>
<path fill="none" stroke="midnightblue" d="M117.132,-20.3137C125.777,-19.1149 134.546,-17.8987 142.886,-16.7421"/>
<polygon fill="midnightblue" stroke="midnightblue" points="116.5,-16.8678 107.076,-21.7084 117.462,-23.8015 116.5,-16.8678"/>
</g>
</g>
</svg>
