<?xml version="1.0" encoding="UTF-8" standalone="no"?>
<!DOCTYPE svg PUBLIC "-//W3C//DTD SVG 1.1//EN"
 "http://www.w3.org/Graphics/SVG/1.1/DTD/svg11.dtd">
<!-- Generated by graphviz version 2.38.0 (20140413.2041)
 -->
<!-- Title: CRYP_IVInit Pages: 1 -->
<svg width="222pt" height="218pt"
 viewBox="0.00 0.00 222.00 218.00" xmlns="http://www.w3.org/2000/svg" xmlns:xlink="http://www.w3.org/1999/xlink">
<g id="graph0" class="graph" transform="scale(1 1) rotate(0) translate(4 214)">
<title>CRYP_IVInit</title>
<polygon fill="white" stroke="none" points="-4,4 -4,-214 218,-214 218,4 -4,4"/>
<!-- Node1 -->
<g id="node1" class="node"><title>Node1</title>
<polygon fill="#bfbfbf" stroke="black" points="0,-95.5 0,-114.5 74,-114.5 74,-95.5 0,-95.5"/>
<text text-anchor="middle" x="37" y="-102.5" font-family="Helvetica,sans-Serif" font-size="10.00">CRYP_IVInit</text>
</g>
<!-- Node2 -->
<g id="node2" class="node"><title>Node2</title>
<g id="a_node2"><a xlink:href="a00985.html#gaa43eadf707257710f6a53b3295b39d70" target="_top" xlink:title="Encrypt and decrypt using AES in CBC Mode. ">
<polygon fill="white" stroke="black" points="113,-190.5 113,-209.5 211,-209.5 211,-190.5 113,-190.5"/>
<text text-anchor="middle" x="162" y="-197.5" font-family="Helvetica,sans-Serif" font-size="10.00">CRYP_AES_CBC</text>
</a>
</g>
</g>
<!-- Node1&#45;&gt;Node2 -->
<g id="edge1" class="edge"><title>Node1&#45;&gt;Node2</title>
<path fill="none" stroke="midnightblue" d="M50.9488,-122.793C64.1296,-139.793 85.9914,-165.115 110,-181 115.674,-184.754 122.19,-187.899 128.626,-190.481"/>
<polygon fill="midnightblue" stroke="midnightblue" points="53.7001,-120.628 44.882,-114.755 48.1131,-124.845 53.7001,-120.628"/>
</g>
<!-- Node3 -->
<g id="node3" class="node"><title>Node3</title>
<g id="a_node3"><a xlink:href="a00985.html#ga2f36aea6e94452e5e5e938547fb89d4c" target="_top" xlink:title="Encrypt and decrypt using AES in CTR Mode. ">
<polygon fill="white" stroke="black" points="113.5,-152.5 113.5,-171.5 210.5,-171.5 210.5,-152.5 113.5,-152.5"/>
<text text-anchor="middle" x="162" y="-159.5" font-family="Helvetica,sans-Serif" font-size="10.00">CRYP_AES_CTR</text>
</a>
</g>
</g>
<!-- Node1&#45;&gt;Node3 -->
<g id="edge2" class="edge"><title>Node1&#45;&gt;Node3</title>
<path fill="none" stroke="midnightblue" d="M63.3649,-119.415C76.9805,-126.889 94.1742,-135.911 110,-143 117.502,-146.36 125.795,-149.631 133.475,-152.485"/>
<polygon fill="midnightblue" stroke="midnightblue" points="65.0127,-116.327 54.5711,-114.531 61.6137,-122.446 65.0127,-116.327"/>
</g>
<!-- Node4 -->
<g id="node4" class="node"><title>Node4</title>
<g id="a_node4"><a xlink:href="a00985.html#ga74b48d820c5c360eb303fc2fb78af055" target="_top" xlink:title="Encrypt and decrypt using AES in GCM Mode. The GCM and CCM modes are available only on STM32F437x Dev...">
<polygon fill="white" stroke="black" points="112.5,-114.5 112.5,-133.5 211.5,-133.5 211.5,-114.5 112.5,-114.5"/>
<text text-anchor="middle" x="162" y="-121.5" font-family="Helvetica,sans-Serif" font-size="10.00">CRYP_AES_GCM</text>
</a>
</g>
</g>
<!-- Node1&#45;&gt;Node4 -->
<g id="edge3" class="edge"><title>Node1&#45;&gt;Node4</title>
<path fill="none" stroke="midnightblue" d="M84.3008,-112.152C93.4338,-113.563 103.044,-115.047 112.255,-116.47"/>
<polygon fill="midnightblue" stroke="midnightblue" points="84.6559,-108.666 74.2388,-110.598 83.5872,-115.584 84.6559,-108.666"/>
</g>
<!-- Node5 -->
<g id="node5" class="node"><title>Node5</title>
<g id="a_node5"><a xlink:href="a00985.html#ga9d9f5c74b634b85b7aa8c2a2ea0bcd51" target="_top" xlink:title="Encrypt and decrypt using AES in CCM Mode. The GCM and CCM modes are available only on STM32F437x Dev...">
<polygon fill="white" stroke="black" points="112.5,-76.5 112.5,-95.5 211.5,-95.5 211.5,-76.5 112.5,-76.5"/>
<text text-anchor="middle" x="162" y="-83.5" font-family="Helvetica,sans-Serif" font-size="10.00">CRYP_AES_CCM</text>
</a>
</g>
</g>
<!-- Node1&#45;&gt;Node5 -->
<g id="edge4" class="edge"><title>Node1&#45;&gt;Node5</title>
<path fill="none" stroke="midnightblue" d="M84.3008,-97.8478C93.4338,-96.4371 103.044,-94.9526 112.255,-93.5298"/>
<polygon fill="midnightblue" stroke="midnightblue" points="83.5872,-94.4165 74.2388,-99.4021 84.6559,-101.334 83.5872,-94.4165"/>
</g>
<!-- Node6 -->
<g id="node6" class="node"><title>Node6</title>
<g id="a_node6"><a xlink:href="a00986.html#ga75724391a8560c557e1152b805f5cad1" target="_top" xlink:title="Encrypt and decrypt using DES in CBC Mode. ">
<polygon fill="white" stroke="black" points="113,-38.5 113,-57.5 211,-57.5 211,-38.5 113,-38.5"/>
<text text-anchor="middle" x="162" y="-45.5" font-family="Helvetica,sans-Serif" font-size="10.00">CRYP_DES_CBC</text>
</a>
</g>
</g>
<!-- Node1&#45;&gt;Node6 -->
<g id="edge5" class="edge"><title>Node1&#45;&gt;Node6</title>
<path fill="none" stroke="midnightblue" d="M63.3649,-90.5848C76.9805,-83.1106 94.1742,-74.0886 110,-67 117.502,-63.6397 125.795,-60.3689 133.475,-57.515"/>
<polygon fill="midnightblue" stroke="midnightblue" points="61.6137,-87.5537 54.5711,-95.4691 65.0127,-93.6732 61.6137,-87.5537"/>
</g>
<!-- Node7 -->
<g id="node7" class="node"><title>Node7</title>
<g id="a_node7"><a xlink:href="a00987.html#gabe52a368c4882450c1e82f16bc1eb686" target="_top" xlink:title="Encrypt and decrypt using TDES in CBC Mode. ">
<polygon fill="white" stroke="black" points="110,-0.5 110,-19.5 214,-19.5 214,-0.5 110,-0.5"/>
<text text-anchor="middle" x="162" y="-7.5" font-family="Helvetica,sans-Serif" font-size="10.00">CRYP_TDES_CBC</text>
</a>
</g>
</g>
<!-- Node1&#45;&gt;Node7 -->
<g id="edge6" class="edge"><title>Node1&#45;&gt;Node7</title>
<path fill="none" stroke="midnightblue" d="M50.9488,-87.2072C64.1296,-70.2069 85.9914,-44.8852 110,-29 115.674,-25.2461 122.19,-22.1008 128.626,-19.5188"/>
<polygon fill="midnightblue" stroke="midnightblue" points="48.1131,-85.1545 44.882,-95.2446 53.7001,-89.3717 48.1131,-85.1545"/>
</g>
</g>
</svg>
