<?xml version="1.0" encoding="UTF-8" standalone="no"?>
<!DOCTYPE svg PUBLIC "-//W3C//DTD SVG 1.1//EN"
 "http://www.w3.org/Graphics/SVG/1.1/DTD/svg11.dtd">
<!-- Generated by graphviz version 2.38.0 (20140413.2041)
 -->
<!-- Title: TM_USART_Gets Pages: 1 -->
<svg width="443pt" height="66pt"
 viewBox="0.00 0.00 443.00 66.00" xmlns="http://www.w3.org/2000/svg" xmlns:xlink="http://www.w3.org/1999/xlink">
<g id="graph0" class="graph" transform="scale(1 1) rotate(0) translate(4 62)">
<title>TM_USART_Gets</title>
<polygon fill="white" stroke="none" points="-4,4 -4,-62 439,-62 439,4 -4,4"/>
<!-- Node1 -->
<g id="node1" class="node"><title>Node1</title>
<polygon fill="#bfbfbf" stroke="black" points="0,-19.5 0,-38.5 97,-38.5 97,-19.5 0,-19.5"/>
<text text-anchor="middle" x="48.5" y="-26.5" font-family="Helvetica,sans-Serif" font-size="10.00">TM_USART_Gets</text>
</g>
<!-- Node2 -->
<g id="node2" class="node"><title>Node2</title>
<g id="a_node2"><a xlink:href="a00017.html#a4af381bf92ce31395c19b6652b930b7a" target="_top" xlink:title="Fast console command parser. ">
<polygon fill="white" stroke="black" points="135,-38.5 135,-57.5 227,-57.5 227,-38.5 135,-38.5"/>
<text text-anchor="middle" x="181" y="-45.5" font-family="Helvetica,sans-Serif" font-size="10.00">fastConsoleCase</text>
</a>
</g>
</g>
<!-- Node1&#45;&gt;Node2 -->
<g id="edge1" class="edge"><title>Node1&#45;&gt;Node2</title>
<path fill="none" stroke="midnightblue" d="M107.536,-37.4496C116.661,-38.7782 125.977,-40.1346 134.758,-41.413"/>
<polygon fill="midnightblue" stroke="midnightblue" points="107.752,-33.9444 97.3524,-35.967 106.744,-40.8713 107.752,-33.9444"/>
</g>
<!-- Node3 -->
<g id="node3" class="node"><title>Node3</title>
<g id="a_node3"><a xlink:href="a00069.html#gab807a241fae0eae0d5434bae20a3569f" target="_top" xlink:title="Puts character to USART port. ">
<polygon fill="white" stroke="black" points="133,-0.5 133,-19.5 229,-19.5 229,-0.5 133,-0.5"/>
<text text-anchor="middle" x="181" y="-7.5" font-family="Helvetica,sans-Serif" font-size="10.00">TM_USART_Putc</text>
</a>
</g>
</g>
<!-- Node1&#45;&gt;Node3 -->
<g id="edge2" class="edge"><title>Node1&#45;&gt;Node3</title>
<path fill="none" stroke="midnightblue" d="M107.476,-20.559C115.873,-19.3365 124.433,-18.0903 132.589,-16.9027"/>
<polygon fill="midnightblue" stroke="midnightblue" points="106.744,-17.1287 97.3524,-22.033 107.752,-24.0556 106.744,-17.1287"/>
</g>
<!-- Node4 -->
<g id="node4" class="node"><title>Node4</title>
<g id="a_node4"><a xlink:href="a00069.html#ga70bed9fb6612cb572a8c10e148404344" target="_top" xlink:title="Initializes USARTx peripheral and corresponding pins. ">
<polygon fill="white" stroke="black" points="268.5,-38.5 268.5,-57.5 357.5,-57.5 357.5,-38.5 268.5,-38.5"/>
<text text-anchor="middle" x="313" y="-45.5" font-family="Helvetica,sans-Serif" font-size="10.00">TM_USART_Init</text>
</a>
</g>
</g>
<!-- Node3&#45;&gt;Node4 -->
<g id="edge3" class="edge"><title>Node3&#45;&gt;Node4</title>
<path fill="none" stroke="midnightblue" d="M224.884,-22.5353C242.569,-27.7048 262.734,-33.5991 279.206,-38.4141"/>
<polygon fill="midnightblue" stroke="midnightblue" points="225.385,-19.0353 214.804,-19.589 223.421,-25.7542 225.385,-19.0353"/>
</g>
<!-- Node6 -->
<g id="node6" class="node"><title>Node6</title>
<g id="a_node6"><a xlink:href="a00069.html#ga453aeaa886278333403ff4937c01dcf3" target="_top" xlink:title="Puts string to USART port. ">
<polygon fill="white" stroke="black" points="265,-0.5 265,-19.5 361,-19.5 361,-0.5 265,-0.5"/>
<text text-anchor="middle" x="313" y="-7.5" font-family="Helvetica,sans-Serif" font-size="10.00">TM_USART_Puts</text>
</a>
</g>
</g>
<!-- Node3&#45;&gt;Node6 -->
<g id="edge5" class="edge"><title>Node3&#45;&gt;Node6</title>
<path fill="none" stroke="midnightblue" d="M239.539,-3.28969C248.034,-3.19895 256.703,-3.2638 264.952,-3.48422"/>
<polygon fill="midnightblue" stroke="midnightblue" points="239.235,0.205426 229.301,-3.47752 239.363,-6.7934 239.235,0.205426"/>
</g>
<!-- Node5 -->
<g id="node5" class="node"><title>Node5</title>
<g id="a_node5"><a xlink:href="a00149.html#ga840291bc02cba5474a4cb46a9b9566fe" target="_top" xlink:title="Main function entry. ">
<polygon fill="white" stroke="black" points="397,-38.5 397,-57.5 435,-57.5 435,-38.5 397,-38.5"/>
<text text-anchor="middle" x="416" y="-45.5" font-family="Helvetica,sans-Serif" font-size="10.00">main</text>
</a>
</g>
</g>
<!-- Node4&#45;&gt;Node5 -->
<g id="edge4" class="edge"><title>Node4&#45;&gt;Node5</title>
<path fill="none" stroke="midnightblue" d="M367.767,-48C378.256,-48 388.556,-48 396.848,-48"/>
<polygon fill="midnightblue" stroke="midnightblue" points="367.713,-44.5001 357.713,-48 367.713,-51.5001 367.713,-44.5001"/>
</g>
<!-- Node6&#45;&gt;Node3 -->
<g id="edge6" class="edge"><title>Node6&#45;&gt;Node3</title>
<path fill="none" stroke="midnightblue" d="M254.722,-16.7075C246.229,-16.8014 237.559,-16.7397 229.301,-16.5225"/>
<polygon fill="midnightblue" stroke="midnightblue" points="255.02,-20.2026 264.952,-16.5158 254.888,-13.2038 255.02,-20.2026"/>
</g>
</g>
</svg>
