<?xml version="1.0" encoding="UTF-8" standalone="no"?>
<!DOCTYPE svg PUBLIC "-//W3C//DTD SVG 1.1//EN"
 "http://www.w3.org/Graphics/SVG/1.1/DTD/svg11.dtd">
<!-- Generated by graphviz version 2.38.0 (20140413.2041)
 -->
<!-- Title: DAC_CHx_EscalatorConfig Pages: 1 -->
<svg width="357pt" height="46pt"
 viewBox="0.00 0.00 357.00 46.00" xmlns="http://www.w3.org/2000/svg" xmlns:xlink="http://www.w3.org/1999/xlink">
<g id="graph0" class="graph" transform="scale(1 1) rotate(0) translate(4 42)">
<title>DAC_CHx_EscalatorConfig</title>
<polygon fill="white" stroke="none" points="-4,4 -4,-42 353,-42 353,4 -4,4"/>
<!-- Node1 -->
<g id="node1" class="node"><title>Node1</title>
<polygon fill="#bfbfbf" stroke="black" points="0,-0.5 0,-19.5 139,-19.5 139,-0.5 0,-0.5"/>
<text text-anchor="middle" x="69.5" y="-7.5" font-family="Helvetica,sans-Serif" font-size="10.00">DAC_CHx_EscalatorConfig</text>
</g>
<!-- Node2 -->
<g id="node2" class="node"><title>Node2</title>
<g id="a_node2"><a xlink:href="a00079.html#gab4b1c88389db1d353195e9f1357c3b8c" target="_top" xlink:title="Initializes DAC channel and it&#39;s pin. ">
<polygon fill="white" stroke="black" points="175,-0.5 175,-19.5 232,-19.5 232,-0.5 175,-0.5"/>
<text text-anchor="middle" x="203.5" y="-7.5" font-family="Helvetica,sans-Serif" font-size="10.00">DAC_Init</text>
</a>
</g>
</g>
<!-- Node1&#45;&gt;Node2 -->
<g id="edge1" class="edge"><title>Node1&#45;&gt;Node2</title>
<path fill="none" stroke="midnightblue" d="M139.206,-10C148.005,-10 156.739,-10 164.782,-10"/>
<polygon fill="midnightblue" stroke="midnightblue" points="164.905,-13.5001 174.905,-10 164.905,-6.5001 164.905,-13.5001"/>
</g>
<!-- Node2&#45;&gt;Node2 -->
<g id="edge3" class="edge"><title>Node2&#45;&gt;Node2</title>
<path fill="none" stroke="midnightblue" d="M187.471,-19.7571C179.672,-28.5653 185.016,-38 203.5,-38 215.053,-38 221.472,-34.3146 222.758,-29.4"/>
<polygon fill="midnightblue" stroke="midnightblue" points="226.024,-28.1283 219.529,-19.7571 219.386,-30.3509 226.024,-28.1283"/>
</g>
<!-- Node3 -->
<g id="node3" class="node"><title>Node3</title>
<g id="a_node3"><a xlink:href="a00090.html#ga76a4711f406d06b13979cb89d6358cfc" target="_top" xlink:title="Initialize GPIO pins. ">
<polygon fill="white" stroke="black" points="268,-0.5 268,-19.5 349,-19.5 349,-0.5 268,-0.5"/>
<text text-anchor="middle" x="308.5" y="-7.5" font-family="Helvetica,sans-Serif" font-size="10.00">MD_GPIO_Init</text>
</a>
</g>
</g>
<!-- Node2&#45;&gt;Node3 -->
<g id="edge2" class="edge"><title>Node2&#45;&gt;Node3</title>
<path fill="none" stroke="midnightblue" d="M232.102,-10C239.983,-10 248.823,-10 257.601,-10"/>
<polygon fill="midnightblue" stroke="midnightblue" points="257.816,-13.5001 267.816,-10 257.816,-6.5001 257.816,-13.5001"/>
</g>
</g>
</svg>
