<?xml version="1.0" encoding="UTF-8" standalone="no"?>
<!DOCTYPE svg PUBLIC "-//W3C//DTD SVG 1.1//EN"
 "http://www.w3.org/Graphics/SVG/1.1/DTD/svg11.dtd">
<!-- Generated by graphviz version 2.38.0 (20140413.2041)
 -->
<!-- Title: MD_STM32F4_Libraries Pages: 1 -->
<svg width="263pt" height="142pt"
 viewBox="0.00 0.00 263.00 142.00" xmlns="http://www.w3.org/2000/svg" xmlns:xlink="http://www.w3.org/1999/xlink">
<g id="graph0" class="graph" transform="scale(1 1) rotate(0) translate(4 138)">
<title>MD_STM32F4_Libraries</title>
<polygon fill="white" stroke="none" points="-4,4 -4,-138 259,-138 259,4 -4,4"/>
<!-- Node2 -->
<g id="node1" class="node"><title>Node2</title>
<g id="a_node1"><a xlink:href="a00072.html" target="_top" xlink:title="MD_DAC_SigGen">
<polygon fill="white" stroke="black" points="158,-114.5 158,-133.5 255,-133.5 255,-114.5 158,-114.5"/>
<text text-anchor="middle" x="206.5" y="-121.5" font-family="Helvetica,sans-Serif" font-size="10.00">MD_DAC_SigGen</text>
</a>
</g>
</g>
<!-- Node3 -->
<g id="node2" class="node"><title>Node3</title>
<g id="a_node2"><a xlink:href="a00077.html" target="_top" xlink:title="Provides initialization and access methods for on&#45;board LEDs and Button. ">
<polygon fill="white" stroke="black" points="171.5,-76.5 171.5,-95.5 241.5,-95.5 241.5,-76.5 171.5,-76.5"/>
<text text-anchor="middle" x="206.5" y="-83.5" font-family="Helvetica,sans-Serif" font-size="10.00">MD_DISCO</text>
</a>
</g>
</g>
<!-- Node4 -->
<g id="node3" class="node"><title>Node4</title>
<g id="a_node3"><a xlink:href="a00079.html" target="_top" xlink:title="GPIO configuration and manipulation. ">
<polygon fill="white" stroke="black" points="175.5,-38.5 175.5,-57.5 237.5,-57.5 237.5,-38.5 175.5,-38.5"/>
<text text-anchor="middle" x="206.5" y="-45.5" font-family="Helvetica,sans-Serif" font-size="10.00">MD_GPIO</text>
</a>
</g>
</g>
<!-- Node0 -->
<g id="node4" class="node"><title>Node0</title>
<polygon fill="#bfbfbf" stroke="black" points="0,-57.5 0,-76.5 122,-76.5 122,-57.5 0,-57.5"/>
<text text-anchor="middle" x="61" y="-64.5" font-family="Helvetica,sans-Serif" font-size="10.00">MD_STM32F4_Libraries</text>
</g>
<!-- Node0&#45;&gt;Node2 -->
<g id="edge2" class="edge"><title>Node0&#45;&gt;Node2</title>
<path fill="none" stroke="black" d="M95.5863,-80.3409C121.905,-90.795 157.887,-105.087 181.403,-114.428"/>
<polygon fill="black" stroke="black" points="96.6044,-76.9794 86.0187,-76.5405 94.0203,-83.4849 96.6044,-76.9794"/>
</g>
<!-- Node0&#45;&gt;Node3 -->
<g id="edge3" class="edge"><title>Node0&#45;&gt;Node3</title>
<path fill="none" stroke="black" d="M132.305,-76.3087C145.806,-78.0963 159.375,-79.8929 171.1,-81.4453"/>
<polygon fill="black" stroke="black" points="132.398,-72.7906 122.025,-74.9476 131.48,-79.73 132.398,-72.7906"/>
</g>
<!-- Node0&#45;&gt;Node4 -->
<g id="edge4" class="edge"><title>Node0&#45;&gt;Node4</title>
<path fill="none" stroke="black" d="M132.035,-57.727C147.335,-55.7013 162.739,-53.6618 175.461,-51.9772"/>
<polygon fill="black" stroke="black" points="131.48,-54.27 122.025,-59.0524 132.398,-61.2094 131.48,-54.27"/>
</g>
<!-- Node1 -->
<g id="node5" class="node"><title>Node1</title>
<g id="a_node5"><a xlink:href="a00069.html" target="_top" xlink:title="Provides user space methodes to interact with DAC hardware. ">
<polygon fill="white" stroke="black" points="177,-0.5 177,-19.5 236,-19.5 236,-0.5 177,-0.5"/>
<text text-anchor="middle" x="206.5" y="-7.5" font-family="Helvetica,sans-Serif" font-size="10.00">MD_DAC</text>
</a>
</g>
</g>
<!-- Node0&#45;&gt;Node1 -->
<g id="edge1" class="edge"><title>Node0&#45;&gt;Node1</title>
<path fill="none" stroke="black" d="M95.5863,-53.6591C121.905,-43.205 157.887,-28.9126 181.403,-19.5716"/>
<polygon fill="black" stroke="black" points="94.0203,-50.5151 86.0187,-57.4595 96.6044,-57.0206 94.0203,-50.5151"/>
</g>
</g>
</svg>
