<?xml version="1.0" encoding="UTF-8" standalone="no"?>
<!DOCTYPE svg PUBLIC "-//W3C//DTD SVG 1.1//EN"
 "http://www.w3.org/Graphics/SVG/1.1/DTD/svg11.dtd">
<!-- Generated by graphviz version 2.38.0 (20140413.2041)
 -->
<!-- Title: ADC_Init Pages: 1 -->
<svg width="311pt" height="66pt"
 viewBox="0.00 0.00 311.00 66.00" xmlns="http://www.w3.org/2000/svg" xmlns:xlink="http://www.w3.org/1999/xlink">
<g id="graph0" class="graph" transform="scale(1 1) rotate(0) translate(4 62)">
<title>ADC_Init</title>
<polygon fill="white" stroke="none" points="-4,4 -4,-62 307,-62 307,4 -4,4"/>
<!-- Node1 -->
<g id="node1" class="node"><title>Node1</title>
<polygon fill="#bfbfbf" stroke="black" points="0,-19.5 0,-38.5 57,-38.5 57,-19.5 0,-19.5"/>
<text text-anchor="middle" x="28.5" y="-26.5" font-family="Helvetica,sans-Serif" font-size="10.00">ADC_Init</text>
</g>
<!-- Node2 -->
<g id="node2" class="node"><title>Node2</title>
<g id="a_node2"><a xlink:href="a01271.html#ga85f5a2827c06dbdba076d4e9125a11f8" target="_top" xlink:title="ADC common and regular scan group init. ">
<polygon fill="white" stroke="black" points="95.5,-38.5 95.5,-57.5 226.5,-57.5 226.5,-38.5 95.5,-38.5"/>
<text text-anchor="middle" x="161" y="-45.5" font-family="Helvetica,sans-Serif" font-size="10.00">ADC_Scan_Group_Config</text>
</a>
</g>
</g>
<!-- Node1&#45;&gt;Node2 -->
<g id="edge1" class="edge"><title>Node1&#45;&gt;Node2</title>
<path fill="none" stroke="midnightblue" d="M67.128,-34.4784C75.9742,-35.7664 85.6511,-37.1753 95.3115,-38.5818"/>
<polygon fill="midnightblue" stroke="midnightblue" points="67.5757,-31.0068 57.1757,-33.0294 66.5671,-37.9337 67.5757,-31.0068"/>
</g>
<!-- Node4 -->
<g id="node4" class="node"><title>Node4</title>
<g id="a_node4"><a xlink:href="a01271.html#gad273dc4b4b26574e92666e4020e1ef5a" target="_top" xlink:title="Timer&#45;triggered ADC&#45;scan mode with DMA to memory. ">
<polygon fill="white" stroke="black" points="93,-0.5 93,-19.5 229,-19.5 229,-0.5 93,-0.5"/>
<text text-anchor="middle" x="161" y="-7.5" font-family="Helvetica,sans-Serif" font-size="10.00">TIM2_DMA_Trigger_Config</text>
</a>
</g>
</g>
<!-- Node1&#45;&gt;Node4 -->
<g id="edge3" class="edge"><title>Node1&#45;&gt;Node4</title>
<path fill="none" stroke="midnightblue" d="M67.203,-23.5107C75.7826,-22.2615 85.1405,-20.8991 94.5051,-19.5357"/>
<polygon fill="midnightblue" stroke="midnightblue" points="66.5671,-20.0663 57.1757,-24.9706 67.5757,-26.9932 66.5671,-20.0663"/>
</g>
<!-- Node3 -->
<g id="node3" class="node"><title>Node3</title>
<g id="a_node3"><a xlink:href="a01287.html#ga840291bc02cba5474a4cb46a9b9566fe" target="_top" xlink:title="Main function entry. ">
<polygon fill="white" stroke="black" points="265,-19.5 265,-38.5 303,-38.5 303,-19.5 265,-19.5"/>
<text text-anchor="middle" x="284" y="-26.5" font-family="Helvetica,sans-Serif" font-size="10.00">main</text>
</a>
</g>
</g>
<!-- Node2&#45;&gt;Node3 -->
<g id="edge2" class="edge"><title>Node2&#45;&gt;Node3</title>
<path fill="none" stroke="midnightblue" d="M232.851,-36.8747C244.648,-35.0222 255.904,-33.2548 264.752,-31.8654"/>
<polygon fill="midnightblue" stroke="midnightblue" points="232.19,-33.4354 222.854,-38.4443 233.276,-40.3506 232.19,-33.4354"/>
</g>
<!-- Node4&#45;&gt;Node3 -->
<g id="edge4" class="edge"><title>Node4&#45;&gt;Node3</title>
<path fill="none" stroke="midnightblue" d="M232.851,-21.1253C244.648,-22.9778 255.904,-24.7452 264.752,-26.1346"/>
<polygon fill="midnightblue" stroke="midnightblue" points="233.276,-17.6494 222.854,-19.5557 232.19,-24.5646 233.276,-17.6494"/>
</g>
</g>
</svg>
