<?xml version="1.0" encoding="UTF-8" standalone="no"?>
<!DOCTYPE svg PUBLIC "-//W3C//DTD SVG 1.1//EN"
 "http://www.w3.org/Graphics/SVG/1.1/DTD/svg11.dtd">
<!-- Generated by graphviz version 2.38.0 (20140413.2041)
 -->
<!-- Title: TM_USART_Puts Pages: 1 -->
<!--zoomable 894 -->
<svg id="main" version="1.1" xmlns="http://www.w3.org/2000/svg" xmlns:xlink="http://www.w3.org/1999/xlink" xml:space="preserve" onload="init(evt)">
<style type="text/css"><![CDATA[
.edge:hover path { stroke: red; }
.edge:hover polygon { stroke: red; fill: red; }
]]></style>
<script type="text/javascript"><![CDATA[
var edges = document.getElementsByTagName('g');
if (edges && edges.length) {
  for (var i=0;i<edges.length;i++) {
    if (edges[i].id.substr(0,4)=='edge') {
      edges[i].setAttribute('class','edge');
    }
  }
}
]]></script>
        <defs>
                <circle id="rim" cx="0" cy="0" r="7"/>
                <circle id="rim2" cx="0" cy="0" r="3.5"/>
                <g id="zoomPlus">
                        <use xlink:href="#rim" fill="#404040">
                                <set attributeName="fill" to="#808080" begin="zoomplus.mouseover" end="zoomplus.mouseout"/>
                        </use>
                        <path d="M-4,0h8M0,-4v8" fill="none" stroke="white" stroke-width="1.5" pointer-events="none"/>
                </g>
                <g id="zoomMin">
                        <use xlink:href="#rim" fill="#404040">
                                <set attributeName="fill" to="#808080" begin="zoomminus.mouseover" end="zoomminus.mouseout"/>
                        </use>
                        <path d="M-4,0h8" fill="none" stroke="white" stroke-width="1.5" pointer-events="none"/>
                </g>
                <g id="dirArrow">
                        <path fill="none" stroke="white" stroke-width="1.5" d="M0,-3.0v7 M-2.5,-0.5L0,-3.0L2.5,-0.5"/>
                </g>
               <g id="resetDef">
                       <use xlink:href="#rim2" fill="#404040">
                               <set attributeName="fill" to="#808080" begin="reset.mouseover" end="reset.mouseout"/>
                       </use>
               </g>
        </defs>

<script type="text/javascript">
var viewWidth = 641;
var viewHeight = 894;
var sectionId = 'dynsection-22';
</script>
<script xlink:href="svgpan.js"/>
<svg id="graph" class="graph">
<g id="viewport">
<title>TM_USART_Puts</title>
<polygon fill="white" stroke="none" points="-4,4 -4,-890.249 637,-890.249 637,4 -4,4"/>
<!-- Node1 -->
<g id="node1" class="node"><title>Node1</title>
<polygon fill="#bfbfbf" stroke="black" points="0,-525.749 0,-544.749 96,-544.749 96,-525.749 0,-525.749"/>
<text text-anchor="middle" x="48" y="-532.749" font-family="Helvetica,sans-Serif" font-size="10.00">TM_USART_Puts</text>
</g>
<!-- Node2 -->
<g id="node2" class="node"><title>Node2</title>
<g id="a_node2"><a xlink:href="a00067.html#gab807a241fae0eae0d5434bae20a3569f" target="_top" xlink:title="Puts character to USART port. ">
<polygon fill="white" stroke="black" points="132,-468.749 132,-487.749 228,-487.749 228,-468.749 132,-468.749"/>
<text text-anchor="middle" x="180" y="-475.749" font-family="Helvetica,sans-Serif" font-size="10.00">TM_USART_Putc</text>
</a>
</g>
</g>
<!-- Node1&#45;&gt;Node2 -->
<g id="edge1" class="edge"><title>Node1&#45;&gt;Node2</title>
<path fill="none" stroke="midnightblue" d="M61.4649,-525.604C78.0323,-516.053 108.2,-502.065 133.823,-491.594"/>
<polygon fill="midnightblue" stroke="midnightblue" points="135.398,-494.734 143.383,-487.77 132.798,-488.234 135.398,-494.734"/>
</g>
<!-- Node13 -->
<g id="node13" class="node"><title>Node13</title>
<g id="a_node13"><a xlink:href="a00067.html#gafbf9e2222953815c9f35cd46863dbc26" target="_top" xlink:title="Callback function for receive interrupt on USART1 in case you have enabled custom USART handler mode...">
<polygon fill="white" stroke="black" points="482,-38.7487 482,-57.7487 633,-57.7487 633,-38.7487 482,-38.7487"/>
<text text-anchor="middle" x="557.5" y="-45.7487" font-family="Helvetica,sans-Serif" font-size="10.00">TM_USART1_ReceiveHandler</text>
</a>
</g>
</g>
<!-- Node1&#45;&gt;Node13 -->
<g id="edge33" class="edge"><title>Node1&#45;&gt;Node13</title>
<path fill="none" stroke="midnightblue" d="M49.2931,-525.697C51.714,-465.831 73.5528,-141.115 264,-25.2487 347.131,25.3272 469.069,-12.3847 525.607,-34.7839"/>
<polygon fill="midnightblue" stroke="midnightblue" points="524.479,-38.1036 535.061,-38.6305 527.118,-31.6198 524.479,-38.1036"/>
</g>
<!-- Node14 -->
<g id="node14" class="node"><title>Node14</title>
<g id="a_node14"><a xlink:href="a00067.html#ga21823124b3d98ea2085671f4a5af6017" target="_top" xlink:title="Callback function for receive interrupt on USART2 in case you have enabled custom USART handler mode...">
<polygon fill="white" stroke="black" points="482,-866.749 482,-885.749 633,-885.749 633,-866.749 482,-866.749"/>
<text text-anchor="middle" x="557.5" y="-873.749" font-family="Helvetica,sans-Serif" font-size="10.00">TM_USART2_ReceiveHandler</text>
</a>
</g>
</g>
<!-- Node1&#45;&gt;Node14 -->
<g id="edge34" class="edge"><title>Node1&#45;&gt;Node14</title>
<path fill="none" stroke="midnightblue" d="M50.1909,-544.994C54.6671,-577.602 73.3388,-684.211 132,-744.249 222.291,-836.659 376.012,-864.656 471.601,-872.966"/>
<polygon fill="midnightblue" stroke="midnightblue" points="471.561,-876.475 481.812,-873.799 472.129,-869.498 471.561,-876.475"/>
</g>
<!-- Node15 -->
<g id="node15" class="node"><title>Node15</title>
<g id="a_node15"><a xlink:href="a00067.html#ga868eb8844f04487e714b63b016a93bae" target="_top" xlink:title="Callback function for receive interrupt on USART3 in case you have enabled custom USART handler mode...">
<polygon fill="white" stroke="black" points="482,-790.749 482,-809.749 633,-809.749 633,-790.749 482,-790.749"/>
<text text-anchor="middle" x="557.5" y="-797.749" font-family="Helvetica,sans-Serif" font-size="10.00">TM_USART3_ReceiveHandler</text>
</a>
</g>
</g>
<!-- Node1&#45;&gt;Node15 -->
<g id="edge35" class="edge"><title>Node1&#45;&gt;Node15</title>
<path fill="none" stroke="midnightblue" d="M50.9097,-544.917C57.0974,-573.646 79.3276,-659.232 132,-703.249 228.17,-783.615 377.81,-800.571 471.333,-802.542"/>
<polygon fill="midnightblue" stroke="midnightblue" points="471.554,-806.045 481.608,-802.703 471.664,-799.046 471.554,-806.045"/>
</g>
<!-- Node16 -->
<g id="node16" class="node"><title>Node16</title>
<g id="a_node16"><a xlink:href="a00067.html#gada9d723469cf9d7d0ac11930b8e14f2a" target="_top" xlink:title="Callback function for receive interrupt on UART4 in case you have enabled custom USART handler mode...">
<polygon fill="white" stroke="black" points="485.5,-714.749 485.5,-733.749 629.5,-733.749 629.5,-714.749 485.5,-714.749"/>
<text text-anchor="middle" x="557.5" y="-721.749" font-family="Helvetica,sans-Serif" font-size="10.00">TM_UART4_ReceiveHandler</text>
</a>
</g>
</g>
<!-- Node1&#45;&gt;Node16 -->
<g id="edge36" class="edge"><title>Node1&#45;&gt;Node16</title>
<path fill="none" stroke="midnightblue" d="M52.6845,-544.886C62.2343,-568.681 90.0063,-630.848 132,-666.249 180.593,-707.213 201.743,-708.465 264,-721.249 334.303,-735.685 416.126,-735.096 475.325,-731.672"/>
<polygon fill="midnightblue" stroke="midnightblue" points="475.6,-735.162 485.365,-731.052 475.168,-728.175 475.6,-735.162"/>
</g>
<!-- Node17 -->
<g id="node17" class="node"><title>Node17</title>
<g id="a_node17"><a xlink:href="a00067.html#ga4338d265fa58103332ea234f63594b81" target="_top" xlink:title="Callback function for receive interrupt on UART5 in case you have enabled custom USART handler mode...">
<polygon fill="white" stroke="black" points="485.5,-676.749 485.5,-695.749 629.5,-695.749 629.5,-676.749 485.5,-676.749"/>
<text text-anchor="middle" x="557.5" y="-683.749" font-family="Helvetica,sans-Serif" font-size="10.00">TM_UART5_ReceiveHandler</text>
</a>
</g>
</g>
<!-- Node1&#45;&gt;Node17 -->
<g id="edge37" class="edge"><title>Node1&#45;&gt;Node17</title>
<path fill="none" stroke="midnightblue" d="M57.1276,-544.924C83.2802,-575.2 169.1,-668.031 264,-700.249 348.016,-728.772 453.419,-711.899 512.003,-698.269"/>
<polygon fill="midnightblue" stroke="midnightblue" points="513.128,-701.598 522.034,-695.859 511.494,-694.791 513.128,-701.598"/>
</g>
<!-- Node18 -->
<g id="node18" class="node"><title>Node18</title>
<g id="a_node18"><a xlink:href="a00067.html#ga65c1d6a6bcc2dbd40ea0e7cbf5e924de" target="_top" xlink:title="Callback function for receive interrupt on USART6 in case you have enabled custom USART handler mode...">
<polygon fill="white" stroke="black" points="482,-582.749 482,-601.749 633,-601.749 633,-582.749 482,-582.749"/>
<text text-anchor="middle" x="557.5" y="-589.749" font-family="Helvetica,sans-Serif" font-size="10.00">TM_USART6_ReceiveHandler</text>
</a>
</g>
</g>
<!-- Node1&#45;&gt;Node18 -->
<g id="edge38" class="edge"><title>Node1&#45;&gt;Node18</title>
<path fill="none" stroke="midnightblue" d="M94.4988,-544.792C137.868,-553.531 205.105,-566.153 264,-573.249 333.585,-581.632 412.961,-586.495 471.451,-589.198"/>
<polygon fill="midnightblue" stroke="midnightblue" points="471.606,-592.708 481.753,-589.662 471.921,-585.715 471.606,-592.708"/>
</g>
<!-- Node19 -->
<g id="node19" class="node"><title>Node19</title>
<g id="a_node19"><a xlink:href="a00067.html#ga461a5123a57231d34d51330f12ea39d2" target="_top" xlink:title="Callback function for receive interrupt on UART7 in case you have enabled custom USART handler mode...">
<polygon fill="white" stroke="black" points="485.5,-468.749 485.5,-487.749 629.5,-487.749 629.5,-468.749 485.5,-468.749"/>
<text text-anchor="middle" x="557.5" y="-475.749" font-family="Helvetica,sans-Serif" font-size="10.00">TM_UART7_ReceiveHandler</text>
</a>
</g>
</g>
<!-- Node1&#45;&gt;Node19 -->
<g id="edge39" class="edge"><title>Node1&#45;&gt;Node19</title>
<path fill="none" stroke="midnightblue" d="M55.2548,-525.462C78.0346,-490.86 160.67,-374.175 264,-333.249 339.205,-303.462 373.512,-297.352 446,-333.249 499.746,-359.864 534.469,-426.524 548.883,-459.363"/>
<polygon fill="midnightblue" stroke="midnightblue" points="545.731,-460.895 552.848,-468.743 552.179,-458.169 545.731,-460.895"/>
</g>
<!-- Node20 -->
<g id="node20" class="node"><title>Node20</title>
<g id="a_node20"><a xlink:href="a00067.html#ga37fe7ffa31a540627af5ebfe93f2dcf5" target="_top" xlink:title="Callback function for receive interrupt on UART8 in case you have enabled custom USART handler mode...">
<polygon fill="white" stroke="black" points="485.5,-266.749 485.5,-285.749 629.5,-285.749 629.5,-266.749 485.5,-266.749"/>
<text text-anchor="middle" x="557.5" y="-273.749" font-family="Helvetica,sans-Serif" font-size="10.00">TM_UART8_ReceiveHandler</text>
</a>
</g>
</g>
<!-- Node1&#45;&gt;Node20 -->
<g id="edge40" class="edge"><title>Node1&#45;&gt;Node20</title>
<path fill="none" stroke="midnightblue" d="M51.0913,-525.651C57.9291,-496.198 82.1085,-405.749 132,-350.249 177.405,-299.738 198.435,-290.974 264,-273.249 339.307,-252.889 429.556,-258.044 489.7,-265.423"/>
<polygon fill="midnightblue" stroke="midnightblue" points="489.463,-268.921 499.827,-266.722 490.354,-261.978 489.463,-268.921"/>
</g>
<!-- Node2&#45;&gt;Node1 -->
<g id="edge2" class="edge"><title>Node2&#45;&gt;Node1</title>
<path fill="none" stroke="midnightblue" d="M166.501,-487.913C149.976,-497.435 119.962,-511.357 94.4061,-521.81"/>
<polygon fill="midnightblue" stroke="midnightblue" points="92.8493,-518.663 84.8672,-525.629 95.4517,-525.161 92.8493,-518.663"/>
</g>
<!-- Node3 -->
<g id="node3" class="node"><title>Node3</title>
<g id="a_node3"><a xlink:href="a00067.html#ga3bbfbfe88ae6dce27876b84798cfda62" target="_top" xlink:title="Sends data array to USART port. ">
<polygon fill="white" stroke="black" points="306,-544.749 306,-563.749 404,-563.749 404,-544.749 306,-544.749"/>
<text text-anchor="middle" x="355" y="-551.749" font-family="Helvetica,sans-Serif" font-size="10.00">TM_USART_Send</text>
</a>
</g>
</g>
<!-- Node2&#45;&gt;Node3 -->
<g id="edge3" class="edge"><title>Node2&#45;&gt;Node3</title>
<path fill="none" stroke="midnightblue" d="M193.555,-487.805C209.259,-499.348 237.334,-518.654 264,-530.249 274.667,-534.887 286.445,-538.813 297.867,-542.062"/>
<polygon fill="midnightblue" stroke="midnightblue" points="297.21,-545.51 307.777,-544.743 299.038,-538.752 297.21,-545.51"/>
</g>
<!-- Node4 -->
<g id="node4" class="node"><title>Node4</title>
<g id="a_node4"><a xlink:href="a00067.html#ga340391d061340e4635b4bbafea23602b" target="_top" xlink:title="Gets character from internal USART buffer. ">
<polygon fill="white" stroke="black" points="509,-209.749 509,-228.749 606,-228.749 606,-209.749 509,-209.749"/>
<text text-anchor="middle" x="557.5" y="-216.749" font-family="Helvetica,sans-Serif" font-size="10.00">TM_USART_Getc</text>
</a>
</g>
</g>
<!-- Node2&#45;&gt;Node4 -->
<g id="edge4" class="edge"><title>Node2&#45;&gt;Node4</title>
<path fill="none" stroke="midnightblue" d="M181.739,-468.638C184.829,-435.575 199.737,-325.677 264,-273.249 330.519,-218.98 433.995,-212.422 498.377,-214.495"/>
<polygon fill="midnightblue" stroke="midnightblue" points="498.619,-218.008 508.753,-214.915 498.902,-211.013 498.619,-218.008"/>
</g>
<!-- Node5 -->
<g id="node5" class="node"><title>Node5</title>
<g id="a_node5"><a xlink:href="a00067.html#gabb0a95fd20e5e2a894e658b64a29ee61" target="_top" xlink:title="Gets string from USART. ">
<polygon fill="white" stroke="black" points="306.5,-114.749 306.5,-133.749 403.5,-133.749 403.5,-114.749 306.5,-114.749"/>
<text text-anchor="middle" x="355" y="-121.749" font-family="Helvetica,sans-Serif" font-size="10.00">TM_USART_Gets</text>
</a>
</g>
</g>
<!-- Node2&#45;&gt;Node5 -->
<g id="edge5" class="edge"><title>Node2&#45;&gt;Node5</title>
<path fill="none" stroke="midnightblue" d="M182.103,-468.669C187.947,-419.517 216.822,-196.102 264,-148.249 272.692,-139.432 284.235,-133.742 296.146,-130.098"/>
<polygon fill="midnightblue" stroke="midnightblue" points="297.383,-133.393 306.184,-127.494 295.625,-126.617 297.383,-133.393"/>
</g>
<!-- Node6 -->
<g id="node6" class="node"><title>Node6</title>
<g id="a_node6"><a xlink:href="a00067.html#gabcee39f90c8c33ff3b1fb07e6496eef6" target="_top" xlink:title="Checks if internal USARTx buffer is empty. ">
<polygon fill="white" stroke="black" points="492,-133.749 492,-152.749 623,-152.749 623,-133.749 492,-133.749"/>
<text text-anchor="middle" x="557.5" y="-140.749" font-family="Helvetica,sans-Serif" font-size="10.00">TM_USART_BufferEmpty</text>
</a>
</g>
</g>
<!-- Node2&#45;&gt;Node6 -->
<g id="edge10" class="edge"><title>Node2&#45;&gt;Node6</title>
<path fill="none" stroke="midnightblue" d="M180.843,-468.517C180.777,-429.756 185.951,-284.959 264,-212.249 322.614,-157.644 416.133,-143.719 481.605,-141.319"/>
<polygon fill="midnightblue" stroke="midnightblue" points="481.965,-144.81 491.862,-141.028 481.767,-137.813 481.965,-144.81"/>
</g>
<!-- Node7 -->
<g id="node7" class="node"><title>Node7</title>
<g id="a_node7"><a xlink:href="a00067.html#ga5f708a330c9fc45032143a5777d9b6fd" target="_top" xlink:title="Checks if character c is available in internal buffer. ">
<polygon fill="white" stroke="black" points="489,-76.7487 489,-95.7487 626,-95.7487 626,-76.7487 489,-76.7487"/>
<text text-anchor="middle" x="557.5" y="-83.7487" font-family="Helvetica,sans-Serif" font-size="10.00">TM_USART_FindCharacter</text>
</a>
</g>
</g>
<!-- Node2&#45;&gt;Node7 -->
<g id="edge9" class="edge"><title>Node2&#45;&gt;Node7</title>
<path fill="none" stroke="midnightblue" d="M181.626,-468.678C185.325,-415.276 206.187,-154.775 264,-105.249 295.097,-78.6089 402.687,-77.9541 478.309,-81.1416"/>
<polygon fill="midnightblue" stroke="midnightblue" points="478.608,-84.6587 488.757,-81.6146 478.925,-77.6658 478.608,-84.6587"/>
</g>
<!-- Node8 -->
<g id="node8" class="node"><title>Node8</title>
<g id="a_node8"><a xlink:href="a00067.html#ga0bf136abba24771c4a5a83ace52a76c1" target="_top" xlink:title="Checks if internal USARTx buffer is full. ">
<polygon fill="white" stroke="black" points="296,-430.749 296,-449.749 414,-449.749 414,-430.749 296,-430.749"/>
<text text-anchor="middle" x="355" y="-437.749" font-family="Helvetica,sans-Serif" font-size="10.00">TM_USART_BufferFull</text>
</a>
</g>
</g>
<!-- Node2&#45;&gt;Node8 -->
<g id="edge11" class="edge"><title>Node2&#45;&gt;Node8</title>
<path fill="none" stroke="midnightblue" d="M224.655,-468.66C247.793,-463.577 276.402,-457.293 300.827,-451.928"/>
<polygon fill="midnightblue" stroke="midnightblue" points="301.642,-455.333 310.659,-449.769 300.141,-448.496 301.642,-455.333"/>
</g>
<!-- Node9 -->
<g id="node9" class="node"><title>Node9</title>
<g id="a_node9"><a xlink:href="a00067.html#ga6c8dfcc950305f511393240ea847b2ad" target="_top" xlink:title="Clears internal USART buffer. ">
<polygon fill="white" stroke="black" points="292.5,-392.749 292.5,-411.749 417.5,-411.749 417.5,-392.749 292.5,-392.749"/>
<text text-anchor="middle" x="355" y="-399.749" font-family="Helvetica,sans-Serif" font-size="10.00">TM_USART_ClearBuffer</text>
</a>
</g>
</g>
<!-- Node2&#45;&gt;Node9 -->
<g id="edge12" class="edge"><title>Node2&#45;&gt;Node9</title>
<path fill="none" stroke="midnightblue" d="M191.966,-468.579C207.096,-455.765 235.722,-433.369 264,-421.249 269.876,-418.73 276.115,-416.535 282.459,-414.623"/>
<polygon fill="midnightblue" stroke="midnightblue" points="283.778,-417.89 292.48,-411.847 281.908,-411.144 283.778,-417.89"/>
</g>
<!-- Node10 -->
<g id="node10" class="node"><title>Node10</title>
<g id="a_node10"><a xlink:href="a00067.html#gae2f5677e3f69e09a943fb3124c997656" target="_top" xlink:title="Sets custom character for TM_USART_Gets() function to detect when string ends. ">
<polygon fill="white" stroke="black" points="279.5,-343.249 279.5,-373.249 430.5,-373.249 430.5,-343.249 279.5,-343.249"/>
<text text-anchor="start" x="287.5" y="-361.249" font-family="Helvetica,sans-Serif" font-size="10.00">TM_USART_SetCustomString</text>
<text text-anchor="middle" x="355" y="-350.249" font-family="Helvetica,sans-Serif" font-size="10.00">EndCharacter</text>
</a>
</g>
</g>
<!-- Node2&#45;&gt;Node10 -->
<g id="edge13" class="edge"><title>Node2&#45;&gt;Node10</title>
<path fill="none" stroke="midnightblue" d="M186.736,-468.513C198.618,-449.212 227.858,-406 264,-383.249 267.377,-381.123 270.937,-379.174 274.613,-377.389"/>
<polygon fill="midnightblue" stroke="midnightblue" points="276.208,-380.511 283.951,-373.28 273.389,-374.104 276.208,-380.511"/>
</g>
<!-- Node11 -->
<g id="node11" class="node"><title>Node11</title>
<g id="a_node11"><a xlink:href="a00067.html#ga5cf7d7f613f4241fb77321ef9554f46b" target="_top" xlink:title="Callback for custom pins initialization for USARTx. ">
<polygon fill="white" stroke="black" points="264,-620.749 264,-639.749 446,-639.749 446,-620.749 264,-620.749"/>
<text text-anchor="middle" x="355" y="-627.749" font-family="Helvetica,sans-Serif" font-size="10.00">TM_USART_InitCustomPinsCallback</text>
</a>
</g>
</g>
<!-- Node2&#45;&gt;Node11 -->
<g id="edge14" class="edge"><title>Node2&#45;&gt;Node11</title>
<path fill="none" stroke="midnightblue" d="M187.983,-487.961C201.349,-506.128 232.073,-545.882 264,-573.249 283.461,-589.93 308.227,-605.255 326.851,-615.803"/>
<polygon fill="midnightblue" stroke="midnightblue" points="325.268,-618.928 335.709,-620.724 328.667,-612.808 325.268,-618.928"/>
</g>
<!-- Node2&#45;&gt;Node13 -->
<g id="edge25" class="edge"><title>Node2&#45;&gt;Node13</title>
<path fill="none" stroke="midnightblue" d="M181.487,-468.71C184.533,-413.079 202.87,-131.1 264,-76.2487 330.225,-16.8256 441.988,-25.3776 506.495,-36.8629"/>
<polygon fill="midnightblue" stroke="midnightblue" points="505.955,-40.3225 516.428,-38.7214 507.242,-33.4419 505.955,-40.3225"/>
</g>
<!-- Node2&#45;&gt;Node14 -->
<g id="edge26" class="edge"><title>Node2&#45;&gt;Node14</title>
<path fill="none" stroke="midnightblue" d="M180.588,-487.947C179.373,-529.384 180.214,-693.458 264,-781.249 318.061,-837.894 406.175,-860.815 471.584,-870.062"/>
<polygon fill="midnightblue" stroke="midnightblue" points="471.503,-873.582 481.878,-871.432 472.427,-866.643 471.503,-873.582"/>
</g>
<!-- Node2&#45;&gt;Node15 -->
<g id="edge27" class="edge"><title>Node2&#45;&gt;Node15</title>
<path fill="none" stroke="midnightblue" d="M180.937,-487.946C181.25,-525.917 187.724,-665.806 264,-735.249 320.047,-786.275 407.048,-800.273 471.612,-802.864"/>
<polygon fill="midnightblue" stroke="midnightblue" points="471.667,-806.367 481.773,-803.186 471.889,-799.371 471.667,-806.367"/>
</g>
<!-- Node2&#45;&gt;Node16 -->
<g id="edge28" class="edge"><title>Node2&#45;&gt;Node16</title>
<path fill="none" stroke="midnightblue" d="M181.214,-487.895C182.571,-523.202 192.452,-646.146 264,-700.249 333.296,-752.648 440.041,-745.894 503.609,-735.538"/>
<polygon fill="midnightblue" stroke="midnightblue" points="504.548,-738.928 513.81,-733.785 503.362,-732.029 504.548,-738.928"/>
</g>
<!-- Node2&#45;&gt;Node17 -->
<g id="edge29" class="edge"><title>Node2&#45;&gt;Node17</title>
<path fill="none" stroke="midnightblue" d="M181.848,-487.838C185.241,-519.783 200.887,-623.05 264,-667.249 335.764,-717.506 443.296,-708.758 506.028,-697.639"/>
<polygon fill="midnightblue" stroke="midnightblue" points="506.884,-701.04 516.075,-695.77 505.603,-694.159 506.884,-701.04"/>
</g>
<!-- Node2&#45;&gt;Node18 -->
<g id="edge30" class="edge"><title>Node2&#45;&gt;Node18</title>
<path fill="none" stroke="midnightblue" d="M228.012,-486.812C292.906,-498.897 406.406,-521.062 446,-535.249 477.116,-546.398 510.543,-564.603 532.383,-577.434"/>
<polygon fill="midnightblue" stroke="midnightblue" points="530.612,-580.452 540.994,-582.567 534.197,-574.44 530.612,-580.452"/>
</g>
<!-- Node2&#45;&gt;Node19 -->
<g id="edge31" class="edge"><title>Node2&#45;&gt;Node19</title>
<path fill="none" stroke="midnightblue" d="M228.177,-478.249C290.071,-478.249 399.655,-478.249 475.082,-478.249"/>
<polygon fill="midnightblue" stroke="midnightblue" points="475.489,-481.749 485.489,-478.249 475.489,-474.749 475.489,-481.749"/>
</g>
<!-- Node2&#45;&gt;Node20 -->
<g id="edge32" class="edge"><title>Node2&#45;&gt;Node20</title>
<path fill="none" stroke="midnightblue" d="M183.487,-468.573C190.815,-442.148 214.956,-368.387 264,-333.249 325.451,-289.222 412.042,-276.884 475.057,-274.404"/>
<polygon fill="midnightblue" stroke="midnightblue" points="475.469,-277.892 485.353,-274.077 475.247,-270.896 475.469,-277.892"/>
</g>
<!-- Node5&#45;&gt;Node4 -->
<g id="edge7" class="edge"><title>Node5&#45;&gt;Node4</title>
<path fill="none" stroke="midnightblue" d="M376.328,-133.881C411.997,-150.781 485.97,-185.831 527.175,-205.354"/>
<polygon fill="midnightblue" stroke="midnightblue" points="525.88,-208.614 536.416,-209.733 528.878,-202.288 525.88,-208.614"/>
</g>
<!-- Node5&#45;&gt;Node6 -->
<g id="edge6" class="edge"><title>Node5&#45;&gt;Node6</title>
<path fill="none" stroke="midnightblue" d="M403.516,-128.751C426.824,-130.96 455.45,-133.673 481.61,-136.152"/>
<polygon fill="midnightblue" stroke="midnightblue" points="481.594,-139.666 491.879,-137.125 482.254,-132.697 481.594,-139.666"/>
</g>
<!-- Node5&#45;&gt;Node7 -->
<g id="edge8" class="edge"><title>Node5&#45;&gt;Node7</title>
<path fill="none" stroke="midnightblue" d="M403.516,-115.243C431.295,-109.978 466.625,-103.282 496.334,-97.6517"/>
<polygon fill="midnightblue" stroke="midnightblue" points="497.001,-101.088 506.174,-95.7867 495.697,-94.2101 497.001,-101.088"/>
</g>
<!-- Node11&#45;&gt;Node11 -->
<g id="edge16" class="edge"><title>Node11&#45;&gt;Node11</title>
<path fill="none" stroke="midnightblue" d="M328.182,-640.006C315.135,-648.814 324.074,-658.249 355,-658.249 375.778,-658.249 386.632,-653.99 387.56,-648.523"/>
<polygon fill="midnightblue" stroke="midnightblue" points="390.31,-646.341 381.818,-640.006 384.506,-650.254 390.31,-646.341"/>
</g>
<!-- Node12 -->
<g id="node12" class="node"><title>Node12</title>
<g id="a_node12"><a xlink:href="a00089.html#gabc8eafcb23a81935b70b9046f266f5aa" target="_top" xlink:title="Initialize GPIO pins for alternate port operation. ">
<polygon fill="white" stroke="black" points="497.5,-620.749 497.5,-639.749 617.5,-639.749 617.5,-620.749 497.5,-620.749"/>
<text text-anchor="middle" x="557.5" y="-627.749" font-family="Helvetica,sans-Serif" font-size="10.00">MD_GPIO_InitAlternate</text>
</a>
</g>
</g>
<!-- Node11&#45;&gt;Node12 -->
<g id="edge15" class="edge"><title>Node11&#45;&gt;Node12</title>
<path fill="none" stroke="midnightblue" d="M446.279,-630.249C459.976,-630.249 473.923,-630.249 487.085,-630.249"/>
<polygon fill="midnightblue" stroke="midnightblue" points="487.452,-633.749 497.452,-630.249 487.452,-626.749 487.452,-633.749"/>
</g>
<!-- Node11&#45;&gt;Node13 -->
<g id="edge17" class="edge"><title>Node11&#45;&gt;Node13</title>
<path fill="none" stroke="midnightblue" d="M383.469,-620.741C404.449,-611.917 432.054,-596.587 446,-573.249 503.825,-476.481 409.719,-153.754 482,-67.2487 482.99,-66.0643 484.042,-64.9482 485.149,-63.8966"/>
<polygon fill="midnightblue" stroke="midnightblue" points="487.291,-66.6651 493.171,-57.8521 483.078,-61.0743 487.291,-66.6651"/>
</g>
<!-- Node11&#45;&gt;Node14 -->
<g id="edge18" class="edge"><title>Node11&#45;&gt;Node14</title>
<path fill="none" stroke="midnightblue" d="M361.037,-640.087C376.402,-669.507 425.108,-758.527 482,-819.249 497.079,-835.342 517.052,-850.36 532.522,-860.936"/>
<polygon fill="midnightblue" stroke="midnightblue" points="530.779,-863.981 541.039,-866.624 534.667,-858.16 530.779,-863.981"/>
</g>
<!-- Node11&#45;&gt;Node15 -->
<g id="edge19" class="edge"><title>Node11&#45;&gt;Node15</title>
<path fill="none" stroke="midnightblue" d="M366.213,-639.904C387.356,-659.783 437.659,-706.497 482,-743.249 499.504,-757.757 520.072,-773.392 535.157,-784.611"/>
<polygon fill="midnightblue" stroke="midnightblue" points="533.219,-787.531 543.34,-790.664 537.382,-781.903 533.219,-787.531"/>
</g>
<!-- Node11&#45;&gt;Node16 -->
<g id="edge20" class="edge"><title>Node11&#45;&gt;Node16</title>
<path fill="none" stroke="midnightblue" d="M369.3,-639.934C391.568,-655.733 438.265,-687.102 482,-705.249 487.906,-707.699 494.211,-709.898 500.558,-711.854"/>
<polygon fill="midnightblue" stroke="midnightblue" points="499.938,-715.317 510.516,-714.727 501.878,-708.592 499.938,-715.317"/>
</g>
<!-- Node11&#45;&gt;Node17 -->
<g id="edge21" class="edge"><title>Node11&#45;&gt;Node17</title>
<path fill="none" stroke="midnightblue" d="M390.467,-639.875C424.24,-649.308 475.847,-663.722 512.552,-673.974"/>
<polygon fill="midnightblue" stroke="midnightblue" points="511.91,-677.428 522.483,-676.748 513.793,-670.686 511.91,-677.428"/>
</g>
<!-- Node11&#45;&gt;Node18 -->
<g id="edge22" class="edge"><title>Node11&#45;&gt;Node18</title>
<path fill="none" stroke="midnightblue" d="M406.336,-620.709C433.626,-615.536 467.542,-609.109 496.233,-603.671"/>
<polygon fill="midnightblue" stroke="midnightblue" points="496.97,-607.094 506.143,-601.793 495.667,-600.216 496.97,-607.094"/>
</g>
<!-- Node11&#45;&gt;Node19 -->
<g id="edge23" class="edge"><title>Node11&#45;&gt;Node19</title>
<path fill="none" stroke="midnightblue" d="M372.735,-620.646C391.176,-609.838 421.474,-591.408 446,-573.249 480.436,-547.752 517.672,-514.411 538.931,-494.765"/>
<polygon fill="midnightblue" stroke="midnightblue" points="541.318,-497.324 546.257,-487.951 536.551,-492.199 541.318,-497.324"/>
</g>
<!-- Node11&#45;&gt;Node20 -->
<g id="edge24" class="edge"><title>Node11&#45;&gt;Node20</title>
<path fill="none" stroke="midnightblue" d="M380.002,-620.7C400.338,-611.443 428.852,-595.525 446,-573.249 478.411,-531.146 463.968,-509.228 482,-459.249 503.849,-398.688 533.706,-328.562 548.084,-295.45"/>
<polygon fill="midnightblue" stroke="midnightblue" points="551.39,-296.624 552.179,-286.058 544.974,-293.826 551.39,-296.624"/>
</g>
</g>
</svg>
        <g id="navigator" transform="translate(0 0)" fill="#404254">
                <rect fill="#f2f5e9" fill-opacity="0.5" stroke="#606060" stroke-width=".5" x="0" y="0" width="60" height="60"/>
                <use id="zoomplus" xlink:href="#zoomPlus" x="17" y="9" onmousedown="handleZoom(evt,'in')"/>
                <use id="zoomminus" xlink:href="#zoomMin" x="42" y="9" onmousedown="handleZoom(evt,'out')"/>
                <use id="reset" xlink:href="#resetDef" x="30" y="36" onmousedown="handleReset()"/>
                <g id="arrowUp" xlink:href="#dirArrow" transform="translate(30 24)" onmousedown="handlePan(0,-1)">
                  <use xlink:href="#rim" fill="#404040">
                        <set attributeName="fill" to="#808080" begin="arrowUp.mouseover" end="arrowUp.mouseout"/>
                  </use>
                  <path fill="none" stroke="white" stroke-width="1.5" d="M0,-3.0v7 M-2.5,-0.5L0,-3.0L2.5,-0.5"/>
                </g>
                <g id="arrowRight" xlink:href="#dirArrow" transform="rotate(90) translate(36 -43)" onmousedown="handlePan(1,0)">
                  <use xlink:href="#rim" fill="#404040">
                        <set attributeName="fill" to="#808080" begin="arrowRight.mouseover" end="arrowRight.mouseout"/>
                  </use>
                  <path fill="none" stroke="white" stroke-width="1.5" d="M0,-3.0v7 M-2.5,-0.5L0,-3.0L2.5,-0.5"/>
                </g>
                <g id="arrowDown" xlink:href="#dirArrow" transform="rotate(180) translate(-30 -48)" onmousedown="handlePan(0,1)">
                  <use xlink:href="#rim" fill="#404040">
                        <set attributeName="fill" to="#808080" begin="arrowDown.mouseover" end="arrowDown.mouseout"/>
                  </use>
                  <path fill="none" stroke="white" stroke-width="1.5" d="M0,-3.0v7 M-2.5,-0.5L0,-3.0L2.5,-0.5"/>
                </g>
                <g id="arrowLeft" xlink:href="#dirArrow" transform="rotate(270) translate(-36 17)" onmousedown="handlePan(-1,0)">
                  <use xlink:href="#rim" fill="#404040">
                        <set attributeName="fill" to="#808080" begin="arrowLeft.mouseover" end="arrowLeft.mouseout"/>
                  </use>
                  <path fill="none" stroke="white" stroke-width="1.5" d="M0,-3.0v7 M-2.5,-0.5L0,-3.0L2.5,-0.5"/>
                </g>
        </g>
        <svg viewBox="0 0 15 15" width="100%" height="30px" preserveAspectRatio="xMaxYMin meet">
         <g id="arrow_out" transform="scale(0.3 0.3)">
          <a xlink:href="a00067_ga453aeaa886278333403ff4937c01dcf3_cgraph_org.svg" target="_base">
           <rect id="button" ry="5" rx="5" y="6" x="6" height="38" width="38"
                fill="#f2f5e9" fill-opacity="0.5" stroke="#606060" stroke-width="1.0"/>
           <path id="arrow"
             d="M 11.500037,31.436501 C 11.940474,20.09759 22.043105,11.32322 32.158766,21.979434 L 37.068811,17.246167 C 37.068811,17.246167 37.088388,32 37.088388,32 L 22.160133,31.978069 C 22.160133,31.978069 26.997745,27.140456 26.997745,27.140456 C 18.528582,18.264221 13.291696,25.230495 11.500037,31.436501 z"
             style="fill:#404040;"/>
          </a>
         </g>
        </svg>
</svg>
