<?xml version="1.0" encoding="UTF-8" standalone="no"?>
<!DOCTYPE svg PUBLIC "-//W3C//DTD SVG 1.1//EN"
 "http://www.w3.org/Graphics/SVG/1.1/DTD/svg11.dtd">
<!-- Generated by graphviz version 2.38.0 (20140413.2041)
 -->
<!-- Title: DMA_ITConfig Pages: 1 -->
<svg width="364pt" height="142pt"
 viewBox="0.00 0.00 364.00 142.00" xmlns="http://www.w3.org/2000/svg" xmlns:xlink="http://www.w3.org/1999/xlink">
<g id="graph0" class="graph" transform="scale(1 1) rotate(0) translate(4 138)">
<title>DMA_ITConfig</title>
<polygon fill="white" stroke="none" points="-4,4 -4,-138 360,-138 360,4 -4,4"/>
<!-- Node1 -->
<g id="node1" class="node"><title>Node1</title>
<polygon fill="#bfbfbf" stroke="black" points="0,-57.5 0,-76.5 82,-76.5 82,-57.5 0,-57.5"/>
<text text-anchor="middle" x="41" y="-64.5" font-family="Helvetica,sans-Serif" font-size="10.00">DMA_ITConfig</text>
</g>
<!-- Node2 -->
<g id="node2" class="node"><title>Node2</title>
<g id="a_node2"><a xlink:href="a01259.html#ga4bfbdc85c5337782d112b383c6d0efbd" target="_top" xlink:title="DMA Channel 2 Stream 0 transmission complete IRQ handler. ">
<polygon fill="white" stroke="black" points="118,-114.5 118,-133.5 282,-133.5 282,-114.5 118,-114.5"/>
<text text-anchor="middle" x="200" y="-121.5" font-family="Helvetica,sans-Serif" font-size="10.00">DMA2_STREAM_0_IRQ_Handler</text>
</a>
</g>
</g>
<!-- Node1&#45;&gt;Node2 -->
<g id="edge1" class="edge"><title>Node1&#45;&gt;Node2</title>
<path fill="none" stroke="midnightblue" d="M67.2553,-81.4937C81.7394,-89.3257 100.475,-98.662 118,-105 128.187,-108.684 139.358,-111.841 150.061,-114.462"/>
<polygon fill="midnightblue" stroke="midnightblue" points="68.853,-78.3779 58.4065,-76.6108 65.471,-84.5067 68.853,-78.3779"/>
</g>
<!-- Node3 -->
<g id="node3" class="node"><title>Node3</title>
<g id="a_node3"><a xlink:href="a01259.html#ga3e965ca8f413e014ad3a4e27b6b7c0bc" target="_top" xlink:title="Timer 4 overrun IRQ callback. ">
<polygon fill="white" stroke="black" points="149.5,-76.5 149.5,-95.5 250.5,-95.5 250.5,-76.5 149.5,-76.5"/>
<text text-anchor="middle" x="200" y="-83.5" font-family="Helvetica,sans-Serif" font-size="10.00">TIM4_IRQ_Handler</text>
</a>
</g>
</g>
<!-- Node1&#45;&gt;Node3 -->
<g id="edge2" class="edge"><title>Node1&#45;&gt;Node3</title>
<path fill="none" stroke="midnightblue" d="M91.9591,-73.046C110.346,-75.2712 131.151,-77.789 149.498,-80.0093"/>
<polygon fill="midnightblue" stroke="midnightblue" points="92.3721,-69.5705 82.024,-71.8437 91.531,-76.5198 92.3721,-69.5705"/>
</g>
<!-- Node4 -->
<g id="node4" class="node"><title>Node4</title>
<g id="a_node4"><a xlink:href="a01271.html#ga85f5a2827c06dbdba076d4e9125a11f8" target="_top" xlink:title="ADC common and regular scan group init. ">
<polygon fill="white" stroke="black" points="134.5,-38.5 134.5,-57.5 265.5,-57.5 265.5,-38.5 134.5,-38.5"/>
<text text-anchor="middle" x="200" y="-45.5" font-family="Helvetica,sans-Serif" font-size="10.00">ADC_Scan_Group_Config</text>
</a>
</g>
</g>
<!-- Node1&#45;&gt;Node4 -->
<g id="edge3" class="edge"><title>Node1&#45;&gt;Node4</title>
<path fill="none" stroke="midnightblue" d="M92.0269,-60.9458C105.478,-59.318 120.219,-57.534 134.343,-55.8247"/>
<polygon fill="midnightblue" stroke="midnightblue" points="91.531,-57.4802 82.024,-62.1563 92.3721,-64.4295 91.531,-57.4802"/>
</g>
<!-- Node6 -->
<g id="node6" class="node"><title>Node6</title>
<g id="a_node6"><a xlink:href="a01271.html#gad273dc4b4b26574e92666e4020e1ef5a" target="_top" xlink:title="Timer&#45;triggered ADC&#45;scan mode with DMA to memory. ">
<polygon fill="white" stroke="black" points="132,-0.5 132,-19.5 268,-19.5 268,-0.5 132,-0.5"/>
<text text-anchor="middle" x="200" y="-7.5" font-family="Helvetica,sans-Serif" font-size="10.00">TIM2_DMA_Trigger_Config</text>
</a>
</g>
</g>
<!-- Node1&#45;&gt;Node6 -->
<g id="edge5" class="edge"><title>Node1&#45;&gt;Node6</title>
<path fill="none" stroke="midnightblue" d="M67.2553,-52.5063C81.7394,-44.6743 100.475,-35.338 118,-29 128.187,-25.3156 139.358,-22.1593 150.061,-19.5378"/>
<polygon fill="midnightblue" stroke="midnightblue" points="65.471,-49.4933 58.4065,-57.3892 68.853,-55.6221 65.471,-49.4933"/>
</g>
<!-- Node5 -->
<g id="node5" class="node"><title>Node5</title>
<g id="a_node5"><a xlink:href="a01287.html#ga840291bc02cba5474a4cb46a9b9566fe" target="_top" xlink:title="Main function entry. ">
<polygon fill="white" stroke="black" points="318,-19.5 318,-38.5 356,-38.5 356,-19.5 318,-19.5"/>
<text text-anchor="middle" x="337" y="-26.5" font-family="Helvetica,sans-Serif" font-size="10.00">main</text>
</a>
</g>
</g>
<!-- Node4&#45;&gt;Node5 -->
<g id="edge4" class="edge"><title>Node4&#45;&gt;Node5</title>
<path fill="none" stroke="midnightblue" d="M276.012,-37.4427C291.591,-35.2501 306.63,-33.1336 317.753,-31.5681"/>
<polygon fill="midnightblue" stroke="midnightblue" points="275.147,-34.03 265.732,-38.8896 276.122,-40.9616 275.147,-34.03"/>
</g>
<!-- Node6&#45;&gt;Node5 -->
<g id="edge6" class="edge"><title>Node6&#45;&gt;Node5</title>
<path fill="none" stroke="midnightblue" d="M278.421,-20.8962C293.224,-22.9796 307.376,-24.9714 317.945,-26.459"/>
<polygon fill="midnightblue" stroke="midnightblue" points="278.495,-17.3722 268.104,-19.4443 277.519,-24.3039 278.495,-17.3722"/>
</g>
</g>
</svg>
