<?xml version="1.0" encoding="UTF-8" standalone="no"?>
<!DOCTYPE svg PUBLIC "-//W3C//DTD SVG 1.1//EN"
 "http://www.w3.org/Graphics/SVG/1.1/DTD/svg11.dtd">
<!-- Generated by graphviz version 2.38.0 (20140413.2041)
 -->
<!-- Title: CRYP_GetCmdStatus Pages: 1 -->
<svg width="264pt" height="332pt"
 viewBox="0.00 0.00 264.00 332.00" xmlns="http://www.w3.org/2000/svg" xmlns:xlink="http://www.w3.org/1999/xlink">
<g id="graph0" class="graph" transform="scale(1 1) rotate(0) translate(4 328)">
<title>CRYP_GetCmdStatus</title>
<polygon fill="white" stroke="none" points="-4,4 -4,-328 260,-328 260,4 -4,4"/>
<!-- Node1 -->
<g id="node1" class="node"><title>Node1</title>
<polygon fill="#bfbfbf" stroke="black" points="0,-152.5 0,-171.5 116,-171.5 116,-152.5 0,-152.5"/>
<text text-anchor="middle" x="58" y="-159.5" font-family="Helvetica,sans-Serif" font-size="10.00">CRYP_GetCmdStatus</text>
</g>
<!-- Node2 -->
<g id="node2" class="node"><title>Node2</title>
<g id="a_node2"><a xlink:href="a00985.html#ga79ff82ece0e9620dc86d6e57abe639e1" target="_top" xlink:title="Encrypt and decrypt using AES in ECB Mode. ">
<polygon fill="white" stroke="black" points="155.5,-304.5 155.5,-323.5 252.5,-323.5 252.5,-304.5 155.5,-304.5"/>
<text text-anchor="middle" x="204" y="-311.5" font-family="Helvetica,sans-Serif" font-size="10.00">CRYP_AES_ECB</text>
</a>
</g>
</g>
<!-- Node1&#45;&gt;Node2 -->
<g id="edge1" class="edge"><title>Node1&#45;&gt;Node2</title>
<path fill="none" stroke="midnightblue" d="M67.5222,-180.776C81.3596,-209.291 111.317,-263.517 152,-295 156.932,-298.817 162.711,-301.928 168.572,-304.444"/>
<polygon fill="midnightblue" stroke="midnightblue" points="70.5915,-179.078 63.1636,-171.524 64.259,-182.062 70.5915,-179.078"/>
</g>
<!-- Node3 -->
<g id="node3" class="node"><title>Node3</title>
<g id="a_node3"><a xlink:href="a00985.html#gaa43eadf707257710f6a53b3295b39d70" target="_top" xlink:title="Encrypt and decrypt using AES in CBC Mode. ">
<polygon fill="white" stroke="black" points="155,-266.5 155,-285.5 253,-285.5 253,-266.5 155,-266.5"/>
<text text-anchor="middle" x="204" y="-273.5" font-family="Helvetica,sans-Serif" font-size="10.00">CRYP_AES_CBC</text>
</a>
</g>
</g>
<!-- Node1&#45;&gt;Node3 -->
<g id="edge2" class="edge"><title>Node1&#45;&gt;Node3</title>
<path fill="none" stroke="midnightblue" d="M72.3696,-179.814C88.9739,-200.843 119.15,-235.649 152,-257 157.704,-260.707 164.234,-263.832 170.674,-266.409"/>
<polygon fill="midnightblue" stroke="midnightblue" points="75.0012,-177.495 66.1162,-171.724 69.4629,-181.776 75.0012,-177.495"/>
</g>
<!-- Node4 -->
<g id="node4" class="node"><title>Node4</title>
<g id="a_node4"><a xlink:href="a00985.html#ga2f36aea6e94452e5e5e938547fb89d4c" target="_top" xlink:title="Encrypt and decrypt using AES in CTR Mode. ">
<polygon fill="white" stroke="black" points="155.5,-228.5 155.5,-247.5 252.5,-247.5 252.5,-228.5 155.5,-228.5"/>
<text text-anchor="middle" x="204" y="-235.5" font-family="Helvetica,sans-Serif" font-size="10.00">CRYP_AES_CTR</text>
</a>
</g>
</g>
<!-- Node1&#45;&gt;Node4 -->
<g id="edge3" class="edge"><title>Node1&#45;&gt;Node4</title>
<path fill="none" stroke="midnightblue" d="M81.238,-177.323C99.658,-189.595 126.803,-206.728 152,-219 159.051,-222.434 166.89,-225.639 174.266,-228.401"/>
<polygon fill="midnightblue" stroke="midnightblue" points="82.9484,-174.255 72.7005,-171.566 79.0348,-180.059 82.9484,-174.255"/>
</g>
<!-- Node5 -->
<g id="node5" class="node"><title>Node5</title>
<g id="a_node5"><a xlink:href="a00985.html#ga74b48d820c5c360eb303fc2fb78af055" target="_top" xlink:title="Encrypt and decrypt using AES in GCM Mode. The GCM and CCM modes are available only on STM32F437x Dev...">
<polygon fill="white" stroke="black" points="154.5,-190.5 154.5,-209.5 253.5,-209.5 253.5,-190.5 154.5,-190.5"/>
<text text-anchor="middle" x="204" y="-197.5" font-family="Helvetica,sans-Serif" font-size="10.00">CRYP_AES_GCM</text>
</a>
</g>
</g>
<!-- Node1&#45;&gt;Node5 -->
<g id="edge4" class="edge"><title>Node1&#45;&gt;Node5</title>
<path fill="none" stroke="midnightblue" d="M105.172,-174.184C125.164,-179.46 148.219,-185.544 166.924,-190.48"/>
<polygon fill="midnightblue" stroke="midnightblue" points="105.899,-170.756 95.3373,-171.589 104.113,-177.525 105.899,-170.756"/>
</g>
<!-- Node6 -->
<g id="node6" class="node"><title>Node6</title>
<g id="a_node6"><a xlink:href="a00985.html#ga9d9f5c74b634b85b7aa8c2a2ea0bcd51" target="_top" xlink:title="Encrypt and decrypt using AES in CCM Mode. The GCM and CCM modes are available only on STM32F437x Dev...">
<polygon fill="white" stroke="black" points="154.5,-152.5 154.5,-171.5 253.5,-171.5 253.5,-152.5 154.5,-152.5"/>
<text text-anchor="middle" x="204" y="-159.5" font-family="Helvetica,sans-Serif" font-size="10.00">CRYP_AES_CCM</text>
</a>
</g>
</g>
<!-- Node1&#45;&gt;Node6 -->
<g id="edge5" class="edge"><title>Node1&#45;&gt;Node6</title>
<path fill="none" stroke="midnightblue" d="M126.428,-162C135.802,-162 145.28,-162 154.223,-162"/>
<polygon fill="midnightblue" stroke="midnightblue" points="126.326,-158.5 116.326,-162 126.326,-165.5 126.326,-158.5"/>
</g>
<!-- Node7 -->
<g id="node7" class="node"><title>Node7</title>
<g id="a_node7"><a xlink:href="a00986.html#ga3b96b7608b39197209abed5f5845f590" target="_top" xlink:title="Encrypt and decrypt using DES in ECB Mode. ">
<polygon fill="white" stroke="black" points="155,-114.5 155,-133.5 253,-133.5 253,-114.5 155,-114.5"/>
<text text-anchor="middle" x="204" y="-121.5" font-family="Helvetica,sans-Serif" font-size="10.00">CRYP_DES_ECB</text>
</a>
</g>
</g>
<!-- Node1&#45;&gt;Node7 -->
<g id="edge6" class="edge"><title>Node1&#45;&gt;Node7</title>
<path fill="none" stroke="midnightblue" d="M105.172,-149.816C125.164,-144.54 148.219,-138.456 166.924,-133.52"/>
<polygon fill="midnightblue" stroke="midnightblue" points="104.113,-146.475 95.3373,-152.411 105.899,-153.244 104.113,-146.475"/>
</g>
<!-- Node8 -->
<g id="node8" class="node"><title>Node8</title>
<g id="a_node8"><a xlink:href="a00986.html#ga75724391a8560c557e1152b805f5cad1" target="_top" xlink:title="Encrypt and decrypt using DES in CBC Mode. ">
<polygon fill="white" stroke="black" points="155,-76.5 155,-95.5 253,-95.5 253,-76.5 155,-76.5"/>
<text text-anchor="middle" x="204" y="-83.5" font-family="Helvetica,sans-Serif" font-size="10.00">CRYP_DES_CBC</text>
</a>
</g>
</g>
<!-- Node1&#45;&gt;Node8 -->
<g id="edge7" class="edge"><title>Node1&#45;&gt;Node8</title>
<path fill="none" stroke="midnightblue" d="M81.238,-146.677C99.658,-134.405 126.803,-117.272 152,-105 159.051,-101.566 166.89,-98.3615 174.266,-95.5986"/>
<polygon fill="midnightblue" stroke="midnightblue" points="79.0348,-143.941 72.7005,-152.434 82.9484,-149.745 79.0348,-143.941"/>
</g>
<!-- Node9 -->
<g id="node9" class="node"><title>Node9</title>
<g id="a_node9"><a xlink:href="a00987.html#ga17c03ab4f0566fcbc3dd8c052e6f9886" target="_top" xlink:title="Encrypt and decrypt using TDES in ECB Mode. ">
<polygon fill="white" stroke="black" points="152,-38.5 152,-57.5 256,-57.5 256,-38.5 152,-38.5"/>
<text text-anchor="middle" x="204" y="-45.5" font-family="Helvetica,sans-Serif" font-size="10.00">CRYP_TDES_ECB</text>
</a>
</g>
</g>
<!-- Node1&#45;&gt;Node9 -->
<g id="edge8" class="edge"><title>Node1&#45;&gt;Node9</title>
<path fill="none" stroke="midnightblue" d="M72.3696,-144.186C88.9739,-123.157 119.15,-88.3506 152,-67 157.704,-63.2927 164.234,-60.1678 170.674,-57.591"/>
<polygon fill="midnightblue" stroke="midnightblue" points="69.4629,-142.224 66.1162,-152.276 75.0012,-146.505 69.4629,-142.224"/>
</g>
<!-- Node10 -->
<g id="node10" class="node"><title>Node10</title>
<g id="a_node10"><a xlink:href="a00987.html#gabe52a368c4882450c1e82f16bc1eb686" target="_top" xlink:title="Encrypt and decrypt using TDES in CBC Mode. ">
<polygon fill="white" stroke="black" points="152,-0.5 152,-19.5 256,-19.5 256,-0.5 152,-0.5"/>
<text text-anchor="middle" x="204" y="-7.5" font-family="Helvetica,sans-Serif" font-size="10.00">CRYP_TDES_CBC</text>
</a>
</g>
</g>
<!-- Node1&#45;&gt;Node10 -->
<g id="edge9" class="edge"><title>Node1&#45;&gt;Node10</title>
<path fill="none" stroke="midnightblue" d="M67.5222,-143.224C81.3596,-114.709 111.317,-60.4829 152,-29 156.932,-25.1834 162.711,-22.0719 168.572,-19.5556"/>
<polygon fill="midnightblue" stroke="midnightblue" points="64.259,-141.938 63.1636,-152.476 70.5915,-144.922 64.259,-141.938"/>
</g>
</g>
</svg>
