<?xml version="1.0" encoding="UTF-8" standalone="no"?>
<!DOCTYPE svg PUBLIC "-//W3C//DTD SVG 1.1//EN"
 "http://www.w3.org/Graphics/SVG/1.1/DTD/svg11.dtd">
<!-- Generated by graphviz version 2.38.0 (20140413.2041)
 -->
<!-- Title: MISC Pages: 1 -->
<svg width="377pt" height="66pt"
 viewBox="0.00 0.00 377.00 66.00" xmlns="http://www.w3.org/2000/svg" xmlns:xlink="http://www.w3.org/1999/xlink">
<g id="graph0" class="graph" transform="scale(1 1) rotate(0) translate(4 62)">
<title>MISC</title>
<polygon fill="white" stroke="none" points="-4,4 -4,-62 373,-62 373,4 -4,4"/>
<!-- Node1 -->
<g id="node1" class="node"><title>Node1</title>
<g id="a_node1"><a xlink:href="a00781.html" target="_top" xlink:title="STM32F4xx_StdPeriph\l_Driver">
<polygon fill="white" stroke="black" points="0,-14 0,-44 118,-44 118,-14 0,-14"/>
<text text-anchor="start" x="8" y="-32" font-family="Helvetica,sans-Serif" font-size="10.00">STM32F4xx_StdPeriph</text>
<text text-anchor="middle" x="59" y="-21" font-family="Helvetica,sans-Serif" font-size="10.00">_Driver</text>
</a>
</g>
</g>
<!-- Node0 -->
<g id="node2" class="node"><title>Node0</title>
<polygon fill="#bfbfbf" stroke="black" points="154,-19.5 154,-38.5 196,-38.5 196,-19.5 154,-19.5"/>
<text text-anchor="middle" x="175" y="-26.5" font-family="Helvetica,sans-Serif" font-size="10.00">MISC</text>
</g>
<!-- Node1&#45;&gt;Node0 -->
<g id="edge1" class="edge"><title>Node1&#45;&gt;Node0</title>
<path fill="none" stroke="black" d="M128.195,-29C137.484,-29 146.361,-29 153.784,-29"/>
<polygon fill="black" stroke="black" points="128.002,-25.5001 118.002,-29 128.002,-32.5001 128.002,-25.5001"/>
</g>
<!-- Node2 -->
<g id="node3" class="node"><title>Node2</title>
<g id="a_node3"><a xlink:href="a00176.html" target="_top" xlink:title="MISC_Exported_Constants">
<polygon fill="white" stroke="black" points="232,-38.5 232,-57.5 369,-57.5 369,-38.5 232,-38.5"/>
<text text-anchor="middle" x="300.5" y="-45.5" font-family="Helvetica,sans-Serif" font-size="10.00">MISC_Exported_Constants</text>
</a>
</g>
</g>
<!-- Node0&#45;&gt;Node2 -->
<g id="edge2" class="edge"><title>Node0&#45;&gt;Node2</title>
<path fill="none" stroke="black" d="M206.205,-33.647C215.718,-35.1105 226.597,-36.7841 237.486,-38.4594"/>
<polygon fill="black" stroke="black" points="206.533,-30.1563 196.117,-32.095 205.469,-37.0749 206.533,-30.1563"/>
</g>
<!-- Node3 -->
<g id="node4" class="node"><title>Node3</title>
<g id="a_node4"><a xlink:href="a00547.html" target="_top" xlink:title="MISC_Private_Functions">
<polygon fill="white" stroke="black" points="237.5,-0.5 237.5,-19.5 363.5,-19.5 363.5,-0.5 237.5,-0.5"/>
<text text-anchor="middle" x="300.5" y="-7.5" font-family="Helvetica,sans-Serif" font-size="10.00">MISC_Private_Functions</text>
</a>
</g>
</g>
<!-- Node0&#45;&gt;Node3 -->
<g id="edge3" class="edge"><title>Node0&#45;&gt;Node3</title>
<path fill="none" stroke="black" d="M206.205,-24.353C215.718,-22.8895 226.597,-21.2159 237.486,-19.5406"/>
<polygon fill="black" stroke="black" points="205.469,-20.9251 196.117,-25.905 206.533,-27.8437 205.469,-20.9251"/>
</g>
</g>
</svg>
