<?xml version="1.0" encoding="UTF-8" standalone="no"?>
<!DOCTYPE svg PUBLIC "-//W3C//DTD SVG 1.1//EN"
 "http://www.w3.org/Graphics/SVG/1.1/DTD/svg11.dtd">
<!-- Generated by graphviz version 2.38.0 (20140413.2041)
 -->
<!-- Title: TM_USART_SetCustomStringEndCharacter Pages: 1 -->
<svg width="497pt" height="72pt"
 viewBox="0.00 0.00 497.00 71.50" xmlns="http://www.w3.org/2000/svg" xmlns:xlink="http://www.w3.org/1999/xlink">
<g id="graph0" class="graph" transform="scale(1 1) rotate(0) translate(4 67.5)">
<title>TM_USART_SetCustomStringEndCharacter</title>
<polygon fill="white" stroke="none" points="-4,4 -4,-67.5 493,-67.5 493,4 -4,4"/>
<!-- Node1 -->
<g id="node1" class="node"><title>Node1</title>
<polygon fill="#bfbfbf" stroke="black" points="0,-0.5 0,-30.5 151,-30.5 151,-0.5 0,-0.5"/>
<text text-anchor="start" x="8" y="-18.5" font-family="Helvetica,sans-Serif" font-size="10.00">TM_USART_SetCustomString</text>
<text text-anchor="middle" x="75.5" y="-7.5" font-family="Helvetica,sans-Serif" font-size="10.00">EndCharacter</text>
</g>
<!-- Node2 -->
<g id="node2" class="node"><title>Node2</title>
<g id="a_node2"><a xlink:href="a00067.html#gab807a241fae0eae0d5434bae20a3569f" target="_top" xlink:title="Puts character to USART port. ">
<polygon fill="white" stroke="black" points="187,-6 187,-25 283,-25 283,-6 187,-6"/>
<text text-anchor="middle" x="235" y="-13" font-family="Helvetica,sans-Serif" font-size="10.00">TM_USART_Putc</text>
</a>
</g>
</g>
<!-- Node1&#45;&gt;Node2 -->
<g id="edge1" class="edge"><title>Node1&#45;&gt;Node2</title>
<path fill="none" stroke="midnightblue" d="M161.302,-15.5C169.976,-15.5 178.552,-15.5 186.605,-15.5"/>
<polygon fill="midnightblue" stroke="midnightblue" points="161.099,-12.0001 151.099,-15.5 161.099,-19.0001 161.099,-12.0001"/>
</g>
<!-- Node3 -->
<g id="node3" class="node"><title>Node3</title>
<g id="a_node3"><a xlink:href="a00067.html#ga70bed9fb6612cb572a8c10e148404344" target="_top" xlink:title="Initializes USARTx peripheral and corresponding pins. ">
<polygon fill="white" stroke="black" points="322.5,-44 322.5,-63 411.5,-63 411.5,-44 322.5,-44"/>
<text text-anchor="middle" x="367" y="-51" font-family="Helvetica,sans-Serif" font-size="10.00">TM_USART_Init</text>
</a>
</g>
</g>
<!-- Node2&#45;&gt;Node3 -->
<g id="edge2" class="edge"><title>Node2&#45;&gt;Node3</title>
<path fill="none" stroke="midnightblue" d="M278.884,-28.0353C296.569,-33.2048 316.734,-39.0991 333.206,-43.9141"/>
<polygon fill="midnightblue" stroke="midnightblue" points="279.385,-24.5353 268.804,-25.089 277.421,-31.2542 279.385,-24.5353"/>
</g>
<!-- Node5 -->
<g id="node5" class="node"><title>Node5</title>
<g id="a_node5"><a xlink:href="a00067.html#ga453aeaa886278333403ff4937c01dcf3" target="_top" xlink:title="Puts string to USART port. ">
<polygon fill="white" stroke="black" points="319,-6 319,-25 415,-25 415,-6 319,-6"/>
<text text-anchor="middle" x="367" y="-13" font-family="Helvetica,sans-Serif" font-size="10.00">TM_USART_Puts</text>
</a>
</g>
</g>
<!-- Node2&#45;&gt;Node5 -->
<g id="edge4" class="edge"><title>Node2&#45;&gt;Node5</title>
<path fill="none" stroke="midnightblue" d="M293.539,-8.78969C302.034,-8.69895 310.703,-8.7638 318.952,-8.98422"/>
<polygon fill="midnightblue" stroke="midnightblue" points="293.235,-5.29457 283.301,-8.97752 293.363,-12.2934 293.235,-5.29457"/>
</g>
<!-- Node4 -->
<g id="node4" class="node"><title>Node4</title>
<g id="a_node4"><a xlink:href="a00144.html#ga840291bc02cba5474a4cb46a9b9566fe" target="_top" xlink:title="Main function entry. ">
<polygon fill="white" stroke="black" points="451,-44 451,-63 489,-63 489,-44 451,-44"/>
<text text-anchor="middle" x="470" y="-51" font-family="Helvetica,sans-Serif" font-size="10.00">main</text>
</a>
</g>
</g>
<!-- Node3&#45;&gt;Node4 -->
<g id="edge3" class="edge"><title>Node3&#45;&gt;Node4</title>
<path fill="none" stroke="midnightblue" d="M421.767,-53.5C432.256,-53.5 442.556,-53.5 450.848,-53.5"/>
<polygon fill="midnightblue" stroke="midnightblue" points="421.713,-50.0001 411.713,-53.5 421.713,-57.0001 421.713,-50.0001"/>
</g>
<!-- Node5&#45;&gt;Node2 -->
<g id="edge5" class="edge"><title>Node5&#45;&gt;Node2</title>
<path fill="none" stroke="midnightblue" d="M308.722,-22.2075C300.229,-22.3014 291.559,-22.2397 283.301,-22.0225"/>
<polygon fill="midnightblue" stroke="midnightblue" points="309.02,-25.7026 318.952,-22.0158 308.888,-18.7038 309.02,-25.7026"/>
</g>
</g>
</svg>
