<?xml version="1.0" encoding="UTF-8" standalone="no"?>
<!DOCTYPE svg PUBLIC "-//W3C//DTD SVG 1.1//EN"
 "http://www.w3.org/Graphics/SVG/1.1/DTD/svg11.dtd">
<!-- Generated by graphviz version 2.38.0 (20140413.2041)
 -->
<!-- Title: RTC Pages: 1 -->
<svg width="368pt" height="66pt"
 viewBox="0.00 0.00 368.00 66.00" xmlns="http://www.w3.org/2000/svg" xmlns:xlink="http://www.w3.org/1999/xlink">
<g id="graph0" class="graph" transform="scale(1 1) rotate(0) translate(4 62)">
<title>RTC</title>
<polygon fill="white" stroke="none" points="-4,4 -4,-62 364,-62 364,4 -4,4"/>
<!-- Node0 -->
<g id="node1" class="node"><title>Node0</title>
<polygon fill="#bfbfbf" stroke="black" points="154,-19.5 154,-38.5 192,-38.5 192,-19.5 154,-19.5"/>
<text text-anchor="middle" x="173" y="-26.5" font-family="Helvetica,sans-Serif" font-size="10.00">RTC</text>
</g>
<!-- Node3 -->
<g id="node3" class="node"><title>Node3</title>
<g id="a_node3"><a xlink:href="a00645.html" target="_top" xlink:title="RTC_Private_Functions">
<polygon fill="white" stroke="black" points="233,-38.5 233,-57.5 355,-57.5 355,-38.5 233,-38.5"/>
<text text-anchor="middle" x="294" y="-45.5" font-family="Helvetica,sans-Serif" font-size="10.00">RTC_Private_Functions</text>
</a>
</g>
</g>
<!-- Node0&#45;&gt;Node3 -->
<g id="edge3" class="edge"><title>Node0&#45;&gt;Node3</title>
<path fill="none" stroke="black" d="M202.038,-33.4766C211.493,-34.9863 222.437,-36.7336 233.386,-38.4817"/>
<polygon fill="black" stroke="black" points="202.5,-30.0062 192.074,-31.8857 201.397,-36.9187 202.5,-30.0062"/>
</g>
<!-- Node2 -->
<g id="node4" class="node"><title>Node2</title>
<g id="a_node4"><a xlink:href="a00393.html" target="_top" xlink:title="RTC_Exported_Constants">
<polygon fill="white" stroke="black" points="228,-0.5 228,-19.5 360,-19.5 360,-0.5 228,-0.5"/>
<text text-anchor="middle" x="294" y="-7.5" font-family="Helvetica,sans-Serif" font-size="10.00">RTC_Exported_Constants</text>
</a>
</g>
</g>
<!-- Node0&#45;&gt;Node2 -->
<g id="edge2" class="edge"><title>Node0&#45;&gt;Node2</title>
<path fill="none" stroke="black" d="M202.038,-24.5234C211.493,-23.0137 222.437,-21.2664 233.386,-19.5183"/>
<polygon fill="black" stroke="black" points="201.397,-21.0813 192.074,-26.1143 202.5,-27.9938 201.397,-21.0813"/>
</g>
<!-- Node1 -->
<g id="node2" class="node"><title>Node1</title>
<g id="a_node2"><a xlink:href="a00781.html" target="_top" xlink:title="STM32F4xx_StdPeriph\l_Driver">
<polygon fill="white" stroke="black" points="0,-14 0,-44 118,-44 118,-14 0,-14"/>
<text text-anchor="start" x="8" y="-32" font-family="Helvetica,sans-Serif" font-size="10.00">STM32F4xx_StdPeriph</text>
<text text-anchor="middle" x="59" y="-21" font-family="Helvetica,sans-Serif" font-size="10.00">_Driver</text>
</a>
</g>
</g>
<!-- Node1&#45;&gt;Node0 -->
<g id="edge1" class="edge"><title>Node1&#45;&gt;Node0</title>
<path fill="none" stroke="black" d="M128.544,-29C137.86,-29 146.687,-29 153.922,-29"/>
<polygon fill="black" stroke="black" points="128.296,-25.5001 118.296,-29 128.296,-32.5001 128.296,-25.5001"/>
</g>
</g>
</svg>
