<?xml version="1.0" encoding="UTF-8" standalone="no"?>
<!DOCTYPE svg PUBLIC "-//W3C//DTD SVG 1.1//EN"
 "http://www.w3.org/Graphics/SVG/1.1/DTD/svg11.dtd">
<!-- Generated by graphviz version 2.38.0 (20140413.2041)
 -->
<!-- Title: ADC_CommonInit Pages: 1 -->
<svg width="351pt" height="66pt"
 viewBox="0.00 0.00 351.00 66.00" xmlns="http://www.w3.org/2000/svg" xmlns:xlink="http://www.w3.org/1999/xlink">
<g id="graph0" class="graph" transform="scale(1 1) rotate(0) translate(4 62)">
<title>ADC_CommonInit</title>
<polygon fill="white" stroke="none" points="-4,4 -4,-62 347,-62 347,4 -4,4"/>
<!-- Node1 -->
<g id="node1" class="node"><title>Node1</title>
<polygon fill="#bfbfbf" stroke="black" points="0,-19.5 0,-38.5 97,-38.5 97,-19.5 0,-19.5"/>
<text text-anchor="middle" x="48.5" y="-26.5" font-family="Helvetica,sans-Serif" font-size="10.00">ADC_CommonInit</text>
</g>
<!-- Node2 -->
<g id="node2" class="node"><title>Node2</title>
<g id="a_node2"><a xlink:href="a01271.html#ga85f5a2827c06dbdba076d4e9125a11f8" target="_top" xlink:title="ADC common and regular scan group init. ">
<polygon fill="white" stroke="black" points="135.5,-38.5 135.5,-57.5 266.5,-57.5 266.5,-38.5 135.5,-38.5"/>
<text text-anchor="middle" x="201" y="-45.5" font-family="Helvetica,sans-Serif" font-size="10.00">ADC_Scan_Group_Config</text>
</a>
</g>
</g>
<!-- Node1&#45;&gt;Node2 -->
<g id="edge1" class="edge"><title>Node1&#45;&gt;Node2</title>
<path fill="none" stroke="midnightblue" d="M107.298,-36.2968C116.48,-37.456 126.029,-38.6614 135.356,-39.8389"/>
<polygon fill="midnightblue" stroke="midnightblue" points="107.479,-32.7919 97.1191,-35.0117 106.602,-39.7368 107.479,-32.7919"/>
</g>
<!-- Node4 -->
<g id="node4" class="node"><title>Node4</title>
<g id="a_node4"><a xlink:href="a01271.html#gad273dc4b4b26574e92666e4020e1ef5a" target="_top" xlink:title="Timer&#45;triggered ADC&#45;scan mode with DMA to memory. ">
<polygon fill="white" stroke="black" points="133,-0.5 133,-19.5 269,-19.5 269,-0.5 133,-0.5"/>
<text text-anchor="middle" x="201" y="-7.5" font-family="Helvetica,sans-Serif" font-size="10.00">TIM2_DMA_Trigger_Config</text>
</a>
</g>
</g>
<!-- Node1&#45;&gt;Node4 -->
<g id="edge3" class="edge"><title>Node1&#45;&gt;Node4</title>
<path fill="none" stroke="midnightblue" d="M107.191,-21.7167C115.6,-20.6552 124.318,-19.5546 132.893,-18.472"/>
<polygon fill="midnightblue" stroke="midnightblue" points="106.602,-18.2632 97.1191,-22.9883 107.479,-25.2081 106.602,-18.2632"/>
</g>
<!-- Node3 -->
<g id="node3" class="node"><title>Node3</title>
<g id="a_node3"><a xlink:href="a01287.html#ga840291bc02cba5474a4cb46a9b9566fe" target="_top" xlink:title="Main function entry. ">
<polygon fill="white" stroke="black" points="305,-19.5 305,-38.5 343,-38.5 343,-19.5 305,-19.5"/>
<text text-anchor="middle" x="324" y="-26.5" font-family="Helvetica,sans-Serif" font-size="10.00">main</text>
</a>
</g>
</g>
<!-- Node2&#45;&gt;Node3 -->
<g id="edge2" class="edge"><title>Node2&#45;&gt;Node3</title>
<path fill="none" stroke="midnightblue" d="M272.851,-36.8747C284.648,-35.0222 295.904,-33.2548 304.752,-31.8654"/>
<polygon fill="midnightblue" stroke="midnightblue" points="272.19,-33.4354 262.854,-38.4443 273.276,-40.3506 272.19,-33.4354"/>
</g>
<!-- Node4&#45;&gt;Node3 -->
<g id="edge4" class="edge"><title>Node4&#45;&gt;Node3</title>
<path fill="none" stroke="midnightblue" d="M272.851,-21.1253C284.648,-22.9778 295.904,-24.7452 304.752,-26.1346"/>
<polygon fill="midnightblue" stroke="midnightblue" points="273.276,-17.6494 262.854,-19.5557 272.19,-24.5646 273.276,-17.6494"/>
</g>
</g>
</svg>
