<?xml version="1.0" encoding="UTF-8" standalone="no"?>
<!DOCTYPE svg PUBLIC "-//W3C//DTD SVG 1.1//EN"
 "http://www.w3.org/Graphics/SVG/1.1/DTD/svg11.dtd">
<!-- Generated by graphviz version 2.38.0 (20140413.2041)
 -->
<!-- Title: TM_USART1_ReceiveHandler Pages: 1 -->
<svg width="708pt" height="122pt"
 viewBox="0.00 0.00 708.00 122.00" xmlns="http://www.w3.org/2000/svg" xmlns:xlink="http://www.w3.org/1999/xlink">
<g id="graph0" class="graph" transform="scale(1 1) rotate(0) translate(4 118)">
<title>TM_USART1_ReceiveHandler</title>
<polygon fill="white" stroke="none" points="-4,4 -4,-118 704,-118 704,4 -4,4"/>
<!-- Node1 -->
<g id="node1" class="node"><title>Node1</title>
<polygon fill="#bfbfbf" stroke="black" points="0,-56.5 0,-75.5 151,-75.5 151,-56.5 0,-56.5"/>
<text text-anchor="middle" x="75.5" y="-63.5" font-family="Helvetica,sans-Serif" font-size="10.00">TM_USART1_ReceiveHandler</text>
</g>
<!-- Node2 -->
<g id="node2" class="node"><title>Node2</title>
<g id="a_node2"><a xlink:href="a00069.html#ga453aeaa886278333403ff4937c01dcf3" target="_top" xlink:title="Puts string to USART port. ">
<polygon fill="white" stroke="black" points="230,-94.5 230,-113.5 326,-113.5 326,-94.5 230,-94.5"/>
<text text-anchor="middle" x="278" y="-101.5" font-family="Helvetica,sans-Serif" font-size="10.00">TM_USART_Puts</text>
</a>
</g>
</g>
<!-- Node1&#45;&gt;Node2 -->
<g id="edge1" class="edge"><title>Node1&#45;&gt;Node2</title>
<path fill="none" stroke="midnightblue" d="M136.704,-77.4103C166.498,-83.057 201.939,-89.7741 229.746,-95.0442"/>
<polygon fill="midnightblue" stroke="midnightblue" points="137.313,-73.9634 126.836,-75.54 136.009,-80.8409 137.313,-73.9634"/>
</g>
<!-- Node3 -->
<g id="node3" class="node"><title>Node3</title>
<g id="a_node3"><a xlink:href="a00069.html#gab807a241fae0eae0d5434bae20a3569f" target="_top" xlink:title="Puts character to USART port. ">
<polygon fill="white" stroke="black" points="405,-75.5 405,-94.5 501,-94.5 501,-75.5 405,-75.5"/>
<text text-anchor="middle" x="453" y="-82.5" font-family="Helvetica,sans-Serif" font-size="10.00">TM_USART_Putc</text>
</a>
</g>
</g>
<!-- Node1&#45;&gt;Node3 -->
<g id="edge9" class="edge"><title>Node1&#45;&gt;Node3</title>
<path fill="none" stroke="midnightblue" d="M161.538,-70.3029C236.812,-74.1117 343.908,-79.5306 404.819,-82.6127"/>
<polygon fill="midnightblue" stroke="midnightblue" points="161.3,-66.7864 151.136,-69.7765 160.946,-73.7775 161.3,-66.7864"/>
</g>
<!-- Node6 -->
<g id="node6" class="node"><title>Node6</title>
<g id="a_node6"><a xlink:href="a00069.html#ga5cf7d7f613f4241fb77321ef9554f46b" target="_top" xlink:title="Callback for custom pins initialization for USARTx. ">
<polygon fill="white" stroke="black" points="187,-0.5 187,-19.5 369,-19.5 369,-0.5 187,-0.5"/>
<text text-anchor="middle" x="278" y="-7.5" font-family="Helvetica,sans-Serif" font-size="10.00">TM_USART_InitCustomPinsCallback</text>
</a>
</g>
</g>
<!-- Node1&#45;&gt;Node6 -->
<g id="edge6" class="edge"><title>Node1&#45;&gt;Node6</title>
<path fill="none" stroke="midnightblue" d="M120.939,-53.5882C157.776,-43.2996 209.369,-28.8895 242.983,-19.5011"/>
<polygon fill="midnightblue" stroke="midnightblue" points="119.657,-50.3121 110.967,-56.3733 121.54,-57.0541 119.657,-50.3121"/>
</g>
<!-- Node2&#45;&gt;Node3 -->
<g id="edge2" class="edge"><title>Node2&#45;&gt;Node3</title>
<path fill="none" stroke="midnightblue" d="M325.017,-92.9015C349.633,-89.2734 379.896,-85.934 404.704,-84.1027"/>
<polygon fill="midnightblue" stroke="midnightblue" points="324.195,-89.4868 314.846,-94.4705 325.262,-96.405 324.195,-89.4868"/>
</g>
<!-- Node3&#45;&gt;Node2 -->
<g id="edge5" class="edge"><title>Node3&#45;&gt;Node2</title>
<path fill="none" stroke="midnightblue" d="M406.129,-96.077C381.479,-99.7145 351.134,-103.064 326.273,-104.899"/>
<polygon fill="midnightblue" stroke="midnightblue" points="406.963,-99.4897 416.312,-94.5041 405.895,-92.5718 406.963,-99.4897"/>
</g>
<!-- Node4 -->
<g id="node4" class="node"><title>Node4</title>
<g id="a_node4"><a xlink:href="a00069.html#ga70bed9fb6612cb572a8c10e148404344" target="_top" xlink:title="Initializes USARTx peripheral and corresponding pins. ">
<polygon fill="white" stroke="black" points="537,-75.5 537,-94.5 626,-94.5 626,-75.5 537,-75.5"/>
<text text-anchor="middle" x="581.5" y="-82.5" font-family="Helvetica,sans-Serif" font-size="10.00">TM_USART_Init</text>
</a>
</g>
</g>
<!-- Node3&#45;&gt;Node4 -->
<g id="edge3" class="edge"><title>Node3&#45;&gt;Node4</title>
<path fill="none" stroke="midnightblue" d="M511.371,-85C519.88,-85 528.533,-85 536.706,-85"/>
<polygon fill="midnightblue" stroke="midnightblue" points="511.104,-81.5001 501.104,-85 511.104,-88.5001 511.104,-81.5001"/>
</g>
<!-- Node5 -->
<g id="node5" class="node"><title>Node5</title>
<g id="a_node5"><a xlink:href="a00149.html#ga840291bc02cba5474a4cb46a9b9566fe" target="_top" xlink:title="Main function entry. ">
<polygon fill="white" stroke="black" points="662,-75.5 662,-94.5 700,-94.5 700,-75.5 662,-75.5"/>
<text text-anchor="middle" x="681" y="-82.5" font-family="Helvetica,sans-Serif" font-size="10.00">main</text>
</a>
</g>
</g>
<!-- Node4&#45;&gt;Node5 -->
<g id="edge4" class="edge"><title>Node4&#45;&gt;Node5</title>
<path fill="none" stroke="midnightblue" d="M636.171,-85C645.409,-85 654.409,-85 661.825,-85"/>
<polygon fill="midnightblue" stroke="midnightblue" points="636.117,-81.5001 626.117,-85 636.117,-88.5001 636.117,-81.5001"/>
</g>
<!-- Node6&#45;&gt;Node3 -->
<g id="edge8" class="edge"><title>Node6&#45;&gt;Node3</title>
<path fill="none" stroke="midnightblue" d="M310.875,-23.8187C345.418,-38.7941 399.634,-62.2981 429.823,-75.3856"/>
<polygon fill="midnightblue" stroke="midnightblue" points="311.83,-20.4178 301.263,-19.6514 309.045,-26.8402 311.83,-20.4178"/>
</g>
<!-- Node6&#45;&gt;Node6 -->
<g id="edge7" class="edge"><title>Node6&#45;&gt;Node6</title>
<path fill="none" stroke="midnightblue" d="M245.44,-28.2746C246.368,-33.741 257.222,-38 278,-38 308.926,-38 317.865,-28.5653 304.818,-19.7571"/>
<polygon fill="midnightblue" stroke="midnightblue" points="248.494,-30.0054 251.182,-19.7571 242.69,-26.0928 248.494,-30.0054"/>
</g>
</g>
</svg>
