<?xml version="1.0" encoding="UTF-8" standalone="no"?>
<!DOCTYPE svg PUBLIC "-//W3C//DTD SVG 1.1//EN"
 "http://www.w3.org/Graphics/SVG/1.1/DTD/svg11.dtd">
<!-- Generated by graphviz version 2.38.0 (20140413.2041)
 -->
<!-- Title: ADC_DMARequestAfterLastTransferCmd Pages: 1 -->
<svg width="454pt" height="66pt"
 viewBox="0.00 0.00 454.00 66.00" xmlns="http://www.w3.org/2000/svg" xmlns:xlink="http://www.w3.org/1999/xlink">
<g id="graph0" class="graph" transform="scale(1 1) rotate(0) translate(4 62)">
<title>ADC_DMARequestAfterLastTransferCmd</title>
<polygon fill="white" stroke="none" points="-4,4 -4,-62 450,-62 450,4 -4,4"/>
<!-- Node1 -->
<g id="node1" class="node"><title>Node1</title>
<polygon fill="#bfbfbf" stroke="black" points="0,-19.5 0,-38.5 200,-38.5 200,-19.5 0,-19.5"/>
<text text-anchor="middle" x="100" y="-26.5" font-family="Helvetica,sans-Serif" font-size="10.00">ADC_DMARequestAfterLastTransferCmd</text>
</g>
<!-- Node2 -->
<g id="node2" class="node"><title>Node2</title>
<g id="a_node2"><a xlink:href="a00757.html#ga85f5a2827c06dbdba076d4e9125a11f8" target="_top" xlink:title="ADC common and regular scan group init. ">
<polygon fill="white" stroke="black" points="238.5,-38.5 238.5,-57.5 369.5,-57.5 369.5,-38.5 238.5,-38.5"/>
<text text-anchor="middle" x="304" y="-45.5" font-family="Helvetica,sans-Serif" font-size="10.00">ADC_Scan_Group_Config</text>
</a>
</g>
</g>
<!-- Node1&#45;&gt;Node2 -->
<g id="edge1" class="edge"><title>Node1&#45;&gt;Node2</title>
<path fill="none" stroke="midnightblue" d="M210.25,-39.276C219.849,-40.1789 229.349,-41.0724 238.398,-41.9236"/>
<polygon fill="midnightblue" stroke="midnightblue" points="210.509,-35.7849 200.225,-38.333 209.853,-42.7542 210.509,-35.7849"/>
</g>
<!-- Node4 -->
<g id="node4" class="node"><title>Node4</title>
<g id="a_node4"><a xlink:href="a00757.html#gad273dc4b4b26574e92666e4020e1ef5a" target="_top" xlink:title="Timer&#45;triggered ADC&#45;scan mode with DMA to memory. ">
<polygon fill="white" stroke="black" points="236,-0.5 236,-19.5 372,-19.5 372,-0.5 236,-0.5"/>
<text text-anchor="middle" x="304" y="-7.5" font-family="Helvetica,sans-Serif" font-size="10.00">TIM2_DMA_Trigger_Config</text>
</a>
</g>
</g>
<!-- Node1&#45;&gt;Node4 -->
<g id="edge3" class="edge"><title>Node1&#45;&gt;Node4</title>
<path fill="none" stroke="midnightblue" d="M210.404,-18.7095C219.055,-17.8958 227.624,-17.0898 235.854,-16.3157"/>
<polygon fill="midnightblue" stroke="midnightblue" points="209.853,-15.2458 200.225,-19.667 210.509,-22.2151 209.853,-15.2458"/>
</g>
<!-- Node3 -->
<g id="node3" class="node"><title>Node3</title>
<g id="a_node3"><a xlink:href="a00773.html#ga840291bc02cba5474a4cb46a9b9566fe" target="_top" xlink:title="Main function entry. ">
<polygon fill="white" stroke="black" points="408,-19.5 408,-38.5 446,-38.5 446,-19.5 408,-19.5"/>
<text text-anchor="middle" x="427" y="-26.5" font-family="Helvetica,sans-Serif" font-size="10.00">main</text>
</a>
</g>
</g>
<!-- Node2&#45;&gt;Node3 -->
<g id="edge2" class="edge"><title>Node2&#45;&gt;Node3</title>
<path fill="none" stroke="midnightblue" d="M375.851,-36.8747C387.648,-35.0222 398.904,-33.2548 407.752,-31.8654"/>
<polygon fill="midnightblue" stroke="midnightblue" points="375.19,-33.4354 365.854,-38.4443 376.276,-40.3506 375.19,-33.4354"/>
</g>
<!-- Node4&#45;&gt;Node3 -->
<g id="edge4" class="edge"><title>Node4&#45;&gt;Node3</title>
<path fill="none" stroke="midnightblue" d="M375.851,-21.1253C387.648,-22.9778 398.904,-24.7452 407.752,-26.1346"/>
<polygon fill="midnightblue" stroke="midnightblue" points="376.276,-17.6494 365.854,-19.5557 375.19,-24.5646 376.276,-17.6494"/>
</g>
</g>
</svg>
