<?xml version="1.0" encoding="UTF-8" standalone="no"?>
<!DOCTYPE svg PUBLIC "-//W3C//DTD SVG 1.1//EN"
 "http://www.w3.org/Graphics/SVG/1.1/DTD/svg11.dtd">
<!-- Generated by graphviz version 2.38.0 (20140413.2041)
 -->
<!-- Title: TM_USART_BufferEmpty Pages: 1 -->
<svg width="610pt" height="94pt"
 viewBox="0.00 0.00 610.00 94.00" xmlns="http://www.w3.org/2000/svg" xmlns:xlink="http://www.w3.org/1999/xlink">
<g id="graph0" class="graph" transform="scale(1 1) rotate(0) translate(4 90)">
<title>TM_USART_BufferEmpty</title>
<polygon fill="white" stroke="none" points="-4,4 -4,-90 606,-90 606,4 -4,4"/>
<!-- Node1 -->
<g id="node1" class="node"><title>Node1</title>
<polygon fill="#bfbfbf" stroke="black" points="0,-28.5 0,-47.5 131,-47.5 131,-28.5 0,-28.5"/>
<text text-anchor="middle" x="65.5" y="-35.5" font-family="Helvetica,sans-Serif" font-size="10.00">TM_USART_BufferEmpty</text>
</g>
<!-- Node2 -->
<g id="node2" class="node"><title>Node2</title>
<g id="a_node2"><a xlink:href="a00068.html#gabb0a95fd20e5e2a894e658b64a29ee61" target="_top" xlink:title="Gets string from USART. ">
<polygon fill="white" stroke="black" points="167,-47.5 167,-66.5 264,-66.5 264,-47.5 167,-47.5"/>
<text text-anchor="middle" x="215.5" y="-54.5" font-family="Helvetica,sans-Serif" font-size="10.00">TM_USART_Gets</text>
</a>
</g>
</g>
<!-- Node1&#45;&gt;Node2 -->
<g id="edge1" class="edge"><title>Node1&#45;&gt;Node2</title>
<path fill="none" stroke="midnightblue" d="M141.555,-47.6354C150.209,-48.7464 158.844,-49.855 166.986,-50.9003"/>
<polygon fill="midnightblue" stroke="midnightblue" points="141.779,-44.1356 131.415,-46.3337 140.888,-51.0786 141.779,-44.1356"/>
</g>
<!-- Node5 -->
<g id="node5" class="node"><title>Node5</title>
<g id="a_node5"><a xlink:href="a00068.html#gab807a241fae0eae0d5434bae20a3569f" target="_top" xlink:title="Puts character to USART port. ">
<polygon fill="white" stroke="black" points="300,-9.5 300,-28.5 396,-28.5 396,-9.5 300,-9.5"/>
<text text-anchor="middle" x="348" y="-16.5" font-family="Helvetica,sans-Serif" font-size="10.00">TM_USART_Putc</text>
</a>
</g>
</g>
<!-- Node1&#45;&gt;Node5 -->
<g id="edge9" class="edge"><title>Node1&#45;&gt;Node5</title>
<path fill="none" stroke="midnightblue" d="M141.382,-32.9278C191.678,-29.5209 256.42,-25.1355 299.693,-22.2044"/>
<polygon fill="midnightblue" stroke="midnightblue" points="140.945,-29.4493 131.205,-33.6172 141.418,-36.4333 140.945,-29.4493"/>
</g>
<!-- Node3 -->
<g id="node3" class="node"><title>Node3</title>
<g id="a_node3"><a xlink:href="a00117.html#ga4af381bf92ce31395c19b6652b930b7a" target="_top" xlink:title="Fast console command parser. ">
<polygon fill="white" stroke="black" points="302,-66.5 302,-85.5 394,-85.5 394,-66.5 302,-66.5"/>
<text text-anchor="middle" x="348" y="-73.5" font-family="Helvetica,sans-Serif" font-size="10.00">fastConsoleCase</text>
</a>
</g>
</g>
<!-- Node2&#45;&gt;Node3 -->
<g id="edge2" class="edge"><title>Node2&#45;&gt;Node3</title>
<path fill="none" stroke="midnightblue" d="M274.536,-65.4496C283.661,-66.7782 292.977,-68.1346 301.758,-69.413"/>
<polygon fill="midnightblue" stroke="midnightblue" points="274.752,-61.9444 264.352,-63.967 273.744,-68.8713 274.752,-61.9444"/>
</g>
<!-- Node2&#45;&gt;Node5 -->
<g id="edge4" class="edge"><title>Node2&#45;&gt;Node5</title>
<path fill="none" stroke="midnightblue" d="M259.052,-44.6094C276.923,-39.4055 297.39,-33.4459 314.08,-28.5859"/>
<polygon fill="midnightblue" stroke="midnightblue" points="258.053,-41.2547 249.431,-47.411 260.01,-47.9756 258.053,-41.2547"/>
</g>
<!-- Node4 -->
<g id="node4" class="node"><title>Node4</title>
<g id="a_node4"><a xlink:href="a00144.html#ga840291bc02cba5474a4cb46a9b9566fe" target="_top" xlink:title="Main function entry. ">
<polygon fill="white" stroke="black" points="564,-57.5 564,-76.5 602,-76.5 602,-57.5 564,-57.5"/>
<text text-anchor="middle" x="583" y="-64.5" font-family="Helvetica,sans-Serif" font-size="10.00">main</text>
</a>
</g>
</g>
<!-- Node3&#45;&gt;Node4 -->
<g id="edge3" class="edge"><title>Node3&#45;&gt;Node4</title>
<path fill="none" stroke="midnightblue" d="M404.215,-73.8672C455.878,-71.8717 530.019,-69.0078 563.884,-67.6997"/>
<polygon fill="midnightblue" stroke="midnightblue" points="404.058,-70.3706 394.201,-74.254 404.329,-77.3654 404.058,-70.3706"/>
</g>
<!-- Node6 -->
<g id="node6" class="node"><title>Node6</title>
<g id="a_node6"><a xlink:href="a00068.html#ga70bed9fb6612cb572a8c10e148404344" target="_top" xlink:title="Initializes USARTx peripheral and corresponding pins. ">
<polygon fill="white" stroke="black" points="435.5,-38.5 435.5,-57.5 524.5,-57.5 524.5,-38.5 435.5,-38.5"/>
<text text-anchor="middle" x="480" y="-45.5" font-family="Helvetica,sans-Serif" font-size="10.00">TM_USART_Init</text>
</a>
</g>
</g>
<!-- Node5&#45;&gt;Node6 -->
<g id="edge5" class="edge"><title>Node5&#45;&gt;Node6</title>
<path fill="none" stroke="midnightblue" d="M401.787,-30.7756C413.202,-33.3219 425.138,-35.9846 436.118,-38.434"/>
<polygon fill="midnightblue" stroke="midnightblue" points="402.449,-27.3374 391.927,-28.5761 400.925,-34.1694 402.449,-27.3374"/>
</g>
<!-- Node7 -->
<g id="node7" class="node"><title>Node7</title>
<g id="a_node7"><a xlink:href="a00068.html#ga453aeaa886278333403ff4937c01dcf3" target="_top" xlink:title="Puts string to USART port. ">
<polygon fill="white" stroke="black" points="432,-0.5 432,-19.5 528,-19.5 528,-0.5 432,-0.5"/>
<text text-anchor="middle" x="480" y="-7.5" font-family="Helvetica,sans-Serif" font-size="10.00">TM_USART_Puts</text>
</a>
</g>
</g>
<!-- Node5&#45;&gt;Node7 -->
<g id="edge7" class="edge"><title>Node5&#45;&gt;Node7</title>
<path fill="none" stroke="midnightblue" d="M403.418,-8.56271C412.819,-7.76834 422.524,-7.14577 431.717,-6.75145"/>
<polygon fill="midnightblue" stroke="midnightblue" points="403.011,-5.08533 393.375,-9.48945 403.654,-12.0557 403.011,-5.08533"/>
</g>
<!-- Node6&#45;&gt;Node4 -->
<g id="edge6" class="edge"><title>Node6&#45;&gt;Node4</title>
<path fill="none" stroke="midnightblue" d="M534.767,-58.1147C545.256,-60.0878 555.556,-62.0254 563.848,-63.5852"/>
<polygon fill="midnightblue" stroke="midnightblue" points="535.187,-54.6323 524.713,-56.2232 533.893,-61.5117 535.187,-54.6323"/>
</g>
<!-- Node7&#45;&gt;Node5 -->
<g id="edge8" class="edge"><title>Node7&#45;&gt;Node5</title>
<path fill="none" stroke="midnightblue" d="M424.528,-20.4418C415.15,-21.2335 405.471,-21.8542 396.301,-22.2478"/>
<polygon fill="midnightblue" stroke="midnightblue" points="424.912,-23.9214 434.548,-19.5182 424.269,-16.9509 424.912,-23.9214"/>
</g>
</g>
</svg>
