<?xml version="1.0" encoding="UTF-8" standalone="no"?>
<!DOCTYPE svg PUBLIC "-//W3C//DTD SVG 1.1//EN"
 "http://www.w3.org/Graphics/SVG/1.1/DTD/svg11.dtd">
<!-- Generated by graphviz version 2.38.0 (20140413.2041)
 -->
<!-- Title: ADC_AnalogWatchdogThresholdsConfig Pages: 1 -->
<svg width="420pt" height="81pt"
 viewBox="0.00 0.00 420.00 80.51" xmlns="http://www.w3.org/2000/svg" xmlns:xlink="http://www.w3.org/1999/xlink">
<g id="graph0" class="graph" transform="scale(1 1) rotate(0) translate(4 76.5147)">
<title>ADC_AnalogWatchdogThresholdsConfig</title>
<polygon fill="white" stroke="none" points="-4,4 -4,-76.5147 416,-76.5147 416,4 -4,4"/>
<!-- Node1 -->
<g id="node1" class="node"><title>Node1</title>
<polygon fill="#bfbfbf" stroke="black" points="0,-33 0,-63 166,-63 166,-33 0,-33"/>
<text text-anchor="start" x="8" y="-51" font-family="Helvetica,sans-Serif" font-size="10.00">ADC_AnalogWatchdogThresholds</text>
<text text-anchor="middle" x="83" y="-40" font-family="Helvetica,sans-Serif" font-size="10.00">Config</text>
</g>
<!-- Node2 -->
<g id="node2" class="node"><title>Node2</title>
<g id="a_node2"><a xlink:href="a01287.html#ga840291bc02cba5474a4cb46a9b9566fe" target="_top" xlink:title="Main function entry. ">
<polygon fill="white" stroke="black" points="374,-38.5 374,-57.5 412,-57.5 412,-38.5 374,-38.5"/>
<text text-anchor="middle" x="393" y="-45.5" font-family="Helvetica,sans-Serif" font-size="10.00">main</text>
</a>
</g>
</g>
<!-- Node1&#45;&gt;Node2 -->
<g id="edge1" class="edge"><title>Node1&#45;&gt;Node2</title>
<path fill="none" stroke="midnightblue" d="M168.415,-64.5402C218.073,-71.7316 281.928,-76.5768 338,-67 350.344,-64.8918 363.618,-60.2561 373.917,-56.0917"/>
<polygon fill="midnightblue" stroke="midnightblue" points="168.771,-61.0544 158.361,-63.0244 167.727,-67.9762 168.771,-61.0544"/>
</g>
<!-- Node3 -->
<g id="node3" class="node"><title>Node3</title>
<g id="a_node3"><a xlink:href="a01271.html#ga85f5a2827c06dbdba076d4e9125a11f8" target="_top" xlink:title="ADC common and regular scan group init. ">
<polygon fill="white" stroke="black" points="204.5,-38.5 204.5,-57.5 335.5,-57.5 335.5,-38.5 204.5,-38.5"/>
<text text-anchor="middle" x="270" y="-45.5" font-family="Helvetica,sans-Serif" font-size="10.00">ADC_Scan_Group_Config</text>
</a>
</g>
</g>
<!-- Node1&#45;&gt;Node3 -->
<g id="edge2" class="edge"><title>Node1&#45;&gt;Node3</title>
<path fill="none" stroke="midnightblue" d="M176.409,-48C185.816,-48 195.223,-48 204.243,-48"/>
<polygon fill="midnightblue" stroke="midnightblue" points="176.221,-44.5001 166.221,-48 176.221,-51.5001 176.221,-44.5001"/>
</g>
<!-- Node4 -->
<g id="node4" class="node"><title>Node4</title>
<g id="a_node4"><a xlink:href="a01271.html#gad273dc4b4b26574e92666e4020e1ef5a" target="_top" xlink:title="Timer&#45;triggered ADC&#45;scan mode with DMA to memory. ">
<polygon fill="white" stroke="black" points="202,-0.5 202,-19.5 338,-19.5 338,-0.5 202,-0.5"/>
<text text-anchor="middle" x="270" y="-7.5" font-family="Helvetica,sans-Serif" font-size="10.00">TIM2_DMA_Trigger_Config</text>
</a>
</g>
</g>
<!-- Node1&#45;&gt;Node4 -->
<g id="edge4" class="edge"><title>Node1&#45;&gt;Node4</title>
<path fill="none" stroke="midnightblue" d="M167.051,-30.9408C186.177,-27.0123 205.847,-22.9719 222.746,-19.5009"/>
<polygon fill="midnightblue" stroke="midnightblue" points="166.208,-27.5408 157.117,-32.9814 167.617,-34.3977 166.208,-27.5408"/>
</g>
<!-- Node3&#45;&gt;Node2 -->
<g id="edge3" class="edge"><title>Node3&#45;&gt;Node2</title>
<path fill="none" stroke="midnightblue" d="M345.78,-48C356.097,-48 365.826,-48 373.672,-48"/>
<polygon fill="midnightblue" stroke="midnightblue" points="345.751,-44.5001 335.751,-48 345.751,-51.5001 345.751,-44.5001"/>
</g>
<!-- Node4&#45;&gt;Node2 -->
<g id="edge5" class="edge"><title>Node4&#45;&gt;Node2</title>
<path fill="none" stroke="midnightblue" d="M316.097,-22.3746C323.441,-24.5085 330.949,-26.762 338,-29 349.936,-32.7881 363.204,-37.4501 373.601,-41.2079"/>
<polygon fill="midnightblue" stroke="midnightblue" points="316.82,-18.941 306.243,-19.5517 314.892,-25.6704 316.82,-18.941"/>
</g>
</g>
</svg>
