<?xml version="1.0" encoding="UTF-8" standalone="no"?>
<!DOCTYPE svg PUBLIC "-//W3C//DTD SVG 1.1//EN"
 "http://www.w3.org/Graphics/SVG/1.1/DTD/svg11.dtd">
<!-- Generated by graphviz version 2.38.0 (20140413.2041)
 -->
<!-- Title: SDIO Pages: 1 -->
<svg width="375pt" height="66pt"
 viewBox="0.00 0.00 375.00 66.00" xmlns="http://www.w3.org/2000/svg" xmlns:xlink="http://www.w3.org/1999/xlink">
<g id="graph0" class="graph" transform="scale(1 1) rotate(0) translate(4 62)">
<title>SDIO</title>
<polygon fill="white" stroke="none" points="-4,4 -4,-62 371,-62 371,4 -4,4"/>
<!-- Node3 -->
<g id="node1" class="node"><title>Node3</title>
<g id="a_node1"><a xlink:href="a00660.html" target="_top" xlink:title="SDIO_Private_Functions">
<polygon fill="white" stroke="black" points="236.5,-38.5 236.5,-57.5 361.5,-57.5 361.5,-38.5 236.5,-38.5"/>
<text text-anchor="middle" x="299" y="-45.5" font-family="Helvetica,sans-Serif" font-size="10.00">SDIO_Private_Functions</text>
</a>
</g>
</g>
<!-- Node1 -->
<g id="node2" class="node"><title>Node1</title>
<g id="a_node2"><a xlink:href="a00781.html" target="_top" xlink:title="STM32F4xx_StdPeriph\l_Driver">
<polygon fill="white" stroke="black" points="0,-14 0,-44 118,-44 118,-14 0,-14"/>
<text text-anchor="start" x="8" y="-32" font-family="Helvetica,sans-Serif" font-size="10.00">STM32F4xx_StdPeriph</text>
<text text-anchor="middle" x="59" y="-21" font-family="Helvetica,sans-Serif" font-size="10.00">_Driver</text>
</a>
</g>
</g>
<!-- Node0 -->
<g id="node3" class="node"><title>Node0</title>
<polygon fill="#bfbfbf" stroke="black" points="154,-19.5 154,-38.5 195,-38.5 195,-19.5 154,-19.5"/>
<text text-anchor="middle" x="174.5" y="-26.5" font-family="Helvetica,sans-Serif" font-size="10.00">SDIO</text>
</g>
<!-- Node1&#45;&gt;Node0 -->
<g id="edge1" class="edge"><title>Node1&#45;&gt;Node0</title>
<path fill="none" stroke="black" d="M128.268,-29C137.548,-29 146.398,-29 153.77,-29"/>
<polygon fill="black" stroke="black" points="128.08,-25.5001 118.08,-29 128.08,-32.5001 128.08,-25.5001"/>
</g>
<!-- Node0&#45;&gt;Node3 -->
<g id="edge3" class="edge"><title>Node0&#45;&gt;Node3</title>
<path fill="none" stroke="black" d="M205.239,-33.6126C214.735,-35.0855 225.62,-36.7737 236.514,-38.4635"/>
<polygon fill="black" stroke="black" points="205.6,-30.1268 195.182,-32.0527 204.527,-37.0441 205.6,-30.1268"/>
</g>
<!-- Node2 -->
<g id="node4" class="node"><title>Node2</title>
<g id="a_node4"><a xlink:href="a00433.html" target="_top" xlink:title="SDIO_Exported_Constants">
<polygon fill="white" stroke="black" points="231,-0.5 231,-19.5 367,-19.5 367,-0.5 231,-0.5"/>
<text text-anchor="middle" x="299" y="-7.5" font-family="Helvetica,sans-Serif" font-size="10.00">SDIO_Exported_Constants</text>
</a>
</g>
</g>
<!-- Node0&#45;&gt;Node2 -->
<g id="edge2" class="edge"><title>Node0&#45;&gt;Node2</title>
<path fill="none" stroke="black" d="M205.239,-24.3874C214.735,-22.9145 225.62,-21.2263 236.514,-19.5365"/>
<polygon fill="black" stroke="black" points="204.527,-20.9559 195.182,-25.9473 205.6,-27.8732 204.527,-20.9559"/>
</g>
</g>
</svg>
