<?xml version="1.0" encoding="UTF-8" standalone="no"?>
<!DOCTYPE svg PUBLIC "-//W3C//DTD SVG 1.1//EN"
 "http://www.w3.org/Graphics/SVG/1.1/DTD/svg11.dtd">
<!-- Generated by graphviz version 2.38.0 (20140413.2041)
 -->
<!-- Title: DMA_ClearITPendingBit Pages: 1 -->
<svg width="406pt" height="66pt"
 viewBox="0.00 0.00 406.00 66.00" xmlns="http://www.w3.org/2000/svg" xmlns:xlink="http://www.w3.org/1999/xlink">
<g id="graph0" class="graph" transform="scale(1 1) rotate(0) translate(4 62)">
<title>DMA_ClearITPendingBit</title>
<polygon fill="white" stroke="none" points="-4,4 -4,-62 402,-62 402,4 -4,4"/>
<!-- Node1 -->
<g id="node1" class="node"><title>Node1</title>
<polygon fill="#bfbfbf" stroke="black" points="0,-19.5 0,-38.5 124,-38.5 124,-19.5 0,-19.5"/>
<text text-anchor="middle" x="62" y="-26.5" font-family="Helvetica,sans-Serif" font-size="10.00">DMA_ClearITPendingBit</text>
</g>
<!-- Node2 -->
<g id="node2" class="node"><title>Node2</title>
<g id="a_node2"><a xlink:href="a00741.html#ga4bfbdc85c5337782d112b383c6d0efbd" target="_top" xlink:title="DMA Channel 2 Stream 0 transmission complete IRQ handler. ">
<polygon fill="white" stroke="black" points="160,-38.5 160,-57.5 324,-57.5 324,-38.5 160,-38.5"/>
<text text-anchor="middle" x="242" y="-45.5" font-family="Helvetica,sans-Serif" font-size="10.00">DMA2_STREAM_0_IRQ_Handler</text>
</a>
</g>
</g>
<!-- Node1&#45;&gt;Node2 -->
<g id="edge1" class="edge"><title>Node1&#45;&gt;Node2</title>
<path fill="none" stroke="midnightblue" d="M134.349,-36.6159C142.728,-37.5103 151.325,-38.4279 159.825,-39.3353"/>
<polygon fill="midnightblue" stroke="midnightblue" points="134.573,-33.12 124.258,-35.5387 133.83,-40.0804 134.573,-33.12"/>
</g>
<!-- Node3 -->
<g id="node3" class="node"><title>Node3</title>
<g id="a_node3"><a xlink:href="a00757.html#gad273dc4b4b26574e92666e4020e1ef5a" target="_top" xlink:title="Timer&#45;triggered ADC&#45;scan mode with DMA to memory. ">
<polygon fill="white" stroke="black" points="174,-0.5 174,-19.5 310,-19.5 310,-0.5 174,-0.5"/>
<text text-anchor="middle" x="242" y="-7.5" font-family="Helvetica,sans-Serif" font-size="10.00">TIM2_DMA_Trigger_Config</text>
</a>
</g>
</g>
<!-- Node1&#45;&gt;Node3 -->
<g id="edge2" class="edge"><title>Node1&#45;&gt;Node3</title>
<path fill="none" stroke="midnightblue" d="M134.531,-21.3647C147.507,-19.9796 160.998,-18.5395 173.843,-17.1685"/>
<polygon fill="midnightblue" stroke="midnightblue" points="133.83,-17.9196 124.258,-22.4613 134.573,-24.88 133.83,-17.9196"/>
</g>
<!-- Node4 -->
<g id="node4" class="node"><title>Node4</title>
<g id="a_node4"><a xlink:href="a00773.html#ga840291bc02cba5474a4cb46a9b9566fe" target="_top" xlink:title="Main function entry. ">
<polygon fill="white" stroke="black" points="360,-0.5 360,-19.5 398,-19.5 398,-0.5 360,-0.5"/>
<text text-anchor="middle" x="379" y="-7.5" font-family="Helvetica,sans-Serif" font-size="10.00">main</text>
</a>
</g>
</g>
<!-- Node3&#45;&gt;Node4 -->
<g id="edge3" class="edge"><title>Node3&#45;&gt;Node4</title>
<path fill="none" stroke="midnightblue" d="M320.421,-10C335.224,-10 349.376,-10 359.945,-10"/>
<polygon fill="midnightblue" stroke="midnightblue" points="320.105,-6.5001 310.104,-10 320.104,-13.5001 320.105,-6.5001"/>
</g>
</g>
</svg>
