<?xml version="1.0" encoding="UTF-8" standalone="no"?>
<!DOCTYPE svg PUBLIC "-//W3C//DTD SVG 1.1//EN"
 "http://www.w3.org/Graphics/SVG/1.1/DTD/svg11.dtd">
<!-- Generated by graphviz version 2.38.0 (20140413.2041)
 -->
<!-- Title: CRYP_AES_CTR Pages: 1 -->
<svg width="257pt" height="370pt"
 viewBox="0.00 0.00 257.00 370.00" xmlns="http://www.w3.org/2000/svg" xmlns:xlink="http://www.w3.org/1999/xlink">
<g id="graph0" class="graph" transform="scale(1 1) rotate(0) translate(4 366)">
<title>CRYP_AES_CTR</title>
<polygon fill="white" stroke="none" points="-4,4 -4,-366 253,-366 253,4 -4,4"/>
<!-- Node1 -->
<g id="node1" class="node"><title>Node1</title>
<polygon fill="#bfbfbf" stroke="black" points="0,-171.5 0,-190.5 97,-190.5 97,-171.5 0,-171.5"/>
<text text-anchor="middle" x="48.5" y="-178.5" font-family="Helvetica,sans-Serif" font-size="10.00">CRYP_AES_CTR</text>
</g>
<!-- Node2 -->
<g id="node2" class="node"><title>Node2</title>
<g id="a_node2"><a xlink:href="a00005.html#gaeecd86b00d0d0137d97b06108789bcb2" target="_top" xlink:title="Fills each CRYP_KeyInitStruct member with its default value. ">
<polygon fill="white" stroke="black" points="137.5,-342.5 137.5,-361.5 244.5,-361.5 244.5,-342.5 137.5,-342.5"/>
<text text-anchor="middle" x="191" y="-349.5" font-family="Helvetica,sans-Serif" font-size="10.00">CRYP_KeyStructInit</text>
</a>
</g>
</g>
<!-- Node1&#45;&gt;Node2 -->
<g id="edge1" class="edge"><title>Node1&#45;&gt;Node2</title>
<path fill="none" stroke="midnightblue" d="M52.1332,-190.797C59.8411,-217.615 84.9043,-292.89 133,-333 135.033,-334.695 137.223,-336.241 139.518,-337.651"/>
<polygon fill="midnightblue" stroke="midnightblue" points="138.299,-340.96 148.79,-342.438 141.51,-334.74 138.299,-340.96"/>
</g>
<!-- Node3 -->
<g id="node3" class="node"><title>Node3</title>
<g id="a_node3"><a xlink:href="a00005.html#gad4baa3865415215cae07c9fbfa131cb9" target="_top" xlink:title="Initializes the CRYP Keys according to the specified parameters in the CRYP_KeyInitStruct. ">
<polygon fill="white" stroke="black" points="150.5,-304.5 150.5,-323.5 231.5,-323.5 231.5,-304.5 150.5,-304.5"/>
<text text-anchor="middle" x="191" y="-311.5" font-family="Helvetica,sans-Serif" font-size="10.00">CRYP_KeyInit</text>
</a>
</g>
</g>
<!-- Node1&#45;&gt;Node3 -->
<g id="edge2" class="edge"><title>Node1&#45;&gt;Node3</title>
<path fill="none" stroke="midnightblue" d="M53.8898,-190.501C64.4063,-212.236 93.1607,-265.941 133,-295 135.655,-296.936 138.519,-298.684 141.501,-300.26"/>
<polygon fill="midnightblue" stroke="midnightblue" points="140.162,-303.496 150.71,-304.489 143.084,-297.135 140.162,-303.496"/>
</g>
<!-- Node4 -->
<g id="node4" class="node"><title>Node4</title>
<g id="a_node4"><a xlink:href="a00005.html#ga7b72c458d95581ab0a36be3e017fcf02" target="_top" xlink:title="Initializes the CRYP peripheral according to the specified parameters in the CRYP_InitStruct. ">
<polygon fill="white" stroke="black" points="159,-266.5 159,-285.5 223,-285.5 223,-266.5 159,-266.5"/>
<text text-anchor="middle" x="191" y="-273.5" font-family="Helvetica,sans-Serif" font-size="10.00">CRYP_Init</text>
</a>
</g>
</g>
<!-- Node1&#45;&gt;Node4 -->
<g id="edge3" class="edge"><title>Node1&#45;&gt;Node4</title>
<path fill="none" stroke="midnightblue" d="M57.5356,-190.548C71.3976,-206.457 101.374,-238.467 133,-257 138.074,-259.973 143.677,-262.558 149.33,-264.782"/>
<polygon fill="midnightblue" stroke="midnightblue" points="148.213,-268.1 158.808,-268.188 150.581,-261.512 148.213,-268.1"/>
</g>
<!-- Node5 -->
<g id="node5" class="node"><title>Node5</title>
<g id="a_node5"><a xlink:href="a00005.html#ga133964b50a07db3a32864308f6355a8b" target="_top" xlink:title="Initializes the CRYP Initialization Vectors(IV) according to the specified parameters in the CRYP_IVI...">
<polygon fill="white" stroke="black" points="154,-228.5 154,-247.5 228,-247.5 228,-228.5 154,-228.5"/>
<text text-anchor="middle" x="191" y="-235.5" font-family="Helvetica,sans-Serif" font-size="10.00">CRYP_IVInit</text>
</a>
</g>
</g>
<!-- Node1&#45;&gt;Node5 -->
<g id="edge4" class="edge"><title>Node1&#45;&gt;Node5</title>
<path fill="none" stroke="midnightblue" d="M69.1556,-190.656C85.9187,-198.718 110.764,-210.263 133,-219 138.279,-221.074 143.887,-223.125 149.446,-225.068"/>
<polygon fill="midnightblue" stroke="midnightblue" points="148.723,-228.519 159.318,-228.431 150.981,-221.893 148.723,-228.519"/>
</g>
<!-- Node6 -->
<g id="node6" class="node"><title>Node6</title>
<g id="a_node6"><a xlink:href="a00005.html#ga23ada9d9464e1362299d7612a1409a57" target="_top" xlink:title="Flushes the IN and OUT FIFOs (that is read and write pointers of the FIFOs are reset) ...">
<polygon fill="white" stroke="black" points="142.5,-190.5 142.5,-209.5 239.5,-209.5 239.5,-190.5 142.5,-190.5"/>
<text text-anchor="middle" x="191" y="-197.5" font-family="Helvetica,sans-Serif" font-size="10.00">CRYP_FIFOFlush</text>
</a>
</g>
</g>
<!-- Node1&#45;&gt;Node6 -->
<g id="edge5" class="edge"><title>Node1&#45;&gt;Node6</title>
<path fill="none" stroke="midnightblue" d="M97.0669,-187.433C108.396,-188.965 120.608,-190.616 132.335,-192.202"/>
<polygon fill="midnightblue" stroke="midnightblue" points="132.103,-195.702 142.482,-193.574 133.041,-188.765 132.103,-195.702"/>
</g>
<!-- Node7 -->
<g id="node7" class="node"><title>Node7</title>
<g id="a_node7"><a xlink:href="a00005.html#gad39ccd9b1f2e088e3a227d7a1c410d7c" target="_top" xlink:title="Enables or disables the CRYP peripheral. ">
<polygon fill="white" stroke="black" points="155.5,-152.5 155.5,-171.5 226.5,-171.5 226.5,-152.5 155.5,-152.5"/>
<text text-anchor="middle" x="191" y="-159.5" font-family="Helvetica,sans-Serif" font-size="10.00">CRYP_Cmd</text>
</a>
</g>
</g>
<!-- Node1&#45;&gt;Node7 -->
<g id="edge6" class="edge"><title>Node1&#45;&gt;Node7</title>
<path fill="none" stroke="midnightblue" d="M97.0669,-174.567C112.591,-172.468 129.77,-170.145 145.092,-168.073"/>
<polygon fill="midnightblue" stroke="midnightblue" points="145.919,-171.493 155.36,-166.684 144.981,-164.556 145.919,-171.493"/>
</g>
<!-- Node8 -->
<g id="node8" class="node"><title>Node8</title>
<g id="a_node8"><a xlink:href="a00005.html#gabe26186adf64660a4a573bd6a4368fee" target="_top" xlink:title="Returns whether CRYP peripheral is enabled or disabled. ">
<polygon fill="white" stroke="black" points="133,-114.5 133,-133.5 249,-133.5 249,-114.5 133,-114.5"/>
<text text-anchor="middle" x="191" y="-121.5" font-family="Helvetica,sans-Serif" font-size="10.00">CRYP_GetCmdStatus</text>
</a>
</g>
</g>
<!-- Node1&#45;&gt;Node8 -->
<g id="edge7" class="edge"><title>Node1&#45;&gt;Node8</title>
<path fill="none" stroke="midnightblue" d="M69.1556,-171.344C85.9187,-163.282 110.764,-151.737 133,-143 138.279,-140.926 143.887,-138.875 149.446,-136.932"/>
<polygon fill="midnightblue" stroke="midnightblue" points="150.981,-140.107 159.318,-133.569 148.723,-133.481 150.981,-140.107"/>
</g>
<!-- Node9 -->
<g id="node9" class="node"><title>Node9</title>
<g id="a_node9"><a xlink:href="a00005.html#ga16dc76244318d464357ee6ff208bf9a4" target="_top" xlink:title="Writes data in the Data Input register (DIN). ">
<polygon fill="white" stroke="black" points="151,-76.5 151,-95.5 231,-95.5 231,-76.5 151,-76.5"/>
<text text-anchor="middle" x="191" y="-83.5" font-family="Helvetica,sans-Serif" font-size="10.00">CRYP_DataIn</text>
</a>
</g>
</g>
<!-- Node1&#45;&gt;Node9 -->
<g id="edge8" class="edge"><title>Node1&#45;&gt;Node9</title>
<path fill="none" stroke="midnightblue" d="M57.5356,-171.452C71.3976,-155.543 101.374,-123.533 133,-105 136.594,-102.894 140.454,-100.982 144.41,-99.2559"/>
<polygon fill="midnightblue" stroke="midnightblue" points="145.726,-102.499 153.732,-95.5597 143.146,-95.9919 145.726,-102.499"/>
</g>
<!-- Node10 -->
<g id="node10" class="node"><title>Node10</title>
<g id="a_node10"><a xlink:href="a00005.html#ga993d568b626a74b2973d4a6848a681f6" target="_top" xlink:title="Checks whether the specified CRYP flag is set or not. ">
<polygon fill="white" stroke="black" points="134.5,-38.5 134.5,-57.5 247.5,-57.5 247.5,-38.5 134.5,-38.5"/>
<text text-anchor="middle" x="191" y="-45.5" font-family="Helvetica,sans-Serif" font-size="10.00">CRYP_GetFlagStatus</text>
</a>
</g>
</g>
<!-- Node1&#45;&gt;Node10 -->
<g id="edge9" class="edge"><title>Node1&#45;&gt;Node10</title>
<path fill="none" stroke="midnightblue" d="M53.8898,-171.499C64.4063,-149.764 93.1607,-96.0586 133,-67 135.655,-65.0637 138.519,-63.3162 141.501,-61.7405"/>
<polygon fill="midnightblue" stroke="midnightblue" points="143.084,-64.8653 150.71,-57.511 140.162,-58.5042 143.084,-64.8653"/>
</g>
<!-- Node11 -->
<g id="node11" class="node"><title>Node11</title>
<g id="a_node11"><a xlink:href="a00005.html#gacbe5fcf4c7e4919192376fa615588b54" target="_top" xlink:title="Returns the last data entered into the output FIFO. ">
<polygon fill="white" stroke="black" points="147.5,-0.5 147.5,-19.5 234.5,-19.5 234.5,-0.5 147.5,-0.5"/>
<text text-anchor="middle" x="191" y="-7.5" font-family="Helvetica,sans-Serif" font-size="10.00">CRYP_DataOut</text>
</a>
</g>
</g>
<!-- Node1&#45;&gt;Node11 -->
<g id="edge10" class="edge"><title>Node1&#45;&gt;Node11</title>
<path fill="none" stroke="midnightblue" d="M52.1332,-171.203C59.8411,-144.385 84.9043,-69.1096 133,-29 135.033,-27.3048 137.223,-25.7589 139.518,-24.3495"/>
<polygon fill="midnightblue" stroke="midnightblue" points="141.51,-27.26 148.79,-19.5622 138.299,-21.0401 141.51,-27.26"/>
</g>
</g>
</svg>
