<?xml version="1.0" encoding="UTF-8" standalone="no"?>
<!DOCTYPE svg PUBLIC "-//W3C//DTD SVG 1.1//EN"
 "http://www.w3.org/Graphics/SVG/1.1/DTD/svg11.dtd">
<!-- Generated by graphviz version 2.38.0 (20140413.2041)
 -->
<!-- Title: Actuators Pages: 1 -->
<svg width="332pt" height="116pt"
 viewBox="0.00 0.00 332.00 116.00" xmlns="http://www.w3.org/2000/svg" xmlns:xlink="http://www.w3.org/1999/xlink">
<g id="graph0" class="graph" transform="scale(1 1) rotate(0) translate(4 112)">
<title>Actuators</title>
<polygon fill="white" stroke="none" points="-4,4 -4,-112 328,-112 328,4 -4,4"/>
<!-- Node1 -->
<g id="node1" class="node"><title>Node1</title>
<g id="a_node1"><a xlink:href="a00084.html" target="_top" xlink:title="MD_Application">
<polygon fill="white" stroke="black" points="0,-44.5 0,-63.5 86,-63.5 86,-44.5 0,-44.5"/>
<text text-anchor="middle" x="43" y="-51.5" font-family="Helvetica,sans-Serif" font-size="10.00">MD_Application</text>
</a>
</g>
</g>
<!-- Node0 -->
<g id="node3" class="node"><title>Node0</title>
<polygon fill="#bfbfbf" stroke="black" points="122,-44.5 122,-63.5 181,-63.5 181,-44.5 122,-44.5"/>
<text text-anchor="middle" x="151.5" y="-51.5" font-family="Helvetica,sans-Serif" font-size="10.00">Actuators</text>
</g>
<!-- Node1&#45;&gt;Node0 -->
<g id="edge1" class="edge"><title>Node1&#45;&gt;Node0</title>
<path fill="none" stroke="black" d="M96.3273,-54C105.108,-54 113.923,-54 121.815,-54"/>
<polygon fill="black" stroke="black" points="96.0917,-50.5001 86.0916,-54 96.0916,-57.5001 96.0917,-50.5001"/>
</g>
<!-- Node3 -->
<g id="node2" class="node"><title>Node3</title>
<g id="a_node2"><a xlink:href="a00002.html" target="_top" xlink:title="Actuator methods related type definitions. ">
<polygon fill="white" stroke="black" points="218.5,-88.5 218.5,-107.5 322.5,-107.5 322.5,-88.5 218.5,-88.5"/>
<text text-anchor="middle" x="270.5" y="-95.5" font-family="Helvetica,sans-Serif" font-size="10.00">Actuators_Typedefs</text>
</a>
</g>
</g>
<!-- Node0&#45;&gt;Node3 -->
<g id="edge3" class="edge"><title>Node0&#45;&gt;Node3</title>
<path fill="none" stroke="black" d="M186.172,-67.2159C196.085,-71.0619 206.963,-75.2391 217,-79 225.351,-82.129 234.48,-85.4629 242.749,-88.4503"/>
<polygon fill="black" stroke="black" points="187.236,-63.8744 176.648,-63.5078 184.696,-70.3974 187.236,-63.8744"/>
</g>
<!-- Node2 -->
<g id="node4" class="node"><title>Node2</title>
<g id="a_node4"><a xlink:href="a00065.html" target="_top" xlink:title="The ASG system is designed to protect the output drivers from overload in case of actuator blocking s...">
<polygon fill="white" stroke="black" points="221.5,-39 221.5,-69 319.5,-69 319.5,-39 221.5,-39"/>
<text text-anchor="start" x="229.5" y="-57" font-family="Helvetica,sans-Serif" font-size="10.00">Actuator Safestate</text>
<text text-anchor="middle" x="270.5" y="-46" font-family="Helvetica,sans-Serif" font-size="10.00"> Guard (ASG)</text>
</a>
</g>
</g>
<!-- Node0&#45;&gt;Node2 -->
<g id="edge2" class="edge"><title>Node0&#45;&gt;Node2</title>
<path fill="none" stroke="black" d="M191.149,-54C200.734,-54 211.127,-54 221.113,-54"/>
<polygon fill="black" stroke="black" points="191.121,-50.5001 181.121,-54 191.121,-57.5001 191.121,-50.5001"/>
</g>
<!-- Node4 -->
<g id="node5" class="node"><title>Node4</title>
<g id="a_node5"><a xlink:href="a00086.html" target="_top" xlink:title="Actuator function definitions. ">
<polygon fill="white" stroke="black" points="217,-0.5 217,-19.5 324,-19.5 324,-0.5 217,-0.5"/>
<text text-anchor="middle" x="270.5" y="-7.5" font-family="Helvetica,sans-Serif" font-size="10.00">Actuators_Functions</text>
</a>
</g>
</g>
<!-- Node0&#45;&gt;Node4 -->
<g id="edge4" class="edge"><title>Node0&#45;&gt;Node4</title>
<path fill="none" stroke="black" d="M187.32,-40.9053C205.578,-34.0391 227.538,-25.7807 244.162,-19.5287"/>
<polygon fill="black" stroke="black" points="186.015,-37.6566 177.887,-44.4527 188.479,-44.2086 186.015,-37.6566"/>
</g>
</g>
</svg>
