<?xml version="1.0" encoding="UTF-8" standalone="no"?>
<!DOCTYPE svg PUBLIC "-//W3C//DTD SVG 1.1//EN"
 "http://www.w3.org/Graphics/SVG/1.1/DTD/svg11.dtd">
<!-- Generated by graphviz version 2.38.0 (20140413.2041)
 -->
<!-- Title: TM_USART Pages: 1 -->
<svg width="401pt" height="104pt"
 viewBox="0.00 0.00 401.00 104.00" xmlns="http://www.w3.org/2000/svg" xmlns:xlink="http://www.w3.org/1999/xlink">
<g id="graph0" class="graph" transform="scale(1 1) rotate(0) translate(4 100)">
<title>TM_USART</title>
<polygon fill="white" stroke="none" points="-4,4 -4,-100 397,-100 397,4 -4,4"/>
<!-- Node3 -->
<g id="node1" class="node"><title>Node3</title>
<g id="a_node1"><a xlink:href="a00068.html" target="_top" xlink:title="USART default values for defines. ">
<polygon fill="white" stroke="black" points="279.5,-76.5 279.5,-95.5 387.5,-95.5 387.5,-76.5 279.5,-76.5"/>
<text text-anchor="middle" x="333.5" y="-83.5" font-family="Helvetica,sans-Serif" font-size="10.00">TM_USART_Macros</text>
</a>
</g>
</g>
<!-- Node4 -->
<g id="node2" class="node"><title>Node4</title>
<g id="a_node2"><a xlink:href="a00069.html" target="_top" xlink:title="USART Functions. ">
<polygon fill="white" stroke="black" points="274,-38.5 274,-57.5 393,-57.5 393,-38.5 274,-38.5"/>
<text text-anchor="middle" x="333.5" y="-45.5" font-family="Helvetica,sans-Serif" font-size="10.00">TM_USART_Functions</text>
</a>
</g>
</g>
<!-- Node1 -->
<g id="node3" class="node"><title>Node1</title>
<g id="a_node3"><a xlink:href="a00092.html" target="_top" xlink:title="USART Library for STM32F4 with receive interrupt. ">
<polygon fill="white" stroke="black" points="0,-38.5 0,-57.5 131,-57.5 131,-38.5 0,-38.5"/>
<text text-anchor="middle" x="65.5" y="-45.5" font-family="Helvetica,sans-Serif" font-size="10.00">TM_STM32F4xx_Libraries</text>
</a>
</g>
</g>
<!-- Node0 -->
<g id="node4" class="node"><title>Node0</title>
<polygon fill="#bfbfbf" stroke="black" points="167,-38.5 167,-57.5 238,-57.5 238,-38.5 167,-38.5"/>
<text text-anchor="middle" x="202.5" y="-45.5" font-family="Helvetica,sans-Serif" font-size="10.00">TM_USART</text>
</g>
<!-- Node1&#45;&gt;Node0 -->
<g id="edge1" class="edge"><title>Node1&#45;&gt;Node0</title>
<path fill="none" stroke="black" d="M141.329,-48C150.237,-48 158.972,-48 166.905,-48"/>
<polygon fill="black" stroke="black" points="141.232,-44.5001 131.232,-48 141.232,-51.5001 141.232,-44.5001"/>
</g>
<!-- Node0&#45;&gt;Node3 -->
<g id="edge3" class="edge"><title>Node0&#45;&gt;Node3</title>
<path fill="none" stroke="black" d="M246.054,-60.5353C263.603,-65.7048 283.613,-71.5991 299.958,-76.4141"/>
<polygon fill="black" stroke="black" points="246.634,-57.0574 236.052,-57.589 244.656,-63.7721 246.634,-57.0574"/>
</g>
<!-- Node0&#45;&gt;Node4 -->
<g id="edge4" class="edge"><title>Node0&#45;&gt;Node4</title>
<path fill="none" stroke="black" d="M248.258,-48C256.541,-48 265.306,-48 273.927,-48"/>
<polygon fill="black" stroke="black" points="248.07,-44.5001 238.07,-48 248.07,-51.5001 248.07,-44.5001"/>
</g>
<!-- Node2 -->
<g id="node5" class="node"><title>Node2</title>
<g id="a_node5"><a xlink:href="a00067.html" target="_top" xlink:title="USART Typedefs. ">
<polygon fill="white" stroke="black" points="275.5,-0.5 275.5,-19.5 391.5,-19.5 391.5,-0.5 275.5,-0.5"/>
<text text-anchor="middle" x="333.5" y="-7.5" font-family="Helvetica,sans-Serif" font-size="10.00">TM_USART_Typedefs</text>
</a>
</g>
</g>
<!-- Node0&#45;&gt;Node2 -->
<g id="edge2" class="edge"><title>Node0&#45;&gt;Node2</title>
<path fill="none" stroke="black" d="M246.054,-35.4647C263.603,-30.2952 283.613,-24.4009 299.958,-19.5859"/>
<polygon fill="black" stroke="black" points="244.656,-32.2279 236.052,-38.411 246.634,-38.9426 244.656,-32.2279"/>
</g>
</g>
</svg>
