<?xml version="1.0" encoding="UTF-8" standalone="no"?>
<!DOCTYPE svg PUBLIC "-//W3C//DTD SVG 1.1//EN"
 "http://www.w3.org/Graphics/SVG/1.1/DTD/svg11.dtd">
<!-- Generated by graphviz version 2.38.0 (20140413.2041)
 -->
<!-- Title: DAC_SetDualChannelData Pages: 1 -->
<svg width="449pt" height="78pt"
 viewBox="0.00 0.00 449.00 77.50" xmlns="http://www.w3.org/2000/svg" xmlns:xlink="http://www.w3.org/1999/xlink">
<g id="graph0" class="graph" transform="scale(1 1) rotate(0) translate(4 73.5)">
<title>DAC_SetDualChannelData</title>
<polygon fill="white" stroke="none" points="-4,4 -4,-73.5 445,-73.5 445,4 -4,4"/>
<!-- Node1 -->
<g id="node1" class="node"><title>Node1</title>
<polygon fill="#bfbfbf" stroke="black" points="0,-28 0,-47 136,-47 136,-28 0,-28"/>
<text text-anchor="middle" x="68" y="-35" font-family="Helvetica,sans-Serif" font-size="10.00">DAC_SetDualChannelData</text>
</g>
<!-- Node2 -->
<g id="node2" class="node"><title>Node2</title>
<g id="a_node2"><a xlink:href="a01243.html#gab6494f34679dc4d0a8c08ec624a4bcf8" target="_top" xlink:title="Dual DAC set channel wrapper function. ">
<polygon fill="white" stroke="black" points="172,-50 172,-69 304,-69 304,-50 172,-50"/>
<text text-anchor="middle" x="238" y="-57" font-family="Helvetica,sans-Serif" font-size="10.00">DAC_SetDualChanSigned</text>
</a>
</g>
</g>
<!-- Node1&#45;&gt;Node2 -->
<g id="edge1" class="edge"><title>Node1&#45;&gt;Node2</title>
<path fill="none" stroke="midnightblue" d="M146.308,-47.6237C154.833,-48.74 163.451,-49.8685 171.806,-50.9627"/>
<polygon fill="midnightblue" stroke="midnightblue" points="146.734,-44.1496 136.364,-46.3215 145.825,-51.0904 146.734,-44.1496"/>
</g>
<!-- Node4 -->
<g id="node4" class="node"><title>Node4</title>
<g id="a_node4"><a xlink:href="a01243.html#gaee2322aa05f1f3ad93c480e4ef565ad6" target="_top" xlink:title="Safe state function. ">
<polygon fill="white" stroke="black" points="172,-0.5 172,-30.5 304,-30.5 304,-0.5 172,-0.5"/>
<text text-anchor="start" x="180" y="-18.5" font-family="Helvetica,sans-Serif" font-size="10.00">DAC_SetDualChanSigned</text>
<text text-anchor="middle" x="238" y="-7.5" font-family="Helvetica,sans-Serif" font-size="10.00">_Tripped</text>
</a>
</g>
</g>
<!-- Node1&#45;&gt;Node4 -->
<g id="edge3" class="edge"><title>Node1&#45;&gt;Node4</title>
<path fill="none" stroke="midnightblue" d="M146.308,-27.3763C154.833,-26.26 163.451,-25.1315 171.806,-24.0373"/>
<polygon fill="midnightblue" stroke="midnightblue" points="145.825,-23.9096 136.364,-28.6785 146.734,-30.8504 145.825,-23.9096"/>
</g>
<!-- Node3 -->
<g id="node3" class="node"><title>Node3</title>
<g id="a_node3"><a xlink:href="a01287.html#ga840291bc02cba5474a4cb46a9b9566fe" target="_top" xlink:title="Main function entry. ">
<polygon fill="white" stroke="black" points="371.5,-50 371.5,-69 409.5,-69 409.5,-50 371.5,-50"/>
<text text-anchor="middle" x="390.5" y="-57" font-family="Helvetica,sans-Serif" font-size="10.00">main</text>
</a>
</g>
</g>
<!-- Node2&#45;&gt;Node3 -->
<g id="edge2" class="edge"><title>Node2&#45;&gt;Node3</title>
<path fill="none" stroke="midnightblue" d="M314.226,-59.5C335.521,-59.5 356.818,-59.5 371.297,-59.5"/>
<polygon fill="midnightblue" stroke="midnightblue" points="314.136,-56.0001 304.136,-59.5 314.136,-63.0001 314.136,-56.0001"/>
</g>
<!-- Node5 -->
<g id="node5" class="node"><title>Node5</title>
<g id="a_node5"><a xlink:href="a01259.html#ga9a7d2b1783e9106040117270d0195759" target="_top" xlink:title="Analog to digital converter IRQ callback handler. ">
<polygon fill="white" stroke="black" points="340,-6 340,-25 441,-25 441,-6 340,-6"/>
<text text-anchor="middle" x="390.5" y="-13" font-family="Helvetica,sans-Serif" font-size="10.00">ADC_IRQ_Handler</text>
</a>
</g>
</g>
<!-- Node4&#45;&gt;Node5 -->
<g id="edge4" class="edge"><title>Node4&#45;&gt;Node5</title>
<path fill="none" stroke="midnightblue" d="M314.245,-15.5C322.88,-15.5 331.514,-15.5 339.694,-15.5"/>
<polygon fill="midnightblue" stroke="midnightblue" points="314.136,-12.0001 304.136,-15.5 314.136,-19.0001 314.136,-12.0001"/>
</g>
</g>
</svg>
