<?xml version="1.0" encoding="UTF-8" standalone="no"?>
<!DOCTYPE svg PUBLIC "-//W3C//DTD SVG 1.1//EN"
 "http://www.w3.org/Graphics/SVG/1.1/DTD/svg11.dtd">
<!-- Generated by graphviz version 2.38.0 (20140413.2041)
 -->
<!-- Title: DAC_Init Pages: 1 -->
<svg width="240pt" height="66pt"
 viewBox="0.00 0.00 240.00 66.00" xmlns="http://www.w3.org/2000/svg" xmlns:xlink="http://www.w3.org/1999/xlink">
<g id="graph0" class="graph" transform="scale(1 1) rotate(0) translate(4 62)">
<title>DAC_Init</title>
<polygon fill="white" stroke="none" points="-4,4 -4,-62 236,-62 236,4 -4,4"/>
<!-- Node1 -->
<g id="node1" class="node"><title>Node1</title>
<polygon fill="#bfbfbf" stroke="black" points="0,-19.5 0,-38.5 57,-38.5 57,-19.5 0,-19.5"/>
<text text-anchor="middle" x="28.5" y="-26.5" font-family="Helvetica,sans-Serif" font-size="10.00">DAC_Init</text>
</g>
<!-- Node1&#45;&gt;Node1 -->
<g id="edge2" class="edge"><title>Node1&#45;&gt;Node1</title>
<path fill="none" stroke="midnightblue" d="M3.57451,-48.0292C4.93412,-53.128 13.2426,-57 28.5,-57 52.3164,-57 59.2008,-47.5653 49.1533,-38.7571"/>
<polygon fill="midnightblue" stroke="midnightblue" points="6.84073,-49.304 7.84671,-38.7571 0.483116,-46.3747 6.84073,-49.304"/>
</g>
<!-- Node2 -->
<g id="node2" class="node"><title>Node2</title>
<g id="a_node2"><a xlink:href="a00143.html#ga840291bc02cba5474a4cb46a9b9566fe" target="_top" xlink:title="Main function entry. ">
<polygon fill="white" stroke="black" points="143.5,-38.5 143.5,-57.5 181.5,-57.5 181.5,-38.5 143.5,-38.5"/>
<text text-anchor="middle" x="162.5" y="-45.5" font-family="Helvetica,sans-Serif" font-size="10.00">main</text>
</a>
</g>
</g>
<!-- Node1&#45;&gt;Node2 -->
<g id="edge1" class="edge"><title>Node1&#45;&gt;Node2</title>
<path fill="none" stroke="midnightblue" d="M67.3761,-34.4519C92.249,-38.0321 123.677,-42.5558 143.184,-45.3636"/>
<polygon fill="midnightblue" stroke="midnightblue" points="67.5682,-30.9435 57.1715,-32.983 66.5708,-37.8721 67.5682,-30.9435"/>
</g>
<!-- Node3 -->
<g id="node3" class="node"><title>Node3</title>
<g id="a_node3"><a xlink:href="a00084.html#gadde5cddd980967b83fa5705df2c9501a" target="_top" xlink:title="DAC Channel Escalator Configuration. ">
<polygon fill="white" stroke="black" points="93,-0.5 93,-19.5 232,-19.5 232,-0.5 93,-0.5"/>
<text text-anchor="middle" x="162.5" y="-7.5" font-family="Helvetica,sans-Serif" font-size="10.00">DAC_CHx_EscalatorConfig</text>
</a>
</g>
</g>
<!-- Node1&#45;&gt;Node3 -->
<g id="edge3" class="edge"><title>Node1&#45;&gt;Node3</title>
<path fill="none" stroke="midnightblue" d="M67.0959,-23.5885C75.9199,-22.3183 85.581,-20.9277 95.2492,-19.5361"/>
<polygon fill="midnightblue" stroke="midnightblue" points="66.5708,-20.1279 57.1715,-25.017 67.5682,-27.0565 66.5708,-20.1279"/>
</g>
</g>
</svg>
