<?xml version="1.0" encoding="UTF-8" standalone="no"?>
<!DOCTYPE svg PUBLIC "-//W3C//DTD SVG 1.1//EN"
 "http://www.w3.org/Graphics/SVG/1.1/DTD/svg11.dtd">
<!-- Generated by graphviz version 2.38.0 (20140413.2041)
 -->
<!-- Title: CRYP_Init Pages: 1 -->
<svg width="212pt" height="332pt"
 viewBox="0.00 0.00 212.00 332.00" xmlns="http://www.w3.org/2000/svg" xmlns:xlink="http://www.w3.org/1999/xlink">
<g id="graph0" class="graph" transform="scale(1 1) rotate(0) translate(4 328)">
<title>CRYP_Init</title>
<polygon fill="white" stroke="none" points="-4,4 -4,-328 208,-328 208,4 -4,4"/>
<!-- Node1 -->
<g id="node1" class="node"><title>Node1</title>
<polygon fill="#bfbfbf" stroke="black" points="0,-152.5 0,-171.5 64,-171.5 64,-152.5 0,-152.5"/>
<text text-anchor="middle" x="32" y="-159.5" font-family="Helvetica,sans-Serif" font-size="10.00">CRYP_Init</text>
</g>
<!-- Node2 -->
<g id="node2" class="node"><title>Node2</title>
<g id="a_node2"><a xlink:href="a00985.html#ga79ff82ece0e9620dc86d6e57abe639e1" target="_top" xlink:title="Encrypt and decrypt using AES in ECB Mode. ">
<polygon fill="white" stroke="black" points="103.5,-304.5 103.5,-323.5 200.5,-323.5 200.5,-304.5 103.5,-304.5"/>
<text text-anchor="middle" x="152" y="-311.5" font-family="Helvetica,sans-Serif" font-size="10.00">CRYP_AES_ECB</text>
</a>
</g>
</g>
<!-- Node1&#45;&gt;Node2 -->
<g id="edge1" class="edge"><title>Node1&#45;&gt;Node2</title>
<path fill="none" stroke="midnightblue" d="M37.9095,-181.53C46.0864,-210.235 65.1446,-263.783 100,-295 104.293,-298.845 109.437,-301.937 114.78,-304.415"/>
<polygon fill="midnightblue" stroke="midnightblue" points="41.1949,-180.269 35.2169,-171.522 34.4353,-182.088 41.1949,-180.269"/>
</g>
<!-- Node3 -->
<g id="node3" class="node"><title>Node3</title>
<g id="a_node3"><a xlink:href="a00985.html#gaa43eadf707257710f6a53b3295b39d70" target="_top" xlink:title="Encrypt and decrypt using AES in CBC Mode. ">
<polygon fill="white" stroke="black" points="103,-266.5 103,-285.5 201,-285.5 201,-266.5 103,-266.5"/>
<text text-anchor="middle" x="152" y="-273.5" font-family="Helvetica,sans-Serif" font-size="10.00">CRYP_AES_CBC</text>
</a>
</g>
</g>
<!-- Node1&#45;&gt;Node3 -->
<g id="edge2" class="edge"><title>Node1&#45;&gt;Node3</title>
<path fill="none" stroke="midnightblue" d="M41.7216,-180.494C52.5989,-201.718 73.0892,-236.261 100,-257 104.94,-260.807 110.722,-263.913 116.584,-266.428"/>
<polygon fill="midnightblue" stroke="midnightblue" points="44.8559,-178.936 37.2897,-171.519 38.5795,-182.035 44.8559,-178.936"/>
</g>
<!-- Node4 -->
<g id="node4" class="node"><title>Node4</title>
<g id="a_node4"><a xlink:href="a00985.html#ga2f36aea6e94452e5e5e938547fb89d4c" target="_top" xlink:title="Encrypt and decrypt using AES in CTR Mode. ">
<polygon fill="white" stroke="black" points="103.5,-228.5 103.5,-247.5 200.5,-247.5 200.5,-228.5 103.5,-228.5"/>
<text text-anchor="middle" x="152" y="-235.5" font-family="Helvetica,sans-Serif" font-size="10.00">CRYP_AES_CTR</text>
</a>
</g>
</g>
<!-- Node1&#45;&gt;Node4 -->
<g id="edge3" class="edge"><title>Node1&#45;&gt;Node4</title>
<path fill="none" stroke="midnightblue" d="M49.3359,-178.768C62.1812,-191.203 81.0219,-207.861 100,-219 106.193,-222.635 113.204,-225.786 120.001,-228.421"/>
<polygon fill="midnightblue" stroke="midnightblue" points="51.7305,-176.213 42.165,-171.658 46.802,-181.184 51.7305,-176.213"/>
</g>
<!-- Node5 -->
<g id="node5" class="node"><title>Node5</title>
<g id="a_node5"><a xlink:href="a00985.html#ga74b48d820c5c360eb303fc2fb78af055" target="_top" xlink:title="Encrypt and decrypt using AES in GCM Mode. The GCM and CCM modes are available only on STM32F437x Dev...">
<polygon fill="white" stroke="black" points="102.5,-190.5 102.5,-209.5 201.5,-209.5 201.5,-190.5 102.5,-190.5"/>
<text text-anchor="middle" x="152" y="-197.5" font-family="Helvetica,sans-Serif" font-size="10.00">CRYP_AES_GCM</text>
</a>
</g>
</g>
<!-- Node1&#45;&gt;Node5 -->
<g id="edge4" class="edge"><title>Node1&#45;&gt;Node5</title>
<path fill="none" stroke="midnightblue" d="M72.3761,-174.68C88.3198,-179.815 106.421,-185.644 121.233,-190.414"/>
<polygon fill="midnightblue" stroke="midnightblue" points="73.3679,-171.323 62.7764,-171.589 71.2221,-177.986 73.3679,-171.323"/>
</g>
<!-- Node6 -->
<g id="node6" class="node"><title>Node6</title>
<g id="a_node6"><a xlink:href="a00985.html#ga9d9f5c74b634b85b7aa8c2a2ea0bcd51" target="_top" xlink:title="Encrypt and decrypt using AES in CCM Mode. The GCM and CCM modes are available only on STM32F437x Dev...">
<polygon fill="white" stroke="black" points="102.5,-152.5 102.5,-171.5 201.5,-171.5 201.5,-152.5 102.5,-152.5"/>
<text text-anchor="middle" x="152" y="-159.5" font-family="Helvetica,sans-Serif" font-size="10.00">CRYP_AES_CCM</text>
</a>
</g>
</g>
<!-- Node1&#45;&gt;Node6 -->
<g id="edge5" class="edge"><title>Node1&#45;&gt;Node6</title>
<path fill="none" stroke="midnightblue" d="M74.0162,-162C83.1728,-162 92.9685,-162 102.398,-162"/>
<polygon fill="midnightblue" stroke="midnightblue" points="74.0031,-158.5 64.0031,-162 74.0031,-165.5 74.0031,-158.5"/>
</g>
<!-- Node7 -->
<g id="node7" class="node"><title>Node7</title>
<g id="a_node7"><a xlink:href="a00986.html#ga3b96b7608b39197209abed5f5845f590" target="_top" xlink:title="Encrypt and decrypt using DES in ECB Mode. ">
<polygon fill="white" stroke="black" points="103,-114.5 103,-133.5 201,-133.5 201,-114.5 103,-114.5"/>
<text text-anchor="middle" x="152" y="-121.5" font-family="Helvetica,sans-Serif" font-size="10.00">CRYP_DES_ECB</text>
</a>
</g>
</g>
<!-- Node1&#45;&gt;Node7 -->
<g id="edge6" class="edge"><title>Node1&#45;&gt;Node7</title>
<path fill="none" stroke="midnightblue" d="M72.3761,-149.32C88.3198,-144.185 106.421,-138.356 121.233,-133.586"/>
<polygon fill="midnightblue" stroke="midnightblue" points="71.2221,-146.014 62.7764,-152.411 73.3679,-152.677 71.2221,-146.014"/>
</g>
<!-- Node8 -->
<g id="node8" class="node"><title>Node8</title>
<g id="a_node8"><a xlink:href="a00986.html#ga75724391a8560c557e1152b805f5cad1" target="_top" xlink:title="Encrypt and decrypt using DES in CBC Mode. ">
<polygon fill="white" stroke="black" points="103,-76.5 103,-95.5 201,-95.5 201,-76.5 103,-76.5"/>
<text text-anchor="middle" x="152" y="-83.5" font-family="Helvetica,sans-Serif" font-size="10.00">CRYP_DES_CBC</text>
</a>
</g>
</g>
<!-- Node1&#45;&gt;Node8 -->
<g id="edge7" class="edge"><title>Node1&#45;&gt;Node8</title>
<path fill="none" stroke="midnightblue" d="M49.3359,-145.232C62.1812,-132.797 81.0219,-116.139 100,-105 106.193,-101.365 113.204,-98.2137 120.001,-95.5793"/>
<polygon fill="midnightblue" stroke="midnightblue" points="46.802,-142.816 42.165,-152.342 51.7305,-147.787 46.802,-142.816"/>
</g>
<!-- Node9 -->
<g id="node9" class="node"><title>Node9</title>
<g id="a_node9"><a xlink:href="a00987.html#ga17c03ab4f0566fcbc3dd8c052e6f9886" target="_top" xlink:title="Encrypt and decrypt using TDES in ECB Mode. ">
<polygon fill="white" stroke="black" points="100,-38.5 100,-57.5 204,-57.5 204,-38.5 100,-38.5"/>
<text text-anchor="middle" x="152" y="-45.5" font-family="Helvetica,sans-Serif" font-size="10.00">CRYP_TDES_ECB</text>
</a>
</g>
</g>
<!-- Node1&#45;&gt;Node9 -->
<g id="edge8" class="edge"><title>Node1&#45;&gt;Node9</title>
<path fill="none" stroke="midnightblue" d="M41.7216,-143.506C52.5989,-122.282 73.0892,-87.7387 100,-67 104.94,-63.1934 110.722,-60.0867 116.584,-57.572"/>
<polygon fill="midnightblue" stroke="midnightblue" points="38.5795,-141.965 37.2897,-152.481 44.8559,-145.064 38.5795,-141.965"/>
</g>
<!-- Node10 -->
<g id="node10" class="node"><title>Node10</title>
<g id="a_node10"><a xlink:href="a00987.html#gabe52a368c4882450c1e82f16bc1eb686" target="_top" xlink:title="Encrypt and decrypt using TDES in CBC Mode. ">
<polygon fill="white" stroke="black" points="100,-0.5 100,-19.5 204,-19.5 204,-0.5 100,-0.5"/>
<text text-anchor="middle" x="152" y="-7.5" font-family="Helvetica,sans-Serif" font-size="10.00">CRYP_TDES_CBC</text>
</a>
</g>
</g>
<!-- Node1&#45;&gt;Node10 -->
<g id="edge9" class="edge"><title>Node1&#45;&gt;Node10</title>
<path fill="none" stroke="midnightblue" d="M37.9095,-142.47C46.0864,-113.765 65.1446,-60.2168 100,-29 104.293,-25.1547 109.437,-22.0632 114.78,-19.5845"/>
<polygon fill="midnightblue" stroke="midnightblue" points="34.4353,-141.912 35.2169,-152.478 41.1949,-143.731 34.4353,-141.912"/>
</g>
</g>
</svg>
