<?xml version="1.0" encoding="UTF-8" standalone="no"?>
<!DOCTYPE svg PUBLIC "-//W3C//DTD SVG 1.1//EN"
 "http://www.w3.org/Graphics/SVG/1.1/DTD/svg11.dtd">
<!-- Generated by graphviz version 2.38.0 (20140413.2041)
 -->
<!-- Title: DMA_Config Pages: 1 -->
<svg width="256pt" height="66pt"
 viewBox="0.00 0.00 256.00 66.00" xmlns="http://www.w3.org/2000/svg" xmlns:xlink="http://www.w3.org/1999/xlink">
<g id="graph0" class="graph" transform="scale(1 1) rotate(0) translate(4 62)">
<title>DMA_Config</title>
<polygon fill="white" stroke="none" points="-4,4 -4,-62 252,-62 252,4 -4,4"/>
<!-- Node1 -->
<g id="node1" class="node"><title>Node1</title>
<polygon fill="#bfbfbf" stroke="black" points="0,-19.5 0,-38.5 73,-38.5 73,-19.5 0,-19.5"/>
<text text-anchor="middle" x="36.5" y="-26.5" font-family="Helvetica,sans-Serif" font-size="10.00">DMA_Config</text>
</g>
<!-- Node2 -->
<g id="node2" class="node"><title>Node2</title>
<g id="a_node2"><a xlink:href="a00146.html#ga840291bc02cba5474a4cb46a9b9566fe" target="_top" xlink:title="Main function entry. ">
<polygon fill="white" stroke="black" points="159.5,-38.5 159.5,-57.5 197.5,-57.5 197.5,-38.5 159.5,-38.5"/>
<text text-anchor="middle" x="178.5" y="-45.5" font-family="Helvetica,sans-Serif" font-size="10.00">main</text>
</a>
</g>
</g>
<!-- Node1&#45;&gt;Node2 -->
<g id="edge1" class="edge"><title>Node1&#45;&gt;Node2</title>
<path fill="none" stroke="midnightblue" d="M83.222,-35.2051C109.188,-38.7291 140.241,-42.9434 159.419,-45.5462"/>
<polygon fill="midnightblue" stroke="midnightblue" points="83.57,-31.7204 73.1902,-33.8437 82.6286,-38.6568 83.57,-31.7204"/>
</g>
<!-- Node3 -->
<g id="node3" class="node"><title>Node3</title>
<g id="a_node3"><a xlink:href="a00085.html#gaf46f7f55713090d0d01917f8b4cf12d4" target="_top" xlink:title="DAC Channel Escalator Configuration. ">
<polygon fill="white" stroke="black" points="109,-0.5 109,-19.5 248,-19.5 248,-0.5 109,-0.5"/>
<text text-anchor="middle" x="178.5" y="-7.5" font-family="Helvetica,sans-Serif" font-size="10.00">DAC_CHx_EscalatorConfig</text>
</a>
</g>
</g>
<!-- Node1&#45;&gt;Node3 -->
<g id="edge2" class="edge"><title>Node1&#45;&gt;Node3</title>
<path fill="none" stroke="midnightblue" d="M83.2828,-22.7866C91.4968,-21.6719 100.218,-20.4882 108.911,-19.3086"/>
<polygon fill="midnightblue" stroke="midnightblue" points="82.6286,-19.3432 73.1902,-24.1563 83.57,-26.2796 82.6286,-19.3432"/>
</g>
</g>
</svg>
