<?xml version="1.0" encoding="UTF-8" standalone="no"?>
<!DOCTYPE svg PUBLIC "-//W3C//DTD SVG 1.1//EN"
 "http://www.w3.org/Graphics/SVG/1.1/DTD/svg11.dtd">
<!-- Generated by graphviz version 2.38.0 (20140413.2041)
 -->
<!-- Title: CRYP_KeyInit Pages: 1 -->
<svg width="229pt" height="332pt"
 viewBox="0.00 0.00 229.00 332.00" xmlns="http://www.w3.org/2000/svg" xmlns:xlink="http://www.w3.org/1999/xlink">
<g id="graph0" class="graph" transform="scale(1 1) rotate(0) translate(4 328)">
<title>CRYP_KeyInit</title>
<polygon fill="white" stroke="none" points="-4,4 -4,-328 225,-328 225,4 -4,4"/>
<!-- Node1 -->
<g id="node1" class="node"><title>Node1</title>
<polygon fill="#bfbfbf" stroke="black" points="0,-152.5 0,-171.5 81,-171.5 81,-152.5 0,-152.5"/>
<text text-anchor="middle" x="40.5" y="-159.5" font-family="Helvetica,sans-Serif" font-size="10.00">CRYP_KeyInit</text>
</g>
<!-- Node2 -->
<g id="node2" class="node"><title>Node2</title>
<g id="a_node2"><a xlink:href="a00985.html#ga79ff82ece0e9620dc86d6e57abe639e1" target="_top" xlink:title="Encrypt and decrypt using AES in ECB Mode. ">
<polygon fill="white" stroke="black" points="120.5,-304.5 120.5,-323.5 217.5,-323.5 217.5,-304.5 120.5,-304.5"/>
<text text-anchor="middle" x="169" y="-311.5" font-family="Helvetica,sans-Serif" font-size="10.00">CRYP_AES_ECB</text>
</a>
</g>
</g>
<!-- Node1&#45;&gt;Node2 -->
<g id="edge1" class="edge"><title>Node1&#45;&gt;Node2</title>
<path fill="none" stroke="midnightblue" d="M47.5941,-181.165C57.6282,-209.794 80.2587,-263.703 117,-295 121.531,-298.86 126.921,-301.971 132.473,-304.468"/>
<polygon fill="midnightblue" stroke="midnightblue" points="50.8608,-179.898 44.362,-171.53 44.2243,-182.124 50.8608,-179.898"/>
</g>
<!-- Node3 -->
<g id="node3" class="node"><title>Node3</title>
<g id="a_node3"><a xlink:href="a00985.html#gaa43eadf707257710f6a53b3295b39d70" target="_top" xlink:title="Encrypt and decrypt using AES in CBC Mode. ">
<polygon fill="white" stroke="black" points="120,-266.5 120,-285.5 218,-285.5 218,-266.5 120,-266.5"/>
<text text-anchor="middle" x="169" y="-273.5" font-family="Helvetica,sans-Serif" font-size="10.00">CRYP_AES_CBC</text>
</a>
</g>
</g>
<!-- Node1&#45;&gt;Node3 -->
<g id="edge2" class="edge"><title>Node1&#45;&gt;Node3</title>
<path fill="none" stroke="midnightblue" d="M51.7269,-180.173C64.4851,-201.34 88.1709,-236.071 117,-257 122.199,-260.775 128.235,-263.885 134.296,-266.417"/>
<polygon fill="midnightblue" stroke="midnightblue" points="54.7244,-178.365 46.6547,-171.5 48.682,-181.899 54.7244,-178.365"/>
</g>
<!-- Node4 -->
<g id="node4" class="node"><title>Node4</title>
<g id="a_node4"><a xlink:href="a00985.html#ga2f36aea6e94452e5e5e938547fb89d4c" target="_top" xlink:title="Encrypt and decrypt using AES in CTR Mode. ">
<polygon fill="white" stroke="black" points="120.5,-228.5 120.5,-247.5 217.5,-247.5 217.5,-228.5 120.5,-228.5"/>
<text text-anchor="middle" x="169" y="-235.5" font-family="Helvetica,sans-Serif" font-size="10.00">CRYP_AES_CTR</text>
</a>
</g>
</g>
<!-- Node1&#45;&gt;Node4 -->
<g id="edge3" class="edge"><title>Node1&#45;&gt;Node4</title>
<path fill="none" stroke="midnightblue" d="M59.8597,-178.281C74.5372,-190.678 96.0545,-207.513 117,-219 123.545,-222.589 130.907,-225.773 137.959,-228.459"/>
<polygon fill="midnightblue" stroke="midnightblue" points="61.9258,-175.441 52.0641,-171.568 57.3582,-180.746 61.9258,-175.441"/>
</g>
<!-- Node5 -->
<g id="node5" class="node"><title>Node5</title>
<g id="a_node5"><a xlink:href="a00985.html#ga74b48d820c5c360eb303fc2fb78af055" target="_top" xlink:title="Encrypt and decrypt using AES in GCM Mode. The GCM and CCM modes are available only on STM32F437x Dev...">
<polygon fill="white" stroke="black" points="119.5,-190.5 119.5,-209.5 218.5,-209.5 218.5,-190.5 119.5,-190.5"/>
<text text-anchor="middle" x="169" y="-197.5" font-family="Helvetica,sans-Serif" font-size="10.00">CRYP_AES_GCM</text>
</a>
</g>
</g>
<!-- Node1&#45;&gt;Node5 -->
<g id="edge4" class="edge"><title>Node1&#45;&gt;Node5</title>
<path fill="none" stroke="midnightblue" d="M83.2294,-174.535C100.438,-179.705 120.06,-185.599 136.089,-190.414"/>
<polygon fill="midnightblue" stroke="midnightblue" points="84.0055,-171.114 73.4213,-171.589 81.9916,-177.818 84.0055,-171.114"/>
</g>
<!-- Node6 -->
<g id="node6" class="node"><title>Node6</title>
<g id="a_node6"><a xlink:href="a00985.html#ga9d9f5c74b634b85b7aa8c2a2ea0bcd51" target="_top" xlink:title="Encrypt and decrypt using AES in CCM Mode. The GCM and CCM modes are available only on STM32F437x Dev...">
<polygon fill="white" stroke="black" points="119.5,-152.5 119.5,-171.5 218.5,-171.5 218.5,-152.5 119.5,-152.5"/>
<text text-anchor="middle" x="169" y="-159.5" font-family="Helvetica,sans-Serif" font-size="10.00">CRYP_AES_CCM</text>
</a>
</g>
</g>
<!-- Node1&#45;&gt;Node6 -->
<g id="edge5" class="edge"><title>Node1&#45;&gt;Node6</title>
<path fill="none" stroke="midnightblue" d="M91.2992,-162C100.45,-162 109.995,-162 119.119,-162"/>
<polygon fill="midnightblue" stroke="midnightblue" points="91.1783,-158.5 81.1783,-162 91.1783,-165.5 91.1783,-158.5"/>
</g>
<!-- Node7 -->
<g id="node7" class="node"><title>Node7</title>
<g id="a_node7"><a xlink:href="a00986.html#ga3b96b7608b39197209abed5f5845f590" target="_top" xlink:title="Encrypt and decrypt using DES in ECB Mode. ">
<polygon fill="white" stroke="black" points="120,-114.5 120,-133.5 218,-133.5 218,-114.5 120,-114.5"/>
<text text-anchor="middle" x="169" y="-121.5" font-family="Helvetica,sans-Serif" font-size="10.00">CRYP_DES_ECB</text>
</a>
</g>
</g>
<!-- Node1&#45;&gt;Node7 -->
<g id="edge6" class="edge"><title>Node1&#45;&gt;Node7</title>
<path fill="none" stroke="midnightblue" d="M83.2294,-149.465C100.438,-144.295 120.06,-138.401 136.089,-133.586"/>
<polygon fill="midnightblue" stroke="midnightblue" points="81.9916,-146.182 73.4213,-152.411 84.0055,-152.886 81.9916,-146.182"/>
</g>
<!-- Node8 -->
<g id="node8" class="node"><title>Node8</title>
<g id="a_node8"><a xlink:href="a00986.html#ga75724391a8560c557e1152b805f5cad1" target="_top" xlink:title="Encrypt and decrypt using DES in CBC Mode. ">
<polygon fill="white" stroke="black" points="120,-76.5 120,-95.5 218,-95.5 218,-76.5 120,-76.5"/>
<text text-anchor="middle" x="169" y="-83.5" font-family="Helvetica,sans-Serif" font-size="10.00">CRYP_DES_CBC</text>
</a>
</g>
</g>
<!-- Node1&#45;&gt;Node8 -->
<g id="edge7" class="edge"><title>Node1&#45;&gt;Node8</title>
<path fill="none" stroke="midnightblue" d="M59.8597,-145.719C74.5372,-133.322 96.0545,-116.487 117,-105 123.545,-101.411 130.907,-98.2271 137.959,-95.5409"/>
<polygon fill="midnightblue" stroke="midnightblue" points="57.3582,-143.254 52.0641,-152.432 61.9258,-148.559 57.3582,-143.254"/>
</g>
<!-- Node9 -->
<g id="node9" class="node"><title>Node9</title>
<g id="a_node9"><a xlink:href="a00987.html#ga17c03ab4f0566fcbc3dd8c052e6f9886" target="_top" xlink:title="Encrypt and decrypt using TDES in ECB Mode. ">
<polygon fill="white" stroke="black" points="117,-38.5 117,-57.5 221,-57.5 221,-38.5 117,-38.5"/>
<text text-anchor="middle" x="169" y="-45.5" font-family="Helvetica,sans-Serif" font-size="10.00">CRYP_TDES_ECB</text>
</a>
</g>
</g>
<!-- Node1&#45;&gt;Node9 -->
<g id="edge8" class="edge"><title>Node1&#45;&gt;Node9</title>
<path fill="none" stroke="midnightblue" d="M51.7269,-143.827C64.4851,-122.66 88.1709,-87.9292 117,-67 122.199,-63.2254 128.235,-60.1154 134.296,-57.5834"/>
<polygon fill="midnightblue" stroke="midnightblue" points="48.682,-142.101 46.6547,-152.5 54.7244,-145.635 48.682,-142.101"/>
</g>
<!-- Node10 -->
<g id="node10" class="node"><title>Node10</title>
<g id="a_node10"><a xlink:href="a00987.html#gabe52a368c4882450c1e82f16bc1eb686" target="_top" xlink:title="Encrypt and decrypt using TDES in CBC Mode. ">
<polygon fill="white" stroke="black" points="117,-0.5 117,-19.5 221,-19.5 221,-0.5 117,-0.5"/>
<text text-anchor="middle" x="169" y="-7.5" font-family="Helvetica,sans-Serif" font-size="10.00">CRYP_TDES_CBC</text>
</a>
</g>
</g>
<!-- Node1&#45;&gt;Node10 -->
<g id="edge9" class="edge"><title>Node1&#45;&gt;Node10</title>
<path fill="none" stroke="midnightblue" d="M47.5941,-142.835C57.6282,-114.206 80.2587,-60.2972 117,-29 121.531,-25.14 126.921,-22.0291 132.473,-19.5325"/>
<polygon fill="midnightblue" stroke="midnightblue" points="44.2243,-141.876 44.362,-152.47 50.8608,-144.102 44.2243,-141.876"/>
</g>
</g>
</svg>
