<?xml version="1.0" encoding="UTF-8" standalone="no"?>
<!DOCTYPE svg PUBLIC "-//W3C//DTD SVG 1.1//EN"
 "http://www.w3.org/Graphics/SVG/1.1/DTD/svg11.dtd">
<!-- Generated by graphviz version 2.38.0 (20140413.2041)
 -->
<!-- Title: LTDC Pages: 1 -->
<svg width="378pt" height="66pt"
 viewBox="0.00 0.00 378.00 66.00" xmlns="http://www.w3.org/2000/svg" xmlns:xlink="http://www.w3.org/1999/xlink">
<g id="graph0" class="graph" transform="scale(1 1) rotate(0) translate(4 62)">
<title>LTDC</title>
<polygon fill="white" stroke="none" points="-4,4 -4,-62 374,-62 374,4 -4,4"/>
<!-- Node3 -->
<g id="node1" class="node"><title>Node3</title>
<g id="a_node1"><a xlink:href="a00627.html" target="_top" xlink:title="LTDC_Private_Functions">
<polygon fill="white" stroke="black" points="238,-38.5 238,-57.5 365,-57.5 365,-38.5 238,-38.5"/>
<text text-anchor="middle" x="301.5" y="-45.5" font-family="Helvetica,sans-Serif" font-size="10.00">LTDC_Private_Functions</text>
</a>
</g>
</g>
<!-- Node1 -->
<g id="node2" class="node"><title>Node1</title>
<g id="a_node2"><a xlink:href="a00781.html" target="_top" xlink:title="STM32F4xx_StdPeriph\l_Driver">
<polygon fill="white" stroke="black" points="0,-14 0,-44 118,-44 118,-14 0,-14"/>
<text text-anchor="start" x="8" y="-32" font-family="Helvetica,sans-Serif" font-size="10.00">STM32F4xx_StdPeriph</text>
<text text-anchor="middle" x="59" y="-21" font-family="Helvetica,sans-Serif" font-size="10.00">_Driver</text>
</a>
</g>
</g>
<!-- Node0 -->
<g id="node4" class="node"><title>Node0</title>
<polygon fill="#bfbfbf" stroke="black" points="154,-19.5 154,-38.5 197,-38.5 197,-19.5 154,-19.5"/>
<text text-anchor="middle" x="175.5" y="-26.5" font-family="Helvetica,sans-Serif" font-size="10.00">LTDC</text>
</g>
<!-- Node1&#45;&gt;Node0 -->
<g id="edge1" class="edge"><title>Node1&#45;&gt;Node0</title>
<path fill="none" stroke="black" d="M128.407,-29C137.66,-29 146.509,-29 153.935,-29"/>
<polygon fill="black" stroke="black" points="128.256,-25.5001 118.256,-29 128.256,-32.5001 128.256,-25.5001"/>
</g>
<!-- Node2 -->
<g id="node3" class="node"><title>Node2</title>
<g id="a_node3"><a xlink:href="a00347.html" target="_top" xlink:title="LTDC_Exported_Constants">
<polygon fill="white" stroke="black" points="233,-0.5 233,-19.5 370,-19.5 370,-0.5 233,-0.5"/>
<text text-anchor="middle" x="301.5" y="-7.5" font-family="Helvetica,sans-Serif" font-size="10.00">LTDC_Exported_Constants</text>
</a>
</g>
</g>
<!-- Node0&#45;&gt;Node3 -->
<g id="edge3" class="edge"><title>Node0&#45;&gt;Node3</title>
<path fill="none" stroke="black" d="M207.343,-33.7259C216.835,-35.1804 227.645,-36.8367 238.456,-38.4933"/>
<polygon fill="black" stroke="black" points="207.67,-30.2352 197.255,-32.1802 206.609,-37.1545 207.67,-30.2352"/>
</g>
<!-- Node0&#45;&gt;Node2 -->
<g id="edge2" class="edge"><title>Node0&#45;&gt;Node2</title>
<path fill="none" stroke="black" d="M207.343,-24.2741C216.835,-22.8196 227.645,-21.1633 238.456,-19.5067"/>
<polygon fill="black" stroke="black" points="206.609,-20.8455 197.255,-25.8198 207.67,-27.7648 206.609,-20.8455"/>
</g>
</g>
</svg>
