<?xml version="1.0" encoding="UTF-8" standalone="no"?>
<!DOCTYPE svg PUBLIC "-//W3C//DTD SVG 1.1//EN"
 "http://www.w3.org/Graphics/SVG/1.1/DTD/svg11.dtd">
<!-- Generated by graphviz version 2.38.0 (20140413.2041)
 -->
<!-- Title: TM_USART_InitCustomPinsCallback Pages: 1 -->
<svg width="377pt" height="332pt"
 viewBox="0.00 0.00 377.00 332.00" xmlns="http://www.w3.org/2000/svg" xmlns:xlink="http://www.w3.org/1999/xlink">
<g id="graph0" class="graph" transform="scale(1 1) rotate(0) translate(4 328)">
<title>TM_USART_InitCustomPinsCallback</title>
<polygon fill="white" stroke="none" points="-4,4 -4,-328 373,-328 373,4 -4,4"/>
<!-- Node1 -->
<g id="node1" class="node"><title>Node1</title>
<polygon fill="#bfbfbf" stroke="black" points="0,-152.5 0,-171.5 182,-171.5 182,-152.5 0,-152.5"/>
<text text-anchor="middle" x="91" y="-159.5" font-family="Helvetica,sans-Serif" font-size="10.00">TM_USART_InitCustomPinsCallback</text>
</g>
<!-- Node1&#45;&gt;Node1 -->
<g id="edge2" class="edge"><title>Node1&#45;&gt;Node1</title>
<path fill="none" stroke="midnightblue" d="M59.8659,-171.757C44.7196,-180.565 55.0977,-190 91,-190 116.244,-190 128.869,-185.336 128.875,-179.504"/>
<polygon fill="midnightblue" stroke="midnightblue" points="131.339,-177.004 122.134,-171.757 126.058,-181.599 131.339,-177.004"/>
</g>
<!-- Node2 -->
<g id="node2" class="node"><title>Node2</title>
<g id="a_node2"><a xlink:href="a00091.html#gabc8eafcb23a81935b70b9046f266f5aa" target="_top" xlink:title="Initialize GPIO pins for alternate port operation. ">
<polygon fill="white" stroke="black" points="233.5,-304.5 233.5,-323.5 353.5,-323.5 353.5,-304.5 233.5,-304.5"/>
<text text-anchor="middle" x="293.5" y="-311.5" font-family="Helvetica,sans-Serif" font-size="10.00">MD_GPIO_InitAlternate</text>
</a>
</g>
</g>
<!-- Node1&#45;&gt;Node2 -->
<g id="edge1" class="edge"><title>Node1&#45;&gt;Node2</title>
<path fill="none" stroke="midnightblue" d="M98.3154,-171.801C114.801,-196.556 161.777,-261.977 218,-295 221.69,-297.167 225.625,-299.09 229.684,-300.795"/>
<polygon fill="midnightblue" stroke="midnightblue" points="228.736,-304.177 239.328,-304.392 231.182,-297.618 228.736,-304.177"/>
</g>
<!-- Node3 -->
<g id="node3" class="node"><title>Node3</title>
<g id="a_node3"><a xlink:href="a00069.html#gafbf9e2222953815c9f35cd46863dbc26" target="_top" xlink:title="Callback function for receive interrupt on USART1 in case you have enabled custom USART handler mode...">
<polygon fill="white" stroke="black" points="218,-266.5 218,-285.5 369,-285.5 369,-266.5 218,-266.5"/>
<text text-anchor="middle" x="293.5" y="-273.5" font-family="Helvetica,sans-Serif" font-size="10.00">TM_USART1_ReceiveHandler</text>
</a>
</g>
</g>
<!-- Node1&#45;&gt;Node3 -->
<g id="edge3" class="edge"><title>Node1&#45;&gt;Node3</title>
<path fill="none" stroke="midnightblue" d="M101.851,-171.671C121.945,-190.855 169.847,-233.866 218,-257 222.963,-259.384 228.261,-261.494 233.657,-263.355"/>
<polygon fill="midnightblue" stroke="midnightblue" points="232.835,-266.765 243.425,-266.442 234.944,-260.091 232.835,-266.765"/>
</g>
<!-- Node4 -->
<g id="node4" class="node"><title>Node4</title>
<g id="a_node4"><a xlink:href="a00069.html#ga21823124b3d98ea2085671f4a5af6017" target="_top" xlink:title="Callback function for receive interrupt on USART2 in case you have enabled custom USART handler mode...">
<polygon fill="white" stroke="black" points="218,-228.5 218,-247.5 369,-247.5 369,-228.5 218,-228.5"/>
<text text-anchor="middle" x="293.5" y="-235.5" font-family="Helvetica,sans-Serif" font-size="10.00">TM_USART2_ReceiveHandler</text>
</a>
</g>
</g>
<!-- Node1&#45;&gt;Node4 -->
<g id="edge4" class="edge"><title>Node1&#45;&gt;Node4</title>
<path fill="none" stroke="midnightblue" d="M110.367,-171.543C134.536,-183.811 178.578,-205.176 218,-219 224.928,-221.429 232.318,-223.692 239.651,-225.747"/>
<polygon fill="midnightblue" stroke="midnightblue" points="239.002,-229.197 249.568,-228.417 240.822,-222.438 239.002,-229.197"/>
</g>
<!-- Node5 -->
<g id="node5" class="node"><title>Node5</title>
<g id="a_node5"><a xlink:href="a00069.html#ga868eb8844f04487e714b63b016a93bae" target="_top" xlink:title="Callback function for receive interrupt on USART3 in case you have enabled custom USART handler mode...">
<polygon fill="white" stroke="black" points="218,-190.5 218,-209.5 369,-209.5 369,-190.5 218,-190.5"/>
<text text-anchor="middle" x="293.5" y="-197.5" font-family="Helvetica,sans-Serif" font-size="10.00">TM_USART3_ReceiveHandler</text>
</a>
</g>
</g>
<!-- Node1&#45;&gt;Node5 -->
<g id="edge5" class="edge"><title>Node1&#45;&gt;Node5</title>
<path fill="none" stroke="midnightblue" d="M142.336,-171.54C169.626,-176.712 203.542,-183.14 232.233,-188.578"/>
<polygon fill="midnightblue" stroke="midnightblue" points="231.667,-192.033 242.143,-190.456 232.97,-185.155 231.667,-192.033"/>
</g>
<!-- Node6 -->
<g id="node6" class="node"><title>Node6</title>
<g id="a_node6"><a xlink:href="a00069.html#gada9d723469cf9d7d0ac11930b8e14f2a" target="_top" xlink:title="Callback function for receive interrupt on UART4 in case you have enabled custom USART handler mode...">
<polygon fill="white" stroke="black" points="221.5,-152.5 221.5,-171.5 365.5,-171.5 365.5,-152.5 221.5,-152.5"/>
<text text-anchor="middle" x="293.5" y="-159.5" font-family="Helvetica,sans-Serif" font-size="10.00">TM_UART4_ReceiveHandler</text>
</a>
</g>
</g>
<!-- Node1&#45;&gt;Node6 -->
<g id="edge6" class="edge"><title>Node1&#45;&gt;Node6</title>
<path fill="none" stroke="midnightblue" d="M182.279,-162C191.897,-162 201.638,-162 211.144,-162"/>
<polygon fill="midnightblue" stroke="midnightblue" points="211.35,-165.5 221.35,-162 211.35,-158.5 211.35,-165.5"/>
</g>
<!-- Node7 -->
<g id="node7" class="node"><title>Node7</title>
<g id="a_node7"><a xlink:href="a00069.html#ga4338d265fa58103332ea234f63594b81" target="_top" xlink:title="Callback function for receive interrupt on UART5 in case you have enabled custom USART handler mode...">
<polygon fill="white" stroke="black" points="221.5,-114.5 221.5,-133.5 365.5,-133.5 365.5,-114.5 221.5,-114.5"/>
<text text-anchor="middle" x="293.5" y="-121.5" font-family="Helvetica,sans-Serif" font-size="10.00">TM_UART5_ReceiveHandler</text>
</a>
</g>
</g>
<!-- Node1&#45;&gt;Node7 -->
<g id="edge7" class="edge"><title>Node1&#45;&gt;Node7</title>
<path fill="none" stroke="midnightblue" d="M142.336,-152.46C169.626,-147.288 203.542,-140.86 232.233,-135.422"/>
<polygon fill="midnightblue" stroke="midnightblue" points="232.97,-138.845 242.143,-133.544 231.667,-131.967 232.97,-138.845"/>
</g>
<!-- Node8 -->
<g id="node8" class="node"><title>Node8</title>
<g id="a_node8"><a xlink:href="a00069.html#ga65c1d6a6bcc2dbd40ea0e7cbf5e924de" target="_top" xlink:title="Callback function for receive interrupt on USART6 in case you have enabled custom USART handler mode...">
<polygon fill="white" stroke="black" points="218,-76.5 218,-95.5 369,-95.5 369,-76.5 218,-76.5"/>
<text text-anchor="middle" x="293.5" y="-83.5" font-family="Helvetica,sans-Serif" font-size="10.00">TM_USART6_ReceiveHandler</text>
</a>
</g>
</g>
<!-- Node1&#45;&gt;Node8 -->
<g id="edge8" class="edge"><title>Node1&#45;&gt;Node8</title>
<path fill="none" stroke="midnightblue" d="M110.367,-152.457C134.536,-140.189 178.578,-118.824 218,-105 224.928,-102.571 232.318,-100.308 239.651,-98.2529"/>
<polygon fill="midnightblue" stroke="midnightblue" points="240.822,-101.562 249.568,-95.5827 239.002,-94.8032 240.822,-101.562"/>
</g>
<!-- Node9 -->
<g id="node9" class="node"><title>Node9</title>
<g id="a_node9"><a xlink:href="a00069.html#ga461a5123a57231d34d51330f12ea39d2" target="_top" xlink:title="Callback function for receive interrupt on UART7 in case you have enabled custom USART handler mode...">
<polygon fill="white" stroke="black" points="221.5,-38.5 221.5,-57.5 365.5,-57.5 365.5,-38.5 221.5,-38.5"/>
<text text-anchor="middle" x="293.5" y="-45.5" font-family="Helvetica,sans-Serif" font-size="10.00">TM_UART7_ReceiveHandler</text>
</a>
</g>
</g>
<!-- Node1&#45;&gt;Node9 -->
<g id="edge9" class="edge"><title>Node1&#45;&gt;Node9</title>
<path fill="none" stroke="midnightblue" d="M101.851,-152.329C121.945,-133.145 169.847,-90.1344 218,-67 222.963,-64.6156 228.261,-62.5063 233.657,-60.6454"/>
<polygon fill="midnightblue" stroke="midnightblue" points="234.944,-63.9092 243.425,-57.5581 232.835,-57.2346 234.944,-63.9092"/>
</g>
<!-- Node10 -->
<g id="node10" class="node"><title>Node10</title>
<g id="a_node10"><a xlink:href="a00069.html#ga37fe7ffa31a540627af5ebfe93f2dcf5" target="_top" xlink:title="Callback function for receive interrupt on UART8 in case you have enabled custom USART handler mode...">
<polygon fill="white" stroke="black" points="221.5,-0.5 221.5,-19.5 365.5,-19.5 365.5,-0.5 221.5,-0.5"/>
<text text-anchor="middle" x="293.5" y="-7.5" font-family="Helvetica,sans-Serif" font-size="10.00">TM_UART8_ReceiveHandler</text>
</a>
</g>
</g>
<!-- Node1&#45;&gt;Node10 -->
<g id="edge10" class="edge"><title>Node1&#45;&gt;Node10</title>
<path fill="none" stroke="midnightblue" d="M98.3154,-152.199C114.801,-127.444 161.777,-62.0227 218,-29 221.69,-26.8325 225.625,-24.91 229.684,-23.2049"/>
<polygon fill="midnightblue" stroke="midnightblue" points="231.182,-26.3821 239.328,-19.6085 228.736,-19.8234 231.182,-26.3821"/>
</g>
</g>
</svg>
