<?xml version="1.0" encoding="UTF-8" standalone="no"?>
<!DOCTYPE svg PUBLIC "-//W3C//DTD SVG 1.1//EN"
 "http://www.w3.org/Graphics/SVG/1.1/DTD/svg11.dtd">
<!-- Generated by graphviz version 2.38.0 (20140413.2041)
 -->
<!-- Title: MD_DAC Pages: 1 -->
<svg width="368pt" height="66pt"
 viewBox="0.00 0.00 368.00 66.00" xmlns="http://www.w3.org/2000/svg" xmlns:xlink="http://www.w3.org/1999/xlink">
<g id="graph0" class="graph" transform="scale(1 1) rotate(0) translate(4 62)">
<title>MD_DAC</title>
<polygon fill="white" stroke="none" points="-4,4 -4,-62 364,-62 364,4 -4,4"/>
<!-- Node2 -->
<g id="node1" class="node"><title>Node2</title>
<g id="a_node1"><a xlink:href="a00070.html" target="_top" xlink:title="DAC related library Typedefs. ">
<polygon fill="white" stroke="black" points="254,-38.5 254,-57.5 359,-57.5 359,-38.5 254,-38.5"/>
<text text-anchor="middle" x="306.5" y="-45.5" font-family="Helvetica,sans-Serif" font-size="10.00">MD_DAC_Typedefs</text>
</a>
</g>
</g>
<!-- Node1 -->
<g id="node2" class="node"><title>Node1</title>
<g id="a_node2"><a xlink:href="a00068.html" target="_top" xlink:title="MD_STM32F4_Libraries">
<polygon fill="white" stroke="black" points="0,-19.5 0,-38.5 122,-38.5 122,-19.5 0,-19.5"/>
<text text-anchor="middle" x="61" y="-26.5" font-family="Helvetica,sans-Serif" font-size="10.00">MD_STM32F4_Libraries</text>
</a>
</g>
</g>
<!-- Node0 -->
<g id="node4" class="node"><title>Node0</title>
<polygon fill="#bfbfbf" stroke="black" points="158,-19.5 158,-38.5 217,-38.5 217,-19.5 158,-19.5"/>
<text text-anchor="middle" x="187.5" y="-26.5" font-family="Helvetica,sans-Serif" font-size="10.00">MD_DAC</text>
</g>
<!-- Node1&#45;&gt;Node0 -->
<g id="edge1" class="edge"><title>Node1&#45;&gt;Node0</title>
<path fill="none" stroke="black" d="M132.249,-29C141.223,-29 149.972,-29 157.732,-29"/>
<polygon fill="black" stroke="black" points="132.062,-25.5001 122.062,-29 132.062,-32.5001 132.062,-25.5001"/>
</g>
<!-- Node3 -->
<g id="node3" class="node"><title>Node3</title>
<g id="a_node3"><a xlink:href="a00071.html" target="_top" xlink:title="DAC related library Functions. ">
<polygon fill="white" stroke="black" points="253,-0.5 253,-19.5 360,-19.5 360,-0.5 253,-0.5"/>
<text text-anchor="middle" x="306.5" y="-7.5" font-family="Helvetica,sans-Serif" font-size="10.00">MD_DAC_Functions</text>
</a>
</g>
</g>
<!-- Node0&#45;&gt;Node2 -->
<g id="edge2" class="edge"><title>Node0&#45;&gt;Node2</title>
<path fill="none" stroke="black" d="M227.176,-35.2808C235.727,-36.6694 244.919,-38.1621 253.892,-39.6192"/>
<polygon fill="black" stroke="black" points="227.553,-31.7962 217.121,-33.6479 226.431,-38.7057 227.553,-31.7962"/>
</g>
<!-- Node0&#45;&gt;Node3 -->
<g id="edge3" class="edge"><title>Node0&#45;&gt;Node3</title>
<path fill="none" stroke="black" d="M227.197,-22.7159C235.449,-21.3758 244.297,-19.939 252.968,-18.5309"/>
<polygon fill="black" stroke="black" points="226.431,-19.2943 217.121,-24.3521 227.553,-26.2038 226.431,-19.2943"/>
</g>
</g>
</svg>
