<?xml version="1.0" encoding="UTF-8" standalone="no"?>
<!DOCTYPE svg PUBLIC "-//W3C//DTD SVG 1.1//EN"
 "http://www.w3.org/Graphics/SVG/1.1/DTD/svg11.dtd">
<!-- Generated by graphviz version 2.38.0 (20140413.2041)
 -->
<!-- Title: TM_USART_Getc Pages: 1 -->
<svg width="576pt" height="94pt"
 viewBox="0.00 0.00 576.00 94.00" xmlns="http://www.w3.org/2000/svg" xmlns:xlink="http://www.w3.org/1999/xlink">
<g id="graph0" class="graph" transform="scale(1 1) rotate(0) translate(4 90)">
<title>TM_USART_Getc</title>
<polygon fill="white" stroke="none" points="-4,4 -4,-90 572,-90 572,4 -4,4"/>
<!-- Node1 -->
<g id="node1" class="node"><title>Node1</title>
<polygon fill="#bfbfbf" stroke="black" points="0,-28.5 0,-47.5 97,-47.5 97,-28.5 0,-28.5"/>
<text text-anchor="middle" x="48.5" y="-35.5" font-family="Helvetica,sans-Serif" font-size="10.00">TM_USART_Getc</text>
</g>
<!-- Node2 -->
<g id="node2" class="node"><title>Node2</title>
<g id="a_node2"><a xlink:href="a00068.html#gabb0a95fd20e5e2a894e658b64a29ee61" target="_top" xlink:title="Gets string from USART. ">
<polygon fill="white" stroke="black" points="133,-47.5 133,-66.5 230,-66.5 230,-47.5 133,-47.5"/>
<text text-anchor="middle" x="181.5" y="-54.5" font-family="Helvetica,sans-Serif" font-size="10.00">TM_USART_Gets</text>
</a>
</g>
</g>
<!-- Node1&#45;&gt;Node2 -->
<g id="edge1" class="edge"><title>Node1&#45;&gt;Node2</title>
<path fill="none" stroke="midnightblue" d="M107.072,-46.3502C115.614,-47.589 124.337,-48.8543 132.651,-50.0601"/>
<polygon fill="midnightblue" stroke="midnightblue" points="107.563,-42.8849 97.1646,-44.9132 106.559,-49.8124 107.563,-42.8849"/>
</g>
<!-- Node5 -->
<g id="node5" class="node"><title>Node5</title>
<g id="a_node5"><a xlink:href="a00068.html#gab807a241fae0eae0d5434bae20a3569f" target="_top" xlink:title="Puts character to USART port. ">
<polygon fill="white" stroke="black" points="266,-9.5 266,-28.5 362,-28.5 362,-9.5 266,-9.5"/>
<text text-anchor="middle" x="314" y="-16.5" font-family="Helvetica,sans-Serif" font-size="10.00">TM_USART_Putc</text>
</a>
</g>
</g>
<!-- Node1&#45;&gt;Node5 -->
<g id="edge9" class="edge"><title>Node1&#45;&gt;Node5</title>
<path fill="none" stroke="midnightblue" d="M107.35,-33.8287C154.839,-30.4044 221.264,-25.6148 265.637,-22.4152"/>
<polygon fill="midnightblue" stroke="midnightblue" points="106.94,-30.349 97.2179,-34.5592 107.444,-37.3309 106.94,-30.349"/>
</g>
<!-- Node3 -->
<g id="node3" class="node"><title>Node3</title>
<g id="a_node3"><a xlink:href="a00117.html#ga4af381bf92ce31395c19b6652b930b7a" target="_top" xlink:title="Fast console command parser. ">
<polygon fill="white" stroke="black" points="268,-66.5 268,-85.5 360,-85.5 360,-66.5 268,-66.5"/>
<text text-anchor="middle" x="314" y="-73.5" font-family="Helvetica,sans-Serif" font-size="10.00">fastConsoleCase</text>
</a>
</g>
</g>
<!-- Node2&#45;&gt;Node3 -->
<g id="edge2" class="edge"><title>Node2&#45;&gt;Node3</title>
<path fill="none" stroke="midnightblue" d="M240.536,-65.4496C249.661,-66.7782 258.977,-68.1346 267.758,-69.413"/>
<polygon fill="midnightblue" stroke="midnightblue" points="240.752,-61.9444 230.352,-63.967 239.744,-68.8713 240.752,-61.9444"/>
</g>
<!-- Node2&#45;&gt;Node5 -->
<g id="edge4" class="edge"><title>Node2&#45;&gt;Node5</title>
<path fill="none" stroke="midnightblue" d="M225.052,-44.6094C242.923,-39.4055 263.39,-33.4459 280.08,-28.5859"/>
<polygon fill="midnightblue" stroke="midnightblue" points="224.053,-41.2547 215.431,-47.411 226.01,-47.9756 224.053,-41.2547"/>
</g>
<!-- Node4 -->
<g id="node4" class="node"><title>Node4</title>
<g id="a_node4"><a xlink:href="a00144.html#ga840291bc02cba5474a4cb46a9b9566fe" target="_top" xlink:title="Main function entry. ">
<polygon fill="white" stroke="black" points="530,-57.5 530,-76.5 568,-76.5 568,-57.5 530,-57.5"/>
<text text-anchor="middle" x="549" y="-64.5" font-family="Helvetica,sans-Serif" font-size="10.00">main</text>
</a>
</g>
</g>
<!-- Node3&#45;&gt;Node4 -->
<g id="edge3" class="edge"><title>Node3&#45;&gt;Node4</title>
<path fill="none" stroke="midnightblue" d="M370.215,-73.8672C421.878,-71.8717 496.019,-69.0078 529.884,-67.6997"/>
<polygon fill="midnightblue" stroke="midnightblue" points="370.058,-70.3706 360.201,-74.254 370.329,-77.3654 370.058,-70.3706"/>
</g>
<!-- Node6 -->
<g id="node6" class="node"><title>Node6</title>
<g id="a_node6"><a xlink:href="a00068.html#ga70bed9fb6612cb572a8c10e148404344" target="_top" xlink:title="Initializes USARTx peripheral and corresponding pins. ">
<polygon fill="white" stroke="black" points="401.5,-38.5 401.5,-57.5 490.5,-57.5 490.5,-38.5 401.5,-38.5"/>
<text text-anchor="middle" x="446" y="-45.5" font-family="Helvetica,sans-Serif" font-size="10.00">TM_USART_Init</text>
</a>
</g>
</g>
<!-- Node5&#45;&gt;Node6 -->
<g id="edge5" class="edge"><title>Node5&#45;&gt;Node6</title>
<path fill="none" stroke="midnightblue" d="M367.787,-30.7756C379.202,-33.3219 391.138,-35.9846 402.118,-38.434"/>
<polygon fill="midnightblue" stroke="midnightblue" points="368.449,-27.3374 357.927,-28.5761 366.925,-34.1694 368.449,-27.3374"/>
</g>
<!-- Node7 -->
<g id="node7" class="node"><title>Node7</title>
<g id="a_node7"><a xlink:href="a00068.html#ga453aeaa886278333403ff4937c01dcf3" target="_top" xlink:title="Puts string to USART port. ">
<polygon fill="white" stroke="black" points="398,-0.5 398,-19.5 494,-19.5 494,-0.5 398,-0.5"/>
<text text-anchor="middle" x="446" y="-7.5" font-family="Helvetica,sans-Serif" font-size="10.00">TM_USART_Puts</text>
</a>
</g>
</g>
<!-- Node5&#45;&gt;Node7 -->
<g id="edge7" class="edge"><title>Node5&#45;&gt;Node7</title>
<path fill="none" stroke="midnightblue" d="M369.418,-8.56271C378.819,-7.76834 388.524,-7.14577 397.717,-6.75145"/>
<polygon fill="midnightblue" stroke="midnightblue" points="369.011,-5.08533 359.375,-9.48945 369.654,-12.0557 369.011,-5.08533"/>
</g>
<!-- Node6&#45;&gt;Node4 -->
<g id="edge6" class="edge"><title>Node6&#45;&gt;Node4</title>
<path fill="none" stroke="midnightblue" d="M500.767,-58.1147C511.256,-60.0878 521.556,-62.0254 529.848,-63.5852"/>
<polygon fill="midnightblue" stroke="midnightblue" points="501.187,-54.6323 490.713,-56.2232 499.893,-61.5117 501.187,-54.6323"/>
</g>
<!-- Node7&#45;&gt;Node5 -->
<g id="edge8" class="edge"><title>Node7&#45;&gt;Node5</title>
<path fill="none" stroke="midnightblue" d="M390.528,-20.4418C381.15,-21.2335 371.471,-21.8542 362.301,-22.2478"/>
<polygon fill="midnightblue" stroke="midnightblue" points="390.912,-23.9214 400.548,-19.5182 390.269,-16.9509 390.912,-23.9214"/>
</g>
</g>
</svg>
