<?xml version="1.0" encoding="UTF-8" standalone="no"?>
<!DOCTYPE svg PUBLIC "-//W3C//DTD SVG 1.1//EN"
 "http://www.w3.org/Graphics/SVG/1.1/DTD/svg11.dtd">
<!-- Generated by graphviz version 2.38.0 (20140413.2041)
 -->
<!-- Title: RCC Pages: 1 -->
<svg width="371pt" height="66pt"
 viewBox="0.00 0.00 371.00 66.00" xmlns="http://www.w3.org/2000/svg" xmlns:xlink="http://www.w3.org/1999/xlink">
<g id="graph0" class="graph" transform="scale(1 1) rotate(0) translate(4 62)">
<title>RCC</title>
<polygon fill="white" stroke="none" points="-4,4 -4,-62 367,-62 367,4 -4,4"/>
<!-- Node1 -->
<g id="node1" class="node"><title>Node1</title>
<g id="a_node1"><a xlink:href="a00781.html" target="_top" xlink:title="STM32F4xx_StdPeriph\l_Driver">
<polygon fill="white" stroke="black" points="0,-14 0,-44 118,-44 118,-14 0,-14"/>
<text text-anchor="start" x="8" y="-32" font-family="Helvetica,sans-Serif" font-size="10.00">STM32F4xx_StdPeriph</text>
<text text-anchor="middle" x="59" y="-21" font-family="Helvetica,sans-Serif" font-size="10.00">_Driver</text>
</a>
</g>
</g>
<!-- Node0 -->
<g id="node4" class="node"><title>Node0</title>
<polygon fill="#bfbfbf" stroke="black" points="154,-19.5 154,-38.5 193,-38.5 193,-19.5 154,-19.5"/>
<text text-anchor="middle" x="173.5" y="-26.5" font-family="Helvetica,sans-Serif" font-size="10.00">RCC</text>
</g>
<!-- Node1&#45;&gt;Node0 -->
<g id="edge1" class="edge"><title>Node1&#45;&gt;Node0</title>
<path fill="none" stroke="black" d="M128.401,-29C137.657,-29 146.452,-29 153.718,-29"/>
<polygon fill="black" stroke="black" points="128.227,-25.5001 118.227,-29 128.227,-32.5001 128.227,-25.5001"/>
</g>
<!-- Node3 -->
<g id="node2" class="node"><title>Node3</title>
<g id="a_node2"><a xlink:href="a00639.html" target="_top" xlink:title="RCC_Private_Functions">
<polygon fill="white" stroke="black" points="234.5,-38.5 234.5,-57.5 357.5,-57.5 357.5,-38.5 234.5,-38.5"/>
<text text-anchor="middle" x="296" y="-45.5" font-family="Helvetica,sans-Serif" font-size="10.00">RCC_Private_Functions</text>
</a>
</g>
</g>
<!-- Node2 -->
<g id="node3" class="node"><title>Node2</title>
<g id="a_node3"><a xlink:href="a00373.html" target="_top" xlink:title="RCC_Exported_Constants">
<polygon fill="white" stroke="black" points="229,-0.5 229,-19.5 363,-19.5 363,-0.5 229,-0.5"/>
<text text-anchor="middle" x="296" y="-7.5" font-family="Helvetica,sans-Serif" font-size="10.00">RCC_Exported_Constants</text>
</a>
</g>
</g>
<!-- Node0&#45;&gt;Node3 -->
<g id="edge3" class="edge"><title>Node0&#45;&gt;Node3</title>
<path fill="none" stroke="black" d="M203.106,-33.5104C212.622,-35.011 223.609,-36.7434 234.603,-38.4768"/>
<polygon fill="black" stroke="black" points="203.487,-30.0274 193.064,-31.9271 202.397,-36.942 203.487,-30.0274"/>
</g>
<!-- Node0&#45;&gt;Node2 -->
<g id="edge2" class="edge"><title>Node0&#45;&gt;Node2</title>
<path fill="none" stroke="black" d="M203.106,-24.4896C212.622,-22.989 223.609,-21.2566 234.603,-19.5232"/>
<polygon fill="black" stroke="black" points="202.397,-21.058 193.064,-26.0729 203.487,-27.9726 202.397,-21.058"/>
</g>
</g>
</svg>
