<?xml version="1.0" encoding="UTF-8" standalone="no"?>
<!DOCTYPE svg PUBLIC "-//W3C//DTD SVG 1.1//EN"
 "http://www.w3.org/Graphics/SVG/1.1/DTD/svg11.dtd">
<!-- Generated by graphviz version 2.38.0 (20140413.2041)
 -->
<!-- Title: DMA_StructInit Pages: 1 -->
<svg width="338pt" height="66pt"
 viewBox="0.00 0.00 338.00 66.00" xmlns="http://www.w3.org/2000/svg" xmlns:xlink="http://www.w3.org/1999/xlink">
<g id="graph0" class="graph" transform="scale(1 1) rotate(0) translate(4 62)">
<title>DMA_StructInit</title>
<polygon fill="white" stroke="none" points="-4,4 -4,-62 334,-62 334,4 -4,4"/>
<!-- Node1 -->
<g id="node1" class="node"><title>Node1</title>
<polygon fill="#bfbfbf" stroke="black" points="0,-19.5 0,-38.5 84,-38.5 84,-19.5 0,-19.5"/>
<text text-anchor="middle" x="42" y="-26.5" font-family="Helvetica,sans-Serif" font-size="10.00">DMA_StructInit</text>
</g>
<!-- Node2 -->
<g id="node2" class="node"><title>Node2</title>
<g id="a_node2"><a xlink:href="a01271.html#ga85f5a2827c06dbdba076d4e9125a11f8" target="_top" xlink:title="ADC common and regular scan group init. ">
<polygon fill="white" stroke="black" points="122.5,-38.5 122.5,-57.5 253.5,-57.5 253.5,-38.5 122.5,-38.5"/>
<text text-anchor="middle" x="188" y="-45.5" font-family="Helvetica,sans-Serif" font-size="10.00">ADC_Scan_Group_Config</text>
</a>
</g>
</g>
<!-- Node1&#45;&gt;Node2 -->
<g id="edge1" class="edge"><title>Node1&#45;&gt;Node2</title>
<path fill="none" stroke="midnightblue" d="M94.2875,-35.7671C103.377,-36.9664 112.947,-38.2292 122.349,-39.4697"/>
<polygon fill="midnightblue" stroke="midnightblue" points="94.6366,-32.2829 84.2646,-34.4446 93.7208,-39.2228 94.6366,-32.2829"/>
</g>
<!-- Node4 -->
<g id="node4" class="node"><title>Node4</title>
<g id="a_node4"><a xlink:href="a01271.html#gad273dc4b4b26574e92666e4020e1ef5a" target="_top" xlink:title="Timer&#45;triggered ADC&#45;scan mode with DMA to memory. ">
<polygon fill="white" stroke="black" points="120,-0.5 120,-19.5 256,-19.5 256,-0.5 120,-0.5"/>
<text text-anchor="middle" x="188" y="-7.5" font-family="Helvetica,sans-Serif" font-size="10.00">TIM2_DMA_Trigger_Config</text>
</a>
</g>
</g>
<!-- Node1&#45;&gt;Node4 -->
<g id="edge3" class="edge"><title>Node1&#45;&gt;Node4</title>
<path fill="none" stroke="midnightblue" d="M94.1912,-22.2456C102.522,-21.1464 111.26,-19.9935 119.903,-18.8531"/>
<polygon fill="midnightblue" stroke="midnightblue" points="93.7208,-18.7772 84.2646,-23.5554 94.6366,-25.7171 93.7208,-18.7772"/>
</g>
<!-- Node3 -->
<g id="node3" class="node"><title>Node3</title>
<g id="a_node3"><a xlink:href="a01287.html#ga840291bc02cba5474a4cb46a9b9566fe" target="_top" xlink:title="Main function entry. ">
<polygon fill="white" stroke="black" points="292,-19.5 292,-38.5 330,-38.5 330,-19.5 292,-19.5"/>
<text text-anchor="middle" x="311" y="-26.5" font-family="Helvetica,sans-Serif" font-size="10.00">main</text>
</a>
</g>
</g>
<!-- Node2&#45;&gt;Node3 -->
<g id="edge2" class="edge"><title>Node2&#45;&gt;Node3</title>
<path fill="none" stroke="midnightblue" d="M259.851,-36.8747C271.648,-35.0222 282.904,-33.2548 291.752,-31.8654"/>
<polygon fill="midnightblue" stroke="midnightblue" points="259.19,-33.4354 249.854,-38.4443 260.276,-40.3506 259.19,-33.4354"/>
</g>
<!-- Node4&#45;&gt;Node3 -->
<g id="edge4" class="edge"><title>Node4&#45;&gt;Node3</title>
<path fill="none" stroke="midnightblue" d="M259.851,-21.1253C271.648,-22.9778 282.904,-24.7452 291.752,-26.1346"/>
<polygon fill="midnightblue" stroke="midnightblue" points="260.276,-17.6494 249.854,-19.5557 259.19,-24.5646 260.276,-17.6494"/>
</g>
</g>
</svg>
