<?xml version="1.0" encoding="UTF-8" standalone="no"?>
<!DOCTYPE svg PUBLIC "-//W3C//DTD SVG 1.1//EN"
 "http://www.w3.org/Graphics/SVG/1.1/DTD/svg11.dtd">
<!-- Generated by graphviz version 2.38.0 (20140413.2041)
 -->
<!-- Title: SPI Pages: 1 -->
<svg width="359pt" height="66pt"
 viewBox="0.00 0.00 359.00 66.00" xmlns="http://www.w3.org/2000/svg" xmlns:xlink="http://www.w3.org/1999/xlink">
<g id="graph0" class="graph" transform="scale(1 1) rotate(0) translate(4 62)">
<title>SPI</title>
<polygon fill="white" stroke="none" points="-4,4 -4,-62 355,-62 355,4 -4,4"/>
<!-- Node2 -->
<g id="node1" class="node"><title>Node2</title>
<g id="a_node1"><a xlink:href="a00453.html" target="_top" xlink:title="SPI_Exported_Constants">
<polygon fill="white" stroke="black" points="223,-38.5 223,-57.5 351,-57.5 351,-38.5 223,-38.5"/>
<text text-anchor="middle" x="287" y="-45.5" font-family="Helvetica,sans-Serif" font-size="10.00">SPI_Exported_Constants</text>
</a>
</g>
</g>
<!-- Node1 -->
<g id="node2" class="node"><title>Node1</title>
<g id="a_node2"><a xlink:href="a00781.html" target="_top" xlink:title="STM32F4xx_StdPeriph\l_Driver">
<polygon fill="white" stroke="black" points="0,-14 0,-44 118,-44 118,-14 0,-14"/>
<text text-anchor="start" x="8" y="-32" font-family="Helvetica,sans-Serif" font-size="10.00">STM32F4xx_StdPeriph</text>
<text text-anchor="middle" x="59" y="-21" font-family="Helvetica,sans-Serif" font-size="10.00">_Driver</text>
</a>
</g>
</g>
<!-- Node0 -->
<g id="node3" class="node"><title>Node0</title>
<polygon fill="#bfbfbf" stroke="black" points="154,-19.5 154,-38.5 187,-38.5 187,-19.5 154,-19.5"/>
<text text-anchor="middle" x="170.5" y="-26.5" font-family="Helvetica,sans-Serif" font-size="10.00">SPI</text>
</g>
<!-- Node1&#45;&gt;Node0 -->
<g id="edge1" class="edge"><title>Node1&#45;&gt;Node0</title>
<path fill="none" stroke="black" d="M128.284,-29C137.738,-29 146.616,-29 153.695,-29"/>
<polygon fill="black" stroke="black" points="128.277,-25.5001 118.277,-29 128.277,-32.5001 128.277,-25.5001"/>
</g>
<!-- Node0&#45;&gt;Node2 -->
<g id="edge2" class="edge"><title>Node0&#45;&gt;Node2</title>
<path fill="none" stroke="black" d="M197.514,-33.3168C206.813,-34.8598 217.696,-36.6658 228.588,-38.473"/>
<polygon fill="black" stroke="black" points="197.859,-29.8262 187.421,-31.6419 196.713,-36.7317 197.859,-29.8262"/>
</g>
<!-- Node3 -->
<g id="node4" class="node"><title>Node3</title>
<g id="a_node4"><a xlink:href="a00668.html" target="_top" xlink:title="SPI_Private_Functions">
<polygon fill="white" stroke="black" points="228.5,-0.5 228.5,-19.5 345.5,-19.5 345.5,-0.5 228.5,-0.5"/>
<text text-anchor="middle" x="287" y="-7.5" font-family="Helvetica,sans-Serif" font-size="10.00">SPI_Private_Functions</text>
</a>
</g>
</g>
<!-- Node0&#45;&gt;Node3 -->
<g id="edge3" class="edge"><title>Node0&#45;&gt;Node3</title>
<path fill="none" stroke="black" d="M197.514,-24.6832C206.813,-23.1402 217.696,-21.3342 228.588,-19.527"/>
<polygon fill="black" stroke="black" points="196.713,-21.2683 187.421,-26.3581 197.859,-28.1738 196.713,-21.2683"/>
</g>
</g>
</svg>
