<?xml version="1.0" encoding="UTF-8" standalone="no"?>
<!DOCTYPE svg PUBLIC "-//W3C//DTD SVG 1.1//EN"
 "http://www.w3.org/Graphics/SVG/1.1/DTD/svg11.dtd">
<!-- Generated by graphviz version 2.38.0 (20140413.2041)
 -->
<!-- Title: CRYP_Cmd Pages: 1 -->
<svg width="219pt" height="332pt"
 viewBox="0.00 0.00 219.00 332.00" xmlns="http://www.w3.org/2000/svg" xmlns:xlink="http://www.w3.org/1999/xlink">
<g id="graph0" class="graph" transform="scale(1 1) rotate(0) translate(4 328)">
<title>CRYP_Cmd</title>
<polygon fill="white" stroke="none" points="-4,4 -4,-328 215,-328 215,4 -4,4"/>
<!-- Node1 -->
<g id="node1" class="node"><title>Node1</title>
<polygon fill="#bfbfbf" stroke="black" points="0,-152.5 0,-171.5 71,-171.5 71,-152.5 0,-152.5"/>
<text text-anchor="middle" x="35.5" y="-159.5" font-family="Helvetica,sans-Serif" font-size="10.00">CRYP_Cmd</text>
</g>
<!-- Node2 -->
<g id="node2" class="node"><title>Node2</title>
<g id="a_node2"><a xlink:href="a00985.html#ga79ff82ece0e9620dc86d6e57abe639e1" target="_top" xlink:title="Encrypt and decrypt using AES in ECB Mode. ">
<polygon fill="white" stroke="black" points="110.5,-304.5 110.5,-323.5 207.5,-323.5 207.5,-304.5 110.5,-304.5"/>
<text text-anchor="middle" x="159" y="-311.5" font-family="Helvetica,sans-Serif" font-size="10.00">CRYP_AES_ECB</text>
</a>
</g>
</g>
<!-- Node1&#45;&gt;Node2 -->
<g id="edge1" class="edge"><title>Node1&#45;&gt;Node2</title>
<path fill="none" stroke="midnightblue" d="M41.8358,-181.158C50.7445,-209.778 71.2854,-263.676 107,-295 111.404,-298.863 116.667,-301.969 122.113,-304.458"/>
<polygon fill="midnightblue" stroke="midnightblue" points="45.1791,-180.121 38.9836,-171.526 38.4672,-182.109 45.1791,-180.121"/>
</g>
<!-- Node3 -->
<g id="node3" class="node"><title>Node3</title>
<g id="a_node3"><a xlink:href="a00985.html#gaa43eadf707257710f6a53b3295b39d70" target="_top" xlink:title="Encrypt and decrypt using AES in CBC Mode. ">
<polygon fill="white" stroke="black" points="110,-266.5 110,-285.5 208,-285.5 208,-266.5 110,-266.5"/>
<text text-anchor="middle" x="159" y="-273.5" font-family="Helvetica,sans-Serif" font-size="10.00">CRYP_AES_CBC</text>
</a>
</g>
</g>
<!-- Node1&#45;&gt;Node3 -->
<g id="edge2" class="edge"><title>Node1&#45;&gt;Node3</title>
<path fill="none" stroke="midnightblue" d="M45.9156,-180.482C57.5868,-201.696 79.3611,-236.228 107,-257 112.061,-260.803 117.966,-263.917 123.927,-266.442"/>
<polygon fill="midnightblue" stroke="midnightblue" points="48.932,-178.7 41.1475,-171.513 42.7511,-181.985 48.932,-178.7"/>
</g>
<!-- Node4 -->
<g id="node4" class="node"><title>Node4</title>
<g id="a_node4"><a xlink:href="a00985.html#ga2f36aea6e94452e5e5e938547fb89d4c" target="_top" xlink:title="Encrypt and decrypt using AES in CTR Mode. ">
<polygon fill="white" stroke="black" points="110.5,-228.5 110.5,-247.5 207.5,-247.5 207.5,-228.5 110.5,-228.5"/>
<text text-anchor="middle" x="159" y="-235.5" font-family="Helvetica,sans-Serif" font-size="10.00">CRYP_AES_CTR</text>
</a>
</g>
</g>
<!-- Node1&#45;&gt;Node4 -->
<g id="edge3" class="edge"><title>Node1&#45;&gt;Node4</title>
<path fill="none" stroke="midnightblue" d="M53.8429,-178.713C67.4399,-191.119 87.2985,-207.765 107,-219 113.32,-222.604 120.452,-225.759 127.336,-228.409"/>
<polygon fill="midnightblue" stroke="midnightblue" points="55.9428,-175.885 46.2434,-171.622 51.1674,-181.003 55.9428,-175.885"/>
</g>
<!-- Node5 -->
<g id="node5" class="node"><title>Node5</title>
<g id="a_node5"><a xlink:href="a00985.html#ga74b48d820c5c360eb303fc2fb78af055" target="_top" xlink:title="Encrypt and decrypt using AES in GCM Mode. The GCM and CCM modes are available only on STM32F437x Dev...">
<polygon fill="white" stroke="black" points="109.5,-190.5 109.5,-209.5 208.5,-209.5 208.5,-190.5 109.5,-190.5"/>
<text text-anchor="middle" x="159" y="-197.5" font-family="Helvetica,sans-Serif" font-size="10.00">CRYP_AES_GCM</text>
</a>
</g>
</g>
<!-- Node1&#45;&gt;Node5 -->
<g id="edge4" class="edge"><title>Node1&#45;&gt;Node5</title>
<path fill="none" stroke="midnightblue" d="M77.044,-174.68C93.4606,-179.815 112.099,-185.644 127.35,-190.414"/>
<polygon fill="midnightblue" stroke="midnightblue" points="77.7485,-171.234 67.1596,-171.589 75.6589,-177.914 77.7485,-171.234"/>
</g>
<!-- Node6 -->
<g id="node6" class="node"><title>Node6</title>
<g id="a_node6"><a xlink:href="a00985.html#ga9d9f5c74b634b85b7aa8c2a2ea0bcd51" target="_top" xlink:title="Encrypt and decrypt using AES in CCM Mode. The GCM and CCM modes are available only on STM32F437x Dev...">
<polygon fill="white" stroke="black" points="109.5,-152.5 109.5,-171.5 208.5,-171.5 208.5,-152.5 109.5,-152.5"/>
<text text-anchor="middle" x="159" y="-159.5" font-family="Helvetica,sans-Serif" font-size="10.00">CRYP_AES_CCM</text>
</a>
</g>
</g>
<!-- Node1&#45;&gt;Node6 -->
<g id="edge5" class="edge"><title>Node1&#45;&gt;Node6</title>
<path fill="none" stroke="midnightblue" d="M81.5855,-162C90.5685,-162 100.042,-162 109.145,-162"/>
<polygon fill="midnightblue" stroke="midnightblue" points="81.3171,-158.5 71.317,-162 81.317,-165.5 81.3171,-158.5"/>
</g>
<!-- Node7 -->
<g id="node7" class="node"><title>Node7</title>
<g id="a_node7"><a xlink:href="a00986.html#ga3b96b7608b39197209abed5f5845f590" target="_top" xlink:title="Encrypt and decrypt using DES in ECB Mode. ">
<polygon fill="white" stroke="black" points="110,-114.5 110,-133.5 208,-133.5 208,-114.5 110,-114.5"/>
<text text-anchor="middle" x="159" y="-121.5" font-family="Helvetica,sans-Serif" font-size="10.00">CRYP_DES_ECB</text>
</a>
</g>
</g>
<!-- Node1&#45;&gt;Node7 -->
<g id="edge6" class="edge"><title>Node1&#45;&gt;Node7</title>
<path fill="none" stroke="midnightblue" d="M77.044,-149.32C93.4606,-144.185 112.099,-138.356 127.35,-133.586"/>
<polygon fill="midnightblue" stroke="midnightblue" points="75.6589,-146.086 67.1596,-152.411 77.7485,-152.766 75.6589,-146.086"/>
</g>
<!-- Node8 -->
<g id="node8" class="node"><title>Node8</title>
<g id="a_node8"><a xlink:href="a00986.html#ga75724391a8560c557e1152b805f5cad1" target="_top" xlink:title="Encrypt and decrypt using DES in CBC Mode. ">
<polygon fill="white" stroke="black" points="110,-76.5 110,-95.5 208,-95.5 208,-76.5 110,-76.5"/>
<text text-anchor="middle" x="159" y="-83.5" font-family="Helvetica,sans-Serif" font-size="10.00">CRYP_DES_CBC</text>
</a>
</g>
</g>
<!-- Node1&#45;&gt;Node8 -->
<g id="edge7" class="edge"><title>Node1&#45;&gt;Node8</title>
<path fill="none" stroke="midnightblue" d="M53.8429,-145.287C67.4399,-132.881 87.2985,-116.235 107,-105 113.32,-101.396 120.452,-98.241 127.336,-95.5911"/>
<polygon fill="midnightblue" stroke="midnightblue" points="51.1674,-142.997 46.2434,-152.378 55.9428,-148.115 51.1674,-142.997"/>
</g>
<!-- Node9 -->
<g id="node9" class="node"><title>Node9</title>
<g id="a_node9"><a xlink:href="a00987.html#ga17c03ab4f0566fcbc3dd8c052e6f9886" target="_top" xlink:title="Encrypt and decrypt using TDES in ECB Mode. ">
<polygon fill="white" stroke="black" points="107,-38.5 107,-57.5 211,-57.5 211,-38.5 107,-38.5"/>
<text text-anchor="middle" x="159" y="-45.5" font-family="Helvetica,sans-Serif" font-size="10.00">CRYP_TDES_ECB</text>
</a>
</g>
</g>
<!-- Node1&#45;&gt;Node9 -->
<g id="edge8" class="edge"><title>Node1&#45;&gt;Node9</title>
<path fill="none" stroke="midnightblue" d="M45.9156,-143.518C57.5868,-122.304 79.3611,-87.7721 107,-67 112.061,-63.1966 117.966,-60.0826 123.927,-57.5577"/>
<polygon fill="midnightblue" stroke="midnightblue" points="42.7511,-142.015 41.1475,-152.487 48.932,-145.3 42.7511,-142.015"/>
</g>
<!-- Node10 -->
<g id="node10" class="node"><title>Node10</title>
<g id="a_node10"><a xlink:href="a00987.html#gabe52a368c4882450c1e82f16bc1eb686" target="_top" xlink:title="Encrypt and decrypt using TDES in CBC Mode. ">
<polygon fill="white" stroke="black" points="107,-0.5 107,-19.5 211,-19.5 211,-0.5 107,-0.5"/>
<text text-anchor="middle" x="159" y="-7.5" font-family="Helvetica,sans-Serif" font-size="10.00">CRYP_TDES_CBC</text>
</a>
</g>
</g>
<!-- Node1&#45;&gt;Node10 -->
<g id="edge9" class="edge"><title>Node1&#45;&gt;Node10</title>
<path fill="none" stroke="midnightblue" d="M41.8358,-142.842C50.7445,-114.222 71.2854,-60.3241 107,-29 111.404,-25.1372 116.667,-22.031 122.113,-19.5415"/>
<polygon fill="midnightblue" stroke="midnightblue" points="38.4672,-141.891 38.9836,-152.474 45.1791,-143.879 38.4672,-141.891"/>
</g>
</g>
</svg>
