<?xml version="1.0" encoding="UTF-8" standalone="no"?>
<!DOCTYPE svg PUBLIC "-//W3C//DTD SVG 1.1//EN"
 "http://www.w3.org/Graphics/SVG/1.1/DTD/svg11.dtd">
<!-- Generated by graphviz version 2.38.0 (20140413.2041)
 -->
<!-- Title: TM_USART_Init Pages: 1 -->
<svg width="634pt" height="698pt"
 viewBox="0.00 0.00 634.00 697.91" xmlns="http://www.w3.org/2000/svg" xmlns:xlink="http://www.w3.org/1999/xlink">
<g id="graph0" class="graph" transform="scale(1 1) rotate(0) translate(4 693.911)">
<title>TM_USART_Init</title>
<polygon fill="white" stroke="none" points="-4,4 -4,-693.911 630,-693.911 630,4 -4,4"/>
<!-- Node1 -->
<g id="node1" class="node"><title>Node1</title>
<polygon fill="#bfbfbf" stroke="black" points="0,-354 0,-373 89,-373 89,-354 0,-354"/>
<text text-anchor="middle" x="44.5" y="-361" font-family="Helvetica,sans-Serif" font-size="10.00">TM_USART_Init</text>
</g>
<!-- Node2 -->
<g id="node2" class="node"><title>Node2</title>
<g id="a_node2"><a xlink:href="a00068.html#gab807a241fae0eae0d5434bae20a3569f" target="_top" xlink:title="Puts character to USART port. ">
<polygon fill="white" stroke="black" points="125,-354 125,-373 221,-373 221,-354 125,-354"/>
<text text-anchor="middle" x="173" y="-361" font-family="Helvetica,sans-Serif" font-size="10.00">TM_USART_Putc</text>
</a>
</g>
</g>
<!-- Node1&#45;&gt;Node2 -->
<g id="edge1" class="edge"><title>Node1&#45;&gt;Node2</title>
<path fill="none" stroke="midnightblue" d="M89.0341,-363.5C97.3558,-363.5 106.183,-363.5 114.856,-363.5"/>
<polygon fill="midnightblue" stroke="midnightblue" points="114.927,-367 124.927,-363.5 114.927,-360 114.927,-367"/>
</g>
<!-- Node3 -->
<g id="node3" class="node"><title>Node3</title>
<g id="a_node3"><a xlink:href="a00068.html#ga453aeaa886278333403ff4937c01dcf3" target="_top" xlink:title="Puts string to USART port. ">
<polygon fill="white" stroke="black" points="300,-468 300,-487 396,-487 396,-468 300,-468"/>
<text text-anchor="middle" x="348" y="-475" font-family="Helvetica,sans-Serif" font-size="10.00">TM_USART_Puts</text>
</a>
</g>
</g>
<!-- Node2&#45;&gt;Node3 -->
<g id="edge2" class="edge"><title>Node2&#45;&gt;Node3</title>
<path fill="none" stroke="midnightblue" d="M184.347,-373.228C198.374,-390.676 225.34,-425.383 257,-444.5 274.555,-455.1 296.804,-461.088 314.787,-465.526"/>
<polygon fill="midnightblue" stroke="midnightblue" points="314.002,-468.937 324.548,-467.916 315.668,-462.138 314.002,-468.937"/>
</g>
<!-- Node4 -->
<g id="node4" class="node"><title>Node4</title>
<g id="a_node4"><a xlink:href="a00068.html#gafbf9e2222953815c9f35cd46863dbc26" target="_top" xlink:title="Callback function for receive interrupt on USART1 in case you have enabled custom USART handler mode...">
<polygon fill="white" stroke="black" points="475,-658 475,-677 626,-677 626,-658 475,-658"/>
<text text-anchor="middle" x="550.5" y="-665" font-family="Helvetica,sans-Serif" font-size="10.00">TM_USART1_ReceiveHandler</text>
</a>
</g>
</g>
<!-- Node2&#45;&gt;Node4 -->
<g id="edge34" class="edge"><title>Node2&#45;&gt;Node4</title>
<path fill="none" stroke="midnightblue" d="M175.34,-373.051C181.891,-418.282 212.06,-610.263 257,-646.5 326.642,-702.655 438.489,-691.614 501.79,-679.167"/>
<polygon fill="midnightblue" stroke="midnightblue" points="502.807,-682.532 511.896,-677.087 501.395,-675.675 502.807,-682.532"/>
</g>
<!-- Node5 -->
<g id="node5" class="node"><title>Node5</title>
<g id="a_node5"><a xlink:href="a00068.html#ga21823124b3d98ea2085671f4a5af6017" target="_top" xlink:title="Callback function for receive interrupt on USART2 in case you have enabled custom USART handler mode...">
<polygon fill="white" stroke="black" points="475,-620 475,-639 626,-639 626,-620 475,-620"/>
<text text-anchor="middle" x="550.5" y="-627" font-family="Helvetica,sans-Serif" font-size="10.00">TM_USART2_ReceiveHandler</text>
</a>
</g>
</g>
<!-- Node2&#45;&gt;Node5 -->
<g id="edge35" class="edge"><title>Node2&#45;&gt;Node5</title>
<path fill="none" stroke="midnightblue" d="M173.744,-373.012C173.299,-410.827 177.229,-551.409 257,-612.5 328.537,-667.285 441.121,-654.393 503.696,-641.251"/>
<polygon fill="midnightblue" stroke="midnightblue" points="504.647,-644.625 513.666,-639.065 503.148,-637.788 504.647,-644.625"/>
</g>
<!-- Node6 -->
<g id="node6" class="node"><title>Node6</title>
<g id="a_node6"><a xlink:href="a00068.html#ga868eb8844f04487e714b63b016a93bae" target="_top" xlink:title="Callback function for receive interrupt on USART3 in case you have enabled custom USART handler mode...">
<polygon fill="white" stroke="black" points="475,-582 475,-601 626,-601 626,-582 475,-582"/>
<text text-anchor="middle" x="550.5" y="-589" font-family="Helvetica,sans-Serif" font-size="10.00">TM_USART3_ReceiveHandler</text>
</a>
</g>
</g>
<!-- Node2&#45;&gt;Node6 -->
<g id="edge36" class="edge"><title>Node2&#45;&gt;Node6</title>
<path fill="none" stroke="midnightblue" d="M173.986,-373.047C174.514,-409.118 181.775,-537.718 257,-590.5 289.308,-613.169 390.218,-608.678 464.512,-601.652"/>
<polygon fill="midnightblue" stroke="midnightblue" points="465.196,-605.102 474.809,-600.646 464.516,-598.135 465.196,-605.102"/>
</g>
<!-- Node7 -->
<g id="node7" class="node"><title>Node7</title>
<g id="a_node7"><a xlink:href="a00068.html#gada9d723469cf9d7d0ac11930b8e14f2a" target="_top" xlink:title="Callback function for receive interrupt on UART4 in case you have enabled custom USART handler mode...">
<polygon fill="white" stroke="black" points="478.5,-506 478.5,-525 622.5,-525 622.5,-506 478.5,-506"/>
<text text-anchor="middle" x="550.5" y="-513" font-family="Helvetica,sans-Serif" font-size="10.00">TM_UART4_ReceiveHandler</text>
</a>
</g>
</g>
<!-- Node2&#45;&gt;Node7 -->
<g id="edge37" class="edge"><title>Node2&#45;&gt;Node7</title>
<path fill="none" stroke="midnightblue" d="M176.644,-373.075C184.221,-398.474 208.644,-467.588 257,-496.5 328.68,-539.357 428.665,-535.074 491.206,-526.478"/>
<polygon fill="midnightblue" stroke="midnightblue" points="491.9,-529.914 501.291,-525.009 490.891,-522.987 491.9,-529.914"/>
</g>
<!-- Node8 -->
<g id="node8" class="node"><title>Node8</title>
<g id="a_node8"><a xlink:href="a00068.html#ga4338d265fa58103332ea234f63594b81" target="_top" xlink:title="Callback function for receive interrupt on UART5 in case you have enabled custom USART handler mode...">
<polygon fill="white" stroke="black" points="478.5,-392 478.5,-411 622.5,-411 622.5,-392 478.5,-392"/>
<text text-anchor="middle" x="550.5" y="-399" font-family="Helvetica,sans-Serif" font-size="10.00">TM_UART5_ReceiveHandler</text>
</a>
</g>
</g>
<!-- Node2&#45;&gt;Node8 -->
<g id="edge38" class="edge"><title>Node2&#45;&gt;Node8</title>
<path fill="none" stroke="midnightblue" d="M221.442,-367.283C274.507,-371.634 362.994,-379.246 439,-387.5 448.417,-388.523 458.276,-389.667 468.063,-390.848"/>
<polygon fill="midnightblue" stroke="midnightblue" points="467.863,-394.349 478.214,-392.089 468.713,-387.401 467.863,-394.349"/>
</g>
<!-- Node9 -->
<g id="node9" class="node"><title>Node9</title>
<g id="a_node9"><a xlink:href="a00068.html#ga65c1d6a6bcc2dbd40ea0e7cbf5e924de" target="_top" xlink:title="Callback function for receive interrupt on USART6 in case you have enabled custom USART handler mode...">
<polygon fill="white" stroke="black" points="475,-354 475,-373 626,-373 626,-354 475,-354"/>
<text text-anchor="middle" x="550.5" y="-361" font-family="Helvetica,sans-Serif" font-size="10.00">TM_USART6_ReceiveHandler</text>
</a>
</g>
</g>
<!-- Node2&#45;&gt;Node9 -->
<g id="edge39" class="edge"><title>Node2&#45;&gt;Node9</title>
<path fill="none" stroke="midnightblue" d="M221.23,-354.13C232.876,-352.209 245.35,-350.476 257,-349.5 337.607,-342.75 358.272,-344.406 439,-349.5 450.76,-350.242 463.183,-351.424 475.286,-352.795"/>
<polygon fill="midnightblue" stroke="midnightblue" points="475.015,-356.287 485.356,-353.985 475.836,-349.335 475.015,-356.287"/>
</g>
<!-- Node10 -->
<g id="node10" class="node"><title>Node10</title>
<g id="a_node10"><a xlink:href="a00068.html#ga461a5123a57231d34d51330f12ea39d2" target="_top" xlink:title="Callback function for receive interrupt on UART7 in case you have enabled custom USART handler mode...">
<polygon fill="white" stroke="black" points="478.5,-468 478.5,-487 622.5,-487 622.5,-468 478.5,-468"/>
<text text-anchor="middle" x="550.5" y="-475" font-family="Helvetica,sans-Serif" font-size="10.00">TM_UART7_ReceiveHandler</text>
</a>
</g>
</g>
<!-- Node2&#45;&gt;Node10 -->
<g id="edge40" class="edge"><title>Node2&#45;&gt;Node10</title>
<path fill="none" stroke="midnightblue" d="M185.274,-373.062C200.524,-385.483 229.045,-406.939 257,-418.5 277.974,-427.174 407.314,-451.623 486.818,-466.183"/>
<polygon fill="midnightblue" stroke="midnightblue" points="486.267,-469.64 496.734,-467.995 487.526,-462.754 486.267,-469.64"/>
</g>
<!-- Node11 -->
<g id="node11" class="node"><title>Node11</title>
<g id="a_node11"><a xlink:href="a00068.html#ga37fe7ffa31a540627af5ebfe93f2dcf5" target="_top" xlink:title="Callback function for receive interrupt on UART8 in case you have enabled custom USART handler mode...">
<polygon fill="white" stroke="black" points="478.5,-430 478.5,-449 622.5,-449 622.5,-430 478.5,-430"/>
<text text-anchor="middle" x="550.5" y="-437" font-family="Helvetica,sans-Serif" font-size="10.00">TM_UART8_ReceiveHandler</text>
</a>
</g>
</g>
<!-- Node2&#45;&gt;Node11 -->
<g id="edge41" class="edge"><title>Node2&#45;&gt;Node11</title>
<path fill="none" stroke="midnightblue" d="M204.153,-373.05C219.813,-377.798 239.323,-383.385 257,-387.5 330.368,-404.579 415.225,-419.095 474.582,-428.414"/>
<polygon fill="midnightblue" stroke="midnightblue" points="474.201,-431.897 484.62,-429.979 475.279,-424.981 474.201,-431.897"/>
</g>
<!-- Node12 -->
<g id="node12" class="node"><title>Node12</title>
<g id="a_node12"><a xlink:href="a00068.html#ga3bbfbfe88ae6dce27876b84798cfda62" target="_top" xlink:title="Sends data array to USART port. ">
<polygon fill="white" stroke="black" points="299,-278 299,-297 397,-297 397,-278 299,-278"/>
<text text-anchor="middle" x="348" y="-285" font-family="Helvetica,sans-Serif" font-size="10.00">TM_USART_Send</text>
</a>
</g>
</g>
<!-- Node2&#45;&gt;Node12 -->
<g id="edge12" class="edge"><title>Node2&#45;&gt;Node12</title>
<path fill="none" stroke="midnightblue" d="M186.555,-353.943C202.259,-342.401 230.334,-323.094 257,-311.5 267.667,-306.862 279.445,-302.936 290.867,-299.687"/>
<polygon fill="midnightblue" stroke="midnightblue" points="292.038,-302.996 300.777,-297.006 290.21,-296.239 292.038,-302.996"/>
</g>
<!-- Node13 -->
<g id="node13" class="node"><title>Node13</title>
<g id="a_node13"><a xlink:href="a00068.html#ga340391d061340e4635b4bbafea23602b" target="_top" xlink:title="Gets character from internal USART buffer. ">
<polygon fill="white" stroke="black" points="502,-221 502,-240 599,-240 599,-221 502,-221"/>
<text text-anchor="middle" x="550.5" y="-228" font-family="Helvetica,sans-Serif" font-size="10.00">TM_USART_Getc</text>
</a>
</g>
</g>
<!-- Node2&#45;&gt;Node13 -->
<g id="edge13" class="edge"><title>Node2&#45;&gt;Node13</title>
<path fill="none" stroke="midnightblue" d="M179.131,-353.929C190.311,-334.133 218.951,-288.842 257,-268.5 296.465,-247.402 418.383,-237.4 491.772,-233.177"/>
<polygon fill="midnightblue" stroke="midnightblue" points="492.001,-236.67 501.791,-232.619 491.612,-229.68 492.001,-236.67"/>
</g>
<!-- Node14 -->
<g id="node14" class="node"><title>Node14</title>
<g id="a_node14"><a xlink:href="a00068.html#gabb0a95fd20e5e2a894e658b64a29ee61" target="_top" xlink:title="Gets string from USART. ">
<polygon fill="white" stroke="black" points="299.5,-202 299.5,-221 396.5,-221 396.5,-202 299.5,-202"/>
<text text-anchor="middle" x="348" y="-209" font-family="Helvetica,sans-Serif" font-size="10.00">TM_USART_Gets</text>
</a>
</g>
</g>
<!-- Node2&#45;&gt;Node14 -->
<g id="edge14" class="edge"><title>Node2&#45;&gt;Node14</title>
<path fill="none" stroke="midnightblue" d="M177.471,-353.731C186.533,-329.678 213.281,-267.247 257,-235.5 266.513,-228.592 277.882,-223.672 289.285,-220.168"/>
<polygon fill="midnightblue" stroke="midnightblue" points="290.545,-223.452 299.269,-217.439 288.7,-216.7 290.545,-223.452"/>
</g>
<!-- Node15 -->
<g id="node15" class="node"><title>Node15</title>
<g id="a_node15"><a xlink:href="a00068.html#gabcee39f90c8c33ff3b1fb07e6496eef6" target="_top" xlink:title="Checks if internal USARTx buffer is empty. ">
<polygon fill="white" stroke="black" points="485,-173 485,-192 616,-192 616,-173 485,-173"/>
<text text-anchor="middle" x="550.5" y="-180" font-family="Helvetica,sans-Serif" font-size="10.00">TM_USART_BufferEmpty</text>
</a>
</g>
</g>
<!-- Node2&#45;&gt;Node15 -->
<g id="edge19" class="edge"><title>Node2&#45;&gt;Node15</title>
<path fill="none" stroke="midnightblue" d="M175.251,-353.89C179.745,-323.751 198.073,-230.817 257,-192.5 332.457,-143.435 443.536,-157.483 504.812,-170.794"/>
<polygon fill="midnightblue" stroke="midnightblue" points="504.042,-174.208 514.567,-172.999 505.585,-167.381 504.042,-174.208"/>
</g>
<!-- Node16 -->
<g id="node16" class="node"><title>Node16</title>
<g id="a_node16"><a xlink:href="a00068.html#ga5f708a330c9fc45032143a5777d9b6fd" target="_top" xlink:title="Checks if character c is available in internal buffer. ">
<polygon fill="white" stroke="black" points="482,-135 482,-154 619,-154 619,-135 482,-135"/>
<text text-anchor="middle" x="550.5" y="-142" font-family="Helvetica,sans-Serif" font-size="10.00">TM_USART_FindCharacter</text>
</a>
</g>
</g>
<!-- Node2&#45;&gt;Node16 -->
<g id="edge18" class="edge"><title>Node2&#45;&gt;Node16</title>
<path fill="none" stroke="midnightblue" d="M174.346,-353.769C176.156,-319.293 187.399,-202.414 257,-153.5 331.813,-100.924 446.008,-117.826 507.231,-132.501"/>
<polygon fill="midnightblue" stroke="midnightblue" points="506.399,-135.901 516.948,-134.919 508.089,-129.108 506.399,-135.901"/>
</g>
<!-- Node17 -->
<g id="node17" class="node"><title>Node17</title>
<g id="a_node17"><a xlink:href="a00068.html#ga0bf136abba24771c4a5a83ace52a76c1" target="_top" xlink:title="Checks if internal USARTx buffer is full. ">
<polygon fill="white" stroke="black" points="289,-88 289,-107 407,-107 407,-88 289,-88"/>
<text text-anchor="middle" x="348" y="-95" font-family="Helvetica,sans-Serif" font-size="10.00">TM_USART_BufferFull</text>
</a>
</g>
</g>
<!-- Node2&#45;&gt;Node17 -->
<g id="edge20" class="edge"><title>Node2&#45;&gt;Node17</title>
<path fill="none" stroke="midnightblue" d="M174.242,-353.953C175.695,-317.778 185.86,-187.84 257,-121.5 263.445,-115.49 271.223,-110.952 279.477,-107.53"/>
<polygon fill="midnightblue" stroke="midnightblue" points="280.725,-110.8 288.95,-104.123 278.356,-104.214 280.725,-110.8"/>
</g>
<!-- Node18 -->
<g id="node18" class="node"><title>Node18</title>
<g id="a_node18"><a xlink:href="a00068.html#ga6c8dfcc950305f511393240ea847b2ad" target="_top" xlink:title="Clears internal USART buffer. ">
<polygon fill="white" stroke="black" points="285.5,-50 285.5,-69 410.5,-69 410.5,-50 285.5,-50"/>
<text text-anchor="middle" x="348" y="-57" font-family="Helvetica,sans-Serif" font-size="10.00">TM_USART_ClearBuffer</text>
</a>
</g>
</g>
<!-- Node2&#45;&gt;Node18 -->
<g id="edge21" class="edge"><title>Node2&#45;&gt;Node18</title>
<path fill="none" stroke="midnightblue" d="M173.564,-353.871C172.3,-313.488 173.113,-156.294 257,-78.5 262.394,-73.4982 268.76,-69.6812 275.575,-66.7846"/>
<polygon fill="midnightblue" stroke="midnightblue" points="276.858,-70.0428 285.096,-63.3803 274.501,-63.4515 276.858,-70.0428"/>
</g>
<!-- Node19 -->
<g id="node19" class="node"><title>Node19</title>
<g id="a_node19"><a xlink:href="a00068.html#gae2f5677e3f69e09a943fb3124c997656" target="_top" xlink:title="Sets custom character for TM_USART_Gets() function to detect when string ends. ">
<polygon fill="white" stroke="black" points="272.5,-0.5 272.5,-30.5 423.5,-30.5 423.5,-0.5 272.5,-0.5"/>
<text text-anchor="start" x="280.5" y="-18.5" font-family="Helvetica,sans-Serif" font-size="10.00">TM_USART_SetCustomString</text>
<text text-anchor="middle" x="348" y="-7.5" font-family="Helvetica,sans-Serif" font-size="10.00">EndCharacter</text>
</a>
</g>
</g>
<!-- Node2&#45;&gt;Node19 -->
<g id="edge22" class="edge"><title>Node2&#45;&gt;Node19</title>
<path fill="none" stroke="midnightblue" d="M175.183,-353.81C181.315,-305.095 210.986,-87.4162 257,-40.5 259.076,-38.3835 261.314,-36.4417 263.681,-34.6606"/>
<polygon fill="midnightblue" stroke="midnightblue" points="265.654,-37.5531 272.176,-29.2031 261.871,-31.6638 265.654,-37.5531"/>
</g>
<!-- Node20 -->
<g id="node20" class="node"><title>Node20</title>
<g id="a_node20"><a xlink:href="a00068.html#ga5cf7d7f613f4241fb77321ef9554f46b" target="_top" xlink:title="Callback for custom pins initialization for USARTx. ">
<polygon fill="white" stroke="black" points="257,-544 257,-563 439,-563 439,-544 257,-544"/>
<text text-anchor="middle" x="348" y="-551" font-family="Helvetica,sans-Serif" font-size="10.00">TM_USART_InitCustomPinsCallback</text>
</a>
</g>
</g>
<!-- Node2&#45;&gt;Node20 -->
<g id="edge23" class="edge"><title>Node2&#45;&gt;Node20</title>
<path fill="none" stroke="midnightblue" d="M175.907,-373.103C182.088,-401.629 204.302,-486.546 257,-529.5 262.221,-533.756 268.127,-537.262 274.355,-540.15"/>
<polygon fill="midnightblue" stroke="midnightblue" points="273.088,-543.414 283.669,-543.955 275.735,-536.933 273.088,-543.414"/>
</g>
<!-- Node3&#45;&gt;Node2 -->
<g id="edge3" class="edge"><title>Node3&#45;&gt;Node2</title>
<path fill="none" stroke="midnightblue" d="M299.661,-478.724C285.272,-475.567 269.874,-470.274 257,-462.5 223.725,-442.408 195.635,-405.094 182.303,-382.136"/>
<polygon fill="midnightblue" stroke="midnightblue" points="185.347,-380.408 177.52,-373.268 179.186,-383.731 185.347,-380.408"/>
</g>
<!-- Node3&#45;&gt;Node4 -->
<g id="edge4" class="edge"><title>Node3&#45;&gt;Node4</title>
<path fill="none" stroke="midnightblue" d="M373.002,-487.049C393.338,-496.306 421.852,-512.223 439,-534.5 471.411,-576.603 436.389,-611.999 475,-648.5 476.655,-650.065 478.42,-651.505 480.274,-652.831"/>
<polygon fill="midnightblue" stroke="midnightblue" points="478.511,-655.854 488.898,-657.94 482.079,-649.832 478.511,-655.854"/>
</g>
<!-- Node3&#45;&gt;Node5 -->
<g id="edge5" class="edge"><title>Node3&#45;&gt;Node5</title>
<path fill="none" stroke="midnightblue" d="M371.103,-487.09C391.018,-496.662 420.005,-513.029 439,-534.5 463.766,-562.493 446.152,-586.736 475,-610.5 477.028,-612.171 479.185,-613.697 481.439,-615.091"/>
<polygon fill="midnightblue" stroke="midnightblue" points="480.06,-618.319 490.545,-619.838 483.296,-612.112 480.06,-618.319"/>
</g>
<!-- Node3&#45;&gt;Node6 -->
<g id="edge6" class="edge"><title>Node3&#45;&gt;Node6</title>
<path fill="none" stroke="midnightblue" d="M366.786,-487.018C385.599,-497.475 415.72,-515.345 439,-534.5 456.965,-549.282 454.94,-560.718 475,-572.5 478.69,-574.667 482.625,-576.59 486.684,-578.295"/>
<polygon fill="midnightblue" stroke="midnightblue" points="485.736,-581.677 496.328,-581.892 488.182,-575.118 485.736,-581.677"/>
</g>
<!-- Node3&#45;&gt;Node7 -->
<g id="edge7" class="edge"><title>Node3&#45;&gt;Node7</title>
<path fill="none" stroke="midnightblue" d="M396.008,-486.409C423.878,-491.691 459.481,-498.439 489.38,-504.106"/>
<polygon fill="midnightblue" stroke="midnightblue" points="488.804,-507.559 499.281,-505.982 490.108,-500.681 488.804,-507.559"/>
</g>
<!-- Node3&#45;&gt;Node8 -->
<g id="edge8" class="edge"><title>Node3&#45;&gt;Node8</title>
<path fill="none" stroke="midnightblue" d="M367.367,-467.957C391.536,-455.689 435.578,-434.324 475,-420.5 481.928,-418.071 489.318,-415.808 496.651,-413.753"/>
<polygon fill="midnightblue" stroke="midnightblue" points="497.822,-417.062 506.568,-411.083 496.002,-410.303 497.822,-417.062"/>
</g>
<!-- Node3&#45;&gt;Node9 -->
<g id="edge9" class="edge"><title>Node3&#45;&gt;Node9</title>
<path fill="none" stroke="midnightblue" d="M358.851,-467.829C378.945,-448.645 426.847,-405.634 475,-382.5 479.963,-380.116 485.261,-378.006 490.657,-376.145"/>
<polygon fill="midnightblue" stroke="midnightblue" points="491.944,-379.409 500.425,-373.058 489.835,-372.735 491.944,-379.409"/>
</g>
<!-- Node3&#45;&gt;Node10 -->
<g id="edge10" class="edge"><title>Node3&#45;&gt;Node10</title>
<path fill="none" stroke="midnightblue" d="M396.008,-477.5C417.575,-477.5 443.773,-477.5 468.375,-477.5"/>
<polygon fill="midnightblue" stroke="midnightblue" points="468.436,-481 478.436,-477.5 468.436,-474 468.436,-481"/>
</g>
<!-- Node3&#45;&gt;Node11 -->
<g id="edge11" class="edge"><title>Node3&#45;&gt;Node11</title>
<path fill="none" stroke="midnightblue" d="M396.008,-468.591C423.878,-463.309 459.481,-456.561 489.38,-450.894"/>
<polygon fill="midnightblue" stroke="midnightblue" points="490.108,-454.319 499.281,-449.018 488.804,-447.441 490.108,-454.319"/>
</g>
<!-- Node14&#45;&gt;Node13 -->
<g id="edge16" class="edge"><title>Node14&#45;&gt;Node13</title>
<path fill="none" stroke="midnightblue" d="M396.516,-216.003C425.127,-218.714 461.749,-222.184 491.989,-225.05"/>
<polygon fill="midnightblue" stroke="midnightblue" points="491.693,-228.538 501.978,-225.997 492.353,-221.569 491.693,-228.538"/>
</g>
<!-- Node14&#45;&gt;Node15 -->
<g id="edge15" class="edge"><title>Node14&#45;&gt;Node15</title>
<path fill="none" stroke="midnightblue" d="M396.516,-204.627C419.928,-201.241 448.704,-197.079 474.957,-193.282"/>
<polygon fill="midnightblue" stroke="midnightblue" points="475.483,-196.742 484.879,-191.847 474.481,-189.814 475.483,-196.742"/>
</g>
<!-- Node14&#45;&gt;Node16 -->
<g id="edge17" class="edge"><title>Node14&#45;&gt;Node16</title>
<path fill="none" stroke="midnightblue" d="M371.943,-201.851C396.986,-191.534 438.403,-175.096 475,-163.5 482.689,-161.064 490.9,-158.719 498.957,-156.558"/>
<polygon fill="midnightblue" stroke="midnightblue" points="499.874,-159.936 508.663,-154.02 498.103,-153.164 499.874,-159.936"/>
</g>
<!-- Node20&#45;&gt;Node4 -->
<g id="edge26" class="edge"><title>Node20&#45;&gt;Node4</title>
<path fill="none" stroke="midnightblue" d="M358.851,-563.171C378.945,-582.355 426.847,-625.366 475,-648.5 479.963,-650.884 485.261,-652.994 490.657,-654.855"/>
<polygon fill="midnightblue" stroke="midnightblue" points="489.835,-658.265 500.425,-657.942 491.944,-651.591 489.835,-658.265"/>
</g>
<!-- Node20&#45;&gt;Node5 -->
<g id="edge27" class="edge"><title>Node20&#45;&gt;Node5</title>
<path fill="none" stroke="midnightblue" d="M367.367,-563.043C391.536,-575.311 435.578,-596.676 475,-610.5 481.928,-612.929 489.318,-615.192 496.651,-617.247"/>
<polygon fill="midnightblue" stroke="midnightblue" points="496.002,-620.697 506.568,-619.917 497.822,-613.938 496.002,-620.697"/>
</g>
<!-- Node20&#45;&gt;Node6 -->
<g id="edge28" class="edge"><title>Node20&#45;&gt;Node6</title>
<path fill="none" stroke="midnightblue" d="M399.336,-563.04C426.626,-568.212 460.542,-574.64 489.233,-580.078"/>
<polygon fill="midnightblue" stroke="midnightblue" points="488.667,-583.533 499.143,-581.956 489.97,-576.655 488.667,-583.533"/>
</g>
<!-- Node20&#45;&gt;Node7 -->
<g id="edge29" class="edge"><title>Node20&#45;&gt;Node7</title>
<path fill="none" stroke="midnightblue" d="M399.336,-543.96C426.626,-538.788 460.542,-532.36 489.233,-526.922"/>
<polygon fill="midnightblue" stroke="midnightblue" points="489.97,-530.345 499.143,-525.044 488.667,-523.467 489.97,-530.345"/>
</g>
<!-- Node20&#45;&gt;Node8 -->
<g id="edge30" class="edge"><title>Node20&#45;&gt;Node8</title>
<path fill="none" stroke="midnightblue" d="M371.103,-543.91C391.018,-534.338 420.005,-517.971 439,-496.5 463.766,-468.507 446.152,-444.264 475,-420.5 477.028,-418.829 479.185,-417.303 481.439,-415.909"/>
<polygon fill="midnightblue" stroke="midnightblue" points="483.296,-418.888 490.545,-411.162 480.06,-412.681 483.296,-418.888"/>
</g>
<!-- Node20&#45;&gt;Node9 -->
<g id="edge31" class="edge"><title>Node20&#45;&gt;Node9</title>
<path fill="none" stroke="midnightblue" d="M373.002,-543.951C393.338,-534.694 421.852,-518.777 439,-496.5 471.411,-454.397 436.389,-419.001 475,-382.5 476.655,-380.935 478.42,-379.495 480.274,-378.169"/>
<polygon fill="midnightblue" stroke="midnightblue" points="482.079,-381.168 488.898,-373.06 478.511,-375.146 482.079,-381.168"/>
</g>
<!-- Node20&#45;&gt;Node10 -->
<g id="edge32" class="edge"><title>Node20&#45;&gt;Node10</title>
<path fill="none" stroke="midnightblue" d="M367.367,-543.957C391.536,-531.689 435.578,-510.324 475,-496.5 481.928,-494.071 489.318,-491.808 496.651,-489.753"/>
<polygon fill="midnightblue" stroke="midnightblue" points="497.822,-493.062 506.568,-487.083 496.002,-486.303 497.822,-493.062"/>
</g>
<!-- Node20&#45;&gt;Node11 -->
<g id="edge33" class="edge"><title>Node20&#45;&gt;Node11</title>
<path fill="none" stroke="midnightblue" d="M366.786,-543.982C385.599,-533.525 415.72,-515.655 439,-496.5 456.965,-481.718 454.94,-470.282 475,-458.5 478.69,-456.333 482.625,-454.41 486.684,-452.705"/>
<polygon fill="midnightblue" stroke="midnightblue" points="488.182,-455.882 496.328,-449.108 485.736,-449.323 488.182,-455.882"/>
</g>
<!-- Node20&#45;&gt;Node20 -->
<g id="edge25" class="edge"><title>Node20&#45;&gt;Node20</title>
<path fill="none" stroke="midnightblue" d="M321.182,-563.257C308.135,-572.065 317.074,-581.5 348,-581.5 368.778,-581.5 379.632,-577.241 380.56,-571.775"/>
<polygon fill="midnightblue" stroke="midnightblue" points="383.31,-569.593 374.818,-563.257 377.506,-573.505 383.31,-569.593"/>
</g>
<!-- Node21 -->
<g id="node21" class="node"><title>Node21</title>
<g id="a_node21"><a xlink:href="a00090.html#gabc8eafcb23a81935b70b9046f266f5aa" target="_top" xlink:title="Initialize GPIO pins for alternate port operation. ">
<polygon fill="white" stroke="black" points="490.5,-544 490.5,-563 610.5,-563 610.5,-544 490.5,-544"/>
<text text-anchor="middle" x="550.5" y="-551" font-family="Helvetica,sans-Serif" font-size="10.00">MD_GPIO_InitAlternate</text>
</a>
</g>
</g>
<!-- Node20&#45;&gt;Node21 -->
<g id="edge24" class="edge"><title>Node20&#45;&gt;Node21</title>
<path fill="none" stroke="midnightblue" d="M439.279,-553.5C452.976,-553.5 466.923,-553.5 480.085,-553.5"/>
<polygon fill="midnightblue" stroke="midnightblue" points="480.452,-557 490.452,-553.5 480.452,-550 480.452,-557"/>
</g>
</g>
</svg>
