<?xml version="1.0" encoding="UTF-8" standalone="no"?>
<!DOCTYPE svg PUBLIC "-//W3C//DTD SVG 1.1//EN"
 "http://www.w3.org/Graphics/SVG/1.1/DTD/svg11.dtd">
<!-- Generated by graphviz version 2.38.0 (20140413.2041)
 -->
<!-- Title: TM_USART_Gets Pages: 1 -->
<svg width="443pt" height="94pt"
 viewBox="0.00 0.00 443.00 94.00" xmlns="http://www.w3.org/2000/svg" xmlns:xlink="http://www.w3.org/1999/xlink">
<g id="graph0" class="graph" transform="scale(1 1) rotate(0) translate(4 90)">
<title>TM_USART_Gets</title>
<polygon fill="white" stroke="none" points="-4,4 -4,-90 439,-90 439,4 -4,4"/>
<!-- Node1 -->
<g id="node1" class="node"><title>Node1</title>
<polygon fill="#bfbfbf" stroke="black" points="0,-42.5 0,-61.5 97,-61.5 97,-42.5 0,-42.5"/>
<text text-anchor="middle" x="48.5" y="-49.5" font-family="Helvetica,sans-Serif" font-size="10.00">TM_USART_Gets</text>
</g>
<!-- Node2 -->
<g id="node2" class="node"><title>Node2</title>
<g id="a_node2"><a xlink:href="a00117.html#ga4af381bf92ce31395c19b6652b930b7a" target="_top" xlink:title="Fast console command parser. ">
<polygon fill="white" stroke="black" points="135,-66.5 135,-85.5 227,-85.5 227,-66.5 135,-66.5"/>
<text text-anchor="middle" x="181" y="-73.5" font-family="Helvetica,sans-Serif" font-size="10.00">fastConsoleCase</text>
</a>
</g>
</g>
<!-- Node1&#45;&gt;Node2 -->
<g id="edge1" class="edge"><title>Node1&#45;&gt;Node2</title>
<path fill="none" stroke="midnightblue" d="M107.241,-62.6191C116.461,-64.3146 125.883,-66.0474 134.758,-67.6796"/>
<polygon fill="midnightblue" stroke="midnightblue" points="107.821,-59.167 97.3524,-60.8004 106.554,-66.0515 107.821,-59.167"/>
</g>
<!-- Node4 -->
<g id="node4" class="node"><title>Node4</title>
<g id="a_node4"><a xlink:href="a00068.html#gab807a241fae0eae0d5434bae20a3569f" target="_top" xlink:title="Puts character to USART port. ">
<polygon fill="white" stroke="black" points="133,-19.5 133,-38.5 229,-38.5 229,-19.5 133,-19.5"/>
<text text-anchor="middle" x="181" y="-26.5" font-family="Helvetica,sans-Serif" font-size="10.00">TM_USART_Putc</text>
</a>
</g>
</g>
<!-- Node1&#45;&gt;Node4 -->
<g id="edge3" class="edge"><title>Node1&#45;&gt;Node4</title>
<path fill="none" stroke="midnightblue" d="M107.476,-41.782C115.873,-40.3021 124.433,-38.7935 132.589,-37.3559"/>
<polygon fill="midnightblue" stroke="midnightblue" points="106.593,-38.3836 97.3524,-43.5662 107.808,-45.2773 106.593,-38.3836"/>
</g>
<!-- Node3 -->
<g id="node3" class="node"><title>Node3</title>
<g id="a_node3"><a xlink:href="a00144.html#ga840291bc02cba5474a4cb46a9b9566fe" target="_top" xlink:title="Main function entry. ">
<polygon fill="white" stroke="black" points="397,-57.5 397,-76.5 435,-76.5 435,-57.5 397,-57.5"/>
<text text-anchor="middle" x="416" y="-64.5" font-family="Helvetica,sans-Serif" font-size="10.00">main</text>
</a>
</g>
</g>
<!-- Node2&#45;&gt;Node3 -->
<g id="edge2" class="edge"><title>Node2&#45;&gt;Node3</title>
<path fill="none" stroke="midnightblue" d="M237.215,-73.8672C288.878,-71.8717 363.019,-69.0078 396.884,-67.6997"/>
<polygon fill="midnightblue" stroke="midnightblue" points="237.058,-70.3706 227.201,-74.254 237.329,-77.3654 237.058,-70.3706"/>
</g>
<!-- Node5 -->
<g id="node5" class="node"><title>Node5</title>
<g id="a_node5"><a xlink:href="a00068.html#ga70bed9fb6612cb572a8c10e148404344" target="_top" xlink:title="Initializes USARTx peripheral and corresponding pins. ">
<polygon fill="white" stroke="black" points="268.5,-38.5 268.5,-57.5 357.5,-57.5 357.5,-38.5 268.5,-38.5"/>
<text text-anchor="middle" x="313" y="-45.5" font-family="Helvetica,sans-Serif" font-size="10.00">TM_USART_Init</text>
</a>
</g>
</g>
<!-- Node4&#45;&gt;Node5 -->
<g id="edge4" class="edge"><title>Node4&#45;&gt;Node5</title>
<path fill="none" stroke="midnightblue" d="M239.343,-37.3808C249.096,-38.8063 259.082,-40.2658 268.407,-41.6287"/>
<polygon fill="midnightblue" stroke="midnightblue" points="239.702,-33.8962 229.301,-35.9132 238.689,-40.8226 239.702,-33.8962"/>
</g>
<!-- Node6 -->
<g id="node6" class="node"><title>Node6</title>
<g id="a_node6"><a xlink:href="a00068.html#ga453aeaa886278333403ff4937c01dcf3" target="_top" xlink:title="Puts string to USART port. ">
<polygon fill="white" stroke="black" points="265,-0.5 265,-19.5 361,-19.5 361,-0.5 265,-0.5"/>
<text text-anchor="middle" x="313" y="-7.5" font-family="Helvetica,sans-Serif" font-size="10.00">TM_USART_Puts</text>
</a>
</g>
</g>
<!-- Node4&#45;&gt;Node6 -->
<g id="edge6" class="edge"><title>Node4&#45;&gt;Node6</title>
<path fill="none" stroke="midnightblue" d="M218.893,-17.4534C233.184,-14.7201 249.72,-12.182 264.856,-10.372"/>
<polygon fill="midnightblue" stroke="midnightblue" points="218.042,-14.0546 208.936,-19.4705 219.432,-20.9152 218.042,-14.0546"/>
</g>
<!-- Node5&#45;&gt;Node3 -->
<g id="edge5" class="edge"><title>Node5&#45;&gt;Node3</title>
<path fill="none" stroke="midnightblue" d="M367.767,-58.1147C378.256,-60.0878 388.556,-62.0254 396.848,-63.5852"/>
<polygon fill="midnightblue" stroke="midnightblue" points="368.187,-54.6323 357.713,-56.2232 366.893,-61.5117 368.187,-54.6323"/>
</g>
<!-- Node6&#45;&gt;Node4 -->
<g id="edge7" class="edge"><title>Node6&#45;&gt;Node4</title>
<path fill="none" stroke="midnightblue" d="M275.047,-21.558C260.819,-24.2775 244.373,-26.803 229.301,-28.6093"/>
<polygon fill="midnightblue" stroke="midnightblue" points="275.857,-24.9652 284.964,-19.551 274.468,-18.1043 275.857,-24.9652"/>
</g>
</g>
</svg>
