<?xml version="1.0" encoding="UTF-8" standalone="no"?>
<!DOCTYPE svg PUBLIC "-//W3C//DTD SVG 1.1//EN"
 "http://www.w3.org/Graphics/SVG/1.1/DTD/svg11.dtd">
<!-- Generated by graphviz version 2.38.0 (20140413.2041)
 -->
<!-- Title: CRYP_KeyStructInit Pages: 1 -->
<svg width="255pt" height="332pt"
 viewBox="0.00 0.00 255.00 332.00" xmlns="http://www.w3.org/2000/svg" xmlns:xlink="http://www.w3.org/1999/xlink">
<g id="graph0" class="graph" transform="scale(1 1) rotate(0) translate(4 328)">
<title>CRYP_KeyStructInit</title>
<polygon fill="white" stroke="none" points="-4,4 -4,-328 251,-328 251,4 -4,4"/>
<!-- Node1 -->
<g id="node1" class="node"><title>Node1</title>
<polygon fill="#bfbfbf" stroke="black" points="0,-152.5 0,-171.5 107,-171.5 107,-152.5 0,-152.5"/>
<text text-anchor="middle" x="53.5" y="-159.5" font-family="Helvetica,sans-Serif" font-size="10.00">CRYP_KeyStructInit</text>
</g>
<!-- Node2 -->
<g id="node2" class="node"><title>Node2</title>
<g id="a_node2"><a xlink:href="a00571.html#ga79ff82ece0e9620dc86d6e57abe639e1" target="_top" xlink:title="Encrypt and decrypt using AES in ECB Mode. ">
<polygon fill="white" stroke="black" points="146.5,-304.5 146.5,-323.5 243.5,-323.5 243.5,-304.5 146.5,-304.5"/>
<text text-anchor="middle" x="195" y="-311.5" font-family="Helvetica,sans-Serif" font-size="10.00">CRYP_AES_ECB</text>
</a>
</g>
</g>
<!-- Node1&#45;&gt;Node2 -->
<g id="edge1" class="edge"><title>Node1&#45;&gt;Node2</title>
<path fill="none" stroke="midnightblue" d="M62.3699,-180.784C75.22,-209.309 103.313,-263.549 143,-295 147.813,-298.815 153.47,-301.917 159.232,-304.423"/>
<polygon fill="midnightblue" stroke="midnightblue" points="65.5387,-179.294 58.3321,-171.528 59.1226,-182.093 65.5387,-179.294"/>
</g>
<!-- Node3 -->
<g id="node3" class="node"><title>Node3</title>
<g id="a_node3"><a xlink:href="a00571.html#gaa43eadf707257710f6a53b3295b39d70" target="_top" xlink:title="Encrypt and decrypt using AES in CBC Mode. ">
<polygon fill="white" stroke="black" points="146,-266.5 146,-285.5 244,-285.5 244,-266.5 146,-266.5"/>
<text text-anchor="middle" x="195" y="-273.5" font-family="Helvetica,sans-Serif" font-size="10.00">CRYP_AES_CBC</text>
</a>
</g>
</g>
<!-- Node1&#45;&gt;Node3 -->
<g id="edge2" class="edge"><title>Node1&#45;&gt;Node3</title>
<path fill="none" stroke="midnightblue" d="M67.0317,-179.849C82.6456,-200.913 111.178,-235.753 143,-257 148.579,-260.725 154.987,-263.846 161.334,-266.41"/>
<polygon fill="midnightblue" stroke="midnightblue" points="69.861,-177.789 61.1591,-171.745 64.1927,-181.896 69.861,-177.789"/>
</g>
<!-- Node4 -->
<g id="node4" class="node"><title>Node4</title>
<g id="a_node4"><a xlink:href="a00571.html#ga2f36aea6e94452e5e5e938547fb89d4c" target="_top" xlink:title="Encrypt and decrypt using AES in CTR Mode. ">
<polygon fill="white" stroke="black" points="146.5,-228.5 146.5,-247.5 243.5,-247.5 243.5,-228.5 146.5,-228.5"/>
<text text-anchor="middle" x="195" y="-235.5" font-family="Helvetica,sans-Serif" font-size="10.00">CRYP_AES_CTR</text>
</a>
</g>
</g>
<!-- Node1&#45;&gt;Node4 -->
<g id="edge3" class="edge"><title>Node1&#45;&gt;Node4</title>
<path fill="none" stroke="midnightblue" d="M75.7922,-177.576C93.2532,-189.885 118.928,-206.941 143,-219 149.927,-222.47 157.649,-225.667 164.946,-228.409"/>
<polygon fill="midnightblue" stroke="midnightblue" points="77.6332,-174.59 67.4619,-171.624 73.5636,-180.286 77.6332,-174.59"/>
</g>
<!-- Node5 -->
<g id="node5" class="node"><title>Node5</title>
<g id="a_node5"><a xlink:href="a00571.html#ga74b48d820c5c360eb303fc2fb78af055" target="_top" xlink:title="Encrypt and decrypt using AES in GCM Mode. The GCM and CCM modes are available only on STM32F437x Dev...">
<polygon fill="white" stroke="black" points="145.5,-190.5 145.5,-209.5 244.5,-209.5 244.5,-190.5 145.5,-190.5"/>
<text text-anchor="middle" x="195" y="-197.5" font-family="Helvetica,sans-Serif" font-size="10.00">CRYP_AES_GCM</text>
</a>
</g>
</g>
<!-- Node1&#45;&gt;Node5 -->
<g id="edge4" class="edge"><title>Node1&#45;&gt;Node5</title>
<path fill="none" stroke="midnightblue" d="M99.4564,-174.246C118.685,-179.484 140.803,-185.509 158.81,-190.414"/>
<polygon fill="midnightblue" stroke="midnightblue" points="100.27,-170.84 89.7017,-171.589 98.4303,-177.594 100.27,-170.84"/>
</g>
<!-- Node6 -->
<g id="node6" class="node"><title>Node6</title>
<g id="a_node6"><a xlink:href="a00571.html#ga9d9f5c74b634b85b7aa8c2a2ea0bcd51" target="_top" xlink:title="Encrypt and decrypt using AES in CCM Mode. The GCM and CCM modes are available only on STM32F437x Dev...">
<polygon fill="white" stroke="black" points="145.5,-152.5 145.5,-171.5 244.5,-171.5 244.5,-152.5 145.5,-152.5"/>
<text text-anchor="middle" x="195" y="-159.5" font-family="Helvetica,sans-Serif" font-size="10.00">CRYP_AES_CCM</text>
</a>
</g>
</g>
<!-- Node1&#45;&gt;Node6 -->
<g id="edge5" class="edge"><title>Node1&#45;&gt;Node6</title>
<path fill="none" stroke="midnightblue" d="M117.331,-162C126.723,-162 136.283,-162 145.323,-162"/>
<polygon fill="midnightblue" stroke="midnightblue" points="117.239,-158.5 107.239,-162 117.239,-165.5 117.239,-158.5"/>
</g>
<!-- Node7 -->
<g id="node7" class="node"><title>Node7</title>
<g id="a_node7"><a xlink:href="a00572.html#ga3b96b7608b39197209abed5f5845f590" target="_top" xlink:title="Encrypt and decrypt using DES in ECB Mode. ">
<polygon fill="white" stroke="black" points="146,-114.5 146,-133.5 244,-133.5 244,-114.5 146,-114.5"/>
<text text-anchor="middle" x="195" y="-121.5" font-family="Helvetica,sans-Serif" font-size="10.00">CRYP_DES_ECB</text>
</a>
</g>
</g>
<!-- Node1&#45;&gt;Node7 -->
<g id="edge6" class="edge"><title>Node1&#45;&gt;Node7</title>
<path fill="none" stroke="midnightblue" d="M99.4564,-149.754C118.685,-144.516 140.803,-138.491 158.81,-133.586"/>
<polygon fill="midnightblue" stroke="midnightblue" points="98.4303,-146.406 89.7017,-152.411 100.27,-153.16 98.4303,-146.406"/>
</g>
<!-- Node8 -->
<g id="node8" class="node"><title>Node8</title>
<g id="a_node8"><a xlink:href="a00572.html#ga75724391a8560c557e1152b805f5cad1" target="_top" xlink:title="Encrypt and decrypt using DES in CBC Mode. ">
<polygon fill="white" stroke="black" points="146,-76.5 146,-95.5 244,-95.5 244,-76.5 146,-76.5"/>
<text text-anchor="middle" x="195" y="-83.5" font-family="Helvetica,sans-Serif" font-size="10.00">CRYP_DES_CBC</text>
</a>
</g>
</g>
<!-- Node1&#45;&gt;Node8 -->
<g id="edge7" class="edge"><title>Node1&#45;&gt;Node8</title>
<path fill="none" stroke="midnightblue" d="M75.7922,-146.424C93.2532,-134.115 118.928,-117.059 143,-105 149.927,-101.53 157.649,-98.3333 164.946,-95.5912"/>
<polygon fill="midnightblue" stroke="midnightblue" points="73.5636,-143.714 67.4619,-152.376 77.6332,-149.41 73.5636,-143.714"/>
</g>
<!-- Node9 -->
<g id="node9" class="node"><title>Node9</title>
<g id="a_node9"><a xlink:href="a00573.html#ga17c03ab4f0566fcbc3dd8c052e6f9886" target="_top" xlink:title="Encrypt and decrypt using TDES in ECB Mode. ">
<polygon fill="white" stroke="black" points="143,-38.5 143,-57.5 247,-57.5 247,-38.5 143,-38.5"/>
<text text-anchor="middle" x="195" y="-45.5" font-family="Helvetica,sans-Serif" font-size="10.00">CRYP_TDES_ECB</text>
</a>
</g>
</g>
<!-- Node1&#45;&gt;Node9 -->
<g id="edge8" class="edge"><title>Node1&#45;&gt;Node9</title>
<path fill="none" stroke="midnightblue" d="M67.0317,-144.151C82.6456,-123.087 111.178,-88.2472 143,-67 148.579,-63.2748 154.987,-60.1545 161.334,-57.59"/>
<polygon fill="midnightblue" stroke="midnightblue" points="64.1927,-142.104 61.1591,-152.255 69.861,-146.211 64.1927,-142.104"/>
</g>
<!-- Node10 -->
<g id="node10" class="node"><title>Node10</title>
<g id="a_node10"><a xlink:href="a00573.html#gabe52a368c4882450c1e82f16bc1eb686" target="_top" xlink:title="Encrypt and decrypt using TDES in CBC Mode. ">
<polygon fill="white" stroke="black" points="143,-0.5 143,-19.5 247,-19.5 247,-0.5 143,-0.5"/>
<text text-anchor="middle" x="195" y="-7.5" font-family="Helvetica,sans-Serif" font-size="10.00">CRYP_TDES_CBC</text>
</a>
</g>
</g>
<!-- Node1&#45;&gt;Node10 -->
<g id="edge9" class="edge"><title>Node1&#45;&gt;Node10</title>
<path fill="none" stroke="midnightblue" d="M62.3699,-143.216C75.22,-114.691 103.313,-60.4511 143,-29 147.813,-25.1855 153.47,-22.0831 159.232,-19.5772"/>
<polygon fill="midnightblue" stroke="midnightblue" points="59.1226,-141.907 58.3321,-152.472 65.5387,-144.706 59.1226,-141.907"/>
</g>
</g>
</svg>
