<?xml version="1.0" encoding="UTF-8" standalone="no"?>
<!DOCTYPE svg PUBLIC "-//W3C//DTD SVG 1.1//EN"
 "http://www.w3.org/Graphics/SVG/1.1/DTD/svg11.dtd">
<!-- Generated by graphviz version 2.38.0 (20140413.2041)
 -->
<!-- Title: DMA2_Stream0_IRQHandler Pages: 1 -->
<svg width="319pt" height="78pt"
 viewBox="0.00 0.00 319.00 77.50" xmlns="http://www.w3.org/2000/svg" xmlns:xlink="http://www.w3.org/1999/xlink">
<g id="graph0" class="graph" transform="scale(1 1) rotate(0) translate(4 73.5)">
<title>DMA2_Stream0_IRQHandler</title>
<polygon fill="white" stroke="none" points="-4,4 -4,-73.5 315,-73.5 315,4 -4,4"/>
<!-- Node1 -->
<g id="node1" class="node"><title>Node1</title>
<polygon fill="#bfbfbf" stroke="black" points="0,-28 0,-47 143,-47 143,-28 0,-28"/>
<text text-anchor="middle" x="71.5" y="-35" font-family="Helvetica,sans-Serif" font-size="10.00">DMA2_Stream0_IRQHandler</text>
</g>
<!-- Node2 -->
<g id="node2" class="node"><title>Node2</title>
<g id="a_node2"><a xlink:href="a00094.html#gad1ffe8d2675c42ec8bcd3ff6b5ccdded" target="_top" xlink:title="Safely update actuator control signals. ">
<polygon fill="white" stroke="black" points="199.5,-50 199.5,-69 290.5,-69 290.5,-50 199.5,-50"/>
<text text-anchor="middle" x="245" y="-57" font-family="Helvetica,sans-Serif" font-size="10.00">updateActuator_f</text>
</a>
</g>
</g>
<!-- Node1&#45;&gt;Node2 -->
<g id="edge1" class="edge"><title>Node1&#45;&gt;Node2</title>
<path fill="none" stroke="midnightblue" d="M143.246,-46.5753C158.689,-48.5563 174.803,-50.6234 189.498,-52.5085"/>
<polygon fill="midnightblue" stroke="midnightblue" points="189.055,-55.9803 199.42,-53.7812 189.946,-49.0372 189.055,-55.9803"/>
</g>
<!-- Node3 -->
<g id="node3" class="node"><title>Node3</title>
<g id="a_node3"><a xlink:href="a00099.html#gaee2322aa05f1f3ad93c480e4ef565ad6" target="_top" xlink:title="Safe state function. ">
<polygon fill="white" stroke="black" points="179,-0.5 179,-30.5 311,-30.5 311,-0.5 179,-0.5"/>
<text text-anchor="start" x="187" y="-18.5" font-family="Helvetica,sans-Serif" font-size="10.00">DAC_SetDualChanSigned</text>
<text text-anchor="middle" x="245" y="-7.5" font-family="Helvetica,sans-Serif" font-size="10.00">_Tripped</text>
</a>
</g>
</g>
<!-- Node1&#45;&gt;Node3 -->
<g id="edge2" class="edge"><title>Node1&#45;&gt;Node3</title>
<path fill="none" stroke="midnightblue" d="M143.246,-28.4247C151.734,-27.3358 160.426,-26.2209 168.973,-25.1245"/>
<polygon fill="midnightblue" stroke="midnightblue" points="169.445,-28.5926 178.919,-23.8486 168.555,-21.6495 169.445,-28.5926"/>
</g>
</g>
</svg>
