<?xml version="1.0" encoding="UTF-8" standalone="no"?>
<!DOCTYPE svg PUBLIC "-//W3C//DTD SVG 1.1//EN"
 "http://www.w3.org/Graphics/SVG/1.1/DTD/svg11.dtd">
<!-- Generated by graphviz version 2.38.0 (20140413.2041)
 -->
<!-- Title: HMAC_SHA1 Pages: 1 -->
<svg width="466pt" height="256pt"
 viewBox="0.00 0.00 466.00 256.00" xmlns="http://www.w3.org/2000/svg" xmlns:xlink="http://www.w3.org/1999/xlink">
<g id="graph0" class="graph" transform="scale(1 1) rotate(0) translate(4 252)">
<title>HMAC_SHA1</title>
<polygon fill="white" stroke="none" points="-4,4 -4,-252 462,-252 462,4 -4,4"/>
<!-- Node1 -->
<g id="node1" class="node"><title>Node1</title>
<polygon fill="#bfbfbf" stroke="black" points="0,-114.5 0,-133.5 78,-133.5 78,-114.5 0,-114.5"/>
<text text-anchor="middle" x="39" y="-121.5" font-family="Helvetica,sans-Serif" font-size="10.00">HMAC_SHA1</text>
</g>
<!-- Node2 -->
<g id="node2" class="node"><title>Node2</title>
<g id="a_node2"><a xlink:href="a00103.html#ga88717fe3a4f557182841a958e1dcd9c7" target="_top" xlink:title="De&#45;initializes the HASH peripheral registers to their default reset values. ">
<polygon fill="white" stroke="black" points="156.5,-228.5 156.5,-247.5 233.5,-247.5 233.5,-228.5 156.5,-228.5"/>
<text text-anchor="middle" x="195" y="-235.5" font-family="Helvetica,sans-Serif" font-size="10.00">HASH_DeInit</text>
</a>
</g>
</g>
<!-- Node1&#45;&gt;Node2 -->
<g id="edge1" class="edge"><title>Node1&#45;&gt;Node2</title>
<path fill="none" stroke="midnightblue" d="M44.6083,-133.559C54.4631,-152.93 79.5264,-196.85 114,-219 123.753,-225.267 135.369,-229.47 146.685,-232.287"/>
<polygon fill="midnightblue" stroke="midnightblue" points="145.981,-235.716 156.497,-234.424 147.47,-228.876 145.981,-235.716"/>
</g>
<!-- Node4 -->
<g id="node4" class="node"><title>Node4</title>
<g id="a_node4"><a xlink:href="a00103.html#ga4a7d33f0954ac0463a6cda81121635cf" target="_top" xlink:title="Initializes the HASH peripheral according to the specified parameters in the HASH_InitStruct structur...">
<polygon fill="white" stroke="black" points="163,-190.5 163,-209.5 227,-209.5 227,-190.5 163,-190.5"/>
<text text-anchor="middle" x="195" y="-197.5" font-family="Helvetica,sans-Serif" font-size="10.00">HASH_Init</text>
</a>
</g>
</g>
<!-- Node1&#45;&gt;Node4 -->
<g id="edge3" class="edge"><title>Node1&#45;&gt;Node4</title>
<path fill="none" stroke="midnightblue" d="M49.6149,-133.623C62.9206,-146.384 88.2355,-168.72 114,-181 126.1,-186.767 140.087,-190.86 152.948,-193.73"/>
<polygon fill="midnightblue" stroke="midnightblue" points="152.465,-197.204 162.964,-195.779 153.868,-190.346 152.465,-197.204"/>
</g>
<!-- Node5 -->
<g id="node5" class="node"><title>Node5</title>
<g id="a_node5"><a xlink:href="a00103.html#gac4d1fa51c9240ad0287b371564b5d2a6" target="_top" xlink:title="Configure the Number of valid bits in last word of the message. ">
<polygon fill="white" stroke="black" points="114,-152.5 114,-171.5 276,-171.5 276,-152.5 114,-152.5"/>
<text text-anchor="middle" x="195" y="-159.5" font-family="Helvetica,sans-Serif" font-size="10.00">HASH_SetLastWordValidBitsNbr</text>
</a>
</g>
</g>
<!-- Node1&#45;&gt;Node5 -->
<g id="edge4" class="edge"><title>Node1&#45;&gt;Node5</title>
<path fill="none" stroke="midnightblue" d="M76.4765,-133.506C88.4229,-136.581 101.767,-139.977 114,-143 123.463,-145.338 133.569,-147.781 143.302,-150.106"/>
<polygon fill="midnightblue" stroke="midnightblue" points="142.729,-153.567 153.267,-152.477 144.349,-146.757 142.729,-153.567"/>
</g>
<!-- Node6 -->
<g id="node6" class="node"><title>Node6</title>
<g id="a_node6"><a xlink:href="a00103.html#ga9c4c0cebdeb1ce2631dd2eeab82107ef" target="_top" xlink:title="Writes data in the Data Input FIFO. ">
<polygon fill="white" stroke="black" points="155,-114.5 155,-133.5 235,-133.5 235,-114.5 155,-114.5"/>
<text text-anchor="middle" x="195" y="-121.5" font-family="Helvetica,sans-Serif" font-size="10.00">HASH_DataIn</text>
</a>
</g>
</g>
<!-- Node1&#45;&gt;Node6 -->
<g id="edge5" class="edge"><title>Node1&#45;&gt;Node6</title>
<path fill="none" stroke="midnightblue" d="M78.0674,-124C98.1221,-124 122.958,-124 144.492,-124"/>
<polygon fill="midnightblue" stroke="midnightblue" points="144.763,-127.5 154.763,-124 144.763,-120.5 144.763,-127.5"/>
</g>
<!-- Node7 -->
<g id="node7" class="node"><title>Node7</title>
<g id="a_node7"><a xlink:href="a00103.html#ga84ac2b64179fd37b75c4d5f665126e93" target="_top" xlink:title="Starts the message padding and calculation of the final message. ">
<polygon fill="white" stroke="black" points="145,-76.5 145,-95.5 245,-95.5 245,-76.5 145,-76.5"/>
<text text-anchor="middle" x="195" y="-83.5" font-family="Helvetica,sans-Serif" font-size="10.00">HASH_StartDigest</text>
</a>
</g>
</g>
<!-- Node1&#45;&gt;Node7 -->
<g id="edge6" class="edge"><title>Node1&#45;&gt;Node7</title>
<path fill="none" stroke="midnightblue" d="M76.4765,-114.494C88.4229,-111.419 101.767,-108.023 114,-105 123.463,-102.662 133.569,-100.219 143.302,-97.8941"/>
<polygon fill="midnightblue" stroke="midnightblue" points="144.349,-101.243 153.267,-95.5232 142.729,-94.4329 144.349,-101.243"/>
</g>
<!-- Node8 -->
<g id="node8" class="node"><title>Node8</title>
<g id="a_node8"><a xlink:href="a00103.html#ga826f7bbe15d07c123446cc3d30959f72" target="_top" xlink:title="Checks whether the specified HASH flag is set or not. ">
<polygon fill="white" stroke="black" points="138.5,-38.5 138.5,-57.5 251.5,-57.5 251.5,-38.5 138.5,-38.5"/>
<text text-anchor="middle" x="195" y="-45.5" font-family="Helvetica,sans-Serif" font-size="10.00">HASH_GetFlagStatus</text>
</a>
</g>
</g>
<!-- Node1&#45;&gt;Node8 -->
<g id="edge7" class="edge"><title>Node1&#45;&gt;Node8</title>
<path fill="none" stroke="midnightblue" d="M49.6149,-114.377C62.9206,-101.616 88.2355,-79.2797 114,-67 119.201,-64.5212 124.75,-62.3517 130.409,-60.4557"/>
<polygon fill="midnightblue" stroke="midnightblue" points="131.459,-63.7947 139.993,-57.5166 129.406,-57.1023 131.459,-63.7947"/>
</g>
<!-- Node9 -->
<g id="node9" class="node"><title>Node9</title>
<g id="a_node9"><a xlink:href="a00103.html#ga23018d770837d6ab9f46941f105cc017" target="_top" xlink:title="Provides the message digest result. ">
<polygon fill="white" stroke="black" points="147.5,-0.5 147.5,-19.5 242.5,-19.5 242.5,-0.5 147.5,-0.5"/>
<text text-anchor="middle" x="195" y="-7.5" font-family="Helvetica,sans-Serif" font-size="10.00">HASH_GetDigest</text>
</a>
</g>
</g>
<!-- Node1&#45;&gt;Node9 -->
<g id="edge8" class="edge"><title>Node1&#45;&gt;Node9</title>
<path fill="none" stroke="midnightblue" d="M44.6083,-114.441C54.4631,-95.0701 79.5264,-51.1501 114,-29 121.165,-24.3966 129.334,-20.9068 137.652,-18.2618"/>
<polygon fill="midnightblue" stroke="midnightblue" points="138.743,-21.591 147.432,-15.5285 136.859,-14.8493 138.743,-21.591"/>
</g>
<!-- Node3 -->
<g id="node3" class="node"><title>Node3</title>
<g id="a_node3"><a xlink:href="a00111.html#gafb119d6d1955d1b8c361e8140845ac5a" target="_top" xlink:title="Forces or releases AHB2 peripheral reset. ">
<polygon fill="white" stroke="black" points="312,-228.5 312,-247.5 458,-247.5 458,-228.5 312,-228.5"/>
<text text-anchor="middle" x="385" y="-235.5" font-family="Helvetica,sans-Serif" font-size="10.00">RCC_AHB2PeriphResetCmd</text>
</a>
</g>
</g>
<!-- Node2&#45;&gt;Node3 -->
<g id="edge2" class="edge"><title>Node2&#45;&gt;Node3</title>
<path fill="none" stroke="midnightblue" d="M233.593,-238C253.189,-238 277.974,-238 301.743,-238"/>
<polygon fill="midnightblue" stroke="midnightblue" points="301.849,-241.5 311.849,-238 301.849,-234.5 301.849,-241.5"/>
</g>
</g>
</svg>
