<?xml version="1.0" encoding="UTF-8" standalone="no"?>
<!DOCTYPE svg PUBLIC "-//W3C//DTD SVG 1.1//EN"
 "http://www.w3.org/Graphics/SVG/1.1/DTD/svg11.dtd">
<!-- Generated by graphviz version 2.38.0 (20140413.2041)
 -->
<!-- Title: HMAC_MD5 Pages: 1 -->
<svg width="461pt" height="256pt"
 viewBox="0.00 0.00 461.00 256.00" xmlns="http://www.w3.org/2000/svg" xmlns:xlink="http://www.w3.org/1999/xlink">
<g id="graph0" class="graph" transform="scale(1 1) rotate(0) translate(4 252)">
<title>HMAC_MD5</title>
<polygon fill="white" stroke="none" points="-4,4 -4,-252 457,-252 457,4 -4,4"/>
<!-- Node1 -->
<g id="node1" class="node"><title>Node1</title>
<polygon fill="#bfbfbf" stroke="black" points="0,-114.5 0,-133.5 73,-133.5 73,-114.5 0,-114.5"/>
<text text-anchor="middle" x="36.5" y="-121.5" font-family="Helvetica,sans-Serif" font-size="10.00">HMAC_MD5</text>
</g>
<!-- Node2 -->
<g id="node2" class="node"><title>Node2</title>
<g id="a_node2"><a xlink:href="a00103.html#ga88717fe3a4f557182841a958e1dcd9c7" target="_top" xlink:title="De&#45;initializes the HASH peripheral registers to their default reset values. ">
<polygon fill="white" stroke="black" points="151.5,-228.5 151.5,-247.5 228.5,-247.5 228.5,-228.5 151.5,-228.5"/>
<text text-anchor="middle" x="190" y="-235.5" font-family="Helvetica,sans-Serif" font-size="10.00">HASH_DeInit</text>
</a>
</g>
</g>
<!-- Node1&#45;&gt;Node2 -->
<g id="edge1" class="edge"><title>Node1&#45;&gt;Node2</title>
<path fill="none" stroke="midnightblue" d="M41.8625,-133.559C51.2181,-152.929 75.1441,-196.848 109,-219 118.701,-225.347 130.298,-229.58 141.612,-232.4"/>
<polygon fill="midnightblue" stroke="midnightblue" points="140.911,-235.829 151.426,-234.533 142.397,-228.989 140.911,-235.829"/>
</g>
<!-- Node4 -->
<g id="node4" class="node"><title>Node4</title>
<g id="a_node4"><a xlink:href="a00103.html#ga4a7d33f0954ac0463a6cda81121635cf" target="_top" xlink:title="Initializes the HASH peripheral according to the specified parameters in the HASH_InitStruct structur...">
<polygon fill="white" stroke="black" points="158,-190.5 158,-209.5 222,-209.5 222,-190.5 158,-190.5"/>
<text text-anchor="middle" x="190" y="-197.5" font-family="Helvetica,sans-Serif" font-size="10.00">HASH_Init</text>
</a>
</g>
</g>
<!-- Node1&#45;&gt;Node4 -->
<g id="edge3" class="edge"><title>Node1&#45;&gt;Node4</title>
<path fill="none" stroke="midnightblue" d="M46.7237,-133.637C59.5047,-146.414 83.8794,-168.769 109,-181 121.052,-186.868 135.025,-190.987 147.89,-193.852"/>
<polygon fill="midnightblue" stroke="midnightblue" points="147.414,-197.326 157.911,-195.889 148.809,-190.467 147.414,-197.326"/>
</g>
<!-- Node5 -->
<g id="node5" class="node"><title>Node5</title>
<g id="a_node5"><a xlink:href="a00103.html#gac4d1fa51c9240ad0287b371564b5d2a6" target="_top" xlink:title="Configure the Number of valid bits in last word of the message. ">
<polygon fill="white" stroke="black" points="109,-152.5 109,-171.5 271,-171.5 271,-152.5 109,-152.5"/>
<text text-anchor="middle" x="190" y="-159.5" font-family="Helvetica,sans-Serif" font-size="10.00">HASH_SetLastWordValidBitsNbr</text>
</a>
</g>
</g>
<!-- Node1&#45;&gt;Node5 -->
<g id="edge4" class="edge"><title>Node1&#45;&gt;Node5</title>
<path fill="none" stroke="midnightblue" d="M72.7281,-133.56C84.2699,-136.639 97.1669,-140.023 109,-143 118.35,-145.352 128.335,-147.786 137.969,-150.094"/>
<polygon fill="midnightblue" stroke="midnightblue" points="137.301,-153.533 147.84,-152.445 138.923,-146.723 137.301,-153.533"/>
</g>
<!-- Node6 -->
<g id="node6" class="node"><title>Node6</title>
<g id="a_node6"><a xlink:href="a00103.html#ga9c4c0cebdeb1ce2631dd2eeab82107ef" target="_top" xlink:title="Writes data in the Data Input FIFO. ">
<polygon fill="white" stroke="black" points="150,-114.5 150,-133.5 230,-133.5 230,-114.5 150,-114.5"/>
<text text-anchor="middle" x="190" y="-121.5" font-family="Helvetica,sans-Serif" font-size="10.00">HASH_DataIn</text>
</a>
</g>
</g>
<!-- Node1&#45;&gt;Node6 -->
<g id="edge5" class="edge"><title>Node1&#45;&gt;Node6</title>
<path fill="none" stroke="midnightblue" d="M73.02,-124C92.9524,-124 118.12,-124 139.913,-124"/>
<polygon fill="midnightblue" stroke="midnightblue" points="139.979,-127.5 149.979,-124 139.979,-120.5 139.979,-127.5"/>
</g>
<!-- Node7 -->
<g id="node7" class="node"><title>Node7</title>
<g id="a_node7"><a xlink:href="a00103.html#ga84ac2b64179fd37b75c4d5f665126e93" target="_top" xlink:title="Starts the message padding and calculation of the final message. ">
<polygon fill="white" stroke="black" points="140,-76.5 140,-95.5 240,-95.5 240,-76.5 140,-76.5"/>
<text text-anchor="middle" x="190" y="-83.5" font-family="Helvetica,sans-Serif" font-size="10.00">HASH_StartDigest</text>
</a>
</g>
</g>
<!-- Node1&#45;&gt;Node7 -->
<g id="edge6" class="edge"><title>Node1&#45;&gt;Node7</title>
<path fill="none" stroke="midnightblue" d="M72.7281,-114.44C84.2699,-111.361 97.1669,-107.977 109,-105 118.35,-102.648 128.335,-100.214 137.969,-97.9061"/>
<polygon fill="midnightblue" stroke="midnightblue" points="138.923,-101.277 147.84,-95.5547 137.301,-94.4673 138.923,-101.277"/>
</g>
<!-- Node8 -->
<g id="node8" class="node"><title>Node8</title>
<g id="a_node8"><a xlink:href="a00103.html#ga826f7bbe15d07c123446cc3d30959f72" target="_top" xlink:title="Checks whether the specified HASH flag is set or not. ">
<polygon fill="white" stroke="black" points="133.5,-38.5 133.5,-57.5 246.5,-57.5 246.5,-38.5 133.5,-38.5"/>
<text text-anchor="middle" x="190" y="-45.5" font-family="Helvetica,sans-Serif" font-size="10.00">HASH_GetFlagStatus</text>
</a>
</g>
</g>
<!-- Node1&#45;&gt;Node8 -->
<g id="edge7" class="edge"><title>Node1&#45;&gt;Node8</title>
<path fill="none" stroke="midnightblue" d="M46.7237,-114.363C59.5047,-101.586 83.8794,-79.231 109,-67 113.973,-64.5785 119.274,-62.4547 124.689,-60.594"/>
<polygon fill="midnightblue" stroke="midnightblue" points="126.014,-63.8468 134.514,-57.5214 123.925,-57.1659 126.014,-63.8468"/>
</g>
<!-- Node9 -->
<g id="node9" class="node"><title>Node9</title>
<g id="a_node9"><a xlink:href="a00103.html#ga23018d770837d6ab9f46941f105cc017" target="_top" xlink:title="Provides the message digest result. ">
<polygon fill="white" stroke="black" points="142.5,-0.5 142.5,-19.5 237.5,-19.5 237.5,-0.5 142.5,-0.5"/>
<text text-anchor="middle" x="190" y="-7.5" font-family="Helvetica,sans-Serif" font-size="10.00">HASH_GetDigest</text>
</a>
</g>
</g>
<!-- Node1&#45;&gt;Node9 -->
<g id="edge8" class="edge"><title>Node1&#45;&gt;Node9</title>
<path fill="none" stroke="midnightblue" d="M41.8625,-114.441C51.2181,-95.0711 75.1441,-51.1521 109,-29 116.126,-24.3373 124.275,-20.8159 132.584,-18.1572"/>
<polygon fill="midnightblue" stroke="midnightblue" points="133.676,-21.4861 142.359,-15.4156 131.785,-14.7462 133.676,-21.4861"/>
</g>
<!-- Node3 -->
<g id="node3" class="node"><title>Node3</title>
<g id="a_node3"><a xlink:href="a00111.html#gafb119d6d1955d1b8c361e8140845ac5a" target="_top" xlink:title="Forces or releases AHB2 peripheral reset. ">
<polygon fill="white" stroke="black" points="307,-228.5 307,-247.5 453,-247.5 453,-228.5 307,-228.5"/>
<text text-anchor="middle" x="380" y="-235.5" font-family="Helvetica,sans-Serif" font-size="10.00">RCC_AHB2PeriphResetCmd</text>
</a>
</g>
</g>
<!-- Node2&#45;&gt;Node3 -->
<g id="edge2" class="edge"><title>Node2&#45;&gt;Node3</title>
<path fill="none" stroke="midnightblue" d="M228.593,-238C248.189,-238 272.974,-238 296.743,-238"/>
<polygon fill="midnightblue" stroke="midnightblue" points="296.849,-241.5 306.849,-238 296.849,-234.5 296.849,-241.5"/>
</g>
</g>
</svg>
