<?xml version="1.0" encoding="UTF-8" standalone="no"?>
<!DOCTYPE svg PUBLIC "-//W3C//DTD SVG 1.1//EN"
 "http://www.w3.org/Graphics/SVG/1.1/DTD/svg11.dtd">
<!-- Generated by graphviz version 2.38.0 (20140413.2041)
 -->
<!-- Title: TIM_DeInit Pages: 1 -->
<svg width="254pt" height="66pt"
 viewBox="0.00 0.00 254.00 66.00" xmlns="http://www.w3.org/2000/svg" xmlns:xlink="http://www.w3.org/1999/xlink">
<g id="graph0" class="graph" transform="scale(1 1) rotate(0) translate(4 62)">
<title>TIM_DeInit</title>
<polygon fill="white" stroke="none" points="-4,4 -4,-62 250,-62 250,4 -4,4"/>
<!-- Node1 -->
<g id="node1" class="node"><title>Node1</title>
<polygon fill="#bfbfbf" stroke="black" points="0,-19.5 0,-38.5 65,-38.5 65,-19.5 0,-19.5"/>
<text text-anchor="middle" x="32.5" y="-26.5" font-family="Helvetica,sans-Serif" font-size="10.00">TIM_DeInit</text>
</g>
<!-- Node2 -->
<g id="node2" class="node"><title>Node2</title>
<g id="a_node2"><a xlink:href="a00111.html#gad94553850ac07106a27ee85fec37efdf" target="_top" xlink:title="Forces or releases High Speed APB (APB2) peripheral reset. ">
<polygon fill="white" stroke="black" points="101,-38.5 101,-57.5 246,-57.5 246,-38.5 101,-38.5"/>
<text text-anchor="middle" x="173.5" y="-45.5" font-family="Helvetica,sans-Serif" font-size="10.00">RCC_APB2PeriphResetCmd</text>
</a>
</g>
</g>
<!-- Node1&#45;&gt;Node2 -->
<g id="edge1" class="edge"><title>Node1&#45;&gt;Node2</title>
<path fill="none" stroke="midnightblue" d="M65.0413,-33.3114C73.4235,-34.4572 82.8684,-35.7482 92.5914,-37.0772"/>
<polygon fill="midnightblue" stroke="midnightblue" points="92.4097,-40.5849 102.792,-38.4715 93.3578,-33.6494 92.4097,-40.5849"/>
</g>
<!-- Node3 -->
<g id="node3" class="node"><title>Node3</title>
<g id="a_node3"><a xlink:href="a00111.html#gab197ae4369c10b92640a733b40ed2801" target="_top" xlink:title="Forces or releases Low Speed APB (APB1) peripheral reset. ">
<polygon fill="white" stroke="black" points="101,-0.5 101,-19.5 246,-19.5 246,-0.5 101,-0.5"/>
<text text-anchor="middle" x="173.5" y="-7.5" font-family="Helvetica,sans-Serif" font-size="10.00">RCC_APB1PeriphResetCmd</text>
</a>
</g>
</g>
<!-- Node1&#45;&gt;Node3 -->
<g id="edge2" class="edge"><title>Node1&#45;&gt;Node3</title>
<path fill="none" stroke="midnightblue" d="M65.0413,-24.6886C73.4235,-23.5428 82.8684,-22.2518 92.5914,-20.9228"/>
<polygon fill="midnightblue" stroke="midnightblue" points="93.3578,-24.3506 102.792,-19.5285 92.4097,-17.4151 93.3578,-24.3506"/>
</g>
</g>
</svg>
