<?xml version="1.0" encoding="UTF-8" standalone="no"?>
<!DOCTYPE svg PUBLIC "-//W3C//DTD SVG 1.1//EN"
 "http://www.w3.org/Graphics/SVG/1.1/DTD/svg11.dtd">
<!-- Generated by graphviz version 2.38.0 (20140413.2041)
 -->
<!-- Title: md_stm32f4_gpio.c Pages: 1 -->
<svg width="217pt" height="140pt"
 viewBox="0.00 0.00 216.50 140.00" xmlns="http://www.w3.org/2000/svg" xmlns:xlink="http://www.w3.org/1999/xlink">
<g id="graph0" class="graph" transform="scale(1 1) rotate(0) translate(4 136)">
<title>md_stm32f4_gpio.c</title>
<polygon fill="white" stroke="none" points="-4,4 -4,-136 212.5,-136 212.5,4 -4,4"/>
<!-- Node1 -->
<g id="node1" class="node"><title>Node1</title>
<polygon fill="#bfbfbf" stroke="black" points="56,-112.5 56,-131.5 158,-131.5 158,-112.5 56,-112.5"/>
<text text-anchor="middle" x="107" y="-119.5" font-family="Helvetica,sans-Serif" font-size="10.00">md_stm32f4_gpio.c</text>
</g>
<!-- Node2 -->
<g id="node2" class="node"><title>Node2</title>
<g id="a_node2"><a xlink:href="a00034.html" target="_top" xlink:title="Provides generic methods for GPIO module initialization and manipulation. ">
<polygon fill="white" stroke="black" points="-7.10543e-15,-56.5 -7.10543e-15,-75.5 102,-75.5 102,-56.5 -7.10543e-15,-56.5"/>
<text text-anchor="middle" x="51" y="-63.5" font-family="Helvetica,sans-Serif" font-size="10.00">md_stm32f4_gpio.h</text>
</a>
</g>
</g>
<!-- Node1&#45;&gt;Node2 -->
<g id="edge1" class="edge"><title>Node1&#45;&gt;Node2</title>
<path fill="none" stroke="midnightblue" d="M98.0026,-112.324C89.8056,-104.42 77.4945,-92.5482 67.528,-82.9377"/>
<polygon fill="midnightblue" stroke="midnightblue" points="69.789,-80.2558 60.1611,-75.8339 64.9301,-85.2947 69.789,-80.2558"/>
</g>
<!-- Node4 -->
<g id="node4" class="node"><title>Node4</title>
<polygon fill="white" stroke="#bfbfbf" points="119.5,-56.5 119.5,-75.5 208.5,-75.5 208.5,-56.5 119.5,-56.5"/>
<text text-anchor="middle" x="164" y="-63.5" font-family="Helvetica,sans-Serif" font-size="10.00">stm32f4xx_rcc.h</text>
</g>
<!-- Node1&#45;&gt;Node4 -->
<g id="edge3" class="edge"><title>Node1&#45;&gt;Node4</title>
<path fill="none" stroke="midnightblue" d="M116.158,-112.324C124.501,-104.42 137.032,-92.5482 147.177,-82.9377"/>
<polygon fill="midnightblue" stroke="midnightblue" points="149.823,-85.2522 154.675,-75.8339 145.009,-80.1705 149.823,-85.2522"/>
</g>
<!-- Node3 -->
<g id="node3" class="node"><title>Node3</title>
<polygon fill="white" stroke="#bfbfbf" points="15.5,-0.5 15.5,-19.5 86.5,-19.5 86.5,-0.5 15.5,-0.5"/>
<text text-anchor="middle" x="51" y="-7.5" font-family="Helvetica,sans-Serif" font-size="10.00">stm32f4xx.h</text>
</g>
<!-- Node2&#45;&gt;Node3 -->
<g id="edge2" class="edge"><title>Node2&#45;&gt;Node3</title>
<path fill="none" stroke="midnightblue" d="M51,-56.083C51,-49.0059 51,-38.8611 51,-29.9865"/>
<polygon fill="midnightblue" stroke="midnightblue" points="54.5001,-29.751 51,-19.7511 47.5001,-29.7511 54.5001,-29.751"/>
</g>
</g>
</svg>
