<?xml version="1.0" encoding="UTF-8" standalone="no"?>
<!DOCTYPE svg PUBLIC "-//W3C//DTD SVG 1.1//EN"
 "http://www.w3.org/Graphics/SVG/1.1/DTD/svg11.dtd">
<!-- Generated by graphviz version 2.38.0 (20140413.2041)
 -->
<!-- Title: main Pages: 1 -->
<svg width="508pt" height="693pt"
 viewBox="0.00 0.00 508.00 693.00" xmlns="http://www.w3.org/2000/svg" xmlns:xlink="http://www.w3.org/1999/xlink">
<g id="graph0" class="graph" transform="scale(1 1) rotate(0) translate(4 689)">
<title>main</title>
<polygon fill="white" stroke="none" points="-4,4 -4,-689 504,-689 504,4 -4,4"/>
<!-- Node1 -->
<g id="node1" class="node"><title>Node1</title>
<polygon fill="#bfbfbf" stroke="black" points="0,-323.5 0,-342.5 38,-342.5 38,-323.5 0,-323.5"/>
<text text-anchor="middle" x="19" y="-330.5" font-family="Helvetica,sans-Serif" font-size="10.00">main</text>
</g>
<!-- Node2 -->
<g id="node2" class="node"><title>Node2</title>
<g id="a_node2"><a xlink:href="a00147.html#ga93f514700ccf00d08dbdcff7f1224eb2" target="_top" xlink:title="Setup the microcontroller system Initialize the Embedded Flash Interface, the PLL and update the Syst...">
<polygon fill="white" stroke="black" points="118,-646.5 118,-665.5 182,-665.5 182,-646.5 118,-646.5"/>
<text text-anchor="middle" x="150" y="-653.5" font-family="Helvetica,sans-Serif" font-size="10.00">SystemInit</text>
</a>
</g>
</g>
<!-- Node1&#45;&gt;Node2 -->
<g id="edge1" class="edge"><title>Node1&#45;&gt;Node2</title>
<path fill="none" stroke="midnightblue" d="M20.3513,-342.719C22.2456,-389.68 32.7451,-592.648 74,-637 82.6481,-646.297 95.136,-651.319 107.449,-653.955"/>
<polygon fill="midnightblue" stroke="midnightblue" points="107.224,-657.466 117.662,-655.65 108.37,-650.56 107.224,-657.466"/>
</g>
<!-- Node5 -->
<g id="node5" class="node"><title>Node5</title>
<g id="a_node5"><a xlink:href="a00133.html#gae5d12b8da57e95abcca6e6d9ba8a50bb" target="_top" xlink:title="Enable AHBx peripheral clocks for DMA2, GPIOC, ADC1, TIM2. ">
<polygon fill="white" stroke="black" points="87,-608.5 87,-627.5 213,-627.5 213,-608.5 87,-608.5"/>
<text text-anchor="middle" x="150" y="-615.5" font-family="Helvetica,sans-Serif" font-size="10.00">RCC_Periph2DMA_Conf</text>
</a>
</g>
</g>
<!-- Node1&#45;&gt;Node5 -->
<g id="edge5" class="edge"><title>Node1&#45;&gt;Node5</title>
<path fill="none" stroke="midnightblue" d="M20.6133,-342.639C23.5522,-385.794 37.5839,-560.799 74,-599 75.3902,-600.458 76.875,-601.811 78.4385,-603.065"/>
<polygon fill="midnightblue" stroke="midnightblue" points="76.5525,-606.014 86.8387,-608.552 80.3806,-600.153 76.5525,-606.014"/>
</g>
<!-- Node6 -->
<g id="node6" class="node"><title>Node6</title>
<g id="a_node6"><a xlink:href="a00125.html#gad45b8278807ffed1f22e03d86d35bf90" target="_top" xlink:title="Initialize all GPIOs from MDB_GPIO. ">
<polygon fill="white" stroke="black" points="106,-570.5 106,-589.5 194,-589.5 194,-570.5 106,-570.5"/>
<text text-anchor="middle" x="150" y="-577.5" font-family="Helvetica,sans-Serif" font-size="10.00">MDB_GPIO_Init</text>
</a>
</g>
</g>
<!-- Node1&#45;&gt;Node6 -->
<g id="edge6" class="edge"><title>Node1&#45;&gt;Node6</title>
<path fill="none" stroke="midnightblue" d="M20.9557,-342.557C25.0548,-381.66 42.3927,-528.897 74,-561 80.096,-567.192 87.9,-571.467 96.1597,-574.4"/>
<polygon fill="midnightblue" stroke="midnightblue" points="95.4103,-577.827 105.99,-577.26 97.3659,-571.106 95.4103,-577.827"/>
</g>
<!-- Node9 -->
<g id="node9" class="node"><title>Node9</title>
<g id="a_node9"><a xlink:href="a00030.html#ab6f9456b6ae46b75ed32de43a8456867" target="_top" xlink:title="Inserts a delay time. ">
<polygon fill="white" stroke="black" points="122,-532.5 122,-551.5 178,-551.5 178,-532.5 122,-532.5"/>
<text text-anchor="middle" x="150" y="-539.5" font-family="Helvetica,sans-Serif" font-size="10.00">Delayms</text>
</a>
</g>
</g>
<!-- Node1&#45;&gt;Node9 -->
<g id="edge9" class="edge"><title>Node1&#45;&gt;Node9</title>
<path fill="none" stroke="midnightblue" d="M19.6334,-342.535C18.9949,-373.45 21.3666,-471.861 74,-523 84.0567,-532.771 98.3827,-537.733 111.824,-540.183"/>
<polygon fill="midnightblue" stroke="midnightblue" points="111.452,-543.665 121.845,-541.604 112.436,-536.734 111.452,-543.665"/>
</g>
<!-- Node11 -->
<g id="node11" class="node"><title>Node11</title>
<g id="a_node11"><a xlink:href="a00125.html#ga96648f92af47de61ebadb96b6a543415" target="_top" xlink:title="Provides GPIO pin toggle functionality for MD_GPIO_NAME_t types defined in MDB_GPIO. ">
<polygon fill="white" stroke="black" points="98,-494.5 98,-513.5 202,-513.5 202,-494.5 98,-494.5"/>
<text text-anchor="middle" x="150" y="-501.5" font-family="Helvetica,sans-Serif" font-size="10.00">MDB_GPIO_Toggle</text>
</a>
</g>
</g>
<!-- Node1&#45;&gt;Node11 -->
<g id="edge11" class="edge"><title>Node1&#45;&gt;Node11</title>
<path fill="none" stroke="midnightblue" d="M20.4166,-342.504C22.1195,-369.217 30.7293,-445.587 74,-485 78.2204,-488.844 83.1065,-491.936 88.3211,-494.418"/>
<polygon fill="midnightblue" stroke="midnightblue" points="87.4035,-497.82 97.9892,-498.261 89.9889,-491.315 87.4035,-497.82"/>
</g>
<!-- Node12 -->
<g id="node12" class="node"><title>Node12</title>
<g id="a_node12"><a xlink:href="a00087.html#ga99e90c818f4042ca67ee111f9c666297" target="_top" xlink:title="Configures Button pin as input. ">
<polygon fill="white" stroke="black" points="91.5,-456.5 91.5,-475.5 208.5,-475.5 208.5,-456.5 91.5,-456.5"/>
<text text-anchor="middle" x="150" y="-463.5" font-family="Helvetica,sans-Serif" font-size="10.00">MD_DISCO_ButtonInit</text>
</a>
</g>
</g>
<!-- Node1&#45;&gt;Node12 -->
<g id="edge12" class="edge"><title>Node1&#45;&gt;Node12</title>
<path fill="none" stroke="midnightblue" d="M21.6988,-342.653C26.1022,-364.708 40.0024,-419.039 74,-447 76.5417,-449.09 79.2838,-450.955 82.1648,-452.617"/>
<polygon fill="midnightblue" stroke="midnightblue" points="80.6419,-455.768 91.1623,-457.022 83.72,-449.481 80.6419,-455.768"/>
</g>
<!-- Node14 -->
<g id="node14" class="node"><title>Node14</title>
<g id="a_node14"><a xlink:href="a00087.html#gaca7a1ac308a8fda1547ddc0f5872aa74" target="_top" xlink:title="Configure all pins for on&#45;board LEDs as outputs. ">
<polygon fill="white" stroke="black" points="98,-418.5 98,-437.5 202,-437.5 202,-418.5 98,-418.5"/>
<text text-anchor="middle" x="150" y="-425.5" font-family="Helvetica,sans-Serif" font-size="10.00">MD_DISCO_LedInit</text>
</a>
</g>
</g>
<!-- Node1&#45;&gt;Node14 -->
<g id="edge14" class="edge"><title>Node1&#45;&gt;Node14</title>
<path fill="none" stroke="midnightblue" d="M24.0922,-342.598C31.5406,-358.877 48.8953,-391.804 74,-409 78.3218,-411.96 83.0675,-414.46 88.0076,-416.57"/>
<polygon fill="midnightblue" stroke="midnightblue" points="87.094,-419.964 97.6869,-420.167 89.5324,-413.403 87.094,-419.964"/>
</g>
<!-- Node15 -->
<g id="node15" class="node"><title>Node15</title>
<g id="a_node15"><a xlink:href="a00069.html#ga70bed9fb6612cb572a8c10e148404344" target="_top" xlink:title="Initializes USARTx peripheral and corresponding pins. ">
<polygon fill="white" stroke="black" points="105.5,-380.5 105.5,-399.5 194.5,-399.5 194.5,-380.5 105.5,-380.5"/>
<text text-anchor="middle" x="150" y="-387.5" font-family="Helvetica,sans-Serif" font-size="10.00">TM_USART_Init</text>
</a>
</g>
</g>
<!-- Node1&#45;&gt;Node15 -->
<g id="edge16" class="edge"><title>Node1&#45;&gt;Node15</title>
<path fill="none" stroke="midnightblue" d="M31.2465,-342.781C41.6752,-351.376 57.958,-363.63 74,-371 80.7131,-374.084 88.0035,-376.72 95.3133,-378.958"/>
<polygon fill="midnightblue" stroke="midnightblue" points="94.6656,-382.412 105.241,-381.768 96.572,-375.677 94.6656,-382.412"/>
</g>
<!-- Node16 -->
<g id="node16" class="node"><title>Node16</title>
<g id="a_node16"><a xlink:href="a00080.html#gabb02137ecc24355b4c9d3da38b59a44d" target="_top" xlink:title="Initializes DAC channel and it&#39;s pin. ">
<polygon fill="white" stroke="black" points="111,-342.5 111,-361.5 189,-361.5 189,-342.5 111,-342.5"/>
<text text-anchor="middle" x="150" y="-349.5" font-family="Helvetica,sans-Serif" font-size="10.00">MD_DAC_Init</text>
</a>
</g>
</g>
<!-- Node1&#45;&gt;Node16 -->
<g id="edge17" class="edge"><title>Node1&#45;&gt;Node16</title>
<path fill="none" stroke="midnightblue" d="M38.2089,-335.682C54.457,-338.075 78.9882,-341.688 100.841,-344.907"/>
<polygon fill="midnightblue" stroke="midnightblue" points="100.575,-348.405 110.978,-346.4 101.595,-341.48 100.575,-348.405"/>
</g>
<!-- Node17 -->
<g id="node17" class="node"><title>Node17</title>
<g id="a_node17"><a xlink:href="a00101.html#gab6494f34679dc4d0a8c08ec624a4bcf8" target="_top" xlink:title="Dual DAC set channel wrapper function. ">
<polygon fill="white" stroke="black" points="84,-304.5 84,-323.5 216,-323.5 216,-304.5 84,-304.5"/>
<text text-anchor="middle" x="150" y="-311.5" font-family="Helvetica,sans-Serif" font-size="10.00">DAC_SetDualChanSigned</text>
</a>
</g>
</g>
<!-- Node1&#45;&gt;Node17 -->
<g id="edge19" class="edge"><title>Node1&#45;&gt;Node17</title>
<path fill="none" stroke="midnightblue" d="M38.2089,-330.318C47.9495,-328.883 60.6669,-327.01 73.9994,-325.047"/>
<polygon fill="midnightblue" stroke="midnightblue" points="74.8924,-328.453 84.2756,-323.533 73.8723,-321.528 74.8924,-328.453"/>
</g>
<!-- Node18 -->
<g id="node18" class="node"><title>Node18</title>
<g id="a_node18"><a xlink:href="a00130.html#ga5c12343e267ace8587309499bea6babe" target="_top" xlink:title="Provides the initial configuration method for the nested vector interrupt controller. ">
<polygon fill="white" stroke="black" points="98,-266.5 98,-285.5 202,-285.5 202,-266.5 98,-266.5"/>
<text text-anchor="middle" x="150" y="-273.5" font-family="Helvetica,sans-Serif" font-size="10.00">NVIC_Configuration</text>
</a>
</g>
</g>
<!-- Node1&#45;&gt;Node18 -->
<g id="edge20" class="edge"><title>Node1&#45;&gt;Node18</title>
<path fill="none" stroke="midnightblue" d="M31.2465,-323.219C41.6752,-314.624 57.958,-302.37 74,-295 79.3171,-292.557 84.9964,-290.396 90.7605,-288.49"/>
<polygon fill="midnightblue" stroke="midnightblue" points="91.9491,-291.787 100.493,-285.521 89.9064,-285.092 91.9491,-291.787"/>
</g>
<!-- Node19 -->
<g id="node19" class="node"><title>Node19</title>
<g id="a_node19"><a xlink:href="a00133.html#gad273dc4b4b26574e92666e4020e1ef5a" target="_top" xlink:title="Timer&#45;triggered ADC&#45;scan mode with DMA to memory. ">
<polygon fill="white" stroke="black" points="82,-228.5 82,-247.5 218,-247.5 218,-228.5 82,-228.5"/>
<text text-anchor="middle" x="150" y="-235.5" font-family="Helvetica,sans-Serif" font-size="10.00">TIM2_DMA_Trigger_Config</text>
</a>
</g>
</g>
<!-- Node1&#45;&gt;Node19 -->
<g id="edge21" class="edge"><title>Node1&#45;&gt;Node19</title>
<path fill="none" stroke="midnightblue" d="M24.0922,-323.402C31.5406,-307.123 48.8953,-274.196 74,-257 76.9141,-255.004 80.021,-253.217 83.2501,-251.618"/>
<polygon fill="midnightblue" stroke="midnightblue" points="84.8122,-254.757 92.6162,-247.591 82.0469,-248.326 84.8122,-254.757"/>
</g>
<!-- Node21 -->
<g id="node21" class="node"><title>Node21</title>
<g id="a_node21"><a xlink:href="a00133.html#ga85f5a2827c06dbdba076d4e9125a11f8" target="_top" xlink:title="ADC common and regular scan group init. ">
<polygon fill="white" stroke="black" points="84.5,-190.5 84.5,-209.5 215.5,-209.5 215.5,-190.5 84.5,-190.5"/>
<text text-anchor="middle" x="150" y="-197.5" font-family="Helvetica,sans-Serif" font-size="10.00">ADC_Scan_Group_Config</text>
</a>
</g>
</g>
<!-- Node1&#45;&gt;Node21 -->
<g id="edge23" class="edge"><title>Node1&#45;&gt;Node21</title>
<path fill="none" stroke="midnightblue" d="M21.6988,-323.347C26.1022,-301.292 40.0024,-246.961 74,-219 76.0424,-217.32 78.2143,-215.786 80.4836,-214.386"/>
<polygon fill="midnightblue" stroke="midnightblue" points="82.3934,-217.338 89.6519,-209.62 79.1647,-211.127 82.3934,-217.338"/>
</g>
<!-- Node22 -->
<g id="node22" class="node"><title>Node22</title>
<g id="a_node22"><a xlink:href="a00121.html#gabecad8655f9e14a855864feee9fee9e8" target="_top" xlink:title="Set initial values (POR state) of the ASG system and the global state structure members. ">
<polygon fill="white" stroke="black" points="104,-152.5 104,-171.5 196,-171.5 196,-152.5 104,-152.5"/>
<text text-anchor="middle" x="150" y="-159.5" font-family="Helvetica,sans-Serif" font-size="10.00">init_globalStructs</text>
</a>
</g>
</g>
<!-- Node1&#45;&gt;Node22 -->
<g id="edge24" class="edge"><title>Node1&#45;&gt;Node22</title>
<path fill="none" stroke="midnightblue" d="M20.4166,-323.496C22.1195,-296.783 30.7293,-220.413 74,-181 79.7953,-175.721 86.8459,-171.862 94.2784,-169.049"/>
<polygon fill="midnightblue" stroke="midnightblue" points="95.3584,-172.379 103.831,-166.018 93.2412,-165.706 95.3584,-172.379"/>
</g>
<!-- Node23 -->
<g id="node23" class="node"><title>Node23</title>
<g id="a_node23"><a xlink:href="a00087.html#ga4bdeb65c33d29739b341feeb76aee264" target="_top" xlink:title="Checks if button was pressed now, but was not already pressed before. ">
<polygon fill="white" stroke="black" points="74,-114.5 74,-133.5 226,-133.5 226,-114.5 74,-114.5"/>
<text text-anchor="middle" x="150" y="-121.5" font-family="Helvetica,sans-Serif" font-size="10.00">MD_DISCO_ButtonOnPressed</text>
</a>
</g>
</g>
<!-- Node1&#45;&gt;Node23 -->
<g id="edge25" class="edge"><title>Node1&#45;&gt;Node23</title>
<path fill="none" stroke="midnightblue" d="M19.6334,-323.465C18.9949,-292.55 21.3666,-194.139 74,-143 75.4812,-141.561 77.055,-140.226 78.7049,-138.988"/>
<polygon fill="midnightblue" stroke="midnightblue" points="80.827,-141.792 87.5129,-133.573 77.161,-135.829 80.827,-141.792"/>
</g>
<!-- Node24 -->
<g id="node24" class="node"><title>Node24</title>
<g id="a_node24"><a xlink:href="a00149.html#ga4af381bf92ce31395c19b6652b930b7a" target="_top" xlink:title="Fast console command parser. ">
<polygon fill="white" stroke="black" points="104,-76.5 104,-95.5 196,-95.5 196,-76.5 104,-76.5"/>
<text text-anchor="middle" x="150" y="-83.5" font-family="Helvetica,sans-Serif" font-size="10.00">fastConsoleCase</text>
</a>
</g>
</g>
<!-- Node1&#45;&gt;Node24 -->
<g id="edge26" class="edge"><title>Node1&#45;&gt;Node24</title>
<path fill="none" stroke="midnightblue" d="M20.9557,-323.443C25.0548,-284.34 42.3927,-137.103 74,-105 79.5659,-99.3468 86.5557,-95.2908 94.0161,-92.3959"/>
<polygon fill="midnightblue" stroke="midnightblue" points="95.1867,-95.6963 103.646,-89.3172 93.055,-89.0287 95.1867,-95.6963"/>
</g>
<!-- Node27 -->
<g id="node27" class="node"><title>Node27</title>
<g id="a_node27"><a xlink:href="a00069.html#ga0bf136abba24771c4a5a83ace52a76c1" target="_top" xlink:title="Checks if internal USARTx buffer is full. ">
<polygon fill="white" stroke="black" points="91,-38.5 91,-57.5 209,-57.5 209,-38.5 91,-38.5"/>
<text text-anchor="middle" x="150" y="-45.5" font-family="Helvetica,sans-Serif" font-size="10.00">TM_USART_BufferFull</text>
</a>
</g>
</g>
<!-- Node1&#45;&gt;Node27 -->
<g id="edge29" class="edge"><title>Node1&#45;&gt;Node27</title>
<path fill="none" stroke="midnightblue" d="M20.6133,-323.361C23.5522,-280.206 37.5839,-105.201 74,-67 76.3634,-64.5208 79.0001,-62.347 81.8322,-60.4423"/>
<polygon fill="midnightblue" stroke="midnightblue" points="83.7549,-63.3796 90.8369,-55.4995 80.3866,-57.2432 83.7549,-63.3796"/>
</g>
<!-- Node28 -->
<g id="node28" class="node"><title>Node28</title>
<g id="a_node28"><a xlink:href="a00069.html#ga6c8dfcc950305f511393240ea847b2ad" target="_top" xlink:title="Clears internal USART buffer. ">
<polygon fill="white" stroke="black" points="87.5,-0.5 87.5,-19.5 212.5,-19.5 212.5,-0.5 87.5,-0.5"/>
<text text-anchor="middle" x="150" y="-7.5" font-family="Helvetica,sans-Serif" font-size="10.00">TM_USART_ClearBuffer</text>
</a>
</g>
</g>
<!-- Node1&#45;&gt;Node28 -->
<g id="edge30" class="edge"><title>Node1&#45;&gt;Node28</title>
<path fill="none" stroke="midnightblue" d="M20.3513,-323.281C22.2456,-276.32 32.7451,-73.3516 74,-29 75.4409,-27.451 76.9883,-26.0206 78.6238,-24.7002"/>
<polygon fill="midnightblue" stroke="midnightblue" points="80.9651,-27.3533 87.4488,-18.974 77.1549,-21.4812 80.9651,-27.3533"/>
</g>
<!-- Node3 -->
<g id="node3" class="node"><title>Node3</title>
<g id="a_node3"><a xlink:href="a00156.html#ga1ee14ac28e60198cc998586807b51e4c" target="_top" xlink:title="Configures the System clock source, PLL Multiplier and Divider factors, AHB/APBx prescalers and Flash...">
<polygon fill="white" stroke="black" points="426,-665.5 426,-684.5 500,-684.5 500,-665.5 426,-665.5"/>
<text text-anchor="middle" x="463" y="-672.5" font-family="Helvetica,sans-Serif" font-size="10.00">SetSysClock</text>
</a>
</g>
</g>
<!-- Node2&#45;&gt;Node3 -->
<g id="edge2" class="edge"><title>Node2&#45;&gt;Node3</title>
<path fill="none" stroke="midnightblue" d="M182.395,-662.837C204.524,-667.295 234.922,-672.699 262,-675 314.515,-679.462 375.066,-678.633 415.662,-677.218"/>
<polygon fill="midnightblue" stroke="midnightblue" points="415.93,-680.711 425.792,-676.839 415.667,-673.716 415.93,-680.711"/>
</g>
<!-- Node4 -->
<g id="node4" class="node"><title>Node4</title>
<g id="a_node4"><a xlink:href="a00156.html#gae0c36a9591fe6e9c45ecb21a794f0f0f" target="_top" xlink:title="Update SystemCoreClock variable according to Clock Register Values. The SystemCoreClock variable cont...">
<polygon fill="white" stroke="black" points="262,-646.5 262,-665.5 390,-665.5 390,-646.5 262,-646.5"/>
<text text-anchor="middle" x="326" y="-653.5" font-family="Helvetica,sans-Serif" font-size="10.00">SystemCoreClockUpdate</text>
</a>
</g>
</g>
<!-- Node2&#45;&gt;Node4 -->
<g id="edge3" class="edge"><title>Node2&#45;&gt;Node4</title>
<path fill="none" stroke="midnightblue" d="M182.108,-656C201.438,-656 227.152,-656 251.435,-656"/>
<polygon fill="midnightblue" stroke="midnightblue" points="251.732,-659.5 261.732,-656 251.732,-652.5 251.732,-659.5"/>
</g>
<!-- Node4&#45;&gt;Node3 -->
<g id="edge4" class="edge"><title>Node4&#45;&gt;Node3</title>
<path fill="none" stroke="midnightblue" d="M390.152,-664.888C398.741,-666.097 407.424,-667.319 415.642,-668.475"/>
<polygon fill="midnightblue" stroke="midnightblue" points="415.37,-671.972 425.76,-669.9 416.345,-665.04 415.37,-671.972"/>
</g>
<!-- Node7 -->
<g id="node7" class="node"><title>Node7</title>
<g id="a_node7"><a xlink:href="a00125.html#ga1de48ba66939a9726f7930fc6a1e653a" target="_top" xlink:title="MDB_GPIO_Off">
<polygon fill="white" stroke="black" points="282,-608.5 282,-627.5 370,-627.5 370,-608.5 282,-608.5"/>
<text text-anchor="middle" x="326" y="-615.5" font-family="Helvetica,sans-Serif" font-size="10.00">MDB_GPIO_Off</text>
</a>
</g>
</g>
<!-- Node6&#45;&gt;Node7 -->
<g id="edge7" class="edge"><title>Node6&#45;&gt;Node7</title>
<path fill="none" stroke="midnightblue" d="M194.011,-589.393C217.539,-594.532 246.892,-600.942 271.844,-606.391"/>
<polygon fill="midnightblue" stroke="midnightblue" points="271.364,-609.869 281.881,-608.583 272.858,-603.03 271.364,-609.869"/>
</g>
<!-- Node8 -->
<g id="node8" class="node"><title>Node8</title>
<g id="a_node8"><a xlink:href="a00125.html#ga9915de13874ce89948d7d860af7e28c8" target="_top" xlink:title="{ function_description } ">
<polygon fill="white" stroke="black" points="282.5,-570.5 282.5,-589.5 369.5,-589.5 369.5,-570.5 282.5,-570.5"/>
<text text-anchor="middle" x="326" y="-577.5" font-family="Helvetica,sans-Serif" font-size="10.00">MDB_GPIO_On</text>
</a>
</g>
</g>
<!-- Node6&#45;&gt;Node8 -->
<g id="edge8" class="edge"><title>Node6&#45;&gt;Node8</title>
<path fill="none" stroke="midnightblue" d="M194.011,-580C217.716,-580 247.334,-580 272.406,-580"/>
<polygon fill="midnightblue" stroke="midnightblue" points="272.484,-583.5 282.484,-580 272.483,-576.5 272.484,-583.5"/>
</g>
<!-- Node10 -->
<g id="node10" class="node"><title>Node10</title>
<g id="a_node10"><a xlink:href="a00093.html#ga5c41ccf5ad2d5d2d3f6beb8358641ed2" target="_top" xlink:title="This function decrement timing variable. ">
<polygon fill="white" stroke="black" points="263.5,-532.5 263.5,-551.5 388.5,-551.5 388.5,-532.5 263.5,-532.5"/>
<text text-anchor="middle" x="326" y="-539.5" font-family="Helvetica,sans-Serif" font-size="10.00">TimingDelay_Decrement</text>
</a>
</g>
</g>
<!-- Node9&#45;&gt;Node10 -->
<g id="edge10" class="edge"><title>Node9&#45;&gt;Node10</title>
<path fill="none" stroke="midnightblue" d="M178.188,-542C198.359,-542 226.845,-542 253.363,-542"/>
<polygon fill="midnightblue" stroke="midnightblue" points="253.409,-545.5 263.409,-542 253.409,-538.5 253.409,-545.5"/>
</g>
<!-- Node13 -->
<g id="node13" class="node"><title>Node13</title>
<g id="a_node13"><a xlink:href="a00091.html#ga76a4711f406d06b13979cb89d6358cfc" target="_top" xlink:title="Initialize GPIO pins. ">
<polygon fill="white" stroke="black" points="285.5,-418.5 285.5,-437.5 366.5,-437.5 366.5,-418.5 285.5,-418.5"/>
<text text-anchor="middle" x="326" y="-425.5" font-family="Helvetica,sans-Serif" font-size="10.00">MD_GPIO_Init</text>
</a>
</g>
</g>
<!-- Node12&#45;&gt;Node13 -->
<g id="edge13" class="edge"><title>Node12&#45;&gt;Node13</title>
<path fill="none" stroke="midnightblue" d="M194.908,-456.411C219.438,-451.054 250.083,-444.361 275.468,-438.817"/>
<polygon fill="midnightblue" stroke="midnightblue" points="276.249,-442.229 285.272,-436.676 274.755,-435.391 276.249,-442.229"/>
</g>
<!-- Node14&#45;&gt;Node13 -->
<g id="edge15" class="edge"><title>Node14&#45;&gt;Node13</title>
<path fill="none" stroke="midnightblue" d="M202.265,-428C225.302,-428 252.384,-428 275.24,-428"/>
<polygon fill="midnightblue" stroke="midnightblue" points="275.415,-431.5 285.415,-428 275.415,-424.5 275.415,-431.5"/>
</g>
<!-- Node16&#45;&gt;Node13 -->
<g id="edge18" class="edge"><title>Node16&#45;&gt;Node13</title>
<path fill="none" stroke="midnightblue" d="M189.033,-359.496C201.079,-362.433 214.299,-366.255 226,-371 253.766,-382.26 283.238,-400.081 302.733,-412.798"/>
<polygon fill="midnightblue" stroke="midnightblue" points="300.929,-415.801 311.198,-418.409 304.797,-409.967 300.929,-415.801"/>
</g>
<!-- Node20 -->
<g id="node20" class="node"><title>Node20</title>
<g id="a_node20"><a xlink:href="a00133.html#ga63bf5922e4a4d0715a99ed083d89948b" target="_top" xlink:title="Configuration method for &quot;ADC continuous scan mode with timer triggered DMA&quot;. ">
<polygon fill="white" stroke="black" points="264,-223 264,-253 388,-253 388,-223 264,-223"/>
<text text-anchor="start" x="272" y="-241" font-family="Helvetica,sans-Serif" font-size="10.00">ADC_ContScanMode_w</text>
<text text-anchor="middle" x="326" y="-230" font-family="Helvetica,sans-Serif" font-size="10.00">_DMA_timeTrigd</text>
</a>
</g>
</g>
<!-- Node19&#45;&gt;Node20 -->
<g id="edge22" class="edge"><title>Node19&#45;&gt;Node20</title>
<path fill="none" stroke="midnightblue" d="M218.273,-238C229.886,-238 241.993,-238 253.708,-238"/>
<polygon fill="midnightblue" stroke="midnightblue" points="253.879,-241.5 263.879,-238 253.879,-234.5 253.879,-241.5"/>
</g>
<!-- Node25 -->
<g id="node25" class="node"><title>Node25</title>
<g id="a_node25"><a xlink:href="a00069.html#gabb0a95fd20e5e2a894e658b64a29ee61" target="_top" xlink:title="Gets string from USART. ">
<polygon fill="white" stroke="black" points="277.5,-95.5 277.5,-114.5 374.5,-114.5 374.5,-95.5 277.5,-95.5"/>
<text text-anchor="middle" x="326" y="-102.5" font-family="Helvetica,sans-Serif" font-size="10.00">TM_USART_Gets</text>
</a>
</g>
</g>
<!-- Node24&#45;&gt;Node25 -->
<g id="edge27" class="edge"><title>Node24&#45;&gt;Node25</title>
<path fill="none" stroke="midnightblue" d="M196.262,-90.9424C217.928,-93.3082 244.119,-96.1681 267.206,-98.6891"/>
<polygon fill="midnightblue" stroke="midnightblue" points="266.905,-102.177 277.226,-99.7833 267.665,-95.2184 266.905,-102.177"/>
</g>
<!-- Node26 -->
<g id="node26" class="node"><title>Node26</title>
<g id="a_node26"><a xlink:href="a00139.html#ga3471071fc0b691d5ea05997762e9171c" target="_top" xlink:title="Signal generator Integer array pointer. ">
<polygon fill="white" stroke="black" points="289.5,-57.5 289.5,-76.5 362.5,-76.5 362.5,-57.5 289.5,-57.5"/>
<text text-anchor="middle" x="326" y="-64.5" font-family="Helvetica,sans-Serif" font-size="10.00">__attribute__</text>
</a>
</g>
</g>
<!-- Node24&#45;&gt;Node26 -->
<g id="edge28" class="edge"><title>Node24&#45;&gt;Node26</title>
<path fill="none" stroke="midnightblue" d="M196.262,-81.0576C221.75,-78.2744 253.502,-74.8072 279.095,-72.0126"/>
<polygon fill="midnightblue" stroke="midnightblue" points="279.729,-75.4643 289.29,-70.8994 278.969,-68.5057 279.729,-75.4643"/>
</g>
</g>
</svg>
