<?xml version="1.0" encoding="UTF-8" standalone="no"?>
<!DOCTYPE svg PUBLIC "-//W3C//DTD SVG 1.1//EN"
 "http://www.w3.org/Graphics/SVG/1.1/DTD/svg11.dtd">
<!-- Generated by graphviz version 2.38.0 (20140413.2041)
 -->
<!-- Title: main Pages: 1 -->
<!--zoomable 721 -->
<svg id="main" version="1.1" xmlns="http://www.w3.org/2000/svg" xmlns:xlink="http://www.w3.org/1999/xlink" xml:space="preserve" onload="init(evt)">
<style type="text/css"><![CDATA[
.edge:hover path { stroke: red; }
.edge:hover polygon { stroke: red; fill: red; }
]]></style>
<script type="text/javascript"><![CDATA[
var edges = document.getElementsByTagName('g');
if (edges && edges.length) {
  for (var i=0;i<edges.length;i++) {
    if (edges[i].id.substr(0,4)=='edge') {
      edges[i].setAttribute('class','edge');
    }
  }
}
]]></script>
        <defs>
                <circle id="rim" cx="0" cy="0" r="7"/>
                <circle id="rim2" cx="0" cy="0" r="3.5"/>
                <g id="zoomPlus">
                        <use xlink:href="#rim" fill="#404040">
                                <set attributeName="fill" to="#808080" begin="zoomplus.mouseover" end="zoomplus.mouseout"/>
                        </use>
                        <path d="M-4,0h8M0,-4v8" fill="none" stroke="white" stroke-width="1.5" pointer-events="none"/>
                </g>
                <g id="zoomMin">
                        <use xlink:href="#rim" fill="#404040">
                                <set attributeName="fill" to="#808080" begin="zoomminus.mouseover" end="zoomminus.mouseout"/>
                        </use>
                        <path d="M-4,0h8" fill="none" stroke="white" stroke-width="1.5" pointer-events="none"/>
                </g>
                <g id="dirArrow">
                        <path fill="none" stroke="white" stroke-width="1.5" d="M0,-3.0v7 M-2.5,-0.5L0,-3.0L2.5,-0.5"/>
                </g>
               <g id="resetDef">
                       <use xlink:href="#rim2" fill="#404040">
                               <set attributeName="fill" to="#808080" begin="reset.mouseover" end="reset.mouseout"/>
                       </use>
               </g>
        </defs>

<script type="text/javascript">
var viewWidth = 508;
var viewHeight = 721;
var sectionId = 'dynsection-2';
</script>
<script xlink:href="svgpan.js"/>
<svg id="graph" class="graph">
<g id="viewport">
<title>main</title>
<polygon fill="white" stroke="none" points="-4,4 -4,-717 504,-717 504,4 -4,4"/>
<!-- Node1 -->
<g id="node1" class="node"><title>Node1</title>
<polygon fill="#bfbfbf" stroke="black" points="0,-342.5 0,-361.5 38,-361.5 38,-342.5 0,-342.5"/>
<text text-anchor="middle" x="19" y="-349.5" font-family="Helvetica,sans-Serif" font-size="10.00">main</text>
</g>
<!-- Node2 -->
<g id="node2" class="node"><title>Node2</title>
<g id="a_node2"><a xlink:href="a00139.html#ga93f514700ccf00d08dbdcff7f1224eb2" target="_top" xlink:title="Setup the microcontroller system Initialize the Embedded Flash Interface, the PLL and update the Syst...">
<polygon fill="white" stroke="black" points="118,-684.5 118,-703.5 182,-703.5 182,-684.5 118,-684.5"/>
<text text-anchor="middle" x="150" y="-691.5" font-family="Helvetica,sans-Serif" font-size="10.00">SystemInit</text>
</a>
</g>
</g>
<!-- Node1&#45;&gt;Node2 -->
<g id="edge1" class="edge"><title>Node1&#45;&gt;Node2</title>
<path fill="none" stroke="midnightblue" d="M20.2391,-361.668C21.6384,-410.279 30.29,-627.528 74,-675 82.7586,-684.512 95.5354,-689.557 108.07,-692.15"/>
<polygon fill="midnightblue" stroke="midnightblue" points="107.561,-695.613 117.989,-693.742 108.67,-688.701 107.561,-695.613"/>
</g>
<!-- Node5 -->
<g id="node5" class="node"><title>Node5</title>
<g id="a_node5"><a xlink:href="a00124.html#gae5d12b8da57e95abcca6e6d9ba8a50bb" target="_top" xlink:title="Enable AHBx peripheral clocks for DMA2, GPIOC, ADC1, TIM2. ">
<polygon fill="white" stroke="black" points="87,-646.5 87,-665.5 213,-665.5 213,-646.5 87,-646.5"/>
<text text-anchor="middle" x="150" y="-653.5" font-family="Helvetica,sans-Serif" font-size="10.00">RCC_Periph2DMA_Conf</text>
</a>
</g>
</g>
<!-- Node1&#45;&gt;Node5 -->
<g id="edge5" class="edge"><title>Node1&#45;&gt;Node5</title>
<path fill="none" stroke="midnightblue" d="M20.4759,-361.71C22.8838,-406.851 35.1767,-595.739 74,-637 75.3807,-638.467 76.8571,-639.828 78.4132,-641.089"/>
<polygon fill="midnightblue" stroke="midnightblue" points="76.5081,-644.026 86.7844,-646.604 80.3588,-638.18 76.5081,-644.026"/>
</g>
<!-- Node6 -->
<g id="node6" class="node"><title>Node6</title>
<g id="a_node6"><a xlink:href="a00116.html#gad45b8278807ffed1f22e03d86d35bf90" target="_top" xlink:title="Initialize all GPIOs from MDB_GPIO. ">
<polygon fill="white" stroke="black" points="106,-608.5 106,-627.5 194,-627.5 194,-608.5 106,-608.5"/>
<text text-anchor="middle" x="150" y="-615.5" font-family="Helvetica,sans-Serif" font-size="10.00">MDB_GPIO_Init</text>
</a>
</g>
</g>
<!-- Node1&#45;&gt;Node6 -->
<g id="edge6" class="edge"><title>Node1&#45;&gt;Node6</title>
<path fill="none" stroke="midnightblue" d="M20.764,-361.502C24.2501,-402.508 39.9658,-563.828 74,-599 80.0422,-605.244 87.8196,-609.546 96.0694,-612.488"/>
<polygon fill="midnightblue" stroke="midnightblue" points="95.3155,-615.914 105.895,-615.352 97.2746,-609.194 95.3155,-615.914"/>
</g>
<!-- Node9 -->
<g id="node9" class="node"><title>Node9</title>
<g id="a_node9"><a xlink:href="a00078.html#ga99e90c818f4042ca67ee111f9c666297" target="_top" xlink:title="Configures Button pin as input. ">
<polygon fill="white" stroke="black" points="91.5,-532.5 91.5,-551.5 208.5,-551.5 208.5,-532.5 91.5,-532.5"/>
<text text-anchor="middle" x="150" y="-539.5" font-family="Helvetica,sans-Serif" font-size="10.00">MD_DISCO_ButtonInit</text>
</a>
</g>
</g>
<!-- Node1&#45;&gt;Node9 -->
<g id="edge9" class="edge"><title>Node1&#45;&gt;Node9</title>
<path fill="none" stroke="midnightblue" d="M19.9907,-361.814C20.5211,-390.982 26.2283,-477.911 74,-523 76.5688,-525.424 79.4012,-527.551 82.416,-529.416"/>
<polygon fill="midnightblue" stroke="midnightblue" points="80.8351,-532.539 91.3276,-534.007 84.0409,-526.316 80.8351,-532.539"/>
</g>
<!-- Node11 -->
<g id="node11" class="node"><title>Node11</title>
<g id="a_node11"><a xlink:href="a00078.html#gaca7a1ac308a8fda1547ddc0f5872aa74" target="_top" xlink:title="Configure all pins for on&#45;board LEDs as outputs. ">
<polygon fill="white" stroke="black" points="98,-456.5 98,-475.5 202,-475.5 202,-456.5 98,-456.5"/>
<text text-anchor="middle" x="150" y="-463.5" font-family="Helvetica,sans-Serif" font-size="10.00">MD_DISCO_LedInit</text>
</a>
</g>
</g>
<!-- Node1&#45;&gt;Node11 -->
<g id="edge11" class="edge"><title>Node1&#45;&gt;Node11</title>
<path fill="none" stroke="midnightblue" d="M22.7244,-361.793C28.6443,-381.196 44.5724,-424.582 74,-447 78.3407,-450.307 83.1925,-453.043 88.2838,-455.305"/>
<polygon fill="midnightblue" stroke="midnightblue" points="87.0578,-458.584 97.6482,-458.888 89.5593,-452.046 87.0578,-458.584"/>
</g>
<!-- Node12 -->
<g id="node12" class="node"><title>Node12</title>
<g id="a_node12"><a xlink:href="a00029.html#a6fedd7fae01484a6b99876a58703b27e" target="_top" xlink:title="MD_DELAY_Init">
<polygon fill="white" stroke="black" points="105.5,-494.5 105.5,-513.5 194.5,-513.5 194.5,-494.5 105.5,-494.5"/>
<text text-anchor="middle" x="150" y="-501.5" font-family="Helvetica,sans-Serif" font-size="10.00">MD_DELAY_Init</text>
</a>
</g>
</g>
<!-- Node1&#45;&gt;Node12 -->
<g id="edge13" class="edge"><title>Node1&#45;&gt;Node12</title>
<path fill="none" stroke="midnightblue" d="M20.989,-361.737C24.0239,-386.344 35.478,-451.444 74,-485 80.1925,-490.394 87.7051,-494.296 95.554,-497.11"/>
<polygon fill="midnightblue" stroke="midnightblue" points="94.6438,-500.491 105.229,-500.03 96.6666,-493.789 94.6438,-500.491"/>
</g>
<!-- Node13 -->
<g id="node13" class="node"><title>Node13</title>
<g id="a_node13"><a xlink:href="a00029.html#ab6f9456b6ae46b75ed32de43a8456867" target="_top" xlink:title="Inserts a delay time. ">
<polygon fill="white" stroke="black" points="122,-342.5 122,-361.5 178,-361.5 178,-342.5 122,-342.5"/>
<text text-anchor="middle" x="150" y="-349.5" font-family="Helvetica,sans-Serif" font-size="10.00">Delayms</text>
</a>
</g>
</g>
<!-- Node1&#45;&gt;Node13 -->
<g id="edge14" class="edge"><title>Node1&#45;&gt;Node13</title>
<path fill="none" stroke="midnightblue" d="M38.2089,-352C57.2054,-352 87.5245,-352 111.647,-352"/>
<polygon fill="midnightblue" stroke="midnightblue" points="111.892,-355.5 121.892,-352 111.892,-348.5 111.892,-355.5"/>
</g>
<!-- Node15 -->
<g id="node15" class="node"><title>Node15</title>
<g id="a_node15"><a xlink:href="a00116.html#ga96648f92af47de61ebadb96b6a543415" target="_top" xlink:title="Provides GPIO pin toggle functionality for MD_GPIO_NAME_t types defined in MDB_GPIO. ">
<polygon fill="white" stroke="black" points="98,-418.5 98,-437.5 202,-437.5 202,-418.5 98,-418.5"/>
<text text-anchor="middle" x="150" y="-425.5" font-family="Helvetica,sans-Serif" font-size="10.00">MDB_GPIO_Toggle</text>
</a>
</g>
</g>
<!-- Node1&#45;&gt;Node15 -->
<g id="edge16" class="edge"><title>Node1&#45;&gt;Node15</title>
<path fill="none" stroke="midnightblue" d="M26.4609,-361.665C35.5411,-374.475 53.3032,-396.866 74,-409 78.4485,-411.608 83.2495,-413.861 88.1972,-415.807"/>
<polygon fill="midnightblue" stroke="midnightblue" points="87.2437,-419.182 97.8386,-419.183 89.5573,-412.575 87.2437,-419.182"/>
</g>
<!-- Node16 -->
<g id="node16" class="node"><title>Node16</title>
<g id="a_node16"><a xlink:href="a00064.html#ga70bed9fb6612cb572a8c10e148404344" target="_top" xlink:title="Initializes USARTx peripheral and corresponding pins. ">
<polygon fill="white" stroke="black" points="105.5,-380.5 105.5,-399.5 194.5,-399.5 194.5,-380.5 105.5,-380.5"/>
<text text-anchor="middle" x="150" y="-387.5" font-family="Helvetica,sans-Serif" font-size="10.00">TM_USART_Init</text>
</a>
</g>
</g>
<!-- Node1&#45;&gt;Node16 -->
<g id="edge17" class="edge"><title>Node1&#45;&gt;Node16</title>
<path fill="none" stroke="midnightblue" d="M38.3587,-358.923C48.7434,-362.721 62.0121,-367.381 74,-371 81.862,-373.374 90.2466,-375.697 98.4558,-377.859"/>
<polygon fill="midnightblue" stroke="midnightblue" points="97.7778,-381.299 108.335,-380.409 99.5271,-374.521 97.7778,-381.299"/>
</g>
<!-- Node17 -->
<g id="node17" class="node"><title>Node17</title>
<g id="a_node17"><a xlink:href="a00071.html#gabb02137ecc24355b4c9d3da38b59a44d" target="_top" xlink:title="Initializes DAC channel and it&#39;s pin. ">
<polygon fill="white" stroke="black" points="111,-570.5 111,-589.5 189,-589.5 189,-570.5 111,-570.5"/>
<text text-anchor="middle" x="150" y="-577.5" font-family="Helvetica,sans-Serif" font-size="10.00">MD_DAC_Init</text>
</a>
</g>
</g>
<!-- Node1&#45;&gt;Node17 -->
<g id="edge18" class="edge"><title>Node1&#45;&gt;Node17</title>
<path fill="none" stroke="midnightblue" d="M21.1698,-361.512C25.9019,-398.469 44.7814,-531.919 74,-561 81.2831,-568.249 90.9108,-572.862 100.831,-575.767"/>
<polygon fill="midnightblue" stroke="midnightblue" points="100.235,-579.223 110.774,-578.138 101.858,-572.414 100.235,-579.223"/>
</g>
<!-- Node18 -->
<g id="node18" class="node"><title>Node18</title>
<g id="a_node18"><a xlink:href="a00092.html#gab6494f34679dc4d0a8c08ec624a4bcf8" target="_top" xlink:title="Dual DAC set channel wrapper function. ">
<polygon fill="white" stroke="black" points="84,-304.5 84,-323.5 216,-323.5 216,-304.5 84,-304.5"/>
<text text-anchor="middle" x="150" y="-311.5" font-family="Helvetica,sans-Serif" font-size="10.00">DAC_SetDualChanSigned</text>
</a>
</g>
</g>
<!-- Node1&#45;&gt;Node18 -->
<g id="edge20" class="edge"><title>Node1&#45;&gt;Node18</title>
<path fill="none" stroke="midnightblue" d="M38.3587,-345.077C48.7434,-341.279 62.0121,-336.619 74,-333 81.862,-330.626 90.2466,-328.303 98.4558,-326.141"/>
<polygon fill="midnightblue" stroke="midnightblue" points="99.5271,-329.479 108.335,-323.591 97.7778,-322.701 99.5271,-329.479"/>
</g>
<!-- Node19 -->
<g id="node19" class="node"><title>Node19</title>
<g id="a_node19"><a xlink:href="a00121.html#ga5c12343e267ace8587309499bea6babe" target="_top" xlink:title="Provides the initial configuration method for the nested vector interrupt controller. ">
<polygon fill="white" stroke="black" points="98,-266.5 98,-285.5 202,-285.5 202,-266.5 98,-266.5"/>
<text text-anchor="middle" x="150" y="-273.5" font-family="Helvetica,sans-Serif" font-size="10.00">NVIC_Configuration</text>
</a>
</g>
</g>
<!-- Node1&#45;&gt;Node19 -->
<g id="edge21" class="edge"><title>Node1&#45;&gt;Node19</title>
<path fill="none" stroke="midnightblue" d="M26.4609,-342.335C35.5411,-329.525 53.3032,-307.134 74,-295 78.4485,-292.392 83.2495,-290.139 88.1972,-288.193"/>
<polygon fill="midnightblue" stroke="midnightblue" points="89.5573,-291.425 97.8386,-284.817 87.2437,-284.818 89.5573,-291.425"/>
</g>
<!-- Node20 -->
<g id="node20" class="node"><title>Node20</title>
<g id="a_node20"><a xlink:href="a00124.html#gad273dc4b4b26574e92666e4020e1ef5a" target="_top" xlink:title="Timer&#45;triggered ADC&#45;scan mode with DMA to memory. ">
<polygon fill="white" stroke="black" points="82,-228.5 82,-247.5 218,-247.5 218,-228.5 82,-228.5"/>
<text text-anchor="middle" x="150" y="-235.5" font-family="Helvetica,sans-Serif" font-size="10.00">TIM2_DMA_Trigger_Config</text>
</a>
</g>
</g>
<!-- Node1&#45;&gt;Node20 -->
<g id="edge22" class="edge"><title>Node1&#45;&gt;Node20</title>
<path fill="none" stroke="midnightblue" d="M22.7244,-342.207C28.6443,-322.804 44.5724,-279.418 74,-257 76.4842,-255.107 79.1358,-253.402 81.904,-251.865"/>
<polygon fill="midnightblue" stroke="midnightblue" points="83.5467,-254.96 91.0787,-247.509 80.544,-248.636 83.5467,-254.96"/>
</g>
<!-- Node22 -->
<g id="node22" class="node"><title>Node22</title>
<g id="a_node22"><a xlink:href="a00124.html#ga85f5a2827c06dbdba076d4e9125a11f8" target="_top" xlink:title="ADC common and regular scan group init. ">
<polygon fill="white" stroke="black" points="84.5,-190.5 84.5,-209.5 215.5,-209.5 215.5,-190.5 84.5,-190.5"/>
<text text-anchor="middle" x="150" y="-197.5" font-family="Helvetica,sans-Serif" font-size="10.00">ADC_Scan_Group_Config</text>
</a>
</g>
</g>
<!-- Node1&#45;&gt;Node22 -->
<g id="edge24" class="edge"><title>Node1&#45;&gt;Node22</title>
<path fill="none" stroke="midnightblue" d="M20.989,-342.263C24.0239,-317.656 35.478,-252.556 74,-219 75.9497,-217.302 78.0303,-215.751 80.211,-214.336"/>
<polygon fill="midnightblue" stroke="midnightblue" points="81.9442,-217.378 89.0537,-209.522 78.5973,-211.23 81.9442,-217.378"/>
</g>
<!-- Node23 -->
<g id="node23" class="node"><title>Node23</title>
<g id="a_node23"><a xlink:href="a00112.html#gabecad8655f9e14a855864feee9fee9e8" target="_top" xlink:title="Set initial values (POR state) of the ASG system and the global state structure members. ">
<polygon fill="white" stroke="black" points="104,-152.5 104,-171.5 196,-171.5 196,-152.5 104,-152.5"/>
<text text-anchor="middle" x="150" y="-159.5" font-family="Helvetica,sans-Serif" font-size="10.00">init_globalStructs</text>
</a>
</g>
</g>
<!-- Node1&#45;&gt;Node23 -->
<g id="edge25" class="edge"><title>Node1&#45;&gt;Node23</title>
<path fill="none" stroke="midnightblue" d="M19.9907,-342.186C20.5211,-313.018 26.2283,-226.089 74,-181 79.7007,-175.619 86.6999,-171.705 94.1094,-168.867"/>
<polygon fill="midnightblue" stroke="midnightblue" points="95.187,-172.197 103.647,-165.819 93.0563,-165.529 95.187,-172.197"/>
</g>
<!-- Node24 -->
<g id="node24" class="node"><title>Node24</title>
<g id="a_node24"><a xlink:href="a00078.html#ga4bdeb65c33d29739b341feeb76aee264" target="_top" xlink:title="Checks if button was pressed now, but was not already pressed before. ">
<polygon fill="white" stroke="black" points="74,-114.5 74,-133.5 226,-133.5 226,-114.5 74,-114.5"/>
<text text-anchor="middle" x="150" y="-121.5" font-family="Helvetica,sans-Serif" font-size="10.00">MD_DISCO_ButtonOnPressed</text>
</a>
</g>
</g>
<!-- Node1&#45;&gt;Node24 -->
<g id="edge26" class="edge"><title>Node1&#45;&gt;Node24</title>
<path fill="none" stroke="midnightblue" d="M21.1698,-342.488C25.9019,-305.531 44.7814,-172.081 74,-143 75.4281,-141.579 76.9463,-140.259 78.5391,-139.033"/>
<polygon fill="midnightblue" stroke="midnightblue" points="80.4659,-141.956 87.0542,-133.658 76.7296,-136.036 80.4659,-141.956"/>
</g>
<!-- Node25 -->
<g id="node25" class="node"><title>Node25</title>
<g id="a_node25"><a xlink:href="a00141.html#ga4af381bf92ce31395c19b6652b930b7a" target="_top" xlink:title="Fast console command parser. ">
<polygon fill="white" stroke="black" points="104,-76.5 104,-95.5 196,-95.5 196,-76.5 104,-76.5"/>
<text text-anchor="middle" x="150" y="-83.5" font-family="Helvetica,sans-Serif" font-size="10.00">fastConsoleCase</text>
</a>
</g>
</g>
<!-- Node1&#45;&gt;Node25 -->
<g id="edge27" class="edge"><title>Node1&#45;&gt;Node25</title>
<path fill="none" stroke="midnightblue" d="M20.764,-342.498C24.2501,-301.492 39.9658,-140.172 74,-105 79.5824,-99.2309 86.6461,-95.12 94.1951,-92.2074"/>
<polygon fill="midnightblue" stroke="midnightblue" points="95.4629,-95.4774 103.942,-89.1244 93.3518,-88.8033 95.4629,-95.4774"/>
</g>
<!-- Node29 -->
<g id="node29" class="node"><title>Node29</title>
<g id="a_node29"><a xlink:href="a00064.html#ga0bf136abba24771c4a5a83ace52a76c1" target="_top" xlink:title="Checks if internal USARTx buffer is full. ">
<polygon fill="white" stroke="black" points="91,-38.5 91,-57.5 209,-57.5 209,-38.5 91,-38.5"/>
<text text-anchor="middle" x="150" y="-45.5" font-family="Helvetica,sans-Serif" font-size="10.00">TM_USART_BufferFull</text>
</a>
</g>
</g>
<!-- Node1&#45;&gt;Node29 -->
<g id="edge31" class="edge"><title>Node1&#45;&gt;Node29</title>
<path fill="none" stroke="midnightblue" d="M20.4759,-342.29C22.8838,-297.149 35.1767,-108.261 74,-67 76.3472,-64.5054 78.9709,-62.3193 81.7928,-60.405"/>
<polygon fill="midnightblue" stroke="midnightblue" points="83.7157,-63.3413 90.7746,-55.4404 80.3294,-57.2148 83.7157,-63.3413"/>
</g>
<!-- Node30 -->
<g id="node30" class="node"><title>Node30</title>
<g id="a_node30"><a xlink:href="a00064.html#ga6c8dfcc950305f511393240ea847b2ad" target="_top" xlink:title="Clears internal USART buffer. ">
<polygon fill="white" stroke="black" points="87.5,-0.5 87.5,-19.5 212.5,-19.5 212.5,-0.5 87.5,-0.5"/>
<text text-anchor="middle" x="150" y="-7.5" font-family="Helvetica,sans-Serif" font-size="10.00">TM_USART_ClearBuffer</text>
</a>
</g>
</g>
<!-- Node1&#45;&gt;Node30 -->
<g id="edge32" class="edge"><title>Node1&#45;&gt;Node30</title>
<path fill="none" stroke="midnightblue" d="M20.2391,-342.332C21.6384,-293.721 30.29,-76.4717 74,-29 75.433,-27.4437 76.9736,-26.0069 78.603,-24.681"/>
<polygon fill="midnightblue" stroke="midnightblue" points="80.9456,-27.3314 87.4047,-18.9332 77.1182,-21.4704 80.9456,-27.3314"/>
</g>
<!-- Node3 -->
<g id="node3" class="node"><title>Node3</title>
<g id="a_node3"><a xlink:href="a00149.html#ga1ee14ac28e60198cc998586807b51e4c" target="_top" xlink:title="Configures the System clock source, PLL Multiplier and Divider factors, AHB/APBx prescalers and Flash...">
<polygon fill="white" stroke="black" points="426,-693.5 426,-712.5 500,-712.5 500,-693.5 426,-693.5"/>
<text text-anchor="middle" x="463" y="-700.5" font-family="Helvetica,sans-Serif" font-size="10.00">SetSysClock</text>
</a>
</g>
</g>
<!-- Node2&#45;&gt;Node3 -->
<g id="edge2" class="edge"><title>Node2&#45;&gt;Node3</title>
<path fill="none" stroke="midnightblue" d="M182.059,-697.195C204.293,-699.316 234.954,-701.905 262,-703 314.661,-705.131 375.185,-704.735 415.735,-704.06"/>
<polygon fill="midnightblue" stroke="midnightblue" points="415.916,-707.557 425.852,-703.878 415.791,-700.558 415.916,-707.557"/>
</g>
<!-- Node4 -->
<g id="node4" class="node"><title>Node4</title>
<g id="a_node4"><a xlink:href="a00149.html#gae0c36a9591fe6e9c45ecb21a794f0f0f" target="_top" xlink:title="Update SystemCoreClock variable according to Clock Register Values. The SystemCoreClock variable cont...">
<polygon fill="white" stroke="black" points="262,-674.5 262,-693.5 390,-693.5 390,-674.5 262,-674.5"/>
<text text-anchor="middle" x="326" y="-681.5" font-family="Helvetica,sans-Serif" font-size="10.00">SystemCoreClockUpdate</text>
</a>
</g>
</g>
<!-- Node2&#45;&gt;Node4 -->
<g id="edge3" class="edge"><title>Node2&#45;&gt;Node4</title>
<path fill="none" stroke="midnightblue" d="M182.108,-692.212C201.438,-691.101 227.152,-689.623 251.435,-688.228"/>
<polygon fill="midnightblue" stroke="midnightblue" points="251.949,-691.704 261.732,-687.636 251.548,-684.716 251.949,-691.704"/>
</g>
<!-- Node4&#45;&gt;Node3 -->
<g id="edge4" class="edge"><title>Node4&#45;&gt;Node3</title>
<path fill="none" stroke="midnightblue" d="M390.152,-692.888C398.741,-694.097 407.424,-695.319 415.642,-696.475"/>
<polygon fill="midnightblue" stroke="midnightblue" points="415.37,-699.972 425.76,-697.9 416.345,-693.04 415.37,-699.972"/>
</g>
<!-- Node7 -->
<g id="node7" class="node"><title>Node7</title>
<g id="a_node7"><a xlink:href="a00116.html#ga1de48ba66939a9726f7930fc6a1e653a" target="_top" xlink:title="MDB_GPIO_Off">
<polygon fill="white" stroke="black" points="282,-617.5 282,-636.5 370,-636.5 370,-617.5 282,-617.5"/>
<text text-anchor="middle" x="326" y="-624.5" font-family="Helvetica,sans-Serif" font-size="10.00">MDB_GPIO_Off</text>
</a>
</g>
</g>
<!-- Node6&#45;&gt;Node7 -->
<g id="edge7" class="edge"><title>Node6&#45;&gt;Node7</title>
<path fill="none" stroke="midnightblue" d="M194.011,-620.225C217.539,-621.442 246.892,-622.96 271.844,-624.251"/>
<polygon fill="midnightblue" stroke="midnightblue" points="271.713,-627.748 281.881,-624.77 272.075,-620.758 271.713,-627.748"/>
</g>
<!-- Node8 -->
<g id="node8" class="node"><title>Node8</title>
<g id="a_node8"><a xlink:href="a00116.html#ga9915de13874ce89948d7d860af7e28c8" target="_top" xlink:title="{ function_description } ">
<polygon fill="white" stroke="black" points="282.5,-579.5 282.5,-598.5 369.5,-598.5 369.5,-579.5 282.5,-579.5"/>
<text text-anchor="middle" x="326" y="-586.5" font-family="Helvetica,sans-Serif" font-size="10.00">MDB_GPIO_On</text>
</a>
</g>
</g>
<!-- Node6&#45;&gt;Node8 -->
<g id="edge8" class="edge"><title>Node6&#45;&gt;Node8</title>
<path fill="none" stroke="midnightblue" d="M194.011,-610.831C217.716,-606.881 247.334,-601.944 272.406,-597.766"/>
<polygon fill="midnightblue" stroke="midnightblue" points="273.195,-601.183 282.484,-596.086 272.044,-594.278 273.195,-601.183"/>
</g>
<!-- Node10 -->
<g id="node10" class="node"><title>Node10</title>
<g id="a_node10"><a xlink:href="a00082.html#ga76a4711f406d06b13979cb89d6358cfc" target="_top" xlink:title="Initialize GPIO pins. ">
<polygon fill="white" stroke="black" points="285.5,-532.5 285.5,-551.5 366.5,-551.5 366.5,-532.5 285.5,-532.5"/>
<text text-anchor="middle" x="326" y="-539.5" font-family="Helvetica,sans-Serif" font-size="10.00">MD_GPIO_Init</text>
</a>
</g>
</g>
<!-- Node9&#45;&gt;Node10 -->
<g id="edge10" class="edge"><title>Node9&#45;&gt;Node10</title>
<path fill="none" stroke="midnightblue" d="M208.939,-542C230.421,-542 254.573,-542 275.259,-542"/>
<polygon fill="midnightblue" stroke="midnightblue" points="275.418,-545.5 285.418,-542 275.418,-538.5 275.418,-545.5"/>
</g>
<!-- Node11&#45;&gt;Node10 -->
<g id="edge12" class="edge"><title>Node11&#45;&gt;Node10</title>
<path fill="none" stroke="midnightblue" d="M197.252,-475.597C206.91,-478.187 216.913,-481.315 226,-485 253.766,-496.26 283.238,-514.081 302.733,-526.798"/>
<polygon fill="midnightblue" stroke="midnightblue" points="300.929,-529.801 311.198,-532.409 304.797,-523.967 300.929,-529.801"/>
</g>
<!-- Node14 -->
<g id="node14" class="node"><title>Node14</title>
<g id="a_node14"><a xlink:href="a00142.html#ga5c41ccf5ad2d5d2d3f6beb8358641ed2" target="_top" xlink:title="This function decrement timing variable. ">
<polygon fill="white" stroke="black" points="263.5,-342.5 263.5,-361.5 388.5,-361.5 388.5,-342.5 263.5,-342.5"/>
<text text-anchor="middle" x="326" y="-349.5" font-family="Helvetica,sans-Serif" font-size="10.00">TimingDelay_Decrement</text>
</a>
</g>
</g>
<!-- Node13&#45;&gt;Node14 -->
<g id="edge15" class="edge"><title>Node13&#45;&gt;Node14</title>
<path fill="none" stroke="midnightblue" d="M178.188,-352C198.359,-352 226.845,-352 253.363,-352"/>
<polygon fill="midnightblue" stroke="midnightblue" points="253.409,-355.5 263.409,-352 253.409,-348.5 253.409,-355.5"/>
</g>
<!-- Node17&#45;&gt;Node10 -->
<g id="edge19" class="edge"><title>Node17&#45;&gt;Node10</title>
<path fill="none" stroke="midnightblue" d="M189.185,-571.661C214.578,-566.115 248.173,-558.778 275.597,-552.789"/>
<polygon fill="midnightblue" stroke="midnightblue" points="276.372,-556.202 285.395,-550.649 274.879,-549.364 276.372,-556.202"/>
</g>
<!-- Node21 -->
<g id="node21" class="node"><title>Node21</title>
<g id="a_node21"><a xlink:href="a00124.html#ga63bf5922e4a4d0715a99ed083d89948b" target="_top" xlink:title="Configuration method for &quot;ADC continuous scan mode with timer triggered DMA&quot;. ">
<polygon fill="white" stroke="black" points="264,-223 264,-253 388,-253 388,-223 264,-223"/>
<text text-anchor="start" x="272" y="-241" font-family="Helvetica,sans-Serif" font-size="10.00">ADC_ContScanMode_w</text>
<text text-anchor="middle" x="326" y="-230" font-family="Helvetica,sans-Serif" font-size="10.00">_DMA_timeTrigd</text>
</a>
</g>
</g>
<!-- Node20&#45;&gt;Node21 -->
<g id="edge23" class="edge"><title>Node20&#45;&gt;Node21</title>
<path fill="none" stroke="midnightblue" d="M218.273,-238C229.886,-238 241.993,-238 253.708,-238"/>
<polygon fill="midnightblue" stroke="midnightblue" points="253.879,-241.5 263.879,-238 253.879,-234.5 253.879,-241.5"/>
</g>
<!-- Node26 -->
<g id="node26" class="node"><title>Node26</title>
<g id="a_node26"><a xlink:href="a00064.html#gabb0a95fd20e5e2a894e658b64a29ee61" target="_top" xlink:title="Gets string from USART. ">
<polygon fill="white" stroke="black" points="277.5,-76.5 277.5,-95.5 374.5,-95.5 374.5,-76.5 277.5,-76.5"/>
<text text-anchor="middle" x="326" y="-83.5" font-family="Helvetica,sans-Serif" font-size="10.00">TM_USART_Gets</text>
</a>
</g>
</g>
<!-- Node25&#45;&gt;Node26 -->
<g id="edge28" class="edge"><title>Node25&#45;&gt;Node26</title>
<path fill="none" stroke="midnightblue" d="M196.262,-86C217.928,-86 244.119,-86 267.206,-86"/>
<polygon fill="midnightblue" stroke="midnightblue" points="267.226,-89.5001 277.226,-86 267.226,-82.5001 267.226,-89.5001"/>
</g>
<!-- Node27 -->
<g id="node27" class="node"><title>Node27</title>
<g id="a_node27"><a xlink:href="a00130.html#ga3471071fc0b691d5ea05997762e9171c" target="_top" xlink:title="DAC values sequence pointer. ">
<polygon fill="white" stroke="black" points="289.5,-38.5 289.5,-57.5 362.5,-57.5 362.5,-38.5 289.5,-38.5"/>
<text text-anchor="middle" x="326" y="-45.5" font-family="Helvetica,sans-Serif" font-size="10.00">__attribute__</text>
</a>
</g>
</g>
<!-- Node25&#45;&gt;Node27 -->
<g id="edge29" class="edge"><title>Node25&#45;&gt;Node27</title>
<path fill="none" stroke="midnightblue" d="M194.908,-76.411C220.682,-70.7821 253.208,-63.6788 279.288,-57.983"/>
<polygon fill="midnightblue" stroke="midnightblue" points="280.28,-61.349 289.303,-55.7959 278.786,-54.5102 280.28,-61.349"/>
</g>
<!-- Node28 -->
<g id="node28" class="node"><title>Node28</title>
<g id="a_node28"><a xlink:href="a00116.html#gaa4c41497bc8308d40c005cb2ee30963b" target="_top" xlink:title="MDB_GPIO_BeamPin">
<polygon fill="white" stroke="black" points="269,-114.5 269,-133.5 383,-133.5 383,-114.5 269,-114.5"/>
<text text-anchor="middle" x="326" y="-121.5" font-family="Helvetica,sans-Serif" font-size="10.00">MDB_GPIO_BeamPin</text>
</a>
</g>
</g>
<!-- Node25&#45;&gt;Node28 -->
<g id="edge30" class="edge"><title>Node25&#45;&gt;Node28</title>
<path fill="none" stroke="midnightblue" d="M194.908,-95.589C218.179,-100.671 246.954,-106.955 271.519,-112.32"/>
<polygon fill="midnightblue" stroke="midnightblue" points="270.892,-115.766 281.408,-114.48 272.385,-108.927 270.892,-115.766"/>
</g>
</g>
</svg>
        <g id="navigator" transform="translate(0 0)" fill="#404254">
                <rect fill="#f2f5e9" fill-opacity="0.5" stroke="#606060" stroke-width=".5" x="0" y="0" width="60" height="60"/>
                <use id="zoomplus" xlink:href="#zoomPlus" x="17" y="9" onmousedown="handleZoom(evt,'in')"/>
                <use id="zoomminus" xlink:href="#zoomMin" x="42" y="9" onmousedown="handleZoom(evt,'out')"/>
                <use id="reset" xlink:href="#resetDef" x="30" y="36" onmousedown="handleReset()"/>
                <g id="arrowUp" xlink:href="#dirArrow" transform="translate(30 24)" onmousedown="handlePan(0,-1)">
                  <use xlink:href="#rim" fill="#404040">
                        <set attributeName="fill" to="#808080" begin="arrowUp.mouseover" end="arrowUp.mouseout"/>
                  </use>
                  <path fill="none" stroke="white" stroke-width="1.5" d="M0,-3.0v7 M-2.5,-0.5L0,-3.0L2.5,-0.5"/>
                </g>
                <g id="arrowRight" xlink:href="#dirArrow" transform="rotate(90) translate(36 -43)" onmousedown="handlePan(1,0)">
                  <use xlink:href="#rim" fill="#404040">
                        <set attributeName="fill" to="#808080" begin="arrowRight.mouseover" end="arrowRight.mouseout"/>
                  </use>
                  <path fill="none" stroke="white" stroke-width="1.5" d="M0,-3.0v7 M-2.5,-0.5L0,-3.0L2.5,-0.5"/>
                </g>
                <g id="arrowDown" xlink:href="#dirArrow" transform="rotate(180) translate(-30 -48)" onmousedown="handlePan(0,1)">
                  <use xlink:href="#rim" fill="#404040">
                        <set attributeName="fill" to="#808080" begin="arrowDown.mouseover" end="arrowDown.mouseout"/>
                  </use>
                  <path fill="none" stroke="white" stroke-width="1.5" d="M0,-3.0v7 M-2.5,-0.5L0,-3.0L2.5,-0.5"/>
                </g>
                <g id="arrowLeft" xlink:href="#dirArrow" transform="rotate(270) translate(-36 17)" onmousedown="handlePan(-1,0)">
                  <use xlink:href="#rim" fill="#404040">
                        <set attributeName="fill" to="#808080" begin="arrowLeft.mouseover" end="arrowLeft.mouseout"/>
                  </use>
                  <path fill="none" stroke="white" stroke-width="1.5" d="M0,-3.0v7 M-2.5,-0.5L0,-3.0L2.5,-0.5"/>
                </g>
        </g>
        <svg viewBox="0 0 15 15" width="100%" height="30px" preserveAspectRatio="xMaxYMin meet">
         <g id="arrow_out" transform="scale(0.3 0.3)">
          <a xlink:href="a00112_ga840291bc02cba5474a4cb46a9b9566fe_cgraph_org.svg" target="_base">
           <rect id="button" ry="5" rx="5" y="6" x="6" height="38" width="38"
                fill="#f2f5e9" fill-opacity="0.5" stroke="#606060" stroke-width="1.0"/>
           <path id="arrow"
             d="M 11.500037,31.436501 C 11.940474,20.09759 22.043105,11.32322 32.158766,21.979434 L 37.068811,17.246167 C 37.068811,17.246167 37.088388,32 37.088388,32 L 22.160133,31.978069 C 22.160133,31.978069 26.997745,27.140456 26.997745,27.140456 C 18.528582,18.264221 13.291696,25.230495 11.500037,31.436501 z"
             style="fill:#404040;"/>
          </a>
         </g>
        </svg>
</svg>
