<?xml version="1.0" encoding="UTF-8" standalone="no"?>
<!DOCTYPE svg PUBLIC "-//W3C//DTD SVG 1.1//EN"
 "http://www.w3.org/Graphics/SVG/1.1/DTD/svg11.dtd">
<!-- Generated by graphviz version 2.38.0 (20140413.2041)
 -->
<!-- Title: actuators.h Pages: 1 -->
<svg width="1918pt" height="364pt"
 viewBox="0.00 0.00 1918.00 364.00" xmlns="http://www.w3.org/2000/svg" xmlns:xlink="http://www.w3.org/1999/xlink">
<g id="graph0" class="graph" transform="scale(1 1) rotate(0) translate(4 360)">
<title>actuators.h</title>
<polygon fill="white" stroke="none" points="-4,4 -4,-360 1914,-360 1914,4 -4,4"/>
<!-- Node1 -->
<g id="node1" class="node"><title>Node1</title>
<polygon fill="#bfbfbf" stroke="black" points="1052.5,-336.5 1052.5,-355.5 1117.5,-355.5 1117.5,-336.5 1052.5,-336.5"/>
<text text-anchor="middle" x="1085" y="-343.5" font-family="Helvetica,sans-Serif" font-size="10.00">actuators.h</text>
</g>
<!-- Node2 -->
<g id="node2" class="node"><title>Node2</title>
<polygon fill="white" stroke="#bfbfbf" points="1653,-112.5 1653,-131.5 1699,-131.5 1699,-112.5 1653,-112.5"/>
<text text-anchor="middle" x="1676" y="-119.5" font-family="Helvetica,sans-Serif" font-size="10.00">stdio.h</text>
</g>
<!-- Node1&#45;&gt;Node2 -->
<g id="edge1" class="edge"><title>Node1&#45;&gt;Node2</title>
<path fill="none" stroke="midnightblue" d="M1117.65,-342.439C1174.75,-337.482 1296.2,-324.81 1396,-300 1539.38,-264.354 1623.93,-308.798 1709,-188 1719.96,-172.431 1706.64,-152.708 1693.79,-139.093"/>
<polygon fill="midnightblue" stroke="midnightblue" points="1696.04,-136.397 1686.47,-131.86 1691.12,-141.377 1696.04,-136.397"/>
</g>
<!-- Node3 -->
<g id="node3" class="node"><title>Node3</title>
<g id="a_node3"><a xlink:href="a00014.html" target="_top" xlink:title="Provides DMA related configuration and access functions for ADC and DAC. ">
<polygon fill="white" stroke="black" points="971,-280.5 971,-299.5 1057,-299.5 1057,-280.5 971,-280.5"/>
<text text-anchor="middle" x="1014" y="-287.5" font-family="Helvetica,sans-Serif" font-size="10.00">adc_dac_dma.h</text>
</a>
</g>
</g>
<!-- Node1&#45;&gt;Node3 -->
<g id="edge2" class="edge"><title>Node1&#45;&gt;Node3</title>
<path fill="none" stroke="midnightblue" d="M1068.48,-336.324C1056.13,-328.263 1039.76,-316.077 1028.05,-306.369"/>
<polygon fill="midnightblue" stroke="midnightblue" points="1030.33,-303.712 1020.47,-299.834 1025.76,-309.014 1030.33,-303.712"/>
</g>
<!-- Node4 -->
<g id="node4" class="node"><title>Node4</title>
<g id="a_node4"><a xlink:href="a00019.html" target="_top" xlink:title="Global defines include file. ">
<polygon fill="white" stroke="black" points="865,-56.5 865,-75.5 921,-75.5 921,-56.5 865,-56.5"/>
<text text-anchor="middle" x="893" y="-63.5" font-family="Helvetica,sans-Serif" font-size="10.00">globals.h</text>
</a>
</g>
</g>
<!-- Node1&#45;&gt;Node4 -->
<g id="edge82" class="edge"><title>Node1&#45;&gt;Node4</title>
<path fill="none" stroke="midnightblue" d="M1086.31,-336.249C1089.05,-314.616 1093.04,-257.92 1066,-224 1039.15,-190.313 1011.28,-212.723 976,-188 938.061,-161.414 912.139,-111.538 900.306,-84.8785"/>
<polygon fill="midnightblue" stroke="midnightblue" points="903.489,-83.4204 896.344,-75.5979 897.051,-86.1691 903.489,-83.4204"/>
</g>
<!-- Node27 -->
<g id="node27" class="node"><title>Node27</title>
<g id="a_node27"><a xlink:href="a00023.html" target="_top" xlink:title="Analog processing related callback handler definition. ">
<polygon fill="white" stroke="black" points="764,-168.5 764,-187.5 846,-187.5 846,-168.5 764,-168.5"/>
<text text-anchor="middle" x="805" y="-175.5" font-family="Helvetica,sans-Serif" font-size="10.00">irq_callbacks.h</text>
</a>
</g>
</g>
<!-- Node1&#45;&gt;Node27 -->
<g id="edge83" class="edge"><title>Node1&#45;&gt;Node27</title>
<path fill="none" stroke="midnightblue" d="M1052.06,-341.694C996.699,-334.352 885.08,-311.591 824,-244 812.555,-231.335 807.981,-212.129 806.165,-197.874"/>
<polygon fill="midnightblue" stroke="midnightblue" points="809.632,-197.357 805.221,-187.724 802.662,-198.005 809.632,-197.357"/>
</g>
<!-- Node28 -->
<g id="node28" class="node"><title>Node28</title>
<g id="a_node28"><a xlink:href="a00042_source.html" target="_top" xlink:title="mdb_gpio.h">
<polygon fill="white" stroke="black" points="117.5,-168.5 117.5,-187.5 184.5,-187.5 184.5,-168.5 117.5,-168.5"/>
<text text-anchor="middle" x="151" y="-175.5" font-family="Helvetica,sans-Serif" font-size="10.00">mdb_gpio.h</text>
</a>
</g>
</g>
<!-- Node1&#45;&gt;Node28 -->
<g id="edge84" class="edge"><title>Node1&#45;&gt;Node28</title>
<path fill="none" stroke="midnightblue" d="M1052.31,-339.189C911.398,-314.146 355.86,-215.41 194.913,-186.805"/>
<polygon fill="midnightblue" stroke="midnightblue" points="195.349,-183.327 184.891,-185.023 194.124,-190.219 195.349,-183.327"/>
</g>
<!-- Node30 -->
<g id="node30" class="node"><title>Node30</title>
<g id="a_node30"><a xlink:href="a00048.html" target="_top" xlink:title="PID compensator implementation. ">
<polygon fill="white" stroke="black" points="1430,-168.5 1430,-187.5 1468,-187.5 1468,-168.5 1430,-168.5"/>
<text text-anchor="middle" x="1449" y="-175.5" font-family="Helvetica,sans-Serif" font-size="10.00">pid.h</text>
</a>
</g>
</g>
<!-- Node1&#45;&gt;Node30 -->
<g id="edge85" class="edge"><title>Node1&#45;&gt;Node30</title>
<path fill="none" stroke="midnightblue" d="M1117.99,-343.577C1182.97,-339.108 1328.9,-320.605 1418,-244 1432.05,-231.919 1440.22,-212.038 1444.61,-197.439"/>
<polygon fill="midnightblue" stroke="midnightblue" points="1448.06,-198.086 1447.27,-187.521 1441.3,-196.276 1448.06,-198.086"/>
</g>
<!-- Node33 -->
<g id="node33" class="node"><title>Node33</title>
<g id="a_node33"><a xlink:href="a00021.html" target="_top" xlink:title="Provides tools and helper functions. ">
<polygon fill="white" stroke="black" points="1524.5,-168.5 1524.5,-187.5 1575.5,-187.5 1575.5,-168.5 1524.5,-168.5"/>
<text text-anchor="middle" x="1550" y="-175.5" font-family="Helvetica,sans-Serif" font-size="10.00">helper.h</text>
</a>
</g>
</g>
<!-- Node1&#45;&gt;Node33 -->
<g id="edge86" class="edge"><title>Node1&#45;&gt;Node33</title>
<path fill="none" stroke="midnightblue" d="M1117.73,-343.835C1170.25,-341.049 1275.88,-331.643 1359,-300 1428.08,-273.704 1498.87,-220.629 1531.48,-194.395"/>
<polygon fill="midnightblue" stroke="midnightblue" points="1534.09,-196.782 1539.64,-187.752 1529.67,-191.355 1534.09,-196.782"/>
</g>
<!-- Node3&#45;&gt;Node1 -->
<g id="edge81" class="edge"><title>Node3&#45;&gt;Node1</title>
<path fill="none" stroke="midnightblue" d="M1030.49,-299.655C1042.9,-307.756 1059.39,-320.038 1071.13,-329.778"/>
<polygon fill="midnightblue" stroke="midnightblue" points="1068.85,-332.436 1078.71,-336.324 1073.43,-327.138 1068.85,-332.436"/>
</g>
<!-- Node3&#45;&gt;Node4 -->
<g id="edge3" class="edge"><title>Node3&#45;&gt;Node4</title>
<path fill="none" stroke="midnightblue" d="M970.795,-288.425C907.428,-284.847 792.721,-267.194 755,-188 751.178,-179.975 750.709,-175.785 755,-168 769.463,-141.759 787.61,-149.404 812,-132 834.291,-116.094 858.642,-96.1834 874.763,-82.6181"/>
<polygon fill="midnightblue" stroke="midnightblue" points="877.441,-84.936 882.807,-75.8004 872.915,-79.5959 877.441,-84.936"/>
</g>
<!-- Node5 -->
<g id="node5" class="node"><title>Node5</title>
<g id="a_node5"><a xlink:href="a00044.html" target="_top" xlink:title="Provides nested vector interrupt controller configuration methods. ">
<polygon fill="white" stroke="black" points="1335,-224.5 1335,-243.5 1409,-243.5 1409,-224.5 1335,-224.5"/>
<text text-anchor="middle" x="1372" y="-231.5" font-family="Helvetica,sans-Serif" font-size="10.00">nvic_config.h</text>
</a>
</g>
</g>
<!-- Node3&#45;&gt;Node5 -->
<g id="edge4" class="edge"><title>Node3&#45;&gt;Node5</title>
<path fill="none" stroke="midnightblue" d="M1057.18,-282.486C1124.67,-272.307 1254.63,-252.704 1324.61,-242.148"/>
<polygon fill="midnightblue" stroke="midnightblue" points="1325.53,-245.549 1334.9,-240.597 1324.49,-238.627 1325.53,-245.549"/>
</g>
<!-- Node7 -->
<g id="node7" class="node"><title>Node7</title>
<g id="a_node7"><a xlink:href="a00025.html" target="_top" xlink:title="Main header definition. ">
<polygon fill="white" stroke="black" points="1113,-224.5 1113,-243.5 1159,-243.5 1159,-224.5 1113,-224.5"/>
<text text-anchor="middle" x="1136" y="-231.5" font-family="Helvetica,sans-Serif" font-size="10.00">main.h</text>
</a>
</g>
</g>
<!-- Node3&#45;&gt;Node7 -->
<g id="edge6" class="edge"><title>Node3&#45;&gt;Node7</title>
<path fill="none" stroke="midnightblue" d="M1028.49,-280.324C1046.98,-271.27 1079,-257.011 1103.39,-246.907"/>
<polygon fill="midnightblue" stroke="midnightblue" points="1104.72,-250.146 1112.65,-243.125 1102.07,-243.665 1104.72,-250.146"/>
</g>
<!-- Node13 -->
<g id="node13" class="node"><title>Node13</title>
<polygon fill="white" stroke="#bfbfbf" points="852.5,-0.5 852.5,-19.5 923.5,-19.5 923.5,-0.5 852.5,-0.5"/>
<text text-anchor="middle" x="888" y="-7.5" font-family="Helvetica,sans-Serif" font-size="10.00">stm32f4xx.h</text>
</g>
<!-- Node3&#45;&gt;Node13 -->
<g id="edge79" class="edge"><title>Node3&#45;&gt;Node13</title>
<path fill="none" stroke="midnightblue" d="M970.754,-288.923C777.21,-288.02 0,-278.217 0,-179 0,-179 0,-179 0,-121 0,-55.2072 69.369,-72.7269 133,-56 268.044,-20.5003 699.795,-12.9267 842.055,-11.38"/>
<polygon fill="midnightblue" stroke="midnightblue" points="842.219,-14.8786 852.182,-11.2749 842.146,-7.879 842.219,-14.8786"/>
</g>
<!-- Node14 -->
<g id="node14" class="node"><title>Node14</title>
<polygon fill="white" stroke="#bfbfbf" points="381.5,-56.5 381.5,-75.5 470.5,-75.5 470.5,-56.5 381.5,-56.5"/>
<text text-anchor="middle" x="426" y="-63.5" font-family="Helvetica,sans-Serif" font-size="10.00">stm32f4xx_rcc.h</text>
</g>
<!-- Node3&#45;&gt;Node14 -->
<g id="edge78" class="edge"><title>Node3&#45;&gt;Node14</title>
<path fill="none" stroke="midnightblue" d="M970.91,-287.084C799.648,-279.085 173.269,-246.042 108,-188 82.3924,-165.228 72.4598,-137.812 95,-112 130.2,-71.6912 286.671,-66.1134 371.27,-66.1397"/>
<polygon fill="midnightblue" stroke="midnightblue" points="371.456,-69.6402 381.466,-66.1701 371.477,-62.6402 371.456,-69.6402"/>
</g>
<!-- Node3&#45;&gt;Node30 -->
<g id="edge75" class="edge"><title>Node3&#45;&gt;Node30</title>
<path fill="none" stroke="midnightblue" d="M1049.04,-280.449C1135.63,-259.298 1356.72,-205.173 1419.88,-188.108"/>
<polygon fill="midnightblue" stroke="midnightblue" points="1421.07,-191.412 1429.77,-185.369 1419.2,-184.666 1421.07,-191.412"/>
</g>
<!-- Node3&#45;&gt;Node33 -->
<g id="edge80" class="edge"><title>Node3&#45;&gt;Node33</title>
<path fill="none" stroke="midnightblue" d="M1057.25,-281.675C1104.72,-273.422 1183.08,-259.166 1250,-244 1284.06,-236.28 1291.97,-231.888 1326,-224 1361.32,-215.812 1460.43,-196.37 1514.2,-185.923"/>
<polygon fill="midnightblue" stroke="midnightblue" points="1515.17,-189.301 1524.32,-183.96 1513.84,-182.429 1515.17,-189.301"/>
</g>
<!-- Node35 -->
<g id="node35" class="node"><title>Node35</title>
<polygon fill="white" stroke="#bfbfbf" points="965,-224.5 965,-243.5 1057,-243.5 1057,-224.5 965,-224.5"/>
<text text-anchor="middle" x="1011" y="-231.5" font-family="Helvetica,sans-Serif" font-size="10.00">stm32f4xx_adc.h</text>
</g>
<!-- Node3&#45;&gt;Node35 -->
<g id="edge76" class="edge"><title>Node3&#45;&gt;Node35</title>
<path fill="none" stroke="midnightblue" d="M1013.5,-280.083C1013.11,-273.006 1012.55,-262.861 1012.05,-253.986"/>
<polygon fill="midnightblue" stroke="midnightblue" points="1015.54,-253.542 1011.49,-243.751 1008.55,-253.93 1015.54,-253.542"/>
</g>
<!-- Node36 -->
<g id="node36" class="node"><title>Node36</title>
<polygon fill="white" stroke="#bfbfbf" points="855,-224.5 855,-243.5 947,-243.5 947,-224.5 855,-224.5"/>
<text text-anchor="middle" x="901" y="-231.5" font-family="Helvetica,sans-Serif" font-size="10.00">stm32f4xx_dac.h</text>
</g>
<!-- Node3&#45;&gt;Node36 -->
<g id="edge77" class="edge"><title>Node3&#45;&gt;Node36</title>
<path fill="none" stroke="midnightblue" d="M996.095,-280.444C977.746,-271.675 948.995,-257.935 927.906,-247.858"/>
<polygon fill="midnightblue" stroke="midnightblue" points="929.353,-244.67 918.821,-243.516 926.335,-250.986 929.353,-244.67"/>
</g>
<!-- Node6 -->
<g id="node6" class="node"><title>Node6</title>
<polygon fill="white" stroke="#bfbfbf" points="1864,-56.5 1864,-75.5 1910,-75.5 1910,-56.5 1864,-56.5"/>
<text text-anchor="middle" x="1887" y="-63.5" font-family="Helvetica,sans-Serif" font-size="10.00">misc.h</text>
</g>
<!-- Node5&#45;&gt;Node6 -->
<g id="edge5" class="edge"><title>Node5&#45;&gt;Node6</title>
<path fill="none" stroke="midnightblue" d="M1409.07,-232.119C1517.65,-229.194 1829.45,-218.219 1863,-188 1891.68,-162.165 1891.87,-112.724 1889.47,-85.7272"/>
<polygon fill="midnightblue" stroke="midnightblue" points="1892.94,-85.2207 1888.36,-75.6654 1885.98,-85.9892 1892.94,-85.2207"/>
</g>
<!-- Node7&#45;&gt;Node1 -->
<g id="edge46" class="edge"><title>Node7&#45;&gt;Node1</title>
<path fill="none" stroke="midnightblue" d="M1132.02,-243.591C1123.73,-261.468 1104.47,-302.997 1093.35,-326.998"/>
<polygon fill="midnightblue" stroke="midnightblue" points="1090.03,-325.824 1089,-336.368 1096.38,-328.768 1090.03,-325.824"/>
</g>
<!-- Node7&#45;&gt;Node2 -->
<g id="edge7" class="edge"><title>Node7&#45;&gt;Node2</title>
<path fill="none" stroke="midnightblue" d="M1159.04,-232.232C1239.12,-229.325 1504.73,-217.619 1584,-188 1613.6,-176.941 1642.48,-153.951 1659.76,-138.495"/>
<polygon fill="midnightblue" stroke="midnightblue" points="1662.27,-140.942 1667.26,-131.598 1657.53,-135.788 1662.27,-140.942"/>
</g>
<!-- Node7&#45;&gt;Node3 -->
<g id="edge47" class="edge"><title>Node7&#45;&gt;Node3</title>
<path fill="none" stroke="midnightblue" d="M1121.84,-243.516C1103.67,-252.427 1072.1,-266.504 1047.71,-276.638"/>
<polygon fill="midnightblue" stroke="midnightblue" points="1046.35,-273.413 1038.42,-280.444 1049,-279.89 1046.35,-273.413"/>
</g>
<!-- Node7&#45;&gt;Node4 -->
<g id="edge12" class="edge"><title>Node7&#45;&gt;Node4</title>
<path fill="none" stroke="midnightblue" d="M1112.94,-226.943C1079.33,-217.853 1018.84,-200.428 1000,-188 977.726,-173.307 929.435,-113.588 906.12,-83.9092"/>
<polygon fill="midnightblue" stroke="midnightblue" points="908.657,-81.4714 899.742,-75.7459 903.14,-85.7809 908.657,-81.4714"/>
</g>
<!-- Node8 -->
<g id="node8" class="node"><title>Node8</title>
<polygon fill="white" stroke="#bfbfbf" points="1509,-112.5 1509,-131.5 1557,-131.5 1557,-112.5 1509,-112.5"/>
<text text-anchor="middle" x="1533" y="-119.5" font-family="Helvetica,sans-Serif" font-size="10.00">stdlib.h</text>
</g>
<!-- Node7&#45;&gt;Node8 -->
<g id="edge8" class="edge"><title>Node7&#45;&gt;Node8</title>
<path fill="none" stroke="midnightblue" d="M1159.01,-230.921C1231.03,-224.28 1448.99,-203.135 1477,-188 1497.21,-177.079 1513.39,-155.727 1523.07,-140.475"/>
<polygon fill="midnightblue" stroke="midnightblue" points="1526.31,-141.878 1528.46,-131.504 1520.31,-138.271 1526.31,-141.878"/>
</g>
<!-- Node9 -->
<g id="node9" class="node"><title>Node9</title>
<polygon fill="white" stroke="#bfbfbf" points="1403.5,-112.5 1403.5,-131.5 1452.5,-131.5 1452.5,-112.5 1403.5,-112.5"/>
<text text-anchor="middle" x="1428" y="-119.5" font-family="Helvetica,sans-Serif" font-size="10.00">string.h</text>
</g>
<!-- Node7&#45;&gt;Node9 -->
<g id="edge9" class="edge"><title>Node7&#45;&gt;Node9</title>
<path fill="none" stroke="midnightblue" d="M1159.17,-228.153C1190.91,-221.148 1249.4,-206.93 1297,-188 1314.73,-180.947 1317.96,-176.602 1335,-168 1356.95,-156.916 1382.06,-144.798 1400.66,-135.932"/>
<polygon fill="midnightblue" stroke="midnightblue" points="1402.21,-139.07 1409.73,-131.614 1399.2,-132.749 1402.21,-139.07"/>
</g>
<!-- Node10 -->
<g id="node10" class="node"><title>Node10</title>
<polygon fill="white" stroke="#bfbfbf" points="1344,-168.5 1344,-187.5 1412,-187.5 1412,-168.5 1344,-168.5"/>
<text text-anchor="middle" x="1378" y="-175.5" font-family="Helvetica,sans-Serif" font-size="10.00">stdint&#45;gcc.h</text>
</g>
<!-- Node7&#45;&gt;Node10 -->
<g id="edge10" class="edge"><title>Node7&#45;&gt;Node10</title>
<path fill="none" stroke="midnightblue" d="M1159.2,-227.822C1199.35,-218.863 1282.41,-200.331 1333.85,-188.852"/>
<polygon fill="midnightblue" stroke="midnightblue" points="1334.69,-192.249 1343.69,-186.655 1333.17,-185.417 1334.69,-192.249"/>
</g>
<!-- Node11 -->
<g id="node11" class="node"><title>Node11</title>
<g id="a_node11"><a xlink:href="a00016.html" target="_top" xlink:title="Platform/Compiler dependent definitions. ">
<polygon fill="white" stroke="black" points="1780.5,-56.5 1780.5,-75.5 1845.5,-75.5 1845.5,-56.5 1780.5,-56.5"/>
<text text-anchor="middle" x="1813" y="-63.5" font-family="Helvetica,sans-Serif" font-size="10.00">attributes.h</text>
</a>
</g>
</g>
<!-- Node7&#45;&gt;Node11 -->
<g id="edge11" class="edge"><title>Node7&#45;&gt;Node11</title>
<path fill="none" stroke="midnightblue" d="M1159.21,-231.9C1262.9,-226.899 1681.17,-205.784 1737,-188 1782.97,-173.356 1806.26,-174.004 1830,-132 1838.4,-117.128 1831.63,-97.9989 1824.29,-84.3508"/>
<polygon fill="midnightblue" stroke="midnightblue" points="1827.17,-82.339 1819.06,-75.5209 1821.15,-85.908 1827.17,-82.339"/>
</g>
<!-- Node12 -->
<g id="node12" class="node"><title>Node12</title>
<g id="a_node12"><a xlink:href="a00031.html" target="_top" xlink:title="Provides SysTick&#45;Timer driven delay functions. ">
<polygon fill="white" stroke="black" points="662.5,-112.5 662.5,-131.5 769.5,-131.5 769.5,-112.5 662.5,-112.5"/>
<text text-anchor="middle" x="716" y="-119.5" font-family="Helvetica,sans-Serif" font-size="10.00">md_stm32f4_delay.h</text>
</a>
</g>
</g>
<!-- Node7&#45;&gt;Node12 -->
<g id="edge13" class="edge"><title>Node7&#45;&gt;Node12</title>
<path fill="none" stroke="midnightblue" d="M1112.78,-228.296C1075.38,-220.601 999.552,-204.519 936,-188 870.916,-171.083 795.981,-148.205 752.503,-134.589"/>
<polygon fill="midnightblue" stroke="midnightblue" points="753.524,-131.241 742.935,-131.583 751.426,-137.919 753.524,-131.241"/>
</g>
<!-- Node15 -->
<g id="node15" class="node"><title>Node15</title>
<g id="a_node15"><a xlink:href="a00033.html" target="_top" xlink:title="Definitions to extend board support for STM32F429i&#45;DISCO and equivalent boards. ">
<polygon fill="white" stroke="black" points="1016.5,-112.5 1016.5,-131.5 1123.5,-131.5 1123.5,-112.5 1016.5,-112.5"/>
<text text-anchor="middle" x="1070" y="-119.5" font-family="Helvetica,sans-Serif" font-size="10.00">md_stm32f4_disco.h</text>
</a>
</g>
</g>
<!-- Node7&#45;&gt;Node15 -->
<g id="edge17" class="edge"><title>Node7&#45;&gt;Node15</title>
<path fill="none" stroke="midnightblue" d="M1112.92,-226.517C1077.54,-216.356 1013.34,-196.92 1007,-188 993.003,-168.293 1018.57,-148.803 1041.21,-136.383"/>
<polygon fill="midnightblue" stroke="midnightblue" points="1043.02,-139.383 1050.29,-131.67 1039.8,-133.17 1043.02,-139.383"/>
</g>
<!-- Node17 -->
<g id="node17" class="node"><title>Node17</title>
<g id="a_node17"><a xlink:href="a00037_source.html" target="_top" xlink:title="md_stm32f4_timer.h">
<polygon fill="white" stroke="black" points="292,-112.5 292,-131.5 398,-131.5 398,-112.5 292,-112.5"/>
<text text-anchor="middle" x="345" y="-119.5" font-family="Helvetica,sans-Serif" font-size="10.00">md_stm32f4_timer.h</text>
</a>
</g>
</g>
<!-- Node7&#45;&gt;Node17 -->
<g id="edge22" class="edge"><title>Node7&#45;&gt;Node17</title>
<path fill="none" stroke="midnightblue" d="M1112.7,-229.679C1099.1,-227.822 1081.6,-225.572 1066,-224 847.411,-201.984 789.327,-226.317 573,-188 502.499,-175.512 422.538,-149.984 378.524,-134.903"/>
<polygon fill="midnightblue" stroke="midnightblue" points="379.509,-131.54 368.914,-131.58 377.221,-138.156 379.509,-131.54"/>
</g>
<!-- Node18 -->
<g id="node18" class="node"><title>Node18</title>
<g id="a_node18"><a xlink:href="a00059_source.html" target="_top" xlink:title="tm_stm32f4_pwm.h">
<polygon fill="white" stroke="black" points="582.5,-168.5 582.5,-187.5 685.5,-187.5 685.5,-168.5 582.5,-168.5"/>
<text text-anchor="middle" x="634" y="-175.5" font-family="Helvetica,sans-Serif" font-size="10.00">tm_stm32f4_pwm.h</text>
</a>
</g>
</g>
<!-- Node7&#45;&gt;Node18 -->
<g id="edge25" class="edge"><title>Node7&#45;&gt;Node18</title>
<path fill="none" stroke="midnightblue" d="M1112.68,-229.859C1099.08,-228.063 1081.58,-225.813 1066,-224 934.24,-208.67 779.575,-193.16 695.699,-184.956"/>
<polygon fill="midnightblue" stroke="midnightblue" points="695.873,-181.456 685.58,-183.968 695.193,-188.423 695.873,-181.456"/>
</g>
<!-- Node21 -->
<g id="node21" class="node"><title>Node21</title>
<g id="a_node21"><a xlink:href="a00065_source.html" target="_top" xlink:title="tm_stm32f4_usart.h">
<polygon fill="white" stroke="black" points="1717,-112.5 1717,-131.5 1821,-131.5 1821,-112.5 1717,-112.5"/>
<text text-anchor="middle" x="1769" y="-119.5" font-family="Helvetica,sans-Serif" font-size="10.00">tm_stm32f4_usart.h</text>
</a>
</g>
</g>
<!-- Node7&#45;&gt;Node21 -->
<g id="edge36" class="edge"><title>Node7&#45;&gt;Node21</title>
<path fill="none" stroke="midnightblue" d="M1159.09,-231.659C1263.08,-225.56 1683.84,-200.214 1709,-188 1730.51,-177.56 1748.05,-155.778 1758.49,-140.31"/>
<polygon fill="midnightblue" stroke="midnightblue" points="1761.59,-141.96 1764.05,-131.654 1755.7,-138.178 1761.59,-141.96"/>
</g>
<!-- Node23 -->
<g id="node23" class="node"><title>Node23</title>
<polygon fill="white" stroke="#bfbfbf" points="1134,-168.5 1134,-187.5 1202,-187.5 1202,-168.5 1134,-168.5"/>
<text text-anchor="middle" x="1168" y="-175.5" font-family="Helvetica,sans-Serif" font-size="10.00">core_cm4.h</text>
</g>
<!-- Node7&#45;&gt;Node23 -->
<g id="edge44" class="edge"><title>Node7&#45;&gt;Node23</title>
<path fill="none" stroke="midnightblue" d="M1141.28,-224.083C1145.71,-216.613 1152.16,-205.724 1157.62,-196.52"/>
<polygon fill="midnightblue" stroke="midnightblue" points="1160.73,-198.138 1162.81,-187.751 1154.71,-194.57 1160.73,-198.138"/>
</g>
<!-- Node24 -->
<g id="node24" class="node"><title>Node24</title>
<polygon fill="white" stroke="#bfbfbf" points="1220,-168.5 1220,-187.5 1288,-187.5 1288,-168.5 1220,-168.5"/>
<text text-anchor="middle" x="1254" y="-175.5" font-family="Helvetica,sans-Serif" font-size="10.00">arm_math.h</text>
</g>
<!-- Node7&#45;&gt;Node24 -->
<g id="edge45" class="edge"><title>Node7&#45;&gt;Node24</title>
<path fill="none" stroke="midnightblue" d="M1154.7,-224.444C1173.94,-215.636 1204.15,-201.812 1226.2,-191.722"/>
<polygon fill="midnightblue" stroke="midnightblue" points="1227.75,-194.86 1235.39,-187.516 1224.84,-188.495 1227.75,-194.86"/>
</g>
<!-- Node25 -->
<g id="node25" class="node"><title>Node25</title>
<g id="a_node25"><a xlink:href="a00046.html" target="_top" xlink:title="Provides initialization methods to configure analog subsystems and DMA controller. ">
<polygon fill="white" stroke="black" points="1016.5,-168.5 1016.5,-187.5 1115.5,-187.5 1115.5,-168.5 1016.5,-168.5"/>
<text text-anchor="middle" x="1066" y="-175.5" font-family="Helvetica,sans-Serif" font-size="10.00">periph2dma_conf.h</text>
</a>
</g>
</g>
<!-- Node7&#45;&gt;Node25 -->
<g id="edge48" class="edge"><title>Node7&#45;&gt;Node25</title>
<path fill="none" stroke="midnightblue" d="M1124.75,-224.324C1114.2,-216.185 1098.2,-203.839 1085.56,-194.087"/>
<polygon fill="midnightblue" stroke="midnightblue" points="1087.51,-191.171 1077.45,-187.834 1083.23,-196.713 1087.51,-191.171"/>
</g>
<!-- Node7&#45;&gt;Node27 -->
<g id="edge53" class="edge"><title>Node7&#45;&gt;Node27</title>
<path fill="none" stroke="midnightblue" d="M1112.68,-229.948C1065.25,-222.921 955.187,-205.014 855.939,-188.806"/>
<polygon fill="midnightblue" stroke="midnightblue" points="856.496,-185.351 846.063,-187.193 855.368,-192.259 856.496,-185.351"/>
</g>
<!-- Node7&#45;&gt;Node28 -->
<g id="edge57" class="edge"><title>Node7&#45;&gt;Node28</title>
<path fill="none" stroke="midnightblue" d="M1112.72,-229.54C1099.12,-227.636 1081.62,-225.386 1066,-224 893.712,-208.712 353.688,-186.918 195.165,-180.71"/>
<polygon fill="midnightblue" stroke="midnightblue" points="194.98,-177.2 184.851,-180.307 194.707,-184.195 194.98,-177.2"/>
</g>
<!-- Node7&#45;&gt;Node30 -->
<g id="edge61" class="edge"><title>Node7&#45;&gt;Node30</title>
<path fill="none" stroke="midnightblue" d="M1159.14,-230.574C1206.45,-225.354 1317.76,-211.749 1419.97,-187.929"/>
<polygon fill="midnightblue" stroke="midnightblue" points="1420.91,-191.304 1429.83,-185.592 1419.29,-184.493 1420.91,-191.304"/>
</g>
<!-- Node32 -->
<g id="node32" class="node"><title>Node32</title>
<g id="a_node32"><a xlink:href="a00051.html" target="_top" xlink:title="Provides DAC driven signal generator functions. ">
<polygon fill="white" stroke="black" points="1632,-168.5 1632,-187.5 1700,-187.5 1700,-168.5 1632,-168.5"/>
<text text-anchor="middle" x="1666" y="-175.5" font-family="Helvetica,sans-Serif" font-size="10.00">signalGen.h</text>
</a>
</g>
</g>
<!-- Node7&#45;&gt;Node32 -->
<g id="edge68" class="edge"><title>Node7&#45;&gt;Node32</title>
<path fill="none" stroke="midnightblue" d="M1159.16,-231.599C1228.82,-227.222 1442.38,-212.609 1618,-188 1619.28,-187.821 1620.57,-187.632 1621.87,-187.434"/>
<polygon fill="midnightblue" stroke="midnightblue" points="1622.67,-190.85 1631.98,-185.781 1621.54,-183.942 1622.67,-190.85"/>
</g>
<!-- Node7&#45;&gt;Node33 -->
<g id="edge70" class="edge"><title>Node7&#45;&gt;Node33</title>
<path fill="none" stroke="midnightblue" d="M1159.32,-231.025C1218.31,-225.847 1378.2,-210.696 1510,-188 1511.45,-187.751 1512.92,-187.483 1514.41,-187.202"/>
<polygon fill="midnightblue" stroke="midnightblue" points="1515.16,-190.622 1524.26,-185.196 1513.76,-183.762 1515.16,-190.622"/>
</g>
<!-- Node12&#45;&gt;Node4 -->
<g id="edge16" class="edge"><title>Node12&#45;&gt;Node4</title>
<path fill="none" stroke="midnightblue" d="M744.046,-112.444C774.082,-103.28 821.913,-88.6876 855.243,-78.5192"/>
<polygon fill="midnightblue" stroke="midnightblue" points="856.542,-81.7822 865.085,-75.5164 854.499,-75.0869 856.542,-81.7822"/>
</g>
<!-- Node12&#45;&gt;Node13 -->
<g id="edge14" class="edge"><title>Node12&#45;&gt;Node13</title>
<path fill="none" stroke="midnightblue" d="M729.497,-112.368C759.012,-93.4924 829.544,-48.385 865.739,-25.2367"/>
<polygon fill="midnightblue" stroke="midnightblue" points="868.027,-27.9278 874.566,-19.5914 864.256,-22.0306 868.027,-27.9278"/>
</g>
<!-- Node12&#45;&gt;Node14 -->
<g id="edge15" class="edge"><title>Node12&#45;&gt;Node14</title>
<path fill="none" stroke="midnightblue" d="M670.049,-112.444C618.628,-102.869 535.373,-87.3661 480.655,-77.177"/>
<polygon fill="midnightblue" stroke="midnightblue" points="481.255,-73.7288 470.783,-75.339 479.974,-80.6105 481.255,-73.7288"/>
</g>
<!-- Node15&#45;&gt;Node4 -->
<g id="edge18" class="edge"><title>Node15&#45;&gt;Node4</title>
<path fill="none" stroke="midnightblue" d="M1041.95,-112.444C1011.92,-103.28 964.087,-88.6876 930.757,-78.5192"/>
<polygon fill="midnightblue" stroke="midnightblue" points="931.501,-75.0869 920.915,-75.5164 929.458,-81.7822 931.501,-75.0869"/>
</g>
<!-- Node15&#45;&gt;Node13 -->
<g id="edge19" class="edge"><title>Node15&#45;&gt;Node13</title>
<path fill="none" stroke="midnightblue" d="M1055.72,-112.368C1024.35,-93.4121 949.219,-48.0006 911.068,-24.9424"/>
<polygon fill="midnightblue" stroke="midnightblue" points="912.584,-21.7687 902.215,-19.5914 908.963,-27.7595 912.584,-21.7687"/>
</g>
<!-- Node16 -->
<g id="node16" class="node"><title>Node16</title>
<g id="a_node16"><a xlink:href="a00035.html" target="_top" xlink:title="Provides generic methods for GPIO module initialization and manipulation. ">
<polygon fill="white" stroke="black" points="1100,-56.5 1100,-75.5 1202,-75.5 1202,-56.5 1100,-56.5"/>
<text text-anchor="middle" x="1151" y="-63.5" font-family="Helvetica,sans-Serif" font-size="10.00">md_stm32f4_gpio.h</text>
</a>
</g>
</g>
<!-- Node15&#45;&gt;Node16 -->
<g id="edge20" class="edge"><title>Node15&#45;&gt;Node16</title>
<path fill="none" stroke="midnightblue" d="M1083.01,-112.324C1095.53,-103.979 1114.68,-91.2122 1129.47,-81.3524"/>
<polygon fill="midnightblue" stroke="midnightblue" points="1131.64,-84.1137 1138.02,-75.6545 1127.76,-78.2894 1131.64,-84.1137"/>
</g>
<!-- Node16&#45;&gt;Node13 -->
<g id="edge21" class="edge"><title>Node16&#45;&gt;Node13</title>
<path fill="none" stroke="midnightblue" d="M1109.33,-56.4435C1061.46,-46.6149 983.169,-30.5404 933.677,-20.3785"/>
<polygon fill="midnightblue" stroke="midnightblue" points="934.074,-16.887 923.574,-18.3042 932.666,-23.744 934.074,-16.887"/>
</g>
<!-- Node17&#45;&gt;Node13 -->
<g id="edge23" class="edge"><title>Node17&#45;&gt;Node13</title>
<path fill="none" stroke="midnightblue" d="M345.839,-112.09C347.718,-97.6564 353.662,-69.4278 372,-56 409.502,-28.5391 723.017,-16.0823 842.236,-12.3062"/>
<polygon fill="midnightblue" stroke="midnightblue" points="842.6,-15.7967 852.486,-11.9879 842.382,-8.80006 842.6,-15.7967"/>
</g>
<!-- Node17&#45;&gt;Node14 -->
<g id="edge24" class="edge"><title>Node17&#45;&gt;Node14</title>
<path fill="none" stroke="midnightblue" d="M358.014,-112.324C370.532,-103.979 389.682,-91.2122 404.471,-81.3524"/>
<polygon fill="midnightblue" stroke="midnightblue" points="406.639,-84.1137 413.018,-75.6545 402.756,-78.2894 406.639,-84.1137"/>
</g>
<!-- Node18&#45;&gt;Node4 -->
<g id="edge35" class="edge"><title>Node18&#45;&gt;Node4</title>
<path fill="none" stroke="midnightblue" d="M668.486,-168.431C698.128,-160.549 741.707,-147.717 778,-132 812.034,-117.262 848.961,-95.2051 871.544,-80.9578"/>
<polygon fill="midnightblue" stroke="midnightblue" points="873.468,-83.8821 880.016,-75.5533 869.703,-77.9806 873.468,-83.8821"/>
</g>
<!-- Node18&#45;&gt;Node13 -->
<g id="edge26" class="edge"><title>Node18&#45;&gt;Node13</title>
<path fill="none" stroke="midnightblue" d="M582.447,-174.097C489.69,-168.345 302.456,-154.109 283,-132 277.128,-125.327 279.149,-120.012 283,-112 300.259,-76.0906 315.991,-70.7532 353,-56 441.476,-20.7306 729.651,-13.0946 842.291,-11.4491"/>
<polygon fill="midnightblue" stroke="midnightblue" points="842.364,-14.9485 852.315,-11.3118 842.268,-7.94915 842.364,-14.9485"/>
</g>
<!-- Node18&#45;&gt;Node14 -->
<g id="edge27" class="edge"><title>Node18&#45;&gt;Node14</title>
<path fill="none" stroke="midnightblue" d="M582.45,-170.605C533.496,-163.522 464.557,-150.591 445,-132 432.494,-120.112 428.082,-100.491 426.595,-85.9106"/>
<polygon fill="midnightblue" stroke="midnightblue" points="430.063,-85.298 425.93,-75.5425 423.077,-85.7461 430.063,-85.298"/>
</g>
<!-- Node18&#45;&gt;Node16 -->
<g id="edge28" class="edge"><title>Node18&#45;&gt;Node16</title>
<path fill="none" stroke="midnightblue" d="M685.774,-173.09C811.529,-163.491 1123.44,-139.039 1132,-132 1145.46,-120.931 1149.7,-100.89 1150.89,-85.9774"/>
<polygon fill="midnightblue" stroke="midnightblue" points="1154.39,-85.9405 1151.3,-75.8063 1147.4,-85.6556 1154.39,-85.9405"/>
</g>
<!-- Node19 -->
<g id="node19" class="node"><title>Node19</title>
<polygon fill="white" stroke="#bfbfbf" points="574.5,-56.5 574.5,-75.5 663.5,-75.5 663.5,-56.5 574.5,-56.5"/>
<text text-anchor="middle" x="619" y="-63.5" font-family="Helvetica,sans-Serif" font-size="10.00">stm32f4xx_tim.h</text>
</g>
<!-- Node18&#45;&gt;Node19 -->
<g id="edge29" class="edge"><title>Node18&#45;&gt;Node19</title>
<path fill="none" stroke="midnightblue" d="M632.823,-168.368C630.402,-150.617 624.818,-109.666 621.536,-85.5974"/>
<polygon fill="midnightblue" stroke="midnightblue" points="624.991,-85.0268 620.172,-75.5914 618.055,-85.9726 624.991,-85.0268"/>
</g>
<!-- Node20 -->
<g id="node20" class="node"><title>Node20</title>
<g id="a_node20"><a xlink:href="a00063_source.html" target="_top" xlink:title="tm_stm32f4_timer_properties.h">
<polygon fill="white" stroke="black" points="454,-112.5 454,-131.5 606,-131.5 606,-112.5 454,-112.5"/>
<text text-anchor="middle" x="530" y="-119.5" font-family="Helvetica,sans-Serif" font-size="10.00">tm_stm32f4_timer_properties.h</text>
</a>
</g>
</g>
<!-- Node18&#45;&gt;Node20 -->
<g id="edge30" class="edge"><title>Node18&#45;&gt;Node20</title>
<path fill="none" stroke="midnightblue" d="M617.291,-168.324C600.688,-159.703 574.998,-146.364 555.78,-136.386"/>
<polygon fill="midnightblue" stroke="midnightblue" points="557.156,-133.156 546.668,-131.655 553.93,-139.369 557.156,-133.156"/>
</g>
<!-- Node20&#45;&gt;Node4 -->
<g id="edge34" class="edge"><title>Node20&#45;&gt;Node4</title>
<path fill="none" stroke="midnightblue" d="M587.518,-112.444C662.32,-101.316 790.94,-82.1825 854.768,-72.6874"/>
<polygon fill="midnightblue" stroke="midnightblue" points="855.429,-76.1277 864.805,-71.1943 854.399,-69.2039 855.429,-76.1277"/>
</g>
<!-- Node20&#45;&gt;Node13 -->
<g id="edge31" class="edge"><title>Node20&#45;&gt;Node13</title>
<path fill="none" stroke="midnightblue" d="M532.03,-112.131C535.82,-97.7563 545.428,-69.6105 565,-56 608.93,-25.4506 764.069,-15.4814 842.251,-12.3558"/>
<polygon fill="midnightblue" stroke="midnightblue" points="842.439,-15.8513 852.299,-11.975 842.174,-8.85633 842.439,-15.8513"/>
</g>
<!-- Node20&#45;&gt;Node14 -->
<g id="edge32" class="edge"><title>Node20&#45;&gt;Node14</title>
<path fill="none" stroke="midnightblue" d="M513.291,-112.324C496.688,-103.703 470.998,-90.3643 451.78,-80.3855"/>
<polygon fill="midnightblue" stroke="midnightblue" points="453.156,-77.1565 442.668,-75.6545 449.93,-83.3689 453.156,-77.1565"/>
</g>
<!-- Node20&#45;&gt;Node19 -->
<g id="edge33" class="edge"><title>Node20&#45;&gt;Node19</title>
<path fill="none" stroke="midnightblue" d="M544.299,-112.324C558.183,-103.9 579.492,-90.9709 595.804,-81.0741"/>
<polygon fill="midnightblue" stroke="midnightblue" points="598.002,-83.8341 604.736,-75.6545 594.371,-77.8495 598.002,-83.8341"/>
</g>
<!-- Node21&#45;&gt;Node4 -->
<g id="edge43" class="edge"><title>Node21&#45;&gt;Node4</title>
<path fill="none" stroke="midnightblue" d="M1716.8,-112.978C1713.82,-112.621 1710.88,-112.291 1708,-112 1630.29,-104.139 1082.01,-76.4448 931.271,-68.9067"/>
<polygon fill="midnightblue" stroke="midnightblue" points="931.279,-65.4028 921.117,-68.3993 930.929,-72.3941 931.279,-65.4028"/>
</g>
<!-- Node21&#45;&gt;Node6 -->
<g id="edge37" class="edge"><title>Node21&#45;&gt;Node6</title>
<path fill="none" stroke="midnightblue" d="M1787.7,-112.444C1806.94,-103.636 1837.15,-89.8116 1859.2,-79.722"/>
<polygon fill="midnightblue" stroke="midnightblue" points="1860.75,-82.8603 1868.39,-75.5164 1857.84,-76.4951 1860.75,-82.8603"/>
</g>
<!-- Node21&#45;&gt;Node11 -->
<g id="edge42" class="edge"><title>Node21&#45;&gt;Node11</title>
<path fill="none" stroke="midnightblue" d="M1776.27,-112.083C1782.54,-104.377 1791.79,-93.0333 1799.43,-83.6531"/>
<polygon fill="midnightblue" stroke="midnightblue" points="1802.27,-85.7143 1805.87,-75.7511 1796.84,-81.2926 1802.27,-85.7143"/>
</g>
<!-- Node21&#45;&gt;Node13 -->
<g id="edge38" class="edge"><title>Node21&#45;&gt;Node13</title>
<path fill="none" stroke="midnightblue" d="M1739.71,-112.425C1689.91,-98.2163 1585.35,-69.9749 1495,-56 1287.23,-23.8627 1035.77,-14.4979 934.032,-11.9202"/>
<polygon fill="midnightblue" stroke="midnightblue" points="933.884,-8.41564 923.802,-11.6713 933.713,-15.4136 933.884,-8.41564"/>
</g>
<!-- Node21&#45;&gt;Node14 -->
<g id="edge39" class="edge"><title>Node21&#45;&gt;Node14</title>
<path fill="none" stroke="midnightblue" d="M1716.8,-112.896C1713.83,-112.56 1710.88,-112.257 1708,-112 1201.76,-66.8329 1072.66,-100.423 565,-76 537.295,-74.6672 506.514,-72.722 480.974,-70.9808"/>
<polygon fill="midnightblue" stroke="midnightblue" points="480.954,-67.4712 470.737,-70.2748 480.473,-74.4546 480.954,-67.4712"/>
</g>
<!-- Node21&#45;&gt;Node16 -->
<g id="edge40" class="edge"><title>Node21&#45;&gt;Node16</title>
<path fill="none" stroke="midnightblue" d="M1716.79,-113.065C1713.82,-112.686 1710.87,-112.327 1708,-112 1528.37,-91.5154 1315.11,-77.0088 1212.37,-70.6315"/>
<polygon fill="midnightblue" stroke="midnightblue" points="1212.37,-67.1254 1202.18,-70.0033 1211.94,-74.1121 1212.37,-67.1254"/>
</g>
<!-- Node22 -->
<g id="node22" class="node"><title>Node22</title>
<polygon fill="white" stroke="#bfbfbf" points="1664,-56.5 1664,-75.5 1762,-75.5 1762,-56.5 1664,-56.5"/>
<text text-anchor="middle" x="1713" y="-63.5" font-family="Helvetica,sans-Serif" font-size="10.00">stm32f4xx_usart.h</text>
</g>
<!-- Node21&#45;&gt;Node22 -->
<g id="edge41" class="edge"><title>Node21&#45;&gt;Node22</title>
<path fill="none" stroke="midnightblue" d="M1760,-112.324C1751.81,-104.42 1739.49,-92.5482 1729.53,-82.9377"/>
<polygon fill="midnightblue" stroke="midnightblue" points="1731.79,-80.2558 1722.16,-75.8339 1726.93,-85.2947 1731.79,-80.2558"/>
</g>
<!-- Node25&#45;&gt;Node13 -->
<g id="edge49" class="edge"><title>Node25&#45;&gt;Node13</title>
<path fill="none" stroke="midnightblue" d="M1115.56,-168.627C1179.57,-157.579 1283.48,-138.743 1289,-132 1294.63,-125.121 1292.44,-120.197 1289,-112 1275.26,-79.2499 1263.93,-71.5531 1232,-56 1180.44,-30.8817 1015.21,-18.2313 933.971,-13.3997"/>
<polygon fill="midnightblue" stroke="midnightblue" points="933.741,-9.88055 923.555,-12.7958 933.335,-16.8688 933.741,-9.88055"/>
</g>
<!-- Node26 -->
<g id="node26" class="node"><title>Node26</title>
<g id="a_node26"><a xlink:href="a00027.html" target="_top" xlink:title="Project XA&#45;Galvo scanner specific digital to analog converter methods. ">
<polygon fill="white" stroke="black" points="1180,-112.5 1180,-131.5 1280,-131.5 1280,-112.5 1180,-112.5"/>
<text text-anchor="middle" x="1230" y="-119.5" font-family="Helvetica,sans-Serif" font-size="10.00">md_stm32f4_dac.h</text>
</a>
</g>
</g>
<!-- Node25&#45;&gt;Node26 -->
<g id="edge50" class="edge"><title>Node25&#45;&gt;Node26</title>
<path fill="none" stroke="midnightblue" d="M1091.99,-168.444C1119.7,-159.32 1163.75,-144.813 1194.62,-134.651"/>
<polygon fill="midnightblue" stroke="midnightblue" points="1195.73,-137.968 1204.14,-131.516 1193.54,-131.32 1195.73,-137.968"/>
</g>
<!-- Node26&#45;&gt;Node13 -->
<g id="edge51" class="edge"><title>Node26&#45;&gt;Node13</title>
<path fill="none" stroke="midnightblue" d="M1230.23,-112.284C1230.08,-98.1303 1227.55,-70.2943 1211,-56 1170.4,-20.9351 1012.93,-13.125 933.854,-11.4336"/>
<polygon fill="midnightblue" stroke="midnightblue" points="933.759,-7.93122 923.694,-11.2408 933.626,-14.93 933.759,-7.93122"/>
</g>
<!-- Node26&#45;&gt;Node16 -->
<g id="edge52" class="edge"><title>Node26&#45;&gt;Node16</title>
<path fill="none" stroke="midnightblue" d="M1217.31,-112.324C1205.1,-103.979 1186.42,-91.2122 1172,-81.3524"/>
<polygon fill="midnightblue" stroke="midnightblue" points="1173.89,-78.4082 1163.66,-75.6545 1169.94,-84.1871 1173.89,-78.4082"/>
</g>
<!-- Node27&#45;&gt;Node3 -->
<g id="edge56" class="edge"><title>Node27&#45;&gt;Node3</title>
<path fill="none" stroke="midnightblue" d="M808.038,-187.621C813.43,-201.638 826.019,-229.282 846,-244 879.412,-268.612 925.368,-279.767 960.771,-284.821"/>
<polygon fill="midnightblue" stroke="midnightblue" points="960.555,-288.323 970.924,-286.147 961.461,-281.382 960.555,-288.323"/>
</g>
<!-- Node27&#45;&gt;Node4 -->
<g id="edge55" class="edge"><title>Node27&#45;&gt;Node4</title>
<path fill="none" stroke="midnightblue" d="M814.88,-168.209C824.404,-159.492 838.957,-145.52 850,-132 862.398,-116.822 874.532,-98.011 882.732,-84.5372"/>
<polygon fill="midnightblue" stroke="midnightblue" points="885.829,-86.177 887.955,-75.7976 879.82,-82.5861 885.829,-86.177"/>
</g>
<!-- Node27&#45;&gt;Node7 -->
<g id="edge54" class="edge"><title>Node27&#45;&gt;Node7</title>
<path fill="none" stroke="midnightblue" d="M846.036,-184.286C853.742,-185.506 861.647,-186.799 869,-188 953.321,-201.773 1052.14,-217.875 1102.75,-226.596"/>
<polygon fill="midnightblue" stroke="midnightblue" points="1102.35,-230.078 1112.8,-228.341 1103.55,-223.181 1102.35,-230.078"/>
</g>
<!-- Node28&#45;&gt;Node13 -->
<g id="edge58" class="edge"><title>Node28&#45;&gt;Node13</title>
<path fill="none" stroke="midnightblue" d="M134.063,-168.422C112.208,-156.22 78.8102,-132.996 95,-112 154.77,-34.484 211.482,-72.296 308,-56 504.977,-22.7425 743.808,-14.0134 842.231,-11.7633"/>
<polygon fill="midnightblue" stroke="midnightblue" points="842.5,-15.2584 852.422,-11.5422 842.348,-8.26 842.5,-15.2584"/>
</g>
<!-- Node28&#45;&gt;Node14 -->
<g id="edge60" class="edge"><title>Node28&#45;&gt;Node14</title>
<path fill="none" stroke="midnightblue" d="M166.494,-168.401C190.802,-155.134 239.61,-129.392 283,-112 316.388,-98.6172 355.404,-86.5688 384.24,-78.3144"/>
<polygon fill="midnightblue" stroke="midnightblue" points="385.319,-81.6466 393.989,-75.557 383.414,-74.9108 385.319,-81.6466"/>
</g>
<!-- Node29 -->
<g id="node29" class="node"><title>Node29</title>
<polygon fill="white" stroke="#bfbfbf" points="104,-112.5 104,-131.5 198,-131.5 198,-112.5 104,-112.5"/>
<text text-anchor="middle" x="151" y="-119.5" font-family="Helvetica,sans-Serif" font-size="10.00">stm32f4xx_gpio.h</text>
</g>
<!-- Node28&#45;&gt;Node29 -->
<g id="edge59" class="edge"><title>Node28&#45;&gt;Node29</title>
<path fill="none" stroke="midnightblue" d="M151,-168.083C151,-161.006 151,-150.861 151,-141.986"/>
<polygon fill="midnightblue" stroke="midnightblue" points="154.5,-141.751 151,-131.751 147.5,-141.751 154.5,-141.751"/>
</g>
<!-- Node30&#45;&gt;Node2 -->
<g id="edge63" class="edge"><title>Node30&#45;&gt;Node2</title>
<path fill="none" stroke="midnightblue" d="M1468.06,-172.834C1502.89,-165.162 1579.14,-148.109 1643,-132 1643.1,-131.975 1643.2,-131.949 1643.3,-131.924"/>
<polygon fill="midnightblue" stroke="midnightblue" points="1644.16,-135.318 1652.95,-129.407 1642.39,-128.544 1644.16,-135.318"/>
</g>
<!-- Node30&#45;&gt;Node4 -->
<g id="edge67" class="edge"><title>Node30&#45;&gt;Node4</title>
<path fill="none" stroke="midnightblue" d="M1429.87,-170.227C1426.93,-169.367 1423.9,-168.585 1421,-168 1239.95,-131.512 1183.31,-187.016 1007,-132 988.144,-126.116 942.53,-98.3819 915.058,-81.0969"/>
<polygon fill="midnightblue" stroke="midnightblue" points="916.823,-78.0721 906.501,-75.6822 913.08,-83.9872 916.823,-78.0721"/>
</g>
<!-- Node30&#45;&gt;Node8 -->
<g id="edge62" class="edge"><title>Node30&#45;&gt;Node8</title>
<path fill="none" stroke="midnightblue" d="M1462.5,-168.324C1475.6,-159.9 1495.71,-146.971 1511.11,-137.074"/>
<polygon fill="midnightblue" stroke="midnightblue" points="1513.02,-140.006 1519.54,-131.655 1509.23,-134.118 1513.02,-140.006"/>
</g>
<!-- Node30&#45;&gt;Node9 -->
<g id="edge64" class="edge"><title>Node30&#45;&gt;Node9</title>
<path fill="none" stroke="midnightblue" d="M1445.53,-168.083C1442.69,-160.77 1438.57,-150.181 1435.04,-141.103"/>
<polygon fill="midnightblue" stroke="midnightblue" points="1438.29,-139.803 1431.4,-131.751 1431.77,-142.34 1438.29,-139.803"/>
</g>
<!-- Node30&#45;&gt;Node13 -->
<g id="edge66" class="edge"><title>Node30&#45;&gt;Node13</title>
<path fill="none" stroke="midnightblue" d="M1454.34,-168.464C1461.97,-155.052 1473.74,-128.84 1461,-112 1397.57,-28.142 1058.37,-13.88 933.868,-11.4778"/>
<polygon fill="midnightblue" stroke="midnightblue" points="933.601,-7.97268 923.541,-11.2966 933.478,-14.9716 933.601,-7.97268"/>
</g>
<!-- Node31 -->
<g id="node31" class="node"><title>Node31</title>
<polygon fill="white" stroke="#bfbfbf" points="1336.5,-112.5 1336.5,-131.5 1385.5,-131.5 1385.5,-112.5 1336.5,-112.5"/>
<text text-anchor="middle" x="1361" y="-119.5" font-family="Helvetica,sans-Serif" font-size="10.00">stdint.h</text>
</g>
<!-- Node30&#45;&gt;Node31 -->
<g id="edge65" class="edge"><title>Node30&#45;&gt;Node31</title>
<path fill="none" stroke="midnightblue" d="M1434.86,-168.324C1421.13,-159.9 1400.06,-146.971 1383.94,-137.074"/>
<polygon fill="midnightblue" stroke="midnightblue" points="1385.46,-133.902 1375.1,-131.655 1381.8,-139.868 1385.46,-133.902"/>
</g>
<!-- Node32&#45;&gt;Node2 -->
<g id="edge69" class="edge"><title>Node32&#45;&gt;Node2</title>
<path fill="none" stroke="midnightblue" d="M1667.65,-168.083C1668.98,-160.927 1670.88,-150.635 1672.54,-141.691"/>
<polygon fill="midnightblue" stroke="midnightblue" points="1676,-142.221 1674.38,-131.751 1669.12,-140.947 1676,-142.221"/>
</g>
<!-- Node33&#45;&gt;Node2 -->
<g id="edge71" class="edge"><title>Node33&#45;&gt;Node2</title>
<path fill="none" stroke="midnightblue" d="M1569.97,-168.444C1590.61,-159.596 1623.06,-145.687 1646.63,-135.586"/>
<polygon fill="midnightblue" stroke="midnightblue" points="1648.32,-138.673 1656.13,-131.516 1645.56,-132.239 1648.32,-138.673"/>
</g>
<!-- Node33&#45;&gt;Node8 -->
<g id="edge73" class="edge"><title>Node33&#45;&gt;Node8</title>
<path fill="none" stroke="midnightblue" d="M1547.19,-168.083C1544.92,-160.849 1541.63,-150.409 1538.79,-141.397"/>
<polygon fill="midnightblue" stroke="midnightblue" points="1542.1,-140.239 1535.75,-131.751 1535.42,-142.341 1542.1,-140.239"/>
</g>
<!-- Node33&#45;&gt;Node9 -->
<g id="edge72" class="edge"><title>Node33&#45;&gt;Node9</title>
<path fill="none" stroke="midnightblue" d="M1530.67,-168.444C1510.68,-159.596 1479.26,-145.687 1456.44,-135.586"/>
<polygon fill="midnightblue" stroke="midnightblue" points="1457.8,-132.363 1447.24,-131.516 1454.97,-138.764 1457.8,-132.363"/>
</g>
<!-- Node34 -->
<g id="node34" class="node"><title>Node34</title>
<polygon fill="white" stroke="#bfbfbf" points="1575.5,-112.5 1575.5,-131.5 1634.5,-131.5 1634.5,-112.5 1575.5,-112.5"/>
<text text-anchor="middle" x="1605" y="-119.5" font-family="Helvetica,sans-Serif" font-size="10.00">inttypes.h</text>
</g>
<!-- Node33&#45;&gt;Node34 -->
<g id="edge74" class="edge"><title>Node33&#45;&gt;Node34</title>
<path fill="none" stroke="midnightblue" d="M1559.08,-168.083C1567.17,-160.141 1579.2,-148.335 1588.91,-138.797"/>
<polygon fill="midnightblue" stroke="midnightblue" points="1591.4,-141.254 1596.09,-131.751 1586.5,-136.26 1591.4,-141.254"/>
</g>
</g>
</svg>
