<?xml version="1.0" encoding="UTF-8" standalone="no"?>
<!DOCTYPE svg PUBLIC "-//W3C//DTD SVG 1.1//EN"
 "http://www.w3.org/Graphics/SVG/1.1/DTD/svg11.dtd">
<!-- Generated by graphviz version 2.38.0 (20140413.2041)
 -->
<!-- Title: IRQ Handler Pages: 1 -->
<svg width="359pt" height="142pt"
 viewBox="0.00 0.00 359.00 142.00" xmlns="http://www.w3.org/2000/svg" xmlns:xlink="http://www.w3.org/1999/xlink">
<g id="graph0" class="graph" transform="scale(1 1) rotate(0) translate(4 138)">
<title>IRQ Handler</title>
<polygon fill="white" stroke="none" points="-4,4 -4,-138 355,-138 355,4 -4,4"/>
<!-- Node5 -->
<g id="node1" class="node"><title>Node5</title>
<g id="a_node1"><a xlink:href="a00108.html" target="_top" xlink:title="IRQ_Handler_Functions">
<polygon fill="white" stroke="black" points="229,-114.5 229,-133.5 351,-133.5 351,-114.5 229,-114.5"/>
<text text-anchor="middle" x="290" y="-121.5" font-family="Helvetica,sans-Serif" font-size="10.00">IRQ_Handler_Functions</text>
</a>
</g>
</g>
<!-- Node2 -->
<g id="node2" class="node"><title>Node2</title>
<g id="a_node2"><a xlink:href="a00105.html" target="_top" xlink:title="IRQ_Handler_Macros">
<polygon fill="white" stroke="black" points="234.5,-76.5 234.5,-95.5 345.5,-95.5 345.5,-76.5 234.5,-76.5"/>
<text text-anchor="middle" x="290" y="-83.5" font-family="Helvetica,sans-Serif" font-size="10.00">IRQ_Handler_Macros</text>
</a>
</g>
</g>
<!-- Node1 -->
<g id="node3" class="node"><title>Node1</title>
<g id="a_node3"><a xlink:href="a00084.html" target="_top" xlink:title="MD_Application">
<polygon fill="white" stroke="black" points="0,-57.5 0,-76.5 86,-76.5 86,-57.5 0,-57.5"/>
<text text-anchor="middle" x="43" y="-64.5" font-family="Helvetica,sans-Serif" font-size="10.00">MD_Application</text>
</a>
</g>
</g>
<!-- Node0 -->
<g id="node6" class="node"><title>Node0</title>
<polygon fill="#bfbfbf" stroke="black" points="122,-57.5 122,-76.5 193,-76.5 193,-57.5 122,-57.5"/>
<text text-anchor="middle" x="157.5" y="-64.5" font-family="Helvetica,sans-Serif" font-size="10.00">IRQ Handler</text>
</g>
<!-- Node1&#45;&gt;Node0 -->
<g id="edge1" class="edge"><title>Node1&#45;&gt;Node0</title>
<path fill="none" stroke="black" d="M96.2578,-67C104.908,-67 113.684,-67 121.764,-67"/>
<polygon fill="black" stroke="black" points="96.211,-63.5001 86.2109,-67 96.2109,-70.5001 96.211,-63.5001"/>
</g>
<!-- Node3 -->
<g id="node4" class="node"><title>Node3</title>
<g id="a_node4"><a xlink:href="a00106.html" target="_top" xlink:title="IRQ_Handler_Typedefs">
<polygon fill="white" stroke="black" points="230.5,-38.5 230.5,-57.5 349.5,-57.5 349.5,-38.5 230.5,-38.5"/>
<text text-anchor="middle" x="290" y="-45.5" font-family="Helvetica,sans-Serif" font-size="10.00">IRQ_Handler_Typedefs</text>
</a>
</g>
</g>
<!-- Node4 -->
<g id="node5" class="node"><title>Node4</title>
<g id="a_node5"><a xlink:href="a00107.html" target="_top" xlink:title="IRQ_Handler_Variables">
<polygon fill="white" stroke="black" points="230.5,-0.5 230.5,-19.5 349.5,-19.5 349.5,-0.5 230.5,-0.5"/>
<text text-anchor="middle" x="290" y="-7.5" font-family="Helvetica,sans-Serif" font-size="10.00">IRQ_Handler_Variables</text>
</a>
</g>
</g>
<!-- Node0&#45;&gt;Node5 -->
<g id="edge5" class="edge"><title>Node0&#45;&gt;Node5</title>
<path fill="none" stroke="black" d="M183.285,-81.8406C196.55,-89.4 213.339,-98.3691 229,-105 237.251,-108.493 246.372,-111.698 254.959,-114.441"/>
<polygon fill="black" stroke="black" points="184.723,-78.6282 174.316,-76.6389 181.211,-84.6835 184.723,-78.6282"/>
</g>
<!-- Node0&#45;&gt;Node2 -->
<g id="edge2" class="edge"><title>Node0&#45;&gt;Node2</title>
<path fill="none" stroke="black" d="M203.231,-73.5125C213.215,-74.9662 223.914,-76.5238 234.251,-78.0288"/>
<polygon fill="black" stroke="black" points="203.529,-70.0191 193.129,-72.0418 202.52,-76.9461 203.529,-70.0191"/>
</g>
<!-- Node0&#45;&gt;Node3 -->
<g id="edge3" class="edge"><title>Node0&#45;&gt;Node3</title>
<path fill="none" stroke="black" d="M203.157,-60.4982C211.955,-59.2173 221.309,-57.8554 230.484,-56.5196"/>
<polygon fill="black" stroke="black" points="202.52,-57.0539 193.129,-61.9582 203.529,-63.9809 202.52,-57.0539"/>
</g>
<!-- Node0&#45;&gt;Node4 -->
<g id="edge4" class="edge"><title>Node0&#45;&gt;Node4</title>
<path fill="none" stroke="black" d="M183.285,-52.1594C196.55,-44.6 213.339,-35.6309 229,-29 237.251,-25.5066 246.372,-22.3018 254.959,-19.5591"/>
<polygon fill="black" stroke="black" points="181.211,-49.3165 174.316,-57.3611 184.723,-55.3718 181.211,-49.3165"/>
</g>
</g>
</svg>
