<?xml version="1.0" encoding="UTF-8" standalone="no"?>
<!DOCTYPE svg PUBLIC "-//W3C//DTD SVG 1.1//EN"
 "http://www.w3.org/Graphics/SVG/1.1/DTD/svg11.dtd">
<!-- Generated by graphviz version 2.38.0 (20140413.2041)
 -->
<!-- Title: actuators.c Pages: 1 -->
<svg width="2127pt" height="364pt"
 viewBox="0.00 0.00 2127.46 364.00" xmlns="http://www.w3.org/2000/svg" xmlns:xlink="http://www.w3.org/1999/xlink">
<g id="graph0" class="graph" transform="scale(1 1) rotate(0) translate(4 360)">
<title>actuators.c</title>
<polygon fill="white" stroke="none" points="-4,4 -4,-360 2123.46,-360 2123.46,4 -4,4"/>
<!-- Node1 -->
<g id="node1" class="node"><title>Node1</title>
<polygon fill="#bfbfbf" stroke="black" points="1927.96,-336.5 1927.96,-355.5 1992.96,-355.5 1992.96,-336.5 1927.96,-336.5"/>
<text text-anchor="middle" x="1960.46" y="-343.5" font-family="Helvetica,sans-Serif" font-size="10.00">actuators.c</text>
</g>
<!-- Node2 -->
<g id="node2" class="node"><title>Node2</title>
<g id="a_node2"><a xlink:href="a00012.html" target="_top" xlink:title="Controlling beam and primary actuators. ">
<polygon fill="white" stroke="black" points="1624.96,-280.5 1624.96,-299.5 1689.96,-299.5 1689.96,-280.5 1624.96,-280.5"/>
<text text-anchor="middle" x="1657.46" y="-287.5" font-family="Helvetica,sans-Serif" font-size="10.00">actuators.h</text>
</a>
</g>
</g>
<!-- Node1&#45;&gt;Node2 -->
<g id="edge1" class="edge"><title>Node1&#45;&gt;Node2</title>
<path fill="none" stroke="midnightblue" d="M1927.74,-339.17C1872.63,-329.347 1761.31,-309.508 1700.13,-298.605"/>
<polygon fill="midnightblue" stroke="midnightblue" points="1700.49,-295.115 1690.04,-296.806 1699.27,-302.006 1700.49,-295.115"/>
</g>
<!-- Node5 -->
<g id="node5" class="node"><title>Node5</title>
<g id="a_node5"><a xlink:href="a00019.html" target="_top" xlink:title="Global defines include file. ">
<polygon fill="white" stroke="black" points="1359.46,-0.5 1359.46,-19.5 1415.46,-19.5 1415.46,-0.5 1359.46,-0.5"/>
<text text-anchor="middle" x="1387.46" y="-7.5" font-family="Helvetica,sans-Serif" font-size="10.00">globals.h</text>
</a>
</g>
</g>
<!-- Node1&#45;&gt;Node5 -->
<g id="edge86" class="edge"><title>Node1&#45;&gt;Node5</title>
<path fill="none" stroke="midnightblue" d="M1993.02,-337.953C2039.54,-325.751 2119.46,-295.923 2119.46,-235 2119.46,-235 2119.46,-235 2119.46,-121 2119.46,-66.4926 2067.28,-72.8908 2015.46,-56 1904.87,-19.9555 1544.11,-12.7408 1425.58,-11.3324"/>
<polygon fill="midnightblue" stroke="midnightblue" points="1425.56,-7.83211 1415.52,-11.2202 1425.48,-14.8317 1425.56,-7.83211"/>
</g>
<!-- Node3 -->
<g id="node3" class="node"><title>Node3</title>
<polygon fill="white" stroke="#bfbfbf" points="1831.46,-56.5 1831.46,-75.5 1877.46,-75.5 1877.46,-56.5 1831.46,-56.5"/>
<text text-anchor="middle" x="1854.46" y="-63.5" font-family="Helvetica,sans-Serif" font-size="10.00">stdio.h</text>
</g>
<!-- Node2&#45;&gt;Node3 -->
<g id="edge2" class="edge"><title>Node2&#45;&gt;Node3</title>
<path fill="none" stroke="midnightblue" d="M1690.23,-286.59C1765.22,-279.095 1948.63,-249.055 2024.46,-132 2057.29,-81.319 1946.37,-70.0827 1888.02,-67.6428"/>
<polygon fill="midnightblue" stroke="midnightblue" points="1887.9,-64.1365 1877.78,-67.282 1887.66,-71.1322 1887.9,-64.1365"/>
</g>
<!-- Node4 -->
<g id="node4" class="node"><title>Node4</title>
<g id="a_node4"><a xlink:href="a00014.html" target="_top" xlink:title="Provides DMA related configuration and access functions for ADC and DAC. ">
<polygon fill="white" stroke="black" points="1305.46,-224.5 1305.46,-243.5 1391.46,-243.5 1391.46,-224.5 1305.46,-224.5"/>
<text text-anchor="middle" x="1348.46" y="-231.5" font-family="Helvetica,sans-Serif" font-size="10.00">adc_dac_dma.h</text>
</a>
</g>
</g>
<!-- Node2&#45;&gt;Node4 -->
<g id="edge3" class="edge"><title>Node2&#45;&gt;Node4</title>
<path fill="none" stroke="midnightblue" d="M1624.83,-284.017C1571.55,-275.231 1465.77,-256.821 1401.59,-245.233"/>
<polygon fill="midnightblue" stroke="midnightblue" points="1402.12,-241.773 1391.66,-243.434 1400.87,-248.66 1402.12,-241.773"/>
</g>
<!-- Node2&#45;&gt;Node5 -->
<g id="edge81" class="edge"><title>Node2&#45;&gt;Node5</title>
<path fill="none" stroke="midnightblue" d="M1690.02,-287.55C1789.31,-282.253 2081.46,-259.801 2081.46,-179 2081.46,-179 2081.46,-179 2081.46,-121 2081.46,-54.4074 2010.73,-73.4107 1946.46,-56 1847.89,-29.3016 1535.54,-16.1429 1425.93,-12.2607"/>
<polygon fill="midnightblue" stroke="midnightblue" points="1425.78,-8.75365 1415.67,-11.9036 1425.54,-15.7494 1425.78,-8.75365"/>
</g>
<!-- Node25 -->
<g id="node25" class="node"><title>Node25</title>
<g id="a_node25"><a xlink:href="a00023.html" target="_top" xlink:title="Analog processing related callback handler definition. ">
<polygon fill="white" stroke="black" points="1933.46,-112.5 1933.46,-131.5 2015.46,-131.5 2015.46,-112.5 1933.46,-112.5"/>
<text text-anchor="middle" x="1974.46" y="-119.5" font-family="Helvetica,sans-Serif" font-size="10.00">isr_callbacks.h</text>
</a>
</g>
</g>
<!-- Node2&#45;&gt;Node25 -->
<g id="edge82" class="edge"><title>Node2&#45;&gt;Node25</title>
<path fill="none" stroke="midnightblue" d="M1674.06,-280.309C1726.05,-253.08 1886.06,-169.292 1948.82,-136.426"/>
<polygon fill="midnightblue" stroke="midnightblue" points="1950.79,-139.345 1958.03,-131.605 1947.54,-133.144 1950.79,-139.345"/>
</g>
<!-- Node26 -->
<g id="node26" class="node"><title>Node26</title>
<g id="a_node26"><a xlink:href="a00040.html" target="_top" xlink:title="Project MD_APP scanner specific pin mappings. ">
<polygon fill="white" stroke="black" points="41.9581,-112.5 41.9581,-131.5 108.958,-131.5 108.958,-112.5 41.9581,-112.5"/>
<text text-anchor="middle" x="75.4581" y="-119.5" font-family="Helvetica,sans-Serif" font-size="10.00">mdb_gpio.h</text>
</a>
</g>
</g>
<!-- Node2&#45;&gt;Node26 -->
<g id="edge83" class="edge"><title>Node2&#45;&gt;Node26</title>
<path fill="none" stroke="midnightblue" d="M1624.87,-286.344C1493.92,-275.583 993.269,-233.619 582.458,-188 410.832,-168.941 207.184,-141.301 119.357,-129.136"/>
<polygon fill="midnightblue" stroke="midnightblue" points="119.617,-125.639 109.231,-127.731 118.655,-132.573 119.617,-125.639"/>
</g>
<!-- Node28 -->
<g id="node28" class="node"><title>Node28</title>
<g id="a_node28"><a xlink:href="a00044.html" target="_top" xlink:title="PID compensator implementation. ">
<polygon fill="white" stroke="black" points="1397.46,-112.5 1397.46,-131.5 1435.46,-131.5 1435.46,-112.5 1397.46,-112.5"/>
<text text-anchor="middle" x="1416.46" y="-119.5" font-family="Helvetica,sans-Serif" font-size="10.00">pid.h</text>
</a>
</g>
</g>
<!-- Node2&#45;&gt;Node28 -->
<g id="edge84" class="edge"><title>Node2&#45;&gt;Node28</title>
<path fill="none" stroke="midnightblue" d="M1627.24,-280.41C1584.39,-266.914 1505.61,-237.097 1455.46,-188 1441.53,-174.369 1430.67,-154.762 1423.99,-140.652"/>
<polygon fill="midnightblue" stroke="midnightblue" points="1427.17,-139.195 1419.87,-131.513 1420.78,-142.068 1427.17,-139.195"/>
</g>
<!-- Node31 -->
<g id="node31" class="node"><title>Node31</title>
<g id="a_node31"><a xlink:href="a00021.html" target="_top" xlink:title="Provides tools and helper functions. ">
<polygon fill="white" stroke="black" points="1701.96,-112.5 1701.96,-131.5 1752.96,-131.5 1752.96,-112.5 1701.96,-112.5"/>
<text text-anchor="middle" x="1727.46" y="-119.5" font-family="Helvetica,sans-Serif" font-size="10.00">helper.h</text>
</a>
</g>
</g>
<!-- Node2&#45;&gt;Node31 -->
<g id="edge85" class="edge"><title>Node2&#45;&gt;Node31</title>
<path fill="none" stroke="midnightblue" d="M1661.22,-280.075C1672.29,-253.832 1704.88,-176.545 1719.82,-141.117"/>
<polygon fill="midnightblue" stroke="midnightblue" points="1723.18,-142.142 1723.85,-131.568 1716.73,-139.422 1723.18,-142.142"/>
</g>
<!-- Node4&#45;&gt;Node2 -->
<g id="edge80" class="edge"><title>Node4&#45;&gt;Node2</title>
<path fill="none" stroke="midnightblue" d="M1391.47,-241.706C1450.51,-251.557 1555.76,-269.927 1614.68,-280.642"/>
<polygon fill="midnightblue" stroke="midnightblue" points="1614.3,-284.132 1624.77,-282.486 1615.56,-277.246 1614.3,-284.132"/>
</g>
<!-- Node4&#45;&gt;Node5 -->
<g id="edge4" class="edge"><title>Node4&#45;&gt;Node5</title>
<path fill="none" stroke="midnightblue" d="M1349.73,-224.424C1353.14,-203.655 1363.9,-149.603 1388.46,-112 1401.54,-91.9759 1418.73,-97.8487 1428.46,-76 1436.49,-57.9665 1421.54,-39.0653 1407.49,-26.3236"/>
<polygon fill="midnightblue" stroke="midnightblue" points="1409.41,-23.3591 1399.51,-19.5864 1404.89,-28.7096 1409.41,-23.3591"/>
</g>
<!-- Node6 -->
<g id="node6" class="node"><title>Node6</title>
<g id="a_node6"><a xlink:href="a00042.html" target="_top" xlink:title="Provides nested vector interrupt controller configuration methods. ">
<polygon fill="white" stroke="black" points="1229.46,-168.5 1229.46,-187.5 1303.46,-187.5 1303.46,-168.5 1229.46,-168.5"/>
<text text-anchor="middle" x="1266.46" y="-175.5" font-family="Helvetica,sans-Serif" font-size="10.00">nvic_config.h</text>
</a>
</g>
</g>
<!-- Node4&#45;&gt;Node6 -->
<g id="edge5" class="edge"><title>Node4&#45;&gt;Node6</title>
<path fill="none" stroke="midnightblue" d="M1335.28,-224.324C1322.61,-215.979 1303.22,-203.212 1288.25,-193.352"/>
<polygon fill="midnightblue" stroke="midnightblue" points="1289.88,-190.231 1279.6,-187.655 1286.03,-196.078 1289.88,-190.231"/>
</g>
<!-- Node8 -->
<g id="node8" class="node"><title>Node8</title>
<g id="a_node8"><a xlink:href="a00025.html" target="_top" xlink:title="Main header definition. ">
<polygon fill="white" stroke="black" points="1464.46,-168.5 1464.46,-187.5 1510.46,-187.5 1510.46,-168.5 1464.46,-168.5"/>
<text text-anchor="middle" x="1487.46" y="-175.5" font-family="Helvetica,sans-Serif" font-size="10.00">main.h</text>
</a>
</g>
</g>
<!-- Node4&#45;&gt;Node8 -->
<g id="edge7" class="edge"><title>Node4&#45;&gt;Node8</title>
<path fill="none" stroke="midnightblue" d="M1365.39,-224.444C1387.6,-215.014 1426.53,-199.836 1454.56,-189.646"/>
<polygon fill="midnightblue" stroke="midnightblue" points="1456.11,-192.808 1464.34,-186.137 1453.74,-186.219 1456.11,-192.808"/>
</g>
<!-- Node13 -->
<g id="node13" class="node"><title>Node13</title>
<polygon fill="white" stroke="#bfbfbf" points="680.958,-0.5 680.958,-19.5 751.958,-19.5 751.958,-0.5 680.958,-0.5"/>
<text text-anchor="middle" x="716.458" y="-7.5" font-family="Helvetica,sans-Serif" font-size="10.00">stm32f4xx.h</text>
</g>
<!-- Node4&#45;&gt;Node13 -->
<g id="edge78" class="edge"><title>Node4&#45;&gt;Node13</title>
<path fill="none" stroke="midnightblue" d="M1305.23,-230.343C1154.76,-220.655 660.588,-184.997 615.458,-132 582.446,-93.233 650.79,-46.8927 690.584,-24.4718"/>
<polygon fill="midnightblue" stroke="midnightblue" points="692.456,-27.4372 699.538,-19.5569 689.087,-21.3009 692.456,-27.4372"/>
</g>
<!-- Node14 -->
<g id="node14" class="node"><title>Node14</title>
<polygon fill="white" stroke="#bfbfbf" points="229.958,-0.5 229.958,-19.5 318.958,-19.5 318.958,-0.5 229.958,-0.5"/>
<text text-anchor="middle" x="274.458" y="-7.5" font-family="Helvetica,sans-Serif" font-size="10.00">stm32f4xx_rcc.h</text>
</g>
<!-- Node4&#45;&gt;Node14 -->
<g id="edge77" class="edge"><title>Node4&#45;&gt;Node14</title>
<path fill="none" stroke="midnightblue" d="M1305.26,-232.417C1089.65,-229.147 136.175,-210.323 32.4581,-132 4.49279,-110.882 -11.1354,-82.7877 11.4581,-56 37.5221,-25.0976 150.3,-15.4154 219.434,-12.3826"/>
<polygon fill="midnightblue" stroke="midnightblue" points="219.868,-15.868 229.718,-11.9661 219.585,-8.87369 219.868,-15.868"/>
</g>
<!-- Node4&#45;&gt;Node28 -->
<g id="edge74" class="edge"><title>Node4&#45;&gt;Node28</title>
<path fill="none" stroke="midnightblue" d="M1353.79,-224.368C1364.97,-206.296 1391,-164.176 1405.76,-140.307"/>
<polygon fill="midnightblue" stroke="midnightblue" points="1408.87,-141.938 1411.15,-131.591 1402.91,-138.257 1408.87,-141.938"/>
</g>
<!-- Node4&#45;&gt;Node31 -->
<g id="edge79" class="edge"><title>Node4&#45;&gt;Node31</title>
<path fill="none" stroke="midnightblue" d="M1382.65,-224.49C1417.26,-215.762 1472.26,-201.579 1519.46,-188 1580.59,-170.414 1651.15,-147.89 1692.38,-134.5"/>
<polygon fill="midnightblue" stroke="midnightblue" points="1693.53,-137.805 1701.95,-131.382 1691.36,-131.149 1693.53,-137.805"/>
</g>
<!-- Node33 -->
<g id="node33" class="node"><title>Node33</title>
<g id="a_node33"><a xlink:href="a00027.html" target="_top" xlink:title="Project XA&#45;Galvo scanner specific digital to analog converter methods. ">
<polygon fill="white" stroke="black" points="868.458,-112.5 868.458,-131.5 968.458,-131.5 968.458,-112.5 868.458,-112.5"/>
<text text-anchor="middle" x="918.458" y="-119.5" font-family="Helvetica,sans-Serif" font-size="10.00">md_stm32f4_dac.h</text>
</a>
</g>
</g>
<!-- Node4&#45;&gt;Node33 -->
<g id="edge70" class="edge"><title>Node4&#45;&gt;Node33</title>
<path fill="none" stroke="midnightblue" d="M1305.33,-228.751C1256.87,-223.089 1176.37,-210.994 1110.46,-188 1092.44,-181.713 1090.15,-175.157 1072.46,-168 1037.43,-153.83 996.277,-142.041 965.33,-134.089"/>
<polygon fill="midnightblue" stroke="midnightblue" points="965.802,-130.598 955.25,-131.541 964.087,-137.385 965.802,-130.598"/>
</g>
<!-- Node34 -->
<g id="node34" class="node"><title>Node34</title>
<polygon fill="white" stroke="#bfbfbf" points="971.458,-168.5 971.458,-187.5 1063.46,-187.5 1063.46,-168.5 971.458,-168.5"/>
<text text-anchor="middle" x="1017.46" y="-175.5" font-family="Helvetica,sans-Serif" font-size="10.00">stm32f4xx_adc.h</text>
</g>
<!-- Node4&#45;&gt;Node34 -->
<g id="edge75" class="edge"><title>Node4&#45;&gt;Node34</title>
<path fill="none" stroke="midnightblue" d="M1305.19,-225.94C1245.89,-216.266 1139.28,-198.875 1073.81,-188.194"/>
<polygon fill="midnightblue" stroke="midnightblue" points="1074.1,-184.695 1063.67,-186.539 1072.98,-191.604 1074.1,-184.695"/>
</g>
<!-- Node35 -->
<g id="node35" class="node"><title>Node35</title>
<polygon fill="white" stroke="#bfbfbf" points="1119.46,-168.5 1119.46,-187.5 1211.46,-187.5 1211.46,-168.5 1119.46,-168.5"/>
<text text-anchor="middle" x="1165.46" y="-175.5" font-family="Helvetica,sans-Serif" font-size="10.00">stm32f4xx_dac.h</text>
</g>
<!-- Node4&#45;&gt;Node35 -->
<g id="edge76" class="edge"><title>Node4&#45;&gt;Node35</title>
<path fill="none" stroke="midnightblue" d="M1319.46,-224.444C1288.27,-215.241 1238.53,-200.562 1204.05,-190.388"/>
<polygon fill="midnightblue" stroke="midnightblue" points="1204.9,-186.99 1194.32,-187.516 1202.92,-193.704 1204.9,-186.99"/>
</g>
<!-- Node7 -->
<g id="node7" class="node"><title>Node7</title>
<polygon fill="white" stroke="#bfbfbf" points="1098.46,-56.5 1098.46,-75.5 1144.46,-75.5 1144.46,-56.5 1098.46,-56.5"/>
<text text-anchor="middle" x="1121.46" y="-63.5" font-family="Helvetica,sans-Serif" font-size="10.00">misc.h</text>
</g>
<!-- Node6&#45;&gt;Node7 -->
<g id="edge6" class="edge"><title>Node6&#45;&gt;Node7</title>
<path fill="none" stroke="midnightblue" d="M1235.37,-168.419C1213.73,-161.295 1185.17,-149.476 1164.46,-132 1149.15,-119.08 1137.16,-99.3617 1129.78,-85.031"/>
<polygon fill="midnightblue" stroke="midnightblue" points="1132.77,-83.1726 1125.23,-75.7225 1126.48,-86.2442 1132.77,-83.1726"/>
</g>
<!-- Node8&#45;&gt;Node2 -->
<g id="edge46" class="edge"><title>Node8&#45;&gt;Node2</title>
<path fill="none" stroke="midnightblue" d="M1500.74,-187.591C1529.85,-206.43 1599.56,-251.535 1635.38,-274.714"/>
<polygon fill="midnightblue" stroke="midnightblue" points="1633.82,-277.874 1644.12,-280.368 1637.62,-271.997 1633.82,-277.874"/>
</g>
<!-- Node8&#45;&gt;Node3 -->
<g id="edge8" class="edge"><title>Node8&#45;&gt;Node3</title>
<path fill="none" stroke="midnightblue" d="M1510.76,-176.622C1559.24,-175.107 1673.72,-167.697 1761.46,-132 1790.78,-120.07 1819.94,-97.5041 1837.58,-82.3564"/>
<polygon fill="midnightblue" stroke="midnightblue" points="1840.07,-84.8278 1845.27,-75.5953 1835.45,-79.5716 1840.07,-84.8278"/>
</g>
<!-- Node8&#45;&gt;Node4 -->
<g id="edge47" class="edge"><title>Node8&#45;&gt;Node4</title>
<path fill="none" stroke="midnightblue" d="M1470.62,-187.516C1449.46,-196.506 1413,-210.754 1385.33,-220.906"/>
<polygon fill="midnightblue" stroke="midnightblue" points="1383.78,-217.744 1375.57,-224.444 1386.17,-224.324 1383.78,-217.744"/>
</g>
<!-- Node8&#45;&gt;Node5 -->
<g id="edge12" class="edge"><title>Node8&#45;&gt;Node5</title>
<path fill="none" stroke="midnightblue" d="M1510.67,-175.234C1594.01,-168.785 1873.82,-146.149 1886.46,-132 1908.96,-106.813 1909.24,-80.934 1886.46,-56 1855.55,-22.1772 1537.48,-13.5465 1425.89,-11.5512"/>
<polygon fill="midnightblue" stroke="midnightblue" points="1425.82,-8.04947 1415.76,-11.3782 1425.7,-15.0485 1425.82,-8.04947"/>
</g>
<!-- Node9 -->
<g id="node9" class="node"><title>Node9</title>
<polygon fill="white" stroke="#bfbfbf" points="1620.46,-56.5 1620.46,-75.5 1668.46,-75.5 1668.46,-56.5 1620.46,-56.5"/>
<text text-anchor="middle" x="1644.46" y="-63.5" font-family="Helvetica,sans-Serif" font-size="10.00">stdlib.h</text>
</g>
<!-- Node8&#45;&gt;Node9 -->
<g id="edge9" class="edge"><title>Node8&#45;&gt;Node9</title>
<path fill="none" stroke="midnightblue" d="M1510.86,-174.554C1539.19,-170.435 1586.78,-159.643 1616.46,-132 1629.64,-119.722 1636.91,-100.185 1640.71,-85.7327"/>
<polygon fill="midnightblue" stroke="midnightblue" points="1644.15,-86.407 1642.99,-75.8762 1637.33,-84.8337 1644.15,-86.407"/>
</g>
<!-- Node10 -->
<g id="node10" class="node"><title>Node10</title>
<polygon fill="white" stroke="#bfbfbf" points="1686.96,-56.5 1686.96,-75.5 1735.96,-75.5 1735.96,-56.5 1686.96,-56.5"/>
<text text-anchor="middle" x="1711.46" y="-63.5" font-family="Helvetica,sans-Serif" font-size="10.00">string.h</text>
</g>
<!-- Node8&#45;&gt;Node10 -->
<g id="edge10" class="edge"><title>Node8&#45;&gt;Node10</title>
<path fill="none" stroke="midnightblue" d="M1510.51,-173.263C1541.03,-167.624 1595.84,-155.065 1637.46,-132 1660.68,-119.131 1682.95,-97.9651 1696.88,-83.2986"/>
<polygon fill="midnightblue" stroke="midnightblue" points="1699.5,-85.6293 1703.72,-75.9132 1694.36,-80.8741 1699.5,-85.6293"/>
</g>
<!-- Node11 -->
<g id="node11" class="node"><title>Node11</title>
<g id="a_node11"><a xlink:href="a00016.html" target="_top" xlink:title="Platform/Compiler dependent definitions. ">
<polygon fill="white" stroke="black" points="1354.96,-56.5 1354.96,-75.5 1419.96,-75.5 1419.96,-56.5 1354.96,-56.5"/>
<text text-anchor="middle" x="1387.46" y="-63.5" font-family="Helvetica,sans-Serif" font-size="10.00">attributes.h</text>
</a>
</g>
</g>
<!-- Node8&#45;&gt;Node11 -->
<g id="edge11" class="edge"><title>Node8&#45;&gt;Node11</title>
<path fill="none" stroke="midnightblue" d="M1464.43,-173.692C1440.84,-168.949 1405.32,-157.745 1388.46,-132 1379.58,-118.441 1380.35,-99.6393 1382.73,-85.7441"/>
<polygon fill="midnightblue" stroke="midnightblue" points="1386.18,-86.3558 1384.84,-75.8462 1379.33,-84.8984 1386.18,-86.3558"/>
</g>
<!-- Node12 -->
<g id="node12" class="node"><title>Node12</title>
<g id="a_node12"><a xlink:href="a00031.html" target="_top" xlink:title="Provides SysTick&#45;Timer driven delay functions. ">
<polygon fill="white" stroke="black" points="662.958,-56.5 662.958,-75.5 769.958,-75.5 769.958,-56.5 662.958,-56.5"/>
<text text-anchor="middle" x="716.458" y="-63.5" font-family="Helvetica,sans-Serif" font-size="10.00">md_stm32f4_delay.h</text>
</a>
</g>
</g>
<!-- Node8&#45;&gt;Node12 -->
<g id="edge13" class="edge"><title>Node8&#45;&gt;Node12</title>
<path fill="none" stroke="midnightblue" d="M1464.33,-175.829C1358.03,-170.381 918.98,-147.14 859.458,-132 815.012,-120.694 767.25,-96.1922 739.709,-80.7104"/>
<polygon fill="midnightblue" stroke="midnightblue" points="741.268,-77.5703 730.85,-75.6469 737.795,-83.6477 741.268,-77.5703"/>
</g>
<!-- Node15 -->
<g id="node15" class="node"><title>Node15</title>
<g id="a_node15"><a xlink:href="a00033.html" target="_top" xlink:title="Definitions to extend board support for STM32F429i&#45;DISCO and equivalent boards. ">
<polygon fill="white" stroke="black" points="993.958,-112.5 993.958,-131.5 1100.96,-131.5 1100.96,-112.5 993.958,-112.5"/>
<text text-anchor="middle" x="1047.46" y="-119.5" font-family="Helvetica,sans-Serif" font-size="10.00">md_stm32f4_disco.h</text>
</a>
</g>
</g>
<!-- Node8&#45;&gt;Node15 -->
<g id="edge17" class="edge"><title>Node8&#45;&gt;Node15</title>
<path fill="none" stroke="midnightblue" d="M1464.42,-174.173C1399.03,-166.148 1210.58,-143.02 1110.95,-130.792"/>
<polygon fill="midnightblue" stroke="midnightblue" points="1111.36,-127.316 1101.01,-129.572 1110.51,-134.264 1111.36,-127.316"/>
</g>
<!-- Node17 -->
<g id="node17" class="node"><title>Node17</title>
<g id="a_node17"><a xlink:href="a00037_source.html" target="_top" xlink:title="md_stm32f4_timer.h">
<polygon fill="white" stroke="black" points="140.458,-56.5 140.458,-75.5 246.458,-75.5 246.458,-56.5 140.458,-56.5"/>
<text text-anchor="middle" x="193.458" y="-63.5" font-family="Helvetica,sans-Serif" font-size="10.00">md_stm32f4_timer.h</text>
</a>
</g>
</g>
<!-- Node8&#45;&gt;Node17 -->
<g id="edge22" class="edge"><title>Node8&#45;&gt;Node17</title>
<path fill="none" stroke="midnightblue" d="M1464.21,-175.804C1325.99,-168.695 618.18,-132.279 615.458,-132 483.218,-118.439 329.168,-91.9807 248.756,-77.3492"/>
<polygon fill="midnightblue" stroke="midnightblue" points="249.316,-73.8937 238.85,-75.5387 248.058,-80.7797 249.316,-73.8937"/>
</g>
<!-- Node18 -->
<g id="node18" class="node"><title>Node18</title>
<g id="a_node18"><a xlink:href="a00055_source.html" target="_top" xlink:title="tm_stm32f4_pwm.h">
<polygon fill="white" stroke="black" points="624.958,-112.5 624.958,-131.5 727.958,-131.5 727.958,-112.5 624.958,-112.5"/>
<text text-anchor="middle" x="676.458" y="-119.5" font-family="Helvetica,sans-Serif" font-size="10.00">tm_stm32f4_pwm.h</text>
</a>
</g>
</g>
<!-- Node8&#45;&gt;Node18 -->
<g id="edge25" class="edge"><title>Node8&#45;&gt;Node18</title>
<path fill="none" stroke="midnightblue" d="M1464.45,-175.67C1376.47,-170.553 1052.82,-151.445 786.458,-132 770.86,-130.861 754.027,-129.534 738.331,-128.254"/>
<polygon fill="midnightblue" stroke="midnightblue" points="738.458,-124.753 728.205,-127.422 737.885,-131.729 738.458,-124.753"/>
</g>
<!-- Node21 -->
<g id="node21" class="node"><title>Node21</title>
<g id="a_node21"><a xlink:href="a00061_source.html" target="_top" xlink:title="tm_stm32f4_usart.h">
<polygon fill="white" stroke="black" points="1173.46,-112.5 1173.46,-131.5 1277.46,-131.5 1277.46,-112.5 1173.46,-112.5"/>
<text text-anchor="middle" x="1225.46" y="-119.5" font-family="Helvetica,sans-Serif" font-size="10.00">tm_stm32f4_usart.h</text>
</a>
</g>
</g>
<!-- Node8&#45;&gt;Node21 -->
<g id="edge36" class="edge"><title>Node8&#45;&gt;Node21</title>
<path fill="none" stroke="midnightblue" d="M1464.21,-172.208C1422.38,-163.588 1333.55,-145.278 1276.82,-133.586"/>
<polygon fill="midnightblue" stroke="midnightblue" points="1277.47,-130.146 1266.97,-131.556 1276.06,-137.002 1277.47,-130.146"/>
</g>
<!-- Node23 -->
<g id="node23" class="node"><title>Node23</title>
<polygon fill="white" stroke="#bfbfbf" points="1453.46,-112.5 1453.46,-131.5 1521.46,-131.5 1521.46,-112.5 1453.46,-112.5"/>
<text text-anchor="middle" x="1487.46" y="-119.5" font-family="Helvetica,sans-Serif" font-size="10.00">core_cm4.h</text>
</g>
<!-- Node8&#45;&gt;Node23 -->
<g id="edge44" class="edge"><title>Node8&#45;&gt;Node23</title>
<path fill="none" stroke="midnightblue" d="M1487.46,-168.083C1487.46,-161.006 1487.46,-150.861 1487.46,-141.986"/>
<polygon fill="midnightblue" stroke="midnightblue" points="1490.96,-141.751 1487.46,-131.751 1483.96,-141.751 1490.96,-141.751"/>
</g>
<!-- Node24 -->
<g id="node24" class="node"><title>Node24</title>
<polygon fill="white" stroke="#bfbfbf" points="1539.46,-112.5 1539.46,-131.5 1607.46,-131.5 1607.46,-112.5 1539.46,-112.5"/>
<text text-anchor="middle" x="1573.46" y="-119.5" font-family="Helvetica,sans-Serif" font-size="10.00">arm_math.h</text>
</g>
<!-- Node8&#45;&gt;Node24 -->
<g id="edge45" class="edge"><title>Node8&#45;&gt;Node24</title>
<path fill="none" stroke="midnightblue" d="M1501.28,-168.324C1514.69,-159.9 1535.28,-146.971 1551.04,-137.074"/>
<polygon fill="midnightblue" stroke="midnightblue" points="1553.07,-139.936 1559.68,-131.655 1549.34,-134.008 1553.07,-139.936"/>
</g>
<!-- Node8&#45;&gt;Node25 -->
<g id="edge48" class="edge"><title>Node8&#45;&gt;Node25</title>
<path fill="none" stroke="midnightblue" d="M1510.84,-174.666C1575.09,-168.781 1758.36,-152.348 1910.46,-132 1914.56,-131.452 1918.82,-130.835 1923.12,-130.189"/>
<polygon fill="midnightblue" stroke="midnightblue" points="1923.82,-133.624 1933.17,-128.645 1922.75,-126.705 1923.82,-133.624"/>
</g>
<!-- Node8&#45;&gt;Node26 -->
<g id="edge52" class="edge"><title>Node8&#45;&gt;Node26</title>
<path fill="none" stroke="midnightblue" d="M1464.25,-175.695C1430.74,-173.837 1366.86,-170.388 1312.46,-168 846.022,-147.523 280.355,-129.392 119.827,-124.373"/>
<polygon fill="midnightblue" stroke="midnightblue" points="119.514,-120.862 109.409,-124.048 119.295,-127.858 119.514,-120.862"/>
</g>
<!-- Node8&#45;&gt;Node28 -->
<g id="edge56" class="edge"><title>Node8&#45;&gt;Node28</title>
<path fill="none" stroke="midnightblue" d="M1476.05,-168.324C1465.35,-160.185 1449.12,-147.839 1436.3,-138.087"/>
<polygon fill="midnightblue" stroke="midnightblue" points="1438.15,-135.102 1428.07,-131.834 1433.91,-140.673 1438.15,-135.102"/>
</g>
<!-- Node30 -->
<g id="node30" class="node"><title>Node30</title>
<g id="a_node30"><a xlink:href="a00047.html" target="_top" xlink:title="Provides DAC driven signal generator functions. ">
<polygon fill="white" stroke="black" points="1809.46,-112.5 1809.46,-131.5 1877.46,-131.5 1877.46,-112.5 1809.46,-112.5"/>
<text text-anchor="middle" x="1843.46" y="-119.5" font-family="Helvetica,sans-Serif" font-size="10.00">signalGen.h</text>
</a>
</g>
</g>
<!-- Node8&#45;&gt;Node30 -->
<g id="edge63" class="edge"><title>Node8&#45;&gt;Node30</title>
<path fill="none" stroke="midnightblue" d="M1510.69,-173.931C1562.11,-167.068 1689.38,-149.686 1795.46,-132 1796.73,-131.788 1798.02,-131.57 1799.32,-131.347"/>
<polygon fill="midnightblue" stroke="midnightblue" points="1800.16,-134.751 1809.4,-129.561 1798.94,-127.858 1800.16,-134.751"/>
</g>
<!-- Node8&#45;&gt;Node31 -->
<g id="edge65" class="edge"><title>Node8&#45;&gt;Node31</title>
<path fill="none" stroke="midnightblue" d="M1510.47,-171.822C1552.42,-162.383 1641.61,-142.316 1691.59,-131.07"/>
<polygon fill="midnightblue" stroke="midnightblue" points="1692.65,-134.42 1701.63,-128.811 1691.11,-127.591 1692.65,-134.42"/>
</g>
<!-- Node12&#45;&gt;Node5 -->
<g id="edge16" class="edge"><title>Node12&#45;&gt;Node5</title>
<path fill="none" stroke="midnightblue" d="M770.246,-57.5927C775.048,-57.0187 779.838,-56.4777 784.458,-56 997.582,-33.962 1254.16,-18.4609 1349.43,-13.0814"/>
<polygon fill="midnightblue" stroke="midnightblue" points="1349.67,-16.5738 1359.46,-12.5193 1349.28,-9.58479 1349.67,-16.5738"/>
</g>
<!-- Node12&#45;&gt;Node13 -->
<g id="edge14" class="edge"><title>Node12&#45;&gt;Node13</title>
<path fill="none" stroke="midnightblue" d="M716.458,-56.083C716.458,-49.0059 716.458,-38.8611 716.458,-29.9865"/>
<polygon fill="midnightblue" stroke="midnightblue" points="719.958,-29.751 716.458,-19.7511 712.958,-29.7511 719.958,-29.751"/>
</g>
<!-- Node12&#45;&gt;Node14 -->
<g id="edge15" class="edge"><title>Node12&#45;&gt;Node14</title>
<path fill="none" stroke="midnightblue" d="M662.702,-58.4325C578.029,-48.0878 414.476,-28.1063 329.197,-17.6876"/>
<polygon fill="midnightblue" stroke="midnightblue" points="329.546,-14.2043 319.196,-16.4657 328.698,-21.1526 329.546,-14.2043"/>
</g>
<!-- Node15&#45;&gt;Node5 -->
<g id="edge18" class="edge"><title>Node15&#45;&gt;Node5</title>
<path fill="none" stroke="midnightblue" d="M1050.45,-112.119C1055.81,-97.7282 1068.47,-69.559 1089.46,-56 1131.68,-28.7271 1278.39,-17.0441 1348.96,-12.9124"/>
<polygon fill="midnightblue" stroke="midnightblue" points="1349.41,-16.3924 1359.2,-12.3347 1349.02,-9.40351 1349.41,-16.3924"/>
</g>
<!-- Node15&#45;&gt;Node13 -->
<g id="edge19" class="edge"><title>Node15&#45;&gt;Node13</title>
<path fill="none" stroke="midnightblue" d="M1040.57,-112.154C1028.87,-97.813 1003.62,-69.7142 975.458,-56 906.409,-22.3736 816.223,-13.5109 762.525,-11.3854"/>
<polygon fill="midnightblue" stroke="midnightblue" points="762.4,-7.87936 752.289,-11.0447 762.167,-14.8755 762.4,-7.87936"/>
</g>
<!-- Node16 -->
<g id="node16" class="node"><title>Node16</title>
<g id="a_node16"><a xlink:href="a00035.html" target="_top" xlink:title="Provides generic methods for GPIO module initialization and manipulation. ">
<polygon fill="white" stroke="black" points="864.458,-56.5 864.458,-75.5 966.458,-75.5 966.458,-56.5 864.458,-56.5"/>
<text text-anchor="middle" x="915.458" y="-63.5" font-family="Helvetica,sans-Serif" font-size="10.00">md_stm32f4_gpio.h</text>
</a>
</g>
</g>
<!-- Node15&#45;&gt;Node16 -->
<g id="edge20" class="edge"><title>Node15&#45;&gt;Node16</title>
<path fill="none" stroke="midnightblue" d="M1026.54,-112.444C1004.72,-103.517 970.308,-89.4387 945.566,-79.3168"/>
<polygon fill="midnightblue" stroke="midnightblue" points="946.857,-76.0634 936.276,-75.5164 944.206,-82.5422 946.857,-76.0634"/>
</g>
<!-- Node16&#45;&gt;Node13 -->
<g id="edge21" class="edge"><title>Node16&#45;&gt;Node13</title>
<path fill="none" stroke="midnightblue" d="M883.926,-56.4435C849.866,-47.2011 795.452,-32.4356 757.943,-22.2572"/>
<polygon fill="midnightblue" stroke="midnightblue" points="758.41,-18.7575 747.843,-19.5164 756.577,-25.5132 758.41,-18.7575"/>
</g>
<!-- Node17&#45;&gt;Node13 -->
<g id="edge23" class="edge"><title>Node17&#45;&gt;Node13</title>
<path fill="none" stroke="midnightblue" d="M246.484,-59.525C349.34,-48.9052 574.301,-25.6778 670.903,-15.7035"/>
<polygon fill="midnightblue" stroke="midnightblue" points="671.352,-19.1759 680.94,-14.6673 670.633,-12.2129 671.352,-19.1759"/>
</g>
<!-- Node17&#45;&gt;Node14 -->
<g id="edge24" class="edge"><title>Node17&#45;&gt;Node14</title>
<path fill="none" stroke="midnightblue" d="M206.472,-56.324C218.99,-47.979 238.14,-35.2122 252.93,-25.3524"/>
<polygon fill="midnightblue" stroke="midnightblue" points="255.097,-28.1137 261.476,-19.6545 251.214,-22.2894 255.097,-28.1137"/>
</g>
<!-- Node18&#45;&gt;Node5 -->
<g id="edge35" class="edge"><title>Node18&#45;&gt;Node5</title>
<path fill="none" stroke="midnightblue" d="M695.043,-112.387C727.034,-97.9904 794.912,-69.3076 855.458,-56 1037.27,-16.0377 1261.24,-11.0816 1349.32,-10.8012"/>
<polygon fill="midnightblue" stroke="midnightblue" points="1349.38,-14.3013 1359.38,-10.7882 1349.37,-7.30127 1349.38,-14.3013"/>
</g>
<!-- Node18&#45;&gt;Node13 -->
<g id="edge26" class="edge"><title>Node18&#45;&gt;Node13</title>
<path fill="none" stroke="midnightblue" d="M668.974,-112.281C658.975,-99.5104 643.599,-75.1586 653.458,-56 660.535,-42.2475 673.979,-31.7663 686.636,-24.3942"/>
<polygon fill="midnightblue" stroke="midnightblue" points="688.458,-27.3888 695.611,-19.5733 685.145,-21.2221 688.458,-27.3888"/>
</g>
<!-- Node18&#45;&gt;Node14 -->
<g id="edge27" class="edge"><title>Node18&#45;&gt;Node14</title>
<path fill="none" stroke="midnightblue" d="M624.952,-121.327C533.553,-120.881 347.95,-115.033 298.458,-76 284.458,-64.9588 278.625,-44.9138 276.194,-29.9921"/>
<polygon fill="midnightblue" stroke="midnightblue" points="279.635,-29.3018 274.919,-19.8141 272.689,-30.1715 279.635,-29.3018"/>
</g>
<!-- Node18&#45;&gt;Node16 -->
<g id="edge28" class="edge"><title>Node18&#45;&gt;Node16</title>
<path fill="none" stroke="midnightblue" d="M714.328,-112.444C755.934,-103.043 822.827,-87.9291 867.927,-77.7393"/>
<polygon fill="midnightblue" stroke="midnightblue" points="868.782,-81.1343 877.765,-75.5164 867.24,-74.3064 868.782,-81.1343"/>
</g>
<!-- Node19 -->
<g id="node19" class="node"><title>Node19</title>
<polygon fill="white" stroke="#bfbfbf" points="373.958,-0.5 373.958,-19.5 462.958,-19.5 462.958,-0.5 373.958,-0.5"/>
<text text-anchor="middle" x="418.458" y="-7.5" font-family="Helvetica,sans-Serif" font-size="10.00">stm32f4xx_tim.h</text>
</g>
<!-- Node18&#45;&gt;Node19 -->
<g id="edge29" class="edge"><title>Node18&#45;&gt;Node19</title>
<path fill="none" stroke="midnightblue" d="M624.955,-121.222C546.281,-120.34 401.861,-113.498 369.458,-76 355.035,-59.309 376.418,-38.8064 395.305,-25.3458"/>
<polygon fill="midnightblue" stroke="midnightblue" points="397.342,-28.1937 403.669,-19.6958 393.423,-22.3931 397.342,-28.1937"/>
</g>
<!-- Node20 -->
<g id="node20" class="node"><title>Node20</title>
<g id="a_node20"><a xlink:href="a00059_source.html" target="_top" xlink:title="tm_stm32f4_timer_properties.h">
<polygon fill="white" stroke="black" points="378.458,-56.5 378.458,-75.5 530.458,-75.5 530.458,-56.5 378.458,-56.5"/>
<text text-anchor="middle" x="454.458" y="-63.5" font-family="Helvetica,sans-Serif" font-size="10.00">tm_stm32f4_timer_properties.h</text>
</a>
</g>
</g>
<!-- Node18&#45;&gt;Node20 -->
<g id="edge30" class="edge"><title>Node18&#45;&gt;Node20</title>
<path fill="none" stroke="midnightblue" d="M641.282,-112.444C602.879,-103.102 541.282,-88.1194 499.403,-77.9326"/>
<polygon fill="midnightblue" stroke="midnightblue" points="500.014,-74.4792 489.47,-75.5164 498.36,-81.2809 500.014,-74.4792"/>
</g>
<!-- Node20&#45;&gt;Node5 -->
<g id="edge34" class="edge"><title>Node20&#45;&gt;Node5</title>
<path fill="none" stroke="midnightblue" d="M530.809,-60.581C720.621,-49.5951 1208.66,-21.3487 1349.11,-13.2194"/>
<polygon fill="midnightblue" stroke="midnightblue" points="1349.59,-16.6977 1359.37,-12.6256 1349.19,-9.7094 1349.59,-16.6977"/>
</g>
<!-- Node20&#45;&gt;Node13 -->
<g id="edge31" class="edge"><title>Node20&#45;&gt;Node13</title>
<path fill="none" stroke="midnightblue" d="M495.973,-56.4435C543.525,-46.6427 621.211,-30.6311 670.537,-20.4647"/>
<polygon fill="midnightblue" stroke="midnightblue" points="671.523,-23.8351 680.611,-18.3884 670.11,-16.9792 671.523,-23.8351"/>
</g>
<!-- Node20&#45;&gt;Node14 -->
<g id="edge32" class="edge"><title>Node20&#45;&gt;Node14</title>
<path fill="none" stroke="midnightblue" d="M425.937,-56.4435C395.392,-47.2801 346.75,-32.6876 312.855,-22.5192"/>
<polygon fill="midnightblue" stroke="midnightblue" points="313.43,-19.0376 302.846,-19.5164 311.419,-25.7424 313.43,-19.0376"/>
</g>
<!-- Node20&#45;&gt;Node19 -->
<g id="edge33" class="edge"><title>Node20&#45;&gt;Node19</title>
<path fill="none" stroke="midnightblue" d="M448.513,-56.083C443.481,-48.5341 436.121,-37.4948 429.945,-28.2298"/>
<polygon fill="midnightblue" stroke="midnightblue" points="432.751,-26.1301 424.292,-19.7511 426.927,-30.0131 432.751,-26.1301"/>
</g>
<!-- Node21&#45;&gt;Node5 -->
<g id="edge43" class="edge"><title>Node21&#45;&gt;Node5</title>
<path fill="none" stroke="midnightblue" d="M1243.27,-112.4C1260.25,-103.93 1286.3,-90.2292 1307.46,-76 1330.26,-60.6627 1354.49,-40.3371 1370.23,-26.5264"/>
<polygon fill="midnightblue" stroke="midnightblue" points="1372.89,-28.8523 1378.04,-19.5971 1368.24,-23.6164 1372.89,-28.8523"/>
</g>
<!-- Node21&#45;&gt;Node7 -->
<g id="edge37" class="edge"><title>Node21&#45;&gt;Node7</title>
<path fill="none" stroke="midnightblue" d="M1208.75,-112.324C1192.15,-103.703 1166.46,-90.3643 1147.24,-80.3855"/>
<polygon fill="midnightblue" stroke="midnightblue" points="1148.61,-77.1565 1138.13,-75.6545 1145.39,-83.3689 1148.61,-77.1565"/>
</g>
<!-- Node21&#45;&gt;Node11 -->
<g id="edge42" class="edge"><title>Node21&#45;&gt;Node11</title>
<path fill="none" stroke="midnightblue" d="M1251.13,-112.444C1278.38,-103.359 1321.64,-88.9388 1352.11,-78.7831"/>
<polygon fill="midnightblue" stroke="midnightblue" points="1353.53,-81.9992 1361.91,-75.5164 1351.32,-75.3584 1353.53,-81.9992"/>
</g>
<!-- Node21&#45;&gt;Node13 -->
<g id="edge38" class="edge"><title>Node21&#45;&gt;Node13</title>
<path fill="none" stroke="midnightblue" d="M1219.04,-112.401C1207.66,-97.8898 1182.39,-68.8656 1153.46,-56 1084.29,-25.2362 859.613,-15.1244 762.201,-12.1344"/>
<polygon fill="midnightblue" stroke="midnightblue" points="762.173,-8.63215 752.074,-11.8353 761.966,-15.6291 762.173,-8.63215"/>
</g>
<!-- Node21&#45;&gt;Node14 -->
<g id="edge39" class="edge"><title>Node21&#45;&gt;Node14</title>
<path fill="none" stroke="midnightblue" d="M1173.22,-116.625C1153.28,-115.04 1130.32,-113.317 1109.46,-112 945.146,-101.631 525.514,-128.466 369.458,-76 338.855,-65.711 309.041,-42.5199 291.21,-26.8098"/>
<polygon fill="midnightblue" stroke="midnightblue" points="293.227,-23.9136 283.468,-19.7879 288.524,-29.0986 293.227,-23.9136"/>
</g>
<!-- Node21&#45;&gt;Node16 -->
<g id="edge40" class="edge"><title>Node21&#45;&gt;Node16</title>
<path fill="none" stroke="midnightblue" d="M1176.34,-112.444C1121.58,-102.905 1033.05,-87.4834 974.548,-77.293"/>
<polygon fill="midnightblue" stroke="midnightblue" points="974.801,-73.7845 964.349,-75.5164 973.6,-80.6807 974.801,-73.7845"/>
</g>
<!-- Node22 -->
<g id="node22" class="node"><title>Node22</title>
<polygon fill="white" stroke="#bfbfbf" points="1200.46,-56.5 1200.46,-75.5 1298.46,-75.5 1298.46,-56.5 1200.46,-56.5"/>
<text text-anchor="middle" x="1249.46" y="-63.5" font-family="Helvetica,sans-Serif" font-size="10.00">stm32f4xx_usart.h</text>
</g>
<!-- Node21&#45;&gt;Node22 -->
<g id="edge41" class="edge"><title>Node21&#45;&gt;Node22</title>
<path fill="none" stroke="midnightblue" d="M1229.42,-112.083C1232.67,-104.77 1237.38,-94.1814 1241.41,-85.1034"/>
<polygon fill="midnightblue" stroke="midnightblue" points="1244.71,-86.3107 1245.57,-75.7511 1238.31,-83.4677 1244.71,-86.3107"/>
</g>
<!-- Node25&#45;&gt;Node4 -->
<g id="edge51" class="edge"><title>Node25&#45;&gt;Node4</title>
<path fill="none" stroke="midnightblue" d="M1933.19,-130.252C1823.27,-149.566 1523.54,-202.235 1401.36,-223.704"/>
<polygon fill="midnightblue" stroke="midnightblue" points="1400.73,-220.261 1391.49,-225.439 1401.94,-227.156 1400.73,-220.261"/>
</g>
<!-- Node25&#45;&gt;Node5 -->
<g id="edge50" class="edge"><title>Node25&#45;&gt;Node5</title>
<path fill="none" stroke="midnightblue" d="M1970.11,-112.376C1962.24,-97.8263 1944.15,-68.746 1919.46,-56 1833.27,-11.5156 1532.46,-9.68948 1425.53,-10.5045"/>
<polygon fill="midnightblue" stroke="midnightblue" points="1425.48,-7.00473 1415.51,-10.5932 1425.54,-14.0045 1425.48,-7.00473"/>
</g>
<!-- Node25&#45;&gt;Node8 -->
<g id="edge49" class="edge"><title>Node25&#45;&gt;Node8</title>
<path fill="none" stroke="midnightblue" d="M1933.41,-131.316C1931.74,-131.553 1930.09,-131.782 1928.46,-132 1777.08,-152.252 1594.82,-168.626 1520.85,-174.582"/>
<polygon fill="midnightblue" stroke="midnightblue" points="1520.43,-171.104 1510.73,-175.384 1520.98,-178.082 1520.43,-171.104"/>
</g>
<!-- Node26&#45;&gt;Node13 -->
<g id="edge53" class="edge"><title>Node26&#45;&gt;Node13</title>
<path fill="none" stroke="midnightblue" d="M109.062,-121.585C186.463,-122.109 382.699,-118.713 539.458,-76 559.794,-70.459 562.882,-63.8115 582.458,-56 614.189,-43.3382 651.037,-31.1399 678.052,-22.6454"/>
<polygon fill="midnightblue" stroke="midnightblue" points="679.388,-25.8951 687.893,-19.5779 677.305,-19.2123 679.388,-25.8951"/>
</g>
<!-- Node26&#45;&gt;Node14 -->
<g id="edge55" class="edge"><title>Node26&#45;&gt;Node14</title>
<path fill="none" stroke="midnightblue" d="M58.6559,-112.44C36.5281,-100.066 2.32132,-76.4258 19.4581,-56 44.5022,-26.1494 152.556,-16.0915 219.715,-12.7085"/>
<polygon fill="midnightblue" stroke="midnightblue" points="219.893,-16.2041 229.717,-12.2385 219.564,-9.21185 219.893,-16.2041"/>
</g>
<!-- Node27 -->
<g id="node27" class="node"><title>Node27</title>
<polygon fill="white" stroke="#bfbfbf" points="28.4581,-56.5 28.4581,-75.5 122.458,-75.5 122.458,-56.5 28.4581,-56.5"/>
<text text-anchor="middle" x="75.4581" y="-63.5" font-family="Helvetica,sans-Serif" font-size="10.00">stm32f4xx_gpio.h</text>
</g>
<!-- Node26&#45;&gt;Node27 -->
<g id="edge54" class="edge"><title>Node26&#45;&gt;Node27</title>
<path fill="none" stroke="midnightblue" d="M75.4581,-112.083C75.4581,-105.006 75.4581,-94.8611 75.4581,-85.9865"/>
<polygon fill="midnightblue" stroke="midnightblue" points="78.9582,-85.751 75.4581,-75.7511 71.9582,-85.7511 78.9582,-85.751"/>
</g>
<!-- Node28&#45;&gt;Node3 -->
<g id="edge58" class="edge"><title>Node28&#45;&gt;Node3</title>
<path fill="none" stroke="midnightblue" d="M1435.59,-114.249C1438.53,-113.386 1441.56,-112.597 1444.46,-112 1606.18,-78.6957 1654.07,-105.203 1821.26,-75.6748"/>
<polygon fill="midnightblue" stroke="midnightblue" points="1821.92,-79.1131 1831.14,-73.891 1820.67,-72.2247 1821.92,-79.1131"/>
</g>
<!-- Node28&#45;&gt;Node5 -->
<g id="edge62" class="edge"><title>Node28&#45;&gt;Node5</title>
<path fill="none" stroke="midnightblue" d="M1435.71,-114.71C1438.63,-113.783 1441.62,-112.854 1444.46,-112 1503.91,-94.0901 1610.83,-104.822 1572.46,-56 1554.57,-33.2404 1474.56,-20.5597 1425.81,-14.82"/>
<polygon fill="midnightblue" stroke="midnightblue" points="1425.95,-11.3136 1415.62,-13.6674 1425.16,-18.2692 1425.95,-11.3136"/>
</g>
<!-- Node28&#45;&gt;Node9 -->
<g id="edge57" class="edge"><title>Node28&#45;&gt;Node9</title>
<path fill="none" stroke="midnightblue" d="M1435.67,-114.568C1438.6,-113.661 1441.6,-112.775 1444.46,-112 1515.64,-92.6944 1534.57,-92.4996 1606.46,-76 1607.72,-75.7099 1609.01,-75.413 1610.31,-75.1118"/>
<polygon fill="midnightblue" stroke="midnightblue" points="1611.41,-78.4494 1620.35,-72.7637 1609.81,-71.6334 1611.41,-78.4494"/>
</g>
<!-- Node28&#45;&gt;Node10 -->
<g id="edge59" class="edge"><title>Node28&#45;&gt;Node10</title>
<path fill="none" stroke="midnightblue" d="M1435.63,-114.399C1438.56,-113.516 1441.58,-112.681 1444.46,-112 1543.34,-88.6224 1573.1,-96.8896 1676.72,-75.9401"/>
<polygon fill="midnightblue" stroke="midnightblue" points="1677.56,-79.3407 1686.65,-73.8908 1676.15,-72.4853 1677.56,-79.3407"/>
</g>
<!-- Node28&#45;&gt;Node13 -->
<g id="edge61" class="edge"><title>Node28&#45;&gt;Node13</title>
<path fill="none" stroke="midnightblue" d="M1422.2,-112.12C1430.39,-98.2383 1442.91,-71.3941 1428.46,-56 1405.62,-31.6699 916.479,-16.4088 762.464,-12.1933"/>
<polygon fill="midnightblue" stroke="midnightblue" points="762.479,-8.69248 752.388,-11.9202 762.289,-15.6899 762.479,-8.69248"/>
</g>
<!-- Node29 -->
<g id="node29" class="node"><title>Node29</title>
<polygon fill="white" stroke="#bfbfbf" points="1514.96,-56.5 1514.96,-75.5 1563.96,-75.5 1563.96,-56.5 1514.96,-56.5"/>
<text text-anchor="middle" x="1539.46" y="-63.5" font-family="Helvetica,sans-Serif" font-size="10.00">stdint.h</text>
</g>
<!-- Node28&#45;&gt;Node29 -->
<g id="edge60" class="edge"><title>Node28&#45;&gt;Node29</title>
<path fill="none" stroke="midnightblue" d="M1435.68,-112.562C1455.78,-103.738 1487.56,-89.7853 1510.66,-79.6436"/>
<polygon fill="midnightblue" stroke="midnightblue" points="1512.22,-82.7812 1519.97,-75.5565 1509.4,-76.3717 1512.22,-82.7812"/>
</g>
<!-- Node30&#45;&gt;Node3 -->
<g id="edge64" class="edge"><title>Node30&#45;&gt;Node3</title>
<path fill="none" stroke="midnightblue" d="M1845.27,-112.083C1846.73,-104.927 1848.83,-94.6353 1850.65,-85.6911"/>
<polygon fill="midnightblue" stroke="midnightblue" points="1854.11,-86.2485 1852.68,-75.7511 1847.25,-84.8512 1854.11,-86.2485"/>
</g>
<!-- Node31&#45;&gt;Node3 -->
<g id="edge66" class="edge"><title>Node31&#45;&gt;Node3</title>
<path fill="none" stroke="midnightblue" d="M1747.58,-112.444C1768.48,-103.557 1801.39,-89.5632 1825.17,-79.4514"/>
<polygon fill="midnightblue" stroke="midnightblue" points="1826.6,-82.6504 1834.43,-75.5164 1823.86,-76.2085 1826.6,-82.6504"/>
</g>
<!-- Node31&#45;&gt;Node9 -->
<g id="edge68" class="edge"><title>Node31&#45;&gt;Node9</title>
<path fill="none" stroke="midnightblue" d="M1714.12,-112.324C1701.3,-103.979 1681.67,-91.2122 1666.52,-81.3524"/>
<polygon fill="midnightblue" stroke="midnightblue" points="1668.05,-78.1742 1657.76,-75.6545 1664.23,-84.0417 1668.05,-78.1742"/>
</g>
<!-- Node31&#45;&gt;Node10 -->
<g id="edge67" class="edge"><title>Node31&#45;&gt;Node10</title>
<path fill="none" stroke="midnightblue" d="M1724.82,-112.083C1722.67,-104.849 1719.58,-94.4087 1716.91,-85.3968"/>
<polygon fill="midnightblue" stroke="midnightblue" points="1720.25,-84.3447 1714.05,-75.7511 1713.54,-86.3334 1720.25,-84.3447"/>
</g>
<!-- Node32 -->
<g id="node32" class="node"><title>Node32</title>
<polygon fill="white" stroke="#bfbfbf" points="1753.96,-56.5 1753.96,-75.5 1812.96,-75.5 1812.96,-56.5 1753.96,-56.5"/>
<text text-anchor="middle" x="1783.46" y="-63.5" font-family="Helvetica,sans-Serif" font-size="10.00">inttypes.h</text>
</g>
<!-- Node31&#45;&gt;Node32 -->
<g id="edge69" class="edge"><title>Node31&#45;&gt;Node32</title>
<path fill="none" stroke="midnightblue" d="M1736.46,-112.324C1744.65,-104.42 1756.96,-92.5482 1766.93,-82.9377"/>
<polygon fill="midnightblue" stroke="midnightblue" points="1769.53,-85.2947 1774.3,-75.8339 1764.67,-80.2558 1769.53,-85.2947"/>
</g>
<!-- Node33&#45;&gt;Node5 -->
<g id="edge72" class="edge"><title>Node33&#45;&gt;Node5</title>
<path fill="none" stroke="midnightblue" d="M934.34,-112.275C960.869,-98.1072 1016.24,-70.2522 1066.46,-56 1166.04,-27.735 1288.26,-16.8553 1349.16,-12.9702"/>
<polygon fill="midnightblue" stroke="midnightblue" points="1349.68,-16.4452 1359.45,-12.3438 1349.25,-9.45811 1349.68,-16.4452"/>
</g>
<!-- Node33&#45;&gt;Node13 -->
<g id="edge71" class="edge"><title>Node33&#45;&gt;Node13</title>
<path fill="none" stroke="midnightblue" d="M902.608,-112.368C867.575,-93.2916 783.343,-47.4223 741.259,-24.5054"/>
<polygon fill="midnightblue" stroke="midnightblue" points="742.691,-21.3001 732.235,-19.5914 739.344,-27.4477 742.691,-21.3001"/>
</g>
<!-- Node33&#45;&gt;Node16 -->
<g id="edge73" class="edge"><title>Node33&#45;&gt;Node16</title>
<path fill="none" stroke="midnightblue" d="M917.963,-112.083C917.57,-105.006 917.006,-94.8611 916.513,-85.9865"/>
<polygon fill="midnightblue" stroke="midnightblue" points="919.994,-85.5415 915.944,-75.7511 913.004,-85.9299 919.994,-85.5415"/>
</g>
</g>
</svg>
