<?xml version="1.0" encoding="UTF-8" standalone="no"?>
<!DOCTYPE svg PUBLIC "-//W3C//DTD SVG 1.1//EN"
 "http://www.w3.org/Graphics/SVG/1.1/DTD/svg11.dtd">
<!-- Generated by graphviz version 2.38.0 (20140413.2041)
 -->
<!-- Title: TIM_PWMIConfig Pages: 1 -->
<svg width="250pt" height="142pt"
 viewBox="0.00 0.00 250.00 142.00" xmlns="http://www.w3.org/2000/svg" xmlns:xlink="http://www.w3.org/1999/xlink">
<g id="graph0" class="graph" transform="scale(1 1) rotate(0) translate(4 138)">
<title>TIM_PWMIConfig</title>
<polygon fill="white" stroke="none" points="-4,4 -4,-138 246,-138 246,4 -4,4"/>
<!-- Node1 -->
<g id="node1" class="node"><title>Node1</title>
<polygon fill="#bfbfbf" stroke="black" points="0,-57.5 0,-76.5 95,-76.5 95,-57.5 0,-57.5"/>
<text text-anchor="middle" x="47.5" y="-64.5" font-family="Helvetica,sans-Serif" font-size="10.00">TIM_PWMIConfig</text>
</g>
<!-- Node2 -->
<g id="node2" class="node"><title>Node2</title>
<g id="a_node2"><a xlink:href="a01090.html#gac8dbcb0d903cc0a3491155b5b4fbee65" target="_top" xlink:title="Configure the TI1 as Input. ">
<polygon fill="white" stroke="black" points="154,-114.5 154,-133.5 219,-133.5 219,-114.5 154,-114.5"/>
<text text-anchor="middle" x="186.5" y="-121.5" font-family="Helvetica,sans-Serif" font-size="10.00">TI1_Config</text>
</a>
</g>
</g>
<!-- Node1&#45;&gt;Node2 -->
<g id="edge1" class="edge"><title>Node1&#45;&gt;Node2</title>
<path fill="none" stroke="midnightblue" d="M67.9377,-76.5971C84.5107,-84.6236 109.065,-96.1485 131,-105 136.111,-107.062 141.541,-109.116 146.918,-111.068"/>
<polygon fill="midnightblue" stroke="midnightblue" points="145.863,-114.408 156.457,-114.455 148.205,-107.811 145.863,-114.408"/>
</g>
<!-- Node3 -->
<g id="node3" class="node"><title>Node3</title>
<g id="a_node3"><a xlink:href="a01093.html#gaf0f684dea88e222de9689d8ed0ca8805" target="_top" xlink:title="Sets the TIMx Input Capture 1 prescaler. ">
<polygon fill="white" stroke="black" points="131,-76.5 131,-95.5 242,-95.5 242,-76.5 131,-76.5"/>
<text text-anchor="middle" x="186.5" y="-83.5" font-family="Helvetica,sans-Serif" font-size="10.00">TIM_SetIC1Prescaler</text>
</a>
</g>
</g>
<!-- Node1&#45;&gt;Node3 -->
<g id="edge2" class="edge"><title>Node1&#45;&gt;Node3</title>
<path fill="none" stroke="midnightblue" d="M95.2645,-73.4856C103.51,-74.6291 112.225,-75.8377 120.857,-77.0349"/>
<polygon fill="midnightblue" stroke="midnightblue" points="120.534,-80.5236 130.92,-78.4306 121.496,-73.5899 120.534,-80.5236"/>
</g>
<!-- Node4 -->
<g id="node4" class="node"><title>Node4</title>
<g id="a_node4"><a xlink:href="a01090.html#gafed528b30af910d7e55ebd1d22a9a58f" target="_top" xlink:title="Configure the TI2 as Input. ">
<polygon fill="white" stroke="black" points="154,-38.5 154,-57.5 219,-57.5 219,-38.5 154,-38.5"/>
<text text-anchor="middle" x="186.5" y="-45.5" font-family="Helvetica,sans-Serif" font-size="10.00">TI2_Config</text>
</a>
</g>
</g>
<!-- Node1&#45;&gt;Node4 -->
<g id="edge3" class="edge"><title>Node1&#45;&gt;Node4</title>
<path fill="none" stroke="midnightblue" d="M95.2645,-60.5144C110.884,-58.3482 128.185,-55.9488 143.425,-53.8352"/>
<polygon fill="midnightblue" stroke="midnightblue" points="144.177,-57.2646 153.601,-52.4239 143.215,-50.3309 144.177,-57.2646"/>
</g>
<!-- Node5 -->
<g id="node5" class="node"><title>Node5</title>
<g id="a_node5"><a xlink:href="a01093.html#ga3cc4869b5fe73271808512c89322a325" target="_top" xlink:title="Sets the TIMx Input Capture 2 prescaler. ">
<polygon fill="white" stroke="black" points="131,-0.5 131,-19.5 242,-19.5 242,-0.5 131,-0.5"/>
<text text-anchor="middle" x="186.5" y="-7.5" font-family="Helvetica,sans-Serif" font-size="10.00">TIM_SetIC2Prescaler</text>
</a>
</g>
</g>
<!-- Node1&#45;&gt;Node5 -->
<g id="edge4" class="edge"><title>Node1&#45;&gt;Node5</title>
<path fill="none" stroke="midnightblue" d="M67.9377,-57.4029C84.5107,-49.3764 109.065,-37.8515 131,-29 136.111,-26.9377 141.541,-24.8845 146.918,-22.9317"/>
<polygon fill="midnightblue" stroke="midnightblue" points="148.205,-26.189 156.457,-19.5449 145.863,-19.5924 148.205,-26.189"/>
</g>
</g>
</svg>
