<?xml version="1.0" encoding="UTF-8" standalone="no"?>
<!DOCTYPE svg PUBLIC "-//W3C//DTD SVG 1.1//EN"
 "http://www.w3.org/Graphics/SVG/1.1/DTD/svg11.dtd">
<!-- Generated by graphviz version 2.38.0 (20140413.2041)
 -->
<!-- Title: adc_dac_dma.c Pages: 1 -->
<svg width="2027pt" height="364pt"
 viewBox="0.00 0.00 2027.01 364.00" xmlns="http://www.w3.org/2000/svg" xmlns:xlink="http://www.w3.org/1999/xlink">
<g id="graph0" class="graph" transform="scale(1 1) rotate(0) translate(4 360)">
<title>adc_dac_dma.c</title>
<polygon fill="white" stroke="none" points="-4,4 -4,-360 2023.01,-360 2023.01,4 -4,4"/>
<!-- Node1 -->
<g id="node1" class="node"><title>Node1</title>
<polygon fill="#bfbfbf" stroke="black" points="517.007,-336.5 517.007,-355.5 603.007,-355.5 603.007,-336.5 517.007,-336.5"/>
<text text-anchor="middle" x="560.007" y="-343.5" font-family="Helvetica,sans-Serif" font-size="10.00">adc_dac_dma.c</text>
</g>
<!-- Node2 -->
<g id="node2" class="node"><title>Node2</title>
<g id="a_node2"><a xlink:href="a00014.html" target="_top" xlink:title="Provides DMA related configuration and access functions for ADC and DAC. ">
<polygon fill="white" stroke="black" points="517.007,-280.5 517.007,-299.5 603.007,-299.5 603.007,-280.5 517.007,-280.5"/>
<text text-anchor="middle" x="560.007" y="-287.5" font-family="Helvetica,sans-Serif" font-size="10.00">adc_dac_dma.h</text>
</a>
</g>
</g>
<!-- Node1&#45;&gt;Node2 -->
<g id="edge1" class="edge"><title>Node1&#45;&gt;Node2</title>
<path fill="none" stroke="midnightblue" d="M560.007,-336.083C560.007,-329.006 560.007,-318.861 560.007,-309.986"/>
<polygon fill="midnightblue" stroke="midnightblue" points="563.507,-309.751 560.007,-299.751 556.507,-309.751 563.507,-309.751"/>
</g>
<!-- Node3 -->
<g id="node3" class="node"><title>Node3</title>
<g id="a_node3"><a xlink:href="a00019.html" target="_top" xlink:title="Global defines include file. ">
<polygon fill="white" stroke="black" points="566.007,-56.5 566.007,-75.5 622.007,-75.5 622.007,-56.5 566.007,-56.5"/>
<text text-anchor="middle" x="594.007" y="-63.5" font-family="Helvetica,sans-Serif" font-size="10.00">globals.h</text>
</a>
</g>
</g>
<!-- Node2&#45;&gt;Node3 -->
<g id="edge2" class="edge"><title>Node2&#45;&gt;Node3</title>
<path fill="none" stroke="midnightblue" d="M518.083,-280.456C451.807,-264.938 334.222,-228.056 374.007,-168 396.664,-133.798 421.624,-148.904 459.007,-132 497.004,-114.818 540.352,-93.6655 567.449,-80.2533"/>
<polygon fill="midnightblue" stroke="midnightblue" points="569.255,-83.2644 576.657,-75.6839 566.143,-76.9941 569.255,-83.2644"/>
</g>
<!-- Node4 -->
<g id="node4" class="node"><title>Node4</title>
<g id="a_node4"><a xlink:href="a00044.html" target="_top" xlink:title="Provides nested vector interrupt controller configuration methods. ">
<polygon fill="white" stroke="black" points="1488.01,-224.5 1488.01,-243.5 1562.01,-243.5 1562.01,-224.5 1488.01,-224.5"/>
<text text-anchor="middle" x="1525.01" y="-231.5" font-family="Helvetica,sans-Serif" font-size="10.00">nvic_config.h</text>
</a>
</g>
</g>
<!-- Node2&#45;&gt;Node4 -->
<g id="edge3" class="edge"><title>Node2&#45;&gt;Node4</title>
<path fill="none" stroke="midnightblue" d="M603.03,-286.592C761.488,-277.725 1311.92,-246.924 1477.51,-237.658"/>
<polygon fill="midnightblue" stroke="midnightblue" points="1478.07,-241.132 1487.86,-237.079 1477.68,-234.143 1478.07,-241.132"/>
</g>
<!-- Node6 -->
<g id="node6" class="node"><title>Node6</title>
<g id="a_node6"><a xlink:href="a00025.html" target="_top" xlink:title="Main header definition. ">
<polygon fill="white" stroke="black" points="537.007,-224.5 537.007,-243.5 583.007,-243.5 583.007,-224.5 537.007,-224.5"/>
<text text-anchor="middle" x="560.007" y="-231.5" font-family="Helvetica,sans-Serif" font-size="10.00">main.h</text>
</a>
</g>
</g>
<!-- Node2&#45;&gt;Node6 -->
<g id="edge5" class="edge"><title>Node2&#45;&gt;Node6</title>
<path fill="none" stroke="midnightblue" d="M554.84,-280.083C553.331,-272.927 552.9,-262.635 553.549,-253.691"/>
<polygon fill="midnightblue" stroke="midnightblue" points="557.022,-254.126 554.876,-243.751 550.083,-253.2 557.022,-254.126"/>
</g>
<!-- Node13 -->
<g id="node13" class="node"><title>Node13</title>
<polygon fill="white" stroke="#bfbfbf" points="1135.51,-0.5 1135.51,-19.5 1206.51,-19.5 1206.51,-0.5 1135.51,-0.5"/>
<text text-anchor="middle" x="1171.01" y="-7.5" font-family="Helvetica,sans-Serif" font-size="10.00">stm32f4xx.h</text>
</g>
<!-- Node2&#45;&gt;Node13 -->
<g id="edge85" class="edge"><title>Node2&#45;&gt;Node13</title>
<path fill="none" stroke="midnightblue" d="M603.056,-288.488C770.759,-286.276 1380.44,-276.149 1571.01,-244 1670.7,-227.181 1789.01,-280.104 1789.01,-179 1789.01,-179 1789.01,-179 1789.01,-121 1789.01,-90.9022 1793.4,-74.9416 1770.01,-56 1727.35,-21.4538 1349.68,-13.2936 1216.91,-11.4849"/>
<polygon fill="midnightblue" stroke="midnightblue" points="1216.72,-7.9822 1206.68,-11.3515 1216.63,-14.9816 1216.72,-7.9822"/>
</g>
<!-- Node14 -->
<g id="node14" class="node"><title>Node14</title>
<polygon fill="white" stroke="#bfbfbf" points="1020.51,-56.5 1020.51,-75.5 1109.51,-75.5 1109.51,-56.5 1020.51,-56.5"/>
<text text-anchor="middle" x="1065.01" y="-63.5" font-family="Helvetica,sans-Serif" font-size="10.00">stm32f4xx_rcc.h</text>
</g>
<!-- Node2&#45;&gt;Node14 -->
<g id="edge84" class="edge"><title>Node2&#45;&gt;Node14</title>
<path fill="none" stroke="midnightblue" d="M603.234,-288.675C729.344,-286.722 1092.49,-273.63 1165.01,-188 1197.78,-149.301 1130.07,-102.93 1090.64,-80.4871"/>
<polygon fill="midnightblue" stroke="midnightblue" points="1092.22,-77.3564 1081.77,-75.5671 1088.82,-83.478 1092.22,-77.3564"/>
</g>
<!-- Node25 -->
<g id="node25" class="node"><title>Node25</title>
<g id="a_node25"><a xlink:href="a00012.html" target="_top" xlink:title="Controlling beam and primary actuators. ">
<polygon fill="white" stroke="black" points="223.507,-168.5 223.507,-187.5 288.507,-187.5 288.507,-168.5 223.507,-168.5"/>
<text text-anchor="middle" x="256.007" y="-175.5" font-family="Helvetica,sans-Serif" font-size="10.00">actuators.h</text>
</a>
</g>
</g>
<!-- Node2&#45;&gt;Node25 -->
<g id="edge87" class="edge"><title>Node2&#45;&gt;Node25</title>
<path fill="none" stroke="midnightblue" d="M516.921,-285.896C451.138,-280.193 330.007,-266.523 294.007,-244 276.337,-232.945 263.263,-212.599 257.249,-197.604"/>
<polygon fill="midnightblue" stroke="midnightblue" points="260.512,-196.315 254.154,-187.841 253.84,-198.431 260.512,-196.315"/>
</g>
<!-- Node29 -->
<g id="node29" class="node"><title>Node29</title>
<g id="a_node29"><a xlink:href="a00048.html" target="_top" xlink:title="PID compensator implementation. ">
<polygon fill="white" stroke="black" points="67.0065,-112.5 67.0065,-131.5 105.007,-131.5 105.007,-112.5 67.0065,-112.5"/>
<text text-anchor="middle" x="86.0065" y="-119.5" font-family="Helvetica,sans-Serif" font-size="10.00">pid.h</text>
</a>
</g>
</g>
<!-- Node2&#45;&gt;Node29 -->
<g id="edge81" class="edge"><title>Node2&#45;&gt;Node29</title>
<path fill="none" stroke="midnightblue" d="M516.947,-286.224C439.026,-280.704 277.97,-266.867 227.007,-244 172.035,-219.335 122.219,-166.247 99.2991,-139.343"/>
<polygon fill="midnightblue" stroke="midnightblue" points="101.927,-137.03 92.8304,-131.598 96.5541,-141.517 101.927,-137.03"/>
</g>
<!-- Node31 -->
<g id="node31" class="node"><title>Node31</title>
<g id="a_node31"><a xlink:href="a00021.html" target="_top" xlink:title="Provides tools and helper functions. ">
<polygon fill="white" stroke="black" points="161.507,-112.5 161.507,-131.5 212.507,-131.5 212.507,-112.5 161.507,-112.5"/>
<text text-anchor="middle" x="187.007" y="-119.5" font-family="Helvetica,sans-Serif" font-size="10.00">helper.h</text>
</a>
</g>
</g>
<!-- Node2&#45;&gt;Node31 -->
<g id="edge86" class="edge"><title>Node2&#45;&gt;Node31</title>
<path fill="none" stroke="midnightblue" d="M516.622,-287.759C460.099,-284.878 359.05,-275.359 279.007,-244 237.229,-227.633 218.559,-226.19 195.007,-188 186.52,-174.24 184.993,-155.713 185.312,-141.96"/>
<polygon fill="midnightblue" stroke="midnightblue" points="188.82,-141.924 185.903,-131.739 181.832,-141.52 188.82,-141.924"/>
</g>
<!-- Node36 -->
<g id="node36" class="node"><title>Node36</title>
<polygon fill="white" stroke="#bfbfbf" points="1817.01,-224.5 1817.01,-243.5 1909.01,-243.5 1909.01,-224.5 1817.01,-224.5"/>
<text text-anchor="middle" x="1863.01" y="-231.5" font-family="Helvetica,sans-Serif" font-size="10.00">stm32f4xx_adc.h</text>
</g>
<!-- Node2&#45;&gt;Node36 -->
<g id="edge82" class="edge"><title>Node2&#45;&gt;Node36</title>
<path fill="none" stroke="midnightblue" d="M603.055,-289.195C762.479,-289.546 1334.27,-287.5 1803.01,-244 1804.27,-243.882 1805.56,-243.756 1806.85,-243.621"/>
<polygon fill="midnightblue" stroke="midnightblue" points="1807.35,-247.086 1816.88,-242.454 1806.55,-240.133 1807.35,-247.086"/>
</g>
<!-- Node37 -->
<g id="node37" class="node"><title>Node37</title>
<polygon fill="white" stroke="#bfbfbf" points="1927.01,-224.5 1927.01,-243.5 2019.01,-243.5 2019.01,-224.5 1927.01,-224.5"/>
<text text-anchor="middle" x="1973.01" y="-231.5" font-family="Helvetica,sans-Serif" font-size="10.00">stm32f4xx_dac.h</text>
</g>
<!-- Node2&#45;&gt;Node37 -->
<g id="edge83" class="edge"><title>Node2&#45;&gt;Node37</title>
<path fill="none" stroke="midnightblue" d="M603.305,-288.319C802.556,-285.069 1633.26,-270.244 1916.6,-243.976"/>
<polygon fill="midnightblue" stroke="midnightblue" points="1917.23,-247.431 1926.85,-242.996 1916.56,-240.463 1917.23,-247.431"/>
</g>
<!-- Node5 -->
<g id="node5" class="node"><title>Node5</title>
<polygon fill="white" stroke="#bfbfbf" points="1715.01,-56.5 1715.01,-75.5 1761.01,-75.5 1761.01,-56.5 1715.01,-56.5"/>
<text text-anchor="middle" x="1738.01" y="-63.5" font-family="Helvetica,sans-Serif" font-size="10.00">misc.h</text>
</g>
<!-- Node4&#45;&gt;Node5 -->
<g id="edge4" class="edge"><title>Node4&#45;&gt;Node5</title>
<path fill="none" stroke="midnightblue" d="M1562.32,-225.383C1608.78,-213.799 1686.79,-187.016 1726.01,-132 1735.48,-118.713 1738.13,-100.134 1738.62,-86.2404"/>
<polygon fill="midnightblue" stroke="midnightblue" points="1742.12,-85.891 1738.62,-75.8906 1735.12,-85.8902 1742.12,-85.891"/>
</g>
<!-- Node6&#45;&gt;Node2 -->
<g id="edge69" class="edge"><title>Node6&#45;&gt;Node2</title>
<path fill="none" stroke="midnightblue" d="M565.138,-243.751C566.664,-250.858 567.111,-261.136 566.479,-270.101"/>
<polygon fill="midnightblue" stroke="midnightblue" points="563,-269.713 565.173,-280.083 569.941,-270.622 563,-269.713"/>
</g>
<!-- Node6&#45;&gt;Node3 -->
<g id="edge11" class="edge"><title>Node6&#45;&gt;Node3</title>
<path fill="none" stroke="midnightblue" d="M554.713,-224.306C542.921,-203.727 516.977,-150.85 536.007,-112 542.529,-98.6839 555.102,-88.177 566.88,-80.6761"/>
<polygon fill="midnightblue" stroke="midnightblue" points="568.777,-83.6205 575.617,-75.5294 565.224,-77.5891 568.777,-83.6205"/>
</g>
<!-- Node7 -->
<g id="node7" class="node"><title>Node7</title>
<polygon fill="white" stroke="#bfbfbf" points="293.007,-56.5 293.007,-75.5 339.007,-75.5 339.007,-56.5 293.007,-56.5"/>
<text text-anchor="middle" x="316.007" y="-63.5" font-family="Helvetica,sans-Serif" font-size="10.00">stdio.h</text>
</g>
<!-- Node6&#45;&gt;Node7 -->
<g id="edge6" class="edge"><title>Node6&#45;&gt;Node7</title>
<path fill="none" stroke="midnightblue" d="M536.971,-233.472C498.871,-233.053 422.163,-226.99 374.007,-188 341.372,-161.577 325.939,-112.376 319.664,-85.5728"/>
<polygon fill="midnightblue" stroke="midnightblue" points="323.04,-84.6264 317.512,-75.5885 316.197,-86.1015 323.04,-84.6264"/>
</g>
<!-- Node8 -->
<g id="node8" class="node"><title>Node8</title>
<polygon fill="white" stroke="#bfbfbf" points="15.0065,-56.5 15.0065,-75.5 63.0065,-75.5 63.0065,-56.5 15.0065,-56.5"/>
<text text-anchor="middle" x="39.0065" y="-63.5" font-family="Helvetica,sans-Serif" font-size="10.00">stdlib.h</text>
</g>
<!-- Node6&#45;&gt;Node8 -->
<g id="edge7" class="edge"><title>Node6&#45;&gt;Node8</title>
<path fill="none" stroke="midnightblue" d="M536.733,-233.192C453.983,-233.503 174.895,-231.256 99.0065,-188 61.7659,-166.773 47.1159,-114.158 41.7831,-85.8094"/>
<polygon fill="midnightblue" stroke="midnightblue" points="45.18,-84.9029 40.0747,-75.6193 38.2764,-86.0604 45.18,-84.9029"/>
</g>
<!-- Node9 -->
<g id="node9" class="node"><title>Node9</title>
<polygon fill="white" stroke="#bfbfbf" points="148.507,-56.5 148.507,-75.5 197.507,-75.5 197.507,-56.5 148.507,-56.5"/>
<text text-anchor="middle" x="173.007" y="-63.5" font-family="Helvetica,sans-Serif" font-size="10.00">string.h</text>
</g>
<!-- Node6&#45;&gt;Node9 -->
<g id="edge8" class="edge"><title>Node6&#45;&gt;Node9</title>
<path fill="none" stroke="midnightblue" d="M536.573,-232.446C465.518,-230.406 253.762,-221.588 195.007,-188 167.764,-172.427 162.098,-161.713 152.007,-132 146.544,-115.916 153.768,-97.4821 161.192,-84.3629"/>
<polygon fill="midnightblue" stroke="midnightblue" points="164.169,-86.2042 166.455,-75.859 158.217,-82.5204 164.169,-86.2042"/>
</g>
<!-- Node10 -->
<g id="node10" class="node"><title>Node10</title>
<polygon fill="white" stroke="#bfbfbf" points="761.007,-168.5 761.007,-187.5 829.007,-187.5 829.007,-168.5 761.007,-168.5"/>
<text text-anchor="middle" x="795.007" y="-175.5" font-family="Helvetica,sans-Serif" font-size="10.00">stdint&#45;gcc.h</text>
</g>
<!-- Node6&#45;&gt;Node10 -->
<g id="edge9" class="edge"><title>Node6&#45;&gt;Node10</title>
<path fill="none" stroke="midnightblue" d="M583.398,-227.625C622.39,-218.665 701.283,-200.536 750.95,-189.124"/>
<polygon fill="midnightblue" stroke="midnightblue" points="751.814,-192.516 760.777,-186.866 750.247,-185.694 751.814,-192.516"/>
</g>
<!-- Node11 -->
<g id="node11" class="node"><title>Node11</title>
<g id="a_node11"><a xlink:href="a00016.html" target="_top" xlink:title="Platform/Compiler dependent definitions. ">
<polygon fill="white" stroke="black" points="1477.51,-56.5 1477.51,-75.5 1542.51,-75.5 1542.51,-56.5 1477.51,-56.5"/>
<text text-anchor="middle" x="1510.01" y="-63.5" font-family="Helvetica,sans-Serif" font-size="10.00">attributes.h</text>
</a>
</g>
</g>
<!-- Node6&#45;&gt;Node11 -->
<g id="edge10" class="edge"><title>Node6&#45;&gt;Node11</title>
<path fill="none" stroke="midnightblue" d="M583.134,-232.565C727.413,-229.609 1499.95,-210.181 1565.01,-132 1579.82,-114.203 1555.92,-93.852 1535.13,-80.7342"/>
<polygon fill="midnightblue" stroke="midnightblue" points="1536.91,-77.7212 1526.53,-75.5837 1533.31,-83.7258 1536.91,-77.7212"/>
</g>
<!-- Node12 -->
<g id="node12" class="node"><title>Node12</title>
<g id="a_node12"><a xlink:href="a00031.html" target="_top" xlink:title="Provides SysTick&#45;Timer driven delay functions. ">
<polygon fill="white" stroke="black" points="929.507,-112.5 929.507,-131.5 1036.51,-131.5 1036.51,-112.5 929.507,-112.5"/>
<text text-anchor="middle" x="983.007" y="-119.5" font-family="Helvetica,sans-Serif" font-size="10.00">md_stm32f4_delay.h</text>
</a>
</g>
</g>
<!-- Node6&#45;&gt;Node12 -->
<g id="edge12" class="edge"><title>Node6&#45;&gt;Node12</title>
<path fill="none" stroke="midnightblue" d="M583.078,-232.465C670.935,-230.192 981.096,-219.945 1010.01,-188 1022.62,-174.064 1010.33,-153.41 998.507,-139.141"/>
<polygon fill="midnightblue" stroke="midnightblue" points="1001.05,-136.732 991.793,-131.577 995.813,-141.379 1001.05,-136.732"/>
</g>
<!-- Node15 -->
<g id="node15" class="node"><title>Node15</title>
<g id="a_node15"><a xlink:href="a00033.html" target="_top" xlink:title="Definitions to extend board support for STM32F429i&#45;DISCO and equivalent boards. ">
<polygon fill="white" stroke="black" points="1449.51,-112.5 1449.51,-131.5 1556.51,-131.5 1556.51,-112.5 1449.51,-112.5"/>
<text text-anchor="middle" x="1503.01" y="-119.5" font-family="Helvetica,sans-Serif" font-size="10.00">md_stm32f4_disco.h</text>
</a>
</g>
</g>
<!-- Node6&#45;&gt;Node15 -->
<g id="edge16" class="edge"><title>Node6&#45;&gt;Node15</title>
<path fill="none" stroke="midnightblue" d="M583.081,-232.481C665.869,-230.379 955.594,-220.969 1192.01,-188 1288.58,-174.533 1400.07,-148.671 1459.83,-133.954"/>
<polygon fill="midnightblue" stroke="midnightblue" points="1460.81,-137.318 1469.67,-131.516 1459.12,-130.524 1460.81,-137.318"/>
</g>
<!-- Node17 -->
<g id="node17" class="node"><title>Node17</title>
<g id="a_node17"><a xlink:href="a00037_source.html" target="_top" xlink:title="md_stm32f4_timer.h">
<polygon fill="white" stroke="black" points="1169.01,-112.5 1169.01,-131.5 1275.01,-131.5 1275.01,-112.5 1169.01,-112.5"/>
<text text-anchor="middle" x="1222.01" y="-119.5" font-family="Helvetica,sans-Serif" font-size="10.00">md_stm32f4_timer.h</text>
</a>
</g>
</g>
<!-- Node6&#45;&gt;Node17 -->
<g id="edge21" class="edge"><title>Node6&#45;&gt;Node17</title>
<path fill="none" stroke="midnightblue" d="M583.178,-232.311C687.661,-229.066 1112.16,-214.35 1165.01,-188 1185.92,-177.573 1202.48,-155.788 1212.24,-140.316"/>
<polygon fill="midnightblue" stroke="midnightblue" points="1215.29,-142.035 1217.42,-131.657 1209.29,-138.441 1215.29,-142.035"/>
</g>
<!-- Node18 -->
<g id="node18" class="node"><title>Node18</title>
<g id="a_node18"><a xlink:href="a00059_source.html" target="_top" xlink:title="tm_stm32f4_pwm.h">
<polygon fill="white" stroke="black" points="639.507,-168.5 639.507,-187.5 742.507,-187.5 742.507,-168.5 639.507,-168.5"/>
<text text-anchor="middle" x="691.007" y="-175.5" font-family="Helvetica,sans-Serif" font-size="10.00">tm_stm32f4_pwm.h</text>
</a>
</g>
</g>
<!-- Node6&#45;&gt;Node18 -->
<g id="edge24" class="edge"><title>Node6&#45;&gt;Node18</title>
<path fill="none" stroke="midnightblue" d="M580.764,-224.444C602.323,-215.557 636.27,-201.563 660.8,-191.451"/>
<polygon fill="midnightblue" stroke="midnightblue" points="662.435,-194.563 670.346,-187.516 659.767,-188.092 662.435,-194.563"/>
</g>
<!-- Node21 -->
<g id="node21" class="node"><title>Node21</title>
<g id="a_node21"><a xlink:href="a00065_source.html" target="_top" xlink:title="tm_stm32f4_usart.h">
<polygon fill="white" stroke="black" points="1613.01,-112.5 1613.01,-131.5 1717.01,-131.5 1717.01,-112.5 1613.01,-112.5"/>
<text text-anchor="middle" x="1665.01" y="-119.5" font-family="Helvetica,sans-Serif" font-size="10.00">tm_stm32f4_usart.h</text>
</a>
</g>
</g>
<!-- Node6&#45;&gt;Node21 -->
<g id="edge35" class="edge"><title>Node6&#45;&gt;Node21</title>
<path fill="none" stroke="midnightblue" d="M583.158,-232.99C727.684,-232.794 1502.99,-229.793 1599.01,-188 1622.18,-177.913 1641.78,-155.715 1653.45,-140.076"/>
<polygon fill="midnightblue" stroke="midnightblue" points="1656.42,-141.942 1659.38,-131.768 1650.72,-137.876 1656.42,-141.942"/>
</g>
<!-- Node23 -->
<g id="node23" class="node"><title>Node23</title>
<polygon fill="white" stroke="#bfbfbf" points="847.007,-168.5 847.007,-187.5 915.007,-187.5 915.007,-168.5 847.007,-168.5"/>
<text text-anchor="middle" x="881.007" y="-175.5" font-family="Helvetica,sans-Serif" font-size="10.00">core_cm4.h</text>
</g>
<!-- Node6&#45;&gt;Node23 -->
<g id="edge43" class="edge"><title>Node6&#45;&gt;Node23</title>
<path fill="none" stroke="midnightblue" d="M583.134,-229.623C629.343,-222.798 736.576,-206.568 836.782,-188.16"/>
<polygon fill="midnightblue" stroke="midnightblue" points="837.57,-191.574 846.767,-186.314 836.297,-184.69 837.57,-191.574"/>
</g>
<!-- Node24 -->
<g id="node24" class="node"><title>Node24</title>
<polygon fill="white" stroke="#bfbfbf" points="933.007,-168.5 933.007,-187.5 1001.01,-187.5 1001.01,-168.5 933.007,-168.5"/>
<text text-anchor="middle" x="967.007" y="-175.5" font-family="Helvetica,sans-Serif" font-size="10.00">arm_math.h</text>
</g>
<!-- Node6&#45;&gt;Node24 -->
<g id="edge44" class="edge"><title>Node6&#45;&gt;Node24</title>
<path fill="none" stroke="midnightblue" d="M583.1,-230.82C639.397,-225.362 788.352,-210.065 922.728,-188.092"/>
<polygon fill="midnightblue" stroke="midnightblue" points="923.492,-191.514 932.787,-186.43 922.351,-184.607 923.492,-191.514"/>
</g>
<!-- Node6&#45;&gt;Node25 -->
<g id="edge45" class="edge"><title>Node6&#45;&gt;Node25</title>
<path fill="none" stroke="midnightblue" d="M536.908,-228.897C486.139,-219.879 364.179,-198.215 298.919,-186.623"/>
<polygon fill="midnightblue" stroke="midnightblue" points="299.41,-183.155 288.952,-184.852 298.186,-190.047 299.41,-183.155"/>
</g>
<!-- Node26 -->
<g id="node26" class="node"><title>Node26</title>
<g id="a_node26"><a xlink:href="a00023.html" target="_top" xlink:title="Analog processing related callback handler definition. ">
<polygon fill="white" stroke="black" points="545.007,-112.5 545.007,-131.5 627.007,-131.5 627.007,-112.5 545.007,-112.5"/>
<text text-anchor="middle" x="586.007" y="-119.5" font-family="Helvetica,sans-Serif" font-size="10.00">irq_callbacks.h</text>
</a>
</g>
</g>
<!-- Node6&#45;&gt;Node26 -->
<g id="edge75" class="edge"><title>Node6&#45;&gt;Node26</title>
<path fill="none" stroke="midnightblue" d="M558.204,-224.368C559.055,-206.537 568.358,-165.295 576.51,-141.272"/>
<polygon fill="midnightblue" stroke="midnightblue" points="579.906,-142.184 580.14,-131.591 573.352,-139.726 579.906,-142.184"/>
</g>
<!-- Node27 -->
<g id="node27" class="node"><title>Node27</title>
<g id="a_node27"><a xlink:href="a00042_source.html" target="_top" xlink:title="mdb_gpio.h">
<polygon fill="white" stroke="black" points="383.507,-112.5 383.507,-131.5 450.507,-131.5 450.507,-112.5 383.507,-112.5"/>
<text text-anchor="middle" x="417.007" y="-119.5" font-family="Helvetica,sans-Serif" font-size="10.00">mdb_gpio.h</text>
</a>
</g>
</g>
<!-- Node6&#45;&gt;Node27 -->
<g id="edge76" class="edge"><title>Node6&#45;&gt;Node27</title>
<path fill="none" stroke="midnightblue" d="M548.786,-224.368C524.456,-205.653 466.603,-161.151 436.289,-137.832"/>
<polygon fill="midnightblue" stroke="midnightblue" points="438.236,-134.914 428.175,-131.591 433.968,-140.463 438.236,-134.914"/>
</g>
<!-- Node6&#45;&gt;Node29 -->
<g id="edge77" class="edge"><title>Node6&#45;&gt;Node29</title>
<path fill="none" stroke="midnightblue" d="M536.935,-233.479C456.233,-234.729 187.78,-235.187 119.007,-188 103.387,-177.283 94.7517,-156.879 90.2727,-141.779"/>
<polygon fill="midnightblue" stroke="midnightblue" points="93.6158,-140.728 87.7054,-131.935 86.8423,-142.494 93.6158,-140.728"/>
</g>
<!-- Node6&#45;&gt;Node31 -->
<g id="edge80" class="edge"><title>Node6&#45;&gt;Node31</title>
<path fill="none" stroke="midnightblue" d="M536.888,-232.923C467.858,-232.25 264.877,-226.931 214.007,-188 199.623,-176.993 192.844,-156.942 189.686,-142.01"/>
<polygon fill="midnightblue" stroke="midnightblue" points="193.076,-141.074 187.91,-131.824 186.18,-142.276 193.076,-141.074"/>
</g>
<!-- Node33 -->
<g id="node33" class="node"><title>Node33</title>
<g id="a_node33"><a xlink:href="a00046.html" target="_top" xlink:title="Provides initialization methods to configure analog subsystems and DMA controller. ">
<polygon fill="white" stroke="black" points="1057.51,-168.5 1057.51,-187.5 1156.51,-187.5 1156.51,-168.5 1057.51,-168.5"/>
<text text-anchor="middle" x="1107.01" y="-175.5" font-family="Helvetica,sans-Serif" font-size="10.00">periph2dma_conf.h</text>
</a>
</g>
</g>
<!-- Node6&#45;&gt;Node33 -->
<g id="edge70" class="edge"><title>Node6&#45;&gt;Node33</title>
<path fill="none" stroke="midnightblue" d="M583.172,-231.229C652.837,-225.82 866.508,-208.621 1043.01,-188 1044.47,-187.829 1045.95,-187.652 1047.44,-187.47"/>
<polygon fill="midnightblue" stroke="midnightblue" points="1047.94,-190.935 1057.42,-186.206 1047.06,-183.991 1047.94,-190.935"/>
</g>
<!-- Node35 -->
<g id="node35" class="node"><title>Node35</title>
<g id="a_node35"><a xlink:href="a00051.html" target="_top" xlink:title="Provides DAC driven signal generator functions. ">
<polygon fill="white" stroke="black" points="383.007,-168.5 383.007,-187.5 451.007,-187.5 451.007,-168.5 383.007,-168.5"/>
<text text-anchor="middle" x="417.007" y="-175.5" font-family="Helvetica,sans-Serif" font-size="10.00">signalGen.h</text>
</a>
</g>
</g>
<!-- Node6&#45;&gt;Node35 -->
<g id="edge78" class="edge"><title>Node6&#45;&gt;Node35</title>
<path fill="none" stroke="midnightblue" d="M537.348,-224.444C513.605,-215.478 476.097,-201.314 449.268,-191.183"/>
<polygon fill="midnightblue" stroke="midnightblue" points="450.151,-187.775 439.559,-187.516 447.678,-194.324 450.151,-187.775"/>
</g>
<!-- Node12&#45;&gt;Node3 -->
<g id="edge15" class="edge"><title>Node12&#45;&gt;Node3</title>
<path fill="none" stroke="midnightblue" d="M929.326,-113.548C849.631,-102.485 701.951,-81.9846 632.28,-72.313"/>
<polygon fill="midnightblue" stroke="midnightblue" points="632.573,-68.8202 622.187,-70.9119 631.61,-75.7537 632.573,-68.8202"/>
</g>
<!-- Node12&#45;&gt;Node13 -->
<g id="edge13" class="edge"><title>Node12&#45;&gt;Node13</title>
<path fill="none" stroke="midnightblue" d="M984.285,-112.455C986.822,-98.5459 993.811,-71.0544 1011.01,-56 1042.72,-28.2338 1090.34,-17.5032 1125.39,-13.4073"/>
<polygon fill="midnightblue" stroke="midnightblue" points="1125.78,-16.8853 1135.37,-12.3784 1125.06,-9.92217 1125.78,-16.8853"/>
</g>
<!-- Node12&#45;&gt;Node14 -->
<g id="edge14" class="edge"><title>Node12&#45;&gt;Node14</title>
<path fill="none" stroke="midnightblue" d="M996.181,-112.324C1008.85,-103.979 1028.24,-91.2122 1043.21,-81.3524"/>
<polygon fill="midnightblue" stroke="midnightblue" points="1045.44,-84.0776 1051.86,-75.6545 1041.59,-78.2313 1045.44,-84.0776"/>
</g>
<!-- Node15&#45;&gt;Node3 -->
<g id="edge17" class="edge"><title>Node15&#45;&gt;Node3</title>
<path fill="none" stroke="midnightblue" d="M1449.43,-112.993C1446.25,-112.627 1443.09,-112.291 1440.01,-112 1099.38,-79.7698 1012.02,-103.878 671.007,-76 658.326,-74.9634 644.511,-73.4651 632.128,-71.9875"/>
<polygon fill="midnightblue" stroke="midnightblue" points="632.472,-68.5035 622.12,-70.7618 631.621,-75.4516 632.472,-68.5035"/>
</g>
<!-- Node15&#45;&gt;Node13 -->
<g id="edge18" class="edge"><title>Node15&#45;&gt;Node13</title>
<path fill="none" stroke="midnightblue" d="M1495.99,-112.156C1484.09,-97.8173 1458.43,-69.7221 1430.01,-56 1360.84,-22.6105 1270.69,-13.6733 1217.03,-11.4688"/>
<polygon fill="midnightblue" stroke="midnightblue" points="1216.92,-7.96285 1206.8,-11.1124 1216.68,-14.9586 1216.92,-7.96285"/>
</g>
<!-- Node16 -->
<g id="node16" class="node"><title>Node16</title>
<g id="a_node16"><a xlink:href="a00035.html" target="_top" xlink:title="Provides generic methods for GPIO module initialization and manipulation. ">
<polygon fill="white" stroke="black" points="1319.01,-56.5 1319.01,-75.5 1421.01,-75.5 1421.01,-56.5 1319.01,-56.5"/>
<text text-anchor="middle" x="1370.01" y="-63.5" font-family="Helvetica,sans-Serif" font-size="10.00">md_stm32f4_gpio.h</text>
</a>
</g>
</g>
<!-- Node15&#45;&gt;Node16 -->
<g id="edge19" class="edge"><title>Node15&#45;&gt;Node16</title>
<path fill="none" stroke="midnightblue" d="M1481.93,-112.444C1459.95,-103.517 1425.27,-89.4387 1400.34,-79.3168"/>
<polygon fill="midnightblue" stroke="midnightblue" points="1401.56,-76.0355 1390.98,-75.5164 1398.93,-82.5213 1401.56,-76.0355"/>
</g>
<!-- Node16&#45;&gt;Node13 -->
<g id="edge20" class="edge"><title>Node16&#45;&gt;Node13</title>
<path fill="none" stroke="midnightblue" d="M1338.47,-56.4435C1304.41,-47.2011 1250,-32.4356 1212.49,-22.2572"/>
<polygon fill="midnightblue" stroke="midnightblue" points="1212.96,-18.7575 1202.39,-19.5164 1211.13,-25.5132 1212.96,-18.7575"/>
</g>
<!-- Node17&#45;&gt;Node13 -->
<g id="edge22" class="edge"><title>Node17&#45;&gt;Node13</title>
<path fill="none" stroke="midnightblue" d="M1218,-112.368C1209.7,-94.4563 1190.44,-52.9233 1179.33,-28.9482"/>
<polygon fill="midnightblue" stroke="midnightblue" points="1182.37,-27.1916 1174.99,-19.5914 1176.02,-30.136 1182.37,-27.1916"/>
</g>
<!-- Node17&#45;&gt;Node14 -->
<g id="edge23" class="edge"><title>Node17&#45;&gt;Node14</title>
<path fill="none" stroke="midnightblue" d="M1197.13,-112.444C1170.72,-103.359 1128.79,-88.9388 1099.26,-78.7831"/>
<polygon fill="midnightblue" stroke="midnightblue" points="1100.36,-75.4593 1089.77,-75.5164 1098.09,-82.0787 1100.36,-75.4593"/>
</g>
<!-- Node18&#45;&gt;Node3 -->
<g id="edge34" class="edge"><title>Node18&#45;&gt;Node3</title>
<path fill="none" stroke="midnightblue" d="M684.016,-168.474C673.693,-155.944 653.683,-131.888 636.007,-112 627.291,-102.194 617.276,-91.4442 609.212,-82.911"/>
<polygon fill="midnightblue" stroke="midnightblue" points="611.609,-80.3525 602.184,-75.5121 606.533,-85.1732 611.609,-80.3525"/>
</g>
<!-- Node18&#45;&gt;Node13 -->
<g id="edge25" class="edge"><title>Node18&#45;&gt;Node13</title>
<path fill="none" stroke="midnightblue" d="M735.638,-168.461C783.51,-158.953 856.141,-143.423 882.007,-132 936.699,-107.846 938.512,-80.5976 993.007,-56 1035.89,-36.6416 1088.51,-24.6456 1125.37,-17.9582"/>
<polygon fill="midnightblue" stroke="midnightblue" points="1126.08,-21.3866 1135.33,-16.211 1124.87,-14.4919 1126.08,-21.3866"/>
</g>
<!-- Node18&#45;&gt;Node14 -->
<g id="edge26" class="edge"><title>Node18&#45;&gt;Node14</title>
<path fill="none" stroke="midnightblue" d="M742.579,-169.301C745.768,-168.853 748.93,-168.416 752.007,-168 817.016,-159.212 994.717,-174.124 1045.01,-132 1058.42,-120.763 1063.01,-100.749 1064.49,-85.8879"/>
<polygon fill="midnightblue" stroke="midnightblue" points="1067.99,-85.9553 1065.11,-75.7589 1061.01,-85.5247 1067.99,-85.9553"/>
</g>
<!-- Node18&#45;&gt;Node16 -->
<g id="edge27" class="edge"><title>Node18&#45;&gt;Node16</title>
<path fill="none" stroke="midnightblue" d="M742.555,-169.103C745.75,-168.704 748.92,-168.332 752.007,-168 869.821,-155.343 1173,-173.452 1284.01,-132 1312.08,-121.518 1338.67,-98.726 1354.66,-83.1196"/>
<polygon fill="midnightblue" stroke="midnightblue" points="1357.44,-85.2807 1362,-75.7167 1352.48,-80.3503 1357.44,-85.2807"/>
</g>
<!-- Node19 -->
<g id="node19" class="node"><title>Node19</title>
<polygon fill="white" stroke="#bfbfbf" points="680.507,-56.5 680.507,-75.5 769.507,-75.5 769.507,-56.5 680.507,-56.5"/>
<text text-anchor="middle" x="725.007" y="-63.5" font-family="Helvetica,sans-Serif" font-size="10.00">stm32f4xx_tim.h</text>
</g>
<!-- Node18&#45;&gt;Node19 -->
<g id="edge28" class="edge"><title>Node18&#45;&gt;Node19</title>
<path fill="none" stroke="midnightblue" d="M693.674,-168.368C699.186,-150.537 711.933,-109.295 719.359,-85.2717"/>
<polygon fill="midnightblue" stroke="midnightblue" points="722.742,-86.179 722.351,-75.5914 716.054,-84.1119 722.742,-86.179"/>
</g>
<!-- Node20 -->
<g id="node20" class="node"><title>Node20</title>
<g id="a_node20"><a xlink:href="a00063_source.html" target="_top" xlink:title="tm_stm32f4_timer_properties.h">
<polygon fill="white" stroke="black" points="721.007,-112.5 721.007,-131.5 873.007,-131.5 873.007,-112.5 721.007,-112.5"/>
<text text-anchor="middle" x="797.007" y="-119.5" font-family="Helvetica,sans-Serif" font-size="10.00">tm_stm32f4_timer_properties.h</text>
</a>
</g>
</g>
<!-- Node18&#45;&gt;Node20 -->
<g id="edge29" class="edge"><title>Node18&#45;&gt;Node20</title>
<path fill="none" stroke="midnightblue" d="M708.037,-168.324C725.036,-159.664 751.383,-146.242 770.999,-136.249"/>
<polygon fill="midnightblue" stroke="midnightblue" points="772.696,-139.312 780.018,-131.655 769.519,-133.075 772.696,-139.312"/>
</g>
<!-- Node20&#45;&gt;Node3 -->
<g id="edge33" class="edge"><title>Node20&#45;&gt;Node3</title>
<path fill="none" stroke="midnightblue" d="M764.841,-112.444C728.716,-102.834 670.146,-87.2539 631.85,-77.0667"/>
<polygon fill="midnightblue" stroke="midnightblue" points="632.663,-73.6614 622.1,-74.473 630.864,-80.4262 632.663,-73.6614"/>
</g>
<!-- Node20&#45;&gt;Node13 -->
<g id="edge30" class="edge"><title>Node20&#45;&gt;Node13</title>
<path fill="none" stroke="midnightblue" d="M806.081,-112.145C821.373,-97.7906 853.867,-69.6732 887.007,-56 966.507,-23.1985 1067.62,-14.1658 1125.26,-11.766"/>
<polygon fill="midnightblue" stroke="midnightblue" points="1125.63,-15.2547 1135.5,-11.3908 1125.38,-8.25937 1125.63,-15.2547"/>
</g>
<!-- Node20&#45;&gt;Node14 -->
<g id="edge31" class="edge"><title>Node20&#45;&gt;Node14</title>
<path fill="none" stroke="midnightblue" d="M839.472,-112.444C886.42,-102.984 962.083,-87.7384 1012.66,-77.5472"/>
<polygon fill="midnightblue" stroke="midnightblue" points="1013.63,-80.9228 1022.74,-75.5164 1012.25,-74.0607 1013.63,-80.9228"/>
</g>
<!-- Node20&#45;&gt;Node19 -->
<g id="edge32" class="edge"><title>Node20&#45;&gt;Node19</title>
<path fill="none" stroke="midnightblue" d="M785.438,-112.324C774.586,-104.185 758.126,-91.8395 745.123,-82.0874"/>
<polygon fill="midnightblue" stroke="midnightblue" points="746.885,-79.0339 736.785,-75.8339 742.685,-84.6339 746.885,-79.0339"/>
</g>
<!-- Node21&#45;&gt;Node3 -->
<g id="edge42" class="edge"><title>Node21&#45;&gt;Node3</title>
<path fill="none" stroke="midnightblue" d="M1612.88,-115.817C1597.48,-114.418 1580.57,-113.013 1565.01,-112 1168.19,-86.1696 1067.44,-107.105 671.007,-76 658.322,-75.0048 644.507,-73.5174 632.124,-72.037"/>
<polygon fill="midnightblue" stroke="midnightblue" points="632.469,-68.5531 622.117,-70.806 631.615,-75.5007 632.469,-68.5531"/>
</g>
<!-- Node21&#45;&gt;Node5 -->
<g id="edge36" class="edge"><title>Node21&#45;&gt;Node5</title>
<path fill="none" stroke="midnightblue" d="M1676.74,-112.324C1687.84,-104.107 1704.75,-91.6017 1717.99,-81.8069"/>
<polygon fill="midnightblue" stroke="midnightblue" points="1720.11,-84.5948 1726.06,-75.8339 1715.94,-78.9671 1720.11,-84.5948"/>
</g>
<!-- Node21&#45;&gt;Node11 -->
<g id="edge41" class="edge"><title>Node21&#45;&gt;Node11</title>
<path fill="none" stroke="midnightblue" d="M1640.45,-112.444C1614.48,-103.399 1573.34,-89.064 1544.21,-78.9158"/>
<polygon fill="midnightblue" stroke="midnightblue" points="1545.05,-75.5013 1534.45,-75.5164 1542.74,-82.1116 1545.05,-75.5013"/>
</g>
<!-- Node21&#45;&gt;Node13 -->
<g id="edge37" class="edge"><title>Node21&#45;&gt;Node13</title>
<path fill="none" stroke="midnightblue" d="M1650.47,-112.279C1622.18,-95.3691 1561.56,-59.4731 1551.01,-56 1434.93,-17.7859 1289.46,-11.2554 1216.78,-10.6063"/>
<polygon fill="midnightblue" stroke="midnightblue" points="1216.61,-7.1054 1206.59,-10.5501 1216.57,-14.1053 1216.61,-7.1054"/>
</g>
<!-- Node21&#45;&gt;Node14 -->
<g id="edge38" class="edge"><title>Node21&#45;&gt;Node14</title>
<path fill="none" stroke="midnightblue" d="M1612.81,-116.302C1500.03,-106.152 1234.54,-82.258 1119.62,-71.915"/>
<polygon fill="midnightblue" stroke="midnightblue" points="1119.91,-68.4269 1109.63,-71.0163 1119.28,-75.3987 1119.91,-68.4269"/>
</g>
<!-- Node21&#45;&gt;Node16 -->
<g id="edge39" class="edge"><title>Node21&#45;&gt;Node16</title>
<path fill="none" stroke="midnightblue" d="M1618.26,-112.444C1566.26,-102.925 1482.26,-87.5472 1426.58,-77.3563"/>
<polygon fill="midnightblue" stroke="midnightblue" points="1427,-73.8743 1416.53,-75.5164 1425.74,-80.7599 1427,-73.8743"/>
</g>
<!-- Node22 -->
<g id="node22" class="node"><title>Node22</title>
<polygon fill="white" stroke="#bfbfbf" points="1599.01,-56.5 1599.01,-75.5 1697.01,-75.5 1697.01,-56.5 1599.01,-56.5"/>
<text text-anchor="middle" x="1648.01" y="-63.5" font-family="Helvetica,sans-Serif" font-size="10.00">stm32f4xx_usart.h</text>
</g>
<!-- Node21&#45;&gt;Node22 -->
<g id="edge40" class="edge"><title>Node21&#45;&gt;Node22</title>
<path fill="none" stroke="midnightblue" d="M1662.2,-112.083C1659.92,-104.849 1656.64,-94.4087 1653.8,-85.3968"/>
<polygon fill="midnightblue" stroke="midnightblue" points="1657.1,-84.2385 1650.76,-75.7511 1650.43,-86.3406 1657.1,-84.2385"/>
</g>
<!-- Node25&#45;&gt;Node2 -->
<g id="edge47" class="edge"><title>Node25&#45;&gt;Node2</title>
<path fill="none" stroke="midnightblue" d="M265.25,-187.841C275.187,-202.174 290.048,-230.262 312.007,-244 344.108,-264.083 443.898,-277.128 506.763,-283.762"/>
<polygon fill="midnightblue" stroke="midnightblue" points="506.594,-287.263 516.901,-284.81 507.314,-280.3 506.594,-287.263"/>
</g>
<!-- Node25&#45;&gt;Node3 -->
<g id="edge48" class="edge"><title>Node25&#45;&gt;Node3</title>
<path fill="none" stroke="midnightblue" d="M268.492,-168.448C289.388,-154.529 333.181,-127.024 374.007,-112 382.523,-108.866 495.069,-86.4784 555.785,-74.5078"/>
<polygon fill="midnightblue" stroke="midnightblue" points="556.637,-77.9073 565.772,-72.5406 555.284,-71.0393 556.637,-77.9073"/>
</g>
<!-- Node25&#45;&gt;Node7 -->
<g id="edge46" class="edge"><title>Node25&#45;&gt;Node7</title>
<path fill="none" stroke="midnightblue" d="M255.369,-168.426C254.788,-155.414 255.199,-130.268 265.007,-112 271.552,-99.8082 282.792,-89.3487 293.056,-81.5903"/>
<polygon fill="midnightblue" stroke="midnightblue" points="295.19,-84.3678 301.325,-75.7298 291.143,-78.6568 295.19,-84.3678"/>
</g>
<!-- Node25&#45;&gt;Node26 -->
<g id="edge49" class="edge"><title>Node25&#45;&gt;Node26</title>
<path fill="none" stroke="midnightblue" d="M288.551,-171.674C346.01,-162.272 465.84,-142.664 534.582,-131.415"/>
<polygon fill="midnightblue" stroke="midnightblue" points="535.445,-134.82 544.749,-129.751 534.315,-127.912 535.445,-134.82"/>
</g>
<!-- Node25&#45;&gt;Node27 -->
<g id="edge53" class="edge"><title>Node25&#45;&gt;Node27</title>
<path fill="none" stroke="midnightblue" d="M281.517,-168.444C308.603,-159.359 351.597,-144.939 381.875,-134.783"/>
<polygon fill="midnightblue" stroke="midnightblue" points="383.247,-138.015 391.615,-131.516 381.021,-131.378 383.247,-138.015"/>
</g>
<!-- Node25&#45;&gt;Node29 -->
<g id="edge57" class="edge"><title>Node25&#45;&gt;Node29</title>
<path fill="none" stroke="midnightblue" d="M229.07,-168.444C197.981,-158.568 147.041,-142.387 115.077,-132.234"/>
<polygon fill="midnightblue" stroke="midnightblue" points="116.005,-128.857 105.415,-129.165 113.886,-135.528 116.005,-128.857"/>
</g>
<!-- Node25&#45;&gt;Node31 -->
<g id="edge64" class="edge"><title>Node25&#45;&gt;Node31</title>
<path fill="none" stroke="midnightblue" d="M244.92,-168.324C234.521,-160.185 218.746,-147.839 206.285,-138.087"/>
<polygon fill="midnightblue" stroke="midnightblue" points="208.326,-135.241 198.294,-131.834 204.012,-140.753 208.326,-135.241"/>
</g>
<!-- Node26&#45;&gt;Node2 -->
<g id="edge52" class="edge"><title>Node26&#45;&gt;Node2</title>
<path fill="none" stroke="midnightblue" d="M588.611,-131.543C594.328,-151.794 606.364,-204.013 592.007,-244 588.295,-254.336 581.497,-264.433 575.118,-272.435"/>
<polygon fill="midnightblue" stroke="midnightblue" points="572.325,-270.317 568.527,-280.208 577.664,-274.845 572.325,-270.317"/>
</g>
<!-- Node26&#45;&gt;Node3 -->
<g id="edge51" class="edge"><title>Node26&#45;&gt;Node3</title>
<path fill="none" stroke="midnightblue" d="M587.328,-112.083C588.388,-104.927 589.912,-94.6353 591.237,-85.6911"/>
<polygon fill="midnightblue" stroke="midnightblue" points="594.707,-86.1561 592.71,-75.7511 587.782,-85.1302 594.707,-86.1561"/>
</g>
<!-- Node26&#45;&gt;Node6 -->
<g id="edge50" class="edge"><title>Node26&#45;&gt;Node6</title>
<path fill="none" stroke="midnightblue" d="M587.811,-131.591C586.969,-149.468 577.591,-190.997 569.411,-214.998"/>
<polygon fill="midnightblue" stroke="midnightblue" points="566.131,-213.776 565.89,-224.368 572.684,-216.239 566.131,-213.776"/>
</g>
<!-- Node27&#45;&gt;Node13 -->
<g id="edge54" class="edge"><title>Node27&#45;&gt;Node13</title>
<path fill="none" stroke="midnightblue" d="M416.658,-112.138C416.631,-97.7748 418.917,-69.6444 436.007,-56 489.728,-13.1077 972.024,-10.5244 1124.81,-10.7941"/>
<polygon fill="midnightblue" stroke="midnightblue" points="1125.22,-14.295 1135.23,-10.818 1125.24,-7.29502 1125.22,-14.295"/>
</g>
<!-- Node27&#45;&gt;Node14 -->
<g id="edge56" class="edge"><title>Node27&#45;&gt;Node14</title>
<path fill="none" stroke="midnightblue" d="M450.933,-118.173C556.535,-109.373 880.071,-82.4113 1010.08,-71.5775"/>
<polygon fill="midnightblue" stroke="midnightblue" points="1010.53,-75.052 1020.2,-70.7335 1009.95,-68.0762 1010.53,-75.052"/>
</g>
<!-- Node28 -->
<g id="node28" class="node"><title>Node28</title>
<polygon fill="white" stroke="#bfbfbf" points="445.007,-56.5 445.007,-75.5 539.007,-75.5 539.007,-56.5 445.007,-56.5"/>
<text text-anchor="middle" x="492.007" y="-63.5" font-family="Helvetica,sans-Serif" font-size="10.00">stm32f4xx_gpio.h</text>
</g>
<!-- Node27&#45;&gt;Node28 -->
<g id="edge55" class="edge"><title>Node27&#45;&gt;Node28</title>
<path fill="none" stroke="midnightblue" d="M429.057,-112.324C440.47,-104.107 457.837,-91.6017 471.441,-81.8069"/>
<polygon fill="midnightblue" stroke="midnightblue" points="473.667,-84.5174 479.737,-75.8339 469.577,-78.8366 473.667,-84.5174"/>
</g>
<!-- Node29&#45;&gt;Node3 -->
<g id="edge63" class="edge"><title>Node29&#45;&gt;Node3</title>
<path fill="none" stroke="midnightblue" d="M105.04,-118.174C118.21,-116.276 136.15,-113.801 152.007,-112 327.603,-92.056 373.058,-101 548.007,-76 550.544,-75.6374 553.154,-75.2278 555.779,-74.7882"/>
<polygon fill="midnightblue" stroke="midnightblue" points="556.639,-78.1898 565.865,-72.9802 555.404,-71.2996 556.639,-78.1898"/>
</g>
<!-- Node29&#45;&gt;Node7 -->
<g id="edge59" class="edge"><title>Node29&#45;&gt;Node7</title>
<path fill="none" stroke="midnightblue" d="M105.087,-116.919C140.338,-109.317 218.007,-92.2799 283.007,-76 283.107,-75.9748 283.208,-75.9494 283.309,-75.924"/>
<polygon fill="midnightblue" stroke="midnightblue" points="284.161,-79.3191 292.96,-73.417 282.401,-72.5439 284.161,-79.3191"/>
</g>
<!-- Node29&#45;&gt;Node8 -->
<g id="edge58" class="edge"><title>Node29&#45;&gt;Node8</title>
<path fill="none" stroke="midnightblue" d="M78.2454,-112.083C71.4697,-104.298 61.4633,-92.8015 53.2514,-83.3665"/>
<polygon fill="midnightblue" stroke="midnightblue" points="55.8285,-80.9963 46.6232,-75.7511 50.5484,-85.592 55.8285,-80.9963"/>
</g>
<!-- Node29&#45;&gt;Node9 -->
<g id="edge60" class="edge"><title>Node29&#45;&gt;Node9</title>
<path fill="none" stroke="midnightblue" d="M99.9846,-112.324C113.556,-103.9 134.387,-90.9709 150.331,-81.0741"/>
<polygon fill="midnightblue" stroke="midnightblue" points="152.413,-83.9019 159.063,-75.6545 148.721,-77.9544 152.413,-83.9019"/>
</g>
<!-- Node29&#45;&gt;Node13 -->
<g id="edge62" class="edge"><title>Node29&#45;&gt;Node13</title>
<path fill="none" stroke="midnightblue" d="M66.6475,-114.635C36.1861,-103.683 -17.1953,-80.1153 6.00651,-56 45.4457,-15.008 914.182,-11.3089 1125.15,-11.0158"/>
<polygon fill="midnightblue" stroke="midnightblue" points="1125.27,-14.5158 1135.27,-11.0037 1125.26,-7.51576 1125.27,-14.5158"/>
</g>
<!-- Node30 -->
<g id="node30" class="node"><title>Node30</title>
<polygon fill="white" stroke="#bfbfbf" points="81.5065,-56.5 81.5065,-75.5 130.507,-75.5 130.507,-56.5 81.5065,-56.5"/>
<text text-anchor="middle" x="106.007" y="-63.5" font-family="Helvetica,sans-Serif" font-size="10.00">stdint.h</text>
</g>
<!-- Node29&#45;&gt;Node30 -->
<g id="edge61" class="edge"><title>Node29&#45;&gt;Node30</title>
<path fill="none" stroke="midnightblue" d="M89.3091,-112.083C91.9885,-104.849 95.8551,-94.4087 99.1929,-85.3968"/>
<polygon fill="midnightblue" stroke="midnightblue" points="102.574,-86.3442 102.765,-75.7511 96.01,-83.9129 102.574,-86.3442"/>
</g>
<!-- Node31&#45;&gt;Node7 -->
<g id="edge65" class="edge"><title>Node31&#45;&gt;Node7</title>
<path fill="none" stroke="midnightblue" d="M207.447,-112.444C228.677,-103.557 262.106,-89.5632 286.261,-79.4514"/>
<polygon fill="midnightblue" stroke="midnightblue" points="287.789,-82.6064 295.662,-75.5164 285.086,-76.1493 287.789,-82.6064"/>
</g>
<!-- Node31&#45;&gt;Node8 -->
<g id="edge67" class="edge"><title>Node31&#45;&gt;Node8</title>
<path fill="none" stroke="midnightblue" d="M163.555,-112.444C138.874,-103.438 99.8212,-89.1891 72.0298,-79.049"/>
<polygon fill="midnightblue" stroke="midnightblue" points="72.9418,-75.6561 62.3478,-75.5164 70.5424,-82.2321 72.9418,-75.6561"/>
</g>
<!-- Node31&#45;&gt;Node9 -->
<g id="edge66" class="edge"><title>Node31&#45;&gt;Node9</title>
<path fill="none" stroke="midnightblue" d="M184.695,-112.083C182.84,-104.927 180.171,-94.6353 177.852,-85.6911"/>
<polygon fill="midnightblue" stroke="midnightblue" points="181.173,-84.5527 175.275,-75.7511 174.397,-86.3094 181.173,-84.5527"/>
</g>
<!-- Node32 -->
<g id="node32" class="node"><title>Node32</title>
<polygon fill="white" stroke="#bfbfbf" points="215.507,-56.5 215.507,-75.5 274.507,-75.5 274.507,-56.5 215.507,-56.5"/>
<text text-anchor="middle" x="245.007" y="-63.5" font-family="Helvetica,sans-Serif" font-size="10.00">inttypes.h</text>
</g>
<!-- Node31&#45;&gt;Node32 -->
<g id="edge68" class="edge"><title>Node31&#45;&gt;Node32</title>
<path fill="none" stroke="midnightblue" d="M196.325,-112.324C204.899,-104.341 217.819,-92.3128 228.194,-82.6529"/>
<polygon fill="midnightblue" stroke="midnightblue" points="230.584,-85.2098 235.518,-75.8339 225.814,-80.0865 230.584,-85.2098"/>
</g>
<!-- Node33&#45;&gt;Node13 -->
<g id="edge71" class="edge"><title>Node33&#45;&gt;Node13</title>
<path fill="none" stroke="midnightblue" d="M1110.45,-168.075C1120.57,-141.832 1150.36,-64.5453 1164.02,-29.1165"/>
<polygon fill="midnightblue" stroke="midnightblue" points="1167.37,-30.1578 1167.7,-19.5681 1160.84,-27.6396 1167.37,-30.1578"/>
</g>
<!-- Node34 -->
<g id="node34" class="node"><title>Node34</title>
<g id="a_node34"><a xlink:href="a00027.html" target="_top" xlink:title="Project XA&#45;Galvo scanner specific digital to analog converter methods. ">
<polygon fill="white" stroke="black" points="1331.01,-112.5 1331.01,-131.5 1431.01,-131.5 1431.01,-112.5 1331.01,-112.5"/>
<text text-anchor="middle" x="1381.01" y="-119.5" font-family="Helvetica,sans-Serif" font-size="10.00">md_stm32f4_dac.h</text>
</a>
</g>
</g>
<!-- Node33&#45;&gt;Node34 -->
<g id="edge72" class="edge"><title>Node33&#45;&gt;Node34</title>
<path fill="none" stroke="midnightblue" d="M1150.42,-168.444C1198.52,-158.964 1276.1,-143.675 1327.81,-133.483"/>
<polygon fill="midnightblue" stroke="midnightblue" points="1328.66,-136.884 1337.79,-131.516 1327.31,-130.016 1328.66,-136.884"/>
</g>
<!-- Node34&#45;&gt;Node13 -->
<g id="edge73" class="edge"><title>Node34&#45;&gt;Node13</title>
<path fill="none" stroke="midnightblue" d="M1364.53,-112.368C1328.03,-93.2515 1240.17,-47.229 1196.51,-24.361"/>
<polygon fill="midnightblue" stroke="midnightblue" points="1197.89,-21.1311 1187.41,-19.5914 1194.64,-27.332 1197.89,-21.1311"/>
</g>
<!-- Node34&#45;&gt;Node16 -->
<g id="edge74" class="edge"><title>Node34&#45;&gt;Node16</title>
<path fill="none" stroke="midnightblue" d="M1379.19,-112.083C1377.73,-104.927 1375.64,-94.6353 1373.81,-85.6911"/>
<polygon fill="midnightblue" stroke="midnightblue" points="1377.21,-84.8512 1371.79,-75.7511 1370.36,-86.2485 1377.21,-84.8512"/>
</g>
<!-- Node35&#45;&gt;Node7 -->
<g id="edge79" class="edge"><title>Node35&#45;&gt;Node7</title>
<path fill="none" stroke="midnightblue" d="M408.675,-168.456C399.947,-159.465 385.883,-144.861 374.007,-132 359.025,-115.776 342.264,-96.9131 330.628,-83.7"/>
<polygon fill="midnightblue" stroke="midnightblue" points="333.021,-81.1206 323.792,-75.9173 327.762,-85.7403 333.021,-81.1206"/>
</g>
</g>
</svg>
