<?xml version="1.0" encoding="UTF-8" standalone="no"?>
<!DOCTYPE svg PUBLIC "-//W3C//DTD SVG 1.1//EN"
 "http://www.w3.org/Graphics/SVG/1.1/DTD/svg11.dtd">
<!-- Generated by graphviz version 2.38.0 (20140413.2041)
 -->
<!-- Title: Stm32f4xx_system Pages: 1 -->
<svg width="383pt" height="568pt"
 viewBox="0.00 0.00 383.00 568.00" xmlns="http://www.w3.org/2000/svg" xmlns:xlink="http://www.w3.org/1999/xlink">
<g id="graph0" class="graph" transform="scale(1 1) rotate(0) translate(4 564)">
<title>Stm32f4xx_system</title>
<polygon fill="white" stroke="none" points="-4,4 -4,-564 379,-564 379,4 -4,4"/>
<!-- Node10 -->
<g id="node1" class="node"><title>Node10</title>
<g id="a_node1"><a xlink:href="a00146.html" target="_top" xlink:title="STM32F4xx_System_Private\l_Macros">
<polygon fill="white" stroke="black" points="226,-529.5 226,-559.5 371,-559.5 371,-529.5 226,-529.5"/>
<text text-anchor="start" x="234" y="-547.5" font-family="Helvetica,sans-Serif" font-size="10.00">STM32F4xx_System_Private</text>
<text text-anchor="middle" x="298.5" y="-536.5" font-family="Helvetica,sans-Serif" font-size="10.00">_Macros</text>
</a>
</g>
</g>
<!-- Node12 -->
<g id="node2" class="node"><title>Node12</title>
<g id="a_node2"><a xlink:href="a00148.html" target="_top" xlink:title="STM32F4xx_System_Private\l_FunctionPrototypes">
<polygon fill="white" stroke="black" points="226,-480.5 226,-510.5 371,-510.5 371,-480.5 226,-480.5"/>
<text text-anchor="start" x="234" y="-498.5" font-family="Helvetica,sans-Serif" font-size="10.00">STM32F4xx_System_Private</text>
<text text-anchor="middle" x="298.5" y="-487.5" font-family="Helvetica,sans-Serif" font-size="10.00">_FunctionPrototypes</text>
</a>
</g>
</g>
<!-- Node2 -->
<g id="node3" class="node"><title>Node2</title>
<g id="a_node3"><a xlink:href="a00135.html" target="_top" xlink:title="STM32F4xx_System_Includes">
<polygon fill="white" stroke="black" points="223,-442 223,-461 374,-461 374,-442 223,-442"/>
<text text-anchor="middle" x="298.5" y="-449" font-family="Helvetica,sans-Serif" font-size="10.00">STM32F4xx_System_Includes</text>
</a>
</g>
</g>
<!-- Node5 -->
<g id="node4" class="node"><title>Node5</title>
<g id="a_node4"><a xlink:href="a00138.html" target="_top" xlink:title="STM32F4xx_System_Exported\l_Macros">
<polygon fill="white" stroke="black" points="222,-392.5 222,-422.5 375,-422.5 375,-392.5 222,-392.5"/>
<text text-anchor="start" x="230" y="-410.5" font-family="Helvetica,sans-Serif" font-size="10.00">STM32F4xx_System_Exported</text>
<text text-anchor="middle" x="298.5" y="-399.5" font-family="Helvetica,sans-Serif" font-size="10.00">_Macros</text>
</a>
</g>
</g>
<!-- Node4 -->
<g id="node5" class="node"><title>Node4</title>
<g id="a_node5"><a xlink:href="a00137.html" target="_top" xlink:title="STM32F4xx_System_Exported\l_Constants">
<polygon fill="white" stroke="black" points="222,-343.5 222,-373.5 375,-373.5 375,-343.5 222,-343.5"/>
<text text-anchor="start" x="230" y="-361.5" font-family="Helvetica,sans-Serif" font-size="10.00">STM32F4xx_System_Exported</text>
<text text-anchor="middle" x="298.5" y="-350.5" font-family="Helvetica,sans-Serif" font-size="10.00">_Constants</text>
</a>
</g>
</g>
<!-- Node13 -->
<g id="node6" class="node"><title>Node13</title>
<g id="a_node6"><a xlink:href="a00149.html" target="_top" xlink:title="STM32F4xx_System_Private\l_Functions">
<polygon fill="white" stroke="black" points="226,-294.5 226,-324.5 371,-324.5 371,-294.5 226,-294.5"/>
<text text-anchor="start" x="234" y="-312.5" font-family="Helvetica,sans-Serif" font-size="10.00">STM32F4xx_System_Private</text>
<text text-anchor="middle" x="298.5" y="-301.5" font-family="Helvetica,sans-Serif" font-size="10.00">_Functions</text>
</a>
</g>
</g>
<!-- Node3 -->
<g id="node7" class="node"><title>Node3</title>
<g id="a_node7"><a xlink:href="a00136.html" target="_top" xlink:title="STM32F4xx_System_Exported\l_types">
<polygon fill="white" stroke="black" points="222,-245.5 222,-275.5 375,-275.5 375,-245.5 222,-245.5"/>
<text text-anchor="start" x="230" y="-263.5" font-family="Helvetica,sans-Serif" font-size="10.00">STM32F4xx_System_Exported</text>
<text text-anchor="middle" x="298.5" y="-252.5" font-family="Helvetica,sans-Serif" font-size="10.00">_types</text>
</a>
</g>
</g>
<!-- Node0 -->
<g id="node8" class="node"><title>Node0</title>
<polygon fill="#bfbfbf" stroke="black" points="85,-275 85,-294 186,-294 186,-275 85,-275"/>
<text text-anchor="middle" x="135.5" y="-282" font-family="Helvetica,sans-Serif" font-size="10.00">Stm32f4xx_system</text>
</g>
<!-- Node0&#45;&gt;Node10 -->
<g id="edge10" class="edge"><title>Node0&#45;&gt;Node10</title>
<path fill="none" stroke="black" d="M137.927,-304.402C142.23,-349.438 158.986,-459.946 222,-520.5 225.57,-523.931 229.629,-526.871 233.969,-529.392"/>
<polygon fill="black" stroke="black" points="141.395,-303.874 137.065,-294.205 134.42,-304.465 141.395,-303.874"/>
</g>
<!-- Node0&#45;&gt;Node12 -->
<g id="edge12" class="edge"><title>Node0&#45;&gt;Node12</title>
<path fill="none" stroke="black" d="M140.194,-304.422C148.236,-342.246 170.871,-424.759 222,-470.5 226.322,-474.367 231.258,-477.637 236.49,-480.404"/>
<polygon fill="black" stroke="black" points="143.544,-303.328 138.151,-294.208 136.68,-304.7 143.544,-303.328"/>
</g>
<!-- Node0&#45;&gt;Node2 -->
<g id="edge2" class="edge"><title>Node0&#45;&gt;Node2</title>
<path fill="none" stroke="black" d="M142.291,-304.153C152.76,-336.141 177.938,-399.23 222,-432.5 227.178,-436.409 233.068,-439.521 239.222,-441.996"/>
<polygon fill="black" stroke="black" points="145.516,-302.738 139.195,-294.236 138.834,-304.824 145.516,-302.738"/>
</g>
<!-- Node0&#45;&gt;Node5 -->
<g id="edge5" class="edge"><title>Node0&#45;&gt;Node5</title>
<path fill="none" stroke="black" d="M147.67,-302.728C162.165,-324.912 189.488,-362.055 222,-383.5 227.167,-386.908 232.85,-389.859 238.708,-392.409"/>
<polygon fill="black" stroke="black" points="150.584,-300.788 142.265,-294.227 144.676,-304.543 150.584,-300.788"/>
</g>
<!-- Node0&#45;&gt;Node4 -->
<g id="edge4" class="edge"><title>Node0&#45;&gt;Node4</title>
<path fill="none" stroke="black" d="M159.08,-299.569C175.907,-310.329 199.729,-324.595 222,-334.5 229.289,-337.742 237.151,-340.746 244.951,-343.455"/>
<polygon fill="black" stroke="black" points="160.799,-296.512 150.506,-294.001 156.987,-302.383 160.799,-296.512"/>
</g>
<!-- Node0&#45;&gt;Node13 -->
<g id="edge13" class="edge"><title>Node0&#45;&gt;Node13</title>
<path fill="none" stroke="black" d="M196.048,-293.747C205.752,-295.253 215.892,-296.828 225.85,-298.374"/>
<polygon fill="black" stroke="black" points="196.538,-290.281 186.119,-292.205 195.464,-297.198 196.538,-290.281"/>
</g>
<!-- Node0&#45;&gt;Node3 -->
<g id="edge3" class="edge"><title>Node0&#45;&gt;Node3</title>
<path fill="none" stroke="black" d="M196.19,-275.602C204.6,-274.348 213.336,-273.046 221.995,-271.755"/>
<polygon fill="black" stroke="black" points="195.494,-272.167 186.119,-277.103 196.526,-279.091 195.494,-272.167"/>
</g>
<!-- Node8 -->
<g id="node9" class="node"><title>Node8</title>
<g id="a_node9"><a xlink:href="a00144.html" target="_top" xlink:title="STM32F4xx_System_Private\l_TypesDefinitions">
<polygon fill="white" stroke="black" points="226,-196.5 226,-226.5 371,-226.5 371,-196.5 226,-196.5"/>
<text text-anchor="start" x="234" y="-214.5" font-family="Helvetica,sans-Serif" font-size="10.00">STM32F4xx_System_Private</text>
<text text-anchor="middle" x="298.5" y="-203.5" font-family="Helvetica,sans-Serif" font-size="10.00">_TypesDefinitions</text>
</a>
</g>
</g>
<!-- Node0&#45;&gt;Node8 -->
<g id="edge8" class="edge"><title>Node0&#45;&gt;Node8</title>
<path fill="none" stroke="black" d="M159.727,-269.386C176.536,-258.901 200.063,-245.142 222,-235.5 229.303,-232.29 237.172,-229.303 244.977,-226.602"/>
<polygon fill="black" stroke="black" points="157.709,-266.521 151.132,-274.827 161.453,-272.435 157.709,-266.521"/>
</g>
<!-- Node11 -->
<g id="node11" class="node"><title>Node11</title>
<g id="a_node11"><a xlink:href="a00147.html" target="_top" xlink:title="STM32F4xx_System_Private\l_Variables">
<polygon fill="white" stroke="black" points="226,-147.5 226,-177.5 371,-177.5 371,-147.5 226,-147.5"/>
<text text-anchor="start" x="234" y="-165.5" font-family="Helvetica,sans-Serif" font-size="10.00">STM32F4xx_System_Private</text>
<text text-anchor="middle" x="298.5" y="-154.5" font-family="Helvetica,sans-Serif" font-size="10.00">_Variables</text>
</a>
</g>
</g>
<!-- Node0&#45;&gt;Node11 -->
<g id="edge11" class="edge"><title>Node0&#45;&gt;Node11</title>
<path fill="none" stroke="black" d="M147.714,-266.459C162.254,-244.504 189.622,-207.74 222,-186.5 227.175,-183.105 232.864,-180.162 238.725,-177.617"/>
<polygon fill="black" stroke="black" points="144.766,-264.572 142.291,-274.874 150.65,-268.365 144.766,-264.572"/>
</g>
<!-- Node7 -->
<g id="node12" class="node"><title>Node7</title>
<g id="a_node12"><a xlink:href="a00143.html" target="_top" xlink:title="STM32F4xx_System_Private\l_Includes">
<polygon fill="white" stroke="black" points="226,-98.5 226,-128.5 371,-128.5 371,-98.5 226,-98.5"/>
<text text-anchor="start" x="234" y="-116.5" font-family="Helvetica,sans-Serif" font-size="10.00">STM32F4xx_System_Private</text>
<text text-anchor="middle" x="298.5" y="-105.5" font-family="Helvetica,sans-Serif" font-size="10.00">_Includes</text>
</a>
</g>
</g>
<!-- Node0&#45;&gt;Node7 -->
<g id="edge7" class="edge"><title>Node0&#45;&gt;Node7</title>
<path fill="none" stroke="black" d="M142.562,-265.275C153.419,-233.929 179.144,-171.865 222,-137.5 226.292,-134.058 231.086,-131.106 236.121,-128.575"/>
<polygon fill="black" stroke="black" points="139.167,-264.392 139.338,-274.986 145.81,-266.598 139.167,-264.392"/>
</g>
<!-- Node6 -->
<g id="node13" class="node"><title>Node6</title>
<g id="a_node13"><a xlink:href="a00139.html" target="_top" xlink:title="STM32F4xx_System_Exported\l_Functions">
<polygon fill="white" stroke="black" points="222,-49.5 222,-79.5 375,-79.5 375,-49.5 222,-49.5"/>
<text text-anchor="start" x="230" y="-67.5" font-family="Helvetica,sans-Serif" font-size="10.00">STM32F4xx_System_Exported</text>
<text text-anchor="middle" x="298.5" y="-56.5" font-family="Helvetica,sans-Serif" font-size="10.00">_Functions</text>
</a>
</g>
</g>
<!-- Node0&#45;&gt;Node6 -->
<g id="edge6" class="edge"><title>Node0&#45;&gt;Node6</title>
<path fill="none" stroke="black" d="M139.57,-264.79C146.725,-225.495 168.177,-137.019 222,-88.5 225.78,-85.0926 230.044,-82.1689 234.574,-79.6601"/>
<polygon fill="black" stroke="black" points="136.111,-264.254 137.884,-274.7 143.012,-265.428 136.111,-264.254"/>
</g>
<!-- Node9 -->
<g id="node14" class="node"><title>Node9</title>
<g id="a_node14"><a xlink:href="a00145.html" target="_top" xlink:title="STM32F4xx_System_Private\l_Defines">
<polygon fill="white" stroke="black" points="226,-0.5 226,-30.5 371,-30.5 371,-0.5 226,-0.5"/>
<text text-anchor="start" x="234" y="-18.5" font-family="Helvetica,sans-Serif" font-size="10.00">STM32F4xx_System_Private</text>
<text text-anchor="middle" x="298.5" y="-7.5" font-family="Helvetica,sans-Serif" font-size="10.00">_Defines</text>
</a>
</g>
</g>
<!-- Node0&#45;&gt;Node9 -->
<g id="edge9" class="edge"><title>Node0&#45;&gt;Node9</title>
<path fill="none" stroke="black" d="M137.605,-264.789C141.259,-218.681 156.793,-102.907 222,-39.5 225.55,-36.0481 229.594,-33.0925 233.924,-30.5618"/>
<polygon fill="black" stroke="black" points="134.102,-264.72 136.909,-274.936 141.085,-265.199 134.102,-264.72"/>
</g>
<!-- Node1 -->
<g id="node10" class="node"><title>Node1</title>
<g id="a_node10"><a xlink:href="a00132.html" target="_top" xlink:title="CMSIS">
<polygon fill="white" stroke="black" points="0,-275 0,-294 49,-294 49,-275 0,-275"/>
<text text-anchor="middle" x="24.5" y="-282" font-family="Helvetica,sans-Serif" font-size="10.00">CMSIS</text>
</a>
</g>
</g>
<!-- Node1&#45;&gt;Node0 -->
<g id="edge1" class="edge"><title>Node1&#45;&gt;Node0</title>
<path fill="none" stroke="black" d="M59.3286,-284.5C67.4412,-284.5 76.2713,-284.5 84.9337,-284.5"/>
<polygon fill="black" stroke="black" points="59.1514,-281 49.1514,-284.5 59.1513,-288 59.1514,-281"/>
</g>
</g>
</svg>
