<?xml version="1.0" encoding="UTF-8" standalone="no"?>
<!DOCTYPE svg PUBLIC "-//W3C//DTD SVG 1.1//EN"
 "http://www.w3.org/Graphics/SVG/1.1/DTD/svg11.dtd">
<!-- Generated by graphviz version 2.38.0 (20140413.2041)
 -->
<!-- Title: USART_Init Pages: 1 -->
<svg width="634pt" height="75pt"
 viewBox="0.00 0.00 634.00 75.00" xmlns="http://www.w3.org/2000/svg" xmlns:xlink="http://www.w3.org/1999/xlink">
<g id="graph0" class="graph" transform="scale(1 1) rotate(0) translate(4 71)">
<title>USART_Init</title>
<polygon fill="white" stroke="none" points="-4,4 -4,-71 630,-71 630,4 -4,4"/>
<!-- Node1 -->
<g id="node1" class="node"><title>Node1</title>
<polygon fill="#bfbfbf" stroke="black" points="0,-28.5 0,-47.5 70,-47.5 70,-28.5 0,-28.5"/>
<text text-anchor="middle" x="35" y="-35.5" font-family="Helvetica,sans-Serif" font-size="10.00">USART_Init</text>
</g>
<!-- Node2 -->
<g id="node2" class="node"><title>Node2</title>
<g id="a_node2"><a xlink:href="a00582.html#ga70bed9fb6612cb572a8c10e148404344" target="_top" xlink:title="Initializes USARTx peripheral and corresponding pins. ">
<polygon fill="white" stroke="black" points="459.5,-47.5 459.5,-66.5 548.5,-66.5 548.5,-47.5 459.5,-47.5"/>
<text text-anchor="middle" x="504" y="-54.5" font-family="Helvetica,sans-Serif" font-size="10.00">TM_USART_Init</text>
</a>
</g>
</g>
<!-- Node1&#45;&gt;Node2 -->
<g id="edge1" class="edge"><title>Node1&#45;&gt;Node2</title>
<path fill="none" stroke="midnightblue" d="M80.2724,-44.3904C88.7944,-45.4225 97.6619,-46.3607 106,-47 234.207,-56.8305 386.314,-57.645 459.454,-57.3627"/>
<polygon fill="midnightblue" stroke="midnightblue" points="80.469,-40.8873 70.1075,-43.0985 79.5864,-47.8314 80.469,-40.8873"/>
</g>
<!-- Node4 -->
<g id="node4" class="node"><title>Node4</title>
<g id="a_node4"><a xlink:href="a00582.html#ga5cf7d7f613f4241fb77321ef9554f46b" target="_top" xlink:title="Callback for custom pins initialization for USARTx. ">
<polygon fill="white" stroke="black" points="106,-0.5 106,-19.5 288,-19.5 288,-0.5 106,-0.5"/>
<text text-anchor="middle" x="197" y="-7.5" font-family="Helvetica,sans-Serif" font-size="10.00">TM_USART_InitCustomPinsCallback</text>
</a>
</g>
</g>
<!-- Node1&#45;&gt;Node4 -->
<g id="edge3" class="edge"><title>Node1&#45;&gt;Node4</title>
<path fill="none" stroke="midnightblue" d="M80.2041,-30.2643C99.2006,-26.9399 121.589,-23.0218 141.592,-19.5213"/>
<polygon fill="midnightblue" stroke="midnightblue" points="79.571,-26.8218 70.324,-31.9933 80.7777,-33.717 79.571,-26.8218"/>
</g>
<!-- Node3 -->
<g id="node3" class="node"><title>Node3</title>
<g id="a_node3"><a xlink:href="a01287.html#ga840291bc02cba5474a4cb46a9b9566fe" target="_top" xlink:title="Main function entry. ">
<polygon fill="white" stroke="black" points="588,-47.5 588,-66.5 626,-66.5 626,-47.5 588,-47.5"/>
<text text-anchor="middle" x="607" y="-54.5" font-family="Helvetica,sans-Serif" font-size="10.00">main</text>
</a>
</g>
</g>
<!-- Node2&#45;&gt;Node3 -->
<g id="edge2" class="edge"><title>Node2&#45;&gt;Node3</title>
<path fill="none" stroke="midnightblue" d="M558.767,-57C569.256,-57 579.556,-57 587.848,-57"/>
<polygon fill="midnightblue" stroke="midnightblue" points="558.713,-53.5001 548.713,-57 558.713,-60.5001 558.713,-53.5001"/>
</g>
<!-- Node4&#45;&gt;Node4 -->
<g id="edge4" class="edge"><title>Node4&#45;&gt;Node4</title>
<path fill="none" stroke="midnightblue" d="M166.686,-28.2746C167.55,-33.741 177.655,-38 197,-38 225.793,-38 234.116,-28.5653 221.969,-19.7571"/>
<polygon fill="midnightblue" stroke="midnightblue" points="169.68,-30.0877 172.031,-19.7571 163.751,-26.3667 169.68,-30.0877"/>
</g>
<!-- Node5 -->
<g id="node5" class="node"><title>Node5</title>
<g id="a_node5"><a xlink:href="a00582.html#gab807a241fae0eae0d5434bae20a3569f" target="_top" xlink:title="Puts character to USART port. ">
<polygon fill="white" stroke="black" points="324,-5.5 324,-24.5 420,-24.5 420,-5.5 324,-5.5"/>
<text text-anchor="middle" x="372" y="-12.5" font-family="Helvetica,sans-Serif" font-size="10.00">TM_USART_Putc</text>
</a>
</g>
</g>
<!-- Node4&#45;&gt;Node5 -->
<g id="edge5" class="edge"><title>Node4&#45;&gt;Node5</title>
<path fill="none" stroke="midnightblue" d="M298.107,-12.8933C306.963,-13.1492 315.623,-13.3995 323.704,-13.6331"/>
<polygon fill="midnightblue" stroke="midnightblue" points="298.144,-9.39297 288.047,-12.6025 297.942,-16.39 298.144,-9.39297"/>
</g>
<!-- Node5&#45;&gt;Node2 -->
<g id="edge6" class="edge"><title>Node5&#45;&gt;Node2</title>
<path fill="none" stroke="midnightblue" d="M412.068,-27.6219C431.668,-33.9543 455.031,-41.5023 473.168,-47.3619"/>
<polygon fill="midnightblue" stroke="midnightblue" points="413.091,-24.2743 402.499,-24.5305 410.939,-30.9353 413.091,-24.2743"/>
</g>
<!-- Node6 -->
<g id="node6" class="node"><title>Node6</title>
<g id="a_node6"><a xlink:href="a00582.html#ga453aeaa886278333403ff4937c01dcf3" target="_top" xlink:title="Puts string to USART port. ">
<polygon fill="white" stroke="black" points="456,-5.5 456,-24.5 552,-24.5 552,-5.5 456,-5.5"/>
<text text-anchor="middle" x="504" y="-12.5" font-family="Helvetica,sans-Serif" font-size="10.00">TM_USART_Puts</text>
</a>
</g>
</g>
<!-- Node5&#45;&gt;Node6 -->
<g id="edge7" class="edge"><title>Node5&#45;&gt;Node6</title>
<path fill="none" stroke="midnightblue" d="M430.539,-8.28969C439.034,-8.19895 447.703,-8.2638 455.952,-8.48422"/>
<polygon fill="midnightblue" stroke="midnightblue" points="430.235,-4.79457 420.301,-8.47752 430.363,-11.7934 430.235,-4.79457"/>
</g>
<!-- Node6&#45;&gt;Node5 -->
<g id="edge8" class="edge"><title>Node6&#45;&gt;Node5</title>
<path fill="none" stroke="midnightblue" d="M445.722,-21.7075C437.229,-21.8014 428.559,-21.7397 420.301,-21.5225"/>
<polygon fill="midnightblue" stroke="midnightblue" points="446.02,-25.2026 455.952,-21.5158 445.888,-18.2038 446.02,-25.2026"/>
</g>
</g>
</svg>
