<?xml version="1.0" encoding="UTF-8" standalone="no"?>
<!DOCTYPE svg PUBLIC "-//W3C//DTD SVG 1.1//EN"
 "http://www.w3.org/Graphics/SVG/1.1/DTD/svg11.dtd">
<!-- Generated by graphviz version 2.38.0 (20140413.2041)
 -->
<!-- Title: RTC_SetTime Pages: 1 -->
<svg width="237pt" height="180pt"
 viewBox="0.00 0.00 237.00 180.00" xmlns="http://www.w3.org/2000/svg" xmlns:xlink="http://www.w3.org/1999/xlink">
<g id="graph0" class="graph" transform="scale(1 1) rotate(0) translate(4 176)">
<title>RTC_SetTime</title>
<polygon fill="white" stroke="none" points="-4,4 -4,-176 233,-176 233,4 -4,4"/>
<!-- Node1 -->
<g id="node1" class="node"><title>Node1</title>
<polygon fill="#bfbfbf" stroke="black" points="0,-76.5 0,-95.5 80,-95.5 80,-76.5 0,-76.5"/>
<text text-anchor="middle" x="40" y="-83.5" font-family="Helvetica,sans-Serif" font-size="10.00">RTC_SetTime</text>
</g>
<!-- Node2 -->
<g id="node2" class="node"><title>Node2</title>
<g id="a_node2"><a xlink:href="a01059.html#ga39e7c20215c2f546a20cf5df25c72d72" target="_top" xlink:title="Convert from 2 digit BCD to Binary. ">
<polygon fill="white" stroke="black" points="124,-152.5 124,-171.5 221,-171.5 221,-152.5 124,-152.5"/>
<text text-anchor="middle" x="172.5" y="-159.5" font-family="Helvetica,sans-Serif" font-size="10.00">RTC_Bcd2ToByte</text>
</a>
</g>
</g>
<!-- Node1&#45;&gt;Node2 -->
<g id="edge1" class="edge"><title>Node1&#45;&gt;Node2</title>
<path fill="none" stroke="midnightblue" d="M51.4264,-95.677C65.2655,-108.09 90.8896,-129.611 116,-143 119.949,-145.105 124.177,-147.048 128.472,-148.821"/>
<polygon fill="midnightblue" stroke="midnightblue" points="127.31,-152.124 137.9,-152.431 129.812,-145.586 127.31,-152.124"/>
</g>
<!-- Node3 -->
<g id="node3" class="node"><title>Node3</title>
<g id="a_node3"><a xlink:href="a01059.html#ga020add50c73f0a08516fef0eeee8cca9" target="_top" xlink:title="Converts a 2 digit decimal to BCD format. ">
<polygon fill="white" stroke="black" points="124,-114.5 124,-133.5 221,-133.5 221,-114.5 124,-114.5"/>
<text text-anchor="middle" x="172.5" y="-121.5" font-family="Helvetica,sans-Serif" font-size="10.00">RTC_ByteToBcd2</text>
</a>
</g>
</g>
<!-- Node1&#45;&gt;Node3 -->
<g id="edge2" class="edge"><title>Node1&#45;&gt;Node3</title>
<path fill="none" stroke="midnightblue" d="M73.9307,-95.589C90.6224,-100.449 111.089,-106.409 128.96,-111.613"/>
<polygon fill="midnightblue" stroke="midnightblue" points="128,-114.979 138.58,-114.414 129.957,-108.258 128,-114.979"/>
</g>
<!-- Node4 -->
<g id="node4" class="node"><title>Node4</title>
<g id="a_node4"><a xlink:href="a01060.html#ga679f8883cbfb267a53ffb1ab4cc5c8c5" target="_top" xlink:title="Enters the RTC Initialization mode. ">
<polygon fill="white" stroke="black" points="120.5,-76.5 120.5,-95.5 224.5,-95.5 224.5,-76.5 120.5,-76.5"/>
<text text-anchor="middle" x="172.5" y="-83.5" font-family="Helvetica,sans-Serif" font-size="10.00">RTC_EnterInitMode</text>
</a>
</g>
</g>
<!-- Node1&#45;&gt;Node4 -->
<g id="edge3" class="edge"><title>Node1&#45;&gt;Node4</title>
<path fill="none" stroke="midnightblue" d="M80.1543,-86C89.614,-86 99.9499,-86 110.158,-86"/>
<polygon fill="midnightblue" stroke="midnightblue" points="110.286,-89.5001 120.286,-86 110.286,-82.5001 110.286,-89.5001"/>
</g>
<!-- Node5 -->
<g id="node5" class="node"><title>Node5</title>
<g id="a_node5"><a xlink:href="a01060.html#ga87f86f3b794205f09a1eac51738d900f" target="_top" xlink:title="Exits the RTC Initialization mode. ">
<polygon fill="white" stroke="black" points="123.5,-38.5 123.5,-57.5 221.5,-57.5 221.5,-38.5 123.5,-38.5"/>
<text text-anchor="middle" x="172.5" y="-45.5" font-family="Helvetica,sans-Serif" font-size="10.00">RTC_ExitInitMode</text>
</a>
</g>
</g>
<!-- Node1&#45;&gt;Node5 -->
<g id="edge4" class="edge"><title>Node1&#45;&gt;Node5</title>
<path fill="none" stroke="midnightblue" d="M73.9307,-76.411C90.6224,-71.5506 111.089,-65.5909 128.96,-60.3873"/>
<polygon fill="midnightblue" stroke="midnightblue" points="129.957,-63.7422 138.58,-57.5859 128,-57.0213 129.957,-63.7422"/>
</g>
<!-- Node6 -->
<g id="node6" class="node"><title>Node6</title>
<g id="a_node6"><a xlink:href="a01060.html#ga2938febeef6baf0d91cc066ca5caf095" target="_top" xlink:title="Waits until the RTC Time and Date registers (RTC_TR and RTC_DR) are synchronized with RTC APB clock...">
<polygon fill="white" stroke="black" points="116,-0.5 116,-19.5 229,-19.5 229,-0.5 116,-0.5"/>
<text text-anchor="middle" x="172.5" y="-7.5" font-family="Helvetica,sans-Serif" font-size="10.00">RTC_WaitForSynchro</text>
</a>
</g>
</g>
<!-- Node1&#45;&gt;Node6 -->
<g id="edge5" class="edge"><title>Node1&#45;&gt;Node6</title>
<path fill="none" stroke="midnightblue" d="M51.4264,-76.323C65.2655,-63.9098 90.8896,-42.3888 116,-29 119.949,-26.8946 124.177,-24.9523 128.472,-23.179"/>
<polygon fill="midnightblue" stroke="midnightblue" points="129.812,-26.4135 137.9,-19.5694 127.31,-19.8763 129.812,-26.4135"/>
</g>
</g>
</svg>
