<?xml version="1.0" encoding="UTF-8" standalone="no"?>
<!DOCTYPE svg PUBLIC "-//W3C//DTD SVG 1.1//EN"
 "http://www.w3.org/Graphics/SVG/1.1/DTD/svg11.dtd">
<!-- Generated by graphviz version 2.38.0 (20140413.2041)
 -->
<!-- Title: HASH_StartDigest Pages: 1 -->
<svg width="222pt" height="142pt"
 viewBox="0.00 0.00 222.00 142.00" xmlns="http://www.w3.org/2000/svg" xmlns:xlink="http://www.w3.org/1999/xlink">
<g id="graph0" class="graph" transform="scale(1 1) rotate(0) translate(4 138)">
<title>HASH_StartDigest</title>
<polygon fill="white" stroke="none" points="-4,4 -4,-138 218,-138 218,4 -4,4"/>
<!-- Node1 -->
<g id="node1" class="node"><title>Node1</title>
<polygon fill="#bfbfbf" stroke="black" points="0,-57.5 0,-76.5 100,-76.5 100,-57.5 0,-57.5"/>
<text text-anchor="middle" x="50" y="-64.5" font-family="Helvetica,sans-Serif" font-size="10.00">HASH_StartDigest</text>
</g>
<!-- Node2 -->
<g id="node2" class="node"><title>Node2</title>
<g id="a_node2"><a xlink:href="a01027.html#ga82a155884e458cc6b7c1a4565c1ac8e9" target="_top" xlink:title="Compute the HASH MD5 digest. ">
<polygon fill="white" stroke="black" points="139.5,-114.5 139.5,-133.5 210.5,-133.5 210.5,-114.5 139.5,-114.5"/>
<text text-anchor="middle" x="175" y="-121.5" font-family="Helvetica,sans-Serif" font-size="10.00">HASH_MD5</text>
</a>
</g>
</g>
<!-- Node1&#45;&gt;Node2 -->
<g id="edge1" class="edge"><title>Node1&#45;&gt;Node2</title>
<path fill="none" stroke="midnightblue" d="M80.687,-80.7574C103.16,-91.1719 133.455,-105.211 153.345,-114.428"/>
<polygon fill="midnightblue" stroke="midnightblue" points="82.1322,-77.5696 71.5874,-76.5405 79.1889,-83.9208 82.1322,-77.5696"/>
</g>
<!-- Node3 -->
<g id="node3" class="node"><title>Node3</title>
<g id="a_node3"><a xlink:href="a01027.html#gac61733e7aa66bdd2f21be4b34165b5be" target="_top" xlink:title="Compute the HMAC MD5 digest. ">
<polygon fill="white" stroke="black" points="138.5,-76.5 138.5,-95.5 211.5,-95.5 211.5,-76.5 138.5,-76.5"/>
<text text-anchor="middle" x="175" y="-83.5" font-family="Helvetica,sans-Serif" font-size="10.00">HMAC_MD5</text>
</a>
</g>
</g>
<!-- Node1&#45;&gt;Node3 -->
<g id="edge2" class="edge"><title>Node1&#45;&gt;Node3</title>
<path fill="none" stroke="midnightblue" d="M110.246,-76.1519C119.835,-77.633 129.496,-79.1254 138.297,-80.4849"/>
<polygon fill="midnightblue" stroke="midnightblue" points="110.737,-72.6863 100.32,-74.6185 109.669,-79.6042 110.737,-72.6863"/>
</g>
<!-- Node4 -->
<g id="node4" class="node"><title>Node4</title>
<g id="a_node4"><a xlink:href="a01028.html#ga2728c02c36de6d800e1ede56ea7789cb" target="_top" xlink:title="Compute the HASH SHA1 digest. ">
<polygon fill="white" stroke="black" points="136.5,-38.5 136.5,-57.5 213.5,-57.5 213.5,-38.5 136.5,-38.5"/>
<text text-anchor="middle" x="175" y="-45.5" font-family="Helvetica,sans-Serif" font-size="10.00">HASH_SHA1</text>
</a>
</g>
</g>
<!-- Node1&#45;&gt;Node4 -->
<g id="edge3" class="edge"><title>Node1&#45;&gt;Node4</title>
<path fill="none" stroke="midnightblue" d="M110.294,-57.8407C119.187,-56.4671 128.141,-55.0839 136.412,-53.8063"/>
<polygon fill="midnightblue" stroke="midnightblue" points="109.669,-54.3958 100.32,-59.3815 110.737,-61.3137 109.669,-54.3958"/>
</g>
<!-- Node5 -->
<g id="node5" class="node"><title>Node5</title>
<g id="a_node5"><a xlink:href="a01028.html#ga2e38e900ca7838c1cea17cef19953a5e" target="_top" xlink:title="Compute the HMAC SHA1 digest. ">
<polygon fill="white" stroke="black" points="136,-0.5 136,-19.5 214,-19.5 214,-0.5 136,-0.5"/>
<text text-anchor="middle" x="175" y="-7.5" font-family="Helvetica,sans-Serif" font-size="10.00">HMAC_SHA1</text>
</a>
</g>
</g>
<!-- Node1&#45;&gt;Node5 -->
<g id="edge4" class="edge"><title>Node1&#45;&gt;Node5</title>
<path fill="none" stroke="midnightblue" d="M80.687,-53.2426C103.16,-42.8281 133.455,-28.7892 153.345,-19.5716"/>
<polygon fill="midnightblue" stroke="midnightblue" points="79.1889,-50.0792 71.5874,-57.4595 82.1322,-56.4304 79.1889,-50.0792"/>
</g>
</g>
</svg>
