<?xml version="1.0" encoding="UTF-8" standalone="no"?>
<!DOCTYPE svg PUBLIC "-//W3C//DTD SVG 1.1//EN"
 "http://www.w3.org/Graphics/SVG/1.1/DTD/svg11.dtd">
<!-- Generated by graphviz version 2.38.0 (20140413.2041)
 -->
<!-- Title: MDB_GPIO_On Pages: 1 -->
<svg width="464pt" height="66pt"
 viewBox="0.00 0.00 464.00 66.00" xmlns="http://www.w3.org/2000/svg" xmlns:xlink="http://www.w3.org/1999/xlink">
<g id="graph0" class="graph" transform="scale(1 1) rotate(0) translate(4 62)">
<title>MDB_GPIO_On</title>
<polygon fill="white" stroke="none" points="-4,4 -4,-62 460,-62 460,4 -4,4"/>
<!-- Node1 -->
<g id="node1" class="node"><title>Node1</title>
<polygon fill="#bfbfbf" stroke="black" points="0,-19.5 0,-38.5 87,-38.5 87,-19.5 0,-19.5"/>
<text text-anchor="middle" x="43.5" y="-26.5" font-family="Helvetica,sans-Serif" font-size="10.00">MDB_GPIO_On</text>
</g>
<!-- Node2 -->
<g id="node2" class="node"><title>Node2</title>
<g id="a_node2"><a xlink:href="a00125.html#gad45b8278807ffed1f22e03d86d35bf90" target="_top" xlink:title="Initialize all GPIOs from MDB_GPIO. ">
<polygon fill="white" stroke="black" points="131,-38.5 131,-57.5 219,-57.5 219,-38.5 131,-38.5"/>
<text text-anchor="middle" x="175" y="-45.5" font-family="Helvetica,sans-Serif" font-size="10.00">MDB_GPIO_Init</text>
</a>
</g>
</g>
<!-- Node1&#45;&gt;Node2 -->
<g id="edge1" class="edge"><title>Node1&#45;&gt;Node2</title>
<path fill="none" stroke="midnightblue" d="M97.321,-36.7498C108.467,-38.3851 120.101,-40.092 130.84,-41.6677"/>
<polygon fill="midnightblue" stroke="midnightblue" points="97.6642,-33.2628 87.262,-35.274 96.648,-40.1886 97.6642,-33.2628"/>
</g>
<!-- Node4 -->
<g id="node4" class="node"><title>Node4</title>
<g id="a_node4"><a xlink:href="a00125.html#ga23127fb33a96a81838d3c4b368b0e915" target="_top" xlink:title="Provides GPIO on/off functionality. ">
<polygon fill="white" stroke="black" points="123,-0.5 123,-19.5 227,-19.5 227,-0.5 123,-0.5"/>
<text text-anchor="middle" x="175" y="-7.5" font-family="Helvetica,sans-Serif" font-size="10.00">MDB_GPIO_Switch</text>
</a>
</g>
</g>
<!-- Node1&#45;&gt;Node4 -->
<g id="edge3" class="edge"><title>Node1&#45;&gt;Node4</title>
<path fill="none" stroke="midnightblue" d="M97.3174,-21.2507C105.706,-20.02 114.371,-18.7486 122.724,-17.5232"/>
<polygon fill="midnightblue" stroke="midnightblue" points="96.648,-17.8114 87.262,-22.726 97.6642,-24.7372 96.648,-17.8114"/>
</g>
<!-- Node3 -->
<g id="node3" class="node"><title>Node3</title>
<g id="a_node3"><a xlink:href="a00149.html#ga840291bc02cba5474a4cb46a9b9566fe" target="_top" xlink:title="Main function entry. ">
<polygon fill="white" stroke="black" points="272,-38.5 272,-57.5 310,-57.5 310,-38.5 272,-38.5"/>
<text text-anchor="middle" x="291" y="-45.5" font-family="Helvetica,sans-Serif" font-size="10.00">main</text>
</a>
</g>
</g>
<!-- Node2&#45;&gt;Node3 -->
<g id="edge2" class="edge"><title>Node2&#45;&gt;Node3</title>
<path fill="none" stroke="midnightblue" d="M229.105,-48C244.487,-48 260.25,-48 271.883,-48"/>
<polygon fill="midnightblue" stroke="midnightblue" points="229.099,-44.5001 219.099,-48 229.098,-51.5001 229.099,-44.5001"/>
</g>
<!-- Node5 -->
<g id="node5" class="node"><title>Node5</title>
<g id="a_node5"><a xlink:href="a00096.html#gab27f871618e69ee02c2d2bd756a97397" target="_top" xlink:title="Set beam control source and new state. ">
<polygon fill="white" stroke="black" points="263,-0.5 263,-19.5 319,-19.5 319,-0.5 263,-0.5"/>
<text text-anchor="middle" x="291" y="-7.5" font-family="Helvetica,sans-Serif" font-size="10.00">beamCtrl</text>
</a>
</g>
</g>
<!-- Node4&#45;&gt;Node5 -->
<g id="edge4" class="edge"><title>Node4&#45;&gt;Node5</title>
<path fill="none" stroke="midnightblue" d="M237.447,-10C246.393,-10 255.193,-10 262.956,-10"/>
<polygon fill="midnightblue" stroke="midnightblue" points="237.331,-6.5001 227.331,-10 237.331,-13.5001 237.331,-6.5001"/>
</g>
<!-- Node6 -->
<g id="node6" class="node"><title>Node6</title>
<g id="a_node6"><a xlink:href="a00117.html#ga3e965ca8f413e014ad3a4e27b6b7c0bc" target="_top" xlink:title="Timer 4 overrun IRQ callback. ">
<polygon fill="white" stroke="black" points="355,-0.5 355,-19.5 456,-19.5 456,-0.5 355,-0.5"/>
<text text-anchor="middle" x="405.5" y="-7.5" font-family="Helvetica,sans-Serif" font-size="10.00">TIM4_IRQ_Handler</text>
</a>
</g>
</g>
<!-- Node5&#45;&gt;Node6 -->
<g id="edge5" class="edge"><title>Node5&#45;&gt;Node6</title>
<path fill="none" stroke="midnightblue" d="M329.449,-10C337.527,-10 346.189,-10 354.654,-10"/>
<polygon fill="midnightblue" stroke="midnightblue" points="329.233,-6.5001 319.233,-10 329.233,-13.5001 329.233,-6.5001"/>
</g>
</g>
</svg>
