<?xml version="1.0" encoding="UTF-8" standalone="no"?>
<!DOCTYPE svg PUBLIC "-//W3C//DTD SVG 1.1//EN"
 "http://www.w3.org/Graphics/SVG/1.1/DTD/svg11.dtd">
<!-- Generated by graphviz version 2.38.0 (20140413.2041)
 -->
<!-- Title: TM_USART_Init Pages: 1 -->
<!--zoomable 753 -->
<svg id="main" version="1.1" xmlns="http://www.w3.org/2000/svg" xmlns:xlink="http://www.w3.org/1999/xlink" xml:space="preserve" onload="init(evt)">
<style type="text/css"><![CDATA[
.edge:hover path { stroke: red; }
.edge:hover polygon { stroke: red; fill: red; }
]]></style>
<script type="text/javascript"><![CDATA[
var edges = document.getElementsByTagName('g');
if (edges && edges.length) {
  for (var i=0;i<edges.length;i++) {
    if (edges[i].id.substr(0,4)=='edge') {
      edges[i].setAttribute('class','edge');
    }
  }
}
]]></script>
        <defs>
                <circle id="rim" cx="0" cy="0" r="7"/>
                <circle id="rim2" cx="0" cy="0" r="3.5"/>
                <g id="zoomPlus">
                        <use xlink:href="#rim" fill="#404040">
                                <set attributeName="fill" to="#808080" begin="zoomplus.mouseover" end="zoomplus.mouseout"/>
                        </use>
                        <path d="M-4,0h8M0,-4v8" fill="none" stroke="white" stroke-width="1.5" pointer-events="none"/>
                </g>
                <g id="zoomMin">
                        <use xlink:href="#rim" fill="#404040">
                                <set attributeName="fill" to="#808080" begin="zoomminus.mouseover" end="zoomminus.mouseout"/>
                        </use>
                        <path d="M-4,0h8" fill="none" stroke="white" stroke-width="1.5" pointer-events="none"/>
                </g>
                <g id="dirArrow">
                        <path fill="none" stroke="white" stroke-width="1.5" d="M0,-3.0v7 M-2.5,-0.5L0,-3.0L2.5,-0.5"/>
                </g>
               <g id="resetDef">
                       <use xlink:href="#rim2" fill="#404040">
                               <set attributeName="fill" to="#808080" begin="reset.mouseover" end="reset.mouseout"/>
                       </use>
               </g>
        </defs>

<script type="text/javascript">
var viewWidth = 864;
var viewHeight = 753;
var sectionId = 'dynsection-16';
</script>
<script xlink:href="svgpan.js"/>
<svg id="graph" class="graph">
<g id="viewport">
<title>TM_USART_Init</title>
<polygon fill="white" stroke="none" points="-4,4 -4,-749.064 860,-749.064 860,4 -4,4"/>
<!-- Node1 -->
<g id="node1" class="node"><title>Node1</title>
<polygon fill="#bfbfbf" stroke="black" points="0,-209.5 0,-228.5 89,-228.5 89,-209.5 0,-209.5"/>
<text text-anchor="middle" x="44.5" y="-216.5" font-family="Helvetica,sans-Serif" font-size="10.00">TM_USART_Init</text>
</g>
<!-- Node2 -->
<g id="node2" class="node"><title>Node2</title>
<g id="a_node2"><a xlink:href="a00029.html#ga98da340ea0324002ba1b4263e91ab2ff" target="_top" xlink:title="Initializes the USARTx peripheral according to the specified parameters in the USART_InitStruct ...">
<polygon fill="white" stroke="black" points="564.5,-725.5 564.5,-744.5 634.5,-744.5 634.5,-725.5 564.5,-725.5"/>
<text text-anchor="middle" x="599.5" y="-732.5" font-family="Helvetica,sans-Serif" font-size="10.00">USART_Init</text>
</a>
</g>
</g>
<!-- Node1&#45;&gt;Node2 -->
<g id="edge1" class="edge"><title>Node1&#45;&gt;Node2</title>
<path fill="none" stroke="midnightblue" d="M45.1826,-228.777C44.1818,-273.831 45.0345,-464.509 125,-588 179.26,-671.793 211.913,-687.637 306,-721 389.85,-750.733 495.74,-746.359 554.359,-740.613"/>
<polygon fill="midnightblue" stroke="midnightblue" points="554.807,-744.086 564.391,-739.571 554.083,-737.123 554.807,-744.086"/>
</g>
<!-- Node4 -->
<g id="node4" class="node"><title>Node4</title>
<g id="a_node4"><a xlink:href="a00029.html#ga45e51626739c5f22a6567c8a85d1d85e" target="_top" xlink:title="Enables or disables the specified USART peripheral. ">
<polygon fill="white" stroke="black" points="159,-304.5 159,-323.5 236,-323.5 236,-304.5 159,-304.5"/>
<text text-anchor="middle" x="197.5" y="-311.5" font-family="Helvetica,sans-Serif" font-size="10.00">USART_Cmd</text>
</a>
</g>
</g>
<!-- Node1&#45;&gt;Node4 -->
<g id="edge3" class="edge"><title>Node1&#45;&gt;Node4</title>
<path fill="none" stroke="midnightblue" d="M52.7213,-228.52C65.4938,-244.681 93.6939,-277.435 125,-295 132.407,-299.156 140.758,-302.432 149.071,-305.007"/>
<polygon fill="midnightblue" stroke="midnightblue" points="148.18,-308.392 158.753,-307.717 150.067,-301.651 148.18,-308.392"/>
</g>
<!-- Node5 -->
<g id="node5" class="node"><title>Node5</title>
<g id="a_node5"><a xlink:href="a00029.html#ga6d8f2dd1f34060ae7e386e3e5d56b6f6" target="_top" xlink:title="Enables or disables the specified USART interrupts. ">
<polygon fill="white" stroke="black" points="150.5,-266.5 150.5,-285.5 244.5,-285.5 244.5,-266.5 150.5,-266.5"/>
<text text-anchor="middle" x="197.5" y="-273.5" font-family="Helvetica,sans-Serif" font-size="10.00">USART_ITConfig</text>
</a>
</g>
</g>
<!-- Node1&#45;&gt;Node5 -->
<g id="edge4" class="edge"><title>Node1&#45;&gt;Node5</title>
<path fill="none" stroke="midnightblue" d="M63.086,-228.577C78.9291,-236.919 103.036,-248.913 125,-257 131.478,-259.385 138.388,-261.607 145.263,-263.628"/>
<polygon fill="midnightblue" stroke="midnightblue" points="144.681,-267.1 155.256,-266.441 146.579,-260.362 144.681,-267.1"/>
</g>
<!-- Node6 -->
<g id="node6" class="node"><title>Node6</title>
<g id="a_node6"><a xlink:href="a00019.html#ga4ab373ed0870c06fca5eb51d639adf41" target="_top" xlink:title="Initializes the NVIC peripheral according to the specified parameters in the NVIC_InitStruct. ">
<polygon fill="white" stroke="black" points="569.5,-661.5 569.5,-680.5 629.5,-680.5 629.5,-661.5 569.5,-661.5"/>
<text text-anchor="middle" x="599.5" y="-668.5" font-family="Helvetica,sans-Serif" font-size="10.00">NVIC_Init</text>
</a>
</g>
</g>
<!-- Node1&#45;&gt;Node6 -->
<g id="edge5" class="edge"><title>Node1&#45;&gt;Node6</title>
<path fill="none" stroke="midnightblue" d="M47.0981,-228.581C57.2375,-285.918 118.316,-584.863 306,-695 389.947,-744.262 511.483,-706.64 567.765,-684.371"/>
<polygon fill="midnightblue" stroke="midnightblue" points="569.227,-687.555 577.175,-680.548 566.593,-681.07 569.227,-687.555"/>
</g>
<!-- Node7 -->
<g id="node7" class="node"><title>Node7</title>
<g id="a_node7"><a xlink:href="a00020.html#ga56ff55caf8d835351916b40dd030bc87" target="_top" xlink:title="Enables or disables the High Speed APB (APB2) peripheral clock. ">
<polygon fill="white" stroke="black" points="125.5,-228.5 125.5,-247.5 269.5,-247.5 269.5,-228.5 125.5,-228.5"/>
<text text-anchor="middle" x="197.5" y="-235.5" font-family="Helvetica,sans-Serif" font-size="10.00">RCC_APB2PeriphClockCmd</text>
</a>
</g>
</g>
<!-- Node1&#45;&gt;Node7 -->
<g id="edge6" class="edge"><title>Node1&#45;&gt;Node7</title>
<path fill="none" stroke="midnightblue" d="M89.1755,-224.496C97.4025,-225.531 106.247,-226.644 115.2,-227.77"/>
<polygon fill="midnightblue" stroke="midnightblue" points="114.97,-231.269 125.328,-229.045 115.844,-224.323 114.97,-231.269"/>
</g>
<!-- Node8 -->
<g id="node8" class="node"><title>Node8</title>
<g id="a_node8"><a xlink:href="a00020.html#ga80c89116820d48bb38db2e7d5e5a49b9" target="_top" xlink:title="Enables or disables the AHB1 peripheral clock. ">
<polygon fill="white" stroke="black" points="125,-190.5 125,-209.5 270,-209.5 270,-190.5 125,-190.5"/>
<text text-anchor="middle" x="197.5" y="-197.5" font-family="Helvetica,sans-Serif" font-size="10.00">RCC_AHB1PeriphClockCmd</text>
</a>
</g>
</g>
<!-- Node1&#45;&gt;Node8 -->
<g id="edge7" class="edge"><title>Node1&#45;&gt;Node8</title>
<path fill="none" stroke="midnightblue" d="M89.1755,-213.504C97.2759,-212.485 105.975,-211.391 114.787,-210.282"/>
<polygon fill="midnightblue" stroke="midnightblue" points="115.274,-213.748 124.759,-209.027 114.4,-206.803 115.274,-213.748"/>
</g>
<!-- Node9 -->
<g id="node9" class="node"><title>Node9</title>
<g id="a_node9"><a xlink:href="a00013.html#ga0a77617a322562ae84f8d72486032c5d" target="_top" xlink:title="Changes the mapping of the specified pin. ">
<polygon fill="white" stroke="black" points="146.5,-152.5 146.5,-171.5 248.5,-171.5 248.5,-152.5 146.5,-152.5"/>
<text text-anchor="middle" x="197.5" y="-159.5" font-family="Helvetica,sans-Serif" font-size="10.00">GPIO_PinAFConfig</text>
</a>
</g>
</g>
<!-- Node1&#45;&gt;Node9 -->
<g id="edge8" class="edge"><title>Node1&#45;&gt;Node9</title>
<path fill="none" stroke="midnightblue" d="M63.086,-209.423C78.9291,-201.081 103.036,-189.087 125,-181 131.478,-178.615 138.388,-176.393 145.263,-174.372"/>
<polygon fill="midnightblue" stroke="midnightblue" points="146.579,-177.638 155.256,-171.559 144.681,-170.9 146.579,-177.638"/>
</g>
<!-- Node10 -->
<g id="node10" class="node"><title>Node10</title>
<g id="a_node10"><a xlink:href="a00013.html#ga71abf9404261370d03cca449b88d3a65" target="_top" xlink:title="Initializes the GPIOx peripheral according to the specified parameters in the GPIO_InitStruct. ">
<polygon fill="white" stroke="black" points="167.5,-114.5 167.5,-133.5 227.5,-133.5 227.5,-114.5 167.5,-114.5"/>
<text text-anchor="middle" x="197.5" y="-121.5" font-family="Helvetica,sans-Serif" font-size="10.00">GPIO_Init</text>
</a>
</g>
</g>
<!-- Node1&#45;&gt;Node10 -->
<g id="edge9" class="edge"><title>Node1&#45;&gt;Node10</title>
<path fill="none" stroke="midnightblue" d="M52.7213,-209.48C65.4938,-193.319 93.6939,-160.565 125,-143 134.948,-137.418 146.599,-133.423 157.574,-130.584"/>
<polygon fill="midnightblue" stroke="midnightblue" points="158.453,-133.973 167.395,-128.291 156.861,-127.157 158.453,-133.973"/>
</g>
<!-- Node11 -->
<g id="node11" class="node"><title>Node11</title>
<g id="a_node11"><a xlink:href="a00020.html#gaee7cc5d73af7fe1986fceff8afd3973e" target="_top" xlink:title="Enables or disables the Low Speed APB (APB1) peripheral clock. ">
<polygon fill="white" stroke="black" points="125.5,-76.5 125.5,-95.5 269.5,-95.5 269.5,-76.5 125.5,-76.5"/>
<text text-anchor="middle" x="197.5" y="-83.5" font-family="Helvetica,sans-Serif" font-size="10.00">RCC_APB1PeriphClockCmd</text>
</a>
</g>
</g>
<!-- Node1&#45;&gt;Node11 -->
<g id="edge10" class="edge"><title>Node1&#45;&gt;Node11</title>
<path fill="none" stroke="midnightblue" d="M49.4303,-209.327C58.9189,-187.229 85.2695,-132.815 125,-105 127.875,-102.987 130.952,-101.187 134.153,-99.5781"/>
<polygon fill="midnightblue" stroke="midnightblue" points="135.675,-102.733 143.445,-95.5294 132.879,-96.3156 135.675,-102.733"/>
</g>
<!-- Node12 -->
<g id="node12" class="node"><title>Node12</title>
<g id="a_node12"><a xlink:href="a00168.html#gab807a241fae0eae0d5434bae20a3569f" target="_top" xlink:title="Puts character to USART port. ">
<polygon fill="white" stroke="black" points="149.5,-342.5 149.5,-361.5 245.5,-361.5 245.5,-342.5 149.5,-342.5"/>
<text text-anchor="middle" x="197.5" y="-349.5" font-family="Helvetica,sans-Serif" font-size="10.00">TM_USART_Putc</text>
</a>
</g>
</g>
<!-- Node1&#45;&gt;Node12 -->
<g id="edge11" class="edge"><title>Node1&#45;&gt;Node12</title>
<path fill="none" stroke="midnightblue" d="M49.4303,-228.673C58.9189,-250.771 85.2695,-305.185 125,-333 129.538,-336.177 134.575,-338.822 139.816,-341.026"/>
<polygon fill="midnightblue" stroke="midnightblue" points="138.81,-344.384 149.404,-344.533 141.215,-337.81 138.81,-344.384"/>
</g>
<!-- Node36 -->
<g id="node36" class="node"><title>Node36</title>
<g id="a_node36"><a xlink:href="a00029.html#ga144630722defc9e312f0ad280b68e9da" target="_top" xlink:title="Checks whether the specified USART flag is set or not. ">
<polygon fill="white" stroke="black" points="138,-38.5 138,-57.5 257,-57.5 257,-38.5 138,-38.5"/>
<text text-anchor="middle" x="197.5" y="-45.5" font-family="Helvetica,sans-Serif" font-size="10.00">USART_GetFlagStatus</text>
</a>
</g>
</g>
<!-- Node1&#45;&gt;Node36 -->
<g id="edge58" class="edge"><title>Node1&#45;&gt;Node36</title>
<path fill="none" stroke="midnightblue" d="M47.6388,-209.441C54.1596,-182.58 76.3814,-105.861 125,-67 127.182,-65.2558 129.51,-63.6708 131.942,-62.2306"/>
<polygon fill="midnightblue" stroke="midnightblue" points="133.764,-65.2326 141.136,-57.6232 130.628,-58.9744 133.764,-65.2326"/>
</g>
<!-- Node37 -->
<g id="node37" class="node"><title>Node37</title>
<g id="a_node37"><a xlink:href="a00029.html#ga0b43d42da9540f446d494bf69823c6fb" target="_top" xlink:title="Transmits single data through the USARTx peripheral. ">
<polygon fill="white" stroke="black" points="147.5,-0.5 147.5,-19.5 247.5,-19.5 247.5,-0.5 147.5,-0.5"/>
<text text-anchor="middle" x="197.5" y="-7.5" font-family="Helvetica,sans-Serif" font-size="10.00">USART_SendData</text>
</a>
</g>
</g>
<!-- Node1&#45;&gt;Node37 -->
<g id="edge59" class="edge"><title>Node1&#45;&gt;Node37</title>
<path fill="none" stroke="midnightblue" d="M46.5603,-209.397C50.5219,-178.272 67.3264,-79.2907 125,-29 128.893,-25.605 133.328,-22.8078 138.038,-20.5043"/>
<polygon fill="midnightblue" stroke="midnightblue" points="139.456,-23.7056 147.365,-16.6559 136.786,-17.2348 139.456,-23.7056"/>
</g>
<!-- Node3 -->
<g id="node3" class="node"><title>Node3</title>
<g id="a_node3"><a xlink:href="a00020.html#ga3e9944fd1ed734275222bbb3e3f29993" target="_top" xlink:title="Returns the frequencies of different on chip clocks; SYSCLK, HCLK, PCLK1 and PCLK2. ">
<polygon fill="white" stroke="black" points="728.5,-725.5 728.5,-744.5 838.5,-744.5 838.5,-725.5 728.5,-725.5"/>
<text text-anchor="middle" x="783.5" y="-732.5" font-family="Helvetica,sans-Serif" font-size="10.00">RCC_GetClocksFreq</text>
</a>
</g>
</g>
<!-- Node2&#45;&gt;Node3 -->
<g id="edge2" class="edge"><title>Node2&#45;&gt;Node3</title>
<path fill="none" stroke="midnightblue" d="M634.733,-735C658.21,-735 690.081,-735 718.214,-735"/>
<polygon fill="midnightblue" stroke="midnightblue" points="718.387,-738.5 728.387,-735 718.387,-731.5 718.387,-738.5"/>
</g>
<!-- Node13 -->
<g id="node13" class="node"><title>Node13</title>
<g id="a_node13"><a xlink:href="a00168.html#ga453aeaa886278333403ff4937c01dcf3" target="_top" xlink:title="Puts string to USART port. ">
<polygon fill="white" stroke="black" points="349,-304.5 349,-323.5 445,-323.5 445,-304.5 349,-304.5"/>
<text text-anchor="middle" x="397" y="-311.5" font-family="Helvetica,sans-Serif" font-size="10.00">TM_USART_Puts</text>
</a>
</g>
</g>
<!-- Node12&#45;&gt;Node13 -->
<g id="edge12" class="edge"><title>Node12&#45;&gt;Node13</title>
<path fill="none" stroke="midnightblue" d="M223.915,-342.408C252.798,-334.769 300.854,-325.028 338.853,-318.809"/>
<polygon fill="midnightblue" stroke="midnightblue" points="339.452,-322.258 348.778,-317.23 338.352,-315.344 339.452,-322.258"/>
</g>
<!-- Node15 -->
<g id="node15" class="node"><title>Node15</title>
<g id="a_node15"><a xlink:href="a00168.html#gafbf9e2222953815c9f35cd46863dbc26" target="_top" xlink:title="Callback function for receive interrupt on USART1 in case you have enabled custom USART handler mode...">
<polygon fill="white" stroke="black" points="524,-570.5 524,-589.5 675,-589.5 675,-570.5 524,-570.5"/>
<text text-anchor="middle" x="599.5" y="-577.5" font-family="Helvetica,sans-Serif" font-size="10.00">TM_USART1_ReceiveHandler</text>
</a>
</g>
</g>
<!-- Node12&#45;&gt;Node15 -->
<g id="edge50" class="edge"><title>Node12&#45;&gt;Node15</title>
<path fill="none" stroke="midnightblue" d="M198.19,-361.706C197.362,-406.176 200.491,-591.523 306,-667 371.789,-714.062 411.567,-693.478 488,-667 527.921,-653.171 564.358,-618.29 583.783,-597.134"/>
<polygon fill="midnightblue" stroke="midnightblue" points="586.536,-599.305 590.587,-589.515 581.315,-594.642 586.536,-599.305"/>
</g>
<!-- Node16 -->
<g id="node16" class="node"><title>Node16</title>
<g id="a_node16"><a xlink:href="a00168.html#ga21823124b3d98ea2085671f4a5af6017" target="_top" xlink:title="Callback function for receive interrupt on USART2 in case you have enabled custom USART handler mode...">
<polygon fill="white" stroke="black" points="524,-494.5 524,-513.5 675,-513.5 675,-494.5 524,-494.5"/>
<text text-anchor="middle" x="599.5" y="-501.5" font-family="Helvetica,sans-Serif" font-size="10.00">TM_USART2_ReceiveHandler</text>
</a>
</g>
</g>
<!-- Node12&#45;&gt;Node16 -->
<g id="edge51" class="edge"><title>Node12&#45;&gt;Node16</title>
<path fill="none" stroke="midnightblue" d="M201.853,-361.864C212.095,-390.224 245.989,-471.928 306,-503 385.29,-544.054 493.645,-529.186 553.736,-515.847"/>
<polygon fill="midnightblue" stroke="midnightblue" points="554.707,-519.215 563.665,-513.558 553.134,-512.393 554.707,-519.215"/>
</g>
<!-- Node17 -->
<g id="node17" class="node"><title>Node17</title>
<g id="a_node17"><a xlink:href="a00168.html#ga868eb8844f04487e714b63b016a93bae" target="_top" xlink:title="Callback function for receive interrupt on USART3 in case you have enabled custom USART handler mode...">
<polygon fill="white" stroke="black" points="524,-418.5 524,-437.5 675,-437.5 675,-418.5 524,-418.5"/>
<text text-anchor="middle" x="599.5" y="-425.5" font-family="Helvetica,sans-Serif" font-size="10.00">TM_USART3_ReceiveHandler</text>
</a>
</g>
</g>
<!-- Node12&#45;&gt;Node17 -->
<g id="edge52" class="edge"><title>Node12&#45;&gt;Node17</title>
<path fill="none" stroke="midnightblue" d="M222.01,-361.612C243.525,-370.041 276.418,-382.011 306,-389 375.047,-405.314 454.989,-415.391 513.832,-421.204"/>
<polygon fill="midnightblue" stroke="midnightblue" points="513.536,-424.692 523.826,-422.17 514.21,-417.724 513.536,-424.692"/>
</g>
<!-- Node18 -->
<g id="node18" class="node"><title>Node18</title>
<g id="a_node18"><a xlink:href="a00168.html#gada9d723469cf9d7d0ac11930b8e14f2a" target="_top" xlink:title="Callback function for receive interrupt on UART4 in case you have enabled custom USART handler mode...">
<polygon fill="white" stroke="black" points="527.5,-190.5 527.5,-209.5 671.5,-209.5 671.5,-190.5 527.5,-190.5"/>
<text text-anchor="middle" x="599.5" y="-197.5" font-family="Helvetica,sans-Serif" font-size="10.00">TM_UART4_ReceiveHandler</text>
</a>
</g>
</g>
<!-- Node12&#45;&gt;Node18 -->
<g id="edge53" class="edge"><title>Node12&#45;&gt;Node18</title>
<path fill="none" stroke="midnightblue" d="M245.743,-346.449C254.632,-343.58 263.243,-339.314 270,-333 306.351,-299.029 266.931,-257.808 306,-227 373.945,-173.422 480.315,-179.005 544.327,-188.862"/>
<polygon fill="midnightblue" stroke="midnightblue" points="543.792,-192.321 554.225,-190.473 544.917,-185.412 543.792,-192.321"/>
</g>
<!-- Node19 -->
<g id="node19" class="node"><title>Node19</title>
<g id="a_node19"><a xlink:href="a00168.html#ga4338d265fa58103332ea234f63594b81" target="_top" xlink:title="Callback function for receive interrupt on UART5 in case you have enabled custom USART handler mode...">
<polygon fill="white" stroke="black" points="527.5,-380.5 527.5,-399.5 671.5,-399.5 671.5,-380.5 527.5,-380.5"/>
<text text-anchor="middle" x="599.5" y="-387.5" font-family="Helvetica,sans-Serif" font-size="10.00">TM_UART5_ReceiveHandler</text>
</a>
</g>
</g>
<!-- Node12&#45;&gt;Node19 -->
<g id="edge54" class="edge"><title>Node12&#45;&gt;Node19</title>
<path fill="none" stroke="midnightblue" d="M245.538,-358.619C264.321,-361.134 286.161,-363.895 306,-366 377.219,-373.555 458.411,-380.049 517.153,-384.369"/>
<polygon fill="midnightblue" stroke="midnightblue" points="517.256,-387.886 527.485,-385.124 517.766,-380.905 517.256,-387.886"/>
</g>
<!-- Node20 -->
<g id="node20" class="node"><title>Node20</title>
<g id="a_node20"><a xlink:href="a00168.html#ga65c1d6a6bcc2dbd40ea0e7cbf5e924de" target="_top" xlink:title="Callback function for receive interrupt on USART6 in case you have enabled custom USART handler mode...">
<polygon fill="white" stroke="black" points="524,-342.5 524,-361.5 675,-361.5 675,-342.5 524,-342.5"/>
<text text-anchor="middle" x="599.5" y="-349.5" font-family="Helvetica,sans-Serif" font-size="10.00">TM_USART6_ReceiveHandler</text>
</a>
</g>
</g>
<!-- Node12&#45;&gt;Node20 -->
<g id="edge55" class="edge"><title>Node12&#45;&gt;Node20</title>
<path fill="none" stroke="midnightblue" d="M245.561,-352C311.313,-352 431.767,-352 513.466,-352"/>
<polygon fill="midnightblue" stroke="midnightblue" points="513.729,-355.5 523.729,-352 513.729,-348.5 513.729,-355.5"/>
</g>
<!-- Node21 -->
<g id="node21" class="node"><title>Node21</title>
<g id="a_node21"><a xlink:href="a00168.html#ga461a5123a57231d34d51330f12ea39d2" target="_top" xlink:title="Callback function for receive interrupt on UART7 in case you have enabled custom USART handler mode...">
<polygon fill="white" stroke="black" points="527.5,-304.5 527.5,-323.5 671.5,-323.5 671.5,-304.5 527.5,-304.5"/>
<text text-anchor="middle" x="599.5" y="-311.5" font-family="Helvetica,sans-Serif" font-size="10.00">TM_UART7_ReceiveHandler</text>
</a>
</g>
</g>
<!-- Node12&#45;&gt;Node21 -->
<g id="edge56" class="edge"><title>Node12&#45;&gt;Node21</title>
<path fill="none" stroke="midnightblue" d="M245.773,-343.41C254.178,-340.791 262.602,-337.395 270,-333 290.001,-321.117 284.629,-304.192 306,-295 380.307,-263.038 407.404,-288.121 488,-295 506.159,-296.55 525.815,-299.507 543.445,-302.636"/>
<polygon fill="midnightblue" stroke="midnightblue" points="543.097,-306.13 553.564,-304.488 544.358,-299.244 543.097,-306.13"/>
</g>
<!-- Node22 -->
<g id="node22" class="node"><title>Node22</title>
<g id="a_node22"><a xlink:href="a00168.html#ga37fe7ffa31a540627af5ebfe93f2dcf5" target="_top" xlink:title="Callback function for receive interrupt on UART8 in case you have enabled custom USART handler mode...">
<polygon fill="white" stroke="black" points="527.5,-228.5 527.5,-247.5 671.5,-247.5 671.5,-228.5 527.5,-228.5"/>
<text text-anchor="middle" x="599.5" y="-235.5" font-family="Helvetica,sans-Serif" font-size="10.00">TM_UART8_ReceiveHandler</text>
</a>
</g>
</g>
<!-- Node12&#45;&gt;Node22 -->
<g id="edge57" class="edge"><title>Node12&#45;&gt;Node22</title>
<path fill="none" stroke="midnightblue" d="M245.784,-344.796C254.371,-342.046 262.858,-338.247 270,-333 294.147,-315.26 280.747,-292.127 306,-276 368.754,-235.924 454.585,-229.114 517.032,-230.71"/>
<polygon fill="midnightblue" stroke="midnightblue" points="517.125,-234.215 527.236,-231.05 517.359,-227.219 517.125,-234.215"/>
</g>
<!-- Node23 -->
<g id="node23" class="node"><title>Node23</title>
<g id="a_node23"><a xlink:href="a00168.html#ga3bbfbfe88ae6dce27876b84798cfda62" target="_top" xlink:title="Sends data array to USART port. ">
<polygon fill="white" stroke="black" points="348,-114.5 348,-133.5 446,-133.5 446,-114.5 348,-114.5"/>
<text text-anchor="middle" x="397" y="-121.5" font-family="Helvetica,sans-Serif" font-size="10.00">TM_USART_Send</text>
</a>
</g>
</g>
<!-- Node12&#45;&gt;Node23 -->
<g id="edge23" class="edge"><title>Node12&#45;&gt;Node23</title>
<path fill="none" stroke="midnightblue" d="M245.69,-347.374C254.798,-344.461 263.51,-339.944 270,-333 327.197,-271.804 248.83,-209.221 306,-148 314.45,-138.951 325.896,-133.168 337.79,-129.507"/>
<polygon fill="midnightblue" stroke="midnightblue" points="339.027,-132.802 347.83,-126.905 337.271,-126.026 339.027,-132.802"/>
</g>
<!-- Node24 -->
<g id="node24" class="node"><title>Node24</title>
<g id="a_node24"><a xlink:href="a00168.html#ga340391d061340e4635b4bbafea23602b" target="_top" xlink:title="Gets character from internal USART buffer. ">
<polygon fill="white" stroke="black" points="551,-57.5 551,-76.5 648,-76.5 648,-57.5 551,-57.5"/>
<text text-anchor="middle" x="599.5" y="-64.5" font-family="Helvetica,sans-Serif" font-size="10.00">TM_USART_Getc</text>
</a>
</g>
</g>
<!-- Node12&#45;&gt;Node24 -->
<g id="edge24" class="edge"><title>Node12&#45;&gt;Node24</title>
<path fill="none" stroke="midnightblue" d="M245.629,-347.771C254.853,-344.847 263.628,-340.224 270,-333 348.915,-243.53 216.163,-145.497 306,-67 339.646,-37.6009 465.246,-48.6194 540.484,-58.3812"/>
<polygon fill="midnightblue" stroke="midnightblue" points="540.377,-61.8977 550.751,-59.7459 541.299,-54.9587 540.377,-61.8977"/>
</g>
<!-- Node25 -->
<g id="node25" class="node"><title>Node25</title>
<g id="a_node25"><a xlink:href="a00168.html#gabb0a95fd20e5e2a894e658b64a29ee61" target="_top" xlink:title="Gets string from USART. ">
<polygon fill="white" stroke="black" points="348.5,-76.5 348.5,-95.5 445.5,-95.5 445.5,-76.5 348.5,-76.5"/>
<text text-anchor="middle" x="397" y="-83.5" font-family="Helvetica,sans-Serif" font-size="10.00">TM_USART_Gets</text>
</a>
</g>
</g>
<!-- Node12&#45;&gt;Node25 -->
<g id="edge25" class="edge"><title>Node12&#45;&gt;Node25</title>
<path fill="none" stroke="midnightblue" d="M245.51,-347.665C254.74,-344.746 263.549,-340.154 270,-333 338.706,-256.816 235.349,-179.383 306,-105 314.506,-96.0445 326.088,-90.7661 338.11,-87.7603"/>
<polygon fill="midnightblue" stroke="midnightblue" points="339.131,-91.1257 348.254,-85.7391 337.763,-84.2606 339.131,-91.1257"/>
</g>
<!-- Node26 -->
<g id="node26" class="node"><title>Node26</title>
<g id="a_node26"><a xlink:href="a00168.html#gabcee39f90c8c33ff3b1fb07e6496eef6" target="_top" xlink:title="Checks if internal USARTx buffer is empty. ">
<polygon fill="white" stroke="black" points="534,-19.5 534,-38.5 665,-38.5 665,-19.5 534,-19.5"/>
<text text-anchor="middle" x="599.5" y="-26.5" font-family="Helvetica,sans-Serif" font-size="10.00">TM_USART_BufferEmpty</text>
</a>
</g>
</g>
<!-- Node12&#45;&gt;Node26 -->
<g id="edge30" class="edge"><title>Node12&#45;&gt;Node26</title>
<path fill="none" stroke="midnightblue" d="M245.687,-347.822C254.907,-344.894 263.666,-340.258 270,-333 355.105,-235.475 211.209,-132.14 306,-44 374.432,19.6296 495.344,-0.364157 558.127,-16.7121"/>
<polygon fill="midnightblue" stroke="midnightblue" points="557.486,-20.1644 568.052,-19.3934 559.311,-13.4066 557.486,-20.1644"/>
</g>
<!-- Node27 -->
<g id="node27" class="node"><title>Node27</title>
<g id="a_node27"><a xlink:href="a00168.html#ga5f708a330c9fc45032143a5777d9b6fd" target="_top" xlink:title="Checks if character c is available in internal buffer. ">
<polygon fill="white" stroke="black" points="531,-114.5 531,-133.5 668,-133.5 668,-114.5 531,-114.5"/>
<text text-anchor="middle" x="599.5" y="-121.5" font-family="Helvetica,sans-Serif" font-size="10.00">TM_USART_FindCharacter</text>
</a>
</g>
</g>
<!-- Node12&#45;&gt;Node27 -->
<g id="edge29" class="edge"><title>Node12&#45;&gt;Node27</title>
<path fill="none" stroke="midnightblue" d="M245.864,-347.069C254.851,-344.165 263.471,-339.729 270,-333 318.949,-282.556 255.222,-227.603 306,-179 310.136,-175.041 448.834,-150.186 533.728,-135.277"/>
<polygon fill="midnightblue" stroke="midnightblue" points="534.557,-138.685 543.802,-133.51 533.347,-131.791 534.557,-138.685"/>
</g>
<!-- Node28 -->
<g id="node28" class="node"><title>Node28</title>
<g id="a_node28"><a xlink:href="a00168.html#ga0bf136abba24771c4a5a83ace52a76c1" target="_top" xlink:title="Checks if internal USARTx buffer is full. ">
<polygon fill="white" stroke="black" points="338,-638.5 338,-657.5 456,-657.5 456,-638.5 338,-638.5"/>
<text text-anchor="middle" x="397" y="-645.5" font-family="Helvetica,sans-Serif" font-size="10.00">TM_USART_BufferFull</text>
</a>
</g>
</g>
<!-- Node12&#45;&gt;Node28 -->
<g id="edge31" class="edge"><title>Node12&#45;&gt;Node28</title>
<path fill="none" stroke="midnightblue" d="M199.087,-361.705C202.054,-401.688 218.928,-555.014 306,-629 312.473,-634.5 320.141,-638.535 328.228,-641.475"/>
<polygon fill="midnightblue" stroke="midnightblue" points="327.28,-644.846 337.868,-644.448 329.343,-638.157 327.28,-644.846"/>
</g>
<!-- Node29 -->
<g id="node29" class="node"><title>Node29</title>
<g id="a_node29"><a xlink:href="a00168.html#ga6c8dfcc950305f511393240ea847b2ad" target="_top" xlink:title="Clears internal USART buffer. ">
<polygon fill="white" stroke="black" points="334.5,-600.5 334.5,-619.5 459.5,-619.5 459.5,-600.5 334.5,-600.5"/>
<text text-anchor="middle" x="397" y="-607.5" font-family="Helvetica,sans-Serif" font-size="10.00">TM_USART_ClearBuffer</text>
</a>
</g>
</g>
<!-- Node12&#45;&gt;Node29 -->
<g id="edge32" class="edge"><title>Node12&#45;&gt;Node29</title>
<path fill="none" stroke="midnightblue" d="M199.725,-361.617C204.898,-398.026 228.404,-528.496 306,-591 311.643,-595.546 318.113,-599.077 324.94,-601.81"/>
<polygon fill="midnightblue" stroke="midnightblue" points="323.831,-605.13 334.426,-605.063 326.102,-598.508 323.831,-605.13"/>
</g>
<!-- Node30 -->
<g id="node30" class="node"><title>Node30</title>
<g id="a_node30"><a xlink:href="a00168.html#gae2f5677e3f69e09a943fb3124c997656" target="_top" xlink:title="Sets custom character for TM_USART_Gets() function to detect when string ends. ">
<polygon fill="white" stroke="black" points="321.5,-551 321.5,-581 472.5,-581 472.5,-551 321.5,-551"/>
<text text-anchor="start" x="329.5" y="-569" font-family="Helvetica,sans-Serif" font-size="10.00">TM_USART_SetCustomString</text>
<text text-anchor="middle" x="397" y="-558" font-family="Helvetica,sans-Serif" font-size="10.00">EndCharacter</text>
</a>
</g>
</g>
<!-- Node12&#45;&gt;Node30 -->
<g id="edge33" class="edge"><title>Node12&#45;&gt;Node30</title>
<path fill="none" stroke="midnightblue" d="M201.402,-361.626C211.027,-391.936 244.819,-486.333 306,-536 310.951,-540.019 316.463,-543.509 322.253,-546.537"/>
<polygon fill="midnightblue" stroke="midnightblue" points="321.004,-549.818 331.541,-550.926 323.995,-543.489 321.004,-549.818"/>
</g>
<!-- Node31 -->
<g id="node31" class="node"><title>Node31</title>
<g id="a_node31"><a xlink:href="a00168.html#ga5cf7d7f613f4241fb77321ef9554f46b" target="_top" xlink:title="Callback for custom pins initialization for USARTx. ">
<polygon fill="white" stroke="black" points="306,-456.5 306,-475.5 488,-475.5 488,-456.5 306,-456.5"/>
<text text-anchor="middle" x="397" y="-463.5" font-family="Helvetica,sans-Serif" font-size="10.00">TM_USART_InitCustomPinsCallback</text>
</a>
</g>
</g>
<!-- Node12&#45;&gt;Node31 -->
<g id="edge34" class="edge"><title>Node12&#45;&gt;Node31</title>
<path fill="none" stroke="midnightblue" d="M207.252,-361.737C224.378,-380.194 264.306,-420.357 306,-442 314.934,-446.638 324.845,-450.439 334.73,-453.537"/>
<polygon fill="midnightblue" stroke="midnightblue" points="333.988,-456.966 344.568,-456.405 335.947,-450.246 333.988,-456.966"/>
</g>
<!-- Node13&#45;&gt;Node12 -->
<g id="edge13" class="edge"><title>Node13&#45;&gt;Node12</title>
<path fill="none" stroke="midnightblue" d="M370.714,-323.558C341.808,-331.211 293.578,-340.988 255.499,-347.215"/>
<polygon fill="midnightblue" stroke="midnightblue" points="254.882,-343.77 245.555,-348.796 255.981,-350.683 254.882,-343.77"/>
</g>
<!-- Node14 -->
<g id="node14" class="node"><title>Node14</title>
<g id="a_node14"><a xlink:href="a00029.html#ga93d8f031241bcdbe938d091a85295445" target="_top" xlink:title="Checks whether the specified USART interrupt has occurred or not. ">
<polygon fill="white" stroke="black" points="544.5,-266.5 544.5,-285.5 654.5,-285.5 654.5,-266.5 544.5,-266.5"/>
<text text-anchor="middle" x="599.5" y="-273.5" font-family="Helvetica,sans-Serif" font-size="10.00">USART_GetITStatus</text>
</a>
</g>
</g>
<!-- Node13&#45;&gt;Node14 -->
<g id="edge14" class="edge"><title>Node13&#45;&gt;Node14</title>
<path fill="none" stroke="midnightblue" d="M445.008,-305.091C472.878,-299.809 508.481,-293.061 538.38,-287.394"/>
<polygon fill="midnightblue" stroke="midnightblue" points="539.108,-290.819 548.281,-285.518 537.804,-283.941 539.108,-290.819"/>
</g>
<!-- Node13&#45;&gt;Node15 -->
<g id="edge15" class="edge"><title>Node13&#45;&gt;Node15</title>
<path fill="none" stroke="midnightblue" d="M406.065,-323.734C423.273,-344.919 463.969,-397.302 488,-447 511.13,-494.834 485.389,-524.499 524,-561 525.655,-562.565 527.42,-564.005 529.274,-565.331"/>
<polygon fill="midnightblue" stroke="midnightblue" points="527.511,-568.354 537.898,-570.44 531.079,-562.332 527.511,-568.354"/>
</g>
<!-- Node13&#45;&gt;Node16 -->
<g id="edge16" class="edge"><title>Node13&#45;&gt;Node16</title>
<path fill="none" stroke="midnightblue" d="M404.727,-323.919C428.411,-358.728 507.407,-473.824 524,-485 527.058,-487.06 530.324,-488.896 533.717,-490.534"/>
<polygon fill="midnightblue" stroke="midnightblue" points="532.366,-493.762 542.94,-494.42 535.084,-487.312 532.366,-493.762"/>
</g>
<!-- Node13&#45;&gt;Node17 -->
<g id="edge17" class="edge"><title>Node13&#45;&gt;Node17</title>
<path fill="none" stroke="midnightblue" d="M407.851,-323.671C427.945,-342.855 475.847,-385.866 524,-409 528.963,-411.384 534.261,-413.494 539.657,-415.355"/>
<polygon fill="midnightblue" stroke="midnightblue" points="538.835,-418.765 549.425,-418.442 540.944,-412.091 538.835,-418.765"/>
</g>
<!-- Node13&#45;&gt;Node18 -->
<g id="edge18" class="edge"><title>Node13&#45;&gt;Node18</title>
<path fill="none" stroke="midnightblue" d="M407.851,-304.329C427.945,-285.145 475.847,-242.134 524,-219 528.963,-216.616 534.261,-214.506 539.657,-212.645"/>
<polygon fill="midnightblue" stroke="midnightblue" points="540.944,-215.909 549.425,-209.558 538.835,-209.235 540.944,-215.909"/>
</g>
<!-- Node13&#45;&gt;Node19 -->
<g id="edge19" class="edge"><title>Node13&#45;&gt;Node19</title>
<path fill="none" stroke="midnightblue" d="M416.367,-323.543C440.536,-335.811 484.578,-357.176 524,-371 530.928,-373.429 538.318,-375.692 545.651,-377.747"/>
<polygon fill="midnightblue" stroke="midnightblue" points="545.002,-381.197 555.568,-380.417 546.822,-374.438 545.002,-381.197"/>
</g>
<!-- Node13&#45;&gt;Node20 -->
<g id="edge20" class="edge"><title>Node13&#45;&gt;Node20</title>
<path fill="none" stroke="midnightblue" d="M445.008,-322.909C472.878,-328.191 508.481,-334.939 538.38,-340.606"/>
<polygon fill="midnightblue" stroke="midnightblue" points="537.804,-344.059 548.281,-342.482 539.108,-337.181 537.804,-344.059"/>
</g>
<!-- Node13&#45;&gt;Node21 -->
<g id="edge21" class="edge"><title>Node13&#45;&gt;Node21</title>
<path fill="none" stroke="midnightblue" d="M445.008,-314C466.575,-314 492.773,-314 517.375,-314"/>
<polygon fill="midnightblue" stroke="midnightblue" points="517.436,-317.5 527.436,-314 517.436,-310.5 517.436,-317.5"/>
</g>
<!-- Node13&#45;&gt;Node22 -->
<g id="edge22" class="edge"><title>Node13&#45;&gt;Node22</title>
<path fill="none" stroke="midnightblue" d="M416.367,-304.457C440.536,-292.189 484.578,-270.824 524,-257 530.928,-254.571 538.318,-252.308 545.651,-250.253"/>
<polygon fill="midnightblue" stroke="midnightblue" points="546.822,-253.562 555.568,-247.583 545.002,-246.803 546.822,-253.562"/>
</g>
<!-- Node25&#45;&gt;Node24 -->
<g id="edge27" class="edge"><title>Node25&#45;&gt;Node24</title>
<path fill="none" stroke="midnightblue" d="M445.516,-81.4973C474.127,-78.786 510.749,-75.3155 540.989,-72.4499"/>
<polygon fill="midnightblue" stroke="midnightblue" points="541.353,-75.9312 550.978,-71.5033 540.693,-68.9624 541.353,-75.9312"/>
</g>
<!-- Node25&#45;&gt;Node26 -->
<g id="edge26" class="edge"><title>Node25&#45;&gt;Node26</title>
<path fill="none" stroke="midnightblue" d="M428.19,-76.495C453.648,-68.576 491.091,-57.1542 524,-48 532.319,-45.686 541.19,-43.3283 549.804,-41.0967"/>
<polygon fill="midnightblue" stroke="midnightblue" points="550.932,-44.4206 559.749,-38.5451 549.193,-37.6402 550.932,-44.4206"/>
</g>
<!-- Node25&#45;&gt;Node27 -->
<g id="edge28" class="edge"><title>Node25&#45;&gt;Node27</title>
<path fill="none" stroke="midnightblue" d="M445.516,-95.0055C473.295,-100.27 508.625,-106.966 538.334,-112.597"/>
<polygon fill="midnightblue" stroke="midnightblue" points="537.697,-116.039 548.174,-114.462 539.001,-109.161 537.697,-116.039"/>
</g>
<!-- Node31&#45;&gt;Node2 -->
<g id="edge49" class="edge"><title>Node31&#45;&gt;Node2</title>
<path fill="none" stroke="midnightblue" d="M414.733,-475.516C435.227,-488.062 469.492,-512.087 488,-542 523.618,-599.568 483.953,-635.42 524,-690 533.899,-703.491 549.175,-713.731 563.324,-721.008"/>
<polygon fill="midnightblue" stroke="midnightblue" points="561.861,-724.189 572.39,-725.367 564.894,-717.88 561.861,-724.189"/>
</g>
<!-- Node31&#45;&gt;Node6 -->
<g id="edge48" class="edge"><title>Node31&#45;&gt;Node6</title>
<path fill="none" stroke="midnightblue" d="M411.949,-475.674C430.688,-489.113 464.363,-514.855 488,-542 507.676,-564.597 505.092,-575.756 524,-599 541.012,-619.913 563.639,-641.017 579.476,-654.921"/>
<polygon fill="midnightblue" stroke="midnightblue" points="577.222,-657.598 587.074,-661.496 581.803,-652.305 577.222,-657.598"/>
</g>
<!-- Node31&#45;&gt;Node15 -->
<g id="edge37" class="edge"><title>Node31&#45;&gt;Node15</title>
<path fill="none" stroke="midnightblue" d="M407.851,-475.671C427.945,-494.855 475.847,-537.866 524,-561 528.963,-563.384 534.261,-565.494 539.657,-567.355"/>
<polygon fill="midnightblue" stroke="midnightblue" points="538.835,-570.765 549.425,-570.442 540.944,-564.091 538.835,-570.765"/>
</g>
<!-- Node31&#45;&gt;Node16 -->
<g id="edge38" class="edge"><title>Node31&#45;&gt;Node16</title>
<path fill="none" stroke="midnightblue" d="M448.336,-475.54C475.626,-480.712 509.542,-487.14 538.233,-492.578"/>
<polygon fill="midnightblue" stroke="midnightblue" points="537.667,-496.033 548.143,-494.456 538.97,-489.155 537.667,-496.033"/>
</g>
<!-- Node31&#45;&gt;Node17 -->
<g id="edge39" class="edge"><title>Node31&#45;&gt;Node17</title>
<path fill="none" stroke="midnightblue" d="M448.336,-456.46C475.626,-451.288 509.542,-444.86 538.233,-439.422"/>
<polygon fill="midnightblue" stroke="midnightblue" points="538.97,-442.845 548.143,-437.544 537.667,-435.967 538.97,-442.845"/>
</g>
<!-- Node31&#45;&gt;Node18 -->
<g id="edge40" class="edge"><title>Node31&#45;&gt;Node18</title>
<path fill="none" stroke="midnightblue" d="M406.065,-456.266C423.273,-435.081 463.969,-382.698 488,-333 511.13,-285.166 485.389,-255.501 524,-219 525.655,-217.435 527.42,-215.995 529.274,-214.669"/>
<polygon fill="midnightblue" stroke="midnightblue" points="531.079,-217.668 537.898,-209.56 527.511,-211.646 531.079,-217.668"/>
</g>
<!-- Node31&#45;&gt;Node19 -->
<g id="edge41" class="edge"><title>Node31&#45;&gt;Node19</title>
<path fill="none" stroke="midnightblue" d="M416.367,-456.457C440.536,-444.189 484.578,-422.824 524,-409 530.928,-406.571 538.318,-404.308 545.651,-402.253"/>
<polygon fill="midnightblue" stroke="midnightblue" points="546.822,-405.562 555.568,-399.583 545.002,-398.803 546.822,-405.562"/>
</g>
<!-- Node31&#45;&gt;Node20 -->
<g id="edge42" class="edge"><title>Node31&#45;&gt;Node20</title>
<path fill="none" stroke="midnightblue" d="M407.851,-456.329C427.945,-437.145 475.847,-394.134 524,-371 528.963,-368.616 534.261,-366.506 539.657,-364.645"/>
<polygon fill="midnightblue" stroke="midnightblue" points="540.944,-367.909 549.425,-361.558 538.835,-361.235 540.944,-367.909"/>
</g>
<!-- Node31&#45;&gt;Node21 -->
<g id="edge43" class="edge"><title>Node31&#45;&gt;Node21</title>
<path fill="none" stroke="midnightblue" d="M404.315,-456.199C420.801,-431.444 467.777,-366.023 524,-333 527.69,-330.833 531.625,-328.91 535.684,-327.205"/>
<polygon fill="midnightblue" stroke="midnightblue" points="537.182,-330.382 545.328,-323.608 534.736,-323.823 537.182,-330.382"/>
</g>
<!-- Node31&#45;&gt;Node22 -->
<g id="edge44" class="edge"><title>Node31&#45;&gt;Node22</title>
<path fill="none" stroke="midnightblue" d="M405.308,-456.322C421.369,-434.825 460.498,-381.185 488,-333 506.527,-300.54 495.152,-280.764 524,-257 526.028,-255.329 528.185,-253.803 530.439,-252.409"/>
<polygon fill="midnightblue" stroke="midnightblue" points="532.296,-255.388 539.545,-247.662 529.06,-249.181 532.296,-255.388"/>
</g>
<!-- Node31&#45;&gt;Node31 -->
<g id="edge36" class="edge"><title>Node31&#45;&gt;Node31</title>
<path fill="none" stroke="midnightblue" d="M366.482,-475.757C351.636,-484.565 361.809,-494 397,-494 421.744,-494 434.119,-489.336 434.125,-483.504"/>
<polygon fill="midnightblue" stroke="midnightblue" points="436.67,-481.094 427.518,-475.757 431.344,-485.637 436.67,-481.094"/>
</g>
<!-- Node32 -->
<g id="node32" class="node"><title>Node32</title>
<g id="a_node32"><a xlink:href="a00715.html#gabc8eafcb23a81935b70b9046f266f5aa" target="_top" xlink:title="Initialize GPIO pins for alternate port operation. ">
<polygon fill="white" stroke="black" points="539.5,-532.5 539.5,-551.5 659.5,-551.5 659.5,-532.5 539.5,-532.5"/>
<text text-anchor="middle" x="599.5" y="-539.5" font-family="Helvetica,sans-Serif" font-size="10.00">MD_GPIO_InitAlternate</text>
</a>
</g>
</g>
<!-- Node31&#45;&gt;Node32 -->
<g id="edge35" class="edge"><title>Node31&#45;&gt;Node32</title>
<path fill="none" stroke="midnightblue" d="M416.367,-475.543C440.536,-487.811 484.578,-509.176 524,-523 530.928,-525.429 538.318,-527.692 545.651,-529.747"/>
<polygon fill="midnightblue" stroke="midnightblue" points="545.002,-533.197 555.568,-532.417 546.822,-526.438 545.002,-533.197"/>
</g>
<!-- Node33 -->
<g id="node33" class="node"><title>Node33</title>
<g id="a_node33"><a xlink:href="a00029.html#ga2f8e1ce72da21b6539d8e1f299ec3b0d" target="_top" xlink:title="Deinitializes the USARTx peripheral registers to their default reset values. ">
<polygon fill="white" stroke="black" points="558,-456.5 558,-475.5 641,-475.5 641,-456.5 558,-456.5"/>
<text text-anchor="middle" x="599.5" y="-463.5" font-family="Helvetica,sans-Serif" font-size="10.00">USART_DeInit</text>
</a>
</g>
</g>
<!-- Node31&#45;&gt;Node33 -->
<g id="edge45" class="edge"><title>Node31&#45;&gt;Node33</title>
<path fill="none" stroke="midnightblue" d="M488.279,-466C508.706,-466 529.69,-466 547.795,-466"/>
<polygon fill="midnightblue" stroke="midnightblue" points="547.815,-469.5 557.814,-466 547.814,-462.5 547.815,-469.5"/>
</g>
<!-- Node34 -->
<g id="node34" class="node"><title>Node34</title>
<g id="a_node34"><a xlink:href="a00020.html#gad94553850ac07106a27ee85fec37efdf" target="_top" xlink:title="Forces or releases High Speed APB (APB2) peripheral reset. ">
<polygon fill="white" stroke="black" points="711,-475.5 711,-494.5 856,-494.5 856,-475.5 711,-475.5"/>
<text text-anchor="middle" x="783.5" y="-482.5" font-family="Helvetica,sans-Serif" font-size="10.00">RCC_APB2PeriphResetCmd</text>
</a>
</g>
</g>
<!-- Node33&#45;&gt;Node34 -->
<g id="edge46" class="edge"><title>Node33&#45;&gt;Node34</title>
<path fill="none" stroke="midnightblue" d="M641.344,-470.264C658.907,-472.097 680.095,-474.309 700.653,-476.456"/>
<polygon fill="midnightblue" stroke="midnightblue" points="700.367,-479.945 710.676,-477.502 701.093,-472.982 700.367,-479.945"/>
</g>
<!-- Node35 -->
<g id="node35" class="node"><title>Node35</title>
<g id="a_node35"><a xlink:href="a00020.html#gab197ae4369c10b92640a733b40ed2801" target="_top" xlink:title="Forces or releases Low Speed APB (APB1) peripheral reset. ">
<polygon fill="white" stroke="black" points="711,-437.5 711,-456.5 856,-456.5 856,-437.5 711,-437.5"/>
<text text-anchor="middle" x="783.5" y="-444.5" font-family="Helvetica,sans-Serif" font-size="10.00">RCC_APB1PeriphResetCmd</text>
</a>
</g>
</g>
<!-- Node33&#45;&gt;Node35 -->
<g id="edge47" class="edge"><title>Node33&#45;&gt;Node35</title>
<path fill="none" stroke="midnightblue" d="M641.344,-461.736C658.907,-459.903 680.095,-457.691 700.653,-455.544"/>
<polygon fill="midnightblue" stroke="midnightblue" points="701.093,-459.018 710.676,-454.498 700.367,-452.055 701.093,-459.018"/>
</g>
</g>
</svg>
        <g id="navigator" transform="translate(0 0)" fill="#404254">
                <rect fill="#f2f5e9" fill-opacity="0.5" stroke="#606060" stroke-width=".5" x="0" y="0" width="60" height="60"/>
                <use id="zoomplus" xlink:href="#zoomPlus" x="17" y="9" onmousedown="handleZoom(evt,'in')"/>
                <use id="zoomminus" xlink:href="#zoomMin" x="42" y="9" onmousedown="handleZoom(evt,'out')"/>
                <use id="reset" xlink:href="#resetDef" x="30" y="36" onmousedown="handleReset()"/>
                <g id="arrowUp" xlink:href="#dirArrow" transform="translate(30 24)" onmousedown="handlePan(0,-1)">
                  <use xlink:href="#rim" fill="#404040">
                        <set attributeName="fill" to="#808080" begin="arrowUp.mouseover" end="arrowUp.mouseout"/>
                  </use>
                  <path fill="none" stroke="white" stroke-width="1.5" d="M0,-3.0v7 M-2.5,-0.5L0,-3.0L2.5,-0.5"/>
                </g>
                <g id="arrowRight" xlink:href="#dirArrow" transform="rotate(90) translate(36 -43)" onmousedown="handlePan(1,0)">
                  <use xlink:href="#rim" fill="#404040">
                        <set attributeName="fill" to="#808080" begin="arrowRight.mouseover" end="arrowRight.mouseout"/>
                  </use>
                  <path fill="none" stroke="white" stroke-width="1.5" d="M0,-3.0v7 M-2.5,-0.5L0,-3.0L2.5,-0.5"/>
                </g>
                <g id="arrowDown" xlink:href="#dirArrow" transform="rotate(180) translate(-30 -48)" onmousedown="handlePan(0,1)">
                  <use xlink:href="#rim" fill="#404040">
                        <set attributeName="fill" to="#808080" begin="arrowDown.mouseover" end="arrowDown.mouseout"/>
                  </use>
                  <path fill="none" stroke="white" stroke-width="1.5" d="M0,-3.0v7 M-2.5,-0.5L0,-3.0L2.5,-0.5"/>
                </g>
                <g id="arrowLeft" xlink:href="#dirArrow" transform="rotate(270) translate(-36 17)" onmousedown="handlePan(-1,0)">
                  <use xlink:href="#rim" fill="#404040">
                        <set attributeName="fill" to="#808080" begin="arrowLeft.mouseover" end="arrowLeft.mouseout"/>
                  </use>
                  <path fill="none" stroke="white" stroke-width="1.5" d="M0,-3.0v7 M-2.5,-0.5L0,-3.0L2.5,-0.5"/>
                </g>
        </g>
        <svg viewBox="0 0 15 15" width="100%" height="30px" preserveAspectRatio="xMaxYMin meet">
         <g id="arrow_out" transform="scale(0.3 0.3)">
          <a xlink:href="a00168_ga70bed9fb6612cb572a8c10e148404344_cgraph_org.svg" target="_base">
           <rect id="button" ry="5" rx="5" y="6" x="6" height="38" width="38"
                fill="#f2f5e9" fill-opacity="0.5" stroke="#606060" stroke-width="1.0"/>
           <path id="arrow"
             d="M 11.500037,31.436501 C 11.940474,20.09759 22.043105,11.32322 32.158766,21.979434 L 37.068811,17.246167 C 37.068811,17.246167 37.088388,32 37.088388,32 L 22.160133,31.978069 C 22.160133,31.978069 26.997745,27.140456 26.997745,27.140456 C 18.528582,18.264221 13.291696,25.230495 11.500037,31.436501 z"
             style="fill:#404040;"/>
          </a>
         </g>
        </svg>
</svg>
