<?xml version="1.0" encoding="UTF-8" standalone="no"?>
<!DOCTYPE svg PUBLIC "-//W3C//DTD SVG 1.1//EN"
 "http://www.w3.org/Graphics/SVG/1.1/DTD/svg11.dtd">
<!-- Generated by graphviz version 2.38.0 (20140413.2041)
 -->
<!-- Title: MDB_GPIO_Off Pages: 1 -->
<svg width="417pt" height="47pt"
 viewBox="0.00 0.00 417.00 47.00" xmlns="http://www.w3.org/2000/svg" xmlns:xlink="http://www.w3.org/1999/xlink">
<g id="graph0" class="graph" transform="scale(1 1) rotate(0) translate(4 43)">
<title>MDB_GPIO_Off</title>
<polygon fill="white" stroke="none" points="-4,4 -4,-43 413,-43 413,4 -4,4"/>
<!-- Node1 -->
<g id="node1" class="node"><title>Node1</title>
<polygon fill="#bfbfbf" stroke="black" points="0,-19.5 0,-38.5 88,-38.5 88,-19.5 0,-19.5"/>
<text text-anchor="middle" x="44" y="-26.5" font-family="Helvetica,sans-Serif" font-size="10.00">MDB_GPIO_Off</text>
</g>
<!-- Node2 -->
<g id="node2" class="node"><title>Node2</title>
<g id="a_node2"><a xlink:href="a00123.html#gad45b8278807ffed1f22e03d86d35bf90" target="_top" xlink:title="MDB_GPIO_Init">
<polygon fill="white" stroke="black" points="247,-19.5 247,-38.5 335,-38.5 335,-19.5 247,-19.5"/>
<text text-anchor="middle" x="291" y="-26.5" font-family="Helvetica,sans-Serif" font-size="10.00">MDB_GPIO_Init</text>
</a>
</g>
</g>
<!-- Node1&#45;&gt;Node2 -->
<g id="edge1" class="edge"><title>Node1&#45;&gt;Node2</title>
<path fill="none" stroke="midnightblue" d="M98.2833,-29C142.765,-29 205.371,-29 246.784,-29"/>
<polygon fill="midnightblue" stroke="midnightblue" points="98.2371,-25.5001 88.2371,-29 98.2371,-32.5001 98.2371,-25.5001"/>
</g>
<!-- Node4 -->
<g id="node4" class="node"><title>Node4</title>
<g id="a_node4"><a xlink:href="a00123.html#ga38f77690ee51d885425fa1fa05296289" target="_top" xlink:title="MDB_GPIO_On">
<polygon fill="white" stroke="black" points="124,-0.5 124,-19.5 211,-19.5 211,-0.5 124,-0.5"/>
<text text-anchor="middle" x="167.5" y="-7.5" font-family="Helvetica,sans-Serif" font-size="10.00">MDB_GPIO_On</text>
</a>
</g>
</g>
<!-- Node1&#45;&gt;Node4 -->
<g id="edge3" class="edge"><title>Node1&#45;&gt;Node4</title>
<path fill="none" stroke="midnightblue" d="M98.1416,-20.6898C106.746,-19.3443 115.557,-17.9665 123.869,-16.6665"/>
<polygon fill="midnightblue" stroke="midnightblue" points="97.5176,-17.2447 88.1785,-22.2478 98.5992,-24.1607 97.5176,-17.2447"/>
</g>
<!-- Node3 -->
<g id="node3" class="node"><title>Node3</title>
<g id="a_node3"><a xlink:href="a00144.html#ga840291bc02cba5474a4cb46a9b9566fe" target="_top" xlink:title="Main function entry. ">
<polygon fill="white" stroke="black" points="371,-19.5 371,-38.5 409,-38.5 409,-19.5 371,-19.5"/>
<text text-anchor="middle" x="390" y="-26.5" font-family="Helvetica,sans-Serif" font-size="10.00">main</text>
</a>
</g>
</g>
<!-- Node2&#45;&gt;Node3 -->
<g id="edge2" class="edge"><title>Node2&#45;&gt;Node3</title>
<path fill="none" stroke="midnightblue" d="M345.149,-29C354.377,-29 363.379,-29 370.801,-29"/>
<polygon fill="midnightblue" stroke="midnightblue" points="345.111,-25.5001 335.111,-29 345.11,-32.5001 345.111,-25.5001"/>
</g>
<!-- Node4&#45;&gt;Node2 -->
<g id="edge4" class="edge"><title>Node4&#45;&gt;Node2</title>
<path fill="none" stroke="midnightblue" d="M221.48,-18.285C229.915,-19.6041 238.554,-20.9549 246.731,-22.2336"/>
<polygon fill="midnightblue" stroke="midnightblue" points="221.757,-14.7858 211.336,-16.6987 220.676,-21.7018 221.757,-14.7858"/>
</g>
</g>
</svg>
