<?xml version="1.0" encoding="UTF-8" standalone="no"?>
<!DOCTYPE svg PUBLIC "-//W3C//DTD SVG 1.1//EN"
 "http://www.w3.org/Graphics/SVG/1.1/DTD/svg11.dtd">
<!-- Generated by graphviz version 2.38.0 (20140413.2041)
 -->
<!-- Title: irq_callbacks.h Pages: 1 -->
<svg width="2199pt" height="308pt"
 viewBox="0.00 0.00 2199.18 308.00" xmlns="http://www.w3.org/2000/svg" xmlns:xlink="http://www.w3.org/1999/xlink">
<g id="graph0" class="graph" transform="scale(1 1) rotate(0) translate(4 304)">
<title>irq_callbacks.h</title>
<polygon fill="white" stroke="none" points="-4,4 -4,-304 2195.18,-304 2195.18,4 -4,4"/>
<!-- Node1 -->
<g id="node1" class="node"><title>Node1</title>
<polygon fill="#bfbfbf" stroke="black" points="1409.68,-280.5 1409.68,-299.5 1491.68,-299.5 1491.68,-280.5 1409.68,-280.5"/>
<text text-anchor="middle" x="1450.68" y="-287.5" font-family="Helvetica,sans-Serif" font-size="10.00">irq_callbacks.h</text>
</g>
<!-- Node2 -->
<g id="node2" class="node"><title>Node2</title>
<g id="a_node2"><a xlink:href="a00025.html" target="_top" xlink:title="Main header definition. ">
<polygon fill="white" stroke="black" points="1427.68,-224.5 1427.68,-243.5 1473.68,-243.5 1473.68,-224.5 1427.68,-224.5"/>
<text text-anchor="middle" x="1450.68" y="-231.5" font-family="Helvetica,sans-Serif" font-size="10.00">main.h</text>
</a>
</g>
</g>
<!-- Node1&#45;&gt;Node2 -->
<g id="edge1" class="edge"><title>Node1&#45;&gt;Node2</title>
<path fill="none" stroke="midnightblue" d="M1445.51,-280.083C1444,-272.927 1443.57,-262.635 1444.22,-253.691"/>
<polygon fill="midnightblue" stroke="midnightblue" points="1447.69,-254.126 1445.55,-243.751 1440.75,-253.2 1447.69,-254.126"/>
</g>
<!-- Node8 -->
<g id="node8" class="node"><title>Node8</title>
<g id="a_node8"><a xlink:href="a00019.html" target="_top" xlink:title="Global defines include file. ">
<polygon fill="white" stroke="black" points="1208.68,-0.5 1208.68,-19.5 1264.68,-19.5 1264.68,-0.5 1208.68,-0.5"/>
<text text-anchor="middle" x="1236.68" y="-7.5" font-family="Helvetica,sans-Serif" font-size="10.00">globals.h</text>
</a>
</g>
</g>
<!-- Node1&#45;&gt;Node8 -->
<g id="edge85" class="edge"><title>Node1&#45;&gt;Node8</title>
<path fill="none" stroke="midnightblue" d="M1409.49,-289.576C1340.69,-288.026 1203.8,-273.667 1141.68,-188 1136.46,-180.804 1136.43,-175.176 1141.68,-168 1172.78,-125.446 1223.57,-174.554 1254.68,-132 1277.15,-101.258 1259.31,-54.2237 1246.61,-28.7988"/>
<polygon fill="midnightblue" stroke="midnightblue" points="1249.53,-26.8326 1241.77,-19.6196 1243.34,-30.0977 1249.53,-26.8326"/>
</g>
<!-- Node24 -->
<g id="node24" class="node"><title>Node24</title>
<g id="a_node24"><a xlink:href="a00014.html" target="_top" xlink:title="Provides DMA related configuration and access functions for ADC and DAC. ">
<polygon fill="white" stroke="black" points="1723.68,-112.5 1723.68,-131.5 1809.68,-131.5 1809.68,-112.5 1723.68,-112.5"/>
<text text-anchor="middle" x="1766.68" y="-119.5" font-family="Helvetica,sans-Serif" font-size="10.00">adc_dac_dma.h</text>
</a>
</g>
</g>
<!-- Node1&#45;&gt;Node24 -->
<g id="edge86" class="edge"><title>Node1&#45;&gt;Node24</title>
<path fill="none" stroke="midnightblue" d="M1491.82,-283.636C1577.39,-271.54 1769.72,-239.143 1807.68,-188 1819.87,-171.577 1802.76,-151.518 1787.07,-138.065"/>
<polygon fill="midnightblue" stroke="midnightblue" points="1789.14,-135.237 1779.16,-131.686 1784.75,-140.687 1789.14,-135.237"/>
</g>
<!-- Node2&#45;&gt;Node1 -->
<g id="edge79" class="edge"><title>Node2&#45;&gt;Node1</title>
<path fill="none" stroke="midnightblue" d="M1455.81,-243.751C1457.34,-250.858 1457.78,-261.136 1457.15,-270.101"/>
<polygon fill="midnightblue" stroke="midnightblue" points="1453.67,-269.713 1455.84,-280.083 1460.61,-270.622 1453.67,-269.713"/>
</g>
<!-- Node3 -->
<g id="node3" class="node"><title>Node3</title>
<polygon fill="white" stroke="#bfbfbf" points="1866.68,-0.5 1866.68,-19.5 1912.68,-19.5 1912.68,-0.5 1866.68,-0.5"/>
<text text-anchor="middle" x="1889.68" y="-7.5" font-family="Helvetica,sans-Serif" font-size="10.00">stdio.h</text>
</g>
<!-- Node2&#45;&gt;Node3 -->
<g id="edge2" class="edge"><title>Node2&#45;&gt;Node3</title>
<path fill="none" stroke="midnightblue" d="M1454.67,-224.396C1468.91,-194.85 1520.35,-97.0919 1595.68,-56 1640.21,-31.7054 1789.58,-18.1948 1856.62,-13.2262"/>
<polygon fill="midnightblue" stroke="midnightblue" points="1856.92,-16.7136 1866.64,-12.5017 1856.42,-9.73176 1856.92,-16.7136"/>
</g>
<!-- Node4 -->
<g id="node4" class="node"><title>Node4</title>
<polygon fill="white" stroke="#bfbfbf" points="1998.68,-0.5 1998.68,-19.5 2046.68,-19.5 2046.68,-0.5 1998.68,-0.5"/>
<text text-anchor="middle" x="2022.68" y="-7.5" font-family="Helvetica,sans-Serif" font-size="10.00">stdlib.h</text>
</g>
<!-- Node2&#45;&gt;Node4 -->
<g id="edge3" class="edge"><title>Node2&#45;&gt;Node4</title>
<path fill="none" stroke="midnightblue" d="M1473.92,-231.892C1555.35,-227.831 1827.3,-212.695 1910.68,-188 2007.62,-159.29 2059.58,-164.38 2108.68,-76 2123.13,-49.9834 2086.44,-31.2075 2056.57,-20.7156"/>
<polygon fill="midnightblue" stroke="midnightblue" points="2057.38,-17.2966 2046.79,-17.4766 2055.18,-23.9419 2057.38,-17.2966"/>
</g>
<!-- Node5 -->
<g id="node5" class="node"><title>Node5</title>
<polygon fill="white" stroke="#bfbfbf" points="2142.18,-0.5 2142.18,-19.5 2191.18,-19.5 2191.18,-0.5 2142.18,-0.5"/>
<text text-anchor="middle" x="2166.68" y="-7.5" font-family="Helvetica,sans-Serif" font-size="10.00">string.h</text>
</g>
<!-- Node2&#45;&gt;Node5 -->
<g id="edge4" class="edge"><title>Node2&#45;&gt;Node5</title>
<path fill="none" stroke="midnightblue" d="M1473.79,-233.597C1546.73,-234.926 1778.1,-234.899 1961.68,-188 2021.84,-172.63 2042.52,-172.393 2089.68,-132 2123.75,-102.817 2148,-54.775 2159.38,-28.8764"/>
<polygon fill="midnightblue" stroke="midnightblue" points="2162.66,-30.1127 2163.34,-19.5399 2156.22,-27.3785 2162.66,-30.1127"/>
</g>
<!-- Node6 -->
<g id="node6" class="node"><title>Node6</title>
<polygon fill="white" stroke="#bfbfbf" points="1150.68,-168.5 1150.68,-187.5 1218.68,-187.5 1218.68,-168.5 1150.68,-168.5"/>
<text text-anchor="middle" x="1184.68" y="-175.5" font-family="Helvetica,sans-Serif" font-size="10.00">stdint&#45;gcc.h</text>
</g>
<!-- Node2&#45;&gt;Node6 -->
<g id="edge5" class="edge"><title>Node2&#45;&gt;Node6</title>
<path fill="none" stroke="midnightblue" d="M1427.54,-228.302C1383.3,-219.322 1286.06,-199.582 1228.95,-187.988"/>
<polygon fill="midnightblue" stroke="midnightblue" points="1229.62,-184.551 1219.12,-185.992 1228.22,-191.412 1229.62,-184.551"/>
</g>
<!-- Node7 -->
<g id="node7" class="node"><title>Node7</title>
<g id="a_node7"><a xlink:href="a00016.html" target="_top" xlink:title="Platform/Compiler dependent definitions. ">
<polygon fill="white" stroke="black" points="31.178,-56.5 31.178,-75.5 96.178,-75.5 96.178,-56.5 31.178,-56.5"/>
<text text-anchor="middle" x="63.678" y="-63.5" font-family="Helvetica,sans-Serif" font-size="10.00">attributes.h</text>
</a>
</g>
</g>
<!-- Node2&#45;&gt;Node7 -->
<g id="edge6" class="edge"><title>Node2&#45;&gt;Node7</title>
<path fill="none" stroke="midnightblue" d="M1427.65,-232.779C1308.02,-231.261 745.752,-219.568 296.678,-132 225.4,-118.101 144.105,-93.3216 98.847,-78.7022"/>
<polygon fill="midnightblue" stroke="midnightblue" points="99.809,-75.3346 89.2167,-75.5686 97.643,-81.9911 99.809,-75.3346"/>
</g>
<!-- Node2&#45;&gt;Node8 -->
<g id="edge7" class="edge"><title>Node2&#45;&gt;Node8</title>
<path fill="none" stroke="midnightblue" d="M1451.29,-224.167C1452.78,-195.518 1453.39,-104.249 1405.68,-56 1371.33,-21.2667 1313.42,-12.4165 1275.11,-10.6352"/>
<polygon fill="midnightblue" stroke="midnightblue" points="1274.97,-7.12895 1264.87,-10.3045 1274.75,-14.1253 1274.97,-7.12895"/>
</g>
<!-- Node9 -->
<g id="node9" class="node"><title>Node9</title>
<g id="a_node9"><a xlink:href="a00031.html" target="_top" xlink:title="Provides SysTick&#45;Timer driven delay functions. ">
<polygon fill="white" stroke="black" points="703.178,-56.5 703.178,-75.5 810.178,-75.5 810.178,-56.5 703.178,-56.5"/>
<text text-anchor="middle" x="756.678" y="-63.5" font-family="Helvetica,sans-Serif" font-size="10.00">md_stm32f4_delay.h</text>
</a>
</g>
</g>
<!-- Node2&#45;&gt;Node9 -->
<g id="edge8" class="edge"><title>Node2&#45;&gt;Node9</title>
<path fill="none" stroke="midnightblue" d="M1427.62,-226.624C1397.41,-218.19 1342.87,-202.675 1296.68,-188 1223.67,-164.807 1204.72,-160.636 1133.68,-132 1114.13,-124.121 1110.91,-117.919 1090.68,-112 1065.37,-104.594 910.031,-85.2983 820.379,-74.5344"/>
<polygon fill="midnightblue" stroke="midnightblue" points="820.663,-71.0435 810.318,-73.3291 819.831,-77.9938 820.663,-71.0435"/>
</g>
<!-- Node12 -->
<g id="node12" class="node"><title>Node12</title>
<g id="a_node12"><a xlink:href="a00033.html" target="_top" xlink:title="Definitions to extend board support for STM32F429i&#45;DISCO and equivalent boards. ">
<polygon fill="white" stroke="black" points="685.178,-112.5 685.178,-131.5 792.178,-131.5 792.178,-112.5 685.178,-112.5"/>
<text text-anchor="middle" x="738.678" y="-119.5" font-family="Helvetica,sans-Serif" font-size="10.00">md_stm32f4_disco.h</text>
</a>
</g>
</g>
<!-- Node2&#45;&gt;Node12 -->
<g id="edge12" class="edge"><title>Node2&#45;&gt;Node12</title>
<path fill="none" stroke="midnightblue" d="M1427.41,-230.289C1372.06,-223.764 1228.25,-206.36 1108.68,-188 996.545,-170.782 865.972,-146.953 793.787,-133.446"/>
<polygon fill="midnightblue" stroke="midnightblue" points="794.044,-129.933 783.57,-131.53 792.754,-136.813 794.044,-129.933"/>
</g>
<!-- Node14 -->
<g id="node14" class="node"><title>Node14</title>
<g id="a_node14"><a xlink:href="a00037_source.html" target="_top" xlink:title="md_stm32f4_timer.h">
<polygon fill="white" stroke="black" points="502.678,-56.5 502.678,-75.5 608.678,-75.5 608.678,-56.5 502.678,-56.5"/>
<text text-anchor="middle" x="555.678" y="-63.5" font-family="Helvetica,sans-Serif" font-size="10.00">md_stm32f4_timer.h</text>
</a>
</g>
</g>
<!-- Node2&#45;&gt;Node14 -->
<g id="edge17" class="edge"><title>Node2&#45;&gt;Node14</title>
<path fill="none" stroke="midnightblue" d="M1427.67,-230.451C1376.17,-224.569 1247.78,-208.935 1141.68,-188 1105.72,-180.906 1097.38,-176.29 1061.68,-168 946.113,-141.165 917.035,-135.163 800.678,-112 737.19,-99.3613 664.183,-86.1175 614.495,-77.2973"/>
<polygon fill="midnightblue" stroke="midnightblue" points="615.025,-73.8369 604.568,-75.539 613.804,-80.7296 615.025,-73.8369"/>
</g>
<!-- Node15 -->
<g id="node15" class="node"><title>Node15</title>
<g id="a_node15"><a xlink:href="a00059_source.html" target="_top" xlink:title="tm_stm32f4_pwm.h">
<polygon fill="white" stroke="black" points="1143.18,-112.5 1143.18,-131.5 1246.18,-131.5 1246.18,-112.5 1143.18,-112.5"/>
<text text-anchor="middle" x="1194.68" y="-119.5" font-family="Helvetica,sans-Serif" font-size="10.00">tm_stm32f4_pwm.h</text>
</a>
</g>
</g>
<!-- Node2&#45;&gt;Node15 -->
<g id="edge20" class="edge"><title>Node2&#45;&gt;Node15</title>
<path fill="none" stroke="midnightblue" d="M1430.59,-224.368C1385.63,-205.051 1276.74,-158.259 1224.11,-135.648"/>
<polygon fill="midnightblue" stroke="midnightblue" points="1225.24,-132.324 1214.67,-131.591 1222.48,-138.755 1225.24,-132.324"/>
</g>
<!-- Node18 -->
<g id="node18" class="node"><title>Node18</title>
<g id="a_node18"><a xlink:href="a00065_source.html" target="_top" xlink:title="tm_stm32f4_usart.h">
<polygon fill="white" stroke="black" points="305.678,-112.5 305.678,-131.5 409.678,-131.5 409.678,-112.5 305.678,-112.5"/>
<text text-anchor="middle" x="357.678" y="-119.5" font-family="Helvetica,sans-Serif" font-size="10.00">tm_stm32f4_usart.h</text>
</a>
</g>
</g>
<!-- Node2&#45;&gt;Node18 -->
<g id="edge31" class="edge"><title>Node2&#45;&gt;Node18</title>
<path fill="none" stroke="midnightblue" d="M1427.3,-230.817C1358.9,-224.415 1153.24,-205.069 982.678,-188 776.624,-167.379 532.509,-141.601 420.071,-129.651"/>
<polygon fill="midnightblue" stroke="midnightblue" points="420.245,-126.15 409.931,-128.573 419.504,-133.111 420.245,-126.15"/>
</g>
<!-- Node21 -->
<g id="node21" class="node"><title>Node21</title>
<polygon fill="white" stroke="#bfbfbf" points="1591.68,-168.5 1591.68,-187.5 1659.68,-187.5 1659.68,-168.5 1591.68,-168.5"/>
<text text-anchor="middle" x="1625.68" y="-175.5" font-family="Helvetica,sans-Serif" font-size="10.00">core_cm4.h</text>
</g>
<!-- Node2&#45;&gt;Node21 -->
<g id="edge39" class="edge"><title>Node2&#45;&gt;Node21</title>
<path fill="none" stroke="midnightblue" d="M1473.92,-225.829C1503.11,-216.821 1553.58,-201.248 1588.24,-190.551"/>
<polygon fill="midnightblue" stroke="midnightblue" points="1589.49,-193.83 1598.01,-187.537 1587.42,-187.141 1589.49,-193.83"/>
</g>
<!-- Node22 -->
<g id="node22" class="node"><title>Node22</title>
<polygon fill="white" stroke="#bfbfbf" points="181.678,-168.5 181.678,-187.5 249.678,-187.5 249.678,-168.5 181.678,-168.5"/>
<text text-anchor="middle" x="215.678" y="-175.5" font-family="Helvetica,sans-Serif" font-size="10.00">arm_math.h</text>
</g>
<!-- Node2&#45;&gt;Node22 -->
<g id="edge40" class="edge"><title>Node2&#45;&gt;Node22</title>
<path fill="none" stroke="midnightblue" d="M1427.6,-232.59C1283.12,-229.954 501.41,-214.646 263.678,-188 262.422,-187.859 261.15,-187.704 259.867,-187.537"/>
<polygon fill="midnightblue" stroke="midnightblue" points="260.34,-184.069 249.934,-186.058 259.309,-190.993 260.34,-184.069"/>
</g>
<!-- Node23 -->
<g id="node23" class="node"><title>Node23</title>
<g id="a_node23"><a xlink:href="a00012.html" target="_top" xlink:title="Controlling beam and primary actuators. ">
<polygon fill="white" stroke="black" points="1734.18,-168.5 1734.18,-187.5 1799.18,-187.5 1799.18,-168.5 1734.18,-168.5"/>
<text text-anchor="middle" x="1766.68" y="-175.5" font-family="Helvetica,sans-Serif" font-size="10.00">actuators.h</text>
</a>
</g>
</g>
<!-- Node2&#45;&gt;Node23 -->
<g id="edge41" class="edge"><title>Node2&#45;&gt;Node23</title>
<path fill="none" stroke="midnightblue" d="M1473.74,-229.329C1520.29,-221.878 1628.8,-204.301 1719.68,-188 1721.13,-187.739 1722.62,-187.47 1724.11,-187.197"/>
<polygon fill="midnightblue" stroke="midnightblue" points="1724.89,-190.613 1734.08,-185.345 1723.61,-183.73 1724.89,-190.613"/>
</g>
<!-- Node2&#45;&gt;Node24 -->
<g id="edge73" class="edge"><title>Node2&#45;&gt;Node24</title>
<path fill="none" stroke="midnightblue" d="M1473.73,-230.564C1513.32,-226.189 1595.28,-214.817 1659.68,-188 1690.35,-175.226 1721.63,-152.423 1742.66,-137.506"/>
<polygon fill="midnightblue" stroke="midnightblue" points="1744.84,-140.254 1751.02,-131.647 1740.82,-134.523 1744.84,-140.254"/>
</g>
<!-- Node26 -->
<g id="node26" class="node"><title>Node26</title>
<g id="a_node26"><a xlink:href="a00048.html" target="_top" xlink:title="PID compensator implementation. ">
<polygon fill="white" stroke="black" points="1992.68,-56.5 1992.68,-75.5 2030.68,-75.5 2030.68,-56.5 1992.68,-56.5"/>
<text text-anchor="middle" x="2011.68" y="-63.5" font-family="Helvetica,sans-Serif" font-size="10.00">pid.h</text>
</a>
</g>
</g>
<!-- Node2&#45;&gt;Node26 -->
<g id="edge81" class="edge"><title>Node2&#45;&gt;Node26</title>
<path fill="none" stroke="midnightblue" d="M1473.96,-231.802C1531.36,-228.475 1683.99,-217.353 1807.68,-188 1880.17,-170.797 1906.27,-176.956 1965.68,-132 1982.16,-119.529 1995.08,-99.4561 2002.98,-84.9134"/>
<polygon fill="midnightblue" stroke="midnightblue" points="2006.16,-86.383 2007.62,-75.8902 1999.93,-83.1781 2006.16,-86.383"/>
</g>
<!-- Node30 -->
<g id="node30" class="node"><title>Node30</title>
<g id="a_node30"><a xlink:href="a00021.html" target="_top" xlink:title="Provides tools and helper functions. ">
<polygon fill="white" stroke="black" points="2049.18,-56.5 2049.18,-75.5 2100.18,-75.5 2100.18,-56.5 2049.18,-56.5"/>
<text text-anchor="middle" x="2074.68" y="-63.5" font-family="Helvetica,sans-Serif" font-size="10.00">helper.h</text>
</a>
</g>
</g>
<!-- Node2&#45;&gt;Node30 -->
<g id="edge84" class="edge"><title>Node2&#45;&gt;Node30</title>
<path fill="none" stroke="midnightblue" d="M1473.76,-233.091C1537.64,-232.797 1721.66,-228.24 1867.68,-188 1925.2,-172.149 1938.55,-162.755 1989.68,-132 2014.48,-117.076 2040.59,-96.2356 2057.22,-82.2116"/>
<polygon fill="midnightblue" stroke="midnightblue" points="2059.66,-84.7245 2064.99,-75.5668 2055.12,-79.4031 2059.66,-84.7245"/>
</g>
<!-- Node32 -->
<g id="node32" class="node"><title>Node32</title>
<g id="a_node32"><a xlink:href="a00042_source.html" target="_top" xlink:title="mdb_gpio.h">
<polygon fill="white" stroke="black" points="1316.18,-112.5 1316.18,-131.5 1383.18,-131.5 1383.18,-112.5 1316.18,-112.5"/>
<text text-anchor="middle" x="1349.68" y="-119.5" font-family="Helvetica,sans-Serif" font-size="10.00">mdb_gpio.h</text>
</a>
</g>
</g>
<!-- Node2&#45;&gt;Node32 -->
<g id="edge80" class="edge"><title>Node2&#45;&gt;Node32</title>
<path fill="none" stroke="midnightblue" d="M1442.75,-224.368C1425.86,-205.974 1386.1,-162.671 1364.42,-139.052"/>
<polygon fill="midnightblue" stroke="midnightblue" points="1366.91,-136.59 1357.57,-131.591 1361.75,-141.325 1366.91,-136.59"/>
</g>
<!-- Node34 -->
<g id="node34" class="node"><title>Node34</title>
<g id="a_node34"><a xlink:href="a00046.html" target="_top" xlink:title="Provides initialization methods to configure analog subsystems and DMA controller. ">
<polygon fill="white" stroke="black" points="29.178,-168.5 29.178,-187.5 128.178,-187.5 128.178,-168.5 29.178,-168.5"/>
<text text-anchor="middle" x="78.678" y="-175.5" font-family="Helvetica,sans-Serif" font-size="10.00">periph2dma_conf.h</text>
</a>
</g>
</g>
<!-- Node2&#45;&gt;Node34 -->
<g id="edge74" class="edge"><title>Node2&#45;&gt;Node34</title>
<path fill="none" stroke="midnightblue" d="M1427.55,-232.706C1300.97,-230.988 679.448,-221.152 172.678,-188 161.656,-187.279 149.925,-186.314 138.621,-185.284"/>
<polygon fill="midnightblue" stroke="midnightblue" points="138.676,-181.773 128.393,-184.324 138.022,-188.743 138.676,-181.773"/>
</g>
<!-- Node36 -->
<g id="node36" class="node"><title>Node36</title>
<g id="a_node36"><a xlink:href="a00051.html" target="_top" xlink:title="Provides DAC driven signal generator functions. ">
<polygon fill="white" stroke="black" points="1505.68,-168.5 1505.68,-187.5 1573.68,-187.5 1573.68,-168.5 1505.68,-168.5"/>
<text text-anchor="middle" x="1539.68" y="-175.5" font-family="Helvetica,sans-Serif" font-size="10.00">signalGen.h</text>
</a>
</g>
</g>
<!-- Node2&#45;&gt;Node36 -->
<g id="edge82" class="edge"><title>Node2&#45;&gt;Node36</title>
<path fill="none" stroke="midnightblue" d="M1464.98,-224.324C1478.86,-215.9 1500.17,-202.971 1516.48,-193.074"/>
<polygon fill="midnightblue" stroke="midnightblue" points="1518.68,-195.834 1525.41,-187.655 1515.05,-189.85 1518.68,-195.834"/>
</g>
<!-- Node9&#45;&gt;Node8 -->
<g id="edge11" class="edge"><title>Node9&#45;&gt;Node8</title>
<path fill="none" stroke="midnightblue" d="M810.343,-58.9627C908.272,-47.9457 1113.68,-24.8372 1198.64,-15.279"/>
<polygon fill="midnightblue" stroke="midnightblue" points="1199.08,-18.7517 1208.63,-14.1556 1198.3,-11.7956 1199.08,-18.7517"/>
</g>
<!-- Node10 -->
<g id="node10" class="node"><title>Node10</title>
<polygon fill="white" stroke="#bfbfbf" points="479.178,-0.5 479.178,-19.5 550.178,-19.5 550.178,-0.5 479.178,-0.5"/>
<text text-anchor="middle" x="514.678" y="-7.5" font-family="Helvetica,sans-Serif" font-size="10.00">stm32f4xx.h</text>
</g>
<!-- Node9&#45;&gt;Node10 -->
<g id="edge9" class="edge"><title>Node9&#45;&gt;Node10</title>
<path fill="none" stroke="midnightblue" d="M718.332,-56.4435C675.461,-46.8772 606.073,-31.3939 560.409,-21.2045"/>
<polygon fill="midnightblue" stroke="midnightblue" points="561,-17.7502 550.477,-18.9883 559.475,-24.5822 561,-17.7502"/>
</g>
<!-- Node11 -->
<g id="node11" class="node"><title>Node11</title>
<polygon fill="white" stroke="#bfbfbf" points="794.178,-0.5 794.178,-19.5 883.178,-19.5 883.178,-0.5 794.178,-0.5"/>
<text text-anchor="middle" x="838.678" y="-7.5" font-family="Helvetica,sans-Serif" font-size="10.00">stm32f4xx_rcc.h</text>
</g>
<!-- Node9&#45;&gt;Node11 -->
<g id="edge10" class="edge"><title>Node9&#45;&gt;Node11</title>
<path fill="none" stroke="midnightblue" d="M769.853,-56.324C782.525,-47.979 801.911,-35.2122 816.884,-25.3524"/>
<polygon fill="midnightblue" stroke="midnightblue" points="819.109,-28.0776 825.536,-19.6545 815.259,-22.2313 819.109,-28.0776"/>
</g>
<!-- Node12&#45;&gt;Node8 -->
<g id="edge13" class="edge"><title>Node12&#45;&gt;Node8</title>
<path fill="none" stroke="midnightblue" d="M792.37,-117.995C885.879,-112.254 1074.58,-98.2799 1136.68,-76 1168.45,-64.5997 1200.31,-41.3579 1219.26,-25.9806"/>
<polygon fill="midnightblue" stroke="midnightblue" points="1221.56,-28.6224 1227.02,-19.5395 1217.09,-23.2384 1221.56,-28.6224"/>
</g>
<!-- Node12&#45;&gt;Node10 -->
<g id="edge14" class="edge"><title>Node12&#45;&gt;Node10</title>
<path fill="none" stroke="midnightblue" d="M685.141,-120.251C612.613,-117.973 488.921,-109.183 460.678,-76 445.851,-58.5799 469.119,-38.2665 489.576,-25.0468"/>
<polygon fill="midnightblue" stroke="midnightblue" points="491.643,-27.8853 498.341,-19.6764 487.986,-21.9167 491.643,-27.8853"/>
</g>
<!-- Node13 -->
<g id="node13" class="node"><title>Node13</title>
<g id="a_node13"><a xlink:href="a00035.html" target="_top" xlink:title="Provides generic methods for GPIO module initialization and manipulation. ">
<polygon fill="white" stroke="black" points="306.678,-56.5 306.678,-75.5 408.678,-75.5 408.678,-56.5 306.678,-56.5"/>
<text text-anchor="middle" x="357.678" y="-63.5" font-family="Helvetica,sans-Serif" font-size="10.00">md_stm32f4_gpio.h</text>
</a>
</g>
</g>
<!-- Node12&#45;&gt;Node13 -->
<g id="edge15" class="edge"><title>Node12&#45;&gt;Node13</title>
<path fill="none" stroke="midnightblue" d="M684.898,-113.378C614.763,-103.437 492.372,-86.0904 418.797,-75.6625"/>
<polygon fill="midnightblue" stroke="midnightblue" points="419.142,-72.1765 408.749,-74.2385 418.159,-79.1072 419.142,-72.1765"/>
</g>
<!-- Node13&#45;&gt;Node10 -->
<g id="edge16" class="edge"><title>Node13&#45;&gt;Node10</title>
<path fill="none" stroke="midnightblue" d="M382.555,-56.4435C408.967,-47.3591 450.893,-32.9388 480.42,-22.7831"/>
<polygon fill="midnightblue" stroke="midnightblue" points="481.599,-26.0787 489.917,-19.5164 479.323,-19.4593 481.599,-26.0787"/>
</g>
<!-- Node14&#45;&gt;Node10 -->
<g id="edge18" class="edge"><title>Node14&#45;&gt;Node10</title>
<path fill="none" stroke="midnightblue" d="M548.908,-56.083C543.116,-48.4554 534.62,-37.2645 527.54,-27.9408"/>
<polygon fill="midnightblue" stroke="midnightblue" points="530.157,-25.5991 521.322,-19.7511 524.582,-29.8321 530.157,-25.5991"/>
</g>
<!-- Node14&#45;&gt;Node11 -->
<g id="edge19" class="edge"><title>Node14&#45;&gt;Node11</title>
<path fill="none" stroke="midnightblue" d="M600.52,-56.4435C650.303,-46.9444 730.661,-31.611 784.07,-21.4198"/>
<polygon fill="midnightblue" stroke="midnightblue" points="784.879,-24.8288 794.046,-19.5164 783.567,-17.9528 784.879,-24.8288"/>
</g>
<!-- Node15&#45;&gt;Node8 -->
<g id="edge30" class="edge"><title>Node15&#45;&gt;Node8</title>
<path fill="none" stroke="midnightblue" d="M1197.97,-112.368C1204.81,-94.4563 1220.67,-52.9233 1229.83,-28.9482"/>
<polygon fill="midnightblue" stroke="midnightblue" points="1233.1,-30.1821 1233.4,-19.5914 1226.56,-27.6851 1233.1,-30.1821"/>
</g>
<!-- Node15&#45;&gt;Node10 -->
<g id="edge21" class="edge"><title>Node15&#45;&gt;Node10</title>
<path fill="none" stroke="midnightblue" d="M1143.03,-119.598C984.77,-115.054 515.851,-99.6418 493.678,-76 481.316,-62.8195 491.11,-42.3012 501.065,-27.8499"/>
<polygon fill="midnightblue" stroke="midnightblue" points="503.926,-29.868 507.087,-19.7557 498.309,-25.6895 503.926,-29.868"/>
</g>
<!-- Node15&#45;&gt;Node11 -->
<g id="edge22" class="edge"><title>Node15&#45;&gt;Node11</title>
<path fill="none" stroke="midnightblue" d="M1143.16,-113.957C1138.26,-113.293 1133.38,-112.632 1128.68,-112 1068.47,-103.896 903.78,-115.565 857.678,-76 844.454,-64.6512 840.174,-44.6547 838.914,-29.8285"/>
<polygon fill="midnightblue" stroke="midnightblue" points="842.405,-29.5528 838.441,-19.7275 835.412,-29.8804 842.405,-29.5528"/>
</g>
<!-- Node15&#45;&gt;Node13 -->
<g id="edge23" class="edge"><title>Node15&#45;&gt;Node13</title>
<path fill="none" stroke="midnightblue" d="M1143.03,-118.295C1023.13,-111.915 716.588,-95.022 460.678,-76 447.198,-74.998 432.736,-73.8068 419.036,-72.6243"/>
<polygon fill="midnightblue" stroke="midnightblue" points="419.004,-69.1082 408.737,-71.725 418.395,-76.0817 419.004,-69.1082"/>
</g>
<!-- Node16 -->
<g id="node16" class="node"><title>Node16</title>
<polygon fill="white" stroke="#bfbfbf" points="952.178,-0.5 952.178,-19.5 1041.18,-19.5 1041.18,-0.5 952.178,-0.5"/>
<text text-anchor="middle" x="996.678" y="-7.5" font-family="Helvetica,sans-Serif" font-size="10.00">stm32f4xx_tim.h</text>
</g>
<!-- Node15&#45;&gt;Node16 -->
<g id="edge24" class="edge"><title>Node15&#45;&gt;Node16</title>
<path fill="none" stroke="midnightblue" d="M1179.14,-112.368C1144.8,-93.2916 1062.24,-47.4223 1020.99,-24.5054"/>
<polygon fill="midnightblue" stroke="midnightblue" points="1022.58,-21.3883 1012.14,-19.5914 1019.18,-27.5075 1022.58,-21.3883"/>
</g>
<!-- Node17 -->
<g id="node17" class="node"><title>Node17</title>
<g id="a_node17"><a xlink:href="a00063_source.html" target="_top" xlink:title="tm_stm32f4_timer_properties.h">
<polygon fill="white" stroke="black" points="866.678,-56.5 866.678,-75.5 1018.68,-75.5 1018.68,-56.5 866.678,-56.5"/>
<text text-anchor="middle" x="942.678" y="-63.5" font-family="Helvetica,sans-Serif" font-size="10.00">tm_stm32f4_timer_properties.h</text>
</a>
</g>
</g>
<!-- Node15&#45;&gt;Node17 -->
<g id="edge25" class="edge"><title>Node15&#45;&gt;Node17</title>
<path fill="none" stroke="midnightblue" d="M1154.75,-112.444C1110.79,-103.023 1040.05,-87.8656 992.495,-77.6752"/>
<polygon fill="midnightblue" stroke="midnightblue" points="992.933,-74.1895 982.421,-75.5164 991.466,-81.0341 992.933,-74.1895"/>
</g>
<!-- Node17&#45;&gt;Node8 -->
<g id="edge29" class="edge"><title>Node17&#45;&gt;Node8</title>
<path fill="none" stroke="midnightblue" d="M989.263,-56.4435C1047.1,-45.821 1144.65,-27.9028 1198.36,-18.0382"/>
<polygon fill="midnightblue" stroke="midnightblue" points="1199.29,-21.4262 1208.49,-16.1772 1198.02,-14.5414 1199.29,-21.4262"/>
</g>
<!-- Node17&#45;&gt;Node10 -->
<g id="edge26" class="edge"><title>Node17&#45;&gt;Node10</title>
<path fill="none" stroke="midnightblue" d="M874.86,-56.4435C786.95,-45.352 635.995,-26.3063 560.49,-16.78"/>
<polygon fill="midnightblue" stroke="midnightblue" points="560.71,-13.2801 550.351,-15.5007 559.834,-20.2251 560.71,-13.2801"/>
</g>
<!-- Node17&#45;&gt;Node11 -->
<g id="edge27" class="edge"><title>Node17&#45;&gt;Node11</title>
<path fill="none" stroke="midnightblue" d="M925.969,-56.324C909.366,-47.7034 883.676,-34.3643 864.458,-24.3855"/>
<polygon fill="midnightblue" stroke="midnightblue" points="865.834,-21.1565 855.346,-19.6545 862.608,-27.3689 865.834,-21.1565"/>
</g>
<!-- Node17&#45;&gt;Node16 -->
<g id="edge28" class="edge"><title>Node17&#45;&gt;Node16</title>
<path fill="none" stroke="midnightblue" d="M951.595,-56.083C959.458,-48.2195 971.109,-36.5688 980.597,-27.0813"/>
<polygon fill="midnightblue" stroke="midnightblue" points="983.331,-29.2971 987.927,-19.7511 978.381,-24.3473 983.331,-29.2971"/>
</g>
<!-- Node18&#45;&gt;Node7 -->
<g id="edge37" class="edge"><title>Node18&#45;&gt;Node7</title>
<path fill="none" stroke="midnightblue" d="M310.303,-112.499C260.563,-103.544 180.089,-88.9684 110.678,-76 109.223,-75.7282 107.744,-75.4507 106.249,-75.1695"/>
<polygon fill="midnightblue" stroke="midnightblue" points="106.763,-71.7048 96.2869,-73.2835 105.461,-78.5826 106.763,-71.7048"/>
</g>
<!-- Node18&#45;&gt;Node8 -->
<g id="edge38" class="edge"><title>Node18&#45;&gt;Node8</title>
<path fill="none" stroke="midnightblue" d="M409.868,-119.077C545.968,-113.81 909.346,-98.058 1027.68,-76 1092.42,-63.9316 1165.29,-38.4123 1205.61,-23.186"/>
<polygon fill="midnightblue" stroke="midnightblue" points="1207.04,-26.3865 1215.14,-19.5511 1204.55,-19.8466 1207.04,-26.3865"/>
</g>
<!-- Node18&#45;&gt;Node10 -->
<g id="edge33" class="edge"><title>Node18&#45;&gt;Node10</title>
<path fill="none" stroke="midnightblue" d="M305.423,-113.499C245.415,-104.354 153.876,-88.5652 143.678,-76 138.077,-69.0981 137.783,-62.6531 143.678,-56 164.933,-32.0112 374.399,-18.2451 468.873,-13.2123"/>
<polygon fill="midnightblue" stroke="midnightblue" points="469.194,-16.7004 478.997,-12.683 468.828,-9.70996 469.194,-16.7004"/>
</g>
<!-- Node18&#45;&gt;Node11 -->
<g id="edge34" class="edge"><title>Node18&#45;&gt;Node11</title>
<path fill="none" stroke="midnightblue" d="M339.607,-112.386C315.814,-99.9473 279.063,-76.2279 297.678,-56 314.006,-38.2577 650.02,-20.1219 784.115,-13.5622"/>
<polygon fill="midnightblue" stroke="midnightblue" points="784.357,-17.0547 794.175,-13.0733 784.017,-10.063 784.357,-17.0547"/>
</g>
<!-- Node18&#45;&gt;Node13 -->
<g id="edge35" class="edge"><title>Node18&#45;&gt;Node13</title>
<path fill="none" stroke="midnightblue" d="M357.678,-112.083C357.678,-105.006 357.678,-94.8611 357.678,-85.9865"/>
<polygon fill="midnightblue" stroke="midnightblue" points="361.178,-85.751 357.678,-75.7511 354.178,-85.7511 361.178,-85.751"/>
</g>
<!-- Node19 -->
<g id="node19" class="node"><title>Node19</title>
<polygon fill="white" stroke="#bfbfbf" points="1431.68,-0.5 1431.68,-19.5 1477.68,-19.5 1477.68,-0.5 1431.68,-0.5"/>
<text text-anchor="middle" x="1454.68" y="-7.5" font-family="Helvetica,sans-Serif" font-size="10.00">misc.h</text>
</g>
<!-- Node18&#45;&gt;Node19 -->
<g id="edge32" class="edge"><title>Node18&#45;&gt;Node19</title>
<path fill="none" stroke="midnightblue" d="M409.95,-119.702C529.112,-116.314 829.901,-105.342 1079.68,-76 1206.8,-61.0664 1356.26,-31.5145 1421.46,-18.0186"/>
<polygon fill="midnightblue" stroke="midnightblue" points="1422.47,-21.3834 1431.55,-15.9193 1421.05,-14.5303 1422.47,-21.3834"/>
</g>
<!-- Node20 -->
<g id="node20" class="node"><title>Node20</title>
<polygon fill="white" stroke="#bfbfbf" points="152.678,-56.5 152.678,-75.5 250.678,-75.5 250.678,-56.5 152.678,-56.5"/>
<text text-anchor="middle" x="201.678" y="-63.5" font-family="Helvetica,sans-Serif" font-size="10.00">stm32f4xx_usart.h</text>
</g>
<!-- Node18&#45;&gt;Node20 -->
<g id="edge36" class="edge"><title>Node18&#45;&gt;Node20</title>
<path fill="none" stroke="midnightblue" d="M332.959,-112.444C306.83,-103.399 265.419,-89.064 236.102,-78.9158"/>
<polygon fill="midnightblue" stroke="midnightblue" points="236.876,-75.4801 226.281,-75.5164 234.586,-82.0951 236.876,-75.4801"/>
</g>
<!-- Node23&#45;&gt;Node1 -->
<g id="edge66" class="edge"><title>Node23&#45;&gt;Node1</title>
<path fill="none" stroke="midnightblue" d="M1741.94,-187.61C1685.86,-207.132 1548.96,-254.786 1484.85,-277.104"/>
<polygon fill="midnightblue" stroke="midnightblue" points="1483.5,-273.867 1475.21,-280.46 1485.81,-280.478 1483.5,-273.867"/>
</g>
<!-- Node23&#45;&gt;Node3 -->
<g id="edge42" class="edge"><title>Node23&#45;&gt;Node3</title>
<path fill="none" stroke="midnightblue" d="M1799.28,-169.361C1841.69,-157.477 1914.1,-130.077 1945.68,-76 1957.08,-56.4799 1935.28,-37.2609 1915.64,-24.8457"/>
<polygon fill="midnightblue" stroke="midnightblue" points="1917.28,-21.7481 1906.9,-19.6436 1913.7,-27.7641 1917.28,-21.7481"/>
</g>
<!-- Node23&#45;&gt;Node8 -->
<g id="edge65" class="edge"><title>Node23&#45;&gt;Node8</title>
<path fill="none" stroke="midnightblue" d="M1746.28,-168.379C1695.22,-147.042 1557.46,-90.9675 1438.68,-56 1382.4,-39.4319 1315.73,-25.6917 1274.83,-17.9124"/>
<polygon fill="midnightblue" stroke="midnightblue" points="1275.23,-14.4266 1264.75,-16.0184 1273.93,-21.3061 1275.23,-14.4266"/>
</g>
<!-- Node23&#45;&gt;Node24 -->
<g id="edge43" class="edge"><title>Node23&#45;&gt;Node24</title>
<path fill="none" stroke="midnightblue" d="M1761.51,-168.083C1760,-160.927 1759.57,-150.635 1760.22,-141.691"/>
<polygon fill="midnightblue" stroke="midnightblue" points="1763.69,-142.126 1761.55,-131.751 1756.75,-141.2 1763.69,-142.126"/>
</g>
<!-- Node23&#45;&gt;Node26 -->
<g id="edge71" class="edge"><title>Node23&#45;&gt;Node26</title>
<path fill="none" stroke="midnightblue" d="M1799.29,-172.861C1834.75,-167.364 1892.28,-155.478 1936.68,-132 1960.58,-119.359 1983.36,-97.7889 1997.42,-82.9881"/>
<polygon fill="midnightblue" stroke="midnightblue" points="2000.06,-85.282 2004.28,-75.5615 1994.92,-80.5322 2000.06,-85.282"/>
</g>
<!-- Node23&#45;&gt;Node30 -->
<g id="edge72" class="edge"><title>Node23&#45;&gt;Node30</title>
<path fill="none" stroke="midnightblue" d="M1799.32,-172.843C1839.54,-166.999 1909.43,-154.47 1965.68,-132 1998.83,-118.757 2033.68,-96.2402 2054.8,-81.4932"/>
<polygon fill="midnightblue" stroke="midnightblue" points="2057.09,-84.1552 2063.22,-75.512 2053.04,-78.4477 2057.09,-84.1552"/>
</g>
<!-- Node23&#45;&gt;Node32 -->
<g id="edge67" class="edge"><title>Node23&#45;&gt;Node32</title>
<path fill="none" stroke="midnightblue" d="M1733.96,-172.763C1659.49,-163.12 1477.35,-139.534 1393.39,-128.66"/>
<polygon fill="midnightblue" stroke="midnightblue" points="1393.77,-125.181 1383.41,-127.368 1392.87,-132.123 1393.77,-125.181"/>
</g>
<!-- Node24&#45;&gt;Node2 -->
<g id="edge47" class="edge"><title>Node24&#45;&gt;Node2</title>
<path fill="none" stroke="midnightblue" d="M1762.11,-131.647C1748.58,-145.703 1712.73,-173.401 1677.68,-188 1612.61,-215.096 1529.61,-226.424 1484,-230.698"/>
<polygon fill="midnightblue" stroke="midnightblue" points="1483.43,-227.234 1473.78,-231.595 1484.05,-234.208 1483.43,-227.234"/>
</g>
<!-- Node24&#45;&gt;Node8 -->
<g id="edge44" class="edge"><title>Node24&#45;&gt;Node8</title>
<path fill="none" stroke="midnightblue" d="M1734.24,-112.456C1671.17,-95.8658 1536.24,-60.5152 1514.68,-56 1429.66,-38.1943 1328.76,-23.4301 1274.96,-16.0611"/>
<polygon fill="midnightblue" stroke="midnightblue" points="1275.23,-12.5654 1264.85,-14.6872 1274.29,-19.5017 1275.23,-12.5654"/>
</g>
<!-- Node24&#45;&gt;Node10 -->
<g id="edge58" class="edge"><title>Node24&#45;&gt;Node10</title>
<path fill="none" stroke="midnightblue" d="M1723.59,-119.698C1529.58,-113.772 744.281,-89.071 693.678,-76 674.433,-71.029 672.074,-63.5267 653.678,-56 621.27,-42.7403 583.395,-30.6957 555.372,-22.4114"/>
<polygon fill="midnightblue" stroke="midnightblue" points="556.102,-18.9786 545.522,-19.5342 554.14,-25.6978 556.102,-18.9786"/>
</g>
<!-- Node24&#45;&gt;Node11 -->
<g id="edge57" class="edge"><title>Node24&#45;&gt;Node11</title>
<path fill="none" stroke="midnightblue" d="M1723.61,-113.622C1672.71,-104.858 1585.47,-89.6961 1510.68,-76 1463.95,-67.4431 1452.76,-62.2954 1405.68,-56 1201.1,-28.6483 1148.38,-36.8976 942.678,-20 926.676,-18.6855 909.294,-17.203 893.404,-15.8261"/>
<polygon fill="midnightblue" stroke="midnightblue" points="893.472,-12.3189 883.207,-14.9394 892.866,-19.2926 893.472,-12.3189"/>
</g>
<!-- Node24&#45;&gt;Node23 -->
<g id="edge64" class="edge"><title>Node24&#45;&gt;Node23</title>
<path fill="none" stroke="midnightblue" d="M1771.81,-131.751C1773.34,-138.858 1773.78,-149.136 1773.15,-158.101"/>
<polygon fill="midnightblue" stroke="midnightblue" points="1769.67,-157.713 1771.84,-168.083 1776.61,-158.622 1769.67,-157.713"/>
</g>
<!-- Node25 -->
<g id="node25" class="node"><title>Node25</title>
<g id="a_node25"><a xlink:href="a00044.html" target="_top" xlink:title="Provides nested vector interrupt controller configuration methods. ">
<polygon fill="white" stroke="black" points="1604.68,-56.5 1604.68,-75.5 1678.68,-75.5 1678.68,-56.5 1604.68,-56.5"/>
<text text-anchor="middle" x="1641.68" y="-63.5" font-family="Helvetica,sans-Serif" font-size="10.00">nvic_config.h</text>
</a>
</g>
</g>
<!-- Node24&#45;&gt;Node25 -->
<g id="edge45" class="edge"><title>Node24&#45;&gt;Node25</title>
<path fill="none" stroke="midnightblue" d="M1746.87,-112.444C1726.39,-103.596 1694.2,-89.6875 1670.81,-79.5865"/>
<polygon fill="midnightblue" stroke="midnightblue" points="1671.96,-76.2692 1661.39,-75.5164 1669.18,-82.6953 1671.96,-76.2692"/>
</g>
<!-- Node24&#45;&gt;Node26 -->
<g id="edge48" class="edge"><title>Node24&#45;&gt;Node26</title>
<path fill="none" stroke="midnightblue" d="M1805.5,-112.444C1854.84,-101.568 1938.88,-83.0463 1982.88,-73.3481"/>
<polygon fill="midnightblue" stroke="midnightblue" points="1983.64,-76.7647 1992.65,-71.1943 1982.13,-69.9288 1983.64,-76.7647"/>
</g>
<!-- Node28 -->
<g id="node28" class="node"><title>Node28</title>
<polygon fill="white" stroke="#bfbfbf" points="1734.68,-56.5 1734.68,-75.5 1826.68,-75.5 1826.68,-56.5 1734.68,-56.5"/>
<text text-anchor="middle" x="1780.68" y="-63.5" font-family="Helvetica,sans-Serif" font-size="10.00">stm32f4xx_adc.h</text>
</g>
<!-- Node24&#45;&gt;Node28 -->
<g id="edge55" class="edge"><title>Node24&#45;&gt;Node28</title>
<path fill="none" stroke="midnightblue" d="M1768.99,-112.083C1770.85,-104.927 1773.51,-94.6353 1775.83,-85.6911"/>
<polygon fill="midnightblue" stroke="midnightblue" points="1779.29,-86.3094 1778.41,-75.7511 1772.51,-84.5527 1779.29,-86.3094"/>
</g>
<!-- Node29 -->
<g id="node29" class="node"><title>Node29</title>
<polygon fill="white" stroke="#bfbfbf" points="1844.68,-56.5 1844.68,-75.5 1936.68,-75.5 1936.68,-56.5 1844.68,-56.5"/>
<text text-anchor="middle" x="1890.68" y="-63.5" font-family="Helvetica,sans-Serif" font-size="10.00">stm32f4xx_dac.h</text>
</g>
<!-- Node24&#45;&gt;Node29 -->
<g id="edge56" class="edge"><title>Node24&#45;&gt;Node29</title>
<path fill="none" stroke="midnightblue" d="M1786.33,-112.444C1806.64,-103.596 1838.58,-89.6875 1861.78,-79.5865"/>
<polygon fill="midnightblue" stroke="midnightblue" points="1863.35,-82.7181 1871.12,-75.5164 1860.56,-76.3002 1863.35,-82.7181"/>
</g>
<!-- Node24&#45;&gt;Node30 -->
<g id="edge59" class="edge"><title>Node24&#45;&gt;Node30</title>
<path fill="none" stroke="midnightblue" d="M1809.93,-115.076C1861.94,-107.686 1952.06,-94.0353 2039.08,-75.9582"/>
<polygon fill="midnightblue" stroke="midnightblue" points="2040.06,-79.3293 2049.13,-73.8485 2038.62,-72.4788 2040.06,-79.3293"/>
</g>
<!-- Node25&#45;&gt;Node19 -->
<g id="edge46" class="edge"><title>Node25&#45;&gt;Node19</title>
<path fill="none" stroke="midnightblue" d="M1612.05,-56.4435C1578.12,-46.6451 1522.69,-30.6391 1487.48,-20.4723"/>
<polygon fill="midnightblue" stroke="midnightblue" points="1488.26,-17.0557 1477.69,-17.6439 1486.32,-23.7809 1488.26,-17.0557"/>
</g>
<!-- Node26&#45;&gt;Node3 -->
<g id="edge50" class="edge"><title>Node26&#45;&gt;Node3</title>
<path fill="none" stroke="midnightblue" d="M1992.62,-56.5625C1972.68,-47.7377 1941.16,-33.7853 1918.24,-23.6436"/>
<polygon fill="midnightblue" stroke="midnightblue" points="1919.57,-20.4035 1909.01,-19.5565 1916.74,-26.8045 1919.57,-20.4035"/>
</g>
<!-- Node26&#45;&gt;Node4 -->
<g id="edge49" class="edge"><title>Node26&#45;&gt;Node4</title>
<path fill="none" stroke="midnightblue" d="M2013.49,-56.083C2014.95,-48.9272 2017.05,-38.6353 2018.87,-29.6911"/>
<polygon fill="midnightblue" stroke="midnightblue" points="2022.33,-30.2485 2020.9,-19.7511 2015.47,-28.8512 2022.33,-30.2485"/>
</g>
<!-- Node26&#45;&gt;Node5 -->
<g id="edge51" class="edge"><title>Node26&#45;&gt;Node5</title>
<path fill="none" stroke="midnightblue" d="M2030.68,-58.3785C2056,-49.5603 2101.21,-33.8084 2132.52,-22.9014"/>
<polygon fill="midnightblue" stroke="midnightblue" points="2133.86,-26.1404 2142.15,-19.5453 2131.56,-19.5301 2133.86,-26.1404"/>
</g>
<!-- Node26&#45;&gt;Node8 -->
<g id="edge54" class="edge"><title>Node26&#45;&gt;Node8</title>
<path fill="none" stroke="midnightblue" d="M1992.66,-62.0363C1979.5,-60.0761 1961.56,-57.5846 1945.68,-56 1813.62,-42.8227 1402.57,-20.0004 1274.9,-13.0606"/>
<polygon fill="midnightblue" stroke="midnightblue" points="1274.99,-9.56052 1264.82,-12.5135 1274.61,-16.5502 1274.99,-9.56052"/>
</g>
<!-- Node26&#45;&gt;Node10 -->
<g id="edge53" class="edge"><title>Node26&#45;&gt;Node10</title>
<path fill="none" stroke="midnightblue" d="M1992.67,-61.8722C1979.52,-59.8388 1961.58,-57.3272 1945.68,-56 1431.22,-13.0654 1300.66,-36.5994 784.678,-20 706.013,-17.4693 614.461,-14.3891 560.719,-12.5673"/>
<polygon fill="midnightblue" stroke="midnightblue" points="560.603,-9.06142 550.49,-12.2202 560.366,-16.0574 560.603,-9.06142"/>
</g>
<!-- Node27 -->
<g id="node27" class="node"><title>Node27</title>
<polygon fill="white" stroke="#bfbfbf" points="1931.18,-0.5 1931.18,-19.5 1980.18,-19.5 1980.18,-0.5 1931.18,-0.5"/>
<text text-anchor="middle" x="1955.68" y="-7.5" font-family="Helvetica,sans-Serif" font-size="10.00">stdint.h</text>
</g>
<!-- Node26&#45;&gt;Node27 -->
<g id="edge52" class="edge"><title>Node26&#45;&gt;Node27</title>
<path fill="none" stroke="midnightblue" d="M2002.68,-56.324C1994.48,-48.4196 1982.17,-36.5482 1972.21,-26.9377"/>
<polygon fill="midnightblue" stroke="midnightblue" points="1974.47,-24.2558 1964.84,-19.8339 1969.61,-29.2947 1974.47,-24.2558"/>
</g>
<!-- Node30&#45;&gt;Node3 -->
<g id="edge60" class="edge"><title>Node30&#45;&gt;Node3</title>
<path fill="none" stroke="midnightblue" d="M2048.95,-57.4915C2016.06,-47.8906 1959.05,-31.2489 1922.9,-20.6979"/>
<polygon fill="midnightblue" stroke="midnightblue" points="1923.43,-17.2063 1912.85,-17.764 1921.47,-23.9259 1923.43,-17.2063"/>
</g>
<!-- Node30&#45;&gt;Node4 -->
<g id="edge62" class="edge"><title>Node30&#45;&gt;Node4</title>
<path fill="none" stroke="midnightblue" d="M2066.09,-56.083C2058.52,-48.2195 2047.3,-36.5688 2038.16,-27.0813"/>
<polygon fill="midnightblue" stroke="midnightblue" points="2040.56,-24.5266 2031.1,-19.7511 2035.52,-29.3821 2040.56,-24.5266"/>
</g>
<!-- Node30&#45;&gt;Node5 -->
<g id="edge61" class="edge"><title>Node30&#45;&gt;Node5</title>
<path fill="none" stroke="midnightblue" d="M2089.46,-56.324C2103.95,-47.8215 2126.25,-34.7288 2143.17,-24.7975"/>
<polygon fill="midnightblue" stroke="midnightblue" points="2145.08,-27.735 2151.93,-19.6545 2141.54,-21.6981 2145.08,-27.735"/>
</g>
<!-- Node31 -->
<g id="node31" class="node"><title>Node31</title>
<polygon fill="white" stroke="#bfbfbf" points="2065.18,-0.5 2065.18,-19.5 2124.18,-19.5 2124.18,-0.5 2065.18,-0.5"/>
<text text-anchor="middle" x="2094.68" y="-7.5" font-family="Helvetica,sans-Serif" font-size="10.00">inttypes.h</text>
</g>
<!-- Node30&#45;&gt;Node31 -->
<g id="edge63" class="edge"><title>Node30&#45;&gt;Node31</title>
<path fill="none" stroke="midnightblue" d="M2077.98,-56.083C2080.66,-48.8486 2084.53,-38.4087 2087.86,-29.3968"/>
<polygon fill="midnightblue" stroke="midnightblue" points="2091.25,-30.3442 2091.44,-19.7511 2084.68,-27.9129 2091.25,-30.3442"/>
</g>
<!-- Node32&#45;&gt;Node10 -->
<g id="edge68" class="edge"><title>Node32&#45;&gt;Node10</title>
<path fill="none" stroke="midnightblue" d="M1315.85,-117.514C1297.72,-115.717 1274.99,-113.578 1254.68,-112 990.987,-91.5247 917.074,-140.907 660.678,-76 640.245,-70.8275 636.892,-64.6642 617.678,-56 592.953,-44.8509 564.715,-32.5435 544.066,-23.622"/>
<polygon fill="midnightblue" stroke="midnightblue" points="545.439,-20.4027 534.871,-19.6561 542.667,-26.8303 545.439,-20.4027"/>
</g>
<!-- Node32&#45;&gt;Node11 -->
<g id="edge70" class="edge"><title>Node32&#45;&gt;Node11</title>
<path fill="none" stroke="midnightblue" d="M1316.15,-113.783C1228.37,-94.8868 991.478,-43.8924 888.079,-21.6343"/>
<polygon fill="midnightblue" stroke="midnightblue" points="888.717,-18.1915 878.204,-19.5086 887.244,-25.0348 888.717,-18.1915"/>
</g>
<!-- Node33 -->
<g id="node33" class="node"><title>Node33</title>
<polygon fill="white" stroke="#bfbfbf" points="1302.68,-56.5 1302.68,-75.5 1396.68,-75.5 1396.68,-56.5 1302.68,-56.5"/>
<text text-anchor="middle" x="1349.68" y="-63.5" font-family="Helvetica,sans-Serif" font-size="10.00">stm32f4xx_gpio.h</text>
</g>
<!-- Node32&#45;&gt;Node33 -->
<g id="edge69" class="edge"><title>Node32&#45;&gt;Node33</title>
<path fill="none" stroke="midnightblue" d="M1349.68,-112.083C1349.68,-105.006 1349.68,-94.8611 1349.68,-85.9865"/>
<polygon fill="midnightblue" stroke="midnightblue" points="1353.18,-85.751 1349.68,-75.7511 1346.18,-85.7511 1353.18,-85.751"/>
</g>
<!-- Node34&#45;&gt;Node10 -->
<g id="edge75" class="edge"><title>Node34&#45;&gt;Node10</title>
<path fill="none" stroke="midnightblue" d="M60.8315,-168.402C47.1696,-160.818 29.1167,-148.417 19.678,-132 2.77102,-102.593 -10.2118,-81.0335 12.678,-56 43.1276,-22.6988 350.43,-13.8469 468.662,-11.6646"/>
<polygon fill="midnightblue" stroke="midnightblue" points="468.901,-15.161 478.838,-11.4847 468.777,-8.1621 468.901,-15.161"/>
</g>
<!-- Node35 -->
<g id="node35" class="node"><title>Node35</title>
<g id="a_node35"><a xlink:href="a00027.html" target="_top" xlink:title="Project XA&#45;Galvo scanner specific digital to analog converter methods. ">
<polygon fill="white" stroke="black" points="28.678,-112.5 28.678,-131.5 128.678,-131.5 128.678,-112.5 28.678,-112.5"/>
<text text-anchor="middle" x="78.678" y="-119.5" font-family="Helvetica,sans-Serif" font-size="10.00">md_stm32f4_dac.h</text>
</a>
</g>
</g>
<!-- Node34&#45;&gt;Node35 -->
<g id="edge76" class="edge"><title>Node34&#45;&gt;Node35</title>
<path fill="none" stroke="midnightblue" d="M78.678,-168.083C78.678,-161.006 78.678,-150.861 78.678,-141.986"/>
<polygon fill="midnightblue" stroke="midnightblue" points="82.1781,-141.751 78.678,-131.751 75.1781,-141.751 82.1781,-141.751"/>
</g>
<!-- Node35&#45;&gt;Node10 -->
<g id="edge77" class="edge"><title>Node35&#45;&gt;Node10</title>
<path fill="none" stroke="midnightblue" d="M61.7738,-112.491C39.0431,-99.982 3.46349,-75.9528 21.678,-56 51.5243,-23.3053 352.656,-14.0893 469.074,-11.7372"/>
<polygon fill="midnightblue" stroke="midnightblue" points="469.167,-15.2361 479.097,-11.5425 469.031,-8.23743 469.167,-15.2361"/>
</g>
<!-- Node35&#45;&gt;Node13 -->
<g id="edge78" class="edge"><title>Node35&#45;&gt;Node13</title>
<path fill="none" stroke="midnightblue" d="M122.886,-112.444C171.965,-102.944 251.188,-87.611 303.842,-77.4198"/>
<polygon fill="midnightblue" stroke="midnightblue" points="304.524,-80.853 313.676,-75.5164 303.194,-73.9805 304.524,-80.853"/>
</g>
<!-- Node36&#45;&gt;Node3 -->
<g id="edge83" class="edge"><title>Node36&#45;&gt;Node3</title>
<path fill="none" stroke="midnightblue" d="M1551.96,-168.289C1587.26,-143.38 1688.78,-72.5777 1725.68,-56 1769.12,-36.4807 1822.93,-23.693 1856.8,-16.9037"/>
<polygon fill="midnightblue" stroke="midnightblue" points="1857.49,-20.3354 1866.63,-14.9884 1856.15,-13.4644 1857.49,-20.3354"/>
</g>
</g>
</svg>
