<?xml version="1.0" encoding="UTF-8" standalone="no"?>
<!DOCTYPE svg PUBLIC "-//W3C//DTD SVG 1.1//EN"
 "http://www.w3.org/Graphics/SVG/1.1/DTD/svg11.dtd">
<!-- Generated by graphviz version 2.38.0 (20140413.2041)
 -->
<!-- Title: actuators.c Pages: 1 -->
<svg width="1883pt" height="420pt"
 viewBox="0.00 0.00 1883.21 420.00" xmlns="http://www.w3.org/2000/svg" xmlns:xlink="http://www.w3.org/1999/xlink">
<g id="graph0" class="graph" transform="scale(1 1) rotate(0) translate(4 416)">
<title>actuators.c</title>
<polygon fill="white" stroke="none" points="-4,4 -4,-416 1879.21,-416 1879.21,4 -4,4"/>
<!-- Node1 -->
<g id="node1" class="node"><title>Node1</title>
<polygon fill="#bfbfbf" stroke="black" points="1664.71,-392.5 1664.71,-411.5 1729.71,-411.5 1729.71,-392.5 1664.71,-392.5"/>
<text text-anchor="middle" x="1697.21" y="-399.5" font-family="Helvetica,sans-Serif" font-size="10.00">actuators.c</text>
</g>
<!-- Node2 -->
<g id="node2" class="node"><title>Node2</title>
<g id="a_node2"><a xlink:href="a00012.html" target="_top" xlink:title="Controlling beam and primary actuators. ">
<polygon fill="white" stroke="black" points="1431.71,-336.5 1431.71,-355.5 1496.71,-355.5 1496.71,-336.5 1431.71,-336.5"/>
<text text-anchor="middle" x="1464.21" y="-343.5" font-family="Helvetica,sans-Serif" font-size="10.00">actuators.h</text>
</a>
</g>
</g>
<!-- Node1&#45;&gt;Node2 -->
<g id="edge1" class="edge"><title>Node1&#45;&gt;Node2</title>
<path fill="none" stroke="midnightblue" d="M1664.32,-393.378C1623.04,-383.81 1552.15,-367.38 1506.77,-356.863"/>
<polygon fill="midnightblue" stroke="midnightblue" points="1507.46,-353.432 1496.93,-354.584 1505.88,-360.251 1507.46,-353.432"/>
</g>
<!-- Node5 -->
<g id="node5" class="node"><title>Node5</title>
<g id="a_node5"><a xlink:href="a00019.html" target="_top" xlink:title="Global defines include file. ">
<polygon fill="white" stroke="black" points="1124.21,-56.5 1124.21,-75.5 1180.21,-75.5 1180.21,-56.5 1124.21,-56.5"/>
<text text-anchor="middle" x="1152.21" y="-63.5" font-family="Helvetica,sans-Serif" font-size="10.00">globals.h</text>
</a>
</g>
</g>
<!-- Node1&#45;&gt;Node5 -->
<g id="edge89" class="edge"><title>Node1&#45;&gt;Node5</title>
<path fill="none" stroke="midnightblue" d="M1729.86,-395.98C1781.25,-386.02 1875.21,-358.569 1875.21,-291 1875.21,-291 1875.21,-291 1875.21,-177 1875.21,-133.225 1841.62,-128.844 1801.21,-112 1689.9,-65.5945 1312.67,-65.2969 1190.64,-66.4739"/>
<polygon fill="midnightblue" stroke="midnightblue" points="1190.26,-62.9775 1180.3,-66.5832 1190.34,-69.9772 1190.26,-62.9775"/>
</g>
<!-- Node3 -->
<g id="node3" class="node"><title>Node3</title>
<polygon fill="white" stroke="#bfbfbf" points="1407.21,-112.5 1407.21,-131.5 1453.21,-131.5 1453.21,-112.5 1407.21,-112.5"/>
<text text-anchor="middle" x="1430.21" y="-119.5" font-family="Helvetica,sans-Serif" font-size="10.00">stdio.h</text>
</g>
<!-- Node2&#45;&gt;Node3 -->
<g id="edge2" class="edge"><title>Node2&#45;&gt;Node3</title>
<path fill="none" stroke="midnightblue" d="M1467.61,-336.425C1477.54,-309.998 1504.19,-227.964 1478.21,-168 1472.94,-155.84 1462.59,-145.459 1452.85,-137.743"/>
<polygon fill="midnightblue" stroke="midnightblue" points="1454.71,-134.771 1444.58,-131.67 1450.57,-140.412 1454.71,-134.771"/>
</g>
<!-- Node4 -->
<g id="node4" class="node"><title>Node4</title>
<g id="a_node4"><a xlink:href="a00014.html" target="_top" xlink:title="Provides DMA related configuration and access functions for ADC and DAC. ">
<polygon fill="white" stroke="black" points="1309.21,-280.5 1309.21,-299.5 1395.21,-299.5 1395.21,-280.5 1309.21,-280.5"/>
<text text-anchor="middle" x="1352.21" y="-287.5" font-family="Helvetica,sans-Serif" font-size="10.00">adc_dac_dma.h</text>
</a>
</g>
</g>
<!-- Node2&#45;&gt;Node4 -->
<g id="edge3" class="edge"><title>Node2&#45;&gt;Node4</title>
<path fill="none" stroke="midnightblue" d="M1441.38,-336.444C1421.54,-327.794 1393.29,-314.306 1373.83,-304.268"/>
<polygon fill="midnightblue" stroke="midnightblue" points="1375.27,-301.076 1364.79,-299.516 1372.01,-307.27 1375.27,-301.076"/>
</g>
<!-- Node2&#45;&gt;Node5 -->
<g id="edge84" class="edge"><title>Node2&#45;&gt;Node5</title>
<path fill="none" stroke="midnightblue" d="M1496.94,-341.342C1581.24,-331.016 1799.21,-298.204 1799.21,-235 1799.21,-235 1799.21,-235 1799.21,-177 1799.21,-146.775 1802.87,-130.816 1779.21,-112 1733.16,-75.366 1319.63,-68.5189 1190.53,-67.2709"/>
<polygon fill="midnightblue" stroke="midnightblue" points="1190.37,-63.7694 1180.33,-67.1784 1190.3,-70.7691 1190.37,-63.7694"/>
</g>
<!-- Node28 -->
<g id="node28" class="node"><title>Node28</title>
<g id="a_node28"><a xlink:href="a00023.html" target="_top" xlink:title="Analog processing related callback handler definition. ">
<polygon fill="white" stroke="black" points="1354.21,-168.5 1354.21,-187.5 1436.21,-187.5 1436.21,-168.5 1354.21,-168.5"/>
<text text-anchor="middle" x="1395.21" y="-175.5" font-family="Helvetica,sans-Serif" font-size="10.00">irq_callbacks.h</text>
</a>
</g>
</g>
<!-- Node2&#45;&gt;Node28 -->
<g id="edge85" class="edge"><title>Node2&#45;&gt;Node28</title>
<path fill="none" stroke="midnightblue" d="M1460.5,-336.075C1449.59,-309.832 1417.47,-232.545 1402.74,-197.117"/>
<polygon fill="midnightblue" stroke="midnightblue" points="1405.84,-195.459 1398.77,-187.568 1399.38,-198.146 1405.84,-195.459"/>
</g>
<!-- Node29 -->
<g id="node29" class="node"><title>Node29</title>
<g id="a_node29"><a xlink:href="a00040.html" target="_top" xlink:title="Project MD_APP scanner specific pin mappings. ">
<polygon fill="white" stroke="black" points="103.711,-168.5 103.711,-187.5 170.711,-187.5 170.711,-168.5 103.711,-168.5"/>
<text text-anchor="middle" x="137.211" y="-175.5" font-family="Helvetica,sans-Serif" font-size="10.00">mdb_gpio.h</text>
</a>
</g>
</g>
<!-- Node2&#45;&gt;Node29 -->
<g id="edge86" class="edge"><title>Node2&#45;&gt;Node29</title>
<path fill="none" stroke="midnightblue" d="M1431.55,-345.048C1294.68,-344.639 754.298,-336.894 323.211,-244 265.901,-231.65 201.961,-206.703 165.955,-191.561"/>
<polygon fill="midnightblue" stroke="midnightblue" points="167.141,-188.262 156.568,-187.569 164.401,-194.704 167.141,-188.262"/>
</g>
<!-- Node31 -->
<g id="node31" class="node"><title>Node31</title>
<g id="a_node31"><a xlink:href="a00046.html" target="_top" xlink:title="PID compensator implementation. ">
<polygon fill="white" stroke="black" points="1638.21,-168.5 1638.21,-187.5 1676.21,-187.5 1676.21,-168.5 1638.21,-168.5"/>
<text text-anchor="middle" x="1657.21" y="-175.5" font-family="Helvetica,sans-Serif" font-size="10.00">pid.h</text>
</a>
</g>
</g>
<!-- Node2&#45;&gt;Node31 -->
<g id="edge87" class="edge"><title>Node2&#45;&gt;Node31</title>
<path fill="none" stroke="midnightblue" d="M1480.06,-336.48C1495.12,-328.068 1518.1,-314.408 1536.21,-300 1578.43,-266.415 1621.64,-219.594 1643.19,-195.213"/>
<polygon fill="midnightblue" stroke="midnightblue" points="1645.91,-197.412 1649.87,-187.584 1640.65,-192.8 1645.91,-197.412"/>
</g>
<!-- Node34 -->
<g id="node34" class="node"><title>Node34</title>
<g id="a_node34"><a xlink:href="a00021.html" target="_top" xlink:title="Provides tools and helper functions. ">
<polygon fill="white" stroke="black" points="1530.71,-168.5 1530.71,-187.5 1581.71,-187.5 1581.71,-168.5 1530.71,-168.5"/>
<text text-anchor="middle" x="1556.21" y="-175.5" font-family="Helvetica,sans-Serif" font-size="10.00">helper.h</text>
</a>
</g>
</g>
<!-- Node2&#45;&gt;Node34 -->
<g id="edge88" class="edge"><title>Node2&#45;&gt;Node34</title>
<path fill="none" stroke="midnightblue" d="M1478,-336.228C1489.7,-328.13 1506.14,-315.096 1516.21,-300 1537.83,-267.6 1548.63,-222.543 1553.27,-197.557"/>
<polygon fill="midnightblue" stroke="midnightblue" points="1556.73,-198.056 1554.98,-187.607 1549.84,-196.868 1556.73,-198.056"/>
</g>
<!-- Node4&#45;&gt;Node2 -->
<g id="edge83" class="edge"><title>Node4&#45;&gt;Node2</title>
<path fill="none" stroke="midnightblue" d="M1375.27,-299.655C1395,-308.267 1422.94,-321.605 1442.32,-331.59"/>
<polygon fill="midnightblue" stroke="midnightblue" points="1440.85,-334.771 1451.33,-336.324 1444.11,-328.574 1440.85,-334.771"/>
</g>
<!-- Node4&#45;&gt;Node5 -->
<g id="edge4" class="edge"><title>Node4&#45;&gt;Node5</title>
<path fill="none" stroke="midnightblue" d="M1368.03,-280.384C1401.5,-261.01 1474.14,-212.237 1445.21,-168 1416.65,-124.33 1263.17,-88.855 1190.46,-74.2258"/>
<polygon fill="midnightblue" stroke="midnightblue" points="1190.83,-70.7316 1180.34,-72.2201 1189.47,-77.5979 1190.83,-70.7316"/>
</g>
<!-- Node6 -->
<g id="node6" class="node"><title>Node6</title>
<g id="a_node6"><a xlink:href="a00042.html" target="_top" xlink:title="Provides nested vector interrupt controller configuration methods. ">
<polygon fill="white" stroke="black" points="702.211,-224.5 702.211,-243.5 776.211,-243.5 776.211,-224.5 702.211,-224.5"/>
<text text-anchor="middle" x="739.211" y="-231.5" font-family="Helvetica,sans-Serif" font-size="10.00">nvic_config.h</text>
</a>
</g>
</g>
<!-- Node4&#45;&gt;Node6 -->
<g id="edge5" class="edge"><title>Node4&#45;&gt;Node6</title>
<path fill="none" stroke="midnightblue" d="M1309.11,-285.203C1197.98,-275.414 902.38,-249.374 786.632,-239.177"/>
<polygon fill="midnightblue" stroke="midnightblue" points="786.597,-235.661 776.329,-238.27 785.983,-242.634 786.597,-235.661"/>
</g>
<!-- Node8 -->
<g id="node8" class="node"><title>Node8</title>
<g id="a_node8"><a xlink:href="a00025.html" target="_top" xlink:title="Main header definition. ">
<polygon fill="white" stroke="black" points="1094.21,-224.5 1094.21,-243.5 1140.21,-243.5 1140.21,-224.5 1094.21,-224.5"/>
<text text-anchor="middle" x="1117.21" y="-231.5" font-family="Helvetica,sans-Serif" font-size="10.00">main.h</text>
</a>
</g>
</g>
<!-- Node4&#45;&gt;Node8 -->
<g id="edge7" class="edge"><title>Node4&#45;&gt;Node8</title>
<path fill="none" stroke="midnightblue" d="M1309.19,-281.563C1268.38,-273.563 1205.5,-260.131 1148.37,-246.024"/>
<polygon fill="midnightblue" stroke="midnightblue" points="1149.07,-242.591 1138.52,-243.57 1147.38,-249.384 1149.07,-242.591"/>
</g>
<!-- Node14 -->
<g id="node14" class="node"><title>Node14</title>
<polygon fill="white" stroke="#bfbfbf" points="910.711,-0.5 910.711,-19.5 981.711,-19.5 981.711,-0.5 910.711,-0.5"/>
<text text-anchor="middle" x="946.211" y="-7.5" font-family="Helvetica,sans-Serif" font-size="10.00">stm32f4xx.h</text>
</g>
<!-- Node4&#45;&gt;Node14 -->
<g id="edge81" class="edge"><title>Node4&#45;&gt;Node14</title>
<path fill="none" stroke="midnightblue" d="M1395.36,-287.805C1525.79,-282.606 1900.77,-255.148 1797.21,-112 1750.58,-47.5485 1705.3,-71.1876 1627.21,-56 1505.05,-32.2403 1124.85,-17.174 992.327,-12.5319"/>
<polygon fill="midnightblue" stroke="midnightblue" points="992.231,-9.02651 982.116,-12.1777 991.988,-16.0223 992.231,-9.02651"/>
</g>
<!-- Node15 -->
<g id="node15" class="node"><title>Node15</title>
<polygon fill="white" stroke="#bfbfbf" points="306.711,-56.5 306.711,-75.5 395.711,-75.5 395.711,-56.5 306.711,-56.5"/>
<text text-anchor="middle" x="351.211" y="-63.5" font-family="Helvetica,sans-Serif" font-size="10.00">stm32f4xx_rcc.h</text>
</g>
<!-- Node4&#45;&gt;Node15 -->
<g id="edge80" class="edge"><title>Node4&#45;&gt;Node15</title>
<path fill="none" stroke="midnightblue" d="M1309.07,-289.003C1203.32,-288.372 923.031,-282.841 693.211,-244 600.082,-228.261 576.72,-220.966 488.211,-188 434.187,-167.879 408.852,-175.665 371.211,-132 360.018,-119.016 355.088,-99.8527 352.917,-85.6951"/>
<polygon fill="midnightblue" stroke="midnightblue" points="356.375,-85.1358 351.701,-75.6279 349.426,-85.9756 356.375,-85.1358"/>
</g>
<!-- Node4&#45;&gt;Node31 -->
<g id="edge77" class="edge"><title>Node4&#45;&gt;Node31</title>
<path fill="none" stroke="midnightblue" d="M1385.63,-280.499C1417.08,-272.204 1465.32,-258.711 1506.21,-244 1550.36,-228.113 1600.09,-205.822 1630.01,-191.905"/>
<polygon fill="midnightblue" stroke="midnightblue" points="1631.79,-194.937 1639.37,-187.528 1628.83,-188.597 1631.79,-194.937"/>
</g>
<!-- Node4&#45;&gt;Node34 -->
<g id="edge82" class="edge"><title>Node4&#45;&gt;Node34</title>
<path fill="none" stroke="midnightblue" d="M1385.97,-280.454C1412.17,-273.005 1448.86,-260.76 1478.21,-244 1501.98,-230.429 1525.6,-209.413 1540.52,-194.972"/>
<polygon fill="midnightblue" stroke="midnightblue" points="1543.21,-197.236 1547.86,-187.716 1538.28,-192.26 1543.21,-197.236"/>
</g>
<!-- Node36 -->
<g id="node36" class="node"><title>Node36</title>
<polygon fill="white" stroke="#bfbfbf" points="1306.21,-224.5 1306.21,-243.5 1398.21,-243.5 1398.21,-224.5 1306.21,-224.5"/>
<text text-anchor="middle" x="1352.21" y="-231.5" font-family="Helvetica,sans-Serif" font-size="10.00">stm32f4xx_adc.h</text>
</g>
<!-- Node4&#45;&gt;Node36 -->
<g id="edge78" class="edge"><title>Node4&#45;&gt;Node36</title>
<path fill="none" stroke="midnightblue" d="M1352.21,-280.083C1352.21,-273.006 1352.21,-262.861 1352.21,-253.986"/>
<polygon fill="midnightblue" stroke="midnightblue" points="1355.71,-253.751 1352.21,-243.751 1348.71,-253.751 1355.71,-253.751"/>
</g>
<!-- Node37 -->
<g id="node37" class="node"><title>Node37</title>
<polygon fill="white" stroke="#bfbfbf" points="1158.21,-224.5 1158.21,-243.5 1250.21,-243.5 1250.21,-224.5 1158.21,-224.5"/>
<text text-anchor="middle" x="1204.21" y="-231.5" font-family="Helvetica,sans-Serif" font-size="10.00">stm32f4xx_dac.h</text>
</g>
<!-- Node4&#45;&gt;Node37 -->
<g id="edge79" class="edge"><title>Node4&#45;&gt;Node37</title>
<path fill="none" stroke="midnightblue" d="M1328.76,-280.444C1304.08,-271.438 1265.03,-257.189 1237.23,-247.049"/>
<polygon fill="midnightblue" stroke="midnightblue" points="1238.15,-243.656 1227.55,-243.516 1235.75,-250.232 1238.15,-243.656"/>
</g>
<!-- Node7 -->
<g id="node7" class="node"><title>Node7</title>
<polygon fill="white" stroke="#bfbfbf" points="567.211,-56.5 567.211,-75.5 613.211,-75.5 613.211,-56.5 567.211,-56.5"/>
<text text-anchor="middle" x="590.211" y="-63.5" font-family="Helvetica,sans-Serif" font-size="10.00">misc.h</text>
</g>
<!-- Node6&#45;&gt;Node7 -->
<g id="edge6" class="edge"><title>Node6&#45;&gt;Node7</title>
<path fill="none" stroke="midnightblue" d="M702.193,-231.749C640.564,-228.801 521.116,-219.12 495.211,-188 489.524,-181.168 491.935,-176.263 495.211,-168 509.999,-130.694 545.811,-99.1463 568.996,-81.6764"/>
<polygon fill="midnightblue" stroke="midnightblue" points="571.183,-84.413 577.193,-75.6876 567.054,-78.7607 571.183,-84.413"/>
</g>
<!-- Node8&#45;&gt;Node2 -->
<g id="edge47" class="edge"><title>Node8&#45;&gt;Node2</title>
<path fill="none" stroke="midnightblue" d="M1139.57,-243.541C1173.87,-256.509 1241.67,-281.6 1300.21,-300 1341.18,-312.877 1388.54,-325.649 1421.8,-334.277"/>
<polygon fill="midnightblue" stroke="midnightblue" points="1421.09,-337.708 1431.64,-336.818 1422.83,-330.93 1421.09,-337.708"/>
</g>
<!-- Node8&#45;&gt;Node3 -->
<g id="edge8" class="edge"><title>Node8&#45;&gt;Node3</title>
<path fill="none" stroke="midnightblue" d="M1129.91,-224.284C1153.24,-208.404 1202.27,-175.683 1221.21,-168 1280.66,-143.886 1355.11,-131.82 1397.2,-126.526"/>
<polygon fill="midnightblue" stroke="midnightblue" points="1397.67,-129.995 1407.18,-125.323 1396.83,-123.046 1397.67,-129.995"/>
</g>
<!-- Node8&#45;&gt;Node4 -->
<g id="edge48" class="edge"><title>Node8&#45;&gt;Node4</title>
<path fill="none" stroke="midnightblue" d="M1140.25,-239.295C1146.26,-240.845 1152.5,-242.566 1158.21,-244 1209.26,-256.826 1268.01,-269.64 1307.47,-278.294"/>
<polygon fill="midnightblue" stroke="midnightblue" points="1306.8,-281.73 1317.31,-280.457 1308.3,-274.893 1306.8,-281.73"/>
</g>
<!-- Node8&#45;&gt;Node5 -->
<g id="edge13" class="edge"><title>Node8&#45;&gt;Node5</title>
<path fill="none" stroke="midnightblue" d="M1101.39,-224.34C1082.15,-212.584 1053.58,-190.455 1065.21,-168 1077.98,-143.366 1097.69,-152.657 1116.21,-132 1128.7,-118.071 1138.59,-99.062 1144.82,-85.1999"/>
<polygon fill="midnightblue" stroke="midnightblue" points="1148.14,-86.3427 1148.85,-75.772 1141.7,-83.5902 1148.14,-86.3427"/>
</g>
<!-- Node9 -->
<g id="node9" class="node"><title>Node9</title>
<polygon fill="white" stroke="#bfbfbf" points="1549.21,-112.5 1549.21,-131.5 1597.21,-131.5 1597.21,-112.5 1549.21,-112.5"/>
<text text-anchor="middle" x="1573.21" y="-119.5" font-family="Helvetica,sans-Serif" font-size="10.00">stdlib.h</text>
</g>
<!-- Node8&#45;&gt;Node9 -->
<g id="edge9" class="edge"><title>Node8&#45;&gt;Node9</title>
<path fill="none" stroke="midnightblue" d="M1140.25,-226.373C1143.26,-225.55 1146.3,-224.74 1149.21,-224 1219.01,-206.245 1239.66,-212.984 1307.21,-188 1325.11,-181.38 1327.18,-174.256 1345.21,-168 1428.06,-139.253 1453.65,-151.234 1539.21,-132 1539.31,-131.977 1539.41,-131.955 1539.51,-131.932"/>
<polygon fill="midnightblue" stroke="midnightblue" points="1540.22,-135.362 1549.12,-129.617 1538.58,-128.557 1540.22,-135.362"/>
</g>
<!-- Node10 -->
<g id="node10" class="node"><title>Node10</title>
<polygon fill="white" stroke="#bfbfbf" points="1615.71,-112.5 1615.71,-131.5 1664.71,-131.5 1664.71,-112.5 1615.71,-112.5"/>
<text text-anchor="middle" x="1640.21" y="-119.5" font-family="Helvetica,sans-Serif" font-size="10.00">string.h</text>
</g>
<!-- Node8&#45;&gt;Node10 -->
<g id="edge10" class="edge"><title>Node8&#45;&gt;Node10</title>
<path fill="none" stroke="midnightblue" d="M1140.51,-225.887C1143.42,-225.165 1146.37,-224.51 1149.21,-224 1245.99,-206.609 1503.84,-234.991 1590.21,-188 1609.5,-177.507 1623.69,-156.067 1631.93,-140.678"/>
<polygon fill="midnightblue" stroke="midnightblue" points="1635.12,-142.122 1636.48,-131.615 1628.87,-138.983 1635.12,-142.122"/>
</g>
<!-- Node11 -->
<g id="node11" class="node"><title>Node11</title>
<polygon fill="white" stroke="#bfbfbf" points="790.211,-168.5 790.211,-187.5 858.211,-187.5 858.211,-168.5 790.211,-168.5"/>
<text text-anchor="middle" x="824.211" y="-175.5" font-family="Helvetica,sans-Serif" font-size="10.00">stdint&#45;gcc.h</text>
</g>
<!-- Node8&#45;&gt;Node11 -->
<g id="edge11" class="edge"><title>Node8&#45;&gt;Node11</title>
<path fill="none" stroke="midnightblue" d="M1094.08,-229.061C1051.5,-221.763 957.649,-205.452 868.468,-188.203"/>
<polygon fill="midnightblue" stroke="midnightblue" points="868.945,-184.73 858.461,-186.26 867.61,-191.602 868.945,-184.73"/>
</g>
<!-- Node12 -->
<g id="node12" class="node"><title>Node12</title>
<g id="a_node12"><a xlink:href="a00016.html" target="_top" xlink:title="Platform/Compiler dependent definitions. ">
<polygon fill="white" stroke="black" points="223.711,-56.5 223.711,-75.5 288.711,-75.5 288.711,-56.5 223.711,-56.5"/>
<text text-anchor="middle" x="256.211" y="-63.5" font-family="Helvetica,sans-Serif" font-size="10.00">attributes.h</text>
</a>
</g>
</g>
<!-- Node8&#45;&gt;Node12 -->
<g id="edge12" class="edge"><title>Node8&#45;&gt;Node12</title>
<path fill="none" stroke="midnightblue" d="M1093.78,-232.333C955.839,-228.166 253.649,-203.516 194.211,-132 178.635,-113.259 205.173,-93.1796 228.216,-80.3779"/>
<polygon fill="midnightblue" stroke="midnightblue" points="229.894,-83.4501 237.101,-75.6847 226.624,-77.2604 229.894,-83.4501"/>
</g>
<!-- Node13 -->
<g id="node13" class="node"><title>Node13</title>
<g id="a_node13"><a xlink:href="a00031.html" target="_top" xlink:title="Provides SysTick&#45;Timer driven delay functions. ">
<polygon fill="white" stroke="black" points="563.711,-112.5 563.711,-131.5 670.711,-131.5 670.711,-112.5 563.711,-112.5"/>
<text text-anchor="middle" x="617.211" y="-119.5" font-family="Helvetica,sans-Serif" font-size="10.00">md_stm32f4_delay.h</text>
</a>
</g>
</g>
<!-- Node8&#45;&gt;Node13 -->
<g id="edge14" class="edge"><title>Node8&#45;&gt;Node13</title>
<path fill="none" stroke="midnightblue" d="M1093.9,-232.288C1038.55,-230.083 895.326,-221.339 781.211,-188 760.979,-182.089 757.659,-176.124 738.211,-168 709.31,-155.927 675.906,-143.626 651.527,-134.943"/>
<polygon fill="midnightblue" stroke="midnightblue" points="652.594,-131.608 641.999,-131.57 650.258,-138.206 652.594,-131.608"/>
</g>
<!-- Node16 -->
<g id="node16" class="node"><title>Node16</title>
<g id="a_node16"><a xlink:href="a00033.html" target="_top" xlink:title="Definitions to extend board support for STM32F429i&#45;DISCO and equivalent boards. ">
<polygon fill="white" stroke="black" points="973.711,-112.5 973.711,-131.5 1080.71,-131.5 1080.71,-112.5 973.711,-112.5"/>
<text text-anchor="middle" x="1027.21" y="-119.5" font-family="Helvetica,sans-Serif" font-size="10.00">md_stm32f4_disco.h</text>
</a>
</g>
</g>
<!-- Node8&#45;&gt;Node16 -->
<g id="edge18" class="edge"><title>Node8&#45;&gt;Node16</title>
<path fill="none" stroke="midnightblue" d="M1094.2,-227.503C1074.21,-221.421 1046.31,-209.504 1032.21,-188 1023.39,-174.542 1022.82,-155.982 1024.06,-142.139"/>
<polygon fill="midnightblue" stroke="midnightblue" points="1027.59,-142.201 1025.39,-131.836 1020.64,-141.307 1027.59,-142.201"/>
</g>
<!-- Node18 -->
<g id="node18" class="node"><title>Node18</title>
<g id="a_node18"><a xlink:href="a00037_source.html" target="_top" xlink:title="md_stm32f4_timer.h">
<polygon fill="white" stroke="black" points="203.211,-112.5 203.211,-131.5 309.211,-131.5 309.211,-112.5 203.211,-112.5"/>
<text text-anchor="middle" x="256.211" y="-119.5" font-family="Helvetica,sans-Serif" font-size="10.00">md_stm32f4_timer.h</text>
</a>
</g>
</g>
<!-- Node8&#45;&gt;Node18 -->
<g id="edge23" class="edge"><title>Node8&#45;&gt;Node18</title>
<path fill="none" stroke="midnightblue" d="M1093.99,-231.823C1017.52,-227.74 774.275,-213.053 700.211,-188 683.965,-182.505 683.452,-173.508 667.211,-168 635.107,-157.113 426.586,-137.79 319.49,-128.409"/>
<polygon fill="midnightblue" stroke="midnightblue" points="319.719,-124.916 309.452,-127.533 319.11,-131.889 319.719,-124.916"/>
</g>
<!-- Node19 -->
<g id="node19" class="node"><title>Node19</title>
<g id="a_node19"><a xlink:href="a00057_source.html" target="_top" xlink:title="tm_stm32f4_pwm.h">
<polygon fill="white" stroke="black" points="876.711,-168.5 876.711,-187.5 979.711,-187.5 979.711,-168.5 876.711,-168.5"/>
<text text-anchor="middle" x="928.211" y="-175.5" font-family="Helvetica,sans-Serif" font-size="10.00">tm_stm32f4_pwm.h</text>
</a>
</g>
</g>
<!-- Node8&#45;&gt;Node19 -->
<g id="edge26" class="edge"><title>Node8&#45;&gt;Node19</title>
<path fill="none" stroke="midnightblue" d="M1094.04,-226.379C1062.64,-217.408 1006.12,-201.261 967.898,-190.339"/>
<polygon fill="midnightblue" stroke="midnightblue" points="968.696,-186.927 958.119,-187.545 966.773,-193.658 968.696,-186.927"/>
</g>
<!-- Node22 -->
<g id="node22" class="node"><title>Node22</title>
<g id="a_node22"><a xlink:href="a00063_source.html" target="_top" xlink:title="tm_stm32f4_usart.h">
<polygon fill="white" stroke="black" points="403.211,-112.5 403.211,-131.5 507.211,-131.5 507.211,-112.5 403.211,-112.5"/>
<text text-anchor="middle" x="455.211" y="-119.5" font-family="Helvetica,sans-Serif" font-size="10.00">tm_stm32f4_usart.h</text>
</a>
</g>
</g>
<!-- Node8&#45;&gt;Node22 -->
<g id="edge37" class="edge"><title>Node8&#45;&gt;Node22</title>
<path fill="none" stroke="midnightblue" d="M1093.96,-233.155C1033.73,-232.941 868.241,-228.413 738.211,-188 719.985,-182.336 718.247,-174.24 700.211,-168 639.99,-147.167 567.926,-135.408 517.603,-129.179"/>
<polygon fill="midnightblue" stroke="midnightblue" points="517.869,-125.686 507.523,-127.969 517.035,-132.636 517.869,-125.686"/>
</g>
<!-- Node24 -->
<g id="node24" class="node"><title>Node24</title>
<polygon fill="white" stroke="#bfbfbf" points="504.211,-168.5 504.211,-187.5 572.211,-187.5 572.211,-168.5 504.211,-168.5"/>
<text text-anchor="middle" x="538.211" y="-175.5" font-family="Helvetica,sans-Serif" font-size="10.00">core_cm4.h</text>
</g>
<!-- Node8&#45;&gt;Node24 -->
<g id="edge45" class="edge"><title>Node8&#45;&gt;Node24</title>
<path fill="none" stroke="midnightblue" d="M1094.11,-232.074C1020.72,-228.918 786.214,-217.202 582.399,-188.001"/>
<polygon fill="midnightblue" stroke="midnightblue" points="582.81,-184.524 572.411,-186.553 581.805,-191.452 582.81,-184.524"/>
</g>
<!-- Node25 -->
<g id="node25" class="node"><title>Node25</title>
<polygon fill="white" stroke="#bfbfbf" points="590.211,-168.5 590.211,-187.5 658.211,-187.5 658.211,-168.5 590.211,-168.5"/>
<text text-anchor="middle" x="624.211" y="-175.5" font-family="Helvetica,sans-Serif" font-size="10.00">arm_math.h</text>
</g>
<!-- Node8&#45;&gt;Node25 -->
<g id="edge46" class="edge"><title>Node8&#45;&gt;Node25</title>
<path fill="none" stroke="midnightblue" d="M1093.96,-231.346C1027.79,-226.49 832.843,-211.139 672.211,-188 670.936,-187.816 669.644,-187.623 668.341,-187.421"/>
<polygon fill="midnightblue" stroke="midnightblue" points="668.678,-183.93 658.24,-185.748 667.534,-190.835 668.678,-183.93"/>
</g>
<!-- Node26 -->
<g id="node26" class="node"><title>Node26</title>
<g id="a_node26"><a xlink:href="a00044.html" target="_top" xlink:title="Provides initialization methods to configure analog subsystems and DMA controller. ">
<polygon fill="white" stroke="black" points="1074.71,-168.5 1074.71,-187.5 1173.71,-187.5 1173.71,-168.5 1074.71,-168.5"/>
<text text-anchor="middle" x="1124.21" y="-175.5" font-family="Helvetica,sans-Serif" font-size="10.00">periph2dma_conf.h</text>
</a>
</g>
</g>
<!-- Node8&#45;&gt;Node26 -->
<g id="edge49" class="edge"><title>Node8&#45;&gt;Node26</title>
<path fill="none" stroke="midnightblue" d="M1118.37,-224.083C1119.29,-216.927 1120.63,-206.635 1121.79,-197.691"/>
<polygon fill="midnightblue" stroke="midnightblue" points="1125.26,-198.118 1123.08,-187.751 1118.32,-197.218 1125.26,-198.118"/>
</g>
<!-- Node8&#45;&gt;Node28 -->
<g id="edge55" class="edge"><title>Node8&#45;&gt;Node28</title>
<path fill="none" stroke="midnightblue" d="M1138.17,-224.483C1138.85,-224.318 1139.54,-224.156 1140.21,-224 1177.57,-215.348 1280.52,-197.207 1343.7,-186.794"/>
<polygon fill="midnightblue" stroke="midnightblue" points="1344.56,-190.2 1353.86,-185.13 1343.43,-183.292 1344.56,-190.2"/>
</g>
<!-- Node8&#45;&gt;Node29 -->
<g id="edge59" class="edge"><title>Node8&#45;&gt;Node29</title>
<path fill="none" stroke="midnightblue" d="M1093.95,-231.718C966.406,-224.69 351.402,-190.802 181.04,-181.415"/>
<polygon fill="midnightblue" stroke="midnightblue" points="181.11,-177.914 170.933,-180.858 180.725,-184.903 181.11,-177.914"/>
</g>
<!-- Node8&#45;&gt;Node31 -->
<g id="edge63" class="edge"><title>Node8&#45;&gt;Node31</title>
<path fill="none" stroke="midnightblue" d="M1140.51,-225.871C1143.42,-225.151 1146.37,-224.502 1149.21,-224 1357.7,-187.158 1415.58,-224.017 1624.21,-188 1625.49,-187.778 1626.8,-187.529 1628.12,-187.257"/>
<polygon fill="midnightblue" stroke="midnightblue" points="1629.24,-190.587 1638.15,-184.86 1627.62,-183.778 1629.24,-190.587"/>
</g>
<!-- Node33 -->
<g id="node33" class="node"><title>Node33</title>
<g id="a_node33"><a xlink:href="a00049.html" target="_top" xlink:title="Provides DAC driven signal generator functions. ">
<polygon fill="white" stroke="black" points="1230.21,-168.5 1230.21,-187.5 1298.21,-187.5 1298.21,-168.5 1230.21,-168.5"/>
<text text-anchor="middle" x="1264.21" y="-175.5" font-family="Helvetica,sans-Serif" font-size="10.00">signalGen.h</text>
</a>
</g>
</g>
<!-- Node8&#45;&gt;Node33 -->
<g id="edge70" class="edge"><title>Node8&#45;&gt;Node33</title>
<path fill="none" stroke="midnightblue" d="M1140.5,-224.444C1165.02,-215.438 1203.81,-201.189 1231.41,-191.049"/>
<polygon fill="midnightblue" stroke="midnightblue" points="1232.85,-194.25 1241.03,-187.516 1230.43,-187.679 1232.85,-194.25"/>
</g>
<!-- Node8&#45;&gt;Node34 -->
<g id="edge72" class="edge"><title>Node8&#45;&gt;Node34</title>
<path fill="none" stroke="midnightblue" d="M1140.52,-225.966C1143.43,-225.23 1146.38,-224.551 1149.21,-224 1220.13,-210.202 1435.03,-189.944 1520.55,-182.185"/>
<polygon fill="midnightblue" stroke="midnightblue" points="1520.91,-185.666 1530.56,-181.28 1520.28,-178.695 1520.91,-185.666"/>
</g>
<!-- Node13&#45;&gt;Node5 -->
<g id="edge17" class="edge"><title>Node13&#45;&gt;Node5</title>
<path fill="none" stroke="midnightblue" d="M670.958,-115.575C779.012,-104.669 1020.22,-80.3221 1113.94,-70.8627"/>
<polygon fill="midnightblue" stroke="midnightblue" points="1114.51,-74.3236 1124.1,-69.837 1113.8,-67.359 1114.51,-74.3236"/>
</g>
<!-- Node13&#45;&gt;Node14 -->
<g id="edge15" class="edge"><title>Node13&#45;&gt;Node14</title>
<path fill="none" stroke="midnightblue" d="M624.851,-112.184C637.783,-97.8864 665.492,-69.8484 695.211,-56 762.035,-24.8607 848.131,-15.1919 900.15,-12.237"/>
<polygon fill="midnightblue" stroke="midnightblue" points="900.589,-15.7194 910.399,-11.7171 900.234,-8.72834 900.589,-15.7194"/>
</g>
<!-- Node13&#45;&gt;Node15 -->
<g id="edge16" class="edge"><title>Node13&#45;&gt;Node15</title>
<path fill="none" stroke="midnightblue" d="M575.062,-112.444C528.465,-102.984 453.367,-87.7384 403.166,-77.5472"/>
<polygon fill="midnightblue" stroke="midnightblue" points="403.659,-74.076 393.162,-75.5164 402.266,-80.936 403.659,-74.076"/>
</g>
<!-- Node16&#45;&gt;Node5 -->
<g id="edge19" class="edge"><title>Node16&#45;&gt;Node5</title>
<path fill="none" stroke="midnightblue" d="M1047.02,-112.444C1067.5,-103.596 1099.69,-89.6875 1123.08,-79.5865"/>
<polygon fill="midnightblue" stroke="midnightblue" points="1124.7,-82.6953 1132.5,-75.5164 1121.93,-76.2692 1124.7,-82.6953"/>
</g>
<!-- Node16&#45;&gt;Node14 -->
<g id="edge20" class="edge"><title>Node16&#45;&gt;Node14</title>
<path fill="none" stroke="midnightblue" d="M1033.97,-112.351C1043.32,-99.2412 1057.83,-73.9687 1046.21,-56 1034.04,-37.1776 1011.91,-26.1502 991.562,-19.729"/>
<polygon fill="midnightblue" stroke="midnightblue" points="992.342,-16.312 981.766,-16.9329 990.421,-23.0432 992.342,-16.312"/>
</g>
<!-- Node17 -->
<g id="node17" class="node"><title>Node17</title>
<g id="a_node17"><a xlink:href="a00035.html" target="_top" xlink:title="Provides generic methods for GPIO module initialization and manipulation. ">
<polygon fill="white" stroke="black" points="935.211,-56.5 935.211,-75.5 1037.21,-75.5 1037.21,-56.5 935.211,-56.5"/>
<text text-anchor="middle" x="986.211" y="-63.5" font-family="Helvetica,sans-Serif" font-size="10.00">md_stm32f4_gpio.h</text>
</a>
</g>
</g>
<!-- Node16&#45;&gt;Node17 -->
<g id="edge21" class="edge"><title>Node16&#45;&gt;Node17</title>
<path fill="none" stroke="midnightblue" d="M1020.44,-112.083C1014.65,-104.455 1006.15,-93.2645 999.073,-83.9408"/>
<polygon fill="midnightblue" stroke="midnightblue" points="1001.69,-81.5991 992.855,-75.7511 996.115,-85.8321 1001.69,-81.5991"/>
</g>
<!-- Node17&#45;&gt;Node14 -->
<g id="edge22" class="edge"><title>Node17&#45;&gt;Node14</title>
<path fill="none" stroke="midnightblue" d="M979.606,-56.083C973.956,-48.4554 965.666,-37.2645 958.76,-27.9408"/>
<polygon fill="midnightblue" stroke="midnightblue" points="961.458,-25.7034 952.693,-19.7511 955.833,-29.87 961.458,-25.7034"/>
</g>
<!-- Node18&#45;&gt;Node14 -->
<g id="edge24" class="edge"><title>Node18&#45;&gt;Node14</title>
<path fill="none" stroke="midnightblue" d="M243.512,-112.312C225.754,-99.1514 197.459,-73.8132 214.211,-56 237.766,-30.9527 742.86,-16.1329 899.986,-12.1163"/>
<polygon fill="midnightblue" stroke="midnightblue" points="900.347,-15.6084 910.256,-11.8566 900.17,-8.61066 900.347,-15.6084"/>
</g>
<!-- Node18&#45;&gt;Node15 -->
<g id="edge25" class="edge"><title>Node18&#45;&gt;Node15</title>
<path fill="none" stroke="midnightblue" d="M271.474,-112.324C286.432,-103.822 309.466,-90.7288 326.937,-80.7975"/>
<polygon fill="midnightblue" stroke="midnightblue" points="329.021,-83.639 335.985,-75.6545 325.562,-77.5534 329.021,-83.639"/>
</g>
<!-- Node19&#45;&gt;Node5 -->
<g id="edge36" class="edge"><title>Node19&#45;&gt;Node5</title>
<path fill="none" stroke="midnightblue" d="M979.915,-169.702C1012.93,-163.37 1055.67,-151.962 1089.21,-132 1110.01,-119.621 1128.59,-98.6072 1140.09,-83.8306"/>
<polygon fill="midnightblue" stroke="midnightblue" points="1143.09,-85.6678 1146.29,-75.5691 1137.49,-81.4655 1143.09,-85.6678"/>
</g>
<!-- Node19&#45;&gt;Node14 -->
<g id="edge27" class="edge"><title>Node19&#45;&gt;Node14</title>
<path fill="none" stroke="midnightblue" d="M926.76,-168.365C923.677,-148.343 917.444,-97.3098 926.211,-56 928.207,-46.5915 932.312,-36.7618 936.285,-28.6981"/>
<polygon fill="midnightblue" stroke="midnightblue" points="939.517,-30.0721 941.081,-19.5932 933.324,-26.8101 939.517,-30.0721"/>
</g>
<!-- Node19&#45;&gt;Node15 -->
<g id="edge28" class="edge"><title>Node19&#45;&gt;Node15</title>
<path fill="none" stroke="midnightblue" d="M876.659,-169.133C873.465,-168.727 870.296,-168.345 867.211,-168 762.447,-156.299 485.102,-185.396 394.211,-132 376.39,-121.531 364.527,-100.414 357.856,-85.0823"/>
<polygon fill="midnightblue" stroke="midnightblue" points="361.024,-83.5778 354.058,-75.5948 354.525,-86.1793 361.024,-83.5778"/>
</g>
<!-- Node19&#45;&gt;Node17 -->
<g id="edge29" class="edge"><title>Node19&#45;&gt;Node17</title>
<path fill="none" stroke="midnightblue" d="M932.762,-168.368C942.249,-150.376 964.302,-108.55 976.917,-84.6267"/>
<polygon fill="midnightblue" stroke="midnightblue" points="980.113,-86.0696 981.681,-75.5914 973.921,-82.8047 980.113,-86.0696"/>
</g>
<!-- Node20 -->
<g id="node20" class="node"><title>Node20</title>
<polygon fill="white" stroke="#bfbfbf" points="704.711,-56.5 704.711,-75.5 793.711,-75.5 793.711,-56.5 704.711,-56.5"/>
<text text-anchor="middle" x="749.211" y="-63.5" font-family="Helvetica,sans-Serif" font-size="10.00">stm32f4xx_tim.h</text>
</g>
<!-- Node19&#45;&gt;Node20 -->
<g id="edge30" class="edge"><title>Node19&#45;&gt;Node20</title>
<path fill="none" stroke="midnightblue" d="M876.668,-169.39C817.773,-160.17 728.188,-144.341 718.211,-132 706.253,-117.208 719.457,-97.0401 732.139,-83.1108"/>
<polygon fill="midnightblue" stroke="midnightblue" points="734.873,-85.32 739.352,-75.718 729.863,-80.4316 734.873,-85.32"/>
</g>
<!-- Node21 -->
<g id="node21" class="node"><title>Node21</title>
<g id="a_node21"><a xlink:href="a00061_source.html" target="_top" xlink:title="tm_stm32f4_timer_properties.h">
<polygon fill="white" stroke="black" points="727.211,-112.5 727.211,-131.5 879.211,-131.5 879.211,-112.5 727.211,-112.5"/>
<text text-anchor="middle" x="803.211" y="-119.5" font-family="Helvetica,sans-Serif" font-size="10.00">tm_stm32f4_timer_properties.h</text>
</a>
</g>
</g>
<!-- Node19&#45;&gt;Node21 -->
<g id="edge31" class="edge"><title>Node19&#45;&gt;Node21</title>
<path fill="none" stroke="midnightblue" d="M908.404,-168.444C887.924,-159.596 855.728,-145.687 832.346,-135.586"/>
<polygon fill="midnightblue" stroke="midnightblue" points="833.493,-132.269 822.925,-131.516 830.717,-138.695 833.493,-132.269"/>
</g>
<!-- Node21&#45;&gt;Node5 -->
<g id="edge35" class="edge"><title>Node21&#45;&gt;Node5</title>
<path fill="none" stroke="midnightblue" d="M858.511,-112.444C929.735,-101.423 1051.71,-82.5507 1113.66,-72.9647"/>
<polygon fill="midnightblue" stroke="midnightblue" points="1114.44,-76.3856 1123.79,-71.3976 1113.37,-69.4679 1114.44,-76.3856"/>
</g>
<!-- Node21&#45;&gt;Node14 -->
<g id="edge32" class="edge"><title>Node21&#45;&gt;Node14</title>
<path fill="none" stroke="midnightblue" d="M814.432,-112.368C838.762,-93.6531 896.615,-49.1509 926.929,-25.8324"/>
<polygon fill="midnightblue" stroke="midnightblue" points="929.25,-28.4628 935.042,-19.5914 924.982,-22.9144 929.25,-28.4628"/>
</g>
<!-- Node21&#45;&gt;Node15 -->
<g id="edge33" class="edge"><title>Node21&#45;&gt;Node15</title>
<path fill="none" stroke="midnightblue" d="M726.931,-113.677C648.71,-105.876 523.293,-92.5645 405.62,-76.1359"/>
<polygon fill="midnightblue" stroke="midnightblue" points="406.106,-72.6698 395.716,-74.743 405.131,-79.6016 406.106,-72.6698"/>
</g>
<!-- Node21&#45;&gt;Node20 -->
<g id="edge34" class="edge"><title>Node21&#45;&gt;Node20</title>
<path fill="none" stroke="midnightblue" d="M794.294,-112.083C786.43,-104.22 774.78,-92.5688 765.292,-83.0813"/>
<polygon fill="midnightblue" stroke="midnightblue" points="767.508,-80.3473 757.962,-75.7511 762.558,-85.2971 767.508,-80.3473"/>
</g>
<!-- Node22&#45;&gt;Node5 -->
<g id="edge44" class="edge"><title>Node22&#45;&gt;Node5</title>
<path fill="none" stroke="midnightblue" d="M507.346,-116.087C522.459,-114.71 538.988,-113.249 554.211,-112 772.728,-94.0743 827.641,-93.2748 1046.21,-76 1068.63,-74.228 1093.71,-72.1054 1113.84,-70.3666"/>
<polygon fill="midnightblue" stroke="midnightblue" points="1114.21,-73.8472 1123.87,-69.4963 1113.61,-66.8734 1114.21,-73.8472"/>
</g>
<!-- Node22&#45;&gt;Node7 -->
<g id="edge38" class="edge"><title>Node22&#45;&gt;Node7</title>
<path fill="none" stroke="midnightblue" d="M476.602,-112.444C498.918,-103.517 534.114,-89.4387 559.419,-79.3168"/>
<polygon fill="midnightblue" stroke="midnightblue" points="560.935,-82.4801 568.92,-75.5164 558.335,-75.9807 560.935,-82.4801"/>
</g>
<!-- Node22&#45;&gt;Node12 -->
<g id="edge43" class="edge"><title>Node22&#45;&gt;Node12</title>
<path fill="none" stroke="midnightblue" d="M423.679,-112.444C389.619,-103.201 335.205,-88.4356 297.696,-78.2572"/>
<polygon fill="midnightblue" stroke="midnightblue" points="298.163,-74.7575 287.595,-75.5164 296.33,-81.5132 298.163,-74.7575"/>
</g>
<!-- Node22&#45;&gt;Node14 -->
<g id="edge39" class="edge"><title>Node22&#45;&gt;Node14</title>
<path fill="none" stroke="midnightblue" d="M467.358,-112.361C490.197,-96.2861 538.969,-62.7895 558.211,-56 620.416,-34.0512 812.155,-19.4738 900.624,-13.74"/>
<polygon fill="midnightblue" stroke="midnightblue" points="900.876,-17.2311 910.632,-13.1006 900.43,-10.2454 900.876,-17.2311"/>
</g>
<!-- Node22&#45;&gt;Node15 -->
<g id="edge40" class="edge"><title>Node22&#45;&gt;Node15</title>
<path fill="none" stroke="midnightblue" d="M438.501,-112.324C421.899,-103.703 396.209,-90.3643 376.99,-80.3855"/>
<polygon fill="midnightblue" stroke="midnightblue" points="378.367,-77.1565 367.879,-75.6545 375.141,-83.3689 378.367,-77.1565"/>
</g>
<!-- Node22&#45;&gt;Node17 -->
<g id="edge41" class="edge"><title>Node22&#45;&gt;Node17</title>
<path fill="none" stroke="midnightblue" d="M507.578,-115.674C606.332,-105.632 819.588,-83.9447 924.866,-73.2385"/>
<polygon fill="midnightblue" stroke="midnightblue" points="925.421,-76.7001 935.016,-72.2063 924.713,-69.7361 925.421,-76.7001"/>
</g>
<!-- Node23 -->
<g id="node23" class="node"><title>Node23</title>
<polygon fill="white" stroke="#bfbfbf" points="413.211,-56.5 413.211,-75.5 511.211,-75.5 511.211,-56.5 413.211,-56.5"/>
<text text-anchor="middle" x="462.211" y="-63.5" font-family="Helvetica,sans-Serif" font-size="10.00">stm32f4xx_usart.h</text>
</g>
<!-- Node22&#45;&gt;Node23 -->
<g id="edge42" class="edge"><title>Node22&#45;&gt;Node23</title>
<path fill="none" stroke="midnightblue" d="M456.367,-112.083C457.294,-104.927 458.628,-94.6353 459.788,-85.6911"/>
<polygon fill="midnightblue" stroke="midnightblue" points="463.262,-86.1181 461.076,-75.7511 456.32,-85.2181 463.262,-86.1181"/>
</g>
<!-- Node26&#45;&gt;Node14 -->
<g id="edge50" class="edge"><title>Node26&#45;&gt;Node14</title>
<path fill="none" stroke="midnightblue" d="M1173.78,-169.696C1215.62,-162.398 1270.79,-149.711 1284.21,-132 1289.58,-124.915 1288.12,-119.985 1284.21,-112 1266.4,-75.5827 1249.32,-72.3197 1212.21,-56 1139.51,-24.0278 1046.41,-14.6675 991.836,-11.9915"/>
<polygon fill="midnightblue" stroke="midnightblue" points="991.923,-8.49201 981.78,-11.5531 991.618,-15.4854 991.923,-8.49201"/>
</g>
<!-- Node27 -->
<g id="node27" class="node"><title>Node27</title>
<g id="a_node27"><a xlink:href="a00027.html" target="_top" xlink:title="Project XA&#45;Galvo scanner specific digital to analog converter methods. ">
<polygon fill="white" stroke="black" points="1175.21,-112.5 1175.21,-131.5 1275.21,-131.5 1275.21,-112.5 1175.21,-112.5"/>
<text text-anchor="middle" x="1225.21" y="-119.5" font-family="Helvetica,sans-Serif" font-size="10.00">md_stm32f4_dac.h</text>
</a>
</g>
</g>
<!-- Node26&#45;&gt;Node27 -->
<g id="edge51" class="edge"><title>Node26&#45;&gt;Node27</title>
<path fill="none" stroke="midnightblue" d="M1140.44,-168.324C1156.56,-159.703 1181.51,-146.364 1200.17,-136.386"/>
<polygon fill="midnightblue" stroke="midnightblue" points="1201.86,-139.456 1209.02,-131.655 1198.55,-133.283 1201.86,-139.456"/>
</g>
<!-- Node27&#45;&gt;Node5 -->
<g id="edge53" class="edge"><title>Node27&#45;&gt;Node5</title>
<path fill="none" stroke="midnightblue" d="M1213.48,-112.324C1202.37,-104.107 1185.47,-91.6017 1172.23,-81.8069"/>
<polygon fill="midnightblue" stroke="midnightblue" points="1174.27,-78.9671 1164.15,-75.8339 1170.11,-84.5948 1174.27,-78.9671"/>
</g>
<!-- Node27&#45;&gt;Node14 -->
<g id="edge52" class="edge"><title>Node27&#45;&gt;Node14</title>
<path fill="none" stroke="midnightblue" d="M1222.98,-112.223C1218.86,-97.9804 1208.68,-70.0204 1189.21,-56 1158.35,-33.7816 1053.74,-20.758 992.292,-14.8478"/>
<polygon fill="midnightblue" stroke="midnightblue" points="992.366,-11.3395 982.084,-13.893 991.714,-18.3091 992.366,-11.3395"/>
</g>
<!-- Node27&#45;&gt;Node17 -->
<g id="edge54" class="edge"><title>Node27&#45;&gt;Node17</title>
<path fill="none" stroke="midnightblue" d="M1187.34,-112.444C1145.73,-103.043 1078.84,-87.9291 1033.74,-77.7393"/>
<polygon fill="midnightblue" stroke="midnightblue" points="1034.43,-74.3064 1023.9,-75.5164 1032.89,-81.1343 1034.43,-74.3064"/>
</g>
<!-- Node28&#45;&gt;Node4 -->
<g id="edge58" class="edge"><title>Node28&#45;&gt;Node4</title>
<path fill="none" stroke="midnightblue" d="M1354.16,-186.891C1333.31,-193.199 1309.79,-204.378 1297.21,-224 1285.03,-242.993 1306.92,-262.443 1326.59,-275.054"/>
<polygon fill="midnightblue" stroke="midnightblue" points="1324.97,-278.164 1335.34,-280.341 1328.59,-272.173 1324.97,-278.164"/>
</g>
<!-- Node28&#45;&gt;Node5 -->
<g id="edge57" class="edge"><title>Node28&#45;&gt;Node5</title>
<path fill="none" stroke="midnightblue" d="M1382.35,-168.306C1362.13,-154.913 1321.37,-129.005 1284.21,-112 1253.46,-97.9301 1216.98,-85.819 1190.17,-77.7168"/>
<polygon fill="midnightblue" stroke="midnightblue" points="1190.98,-74.3072 1180.4,-74.8122 1188.99,-81.0169 1190.98,-74.3072"/>
</g>
<!-- Node28&#45;&gt;Node8 -->
<g id="edge56" class="edge"><title>Node28&#45;&gt;Node8</title>
<path fill="none" stroke="midnightblue" d="M1354.15,-187.09C1296.59,-197.548 1195.22,-215.43 1158.21,-224 1155.61,-224.602 1152.91,-225.28 1150.17,-225.986"/>
<polygon fill="midnightblue" stroke="midnightblue" points="1149.01,-222.672 1140.22,-228.589 1150.78,-229.444 1149.01,-222.672"/>
</g>
<!-- Node29&#45;&gt;Node14 -->
<g id="edge60" class="edge"><title>Node29&#45;&gt;Node14</title>
<path fill="none" stroke="midnightblue" d="M103.707,-173.08C56.293,-166.148 -21.6887,-148.834 6.21078,-112 61.6864,-38.7584 114.617,-71.3165 205.211,-56 465.493,-11.9948 783.611,-9.59907 900.409,-10.4001"/>
<polygon fill="midnightblue" stroke="midnightblue" points="900.399,-13.9 910.427,-10.4803 900.456,-6.90022 900.399,-13.9"/>
</g>
<!-- Node29&#45;&gt;Node15 -->
<g id="edge62" class="edge"><title>Node29&#45;&gt;Node15</title>
<path fill="none" stroke="midnightblue" d="M142.377,-168.431C151.227,-154.487 170.633,-126.947 194.211,-112 212.182,-100.607 263.046,-87.1054 302.056,-77.8837"/>
<polygon fill="midnightblue" stroke="midnightblue" points="303.255,-81.1982 312.199,-75.5186 301.665,-74.3811 303.255,-81.1982"/>
</g>
<!-- Node30 -->
<g id="node30" class="node"><title>Node30</title>
<polygon fill="white" stroke="#bfbfbf" points="15.2108,-112.5 15.2108,-131.5 109.211,-131.5 109.211,-112.5 15.2108,-112.5"/>
<text text-anchor="middle" x="62.2108" y="-119.5" font-family="Helvetica,sans-Serif" font-size="10.00">stm32f4xx_gpio.h</text>
</g>
<!-- Node29&#45;&gt;Node30 -->
<g id="edge61" class="edge"><title>Node29&#45;&gt;Node30</title>
<path fill="none" stroke="midnightblue" d="M125.161,-168.324C113.748,-160.107 96.3798,-147.602 82.7759,-137.807"/>
<polygon fill="midnightblue" stroke="midnightblue" points="84.6405,-134.837 74.4801,-131.834 80.5504,-140.517 84.6405,-134.837"/>
</g>
<!-- Node31&#45;&gt;Node3 -->
<g id="edge65" class="edge"><title>Node31&#45;&gt;Node3</title>
<path fill="none" stroke="midnightblue" d="M1638.04,-172.892C1604.58,-165.654 1533.14,-149.906 1463.11,-132.139"/>
<polygon fill="midnightblue" stroke="midnightblue" points="1463.8,-128.703 1453.25,-129.62 1462.07,-135.485 1463.8,-128.703"/>
</g>
<!-- Node31&#45;&gt;Node5 -->
<g id="edge69" class="edge"><title>Node31&#45;&gt;Node5</title>
<path fill="none" stroke="midnightblue" d="M1663.73,-168.207C1673.08,-154.443 1687.67,-127.758 1673.21,-112 1640.7,-76.5611 1305.1,-68.9589 1190.4,-67.3912"/>
<polygon fill="midnightblue" stroke="midnightblue" points="1190.36,-63.8906 1180.32,-67.2614 1190.27,-70.89 1190.36,-63.8906"/>
</g>
<!-- Node31&#45;&gt;Node9 -->
<g id="edge64" class="edge"><title>Node31&#45;&gt;Node9</title>
<path fill="none" stroke="midnightblue" d="M1643.71,-168.324C1630.61,-159.9 1610.5,-146.971 1595.1,-137.074"/>
<polygon fill="midnightblue" stroke="midnightblue" points="1596.98,-134.118 1586.67,-131.655 1593.19,-140.006 1596.98,-134.118"/>
</g>
<!-- Node31&#45;&gt;Node10 -->
<g id="edge66" class="edge"><title>Node31&#45;&gt;Node10</title>
<path fill="none" stroke="midnightblue" d="M1654.4,-168.083C1652.13,-160.849 1648.84,-150.409 1646,-141.397"/>
<polygon fill="midnightblue" stroke="midnightblue" points="1649.31,-140.239 1642.97,-131.751 1642.63,-142.341 1649.31,-140.239"/>
</g>
<!-- Node31&#45;&gt;Node14 -->
<g id="edge68" class="edge"><title>Node31&#45;&gt;Node14</title>
<path fill="none" stroke="midnightblue" d="M1676.43,-174.238C1718.21,-167.487 1811.12,-148.014 1779.21,-112 1726.54,-52.5536 1159.07,-21.0928 992.144,-13.0781"/>
<polygon fill="midnightblue" stroke="midnightblue" points="991.893,-9.56227 981.738,-12.584 991.561,-16.5544 991.893,-9.56227"/>
</g>
<!-- Node32 -->
<g id="node32" class="node"><title>Node32</title>
<polygon fill="white" stroke="#bfbfbf" points="1721.71,-112.5 1721.71,-131.5 1770.71,-131.5 1770.71,-112.5 1721.71,-112.5"/>
<text text-anchor="middle" x="1746.21" y="-119.5" font-family="Helvetica,sans-Serif" font-size="10.00">stdint.h</text>
</g>
<!-- Node31&#45;&gt;Node32 -->
<g id="edge67" class="edge"><title>Node31&#45;&gt;Node32</title>
<path fill="none" stroke="midnightblue" d="M1671.51,-168.324C1685.39,-159.9 1706.7,-146.971 1723.01,-137.074"/>
<polygon fill="midnightblue" stroke="midnightblue" points="1725.21,-139.834 1731.95,-131.655 1721.58,-133.85 1725.21,-139.834"/>
</g>
<!-- Node33&#45;&gt;Node3 -->
<g id="edge71" class="edge"><title>Node33&#45;&gt;Node3</title>
<path fill="none" stroke="midnightblue" d="M1290.51,-168.444C1319.47,-159.024 1366.06,-143.869 1397.38,-133.679"/>
<polygon fill="midnightblue" stroke="midnightblue" points="1398.55,-136.98 1406.98,-130.558 1396.38,-130.323 1398.55,-136.98"/>
</g>
<!-- Node34&#45;&gt;Node3 -->
<g id="edge73" class="edge"><title>Node34&#45;&gt;Node3</title>
<path fill="none" stroke="midnightblue" d="M1536.25,-168.444C1515.6,-159.596 1483.15,-145.687 1459.58,-135.586"/>
<polygon fill="midnightblue" stroke="midnightblue" points="1460.65,-132.239 1450.08,-131.516 1457.9,-138.673 1460.65,-132.239"/>
</g>
<!-- Node34&#45;&gt;Node9 -->
<g id="edge75" class="edge"><title>Node34&#45;&gt;Node9</title>
<path fill="none" stroke="midnightblue" d="M1559.02,-168.083C1561.3,-160.849 1564.58,-150.409 1567.42,-141.397"/>
<polygon fill="midnightblue" stroke="midnightblue" points="1570.79,-142.341 1570.46,-131.751 1564.11,-140.239 1570.79,-142.341"/>
</g>
<!-- Node34&#45;&gt;Node10 -->
<g id="edge74" class="edge"><title>Node34&#45;&gt;Node10</title>
<path fill="none" stroke="midnightblue" d="M1569.71,-168.324C1582.81,-159.9 1602.92,-146.971 1618.32,-137.074"/>
<polygon fill="midnightblue" stroke="midnightblue" points="1620.23,-140.006 1626.75,-131.655 1616.44,-134.118 1620.23,-140.006"/>
</g>
<!-- Node35 -->
<g id="node35" class="node"><title>Node35</title>
<polygon fill="white" stroke="#bfbfbf" points="1471.71,-112.5 1471.71,-131.5 1530.71,-131.5 1530.71,-112.5 1471.71,-112.5"/>
<text text-anchor="middle" x="1501.21" y="-119.5" font-family="Helvetica,sans-Serif" font-size="10.00">inttypes.h</text>
</g>
<!-- Node34&#45;&gt;Node35 -->
<g id="edge76" class="edge"><title>Node34&#45;&gt;Node35</title>
<path fill="none" stroke="midnightblue" d="M1547.13,-168.083C1539.04,-160.141 1527.02,-148.335 1517.3,-138.797"/>
<polygon fill="midnightblue" stroke="midnightblue" points="1519.71,-136.26 1510.12,-131.751 1514.81,-141.254 1519.71,-136.26"/>
</g>
</g>
</svg>
