<?xml version="1.0" encoding="UTF-8" standalone="no"?>
<!DOCTYPE svg PUBLIC "-//W3C//DTD SVG 1.1//EN"
 "http://www.w3.org/Graphics/SVG/1.1/DTD/svg11.dtd">
<!-- Generated by graphviz version 2.38.0 (20140413.2041)
 -->
<!-- Title: HASH_Init Pages: 1 -->
<svg width="186pt" height="142pt"
 viewBox="0.00 0.00 186.00 142.00" xmlns="http://www.w3.org/2000/svg" xmlns:xlink="http://www.w3.org/1999/xlink">
<g id="graph0" class="graph" transform="scale(1 1) rotate(0) translate(4 138)">
<title>HASH_Init</title>
<polygon fill="white" stroke="none" points="-4,4 -4,-138 182,-138 182,4 -4,4"/>
<!-- Node1 -->
<g id="node1" class="node"><title>Node1</title>
<polygon fill="#bfbfbf" stroke="black" points="0,-57.5 0,-76.5 64,-76.5 64,-57.5 0,-57.5"/>
<text text-anchor="middle" x="32" y="-64.5" font-family="Helvetica,sans-Serif" font-size="10.00">HASH_Init</text>
</g>
<!-- Node2 -->
<g id="node2" class="node"><title>Node2</title>
<g id="a_node2"><a xlink:href="a01027.html#ga82a155884e458cc6b7c1a4565c1ac8e9" target="_top" xlink:title="Compute the HASH MD5 digest. ">
<polygon fill="white" stroke="black" points="103.5,-114.5 103.5,-133.5 174.5,-133.5 174.5,-114.5 103.5,-114.5"/>
<text text-anchor="middle" x="139" y="-121.5" font-family="Helvetica,sans-Serif" font-size="10.00">HASH_MD5</text>
</a>
</g>
</g>
<!-- Node1&#45;&gt;Node2 -->
<g id="edge1" class="edge"><title>Node1&#45;&gt;Node2</title>
<path fill="none" stroke="midnightblue" d="M58.2988,-81.762C70.7689,-88.9323 86.0829,-97.5806 100,-105 105.858,-108.123 112.294,-111.398 118.177,-114.333"/>
<polygon fill="midnightblue" stroke="midnightblue" points="59.7968,-78.5854 49.3874,-76.6118 56.2941,-84.646 59.7968,-78.5854"/>
</g>
<!-- Node3 -->
<g id="node3" class="node"><title>Node3</title>
<g id="a_node3"><a xlink:href="a01027.html#gac61733e7aa66bdd2f21be4b34165b5be" target="_top" xlink:title="Compute the HMAC MD5 digest. ">
<polygon fill="white" stroke="black" points="102.5,-76.5 102.5,-95.5 175.5,-95.5 175.5,-76.5 102.5,-76.5"/>
<text text-anchor="middle" x="139" y="-83.5" font-family="Helvetica,sans-Serif" font-size="10.00">HMAC_MD5</text>
</a>
</g>
</g>
<!-- Node1&#45;&gt;Node3 -->
<g id="edge2" class="edge"><title>Node1&#45;&gt;Node3</title>
<path fill="none" stroke="midnightblue" d="M74.074,-74.4324C83.3931,-76.1188 93.2171,-77.8964 102.293,-79.5387"/>
<polygon fill="midnightblue" stroke="midnightblue" points="74.6826,-70.9858 64.2192,-72.6492 73.4361,-77.8739 74.6826,-70.9858"/>
</g>
<!-- Node4 -->
<g id="node4" class="node"><title>Node4</title>
<g id="a_node4"><a xlink:href="a01028.html#ga2728c02c36de6d800e1ede56ea7789cb" target="_top" xlink:title="Compute the HASH SHA1 digest. ">
<polygon fill="white" stroke="black" points="100.5,-38.5 100.5,-57.5 177.5,-57.5 177.5,-38.5 100.5,-38.5"/>
<text text-anchor="middle" x="139" y="-45.5" font-family="Helvetica,sans-Serif" font-size="10.00">HASH_SHA1</text>
</a>
</g>
</g>
<!-- Node1&#45;&gt;Node4 -->
<g id="edge3" class="edge"><title>Node1&#45;&gt;Node4</title>
<path fill="none" stroke="midnightblue" d="M74.1281,-59.5578C82.7901,-57.9904 91.886,-56.3444 100.41,-54.802"/>
<polygon fill="midnightblue" stroke="midnightblue" points="73.4361,-56.1261 64.2192,-61.3508 74.6826,-63.0142 73.4361,-56.1261"/>
</g>
<!-- Node5 -->
<g id="node5" class="node"><title>Node5</title>
<g id="a_node5"><a xlink:href="a01028.html#ga2e38e900ca7838c1cea17cef19953a5e" target="_top" xlink:title="Compute the HMAC SHA1 digest. ">
<polygon fill="white" stroke="black" points="100,-0.5 100,-19.5 178,-19.5 178,-0.5 100,-0.5"/>
<text text-anchor="middle" x="139" y="-7.5" font-family="Helvetica,sans-Serif" font-size="10.00">HMAC_SHA1</text>
</a>
</g>
</g>
<!-- Node1&#45;&gt;Node5 -->
<g id="edge4" class="edge"><title>Node1&#45;&gt;Node5</title>
<path fill="none" stroke="midnightblue" d="M58.2988,-52.238C70.7689,-45.0677 86.0829,-36.4194 100,-29 105.858,-25.8771 112.294,-22.6016 118.177,-19.6669"/>
<polygon fill="midnightblue" stroke="midnightblue" points="56.2941,-49.354 49.3874,-57.3882 59.7968,-55.4146 56.2941,-49.354"/>
</g>
</g>
</svg>
