<?xml version="1.0" encoding="UTF-8" standalone="no"?>
<!DOCTYPE svg PUBLIC "-//W3C//DTD SVG 1.1//EN"
 "http://www.w3.org/Graphics/SVG/1.1/DTD/svg11.dtd">
<!-- Generated by graphviz version 2.38.0 (20140413.2041)
 -->
<!-- Title: GPIO_Init Pages: 1 -->
<!--zoomable 180 -->
<svg id="main" version="1.1" xmlns="http://www.w3.org/2000/svg" xmlns:xlink="http://www.w3.org/1999/xlink" xml:space="preserve" onload="init(evt)">
<style type="text/css"><![CDATA[
.edge:hover path { stroke: red; }
.edge:hover polygon { stroke: red; fill: red; }
]]></style>
<script type="text/javascript"><![CDATA[
var edges = document.getElementsByTagName('g');
if (edges && edges.length) {
  for (var i=0;i<edges.length;i++) {
    if (edges[i].id.substr(0,4)=='edge') {
      edges[i].setAttribute('class','edge');
    }
  }
}
]]></script>
        <defs>
                <circle id="rim" cx="0" cy="0" r="7"/>
                <circle id="rim2" cx="0" cy="0" r="3.5"/>
                <g id="zoomPlus">
                        <use xlink:href="#rim" fill="#404040">
                                <set attributeName="fill" to="#808080" begin="zoomplus.mouseover" end="zoomplus.mouseout"/>
                        </use>
                        <path d="M-4,0h8M0,-4v8" fill="none" stroke="white" stroke-width="1.5" pointer-events="none"/>
                </g>
                <g id="zoomMin">
                        <use xlink:href="#rim" fill="#404040">
                                <set attributeName="fill" to="#808080" begin="zoomminus.mouseover" end="zoomminus.mouseout"/>
                        </use>
                        <path d="M-4,0h8" fill="none" stroke="white" stroke-width="1.5" pointer-events="none"/>
                </g>
                <g id="dirArrow">
                        <path fill="none" stroke="white" stroke-width="1.5" d="M0,-3.0v7 M-2.5,-0.5L0,-3.0L2.5,-0.5"/>
                </g>
               <g id="resetDef">
                       <use xlink:href="#rim2" fill="#404040">
                               <set attributeName="fill" to="#808080" begin="reset.mouseover" end="reset.mouseout"/>
                       </use>
               </g>
        </defs>

<script type="text/javascript">
var viewWidth = 505;
var viewHeight = 180;
var sectionId = 'dynsection-3';
</script>
<script xlink:href="svgpan.js"/>
<svg id="graph" class="graph">
<g id="viewport">
<title>GPIO_Init</title>
<polygon fill="white" stroke="none" points="-4,4 -4,-176 501,-176 501,4 -4,4"/>
<!-- Node1 -->
<g id="node1" class="node"><title>Node1</title>
<polygon fill="#bfbfbf" stroke="black" points="0,-76.5 0,-95.5 60,-95.5 60,-76.5 0,-76.5"/>
<text text-anchor="middle" x="30" y="-83.5" font-family="Helvetica,sans-Serif" font-size="10.00">GPIO_Init</text>
</g>
<!-- Node2 -->
<g id="node2" class="node"><title>Node2</title>
<g id="a_node2"><a xlink:href="a00582.html#ga70bed9fb6612cb572a8c10e148404344" target="_top" xlink:title="Initializes USARTx peripheral and corresponding pins. ">
<polygon fill="white" stroke="black" points="119.5,-152.5 119.5,-171.5 208.5,-171.5 208.5,-152.5 119.5,-152.5"/>
<text text-anchor="middle" x="164" y="-159.5" font-family="Helvetica,sans-Serif" font-size="10.00">TM_USART_Init</text>
</a>
</g>
</g>
<!-- Node1&#45;&gt;Node2 -->
<g id="edge1" class="edge"><title>Node1&#45;&gt;Node2</title>
<path fill="none" stroke="midnightblue" d="M46.4396,-103.156C58.7255,-115.842 76.9639,-132.647 96,-143 103.223,-146.928 111.335,-150.11 119.356,-152.665"/>
<polygon fill="midnightblue" stroke="midnightblue" points="48.6722,-100.42 39.2771,-95.5227 43.5676,-105.21 48.6722,-100.42"/>
</g>
<!-- Node4 -->
<g id="node4" class="node"><title>Node4</title>
<g id="a_node4"><a xlink:href="a01234.html#gaa4c41497bc8308d40c005cb2ee30963b" target="_top" xlink:title="MDB_GPIO_BeamPin">
<polygon fill="white" stroke="black" points="107,-38.5 107,-57.5 221,-57.5 221,-38.5 107,-38.5"/>
<text text-anchor="middle" x="164" y="-45.5" font-family="Helvetica,sans-Serif" font-size="10.00">MDB_GPIO_BeamPin</text>
</a>
</g>
</g>
<!-- Node1&#45;&gt;Node4 -->
<g id="edge3" class="edge"><title>Node1&#45;&gt;Node4</title>
<path fill="none" stroke="midnightblue" d="M69.9107,-74.5706C78.4996,-72.0633 87.5548,-69.4317 96,-67 106.805,-63.8887 118.602,-60.5305 129.244,-57.5154"/>
<polygon fill="midnightblue" stroke="midnightblue" points="68.7223,-71.2715 60.1067,-77.4376 70.6871,-77.9901 68.7223,-71.2715"/>
</g>
<!-- Node6 -->
<g id="node6" class="node"><title>Node6</title>
<g id="a_node6"><a xlink:href="a01234.html#gad45b8278807ffed1f22e03d86d35bf90" target="_top" xlink:title="Initialize all GPIOs from MDB_GPIO. ">
<polygon fill="white" stroke="black" points="120,-114.5 120,-133.5 208,-133.5 208,-114.5 120,-114.5"/>
<text text-anchor="middle" x="164" y="-121.5" font-family="Helvetica,sans-Serif" font-size="10.00">MDB_GPIO_Init</text>
</a>
</g>
</g>
<!-- Node1&#45;&gt;Node6 -->
<g id="edge5" class="edge"><title>Node1&#45;&gt;Node6</title>
<path fill="none" stroke="midnightblue" d="M69.9107,-97.4294C78.4996,-99.9367 87.5548,-102.568 96,-105 106.805,-108.111 118.602,-111.469 129.244,-114.485"/>
<polygon fill="midnightblue" stroke="midnightblue" points="70.6871,-94.0099 60.1067,-94.5624 68.7223,-100.729 70.6871,-94.0099"/>
</g>
<!-- Node7 -->
<g id="node7" class="node"><title>Node7</title>
<g id="a_node7"><a xlink:href="a01234.html#ga23127fb33a96a81838d3c4b368b0e915" target="_top" xlink:title="Provides GPIO on/off functionality. ">
<polygon fill="white" stroke="black" points="112,-0.5 112,-19.5 216,-19.5 216,-0.5 112,-0.5"/>
<text text-anchor="middle" x="164" y="-7.5" font-family="Helvetica,sans-Serif" font-size="10.00">MDB_GPIO_Switch</text>
</a>
</g>
</g>
<!-- Node1&#45;&gt;Node7 -->
<g id="edge7" class="edge"><title>Node1&#45;&gt;Node7</title>
<path fill="none" stroke="midnightblue" d="M46.4396,-68.8444C58.7255,-56.1579 76.9639,-39.3531 96,-29 103.01,-25.1874 110.859,-22.0778 118.648,-19.5622"/>
<polygon fill="midnightblue" stroke="midnightblue" points="43.5676,-66.7901 39.2771,-76.4773 48.6722,-71.5801 43.5676,-66.7901"/>
</g>
<!-- Node10 -->
<g id="node10" class="node"><title>Node10</title>
<g id="a_node10"><a xlink:href="a01271.html#gad273dc4b4b26574e92666e4020e1ef5a" target="_top" xlink:title="Timer&#45;triggered ADC&#45;scan mode with DMA to memory. ">
<polygon fill="white" stroke="black" points="96,-76.5 96,-95.5 232,-95.5 232,-76.5 96,-76.5"/>
<text text-anchor="middle" x="164" y="-83.5" font-family="Helvetica,sans-Serif" font-size="10.00">TIM2_DMA_Trigger_Config</text>
</a>
</g>
</g>
<!-- Node1&#45;&gt;Node10 -->
<g id="edge10" class="edge"><title>Node1&#45;&gt;Node10</title>
<path fill="none" stroke="midnightblue" d="M70.4825,-86C78.5488,-86 87.2488,-86 95.9728,-86"/>
<polygon fill="midnightblue" stroke="midnightblue" points="70.2951,-82.5001 60.2951,-86 70.295,-89.5001 70.2951,-82.5001"/>
</g>
<!-- Node3 -->
<g id="node3" class="node"><title>Node3</title>
<g id="a_node3"><a xlink:href="a01287.html#ga840291bc02cba5474a4cb46a9b9566fe" target="_top" xlink:title="Main function entry. ">
<polygon fill="white" stroke="black" points="295,-114.5 295,-133.5 333,-133.5 333,-114.5 295,-114.5"/>
<text text-anchor="middle" x="314" y="-121.5" font-family="Helvetica,sans-Serif" font-size="10.00">main</text>
</a>
</g>
</g>
<!-- Node2&#45;&gt;Node3 -->
<g id="edge2" class="edge"><title>Node2&#45;&gt;Node3</title>
<path fill="none" stroke="midnightblue" d="M212.039,-149.922C240.246,-142.68 274.507,-133.883 294.991,-128.624"/>
<polygon fill="midnightblue" stroke="midnightblue" points="211.162,-146.534 202.347,-152.411 212.903,-153.314 211.162,-146.534"/>
</g>
<!-- Node5 -->
<g id="node5" class="node"><title>Node5</title>
<g id="a_node5"><a xlink:href="a00422.html#a4af381bf92ce31395c19b6652b930b7a" target="_top" xlink:title="Fast console command parser. ">
<polygon fill="white" stroke="black" points="268,-38.5 268,-57.5 360,-57.5 360,-38.5 268,-38.5"/>
<text text-anchor="middle" x="314" y="-45.5" font-family="Helvetica,sans-Serif" font-size="10.00">fastConsoleCase</text>
</a>
</g>
</g>
<!-- Node4&#45;&gt;Node5 -->
<g id="edge4" class="edge"><title>Node4&#45;&gt;Node5</title>
<path fill="none" stroke="midnightblue" d="M231.577,-48C243.836,-48 256.369,-48 267.813,-48"/>
<polygon fill="midnightblue" stroke="midnightblue" points="231.375,-44.5001 221.375,-48 231.375,-51.5001 231.375,-44.5001"/>
</g>
<!-- Node6&#45;&gt;Node3 -->
<g id="edge6" class="edge"><title>Node6&#45;&gt;Node3</title>
<path fill="none" stroke="midnightblue" d="M218.266,-124C245.106,-124 275.905,-124 294.909,-124"/>
<polygon fill="midnightblue" stroke="midnightblue" points="218.206,-120.5 208.206,-124 218.206,-127.5 218.206,-120.5"/>
</g>
<!-- Node8 -->
<g id="node8" class="node"><title>Node8</title>
<g id="a_node8"><a xlink:href="a01238.html#gab27f871618e69ee02c2d2bd756a97397" target="_top" xlink:title="Set beam control source and new state. ">
<polygon fill="white" stroke="black" points="286,-0.5 286,-19.5 342,-19.5 342,-0.5 286,-0.5"/>
<text text-anchor="middle" x="314" y="-7.5" font-family="Helvetica,sans-Serif" font-size="10.00">beamCtrl</text>
</a>
</g>
</g>
<!-- Node7&#45;&gt;Node8 -->
<g id="edge8" class="edge"><title>Node7&#45;&gt;Node8</title>
<path fill="none" stroke="midnightblue" d="M226.378,-10C247.094,-10 269.169,-10 285.849,-10"/>
<polygon fill="midnightblue" stroke="midnightblue" points="226.348,-6.5001 216.348,-10 226.348,-13.5001 226.348,-6.5001"/>
</g>
<!-- Node9 -->
<g id="node9" class="node"><title>Node9</title>
<g id="a_node9"><a xlink:href="a01259.html#ga3e965ca8f413e014ad3a4e27b6b7c0bc" target="_top" xlink:title="Timer 4 overrun IRQ callback. ">
<polygon fill="white" stroke="black" points="396,-0.5 396,-19.5 497,-19.5 497,-0.5 396,-0.5"/>
<text text-anchor="middle" x="446.5" y="-7.5" font-family="Helvetica,sans-Serif" font-size="10.00">TIM4_IRQ_Handler</text>
</a>
</g>
</g>
<!-- Node8&#45;&gt;Node9 -->
<g id="edge9" class="edge"><title>Node8&#45;&gt;Node9</title>
<path fill="none" stroke="midnightblue" d="M352.403,-10C365.923,-10 381.407,-10 395.815,-10"/>
<polygon fill="midnightblue" stroke="midnightblue" points="352.04,-6.5001 342.04,-10 352.04,-13.5001 352.04,-6.5001"/>
</g>
<!-- Node10&#45;&gt;Node3 -->
<g id="edge11" class="edge"><title>Node10&#45;&gt;Node3</title>
<path fill="none" stroke="midnightblue" d="M212.039,-98.0776C240.246,-105.32 274.507,-114.117 294.991,-119.376"/>
<polygon fill="midnightblue" stroke="midnightblue" points="212.903,-94.6859 202.347,-95.589 211.162,-101.466 212.903,-94.6859"/>
</g>
</g>
</svg>
        <g id="navigator" transform="translate(0 0)" fill="#404254">
                <rect fill="#f2f5e9" fill-opacity="0.5" stroke="#606060" stroke-width=".5" x="0" y="0" width="60" height="60"/>
                <use id="zoomplus" xlink:href="#zoomPlus" x="17" y="9" onmousedown="handleZoom(evt,'in')"/>
                <use id="zoomminus" xlink:href="#zoomMin" x="42" y="9" onmousedown="handleZoom(evt,'out')"/>
                <use id="reset" xlink:href="#resetDef" x="30" y="36" onmousedown="handleReset()"/>
                <g id="arrowUp" xlink:href="#dirArrow" transform="translate(30 24)" onmousedown="handlePan(0,-1)">
                  <use xlink:href="#rim" fill="#404040">
                        <set attributeName="fill" to="#808080" begin="arrowUp.mouseover" end="arrowUp.mouseout"/>
                  </use>
                  <path fill="none" stroke="white" stroke-width="1.5" d="M0,-3.0v7 M-2.5,-0.5L0,-3.0L2.5,-0.5"/>
                </g>
                <g id="arrowRight" xlink:href="#dirArrow" transform="rotate(90) translate(36 -43)" onmousedown="handlePan(1,0)">
                  <use xlink:href="#rim" fill="#404040">
                        <set attributeName="fill" to="#808080" begin="arrowRight.mouseover" end="arrowRight.mouseout"/>
                  </use>
                  <path fill="none" stroke="white" stroke-width="1.5" d="M0,-3.0v7 M-2.5,-0.5L0,-3.0L2.5,-0.5"/>
                </g>
                <g id="arrowDown" xlink:href="#dirArrow" transform="rotate(180) translate(-30 -48)" onmousedown="handlePan(0,1)">
                  <use xlink:href="#rim" fill="#404040">
                        <set attributeName="fill" to="#808080" begin="arrowDown.mouseover" end="arrowDown.mouseout"/>
                  </use>
                  <path fill="none" stroke="white" stroke-width="1.5" d="M0,-3.0v7 M-2.5,-0.5L0,-3.0L2.5,-0.5"/>
                </g>
                <g id="arrowLeft" xlink:href="#dirArrow" transform="rotate(270) translate(-36 17)" onmousedown="handlePan(-1,0)">
                  <use xlink:href="#rim" fill="#404040">
                        <set attributeName="fill" to="#808080" begin="arrowLeft.mouseover" end="arrowLeft.mouseout"/>
                  </use>
                  <path fill="none" stroke="white" stroke-width="1.5" d="M0,-3.0v7 M-2.5,-0.5L0,-3.0L2.5,-0.5"/>
                </g>
        </g>
        <svg viewBox="0 0 15 15" width="100%" height="30px" preserveAspectRatio="xMaxYMin meet">
         <g id="arrow_out" transform="scale(0.3 0.3)">
          <a xlink:href="a00102_ga71abf9404261370d03cca449b88d3a65_icgraph_org.svg" target="_base">
           <rect id="button" ry="5" rx="5" y="6" x="6" height="38" width="38"
                fill="#f2f5e9" fill-opacity="0.5" stroke="#606060" stroke-width="1.0"/>
           <path id="arrow"
             d="M 11.500037,31.436501 C 11.940474,20.09759 22.043105,11.32322 32.158766,21.979434 L 37.068811,17.246167 C 37.068811,17.246167 37.088388,32 37.088388,32 L 22.160133,31.978069 C 22.160133,31.978069 26.997745,27.140456 26.997745,27.140456 C 18.528582,18.264221 13.291696,25.230495 11.500037,31.436501 z"
             style="fill:#404040;"/>
          </a>
         </g>
        </svg>
</svg>
