<?xml version="1.0" encoding="UTF-8" standalone="no"?>
<!DOCTYPE svg PUBLIC "-//W3C//DTD SVG 1.1//EN"
 "http://www.w3.org/Graphics/SVG/1.1/DTD/svg11.dtd">
<!-- Generated by graphviz version 2.38.0 (20140413.2041)
 -->
<!-- Title: RTC_EnterInitMode Pages: 1 -->
<svg width="273pt" height="256pt"
 viewBox="0.00 0.00 273.00 256.00" xmlns="http://www.w3.org/2000/svg" xmlns:xlink="http://www.w3.org/1999/xlink">
<g id="graph0" class="graph" transform="scale(1 1) rotate(0) translate(4 252)">
<title>RTC_EnterInitMode</title>
<polygon fill="white" stroke="none" points="-4,4 -4,-252 269,-252 269,4 -4,4"/>
<!-- Node1 -->
<g id="node1" class="node"><title>Node1</title>
<polygon fill="#bfbfbf" stroke="black" points="0,-114.5 0,-133.5 104,-133.5 104,-114.5 0,-114.5"/>
<text text-anchor="middle" x="52" y="-121.5" font-family="Helvetica,sans-Serif" font-size="10.00">RTC_EnterInitMode</text>
</g>
<!-- Node2 -->
<g id="node2" class="node"><title>Node2</title>
<g id="a_node2"><a xlink:href="a01060.html#ga9777c6cc4a99c339ebc527a791b2ebe7" target="_top" xlink:title="Deinitializes the RTC registers to their default reset values. ">
<polygon fill="white" stroke="black" points="168,-228.5 168,-247.5 237,-247.5 237,-228.5 168,-228.5"/>
<text text-anchor="middle" x="202.5" y="-235.5" font-family="Helvetica,sans-Serif" font-size="10.00">RTC_DeInit</text>
</a>
</g>
</g>
<!-- Node1&#45;&gt;Node2 -->
<g id="edge1" class="edge"><title>Node1&#45;&gt;Node2</title>
<path fill="none" stroke="midnightblue" d="M65.0197,-142.126C80.0983,-163.498 107.905,-198.677 140,-219 148.403,-224.321 158.396,-228.238 167.859,-231.085"/>
<polygon fill="midnightblue" stroke="midnightblue" points="67.736,-139.898 59.1891,-133.637 61.966,-143.862 67.736,-139.898"/>
</g>
<!-- Node3 -->
<g id="node3" class="node"><title>Node3</title>
<g id="a_node3"><a xlink:href="a01060.html#ga8eb747bf9698b2482ba6ef4d811de8e0" target="_top" xlink:title="Initializes the RTC registers according to the specified parameters in RTC_InitStruct. ">
<polygon fill="white" stroke="black" points="174.5,-190.5 174.5,-209.5 230.5,-209.5 230.5,-190.5 174.5,-190.5"/>
<text text-anchor="middle" x="202.5" y="-197.5" font-family="Helvetica,sans-Serif" font-size="10.00">RTC_Init</text>
</a>
</g>
</g>
<!-- Node1&#45;&gt;Node3 -->
<g id="edge2" class="edge"><title>Node1&#45;&gt;Node3</title>
<path fill="none" stroke="midnightblue" d="M73.4171,-139.755C90.4604,-152.308 115.791,-169.608 140,-181 150.819,-186.091 163.338,-190.246 174.246,-193.357"/>
<polygon fill="midnightblue" stroke="midnightblue" points="75.4112,-136.876 65.3097,-133.68 71.2136,-142.478 75.4112,-136.876"/>
</g>
<!-- Node4 -->
<g id="node4" class="node"><title>Node4</title>
<g id="a_node4"><a xlink:href="a01060.html#gaa60079ec257fb3a277d058ca8305533d" target="_top" xlink:title="Enables or disables the RTC reference clock detection. ">
<polygon fill="white" stroke="black" points="150,-152.5 150,-171.5 255,-171.5 255,-152.5 150,-152.5"/>
<text text-anchor="middle" x="202.5" y="-159.5" font-family="Helvetica,sans-Serif" font-size="10.00">RTC_RefClockCmd</text>
</a>
</g>
</g>
<!-- Node1&#45;&gt;Node4 -->
<g id="edge3" class="edge"><title>Node1&#45;&gt;Node4</title>
<path fill="none" stroke="midnightblue" d="M100.333,-136.112C121.015,-141.404 144.919,-147.521 164.297,-152.48"/>
<polygon fill="midnightblue" stroke="midnightblue" points="101.028,-132.677 90.4728,-133.589 99.293,-139.459 101.028,-132.677"/>
</g>
<!-- Node5 -->
<g id="node5" class="node"><title>Node5</title>
<g id="a_node5"><a xlink:href="a01061.html#ga9f9df80cfa82f7a4dd9f4d0cf2ffb3a6" target="_top" xlink:title="Set the RTC current time. ">
<polygon fill="white" stroke="black" points="162.5,-114.5 162.5,-133.5 242.5,-133.5 242.5,-114.5 162.5,-114.5"/>
<text text-anchor="middle" x="202.5" y="-121.5" font-family="Helvetica,sans-Serif" font-size="10.00">RTC_SetTime</text>
</a>
</g>
</g>
<!-- Node1&#45;&gt;Node5 -->
<g id="edge4" class="edge"><title>Node1&#45;&gt;Node5</title>
<path fill="none" stroke="midnightblue" d="M114.51,-124C130.574,-124 147.457,-124 162.031,-124"/>
<polygon fill="midnightblue" stroke="midnightblue" points="114.105,-120.5 104.105,-124 114.105,-127.5 114.105,-120.5"/>
</g>
<!-- Node6 -->
<g id="node6" class="node"><title>Node6</title>
<g id="a_node6"><a xlink:href="a01061.html#ga69d08538147f3d89c818dcfabf50e362" target="_top" xlink:title="Set the RTC current date. ">
<polygon fill="white" stroke="black" points="163,-76.5 163,-95.5 242,-95.5 242,-76.5 163,-76.5"/>
<text text-anchor="middle" x="202.5" y="-83.5" font-family="Helvetica,sans-Serif" font-size="10.00">RTC_SetDate</text>
</a>
</g>
</g>
<!-- Node1&#45;&gt;Node6 -->
<g id="edge5" class="edge"><title>Node1&#45;&gt;Node6</title>
<path fill="none" stroke="midnightblue" d="M100.333,-111.888C121.015,-106.596 144.919,-100.479 164.297,-95.5201"/>
<polygon fill="midnightblue" stroke="midnightblue" points="99.293,-108.541 90.4728,-114.411 101.028,-115.323 99.293,-108.541"/>
</g>
<!-- Node7 -->
<g id="node7" class="node"><title>Node7</title>
<g id="a_node7"><a xlink:href="a01066.html#gaa3bb10170a2c70ac9ce3e41c611bdd43" target="_top" xlink:title="Configures the Coarse calibration parameters. ">
<polygon fill="white" stroke="black" points="140,-38.5 140,-57.5 265,-57.5 265,-38.5 140,-38.5"/>
<text text-anchor="middle" x="202.5" y="-45.5" font-family="Helvetica,sans-Serif" font-size="10.00">RTC_CoarseCalibConfig</text>
</a>
</g>
</g>
<!-- Node1&#45;&gt;Node7 -->
<g id="edge6" class="edge"><title>Node1&#45;&gt;Node7</title>
<path fill="none" stroke="midnightblue" d="M73.4171,-108.245C90.4604,-95.692 115.791,-78.392 140,-67 147.786,-63.3363 156.452,-60.1576 164.764,-57.5036"/>
<polygon fill="midnightblue" stroke="midnightblue" points="71.2136,-105.522 65.3097,-114.32 75.4112,-111.124 71.2136,-105.522"/>
</g>
<!-- Node8 -->
<g id="node8" class="node"><title>Node8</title>
<g id="a_node8"><a xlink:href="a01066.html#ga008ae7173b2befe876f5e76686bc9089" target="_top" xlink:title="Enables or disables the Coarse calibration process. ">
<polygon fill="white" stroke="black" points="143.5,-0.5 143.5,-19.5 261.5,-19.5 261.5,-0.5 143.5,-0.5"/>
<text text-anchor="middle" x="202.5" y="-7.5" font-family="Helvetica,sans-Serif" font-size="10.00">RTC_CoarseCalibCmd</text>
</a>
</g>
</g>
<!-- Node1&#45;&gt;Node8 -->
<g id="edge7" class="edge"><title>Node1&#45;&gt;Node8</title>
<path fill="none" stroke="midnightblue" d="M65.0197,-105.874C80.0983,-84.5019 107.905,-49.3231 140,-29 146.042,-25.1738 152.907,-22.0732 159.806,-19.5746"/>
<polygon fill="midnightblue" stroke="midnightblue" points="61.966,-104.138 59.1891,-114.363 67.736,-108.102 61.966,-104.138"/>
</g>
</g>
</svg>
