<?xml version="1.0" encoding="UTF-8" standalone="no"?>
<!DOCTYPE svg PUBLIC "-//W3C//DTD SVG 1.1//EN"
 "http://www.w3.org/Graphics/SVG/1.1/DTD/svg11.dtd">
<!-- Generated by graphviz version 2.38.0 (20140413.2041)
 -->
<!-- Title: console.c Pages: 1 -->
<svg width="150pt" height="140pt"
 viewBox="0.00 0.00 150.00 140.00" xmlns="http://www.w3.org/2000/svg" xmlns:xlink="http://www.w3.org/1999/xlink">
<g id="graph0" class="graph" transform="scale(1 1) rotate(0) translate(4 136)">
<title>console.c</title>
<polygon fill="white" stroke="none" points="-4,4 -4,-136 146,-136 146,4 -4,4"/>
<!-- Node1 -->
<g id="node1" class="node"><title>Node1</title>
<polygon fill="#bfbfbf" stroke="black" points="44.5,-112.5 44.5,-131.5 103.5,-131.5 103.5,-112.5 44.5,-112.5"/>
<text text-anchor="middle" x="74" y="-119.5" font-family="Helvetica,sans-Serif" font-size="10.00">console.c</text>
</g>
<!-- Node2 -->
<g id="node2" class="node"><title>Node2</title>
<g id="a_node2"><a xlink:href="a00017.html" target="_top" xlink:title="TODO. ">
<polygon fill="white" stroke="black" points="44.5,-56.5 44.5,-75.5 103.5,-75.5 103.5,-56.5 44.5,-56.5"/>
<text text-anchor="middle" x="74" y="-63.5" font-family="Helvetica,sans-Serif" font-size="10.00">console.h</text>
</a>
</g>
</g>
<!-- Node1&#45;&gt;Node2 -->
<g id="edge1" class="edge"><title>Node1&#45;&gt;Node2</title>
<path fill="none" stroke="midnightblue" d="M74,-112.083C74,-105.006 74,-94.8611 74,-85.9865"/>
<polygon fill="midnightblue" stroke="midnightblue" points="77.5001,-85.751 74,-75.7511 70.5001,-85.7511 77.5001,-85.751"/>
</g>
<!-- Node3 -->
<g id="node3" class="node"><title>Node3</title>
<polygon fill="white" stroke="#bfbfbf" points="0,-0.5 0,-19.5 68,-19.5 68,-0.5 0,-0.5"/>
<text text-anchor="middle" x="34" y="-7.5" font-family="Helvetica,sans-Serif" font-size="10.00">arm_math.h</text>
</g>
<!-- Node2&#45;&gt;Node3 -->
<g id="edge2" class="edge"><title>Node2&#45;&gt;Node3</title>
<path fill="none" stroke="midnightblue" d="M67.3948,-56.083C61.7448,-48.4554 53.4552,-37.2645 46.5488,-27.9408"/>
<polygon fill="midnightblue" stroke="midnightblue" points="49.2471,-25.7034 40.4823,-19.7511 43.6221,-29.87 49.2471,-25.7034"/>
</g>
<!-- Node4 -->
<g id="node4" class="node"><title>Node4</title>
<g id="a_node4"><a xlink:href="a00018.html" target="_top" xlink:title="Global defines include file. ">
<polygon fill="white" stroke="black" points="86,-0.5 86,-19.5 142,-19.5 142,-0.5 86,-0.5"/>
<text text-anchor="middle" x="114" y="-7.5" font-family="Helvetica,sans-Serif" font-size="10.00">globals.h</text>
</a>
</g>
</g>
<!-- Node2&#45;&gt;Node4 -->
<g id="edge3" class="edge"><title>Node2&#45;&gt;Node4</title>
<path fill="none" stroke="midnightblue" d="M80.6052,-56.083C86.2552,-48.4554 94.5448,-37.2645 101.451,-27.9408"/>
<polygon fill="midnightblue" stroke="midnightblue" points="104.378,-29.87 107.518,-19.7511 98.7529,-25.7034 104.378,-29.87"/>
</g>
</g>
</svg>
