<?xml version="1.0" encoding="UTF-8" standalone="no"?>
<!DOCTYPE svg PUBLIC "-//W3C//DTD SVG 1.1//EN"
 "http://www.w3.org/Graphics/SVG/1.1/DTD/svg11.dtd">
<!-- Generated by graphviz version 2.38.0 (20140413.2041)
 -->
<!-- Title: TM_USART_FindCharacter Pages: 1 -->
<svg width="616pt" height="66pt"
 viewBox="0.00 0.00 616.00 66.00" xmlns="http://www.w3.org/2000/svg" xmlns:xlink="http://www.w3.org/1999/xlink">
<g id="graph0" class="graph" transform="scale(1 1) rotate(0) translate(4 62)">
<title>TM_USART_FindCharacter</title>
<polygon fill="white" stroke="none" points="-4,4 -4,-62 612,-62 612,4 -4,4"/>
<!-- Node1 -->
<g id="node1" class="node"><title>Node1</title>
<polygon fill="#bfbfbf" stroke="black" points="0,-0.5 0,-19.5 137,-19.5 137,-0.5 0,-0.5"/>
<text text-anchor="middle" x="68.5" y="-7.5" font-family="Helvetica,sans-Serif" font-size="10.00">TM_USART_FindCharacter</text>
</g>
<!-- Node2 -->
<g id="node2" class="node"><title>Node2</title>
<g id="a_node2"><a xlink:href="a00168.html#gabb0a95fd20e5e2a894e658b64a29ee61" target="_top" xlink:title="Gets string from USART. ">
<polygon fill="white" stroke="black" points="173,-19.5 173,-38.5 270,-38.5 270,-19.5 173,-19.5"/>
<text text-anchor="middle" x="221.5" y="-26.5" font-family="Helvetica,sans-Serif" font-size="10.00">TM_USART_Gets</text>
</a>
</g>
</g>
<!-- Node1&#45;&gt;Node2 -->
<g id="edge1" class="edge"><title>Node1&#45;&gt;Node2</title>
<path fill="none" stroke="midnightblue" d="M147.006,-19.7524C155.833,-20.8631 164.624,-21.9692 172.894,-23.0099"/>
<polygon fill="midnightblue" stroke="midnightblue" points="147.409,-16.2756 137.05,-18.4997 146.535,-23.2208 147.409,-16.2756"/>
</g>
<!-- Node3 -->
<g id="node3" class="node"><title>Node3</title>
<g id="a_node3"><a xlink:href="a00168.html#gab807a241fae0eae0d5434bae20a3569f" target="_top" xlink:title="Puts character to USART port. ">
<polygon fill="white" stroke="black" points="306,-0.5 306,-19.5 402,-19.5 402,-0.5 306,-0.5"/>
<text text-anchor="middle" x="354" y="-7.5" font-family="Helvetica,sans-Serif" font-size="10.00">TM_USART_Putc</text>
</a>
</g>
</g>
<!-- Node1&#45;&gt;Node3 -->
<g id="edge7" class="edge"><title>Node1&#45;&gt;Node3</title>
<path fill="none" stroke="midnightblue" d="M147.336,-10C198.137,-10 262.79,-10 305.914,-10"/>
<polygon fill="midnightblue" stroke="midnightblue" points="147.045,-6.5001 137.045,-10 147.045,-13.5001 147.045,-6.5001"/>
</g>
<!-- Node2&#45;&gt;Node3 -->
<g id="edge2" class="edge"><title>Node2&#45;&gt;Node3</title>
<path fill="none" stroke="midnightblue" d="M280.476,-20.559C288.873,-19.3365 297.433,-18.0903 305.589,-16.9027"/>
<polygon fill="midnightblue" stroke="midnightblue" points="279.744,-17.1287 270.352,-22.033 280.752,-24.0556 279.744,-17.1287"/>
</g>
<!-- Node4 -->
<g id="node4" class="node"><title>Node4</title>
<g id="a_node4"><a xlink:href="a00168.html#ga70bed9fb6612cb572a8c10e148404344" target="_top" xlink:title="Initializes USARTx peripheral and corresponding pins. ">
<polygon fill="white" stroke="black" points="441.5,-38.5 441.5,-57.5 530.5,-57.5 530.5,-38.5 441.5,-38.5"/>
<text text-anchor="middle" x="486" y="-45.5" font-family="Helvetica,sans-Serif" font-size="10.00">TM_USART_Init</text>
</a>
</g>
</g>
<!-- Node3&#45;&gt;Node4 -->
<g id="edge3" class="edge"><title>Node3&#45;&gt;Node4</title>
<path fill="none" stroke="midnightblue" d="M397.884,-22.5353C415.569,-27.7048 435.734,-33.5991 452.206,-38.4141"/>
<polygon fill="midnightblue" stroke="midnightblue" points="398.385,-19.0353 387.804,-19.589 396.421,-25.7542 398.385,-19.0353"/>
</g>
<!-- Node6 -->
<g id="node6" class="node"><title>Node6</title>
<g id="a_node6"><a xlink:href="a00168.html#ga453aeaa886278333403ff4937c01dcf3" target="_top" xlink:title="Puts string to USART port. ">
<polygon fill="white" stroke="black" points="438,-0.5 438,-19.5 534,-19.5 534,-0.5 438,-0.5"/>
<text text-anchor="middle" x="486" y="-7.5" font-family="Helvetica,sans-Serif" font-size="10.00">TM_USART_Puts</text>
</a>
</g>
</g>
<!-- Node3&#45;&gt;Node6 -->
<g id="edge5" class="edge"><title>Node3&#45;&gt;Node6</title>
<path fill="none" stroke="midnightblue" d="M412.539,-3.28969C421.034,-3.19895 429.703,-3.2638 437.952,-3.48422"/>
<polygon fill="midnightblue" stroke="midnightblue" points="412.235,0.205426 402.301,-3.47752 412.363,-6.7934 412.235,0.205426"/>
</g>
<!-- Node5 -->
<g id="node5" class="node"><title>Node5</title>
<g id="a_node5"><a xlink:href="a00773.html#ga840291bc02cba5474a4cb46a9b9566fe" target="_top" xlink:title="Main function entry. ">
<polygon fill="white" stroke="black" points="570,-38.5 570,-57.5 608,-57.5 608,-38.5 570,-38.5"/>
<text text-anchor="middle" x="589" y="-45.5" font-family="Helvetica,sans-Serif" font-size="10.00">main</text>
</a>
</g>
</g>
<!-- Node4&#45;&gt;Node5 -->
<g id="edge4" class="edge"><title>Node4&#45;&gt;Node5</title>
<path fill="none" stroke="midnightblue" d="M540.767,-48C551.256,-48 561.556,-48 569.848,-48"/>
<polygon fill="midnightblue" stroke="midnightblue" points="540.713,-44.5001 530.713,-48 540.713,-51.5001 540.713,-44.5001"/>
</g>
<!-- Node6&#45;&gt;Node3 -->
<g id="edge6" class="edge"><title>Node6&#45;&gt;Node3</title>
<path fill="none" stroke="midnightblue" d="M427.722,-16.7075C419.229,-16.8014 410.559,-16.7397 402.301,-16.5225"/>
<polygon fill="midnightblue" stroke="midnightblue" points="428.02,-20.2026 437.952,-16.5158 427.888,-13.2038 428.02,-20.2026"/>
</g>
</g>
</svg>
