<?xml version="1.0" encoding="UTF-8" standalone="no"?>
<!DOCTYPE svg PUBLIC "-//W3C//DTD SVG 1.1//EN"
 "http://www.w3.org/Graphics/SVG/1.1/DTD/svg11.dtd">
<!-- Generated by graphviz version 2.38.0 (20140413.2041)
 -->
<!-- Title: actuators.h Pages: 1 -->
<svg width="1888pt" height="364pt"
 viewBox="0.00 0.00 1888.26 364.00" xmlns="http://www.w3.org/2000/svg" xmlns:xlink="http://www.w3.org/1999/xlink">
<g id="graph0" class="graph" transform="scale(1 1) rotate(0) translate(4 360)">
<title>actuators.h</title>
<polygon fill="white" stroke="none" points="-4,4 -4,-360 1884.26,-360 1884.26,4 -4,4"/>
<!-- Node1 -->
<g id="node1" class="node"><title>Node1</title>
<polygon fill="#bfbfbf" stroke="black" points="1175.5,-336.5 1175.5,-355.5 1240.5,-355.5 1240.5,-336.5 1175.5,-336.5"/>
<text text-anchor="middle" x="1208" y="-343.5" font-family="Helvetica,sans-Serif" font-size="10.00">actuators.h</text>
</g>
<!-- Node2 -->
<g id="node2" class="node"><title>Node2</title>
<polygon fill="white" stroke="#bfbfbf" points="988,-112.5 988,-131.5 1034,-131.5 1034,-112.5 988,-112.5"/>
<text text-anchor="middle" x="1011" y="-119.5" font-family="Helvetica,sans-Serif" font-size="10.00">stdio.h</text>
</g>
<!-- Node1&#45;&gt;Node2 -->
<g id="edge1" class="edge"><title>Node1&#45;&gt;Node2</title>
<path fill="none" stroke="midnightblue" d="M1175.32,-341.187C1104.96,-331.016 939.945,-296.18 871,-188 844.5,-146.42 928.417,-131.032 977.717,-125.665"/>
<polygon fill="midnightblue" stroke="midnightblue" points="978.352,-129.119 987.953,-124.64 977.654,-122.154 978.352,-129.119"/>
</g>
<!-- Node3 -->
<g id="node3" class="node"><title>Node3</title>
<g id="a_node3"><a xlink:href="a00013.html" target="_top" xlink:title="Provides DMA related configuration and access functions for ADC and DAC. ">
<polygon fill="white" stroke="black" points="1241,-280.5 1241,-299.5 1327,-299.5 1327,-280.5 1241,-280.5"/>
<text text-anchor="middle" x="1284" y="-287.5" font-family="Helvetica,sans-Serif" font-size="10.00">adc_dac_dma.h</text>
</a>
</g>
</g>
<!-- Node1&#45;&gt;Node3 -->
<g id="edge2" class="edge"><title>Node1&#45;&gt;Node3</title>
<path fill="none" stroke="midnightblue" d="M1215.1,-336.324C1225.13,-327.9 1243.03,-314.971 1258.18,-305.074"/>
<polygon fill="midnightblue" stroke="midnightblue" points="1260.15,-307.973 1266.71,-299.655 1256.39,-302.065 1260.15,-307.973"/>
</g>
<!-- Node4 -->
<g id="node4" class="node"><title>Node4</title>
<g id="a_node4"><a xlink:href="a00018.html" target="_top" xlink:title="Global defines include file. ">
<polygon fill="white" stroke="black" points="866,-56.5 866,-75.5 922,-75.5 922,-56.5 866,-56.5"/>
<text text-anchor="middle" x="894" y="-63.5" font-family="Helvetica,sans-Serif" font-size="10.00">globals.h</text>
</a>
</g>
</g>
<!-- Node1&#45;&gt;Node4 -->
<g id="edge82" class="edge"><title>Node1&#45;&gt;Node4</title>
<path fill="none" stroke="midnightblue" d="M1175.4,-344.043C1092.15,-341.172 873.748,-330.833 809,-300 744.872,-269.462 722.471,-253.5 695,-188 691.562,-179.803 690.031,-175.37 695,-168 718.853,-132.621 745.748,-150.906 784,-132 815.668,-116.348 850.504,-95.016 872.311,-81.1278"/>
<polygon fill="midnightblue" stroke="midnightblue" points="874.288,-84.0176 880.812,-75.6697 870.506,-78.1272 874.288,-84.0176"/>
</g>
<!-- Node25 -->
<g id="node25" class="node"><title>Node25</title>
<g id="a_node25"><a xlink:href="a00045.html" target="_top" xlink:title="PID compensator implementation. ">
<polygon fill="white" stroke="black" points="1573,-168.5 1573,-187.5 1611,-187.5 1611,-168.5 1573,-168.5"/>
<text text-anchor="middle" x="1592" y="-175.5" font-family="Helvetica,sans-Serif" font-size="10.00">pid.h</text>
</a>
</g>
</g>
<!-- Node1&#45;&gt;Node25 -->
<g id="edge85" class="edge"><title>Node1&#45;&gt;Node25</title>
<path fill="none" stroke="midnightblue" d="M1240.75,-340.526C1322.49,-328.691 1532.3,-294.008 1579,-244 1590.4,-231.788 1593.05,-212.521 1593.21,-198.129"/>
<polygon fill="midnightblue" stroke="midnightblue" points="1596.7,-197.758 1592.92,-187.86 1589.71,-197.954 1596.7,-197.758"/>
</g>
<!-- Node27 -->
<g id="node27" class="node"><title>Node27</title>
<g id="a_node27"><a xlink:href="a00020.html" target="_top" xlink:title="Provides tools and helper functions. ">
<polygon fill="white" stroke="black" points="1705.5,-168.5 1705.5,-187.5 1756.5,-187.5 1756.5,-168.5 1705.5,-168.5"/>
<text text-anchor="middle" x="1731" y="-175.5" font-family="Helvetica,sans-Serif" font-size="10.00">helper.h</text>
</a>
</g>
</g>
<!-- Node1&#45;&gt;Node27 -->
<g id="edge86" class="edge"><title>Node1&#45;&gt;Node27</title>
<path fill="none" stroke="midnightblue" d="M1240.51,-344.405C1349.66,-341.648 1699.92,-326.417 1767,-244 1779.5,-228.636 1764.05,-208.316 1749.69,-194.514"/>
<polygon fill="midnightblue" stroke="midnightblue" points="1751.77,-191.682 1742,-187.589 1747.09,-196.883 1751.77,-191.682"/>
</g>
<!-- Node31 -->
<g id="node31" class="node"><title>Node31</title>
<g id="a_node31"><a xlink:href="a00022.html" target="_top" xlink:title="Analog processing related callback handler definition. ">
<polygon fill="white" stroke="black" points="704,-168.5 704,-187.5 786,-187.5 786,-168.5 704,-168.5"/>
<text text-anchor="middle" x="745" y="-175.5" font-family="Helvetica,sans-Serif" font-size="10.00">irq_callbacks.h</text>
</a>
</g>
</g>
<!-- Node1&#45;&gt;Node31 -->
<g id="edge83" class="edge"><title>Node1&#45;&gt;Node31</title>
<path fill="none" stroke="midnightblue" d="M1175.21,-344.223C1095.75,-341.836 895.266,-332.656 838,-300 795.755,-275.909 766.279,-224.16 752.979,-196.8"/>
<polygon fill="midnightblue" stroke="midnightblue" points="756.09,-195.189 748.681,-187.616 749.75,-198.157 756.09,-195.189"/>
</g>
<!-- Node32 -->
<g id="node32" class="node"><title>Node32</title>
<g id="a_node32"><a xlink:href="a00039.html" target="_top" xlink:title="Project MD_APP scanner specific pin mappings. ">
<polygon fill="white" stroke="black" points="126.5,-168.5 126.5,-187.5 193.5,-187.5 193.5,-168.5 126.5,-168.5"/>
<text text-anchor="middle" x="160" y="-175.5" font-family="Helvetica,sans-Serif" font-size="10.00">mdb_gpio.h</text>
</a>
</g>
</g>
<!-- Node1&#45;&gt;Node32 -->
<g id="edge84" class="edge"><title>Node1&#45;&gt;Node32</title>
<path fill="none" stroke="midnightblue" d="M1175.48,-344.069C1090.54,-341.26 855.215,-331.058 662,-300 486.54,-271.796 281.809,-214.719 198.346,-190.395"/>
<polygon fill="midnightblue" stroke="midnightblue" points="199.127,-186.977 188.547,-187.527 197.161,-193.695 199.127,-186.977"/>
</g>
<!-- Node3&#45;&gt;Node1 -->
<g id="edge81" class="edge"><title>Node3&#45;&gt;Node1</title>
<path fill="none" stroke="midnightblue" d="M1276.72,-299.834C1266.65,-308.263 1248.87,-321.099 1233.8,-330.935"/>
<polygon fill="midnightblue" stroke="midnightblue" points="1231.89,-328.006 1225.33,-336.324 1235.64,-333.913 1231.89,-328.006"/>
</g>
<!-- Node3&#45;&gt;Node4 -->
<g id="edge3" class="edge"><title>Node3&#45;&gt;Node4</title>
<path fill="none" stroke="midnightblue" d="M1284.79,-280.255C1286.35,-267.022 1290.82,-241.589 1303,-224 1321.67,-197.054 1372.62,-192.638 1351,-168 1310.35,-121.677 1134.16,-152.409 1076,-132 1059.82,-126.321 1058.67,-118.979 1043,-112 1006.63,-95.7982 962.767,-83.3395 932.085,-75.6823"/>
<polygon fill="midnightblue" stroke="midnightblue" points="932.76,-72.2443 922.215,-73.2711 931.098,-79.0443 932.76,-72.2443"/>
</g>
<!-- Node5 -->
<g id="node5" class="node"><title>Node5</title>
<g id="a_node5"><a xlink:href="a00041.html" target="_top" xlink:title="Provides nested vector interrupt controller configuration methods. ">
<polygon fill="white" stroke="black" points="1684,-224.5 1684,-243.5 1758,-243.5 1758,-224.5 1684,-224.5"/>
<text text-anchor="middle" x="1721" y="-231.5" font-family="Helvetica,sans-Serif" font-size="10.00">nvic_config.h</text>
</a>
</g>
</g>
<!-- Node3&#45;&gt;Node5 -->
<g id="edge4" class="edge"><title>Node3&#45;&gt;Node5</title>
<path fill="none" stroke="midnightblue" d="M1327.1,-283.674C1409.45,-273.498 1588.56,-251.366 1673.93,-240.817"/>
<polygon fill="midnightblue" stroke="midnightblue" points="1674.36,-244.29 1683.86,-239.59 1673.5,-237.343 1674.36,-244.29"/>
</g>
<!-- Node7 -->
<g id="node7" class="node"><title>Node7</title>
<g id="a_node7"><a xlink:href="a00024.html" target="_top" xlink:title="Main header definition. ">
<polygon fill="white" stroke="black" points="1185,-224.5 1185,-243.5 1231,-243.5 1231,-224.5 1185,-224.5"/>
<text text-anchor="middle" x="1208" y="-231.5" font-family="Helvetica,sans-Serif" font-size="10.00">main.h</text>
</a>
</g>
</g>
<!-- Node3&#45;&gt;Node7 -->
<g id="edge6" class="edge"><title>Node3&#45;&gt;Node7</title>
<path fill="none" stroke="midnightblue" d="M1266.67,-280.324C1253.46,-272.185 1235.74,-259.839 1223.11,-250.087"/>
<polygon fill="midnightblue" stroke="midnightblue" points="1225.28,-247.345 1215.28,-243.834 1220.91,-252.812 1225.28,-247.345"/>
</g>
<!-- Node13 -->
<g id="node13" class="node"><title>Node13</title>
<polygon fill="white" stroke="#bfbfbf" points="968.5,-0.5 968.5,-19.5 1039.5,-19.5 1039.5,-0.5 968.5,-0.5"/>
<text text-anchor="middle" x="1004" y="-7.5" font-family="Helvetica,sans-Serif" font-size="10.00">stm32f4xx.h</text>
</g>
<!-- Node3&#45;&gt;Node13 -->
<g id="edge79" class="edge"><title>Node3&#45;&gt;Node13</title>
<path fill="none" stroke="midnightblue" d="M1327.24,-286.204C1388.12,-281.398 1494.84,-269.518 1523,-244 1545.3,-223.789 1542,-209.098 1542,-179 1542,-179 1542,-179 1542,-121 1542,-90.9022 1546.28,-75.0758 1523,-56 1486.84,-26.3704 1170.54,-15.248 1050.2,-12.0655"/>
<polygon fill="midnightblue" stroke="midnightblue" points="1049.94,-8.55772 1039.86,-11.7988 1049.76,-15.5554 1049.94,-8.55772"/>
</g>
<!-- Node14 -->
<g id="node14" class="node"><title>Node14</title>
<polygon fill="white" stroke="#bfbfbf" points="315.5,-56.5 315.5,-75.5 404.5,-75.5 404.5,-56.5 315.5,-56.5"/>
<text text-anchor="middle" x="360" y="-63.5" font-family="Helvetica,sans-Serif" font-size="10.00">stm32f4xx_rcc.h</text>
</g>
<!-- Node3&#45;&gt;Node14 -->
<g id="edge78" class="edge"><title>Node3&#45;&gt;Node14</title>
<path fill="none" stroke="midnightblue" d="M1240.73,-287.705C1120.18,-283.199 771.098,-264.031 493,-188 432.317,-171.409 398.786,-183.741 363,-132 353.772,-118.657 353.953,-99.8293 355.891,-85.8693"/>
<polygon fill="midnightblue" stroke="midnightblue" points="359.356,-86.3757 357.675,-75.9149 352.466,-85.1404 359.356,-86.3757"/>
</g>
<!-- Node3&#45;&gt;Node25 -->
<g id="edge75" class="edge"><title>Node3&#45;&gt;Node25</title>
<path fill="none" stroke="midnightblue" d="M1327.09,-286.407C1394.23,-281.626 1519.87,-269.491 1556,-244 1571.78,-232.869 1581.41,-212.535 1586.69,-197.564"/>
<polygon fill="midnightblue" stroke="midnightblue" points="1590.1,-198.41 1589.79,-187.819 1583.43,-196.286 1590.1,-198.41"/>
</g>
<!-- Node3&#45;&gt;Node27 -->
<g id="edge80" class="edge"><title>Node3&#45;&gt;Node27</title>
<path fill="none" stroke="midnightblue" d="M1327.23,-285.845C1385.37,-280.827 1491.56,-268.929 1579,-244 1625.12,-230.85 1675.8,-207.171 1705.43,-192.312"/>
<polygon fill="midnightblue" stroke="midnightblue" points="1707.3,-195.287 1714.64,-187.639 1704.13,-189.045 1707.3,-195.287"/>
</g>
<!-- Node35 -->
<g id="node35" class="node"><title>Node35</title>
<polygon fill="white" stroke="#bfbfbf" points="1422,-224.5 1422,-243.5 1514,-243.5 1514,-224.5 1422,-224.5"/>
<text text-anchor="middle" x="1468" y="-231.5" font-family="Helvetica,sans-Serif" font-size="10.00">stm32f4xx_adc.h</text>
</g>
<!-- Node3&#45;&gt;Node35 -->
<g id="edge76" class="edge"><title>Node3&#45;&gt;Node35</title>
<path fill="none" stroke="midnightblue" d="M1313.16,-280.444C1344.51,-271.241 1394.53,-256.562 1429.2,-246.388"/>
<polygon fill="midnightblue" stroke="midnightblue" points="1430.37,-249.691 1438.98,-243.516 1428.4,-242.974 1430.37,-249.691"/>
</g>
<!-- Node36 -->
<g id="node36" class="node"><title>Node36</title>
<polygon fill="white" stroke="#bfbfbf" points="1312,-224.5 1312,-243.5 1404,-243.5 1404,-224.5 1312,-224.5"/>
<text text-anchor="middle" x="1358" y="-231.5" font-family="Helvetica,sans-Serif" font-size="10.00">stm32f4xx_dac.h</text>
</g>
<!-- Node3&#45;&gt;Node36 -->
<g id="edge77" class="edge"><title>Node3&#45;&gt;Node36</title>
<path fill="none" stroke="midnightblue" d="M1295.89,-280.324C1307.15,-272.107 1324.29,-259.602 1337.71,-249.807"/>
<polygon fill="midnightblue" stroke="midnightblue" points="1339.88,-252.556 1345.89,-243.834 1335.75,-246.901 1339.88,-252.556"/>
</g>
<!-- Node6 -->
<g id="node6" class="node"><title>Node6</title>
<polygon fill="white" stroke="#bfbfbf" points="1775,-56.5 1775,-75.5 1821,-75.5 1821,-56.5 1775,-56.5"/>
<text text-anchor="middle" x="1798" y="-63.5" font-family="Helvetica,sans-Serif" font-size="10.00">misc.h</text>
</g>
<!-- Node5&#45;&gt;Node6 -->
<g id="edge5" class="edge"><title>Node5&#45;&gt;Node6</title>
<path fill="none" stroke="midnightblue" d="M1748.6,-224.414C1785.59,-211.245 1849.72,-182.168 1877,-132 1890.23,-107.682 1858.06,-88.881 1830.88,-77.8936"/>
<polygon fill="midnightblue" stroke="midnightblue" points="1831.77,-74.4889 1821.18,-74.2034 1829.28,-81.0312 1831.77,-74.4889"/>
</g>
<!-- Node7&#45;&gt;Node1 -->
<g id="edge53" class="edge"><title>Node7&#45;&gt;Node1</title>
<path fill="none" stroke="midnightblue" d="M1208,-243.591C1208,-261.308 1208,-302.254 1208,-326.348"/>
<polygon fill="midnightblue" stroke="midnightblue" points="1204.5,-326.368 1208,-336.368 1211.5,-326.369 1204.5,-326.368"/>
</g>
<!-- Node7&#45;&gt;Node2 -->
<g id="edge7" class="edge"><title>Node7&#45;&gt;Node2</title>
<path fill="none" stroke="midnightblue" d="M1231.28,-229.781C1275.51,-222.764 1364.54,-203.778 1333,-168 1290.78,-120.116 1110.78,-143.562 1048,-132 1046.72,-131.764 1045.42,-131.512 1044.11,-131.246"/>
<polygon fill="midnightblue" stroke="midnightblue" points="1044.52,-127.755 1034.01,-129.022 1043.02,-134.591 1044.52,-127.755"/>
</g>
<!-- Node7&#45;&gt;Node3 -->
<g id="edge59" class="edge"><title>Node7&#45;&gt;Node3</title>
<path fill="none" stroke="midnightblue" d="M1225.29,-243.655C1238.58,-251.835 1256.42,-264.277 1269.09,-274.061"/>
<polygon fill="midnightblue" stroke="midnightblue" points="1266.91,-276.803 1276.9,-280.324 1271.29,-271.34 1266.91,-276.803"/>
</g>
<!-- Node7&#45;&gt;Node4 -->
<g id="edge12" class="edge"><title>Node7&#45;&gt;Node4</title>
<path fill="none" stroke="midnightblue" d="M1184.94,-231.651C1112.28,-227.17 891.751,-211.706 871,-188 865.145,-181.312 869.687,-176.791 871,-168 873.472,-151.453 878.03,-148.253 882,-132 885.748,-116.653 888.936,-99.0138 891.081,-85.9867"/>
<polygon fill="midnightblue" stroke="midnightblue" points="894.571,-86.3251 892.687,-75.8993 887.658,-85.2249 894.571,-86.3251"/>
</g>
<!-- Node8 -->
<g id="node8" class="node"><title>Node8</title>
<polygon fill="white" stroke="#bfbfbf" points="1676,-112.5 1676,-131.5 1724,-131.5 1724,-112.5 1676,-112.5"/>
<text text-anchor="middle" x="1700" y="-119.5" font-family="Helvetica,sans-Serif" font-size="10.00">stdlib.h</text>
</g>
<!-- Node7&#45;&gt;Node8 -->
<g id="edge8" class="edge"><title>Node7&#45;&gt;Node8</title>
<path fill="none" stroke="midnightblue" d="M1231.05,-230.846C1315.21,-222.938 1601.89,-195.564 1620,-188 1646.19,-177.062 1670.64,-154.723 1685.45,-139.311"/>
<polygon fill="midnightblue" stroke="midnightblue" points="1688.39,-141.286 1692.64,-131.578 1683.27,-136.522 1688.39,-141.286"/>
</g>
<!-- Node9 -->
<g id="node9" class="node"><title>Node9</title>
<polygon fill="white" stroke="#bfbfbf" points="1742.5,-112.5 1742.5,-131.5 1791.5,-131.5 1791.5,-112.5 1742.5,-112.5"/>
<text text-anchor="middle" x="1767" y="-119.5" font-family="Helvetica,sans-Serif" font-size="10.00">string.h</text>
</g>
<!-- Node7&#45;&gt;Node9 -->
<g id="edge9" class="edge"><title>Node7&#45;&gt;Node9</title>
<path fill="none" stroke="midnightblue" d="M1231.16,-230.769C1320.73,-222.127 1639.88,-191.178 1650,-188 1669.22,-181.964 1716.08,-154.284 1744.32,-137.049"/>
<polygon fill="midnightblue" stroke="midnightblue" points="1746.42,-139.865 1753.12,-131.651 1742.76,-133.899 1746.42,-139.865"/>
</g>
<!-- Node10 -->
<g id="node10" class="node"><title>Node10</title>
<polygon fill="white" stroke="#bfbfbf" points="1256,-168.5 1256,-187.5 1324,-187.5 1324,-168.5 1256,-168.5"/>
<text text-anchor="middle" x="1290" y="-175.5" font-family="Helvetica,sans-Serif" font-size="10.00">stdint&#45;gcc.h</text>
</g>
<!-- Node7&#45;&gt;Node10 -->
<g id="edge10" class="edge"><title>Node7&#45;&gt;Node10</title>
<path fill="none" stroke="midnightblue" d="M1221.17,-224.324C1233.85,-215.979 1253.23,-203.212 1268.21,-193.352"/>
<polygon fill="midnightblue" stroke="midnightblue" points="1270.43,-196.078 1276.86,-187.655 1266.58,-190.231 1270.43,-196.078"/>
</g>
<!-- Node11 -->
<g id="node11" class="node"><title>Node11</title>
<g id="a_node11"><a xlink:href="a00015.html" target="_top" xlink:title="Platform/Compiler dependent definitions. ">
<polygon fill="white" stroke="black" points="1294.5,-56.5 1294.5,-75.5 1359.5,-75.5 1359.5,-56.5 1294.5,-56.5"/>
<text text-anchor="middle" x="1327" y="-63.5" font-family="Helvetica,sans-Serif" font-size="10.00">attributes.h</text>
</a>
</g>
</g>
<!-- Node7&#45;&gt;Node11 -->
<g id="edge11" class="edge"><title>Node7&#45;&gt;Node11</title>
<path fill="none" stroke="midnightblue" d="M1231.21,-230.512C1274.4,-225.352 1364.45,-211.923 1383,-188 1408.98,-154.492 1369.11,-106.986 1344.32,-82.6695"/>
<polygon fill="midnightblue" stroke="midnightblue" points="1346.57,-79.9788 1336.91,-75.6365 1341.76,-85.0577 1346.57,-79.9788"/>
</g>
<!-- Node12 -->
<g id="node12" class="node"><title>Node12</title>
<g id="a_node12"><a xlink:href="a00030.html" target="_top" xlink:title="Provides SysTick&#45;Timer driven delay functions. ">
<polygon fill="white" stroke="black" points="388.5,-112.5 388.5,-131.5 495.5,-131.5 495.5,-112.5 388.5,-112.5"/>
<text text-anchor="middle" x="442" y="-119.5" font-family="Helvetica,sans-Serif" font-size="10.00">md_stm32f4_delay.h</text>
</a>
</g>
</g>
<!-- Node7&#45;&gt;Node12 -->
<g id="edge13" class="edge"><title>Node7&#45;&gt;Node12</title>
<path fill="none" stroke="midnightblue" d="M1184.88,-233.107C1081.19,-233.338 658.716,-231.538 535,-188 504.979,-177.435 475.81,-154.316 458.374,-138.697"/>
<polygon fill="midnightblue" stroke="midnightblue" points="460.53,-135.924 450.805,-131.72 455.786,-141.071 460.53,-135.924"/>
</g>
<!-- Node15 -->
<g id="node15" class="node"><title>Node15</title>
<g id="a_node15"><a xlink:href="a00032.html" target="_top" xlink:title="Definitions to extend board support for STM32F429i&#45;DISCO and equivalent boards. ">
<polygon fill="white" stroke="black" points="1246.5,-112.5 1246.5,-131.5 1353.5,-131.5 1353.5,-112.5 1246.5,-112.5"/>
<text text-anchor="middle" x="1300" y="-119.5" font-family="Helvetica,sans-Serif" font-size="10.00">md_stm32f4_disco.h</text>
</a>
</g>
</g>
<!-- Node7&#45;&gt;Node15 -->
<g id="edge17" class="edge"><title>Node7&#45;&gt;Node15</title>
<path fill="none" stroke="midnightblue" d="M1231.15,-229.834C1270.96,-223.863 1349.72,-209.568 1366,-188 1380.97,-168.171 1353.84,-148.602 1329.96,-136.201"/>
<polygon fill="midnightblue" stroke="midnightblue" points="1331.25,-132.935 1320.73,-131.658 1328.16,-139.215 1331.25,-132.935"/>
</g>
<!-- Node17 -->
<g id="node17" class="node"><title>Node17</title>
<g id="a_node17"><a xlink:href="a00036_source.html" target="_top" xlink:title="md_stm32f4_timer.h">
<polygon fill="white" stroke="black" points="188,-112.5 188,-131.5 294,-131.5 294,-112.5 188,-112.5"/>
<text text-anchor="middle" x="241" y="-119.5" font-family="Helvetica,sans-Serif" font-size="10.00">md_stm32f4_timer.h</text>
</a>
</g>
</g>
<!-- Node7&#45;&gt;Node17 -->
<g id="edge22" class="edge"><title>Node7&#45;&gt;Node17</title>
<path fill="none" stroke="midnightblue" d="M1184.98,-233.13C1095.53,-233.305 762.623,-230.86 493,-188 414.89,-175.583 325.776,-149.756 277.227,-134.663"/>
<polygon fill="midnightblue" stroke="midnightblue" points="278.091,-131.266 267.502,-131.614 275.997,-137.946 278.091,-131.266"/>
</g>
<!-- Node18 -->
<g id="node18" class="node"><title>Node18</title>
<g id="a_node18"><a xlink:href="a00056_source.html" target="_top" xlink:title="tm_stm32f4_pwm.h">
<polygon fill="white" stroke="black" points="544.5,-168.5 544.5,-187.5 647.5,-187.5 647.5,-168.5 544.5,-168.5"/>
<text text-anchor="middle" x="596" y="-175.5" font-family="Helvetica,sans-Serif" font-size="10.00">tm_stm32f4_pwm.h</text>
</a>
</g>
</g>
<!-- Node7&#45;&gt;Node18 -->
<g id="edge25" class="edge"><title>Node7&#45;&gt;Node18</title>
<path fill="none" stroke="midnightblue" d="M1184.99,-231.008C1112.78,-224.75 884.231,-204.901 695,-188 682.98,-186.926 670.141,-185.768 657.827,-184.651"/>
<polygon fill="midnightblue" stroke="midnightblue" points="657.911,-181.144 647.636,-183.725 657.278,-188.116 657.911,-181.144"/>
</g>
<!-- Node21 -->
<g id="node21" class="node"><title>Node21</title>
<g id="a_node21"><a xlink:href="a00060_source.html" target="_top" xlink:title="tm_stm32f4_usart.h">
<polygon fill="white" stroke="black" points="1410,-112.5 1410,-131.5 1514,-131.5 1514,-112.5 1410,-112.5"/>
<text text-anchor="middle" x="1462" y="-119.5" font-family="Helvetica,sans-Serif" font-size="10.00">tm_stm32f4_usart.h</text>
</a>
</g>
</g>
<!-- Node7&#45;&gt;Node21 -->
<g id="edge36" class="edge"><title>Node7&#45;&gt;Node21</title>
<path fill="none" stroke="midnightblue" d="M1231.4,-230.849C1294.4,-224.825 1463.9,-206.981 1480,-188 1491.43,-174.521 1483.13,-154.341 1474.38,-140.047"/>
<polygon fill="midnightblue" stroke="midnightblue" points="1477.24,-138.015 1468.78,-131.633 1471.41,-141.896 1477.24,-138.015"/>
</g>
<!-- Node23 -->
<g id="node23" class="node"><title>Node23</title>
<polygon fill="white" stroke="#bfbfbf" points="998,-168.5 998,-187.5 1066,-187.5 1066,-168.5 998,-168.5"/>
<text text-anchor="middle" x="1032" y="-175.5" font-family="Helvetica,sans-Serif" font-size="10.00">core_cm4.h</text>
</g>
<!-- Node7&#45;&gt;Node23 -->
<g id="edge44" class="edge"><title>Node7&#45;&gt;Node23</title>
<path fill="none" stroke="midnightblue" d="M1184.99,-225.94C1155.73,-216.964 1104.82,-201.342 1069.82,-190.603"/>
<polygon fill="midnightblue" stroke="midnightblue" points="1070.54,-187.163 1059.95,-187.576 1068.49,-193.855 1070.54,-187.163"/>
</g>
<!-- Node24 -->
<g id="node24" class="node"><title>Node24</title>
<polygon fill="white" stroke="#bfbfbf" points="1084,-168.5 1084,-187.5 1152,-187.5 1152,-168.5 1084,-168.5"/>
<text text-anchor="middle" x="1118" y="-175.5" font-family="Helvetica,sans-Serif" font-size="10.00">arm_math.h</text>
</g>
<!-- Node7&#45;&gt;Node24 -->
<g id="edge45" class="edge"><title>Node7&#45;&gt;Node24</title>
<path fill="none" stroke="midnightblue" d="M1193.54,-224.324C1179.5,-215.9 1157.95,-202.971 1141.46,-193.074"/>
<polygon fill="midnightblue" stroke="midnightblue" points="1142.8,-189.798 1132.42,-187.655 1139.2,-195.801 1142.8,-189.798"/>
</g>
<!-- Node7&#45;&gt;Node25 -->
<g id="edge46" class="edge"><title>Node7&#45;&gt;Node25</title>
<path fill="none" stroke="midnightblue" d="M1231.16,-229.744C1297.61,-220.398 1488.89,-193.5 1562.57,-183.138"/>
<polygon fill="midnightblue" stroke="midnightblue" points="1563.15,-186.592 1572.56,-181.733 1562.17,-179.66 1563.15,-186.592"/>
</g>
<!-- Node7&#45;&gt;Node27 -->
<g id="edge54" class="edge"><title>Node7&#45;&gt;Node27</title>
<path fill="none" stroke="midnightblue" d="M1231.03,-230.805C1250.27,-228.975 1278.42,-226.304 1303,-224 1475.43,-207.833 1519.94,-215.064 1691,-188 1692.45,-187.771 1693.93,-187.52 1695.41,-187.252"/>
<polygon fill="midnightblue" stroke="midnightblue" points="1696.14,-190.676 1705.27,-185.301 1694.78,-183.809 1696.14,-190.676"/>
</g>
<!-- Node29 -->
<g id="node29" class="node"><title>Node29</title>
<g id="a_node29"><a xlink:href="a00043.html" target="_top" xlink:title="Provides initialization methods to configure analog subsystems and DMA controller. ">
<polygon fill="white" stroke="black" points="880.5,-168.5 880.5,-187.5 979.5,-187.5 979.5,-168.5 880.5,-168.5"/>
<text text-anchor="middle" x="930" y="-175.5" font-family="Helvetica,sans-Serif" font-size="10.00">periph2dma_conf.h</text>
</a>
</g>
</g>
<!-- Node7&#45;&gt;Node29 -->
<g id="edge60" class="edge"><title>Node7&#45;&gt;Node29</title>
<path fill="none" stroke="midnightblue" d="M1184.78,-228.489C1140.92,-219.97 1044.87,-201.314 984.043,-189.498"/>
<polygon fill="midnightblue" stroke="midnightblue" points="984.34,-185.99 973.856,-187.519 983.006,-192.862 984.34,-185.99"/>
</g>
<!-- Node7&#45;&gt;Node31 -->
<g id="edge65" class="edge"><title>Node7&#45;&gt;Node31</title>
<path fill="none" stroke="midnightblue" d="M1184.91,-231.246C1122.76,-225.937 948.055,-209.18 796.026,-188.66"/>
<polygon fill="midnightblue" stroke="midnightblue" points="796.426,-185.182 786.046,-187.303 795.483,-192.118 796.426,-185.182"/>
</g>
<!-- Node7&#45;&gt;Node32 -->
<g id="edge69" class="edge"><title>Node7&#45;&gt;Node32</title>
<path fill="none" stroke="midnightblue" d="M1184.86,-232.056C1080.65,-227.768 644.554,-209.402 287,-188 259.295,-186.342 228.216,-184.145 203.736,-182.337"/>
<polygon fill="midnightblue" stroke="midnightblue" points="203.911,-178.84 193.678,-181.589 203.391,-185.821 203.911,-178.84"/>
</g>
<!-- Node34 -->
<g id="node34" class="node"><title>Node34</title>
<g id="a_node34"><a xlink:href="a00048.html" target="_top" xlink:title="Provides DAC driven signal generator functions. ">
<polygon fill="white" stroke="black" points="1170,-168.5 1170,-187.5 1238,-187.5 1238,-168.5 1170,-168.5"/>
<text text-anchor="middle" x="1204" y="-175.5" font-family="Helvetica,sans-Serif" font-size="10.00">signalGen.h</text>
</a>
</g>
</g>
<!-- Node7&#45;&gt;Node34 -->
<g id="edge73" class="edge"><title>Node7&#45;&gt;Node34</title>
<path fill="none" stroke="midnightblue" d="M1207.34,-224.083C1206.82,-217.006 1206.06,-206.861 1205.41,-197.986"/>
<polygon fill="midnightblue" stroke="midnightblue" points="1208.88,-197.465 1204.65,-187.751 1201.9,-197.982 1208.88,-197.465"/>
</g>
<!-- Node12&#45;&gt;Node4 -->
<g id="edge16" class="edge"><title>Node12&#45;&gt;Node4</title>
<path fill="none" stroke="midnightblue" d="M495.625,-114.593C588.055,-103.551 775.19,-81.1942 855.725,-71.5727"/>
<polygon fill="midnightblue" stroke="midnightblue" points="856.395,-75.0176 865.909,-70.3559 855.565,-68.067 856.395,-75.0176"/>
</g>
<!-- Node12&#45;&gt;Node13 -->
<g id="edge14" class="edge"><title>Node12&#45;&gt;Node13</title>
<path fill="none" stroke="midnightblue" d="M446.968,-112.377C455.88,-97.8284 476.096,-68.7501 502,-56 581.587,-16.8273 849.986,-11.4772 958.204,-10.9464"/>
<polygon fill="midnightblue" stroke="midnightblue" points="958.482,-14.4455 968.469,-10.9083 958.456,-7.44551 958.482,-14.4455"/>
</g>
<!-- Node12&#45;&gt;Node14 -->
<g id="edge15" class="edge"><title>Node12&#45;&gt;Node14</title>
<path fill="none" stroke="midnightblue" d="M428.825,-112.324C416.153,-103.979 396.767,-91.2122 381.794,-81.3524"/>
<polygon fill="midnightblue" stroke="midnightblue" points="383.419,-78.2313 373.142,-75.6545 379.569,-84.0776 383.419,-78.2313"/>
</g>
<!-- Node15&#45;&gt;Node4 -->
<g id="edge18" class="edge"><title>Node15&#45;&gt;Node4</title>
<path fill="none" stroke="midnightblue" d="M1246.39,-113.299C1243.21,-112.856 1240.06,-112.42 1237,-112 1126.24,-96.8238 995.213,-79.9265 931.946,-71.8342"/>
<polygon fill="midnightblue" stroke="midnightblue" points="932.388,-68.3623 922.025,-70.5663 931.501,-75.3058 932.388,-68.3623"/>
</g>
<!-- Node15&#45;&gt;Node13 -->
<g id="edge19" class="edge"><title>Node15&#45;&gt;Node13</title>
<path fill="none" stroke="midnightblue" d="M1294.34,-112.194C1284.65,-97.9113 1263.46,-69.8939 1238,-56 1178.33,-23.4407 1098.86,-14.139 1049.59,-11.6527"/>
<polygon fill="midnightblue" stroke="midnightblue" points="1049.69,-8.15401 1039.55,-11.2197 1049.39,-15.1475 1049.69,-8.15401"/>
</g>
<!-- Node16 -->
<g id="node16" class="node"><title>Node16</title>
<g id="a_node16"><a xlink:href="a00034.html" target="_top" xlink:title="Provides generic methods for GPIO module initialization and manipulation. ">
<polygon fill="white" stroke="black" points="1127,-56.5 1127,-75.5 1229,-75.5 1229,-56.5 1127,-56.5"/>
<text text-anchor="middle" x="1178" y="-63.5" font-family="Helvetica,sans-Serif" font-size="10.00">md_stm32f4_gpio.h</text>
</a>
</g>
</g>
<!-- Node15&#45;&gt;Node16 -->
<g id="edge20" class="edge"><title>Node15&#45;&gt;Node16</title>
<path fill="none" stroke="midnightblue" d="M1280.67,-112.444C1260.68,-103.596 1229.26,-89.6875 1206.44,-79.5865"/>
<polygon fill="midnightblue" stroke="midnightblue" points="1207.8,-76.3635 1197.24,-75.5164 1204.97,-82.7645 1207.8,-76.3635"/>
</g>
<!-- Node16&#45;&gt;Node13 -->
<g id="edge21" class="edge"><title>Node16&#45;&gt;Node13</title>
<path fill="none" stroke="midnightblue" d="M1150.43,-56.4435C1120.9,-47.2801 1073.88,-32.6876 1041.12,-22.5192"/>
<polygon fill="midnightblue" stroke="midnightblue" points="1042.03,-19.1378 1031.44,-19.5164 1039.96,-25.8232 1042.03,-19.1378"/>
</g>
<!-- Node17&#45;&gt;Node13 -->
<g id="edge23" class="edge"><title>Node17&#45;&gt;Node13</title>
<path fill="none" stroke="midnightblue" d="M246.536,-112.296C256.423,-97.6253 278.665,-68.3678 306,-56 365.094,-29.263 811.728,-15.8107 957.872,-12.0918"/>
<polygon fill="midnightblue" stroke="midnightblue" points="958.36,-15.5808 968.269,-11.8308 958.184,-8.58298 958.36,-15.5808"/>
</g>
<!-- Node17&#45;&gt;Node14 -->
<g id="edge24" class="edge"><title>Node17&#45;&gt;Node14</title>
<path fill="none" stroke="midnightblue" d="M259.856,-112.444C279.266,-103.636 309.73,-89.8116 331.965,-79.722"/>
<polygon fill="midnightblue" stroke="midnightblue" points="333.572,-82.836 341.232,-75.5164 330.68,-76.4615 333.572,-82.836"/>
</g>
<!-- Node18&#45;&gt;Node4 -->
<g id="edge35" class="edge"><title>Node18&#45;&gt;Node4</title>
<path fill="none" stroke="midnightblue" d="M628.562,-168.471C659.203,-160.155 706.196,-146.649 746,-132 769.05,-123.517 829.773,-96.2453 865.874,-79.8449"/>
<polygon fill="midnightblue" stroke="midnightblue" points="867.699,-82.8597 875.351,-75.532 864.8,-76.4883 867.699,-82.8597"/>
</g>
<!-- Node18&#45;&gt;Node13 -->
<g id="edge26" class="edge"><title>Node18&#45;&gt;Node13</title>
<path fill="none" stroke="midnightblue" d="M622.122,-168.45C646.211,-160.218 682.714,-146.855 713,-132 728.398,-124.448 730.999,-120.313 746,-112 794.331,-85.2157 805.73,-76.6061 857,-56 891.004,-42.3332 930.822,-30.3812 960.433,-22.2362"/>
<polygon fill="midnightblue" stroke="midnightblue" points="961.721,-25.5136 970.455,-19.5175 959.888,-18.7578 961.721,-25.5136"/>
</g>
<!-- Node18&#45;&gt;Node14 -->
<g id="edge27" class="edge"><title>Node18&#45;&gt;Node14</title>
<path fill="none" stroke="midnightblue" d="M544.366,-172.394C488.014,-166.339 402.642,-153.824 379,-132 366.321,-120.296 361.935,-100.648 360.5,-86.0112"/>
<polygon fill="midnightblue" stroke="midnightblue" points="363.969,-85.3693 359.881,-75.5949 356.981,-85.7852 363.969,-85.3693"/>
</g>
<!-- Node18&#45;&gt;Node16 -->
<g id="edge28" class="edge"><title>Node18&#45;&gt;Node16</title>
<path fill="none" stroke="midnightblue" d="M641.184,-168.46C746.57,-148.542 1008.36,-99.0621 1122.89,-77.4167"/>
<polygon fill="midnightblue" stroke="midnightblue" points="1123.67,-80.8309 1132.84,-75.5345 1122.37,-73.9527 1123.67,-80.8309"/>
</g>
<!-- Node19 -->
<g id="node19" class="node"><title>Node19</title>
<polygon fill="white" stroke="#bfbfbf" points="511.5,-56.5 511.5,-75.5 600.5,-75.5 600.5,-56.5 511.5,-56.5"/>
<text text-anchor="middle" x="556" y="-63.5" font-family="Helvetica,sans-Serif" font-size="10.00">stm32f4xx_tim.h</text>
</g>
<!-- Node18&#45;&gt;Node19 -->
<g id="edge29" class="edge"><title>Node18&#45;&gt;Node19</title>
<path fill="none" stroke="midnightblue" d="M579.666,-168.387C567.045,-160.72 550.503,-148.213 543,-132 536.067,-117.019 540.985,-98.42 546.649,-84.9602"/>
<polygon fill="midnightblue" stroke="midnightblue" points="549.861,-86.3537 550.943,-75.8142 543.525,-83.379 549.861,-86.3537"/>
</g>
<!-- Node20 -->
<g id="node20" class="node"><title>Node20</title>
<g id="a_node20"><a xlink:href="a00058_source.html" target="_top" xlink:title="tm_stm32f4_timer_properties.h">
<polygon fill="white" stroke="black" points="552,-112.5 552,-131.5 704,-131.5 704,-112.5 552,-112.5"/>
<text text-anchor="middle" x="628" y="-119.5" font-family="Helvetica,sans-Serif" font-size="10.00">tm_stm32f4_timer_properties.h</text>
</a>
</g>
</g>
<!-- Node18&#45;&gt;Node20 -->
<g id="edge30" class="edge"><title>Node18&#45;&gt;Node20</title>
<path fill="none" stroke="midnightblue" d="M601.284,-168.083C605.711,-160.613 612.163,-149.724 617.618,-140.52"/>
<polygon fill="midnightblue" stroke="midnightblue" points="620.727,-142.138 622.814,-131.751 614.705,-138.57 620.727,-142.138"/>
</g>
<!-- Node20&#45;&gt;Node4 -->
<g id="edge34" class="edge"><title>Node20&#45;&gt;Node4</title>
<path fill="none" stroke="midnightblue" d="M670.148,-112.444C721.299,-102.06 806.791,-84.7041 855.997,-74.7149"/>
<polygon fill="midnightblue" stroke="midnightblue" points="856.817,-78.1199 865.921,-72.7003 855.424,-71.2599 856.817,-78.1199"/>
</g>
<!-- Node20&#45;&gt;Node13 -->
<g id="edge31" class="edge"><title>Node20&#45;&gt;Node13</title>
<path fill="none" stroke="midnightblue" d="M637.072,-112.141C652.362,-97.7808 684.853,-69.6553 718,-56 798.065,-23.0164 899.891,-14.0467 957.93,-11.7076"/>
<polygon fill="midnightblue" stroke="midnightblue" points="958.372,-15.1942 968.242,-11.3437 958.125,-8.19859 958.372,-15.1942"/>
</g>
<!-- Node20&#45;&gt;Node14 -->
<g id="edge32" class="edge"><title>Node20&#45;&gt;Node14</title>
<path fill="none" stroke="midnightblue" d="M585.535,-112.444C538.587,-102.984 462.924,-87.7384 412.346,-77.5472"/>
<polygon fill="midnightblue" stroke="midnightblue" points="412.761,-74.0607 402.267,-75.5164 411.378,-80.9228 412.761,-74.0607"/>
</g>
<!-- Node20&#45;&gt;Node19 -->
<g id="edge33" class="edge"><title>Node20&#45;&gt;Node19</title>
<path fill="none" stroke="midnightblue" d="M616.432,-112.324C605.58,-104.185 589.119,-91.8395 576.117,-82.0874"/>
<polygon fill="midnightblue" stroke="midnightblue" points="577.879,-79.0339 567.779,-75.8339 573.679,-84.6339 577.879,-79.0339"/>
</g>
<!-- Node21&#45;&gt;Node4 -->
<g id="edge43" class="edge"><title>Node21&#45;&gt;Node4</title>
<path fill="none" stroke="midnightblue" d="M1409.84,-116.041C1296.85,-105.299 1031.7,-80.0911 932.424,-70.653"/>
<polygon fill="midnightblue" stroke="midnightblue" points="932.534,-67.1478 922.248,-69.6855 931.872,-74.1164 932.534,-67.1478"/>
</g>
<!-- Node21&#45;&gt;Node6 -->
<g id="edge37" class="edge"><title>Node21&#45;&gt;Node6</title>
<path fill="none" stroke="midnightblue" d="M1514.13,-112.622C1584.06,-101.383 1706.22,-81.7504 1764.81,-72.3344"/>
<polygon fill="midnightblue" stroke="midnightblue" points="1765.66,-75.7419 1774.98,-70.6994 1764.55,-68.8306 1765.66,-75.7419"/>
</g>
<!-- Node21&#45;&gt;Node11 -->
<g id="edge42" class="edge"><title>Node21&#45;&gt;Node11</title>
<path fill="none" stroke="midnightblue" d="M1440.61,-112.444C1418.29,-103.517 1383.1,-89.4387 1357.79,-79.3168"/>
<polygon fill="midnightblue" stroke="midnightblue" points="1358.88,-75.9807 1348.29,-75.5164 1356.28,-82.4801 1358.88,-75.9807"/>
</g>
<!-- Node21&#45;&gt;Node13 -->
<g id="edge38" class="edge"><title>Node21&#45;&gt;Node13</title>
<path fill="none" stroke="midnightblue" d="M1453,-112.489C1437.21,-98.1098 1402.86,-69.2797 1368,-56 1310.81,-34.2112 1134.26,-19.7714 1049.86,-13.9296"/>
<polygon fill="midnightblue" stroke="midnightblue" points="1050.01,-10.4318 1039.79,-13.2436 1049.53,-17.4156 1050.01,-10.4318"/>
</g>
<!-- Node21&#45;&gt;Node14 -->
<g id="edge39" class="edge"><title>Node21&#45;&gt;Node14</title>
<path fill="none" stroke="midnightblue" d="M1409.88,-115.833C1394.47,-114.434 1377.57,-113.026 1362,-112 980.271,-86.847 884.029,-96.1002 502,-76 473.254,-74.4875 441.255,-72.4872 414.921,-70.7565"/>
<polygon fill="midnightblue" stroke="midnightblue" points="414.963,-67.2517 404.754,-70.0833 414.501,-74.2364 414.963,-67.2517"/>
</g>
<!-- Node21&#45;&gt;Node16 -->
<g id="edge40" class="edge"><title>Node21&#45;&gt;Node16</title>
<path fill="none" stroke="midnightblue" d="M1417,-112.444C1367.04,-102.944 1286.4,-87.611 1232.8,-77.4198"/>
<polygon fill="midnightblue" stroke="midnightblue" points="1233.27,-73.9461 1222.79,-75.5164 1231.96,-80.8228 1233.27,-73.9461"/>
</g>
<!-- Node22 -->
<g id="node22" class="node"><title>Node22</title>
<polygon fill="white" stroke="#bfbfbf" points="1416,-56.5 1416,-75.5 1514,-75.5 1514,-56.5 1416,-56.5"/>
<text text-anchor="middle" x="1465" y="-63.5" font-family="Helvetica,sans-Serif" font-size="10.00">stm32f4xx_usart.h</text>
</g>
<!-- Node21&#45;&gt;Node22 -->
<g id="edge41" class="edge"><title>Node21&#45;&gt;Node22</title>
<path fill="none" stroke="midnightblue" d="M1462.5,-112.083C1462.89,-105.006 1463.45,-94.8611 1463.95,-85.9865"/>
<polygon fill="midnightblue" stroke="midnightblue" points="1467.45,-85.9299 1464.51,-75.7511 1460.46,-85.5415 1467.45,-85.9299"/>
</g>
<!-- Node25&#45;&gt;Node2 -->
<g id="edge48" class="edge"><title>Node25&#45;&gt;Node2</title>
<path fill="none" stroke="midnightblue" d="M1572.68,-175.497C1505.44,-170.22 1275.47,-151.788 1086,-132 1072.31,-130.57 1057.24,-128.8 1044.22,-127.209"/>
<polygon fill="midnightblue" stroke="midnightblue" points="1044.64,-123.735 1034.29,-125.982 1043.78,-130.682 1044.64,-123.735"/>
</g>
<!-- Node25&#45;&gt;Node4 -->
<g id="edge52" class="edge"><title>Node25&#45;&gt;Node4</title>
<path fill="none" stroke="midnightblue" d="M1572.83,-176.046C1495.56,-172.067 1206.97,-155.882 1119,-132 1098.66,-126.478 1095.88,-119.007 1076,-112 1027.46,-94.8901 969.44,-81.7477 932.176,-74.1998"/>
<polygon fill="midnightblue" stroke="midnightblue" points="932.732,-70.7419 922.241,-72.2206 931.365,-77.607 932.732,-70.7419"/>
</g>
<!-- Node25&#45;&gt;Node8 -->
<g id="edge47" class="edge"><title>Node25&#45;&gt;Node8</title>
<path fill="none" stroke="midnightblue" d="M1609.35,-168.324C1626.67,-159.664 1653.52,-146.242 1673.5,-136.249"/>
<polygon fill="midnightblue" stroke="midnightblue" points="1675.31,-139.257 1682.69,-131.655 1672.18,-132.996 1675.31,-139.257"/>
</g>
<!-- Node25&#45;&gt;Node9 -->
<g id="edge49" class="edge"><title>Node25&#45;&gt;Node9</title>
<path fill="none" stroke="midnightblue" d="M1611.06,-171.118C1640.21,-162.123 1696.3,-144.815 1732.67,-133.594"/>
<polygon fill="midnightblue" stroke="midnightblue" points="1733.84,-136.896 1742.36,-130.603 1731.77,-130.207 1733.84,-136.896"/>
</g>
<!-- Node25&#45;&gt;Node13 -->
<g id="edge51" class="edge"><title>Node25&#45;&gt;Node13</title>
<path fill="none" stroke="midnightblue" d="M1602.8,-168.319C1616.74,-155.994 1638.09,-132.627 1628,-112 1610.19,-75.5827 1593.78,-70.7048 1556,-56 1464.11,-20.2345 1165.15,-12.8932 1049.9,-11.3878"/>
<polygon fill="midnightblue" stroke="midnightblue" points="1049.69,-7.88514 1039.65,-11.2632 1049.61,-14.8846 1049.69,-7.88514"/>
</g>
<!-- Node26 -->
<g id="node26" class="node"><title>Node26</title>
<polygon fill="white" stroke="#bfbfbf" points="1570.5,-112.5 1570.5,-131.5 1619.5,-131.5 1619.5,-112.5 1570.5,-112.5"/>
<text text-anchor="middle" x="1595" y="-119.5" font-family="Helvetica,sans-Serif" font-size="10.00">stdint.h</text>
</g>
<!-- Node25&#45;&gt;Node26 -->
<g id="edge50" class="edge"><title>Node25&#45;&gt;Node26</title>
<path fill="none" stroke="midnightblue" d="M1592.5,-168.083C1592.89,-161.006 1593.45,-150.861 1593.95,-141.986"/>
<polygon fill="midnightblue" stroke="midnightblue" points="1597.45,-141.93 1594.51,-131.751 1590.46,-141.542 1597.45,-141.93"/>
</g>
<!-- Node27&#45;&gt;Node2 -->
<g id="edge55" class="edge"><title>Node27&#45;&gt;Node2</title>
<path fill="none" stroke="midnightblue" d="M1705.43,-174.86C1682.94,-172.993 1649.3,-170.241 1620,-168 1397.41,-150.979 1341.57,-149.27 1119,-132 1093.97,-130.058 1065.68,-127.695 1044.34,-125.877"/>
<polygon fill="midnightblue" stroke="midnightblue" points="1044.43,-122.372 1034.17,-125.008 1043.83,-129.347 1044.43,-122.372"/>
</g>
<!-- Node27&#45;&gt;Node8 -->
<g id="edge57" class="edge"><title>Node27&#45;&gt;Node8</title>
<path fill="none" stroke="midnightblue" d="M1725.88,-168.083C1721.59,-160.613 1715.34,-149.724 1710.06,-140.52"/>
<polygon fill="midnightblue" stroke="midnightblue" points="1713.04,-138.681 1705.02,-131.751 1706.97,-142.166 1713.04,-138.681"/>
</g>
<!-- Node27&#45;&gt;Node9 -->
<g id="edge56" class="edge"><title>Node27&#45;&gt;Node9</title>
<path fill="none" stroke="midnightblue" d="M1736.94,-168.083C1741.98,-160.534 1749.34,-149.495 1755.51,-140.23"/>
<polygon fill="midnightblue" stroke="midnightblue" points="1758.53,-142.013 1761.17,-131.751 1752.71,-138.13 1758.53,-142.013"/>
</g>
<!-- Node28 -->
<g id="node28" class="node"><title>Node28</title>
<polygon fill="white" stroke="#bfbfbf" points="1809.5,-112.5 1809.5,-131.5 1868.5,-131.5 1868.5,-112.5 1809.5,-112.5"/>
<text text-anchor="middle" x="1839" y="-119.5" font-family="Helvetica,sans-Serif" font-size="10.00">inttypes.h</text>
</g>
<!-- Node27&#45;&gt;Node28 -->
<g id="edge58" class="edge"><title>Node27&#45;&gt;Node28</title>
<path fill="none" stroke="midnightblue" d="M1748.35,-168.324C1765.67,-159.664 1792.52,-146.242 1812.5,-136.249"/>
<polygon fill="midnightblue" stroke="midnightblue" points="1814.31,-139.257 1821.69,-131.655 1811.18,-132.996 1814.31,-139.257"/>
</g>
<!-- Node29&#45;&gt;Node13 -->
<g id="edge61" class="edge"><title>Node29&#45;&gt;Node13</title>
<path fill="none" stroke="midnightblue" d="M933.979,-168.075C945.677,-141.832 980.13,-64.5453 995.924,-29.1165"/>
<polygon fill="midnightblue" stroke="midnightblue" points="999.306,-30.1268 1000.18,-19.5681 992.912,-27.2766 999.306,-30.1268"/>
</g>
<!-- Node30 -->
<g id="node30" class="node"><title>Node30</title>
<g id="a_node30"><a xlink:href="a00026.html" target="_top" xlink:title="Project XA&#45;Galvo scanner specific digital to analog converter methods. ">
<polygon fill="white" stroke="black" points="1128,-112.5 1128,-131.5 1228,-131.5 1228,-112.5 1128,-112.5"/>
<text text-anchor="middle" x="1178" y="-119.5" font-family="Helvetica,sans-Serif" font-size="10.00">md_stm32f4_dac.h</text>
</a>
</g>
</g>
<!-- Node29&#45;&gt;Node30 -->
<g id="edge62" class="edge"><title>Node29&#45;&gt;Node30</title>
<path fill="none" stroke="midnightblue" d="M969.296,-168.444C1012.56,-159.023 1082.17,-143.866 1128.97,-133.675"/>
<polygon fill="midnightblue" stroke="midnightblue" points="1129.86,-137.064 1138.89,-131.516 1128.37,-130.224 1129.86,-137.064"/>
</g>
<!-- Node30&#45;&gt;Node13 -->
<g id="edge63" class="edge"><title>Node30&#45;&gt;Node13</title>
<path fill="none" stroke="midnightblue" d="M1164.35,-112.368C1134.36,-93.4121 1062.53,-48.0006 1026.05,-24.9424"/>
<polygon fill="midnightblue" stroke="midnightblue" points="1027.91,-21.9766 1017.59,-19.5914 1024.17,-27.8935 1027.91,-21.9766"/>
</g>
<!-- Node30&#45;&gt;Node16 -->
<g id="edge64" class="edge"><title>Node30&#45;&gt;Node16</title>
<path fill="none" stroke="midnightblue" d="M1178,-112.083C1178,-105.006 1178,-94.8611 1178,-85.9865"/>
<polygon fill="midnightblue" stroke="midnightblue" points="1181.5,-85.751 1178,-75.7511 1174.5,-85.7511 1181.5,-85.751"/>
</g>
<!-- Node31&#45;&gt;Node3 -->
<g id="edge68" class="edge"><title>Node31&#45;&gt;Node3</title>
<path fill="none" stroke="midnightblue" d="M786.08,-187.384C882.961,-207.155 1125.56,-256.665 1232.26,-278.441"/>
<polygon fill="midnightblue" stroke="midnightblue" points="1231.66,-281.89 1242.15,-280.46 1233.06,-275.031 1231.66,-281.89"/>
</g>
<!-- Node31&#45;&gt;Node4 -->
<g id="edge67" class="edge"><title>Node31&#45;&gt;Node4</title>
<path fill="none" stroke="midnightblue" d="M786.071,-168.549C809.917,-161.919 839.248,-150.606 860,-132 873.903,-119.535 883.034,-100.025 888.298,-85.6303"/>
<polygon fill="midnightblue" stroke="midnightblue" points="891.726,-86.4144 891.585,-75.8205 885.089,-84.1905 891.726,-86.4144"/>
</g>
<!-- Node31&#45;&gt;Node7 -->
<g id="edge66" class="edge"><title>Node31&#45;&gt;Node7</title>
<path fill="none" stroke="midnightblue" d="M786.295,-184.612C793.907,-185.805 801.714,-187.003 809,-188 944.379,-206.529 1105.85,-222.547 1174.59,-229.42"/>
<polygon fill="midnightblue" stroke="midnightblue" points="1174.51,-232.929 1184.81,-230.444 1175.21,-225.964 1174.51,-232.929"/>
</g>
<!-- Node32&#45;&gt;Node13 -->
<g id="edge70" class="edge"><title>Node32&#45;&gt;Node13</title>
<path fill="none" stroke="midnightblue" d="M157.805,-168.172C155.021,-154.829 151.822,-129.256 163,-112 193.043,-65.6246 220.664,-70.4404 274,-56 403.904,-20.8292 819.199,-13.0498 958.188,-11.4143"/>
<polygon fill="midnightblue" stroke="midnightblue" points="958.518,-14.9109 968.478,-11.2986 958.439,-7.91137 958.518,-14.9109"/>
</g>
<!-- Node32&#45;&gt;Node14 -->
<g id="edge72" class="edge"><title>Node32&#45;&gt;Node14</title>
<path fill="none" stroke="midnightblue" d="M159.947,-168.475C160.343,-154.595 163.226,-127.145 179,-112 197.007,-94.7114 258.982,-81.9244 305.429,-74.4879"/>
<polygon fill="midnightblue" stroke="midnightblue" points="306.037,-77.9355 315.379,-72.9378 304.96,-71.019 306.037,-77.9355"/>
</g>
<!-- Node33 -->
<g id="node33" class="node"><title>Node33</title>
<polygon fill="white" stroke="#bfbfbf" points="0,-112.5 0,-131.5 94,-131.5 94,-112.5 0,-112.5"/>
<text text-anchor="middle" x="47" y="-119.5" font-family="Helvetica,sans-Serif" font-size="10.00">stm32f4xx_gpio.h</text>
</g>
<!-- Node32&#45;&gt;Node33 -->
<g id="edge71" class="edge"><title>Node32&#45;&gt;Node33</title>
<path fill="none" stroke="midnightblue" d="M142.095,-168.444C123.746,-159.675 94.9946,-145.935 73.9064,-135.858"/>
<polygon fill="midnightblue" stroke="midnightblue" points="75.3532,-132.67 64.8214,-131.516 72.335,-138.986 75.3532,-132.67"/>
</g>
<!-- Node34&#45;&gt;Node2 -->
<g id="edge74" class="edge"><title>Node34&#45;&gt;Node2</title>
<path fill="none" stroke="midnightblue" d="M1173.42,-168.444C1138.2,-158.591 1080.56,-142.462 1044.25,-132.304"/>
<polygon fill="midnightblue" stroke="midnightblue" points="1044.74,-128.807 1034.17,-129.483 1042.86,-135.548 1044.74,-128.807"/>
</g>
</g>
</svg>
