<?xml version="1.0" encoding="UTF-8" standalone="no"?>
<!DOCTYPE svg PUBLIC "-//W3C//DTD SVG 1.1//EN"
 "http://www.w3.org/Graphics/SVG/1.1/DTD/svg11.dtd">
<!-- Generated by graphviz version 2.38.0 (20140413.2041)
 -->
<!-- Title: SetSysClock Pages: 1 -->
<svg width="420pt" height="47pt"
 viewBox="0.00 0.00 420.00 47.00" xmlns="http://www.w3.org/2000/svg" xmlns:xlink="http://www.w3.org/1999/xlink">
<g id="graph0" class="graph" transform="scale(1 1) rotate(0) translate(4 43)">
<title>SetSysClock</title>
<polygon fill="white" stroke="none" points="-4,4 -4,-43 416,-43 416,4 -4,4"/>
<!-- Node1 -->
<g id="node1" class="node"><title>Node1</title>
<polygon fill="#bfbfbf" stroke="black" points="0,-19.5 0,-38.5 74,-38.5 74,-19.5 0,-19.5"/>
<text text-anchor="middle" x="37" y="-26.5" font-family="Helvetica,sans-Serif" font-size="10.00">SetSysClock</text>
</g>
<!-- Node2 -->
<g id="node2" class="node"><title>Node2</title>
<g id="a_node2"><a xlink:href="a00153.html#ga93f514700ccf00d08dbdcff7f1224eb2" target="_top" xlink:title="Setup the microcontroller system Initialize the Embedded Flash Interface, the PLL and update the Syst...">
<polygon fill="white" stroke="black" points="274,-19.5 274,-38.5 338,-38.5 338,-19.5 274,-19.5"/>
<text text-anchor="middle" x="306" y="-26.5" font-family="Helvetica,sans-Serif" font-size="10.00">SystemInit</text>
</a>
</g>
</g>
<!-- Node1&#45;&gt;Node2 -->
<g id="edge1" class="edge"><title>Node1&#45;&gt;Node2</title>
<path fill="none" stroke="midnightblue" d="M84.0444,-29C138.27,-29 226.872,-29 273.706,-29"/>
<polygon fill="midnightblue" stroke="midnightblue" points="84.0088,-25.5001 74.0088,-29 84.0088,-32.5001 84.0088,-25.5001"/>
</g>
<!-- Node4 -->
<g id="node4" class="node"><title>Node4</title>
<g id="a_node4"><a xlink:href="a00153.html#gae0c36a9591fe6e9c45ecb21a794f0f0f" target="_top" xlink:title="Update SystemCoreClock variable according to Clock Register Values. The SystemCoreClock variable cont...">
<polygon fill="white" stroke="black" points="110,-0.5 110,-19.5 238,-19.5 238,-0.5 110,-0.5"/>
<text text-anchor="middle" x="174" y="-7.5" font-family="Helvetica,sans-Serif" font-size="10.00">SystemCoreClockUpdate</text>
</a>
</g>
</g>
<!-- Node1&#45;&gt;Node4 -->
<g id="edge3" class="edge"><title>Node1&#45;&gt;Node4</title>
<path fill="none" stroke="midnightblue" d="M84.321,-22.4808C92.5603,-21.3211 101.268,-20.0956 109.88,-18.8835"/>
<polygon fill="midnightblue" stroke="midnightblue" points="83.5921,-19.0487 74.1775,-23.9083 84.5677,-25.9804 83.5921,-19.0487"/>
</g>
<!-- Node3 -->
<g id="node3" class="node"><title>Node3</title>
<g id="a_node3"><a xlink:href="a00146.html#ga840291bc02cba5474a4cb46a9b9566fe" target="_top" xlink:title="Main function entry. ">
<polygon fill="white" stroke="black" points="374,-19.5 374,-38.5 412,-38.5 412,-19.5 374,-19.5"/>
<text text-anchor="middle" x="393" y="-26.5" font-family="Helvetica,sans-Serif" font-size="10.00">main</text>
</a>
</g>
</g>
<!-- Node2&#45;&gt;Node3 -->
<g id="edge2" class="edge"><title>Node2&#45;&gt;Node3</title>
<path fill="none" stroke="midnightblue" d="M348.455,-29C357.321,-29 366.248,-29 373.69,-29"/>
<polygon fill="midnightblue" stroke="midnightblue" points="348.168,-25.5001 338.168,-29 348.168,-32.5001 348.168,-25.5001"/>
</g>
<!-- Node4&#45;&gt;Node2 -->
<g id="edge4" class="edge"><title>Node4&#45;&gt;Node2</title>
<path fill="none" stroke="midnightblue" d="M248.269,-20.7085C257.231,-22.0184 265.981,-23.2972 273.82,-24.443"/>
<polygon fill="midnightblue" stroke="midnightblue" points="248.497,-17.2048 238.096,-19.2217 247.485,-24.1312 248.497,-17.2048"/>
</g>
</g>
</svg>
