<?xml version="1.0" encoding="UTF-8" standalone="no"?>
<!DOCTYPE svg PUBLIC "-//W3C//DTD SVG 1.1//EN"
 "http://www.w3.org/Graphics/SVG/1.1/DTD/svg11.dtd">
<!-- Generated by graphviz version 2.38.0 (20140413.2041)
 -->
<!-- Title: RTC_RefClockCmd Pages: 1 -->
<svg width="253pt" height="66pt"
 viewBox="0.00 0.00 253.00 66.00" xmlns="http://www.w3.org/2000/svg" xmlns:xlink="http://www.w3.org/1999/xlink">
<g id="graph0" class="graph" transform="scale(1 1) rotate(0) translate(4 62)">
<title>RTC_RefClockCmd</title>
<polygon fill="white" stroke="none" points="-4,4 -4,-62 249,-62 249,4 -4,4"/>
<!-- Node1 -->
<g id="node1" class="node"><title>Node1</title>
<polygon fill="#bfbfbf" stroke="black" points="0,-19.5 0,-38.5 105,-38.5 105,-19.5 0,-19.5"/>
<text text-anchor="middle" x="52.5" y="-26.5" font-family="Helvetica,sans-Serif" font-size="10.00">RTC_RefClockCmd</text>
</g>
<!-- Node2 -->
<g id="node2" class="node"><title>Node2</title>
<g id="a_node2"><a xlink:href="a01060.html#ga679f8883cbfb267a53ffb1ab4cc5c8c5" target="_top" xlink:title="Enters the RTC Initialization mode. ">
<polygon fill="white" stroke="black" points="141,-38.5 141,-57.5 245,-57.5 245,-38.5 141,-38.5"/>
<text text-anchor="middle" x="193" y="-45.5" font-family="Helvetica,sans-Serif" font-size="10.00">RTC_EnterInitMode</text>
</a>
</g>
</g>
<!-- Node1&#45;&gt;Node2 -->
<g id="edge1" class="edge"><title>Node1&#45;&gt;Node2</title>
<path fill="none" stroke="midnightblue" d="M105.072,-36.0749C113.475,-37.2276 122.249,-38.4313 130.854,-39.6118"/>
<polygon fill="midnightblue" stroke="midnightblue" points="130.463,-43.0908 140.846,-40.9825 131.414,-36.1557 130.463,-43.0908"/>
</g>
<!-- Node3 -->
<g id="node3" class="node"><title>Node3</title>
<g id="a_node3"><a xlink:href="a01060.html#ga87f86f3b794205f09a1eac51738d900f" target="_top" xlink:title="Exits the RTC Initialization mode. ">
<polygon fill="white" stroke="black" points="144,-0.5 144,-19.5 242,-19.5 242,-0.5 144,-0.5"/>
<text text-anchor="middle" x="193" y="-7.5" font-family="Helvetica,sans-Serif" font-size="10.00">RTC_ExitInitMode</text>
</a>
</g>
</g>
<!-- Node1&#45;&gt;Node3 -->
<g id="edge2" class="edge"><title>Node1&#45;&gt;Node3</title>
<path fill="none" stroke="midnightblue" d="M105.072,-21.9251C114.335,-20.6544 124.05,-19.3217 133.492,-18.0264"/>
<polygon fill="midnightblue" stroke="midnightblue" points="134.164,-21.467 143.596,-16.6403 133.213,-14.5319 134.164,-21.467"/>
</g>
</g>
</svg>
