<?xml version="1.0" encoding="UTF-8" standalone="no"?>
<!DOCTYPE svg PUBLIC "-//W3C//DTD SVG 1.1//EN"
 "http://www.w3.org/Graphics/SVG/1.1/DTD/svg11.dtd">
<!-- Generated by graphviz version 2.38.0 (20140413.2041)
 -->
<!-- Title: HASH_MD5 Pages: 1 -->
<svg width="459pt" height="256pt"
 viewBox="0.00 0.00 459.00 256.00" xmlns="http://www.w3.org/2000/svg" xmlns:xlink="http://www.w3.org/1999/xlink">
<g id="graph0" class="graph" transform="scale(1 1) rotate(0) translate(4 252)">
<title>HASH_MD5</title>
<polygon fill="white" stroke="none" points="-4,4 -4,-252 455,-252 455,4 -4,4"/>
<!-- Node1 -->
<g id="node1" class="node"><title>Node1</title>
<polygon fill="#bfbfbf" stroke="black" points="0,-114.5 0,-133.5 71,-133.5 71,-114.5 0,-114.5"/>
<text text-anchor="middle" x="35.5" y="-121.5" font-family="Helvetica,sans-Serif" font-size="10.00">HASH_MD5</text>
</g>
<!-- Node2 -->
<g id="node2" class="node"><title>Node2</title>
<g id="a_node2"><a xlink:href="a00103.html#ga88717fe3a4f557182841a958e1dcd9c7" target="_top" xlink:title="De&#45;initializes the HASH peripheral registers to their default reset values. ">
<polygon fill="white" stroke="black" points="149.5,-228.5 149.5,-247.5 226.5,-247.5 226.5,-228.5 149.5,-228.5"/>
<text text-anchor="middle" x="188" y="-235.5" font-family="Helvetica,sans-Serif" font-size="10.00">HASH_DeInit</text>
</a>
</g>
</g>
<!-- Node1&#45;&gt;Node2 -->
<g id="edge1" class="edge"><title>Node1&#45;&gt;Node2</title>
<path fill="none" stroke="midnightblue" d="M40.7638,-133.558C49.9191,-152.928 73.3892,-196.846 107,-219 116.679,-225.38 128.269,-229.624 139.581,-232.446"/>
<polygon fill="midnightblue" stroke="midnightblue" points="138.882,-235.875 149.397,-234.577 140.367,-229.035 138.882,-235.875"/>
</g>
<!-- Node4 -->
<g id="node4" class="node"><title>Node4</title>
<g id="a_node4"><a xlink:href="a00103.html#ga4a7d33f0954ac0463a6cda81121635cf" target="_top" xlink:title="Initializes the HASH peripheral according to the specified parameters in the HASH_InitStruct structur...">
<polygon fill="white" stroke="black" points="156,-190.5 156,-209.5 220,-209.5 220,-190.5 156,-190.5"/>
<text text-anchor="middle" x="188" y="-197.5" font-family="Helvetica,sans-Serif" font-size="10.00">HASH_Init</text>
</a>
</g>
</g>
<!-- Node1&#45;&gt;Node4 -->
<g id="edge3" class="edge"><title>Node1&#45;&gt;Node4</title>
<path fill="none" stroke="midnightblue" d="M45.5668,-133.642C58.1374,-146.426 82.1355,-168.788 107,-181 119.031,-186.909 133,-191.04 145.865,-193.901"/>
<polygon fill="midnightblue" stroke="midnightblue" points="145.393,-197.377 155.889,-195.934 146.784,-190.516 145.393,-197.377"/>
</g>
<!-- Node5 -->
<g id="node5" class="node"><title>Node5</title>
<g id="a_node5"><a xlink:href="a00103.html#gac4d1fa51c9240ad0287b371564b5d2a6" target="_top" xlink:title="Configure the Number of valid bits in last word of the message. ">
<polygon fill="white" stroke="black" points="107,-152.5 107,-171.5 269,-171.5 269,-152.5 107,-152.5"/>
<text text-anchor="middle" x="188" y="-159.5" font-family="Helvetica,sans-Serif" font-size="10.00">HASH_SetLastWordValidBitsNbr</text>
</a>
</g>
</g>
<!-- Node1&#45;&gt;Node5 -->
<g id="edge4" class="edge"><title>Node1&#45;&gt;Node5</title>
<path fill="none" stroke="midnightblue" d="M71.2285,-133.582C82.6085,-136.662 95.3266,-140.041 107,-143 116.346,-145.369 126.329,-147.81 135.962,-150.121"/>
<polygon fill="midnightblue" stroke="midnightblue" points="135.294,-153.559 145.833,-152.473 136.916,-146.75 135.294,-153.559"/>
</g>
<!-- Node6 -->
<g id="node6" class="node"><title>Node6</title>
<g id="a_node6"><a xlink:href="a00103.html#ga9c4c0cebdeb1ce2631dd2eeab82107ef" target="_top" xlink:title="Writes data in the Data Input FIFO. ">
<polygon fill="white" stroke="black" points="148,-114.5 148,-133.5 228,-133.5 228,-114.5 148,-114.5"/>
<text text-anchor="middle" x="188" y="-121.5" font-family="Helvetica,sans-Serif" font-size="10.00">HASH_DataIn</text>
</a>
</g>
</g>
<!-- Node1&#45;&gt;Node6 -->
<g id="edge5" class="edge"><title>Node1&#45;&gt;Node6</title>
<path fill="none" stroke="midnightblue" d="M71.0277,-124C90.8061,-124 115.955,-124 137.775,-124"/>
<polygon fill="midnightblue" stroke="midnightblue" points="137.857,-127.5 147.857,-124 137.857,-120.5 137.857,-127.5"/>
</g>
<!-- Node7 -->
<g id="node7" class="node"><title>Node7</title>
<g id="a_node7"><a xlink:href="a00103.html#ga84ac2b64179fd37b75c4d5f665126e93" target="_top" xlink:title="Starts the message padding and calculation of the final message. ">
<polygon fill="white" stroke="black" points="138,-76.5 138,-95.5 238,-95.5 238,-76.5 138,-76.5"/>
<text text-anchor="middle" x="188" y="-83.5" font-family="Helvetica,sans-Serif" font-size="10.00">HASH_StartDigest</text>
</a>
</g>
</g>
<!-- Node1&#45;&gt;Node7 -->
<g id="edge6" class="edge"><title>Node1&#45;&gt;Node7</title>
<path fill="none" stroke="midnightblue" d="M71.2285,-114.418C82.6085,-111.338 95.3266,-107.959 107,-105 116.346,-102.631 126.329,-100.19 135.962,-97.8793"/>
<polygon fill="midnightblue" stroke="midnightblue" points="136.916,-101.25 145.833,-95.5271 135.294,-94.4406 136.916,-101.25"/>
</g>
<!-- Node8 -->
<g id="node8" class="node"><title>Node8</title>
<g id="a_node8"><a xlink:href="a00103.html#ga826f7bbe15d07c123446cc3d30959f72" target="_top" xlink:title="Checks whether the specified HASH flag is set or not. ">
<polygon fill="white" stroke="black" points="131.5,-38.5 131.5,-57.5 244.5,-57.5 244.5,-38.5 131.5,-38.5"/>
<text text-anchor="middle" x="188" y="-45.5" font-family="Helvetica,sans-Serif" font-size="10.00">HASH_GetFlagStatus</text>
</a>
</g>
</g>
<!-- Node1&#45;&gt;Node8 -->
<g id="edge7" class="edge"><title>Node1&#45;&gt;Node8</title>
<path fill="none" stroke="midnightblue" d="M45.5668,-114.358C58.1374,-101.574 82.1355,-79.2123 107,-67 111.885,-64.6007 117.089,-62.4947 122.41,-60.6477"/>
<polygon fill="midnightblue" stroke="midnightblue" points="123.587,-63.9464 132.067,-57.5957 121.477,-57.2718 123.587,-63.9464"/>
</g>
<!-- Node9 -->
<g id="node9" class="node"><title>Node9</title>
<g id="a_node9"><a xlink:href="a00103.html#ga23018d770837d6ab9f46941f105cc017" target="_top" xlink:title="Provides the message digest result. ">
<polygon fill="white" stroke="black" points="140.5,-0.5 140.5,-19.5 235.5,-19.5 235.5,-0.5 140.5,-0.5"/>
<text text-anchor="middle" x="188" y="-7.5" font-family="Helvetica,sans-Serif" font-size="10.00">HASH_GetDigest</text>
</a>
</g>
</g>
<!-- Node1&#45;&gt;Node9 -->
<g id="edge8" class="edge"><title>Node1&#45;&gt;Node9</title>
<path fill="none" stroke="midnightblue" d="M40.7638,-114.442C49.9191,-95.072 73.3892,-51.1542 107,-29 114.11,-24.3133 122.251,-20.7791 130.556,-18.1148"/>
<polygon fill="midnightblue" stroke="midnightblue" points="131.648,-21.4436 140.329,-15.3698 129.755,-14.7044 131.648,-21.4436"/>
</g>
<!-- Node3 -->
<g id="node3" class="node"><title>Node3</title>
<g id="a_node3"><a xlink:href="a00111.html#gafb119d6d1955d1b8c361e8140845ac5a" target="_top" xlink:title="Forces or releases AHB2 peripheral reset. ">
<polygon fill="white" stroke="black" points="305,-228.5 305,-247.5 451,-247.5 451,-228.5 305,-228.5"/>
<text text-anchor="middle" x="378" y="-235.5" font-family="Helvetica,sans-Serif" font-size="10.00">RCC_AHB2PeriphResetCmd</text>
</a>
</g>
</g>
<!-- Node2&#45;&gt;Node3 -->
<g id="edge2" class="edge"><title>Node2&#45;&gt;Node3</title>
<path fill="none" stroke="midnightblue" d="M226.593,-238C246.189,-238 270.974,-238 294.743,-238"/>
<polygon fill="midnightblue" stroke="midnightblue" points="294.849,-241.5 304.849,-238 294.849,-234.5 294.849,-241.5"/>
</g>
</g>
</svg>
