<?xml version="1.0" encoding="UTF-8" standalone="no"?>
<!DOCTYPE svg PUBLIC "-//W3C//DTD SVG 1.1//EN"
 "http://www.w3.org/Graphics/SVG/1.1/DTD/svg11.dtd">
<!-- Generated by graphviz version 2.38.0 (20140413.2041)
 -->
<!-- Title: actuators.h Pages: 1 -->
<svg width="2048pt" height="308pt"
 viewBox="0.00 0.00 2048.22 308.00" xmlns="http://www.w3.org/2000/svg" xmlns:xlink="http://www.w3.org/1999/xlink">
<g id="graph0" class="graph" transform="scale(1 1) rotate(0) translate(4 304)">
<title>actuators.h</title>
<polygon fill="white" stroke="none" points="-4,4 -4,-304 2044.22,-304 2044.22,4 -4,4"/>
<!-- Node1 -->
<g id="node1" class="node"><title>Node1</title>
<polygon fill="#bfbfbf" stroke="black" points="275.5,-280.5 275.5,-299.5 340.5,-299.5 340.5,-280.5 275.5,-280.5"/>
<text text-anchor="middle" x="308" y="-287.5" font-family="Helvetica,sans-Serif" font-size="10.00">actuators.h</text>
</g>
<!-- Node2 -->
<g id="node2" class="node"><title>Node2</title>
<polygon fill="white" stroke="#bfbfbf" points="303,-56.5 303,-75.5 349,-75.5 349,-56.5 303,-56.5"/>
<text text-anchor="middle" x="326" y="-63.5" font-family="Helvetica,sans-Serif" font-size="10.00">stdio.h</text>
</g>
<!-- Node1&#45;&gt;Node2 -->
<g id="edge1" class="edge"><title>Node1&#45;&gt;Node2</title>
<path fill="none" stroke="midnightblue" d="M275.496,-281.132C192.804,-259.667 -14.1463,-196.037 57,-112 64.6027,-103.02 222.61,-80.8508 292.846,-71.3915"/>
<polygon fill="midnightblue" stroke="midnightblue" points="293.49,-74.8366 302.936,-70.0388 292.56,-67.8986 293.49,-74.8366"/>
</g>
<!-- Node3 -->
<g id="node3" class="node"><title>Node3</title>
<g id="a_node3"><a xlink:href="a00014.html" target="_top" xlink:title="Provides DMA related configuration and access functions for ADC and DAC. ">
<polygon fill="white" stroke="black" points="473,-224.5 473,-243.5 559,-243.5 559,-224.5 473,-224.5"/>
<text text-anchor="middle" x="516" y="-231.5" font-family="Helvetica,sans-Serif" font-size="10.00">adc_dac_dma.h</text>
</a>
</g>
</g>
<!-- Node1&#45;&gt;Node3 -->
<g id="edge2" class="edge"><title>Node1&#45;&gt;Node3</title>
<path fill="none" stroke="midnightblue" d="M335.869,-280.444C369.801,-271.102 427.36,-256.119 468.34,-245.933"/>
<polygon fill="midnightblue" stroke="midnightblue" points="469.248,-249.314 478.116,-243.516 467.568,-242.518 469.248,-249.314"/>
</g>
<!-- Node4 -->
<g id="node4" class="node"><title>Node4</title>
<g id="a_node4"><a xlink:href="a00019.html" target="_top" xlink:title="Global defines include file. ">
<polygon fill="white" stroke="black" points="599,-0.5 599,-19.5 655,-19.5 655,-0.5 599,-0.5"/>
<text text-anchor="middle" x="627" y="-7.5" font-family="Helvetica,sans-Serif" font-size="10.00">globals.h</text>
</a>
</g>
</g>
<!-- Node1&#45;&gt;Node4 -->
<g id="edge83" class="edge"><title>Node1&#45;&gt;Node4</title>
<path fill="none" stroke="midnightblue" d="M275.33,-284.441C196.063,-272.466 0,-236.987 0,-179 0,-179 0,-179 0,-121 0,-66.8689 51.6907,-73.2491 103,-56 193.158,-25.6907 483.636,-14.91 588.659,-11.9467"/>
<polygon fill="midnightblue" stroke="midnightblue" points="588.907,-15.4413 598.807,-11.6685 588.715,-8.44389 588.907,-15.4413"/>
</g>
<!-- Node25 -->
<g id="node25" class="node"><title>Node25</title>
<g id="a_node25"><a xlink:href="a00021.html" target="_top" xlink:title="Analog processing related callback handler definition. ">
<polygon fill="white" stroke="black" points="66,-112.5 66,-131.5 148,-131.5 148,-112.5 66,-112.5"/>
<text text-anchor="middle" x="107" y="-119.5" font-family="Helvetica,sans-Serif" font-size="10.00">isr_callbacks.h</text>
</a>
</g>
</g>
<!-- Node1&#45;&gt;Node25 -->
<g id="edge84" class="edge"><title>Node1&#45;&gt;Node25</title>
<path fill="none" stroke="midnightblue" d="M297.476,-280.309C265.049,-253.528 166.373,-172.035 125.272,-138.09"/>
<polygon fill="midnightblue" stroke="midnightblue" points="127.359,-135.274 117.419,-131.605 122.901,-140.672 127.359,-135.274"/>
</g>
<!-- Node26 -->
<g id="node26" class="node"><title>Node26</title>
<g id="a_node26"><a xlink:href="a00038.html" target="_top" xlink:title="Project MD_APP scanner specific pin mappings. ">
<polygon fill="white" stroke="black" points="1652.5,-112.5 1652.5,-131.5 1719.5,-131.5 1719.5,-112.5 1652.5,-112.5"/>
<text text-anchor="middle" x="1686" y="-119.5" font-family="Helvetica,sans-Serif" font-size="10.00">mdb_gpio.h</text>
</a>
</g>
</g>
<!-- Node1&#45;&gt;Node26 -->
<g id="edge85" class="edge"><title>Node1&#45;&gt;Node26</title>
<path fill="none" stroke="midnightblue" d="M340.704,-285.06C524.874,-262.874 1431.83,-153.618 1642.32,-128.262"/>
<polygon fill="midnightblue" stroke="midnightblue" points="1642.86,-131.722 1652.37,-127.051 1642.03,-124.772 1642.86,-131.722"/>
</g>
<!-- Node27 -->
<g id="node27" class="node"><title>Node27</title>
<g id="a_node27"><a xlink:href="a00042_source.html" target="_top" xlink:title="pid.h">
<polygon fill="white" stroke="black" points="204,-112.5 204,-131.5 242,-131.5 242,-112.5 204,-112.5"/>
<text text-anchor="middle" x="223" y="-119.5" font-family="Helvetica,sans-Serif" font-size="10.00">pid.h</text>
</a>
</g>
</g>
<!-- Node1&#45;&gt;Node27 -->
<g id="edge86" class="edge"><title>Node1&#45;&gt;Node27</title>
<path fill="none" stroke="midnightblue" d="M303.43,-280.075C289.934,-253.719 250.076,-175.878 232.043,-140.661"/>
<polygon fill="midnightblue" stroke="midnightblue" points="235.06,-138.874 227.387,-131.568 228.83,-142.064 235.06,-138.874"/>
</g>
<!-- Node30 -->
<g id="node30" class="node"><title>Node30</title>
<g id="a_node30"><a xlink:href="a00063_source.html" target="_top" xlink:title="tools.h">
<polygon fill="white" stroke="black" points="384,-112.5 384,-131.5 430,-131.5 430,-112.5 384,-112.5"/>
<text text-anchor="middle" x="407" y="-119.5" font-family="Helvetica,sans-Serif" font-size="10.00">tools.h</text>
</a>
</g>
</g>
<!-- Node1&#45;&gt;Node30 -->
<g id="edge87" class="edge"><title>Node1&#45;&gt;Node30</title>
<path fill="none" stroke="midnightblue" d="M313.323,-280.075C329.109,-253.606 375.863,-175.209 396.736,-140.21"/>
<polygon fill="midnightblue" stroke="midnightblue" points="399.774,-141.949 401.89,-131.568 393.762,-138.364 399.774,-141.949"/>
</g>
<!-- Node3&#45;&gt;Node1 -->
<g id="edge82" class="edge"><title>Node3&#45;&gt;Node1</title>
<path fill="none" stroke="midnightblue" d="M488.009,-243.59C452.633,-253.327 391.714,-269.161 350.585,-279.325"/>
<polygon fill="midnightblue" stroke="midnightblue" points="349.718,-275.934 340.84,-281.717 351.386,-282.733 349.718,-275.934"/>
</g>
<!-- Node3&#45;&gt;Node4 -->
<g id="edge3" class="edge"><title>Node3&#45;&gt;Node4</title>
<path fill="none" stroke="midnightblue" d="M559.402,-229.924C614.422,-225.017 704.595,-213.266 725,-188 746.222,-161.722 744.192,-139.796 725,-112 699.346,-74.8439 656.504,-112.555 630,-76 620.372,-62.7216 620.7,-43.5976 622.788,-29.5294"/>
<polygon fill="midnightblue" stroke="midnightblue" points="626.258,-30.0164 624.683,-19.5393 619.381,-28.7117 626.258,-30.0164"/>
</g>
<!-- Node5 -->
<g id="node5" class="node"><title>Node5</title>
<g id="a_node5"><a xlink:href="a00040.html" target="_top" xlink:title="Provides nested vector interrupt controller configuration methods. ">
<polygon fill="white" stroke="black" points="1021,-168.5 1021,-187.5 1095,-187.5 1095,-168.5 1021,-168.5"/>
<text text-anchor="middle" x="1058" y="-175.5" font-family="Helvetica,sans-Serif" font-size="10.00">nvic_config.h</text>
</a>
</g>
</g>
<!-- Node3&#45;&gt;Node5 -->
<g id="edge4" class="edge"><title>Node3&#45;&gt;Node5</title>
<path fill="none" stroke="midnightblue" d="M559.438,-228.672C659.739,-218.679 906.813,-194.063 1010.74,-183.709"/>
<polygon fill="midnightblue" stroke="midnightblue" points="1011.32,-187.168 1020.92,-182.694 1010.63,-180.203 1011.32,-187.168"/>
</g>
<!-- Node7 -->
<g id="node7" class="node"><title>Node7</title>
<g id="a_node7"><a xlink:href="a00023.html" target="_top" xlink:title="Main header definition. ">
<polygon fill="white" stroke="black" points="450,-168.5 450,-187.5 496,-187.5 496,-168.5 450,-168.5"/>
<text text-anchor="middle" x="473" y="-175.5" font-family="Helvetica,sans-Serif" font-size="10.00">main.h</text>
</a>
</g>
</g>
<!-- Node3&#45;&gt;Node7 -->
<g id="edge6" class="edge"><title>Node3&#45;&gt;Node7</title>
<path fill="none" stroke="midnightblue" d="M503.733,-224.083C496.129,-216.534 486.947,-205.495 480.379,-196.23"/>
<polygon fill="midnightblue" stroke="midnightblue" points="483.238,-194.207 474.837,-187.751 477.379,-198.037 483.238,-194.207"/>
</g>
<!-- Node12 -->
<g id="node12" class="node"><title>Node12</title>
<polygon fill="white" stroke="#bfbfbf" points="1285.5,-0.5 1285.5,-19.5 1356.5,-19.5 1356.5,-0.5 1285.5,-0.5"/>
<text text-anchor="middle" x="1321" y="-7.5" font-family="Helvetica,sans-Serif" font-size="10.00">stm32f4xx.h</text>
</g>
<!-- Node3&#45;&gt;Node12 -->
<g id="edge80" class="edge"><title>Node3&#45;&gt;Node12</title>
<path fill="none" stroke="midnightblue" d="M559.339,-231.868C764.248,-226.188 1630.09,-198.395 1729,-132 1759.02,-111.851 1782.22,-82.8416 1758,-56 1732.13,-27.3325 1473.74,-15.8608 1366.88,-12.3183"/>
<polygon fill="midnightblue" stroke="midnightblue" points="1366.83,-8.81495 1356.72,-11.9904 1366.61,-15.8113 1366.83,-8.81495"/>
</g>
<!-- Node13 -->
<g id="node13" class="node"><title>Node13</title>
<polygon fill="white" stroke="#bfbfbf" points="1754.5,-0.5 1754.5,-19.5 1843.5,-19.5 1843.5,-0.5 1754.5,-0.5"/>
<text text-anchor="middle" x="1799" y="-7.5" font-family="Helvetica,sans-Serif" font-size="10.00">stm32f4xx_rcc.h</text>
</g>
<!-- Node3&#45;&gt;Node13 -->
<g id="edge79" class="edge"><title>Node3&#45;&gt;Node13</title>
<path fill="none" stroke="midnightblue" d="M559.311,-233.416C698.148,-234.242 1144.37,-232.962 1510,-188 1634.66,-172.67 1664.17,-158.226 1787,-132 1897.93,-108.316 1965.14,-164.571 2036,-76 2041.55,-69.0592 2041.67,-62.8466 2036,-56 2013.32,-28.613 1916.47,-17.7593 1853.81,-13.555"/>
<polygon fill="midnightblue" stroke="midnightblue" points="1853.88,-10.0527 1843.68,-12.913 1853.44,-17.0387 1853.88,-10.0527"/>
</g>
<!-- Node3&#45;&gt;Node27 -->
<g id="edge76" class="edge"><title>Node3&#45;&gt;Node27</title>
<path fill="none" stroke="midnightblue" d="M496.493,-224.299C467.148,-211.34 409.775,-186.513 360,-168 323.173,-154.303 280.007,-140.486 252.118,-131.845"/>
<polygon fill="midnightblue" stroke="midnightblue" points="252.809,-128.396 242.222,-128.798 250.749,-135.086 252.809,-128.396"/>
</g>
<!-- Node3&#45;&gt;Node30 -->
<g id="edge81" class="edge"><title>Node3&#45;&gt;Node30</title>
<path fill="none" stroke="midnightblue" d="M495.451,-224.46C479.078,-216.835 456.42,-204.349 441,-188 428.327,-174.563 419.101,-155.489 413.483,-141.478"/>
<polygon fill="midnightblue" stroke="midnightblue" points="416.688,-140.056 409.894,-131.927 410.136,-142.519 416.688,-140.056"/>
</g>
<!-- Node32 -->
<g id="node32" class="node"><title>Node32</title>
<g id="a_node32"><a xlink:href="a00025.html" target="_top" xlink:title="Project XA&#45;Galvo scanner specific digital to analog converter methods. ">
<polygon fill="white" stroke="black" points="898,-112.5 898,-131.5 998,-131.5 998,-112.5 898,-112.5"/>
<text text-anchor="middle" x="948" y="-119.5" font-family="Helvetica,sans-Serif" font-size="10.00">md_stm32f4_dac.h</text>
</a>
</g>
</g>
<!-- Node3&#45;&gt;Node32 -->
<g id="edge72" class="edge"><title>Node3&#45;&gt;Node32</title>
<path fill="none" stroke="midnightblue" d="M559.259,-226.904C608.002,-219.587 689.387,-206.013 758,-188 814.867,-173.071 879.265,-149.603 916.593,-135.325"/>
<polygon fill="midnightblue" stroke="midnightblue" points="918.301,-138.418 926.375,-131.557 915.785,-131.886 918.301,-138.418"/>
</g>
<!-- Node33 -->
<g id="node33" class="node"><title>Node33</title>
<polygon fill="white" stroke="#bfbfbf" points="514,-168.5 514,-187.5 606,-187.5 606,-168.5 514,-168.5"/>
<text text-anchor="middle" x="560" y="-175.5" font-family="Helvetica,sans-Serif" font-size="10.00">stm32f4xx_adc.h</text>
</g>
<!-- Node3&#45;&gt;Node33 -->
<g id="edge77" class="edge"><title>Node3&#45;&gt;Node33</title>
<path fill="none" stroke="midnightblue" d="M523.266,-224.083C529.545,-216.377 538.788,-205.033 546.431,-195.653"/>
<polygon fill="midnightblue" stroke="midnightblue" points="549.266,-197.714 552.869,-187.751 543.839,-193.293 549.266,-197.714"/>
</g>
<!-- Node34 -->
<g id="node34" class="node"><title>Node34</title>
<polygon fill="white" stroke="#bfbfbf" points="624,-168.5 624,-187.5 716,-187.5 716,-168.5 624,-168.5"/>
<text text-anchor="middle" x="670" y="-175.5" font-family="Helvetica,sans-Serif" font-size="10.00">stm32f4xx_dac.h</text>
</g>
<!-- Node3&#45;&gt;Node34 -->
<g id="edge78" class="edge"><title>Node3&#45;&gt;Node34</title>
<path fill="none" stroke="midnightblue" d="M540.402,-224.444C566.197,-215.399 607.077,-201.064 636.018,-190.916"/>
<polygon fill="midnightblue" stroke="midnightblue" points="637.434,-194.128 645.712,-187.516 635.118,-187.523 637.434,-194.128"/>
</g>
<!-- Node6 -->
<g id="node6" class="node"><title>Node6</title>
<polygon fill="white" stroke="#bfbfbf" points="1165,-56.5 1165,-75.5 1211,-75.5 1211,-56.5 1165,-56.5"/>
<text text-anchor="middle" x="1188" y="-63.5" font-family="Helvetica,sans-Serif" font-size="10.00">misc.h</text>
</g>
<!-- Node5&#45;&gt;Node6 -->
<g id="edge5" class="edge"><title>Node5&#45;&gt;Node6</title>
<path fill="none" stroke="midnightblue" d="M1074.06,-168.473C1089.02,-160.159 1111.58,-146.655 1129,-132 1146.41,-117.354 1163.58,-97.6833 1174.87,-83.8302"/>
<polygon fill="midnightblue" stroke="midnightblue" points="1177.87,-85.6759 1181.38,-75.6781 1172.41,-81.3071 1177.87,-85.6759"/>
</g>
<!-- Node7&#45;&gt;Node1 -->
<g id="edge46" class="edge"><title>Node7&#45;&gt;Node1</title>
<path fill="none" stroke="midnightblue" d="M460.113,-187.591C431.855,-206.43 364.198,-251.535 329.429,-274.714"/>
<polygon fill="midnightblue" stroke="midnightblue" points="327.326,-271.909 320.947,-280.368 331.209,-277.734 327.326,-271.909"/>
</g>
<!-- Node7&#45;&gt;Node2 -->
<g id="edge7" class="edge"><title>Node7&#45;&gt;Node2</title>
<path fill="none" stroke="midnightblue" d="M449.778,-172.961C402.57,-164.521 299,-144.74 289,-132 276.756,-116.401 292.288,-96.281 306.814,-82.5857"/>
<polygon fill="midnightblue" stroke="midnightblue" points="309.421,-84.9522 314.597,-75.7076 304.786,-79.7068 309.421,-84.9522"/>
</g>
<!-- Node7&#45;&gt;Node3 -->
<g id="edge47" class="edge"><title>Node7&#45;&gt;Node3</title>
<path fill="none" stroke="midnightblue" d="M485.099,-187.751C492.68,-195.248 501.869,-206.275 508.476,-215.566"/>
<polygon fill="midnightblue" stroke="midnightblue" points="505.653,-217.643 514.066,-224.083 511.505,-213.802 505.653,-217.643"/>
</g>
<!-- Node7&#45;&gt;Node4 -->
<g id="edge11" class="edge"><title>Node7&#45;&gt;Node4</title>
<path fill="none" stroke="midnightblue" d="M449.636,-176.349C389.716,-174.205 232.644,-165.451 195,-132 169.197,-109.071 155.844,-81.5987 179,-56 206.282,-25.8405 485.252,-14.978 588.686,-11.969"/>
<polygon fill="midnightblue" stroke="midnightblue" points="588.807,-15.4671 598.704,-11.6864 588.61,-8.46991 588.807,-15.4671"/>
</g>
<!-- Node8 -->
<g id="node8" class="node"><title>Node8</title>
<polygon fill="white" stroke="#bfbfbf" points="435,-56.5 435,-75.5 483,-75.5 483,-56.5 435,-56.5"/>
<text text-anchor="middle" x="459" y="-63.5" font-family="Helvetica,sans-Serif" font-size="10.00">stdlib.h</text>
</g>
<!-- Node7&#45;&gt;Node8 -->
<g id="edge8" class="edge"><title>Node7&#45;&gt;Node8</title>
<path fill="none" stroke="midnightblue" d="M473.605,-168.108C474.292,-155.532 474.968,-131.869 472,-112 470.663,-103.052 468.033,-93.3833 465.486,-85.3095"/>
<polygon fill="midnightblue" stroke="midnightblue" points="468.799,-84.1787 462.302,-75.8095 462.162,-86.4034 468.799,-84.1787"/>
</g>
<!-- Node9 -->
<g id="node9" class="node"><title>Node9</title>
<polygon fill="white" stroke="#bfbfbf" points="367.5,-56.5 367.5,-75.5 416.5,-75.5 416.5,-56.5 367.5,-56.5"/>
<text text-anchor="middle" x="392" y="-63.5" font-family="Helvetica,sans-Serif" font-size="10.00">string.h</text>
</g>
<!-- Node7&#45;&gt;Node9 -->
<g id="edge9" class="edge"><title>Node7&#45;&gt;Node9</title>
<path fill="none" stroke="midnightblue" d="M469.61,-168.491C464.236,-155.565 452.926,-130.528 439,-112 430.893,-101.214 420.12,-90.6976 410.934,-82.5466"/>
<polygon fill="midnightblue" stroke="midnightblue" points="412.931,-79.6482 403.065,-75.7863 408.369,-84.9577 412.931,-79.6482"/>
</g>
<!-- Node10 -->
<g id="node10" class="node"><title>Node10</title>
<g id="a_node10"><a xlink:href="a00016.html" target="_top" xlink:title="Platform/Compiler dependent definitions. ">
<polygon fill="white" stroke="black" points="655.5,-56.5 655.5,-75.5 720.5,-75.5 720.5,-56.5 655.5,-56.5"/>
<text text-anchor="middle" x="688" y="-63.5" font-family="Helvetica,sans-Serif" font-size="10.00">attributes.h</text>
</a>
</g>
</g>
<!-- Node7&#45;&gt;Node10 -->
<g id="edge10" class="edge"><title>Node7&#45;&gt;Node10</title>
<path fill="none" stroke="midnightblue" d="M481.575,-168.227C495.436,-154.492 524.135,-127.845 553,-112 582.221,-95.959 618.143,-84.3263 645.583,-76.9113"/>
<polygon fill="midnightblue" stroke="midnightblue" points="646.495,-80.2906 655.281,-74.3698 644.721,-73.5192 646.495,-80.2906"/>
</g>
<!-- Node11 -->
<g id="node11" class="node"><title>Node11</title>
<g id="a_node11"><a xlink:href="a00029.html" target="_top" xlink:title="Provides SysTick&#45;Timer driven delay functions. ">
<polygon fill="white" stroke="black" points="1267.5,-56.5 1267.5,-75.5 1374.5,-75.5 1374.5,-56.5 1267.5,-56.5"/>
<text text-anchor="middle" x="1321" y="-63.5" font-family="Helvetica,sans-Serif" font-size="10.00">md_stm32f4_delay.h</text>
</a>
</g>
</g>
<!-- Node7&#45;&gt;Node11 -->
<g id="edge12" class="edge"><title>Node7&#45;&gt;Node11</title>
<path fill="none" stroke="midnightblue" d="M496.286,-169.822C499.199,-169.11 502.154,-168.477 505,-168 778.981,-122.126 856.312,-185.018 1129,-132 1188.52,-120.428 1254.9,-94.9881 1291.94,-79.5902"/>
<polygon fill="midnightblue" stroke="midnightblue" points="1293.72,-82.6385 1301.58,-75.5333 1291,-76.1866 1293.72,-82.6385"/>
</g>
<!-- Node14 -->
<g id="node14" class="node"><title>Node14</title>
<g id="a_node14"><a xlink:href="a00031.html" target="_top" xlink:title="Definitions to extend board support for STM32F429i&#45;DISCO and equivalent boards. ">
<polygon fill="white" stroke="black" points="772.5,-112.5 772.5,-131.5 879.5,-131.5 879.5,-112.5 772.5,-112.5"/>
<text text-anchor="middle" x="826" y="-119.5" font-family="Helvetica,sans-Serif" font-size="10.00">md_stm32f4_disco.h</text>
</a>
</g>
</g>
<!-- Node7&#45;&gt;Node14 -->
<g id="edge16" class="edge"><title>Node7&#45;&gt;Node14</title>
<path fill="none" stroke="midnightblue" d="M496.329,-170.046C499.234,-169.297 502.176,-168.592 505,-168 593.352,-149.471 697.022,-136.494 762.119,-129.386"/>
<polygon fill="midnightblue" stroke="midnightblue" points="762.661,-132.848 772.228,-128.296 761.91,-125.888 762.661,-132.848"/>
</g>
<!-- Node16 -->
<g id="node16" class="node"><title>Node16</title>
<g id="a_node16"><a xlink:href="a00035_source.html" target="_top" xlink:title="md_stm32f4_timer.h">
<polygon fill="white" stroke="black" points="1903,-56.5 1903,-75.5 2009,-75.5 2009,-56.5 1903,-56.5"/>
<text text-anchor="middle" x="1956" y="-63.5" font-family="Helvetica,sans-Serif" font-size="10.00">md_stm32f4_timer.h</text>
</a>
</g>
</g>
<!-- Node7&#45;&gt;Node16 -->
<g id="edge21" class="edge"><title>Node7&#45;&gt;Node16</title>
<path fill="none" stroke="midnightblue" d="M496.274,-169.743C499.189,-169.046 502.148,-168.436 505,-168 1042.98,-85.7099 1191.22,-215.558 1729,-132 1800.03,-120.964 1880.25,-94.5526 1923.75,-79.005"/>
<polygon fill="midnightblue" stroke="midnightblue" points="1925.01,-82.2715 1933.22,-75.582 1922.63,-75.688 1925.01,-82.2715"/>
</g>
<!-- Node17 -->
<g id="node17" class="node"><title>Node17</title>
<g id="a_node17"><a xlink:href="a00053_source.html" target="_top" xlink:title="tm_stm32f4_pwm.h">
<polygon fill="white" stroke="black" points="1455.5,-112.5 1455.5,-131.5 1558.5,-131.5 1558.5,-112.5 1455.5,-112.5"/>
<text text-anchor="middle" x="1507" y="-119.5" font-family="Helvetica,sans-Serif" font-size="10.00">tm_stm32f4_pwm.h</text>
</a>
</g>
</g>
<!-- Node7&#45;&gt;Node17 -->
<g id="edge24" class="edge"><title>Node7&#45;&gt;Node17</title>
<path fill="none" stroke="midnightblue" d="M496.281,-169.786C499.194,-169.081 502.151,-168.458 505,-168 597.361,-153.14 1240.68,-131.52 1444.92,-124.959"/>
<polygon fill="midnightblue" stroke="midnightblue" points="1445.29,-128.449 1455.17,-124.631 1445.07,-121.453 1445.29,-128.449"/>
</g>
<!-- Node21 -->
<g id="node21" class="node"><title>Node21</title>
<g id="a_node21"><a xlink:href="a00059_source.html" target="_top" xlink:title="tm_stm32f4_usart.h">
<polygon fill="white" stroke="black" points="1016,-112.5 1016,-131.5 1120,-131.5 1120,-112.5 1016,-112.5"/>
<text text-anchor="middle" x="1068" y="-119.5" font-family="Helvetica,sans-Serif" font-size="10.00">tm_stm32f4_usart.h</text>
</a>
</g>
</g>
<!-- Node7&#45;&gt;Node21 -->
<g id="edge35" class="edge"><title>Node7&#45;&gt;Node21</title>
<path fill="none" stroke="midnightblue" d="M496.293,-169.86C499.205,-169.142 502.157,-168.496 505,-168 722.122,-130.086 782.873,-155.57 1005.74,-132.048"/>
<polygon fill="midnightblue" stroke="midnightblue" points="1006.22,-135.516 1015.79,-130.966 1005.47,-128.556 1006.22,-135.516"/>
</g>
<!-- Node23 -->
<g id="node23" class="node"><title>Node23</title>
<polygon fill="white" stroke="#bfbfbf" points="562,-112.5 562,-131.5 630,-131.5 630,-112.5 562,-112.5"/>
<text text-anchor="middle" x="596" y="-119.5" font-family="Helvetica,sans-Serif" font-size="10.00">core_cm4.h</text>
</g>
<!-- Node7&#45;&gt;Node23 -->
<g id="edge44" class="edge"><title>Node7&#45;&gt;Node23</title>
<path fill="none" stroke="midnightblue" d="M492.49,-168.444C512.642,-159.596 544.323,-145.687 567.331,-135.586"/>
<polygon fill="midnightblue" stroke="midnightblue" points="568.852,-138.741 576.601,-131.516 566.038,-132.332 568.852,-138.741"/>
</g>
<!-- Node24 -->
<g id="node24" class="node"><title>Node24</title>
<polygon fill="white" stroke="#bfbfbf" points="648,-112.5 648,-131.5 716,-131.5 716,-112.5 648,-112.5"/>
<text text-anchor="middle" x="682" y="-119.5" font-family="Helvetica,sans-Serif" font-size="10.00">arm_math.h</text>
</g>
<!-- Node7&#45;&gt;Node24 -->
<g id="edge45" class="edge"><title>Node7&#45;&gt;Node24</title>
<path fill="none" stroke="midnightblue" d="M496.053,-170.442C499.06,-169.608 502.101,-168.776 505,-168 550.021,-155.948 601.695,-142.9 637.54,-133.974"/>
<polygon fill="midnightblue" stroke="midnightblue" points="638.81,-137.265 647.671,-131.456 637.122,-130.471 638.81,-137.265"/>
</g>
<!-- Node7&#45;&gt;Node25 -->
<g id="edge48" class="edge"><title>Node7&#45;&gt;Node25</title>
<path fill="none" stroke="midnightblue" d="M449.671,-174.382C398.028,-167.843 271.254,-150.119 158.248,-132.798"/>
<polygon fill="midnightblue" stroke="midnightblue" points="158.472,-129.291 148.056,-131.231 157.408,-136.21 158.472,-129.291"/>
</g>
<!-- Node7&#45;&gt;Node26 -->
<g id="edge52" class="edge"><title>Node7&#45;&gt;Node26</title>
<path fill="none" stroke="midnightblue" d="M496.276,-169.756C499.19,-169.056 502.149,-168.443 505,-168 738.34,-131.773 1331.22,-144.907 1567,-132 1591.91,-130.636 1619.72,-128.564 1642.19,-126.751"/>
<polygon fill="midnightblue" stroke="midnightblue" points="1642.75,-130.218 1652.43,-125.914 1642.17,-123.241 1642.75,-130.218"/>
</g>
<!-- Node7&#45;&gt;Node27 -->
<g id="edge56" class="edge"><title>Node7&#45;&gt;Node27</title>
<path fill="none" stroke="midnightblue" d="M449.772,-172.672C409.95,-165.143 326.152,-148.823 256,-132 254.733,-131.696 253.441,-131.378 252.138,-131.051"/>
<polygon fill="midnightblue" stroke="midnightblue" points="252.704,-127.582 242.143,-128.436 250.932,-134.354 252.704,-127.582"/>
</g>
<!-- Node29 -->
<g id="node29" class="node"><title>Node29</title>
<g id="a_node29"><a xlink:href="a00045_source.html" target="_top" xlink:title="signalGen.h">
<polygon fill="white" stroke="black" points="298,-112.5 298,-131.5 366,-131.5 366,-112.5 298,-112.5"/>
<text text-anchor="middle" x="332" y="-119.5" font-family="Helvetica,sans-Serif" font-size="10.00">signalGen.h</text>
</a>
</g>
</g>
<!-- Node7&#45;&gt;Node29 -->
<g id="edge63" class="edge"><title>Node7&#45;&gt;Node29</title>
<path fill="none" stroke="midnightblue" d="M450.658,-168.444C427.247,-159.478 390.264,-145.314 363.81,-135.183"/>
<polygon fill="midnightblue" stroke="midnightblue" points="364.828,-131.824 354.237,-131.516 362.324,-138.361 364.828,-131.824"/>
</g>
<!-- Node7&#45;&gt;Node30 -->
<g id="edge67" class="edge"><title>Node7&#45;&gt;Node30</title>
<path fill="none" stroke="midnightblue" d="M462.396,-168.324C452.544,-160.263 437.649,-148.077 425.785,-138.369"/>
<polygon fill="midnightblue" stroke="midnightblue" points="427.753,-135.457 417.797,-131.834 423.32,-140.875 427.753,-135.457"/>
</g>
<!-- Node11&#45;&gt;Node4 -->
<g id="edge15" class="edge"><title>Node11&#45;&gt;Node4</title>
<path fill="none" stroke="midnightblue" d="M1267.21,-57.5791C1262.41,-57.008 1257.62,-56.4714 1253,-56 1030.75,-33.3248 762.961,-18.106 665.135,-12.9447"/>
<polygon fill="midnightblue" stroke="midnightblue" points="665.298,-9.44851 655.129,-12.4206 664.932,-16.4389 665.298,-9.44851"/>
</g>
<!-- Node11&#45;&gt;Node12 -->
<g id="edge13" class="edge"><title>Node11&#45;&gt;Node12</title>
<path fill="none" stroke="midnightblue" d="M1321,-56.083C1321,-49.0059 1321,-38.8611 1321,-29.9865"/>
<polygon fill="midnightblue" stroke="midnightblue" points="1324.5,-29.751 1321,-19.7511 1317.5,-29.7511 1324.5,-29.751"/>
</g>
<!-- Node11&#45;&gt;Node13 -->
<g id="edge14" class="edge"><title>Node11&#45;&gt;Node13</title>
<path fill="none" stroke="midnightblue" d="M1374.9,-58.9105C1466.68,-48.5419 1652.3,-27.5726 1744.49,-17.1577"/>
<polygon fill="midnightblue" stroke="midnightblue" points="1744.91,-20.6326 1754.46,-16.0321 1744.13,-13.6769 1744.91,-20.6326"/>
</g>
<!-- Node14&#45;&gt;Node4 -->
<g id="edge18" class="edge"><title>Node14&#45;&gt;Node4</title>
<path fill="none" stroke="midnightblue" d="M772.458,-113.593C726.187,-106.148 663.997,-93.3011 646,-76 633.561,-64.0415 629.14,-44.4307 627.631,-29.8723"/>
<polygon fill="midnightblue" stroke="midnightblue" points="631.099,-29.2706 626.949,-19.5226 624.115,-29.7313 631.099,-29.2706"/>
</g>
<!-- Node14&#45;&gt;Node12 -->
<g id="edge17" class="edge"><title>Node14&#45;&gt;Node12</title>
<path fill="none" stroke="midnightblue" d="M824.063,-112.381C821.476,-98.366 818.821,-70.7255 834,-56 865.285,-25.6495 1159.71,-15.0358 1275.01,-12.0236"/>
<polygon fill="midnightblue" stroke="midnightblue" points="1275.36,-15.5159 1285.27,-11.7634 1275.19,-8.51811 1275.36,-15.5159"/>
</g>
<!-- Node15 -->
<g id="node15" class="node"><title>Node15</title>
<g id="a_node15"><a xlink:href="a00033.html" target="_top" xlink:title="Provides generic methods for GPIO module initialization and manipulation. ">
<polygon fill="white" stroke="black" points="853,-56.5 853,-75.5 955,-75.5 955,-56.5 853,-56.5"/>
<text text-anchor="middle" x="904" y="-63.5" font-family="Helvetica,sans-Serif" font-size="10.00">md_stm32f4_gpio.h</text>
</a>
</g>
</g>
<!-- Node14&#45;&gt;Node15 -->
<g id="edge19" class="edge"><title>Node14&#45;&gt;Node15</title>
<path fill="none" stroke="midnightblue" d="M838.532,-112.324C850.586,-103.979 869.027,-91.2122 883.269,-81.3524"/>
<polygon fill="midnightblue" stroke="midnightblue" points="885.269,-84.2243 891.499,-75.6545 881.285,-78.469 885.269,-84.2243"/>
</g>
<!-- Node15&#45;&gt;Node12 -->
<g id="edge20" class="edge"><title>Node15&#45;&gt;Node12</title>
<path fill="none" stroke="midnightblue" d="M955.132,-58.3785C1037.14,-47.759 1196.8,-27.0841 1275.25,-16.9245"/>
<polygon fill="midnightblue" stroke="midnightblue" points="1275.84,-20.3769 1285.31,-15.6215 1274.94,-13.4348 1275.84,-20.3769"/>
</g>
<!-- Node16&#45;&gt;Node12 -->
<g id="edge22" class="edge"><title>Node16&#45;&gt;Node12</title>
<path fill="none" stroke="midnightblue" d="M1902.64,-57.5654C1898.03,-57.0042 1893.43,-56.4732 1889,-56 1695.16,-35.3178 1463.16,-19.8112 1366.62,-13.768"/>
<polygon fill="midnightblue" stroke="midnightblue" points="1366.82,-10.2734 1356.62,-13.1453 1366.38,-17.2598 1366.82,-10.2734"/>
</g>
<!-- Node16&#45;&gt;Node13 -->
<g id="edge23" class="edge"><title>Node16&#45;&gt;Node13</title>
<path fill="none" stroke="midnightblue" d="M1931.12,-56.4435C1904.71,-47.3591 1862.78,-32.9388 1833.26,-22.7831"/>
<polygon fill="midnightblue" stroke="midnightblue" points="1834.36,-19.4593 1823.76,-19.5164 1832.08,-26.0787 1834.36,-19.4593"/>
</g>
<!-- Node17&#45;&gt;Node4 -->
<g id="edge34" class="edge"><title>Node17&#45;&gt;Node4</title>
<path fill="none" stroke="midnightblue" d="M1455.29,-116.309C1404.1,-110.593 1324.04,-98.7417 1258,-76 1239.95,-69.786 1238.34,-61.2763 1220,-56 1115.12,-25.8291 779.08,-14.8012 665.174,-11.8744"/>
<polygon fill="midnightblue" stroke="midnightblue" points="665.255,-8.37537 655.17,-11.6236 665.079,-15.3732 665.255,-8.37537"/>
</g>
<!-- Node17&#45;&gt;Node12 -->
<g id="edge25" class="edge"><title>Node17&#45;&gt;Node12</title>
<path fill="none" stroke="midnightblue" d="M1489.83,-112.453C1472.5,-103.697 1445.06,-89.4912 1422,-76 1393.75,-59.4719 1362.17,-38.7762 1341.97,-25.2369"/>
<polygon fill="midnightblue" stroke="midnightblue" points="1343.79,-22.2427 1333.54,-19.5604 1339.88,-28.0491 1343.79,-22.2427"/>
</g>
<!-- Node17&#45;&gt;Node13 -->
<g id="edge26" class="edge"><title>Node17&#45;&gt;Node13</title>
<path fill="none" stroke="midnightblue" d="M1558.72,-116.754C1622.71,-110.658 1727.14,-97.7029 1759,-76 1775.39,-64.836 1786.29,-44.5078 1792.51,-29.5472"/>
<polygon fill="midnightblue" stroke="midnightblue" points="1795.93,-30.4007 1796.23,-19.8101 1789.39,-27.9033 1795.93,-30.4007"/>
</g>
<!-- Node18 -->
<g id="node18" class="node"><title>Node18</title>
<polygon fill="white" stroke="#bfbfbf" points="1639,-56.5 1639,-75.5 1733,-75.5 1733,-56.5 1639,-56.5"/>
<text text-anchor="middle" x="1686" y="-63.5" font-family="Helvetica,sans-Serif" font-size="10.00">stm32f4xx_gpio.h</text>
</g>
<!-- Node17&#45;&gt;Node18 -->
<g id="edge27" class="edge"><title>Node17&#45;&gt;Node18</title>
<path fill="none" stroke="midnightblue" d="M1535.36,-112.444C1565.74,-103.28 1614.11,-88.6876 1647.82,-78.5192"/>
<polygon fill="midnightblue" stroke="midnightblue" points="1649.21,-81.7555 1657.77,-75.5164 1647.18,-75.0538 1649.21,-81.7555"/>
</g>
<!-- Node19 -->
<g id="node19" class="node"><title>Node19</title>
<polygon fill="white" stroke="#bfbfbf" points="1554.5,-0.5 1554.5,-19.5 1643.5,-19.5 1643.5,-0.5 1554.5,-0.5"/>
<text text-anchor="middle" x="1599" y="-7.5" font-family="Helvetica,sans-Serif" font-size="10.00">stm32f4xx_tim.h</text>
</g>
<!-- Node17&#45;&gt;Node19 -->
<g id="edge28" class="edge"><title>Node17&#45;&gt;Node19</title>
<path fill="none" stroke="midnightblue" d="M1558.68,-118.556C1620.69,-114.414 1719.21,-103.574 1742,-76 1770.18,-41.9105 1705.26,-24.9258 1653.89,-17.0554"/>
<polygon fill="midnightblue" stroke="midnightblue" points="1654.23,-13.5678 1643.83,-15.6005 1653.22,-20.4957 1654.23,-13.5678"/>
</g>
<!-- Node20 -->
<g id="node20" class="node"><title>Node20</title>
<g id="a_node20"><a xlink:href="a00057_source.html" target="_top" xlink:title="tm_stm32f4_timer_properties.h">
<polygon fill="white" stroke="black" points="1431,-56.5 1431,-75.5 1583,-75.5 1583,-56.5 1431,-56.5"/>
<text text-anchor="middle" x="1507" y="-63.5" font-family="Helvetica,sans-Serif" font-size="10.00">tm_stm32f4_timer_properties.h</text>
</a>
</g>
</g>
<!-- Node17&#45;&gt;Node20 -->
<g id="edge29" class="edge"><title>Node17&#45;&gt;Node20</title>
<path fill="none" stroke="midnightblue" d="M1507,-112.083C1507,-105.006 1507,-94.8611 1507,-85.9865"/>
<polygon fill="midnightblue" stroke="midnightblue" points="1510.5,-85.751 1507,-75.7511 1503.5,-85.7511 1510.5,-85.751"/>
</g>
<!-- Node20&#45;&gt;Node4 -->
<g id="edge33" class="edge"><title>Node20&#45;&gt;Node4</title>
<path fill="none" stroke="midnightblue" d="M1430.94,-59.3226C1415.1,-58.1842 1398.51,-57.0242 1383,-56 1107.84,-37.8256 776.106,-19.2263 665.19,-13.0972"/>
<polygon fill="midnightblue" stroke="midnightblue" points="665.332,-9.59988 655.154,-12.5435 664.946,-16.5892 665.332,-9.59988"/>
</g>
<!-- Node20&#45;&gt;Node12 -->
<g id="edge30" class="edge"><title>Node20&#45;&gt;Node12</title>
<path fill="none" stroke="midnightblue" d="M1477.53,-56.4435C1445.83,-47.2406 1395.27,-32.5617 1360.23,-22.3879"/>
<polygon fill="midnightblue" stroke="midnightblue" points="1360.91,-18.9434 1350.33,-19.5164 1358.96,-25.6658 1360.91,-18.9434"/>
</g>
<!-- Node20&#45;&gt;Node13 -->
<g id="edge31" class="edge"><title>Node20&#45;&gt;Node13</title>
<path fill="none" stroke="midnightblue" d="M1553.27,-56.4435C1605.2,-46.8406 1689.36,-31.2754 1744.45,-21.0878"/>
<polygon fill="midnightblue" stroke="midnightblue" points="1745.19,-24.511 1754.38,-19.2508 1743.91,-17.6277 1745.19,-24.511"/>
</g>
<!-- Node20&#45;&gt;Node19 -->
<g id="edge32" class="edge"><title>Node20&#45;&gt;Node19</title>
<path fill="none" stroke="midnightblue" d="M1521.78,-56.324C1536.27,-47.8215 1558.57,-34.7288 1575.49,-24.7975"/>
<polygon fill="midnightblue" stroke="midnightblue" points="1577.4,-27.735 1584.26,-19.6545 1573.86,-21.6981 1577.4,-27.735"/>
</g>
<!-- Node21&#45;&gt;Node4 -->
<g id="edge42" class="edge"><title>Node21&#45;&gt;Node4</title>
<path fill="none" stroke="midnightblue" d="M1055.72,-112.393C1032.63,-96.3709 983.331,-62.9618 964,-56 860.58,-18.755 729.291,-11.8845 665.408,-10.906"/>
<polygon fill="midnightblue" stroke="midnightblue" points="665.054,-7.402 655.016,-10.7907 664.977,-14.4016 665.054,-7.402"/>
</g>
<!-- Node21&#45;&gt;Node6 -->
<g id="edge36" class="edge"><title>Node21&#45;&gt;Node6</title>
<path fill="none" stroke="midnightblue" d="M1087.01,-112.444C1106.59,-103.636 1137.31,-89.8116 1159.73,-79.722"/>
<polygon fill="midnightblue" stroke="midnightblue" points="1161.39,-82.8119 1169.07,-75.5164 1158.52,-76.4284 1161.39,-82.8119"/>
</g>
<!-- Node21&#45;&gt;Node10 -->
<g id="edge41" class="edge"><title>Node21&#45;&gt;Node10</title>
<path fill="none" stroke="midnightblue" d="M1015.76,-113.27C1012.8,-112.839 1009.86,-112.413 1007,-112 908.097,-97.7281 791.868,-81.4588 730.669,-72.9316"/>
<polygon fill="midnightblue" stroke="midnightblue" points="731.002,-69.4442 720.615,-71.5312 730.036,-76.3773 731.002,-69.4442"/>
</g>
<!-- Node21&#45;&gt;Node12 -->
<g id="edge37" class="edge"><title>Node21&#45;&gt;Node12</title>
<path fill="none" stroke="midnightblue" d="M1077.5,-112.084C1092.85,-98.1514 1124.55,-71.2396 1156,-56 1194.14,-37.5193 1241.04,-25.6575 1275.08,-18.7789"/>
<polygon fill="midnightblue" stroke="midnightblue" points="1276.06,-22.1533 1285.21,-16.8024 1274.72,-15.283 1276.06,-22.1533"/>
</g>
<!-- Node21&#45;&gt;Node13 -->
<g id="edge38" class="edge"><title>Node21&#45;&gt;Node13</title>
<path fill="none" stroke="midnightblue" d="M1120.1,-119.152C1234.52,-114.667 1504.49,-101.646 1592,-76 1610.31,-70.6327 1612.22,-62.9434 1630,-56 1667.93,-41.1842 1712.51,-29.5408 1746.35,-21.8124"/>
<polygon fill="midnightblue" stroke="midnightblue" points="1747.5,-25.1423 1756.49,-19.5405 1745.97,-18.3116 1747.5,-25.1423"/>
</g>
<!-- Node21&#45;&gt;Node15 -->
<g id="edge43" class="edge"><title>Node21&#45;&gt;Node15</title>
<path fill="none" stroke="midnightblue" d="M1042.01,-112.444C1014.3,-103.32 970.248,-88.8133 939.384,-78.6509"/>
<polygon fill="midnightblue" stroke="midnightblue" points="940.458,-75.3196 929.865,-75.5164 938.268,-81.9684 940.458,-75.3196"/>
</g>
<!-- Node21&#45;&gt;Node18 -->
<g id="edge39" class="edge"><title>Node21&#45;&gt;Node18</title>
<path fill="none" stroke="midnightblue" d="M1120.33,-117.926C1219.15,-111.865 1439.93,-97.1056 1625,-76 1626.26,-75.8567 1627.53,-75.7075 1628.81,-75.5532"/>
<polygon fill="midnightblue" stroke="midnightblue" points="1629.27,-79.022 1638.75,-74.2848 1628.39,-72.0782 1629.27,-79.022"/>
</g>
<!-- Node22 -->
<g id="node22" class="node"><title>Node22</title>
<polygon fill="white" stroke="#bfbfbf" points="1011,-56.5 1011,-75.5 1109,-75.5 1109,-56.5 1011,-56.5"/>
<text text-anchor="middle" x="1060" y="-63.5" font-family="Helvetica,sans-Serif" font-size="10.00">stm32f4xx_usart.h</text>
</g>
<!-- Node21&#45;&gt;Node22 -->
<g id="edge40" class="edge"><title>Node21&#45;&gt;Node22</title>
<path fill="none" stroke="midnightblue" d="M1066.68,-112.083C1065.62,-104.927 1064.09,-94.6353 1062.77,-85.6911"/>
<polygon fill="midnightblue" stroke="midnightblue" points="1066.22,-85.1302 1061.3,-75.7511 1059.3,-86.1561 1066.22,-85.1302"/>
</g>
<!-- Node25&#45;&gt;Node3 -->
<g id="edge51" class="edge"><title>Node25&#45;&gt;Node3</title>
<path fill="none" stroke="midnightblue" d="M138.733,-131.535C211.954,-151.227 392.688,-199.835 474.536,-221.848"/>
<polygon fill="midnightblue" stroke="midnightblue" points="473.681,-225.243 484.247,-224.46 475.499,-218.483 473.681,-225.243"/>
</g>
<!-- Node25&#45;&gt;Node4 -->
<g id="edge50" class="edge"><title>Node25&#45;&gt;Node4</title>
<path fill="none" stroke="midnightblue" d="M105.359,-112.336C103.248,-98.2555 101.506,-70.5234 117,-56 151.239,-23.906 476.065,-14.1395 588.736,-11.7036"/>
<polygon fill="midnightblue" stroke="midnightblue" points="589.036,-15.1983 598.961,-11.4903 588.89,-8.19978 589.036,-15.1983"/>
</g>
<!-- Node25&#45;&gt;Node7 -->
<g id="edge49" class="edge"><title>Node25&#45;&gt;Node7</title>
<path fill="none" stroke="midnightblue" d="M148.021,-128.382C155.727,-129.598 163.637,-130.865 171,-132 268.762,-147.07 384.05,-163.367 439.8,-171.593"/>
<polygon fill="midnightblue" stroke="midnightblue" points="439.41,-175.073 449.816,-173.08 440.439,-168.149 439.41,-175.073"/>
</g>
<!-- Node26&#45;&gt;Node12 -->
<g id="edge53" class="edge"><title>Node26&#45;&gt;Node12</title>
<path fill="none" stroke="midnightblue" d="M1702.61,-112.488C1724.96,-99.9747 1759.92,-75.9405 1742,-56 1717.27,-28.4828 1471.04,-16.4145 1367.01,-12.5152"/>
<polygon fill="midnightblue" stroke="midnightblue" points="1366.93,-9.01005 1356.81,-12.1421 1366.67,-16.0054 1366.93,-9.01005"/>
</g>
<!-- Node26&#45;&gt;Node13 -->
<g id="edge55" class="edge"><title>Node26&#45;&gt;Node13</title>
<path fill="none" stroke="midnightblue" d="M1719.78,-121.754C1796.35,-122.664 1979.49,-120.078 2018,-76 2065.76,-21.3319 1933.28,-11.6091 1853.87,-10.5078"/>
<polygon fill="midnightblue" stroke="midnightblue" points="1853.55,-7.00468 1843.52,-10.4083 1853.49,-14.0044 1853.55,-7.00468"/>
</g>
<!-- Node26&#45;&gt;Node18 -->
<g id="edge54" class="edge"><title>Node26&#45;&gt;Node18</title>
<path fill="none" stroke="midnightblue" d="M1686,-112.083C1686,-105.006 1686,-94.8611 1686,-85.9865"/>
<polygon fill="midnightblue" stroke="midnightblue" points="1689.5,-85.751 1686,-75.7511 1682.5,-85.7511 1689.5,-85.751"/>
</g>
<!-- Node27&#45;&gt;Node2 -->
<g id="edge58" class="edge"><title>Node27&#45;&gt;Node2</title>
<path fill="none" stroke="midnightblue" d="M239.549,-112.324C255.992,-103.703 281.435,-90.3643 300.468,-80.3855"/>
<polygon fill="midnightblue" stroke="midnightblue" points="302.261,-83.3977 309.492,-75.6545 299.011,-77.198 302.261,-83.3977"/>
</g>
<!-- Node27&#45;&gt;Node4 -->
<g id="edge62" class="edge"><title>Node27&#45;&gt;Node4</title>
<path fill="none" stroke="midnightblue" d="M212.251,-112.405C196.922,-99.1442 172.283,-73.4099 188,-56 214.651,-26.4773 486.905,-15.241 588.791,-12.0499"/>
<polygon fill="midnightblue" stroke="midnightblue" points="589.06,-15.5434 598.949,-11.7409 588.847,-8.54663 589.06,-15.5434"/>
</g>
<!-- Node27&#45;&gt;Node8 -->
<g id="edge57" class="edge"><title>Node27&#45;&gt;Node8</title>
<path fill="none" stroke="midnightblue" d="M242.277,-116.971C278.281,-109.388 358.151,-92.2869 425,-76 425.1,-75.9756 425.2,-75.9511 425.301,-75.9266"/>
<polygon fill="midnightblue" stroke="midnightblue" points="426.044,-79.349 434.884,-73.5097 424.332,-72.5615 426.044,-79.349"/>
</g>
<!-- Node27&#45;&gt;Node9 -->
<g id="edge59" class="edge"><title>Node27&#45;&gt;Node9</title>
<path fill="none" stroke="midnightblue" d="M242.058,-114.91C270.028,-105.973 322.647,-89.1601 357.516,-78.0187"/>
<polygon fill="midnightblue" stroke="midnightblue" points="358.822,-81.2758 367.282,-74.8981 356.691,-74.6079 358.822,-81.2758"/>
</g>
<!-- Node27&#45;&gt;Node12 -->
<g id="edge61" class="edge"><title>Node27&#45;&gt;Node12</title>
<path fill="none" stroke="midnightblue" d="M229.223,-112.222C240.288,-97.44 264.972,-68.0189 294,-56 385.336,-18.1836 1087.84,-12.1184 1275.2,-11.1709"/>
<polygon fill="midnightblue" stroke="midnightblue" points="1275.28,-14.6706 1285.27,-11.1225 1275.25,-7.67072 1275.28,-14.6706"/>
</g>
<!-- Node28 -->
<g id="node28" class="node"><title>Node28</title>
<polygon fill="white" stroke="#bfbfbf" points="197.5,-56.5 197.5,-75.5 246.5,-75.5 246.5,-56.5 197.5,-56.5"/>
<text text-anchor="middle" x="222" y="-63.5" font-family="Helvetica,sans-Serif" font-size="10.00">stdint.h</text>
</g>
<!-- Node27&#45;&gt;Node28 -->
<g id="edge60" class="edge"><title>Node27&#45;&gt;Node28</title>
<path fill="none" stroke="midnightblue" d="M222.835,-112.083C222.704,-105.006 222.516,-94.8611 222.352,-85.9865"/>
<polygon fill="midnightblue" stroke="midnightblue" points="225.847,-85.6845 222.162,-75.7511 218.848,-85.8142 225.847,-85.6845"/>
</g>
<!-- Node29&#45;&gt;Node2 -->
<g id="edge66" class="edge"><title>Node29&#45;&gt;Node2</title>
<path fill="none" stroke="midnightblue" d="M331.009,-112.083C330.214,-104.927 329.071,-94.6353 328.077,-85.6911"/>
<polygon fill="midnightblue" stroke="midnightblue" points="331.555,-85.3034 326.972,-75.7511 324.598,-86.0765 331.555,-85.3034"/>
</g>
<!-- Node29&#45;&gt;Node8 -->
<g id="edge65" class="edge"><title>Node29&#45;&gt;Node8</title>
<path fill="none" stroke="midnightblue" d="M352.124,-112.444C373.024,-103.557 405.935,-89.5632 429.716,-79.4514"/>
<polygon fill="midnightblue" stroke="midnightblue" points="431.138,-82.6504 438.971,-75.5164 428.398,-76.2085 431.138,-82.6504"/>
</g>
<!-- Node29&#45;&gt;Node9 -->
<g id="edge64" class="edge"><title>Node29&#45;&gt;Node9</title>
<path fill="none" stroke="midnightblue" d="M341.64,-112.324C350.51,-104.341 363.875,-92.3128 374.608,-82.6529"/>
<polygon fill="midnightblue" stroke="midnightblue" points="377.093,-85.1251 382.185,-75.8339 372.41,-79.922 377.093,-85.1251"/>
</g>
<!-- Node30&#45;&gt;Node2 -->
<g id="edge68" class="edge"><title>Node30&#45;&gt;Node2</title>
<path fill="none" stroke="midnightblue" d="M393.986,-112.324C381.468,-103.979 362.318,-91.2122 347.529,-81.3524"/>
<polygon fill="midnightblue" stroke="midnightblue" points="349.244,-78.2894 338.982,-75.6545 345.361,-84.1137 349.244,-78.2894"/>
</g>
<!-- Node30&#45;&gt;Node8 -->
<g id="edge70" class="edge"><title>Node30&#45;&gt;Node8</title>
<path fill="none" stroke="midnightblue" d="M415.587,-112.083C423.159,-104.22 434.378,-92.5688 443.514,-83.0813"/>
<polygon fill="midnightblue" stroke="midnightblue" points="446.158,-85.3821 450.573,-75.7511 441.115,-80.5266 446.158,-85.3821"/>
</g>
<!-- Node30&#45;&gt;Node9 -->
<g id="edge69" class="edge"><title>Node30&#45;&gt;Node9</title>
<path fill="none" stroke="midnightblue" d="M404.523,-112.083C402.514,-104.849 399.614,-94.4087 397.11,-85.3968"/>
<polygon fill="midnightblue" stroke="midnightblue" points="400.48,-84.4495 394.431,-75.7511 393.735,-86.323 400.48,-84.4495"/>
</g>
<!-- Node31 -->
<g id="node31" class="node"><title>Node31</title>
<polygon fill="white" stroke="#bfbfbf" points="501.5,-56.5 501.5,-75.5 560.5,-75.5 560.5,-56.5 501.5,-56.5"/>
<text text-anchor="middle" x="531" y="-63.5" font-family="Helvetica,sans-Serif" font-size="10.00">inttypes.h</text>
</g>
<!-- Node30&#45;&gt;Node31 -->
<g id="edge71" class="edge"><title>Node30&#45;&gt;Node31</title>
<path fill="none" stroke="midnightblue" d="M426.648,-112.444C446.965,-103.596 478.903,-89.6875 502.098,-79.5865"/>
<polygon fill="midnightblue" stroke="midnightblue" points="503.673,-82.7181 511.444,-75.5164 500.878,-76.3002 503.673,-82.7181"/>
</g>
<!-- Node32&#45;&gt;Node4 -->
<g id="edge74" class="edge"><title>Node32&#45;&gt;Node4</title>
<path fill="none" stroke="midnightblue" d="M921.422,-112.463C893.778,-103.539 849.27,-89.043 811,-76 758.238,-58.018 697.293,-36.3009 660.477,-23.0776"/>
<polygon fill="midnightblue" stroke="midnightblue" points="661.354,-19.6736 650.76,-19.5833 658.985,-26.2607 661.354,-19.6736"/>
</g>
<!-- Node32&#45;&gt;Node12 -->
<g id="edge73" class="edge"><title>Node32&#45;&gt;Node12</title>
<path fill="none" stroke="midnightblue" d="M910.352,-112.429C871.616,-101.946 820.067,-82.2973 844,-56 872.707,-24.4574 1161.58,-14.5725 1275.33,-11.8887"/>
<polygon fill="midnightblue" stroke="midnightblue" points="1275.54,-15.3849 1285.45,-11.6579 1275.38,-8.3867 1275.54,-15.3849"/>
</g>
<!-- Node32&#45;&gt;Node15 -->
<g id="edge75" class="edge"><title>Node32&#45;&gt;Node15</title>
<path fill="none" stroke="midnightblue" d="M940.734,-112.083C934.455,-104.377 925.212,-93.0333 917.569,-83.6531"/>
<polygon fill="midnightblue" stroke="midnightblue" points="920.161,-81.2926 911.131,-75.7511 914.734,-85.7143 920.161,-81.2926"/>
</g>
</g>
</svg>
