<?xml version="1.0" encoding="UTF-8" standalone="no"?>
<!DOCTYPE svg PUBLIC "-//W3C//DTD SVG 1.1//EN"
 "http://www.w3.org/Graphics/SVG/1.1/DTD/svg11.dtd">
<!-- Generated by graphviz version 2.38.0 (20140413.2041)
 -->
<!-- Title: actuators.h Pages: 1 -->
<svg width="496pt" height="252pt"
 viewBox="0.00 0.00 495.50 252.00" xmlns="http://www.w3.org/2000/svg" xmlns:xlink="http://www.w3.org/1999/xlink">
<g id="graph0" class="graph" transform="scale(1 1) rotate(0) translate(4 248)">
<title>actuators.h</title>
<polygon fill="white" stroke="none" points="-4,4 -4,-248 491.5,-248 491.5,4 -4,4"/>
<!-- Node1 -->
<g id="node1" class="node"><title>Node1</title>
<polygon fill="#bfbfbf" stroke="black" points="290.5,-224.5 290.5,-243.5 355.5,-243.5 355.5,-224.5 290.5,-224.5"/>
<text text-anchor="middle" x="323" y="-231.5" font-family="Helvetica,sans-Serif" font-size="10.00">actuators.h</text>
</g>
<!-- Node2 -->
<g id="node2" class="node"><title>Node2</title>
<g id="a_node2"><a xlink:href="a00023.html" target="_top" xlink:title="Main header definition. ">
<polygon fill="white" stroke="black" points="195,-168.5 195,-187.5 241,-187.5 241,-168.5 195,-168.5"/>
<text text-anchor="middle" x="218" y="-175.5" font-family="Helvetica,sans-Serif" font-size="10.00">main.h</text>
</a>
</g>
</g>
<!-- Node1&#45;&gt;Node2 -->
<g id="edge1" class="edge"><title>Node1&#45;&gt;Node2</title>
<path fill="none" stroke="midnightblue" d="M297.19,-219.726C277.747,-209.727 251.652,-196.307 234.828,-187.655"/>
<polygon fill="midnightblue" stroke="midnightblue" points="295.636,-222.863 306.13,-224.324 298.838,-216.638 295.636,-222.863"/>
</g>
<!-- Node3 -->
<g id="node3" class="node"><title>Node3</title>
<g id="a_node3"><a xlink:href="a00014.html" target="_top" xlink:title="Provides DMA related configuration and access functions for ADC and DAC. ">
<polygon fill="white" stroke="black" points="280,-112.5 280,-131.5 366,-131.5 366,-112.5 280,-112.5"/>
<text text-anchor="middle" x="323" y="-119.5" font-family="Helvetica,sans-Serif" font-size="10.00">adc_dac_dma.h</text>
</a>
</g>
</g>
<!-- Node1&#45;&gt;Node3 -->
<g id="edge14" class="edge"><title>Node1&#45;&gt;Node3</title>
<path fill="none" stroke="midnightblue" d="M317.784,-214.348C315.352,-190.254 315.812,-149.308 319.165,-131.591"/>
<polygon fill="midnightblue" stroke="midnightblue" points="314.332,-214.936 319.157,-224.368 321.267,-213.986 314.332,-214.936"/>
</g>
<!-- Node5 -->
<g id="node5" class="node"><title>Node5</title>
<g id="a_node5"><a xlink:href="a00020.html" target="_top" xlink:title="Callback handler implementations. ">
<polygon fill="white" stroke="black" points="211,-0.5 211,-19.5 293,-19.5 293,-0.5 211,-0.5"/>
<text text-anchor="middle" x="252" y="-7.5" font-family="Helvetica,sans-Serif" font-size="10.00">isr_callbacks.c</text>
</a>
</g>
</g>
<!-- Node1&#45;&gt;Node5 -->
<g id="edge16" class="edge"><title>Node1&#45;&gt;Node5</title>
<path fill="none" stroke="midnightblue" d="M336.664,-216.203C362.033,-182.856 410.724,-107.109 375,-56 356.632,-29.7218 321.184,-18.7394 293.043,-14.1754"/>
<polygon fill="midnightblue" stroke="midnightblue" points="333.631,-214.399 330.216,-224.429 339.14,-218.718 333.631,-214.399"/>
</g>
<!-- Node9 -->
<g id="node9" class="node"><title>Node9</title>
<g id="a_node9"><a xlink:href="a00011.html" target="_top" xlink:title="Controlling beam and primary actuators. ">
<polygon fill="white" stroke="black" points="422.5,-168.5 422.5,-187.5 487.5,-187.5 487.5,-168.5 422.5,-168.5"/>
<text text-anchor="middle" x="455" y="-175.5" font-family="Helvetica,sans-Serif" font-size="10.00">actuators.c</text>
</a>
</g>
</g>
<!-- Node1&#45;&gt;Node9 -->
<g id="edge15" class="edge"><title>Node1&#45;&gt;Node9</title>
<path fill="none" stroke="midnightblue" d="M353.219,-220.638C377.99,-210.504 412.4,-196.427 434.182,-187.516"/>
<polygon fill="midnightblue" stroke="midnightblue" points="351.846,-217.418 343.916,-224.444 354.497,-223.897 351.846,-217.418"/>
</g>
<!-- Node2&#45;&gt;Node3 -->
<g id="edge2" class="edge"><title>Node2&#45;&gt;Node3</title>
<path fill="none" stroke="midnightblue" d="M238.9,-163.177C256.956,-153.241 282.701,-140.149 301.062,-131.655"/>
<polygon fill="midnightblue" stroke="midnightblue" points="236.753,-160.369 229.755,-168.324 240.187,-166.469 236.753,-160.369"/>
</g>
<!-- Node4 -->
<g id="node4" class="node"><title>Node4</title>
<g id="a_node4"><a xlink:href="a00021.html" target="_top" xlink:title="Analog processing related callback handler definition. ">
<polygon fill="white" stroke="black" points="0,-56.5 0,-75.5 82,-75.5 82,-56.5 0,-56.5"/>
<text text-anchor="middle" x="41" y="-63.5" font-family="Helvetica,sans-Serif" font-size="10.00">isr_callbacks.h</text>
</a>
</g>
</g>
<!-- Node2&#45;&gt;Node4 -->
<g id="edge10" class="edge"><title>Node2&#45;&gt;Node4</title>
<path fill="none" stroke="midnightblue" d="M184.606,-175.578C149.263,-172.491 94.4389,-162.738 60,-132 42.9495,-116.782 35.8945,-89.3645 36.7631,-75.5085"/>
<polygon fill="midnightblue" stroke="midnightblue" points="184.674,-179.093 194.905,-176.338 185.19,-172.112 184.674,-179.093"/>
</g>
<!-- Node2&#45;&gt;Node5 -->
<g id="edge11" class="edge"><title>Node2&#45;&gt;Node5</title>
<path fill="none" stroke="midnightblue" d="M224.254,-158.906C226.909,-150.756 229.875,-140.968 232,-132 241.87,-90.3568 248.57,-39.5135 250.994,-19.589"/>
<polygon fill="midnightblue" stroke="midnightblue" points="220.908,-157.877 221.04,-168.471 227.543,-160.107 220.908,-157.877"/>
</g>
<!-- Node7 -->
<g id="node7" class="node"><title>Node7</title>
<g id="a_node7"><a xlink:href="a00022.html" target="_top" xlink:title="Main source implementation (29&#45;04&#45;2015) ">
<polygon fill="white" stroke="black" points="78,-112.5 78,-131.5 124,-131.5 124,-112.5 78,-112.5"/>
<text text-anchor="middle" x="101" y="-119.5" font-family="Helvetica,sans-Serif" font-size="10.00">main.c</text>
</a>
</g>
</g>
<!-- Node2&#45;&gt;Node7 -->
<g id="edge12" class="edge"><title>Node2&#45;&gt;Node7</title>
<path fill="none" stroke="midnightblue" d="M190.336,-164.232C168.451,-154.131 138.503,-140.309 119.452,-131.516"/>
<polygon fill="midnightblue" stroke="midnightblue" points="188.915,-167.431 199.461,-168.444 191.848,-161.075 188.915,-167.431"/>
</g>
<!-- Node8 -->
<g id="node8" class="node"><title>Node8</title>
<g id="a_node8"><a xlink:href="a00047.html" target="_top" xlink:title="stm32f4xx_it.c">
<polygon fill="white" stroke="black" points="142.5,-112.5 142.5,-131.5 223.5,-131.5 223.5,-112.5 142.5,-112.5"/>
<text text-anchor="middle" x="183" y="-119.5" font-family="Helvetica,sans-Serif" font-size="10.00">stm32f4xx_it.c</text>
</a>
</g>
</g>
<!-- Node2&#45;&gt;Node8 -->
<g id="edge13" class="edge"><title>Node2&#45;&gt;Node8</title>
<path fill="none" stroke="midnightblue" d="M206.7,-159.566C200.678,-150.275 193.531,-139.248 188.672,-131.751"/>
<polygon fill="midnightblue" stroke="midnightblue" points="203.844,-161.595 212.22,-168.083 209.719,-157.788 203.844,-161.595"/>
</g>
<!-- Node3&#45;&gt;Node1 -->
<g id="edge3" class="edge"><title>Node3&#45;&gt;Node1</title>
<path fill="none" stroke="midnightblue" d="M328.211,-141.597C330.647,-165.666 330.191,-206.617 326.843,-224.368"/>
<polygon fill="midnightblue" stroke="midnightblue" points="331.665,-141.022 326.835,-131.591 324.73,-141.975 331.665,-141.022"/>
</g>
<!-- Node3&#45;&gt;Node2 -->
<g id="edge4" class="edge"><title>Node3&#45;&gt;Node2</title>
<path fill="none" stroke="midnightblue" d="M302.354,-136.683C284.217,-146.675 258.187,-159.912 239.726,-168.444"/>
<polygon fill="midnightblue" stroke="midnightblue" points="304.527,-139.476 311.52,-131.516 301.09,-133.378 304.527,-139.476"/>
</g>
<!-- Node3&#45;&gt;Node4 -->
<g id="edge5" class="edge"><title>Node3&#45;&gt;Node4</title>
<path fill="none" stroke="midnightblue" d="M269.716,-110.797C215.284,-100.374 131.919,-84.41 82.2954,-74.9076"/>
<polygon fill="midnightblue" stroke="midnightblue" points="269.383,-114.297 279.863,-112.74 270.7,-107.421 269.383,-114.297"/>
</g>
<!-- Node6 -->
<g id="node6" class="node"><title>Node6</title>
<g id="a_node6"><a xlink:href="a00013.html" target="_top" xlink:title="adc_dac_dma.c">
<polygon fill="white" stroke="black" points="280,-56.5 280,-75.5 366,-75.5 366,-56.5 280,-56.5"/>
<text text-anchor="middle" x="323" y="-63.5" font-family="Helvetica,sans-Serif" font-size="10.00">adc_dac_dma.c</text>
</a>
</g>
</g>
<!-- Node3&#45;&gt;Node6 -->
<g id="edge9" class="edge"><title>Node3&#45;&gt;Node6</title>
<path fill="none" stroke="midnightblue" d="M323,-101.805C323,-92.9102 323,-82.7798 323,-75.7511"/>
<polygon fill="midnightblue" stroke="midnightblue" points="319.5,-102.083 323,-112.083 326.5,-102.083 319.5,-102.083"/>
</g>
<!-- Node4&#45;&gt;Node1 -->
<g id="edge7" class="edge"><title>Node4&#45;&gt;Node1</title>
<path fill="none" stroke="midnightblue" d="M39.2484,-85.6616C38.9269,-99.8011 40.7696,-118.957 51,-132 110.222,-207.506 231.924,-226.566 290.324,-231.377"/>
<polygon fill="midnightblue" stroke="midnightblue" points="42.7462,-85.8016 39.8514,-75.61 35.7588,-85.3824 42.7462,-85.8016"/>
</g>
<!-- Node4&#45;&gt;Node2 -->
<g id="edge6" class="edge"><title>Node4&#45;&gt;Node2</title>
<path fill="none" stroke="midnightblue" d="M51.5791,-84.9873C57.0316,-99.609 64.2797,-119.754 78,-132 111.566,-161.959 164.498,-171.983 194.931,-175.331"/>
<polygon fill="midnightblue" stroke="midnightblue" points="54.7705,-83.5387 47.8592,-75.5085 48.2543,-86.096 54.7705,-83.5387"/>
</g>
<!-- Node4&#45;&gt;Node5 -->
<g id="edge8" class="edge"><title>Node4&#45;&gt;Node5</title>
<path fill="none" stroke="midnightblue" d="M84.1419,-53.959C123.994,-43.7598 182.363,-28.8217 218.723,-19.5164"/>
<polygon fill="midnightblue" stroke="midnightblue" points="83.2536,-50.5734 74.4336,-56.4435 84.9891,-57.3549 83.2536,-50.5734"/>
</g>
</g>
</svg>
