<?xml version="1.0" encoding="UTF-8" standalone="no"?>
<!DOCTYPE svg PUBLIC "-//W3C//DTD SVG 1.1//EN"
 "http://www.w3.org/Graphics/SVG/1.1/DTD/svg11.dtd">
<!-- Generated by graphviz version 2.38.0 (20140413.2041)
 -->
<!-- Title: md_stm32f4_gpio.h Pages: 1 -->
<svg width="837pt" height="420pt"
 viewBox="0.00 0.00 836.50 420.00" xmlns="http://www.w3.org/2000/svg" xmlns:xlink="http://www.w3.org/1999/xlink">
<g id="graph0" class="graph" transform="scale(1 1) rotate(0) translate(4 416)">
<title>md_stm32f4_gpio.h</title>
<polygon fill="white" stroke="none" points="-4,4 -4,-416 832.5,-416 832.5,4 -4,4"/>
<!-- Node1 -->
<g id="node1" class="node"><title>Node1</title>
<polygon fill="#bfbfbf" stroke="black" points="523,-392.5 523,-411.5 625,-411.5 625,-392.5 523,-392.5"/>
<text text-anchor="middle" x="574" y="-399.5" font-family="Helvetica,sans-Serif" font-size="10.00">md_stm32f4_gpio.h</text>
</g>
<!-- Node2 -->
<g id="node2" class="node"><title>Node2</title>
<g id="a_node2"><a xlink:href="a00026.html" target="_top" xlink:title="Project XA&#45;Galvo scanner specific digital to analog converter methods. ">
<polygon fill="white" stroke="black" points="224,-336.5 224,-355.5 324,-355.5 324,-336.5 224,-336.5"/>
<text text-anchor="middle" x="274" y="-343.5" font-family="Helvetica,sans-Serif" font-size="10.00">md_stm32f4_dac.h</text>
</a>
</g>
</g>
<!-- Node1&#45;&gt;Node2 -->
<g id="edge1" class="edge"><title>Node1&#45;&gt;Node2</title>
<path fill="none" stroke="midnightblue" d="M516.579,-390.664C459.884,-380.459 374.214,-365.039 321.313,-355.516"/>
<polygon fill="midnightblue" stroke="midnightblue" points="516.002,-394.117 526.464,-392.444 517.242,-387.227 516.002,-394.117"/>
</g>
<!-- Node17 -->
<g id="node17" class="node"><title>Node17</title>
<g id="a_node17"><a xlink:href="a00032.html" target="_top" xlink:title="Definitions to extend board support for STM32F429i&#45;DISCO and equivalent boards. ">
<polygon fill="white" stroke="black" points="721.5,-280.5 721.5,-299.5 828.5,-299.5 828.5,-280.5 721.5,-280.5"/>
<text text-anchor="middle" x="775" y="-287.5" font-family="Helvetica,sans-Serif" font-size="10.00">md_stm32f4_disco.h</text>
</a>
</g>
</g>
<!-- Node1&#45;&gt;Node17 -->
<g id="edge24" class="edge"><title>Node1&#45;&gt;Node17</title>
<path fill="none" stroke="midnightblue" d="M593.934,-386.496C613.508,-372.6 644.494,-351.508 673,-336 699.523,-321.571 731.598,-308.017 752.609,-299.63"/>
<polygon fill="midnightblue" stroke="midnightblue" points="591.884,-383.659 585.794,-392.329 595.961,-389.35 591.884,-383.659"/>
</g>
<!-- Node19 -->
<g id="node19" class="node"><title>Node19</title>
<g id="a_node19"><a xlink:href="a00033.html" target="_top" xlink:title="md_stm32f4_gpio.c">
<polygon fill="white" stroke="black" points="682,-336.5 682,-355.5 784,-355.5 784,-336.5 682,-336.5"/>
<text text-anchor="middle" x="733" y="-343.5" font-family="Helvetica,sans-Serif" font-size="10.00">md_stm32f4_gpio.c</text>
</a>
</g>
</g>
<!-- Node1&#45;&gt;Node19 -->
<g id="edge28" class="edge"><title>Node1&#45;&gt;Node19</title>
<path fill="none" stroke="midnightblue" d="M608.827,-389.172C638.766,-379.004 681.221,-364.585 707.924,-355.516"/>
<polygon fill="midnightblue" stroke="midnightblue" points="607.537,-385.914 599.194,-392.444 609.788,-392.542 607.537,-385.914"/>
</g>
<!-- Node20 -->
<g id="node20" class="node"><title>Node20</title>
<g id="a_node20"><a xlink:href="a00056_source.html" target="_top" xlink:title="tm_stm32f4_pwm.h">
<polygon fill="white" stroke="black" points="522.5,-336.5 522.5,-355.5 625.5,-355.5 625.5,-336.5 522.5,-336.5"/>
<text text-anchor="middle" x="574" y="-343.5" font-family="Helvetica,sans-Serif" font-size="10.00">tm_stm32f4_pwm.h</text>
</a>
</g>
</g>
<!-- Node1&#45;&gt;Node20 -->
<g id="edge29" class="edge"><title>Node1&#45;&gt;Node20</title>
<path fill="none" stroke="midnightblue" d="M574,-381.805C574,-372.91 574,-362.78 574,-355.751"/>
<polygon fill="midnightblue" stroke="midnightblue" points="570.5,-382.083 574,-392.083 577.5,-382.083 570.5,-382.083"/>
</g>
<!-- Node22 -->
<g id="node22" class="node"><title>Node22</title>
<g id="a_node22"><a xlink:href="a00060_source.html" target="_top" xlink:title="tm_stm32f4_usart.h">
<polygon fill="white" stroke="black" points="400,-336.5 400,-355.5 504,-355.5 504,-336.5 400,-336.5"/>
<text text-anchor="middle" x="452" y="-343.5" font-family="Helvetica,sans-Serif" font-size="10.00">tm_stm32f4_usart.h</text>
</a>
</g>
</g>
<!-- Node1&#45;&gt;Node22 -->
<g id="edge32" class="edge"><title>Node1&#45;&gt;Node22</title>
<path fill="none" stroke="midnightblue" d="M545.461,-388.368C522.614,-378.255 491.195,-364.349 471.241,-355.516"/>
<polygon fill="midnightblue" stroke="midnightblue" points="544.108,-391.597 554.669,-392.444 546.941,-385.196 544.108,-391.597"/>
</g>
<!-- Node3 -->
<g id="node3" class="node"><title>Node3</title>
<g id="a_node3"><a xlink:href="a00025.html" target="_top" xlink:title="md_stm32f4_dac.c">
<polygon fill="white" stroke="black" points="284,-280.5 284,-299.5 384,-299.5 384,-280.5 284,-280.5"/>
<text text-anchor="middle" x="334" y="-287.5" font-family="Helvetica,sans-Serif" font-size="10.00">md_stm32f4_dac.c</text>
</a>
</g>
</g>
<!-- Node2&#45;&gt;Node3 -->
<g id="edge2" class="edge"><title>Node2&#45;&gt;Node3</title>
<path fill="none" stroke="midnightblue" d="M291.181,-329.537C301.879,-319.909 315.256,-307.869 324.185,-299.834"/>
<polygon fill="midnightblue" stroke="midnightblue" points="288.732,-327.033 283.64,-336.324 293.414,-332.236 288.732,-327.033"/>
</g>
<!-- Node4 -->
<g id="node4" class="node"><title>Node4</title>
<g id="a_node4"><a xlink:href="a00028.html" target="_top" xlink:title="Waveform generation extension for DAC library. ">
<polygon fill="white" stroke="black" points="0,-280.5 0,-299.5 148,-299.5 148,-280.5 0,-280.5"/>
<text text-anchor="middle" x="74" y="-287.5" font-family="Helvetica,sans-Serif" font-size="10.00">md_stm32f4_dac_waveform.h</text>
</a>
</g>
</g>
<!-- Node2&#45;&gt;Node4 -->
<g id="edge3" class="edge"><title>Node2&#45;&gt;Node4</title>
<path fill="none" stroke="midnightblue" d="M232.626,-333.829C194.864,-323.633 139.86,-308.782 105.542,-299.516"/>
<polygon fill="midnightblue" stroke="midnightblue" points="231.743,-337.216 242.309,-336.444 233.567,-330.458 231.743,-337.216"/>
</g>
<!-- Node6 -->
<g id="node6" class="node"><title>Node6</title>
<g id="a_node6"><a xlink:href="a00043.html" target="_top" xlink:title="Provides initialization methods to configure analog subsystems and DMA controller. ">
<polygon fill="white" stroke="black" points="166.5,-280.5 166.5,-299.5 265.5,-299.5 265.5,-280.5 166.5,-280.5"/>
<text text-anchor="middle" x="216" y="-287.5" font-family="Helvetica,sans-Serif" font-size="10.00">periph2dma_conf.h</text>
</a>
</g>
</g>
<!-- Node2&#45;&gt;Node6 -->
<g id="edge5" class="edge"><title>Node2&#45;&gt;Node6</title>
<path fill="none" stroke="midnightblue" d="M257.087,-329.253C246.797,-319.673 234.034,-307.791 225.488,-299.834"/>
<polygon fill="midnightblue" stroke="midnightblue" points="254.977,-332.071 264.681,-336.324 259.747,-326.948 254.977,-332.071"/>
</g>
<!-- Node5 -->
<g id="node5" class="node"><title>Node5</title>
<g id="a_node5"><a xlink:href="a00027_source.html" target="_top" xlink:title="md_stm32f4_dac_waveform.c">
<polygon fill="white" stroke="black" points="0,-224.5 0,-243.5 148,-243.5 148,-224.5 0,-224.5"/>
<text text-anchor="middle" x="74" y="-231.5" font-family="Helvetica,sans-Serif" font-size="10.00">md_stm32f4_dac_waveform.c</text>
</a>
</g>
</g>
<!-- Node4&#45;&gt;Node5 -->
<g id="edge4" class="edge"><title>Node4&#45;&gt;Node5</title>
<path fill="none" stroke="midnightblue" d="M74,-269.805C74,-260.91 74,-250.78 74,-243.751"/>
<polygon fill="midnightblue" stroke="midnightblue" points="70.5001,-270.083 74,-280.083 77.5001,-270.083 70.5001,-270.083"/>
</g>
<!-- Node7 -->
<g id="node7" class="node"><title>Node7</title>
<g id="a_node7"><a xlink:href="a00024.html" target="_top" xlink:title="Main header definition. ">
<polygon fill="white" stroke="black" points="526,-224.5 526,-243.5 572,-243.5 572,-224.5 526,-224.5"/>
<text text-anchor="middle" x="549" y="-231.5" font-family="Helvetica,sans-Serif" font-size="10.00">main.h</text>
</a>
</g>
</g>
<!-- Node6&#45;&gt;Node7 -->
<g id="edge6" class="edge"><title>Node6&#45;&gt;Node7</title>
<path fill="none" stroke="midnightblue" d="M276.06,-279.261C350.8,-267.141 474.81,-247.031 525.907,-238.745"/>
<polygon fill="midnightblue" stroke="midnightblue" points="275.164,-275.86 265.853,-280.916 276.285,-282.77 275.164,-275.86"/>
</g>
<!-- Node16 -->
<g id="node16" class="node"><title>Node16</title>
<g id="a_node16"><a xlink:href="a00042.html" target="_top" xlink:title="periph2dma_conf.c">
<polygon fill="white" stroke="black" points="166.5,-224.5 166.5,-243.5 265.5,-243.5 265.5,-224.5 166.5,-224.5"/>
<text text-anchor="middle" x="216" y="-231.5" font-family="Helvetica,sans-Serif" font-size="10.00">periph2dma_conf.c</text>
</a>
</g>
</g>
<!-- Node6&#45;&gt;Node16 -->
<g id="edge23" class="edge"><title>Node6&#45;&gt;Node16</title>
<path fill="none" stroke="midnightblue" d="M216,-269.805C216,-260.91 216,-250.78 216,-243.751"/>
<polygon fill="midnightblue" stroke="midnightblue" points="212.5,-270.083 216,-280.083 219.5,-270.083 212.5,-270.083"/>
</g>
<!-- Node8 -->
<g id="node8" class="node"><title>Node8</title>
<g id="a_node8"><a xlink:href="a00013.html" target="_top" xlink:title="Provides DMA related configuration and access functions for ADC and DAC. ">
<polygon fill="white" stroke="black" points="426,-168.5 426,-187.5 512,-187.5 512,-168.5 426,-168.5"/>
<text text-anchor="middle" x="469" y="-175.5" font-family="Helvetica,sans-Serif" font-size="10.00">adc_dac_dma.h</text>
</a>
</g>
</g>
<!-- Node7&#45;&gt;Node8 -->
<g id="edge7" class="edge"><title>Node7&#45;&gt;Node8</title>
<path fill="none" stroke="midnightblue" d="M522.155,-218.935C506.361,-209.099 487.632,-196.263 476.939,-187.834"/>
<polygon fill="midnightblue" stroke="midnightblue" points="520.667,-222.126 531.032,-224.324 524.3,-216.143 520.667,-222.126"/>
</g>
<!-- Node11 -->
<g id="node11" class="node"><title>Node11</title>
<g id="a_node11"><a xlink:href="a00021.html" target="_top" xlink:title="Callback handler implementations. ">
<polygon fill="white" stroke="black" points="685,-0.5 685,-19.5 767,-19.5 767,-0.5 685,-0.5"/>
<text text-anchor="middle" x="726" y="-7.5" font-family="Helvetica,sans-Serif" font-size="10.00">irq_callbacks.c</text>
</a>
</g>
</g>
<!-- Node7&#45;&gt;Node11 -->
<g id="edge20" class="edge"><title>Node7&#45;&gt;Node11</title>
<path fill="none" stroke="midnightblue" d="M582.338,-230.037C631.752,-224.878 720.692,-212.386 740,-188 780.949,-136.283 743.653,-47.3441 730.313,-19.5532"/>
<polygon fill="midnightblue" stroke="midnightblue" points="581.745,-226.579 572.142,-231.056 582.441,-233.545 581.745,-226.579"/>
</g>
<!-- Node12 -->
<g id="node12" class="node"><title>Node12</title>
<g id="a_node12"><a xlink:href="a00022.html" target="_top" xlink:title="Analog processing related callback handler definition. ">
<polygon fill="white" stroke="black" points="586,-112.5 586,-131.5 668,-131.5 668,-112.5 586,-112.5"/>
<text text-anchor="middle" x="627" y="-119.5" font-family="Helvetica,sans-Serif" font-size="10.00">irq_callbacks.h</text>
</a>
</g>
</g>
<!-- Node7&#45;&gt;Node12 -->
<g id="edge19" class="edge"><title>Node7&#45;&gt;Node12</title>
<path fill="none" stroke="midnightblue" d="M547.185,-214.298C550.306,-200.674 557.815,-182.195 568,-168 578.553,-153.292 594.656,-139.898 607.718,-131.618"/>
<polygon fill="midnightblue" stroke="midnightblue" points="543.692,-213.985 545.632,-224.401 550.611,-215.049 543.692,-213.985"/>
</g>
<!-- Node14 -->
<g id="node14" class="node"><title>Node14</title>
<g id="a_node14"><a xlink:href="a00023.html" target="_top" xlink:title="Main source implementation (29&#45;04&#45;2015) ">
<polygon fill="white" stroke="black" points="586,-168.5 586,-187.5 632,-187.5 632,-168.5 586,-168.5"/>
<text text-anchor="middle" x="609" y="-175.5" font-family="Helvetica,sans-Serif" font-size="10.00">main.c</text>
</a>
</g>
</g>
<!-- Node7&#45;&gt;Node14 -->
<g id="edge21" class="edge"><title>Node7&#45;&gt;Node14</title>
<path fill="none" stroke="midnightblue" d="M566.181,-217.537C576.879,-207.909 590.256,-195.869 599.185,-187.834"/>
<polygon fill="midnightblue" stroke="midnightblue" points="563.732,-215.033 558.64,-224.324 568.414,-220.236 563.732,-215.033"/>
</g>
<!-- Node15 -->
<g id="node15" class="node"><title>Node15</title>
<g id="a_node15"><a xlink:href="a00050.html" target="_top" xlink:title="stm32f4xx_it.c">
<polygon fill="white" stroke="black" points="650.5,-168.5 650.5,-187.5 731.5,-187.5 731.5,-168.5 650.5,-168.5"/>
<text text-anchor="middle" x="691" y="-175.5" font-family="Helvetica,sans-Serif" font-size="10.00">stm32f4xx_it.c</text>
</a>
</g>
</g>
<!-- Node7&#45;&gt;Node15 -->
<g id="edge22" class="edge"><title>Node7&#45;&gt;Node15</title>
<path fill="none" stroke="midnightblue" d="M581.155,-220.772C607.828,-210.629 645.069,-196.467 668.605,-187.516"/>
<polygon fill="midnightblue" stroke="midnightblue" points="579.603,-217.618 571.5,-224.444 582.091,-224.16 579.603,-217.618"/>
</g>
<!-- Node8&#45;&gt;Node7 -->
<g id="edge13" class="edge"><title>Node8&#45;&gt;Node7</title>
<path fill="none" stroke="midnightblue" d="M495.86,-193.074C511.749,-202.971 530.606,-215.9 541.261,-224.324"/>
<polygon fill="midnightblue" stroke="midnightblue" points="497.296,-189.852 486.932,-187.655 493.664,-195.836 497.296,-189.852"/>
</g>
<!-- Node9 -->
<g id="node9" class="node"><title>Node9</title>
<g id="a_node9"><a xlink:href="a00011.html" target="_top" xlink:title="Controlling beam and primary actuators. ">
<polygon fill="white" stroke="black" points="412.5,-56.5 412.5,-75.5 477.5,-75.5 477.5,-56.5 412.5,-56.5"/>
<text text-anchor="middle" x="445" y="-63.5" font-family="Helvetica,sans-Serif" font-size="10.00">actuators.h</text>
</a>
</g>
</g>
<!-- Node8&#45;&gt;Node9 -->
<g id="edge8" class="edge"><title>Node8&#45;&gt;Node9</title>
<path fill="none" stroke="midnightblue" d="M459.819,-158.674C452.102,-134.625 443.554,-93.3881 443.039,-75.5914"/>
<polygon fill="midnightblue" stroke="midnightblue" points="456.62,-160.124 463.274,-168.368 463.213,-157.774 456.62,-160.124"/>
</g>
<!-- Node8&#45;&gt;Node12 -->
<g id="edge14" class="edge"><title>Node8&#45;&gt;Node12</title>
<path fill="none" stroke="midnightblue" d="M503.608,-165.172C533.359,-155.004 575.547,-140.585 602.082,-131.516"/>
<polygon fill="midnightblue" stroke="midnightblue" points="502.366,-161.898 494.036,-168.444 504.63,-168.521 502.366,-161.898"/>
</g>
<!-- Node13 -->
<g id="node13" class="node"><title>Node13</title>
<g id="a_node13"><a xlink:href="a00012.html" target="_top" xlink:title="adc_dac_dma.c">
<polygon fill="white" stroke="black" points="482,-112.5 482,-131.5 568,-131.5 568,-112.5 482,-112.5"/>
<text text-anchor="middle" x="525" y="-119.5" font-family="Helvetica,sans-Serif" font-size="10.00">adc_dac_dma.c</text>
</a>
</g>
</g>
<!-- Node8&#45;&gt;Node13 -->
<g id="edge18" class="edge"><title>Node8&#45;&gt;Node13</title>
<path fill="none" stroke="midnightblue" d="M485.33,-161.253C495.265,-151.673 507.588,-139.791 515.839,-131.834"/>
<polygon fill="midnightblue" stroke="midnightblue" points="482.766,-158.863 477.997,-168.324 487.625,-163.902 482.766,-158.863"/>
</g>
<!-- Node9&#45;&gt;Node7 -->
<g id="edge9" class="edge"><title>Node9&#45;&gt;Node7</title>
<path fill="none" stroke="midnightblue" d="M433.322,-83.9444C417.661,-108.974 394.302,-156.281 417,-188 441.869,-222.752 495.191,-230.975 525.912,-232.731"/>
<polygon fill="midnightblue" stroke="midnightblue" points="436.287,-85.8053 438.835,-75.5214 430.43,-81.9716 436.287,-85.8053"/>
</g>
<!-- Node9&#45;&gt;Node8 -->
<g id="edge10" class="edge"><title>Node9&#45;&gt;Node8</title>
<path fill="none" stroke="midnightblue" d="M454.164,-85.2717C461.879,-109.295 470.433,-150.537 470.96,-168.368"/>
<polygon fill="midnightblue" stroke="midnightblue" points="457.367,-83.8336 450.71,-75.5914 450.774,-86.1861 457.367,-83.8336"/>
</g>
<!-- Node10 -->
<g id="node10" class="node"><title>Node10</title>
<g id="a_node10"><a xlink:href="a00010.html" target="_top" xlink:title="Controlling beam and primary actuators. ">
<polygon fill="white" stroke="black" points="412.5,-0.5 412.5,-19.5 477.5,-19.5 477.5,-0.5 412.5,-0.5"/>
<text text-anchor="middle" x="445" y="-7.5" font-family="Helvetica,sans-Serif" font-size="10.00">actuators.c</text>
</a>
</g>
</g>
<!-- Node9&#45;&gt;Node10 -->
<g id="edge11" class="edge"><title>Node9&#45;&gt;Node10</title>
<path fill="none" stroke="midnightblue" d="M445,-45.8045C445,-36.9102 445,-26.7798 445,-19.7511"/>
<polygon fill="midnightblue" stroke="midnightblue" points="441.5,-46.083 445,-56.083 448.5,-46.083 441.5,-46.083"/>
</g>
<!-- Node9&#45;&gt;Node11 -->
<g id="edge12" class="edge"><title>Node9&#45;&gt;Node11</title>
<path fill="none" stroke="midnightblue" d="M487.336,-56.8643C540.701,-46.6092 631.831,-29.0966 684.701,-18.9365"/>
<polygon fill="midnightblue" stroke="midnightblue" points="486.669,-53.4284 477.509,-58.7528 487.99,-60.3026 486.669,-53.4284"/>
</g>
<!-- Node12&#45;&gt;Node7 -->
<g id="edge15" class="edge"><title>Node12&#45;&gt;Node7</title>
<path fill="none" stroke="midnightblue" d="M613.903,-138.635C605.037,-146.597 593.945,-156.926 586,-168 572.963,-186.17 564.311,-211.357 557.164,-224.401"/>
<polygon fill="midnightblue" stroke="midnightblue" points="616.439,-141.062 621.546,-131.779 611.765,-135.851 616.439,-141.062"/>
</g>
<!-- Node12&#45;&gt;Node9 -->
<g id="edge16" class="edge"><title>Node12&#45;&gt;Node9</title>
<path fill="none" stroke="midnightblue" d="M588.469,-109.568C554.136,-99.381 504.667,-84.7034 473.704,-75.5164"/>
<polygon fill="midnightblue" stroke="midnightblue" points="587.579,-112.954 598.162,-112.444 589.57,-106.244 587.579,-112.954"/>
</g>
<!-- Node12&#45;&gt;Node11 -->
<g id="edge17" class="edge"><title>Node12&#45;&gt;Node11</title>
<path fill="none" stroke="midnightblue" d="M641.493,-104.897C662.776,-81.2486 701.746,-37.9493 718.268,-19.5914"/>
<polygon fill="midnightblue" stroke="midnightblue" points="638.857,-102.594 634.768,-112.368 644.06,-107.277 638.857,-102.594"/>
</g>
<!-- Node17&#45;&gt;Node7 -->
<g id="edge26" class="edge"><title>Node17&#45;&gt;Node7</title>
<path fill="none" stroke="midnightblue" d="M729.441,-278.114C681.863,-266.746 609.132,-249.368 572.223,-240.549"/>
<polygon fill="midnightblue" stroke="midnightblue" points="728.65,-281.524 739.19,-280.444 730.277,-274.715 728.65,-281.524"/>
</g>
<!-- Node17&#45;&gt;Node11 -->
<g id="edge27" class="edge"><title>Node17&#45;&gt;Node11</title>
<path fill="none" stroke="midnightblue" d="M781.221,-270.765C788.032,-249.14 798,-211.88 798,-179 798,-179 798,-179 798,-121 798,-76.9489 757.077,-36.7974 736.935,-19.7031"/>
<polygon fill="midnightblue" stroke="midnightblue" points="777.888,-269.697 778.102,-280.289 784.54,-271.875 777.888,-269.697"/>
</g>
<!-- Node18 -->
<g id="node18" class="node"><title>Node18</title>
<g id="a_node18"><a xlink:href="a00031.html" target="_top" xlink:title="DESCRIPTION. ">
<polygon fill="white" stroke="black" points="662.5,-224.5 662.5,-243.5 769.5,-243.5 769.5,-224.5 662.5,-224.5"/>
<text text-anchor="middle" x="716" y="-231.5" font-family="Helvetica,sans-Serif" font-size="10.00">md_stm32f4_disco.c</text>
</a>
</g>
</g>
<!-- Node17&#45;&gt;Node18 -->
<g id="edge25" class="edge"><title>Node17&#45;&gt;Node18</title>
<path fill="none" stroke="midnightblue" d="M758.105,-273.537C747.585,-263.909 734.431,-251.869 725.652,-243.834"/>
<polygon fill="midnightblue" stroke="midnightblue" points="755.781,-276.154 765.521,-280.324 760.507,-270.99 755.781,-276.154"/>
</g>
<!-- Node20&#45;&gt;Node7 -->
<g id="edge31" class="edge"><title>Node20&#45;&gt;Node7</title>
<path fill="none" stroke="midnightblue" d="M569.761,-326.348C564.285,-302.254 554.979,-261.308 550.953,-243.591"/>
<polygon fill="midnightblue" stroke="midnightblue" points="566.409,-327.393 572.038,-336.368 573.235,-325.841 566.409,-327.393"/>
</g>
<!-- Node21 -->
<g id="node21" class="node"><title>Node21</title>
<g id="a_node21"><a xlink:href="a00055_source.html" target="_top" xlink:title="tm_stm32f4_pwm.c">
<polygon fill="white" stroke="black" points="600.5,-280.5 600.5,-299.5 703.5,-299.5 703.5,-280.5 600.5,-280.5"/>
<text text-anchor="middle" x="652" y="-287.5" font-family="Helvetica,sans-Serif" font-size="10.00">tm_stm32f4_pwm.c</text>
</a>
</g>
</g>
<!-- Node20&#45;&gt;Node21 -->
<g id="edge30" class="edge"><title>Node20&#45;&gt;Node21</title>
<path fill="none" stroke="midnightblue" d="M594.768,-330.622C609.017,-320.757 627.456,-307.992 639.499,-299.655"/>
<polygon fill="midnightblue" stroke="midnightblue" points="592.762,-327.754 586.532,-336.324 596.746,-333.51 592.762,-327.754"/>
</g>
<!-- Node22&#45;&gt;Node7 -->
<g id="edge34" class="edge"><title>Node22&#45;&gt;Node7</title>
<path fill="none" stroke="midnightblue" d="M438.861,-328.135C429.769,-314.262 420.956,-294.58 431,-280 452.27,-249.125 497.774,-239.419 525.647,-236.377"/>
<polygon fill="midnightblue" stroke="midnightblue" points="436.027,-330.189 444.681,-336.302 441.728,-326.127 436.027,-330.189"/>
</g>
<!-- Node23 -->
<g id="node23" class="node"><title>Node23</title>
<g id="a_node23"><a xlink:href="a00059_source.html" target="_top" xlink:title="tm_stm32f4_usart.c">
<polygon fill="white" stroke="black" points="440,-280.5 440,-299.5 544,-299.5 544,-280.5 440,-280.5"/>
<text text-anchor="middle" x="492" y="-287.5" font-family="Helvetica,sans-Serif" font-size="10.00">tm_stm32f4_usart.c</text>
</a>
</g>
</g>
<!-- Node22&#45;&gt;Node23 -->
<g id="edge33" class="edge"><title>Node22&#45;&gt;Node23</title>
<path fill="none" stroke="midnightblue" d="M464.7,-327.855C471.626,-318.505 479.906,-307.327 485.518,-299.751"/>
<polygon fill="midnightblue" stroke="midnightblue" points="461.745,-325.964 458.605,-336.083 467.37,-330.131 461.745,-325.964"/>
</g>
</g>
</svg>
