<?xml version="1.0" encoding="UTF-8" standalone="no"?>
<!DOCTYPE svg PUBLIC "-//W3C//DTD SVG 1.1//EN"
 "http://www.w3.org/Graphics/SVG/1.1/DTD/svg11.dtd">
<!-- Generated by graphviz version 2.38.0 (20140413.2041)
 -->
<!-- Title: HASH_DeInit Pages: 1 -->
<svg width="199pt" height="142pt"
 viewBox="0.00 0.00 199.00 142.00" xmlns="http://www.w3.org/2000/svg" xmlns:xlink="http://www.w3.org/1999/xlink">
<g id="graph0" class="graph" transform="scale(1 1) rotate(0) translate(4 138)">
<title>HASH_DeInit</title>
<polygon fill="white" stroke="none" points="-4,4 -4,-138 195,-138 195,4 -4,4"/>
<!-- Node1 -->
<g id="node1" class="node"><title>Node1</title>
<polygon fill="#bfbfbf" stroke="black" points="0,-57.5 0,-76.5 77,-76.5 77,-57.5 0,-57.5"/>
<text text-anchor="middle" x="38.5" y="-64.5" font-family="Helvetica,sans-Serif" font-size="10.00">HASH_DeInit</text>
</g>
<!-- Node2 -->
<g id="node2" class="node"><title>Node2</title>
<g id="a_node2"><a xlink:href="a01027.html#ga82a155884e458cc6b7c1a4565c1ac8e9" target="_top" xlink:title="Compute the HASH MD5 digest. ">
<polygon fill="white" stroke="black" points="116.5,-114.5 116.5,-133.5 187.5,-133.5 187.5,-114.5 116.5,-114.5"/>
<text text-anchor="middle" x="152" y="-121.5" font-family="Helvetica,sans-Serif" font-size="10.00">HASH_MD5</text>
</a>
</g>
</g>
<!-- Node1&#45;&gt;Node2 -->
<g id="edge1" class="edge"><title>Node1&#45;&gt;Node2</title>
<path fill="none" stroke="midnightblue" d="M66.8759,-81.2649C80.6845,-88.4319 97.7064,-97.2236 113,-105 119.049,-108.076 125.658,-111.395 131.643,-114.385"/>
<polygon fill="midnightblue" stroke="midnightblue" points="68.3776,-78.101 57.8903,-76.5953 65.1496,-84.3123 68.3776,-78.101"/>
</g>
<!-- Node3 -->
<g id="node3" class="node"><title>Node3</title>
<g id="a_node3"><a xlink:href="a01027.html#gac61733e7aa66bdd2f21be4b34165b5be" target="_top" xlink:title="Compute the HMAC MD5 digest. ">
<polygon fill="white" stroke="black" points="115.5,-76.5 115.5,-95.5 188.5,-95.5 188.5,-76.5 115.5,-76.5"/>
<text text-anchor="middle" x="152" y="-83.5" font-family="Helvetica,sans-Serif" font-size="10.00">HMAC_MD5</text>
</a>
</g>
</g>
<!-- Node1&#45;&gt;Node3 -->
<g id="edge2" class="edge"><title>Node1&#45;&gt;Node3</title>
<path fill="none" stroke="midnightblue" d="M87.2395,-75.135C96.6054,-76.731 106.279,-78.3794 115.174,-79.8952"/>
<polygon fill="midnightblue" stroke="midnightblue" points="87.6947,-71.6622 77.2488,-73.4325 86.5187,-78.5627 87.6947,-71.6622"/>
</g>
<!-- Node4 -->
<g id="node4" class="node"><title>Node4</title>
<g id="a_node4"><a xlink:href="a01028.html#ga2728c02c36de6d800e1ede56ea7789cb" target="_top" xlink:title="Compute the HASH SHA1 digest. ">
<polygon fill="white" stroke="black" points="113.5,-38.5 113.5,-57.5 190.5,-57.5 190.5,-38.5 113.5,-38.5"/>
<text text-anchor="middle" x="152" y="-45.5" font-family="Helvetica,sans-Serif" font-size="10.00">HASH_SHA1</text>
</a>
</g>
</g>
<!-- Node1&#45;&gt;Node4 -->
<g id="edge3" class="edge"><title>Node1&#45;&gt;Node4</title>
<path fill="none" stroke="midnightblue" d="M87.2826,-58.8577C95.9777,-57.376 104.937,-55.8494 113.29,-54.4259"/>
<polygon fill="midnightblue" stroke="midnightblue" points="86.5187,-55.4373 77.2488,-60.5675 87.6947,-62.3378 86.5187,-55.4373"/>
</g>
<!-- Node5 -->
<g id="node5" class="node"><title>Node5</title>
<g id="a_node5"><a xlink:href="a01028.html#ga2e38e900ca7838c1cea17cef19953a5e" target="_top" xlink:title="Compute the HMAC SHA1 digest. ">
<polygon fill="white" stroke="black" points="113,-0.5 113,-19.5 191,-19.5 191,-0.5 113,-0.5"/>
<text text-anchor="middle" x="152" y="-7.5" font-family="Helvetica,sans-Serif" font-size="10.00">HMAC_SHA1</text>
</a>
</g>
</g>
<!-- Node1&#45;&gt;Node5 -->
<g id="edge4" class="edge"><title>Node1&#45;&gt;Node5</title>
<path fill="none" stroke="midnightblue" d="M66.8759,-52.7351C80.6845,-45.5681 97.7064,-36.7764 113,-29 119.049,-25.9243 125.658,-22.6055 131.643,-19.6154"/>
<polygon fill="midnightblue" stroke="midnightblue" points="65.1496,-49.6877 57.8903,-57.4047 68.3776,-55.899 65.1496,-49.6877"/>
</g>
</g>
</svg>
