<?xml version="1.0" encoding="UTF-8" standalone="no"?>
<!DOCTYPE svg PUBLIC "-//W3C//DTD SVG 1.1//EN"
 "http://www.w3.org/Graphics/SVG/1.1/DTD/svg11.dtd">
<!-- Generated by graphviz version 2.38.0 (20140413.2041)
 -->
<!-- Title: pid_Init Pages: 1 -->
<svg width="172pt" height="66pt"
 viewBox="0.00 0.00 172.00 66.00" xmlns="http://www.w3.org/2000/svg" xmlns:xlink="http://www.w3.org/1999/xlink">
<g id="graph0" class="graph" transform="scale(1 1) rotate(0) translate(4 62)">
<title>pid_Init</title>
<polygon fill="white" stroke="none" points="-4,4 -4,-62 168,-62 168,4 -4,4"/>
<!-- Node1 -->
<g id="node1" class="node"><title>Node1</title>
<polygon fill="#bfbfbf" stroke="black" points="0,-19.5 0,-38.5 48,-38.5 48,-19.5 0,-19.5"/>
<text text-anchor="middle" x="24" y="-26.5" font-family="Helvetica,sans-Serif" font-size="10.00">pid_Init</text>
</g>
<!-- Node2 -->
<g id="node2" class="node"><title>Node2</title>
<g id="a_node2"><a xlink:href="a00135.html#gad15677de1d3cf94ee4105426e3d6efb1" target="_top" xlink:title="Initialiasation methode for double type PID instance. ">
<polygon fill="white" stroke="black" points="98.5,-38.5 98.5,-57.5 149.5,-57.5 149.5,-38.5 98.5,-38.5"/>
<text text-anchor="middle" x="124" y="-45.5" font-family="Helvetica,sans-Serif" font-size="10.00">fpid_Init</text>
</a>
</g>
</g>
<!-- Node1&#45;&gt;Node2 -->
<g id="edge1" class="edge"><title>Node1&#45;&gt;Node2</title>
<path fill="none" stroke="midnightblue" d="M48.2246,-33.5027C60.1047,-35.806 74.8107,-38.6572 88.0292,-41.22"/>
<polygon fill="midnightblue" stroke="midnightblue" points="87.7455,-44.73 98.2289,-43.1974 89.0779,-37.858 87.7455,-44.73"/>
</g>
<!-- Node3 -->
<g id="node3" class="node"><title>Node3</title>
<g id="a_node3"><a xlink:href="a00135.html#gafe1d17a0a7fb7bfa803938596f7a16fb" target="_top" xlink:title="Invoke integral type PID compensator calculation. ">
<polygon fill="white" stroke="black" points="84,-0.5 84,-19.5 164,-19.5 164,-0.5 84,-0.5"/>
<text text-anchor="middle" x="124" y="-7.5" font-family="Helvetica,sans-Serif" font-size="10.00">fpid_Controller</text>
</a>
</g>
</g>
<!-- Node1&#45;&gt;Node3 -->
<g id="edge2" class="edge"><title>Node1&#45;&gt;Node3</title>
<path fill="none" stroke="midnightblue" d="M48.2246,-24.4973C55.956,-22.9983 64.8843,-21.2673 73.8205,-19.5348"/>
<polygon fill="midnightblue" stroke="midnightblue" points="74.6987,-22.9298 83.8497,-17.5904 73.3663,-16.0578 74.6987,-22.9298"/>
</g>
</g>
</svg>
