<?xml version="1.0" encoding="UTF-8" standalone="no"?>
<!DOCTYPE svg PUBLIC "-//W3C//DTD SVG 1.1//EN"
 "http://www.w3.org/Graphics/SVG/1.1/DTD/svg11.dtd">
<!-- Generated by graphviz version 2.38.0 (20140413.2041)
 -->
<!-- Title: md_stm32f4_delay.h Pages: 1 -->
<svg width="260pt" height="84pt"
 viewBox="0.00 0.00 259.50 84.00" xmlns="http://www.w3.org/2000/svg" xmlns:xlink="http://www.w3.org/1999/xlink">
<g id="graph0" class="graph" transform="scale(1 1) rotate(0) translate(4 80)">
<title>md_stm32f4_delay.h</title>
<polygon fill="white" stroke="none" points="-4,4 -4,-80 255.5,-80 255.5,4 -4,4"/>
<!-- Node1 -->
<g id="node1" class="node"><title>Node1</title>
<polygon fill="#bfbfbf" stroke="black" points="80,-56.5 80,-75.5 187,-75.5 187,-56.5 80,-56.5"/>
<text text-anchor="middle" x="133.5" y="-63.5" font-family="Helvetica,sans-Serif" font-size="10.00">md_stm32f4_delay.h</text>
</g>
<!-- Node2 -->
<g id="node2" class="node"><title>Node2</title>
<polygon fill="white" stroke="#bfbfbf" points="0,-0.5 0,-19.5 71,-19.5 71,-0.5 0,-0.5"/>
<text text-anchor="middle" x="35.5" y="-7.5" font-family="Helvetica,sans-Serif" font-size="10.00">stm32f4xx.h</text>
</g>
<!-- Node1&#45;&gt;Node2 -->
<g id="edge1" class="edge"><title>Node1&#45;&gt;Node2</title>
<path fill="none" stroke="midnightblue" d="M117.755,-56.324C102.181,-47.7428 78.1227,-34.486 60.0407,-24.5224"/>
<polygon fill="midnightblue" stroke="midnightblue" points="61.6539,-21.4152 51.2063,-19.6545 58.2756,-27.546 61.6539,-21.4152"/>
</g>
<!-- Node3 -->
<g id="node3" class="node"><title>Node3</title>
<polygon fill="white" stroke="#bfbfbf" points="89,-0.5 89,-19.5 178,-19.5 178,-0.5 89,-0.5"/>
<text text-anchor="middle" x="133.5" y="-7.5" font-family="Helvetica,sans-Serif" font-size="10.00">stm32f4xx_rcc.h</text>
</g>
<!-- Node1&#45;&gt;Node3 -->
<g id="edge2" class="edge"><title>Node1&#45;&gt;Node3</title>
<path fill="none" stroke="midnightblue" d="M133.5,-56.083C133.5,-49.0059 133.5,-38.8611 133.5,-29.9865"/>
<polygon fill="midnightblue" stroke="midnightblue" points="137,-29.751 133.5,-19.7511 130,-29.7511 137,-29.751"/>
</g>
<!-- Node4 -->
<g id="node4" class="node"><title>Node4</title>
<g id="a_node4"><a xlink:href="a00018.html" target="_top" xlink:title="Global defines include file. ">
<polygon fill="white" stroke="black" points="195.5,-0.5 195.5,-19.5 251.5,-19.5 251.5,-0.5 195.5,-0.5"/>
<text text-anchor="middle" x="223.5" y="-7.5" font-family="Helvetica,sans-Serif" font-size="10.00">globals.h</text>
</a>
</g>
</g>
<!-- Node1&#45;&gt;Node4 -->
<g id="edge3" class="edge"><title>Node1&#45;&gt;Node4</title>
<path fill="none" stroke="midnightblue" d="M147.96,-56.324C162,-47.9002 183.548,-34.9709 200.043,-25.0741"/>
<polygon fill="midnightblue" stroke="midnightblue" points="202.302,-27.8007 209.076,-19.6545 198.7,-21.7983 202.302,-27.8007"/>
</g>
</g>
</svg>
