<?xml version="1.0" encoding="UTF-8" standalone="no"?>
<!DOCTYPE svg PUBLIC "-//W3C//DTD SVG 1.1//EN"
 "http://www.w3.org/Graphics/SVG/1.1/DTD/svg11.dtd">
<!-- Generated by graphviz version 2.38.0 (20140413.2041)
 -->
<!-- Title: RTC_Init Pages: 1 -->
<svg width="204pt" height="66pt"
 viewBox="0.00 0.00 204.00 66.00" xmlns="http://www.w3.org/2000/svg" xmlns:xlink="http://www.w3.org/1999/xlink">
<g id="graph0" class="graph" transform="scale(1 1) rotate(0) translate(4 62)">
<title>RTC_Init</title>
<polygon fill="white" stroke="none" points="-4,4 -4,-62 200,-62 200,4 -4,4"/>
<!-- Node1 -->
<g id="node1" class="node"><title>Node1</title>
<polygon fill="#bfbfbf" stroke="black" points="0,-19.5 0,-38.5 56,-38.5 56,-19.5 0,-19.5"/>
<text text-anchor="middle" x="28" y="-26.5" font-family="Helvetica,sans-Serif" font-size="10.00">RTC_Init</text>
</g>
<!-- Node2 -->
<g id="node2" class="node"><title>Node2</title>
<g id="a_node2"><a xlink:href="a01060.html#ga679f8883cbfb267a53ffb1ab4cc5c8c5" target="_top" xlink:title="Enters the RTC Initialization mode. ">
<polygon fill="white" stroke="black" points="92,-38.5 92,-57.5 196,-57.5 196,-38.5 92,-38.5"/>
<text text-anchor="middle" x="144" y="-45.5" font-family="Helvetica,sans-Serif" font-size="10.00">RTC_EnterInitMode</text>
</a>
</g>
</g>
<!-- Node1&#45;&gt;Node2 -->
<g id="edge1" class="edge"><title>Node1&#45;&gt;Node2</title>
<path fill="none" stroke="midnightblue" d="M56.0164,-33.5027C63.7663,-34.7944 72.5499,-36.2583 81.4824,-37.7471"/>
<polygon fill="midnightblue" stroke="midnightblue" points="81.1443,-41.2389 91.5837,-39.4306 82.2951,-34.3342 81.1443,-41.2389"/>
</g>
<!-- Node3 -->
<g id="node3" class="node"><title>Node3</title>
<g id="a_node3"><a xlink:href="a01060.html#ga87f86f3b794205f09a1eac51738d900f" target="_top" xlink:title="Exits the RTC Initialization mode. ">
<polygon fill="white" stroke="black" points="95,-0.5 95,-19.5 193,-19.5 193,-0.5 95,-0.5"/>
<text text-anchor="middle" x="144" y="-7.5" font-family="Helvetica,sans-Serif" font-size="10.00">RTC_ExitInitMode</text>
</a>
</g>
</g>
<!-- Node1&#45;&gt;Node3 -->
<g id="edge2" class="edge"><title>Node1&#45;&gt;Node3</title>
<path fill="none" stroke="midnightblue" d="M56.0164,-24.4973C64.7076,-23.0487 74.699,-21.3835 84.7424,-19.7096"/>
<polygon fill="midnightblue" stroke="midnightblue" points="85.4685,-23.1369 94.757,-18.0405 84.3177,-16.2322 85.4685,-23.1369"/>
</g>
</g>
</svg>
