<?xml version="1.0" encoding="UTF-8" standalone="no"?>
<!DOCTYPE svg PUBLIC "-//W3C//DTD SVG 1.1//EN"
 "http://www.w3.org/Graphics/SVG/1.1/DTD/svg11.dtd">
<!-- Generated by graphviz version 2.38.0 (20140413.2041)
 -->
<!-- Title: md_stm32f4_dac.h Pages: 1 -->
<svg width="676pt" height="364pt"
 viewBox="0.00 0.00 675.50 364.00" xmlns="http://www.w3.org/2000/svg" xmlns:xlink="http://www.w3.org/1999/xlink">
<g id="graph0" class="graph" transform="scale(1 1) rotate(0) translate(4 360)">
<title>md_stm32f4_dac.h</title>
<polygon fill="white" stroke="none" points="-4,4 -4,-360 671.5,-360 671.5,4 -4,4"/>
<!-- Node1 -->
<g id="node1" class="node"><title>Node1</title>
<polygon fill="#bfbfbf" stroke="black" points="142,-336.5 142,-355.5 242,-355.5 242,-336.5 142,-336.5"/>
<text text-anchor="middle" x="192" y="-343.5" font-family="Helvetica,sans-Serif" font-size="10.00">md_stm32f4_dac.h</text>
</g>
<!-- Node2 -->
<g id="node2" class="node"><title>Node2</title>
<g id="a_node2"><a xlink:href="a00025.html" target="_top" xlink:title="md_stm32f4_dac.c">
<polygon fill="white" stroke="black" points="0,-280.5 0,-299.5 100,-299.5 100,-280.5 0,-280.5"/>
<text text-anchor="middle" x="50" y="-287.5" font-family="Helvetica,sans-Serif" font-size="10.00">md_stm32f4_dac.c</text>
</a>
</g>
</g>
<!-- Node1&#45;&gt;Node2 -->
<g id="edge1" class="edge"><title>Node1&#45;&gt;Node2</title>
<path fill="none" stroke="midnightblue" d="M159.845,-332.772C133.172,-322.629 95.9314,-308.467 72.3951,-299.516"/>
<polygon fill="midnightblue" stroke="midnightblue" points="158.909,-336.16 169.5,-336.444 161.397,-329.618 158.909,-336.16"/>
</g>
<!-- Node3 -->
<g id="node3" class="node"><title>Node3</title>
<g id="a_node3"><a xlink:href="a00028.html" target="_top" xlink:title="Waveform generation extension for DAC library. ">
<polygon fill="white" stroke="black" points="118,-280.5 118,-299.5 266,-299.5 266,-280.5 118,-280.5"/>
<text text-anchor="middle" x="192" y="-287.5" font-family="Helvetica,sans-Serif" font-size="10.00">md_stm32f4_dac_waveform.h</text>
</a>
</g>
</g>
<!-- Node1&#45;&gt;Node3 -->
<g id="edge2" class="edge"><title>Node1&#45;&gt;Node3</title>
<path fill="none" stroke="midnightblue" d="M192,-325.805C192,-316.91 192,-306.78 192,-299.751"/>
<polygon fill="midnightblue" stroke="midnightblue" points="188.5,-326.083 192,-336.083 195.5,-326.083 188.5,-326.083"/>
</g>
<!-- Node5 -->
<g id="node5" class="node"><title>Node5</title>
<g id="a_node5"><a xlink:href="a00043.html" target="_top" xlink:title="Provides initialization methods to configure analog subsystems and DMA controller. ">
<polygon fill="white" stroke="black" points="284.5,-280.5 284.5,-299.5 383.5,-299.5 383.5,-280.5 284.5,-280.5"/>
<text text-anchor="middle" x="334" y="-287.5" font-family="Helvetica,sans-Serif" font-size="10.00">periph2dma_conf.h</text>
</a>
</g>
</g>
<!-- Node1&#45;&gt;Node5 -->
<g id="edge4" class="edge"><title>Node1&#45;&gt;Node5</title>
<path fill="none" stroke="midnightblue" d="M224.155,-332.772C250.828,-322.629 288.069,-308.467 311.605,-299.516"/>
<polygon fill="midnightblue" stroke="midnightblue" points="222.603,-329.618 214.5,-336.444 225.091,-336.16 222.603,-329.618"/>
</g>
<!-- Node4 -->
<g id="node4" class="node"><title>Node4</title>
<g id="a_node4"><a xlink:href="a00027.html" target="_top" xlink:title="md_stm32f4_dac_waveform.c">
<polygon fill="white" stroke="black" points="118,-224.5 118,-243.5 266,-243.5 266,-224.5 118,-224.5"/>
<text text-anchor="middle" x="192" y="-231.5" font-family="Helvetica,sans-Serif" font-size="10.00">md_stm32f4_dac_waveform.c</text>
</a>
</g>
</g>
<!-- Node3&#45;&gt;Node4 -->
<g id="edge3" class="edge"><title>Node3&#45;&gt;Node4</title>
<path fill="none" stroke="midnightblue" d="M192,-269.805C192,-260.91 192,-250.78 192,-243.751"/>
<polygon fill="midnightblue" stroke="midnightblue" points="188.5,-270.083 192,-280.083 195.5,-270.083 188.5,-270.083"/>
</g>
<!-- Node6 -->
<g id="node6" class="node"><title>Node6</title>
<g id="a_node6"><a xlink:href="a00024.html" target="_top" xlink:title="Main header definition. ">
<polygon fill="white" stroke="black" points="402,-224.5 402,-243.5 448,-243.5 448,-224.5 402,-224.5"/>
<text text-anchor="middle" x="425" y="-231.5" font-family="Helvetica,sans-Serif" font-size="10.00">main.h</text>
</a>
</g>
</g>
<!-- Node5&#45;&gt;Node6 -->
<g id="edge5" class="edge"><title>Node5&#45;&gt;Node6</title>
<path fill="none" stroke="midnightblue" d="M357.294,-275.177C374.039,-265.241 396.1,-252.149 410.416,-243.655"/>
<polygon fill="midnightblue" stroke="midnightblue" points="355.434,-272.211 348.621,-280.324 359.007,-278.231 355.434,-272.211"/>
</g>
<!-- Node15 -->
<g id="node15" class="node"><title>Node15</title>
<g id="a_node15"><a xlink:href="a00042.html" target="_top" xlink:title="periph2dma_conf.c">
<polygon fill="white" stroke="black" points="284.5,-224.5 284.5,-243.5 383.5,-243.5 383.5,-224.5 284.5,-224.5"/>
<text text-anchor="middle" x="334" y="-231.5" font-family="Helvetica,sans-Serif" font-size="10.00">periph2dma_conf.c</text>
</a>
</g>
</g>
<!-- Node5&#45;&gt;Node15 -->
<g id="edge22" class="edge"><title>Node5&#45;&gt;Node15</title>
<path fill="none" stroke="midnightblue" d="M334,-269.805C334,-260.91 334,-250.78 334,-243.751"/>
<polygon fill="midnightblue" stroke="midnightblue" points="330.5,-270.083 334,-280.083 337.5,-270.083 330.5,-270.083"/>
</g>
<!-- Node7 -->
<g id="node7" class="node"><title>Node7</title>
<g id="a_node7"><a xlink:href="a00013.html" target="_top" xlink:title="Provides DMA related configuration and access functions for ADC and DAC. ">
<polygon fill="white" stroke="black" points="264,-168.5 264,-187.5 350,-187.5 350,-168.5 264,-168.5"/>
<text text-anchor="middle" x="307" y="-175.5" font-family="Helvetica,sans-Serif" font-size="10.00">adc_dac_dma.h</text>
</a>
</g>
</g>
<!-- Node6&#45;&gt;Node7 -->
<g id="edge6" class="edge"><title>Node6&#45;&gt;Node7</title>
<path fill="none" stroke="midnightblue" d="M392.476,-220.752C368.867,-210.64 338.288,-196.545 320.688,-187.597"/>
<polygon fill="midnightblue" stroke="midnightblue" points="391.211,-224.017 401.785,-224.681 393.933,-217.568 391.211,-224.017"/>
</g>
<!-- Node10 -->
<g id="node10" class="node"><title>Node10</title>
<g id="a_node10"><a xlink:href="a00021.html" target="_top" xlink:title="Callback handler implementations. ">
<polygon fill="white" stroke="black" points="393,-0.5 393,-19.5 475,-19.5 475,-0.5 393,-0.5"/>
<text text-anchor="middle" x="434" y="-7.5" font-family="Helvetica,sans-Serif" font-size="10.00">irq_callbacks.c</text>
</a>
</g>
</g>
<!-- Node6&#45;&gt;Node10 -->
<g id="edge19" class="edge"><title>Node6&#45;&gt;Node10</title>
<path fill="none" stroke="midnightblue" d="M436.712,-215.754C449.093,-196.374 467.804,-163.493 475,-132 484.881,-88.7542 454.299,-39.2274 440.446,-19.6288"/>
<polygon fill="midnightblue" stroke="midnightblue" points="433.632,-214.069 431.066,-224.349 439.482,-217.913 433.632,-214.069"/>
</g>
<!-- Node11 -->
<g id="node11" class="node"><title>Node11</title>
<g id="a_node11"><a xlink:href="a00022.html" target="_top" xlink:title="Analog processing related callback handler definition. ">
<polygon fill="white" stroke="black" points="384,-112.5 384,-131.5 466,-131.5 466,-112.5 384,-112.5"/>
<text text-anchor="middle" x="425" y="-119.5" font-family="Helvetica,sans-Serif" font-size="10.00">irq_callbacks.h</text>
</a>
</g>
</g>
<!-- Node6&#45;&gt;Node11 -->
<g id="edge18" class="edge"><title>Node6&#45;&gt;Node11</title>
<path fill="none" stroke="midnightblue" d="M419.784,-214.348C417.352,-190.254 417.812,-149.308 421.165,-131.591"/>
<polygon fill="midnightblue" stroke="midnightblue" points="416.332,-214.936 421.157,-224.368 423.267,-213.986 416.332,-214.936"/>
</g>
<!-- Node13 -->
<g id="node13" class="node"><title>Node13</title>
<g id="a_node13"><a xlink:href="a00023.html" target="_top" xlink:title="Main source implementation (29&#45;04&#45;2015) ">
<polygon fill="white" stroke="black" points="522,-168.5 522,-187.5 568,-187.5 568,-168.5 522,-168.5"/>
<text text-anchor="middle" x="545" y="-175.5" font-family="Helvetica,sans-Serif" font-size="10.00">main.c</text>
</a>
</g>
</g>
<!-- Node6&#45;&gt;Node13 -->
<g id="edge20" class="edge"><title>Node6&#45;&gt;Node13</title>
<path fill="none" stroke="midnightblue" d="M453.373,-220.232C475.82,-210.131 506.535,-196.309 526.075,-187.516"/>
<polygon fill="midnightblue" stroke="midnightblue" points="451.697,-217.148 444.014,-224.444 454.57,-223.532 451.697,-217.148"/>
</g>
<!-- Node14 -->
<g id="node14" class="node"><title>Node14</title>
<g id="a_node14"><a xlink:href="a00050.html" target="_top" xlink:title="stm32f4xx_it.c">
<polygon fill="white" stroke="black" points="586.5,-168.5 586.5,-187.5 667.5,-187.5 667.5,-168.5 586.5,-168.5"/>
<text text-anchor="middle" x="627" y="-175.5" font-family="Helvetica,sans-Serif" font-size="10.00">stm32f4xx_it.c</text>
</a>
</g>
</g>
<!-- Node6&#45;&gt;Node14 -->
<g id="edge21" class="edge"><title>Node6&#45;&gt;Node14</title>
<path fill="none" stroke="midnightblue" d="M458.205,-224.123C496.147,-213.98 557.802,-197.498 595.163,-187.511"/>
<polygon fill="midnightblue" stroke="midnightblue" points="456.929,-220.842 448.172,-226.806 458.737,-227.604 456.929,-220.842"/>
</g>
<!-- Node7&#45;&gt;Node6 -->
<g id="edge12" class="edge"><title>Node7&#45;&gt;Node6</title>
<path fill="none" stroke="midnightblue" d="M340.282,-191.573C363.714,-201.63 393.72,-215.467 411.156,-224.324"/>
<polygon fill="midnightblue" stroke="midnightblue" points="341.595,-188.328 331.022,-187.655 338.867,-194.775 341.595,-188.328"/>
</g>
<!-- Node8 -->
<g id="node8" class="node"><title>Node8</title>
<g id="a_node8"><a xlink:href="a00011.html" target="_top" xlink:title="Controlling beam and primary actuators. ">
<polygon fill="white" stroke="black" points="312.5,-56.5 312.5,-75.5 377.5,-75.5 377.5,-56.5 312.5,-56.5"/>
<text text-anchor="middle" x="345" y="-63.5" font-family="Helvetica,sans-Serif" font-size="10.00">actuators.h</text>
</a>
</g>
</g>
<!-- Node7&#45;&gt;Node8 -->
<g id="edge7" class="edge"><title>Node7&#45;&gt;Node8</title>
<path fill="none" stroke="midnightblue" d="M308.227,-158.348C314.119,-134.254 328.724,-93.3079 338.197,-75.5914"/>
<polygon fill="midnightblue" stroke="midnightblue" points="304.753,-157.865 306.139,-168.368 311.606,-159.293 304.753,-157.865"/>
</g>
<!-- Node7&#45;&gt;Node11 -->
<g id="edge13" class="edge"><title>Node7&#45;&gt;Node11</title>
<path fill="none" stroke="midnightblue" d="M334.9,-164.232C356.973,-154.131 387.176,-140.309 406.39,-131.516"/>
<polygon fill="midnightblue" stroke="midnightblue" points="333.334,-161.1 325.697,-168.444 336.247,-167.465 333.334,-161.1"/>
</g>
<!-- Node12 -->
<g id="node12" class="node"><title>Node12</title>
<g id="a_node12"><a xlink:href="a00012.html" target="_top" xlink:title="adc_dac_dma.c">
<polygon fill="white" stroke="black" points="186,-112.5 186,-131.5 272,-131.5 272,-112.5 186,-112.5"/>
<text text-anchor="middle" x="229" y="-119.5" font-family="Helvetica,sans-Serif" font-size="10.00">adc_dac_dma.c</text>
</a>
</g>
</g>
<!-- Node7&#45;&gt;Node12 -->
<g id="edge17" class="edge"><title>Node7&#45;&gt;Node12</title>
<path fill="none" stroke="midnightblue" d="M286.232,-162.622C271.983,-152.757 253.544,-139.992 241.501,-131.655"/>
<polygon fill="midnightblue" stroke="midnightblue" points="284.254,-165.51 294.468,-168.324 288.238,-159.754 284.254,-165.51"/>
</g>
<!-- Node8&#45;&gt;Node6 -->
<g id="edge8" class="edge"><title>Node8&#45;&gt;Node6</title>
<path fill="none" stroke="midnightblue" d="M353.215,-85.1471C359.172,-98.2179 367.469,-116.251 375,-132 391.459,-166.42 411.855,-207.005 420.64,-224.392"/>
<polygon fill="midnightblue" stroke="midnightblue" points="356.322,-83.5243 349,-75.8671 349.949,-86.4193 356.322,-83.5243"/>
</g>
<!-- Node8&#45;&gt;Node7 -->
<g id="edge9" class="edge"><title>Node8&#45;&gt;Node7</title>
<path fill="none" stroke="midnightblue" d="M343.786,-85.5974C337.908,-109.666 323.305,-150.617 313.825,-168.368"/>
<polygon fill="midnightblue" stroke="midnightblue" points="347.258,-86.0947 345.867,-75.5914 340.404,-84.669 347.258,-86.0947"/>
</g>
<!-- Node9 -->
<g id="node9" class="node"><title>Node9</title>
<g id="a_node9"><a xlink:href="a00010.html" target="_top" xlink:title="Controlling beam and primary actuators. ">
<polygon fill="white" stroke="black" points="309.5,-0.5 309.5,-19.5 374.5,-19.5 374.5,-0.5 309.5,-0.5"/>
<text text-anchor="middle" x="342" y="-7.5" font-family="Helvetica,sans-Serif" font-size="10.00">actuators.c</text>
</a>
</g>
</g>
<!-- Node8&#45;&gt;Node9 -->
<g id="edge10" class="edge"><title>Node8&#45;&gt;Node9</title>
<path fill="none" stroke="midnightblue" d="M343.934,-45.8045C343.439,-36.9102 342.877,-26.7798 342.486,-19.7511"/>
<polygon fill="midnightblue" stroke="midnightblue" points="340.455,-46.2926 344.505,-56.083 347.444,-45.9042 340.455,-46.2926"/>
</g>
<!-- Node8&#45;&gt;Node10 -->
<g id="edge11" class="edge"><title>Node8&#45;&gt;Node10</title>
<path fill="none" stroke="midnightblue" d="M368.238,-50.9005C384.558,-40.9986 405.865,-28.0705 419.736,-19.6545"/>
<polygon fill="midnightblue" stroke="midnightblue" points="366.033,-48.1444 359.299,-56.324 369.664,-54.1289 366.033,-48.1444"/>
</g>
<!-- Node11&#45;&gt;Node6 -->
<g id="edge14" class="edge"><title>Node11&#45;&gt;Node6</title>
<path fill="none" stroke="midnightblue" d="M430.211,-141.597C432.647,-165.666 432.191,-206.617 428.843,-224.368"/>
<polygon fill="midnightblue" stroke="midnightblue" points="433.665,-141.022 428.835,-131.591 426.73,-141.975 433.665,-141.022"/>
</g>
<!-- Node11&#45;&gt;Node8 -->
<g id="edge15" class="edge"><title>Node11&#45;&gt;Node8</title>
<path fill="none" stroke="midnightblue" d="M403.699,-106.622C389.085,-96.7574 370.173,-83.9919 357.821,-75.6545"/>
<polygon fill="midnightblue" stroke="midnightblue" points="401.9,-109.63 412.147,-112.324 405.816,-103.828 401.9,-109.63"/>
</g>
<!-- Node11&#45;&gt;Node10 -->
<g id="edge16" class="edge"><title>Node11&#45;&gt;Node10</title>
<path fill="none" stroke="midnightblue" d="M426.526,-102.348C428.497,-78.2538 431.848,-37.3079 433.297,-19.5914"/>
<polygon fill="midnightblue" stroke="midnightblue" points="423.033,-102.116 425.706,-112.368 430.01,-102.687 423.033,-102.116"/>
</g>
</g>
</svg>
