<?xml version="1.0" encoding="UTF-8" standalone="no"?>
<!DOCTYPE svg PUBLIC "-//W3C//DTD SVG 1.1//EN"
 "http://www.w3.org/Graphics/SVG/1.1/DTD/svg11.dtd">
<!-- Generated by graphviz version 2.38.0 (20140413.2041)
 -->
<!-- Title: MDB_GPIO_Switch Pages: 1 -->
<svg width="236pt" height="66pt"
 viewBox="0.00 0.00 236.00 66.00" xmlns="http://www.w3.org/2000/svg" xmlns:xlink="http://www.w3.org/1999/xlink">
<g id="graph0" class="graph" transform="scale(1 1) rotate(0) translate(4 62)">
<title>MDB_GPIO_Switch</title>
<polygon fill="white" stroke="none" points="-4,4 -4,-62 232,-62 232,4 -4,4"/>
<!-- Node1 -->
<g id="node1" class="node"><title>Node1</title>
<polygon fill="#bfbfbf" stroke="black" points="0,-19.5 0,-38.5 104,-38.5 104,-19.5 0,-19.5"/>
<text text-anchor="middle" x="52" y="-26.5" font-family="Helvetica,sans-Serif" font-size="10.00">MDB_GPIO_Switch</text>
</g>
<!-- Node2 -->
<g id="node2" class="node"><title>Node2</title>
<g id="a_node2"><a xlink:href="a00123.html#ga1de48ba66939a9726f7930fc6a1e653a" target="_top" xlink:title="MDB_GPIO_Off">
<polygon fill="white" stroke="black" points="140,-38.5 140,-57.5 228,-57.5 228,-38.5 140,-38.5"/>
<text text-anchor="middle" x="184" y="-45.5" font-family="Helvetica,sans-Serif" font-size="10.00">MDB_GPIO_Off</text>
</a>
</g>
</g>
<!-- Node1&#45;&gt;Node2 -->
<g id="edge1" class="edge"><title>Node1&#45;&gt;Node2</title>
<path fill="none" stroke="midnightblue" d="M104.006,-36.4548C112.401,-37.6817 121.123,-38.9564 129.575,-40.1917"/>
<polygon fill="midnightblue" stroke="midnightblue" points="129.309,-43.69 139.71,-41.6731 130.322,-36.7636 129.309,-43.69"/>
</g>
<!-- Node3 -->
<g id="node3" class="node"><title>Node3</title>
<g id="a_node3"><a xlink:href="a00123.html#ga9915de13874ce89948d7d860af7e28c8" target="_top" xlink:title="{ function_description } ">
<polygon fill="white" stroke="black" points="140.5,-0.5 140.5,-19.5 227.5,-19.5 227.5,-0.5 140.5,-0.5"/>
<text text-anchor="middle" x="184" y="-7.5" font-family="Helvetica,sans-Serif" font-size="10.00">MDB_GPIO_On</text>
</a>
</g>
</g>
<!-- Node1&#45;&gt;Node3 -->
<g id="edge2" class="edge"><title>Node1&#45;&gt;Node3</title>
<path fill="none" stroke="midnightblue" d="M104.006,-21.5452C112.596,-20.2899 121.527,-18.9845 130.162,-17.7225"/>
<polygon fill="midnightblue" stroke="midnightblue" points="130.735,-21.176 140.124,-16.2666 129.722,-14.2496 130.735,-21.176"/>
</g>
</g>
</svg>
