<?xml version="1.0" encoding="UTF-8" standalone="no"?>
<!DOCTYPE svg PUBLIC "-//W3C//DTD SVG 1.1//EN"
 "http://www.w3.org/Graphics/SVG/1.1/DTD/svg11.dtd">
<!-- Generated by graphviz version 2.38.0 (20140413.2041)
 -->
<!-- Title: actuators.c Pages: 1 -->
<svg width="1917pt" height="420pt"
 viewBox="0.00 0.00 1917.48 420.00" xmlns="http://www.w3.org/2000/svg" xmlns:xlink="http://www.w3.org/1999/xlink">
<g id="graph0" class="graph" transform="scale(1 1) rotate(0) translate(4 416)">
<title>actuators.c</title>
<polygon fill="white" stroke="none" points="-4,4 -4,-416 1913.48,-416 1913.48,4 -4,4"/>
<!-- Node1 -->
<g id="node1" class="node"><title>Node1</title>
<polygon fill="#bfbfbf" stroke="black" points="1660.98,-392.5 1660.98,-411.5 1725.98,-411.5 1725.98,-392.5 1660.98,-392.5"/>
<text text-anchor="middle" x="1693.48" y="-399.5" font-family="Helvetica,sans-Serif" font-size="10.00">actuators.c</text>
</g>
<!-- Node2 -->
<g id="node2" class="node"><title>Node2</title>
<g id="a_node2"><a xlink:href="a00012.html" target="_top" xlink:title="Controlling beam and primary actuators. ">
<polygon fill="white" stroke="black" points="1410.98,-336.5 1410.98,-355.5 1475.98,-355.5 1475.98,-336.5 1410.98,-336.5"/>
<text text-anchor="middle" x="1443.48" y="-343.5" font-family="Helvetica,sans-Serif" font-size="10.00">actuators.h</text>
</a>
</g>
</g>
<!-- Node1&#45;&gt;Node2 -->
<g id="edge1" class="edge"><title>Node1&#45;&gt;Node2</title>
<path fill="none" stroke="midnightblue" d="M1660.8,-393.94C1616.07,-384.279 1535.7,-366.92 1486.23,-356.235"/>
<polygon fill="midnightblue" stroke="midnightblue" points="1486.69,-352.752 1476.17,-354.061 1485.21,-359.594 1486.69,-352.752"/>
</g>
<!-- Node5 -->
<g id="node5" class="node"><title>Node5</title>
<g id="a_node5"><a xlink:href="a00019.html" target="_top" xlink:title="Global defines include file. ">
<polygon fill="white" stroke="black" points="1272.48,-56.5 1272.48,-75.5 1328.48,-75.5 1328.48,-56.5 1272.48,-56.5"/>
<text text-anchor="middle" x="1300.48" y="-63.5" font-family="Helvetica,sans-Serif" font-size="10.00">globals.h</text>
</a>
</g>
</g>
<!-- Node1&#45;&gt;Node5 -->
<g id="edge88" class="edge"><title>Node1&#45;&gt;Node5</title>
<path fill="none" stroke="midnightblue" d="M1726.29,-399.05C1786.71,-393.496 1909.48,-372.22 1909.48,-291 1909.48,-291 1909.48,-291 1909.48,-177 1909.48,-133.225 1875.76,-129.141 1835.48,-112 1745.84,-73.8531 1445.87,-68 1338.84,-67.1363"/>
<polygon fill="midnightblue" stroke="midnightblue" points="1338.82,-63.6362 1328.8,-67.0656 1338.77,-70.636 1338.82,-63.6362"/>
</g>
<!-- Node3 -->
<g id="node3" class="node"><title>Node3</title>
<polygon fill="white" stroke="#bfbfbf" points="1404.48,-112.5 1404.48,-131.5 1450.48,-131.5 1450.48,-112.5 1404.48,-112.5"/>
<text text-anchor="middle" x="1427.48" y="-119.5" font-family="Helvetica,sans-Serif" font-size="10.00">stdio.h</text>
</g>
<!-- Node2&#45;&gt;Node3 -->
<g id="edge2" class="edge"><title>Node2&#45;&gt;Node3</title>
<path fill="none" stroke="midnightblue" d="M1444.13,-336.46C1445.91,-310.788 1450.11,-232.128 1440.48,-168 1439.14,-159.054 1436.51,-149.385 1433.96,-141.31"/>
<polygon fill="midnightblue" stroke="midnightblue" points="1437.27,-140.181 1430.78,-131.81 1430.64,-142.404 1437.27,-140.181"/>
</g>
<!-- Node4 -->
<g id="node4" class="node"><title>Node4</title>
<g id="a_node4"><a xlink:href="a00014.html" target="_top" xlink:title="Provides DMA related configuration and access functions for ADC and DAC. ">
<polygon fill="white" stroke="black" points="1250.48,-280.5 1250.48,-299.5 1336.48,-299.5 1336.48,-280.5 1250.48,-280.5"/>
<text text-anchor="middle" x="1293.48" y="-287.5" font-family="Helvetica,sans-Serif" font-size="10.00">adc_dac_dma.h</text>
</a>
</g>
</g>
<!-- Node2&#45;&gt;Node4 -->
<g id="edge3" class="edge"><title>Node2&#45;&gt;Node4</title>
<path fill="none" stroke="midnightblue" d="M1414.62,-336.444C1387.75,-327.478 1348.19,-313.314 1321.57,-303.183"/>
<polygon fill="midnightblue" stroke="midnightblue" points="1322.65,-299.846 1312.06,-299.516 1320.13,-306.378 1322.65,-299.846"/>
</g>
<!-- Node2&#45;&gt;Node5 -->
<g id="edge83" class="edge"><title>Node2&#45;&gt;Node5</title>
<path fill="none" stroke="midnightblue" d="M1476.06,-342.828C1569.79,-335.693 1833.48,-309.043 1833.48,-235 1833.48,-235 1833.48,-235 1833.48,-177 1833.48,-146.775 1836.99,-131.003 1813.48,-112 1776.77,-82.323 1451.51,-70.9857 1338.76,-67.9258"/>
<polygon fill="midnightblue" stroke="midnightblue" points="1338.62,-64.421 1328.53,-67.6552 1338.43,-71.4185 1338.62,-64.421"/>
</g>
<!-- Node28 -->
<g id="node28" class="node"><title>Node28</title>
<g id="a_node28"><a xlink:href="a00023.html" target="_top" xlink:title="Analog processing related callback handler definition. ">
<polygon fill="white" stroke="black" points="1333.48,-168.5 1333.48,-187.5 1415.48,-187.5 1415.48,-168.5 1333.48,-168.5"/>
<text text-anchor="middle" x="1374.48" y="-175.5" font-family="Helvetica,sans-Serif" font-size="10.00">irq_callbacks.h</text>
</a>
</g>
</g>
<!-- Node2&#45;&gt;Node28 -->
<g id="edge84" class="edge"><title>Node2&#45;&gt;Node28</title>
<path fill="none" stroke="midnightblue" d="M1439.77,-336.075C1428.86,-309.832 1396.74,-232.545 1382.01,-197.117"/>
<polygon fill="midnightblue" stroke="midnightblue" points="1385.11,-195.459 1378.04,-187.568 1378.65,-198.146 1385.11,-195.459"/>
</g>
<!-- Node29 -->
<g id="node29" class="node"><title>Node29</title>
<g id="a_node29"><a xlink:href="a00042_source.html" target="_top" xlink:title="mdb_gpio.h">
<polygon fill="white" stroke="black" points="38.9807,-168.5 38.9807,-187.5 105.981,-187.5 105.981,-168.5 38.9807,-168.5"/>
<text text-anchor="middle" x="72.4807" y="-175.5" font-family="Helvetica,sans-Serif" font-size="10.00">mdb_gpio.h</text>
</a>
</g>
</g>
<!-- Node2&#45;&gt;Node29 -->
<g id="edge85" class="edge"><title>Node2&#45;&gt;Node29</title>
<path fill="none" stroke="midnightblue" d="M1410.59,-342.962C1281.67,-334.732 798.552,-301.593 404.481,-244 300.434,-228.794 179.54,-203.066 116.251,-188.97"/>
<polygon fill="midnightblue" stroke="midnightblue" points="116.752,-185.496 106.229,-186.728 115.224,-192.327 116.752,-185.496"/>
</g>
<!-- Node31 -->
<g id="node31" class="node"><title>Node31</title>
<g id="a_node31"><a xlink:href="a00048.html" target="_top" xlink:title="PID compensator implementation. ">
<polygon fill="white" stroke="black" points="1509.48,-168.5 1509.48,-187.5 1547.48,-187.5 1547.48,-168.5 1509.48,-168.5"/>
<text text-anchor="middle" x="1528.48" y="-175.5" font-family="Helvetica,sans-Serif" font-size="10.00">pid.h</text>
</a>
</g>
</g>
<!-- Node2&#45;&gt;Node31 -->
<g id="edge86" class="edge"><title>Node2&#45;&gt;Node31</title>
<path fill="none" stroke="midnightblue" d="M1457.47,-336.358C1469.29,-328.342 1485.81,-315.357 1495.48,-300 1515.81,-267.708 1523.77,-222.925 1526.77,-197.885"/>
<polygon fill="midnightblue" stroke="midnightblue" points="1530.29,-197.913 1527.85,-187.601 1523.32,-197.181 1530.29,-197.913"/>
</g>
<!-- Node34 -->
<g id="node34" class="node"><title>Node34</title>
<g id="a_node34"><a xlink:href="a00021.html" target="_top" xlink:title="Provides tools and helper functions. ">
<polygon fill="white" stroke="black" points="1603.98,-168.5 1603.98,-187.5 1654.98,-187.5 1654.98,-168.5 1603.98,-168.5"/>
<text text-anchor="middle" x="1629.48" y="-175.5" font-family="Helvetica,sans-Serif" font-size="10.00">helper.h</text>
</a>
</g>
</g>
<!-- Node2&#45;&gt;Node34 -->
<g id="edge87" class="edge"><title>Node2&#45;&gt;Node34</title>
<path fill="none" stroke="midnightblue" d="M1459.72,-336.44C1474.85,-328.102 1497.7,-314.582 1515.48,-300 1555.83,-266.91 1596.05,-220.208 1616.19,-195.624"/>
<polygon fill="midnightblue" stroke="midnightblue" points="1619.09,-197.606 1622.67,-187.634 1613.65,-193.198 1619.09,-197.606"/>
</g>
<!-- Node4&#45;&gt;Node2 -->
<g id="edge82" class="edge"><title>Node4&#45;&gt;Node2</title>
<path fill="none" stroke="midnightblue" d="M1322.22,-299.516C1349.05,-308.467 1388.62,-322.629 1415.27,-332.772"/>
<polygon fill="midnightblue" stroke="midnightblue" points="1414.21,-336.115 1424.8,-336.444 1416.73,-329.583 1414.21,-336.115"/>
</g>
<!-- Node4&#45;&gt;Node5 -->
<g id="edge4" class="edge"><title>Node4&#45;&gt;Node5</title>
<path fill="none" stroke="midnightblue" d="M1305.77,-280.465C1337.11,-258.584 1417.95,-201.272 1424.48,-188 1428.4,-180.023 1428.3,-176.028 1424.48,-168 1413.59,-145.078 1355.02,-103.388 1322.42,-81.4244"/>
<polygon fill="midnightblue" stroke="midnightblue" points="1324.23,-78.4279 1313.97,-75.7846 1320.35,-84.2491 1324.23,-78.4279"/>
</g>
<!-- Node6 -->
<g id="node6" class="node"><title>Node6</title>
<g id="a_node6"><a xlink:href="a00044.html" target="_top" xlink:title="Provides nested vector interrupt controller configuration methods. ">
<polygon fill="white" stroke="black" points="1040.48,-224.5 1040.48,-243.5 1114.48,-243.5 1114.48,-224.5 1040.48,-224.5"/>
<text text-anchor="middle" x="1077.48" y="-231.5" font-family="Helvetica,sans-Serif" font-size="10.00">nvic_config.h</text>
</a>
</g>
</g>
<!-- Node4&#45;&gt;Node6 -->
<g id="edge5" class="edge"><title>Node4&#45;&gt;Node6</title>
<path fill="none" stroke="midnightblue" d="M1259.25,-280.444C1221.97,-271.122 1162.21,-256.183 1121.47,-245.997"/>
<polygon fill="midnightblue" stroke="midnightblue" points="1122.1,-242.546 1111.55,-243.516 1120.4,-249.337 1122.1,-242.546"/>
</g>
<!-- Node8 -->
<g id="node8" class="node"><title>Node8</title>
<g id="a_node8"><a xlink:href="a00025.html" target="_top" xlink:title="Main header definition. ">
<polygon fill="white" stroke="black" points="1132.48,-224.5 1132.48,-243.5 1178.48,-243.5 1178.48,-224.5 1132.48,-224.5"/>
<text text-anchor="middle" x="1155.48" y="-231.5" font-family="Helvetica,sans-Serif" font-size="10.00">main.h</text>
</a>
</g>
</g>
<!-- Node4&#45;&gt;Node8 -->
<g id="edge7" class="edge"><title>Node4&#45;&gt;Node8</title>
<path fill="none" stroke="midnightblue" d="M1266.53,-280.444C1241.86,-271.557 1205.87,-257.563 1181.51,-247.451"/>
<polygon fill="midnightblue" stroke="midnightblue" points="1182.74,-244.171 1172.16,-243.516 1180.02,-250.623 1182.74,-244.171"/>
</g>
<!-- Node14 -->
<g id="node14" class="node"><title>Node14</title>
<polygon fill="white" stroke="#bfbfbf" points="905.981,-0.5 905.981,-19.5 976.981,-19.5 976.981,-0.5 905.981,-0.5"/>
<text text-anchor="middle" x="941.481" y="-7.5" font-family="Helvetica,sans-Serif" font-size="10.00">stm32f4xx.h</text>
</g>
<!-- Node4&#45;&gt;Node14 -->
<g id="edge80" class="edge"><title>Node4&#45;&gt;Node14</title>
<path fill="none" stroke="midnightblue" d="M1336.58,-288.91C1483.28,-287.197 1946.82,-269.477 1813.48,-112 1759.55,-48.3096 1159.53,-19.6681 987.391,-12.7252"/>
<polygon fill="midnightblue" stroke="midnightblue" points="987.282,-9.21822 977.15,-12.3176 987.003,-16.2127 987.282,-9.21822"/>
</g>
<!-- Node15 -->
<g id="node15" class="node"><title>Node15</title>
<polygon fill="white" stroke="#bfbfbf" points="479.981,-56.5 479.981,-75.5 568.981,-75.5 568.981,-56.5 479.981,-56.5"/>
<text text-anchor="middle" x="524.481" y="-63.5" font-family="Helvetica,sans-Serif" font-size="10.00">stm32f4xx_rcc.h</text>
</g>
<!-- Node4&#45;&gt;Node15 -->
<g id="edge79" class="edge"><title>Node4&#45;&gt;Node15</title>
<path fill="none" stroke="midnightblue" d="M1250.41,-286.962C1089.1,-278.896 527.312,-246.746 475.481,-188 447.879,-156.716 485.307,-107.86 508.515,-82.8775"/>
<polygon fill="midnightblue" stroke="midnightblue" points="511.047,-85.2942 515.451,-75.6577 505.999,-80.4449 511.047,-85.2942"/>
</g>
<!-- Node4&#45;&gt;Node31 -->
<g id="edge76" class="edge"><title>Node4&#45;&gt;Node31</title>
<path fill="none" stroke="midnightblue" d="M1311.92,-280.368C1353.02,-261.131 1452.32,-214.648 1500.85,-191.931"/>
<polygon fill="midnightblue" stroke="midnightblue" points="1502.55,-195.001 1510.13,-187.591 1499.59,-188.661 1502.55,-195.001"/>
</g>
<!-- Node4&#45;&gt;Node34 -->
<g id="edge81" class="edge"><title>Node4&#45;&gt;Node34</title>
<path fill="none" stroke="midnightblue" d="M1319.57,-280.46C1379.26,-260.918 1525.86,-212.923 1593.82,-190.675"/>
<polygon fill="midnightblue" stroke="midnightblue" points="1595.23,-193.897 1603.64,-187.459 1593.05,-187.244 1595.23,-193.897"/>
</g>
<!-- Node36 -->
<g id="node36" class="node"><title>Node36</title>
<polygon fill="white" stroke="#bfbfbf" points="1247.48,-224.5 1247.48,-243.5 1339.48,-243.5 1339.48,-224.5 1247.48,-224.5"/>
<text text-anchor="middle" x="1293.48" y="-231.5" font-family="Helvetica,sans-Serif" font-size="10.00">stm32f4xx_adc.h</text>
</g>
<!-- Node4&#45;&gt;Node36 -->
<g id="edge77" class="edge"><title>Node4&#45;&gt;Node36</title>
<path fill="none" stroke="midnightblue" d="M1293.48,-280.083C1293.48,-273.006 1293.48,-262.861 1293.48,-253.986"/>
<polygon fill="midnightblue" stroke="midnightblue" points="1296.98,-253.751 1293.48,-243.751 1289.98,-253.751 1296.98,-253.751"/>
</g>
<!-- Node37 -->
<g id="node37" class="node"><title>Node37</title>
<polygon fill="white" stroke="#bfbfbf" points="930.481,-224.5 930.481,-243.5 1022.48,-243.5 1022.48,-224.5 930.481,-224.5"/>
<text text-anchor="middle" x="976.481" y="-231.5" font-family="Helvetica,sans-Serif" font-size="10.00">stm32f4xx_dac.h</text>
</g>
<!-- Node4&#45;&gt;Node37 -->
<g id="edge78" class="edge"><title>Node4&#45;&gt;Node37</title>
<path fill="none" stroke="midnightblue" d="M1250.4,-281.661C1193.95,-272.046 1094.85,-255.164 1032.6,-244.559"/>
<polygon fill="midnightblue" stroke="midnightblue" points="1033,-241.078 1022.55,-242.848 1031.82,-247.978 1033,-241.078"/>
</g>
<!-- Node7 -->
<g id="node7" class="node"><title>Node7</title>
<polygon fill="white" stroke="#bfbfbf" points="113.481,-56.5 113.481,-75.5 159.481,-75.5 159.481,-56.5 113.481,-56.5"/>
<text text-anchor="middle" x="136.481" y="-63.5" font-family="Helvetica,sans-Serif" font-size="10.00">misc.h</text>
</g>
<!-- Node6&#45;&gt;Node7 -->
<g id="edge6" class="edge"><title>Node6&#45;&gt;Node7</title>
<path fill="none" stroke="midnightblue" d="M1040.4,-225.255C1037.39,-224.776 1034.39,-224.348 1031.48,-224 942.911,-213.407 309.251,-227.919 229.481,-188 185.781,-166.131 156.776,-112.967 143.975,-84.953"/>
<polygon fill="midnightblue" stroke="midnightblue" points="147.082,-83.3224 139.865,-75.5654 140.669,-86.1297 147.082,-83.3224"/>
</g>
<!-- Node8&#45;&gt;Node2 -->
<g id="edge47" class="edge"><title>Node8&#45;&gt;Node2</title>
<path fill="none" stroke="midnightblue" d="M1164.17,-243.644C1178.8,-257.696 1209.89,-285.387 1241.48,-300 1293.19,-323.915 1358.34,-335.468 1400.44,-340.799"/>
<polygon fill="midnightblue" stroke="midnightblue" points="1400.28,-344.305 1410.62,-342.024 1401.11,-337.355 1400.28,-344.305"/>
</g>
<!-- Node8&#45;&gt;Node3 -->
<g id="edge8" class="edge"><title>Node8&#45;&gt;Node3</title>
<path fill="none" stroke="midnightblue" d="M1158.95,-224.218C1165.05,-209.97 1179.13,-182.001 1200.48,-168 1232.04,-147.3 1339.55,-132.745 1394.53,-126.465"/>
<polygon fill="midnightblue" stroke="midnightblue" points="1394.92,-129.944 1404.47,-125.355 1394.14,-122.987 1394.92,-129.944"/>
</g>
<!-- Node8&#45;&gt;Node4 -->
<g id="edge48" class="edge"><title>Node8&#45;&gt;Node4</title>
<path fill="none" stroke="midnightblue" d="M1178.94,-242.304C1203.53,-251.06 1241.73,-265.876 1267.26,-276.471"/>
<polygon fill="midnightblue" stroke="midnightblue" points="1266.13,-279.79 1276.7,-280.444 1268.84,-273.339 1266.13,-279.79"/>
</g>
<!-- Node8&#45;&gt;Node5 -->
<g id="edge13" class="edge"><title>Node8&#45;&gt;Node5</title>
<path fill="none" stroke="midnightblue" d="M1155.97,-224.231C1157.2,-210.501 1161.5,-183.862 1176.48,-168 1206.92,-135.782 1236.98,-162.132 1269.48,-132 1282.92,-119.537 1291.14,-100.028 1295.7,-85.6317"/>
<polygon fill="midnightblue" stroke="midnightblue" points="1299.12,-86.3982 1298.51,-75.8213 1292.39,-84.4737 1299.12,-86.3982"/>
</g>
<!-- Node9 -->
<g id="node9" class="node"><title>Node9</title>
<polygon fill="white" stroke="#bfbfbf" points="1574.48,-112.5 1574.48,-131.5 1622.48,-131.5 1622.48,-112.5 1574.48,-112.5"/>
<text text-anchor="middle" x="1598.48" y="-119.5" font-family="Helvetica,sans-Serif" font-size="10.00">stdlib.h</text>
</g>
<!-- Node8&#45;&gt;Node9 -->
<g id="edge9" class="edge"><title>Node8&#45;&gt;Node9</title>
<path fill="none" stroke="midnightblue" d="M1178.6,-226.238C1205.1,-218.221 1249.61,-203.922 1286.48,-188 1304,-180.433 1306.34,-173.943 1324.48,-168 1426.98,-134.411 1458.85,-153.833 1564.48,-132 1564.58,-131.979 1564.68,-131.958 1564.78,-131.937"/>
<polygon fill="midnightblue" stroke="midnightblue" points="1565.45,-135.375 1574.41,-129.721 1563.88,-128.553 1565.45,-135.375"/>
</g>
<!-- Node10 -->
<g id="node10" class="node"><title>Node10</title>
<polygon fill="white" stroke="#bfbfbf" points="1678.98,-112.5 1678.98,-131.5 1727.98,-131.5 1727.98,-112.5 1678.98,-112.5"/>
<text text-anchor="middle" x="1703.48" y="-119.5" font-family="Helvetica,sans-Serif" font-size="10.00">string.h</text>
</g>
<!-- Node8&#45;&gt;Node10 -->
<g id="edge10" class="edge"><title>Node8&#45;&gt;Node10</title>
<path fill="none" stroke="midnightblue" d="M1178.77,-230.445C1263.68,-221.121 1551.91,-189.403 1556.48,-188 1574.72,-182.394 1577.2,-176.095 1594.48,-168 1620.04,-156.027 1649.69,-143.897 1671.61,-135.253"/>
<polygon fill="midnightblue" stroke="midnightblue" points="1673.05,-138.445 1681.09,-131.539 1670.5,-131.927 1673.05,-138.445"/>
</g>
<!-- Node11 -->
<g id="node11" class="node"><title>Node11</title>
<polygon fill="white" stroke="#bfbfbf" points="732.481,-168.5 732.481,-187.5 800.481,-187.5 800.481,-168.5 732.481,-168.5"/>
<text text-anchor="middle" x="766.481" y="-175.5" font-family="Helvetica,sans-Serif" font-size="10.00">stdint&#45;gcc.h</text>
</g>
<!-- Node8&#45;&gt;Node11 -->
<g id="edge11" class="edge"><title>Node8&#45;&gt;Node11</title>
<path fill="none" stroke="midnightblue" d="M1132.17,-225.982C1129.26,-225.244 1126.31,-224.559 1123.48,-224 987.841,-197.199 951.177,-208.753 814.481,-188 813.208,-187.807 811.917,-187.605 810.614,-187.396"/>
<polygon fill="midnightblue" stroke="midnightblue" points="810.964,-183.905 800.52,-185.684 809.794,-190.807 810.964,-183.905"/>
</g>
<!-- Node12 -->
<g id="node12" class="node"><title>Node12</title>
<g id="a_node12"><a xlink:href="a00016.html" target="_top" xlink:title="Platform/Compiler dependent definitions. ">
<polygon fill="white" stroke="black" points="192.981,-56.5 192.981,-75.5 257.981,-75.5 257.981,-56.5 192.981,-56.5"/>
<text text-anchor="middle" x="225.481" y="-63.5" font-family="Helvetica,sans-Serif" font-size="10.00">attributes.h</text>
</a>
</g>
</g>
<!-- Node8&#45;&gt;Node12 -->
<g id="edge12" class="edge"><title>Node8&#45;&gt;Node12</title>
<path fill="none" stroke="midnightblue" d="M1132.2,-225.816C1129.28,-225.105 1126.33,-224.473 1123.48,-224 838.946,-176.67 761.671,-223.988 475.481,-188 347.833,-171.949 273.18,-231.382 191.481,-132 179.062,-116.893 193.776,-96.5213 207.54,-82.637"/>
<polygon fill="midnightblue" stroke="midnightblue" points="210.051,-85.0799 214.911,-75.6655 205.24,-79.9943 210.051,-85.0799"/>
</g>
<!-- Node13 -->
<g id="node13" class="node"><title>Node13</title>
<g id="a_node13"><a xlink:href="a00031.html" target="_top" xlink:title="Provides SysTick&#45;Timer driven delay functions. ">
<polygon fill="white" stroke="black" points="560.981,-112.5 560.981,-131.5 667.981,-131.5 667.981,-112.5 560.981,-112.5"/>
<text text-anchor="middle" x="614.481" y="-119.5" font-family="Helvetica,sans-Serif" font-size="10.00">md_stm32f4_delay.h</text>
</a>
</g>
</g>
<!-- Node8&#45;&gt;Node13 -->
<g id="edge14" class="edge"><title>Node8&#45;&gt;Node13</title>
<path fill="none" stroke="midnightblue" d="M1132.16,-226.02C1129.25,-225.275 1126.31,-224.579 1123.48,-224 1002.29,-199.189 965.399,-225.395 847.481,-188 829.288,-182.231 827.372,-174.645 809.481,-168 766.876,-152.175 716.897,-140.773 678.204,-133.406"/>
<polygon fill="midnightblue" stroke="midnightblue" points="678.587,-129.917 668.115,-131.527 677.305,-136.799 678.587,-129.917"/>
</g>
<!-- Node16 -->
<g id="node16" class="node"><title>Node16</title>
<g id="a_node16"><a xlink:href="a00033.html" target="_top" xlink:title="Definitions to extend board support for STM32F429i&#45;DISCO and equivalent boards. ">
<polygon fill="white" stroke="black" points="1126.98,-112.5 1126.98,-131.5 1233.98,-131.5 1233.98,-112.5 1126.98,-112.5"/>
<text text-anchor="middle" x="1180.48" y="-119.5" font-family="Helvetica,sans-Serif" font-size="10.00">md_stm32f4_disco.h</text>
</a>
</g>
</g>
<!-- Node8&#45;&gt;Node16 -->
<g id="edge18" class="edge"><title>Node8&#45;&gt;Node16</title>
<path fill="none" stroke="midnightblue" d="M1147.59,-224.488C1136.99,-211.975 1120.48,-187.941 1129.48,-168 1135.1,-155.555 1146.04,-145.172 1156.36,-137.527"/>
<polygon fill="midnightblue" stroke="midnightblue" points="1158.49,-140.312 1164.75,-131.764 1154.52,-134.543 1158.49,-140.312"/>
</g>
<!-- Node18 -->
<g id="node18" class="node"><title>Node18</title>
<g id="a_node18"><a xlink:href="a00037_source.html" target="_top" xlink:title="md_stm32f4_timer.h">
<polygon fill="white" stroke="black" points="200.481,-112.5 200.481,-131.5 306.481,-131.5 306.481,-112.5 200.481,-112.5"/>
<text text-anchor="middle" x="253.481" y="-119.5" font-family="Helvetica,sans-Serif" font-size="10.00">md_stm32f4_timer.h</text>
</a>
</g>
</g>
<!-- Node8&#45;&gt;Node18 -->
<g id="edge23" class="edge"><title>Node8&#45;&gt;Node18</title>
<path fill="none" stroke="midnightblue" d="M1132.18,-225.886C1129.27,-225.164 1126.32,-224.51 1123.48,-224 929.051,-189.096 868.423,-248.82 680.481,-188 664.164,-182.72 663.725,-173.5 647.481,-168 510.056,-121.475 464.756,-149.344 316.919,-132.096"/>
<polygon fill="midnightblue" stroke="midnightblue" points="316.913,-128.57 306.563,-130.834 316.067,-135.518 316.913,-128.57"/>
</g>
<!-- Node19 -->
<g id="node19" class="node"><title>Node19</title>
<g id="a_node19"><a xlink:href="a00059_source.html" target="_top" xlink:title="tm_stm32f4_pwm.h">
<polygon fill="white" stroke="black" points="856.981,-168.5 856.981,-187.5 959.981,-187.5 959.981,-168.5 856.981,-168.5"/>
<text text-anchor="middle" x="908.481" y="-175.5" font-family="Helvetica,sans-Serif" font-size="10.00">tm_stm32f4_pwm.h</text>
</a>
</g>
</g>
<!-- Node8&#45;&gt;Node19 -->
<g id="edge26" class="edge"><title>Node8&#45;&gt;Node19</title>
<path fill="none" stroke="midnightblue" d="M1132.46,-226.323C1129.45,-225.509 1126.4,-224.714 1123.48,-224 1069.36,-210.741 1006.98,-197.958 963.395,-189.427"/>
<polygon fill="midnightblue" stroke="midnightblue" points="964.05,-185.989 953.566,-187.512 962.712,-192.859 964.05,-185.989"/>
</g>
<!-- Node22 -->
<g id="node22" class="node"><title>Node22</title>
<g id="a_node22"><a xlink:href="a00065_source.html" target="_top" xlink:title="tm_stm32f4_usart.h">
<polygon fill="white" stroke="black" points="324.481,-112.5 324.481,-131.5 428.481,-131.5 428.481,-112.5 324.481,-112.5"/>
<text text-anchor="middle" x="376.481" y="-119.5" font-family="Helvetica,sans-Serif" font-size="10.00">tm_stm32f4_usart.h</text>
</a>
</g>
</g>
<!-- Node8&#45;&gt;Node22 -->
<g id="edge37" class="edge"><title>Node8&#45;&gt;Node22</title>
<path fill="none" stroke="midnightblue" d="M1132.18,-225.91C1129.27,-225.184 1126.32,-224.522 1123.48,-224 947.931,-191.699 895.86,-234.329 723.481,-188 703.126,-182.529 700.671,-174.05 680.481,-168 598.906,-143.554 500.876,-132.099 438.621,-126.938"/>
<polygon fill="midnightblue" stroke="midnightblue" points="438.813,-123.442 428.566,-126.133 438.255,-130.42 438.813,-123.442"/>
</g>
<!-- Node24 -->
<g id="node24" class="node"><title>Node24</title>
<polygon fill="white" stroke="#bfbfbf" points="484.481,-168.5 484.481,-187.5 552.481,-187.5 552.481,-168.5 484.481,-168.5"/>
<text text-anchor="middle" x="518.481" y="-175.5" font-family="Helvetica,sans-Serif" font-size="10.00">core_cm4.h</text>
</g>
<!-- Node8&#45;&gt;Node24 -->
<g id="edge45" class="edge"><title>Node8&#45;&gt;Node24</title>
<path fill="none" stroke="midnightblue" d="M1132.19,-225.839C1129.28,-225.125 1126.33,-224.486 1123.48,-224 880.012,-182.44 811.293,-220.687 562.731,-187.964"/>
<polygon fill="midnightblue" stroke="midnightblue" points="563.049,-184.476 552.672,-186.614 562.118,-191.413 563.049,-184.476"/>
</g>
<!-- Node25 -->
<g id="node25" class="node"><title>Node25</title>
<polygon fill="white" stroke="#bfbfbf" points="570.481,-168.5 570.481,-187.5 638.481,-187.5 638.481,-168.5 570.481,-168.5"/>
<text text-anchor="middle" x="604.481" y="-175.5" font-family="Helvetica,sans-Serif" font-size="10.00">arm_math.h</text>
</g>
<!-- Node8&#45;&gt;Node25 -->
<g id="edge46" class="edge"><title>Node8&#45;&gt;Node25</title>
<path fill="none" stroke="midnightblue" d="M1132.19,-225.873C1129.27,-225.153 1126.32,-224.503 1123.48,-224 916.752,-187.4 860.631,-215.386 652.481,-188 651.204,-187.832 649.91,-187.652 648.605,-187.463"/>
<polygon fill="midnightblue" stroke="midnightblue" points="648.922,-183.969 638.496,-185.852 647.82,-190.882 648.922,-183.969"/>
</g>
<!-- Node26 -->
<g id="node26" class="node"><title>Node26</title>
<g id="a_node26"><a xlink:href="a00046.html" target="_top" xlink:title="Provides initialization methods to configure analog subsystems and DMA controller. ">
<polygon fill="white" stroke="black" points="977.981,-168.5 977.981,-187.5 1076.98,-187.5 1076.98,-168.5 977.981,-168.5"/>
<text text-anchor="middle" x="1027.48" y="-175.5" font-family="Helvetica,sans-Serif" font-size="10.00">periph2dma_conf.h</text>
</a>
</g>
</g>
<!-- Node8&#45;&gt;Node26 -->
<g id="edge49" class="edge"><title>Node8&#45;&gt;Node26</title>
<path fill="none" stroke="midnightblue" d="M1135.2,-224.444C1114.13,-215.557 1080.96,-201.563 1057,-191.451"/>
<polygon fill="midnightblue" stroke="midnightblue" points="1058.24,-188.179 1047.67,-187.516 1055.52,-194.628 1058.24,-188.179"/>
</g>
<!-- Node8&#45;&gt;Node28 -->
<g id="edge54" class="edge"><title>Node8&#45;&gt;Node28</title>
<path fill="none" stroke="midnightblue" d="M1178.54,-226.161C1213.2,-217.013 1279.11,-200.69 1324.93,-189.853"/>
<polygon fill="midnightblue" stroke="midnightblue" points="1325.74,-193.258 1334.67,-187.561 1324.13,-186.445 1325.74,-193.258"/>
</g>
<!-- Node8&#45;&gt;Node29 -->
<g id="edge58" class="edge"><title>Node8&#45;&gt;Node29</title>
<path fill="none" stroke="midnightblue" d="M1132.2,-225.78C1129.29,-225.076 1126.33,-224.455 1123.48,-224 1023.14,-207.964 302.941,-185.8 116.472,-180.282"/>
<polygon fill="midnightblue" stroke="midnightblue" points="116.323,-176.777 106.224,-179.98 116.117,-183.774 116.323,-176.777"/>
</g>
<!-- Node8&#45;&gt;Node31 -->
<g id="edge62" class="edge"><title>Node8&#45;&gt;Node31</title>
<path fill="none" stroke="midnightblue" d="M1178.53,-229.663C1243.34,-220.28 1427.13,-193.673 1499.08,-183.256"/>
<polygon fill="midnightblue" stroke="midnightblue" points="1499.85,-186.682 1509.24,-181.785 1498.85,-179.754 1499.85,-186.682"/>
</g>
<!-- Node33 -->
<g id="node33" class="node"><title>Node33</title>
<g id="a_node33"><a xlink:href="a00051.html" target="_top" xlink:title="Provides DAC driven signal generator functions. ">
<polygon fill="white" stroke="black" points="1209.48,-168.5 1209.48,-187.5 1277.48,-187.5 1277.48,-168.5 1209.48,-168.5"/>
<text text-anchor="middle" x="1243.48" y="-175.5" font-family="Helvetica,sans-Serif" font-size="10.00">signalGen.h</text>
</a>
</g>
</g>
<!-- Node8&#45;&gt;Node33 -->
<g id="edge69" class="edge"><title>Node8&#45;&gt;Node33</title>
<path fill="none" stroke="midnightblue" d="M1169.62,-224.324C1183.35,-215.9 1204.42,-202.971 1220.55,-193.074"/>
<polygon fill="midnightblue" stroke="midnightblue" points="1222.68,-195.868 1229.38,-187.655 1219.02,-189.902 1222.68,-195.868"/>
</g>
<!-- Node8&#45;&gt;Node34 -->
<g id="edge71" class="edge"><title>Node8&#45;&gt;Node34</title>
<path fill="none" stroke="midnightblue" d="M1178.73,-230.442C1195.37,-228.621 1218.3,-226.129 1238.48,-224 1394.43,-207.547 1434.71,-213.257 1589.48,-188 1590.93,-187.764 1592.4,-187.507 1593.89,-187.235"/>
<polygon fill="midnightblue" stroke="midnightblue" points="1594.63,-190.657 1603.75,-185.263 1593.26,-183.793 1594.63,-190.657"/>
</g>
<!-- Node13&#45;&gt;Node5 -->
<g id="edge17" class="edge"><title>Node13&#45;&gt;Node5</title>
<path fill="none" stroke="midnightblue" d="M668.197,-116.092C683.473,-114.729 700.13,-113.274 715.481,-112 921.725,-94.879 1169.07,-76.5902 1262.37,-69.7709"/>
<polygon fill="midnightblue" stroke="midnightblue" points="1262.74,-73.2532 1272.46,-69.0343 1262.23,-66.2718 1262.74,-73.2532"/>
</g>
<!-- Node13&#45;&gt;Node14 -->
<g id="edge15" class="edge"><title>Node13&#45;&gt;Node14</title>
<path fill="none" stroke="midnightblue" d="M618.814,-112.121C626.341,-97.7333 643.277,-69.5684 666.481,-56 704.565,-33.7303 827.969,-20.3514 895.789,-14.4985"/>
<polygon fill="midnightblue" stroke="midnightblue" points="896.105,-17.9844 905.776,-13.6565 895.517,-11.0092 896.105,-17.9844"/>
</g>
<!-- Node13&#45;&gt;Node15 -->
<g id="edge16" class="edge"><title>Node13&#45;&gt;Node15</title>
<path fill="none" stroke="midnightblue" d="M600.021,-112.324C585.981,-103.9 564.432,-90.9709 547.938,-81.0741"/>
<polygon fill="midnightblue" stroke="midnightblue" points="549.281,-77.7983 538.905,-75.6545 545.679,-83.8007 549.281,-77.7983"/>
</g>
<!-- Node16&#45;&gt;Node5 -->
<g id="edge19" class="edge"><title>Node16&#45;&gt;Node5</title>
<path fill="none" stroke="midnightblue" d="M1199.5,-112.444C1219.07,-103.636 1249.79,-89.8116 1272.21,-79.722"/>
<polygon fill="midnightblue" stroke="midnightblue" points="1273.87,-82.8119 1281.56,-75.5164 1271,-76.4284 1273.87,-82.8119"/>
</g>
<!-- Node16&#45;&gt;Node14 -->
<g id="edge20" class="edge"><title>Node16&#45;&gt;Node14</title>
<path fill="none" stroke="midnightblue" d="M1173.95,-112.405C1162.87,-98.4239 1138.99,-70.8314 1112.48,-56 1073.35,-34.1048 1023.19,-22.545 987.34,-16.6546"/>
<polygon fill="midnightblue" stroke="midnightblue" points="987.585,-13.1505 977.165,-15.0714 986.508,-20.0673 987.585,-13.1505"/>
</g>
<!-- Node17 -->
<g id="node17" class="node"><title>Node17</title>
<g id="a_node17"><a xlink:href="a00035.html" target="_top" xlink:title="Provides generic methods for GPIO module initialization and manipulation. ">
<polygon fill="white" stroke="black" points="930.481,-56.5 930.481,-75.5 1032.48,-75.5 1032.48,-56.5 930.481,-56.5"/>
<text text-anchor="middle" x="981.481" y="-63.5" font-family="Helvetica,sans-Serif" font-size="10.00">md_stm32f4_gpio.h</text>
</a>
</g>
</g>
<!-- Node16&#45;&gt;Node17 -->
<g id="edge21" class="edge"><title>Node16&#45;&gt;Node17</title>
<path fill="none" stroke="midnightblue" d="M1148.95,-112.444C1114.89,-103.201 1060.47,-88.4356 1022.97,-78.2572"/>
<polygon fill="midnightblue" stroke="midnightblue" points="1023.43,-74.7575 1012.87,-75.5164 1021.6,-81.5132 1023.43,-74.7575"/>
</g>
<!-- Node17&#45;&gt;Node14 -->
<g id="edge22" class="edge"><title>Node17&#45;&gt;Node14</title>
<path fill="none" stroke="midnightblue" d="M974.875,-56.083C969.225,-48.4554 960.936,-37.2645 954.029,-27.9408"/>
<polygon fill="midnightblue" stroke="midnightblue" points="956.728,-25.7034 947.963,-19.7511 951.103,-29.87 956.728,-25.7034"/>
</g>
<!-- Node18&#45;&gt;Node14 -->
<g id="edge24" class="edge"><title>Node18&#45;&gt;Node14</title>
<path fill="none" stroke="midnightblue" d="M258.787,-112.321C268.28,-97.6899 289.705,-68.4894 316.481,-56 368.548,-31.7134 760.263,-16.8669 895.63,-12.4182"/>
<polygon fill="midnightblue" stroke="midnightblue" points="895.796,-15.9148 905.677,-12.0917 895.569,-8.91848 895.796,-15.9148"/>
</g>
<!-- Node18&#45;&gt;Node15 -->
<g id="edge25" class="edge"><title>Node18&#45;&gt;Node15</title>
<path fill="none" stroke="midnightblue" d="M296.421,-112.444C343.994,-102.964 420.724,-87.6747 471.869,-77.4835"/>
<polygon fill="midnightblue" stroke="midnightblue" points="472.618,-80.9032 481.741,-75.5164 471.25,-74.0382 472.618,-80.9032"/>
</g>
<!-- Node19&#45;&gt;Node5 -->
<g id="edge36" class="edge"><title>Node19&#45;&gt;Node5</title>
<path fill="none" stroke="midnightblue" d="M960.183,-169.184C962.989,-168.778 965.769,-168.382 968.481,-168 1090.11,-150.889 1133.9,-189.418 1242.48,-132 1263.3,-120.992 1280.24,-99.3331 1290.33,-84.049"/>
<polygon fill="midnightblue" stroke="midnightblue" points="1293.34,-85.8379 1295.7,-75.5086 1287.41,-82.1133 1293.34,-85.8379"/>
</g>
<!-- Node19&#45;&gt;Node14 -->
<g id="edge27" class="edge"><title>Node19&#45;&gt;Node14</title>
<path fill="none" stroke="midnightblue" d="M908.496,-168.323C908.729,-148.215 910.456,-97.0108 921.481,-56 923.978,-46.7118 928.142,-36.8967 932.027,-28.8115"/>
<polygon fill="midnightblue" stroke="midnightblue" points="935.263,-30.1688 936.651,-19.6653 929.015,-27.0106 935.263,-30.1688"/>
</g>
<!-- Node19&#45;&gt;Node15 -->
<g id="edge28" class="edge"><title>Node19&#45;&gt;Node15</title>
<path fill="none" stroke="midnightblue" d="M856.811,-171.863C760.8,-162.128 563.482,-141.147 551.481,-132 537.076,-121.021 530.3,-100.966 527.149,-86.0253"/>
<polygon fill="midnightblue" stroke="midnightblue" points="530.538,-85.0853 525.378,-75.8317 523.641,-86.2831 530.538,-85.0853"/>
</g>
<!-- Node19&#45;&gt;Node17 -->
<g id="edge29" class="edge"><title>Node19&#45;&gt;Node17</title>
<path fill="none" stroke="midnightblue" d="M914.209,-168.368C926.256,-150.215 954.403,-107.802 970.205,-83.9902"/>
<polygon fill="midnightblue" stroke="midnightblue" points="973.166,-85.8589 975.779,-75.5914 967.333,-81.9882 973.166,-85.8589"/>
</g>
<!-- Node20 -->
<g id="node20" class="node"><title>Node20</title>
<polygon fill="white" stroke="#bfbfbf" points="675.981,-56.5 675.981,-75.5 764.981,-75.5 764.981,-56.5 675.981,-56.5"/>
<text text-anchor="middle" x="720.481" y="-63.5" font-family="Helvetica,sans-Serif" font-size="10.00">stm32f4xx_tim.h</text>
</g>
<!-- Node19&#45;&gt;Node20 -->
<g id="edge30" class="edge"><title>Node19&#45;&gt;Node20</title>
<path fill="none" stroke="midnightblue" d="M857.47,-168.459C803.346,-158.879 724.384,-143.218 715.481,-132 705.164,-119.001 708.305,-99.5697 712.873,-85.3382"/>
<polygon fill="midnightblue" stroke="midnightblue" points="716.265,-86.255 716.444,-75.6617 709.698,-83.8312 716.265,-86.255"/>
</g>
<!-- Node21 -->
<g id="node21" class="node"><title>Node21</title>
<g id="a_node21"><a xlink:href="a00063_source.html" target="_top" xlink:title="tm_stm32f4_timer_properties.h">
<polygon fill="white" stroke="black" points="724.481,-112.5 724.481,-131.5 876.481,-131.5 876.481,-112.5 724.481,-112.5"/>
<text text-anchor="middle" x="800.481" y="-119.5" font-family="Helvetica,sans-Serif" font-size="10.00">tm_stm32f4_timer_properties.h</text>
</a>
</g>
</g>
<!-- Node19&#45;&gt;Node21 -->
<g id="edge31" class="edge"><title>Node19&#45;&gt;Node21</title>
<path fill="none" stroke="midnightblue" d="M891.129,-168.324C873.809,-159.664 846.965,-146.242 826.979,-136.249"/>
<polygon fill="midnightblue" stroke="midnightblue" points="828.299,-132.996 817.79,-131.655 825.169,-139.257 828.299,-132.996"/>
</g>
<!-- Node21&#45;&gt;Node5 -->
<g id="edge35" class="edge"><title>Node21&#45;&gt;Node5</title>
<path fill="none" stroke="midnightblue" d="M876.692,-112.769C985.118,-101.059 1179.86,-80.0267 1262.13,-71.1416"/>
<polygon fill="midnightblue" stroke="midnightblue" points="1262.72,-74.5987 1272.29,-70.0451 1261.97,-67.6392 1262.72,-74.5987"/>
</g>
<!-- Node21&#45;&gt;Node14 -->
<g id="edge32" class="edge"><title>Node21&#45;&gt;Node14</title>
<path fill="none" stroke="midnightblue" d="M811.545,-112.368C835.534,-93.6531 892.578,-49.1509 922.468,-25.8324"/>
<polygon fill="midnightblue" stroke="midnightblue" points="924.736,-28.502 930.468,-19.5914 920.431,-22.9829 924.736,-28.502"/>
</g>
<!-- Node21&#45;&gt;Node15 -->
<g id="edge33" class="edge"><title>Node21&#45;&gt;Node15</title>
<path fill="none" stroke="midnightblue" d="M756.748,-112.444C708.297,-102.964 630.151,-87.6747 578.063,-77.4835"/>
<polygon fill="midnightblue" stroke="midnightblue" points="578.495,-74.0017 568.009,-75.5164 577.151,-80.8715 578.495,-74.0017"/>
</g>
<!-- Node21&#45;&gt;Node20 -->
<g id="edge34" class="edge"><title>Node21&#45;&gt;Node20</title>
<path fill="none" stroke="midnightblue" d="M787.627,-112.324C775.264,-103.979 756.351,-91.2122 741.744,-81.3524"/>
<polygon fill="midnightblue" stroke="midnightblue" points="743.549,-78.3483 733.302,-75.6545 739.632,-84.1503 743.549,-78.3483"/>
</g>
<!-- Node22&#45;&gt;Node5 -->
<g id="edge44" class="edge"><title>Node22&#45;&gt;Node5</title>
<path fill="none" stroke="midnightblue" d="M428.806,-117.942C596.222,-108.158 1116.3,-77.7636 1262.12,-69.2417"/>
<polygon fill="midnightblue" stroke="midnightblue" points="1262.58,-72.7212 1272.36,-68.6436 1262.17,-65.7331 1262.58,-72.7212"/>
</g>
<!-- Node22&#45;&gt;Node7 -->
<g id="edge38" class="edge"><title>Node22&#45;&gt;Node7</title>
<path fill="none" stroke="midnightblue" d="M338.452,-112.444C291.831,-101.954 213.59,-84.3496 169.422,-74.4118"/>
<polygon fill="midnightblue" stroke="midnightblue" points="170.015,-70.9577 159.49,-72.1772 168.478,-77.787 170.015,-70.9577"/>
</g>
<!-- Node22&#45;&gt;Node12 -->
<g id="edge43" class="edge"><title>Node22&#45;&gt;Node12</title>
<path fill="none" stroke="midnightblue" d="M352.554,-112.444C327.262,-103.399 287.178,-89.064 258.801,-78.9158"/>
<polygon fill="midnightblue" stroke="midnightblue" points="259.89,-75.5882 249.295,-75.5164 257.533,-82.1794 259.89,-75.5882"/>
</g>
<!-- Node22&#45;&gt;Node14 -->
<g id="edge39" class="edge"><title>Node22&#45;&gt;Node14</title>
<path fill="none" stroke="midnightblue" d="M387.49,-112.321C408.201,-96.1768 452.496,-62.5675 470.481,-56 547.876,-27.7379 793.205,-16.1364 895.743,-12.4391"/>
<polygon fill="midnightblue" stroke="midnightblue" points="895.919,-15.9352 905.79,-12.0858 895.673,-8.9395 895.919,-15.9352"/>
</g>
<!-- Node22&#45;&gt;Node15 -->
<g id="edge40" class="edge"><title>Node22&#45;&gt;Node15</title>
<path fill="none" stroke="midnightblue" d="M399.932,-112.444C424.613,-103.438 463.666,-89.1891 491.457,-79.049"/>
<polygon fill="midnightblue" stroke="midnightblue" points="492.945,-82.2321 501.139,-75.5164 490.545,-75.6561 492.945,-82.2321"/>
</g>
<!-- Node22&#45;&gt;Node17 -->
<g id="edge41" class="edge"><title>Node22&#45;&gt;Node17</title>
<path fill="none" stroke="midnightblue" d="M428.586,-116.349C539.989,-106.406 800.871,-83.1205 920.088,-72.4797"/>
<polygon fill="midnightblue" stroke="midnightblue" points="920.494,-75.9574 930.143,-71.5822 919.872,-68.9851 920.494,-75.9574"/>
</g>
<!-- Node23 -->
<g id="node23" class="node"><title>Node23</title>
<polygon fill="white" stroke="#bfbfbf" points="325.481,-56.5 325.481,-75.5 423.481,-75.5 423.481,-56.5 325.481,-56.5"/>
<text text-anchor="middle" x="374.481" y="-63.5" font-family="Helvetica,sans-Serif" font-size="10.00">stm32f4xx_usart.h</text>
</g>
<!-- Node22&#45;&gt;Node23 -->
<g id="edge42" class="edge"><title>Node22&#45;&gt;Node23</title>
<path fill="none" stroke="midnightblue" d="M376.15,-112.083C375.888,-105.006 375.513,-94.8611 375.184,-85.9865"/>
<polygon fill="midnightblue" stroke="midnightblue" points="378.673,-85.6147 374.805,-75.7511 371.677,-85.8738 378.673,-85.6147"/>
</g>
<!-- Node26&#45;&gt;Node14 -->
<g id="edge50" class="edge"><title>Node26&#45;&gt;Node14</title>
<path fill="none" stroke="midnightblue" d="M1043.26,-168.467C1055.68,-160.769 1072.09,-148.179 1079.48,-132 1090.74,-107.364 1061.03,-58.573 1058.48,-56 1039.37,-36.7316 1011.12,-25.5577 987.169,-19.1643"/>
<polygon fill="midnightblue" stroke="midnightblue" points="987.753,-15.7033 977.206,-16.7072 986.077,-22.4998 987.753,-15.7033"/>
</g>
<!-- Node27 -->
<g id="node27" class="node"><title>Node27</title>
<g id="a_node27"><a xlink:href="a00027.html" target="_top" xlink:title="Project XA&#45;Galvo scanner specific digital to analog converter methods. ">
<polygon fill="white" stroke="black" points="970.481,-112.5 970.481,-131.5 1070.48,-131.5 1070.48,-112.5 970.481,-112.5"/>
<text text-anchor="middle" x="1020.48" y="-119.5" font-family="Helvetica,sans-Serif" font-size="10.00">md_stm32f4_dac.h</text>
</a>
</g>
</g>
<!-- Node26&#45;&gt;Node27 -->
<g id="edge51" class="edge"><title>Node26&#45;&gt;Node27</title>
<path fill="none" stroke="midnightblue" d="M1026.32,-168.083C1025.4,-160.927 1024.06,-150.635 1022.9,-141.691"/>
<polygon fill="midnightblue" stroke="midnightblue" points="1026.37,-141.218 1021.62,-131.751 1019.43,-142.118 1026.37,-141.218"/>
</g>
<!-- Node27&#45;&gt;Node14 -->
<g id="edge52" class="edge"><title>Node27&#45;&gt;Node14</title>
<path fill="none" stroke="midnightblue" d="M1027.67,-112.39C1037.64,-99.3315 1053.2,-74.1247 1041.48,-56 1029.31,-37.1776 1007.18,-26.1502 986.832,-19.729"/>
<polygon fill="midnightblue" stroke="midnightblue" points="987.612,-16.312 977.036,-16.9329 985.691,-23.0432 987.612,-16.312"/>
</g>
<!-- Node27&#45;&gt;Node17 -->
<g id="edge53" class="edge"><title>Node27&#45;&gt;Node17</title>
<path fill="none" stroke="midnightblue" d="M1014.04,-112.083C1008.53,-104.455 1000.45,-93.2645 993.716,-83.9408"/>
<polygon fill="midnightblue" stroke="midnightblue" points="996.493,-81.8087 987.801,-75.7511 990.818,-85.9071 996.493,-81.8087"/>
</g>
<!-- Node28&#45;&gt;Node4 -->
<g id="edge57" class="edge"><title>Node28&#45;&gt;Node4</title>
<path fill="none" stroke="midnightblue" d="M1333.29,-187.114C1297.55,-195.09 1249.8,-208.326 1238.48,-224 1225.13,-242.475 1247.81,-262.274 1267.97,-275.1"/>
<polygon fill="midnightblue" stroke="midnightblue" points="1266.25,-278.152 1276.62,-280.31 1269.86,-272.154 1266.25,-278.152"/>
</g>
<!-- Node28&#45;&gt;Node5 -->
<g id="edge56" class="edge"><title>Node28&#45;&gt;Node5</title>
<path fill="none" stroke="midnightblue" d="M1368.67,-168.368C1356.46,-150.215 1327.93,-107.802 1311.91,-83.9902"/>
<polygon fill="midnightblue" stroke="midnightblue" points="1314.75,-81.935 1306.26,-75.5914 1308.94,-85.8423 1314.75,-81.935"/>
</g>
<!-- Node28&#45;&gt;Node8 -->
<g id="edge55" class="edge"><title>Node28&#45;&gt;Node8</title>
<path fill="none" stroke="midnightblue" d="M1344.73,-187.592C1303.84,-198.249 1230.88,-216.208 1188.4,-226.044"/>
<polygon fill="midnightblue" stroke="midnightblue" points="1187.51,-222.656 1178.55,-228.302 1189.08,-229.479 1187.51,-222.656"/>
</g>
<!-- Node29&#45;&gt;Node14 -->
<g id="edge59" class="edge"><title>Node29&#45;&gt;Node14</title>
<path fill="none" stroke="midnightblue" d="M50.4291,-168.476C25.2011,-157.348 -10.8847,-136.391 3.48067,-112 29.5287,-67.7736 55.1523,-70.1838 104.481,-56 254.716,-12.8016 742.296,-10.4162 895.186,-10.7657"/>
<polygon fill="midnightblue" stroke="midnightblue" points="895.597,-14.2668 905.607,-10.7951 895.617,-7.26683 895.597,-14.2668"/>
</g>
<!-- Node29&#45;&gt;Node15 -->
<g id="edge61" class="edge"><title>Node29&#45;&gt;Node15</title>
<path fill="none" stroke="midnightblue" d="M106.073,-175.066C184.505,-170.198 377.572,-156.079 437.481,-132 465.488,-120.743 492.49,-98.1454 508.79,-82.7933"/>
<polygon fill="midnightblue" stroke="midnightblue" points="511.545,-84.9979 516.288,-75.5241 506.672,-79.9722 511.545,-84.9979"/>
</g>
<!-- Node30 -->
<g id="node30" class="node"><title>Node30</title>
<polygon fill="white" stroke="#bfbfbf" points="12.4807,-112.5 12.4807,-131.5 106.481,-131.5 106.481,-112.5 12.4807,-112.5"/>
<text text-anchor="middle" x="59.4807" y="-119.5" font-family="Helvetica,sans-Serif" font-size="10.00">stm32f4xx_gpio.h</text>
</g>
<!-- Node29&#45;&gt;Node30 -->
<g id="edge60" class="edge"><title>Node29&#45;&gt;Node30</title>
<path fill="none" stroke="midnightblue" d="M70.334,-168.083C68.6113,-160.927 66.1336,-150.635 63.9804,-141.691"/>
<polygon fill="midnightblue" stroke="midnightblue" points="67.3308,-140.654 61.5874,-131.751 60.5252,-142.293 67.3308,-140.654"/>
</g>
<!-- Node31&#45;&gt;Node3 -->
<g id="edge64" class="edge"><title>Node31&#45;&gt;Node3</title>
<path fill="none" stroke="midnightblue" d="M1512.25,-168.324C1496.13,-159.703 1471.18,-146.364 1452.52,-136.386"/>
<polygon fill="midnightblue" stroke="midnightblue" points="1454.14,-133.283 1443.67,-131.655 1450.84,-139.456 1454.14,-133.283"/>
</g>
<!-- Node31&#45;&gt;Node5 -->
<g id="edge68" class="edge"><title>Node31&#45;&gt;Node5</title>
<path fill="none" stroke="midnightblue" d="M1521.8,-168.464C1510.47,-154.568 1486.11,-127.095 1459.48,-112 1421.37,-90.397 1372.15,-78.5549 1338.64,-72.5155"/>
<polygon fill="midnightblue" stroke="midnightblue" points="1339.22,-69.064 1328.77,-70.8231 1338.03,-75.9633 1339.22,-69.064"/>
</g>
<!-- Node31&#45;&gt;Node9 -->
<g id="edge63" class="edge"><title>Node31&#45;&gt;Node9</title>
<path fill="none" stroke="midnightblue" d="M1539.73,-168.324C1550.28,-160.185 1566.28,-147.839 1578.92,-138.087"/>
<polygon fill="midnightblue" stroke="midnightblue" points="1581.25,-140.713 1587.03,-131.834 1576.97,-135.171 1581.25,-140.713"/>
</g>
<!-- Node31&#45;&gt;Node10 -->
<g id="edge65" class="edge"><title>Node31&#45;&gt;Node10</title>
<path fill="none" stroke="midnightblue" d="M1547.54,-171.118C1576.69,-162.123 1632.79,-144.815 1669.15,-133.594"/>
<polygon fill="midnightblue" stroke="midnightblue" points="1670.32,-136.896 1678.84,-130.603 1668.25,-130.207 1670.32,-136.896"/>
</g>
<!-- Node31&#45;&gt;Node14 -->
<g id="edge67" class="edge"><title>Node31&#45;&gt;Node14</title>
<path fill="none" stroke="midnightblue" d="M1547.76,-169.215C1576.89,-157.36 1629.02,-135.756 1631.48,-132 1636.35,-124.562 1637.15,-118.848 1631.48,-112 1590.17,-62.0724 1135.29,-25.0095 987.539,-14.2173"/>
<polygon fill="midnightblue" stroke="midnightblue" points="987.668,-10.7176 977.441,-13.4858 987.162,-17.6993 987.668,-10.7176"/>
</g>
<!-- Node32 -->
<g id="node32" class="node"><title>Node32</title>
<polygon fill="white" stroke="#bfbfbf" points="1506.98,-112.5 1506.98,-131.5 1555.98,-131.5 1555.98,-112.5 1506.98,-112.5"/>
<text text-anchor="middle" x="1531.48" y="-119.5" font-family="Helvetica,sans-Serif" font-size="10.00">stdint.h</text>
</g>
<!-- Node31&#45;&gt;Node32 -->
<g id="edge66" class="edge"><title>Node31&#45;&gt;Node32</title>
<path fill="none" stroke="midnightblue" d="M1528.98,-168.083C1529.37,-161.006 1529.93,-150.861 1530.43,-141.986"/>
<polygon fill="midnightblue" stroke="midnightblue" points="1533.93,-141.93 1530.99,-131.751 1526.95,-141.542 1533.93,-141.93"/>
</g>
<!-- Node33&#45;&gt;Node3 -->
<g id="edge70" class="edge"><title>Node33&#45;&gt;Node3</title>
<path fill="none" stroke="midnightblue" d="M1272.64,-168.444C1305.84,-158.699 1359.96,-142.816 1394.63,-132.641"/>
<polygon fill="midnightblue" stroke="midnightblue" points="1395.68,-135.981 1404.29,-129.807 1393.71,-129.264 1395.68,-135.981"/>
</g>
<!-- Node34&#45;&gt;Node3 -->
<g id="edge72" class="edge"><title>Node34&#45;&gt;Node3</title>
<path fill="none" stroke="midnightblue" d="M1603.9,-170.161C1567.47,-160.423 1500.63,-142.555 1460.51,-131.829"/>
<polygon fill="midnightblue" stroke="midnightblue" points="1461.24,-128.401 1450.67,-129.2 1459.43,-135.164 1461.24,-128.401"/>
</g>
<!-- Node34&#45;&gt;Node9 -->
<g id="edge74" class="edge"><title>Node34&#45;&gt;Node9</title>
<path fill="none" stroke="midnightblue" d="M1624.36,-168.083C1620.07,-160.613 1613.82,-149.724 1608.54,-140.52"/>
<polygon fill="midnightblue" stroke="midnightblue" points="1611.52,-138.681 1603.5,-131.751 1605.45,-142.166 1611.52,-138.681"/>
</g>
<!-- Node34&#45;&gt;Node10 -->
<g id="edge73" class="edge"><title>Node34&#45;&gt;Node10</title>
<path fill="none" stroke="midnightblue" d="M1641.37,-168.324C1652.63,-160.107 1669.77,-147.602 1683.19,-137.807"/>
<polygon fill="midnightblue" stroke="midnightblue" points="1685.36,-140.556 1691.37,-131.834 1681.23,-134.901 1685.36,-140.556"/>
</g>
<!-- Node35 -->
<g id="node35" class="node"><title>Node35</title>
<polygon fill="white" stroke="#bfbfbf" points="1745.98,-112.5 1745.98,-131.5 1804.98,-131.5 1804.98,-112.5 1745.98,-112.5"/>
<text text-anchor="middle" x="1775.48" y="-119.5" font-family="Helvetica,sans-Serif" font-size="10.00">inttypes.h</text>
</g>
<!-- Node34&#45;&gt;Node35 -->
<g id="edge75" class="edge"><title>Node34&#45;&gt;Node35</title>
<path fill="none" stroke="midnightblue" d="M1652.61,-168.444C1676.96,-159.438 1715.49,-145.189 1742.9,-135.049"/>
<polygon fill="midnightblue" stroke="midnightblue" points="1744.29,-138.268 1752.45,-131.516 1741.86,-131.703 1744.29,-138.268"/>
</g>
</g>
</svg>
