<?xml version="1.0" encoding="UTF-8" standalone="no"?>
<!DOCTYPE svg PUBLIC "-//W3C//DTD SVG 1.1//EN"
 "http://www.w3.org/Graphics/SVG/1.1/DTD/svg11.dtd">
<!-- Generated by graphviz version 2.38.0 (20140413.2041)
 -->
<!-- Title: TM_USART_DMA_Send Pages: 1 -->
<svg width="241pt" height="66pt"
 viewBox="0.00 0.00 241.00 66.00" xmlns="http://www.w3.org/2000/svg" xmlns:xlink="http://www.w3.org/1999/xlink">
<g id="graph0" class="graph" transform="scale(1 1) rotate(0) translate(4 62)">
<title>TM_USART_DMA_Send</title>
<polygon fill="white" stroke="none" points="-4,4 -4,-62 237,-62 237,4 -4,4"/>
<!-- Node1 -->
<g id="node1" class="node"><title>Node1</title>
<polygon fill="#bfbfbf" stroke="black" points="0,-19.5 0,-38.5 126,-38.5 126,-19.5 0,-19.5"/>
<text text-anchor="middle" x="63" y="-26.5" font-family="Helvetica,sans-Serif" font-size="10.00">TM_USART_DMA_Send</text>
</g>
<!-- Node2 -->
<g id="node2" class="node"><title>Node2</title>
<g id="a_node2"><a xlink:href="a00010.html#ga38d4a4ab8990299f8a6cf064e1e811d0" target="_top" xlink:title="Deinitialize the DMAy Streamx registers to their default reset values. ">
<polygon fill="white" stroke="black" points="162,-38.5 162,-57.5 233,-57.5 233,-38.5 162,-38.5"/>
<text text-anchor="middle" x="197.5" y="-45.5" font-family="Helvetica,sans-Serif" font-size="10.00">DMA_DeInit</text>
</a>
</g>
</g>
<!-- Node1&#45;&gt;Node2 -->
<g id="edge1" class="edge"><title>Node1&#45;&gt;Node2</title>
<path fill="none" stroke="midnightblue" d="M126.37,-37.9436C134.96,-39.1753 143.636,-40.4196 151.82,-41.5931"/>
<polygon fill="midnightblue" stroke="midnightblue" points="151.484,-45.0805 161.879,-43.0355 152.477,-38.1514 151.484,-45.0805"/>
</g>
<!-- Node3 -->
<g id="node3" class="node"><title>Node3</title>
<g id="a_node3"><a xlink:href="a00010.html#gaced8a4149acfb0a50b50e63273a87148" target="_top" xlink:title="Initializes the DMAy Streamx according to the specified parameters in the DMA_InitStruct structure...">
<polygon fill="white" stroke="black" points="168.5,-0.5 168.5,-19.5 226.5,-19.5 226.5,-0.5 168.5,-0.5"/>
<text text-anchor="middle" x="197.5" y="-7.5" font-family="Helvetica,sans-Serif" font-size="10.00">DMA_Init</text>
</a>
</g>
</g>
<!-- Node1&#45;&gt;Node3 -->
<g id="edge2" class="edge"><title>Node1&#45;&gt;Node3</title>
<path fill="none" stroke="midnightblue" d="M126.37,-20.0564C137.33,-18.4848 148.432,-16.8928 158.47,-15.4533"/>
<polygon fill="midnightblue" stroke="midnightblue" points="159.094,-18.8997 168.496,-14.0156 158.101,-11.9706 159.094,-18.8997"/>
</g>
</g>
</svg>
