<?xml version="1.0" encoding="UTF-8" standalone="no"?>
<!DOCTYPE svg PUBLIC "-//W3C//DTD SVG 1.1//EN"
 "http://www.w3.org/Graphics/SVG/1.1/DTD/svg11.dtd">
<!-- Generated by graphviz version 2.38.0 (20140413.2041)
 -->
<!-- Title: actuators.c Pages: 1 -->
<svg width="2069pt" height="364pt"
 viewBox="0.00 0.00 2068.50 364.00" xmlns="http://www.w3.org/2000/svg" xmlns:xlink="http://www.w3.org/1999/xlink">
<g id="graph0" class="graph" transform="scale(1 1) rotate(0) translate(4 360)">
<title>actuators.c</title>
<polygon fill="white" stroke="none" points="-4,4 -4,-360 2064.5,-360 2064.5,4 -4,4"/>
<!-- Node1 -->
<g id="node1" class="node"><title>Node1</title>
<polygon fill="#bfbfbf" stroke="black" points="1879,-336.5 1879,-355.5 1944,-355.5 1944,-336.5 1879,-336.5"/>
<text text-anchor="middle" x="1911.5" y="-343.5" font-family="Helvetica,sans-Serif" font-size="10.00">actuators.c</text>
</g>
<!-- Node2 -->
<g id="node2" class="node"><title>Node2</title>
<g id="a_node2"><a xlink:href="a00012.html" target="_top" xlink:title="Controlling beam and primary actuators. ">
<polygon fill="white" stroke="black" points="1698,-280.5 1698,-299.5 1763,-299.5 1763,-280.5 1698,-280.5"/>
<text text-anchor="middle" x="1730.5" y="-287.5" font-family="Helvetica,sans-Serif" font-size="10.00">actuators.h</text>
</a>
</g>
</g>
<!-- Node1&#45;&gt;Node2 -->
<g id="edge1" class="edge"><title>Node1&#45;&gt;Node2</title>
<path fill="none" stroke="midnightblue" d="M1882.82,-336.444C1851.97,-327.241 1802.77,-312.562 1768.67,-302.388"/>
<polygon fill="midnightblue" stroke="midnightblue" points="1769.63,-299.021 1759.05,-299.516 1767.63,-305.729 1769.63,-299.021"/>
</g>
<!-- Node5 -->
<g id="node5" class="node"><title>Node5</title>
<g id="a_node5"><a xlink:href="a00019.html" target="_top" xlink:title="Global defines include file. ">
<polygon fill="white" stroke="black" points="1441.5,-0.5 1441.5,-19.5 1497.5,-19.5 1497.5,-0.5 1441.5,-0.5"/>
<text text-anchor="middle" x="1469.5" y="-7.5" font-family="Helvetica,sans-Serif" font-size="10.00">defines.h</text>
</a>
</g>
</g>
<!-- Node1&#45;&gt;Node5 -->
<g id="edge92" class="edge"><title>Node1&#45;&gt;Node5</title>
<path fill="none" stroke="midnightblue" d="M1944.2,-336.64C1988.06,-323.23 2060.5,-292.394 2060.5,-235 2060.5,-235 2060.5,-235 2060.5,-121 2060.5,-84.2802 2041.82,-73.4212 2009.5,-56 1965.58,-32.3305 1623.67,-16.9894 1507.77,-12.4264"/>
<polygon fill="midnightblue" stroke="midnightblue" points="1507.72,-8.92194 1497.6,-12.0307 1507.45,-15.9167 1507.72,-8.92194"/>
</g>
<!-- Node3 -->
<g id="node3" class="node"><title>Node3</title>
<polygon fill="white" stroke="#bfbfbf" points="1832.5,-56.5 1832.5,-75.5 1878.5,-75.5 1878.5,-56.5 1832.5,-56.5"/>
<text text-anchor="middle" x="1855.5" y="-63.5" font-family="Helvetica,sans-Serif" font-size="10.00">stdio.h</text>
</g>
<!-- Node2&#45;&gt;Node3 -->
<g id="edge2" class="edge"><title>Node2&#45;&gt;Node3</title>
<path fill="none" stroke="midnightblue" d="M1751,-280.427C1793.75,-261.256 1891.52,-210.356 1928.5,-132 1939.37,-108.968 1912.41,-90.6017 1888.23,-79.346"/>
<polygon fill="midnightblue" stroke="midnightblue" points="1889.41,-76.0424 1878.85,-75.2453 1886.61,-82.4567 1889.41,-76.0424"/>
</g>
<!-- Node4 -->
<g id="node4" class="node"><title>Node4</title>
<g id="a_node4"><a xlink:href="a00014.html" target="_top" xlink:title="Provides DMA related configuration and access functions for ADC and DAC. ">
<polygon fill="white" stroke="black" points="1408.5,-224.5 1408.5,-243.5 1494.5,-243.5 1494.5,-224.5 1408.5,-224.5"/>
<text text-anchor="middle" x="1451.5" y="-231.5" font-family="Helvetica,sans-Serif" font-size="10.00">adc_dac_dma.h</text>
</a>
</g>
</g>
<!-- Node2&#45;&gt;Node4 -->
<g id="edge3" class="edge"><title>Node2&#45;&gt;Node4</title>
<path fill="none" stroke="midnightblue" d="M1697.94,-283.525C1649.24,-274.647 1557.43,-256.957 1500.6,-245.566"/>
<polygon fill="midnightblue" stroke="midnightblue" points="1501.26,-242.127 1490.76,-243.585 1499.87,-248.989 1501.26,-242.127"/>
</g>
<!-- Node2&#45;&gt;Node5 -->
<g id="edge87" class="edge"><title>Node2&#45;&gt;Node5</title>
<path fill="none" stroke="midnightblue" d="M1763.15,-283.83C1839.34,-270.844 2022.5,-233.917 2022.5,-179 2022.5,-179 2022.5,-179 2022.5,-121 2022.5,-86.8442 2010.66,-73.7905 1981.5,-56 1941.33,-31.4895 1619.72,-16.8183 1507.76,-12.4133"/>
<polygon fill="midnightblue" stroke="midnightblue" points="1507.73,-8.9094 1497.6,-12.0191 1507.45,-15.9041 1507.73,-8.9094"/>
</g>
<!-- Node26 -->
<g id="node26" class="node"><title>Node26</title>
<g id="a_node26"><a xlink:href="a00021.html" target="_top" xlink:title="Analog processing related callback handler definition. ">
<polygon fill="white" stroke="black" points="1837.5,-112.5 1837.5,-131.5 1919.5,-131.5 1919.5,-112.5 1837.5,-112.5"/>
<text text-anchor="middle" x="1878.5" y="-119.5" font-family="Helvetica,sans-Serif" font-size="10.00">isr_callbacks.h</text>
</a>
</g>
</g>
<!-- Node2&#45;&gt;Node26 -->
<g id="edge88" class="edge"><title>Node2&#45;&gt;Node26</title>
<path fill="none" stroke="midnightblue" d="M1738.46,-280.075C1762.26,-253.38 1833.15,-173.865 1863.95,-139.322"/>
<polygon fill="midnightblue" stroke="midnightblue" points="1866.82,-141.361 1870.86,-131.568 1861.59,-136.703 1866.82,-141.361"/>
</g>
<!-- Node27 -->
<g id="node27" class="node"><title>Node27</title>
<g id="a_node27"><a xlink:href="a00039.html" target="_top" xlink:title="Project MD_APP scanner specific pin mappings. ">
<polygon fill="white" stroke="black" points="133,-56.5 133,-75.5 200,-75.5 200,-56.5 133,-56.5"/>
<text text-anchor="middle" x="166.5" y="-63.5" font-family="Helvetica,sans-Serif" font-size="10.00">mdb_gpio.h</text>
</a>
</g>
</g>
<!-- Node2&#45;&gt;Node27 -->
<g id="edge89" class="edge"><title>Node2&#45;&gt;Node27</title>
<path fill="none" stroke="midnightblue" d="M1697.73,-289.259C1500.89,-290.283 475.206,-287.973 211.5,-132 193.455,-121.327 180.923,-100.249 173.749,-84.9827"/>
<polygon fill="midnightblue" stroke="midnightblue" points="176.839,-83.3121 169.637,-75.5416 170.422,-86.1074 176.839,-83.3121"/>
</g>
<!-- Node28 -->
<g id="node28" class="node"><title>Node28</title>
<g id="a_node28"><a xlink:href="a00043_source.html" target="_top" xlink:title="pid.h">
<polygon fill="white" stroke="black" points="1679.5,-112.5 1679.5,-131.5 1717.5,-131.5 1717.5,-112.5 1679.5,-112.5"/>
<text text-anchor="middle" x="1698.5" y="-119.5" font-family="Helvetica,sans-Serif" font-size="10.00">pid.h</text>
</a>
</g>
</g>
<!-- Node2&#45;&gt;Node28 -->
<g id="edge90" class="edge"><title>Node2&#45;&gt;Node28</title>
<path fill="none" stroke="midnightblue" d="M1728.78,-280.075C1723.74,-253.945 1708.95,-177.211 1702.08,-141.577"/>
<polygon fill="midnightblue" stroke="midnightblue" points="1705.48,-140.725 1700.15,-131.568 1698.61,-142.05 1705.48,-140.725"/>
</g>
<!-- Node31 -->
<g id="node31" class="node"><title>Node31</title>
<g id="a_node31"><a xlink:href="a00064_source.html" target="_top" xlink:title="tools.h">
<polygon fill="white" stroke="black" points="1773.5,-112.5 1773.5,-131.5 1819.5,-131.5 1819.5,-112.5 1773.5,-112.5"/>
<text text-anchor="middle" x="1796.5" y="-119.5" font-family="Helvetica,sans-Serif" font-size="10.00">tools.h</text>
</a>
</g>
</g>
<!-- Node2&#45;&gt;Node31 -->
<g id="edge91" class="edge"><title>Node2&#45;&gt;Node31</title>
<path fill="none" stroke="midnightblue" d="M1734.05,-280.075C1744.48,-253.832 1775.21,-176.545 1789.3,-141.117"/>
<polygon fill="midnightblue" stroke="midnightblue" points="1792.65,-142.154 1793.09,-131.568 1786.15,-139.567 1792.65,-142.154"/>
</g>
<!-- Node4&#45;&gt;Node2 -->
<g id="edge86" class="edge"><title>Node4&#45;&gt;Node2</title>
<path fill="none" stroke="midnightblue" d="M1494.79,-242.444C1547.47,-252.172 1635.63,-269.209 1687.97,-279.755"/>
<polygon fill="midnightblue" stroke="midnightblue" points="1687.44,-283.219 1697.94,-281.773 1688.83,-276.358 1687.44,-283.219"/>
</g>
<!-- Node4&#45;&gt;Node5 -->
<g id="edge4" class="edge"><title>Node4&#45;&gt;Node5</title>
<path fill="none" stroke="midnightblue" d="M1459.98,-224.234C1467.55,-215.75 1478.1,-202.131 1482.5,-188 1499.78,-132.469 1484.51,-62.6064 1475.3,-29.7317"/>
<polygon fill="midnightblue" stroke="midnightblue" points="1478.53,-28.3353 1472.35,-19.7302 1471.82,-30.3115 1478.53,-28.3353"/>
</g>
<!-- Node6 -->
<g id="node6" class="node"><title>Node6</title>
<g id="a_node6"><a xlink:href="a00041.html" target="_top" xlink:title="Provides nested vector interrupt controller configuration methods. ">
<polygon fill="white" stroke="black" points="1005.5,-168.5 1005.5,-187.5 1079.5,-187.5 1079.5,-168.5 1005.5,-168.5"/>
<text text-anchor="middle" x="1042.5" y="-175.5" font-family="Helvetica,sans-Serif" font-size="10.00">nvic_config.h</text>
</a>
</g>
</g>
<!-- Node4&#45;&gt;Node6 -->
<g id="edge5" class="edge"><title>Node4&#45;&gt;Node6</title>
<path fill="none" stroke="midnightblue" d="M1408.12,-227.272C1330.89,-217.076 1170.18,-195.858 1090.06,-185.279"/>
<polygon fill="midnightblue" stroke="midnightblue" points="1090.14,-181.759 1079.77,-183.92 1089.22,-188.699 1090.14,-181.759"/>
</g>
<!-- Node8 -->
<g id="node8" class="node"><title>Node8</title>
<g id="a_node8"><a xlink:href="a00023.html" target="_top" xlink:title="Main header definition. ">
<polygon fill="white" stroke="black" points="1157.5,-168.5 1157.5,-187.5 1203.5,-187.5 1203.5,-168.5 1157.5,-168.5"/>
<text text-anchor="middle" x="1180.5" y="-175.5" font-family="Helvetica,sans-Serif" font-size="10.00">main.h</text>
</a>
</g>
</g>
<!-- Node4&#45;&gt;Node8 -->
<g id="edge7" class="edge"><title>Node4&#45;&gt;Node8</title>
<path fill="none" stroke="midnightblue" d="M1408.19,-227.063C1360.52,-219.62 1281.88,-205.917 1211.35,-189.802"/>
<polygon fill="midnightblue" stroke="midnightblue" points="1211.99,-186.357 1201.46,-187.512 1210.41,-193.177 1211.99,-186.357"/>
</g>
<!-- Node13 -->
<g id="node13" class="node"><title>Node13</title>
<polygon fill="white" stroke="#bfbfbf" points="985,-0.5 985,-19.5 1056,-19.5 1056,-0.5 985,-0.5"/>
<text text-anchor="middle" x="1020.5" y="-7.5" font-family="Helvetica,sans-Serif" font-size="10.00">stm32f4xx.h</text>
</g>
<!-- Node4&#45;&gt;Node13 -->
<g id="edge84" class="edge"><title>Node4&#45;&gt;Node13</title>
<path fill="none" stroke="midnightblue" d="M1451.45,-224.119C1450.87,-210.234 1447.71,-183.386 1432.5,-168 1393.96,-129.002 1359.25,-163.677 1314.5,-132 1280.25,-107.76 1294.02,-78.3339 1258.5,-56 1227.12,-36.2682 1126.08,-22.3717 1066.22,-15.6315"/>
<polygon fill="midnightblue" stroke="midnightblue" points="1066.58,-12.151 1056.26,-14.5338 1065.82,-19.1088 1066.58,-12.151"/>
</g>
<!-- Node14 -->
<g id="node14" class="node"><title>Node14</title>
<polygon fill="white" stroke="#bfbfbf" points="122,-0.5 122,-19.5 211,-19.5 211,-0.5 122,-0.5"/>
<text text-anchor="middle" x="166.5" y="-7.5" font-family="Helvetica,sans-Serif" font-size="10.00">stm32f4xx_rcc.h</text>
</g>
<!-- Node4&#45;&gt;Node14 -->
<g id="edge83" class="edge"><title>Node4&#45;&gt;Node14</title>
<path fill="none" stroke="midnightblue" d="M1408.17,-229.517C1314.46,-221.98 1085.96,-203.583 894.5,-188 712.728,-173.205 181.753,-228.346 81.5,-76 66.086,-52.5768 98.3965,-34.1784 127.513,-23.0221"/>
<polygon fill="midnightblue" stroke="midnightblue" points="128.979,-26.2137 137.192,-19.5195 126.597,-19.6315 128.979,-26.2137"/>
</g>
<!-- Node17 -->
<g id="node17" class="node"><title>Node17</title>
<polygon fill="white" stroke="#bfbfbf" points="513.5,-0.5 513.5,-19.5 607.5,-19.5 607.5,-0.5 513.5,-0.5"/>
<text text-anchor="middle" x="560.5" y="-7.5" font-family="Helvetica,sans-Serif" font-size="10.00">stm32f4xx_gpio.h</text>
</g>
<!-- Node4&#45;&gt;Node17 -->
<g id="edge82" class="edge"><title>Node4&#45;&gt;Node17</title>
<path fill="none" stroke="midnightblue" d="M1408.31,-231.664C1297.12,-227.184 992.945,-208.319 753.5,-132 691.219,-112.149 670.673,-114.021 617.5,-76 599.072,-62.8233 582.559,-42.5888 572.11,-28.1996"/>
<polygon fill="midnightblue" stroke="midnightblue" points="574.769,-25.8955 566.159,-19.7208 569.039,-29.9168 574.769,-25.8955"/>
</g>
<!-- Node4&#45;&gt;Node28 -->
<g id="edge79" class="edge"><title>Node4&#45;&gt;Node28</title>
<path fill="none" stroke="midnightblue" d="M1470.88,-224.368C1514.17,-205.091 1618.89,-158.454 1669.78,-135.789"/>
<polygon fill="midnightblue" stroke="midnightblue" points="1671.5,-138.857 1679.21,-131.591 1668.65,-132.462 1671.5,-138.857"/>
</g>
<!-- Node4&#45;&gt;Node31 -->
<g id="edge85" class="edge"><title>Node4&#45;&gt;Node31</title>
<path fill="none" stroke="midnightblue" d="M1478.28,-224.46C1540.63,-204.582 1695.31,-155.264 1763.41,-133.55"/>
<polygon fill="midnightblue" stroke="midnightblue" points="1764.73,-136.804 1773.19,-130.432 1762.6,-130.135 1764.73,-136.804"/>
</g>
<!-- Node33 -->
<g id="node33" class="node"><title>Node33</title>
<g id="a_node33"><a xlink:href="a00026.html" target="_top" xlink:title="Project XA&#45;Galvo scanner specific digital to analog converter methods. ">
<polygon fill="white" stroke="black" points="1323.5,-112.5 1323.5,-131.5 1423.5,-131.5 1423.5,-112.5 1323.5,-112.5"/>
<text text-anchor="middle" x="1373.5" y="-119.5" font-family="Helvetica,sans-Serif" font-size="10.00">md_stm32f4_dac.h</text>
</a>
</g>
</g>
<!-- Node4&#45;&gt;Node33 -->
<g id="edge75" class="edge"><title>Node4&#45;&gt;Node33</title>
<path fill="none" stroke="midnightblue" d="M1457.12,-224.314C1464.85,-211.157 1476.62,-185.823 1465.5,-168 1455.74,-152.364 1438.8,-142.013 1422.1,-135.23"/>
<polygon fill="midnightblue" stroke="midnightblue" points="1422.94,-131.81 1412.35,-131.636 1420.52,-138.378 1422.94,-131.81"/>
</g>
<!-- Node34 -->
<g id="node34" class="node"><title>Node34</title>
<polygon fill="white" stroke="#bfbfbf" points="1221.5,-168.5 1221.5,-187.5 1313.5,-187.5 1313.5,-168.5 1221.5,-168.5"/>
<text text-anchor="middle" x="1267.5" y="-175.5" font-family="Helvetica,sans-Serif" font-size="10.00">stm32f4xx_adc.h</text>
</g>
<!-- Node4&#45;&gt;Node34 -->
<g id="edge80" class="edge"><title>Node4&#45;&gt;Node34</title>
<path fill="none" stroke="midnightblue" d="M1422.34,-224.444C1390.99,-215.241 1340.97,-200.562 1306.3,-190.388"/>
<polygon fill="midnightblue" stroke="midnightblue" points="1307.1,-186.974 1296.52,-187.516 1305.13,-193.691 1307.1,-186.974"/>
</g>
<!-- Node35 -->
<g id="node35" class="node"><title>Node35</title>
<polygon fill="white" stroke="#bfbfbf" points="1331.5,-168.5 1331.5,-187.5 1423.5,-187.5 1423.5,-168.5 1331.5,-168.5"/>
<text text-anchor="middle" x="1377.5" y="-175.5" font-family="Helvetica,sans-Serif" font-size="10.00">stm32f4xx_dac.h</text>
</g>
<!-- Node4&#45;&gt;Node35 -->
<g id="edge81" class="edge"><title>Node4&#45;&gt;Node35</title>
<path fill="none" stroke="midnightblue" d="M1439.61,-224.324C1428.35,-216.107 1411.21,-203.602 1397.79,-193.807"/>
<polygon fill="midnightblue" stroke="midnightblue" points="1399.75,-190.901 1389.61,-187.834 1395.62,-196.556 1399.75,-190.901"/>
</g>
<!-- Node7 -->
<g id="node7" class="node"><title>Node7</title>
<polygon fill="white" stroke="#bfbfbf" points="902.5,-56.5 902.5,-75.5 948.5,-75.5 948.5,-56.5 902.5,-56.5"/>
<text text-anchor="middle" x="925.5" y="-63.5" font-family="Helvetica,sans-Serif" font-size="10.00">misc.h</text>
</g>
<!-- Node6&#45;&gt;Node7 -->
<g id="edge6" class="edge"><title>Node6&#45;&gt;Node7</title>
<path fill="none" stroke="midnightblue" d="M1033.32,-168.368C1013.67,-149.894 967.293,-106.293 942.245,-82.7436"/>
<polygon fill="midnightblue" stroke="midnightblue" points="944.321,-79.8912 934.638,-75.5914 939.526,-84.9912 944.321,-79.8912"/>
</g>
<!-- Node8&#45;&gt;Node2 -->
<g id="edge49" class="edge"><title>Node8&#45;&gt;Node2</title>
<path fill="none" stroke="midnightblue" d="M1203.53,-187.113C1243.11,-200.765 1326.8,-228.366 1399.5,-244 1501.81,-266.002 1624.35,-279.346 1687.77,-285.305"/>
<polygon fill="midnightblue" stroke="midnightblue" points="1687.51,-288.796 1697.79,-286.231 1688.16,-281.826 1687.51,-288.796"/>
</g>
<!-- Node8&#45;&gt;Node3 -->
<g id="edge8" class="edge"><title>Node8&#45;&gt;Node3</title>
<path fill="none" stroke="midnightblue" d="M1203.79,-169.855C1206.7,-169.138 1209.66,-168.494 1212.5,-168 1438.12,-128.795 1506.24,-194.67 1726.5,-132 1744.86,-126.777 1747.5,-120.675 1764.5,-112 1785.83,-101.117 1810.14,-89.1131 1828.27,-80.242"/>
<polygon fill="midnightblue" stroke="midnightblue" points="1830.2,-83.1963 1837.65,-75.663 1827.13,-76.9062 1830.2,-83.1963"/>
</g>
<!-- Node8&#45;&gt;Node4 -->
<g id="edge50" class="edge"><title>Node8&#45;&gt;Node4</title>
<path fill="none" stroke="midnightblue" d="M1203.52,-183.394C1209.52,-184.956 1215.77,-186.657 1221.5,-188 1281.82,-202.132 1351.51,-214.848 1398.32,-223.128"/>
<polygon fill="midnightblue" stroke="midnightblue" points="1397.78,-226.588 1408.24,-224.878 1399,-219.694 1397.78,-226.588"/>
</g>
<!-- Node8&#45;&gt;Node5 -->
<g id="edge12" class="edge"><title>Node8&#45;&gt;Node5</title>
<path fill="none" stroke="midnightblue" d="M1203.84,-170.109C1206.75,-169.349 1209.68,-168.625 1212.5,-168 1309.23,-146.554 1357.89,-197.19 1432.5,-132 1462.32,-105.947 1468.49,-56.5952 1469.53,-29.6699"/>
<polygon fill="midnightblue" stroke="midnightblue" points="1473.03,-29.7002 1469.72,-19.6369 1466.03,-29.5701 1473.03,-29.7002"/>
</g>
<!-- Node9 -->
<g id="node9" class="node"><title>Node9</title>
<polygon fill="white" stroke="#bfbfbf" points="1554.5,-56.5 1554.5,-75.5 1602.5,-75.5 1602.5,-56.5 1554.5,-56.5"/>
<text text-anchor="middle" x="1578.5" y="-63.5" font-family="Helvetica,sans-Serif" font-size="10.00">stdlib.h</text>
</g>
<!-- Node8&#45;&gt;Node9 -->
<g id="edge9" class="edge"><title>Node8&#45;&gt;Node9</title>
<path fill="none" stroke="midnightblue" d="M1203.83,-170.052C1206.74,-169.301 1209.68,-168.595 1212.5,-168 1323.63,-144.573 1358.11,-168.983 1465.5,-132 1500.51,-119.942 1536.93,-96.7435 1558.66,-81.572"/>
<polygon fill="midnightblue" stroke="midnightblue" points="1560.9,-84.2685 1567.02,-75.6172 1556.84,-78.5662 1560.9,-84.2685"/>
</g>
<!-- Node10 -->
<g id="node10" class="node"><title>Node10</title>
<polygon fill="white" stroke="#bfbfbf" points="1621,-56.5 1621,-75.5 1670,-75.5 1670,-56.5 1621,-56.5"/>
<text text-anchor="middle" x="1645.5" y="-63.5" font-family="Helvetica,sans-Serif" font-size="10.00">string.h</text>
</g>
<!-- Node8&#45;&gt;Node10 -->
<g id="edge10" class="edge"><title>Node8&#45;&gt;Node10</title>
<path fill="none" stroke="midnightblue" d="M1203.82,-170.004C1206.73,-169.262 1209.67,-168.571 1212.5,-168 1339.38,-142.406 1376.89,-167.02 1501.5,-132 1545.67,-119.586 1593.6,-95.6427 1621.52,-80.5373"/>
<polygon fill="midnightblue" stroke="midnightblue" points="1623.44,-83.4766 1630.52,-75.5963 1620.07,-77.3403 1623.44,-83.4766"/>
</g>
<!-- Node11 -->
<g id="node11" class="node"><title>Node11</title>
<g id="a_node11"><a xlink:href="a00016.html" target="_top" xlink:title="Platform/Compiler dependent definitions. ">
<polygon fill="white" stroke="black" points="627,-56.5 627,-75.5 692,-75.5 692,-56.5 627,-56.5"/>
<text text-anchor="middle" x="659.5" y="-63.5" font-family="Helvetica,sans-Serif" font-size="10.00">attributes.h</text>
</a>
</g>
</g>
<!-- Node8&#45;&gt;Node11 -->
<g id="edge11" class="edge"><title>Node8&#45;&gt;Node11</title>
<path fill="none" stroke="midnightblue" d="M1157.32,-174.535C1081.94,-166.469 846.76,-140.873 813.5,-132 766.391,-119.433 714.787,-95.3651 684.878,-80.3047"/>
<polygon fill="midnightblue" stroke="midnightblue" points="686.103,-77.0002 675.605,-75.5722 682.921,-83.2353 686.103,-77.0002"/>
</g>
<!-- Node12 -->
<g id="node12" class="node"><title>Node12</title>
<g id="a_node12"><a xlink:href="a00030.html" target="_top" xlink:title="Provides SysTick&#45;Timer driven delay functions. ">
<polygon fill="white" stroke="black" points="967,-56.5 967,-75.5 1074,-75.5 1074,-56.5 967,-56.5"/>
<text text-anchor="middle" x="1020.5" y="-63.5" font-family="Helvetica,sans-Serif" font-size="10.00">md_stm32f4_delay.h</text>
</a>
</g>
</g>
<!-- Node8&#45;&gt;Node12 -->
<g id="edge13" class="edge"><title>Node8&#45;&gt;Node12</title>
<path fill="none" stroke="midnightblue" d="M1167.95,-168.368C1140.61,-149.573 1075.44,-104.768 1041.64,-81.5334"/>
<polygon fill="midnightblue" stroke="midnightblue" points="1043.22,-78.3726 1033,-75.5914 1039.25,-84.1409 1043.22,-78.3726"/>
</g>
<!-- Node15 -->
<g id="node15" class="node"><title>Node15</title>
<g id="a_node15"><a xlink:href="a00032.html" target="_top" xlink:title="Definitions to extend board support for STM32F429i&#45;DISCO and equivalent boards. ">
<polygon fill="white" stroke="black" points="1144,-112.5 1144,-131.5 1251,-131.5 1251,-112.5 1144,-112.5"/>
<text text-anchor="middle" x="1197.5" y="-119.5" font-family="Helvetica,sans-Serif" font-size="10.00">md_stm32f4_disco.h</text>
</a>
</g>
</g>
<!-- Node8&#45;&gt;Node15 -->
<g id="edge17" class="edge"><title>Node8&#45;&gt;Node15</title>
<path fill="none" stroke="midnightblue" d="M1183.31,-168.083C1185.58,-160.849 1188.87,-150.409 1191.71,-141.397"/>
<polygon fill="midnightblue" stroke="midnightblue" points="1195.08,-142.341 1194.75,-131.751 1188.4,-140.239 1195.08,-142.341"/>
</g>
<!-- Node18 -->
<g id="node18" class="node"><title>Node18</title>
<g id="a_node18"><a xlink:href="a00036_source.html" target="_top" xlink:title="md_stm32f4_timer.h">
<polygon fill="white" stroke="black" points="218.5,-56.5 218.5,-75.5 324.5,-75.5 324.5,-56.5 218.5,-56.5"/>
<text text-anchor="middle" x="271.5" y="-63.5" font-family="Helvetica,sans-Serif" font-size="10.00">md_stm32f4_timer.h</text>
</a>
</g>
</g>
<!-- Node8&#45;&gt;Node18 -->
<g id="edge23" class="edge"><title>Node8&#45;&gt;Node18</title>
<path fill="none" stroke="midnightblue" d="M1157.46,-174.486C1138.86,-172.52 1112.02,-169.823 1088.5,-168 948.912,-157.182 595.283,-166.131 459.5,-132 439.059,-126.862 436.165,-119.585 416.5,-112 382.293,-98.8055 342.449,-86.6639 313.194,-78.3266"/>
<polygon fill="midnightblue" stroke="midnightblue" points="313.889,-74.8861 303.315,-75.5408 311.989,-81.6234 313.889,-74.8861"/>
</g>
<!-- Node19 -->
<g id="node19" class="node"><title>Node19</title>
<g id="a_node19"><a xlink:href="a00054_source.html" target="_top" xlink:title="tm_stm32f4_pwm.h">
<polygon fill="white" stroke="black" points="469,-112.5 469,-131.5 572,-131.5 572,-112.5 469,-112.5"/>
<text text-anchor="middle" x="520.5" y="-119.5" font-family="Helvetica,sans-Serif" font-size="10.00">tm_stm32f4_pwm.h</text>
</a>
</g>
</g>
<!-- Node8&#45;&gt;Node19 -->
<g id="edge27" class="edge"><title>Node8&#45;&gt;Node19</title>
<path fill="none" stroke="midnightblue" d="M1157.45,-174.626C1138.85,-172.739 1112,-170.08 1088.5,-168 904.456,-151.709 686.609,-135.235 582.257,-127.518"/>
<polygon fill="midnightblue" stroke="midnightblue" points="582.446,-124.022 572.215,-126.776 581.93,-131.003 582.446,-124.022"/>
</g>
<!-- Node22 -->
<g id="node22" class="node"><title>Node22</title>
<g id="a_node22"><a xlink:href="a00060_source.html" target="_top" xlink:title="tm_stm32f4_usart.h">
<polygon fill="white" stroke="black" points="822.5,-112.5 822.5,-131.5 926.5,-131.5 926.5,-112.5 822.5,-112.5"/>
<text text-anchor="middle" x="874.5" y="-119.5" font-family="Helvetica,sans-Serif" font-size="10.00">tm_stm32f4_usart.h</text>
</a>
</g>
</g>
<!-- Node8&#45;&gt;Node22 -->
<g id="edge38" class="edge"><title>Node8&#45;&gt;Node22</title>
<path fill="none" stroke="midnightblue" d="M1157.25,-172.897C1109.89,-164.539 1000.98,-145.32 932.993,-133.322"/>
<polygon fill="midnightblue" stroke="midnightblue" points="933.317,-129.825 922.861,-131.534 932.1,-136.719 933.317,-129.825"/>
</g>
<!-- Node24 -->
<g id="node24" class="node"><title>Node24</title>
<polygon fill="white" stroke="#bfbfbf" points="220.5,-112.5 220.5,-131.5 288.5,-131.5 288.5,-112.5 220.5,-112.5"/>
<text text-anchor="middle" x="254.5" y="-119.5" font-family="Helvetica,sans-Serif" font-size="10.00">core_cm4.h</text>
</g>
<!-- Node8&#45;&gt;Node24 -->
<g id="edge47" class="edge"><title>Node8&#45;&gt;Node24</title>
<path fill="none" stroke="midnightblue" d="M1157.46,-174.411C1138.87,-172.403 1112.03,-169.685 1088.5,-168 740.822,-143.099 648.388,-175.561 298.836,-131.951"/>
<polygon fill="midnightblue" stroke="midnightblue" points="299.043,-128.45 288.684,-130.672 298.168,-135.395 299.043,-128.45"/>
</g>
<!-- Node25 -->
<g id="node25" class="node"><title>Node25</title>
<polygon fill="white" stroke="#bfbfbf" points="306.5,-112.5 306.5,-131.5 374.5,-131.5 374.5,-112.5 306.5,-112.5"/>
<text text-anchor="middle" x="340.5" y="-119.5" font-family="Helvetica,sans-Serif" font-size="10.00">arm_math.h</text>
</g>
<!-- Node8&#45;&gt;Node25 -->
<g id="edge48" class="edge"><title>Node8&#45;&gt;Node25</title>
<path fill="none" stroke="midnightblue" d="M1157.46,-174.449C1138.87,-172.462 1112.03,-169.755 1088.5,-168 777.841,-144.829 697.843,-168.787 388.5,-132 387.221,-131.848 385.925,-131.682 384.619,-131.505"/>
<polygon fill="midnightblue" stroke="midnightblue" points="384.916,-128.01 374.502,-129.958 383.858,-134.929 384.916,-128.01"/>
</g>
<!-- Node8&#45;&gt;Node26 -->
<g id="edge51" class="edge"><title>Node8&#45;&gt;Node26</title>
<path fill="none" stroke="midnightblue" d="M1201.09,-168.436C1201.9,-168.28 1202.7,-168.134 1203.5,-168 1473.96,-122.611 1547.17,-164.35 1819.5,-132 1822.12,-131.689 1824.81,-131.328 1827.53,-130.932"/>
<polygon fill="midnightblue" stroke="midnightblue" points="1828.12,-134.382 1837.46,-129.379 1827.04,-127.466 1828.12,-134.382"/>
</g>
<!-- Node8&#45;&gt;Node27 -->
<g id="edge55" class="edge"><title>Node8&#45;&gt;Node27</title>
<path fill="none" stroke="midnightblue" d="M1157.46,-174.463C1138.87,-172.483 1112.02,-169.78 1088.5,-168 939.379,-156.717 559.404,-176.079 416.5,-132 400.112,-126.945 399.462,-118.273 383.5,-112 312.872,-84.2444 288.703,-91.4459 210.155,-76.0726"/>
<polygon fill="midnightblue" stroke="midnightblue" points="210.795,-72.6312 200.3,-74.082 209.409,-79.4926 210.795,-72.6312"/>
</g>
<!-- Node8&#45;&gt;Node28 -->
<g id="edge59" class="edge"><title>Node8&#45;&gt;Node28</title>
<path fill="none" stroke="midnightblue" d="M1203.8,-169.879C1206.71,-169.158 1209.66,-168.506 1212.5,-168 1410.28,-132.765 1468.31,-170.26 1669.38,-131.749"/>
<polygon fill="midnightblue" stroke="midnightblue" points="1670.23,-135.149 1679.37,-129.795 1668.89,-128.279 1670.23,-135.149"/>
</g>
<!-- Node30 -->
<g id="node30" class="node"><title>Node30</title>
<g id="a_node30"><a xlink:href="a00046_source.html" target="_top" xlink:title="signalGen.h">
<polygon fill="white" stroke="black" points="1593.5,-112.5 1593.5,-131.5 1661.5,-131.5 1661.5,-112.5 1593.5,-112.5"/>
<text text-anchor="middle" x="1627.5" y="-119.5" font-family="Helvetica,sans-Serif" font-size="10.00">signalGen.h</text>
</a>
</g>
</g>
<!-- Node8&#45;&gt;Node30 -->
<g id="edge66" class="edge"><title>Node8&#45;&gt;Node30</title>
<path fill="none" stroke="midnightblue" d="M1203.81,-169.932C1206.72,-169.202 1209.66,-168.534 1212.5,-168 1373.57,-137.695 1417.25,-155.124 1579.5,-132 1580.77,-131.818 1582.07,-131.627 1583.37,-131.426"/>
<polygon fill="midnightblue" stroke="midnightblue" points="1584.18,-134.841 1593.47,-129.761 1583.04,-127.934 1584.18,-134.841"/>
</g>
<!-- Node8&#45;&gt;Node31 -->
<g id="edge70" class="edge"><title>Node8&#45;&gt;Node31</title>
<path fill="none" stroke="midnightblue" d="M1203.79,-169.844C1206.7,-169.129 1209.66,-168.488 1212.5,-168 1452.63,-126.795 1518.68,-168.93 1759.5,-132 1760.75,-131.808 1762.02,-131.595 1763.3,-131.365"/>
<polygon fill="midnightblue" stroke="midnightblue" points="1764.05,-134.783 1773.13,-129.33 1762.63,-127.928 1764.05,-134.783"/>
</g>
<!-- Node12&#45;&gt;Node5 -->
<g id="edge16" class="edge"><title>Node12&#45;&gt;Node5</title>
<path fill="none" stroke="midnightblue" d="M1074.31,-57.8069C1079.11,-57.1872 1083.89,-56.5771 1088.5,-56 1213.65,-40.3277 1362.13,-23.2181 1430.94,-15.3734"/>
<polygon fill="midnightblue" stroke="midnightblue" points="1431.74,-18.8046 1441.28,-14.1956 1430.95,-11.8495 1431.74,-18.8046"/>
</g>
<!-- Node12&#45;&gt;Node13 -->
<g id="edge14" class="edge"><title>Node12&#45;&gt;Node13</title>
<path fill="none" stroke="midnightblue" d="M1020.5,-56.083C1020.5,-49.0059 1020.5,-38.8611 1020.5,-29.9865"/>
<polygon fill="midnightblue" stroke="midnightblue" points="1024,-29.751 1020.5,-19.7511 1017,-29.7511 1024,-29.751"/>
</g>
<!-- Node12&#45;&gt;Node14 -->
<g id="edge15" class="edge"><title>Node12&#45;&gt;Node14</title>
<path fill="none" stroke="midnightblue" d="M966.921,-57.0297C963.737,-56.6543 960.578,-56.3069 957.5,-56 681.65,-28.5001 349.877,-16.4091 221.207,-12.5094"/>
<polygon fill="midnightblue" stroke="midnightblue" points="221.305,-9.01088 211.205,-12.2105 221.096,-16.0078 221.305,-9.01088"/>
</g>
<!-- Node15&#45;&gt;Node5 -->
<g id="edge19" class="edge"><title>Node15&#45;&gt;Node5</title>
<path fill="none" stroke="midnightblue" d="M1234.74,-112.424C1266.2,-104.621 1312.13,-91.9047 1350.5,-76 1385.67,-61.4209 1423.89,-39.3224 1447.28,-25.0227"/>
<polygon fill="midnightblue" stroke="midnightblue" points="1449.39,-27.833 1456.05,-19.5963 1445.7,-21.8796 1449.39,-27.833"/>
</g>
<!-- Node15&#45;&gt;Node13 -->
<g id="edge18" class="edge"><title>Node15&#45;&gt;Node13</title>
<path fill="none" stroke="midnightblue" d="M1210.63,-112.45C1228.65,-99.6854 1257.1,-75.1017 1241.5,-56 1219.83,-29.4679 1124.52,-18.1818 1066.37,-13.696"/>
<polygon fill="midnightblue" stroke="midnightblue" points="1066.55,-10.1999 1056.32,-12.9597 1066.04,-17.1812 1066.55,-10.1999"/>
</g>
<!-- Node16 -->
<g id="node16" class="node"><title>Node16</title>
<g id="a_node16"><a xlink:href="a00034.html" target="_top" xlink:title="Provides generic methods for GPIO module initialization and manipulation. ">
<polygon fill="white" stroke="black" points="1130.5,-56.5 1130.5,-75.5 1232.5,-75.5 1232.5,-56.5 1130.5,-56.5"/>
<text text-anchor="middle" x="1181.5" y="-63.5" font-family="Helvetica,sans-Serif" font-size="10.00">md_stm32f4_gpio.h</text>
</a>
</g>
</g>
<!-- Node15&#45;&gt;Node16 -->
<g id="edge20" class="edge"><title>Node15&#45;&gt;Node16</title>
<path fill="none" stroke="midnightblue" d="M1194.86,-112.083C1192.71,-104.849 1189.62,-94.4087 1186.95,-85.3968"/>
<polygon fill="midnightblue" stroke="midnightblue" points="1190.29,-84.3447 1184.09,-75.7511 1183.58,-86.3334 1190.29,-84.3447"/>
</g>
<!-- Node16&#45;&gt;Node13 -->
<g id="edge21" class="edge"><title>Node16&#45;&gt;Node13</title>
<path fill="none" stroke="midnightblue" d="M1155.99,-56.4435C1128.9,-47.3591 1085.91,-32.9388 1055.63,-22.7831"/>
<polygon fill="midnightblue" stroke="midnightblue" points="1056.49,-19.3781 1045.89,-19.5164 1054.26,-26.0148 1056.49,-19.3781"/>
</g>
<!-- Node16&#45;&gt;Node17 -->
<g id="edge22" class="edge"><title>Node16&#45;&gt;Node17</title>
<path fill="none" stroke="midnightblue" d="M1130.38,-60.3065C1114.99,-58.9062 1098.06,-57.3778 1082.5,-56 913.559,-41.039 713.799,-23.9997 617.735,-15.8461"/>
<polygon fill="midnightblue" stroke="midnightblue" points="617.913,-12.3488 607.653,-14.9907 617.321,-19.3237 617.913,-12.3488"/>
</g>
<!-- Node18&#45;&gt;Node13 -->
<g id="edge24" class="edge"><title>Node18&#45;&gt;Node13</title>
<path fill="none" stroke="midnightblue" d="M324.565,-57.0166C327.585,-56.6496 330.579,-56.3072 333.5,-56 574.176,-30.6889 863.881,-17.2665 974.516,-12.7598"/>
<polygon fill="midnightblue" stroke="midnightblue" points="974.805,-16.2511 984.656,-12.3514 974.523,-9.25679 974.805,-16.2511"/>
</g>
<!-- Node18&#45;&gt;Node14 -->
<g id="edge25" class="edge"><title>Node18&#45;&gt;Node14</title>
<path fill="none" stroke="midnightblue" d="M254.63,-56.324C237.791,-47.6641 211.693,-34.2424 192.262,-24.249"/>
<polygon fill="midnightblue" stroke="midnightblue" points="193.822,-21.1155 183.328,-19.6545 190.62,-27.3405 193.822,-21.1155"/>
</g>
<!-- Node18&#45;&gt;Node17 -->
<g id="edge26" class="edge"><title>Node18&#45;&gt;Node17</title>
<path fill="none" stroke="midnightblue" d="M317.293,-56.4435C368.237,-46.9246 450.534,-31.5472 505.074,-21.3563"/>
<polygon fill="midnightblue" stroke="midnightblue" points="505.734,-24.7937 514.921,-19.5164 504.449,-17.9128 505.734,-24.7937"/>
</g>
<!-- Node19&#45;&gt;Node5 -->
<g id="edge37" class="edge"><title>Node19&#45;&gt;Node5</title>
<path fill="none" stroke="midnightblue" d="M572.275,-119.445C692.469,-115.419 987.405,-103.024 1082.5,-76 1101.24,-70.6752 1102.9,-61.7794 1121.5,-56 1230.34,-22.1858 1365.96,-13.7614 1431.08,-11.6761"/>
<polygon fill="midnightblue" stroke="midnightblue" points="1431.39,-15.1688 1441.29,-11.3835 1431.19,-8.17164 1431.39,-15.1688"/>
</g>
<!-- Node19&#45;&gt;Node13 -->
<g id="edge28" class="edge"><title>Node19&#45;&gt;Node13</title>
<path fill="none" stroke="midnightblue" d="M529.82,-112.45C546.174,-98.0124 581.71,-69.0964 617.5,-56 682.194,-32.327 883.5,-18.5497 974.733,-13.3732"/>
<polygon fill="midnightblue" stroke="midnightblue" points="974.988,-16.8645 984.777,-12.8129 974.598,-9.8754 974.988,-16.8645"/>
</g>
<!-- Node19&#45;&gt;Node14 -->
<g id="edge29" class="edge"><title>Node19&#45;&gt;Node14</title>
<path fill="none" stroke="midnightblue" d="M468.74,-117.424C357.171,-109.468 103.028,-89.9075 90.5,-76 72.1776,-55.66 105.257,-35.7174 133.37,-23.3988"/>
<polygon fill="midnightblue" stroke="midnightblue" points="134.757,-26.6122 142.632,-19.5239 132.056,-20.1545 134.757,-26.6122"/>
</g>
<!-- Node19&#45;&gt;Node17 -->
<g id="edge30" class="edge"><title>Node19&#45;&gt;Node17</title>
<path fill="none" stroke="midnightblue" d="M523.639,-112.368C530.123,-94.5366 545.12,-53.2953 553.856,-29.2717"/>
<polygon fill="midnightblue" stroke="midnightblue" points="557.248,-30.1855 557.376,-19.5914 550.669,-27.7932 557.248,-30.1855"/>
</g>
<!-- Node20 -->
<g id="node20" class="node"><title>Node20</title>
<polygon fill="white" stroke="#bfbfbf" points="0,-0.5 0,-19.5 89,-19.5 89,-0.5 0,-0.5"/>
<text text-anchor="middle" x="44.5" y="-7.5" font-family="Helvetica,sans-Serif" font-size="10.00">stm32f4xx_tim.h</text>
</g>
<!-- Node19&#45;&gt;Node20 -->
<g id="edge31" class="edge"><title>Node19&#45;&gt;Node20</title>
<path fill="none" stroke="midnightblue" d="M468.973,-116.984C356.464,-108.042 97.5451,-86.4602 81.5,-76 65.0443,-65.2721 55.1165,-44.5245 49.7479,-29.3457"/>
<polygon fill="midnightblue" stroke="midnightblue" points="52.9828,-27.9689 46.6163,-19.5002 46.3121,-30.0907 52.9828,-27.9689"/>
</g>
<!-- Node21 -->
<g id="node21" class="node"><title>Node21</title>
<g id="a_node21"><a xlink:href="a00058_source.html" target="_top" xlink:title="tm_stm32f4_timer_properties.h">
<polygon fill="white" stroke="black" points="342.5,-56.5 342.5,-75.5 494.5,-75.5 494.5,-56.5 342.5,-56.5"/>
<text text-anchor="middle" x="418.5" y="-63.5" font-family="Helvetica,sans-Serif" font-size="10.00">tm_stm32f4_timer_properties.h</text>
</a>
</g>
</g>
<!-- Node19&#45;&gt;Node21 -->
<g id="edge32" class="edge"><title>Node19&#45;&gt;Node21</title>
<path fill="none" stroke="midnightblue" d="M504.112,-112.324C487.829,-103.703 462.633,-90.3643 443.784,-80.3855"/>
<polygon fill="midnightblue" stroke="midnightblue" points="445.323,-77.2402 434.847,-75.6545 442.048,-83.4267 445.323,-77.2402"/>
</g>
<!-- Node21&#45;&gt;Node5 -->
<g id="edge36" class="edge"><title>Node21&#45;&gt;Node5</title>
<path fill="none" stroke="midnightblue" d="M494.508,-61.0947C702.641,-50.4009 1276.57,-20.9128 1430.88,-12.9845"/>
<polygon fill="midnightblue" stroke="midnightblue" points="1431.44,-16.4601 1441.25,-12.4515 1431.08,-9.46928 1431.44,-16.4601"/>
</g>
<!-- Node21&#45;&gt;Node13 -->
<g id="edge33" class="edge"><title>Node21&#45;&gt;Node13</title>
<path fill="none" stroke="midnightblue" d="M494.744,-58.1609C621.532,-46.7879 871.928,-24.327 974.769,-15.1022"/>
<polygon fill="midnightblue" stroke="midnightblue" points="975.184,-18.579 984.831,-14.1995 974.558,-11.607 975.184,-18.579"/>
</g>
<!-- Node21&#45;&gt;Node14 -->
<g id="edge34" class="edge"><title>Node21&#45;&gt;Node14</title>
<path fill="none" stroke="midnightblue" d="M378.57,-56.4435C334.609,-47.0234 263.873,-31.8656 216.317,-21.6752"/>
<polygon fill="midnightblue" stroke="midnightblue" points="216.755,-18.1895 206.243,-19.5164 215.288,-25.0341 216.755,-18.1895"/>
</g>
<!-- Node21&#45;&gt;Node20 -->
<g id="edge35" class="edge"><title>Node21&#45;&gt;Node20</title>
<path fill="none" stroke="midnightblue" d="M359.239,-56.4435C287.828,-46.1329 168.81,-28.9485 99.4042,-18.9273"/>
<polygon fill="midnightblue" stroke="midnightblue" points="99.5183,-15.4076 89.1207,-17.4426 98.5179,-22.3358 99.5183,-15.4076"/>
</g>
<!-- Node22&#45;&gt;Node5 -->
<g id="edge45" class="edge"><title>Node22&#45;&gt;Node5</title>
<path fill="none" stroke="midnightblue" d="M926.57,-117.184C998.079,-111.361 1130.46,-98.494 1241.5,-76 1311.11,-61.8988 1390.47,-37.2747 1434.81,-22.7207"/>
<polygon fill="midnightblue" stroke="midnightblue" points="1436.12,-25.9751 1444.51,-19.5127 1433.92,-19.3289 1436.12,-25.9751"/>
</g>
<!-- Node22&#45;&gt;Node7 -->
<g id="edge39" class="edge"><title>Node22&#45;&gt;Node7</title>
<path fill="none" stroke="midnightblue" d="M882.922,-112.083C890.348,-104.22 901.352,-92.5688 910.312,-83.0813"/>
<polygon fill="midnightblue" stroke="midnightblue" points="912.913,-85.4244 917.235,-75.7511 907.824,-80.618 912.913,-85.4244"/>
</g>
<!-- Node22&#45;&gt;Node11 -->
<g id="edge44" class="edge"><title>Node22&#45;&gt;Node11</title>
<path fill="none" stroke="midnightblue" d="M840.433,-112.444C802.883,-103.012 742.436,-87.8305 701.862,-77.6397"/>
<polygon fill="midnightblue" stroke="midnightblue" points="702.552,-74.2044 692.001,-75.1629 700.847,-80.9936 702.552,-74.2044"/>
</g>
<!-- Node22&#45;&gt;Node13 -->
<g id="edge40" class="edge"><title>Node22&#45;&gt;Node13</title>
<path fill="none" stroke="midnightblue" d="M874.637,-112.198C875.325,-98.4216 878.639,-71.72 893.5,-56 914.66,-33.6171 947.653,-22.3545 974.707,-16.6942"/>
<polygon fill="midnightblue" stroke="midnightblue" points="975.577,-20.0917 984.748,-14.7876 974.271,-13.2146 975.577,-20.0917"/>
</g>
<!-- Node22&#45;&gt;Node14 -->
<g id="edge41" class="edge"><title>Node22&#45;&gt;Node14</title>
<path fill="none" stroke="midnightblue" d="M822.344,-118.828C654.035,-111.699 135.499,-88.7394 123.5,-76 108.99,-60.5948 128.261,-39.7507 145.451,-25.864"/>
<polygon fill="midnightblue" stroke="midnightblue" points="147.747,-28.5143 153.566,-19.6602 143.496,-22.9533 147.747,-28.5143"/>
</g>
<!-- Node22&#45;&gt;Node16 -->
<g id="edge46" class="edge"><title>Node22&#45;&gt;Node16</title>
<path fill="none" stroke="midnightblue" d="M923.145,-112.444C977.374,-102.905 1065.05,-87.4834 1122.98,-77.293"/>
<polygon fill="midnightblue" stroke="midnightblue" points="1123.84,-80.696 1133.08,-75.5164 1122.63,-73.8018 1123.84,-80.696"/>
</g>
<!-- Node22&#45;&gt;Node17 -->
<g id="edge42" class="edge"><title>Node22&#45;&gt;Node17</title>
<path fill="none" stroke="midnightblue" d="M844.526,-112.441C816.846,-104.202 774.803,-90.8345 739.5,-76 721.541,-68.4537 718.499,-63.4496 700.5,-56 668.145,-42.6087 630.273,-30.6495 602.083,-22.4319"/>
<polygon fill="midnightblue" stroke="midnightblue" points="602.742,-18.9794 592.164,-19.5779 600.806,-25.7065 602.742,-18.9794"/>
</g>
<!-- Node23 -->
<g id="node23" class="node"><title>Node23</title>
<polygon fill="white" stroke="#bfbfbf" points="748.5,-56.5 748.5,-75.5 846.5,-75.5 846.5,-56.5 748.5,-56.5"/>
<text text-anchor="middle" x="797.5" y="-63.5" font-family="Helvetica,sans-Serif" font-size="10.00">stm32f4xx_usart.h</text>
</g>
<!-- Node22&#45;&gt;Node23 -->
<g id="edge43" class="edge"><title>Node22&#45;&gt;Node23</title>
<path fill="none" stroke="midnightblue" d="M862.129,-112.324C850.342,-104.058 832.368,-91.4527 818.364,-81.6322"/>
<polygon fill="midnightblue" stroke="midnightblue" points="820.038,-78.5307 809.841,-75.6545 816.018,-84.2619 820.038,-78.5307"/>
</g>
<!-- Node26&#45;&gt;Node4 -->
<g id="edge54" class="edge"><title>Node26&#45;&gt;Node4</title>
<path fill="none" stroke="midnightblue" d="M1847.89,-131.59C1802.34,-144.301 1713.99,-168.699 1638.5,-188 1591.04,-200.135 1536.56,-213.14 1498.7,-222.033"/>
<polygon fill="midnightblue" stroke="midnightblue" points="1497.41,-218.738 1488.48,-224.428 1499.01,-225.554 1497.41,-218.738"/>
</g>
<!-- Node26&#45;&gt;Node5 -->
<g id="edge53" class="edge"><title>Node26&#45;&gt;Node5</title>
<path fill="none" stroke="midnightblue" d="M1906.64,-112.472C1939.38,-101.187 1986.33,-79.9084 1964.5,-56 1933.85,-22.4351 1618.33,-13.6378 1507.63,-11.5755"/>
<polygon fill="midnightblue" stroke="midnightblue" points="1507.63,-8.07507 1497.57,-11.3963 1507.51,-15.074 1507.63,-8.07507"/>
</g>
<!-- Node26&#45;&gt;Node8 -->
<g id="edge52" class="edge"><title>Node26&#45;&gt;Node8</title>
<path fill="none" stroke="midnightblue" d="M1841.22,-131.532C1839.97,-131.698 1838.73,-131.854 1837.5,-132 1565.17,-164.35 1491.96,-122.611 1221.5,-168 1218.92,-168.433 1216.25,-168.994 1213.56,-169.626"/>
<polygon fill="midnightblue" stroke="midnightblue" points="1212.62,-166.253 1203.79,-172.111 1214.34,-173.037 1212.62,-166.253"/>
</g>
<!-- Node27&#45;&gt;Node13 -->
<g id="edge56" class="edge"><title>Node27&#45;&gt;Node13</title>
<path fill="none" stroke="midnightblue" d="M200.219,-57.4408C203.346,-56.8916 206.475,-56.3981 209.5,-56 498.86,-17.9117 850.43,-11.9968 974.488,-11.1283"/>
<polygon fill="midnightblue" stroke="midnightblue" points="974.771,-14.6267 984.749,-11.0645 974.727,-7.62684 974.771,-14.6267"/>
</g>
<!-- Node27&#45;&gt;Node14 -->
<g id="edge58" class="edge"><title>Node27&#45;&gt;Node14</title>
<path fill="none" stroke="midnightblue" d="M166.5,-56.083C166.5,-49.0059 166.5,-38.8611 166.5,-29.9865"/>
<polygon fill="midnightblue" stroke="midnightblue" points="170,-29.751 166.5,-19.7511 163,-29.7511 170,-29.751"/>
</g>
<!-- Node27&#45;&gt;Node17 -->
<g id="edge57" class="edge"><title>Node27&#45;&gt;Node17</title>
<path fill="none" stroke="midnightblue" d="M200.253,-57.6731C203.373,-57.0751 206.492,-56.5069 209.5,-56 312.503,-38.6455 433.511,-24.4938 503.174,-16.9455"/>
<polygon fill="midnightblue" stroke="midnightblue" points="503.919,-20.3856 513.488,-15.8357 503.17,-13.4258 503.919,-20.3856"/>
</g>
<!-- Node28&#45;&gt;Node3 -->
<g id="edge61" class="edge"><title>Node28&#45;&gt;Node3</title>
<path fill="none" stroke="midnightblue" d="M1717.75,-114.379C1743.83,-105.408 1790.78,-89.2616 1822.53,-78.34"/>
<polygon fill="midnightblue" stroke="midnightblue" points="1823.94,-81.5556 1832.26,-74.9933 1821.67,-74.9362 1823.94,-81.5556"/>
</g>
<!-- Node28&#45;&gt;Node5 -->
<g id="edge65" class="edge"><title>Node28&#45;&gt;Node5</title>
<path fill="none" stroke="midnightblue" d="M1704.42,-112.342C1712.91,-98.7643 1726.08,-72.3292 1712.5,-56 1686.89,-25.2087 1569.39,-15.3951 1507.65,-12.3383"/>
<polygon fill="midnightblue" stroke="midnightblue" points="1507.67,-8.8358 1497.52,-11.8729 1507.35,-15.8284 1507.67,-8.8358"/>
</g>
<!-- Node28&#45;&gt;Node9 -->
<g id="edge60" class="edge"><title>Node28&#45;&gt;Node9</title>
<path fill="none" stroke="midnightblue" d="M1679.49,-112.444C1659.91,-103.636 1629.19,-89.8116 1606.77,-79.722"/>
<polygon fill="midnightblue" stroke="midnightblue" points="1607.98,-76.4284 1597.43,-75.5164 1605.11,-82.8119 1607.98,-76.4284"/>
</g>
<!-- Node28&#45;&gt;Node10 -->
<g id="edge62" class="edge"><title>Node28&#45;&gt;Node10</title>
<path fill="none" stroke="midnightblue" d="M1689.75,-112.083C1682.03,-104.22 1670.6,-92.5688 1661.28,-83.0813"/>
<polygon fill="midnightblue" stroke="midnightblue" points="1663.59,-80.4363 1654.09,-75.7511 1658.6,-85.3396 1663.59,-80.4363"/>
</g>
<!-- Node28&#45;&gt;Node13 -->
<g id="edge64" class="edge"><title>Node28&#45;&gt;Node13</title>
<path fill="none" stroke="midnightblue" d="M1698.69,-112.138C1698.47,-97.7737 1695.71,-69.6423 1678.5,-56 1630.74,-18.1368 1207.24,-12.1277 1066.07,-11.1774"/>
<polygon fill="midnightblue" stroke="midnightblue" points="1066.03,-7.67723 1056.01,-11.1152 1065.99,-14.6771 1066.03,-7.67723"/>
</g>
<!-- Node29 -->
<g id="node29" class="node"><title>Node29</title>
<polygon fill="white" stroke="#bfbfbf" points="1765,-56.5 1765,-75.5 1814,-75.5 1814,-56.5 1765,-56.5"/>
<text text-anchor="middle" x="1789.5" y="-63.5" font-family="Helvetica,sans-Serif" font-size="10.00">stdint.h</text>
</g>
<!-- Node28&#45;&gt;Node29 -->
<g id="edge63" class="edge"><title>Node28&#45;&gt;Node29</title>
<path fill="none" stroke="midnightblue" d="M1713.12,-112.324C1727.45,-103.822 1749.51,-90.7288 1766.25,-80.7975"/>
<polygon fill="midnightblue" stroke="midnightblue" points="1768.1,-83.7677 1774.92,-75.6545 1764.53,-77.7478 1768.1,-83.7677"/>
</g>
<!-- Node30&#45;&gt;Node3 -->
<g id="edge69" class="edge"><title>Node30&#45;&gt;Node3</title>
<path fill="none" stroke="midnightblue" d="M1661.77,-113.522C1700.79,-104.906 1766.4,-90.1171 1822.5,-76 1822.6,-75.9746 1822.7,-75.9492 1822.8,-75.9237"/>
<polygon fill="midnightblue" stroke="midnightblue" points="1823.66,-79.3182 1832.45,-73.4104 1821.89,-72.5442 1823.66,-79.3182"/>
</g>
<!-- Node30&#45;&gt;Node9 -->
<g id="edge68" class="edge"><title>Node30&#45;&gt;Node9</title>
<path fill="none" stroke="midnightblue" d="M1619.41,-112.083C1612.34,-104.298 1601.91,-92.8015 1593.35,-83.3665"/>
<polygon fill="midnightblue" stroke="midnightblue" points="1595.75,-80.8047 1586.44,-75.7511 1590.57,-85.5087 1595.75,-80.8047"/>
</g>
<!-- Node30&#45;&gt;Node10 -->
<g id="edge67" class="edge"><title>Node30&#45;&gt;Node10</title>
<path fill="none" stroke="midnightblue" d="M1630.47,-112.083C1632.88,-104.849 1636.36,-94.4087 1639.37,-85.3968"/>
<polygon fill="midnightblue" stroke="midnightblue" points="1642.74,-86.3447 1642.58,-75.7511 1636.1,-84.1311 1642.74,-86.3447"/>
</g>
<!-- Node31&#45;&gt;Node3 -->
<g id="edge71" class="edge"><title>Node31&#45;&gt;Node3</title>
<path fill="none" stroke="midnightblue" d="M1805.98,-112.324C1814.7,-104.341 1827.84,-92.3128 1838.4,-82.6529"/>
<polygon fill="midnightblue" stroke="midnightblue" points="1840.83,-85.1674 1845.85,-75.8339 1836.11,-80.0036 1840.83,-85.1674"/>
</g>
<!-- Node31&#45;&gt;Node9 -->
<g id="edge73" class="edge"><title>Node31&#45;&gt;Node9</title>
<path fill="none" stroke="midnightblue" d="M1773.38,-115.592C1740.02,-107.744 1676.22,-92.562 1612.45,-76.193"/>
<polygon fill="midnightblue" stroke="midnightblue" points="1613.19,-72.7694 1602.63,-73.6636 1611.44,-79.548 1613.19,-72.7694"/>
</g>
<!-- Node31&#45;&gt;Node10 -->
<g id="edge72" class="edge"><title>Node31&#45;&gt;Node10</title>
<path fill="none" stroke="midnightblue" d="M1773.24,-112.681C1748,-103.656 1707.5,-89.1709 1678.87,-78.9345"/>
<polygon fill="midnightblue" stroke="midnightblue" points="1679.88,-75.5787 1669.29,-75.5069 1677.53,-82.1699 1679.88,-75.5787"/>
</g>
<!-- Node32 -->
<g id="node32" class="node"><title>Node32</title>
<polygon fill="white" stroke="#bfbfbf" points="1897,-56.5 1897,-75.5 1956,-75.5 1956,-56.5 1897,-56.5"/>
<text text-anchor="middle" x="1926.5" y="-63.5" font-family="Helvetica,sans-Serif" font-size="10.00">inttypes.h</text>
</g>
<!-- Node31&#45;&gt;Node32 -->
<g id="edge74" class="edge"><title>Node31&#45;&gt;Node32</title>
<path fill="none" stroke="midnightblue" d="M1817.1,-112.444C1838.49,-103.557 1872.18,-89.5632 1896.52,-79.4514"/>
<polygon fill="midnightblue" stroke="midnightblue" points="1898.11,-82.5848 1906,-75.5164 1895.42,-76.1203 1898.11,-82.5848"/>
</g>
<!-- Node33&#45;&gt;Node5 -->
<g id="edge77" class="edge"><title>Node33&#45;&gt;Node5</title>
<path fill="none" stroke="midnightblue" d="M1385.72,-112.213C1397.06,-103.715 1414,-90.0863 1426.5,-76 1439.65,-61.1763 1451.83,-42.0403 1459.84,-28.3774"/>
<polygon fill="midnightblue" stroke="midnightblue" points="1462.97,-29.9546 1464.89,-19.5359 1456.89,-26.4809 1462.97,-29.9546"/>
</g>
<!-- Node33&#45;&gt;Node13 -->
<g id="edge76" class="edge"><title>Node33&#45;&gt;Node13</title>
<path fill="none" stroke="midnightblue" d="M1368.02,-112.088C1358.63,-97.6523 1337.97,-69.4203 1312.5,-56 1270.6,-33.9192 1137.21,-20.2786 1066.12,-14.3913"/>
<polygon fill="midnightblue" stroke="midnightblue" points="1066.35,-10.8988 1056.1,-13.5789 1065.79,-17.8759 1066.35,-10.8988"/>
</g>
<!-- Node33&#45;&gt;Node16 -->
<g id="edge78" class="edge"><title>Node33&#45;&gt;Node16</title>
<path fill="none" stroke="midnightblue" d="M1343.08,-112.444C1310.22,-103.201 1257.72,-88.4356 1221.53,-78.2572"/>
<polygon fill="midnightblue" stroke="midnightblue" points="1222.35,-74.8547 1211.78,-75.5164 1220.46,-81.5932 1222.35,-74.8547"/>
</g>
</g>
</svg>
