<?xml version="1.0" encoding="UTF-8" standalone="no"?>
<!DOCTYPE svg PUBLIC "-//W3C//DTD SVG 1.1//EN"
 "http://www.w3.org/Graphics/SVG/1.1/DTD/svg11.dtd">
<!-- Generated by graphviz version 2.38.0 (20140413.2041)
 -->
<!-- Title: main.c Pages: 1 -->
<svg width="2106pt" height="364pt"
 viewBox="0.00 0.00 2105.98 364.00" xmlns="http://www.w3.org/2000/svg" xmlns:xlink="http://www.w3.org/1999/xlink">
<g id="graph0" class="graph" transform="scale(1 1) rotate(0) translate(4 360)">
<title>main.c</title>
<polygon fill="white" stroke="none" points="-4,4 -4,-360 2101.98,-360 2101.98,4 -4,4"/>
<!-- Node1 -->
<g id="node1" class="node"><title>Node1</title>
<polygon fill="#bfbfbf" stroke="black" points="636,-336.5 636,-355.5 682,-355.5 682,-336.5 636,-336.5"/>
<text text-anchor="middle" x="659" y="-343.5" font-family="Helvetica,sans-Serif" font-size="10.00">main.c</text>
</g>
<!-- Node2 -->
<g id="node2" class="node"><title>Node2</title>
<g id="a_node2"><a xlink:href="a00024.html" target="_top" xlink:title="Main header definition. ">
<polygon fill="white" stroke="black" points="636,-280.5 636,-299.5 682,-299.5 682,-280.5 636,-280.5"/>
<text text-anchor="middle" x="659" y="-287.5" font-family="Helvetica,sans-Serif" font-size="10.00">main.h</text>
</a>
</g>
</g>
<!-- Node1&#45;&gt;Node2 -->
<g id="edge1" class="edge"><title>Node1&#45;&gt;Node2</title>
<path fill="none" stroke="midnightblue" d="M659,-336.083C659,-329.006 659,-318.861 659,-309.986"/>
<polygon fill="midnightblue" stroke="midnightblue" points="662.5,-309.751 659,-299.751 655.5,-309.751 662.5,-309.751"/>
</g>
<!-- Node5 -->
<g id="node5" class="node"><title>Node5</title>
<polygon fill="white" stroke="#bfbfbf" points="24.5,-0.5 24.5,-19.5 73.5,-19.5 73.5,-0.5 24.5,-0.5"/>
<text text-anchor="middle" x="49" y="-7.5" font-family="Helvetica,sans-Serif" font-size="10.00">string.h</text>
</g>
<!-- Node1&#45;&gt;Node5 -->
<g id="edge88" class="edge"><title>Node1&#45;&gt;Node5</title>
<path fill="none" stroke="midnightblue" d="M635.932,-343.643C519.294,-336.482 0,-300.898 0,-235 0,-235 0,-235 0,-121 0,-85.4659 21.6,-48.627 36.1178,-27.8799"/>
<polygon fill="midnightblue" stroke="midnightblue" points="39.1314,-29.6871 42.1868,-19.5423 33.4719,-25.5675 39.1314,-29.6871"/>
</g>
<!-- Node38 -->
<g id="node38" class="node"><title>Node38</title>
<g id="a_node38"><a xlink:href="a00014.html" target="_top" xlink:title="Table 29. Thumb architecture versions in relation to ARM architecture versions ">
<polygon fill="white" stroke="black" points="700,-280.5 700,-299.5 784,-299.5 784,-280.5 700,-280.5"/>
<text text-anchor="middle" x="742" y="-287.5" font-family="Helvetica,sans-Serif" font-size="10.00">arm_architect.h</text>
</a>
</g>
</g>
<!-- Node1&#45;&gt;Node38 -->
<g id="edge89" class="edge"><title>Node1&#45;&gt;Node38</title>
<path fill="none" stroke="midnightblue" d="M672.335,-336.324C685.162,-327.979 704.785,-315.212 719.94,-305.352"/>
<polygon fill="midnightblue" stroke="midnightblue" points="722.224,-308.042 728.698,-299.655 718.407,-302.174 722.224,-308.042"/>
</g>
<!-- Node3 -->
<g id="node3" class="node"><title>Node3</title>
<polygon fill="white" stroke="#bfbfbf" points="103,-0.5 103,-19.5 149,-19.5 149,-0.5 103,-0.5"/>
<text text-anchor="middle" x="126" y="-7.5" font-family="Helvetica,sans-Serif" font-size="10.00">stdio.h</text>
</g>
<!-- Node2&#45;&gt;Node3 -->
<g id="edge2" class="edge"><title>Node2&#45;&gt;Node3</title>
<path fill="none" stroke="midnightblue" d="M635.731,-288.498C550.228,-286.406 253.834,-276.886 166,-244 119.791,-226.699 76,-228.341 76,-179 76,-179 76,-179 76,-121 76,-85.1842 98.2399,-48.214 113.055,-27.5601"/>
<polygon fill="midnightblue" stroke="midnightblue" points="115.878,-29.6289 119.048,-19.5193 110.265,-25.4456 115.878,-29.6289"/>
</g>
<!-- Node4 -->
<g id="node4" class="node"><title>Node4</title>
<polygon fill="white" stroke="#bfbfbf" points="245,-0.5 245,-19.5 293,-19.5 293,-0.5 245,-0.5"/>
<text text-anchor="middle" x="269" y="-7.5" font-family="Helvetica,sans-Serif" font-size="10.00">stdlib.h</text>
</g>
<!-- Node2&#45;&gt;Node4 -->
<g id="edge3" class="edge"><title>Node2&#45;&gt;Node4</title>
<path fill="none" stroke="midnightblue" d="M635.852,-287.048C580.119,-282.024 440.123,-267.379 400,-244 366.725,-224.612 283.993,-88.8216 279,-76 273.232,-61.1882 270.78,-43.2631 269.743,-29.9913"/>
<polygon fill="midnightblue" stroke="midnightblue" points="273.221,-29.5023 269.149,-19.7213 266.233,-29.9069 273.221,-29.5023"/>
</g>
<!-- Node2&#45;&gt;Node5 -->
<g id="edge4" class="edge"><title>Node2&#45;&gt;Node5</title>
<path fill="none" stroke="midnightblue" d="M635.745,-289.252C542.888,-289.938 199.024,-289.308 102,-244 65.2659,-226.846 38,-219.542 38,-179 38,-179 38,-179 38,-121 38,-88.7881 42.7281,-51.5325 45.9847,-29.692"/>
<polygon fill="midnightblue" stroke="midnightblue" points="49.4869,-29.9472 47.5619,-19.5287 42.5697,-28.8736 49.4869,-29.9472"/>
</g>
<!-- Node6 -->
<g id="node6" class="node"><title>Node6</title>
<polygon fill="white" stroke="#bfbfbf" points="1253,-224.5 1253,-243.5 1321,-243.5 1321,-224.5 1253,-224.5"/>
<text text-anchor="middle" x="1287" y="-231.5" font-family="Helvetica,sans-Serif" font-size="10.00">stdint&#45;gcc.h</text>
</g>
<!-- Node2&#45;&gt;Node6 -->
<g id="edge5" class="edge"><title>Node2&#45;&gt;Node6</title>
<path fill="none" stroke="midnightblue" d="M682.29,-281.844C685.202,-281.128 688.156,-280.488 691,-280 931.567,-238.734 996.838,-274.545 1239,-244 1240.28,-243.839 1241.57,-243.665 1242.88,-243.481"/>
<polygon fill="midnightblue" stroke="midnightblue" points="1243.65,-246.902 1252.99,-241.897 1242.57,-239.987 1243.65,-246.902"/>
</g>
<!-- Node7 -->
<g id="node7" class="node"><title>Node7</title>
<g id="a_node7"><a xlink:href="a00015.html" target="_top" xlink:title="Platform/Compiler dependent definitions. ">
<polygon fill="white" stroke="black" points="1996.5,-56.5 1996.5,-75.5 2061.5,-75.5 2061.5,-56.5 1996.5,-56.5"/>
<text text-anchor="middle" x="2029" y="-63.5" font-family="Helvetica,sans-Serif" font-size="10.00">attributes.h</text>
</a>
</g>
</g>
<!-- Node2&#45;&gt;Node7 -->
<g id="edge6" class="edge"><title>Node2&#45;&gt;Node7</title>
<path fill="none" stroke="midnightblue" d="M682.28,-281.785C685.194,-281.08 688.151,-280.458 691,-280 1047.23,-222.78 1147.14,-309.207 1502,-244 1658.06,-215.323 1690.68,-182.815 1841,-132 1895.06,-113.726 1957.65,-91.9626 1995.25,-78.8273"/>
<polygon fill="midnightblue" stroke="midnightblue" points="1996.42,-82.1259 2004.7,-75.5213 1994.11,-75.5182 1996.42,-82.1259"/>
</g>
<!-- Node8 -->
<g id="node8" class="node"><title>Node8</title>
<g id="a_node8"><a xlink:href="a00018.html" target="_top" xlink:title="Global defines include file. ">
<polygon fill="white" stroke="black" points="679,-0.5 679,-19.5 735,-19.5 735,-0.5 679,-0.5"/>
<text text-anchor="middle" x="707" y="-7.5" font-family="Helvetica,sans-Serif" font-size="10.00">globals.h</text>
</a>
</g>
</g>
<!-- Node2&#45;&gt;Node8 -->
<g id="edge7" class="edge"><title>Node2&#45;&gt;Node8</title>
<path fill="none" stroke="midnightblue" d="M662.911,-280.365C670.827,-262.073 688,-217.907 688,-179 688,-179 688,-179 688,-121 688,-88.4885 696.159,-51.3503 701.784,-29.6103"/>
<polygon fill="midnightblue" stroke="midnightblue" points="705.218,-30.3175 704.438,-19.7514 698.459,-28.498 705.218,-30.3175"/>
</g>
<!-- Node9 -->
<g id="node9" class="node"><title>Node9</title>
<g id="a_node9"><a xlink:href="a00030.html" target="_top" xlink:title="Provides SysTick&#45;Timer driven delay functions. ">
<polygon fill="white" stroke="black" points="998.5,-56.5 998.5,-75.5 1105.5,-75.5 1105.5,-56.5 998.5,-56.5"/>
<text text-anchor="middle" x="1052" y="-63.5" font-family="Helvetica,sans-Serif" font-size="10.00">md_stm32f4_delay.h</text>
</a>
</g>
</g>
<!-- Node2&#45;&gt;Node9 -->
<g id="edge8" class="edge"><title>Node2&#45;&gt;Node9</title>
<path fill="none" stroke="midnightblue" d="M678.055,-280.409C697.685,-271.5 729.121,-257.071 756,-244 805.335,-220.008 818.496,-215.44 866,-188 927.592,-152.421 997.095,-105.22 1031.06,-81.6704"/>
<polygon fill="midnightblue" stroke="midnightblue" points="1033.45,-84.2698 1039.66,-75.6846 1029.45,-78.5244 1033.45,-84.2698"/>
</g>
<!-- Node12 -->
<g id="node12" class="node"><title>Node12</title>
<g id="a_node12"><a xlink:href="a00032.html" target="_top" xlink:title="Definitions to extend board support for STM32F429i&#45;DISCO and equivalent boards. ">
<polygon fill="white" stroke="black" points="1602.5,-112.5 1602.5,-131.5 1709.5,-131.5 1709.5,-112.5 1602.5,-112.5"/>
<text text-anchor="middle" x="1656" y="-119.5" font-family="Helvetica,sans-Serif" font-size="10.00">md_stm32f4_disco.h</text>
</a>
</g>
</g>
<!-- Node2&#45;&gt;Node12 -->
<g id="edge12" class="edge"><title>Node2&#45;&gt;Node12</title>
<path fill="none" stroke="midnightblue" d="M682.295,-281.873C685.206,-281.153 688.159,-280.503 691,-280 794.584,-261.67 1072.87,-298.246 1163,-244 1197.23,-223.398 1177.03,-189.022 1211,-168 1242.69,-148.392 1477.05,-132.888 1592.33,-126.358"/>
<polygon fill="midnightblue" stroke="midnightblue" points="1592.65,-129.846 1602.44,-125.792 1592.26,-122.857 1592.65,-129.846"/>
</g>
<!-- Node14 -->
<g id="node14" class="node"><title>Node14</title>
<g id="a_node14"><a xlink:href="a00036_source.html" target="_top" xlink:title="md_stm32f4_timer.h">
<polygon fill="white" stroke="black" points="1484,-56.5 1484,-75.5 1590,-75.5 1590,-56.5 1484,-56.5"/>
<text text-anchor="middle" x="1537" y="-63.5" font-family="Helvetica,sans-Serif" font-size="10.00">md_stm32f4_timer.h</text>
</a>
</g>
</g>
<!-- Node2&#45;&gt;Node14 -->
<g id="edge17" class="edge"><title>Node2&#45;&gt;Node14</title>
<path fill="none" stroke="midnightblue" d="M682.308,-281.942C685.217,-281.21 688.165,-280.539 691,-280 846.365,-250.481 893.552,-289.534 1045,-244 1114.68,-223.051 1122.51,-195.191 1190,-168 1293.51,-126.294 1420.7,-93.785 1488.69,-77.8265"/>
<polygon fill="midnightblue" stroke="midnightblue" points="1489.74,-81.1767 1498.68,-75.5007 1488.15,-74.359 1489.74,-81.1767"/>
</g>
<!-- Node15 -->
<g id="node15" class="node"><title>Node15</title>
<g id="a_node15"><a xlink:href="a00056_source.html" target="_top" xlink:title="tm_stm32f4_pwm.h">
<polygon fill="white" stroke="black" points="1089.5,-112.5 1089.5,-131.5 1192.5,-131.5 1192.5,-112.5 1089.5,-112.5"/>
<text text-anchor="middle" x="1141" y="-119.5" font-family="Helvetica,sans-Serif" font-size="10.00">tm_stm32f4_pwm.h</text>
</a>
</g>
</g>
<!-- Node2&#45;&gt;Node15 -->
<g id="edge20" class="edge"><title>Node2&#45;&gt;Node15</title>
<path fill="none" stroke="midnightblue" d="M682.313,-281.969C685.221,-281.232 688.168,-280.552 691,-280 832.774,-252.354 883.075,-305.015 1014,-244 1065.34,-220.076 1109.11,-167.053 1129.21,-139.837"/>
<polygon fill="midnightblue" stroke="midnightblue" points="1132.09,-141.833 1135.1,-131.675 1126.41,-137.737 1132.09,-141.833"/>
</g>
<!-- Node18 -->
<g id="node18" class="node"><title>Node18</title>
<g id="a_node18"><a xlink:href="a00060_source.html" target="_top" xlink:title="tm_stm32f4_usart.h">
<polygon fill="white" stroke="black" points="1728,-112.5 1728,-131.5 1832,-131.5 1832,-112.5 1728,-112.5"/>
<text text-anchor="middle" x="1780" y="-119.5" font-family="Helvetica,sans-Serif" font-size="10.00">tm_stm32f4_usart.h</text>
</a>
</g>
</g>
<!-- Node2&#45;&gt;Node18 -->
<g id="edge31" class="edge"><title>Node2&#45;&gt;Node18</title>
<path fill="none" stroke="midnightblue" d="M682.293,-281.862C685.205,-281.144 688.158,-280.498 691,-280 908.713,-241.886 970.602,-288.984 1187,-244 1213.29,-238.536 1218.07,-230.95 1244,-224 1333.32,-200.062 1598.33,-153.863 1718.97,-133.302"/>
<polygon fill="midnightblue" stroke="midnightblue" points="1719.87,-136.699 1729.14,-131.571 1718.69,-129.799 1719.87,-136.699"/>
</g>
<!-- Node21 -->
<g id="node21" class="node"><title>Node21</title>
<polygon fill="white" stroke="#bfbfbf" points="1339,-224.5 1339,-243.5 1407,-243.5 1407,-224.5 1339,-224.5"/>
<text text-anchor="middle" x="1373" y="-231.5" font-family="Helvetica,sans-Serif" font-size="10.00">core_cm4.h</text>
</g>
<!-- Node2&#45;&gt;Node21 -->
<g id="edge39" class="edge"><title>Node2&#45;&gt;Node21</title>
<path fill="none" stroke="midnightblue" d="M682.286,-281.818C685.199,-281.107 688.154,-280.475 691,-280 968.289,-233.764 1046.18,-280.129 1328.68,-243.96"/>
<polygon fill="midnightblue" stroke="midnightblue" points="1329.35,-247.402 1338.81,-242.638 1328.44,-240.461 1329.35,-247.402"/>
</g>
<!-- Node22 -->
<g id="node22" class="node"><title>Node22</title>
<polygon fill="white" stroke="#bfbfbf" points="1425,-224.5 1425,-243.5 1493,-243.5 1493,-224.5 1425,-224.5"/>
<text text-anchor="middle" x="1459" y="-231.5" font-family="Helvetica,sans-Serif" font-size="10.00">arm_math.h</text>
</g>
<!-- Node2&#45;&gt;Node22 -->
<g id="edge40" class="edge"><title>Node2&#45;&gt;Node22</title>
<path fill="none" stroke="midnightblue" d="M682.283,-281.799C685.196,-281.092 688.152,-280.465 691,-280 1006.14,-228.532 1094.22,-284.012 1414.78,-243.936"/>
<polygon fill="midnightblue" stroke="midnightblue" points="1415.34,-247.393 1424.81,-242.659 1414.45,-240.449 1415.34,-247.393"/>
</g>
<!-- Node23 -->
<g id="node23" class="node"><title>Node23</title>
<g id="a_node23"><a xlink:href="a00045.html" target="_top" xlink:title="PID compensator implementation. ">
<polygon fill="white" stroke="black" points="288,-56.5 288,-75.5 326,-75.5 326,-56.5 288,-56.5"/>
<text text-anchor="middle" x="307" y="-63.5" font-family="Helvetica,sans-Serif" font-size="10.00">pid.h</text>
</a>
</g>
</g>
<!-- Node2&#45;&gt;Node23 -->
<g id="edge41" class="edge"><title>Node2&#45;&gt;Node23</title>
<path fill="none" stroke="midnightblue" d="M635.835,-289.715C592.024,-289.999 495.468,-285.432 429,-244 367.023,-205.367 328.512,-122.376 313.805,-85.4132"/>
<polygon fill="midnightblue" stroke="midnightblue" points="317.002,-83.9767 310.146,-75.8996 310.469,-86.4896 317.002,-83.9767"/>
</g>
<!-- Node25 -->
<g id="node25" class="node"><title>Node25</title>
<g id="a_node25"><a xlink:href="a00011.html" target="_top" xlink:title="Controlling beam and primary actuators. ">
<polygon fill="white" stroke="black" points="438.5,-224.5 438.5,-243.5 503.5,-243.5 503.5,-224.5 438.5,-224.5"/>
<text text-anchor="middle" x="471" y="-231.5" font-family="Helvetica,sans-Serif" font-size="10.00">actuators.h</text>
</a>
</g>
</g>
<!-- Node2&#45;&gt;Node25 -->
<g id="edge48" class="edge"><title>Node2&#45;&gt;Node25</title>
<path fill="none" stroke="midnightblue" d="M635.948,-282.379C604.715,-273.408 548.501,-257.261 510.477,-246.339"/>
<polygon fill="midnightblue" stroke="midnightblue" points="511.328,-242.942 500.75,-243.545 509.395,-249.67 511.328,-242.942"/>
</g>
<!-- Node26 -->
<g id="node26" class="node"><title>Node26</title>
<g id="a_node26"><a xlink:href="a00013.html" target="_top" xlink:title="Provides DMA related configuration and access functions for ADC and DAC. ">
<polygon fill="white" stroke="black" points="498,-112.5 498,-131.5 584,-131.5 584,-112.5 498,-112.5"/>
<text text-anchor="middle" x="541" y="-119.5" font-family="Helvetica,sans-Serif" font-size="10.00">adc_dac_dma.h</text>
</a>
</g>
</g>
<!-- Node2&#45;&gt;Node26 -->
<g id="edge78" class="edge"><title>Node2&#45;&gt;Node26</title>
<path fill="none" stroke="midnightblue" d="M644.278,-280.349C622.741,-263.827 584.232,-226.03 560,-188 550.715,-173.428 543.182,-155.251 539.769,-141.828"/>
<polygon fill="midnightblue" stroke="midnightblue" points="543.185,-141.05 537.924,-131.853 536.302,-142.323 543.185,-141.05"/>
</g>
<!-- Node30 -->
<g id="node30" class="node"><title>Node30</title>
<g id="a_node30"><a xlink:href="a00020.html" target="_top" xlink:title="Provides tools and helper functions. ">
<polygon fill="white" stroke="black" points="180.5,-56.5 180.5,-75.5 231.5,-75.5 231.5,-56.5 180.5,-56.5"/>
<text text-anchor="middle" x="206" y="-63.5" font-family="Helvetica,sans-Serif" font-size="10.00">helper.h</text>
</a>
</g>
</g>
<!-- Node2&#45;&gt;Node30 -->
<g id="edge77" class="edge"><title>Node2&#45;&gt;Node30</title>
<path fill="none" stroke="midnightblue" d="M635.971,-288.22C551.123,-285.127 259.36,-272.485 230,-244 186.821,-202.108 195.303,-122.058 201.944,-85.7434"/>
<polygon fill="midnightblue" stroke="midnightblue" points="205.445,-86.0848 203.967,-75.5935 198.58,-84.7161 205.445,-86.0848"/>
</g>
<!-- Node32 -->
<g id="node32" class="node"><title>Node32</title>
<g id="a_node32"><a xlink:href="a00022.html" target="_top" xlink:title="Analog processing related callback handler definition. ">
<polygon fill="white" stroke="black" points="578,-168.5 578,-187.5 660,-187.5 660,-168.5 578,-168.5"/>
<text text-anchor="middle" x="619" y="-175.5" font-family="Helvetica,sans-Serif" font-size="10.00">irq_callbacks.h</text>
</a>
</g>
</g>
<!-- Node2&#45;&gt;Node32 -->
<g id="edge84" class="edge"><title>Node2&#45;&gt;Node32</title>
<path fill="none" stroke="midnightblue" d="M652.018,-280.368C642.215,-262.617 626.868,-221.666 620.552,-197.597"/>
<polygon fill="midnightblue" stroke="midnightblue" points="623.909,-196.573 618.289,-187.591 617.081,-198.117 623.909,-196.573"/>
</g>
<!-- Node33 -->
<g id="node33" class="node"><title>Node33</title>
<g id="a_node33"><a xlink:href="a00039.html" target="_top" xlink:title="Project MD_APP scanner specific pin mappings. ">
<polygon fill="white" stroke="black" points="790.5,-168.5 790.5,-187.5 857.5,-187.5 857.5,-168.5 790.5,-168.5"/>
<text text-anchor="middle" x="824" y="-175.5" font-family="Helvetica,sans-Serif" font-size="10.00">mdb_gpio.h</text>
</a>
</g>
</g>
<!-- Node2&#45;&gt;Node33 -->
<g id="edge85" class="edge"><title>Node2&#45;&gt;Node33</title>
<path fill="none" stroke="midnightblue" d="M671.947,-280.368C700.261,-261.492 767.923,-216.385 802.645,-193.237"/>
<polygon fill="midnightblue" stroke="midnightblue" points="804.734,-196.051 811.113,-187.591 800.851,-190.226 804.734,-196.051"/>
</g>
<!-- Node35 -->
<g id="node35" class="node"><title>Node35</title>
<g id="a_node35"><a xlink:href="a00043.html" target="_top" xlink:title="Provides initialization methods to configure analog subsystems and DMA controller. ">
<polygon fill="white" stroke="black" points="1981.5,-168.5 1981.5,-187.5 2080.5,-187.5 2080.5,-168.5 1981.5,-168.5"/>
<text text-anchor="middle" x="2031" y="-175.5" font-family="Helvetica,sans-Serif" font-size="10.00">periph2dma_conf.h</text>
</a>
</g>
</g>
<!-- Node2&#45;&gt;Node35 -->
<g id="edge79" class="edge"><title>Node2&#45;&gt;Node35</title>
<path fill="none" stroke="midnightblue" d="M682.274,-281.744C685.189,-281.046 688.148,-280.436 691,-280 959.329,-238.946 1650,-315.018 1912,-244 1949.74,-233.769 1988.61,-209.448 2011.25,-193.629"/>
<polygon fill="midnightblue" stroke="midnightblue" points="2013.54,-196.296 2019.64,-187.634 2009.47,-190.601 2013.54,-196.296"/>
</g>
<!-- Node37 -->
<g id="node37" class="node"><title>Node37</title>
<g id="a_node37"><a xlink:href="a00048.html" target="_top" xlink:title="Provides DAC driven signal generator functions. ">
<polygon fill="white" stroke="black" points="107,-168.5 107,-187.5 175,-187.5 175,-168.5 107,-168.5"/>
<text text-anchor="middle" x="141" y="-175.5" font-family="Helvetica,sans-Serif" font-size="10.00">signalGen.h</text>
</a>
</g>
</g>
<!-- Node2&#45;&gt;Node37 -->
<g id="edge86" class="edge"><title>Node2&#45;&gt;Node37</title>
<path fill="none" stroke="midnightblue" d="M635.762,-289.138C552.469,-289.274 269.702,-286.528 192,-244 172.596,-233.38 158.062,-211.966 149.573,-196.618"/>
<polygon fill="midnightblue" stroke="midnightblue" points="152.594,-194.841 144.877,-187.582 146.383,-198.069 152.594,-194.841"/>
</g>
<!-- Node9&#45;&gt;Node8 -->
<g id="edge11" class="edge"><title>Node9&#45;&gt;Node8</title>
<path fill="none" stroke="midnightblue" d="M998.472,-56.6217C928.337,-45.6441 807.044,-26.6591 745.383,-17.0078"/>
<polygon fill="midnightblue" stroke="midnightblue" points="745.722,-13.5184 735.301,-15.4298 744.64,-20.4342 745.722,-13.5184"/>
</g>
<!-- Node10 -->
<g id="node10" class="node"><title>Node10</title>
<polygon fill="white" stroke="#bfbfbf" points="1541.5,-0.5 1541.5,-19.5 1612.5,-19.5 1612.5,-0.5 1541.5,-0.5"/>
<text text-anchor="middle" x="1577" y="-7.5" font-family="Helvetica,sans-Serif" font-size="10.00">stm32f4xx.h</text>
</g>
<!-- Node9&#45;&gt;Node10 -->
<g id="edge9" class="edge"><title>Node9&#45;&gt;Node10</title>
<path fill="none" stroke="midnightblue" d="M1105.72,-59.4748C1209.22,-48.8283 1434.61,-25.6456 1531.37,-15.6929"/>
<polygon fill="midnightblue" stroke="midnightblue" points="1531.84,-19.1638 1541.43,-14.6589 1531.12,-12.2005 1531.84,-19.1638"/>
</g>
<!-- Node11 -->
<g id="node11" class="node"><title>Node11</title>
<polygon fill="white" stroke="#bfbfbf" points="1127.5,-0.5 1127.5,-19.5 1216.5,-19.5 1216.5,-0.5 1127.5,-0.5"/>
<text text-anchor="middle" x="1172" y="-7.5" font-family="Helvetica,sans-Serif" font-size="10.00">stm32f4xx_rcc.h</text>
</g>
<!-- Node9&#45;&gt;Node11 -->
<g id="edge10" class="edge"><title>Node9&#45;&gt;Node11</title>
<path fill="none" stroke="midnightblue" d="M1071.01,-56.4435C1090.59,-47.6356 1121.31,-33.8116 1143.73,-23.722"/>
<polygon fill="midnightblue" stroke="midnightblue" points="1145.39,-26.8119 1153.07,-19.5164 1142.52,-20.4284 1145.39,-26.8119"/>
</g>
<!-- Node12&#45;&gt;Node8 -->
<g id="edge13" class="edge"><title>Node12&#45;&gt;Node8</title>
<path fill="none" stroke="midnightblue" d="M1602.48,-121.032C1484.8,-120.346 1194.95,-114.506 956,-76 878.788,-63.5577 790.746,-37.7396 742.786,-22.6556"/>
<polygon fill="midnightblue" stroke="midnightblue" points="743.769,-19.2955 733.179,-19.6084 741.653,-25.968 743.769,-19.2955"/>
</g>
<!-- Node12&#45;&gt;Node10 -->
<g id="edge14" class="edge"><title>Node12&#45;&gt;Node10</title>
<path fill="none" stroke="midnightblue" d="M1654.33,-112.315C1651.48,-99.159 1644.71,-73.8265 1632,-56 1623.41,-43.9516 1610.8,-33.3153 1599.81,-25.4126"/>
<polygon fill="midnightblue" stroke="midnightblue" points="1601.69,-22.4561 1591.47,-19.686 1597.73,-28.2287 1601.69,-22.4561"/>
</g>
<!-- Node13 -->
<g id="node13" class="node"><title>Node13</title>
<g id="a_node13"><a xlink:href="a00034.html" target="_top" xlink:title="Provides generic methods for GPIO module initialization and manipulation. ">
<polygon fill="white" stroke="black" points="1722,-56.5 1722,-75.5 1824,-75.5 1824,-56.5 1722,-56.5"/>
<text text-anchor="middle" x="1773" y="-63.5" font-family="Helvetica,sans-Serif" font-size="10.00">md_stm32f4_gpio.h</text>
</a>
</g>
</g>
<!-- Node12&#45;&gt;Node13 -->
<g id="edge15" class="edge"><title>Node12&#45;&gt;Node13</title>
<path fill="none" stroke="midnightblue" d="M1674.54,-112.444C1693.62,-103.636 1723.57,-89.8116 1745.44,-79.722"/>
<polygon fill="midnightblue" stroke="midnightblue" points="1746.93,-82.8849 1754.55,-75.5164 1744,-76.5292 1746.93,-82.8849"/>
</g>
<!-- Node13&#45;&gt;Node10 -->
<g id="edge16" class="edge"><title>Node13&#45;&gt;Node10</title>
<path fill="none" stroke="midnightblue" d="M1741.94,-56.4435C1708.4,-47.2011 1654.8,-32.4356 1617.86,-22.2572"/>
<polygon fill="midnightblue" stroke="midnightblue" points="1618.48,-18.7984 1607.91,-19.5164 1616.62,-25.5469 1618.48,-18.7984"/>
</g>
<!-- Node14&#45;&gt;Node10 -->
<g id="edge18" class="edge"><title>Node14&#45;&gt;Node10</title>
<path fill="none" stroke="midnightblue" d="M1543.61,-56.083C1549.26,-48.4554 1557.54,-37.2645 1564.45,-27.9408"/>
<polygon fill="midnightblue" stroke="midnightblue" points="1567.38,-29.87 1570.52,-19.7511 1561.75,-25.7034 1567.38,-29.87"/>
</g>
<!-- Node14&#45;&gt;Node11 -->
<g id="edge19" class="edge"><title>Node14&#45;&gt;Node11</title>
<path fill="none" stroke="midnightblue" d="M1483.93,-57.1479C1415.28,-46.9925 1296.31,-29.3909 1226.82,-19.1108"/>
<polygon fill="midnightblue" stroke="midnightblue" points="1226.93,-15.5888 1216.53,-17.5875 1225.91,-22.5134 1226.93,-15.5888"/>
</g>
<!-- Node15&#45;&gt;Node8 -->
<g id="edge30" class="edge"><title>Node15&#45;&gt;Node8</title>
<path fill="none" stroke="midnightblue" d="M1089.19,-120.762C995.07,-119.424 800.582,-112.214 745,-76 728.608,-65.3198 718.394,-44.9096 712.737,-29.7976"/>
<polygon fill="midnightblue" stroke="midnightblue" points="715.923,-28.2938 709.4,-19.9449 709.293,-30.5392 715.923,-28.2938"/>
</g>
<!-- Node15&#45;&gt;Node10 -->
<g id="edge21" class="edge"><title>Node15&#45;&gt;Node10</title>
<path fill="none" stroke="midnightblue" d="M1192.72,-113.809C1270.15,-102.92 1409.59,-82.7954 1432,-76 1452.17,-69.8844 1455.8,-64.6987 1475,-56 1499.54,-44.8793 1527.56,-32.5455 1548.01,-23.6069"/>
<polygon fill="midnightblue" stroke="midnightblue" points="1549.63,-26.7194 1557.39,-19.5118 1546.83,-20.3037 1549.63,-26.7194"/>
</g>
<!-- Node15&#45;&gt;Node11 -->
<g id="edge22" class="edge"><title>Node15&#45;&gt;Node11</title>
<path fill="none" stroke="midnightblue" d="M1143.43,-112.368C1148.46,-94.5366 1160.08,-53.2953 1166.85,-29.2717"/>
<polygon fill="midnightblue" stroke="midnightblue" points="1170.23,-30.1659 1169.58,-19.5914 1163.5,-28.2671 1170.23,-30.1659"/>
</g>
<!-- Node15&#45;&gt;Node13 -->
<g id="edge23" class="edge"><title>Node15&#45;&gt;Node13</title>
<path fill="none" stroke="midnightblue" d="M1192.72,-116.581C1308.42,-106.695 1587.7,-82.8323 1711.8,-72.2289"/>
<polygon fill="midnightblue" stroke="midnightblue" points="1712.23,-75.7054 1721.89,-71.3667 1711.63,-68.7308 1712.23,-75.7054"/>
</g>
<!-- Node16 -->
<g id="node16" class="node"><title>Node16</title>
<polygon fill="white" stroke="#bfbfbf" points="1285.5,-0.5 1285.5,-19.5 1374.5,-19.5 1374.5,-0.5 1285.5,-0.5"/>
<text text-anchor="middle" x="1330" y="-7.5" font-family="Helvetica,sans-Serif" font-size="10.00">stm32f4xx_tim.h</text>
</g>
<!-- Node15&#45;&gt;Node16 -->
<g id="edge24" class="edge"><title>Node15&#45;&gt;Node16</title>
<path fill="none" stroke="midnightblue" d="M1192.55,-113.918C1254.18,-104.929 1350.37,-89.025 1361,-76 1373.03,-61.2638 1359.81,-41.0855 1347.11,-27.1384"/>
<polygon fill="midnightblue" stroke="midnightblue" points="1349.37,-24.4466 1339.88,-19.7348 1344.36,-29.3359 1349.37,-24.4466"/>
</g>
<!-- Node17 -->
<g id="node17" class="node"><title>Node17</title>
<g id="a_node17"><a xlink:href="a00058_source.html" target="_top" xlink:title="tm_stm32f4_timer_properties.h">
<polygon fill="white" stroke="black" points="1200,-56.5 1200,-75.5 1352,-75.5 1352,-56.5 1200,-56.5"/>
<text text-anchor="middle" x="1276" y="-63.5" font-family="Helvetica,sans-Serif" font-size="10.00">tm_stm32f4_timer_properties.h</text>
</a>
</g>
</g>
<!-- Node15&#45;&gt;Node17 -->
<g id="edge25" class="edge"><title>Node15&#45;&gt;Node17</title>
<path fill="none" stroke="midnightblue" d="M1162.39,-112.444C1184.71,-103.517 1219.9,-89.4387 1245.21,-79.3168"/>
<polygon fill="midnightblue" stroke="midnightblue" points="1246.72,-82.4801 1254.71,-75.5164 1244.12,-75.9807 1246.72,-82.4801"/>
</g>
<!-- Node17&#45;&gt;Node8 -->
<g id="edge29" class="edge"><title>Node17&#45;&gt;Node8</title>
<path fill="none" stroke="midnightblue" d="M1199.85,-57.7734C1076.66,-46.0816 838.076,-23.4396 745.254,-14.6304"/>
<polygon fill="midnightblue" stroke="midnightblue" points="745.472,-11.1355 735.186,-13.675 744.811,-18.1042 745.472,-11.1355"/>
</g>
<!-- Node17&#45;&gt;Node10 -->
<g id="edge26" class="edge"><title>Node17&#45;&gt;Node10</title>
<path fill="none" stroke="midnightblue" d="M1323.69,-56.4435C1380.65,-46.2247 1475.25,-29.2542 1531.31,-19.1969"/>
<polygon fill="midnightblue" stroke="midnightblue" points="1532.09,-22.6135 1541.31,-17.4026 1530.85,-15.7235 1532.09,-22.6135"/>
</g>
<!-- Node17&#45;&gt;Node11 -->
<g id="edge27" class="edge"><title>Node17&#45;&gt;Node11</title>
<path fill="none" stroke="midnightblue" d="M1259.29,-56.324C1242.69,-47.7034 1217,-34.3643 1197.78,-24.3855"/>
<polygon fill="midnightblue" stroke="midnightblue" points="1199.16,-21.1565 1188.67,-19.6545 1195.93,-27.3689 1199.16,-21.1565"/>
</g>
<!-- Node17&#45;&gt;Node16 -->
<g id="edge28" class="edge"><title>Node17&#45;&gt;Node16</title>
<path fill="none" stroke="midnightblue" d="M1284.92,-56.083C1292.78,-48.2195 1304.43,-36.5688 1313.92,-27.0813"/>
<polygon fill="midnightblue" stroke="midnightblue" points="1316.65,-29.2971 1321.25,-19.7511 1311.7,-24.3473 1316.65,-29.2971"/>
</g>
<!-- Node18&#45;&gt;Node7 -->
<g id="edge37" class="edge"><title>Node18&#45;&gt;Node7</title>
<path fill="none" stroke="midnightblue" d="M1819.45,-112.444C1865.06,-102.552 1939.84,-86.3355 1986.65,-76.1852"/>
<polygon fill="midnightblue" stroke="midnightblue" points="1987.44,-79.5937 1996.47,-74.0537 1985.96,-72.7527 1987.44,-79.5937"/>
</g>
<!-- Node18&#45;&gt;Node8 -->
<g id="edge38" class="edge"><title>Node18&#45;&gt;Node8</title>
<path fill="none" stroke="midnightblue" d="M1727.8,-112.957C1724.82,-112.605 1721.88,-112.282 1719,-112 1395.72,-80.2556 1308.69,-133.624 989,-76 960.089,-70.7887 954.427,-63.411 926,-56 863.236,-39.6372 789.099,-25.4624 745.178,-17.591"/>
<polygon fill="midnightblue" stroke="midnightblue" points="745.677,-14.1249 735.219,-15.8215 744.453,-21.017 745.677,-14.1249"/>
</g>
<!-- Node18&#45;&gt;Node10 -->
<g id="edge33" class="edge"><title>Node18&#45;&gt;Node10</title>
<path fill="none" stroke="midnightblue" d="M1832.08,-117.865C1894.17,-112.252 1985.28,-96.9339 1949,-56 1927.68,-31.9509 1717.66,-18.2176 1622.93,-13.2029"/>
<polygon fill="midnightblue" stroke="midnightblue" points="1622.94,-9.69912 1612.78,-12.6756 1622.58,-16.6897 1622.94,-9.69912"/>
</g>
<!-- Node18&#45;&gt;Node11 -->
<g id="edge34" class="edge"><title>Node18&#45;&gt;Node11</title>
<path fill="none" stroke="midnightblue" d="M1760.91,-112.414C1728.39,-98.1884 1659.86,-69.923 1599,-56 1563.54,-47.888 1333.89,-25.9829 1226.81,-16.036"/>
<polygon fill="midnightblue" stroke="midnightblue" points="1227.12,-12.55 1216.84,-15.1116 1226.47,-19.52 1227.12,-12.55"/>
</g>
<!-- Node18&#45;&gt;Node13 -->
<g id="edge35" class="edge"><title>Node18&#45;&gt;Node13</title>
<path fill="none" stroke="midnightblue" d="M1778.84,-112.083C1777.92,-104.927 1776.58,-94.6353 1775.42,-85.6911"/>
<polygon fill="midnightblue" stroke="midnightblue" points="1778.89,-85.2181 1774.13,-75.7511 1771.95,-86.1181 1778.89,-85.2181"/>
</g>
<!-- Node19 -->
<g id="node19" class="node"><title>Node19</title>
<polygon fill="white" stroke="#bfbfbf" points="915,-0.5 915,-19.5 961,-19.5 961,-0.5 915,-0.5"/>
<text text-anchor="middle" x="938" y="-7.5" font-family="Helvetica,sans-Serif" font-size="10.00">misc.h</text>
</g>
<!-- Node18&#45;&gt;Node19 -->
<g id="edge32" class="edge"><title>Node18&#45;&gt;Node19</title>
<path fill="none" stroke="midnightblue" d="M1727.79,-113.022C1724.82,-112.654 1721.87,-112.309 1719,-112 1485.14,-86.8148 1423.17,-113.729 1191,-76 1156.1,-70.3284 1148.24,-64.8238 1114,-56 1064.1,-43.1415 1006.21,-28.3679 970.854,-19.3604"/>
<polygon fill="midnightblue" stroke="midnightblue" points="971.625,-15.9451 961.07,-16.8689 969.897,-22.7286 971.625,-15.9451"/>
</g>
<!-- Node20 -->
<g id="node20" class="node"><title>Node20</title>
<polygon fill="white" stroke="#bfbfbf" points="1842,-56.5 1842,-75.5 1940,-75.5 1940,-56.5 1842,-56.5"/>
<text text-anchor="middle" x="1891" y="-63.5" font-family="Helvetica,sans-Serif" font-size="10.00">stm32f4xx_usart.h</text>
</g>
<!-- Node18&#45;&gt;Node20 -->
<g id="edge36" class="edge"><title>Node18&#45;&gt;Node20</title>
<path fill="none" stroke="midnightblue" d="M1797.83,-112.324C1815.72,-103.625 1843.48,-90.1202 1864.05,-80.113"/>
<polygon fill="midnightblue" stroke="midnightblue" points="1865.75,-83.1765 1873.21,-75.6545 1862.69,-76.8819 1865.75,-83.1765"/>
</g>
<!-- Node23&#45;&gt;Node3 -->
<g id="edge43" class="edge"><title>Node23&#45;&gt;Node3</title>
<path fill="none" stroke="midnightblue" d="M287.972,-59.3231C257.358,-50.1898 196.787,-32.1189 159.015,-20.8497"/>
<polygon fill="midnightblue" stroke="midnightblue" points="159.592,-17.3697 149.009,-17.8646 157.591,-24.0775 159.592,-17.3697"/>
</g>
<!-- Node23&#45;&gt;Node4 -->
<g id="edge42" class="edge"><title>Node23&#45;&gt;Node4</title>
<path fill="none" stroke="midnightblue" d="M300.725,-56.083C295.358,-48.4554 287.482,-37.2645 280.921,-27.9408"/>
<polygon fill="midnightblue" stroke="midnightblue" points="283.775,-25.9149 275.158,-19.7511 278.051,-29.9434 283.775,-25.9149"/>
</g>
<!-- Node23&#45;&gt;Node5 -->
<g id="edge44" class="edge"><title>Node23&#45;&gt;Node5</title>
<path fill="none" stroke="midnightblue" d="M287.608,-60.9412C244.231,-51.8623 138.866,-29.8091 83.8101,-18.2858"/>
<polygon fill="midnightblue" stroke="midnightblue" points="84.3272,-14.8183 73.8223,-16.1954 82.8931,-21.6698 84.3272,-14.8183"/>
</g>
<!-- Node23&#45;&gt;Node8 -->
<g id="edge47" class="edge"><title>Node23&#45;&gt;Node8</title>
<path fill="none" stroke="midnightblue" d="M326.084,-59.2934C330.616,-58.0781 335.455,-56.8936 340,-56 458.679,-32.667 601.47,-19.3035 668.588,-13.8741"/>
<polygon fill="midnightblue" stroke="midnightblue" points="669.004,-17.3522 678.695,-13.0705 668.449,-10.3742 669.004,-17.3522"/>
</g>
<!-- Node23&#45;&gt;Node10 -->
<g id="edge46" class="edge"><title>Node23&#45;&gt;Node10</title>
<path fill="none" stroke="midnightblue" d="M326.006,-61.8957C339.163,-59.8728 357.1,-57.3641 373,-56 820.53,-17.6075 934.203,-38.4081 1383,-20 1433.72,-17.9198 1491.87,-15.1737 1531.18,-13.2644"/>
<polygon fill="midnightblue" stroke="midnightblue" points="1531.43,-16.7564 1541.25,-12.7736 1531.09,-9.76474 1531.43,-16.7564"/>
</g>
<!-- Node24 -->
<g id="node24" class="node"><title>Node24</title>
<polygon fill="white" stroke="#bfbfbf" points="311.5,-0.5 311.5,-19.5 360.5,-19.5 360.5,-0.5 311.5,-0.5"/>
<text text-anchor="middle" x="336" y="-7.5" font-family="Helvetica,sans-Serif" font-size="10.00">stdint.h</text>
</g>
<!-- Node23&#45;&gt;Node24 -->
<g id="edge45" class="edge"><title>Node23&#45;&gt;Node24</title>
<path fill="none" stroke="midnightblue" d="M311.789,-56.083C315.758,-48.6913 321.525,-37.9533 326.435,-28.8111"/>
<polygon fill="midnightblue" stroke="midnightblue" points="329.653,-30.217 331.3,-19.7511 323.486,-26.9051 329.653,-30.217"/>
</g>
<!-- Node25&#45;&gt;Node3 -->
<g id="edge49" class="edge"><title>Node25&#45;&gt;Node3</title>
<path fill="none" stroke="midnightblue" d="M444.539,-224.475C388.582,-205.396 256.389,-154.662 171,-76 156.216,-62.3808 143.62,-43.0711 135.547,-29.0391"/>
<polygon fill="midnightblue" stroke="midnightblue" points="138.402,-26.9698 130.501,-19.9111 132.276,-30.3563 138.402,-26.9698"/>
</g>
<!-- Node25&#45;&gt;Node8 -->
<g id="edge66" class="edge"><title>Node25&#45;&gt;Node8</title>
<path fill="none" stroke="midnightblue" d="M464.717,-224.378C444.588,-196.555 382.469,-109.051 373,-76 370.552,-67.4549 367.149,-62.6919 373,-56 411.055,-12.4742 589.403,-9.3326 668.758,-10.163"/>
<polygon fill="midnightblue" stroke="midnightblue" points="668.781,-13.6635 678.827,-10.2955 668.874,-6.66407 668.781,-13.6635"/>
</g>
<!-- Node25&#45;&gt;Node23 -->
<g id="edge75" class="edge"><title>Node25&#45;&gt;Node23</title>
<path fill="none" stroke="midnightblue" d="M460.578,-224.318C450.082,-215.455 433.547,-201.169 420,-188 383.106,-152.134 342.554,-107.26 321.501,-83.5154"/>
<polygon fill="midnightblue" stroke="midnightblue" points="323.913,-80.9583 314.67,-75.779 318.665,-85.5916 323.913,-80.9583"/>
</g>
<!-- Node25&#45;&gt;Node26 -->
<g id="edge50" class="edge"><title>Node25&#45;&gt;Node26</title>
<path fill="none" stroke="midnightblue" d="M472.65,-224.368C480.814,-206.135 507.605,-163.426 525.383,-139.675"/>
<polygon fill="midnightblue" stroke="midnightblue" points="528.3,-141.627 531.697,-131.591 522.783,-137.317 528.3,-141.627"/>
</g>
<!-- Node25&#45;&gt;Node30 -->
<g id="edge76" class="edge"><title>Node25&#45;&gt;Node30</title>
<path fill="none" stroke="midnightblue" d="M456.98,-224.414C442.264,-215.389 418.468,-200.758 398,-188 336.305,-149.545 263.803,-103.666 228.122,-81.041"/>
<polygon fill="midnightblue" stroke="midnightblue" points="229.792,-77.9554 219.472,-75.5546 226.042,-83.8666 229.792,-77.9554"/>
</g>
<!-- Node25&#45;&gt;Node32 -->
<g id="edge67" class="edge"><title>Node25&#45;&gt;Node32</title>
<path fill="none" stroke="midnightblue" d="M494.451,-224.444C519.133,-215.438 558.185,-201.189 585.977,-191.049"/>
<polygon fill="midnightblue" stroke="midnightblue" points="587.464,-194.232 595.659,-187.516 585.065,-187.656 587.464,-194.232"/>
</g>
<!-- Node25&#45;&gt;Node33 -->
<g id="edge71" class="edge"><title>Node25&#45;&gt;Node33</title>
<path fill="none" stroke="midnightblue" d="M503.577,-228.017C567.347,-218.261 708.677,-196.642 780.411,-185.668"/>
<polygon fill="midnightblue" stroke="midnightblue" points="781.117,-189.101 790.472,-184.129 780.058,-182.181 781.117,-189.101"/>
</g>
<!-- Node26&#45;&gt;Node2 -->
<g id="edge54" class="edge"><title>Node26&#45;&gt;Node2</title>
<path fill="none" stroke="midnightblue" d="M549.667,-131.853C557.101,-144.79 566.115,-169.348 578,-188 599.013,-220.979 630.764,-253.783 647.92,-272.69"/>
<polygon fill="midnightblue" stroke="midnightblue" points="645.441,-275.171 654.684,-280.349 650.688,-270.537 645.441,-275.171"/>
</g>
<!-- Node26&#45;&gt;Node8 -->
<g id="edge51" class="edge"><title>Node26&#45;&gt;Node8</title>
<path fill="none" stroke="midnightblue" d="M553.204,-112.447C571.197,-99.884 605.96,-75.7877 636,-56 652.096,-45.3975 670.481,-33.7578 684.509,-24.973"/>
<polygon fill="midnightblue" stroke="midnightblue" points="686.402,-27.9172 693.031,-19.6519 682.695,-21.9796 686.402,-27.9172"/>
</g>
<!-- Node26&#45;&gt;Node10 -->
<g id="edge59" class="edge"><title>Node26&#45;&gt;Node10</title>
<path fill="none" stroke="midnightblue" d="M584.235,-119.229C742.407,-112.669 1284.38,-89.4344 1361,-76 1369.98,-74.4257 1480.2,-40.7452 1539.61,-22.5027"/>
<polygon fill="midnightblue" stroke="midnightblue" points="1540.85,-25.7831 1549.38,-19.5008 1538.8,-19.0917 1540.85,-25.7831"/>
</g>
<!-- Node26&#45;&gt;Node11 -->
<g id="edge58" class="edge"><title>Node26&#45;&gt;Node11</title>
<path fill="none" stroke="midnightblue" d="M584.353,-115.669C642.223,-108.265 747.786,-93.7571 837,-76 873.368,-68.7614 881.724,-63.6831 918,-56 986.388,-41.5159 1065.81,-27.9646 1117.39,-19.5936"/>
<polygon fill="midnightblue" stroke="midnightblue" points="1118.01,-23.0392 1127.32,-17.9897 1116.89,-16.1287 1118.01,-23.0392"/>
</g>
<!-- Node26&#45;&gt;Node23 -->
<g id="edge55" class="edge"><title>Node26&#45;&gt;Node23</title>
<path fill="none" stroke="midnightblue" d="M503.922,-112.444C457.351,-101.696 378.421,-83.4817 336.01,-73.6946"/>
<polygon fill="midnightblue" stroke="midnightblue" points="336.587,-70.2359 326.056,-71.3976 335.013,-77.0566 336.587,-70.2359"/>
</g>
<!-- Node26&#45;&gt;Node25 -->
<g id="edge65" class="edge"><title>Node26&#45;&gt;Node25</title>
<path fill="none" stroke="midnightblue" d="M539.368,-131.591C531.232,-149.789 504.448,-192.494 486.656,-216.272"/>
<polygon fill="midnightblue" stroke="midnightblue" points="483.731,-214.332 480.336,-224.368 489.248,-218.64 483.731,-214.332"/>
</g>
<!-- Node27 -->
<g id="node27" class="node"><title>Node27</title>
<g id="a_node27"><a xlink:href="a00041.html" target="_top" xlink:title="Provides nested vector interrupt controller configuration methods. ">
<polygon fill="white" stroke="black" points="754,-56.5 754,-75.5 828,-75.5 828,-56.5 754,-56.5"/>
<text text-anchor="middle" x="791" y="-63.5" font-family="Helvetica,sans-Serif" font-size="10.00">nvic_config.h</text>
</a>
</g>
</g>
<!-- Node26&#45;&gt;Node27 -->
<g id="edge52" class="edge"><title>Node26&#45;&gt;Node27</title>
<path fill="none" stroke="midnightblue" d="M580.613,-112.444C624.866,-102.885 696.47,-87.4186 743.644,-77.2288"/>
<polygon fill="midnightblue" stroke="midnightblue" points="744.578,-80.6079 753.614,-75.0755 743.1,-73.7657 744.578,-80.6079"/>
</g>
<!-- Node28 -->
<g id="node28" class="node"><title>Node28</title>
<polygon fill="white" stroke="#bfbfbf" points="382,-56.5 382,-75.5 474,-75.5 474,-56.5 382,-56.5"/>
<text text-anchor="middle" x="428" y="-63.5" font-family="Helvetica,sans-Serif" font-size="10.00">stm32f4xx_adc.h</text>
</g>
<!-- Node26&#45;&gt;Node28 -->
<g id="edge56" class="edge"><title>Node26&#45;&gt;Node28</title>
<path fill="none" stroke="midnightblue" d="M523.095,-112.444C504.746,-103.675 475.995,-89.9355 454.906,-79.8579"/>
<polygon fill="midnightblue" stroke="midnightblue" points="456.353,-76.6703 445.821,-75.5164 453.335,-82.9862 456.353,-76.6703"/>
</g>
<!-- Node29 -->
<g id="node29" class="node"><title>Node29</title>
<polygon fill="white" stroke="#bfbfbf" points="492,-56.5 492,-75.5 584,-75.5 584,-56.5 492,-56.5"/>
<text text-anchor="middle" x="538" y="-63.5" font-family="Helvetica,sans-Serif" font-size="10.00">stm32f4xx_dac.h</text>
</g>
<!-- Node26&#45;&gt;Node29 -->
<g id="edge57" class="edge"><title>Node26&#45;&gt;Node29</title>
<path fill="none" stroke="midnightblue" d="M540.505,-112.083C540.111,-105.006 539.548,-94.8611 539.055,-85.9865"/>
<polygon fill="midnightblue" stroke="midnightblue" points="542.536,-85.5415 538.486,-75.7511 535.546,-85.9299 542.536,-85.5415"/>
</g>
<!-- Node26&#45;&gt;Node30 -->
<g id="edge60" class="edge"><title>Node26&#45;&gt;Node30</title>
<path fill="none" stroke="midnightblue" d="M497.89,-114.051C431.07,-103.28 303.744,-82.7557 241.727,-72.759"/>
<polygon fill="midnightblue" stroke="midnightblue" points="242.074,-69.2698 231.644,-71.1337 240.96,-76.1806 242.074,-69.2698"/>
</g>
<!-- Node27&#45;&gt;Node19 -->
<g id="edge53" class="edge"><title>Node27&#45;&gt;Node19</title>
<path fill="none" stroke="midnightblue" d="M814.293,-56.4435C838.807,-47.4381 877.596,-33.1891 905.2,-23.049"/>
<polygon fill="midnightblue" stroke="midnightblue" points="906.637,-26.25 914.816,-19.5164 904.223,-19.6793 906.637,-26.25"/>
</g>
<!-- Node30&#45;&gt;Node3 -->
<g id="edge61" class="edge"><title>Node30&#45;&gt;Node3</title>
<path fill="none" stroke="midnightblue" d="M193.147,-56.324C180.784,-47.979 161.87,-35.2122 147.263,-25.3524"/>
<polygon fill="midnightblue" stroke="midnightblue" points="149.068,-22.3483 138.821,-19.6545 145.152,-28.1503 149.068,-22.3483"/>
</g>
<!-- Node30&#45;&gt;Node4 -->
<g id="edge63" class="edge"><title>Node30&#45;&gt;Node4</title>
<path fill="none" stroke="midnightblue" d="M216.122,-56.324C225.526,-48.2631 239.744,-36.0765 251.069,-26.3695"/>
<polygon fill="midnightblue" stroke="midnightblue" points="253.379,-28.9993 258.694,-19.8339 248.823,-23.6844 253.379,-28.9993"/>
</g>
<!-- Node30&#45;&gt;Node5 -->
<g id="edge62" class="edge"><title>Node30&#45;&gt;Node5</title>
<path fill="none" stroke="midnightblue" d="M181.123,-56.4435C154.633,-47.3324 112.538,-32.8539 82.9982,-22.6936"/>
<polygon fill="midnightblue" stroke="midnightblue" points="84.097,-19.3704 73.5023,-19.4275 81.8202,-25.9898 84.097,-19.3704"/>
</g>
<!-- Node31 -->
<g id="node31" class="node"><title>Node31</title>
<polygon fill="white" stroke="#bfbfbf" points="167.5,-0.5 167.5,-19.5 226.5,-19.5 226.5,-0.5 167.5,-0.5"/>
<text text-anchor="middle" x="197" y="-7.5" font-family="Helvetica,sans-Serif" font-size="10.00">inttypes.h</text>
</g>
<!-- Node30&#45;&gt;Node31 -->
<g id="edge64" class="edge"><title>Node30&#45;&gt;Node31</title>
<path fill="none" stroke="midnightblue" d="M204.514,-56.083C203.321,-48.9272 201.606,-38.6353 200.115,-29.6911"/>
<polygon fill="midnightblue" stroke="midnightblue" points="203.555,-29.0396 198.459,-19.7511 196.65,-30.1904 203.555,-29.0396"/>
</g>
<!-- Node32&#45;&gt;Node2 -->
<g id="edge68" class="edge"><title>Node32&#45;&gt;Node2</title>
<path fill="none" stroke="midnightblue" d="M625.96,-187.591C635.755,-205.308 651.104,-246.254 657.434,-270.348"/>
<polygon fill="midnightblue" stroke="midnightblue" points="654.081,-271.389 659.704,-280.368 660.908,-269.842 654.081,-271.389"/>
</g>
<!-- Node32&#45;&gt;Node8 -->
<g id="edge69" class="edge"><title>Node32&#45;&gt;Node8</title>
<path fill="none" stroke="midnightblue" d="M622.165,-168.489C629.82,-148.307 650.449,-96.2245 674,-56 679.752,-46.1765 687.175,-35.8906 693.525,-27.6364"/>
<polygon fill="midnightblue" stroke="midnightblue" points="696.421,-29.6154 699.863,-19.595 690.924,-25.2823 696.421,-29.6154"/>
</g>
<!-- Node32&#45;&gt;Node26 -->
<g id="edge70" class="edge"><title>Node32&#45;&gt;Node26</title>
<path fill="none" stroke="midnightblue" d="M606.468,-168.324C594.414,-159.979 575.973,-147.212 561.731,-137.352"/>
<polygon fill="midnightblue" stroke="midnightblue" points="563.715,-134.469 553.501,-131.655 559.731,-140.224 563.715,-134.469"/>
</g>
<!-- Node33&#45;&gt;Node10 -->
<g id="edge72" class="edge"><title>Node33&#45;&gt;Node10</title>
<path fill="none" stroke="midnightblue" d="M857.797,-175.191C1000.6,-167.205 1549.49,-132.966 1599,-76 1610.91,-62.2986 1600.85,-41.8795 1590.75,-27.5938"/>
<polygon fill="midnightblue" stroke="midnightblue" points="1593.5,-25.4328 1584.65,-19.6064 1587.94,-29.6794 1593.5,-25.4328"/>
</g>
<!-- Node33&#45;&gt;Node11 -->
<g id="edge74" class="edge"><title>Node33&#45;&gt;Node11</title>
<path fill="none" stroke="midnightblue" d="M834.794,-168.212C865.824,-143.095 955.205,-71.7836 989,-56 1029.92,-36.891 1079.91,-25.3065 1117.29,-18.6875"/>
<polygon fill="midnightblue" stroke="midnightblue" points="1118.22,-22.0807 1127.49,-16.9501 1117.04,-15.1802 1118.22,-22.0807"/>
</g>
<!-- Node34 -->
<g id="node34" class="node"><title>Node34</title>
<polygon fill="white" stroke="#bfbfbf" points="777,-112.5 777,-131.5 871,-131.5 871,-112.5 777,-112.5"/>
<text text-anchor="middle" x="824" y="-119.5" font-family="Helvetica,sans-Serif" font-size="10.00">stm32f4xx_gpio.h</text>
</g>
<!-- Node33&#45;&gt;Node34 -->
<g id="edge73" class="edge"><title>Node33&#45;&gt;Node34</title>
<path fill="none" stroke="midnightblue" d="M824,-168.083C824,-161.006 824,-150.861 824,-141.986"/>
<polygon fill="midnightblue" stroke="midnightblue" points="827.5,-141.751 824,-131.751 820.5,-141.751 827.5,-141.751"/>
</g>
<!-- Node35&#45;&gt;Node10 -->
<g id="edge80" class="edge"><title>Node35&#45;&gt;Node10</title>
<path fill="none" stroke="midnightblue" d="M2049.98,-168.398C2063.89,-160.954 2081.71,-148.741 2090,-132 2097.67,-116.495 2104.04,-73.6422 2087,-56 2055.08,-22.9567 1742.04,-13.9348 1622.8,-11.6866"/>
<polygon fill="midnightblue" stroke="midnightblue" points="1622.61,-8.18266 1612.55,-11.5011 1622.48,-15.1815 1622.61,-8.18266"/>
</g>
<!-- Node36 -->
<g id="node36" class="node"><title>Node36</title>
<g id="a_node36"><a xlink:href="a00026.html" target="_top" xlink:title="Project XA&#45;Galvo scanner specific digital to analog converter methods. ">
<polygon fill="white" stroke="black" points="1981,-112.5 1981,-131.5 2081,-131.5 2081,-112.5 1981,-112.5"/>
<text text-anchor="middle" x="2031" y="-119.5" font-family="Helvetica,sans-Serif" font-size="10.00">md_stm32f4_dac.h</text>
</a>
</g>
</g>
<!-- Node35&#45;&gt;Node36 -->
<g id="edge81" class="edge"><title>Node35&#45;&gt;Node36</title>
<path fill="none" stroke="midnightblue" d="M2031,-168.083C2031,-161.006 2031,-150.861 2031,-141.986"/>
<polygon fill="midnightblue" stroke="midnightblue" points="2034.5,-141.751 2031,-131.751 2027.5,-141.751 2034.5,-141.751"/>
</g>
<!-- Node36&#45;&gt;Node10 -->
<g id="edge82" class="edge"><title>Node36&#45;&gt;Node10</title>
<path fill="none" stroke="midnightblue" d="M2043.17,-112.31C2060.18,-99.1489 2087.26,-73.8089 2071,-56 2041.09,-23.2422 1739.35,-14.0647 1622.7,-11.73"/>
<polygon fill="midnightblue" stroke="midnightblue" points="1622.72,-8.22983 1612.65,-11.5368 1622.58,-15.2285 1622.72,-8.22983"/>
</g>
<!-- Node36&#45;&gt;Node13 -->
<g id="edge83" class="edge"><title>Node36&#45;&gt;Node13</title>
<path fill="none" stroke="midnightblue" d="M1990.12,-112.444C1945.02,-103.004 1872.39,-87.802 1823.7,-77.6111"/>
<polygon fill="midnightblue" stroke="midnightblue" points="1824.19,-74.1394 1813.69,-75.5164 1822.76,-80.9909 1824.19,-74.1394"/>
</g>
<!-- Node37&#45;&gt;Node3 -->
<g id="edge87" class="edge"><title>Node37&#45;&gt;Node3</title>
<path fill="none" stroke="midnightblue" d="M140.194,-168.075C137.832,-141.945 130.899,-65.2106 127.679,-29.577"/>
<polygon fill="midnightblue" stroke="midnightblue" points="131.16,-29.2125 126.774,-19.5681 124.188,-29.8425 131.16,-29.2125"/>
</g>
</g>
</svg>
