<?xml version="1.0" encoding="UTF-8" standalone="no"?>
<!DOCTYPE svg PUBLIC "-//W3C//DTD SVG 1.1//EN"
 "http://www.w3.org/Graphics/SVG/1.1/DTD/svg11.dtd">
<!-- Generated by graphviz version 2.38.0 (20140413.2041)
 -->
<!-- Title: md_stm32f4_gpio.h Pages: 1 -->
<svg width="1203pt" height="364pt"
 viewBox="0.00 0.00 1202.59 364.00" xmlns="http://www.w3.org/2000/svg" xmlns:xlink="http://www.w3.org/1999/xlink">
<g id="graph0" class="graph" transform="scale(1 1) rotate(0) translate(4 360)">
<title>md_stm32f4_gpio.h</title>
<polygon fill="white" stroke="none" points="-4,4 -4,-360 1198.59,-360 1198.59,4 -4,4"/>
<!-- Node1 -->
<g id="node1" class="node"><title>Node1</title>
<polygon fill="#bfbfbf" stroke="black" points="837.59,-336.5 837.59,-355.5 939.59,-355.5 939.59,-336.5 837.59,-336.5"/>
<text text-anchor="middle" x="888.59" y="-343.5" font-family="Helvetica,sans-Serif" font-size="10.00">md_stm32f4_gpio.h</text>
</g>
<!-- Node2 -->
<g id="node2" class="node"><title>Node2</title>
<g id="a_node2"><a xlink:href="a00025.html" target="_top" xlink:title="Project XA&#45;Galvo scanner specific digital to analog converter methods. ">
<polygon fill="white" stroke="black" points="277.59,-280.5 277.59,-299.5 377.59,-299.5 377.59,-280.5 277.59,-280.5"/>
<text text-anchor="middle" x="327.59" y="-287.5" font-family="Helvetica,sans-Serif" font-size="10.00">md_stm32f4_dac.h</text>
</a>
</g>
</g>
<!-- Node1&#45;&gt;Node2 -->
<g id="edge1" class="edge"><title>Node1&#45;&gt;Node2</title>
<path fill="none" stroke="midnightblue" d="M827.215,-339.092C715.418,-328.331 480.647,-305.733 377.733,-295.827"/>
<polygon fill="midnightblue" stroke="midnightblue" points="827.028,-342.59 837.318,-340.065 827.699,-335.623 827.028,-342.59"/>
</g>
<!-- Node15 -->
<g id="node15" class="node"><title>Node15</title>
<g id="a_node15"><a xlink:href="a00031.html" target="_top" xlink:title="Definitions to extend board support for STM32F429i&#45;DISCO and equivalent boards. ">
<polygon fill="white" stroke="black" points="811.09,-168.5 811.09,-187.5 918.09,-187.5 918.09,-168.5 811.09,-168.5"/>
<text text-anchor="middle" x="864.59" y="-175.5" font-family="Helvetica,sans-Serif" font-size="10.00">md_stm32f4_disco.h</text>
</a>
</g>
</g>
<!-- Node1&#45;&gt;Node15 -->
<g id="edge22" class="edge"><title>Node1&#45;&gt;Node15</title>
<path fill="none" stroke="midnightblue" d="M901.078,-327.995C917.104,-303.923 940.889,-258.95 923.59,-224 915.304,-207.259 897.476,-195.046 883.574,-187.602"/>
<polygon fill="midnightblue" stroke="midnightblue" points="898.064,-326.198 895.221,-336.404 903.808,-330.199 898.064,-326.198"/>
</g>
<!-- Node17 -->
<g id="node17" class="node"><title>Node17</title>
<g id="a_node17"><a xlink:href="a00032.html" target="_top" xlink:title="md_stm32f4_gpio.c">
<polygon fill="white" stroke="black" points="970.59,-280.5 970.59,-299.5 1072.59,-299.5 1072.59,-280.5 970.59,-280.5"/>
<text text-anchor="middle" x="1021.59" y="-287.5" font-family="Helvetica,sans-Serif" font-size="10.00">md_stm32f4_gpio.c</text>
</a>
</g>
</g>
<!-- Node1&#45;&gt;Node17 -->
<g id="edge26" class="edge"><title>Node1&#45;&gt;Node17</title>
<path fill="none" stroke="midnightblue" d="M919.038,-332.638C943.997,-322.504 978.667,-308.427 1000.61,-299.516"/>
<polygon fill="midnightblue" stroke="midnightblue" points="917.613,-329.439 909.664,-336.444 920.246,-335.924 917.613,-329.439"/>
</g>
<!-- Node18 -->
<g id="node18" class="node"><title>Node18</title>
<g id="a_node18"><a xlink:href="a00053_source.html" target="_top" xlink:title="tm_stm32f4_pwm.h">
<polygon fill="white" stroke="black" points="505.09,-280.5 505.09,-299.5 608.09,-299.5 608.09,-280.5 505.09,-280.5"/>
<text text-anchor="middle" x="556.59" y="-287.5" font-family="Helvetica,sans-Serif" font-size="10.00">tm_stm32f4_pwm.h</text>
</a>
</g>
</g>
<!-- Node1&#45;&gt;Node18 -->
<g id="edge27" class="edge"><title>Node1&#45;&gt;Node18</title>
<path fill="none" stroke="midnightblue" d="M827.261,-335.025C764.34,-324.791 667.527,-309.044 608.343,-299.418"/>
<polygon fill="midnightblue" stroke="midnightblue" points="827.01,-338.53 837.443,-336.681 828.134,-331.621 827.01,-338.53"/>
</g>
<!-- Node20 -->
<g id="node20" class="node"><title>Node20</title>
<g id="a_node20"><a xlink:href="a00055_source.html" target="_top" xlink:title="tm_stm32f4_timer.h">
<polygon fill="white" stroke="black" points="1090.59,-280.5 1090.59,-299.5 1194.59,-299.5 1194.59,-280.5 1090.59,-280.5"/>
<text text-anchor="middle" x="1142.59" y="-287.5" font-family="Helvetica,sans-Serif" font-size="10.00">tm_stm32f4_timer.h</text>
</a>
</g>
</g>
<!-- Node1&#45;&gt;Node20 -->
<g id="edge30" class="edge"><title>Node1&#45;&gt;Node20</title>
<path fill="none" stroke="midnightblue" d="M938.705,-334.346C986.707,-324.141 1058.21,-308.94 1102.53,-299.516"/>
<polygon fill="midnightblue" stroke="midnightblue" points="937.891,-330.94 928.837,-336.444 939.346,-337.787 937.891,-330.94"/>
</g>
<!-- Node22 -->
<g id="node22" class="node"><title>Node22</title>
<g id="a_node22"><a xlink:href="a00059_source.html" target="_top" xlink:title="tm_stm32f4_usart.h">
<polygon fill="white" stroke="black" points="729.59,-280.5 729.59,-299.5 833.59,-299.5 833.59,-280.5 729.59,-280.5"/>
<text text-anchor="middle" x="781.59" y="-287.5" font-family="Helvetica,sans-Serif" font-size="10.00">tm_stm32f4_usart.h</text>
</a>
</g>
</g>
<!-- Node1&#45;&gt;Node22 -->
<g id="edge32" class="edge"><title>Node1&#45;&gt;Node22</title>
<path fill="none" stroke="midnightblue" d="M862.288,-331.726C842.475,-321.727 815.883,-308.307 798.739,-299.655"/>
<polygon fill="midnightblue" stroke="midnightblue" points="860.894,-334.943 871.399,-336.324 864.048,-328.694 860.894,-334.943"/>
</g>
<!-- Node3 -->
<g id="node3" class="node"><title>Node3</title>
<g id="a_node3"><a xlink:href="a00024.html" target="_top" xlink:title="md_stm32f4_dac.c">
<polygon fill="white" stroke="black" points="348.59,-224.5 348.59,-243.5 448.59,-243.5 448.59,-224.5 348.59,-224.5"/>
<text text-anchor="middle" x="398.59" y="-231.5" font-family="Helvetica,sans-Serif" font-size="10.00">md_stm32f4_dac.c</text>
</a>
</g>
</g>
<!-- Node2&#45;&gt;Node3 -->
<g id="edge2" class="edge"><title>Node2&#45;&gt;Node3</title>
<path fill="none" stroke="midnightblue" d="M347.18,-274.101C359.958,-264.382 376.203,-252.027 386.975,-243.834"/>
<polygon fill="midnightblue" stroke="midnightblue" points="344.838,-271.484 338.997,-280.324 349.076,-277.056 344.838,-271.484"/>
</g>
<!-- Node4 -->
<g id="node4" class="node"><title>Node4</title>
<g id="a_node4"><a xlink:href="a00027.html" target="_top" xlink:title="Waveform generation extension for DAC library. ">
<polygon fill="white" stroke="black" points="182.59,-224.5 182.59,-243.5 330.59,-243.5 330.59,-224.5 182.59,-224.5"/>
<text text-anchor="middle" x="256.59" y="-231.5" font-family="Helvetica,sans-Serif" font-size="10.00">md_stm32f4_dac_waveform.h</text>
</a>
</g>
</g>
<!-- Node2&#45;&gt;Node4 -->
<g id="edge3" class="edge"><title>Node2&#45;&gt;Node4</title>
<path fill="none" stroke="midnightblue" d="M308,-274.101C295.222,-264.382 278.977,-252.027 268.205,-243.834"/>
<polygon fill="midnightblue" stroke="midnightblue" points="306.104,-277.056 316.183,-280.324 310.342,-271.484 306.104,-277.056"/>
</g>
<!-- Node6 -->
<g id="node6" class="node"><title>Node6</title>
<g id="a_node6"><a xlink:href="a00014.html" target="_top" xlink:title="Provides DMA related configuration and access functions for ADC and DAC. ">
<polygon fill="white" stroke="black" points="78.59,-224.5 78.59,-243.5 164.59,-243.5 164.59,-224.5 78.59,-224.5"/>
<text text-anchor="middle" x="121.59" y="-231.5" font-family="Helvetica,sans-Serif" font-size="10.00">adc_dac_dma.h</text>
</a>
</g>
</g>
<!-- Node2&#45;&gt;Node6 -->
<g id="edge5" class="edge"><title>Node2&#45;&gt;Node6</title>
<path fill="none" stroke="midnightblue" d="M284.975,-277.829C246.08,-267.633 189.426,-252.782 154.079,-243.516"/>
<polygon fill="midnightblue" stroke="midnightblue" points="284.388,-281.293 294.949,-280.444 286.163,-274.522 284.388,-281.293"/>
</g>
<!-- Node5 -->
<g id="node5" class="node"><title>Node5</title>
<g id="a_node5"><a xlink:href="a00026_source.html" target="_top" xlink:title="md_stm32f4_dac_waveform.c">
<polygon fill="white" stroke="black" points="300.59,-168.5 300.59,-187.5 448.59,-187.5 448.59,-168.5 300.59,-168.5"/>
<text text-anchor="middle" x="374.59" y="-175.5" font-family="Helvetica,sans-Serif" font-size="10.00">md_stm32f4_dac_waveform.c</text>
</a>
</g>
</g>
<!-- Node4&#45;&gt;Node5 -->
<g id="edge4" class="edge"><title>Node4&#45;&gt;Node5</title>
<path fill="none" stroke="midnightblue" d="M284.49,-220.232C306.563,-210.131 336.766,-196.309 355.98,-187.516"/>
<polygon fill="midnightblue" stroke="midnightblue" points="282.924,-217.1 275.287,-224.444 285.837,-223.465 282.924,-217.1"/>
</g>
<!-- Node7 -->
<g id="node7" class="node"><title>Node7</title>
<g id="a_node7"><a xlink:href="a00012.html" target="_top" xlink:title="Controlling beam and primary actuators. ">
<polygon fill="white" stroke="black" points="19.09,-168.5 19.09,-187.5 84.09,-187.5 84.09,-168.5 19.09,-168.5"/>
<text text-anchor="middle" x="51.59" y="-175.5" font-family="Helvetica,sans-Serif" font-size="10.00">actuators.h</text>
</a>
</g>
</g>
<!-- Node6&#45;&gt;Node7 -->
<g id="edge6" class="edge"><title>Node6&#45;&gt;Node7</title>
<path fill="none" stroke="midnightblue" d="M96.9572,-218.658C83.0724,-208.859 66.9401,-196.184 57.8926,-187.834"/>
<polygon fill="midnightblue" stroke="midnightblue" points="95.0004,-221.56 105.228,-224.324 98.9561,-215.785 95.0004,-221.56"/>
</g>
<!-- Node8 -->
<g id="node8" class="node"><title>Node8</title>
<g id="a_node8"><a xlink:href="a00023.html" target="_top" xlink:title="Main header definition. ">
<polygon fill="white" stroke="black" points="149.59,-112.5 149.59,-131.5 195.59,-131.5 195.59,-112.5 149.59,-112.5"/>
<text text-anchor="middle" x="172.59" y="-119.5" font-family="Helvetica,sans-Serif" font-size="10.00">main.h</text>
</a>
</g>
</g>
<!-- Node6&#45;&gt;Node8 -->
<g id="edge19" class="edge"><title>Node6&#45;&gt;Node8</title>
<path fill="none" stroke="midnightblue" d="M124.904,-214.674C133.584,-190.625 153.152,-149.388 164.771,-131.591"/>
<polygon fill="midnightblue" stroke="midnightblue" points="121.515,-213.776 121.749,-224.368 128.172,-215.942 121.515,-213.776"/>
</g>
<!-- Node9 -->
<g id="node9" class="node"><title>Node9</title>
<g id="a_node9"><a xlink:href="a00021.html" target="_top" xlink:title="Analog processing related callback handler definition. ">
<polygon fill="white" stroke="black" points="62.59,-56.5 62.59,-75.5 144.59,-75.5 144.59,-56.5 62.59,-56.5"/>
<text text-anchor="middle" x="103.59" y="-63.5" font-family="Helvetica,sans-Serif" font-size="10.00">isr_callbacks.h</text>
</a>
</g>
</g>
<!-- Node6&#45;&gt;Node9 -->
<g id="edge20" class="edge"><title>Node6&#45;&gt;Node9</title>
<path fill="none" stroke="midnightblue" d="M119.522,-213.93C115.617,-177.92 107.302,-101.231 104.519,-75.5681"/>
<polygon fill="midnightblue" stroke="midnightblue" points="116.065,-214.511 120.622,-224.075 123.024,-213.756 116.065,-214.511"/>
</g>
<!-- Node14 -->
<g id="node14" class="node"><title>Node14</title>
<g id="a_node14"><a xlink:href="a00013.html" target="_top" xlink:title="adc_dac_dma.c">
<polygon fill="white" stroke="black" points="196.59,-168.5 196.59,-187.5 282.59,-187.5 282.59,-168.5 196.59,-168.5"/>
<text text-anchor="middle" x="239.59" y="-175.5" font-family="Helvetica,sans-Serif" font-size="10.00">adc_dac_dma.c</text>
</a>
</g>
</g>
<!-- Node6&#45;&gt;Node14 -->
<g id="edge21" class="edge"><title>Node6&#45;&gt;Node14</title>
<path fill="none" stroke="midnightblue" d="M149.49,-220.232C171.563,-210.131 201.766,-196.309 220.98,-187.516"/>
<polygon fill="midnightblue" stroke="midnightblue" points="147.924,-217.1 140.287,-224.444 150.837,-223.465 147.924,-217.1"/>
</g>
<!-- Node7&#45;&gt;Node6 -->
<g id="edge16" class="edge"><title>Node7&#45;&gt;Node6</title>
<path fill="none" stroke="midnightblue" d="M76.2382,-193.352C90.2072,-203.212 106.447,-215.979 115.458,-224.324"/>
<polygon fill="midnightblue" stroke="midnightblue" points="78.1471,-190.418 67.9189,-187.655 74.1916,-196.193 78.1471,-190.418"/>
</g>
<!-- Node7&#45;&gt;Node8 -->
<g id="edge7" class="edge"><title>Node7&#45;&gt;Node8</title>
<path fill="none" stroke="midnightblue" d="M79.8955,-164.368C102.555,-154.255 133.716,-140.349 153.507,-131.516"/>
<polygon fill="midnightblue" stroke="midnightblue" points="78.4683,-161.172 70.7628,-168.444 81.3211,-167.564 78.4683,-161.172"/>
</g>
<!-- Node10 -->
<g id="node10" class="node"><title>Node10</title>
<g id="a_node10"><a xlink:href="a00020.html" target="_top" xlink:title="Callback handler implementations. ">
<polygon fill="white" stroke="black" points="96.59,-0.5 96.59,-19.5 178.59,-19.5 178.59,-0.5 96.59,-0.5"/>
<text text-anchor="middle" x="137.59" y="-7.5" font-family="Helvetica,sans-Serif" font-size="10.00">isr_callbacks.c</text>
</a>
</g>
</g>
<!-- Node7&#45;&gt;Node10 -->
<g id="edge18" class="edge"><title>Node7&#45;&gt;Node10</title>
<path fill="none" stroke="midnightblue" d="M28.4941,-162.354C18.5481,-154.659 7.97994,-144.268 2.58998,-132 -0.98549,-123.862 -0.619003,-120.289 2.58998,-112 21.5579,-63.0021 80.298,-33.0603 113.711,-19.5408"/>
<polygon fill="midnightblue" stroke="midnightblue" points="26.7623,-165.419 36.9286,-168.402 30.8415,-159.73 26.7623,-165.419"/>
</g>
<!-- Node13 -->
<g id="node13" class="node"><title>Node13</title>
<g id="a_node13"><a xlink:href="a00011.html" target="_top" xlink:title="Controlling beam and primary actuators. ">
<polygon fill="white" stroke="black" points="19.09,-112.5 19.09,-131.5 84.09,-131.5 84.09,-112.5 19.09,-112.5"/>
<text text-anchor="middle" x="51.59" y="-119.5" font-family="Helvetica,sans-Serif" font-size="10.00">actuators.c</text>
</a>
</g>
</g>
<!-- Node7&#45;&gt;Node13 -->
<g id="edge17" class="edge"><title>Node7&#45;&gt;Node13</title>
<path fill="none" stroke="midnightblue" d="M51.59,-157.805C51.59,-148.91 51.59,-138.78 51.59,-131.751"/>
<polygon fill="midnightblue" stroke="midnightblue" points="48.0901,-158.083 51.59,-168.083 55.0901,-158.083 48.0901,-158.083"/>
</g>
<!-- Node8&#45;&gt;Node6 -->
<g id="edge8" class="edge"><title>Node8&#45;&gt;Node6</title>
<path fill="none" stroke="midnightblue" d="M169.296,-141.272C160.632,-165.295 141.066,-206.537 129.435,-224.368"/>
<polygon fill="midnightblue" stroke="midnightblue" points="172.68,-142.184 172.442,-131.591 166.023,-140.02 172.68,-142.184"/>
</g>
<!-- Node8&#45;&gt;Node9 -->
<g id="edge9" class="edge"><title>Node8&#45;&gt;Node9</title>
<path fill="none" stroke="midnightblue" d="M147.834,-106.38C134.22,-96.6204 118.538,-84.1057 109.729,-75.8339"/>
<polygon fill="midnightblue" stroke="midnightblue" points="146.18,-109.493 156.389,-112.324 150.174,-103.744 146.18,-109.493"/>
</g>
<!-- Node8&#45;&gt;Node10 -->
<g id="edge13" class="edge"><title>Node8&#45;&gt;Node10</title>
<path fill="none" stroke="midnightblue" d="M167.47,-102.44C163.796,-89.391 158.624,-71.5551 153.59,-56 149.454,-43.2202 144.145,-28.5945 140.805,-19.5768"/>
<polygon fill="midnightblue" stroke="midnightblue" points="164.111,-103.427 170.168,-112.12 170.854,-101.547 164.111,-103.427"/>
</g>
<!-- Node11 -->
<g id="node11" class="node"><title>Node11</title>
<g id="a_node11"><a xlink:href="a00022.html" target="_top" xlink:title="Main source implementation (29&#45;04&#45;2015) ">
<polygon fill="white" stroke="black" points="300.59,-56.5 300.59,-75.5 346.59,-75.5 346.59,-56.5 300.59,-56.5"/>
<text text-anchor="middle" x="323.59" y="-63.5" font-family="Helvetica,sans-Serif" font-size="10.00">main.c</text>
</a>
</g>
</g>
<!-- Node8&#45;&gt;Node11 -->
<g id="edge14" class="edge"><title>Node8&#45;&gt;Node11</title>
<path fill="none" stroke="midnightblue" d="M205.46,-109.245C234.194,-98.9695 275.182,-84.3114 300.549,-75.24"/>
<polygon fill="midnightblue" stroke="midnightblue" points="204.09,-106.018 195.853,-112.681 206.447,-112.609 204.09,-106.018"/>
</g>
<!-- Node12 -->
<g id="node12" class="node"><title>Node12</title>
<g id="a_node12"><a xlink:href="a00047.html" target="_top" xlink:title="stm32f4xx_it.c">
<polygon fill="white" stroke="black" points="201.09,-56.5 201.09,-75.5 282.09,-75.5 282.09,-56.5 201.09,-56.5"/>
<text text-anchor="middle" x="241.59" y="-63.5" font-family="Helvetica,sans-Serif" font-size="10.00">stm32f4xx_it.c</text>
</a>
</g>
</g>
<!-- Node8&#45;&gt;Node12 -->
<g id="edge15" class="edge"><title>Node8&#45;&gt;Node12</title>
<path fill="none" stroke="midnightblue" d="M191.628,-106.101C204.046,-96.3824 219.833,-84.0269 230.302,-75.8339"/>
<polygon fill="midnightblue" stroke="midnightblue" points="189.394,-103.405 183.676,-112.324 193.708,-108.917 189.394,-103.405"/>
</g>
<!-- Node9&#45;&gt;Node7 -->
<g id="edge11" class="edge"><title>Node9&#45;&gt;Node7</title>
<path fill="none" stroke="midnightblue" d="M54.0256,-78.9583C36.9407,-85.7108 19.5985,-96.1125 9.58998,-112 -3.22875,-132.349 22.4128,-156.02 38.9975,-168.419"/>
<polygon fill="midnightblue" stroke="midnightblue" points="55.2177,-82.2491 63.4425,-75.5706 52.8481,-75.6623 55.2177,-82.2491"/>
</g>
<!-- Node9&#45;&gt;Node8 -->
<g id="edge10" class="edge"><title>Node9&#45;&gt;Node8</title>
<path fill="none" stroke="midnightblue" d="M128.363,-81.6322C142.06,-91.4527 157.846,-104.058 166.619,-112.324"/>
<polygon fill="midnightblue" stroke="midnightblue" points="129.968,-78.4856 119.759,-75.6545 125.974,-84.2345 129.968,-78.4856"/>
</g>
<!-- Node9&#45;&gt;Node10 -->
<g id="edge12" class="edge"><title>Node9&#45;&gt;Node10</title>
<path fill="none" stroke="midnightblue" d="M114.567,-47.5656C120.417,-38.2747 127.36,-27.2484 132.08,-19.7511"/>
<polygon fill="midnightblue" stroke="midnightblue" points="111.571,-45.7558 109.204,-56.083 117.494,-49.4855 111.571,-45.7558"/>
</g>
<!-- Node15&#45;&gt;Node8 -->
<g id="edge24" class="edge"><title>Node15&#45;&gt;Node8</title>
<path fill="none" stroke="midnightblue" d="M800.919,-168.009C557.822,-142.337 277.2,-127.941 195.774,-124.068"/>
<polygon fill="midnightblue" stroke="midnightblue" points="800.691,-171.505 811.006,-169.083 801.433,-164.544 800.691,-171.505"/>
</g>
<!-- Node15&#45;&gt;Node10 -->
<g id="edge25" class="edge"><title>Node15&#45;&gt;Node10</title>
<path fill="none" stroke="midnightblue" d="M864.015,-158.182C862.497,-143.362 857.894,-123.368 844.59,-112 743.375,-25.5126 314.457,-13.0546 178.86,-11.2853"/>
<polygon fill="midnightblue" stroke="midnightblue" points="860.529,-158.524 864.667,-168.278 867.515,-158.073 860.529,-158.524"/>
</g>
<!-- Node16 -->
<g id="node16" class="node"><title>Node16</title>
<g id="a_node16"><a xlink:href="a00030.html" target="_top" xlink:title="DESCRIPTION. ">
<polygon fill="white" stroke="black" points="729.09,-112.5 729.09,-131.5 836.09,-131.5 836.09,-112.5 729.09,-112.5"/>
<text text-anchor="middle" x="782.59" y="-119.5" font-family="Helvetica,sans-Serif" font-size="10.00">md_stm32f4_disco.c</text>
</a>
</g>
</g>
<!-- Node15&#45;&gt;Node16 -->
<g id="edge23" class="edge"><title>Node15&#45;&gt;Node16</title>
<path fill="none" stroke="midnightblue" d="M842.757,-162.622C827.777,-152.757 808.392,-139.992 795.732,-131.655"/>
<polygon fill="midnightblue" stroke="midnightblue" points="841.139,-165.747 851.415,-168.324 844.989,-159.901 841.139,-165.747"/>
</g>
<!-- Node18&#45;&gt;Node8 -->
<g id="edge29" class="edge"><title>Node18&#45;&gt;Node8</title>
<path fill="none" stroke="midnightblue" d="M532.42,-275.002C520.246,-267.068 505.92,-256.278 495.59,-244 471.278,-215.102 488.063,-190.306 457.59,-168 415.856,-137.451 256.01,-126.906 195.755,-123.97"/>
<polygon fill="midnightblue" stroke="midnightblue" points="530.871,-278.162 541.207,-280.491 534.579,-272.225 530.871,-278.162"/>
</g>
<!-- Node19 -->
<g id="node19" class="node"><title>Node19</title>
<g id="a_node19"><a xlink:href="a00052_source.html" target="_top" xlink:title="tm_stm32f4_pwm.c">
<polygon fill="white" stroke="black" points="505.09,-224.5 505.09,-243.5 608.09,-243.5 608.09,-224.5 505.09,-224.5"/>
<text text-anchor="middle" x="556.59" y="-231.5" font-family="Helvetica,sans-Serif" font-size="10.00">tm_stm32f4_pwm.c</text>
</a>
</g>
</g>
<!-- Node18&#45;&gt;Node19 -->
<g id="edge28" class="edge"><title>Node18&#45;&gt;Node19</title>
<path fill="none" stroke="midnightblue" d="M556.59,-269.805C556.59,-260.91 556.59,-250.78 556.59,-243.751"/>
<polygon fill="midnightblue" stroke="midnightblue" points="553.09,-270.083 556.59,-280.083 560.09,-270.083 553.09,-270.083"/>
</g>
<!-- Node21 -->
<g id="node21" class="node"><title>Node21</title>
<g id="a_node21"><a xlink:href="a00054_source.html" target="_top" xlink:title="tm_stm32f4_timer.c">
<polygon fill="white" stroke="black" points="1090.59,-224.5 1090.59,-243.5 1194.59,-243.5 1194.59,-224.5 1090.59,-224.5"/>
<text text-anchor="middle" x="1142.59" y="-231.5" font-family="Helvetica,sans-Serif" font-size="10.00">tm_stm32f4_timer.c</text>
</a>
</g>
</g>
<!-- Node20&#45;&gt;Node21 -->
<g id="edge31" class="edge"><title>Node20&#45;&gt;Node21</title>
<path fill="none" stroke="midnightblue" d="M1142.59,-269.805C1142.59,-260.91 1142.59,-250.78 1142.59,-243.751"/>
<polygon fill="midnightblue" stroke="midnightblue" points="1139.09,-270.083 1142.59,-280.083 1146.09,-270.083 1139.09,-270.083"/>
</g>
<!-- Node22&#45;&gt;Node8 -->
<g id="edge36" class="edge"><title>Node22&#45;&gt;Node8</title>
<path fill="none" stroke="midnightblue" d="M744.553,-277.195C719.184,-268.764 684.948,-256.706 655.59,-244 637.713,-236.263 634.278,-232.16 616.59,-224 557.234,-196.618 543.627,-185.3 480.59,-168 376.624,-139.468 247.649,-128.077 195.783,-124.439"/>
<polygon fill="midnightblue" stroke="midnightblue" points="743.562,-280.553 754.155,-280.353 745.75,-273.904 743.562,-280.553"/>
</g>
<!-- Node23 -->
<g id="node23" class="node"><title>Node23</title>
<g id="a_node23"><a xlink:href="a00058_source.html" target="_top" xlink:title="tm_stm32f4_usart.c">
<polygon fill="white" stroke="black" points="810.59,-224.5 810.59,-243.5 914.59,-243.5 914.59,-224.5 810.59,-224.5"/>
<text text-anchor="middle" x="862.59" y="-231.5" font-family="Helvetica,sans-Serif" font-size="10.00">tm_stm32f4_usart.c</text>
</a>
</g>
</g>
<!-- Node22&#45;&gt;Node23 -->
<g id="edge33" class="edge"><title>Node22&#45;&gt;Node23</title>
<path fill="none" stroke="midnightblue" d="M803.157,-274.622C817.954,-264.757 837.102,-251.992 849.608,-243.655"/>
<polygon fill="midnightblue" stroke="midnightblue" points="800.983,-271.865 794.604,-280.324 804.866,-277.689 800.983,-271.865"/>
</g>
<!-- Node24 -->
<g id="node24" class="node"><title>Node24</title>
<g id="a_node24"><a xlink:href="a00061_source.html" target="_top" xlink:title="tm_stm32f4_usart_dma.h">
<polygon fill="white" stroke="black" points="664.59,-224.5 664.59,-243.5 792.59,-243.5 792.59,-224.5 664.59,-224.5"/>
<text text-anchor="middle" x="728.59" y="-231.5" font-family="Helvetica,sans-Serif" font-size="10.00">tm_stm32f4_usart_dma.h</text>
</a>
</g>
</g>
<!-- Node22&#45;&gt;Node24 -->
<g id="edge34" class="edge"><title>Node22&#45;&gt;Node24</title>
<path fill="none" stroke="midnightblue" d="M765.609,-272.718C756.268,-263.2 744.844,-251.561 737.179,-243.751"/>
<polygon fill="midnightblue" stroke="midnightblue" points="763.335,-275.398 772.838,-280.083 768.331,-270.494 763.335,-275.398"/>
</g>
<!-- Node25 -->
<g id="node25" class="node"><title>Node25</title>
<g id="a_node25"><a xlink:href="a00060_source.html" target="_top" xlink:title="tm_stm32f4_usart_dma.c">
<polygon fill="white" stroke="black" points="664.59,-168.5 664.59,-187.5 792.59,-187.5 792.59,-168.5 664.59,-168.5"/>
<text text-anchor="middle" x="728.59" y="-175.5" font-family="Helvetica,sans-Serif" font-size="10.00">tm_stm32f4_usart_dma.c</text>
</a>
</g>
</g>
<!-- Node24&#45;&gt;Node25 -->
<g id="edge35" class="edge"><title>Node24&#45;&gt;Node25</title>
<path fill="none" stroke="midnightblue" d="M728.59,-213.805C728.59,-204.91 728.59,-194.78 728.59,-187.751"/>
<polygon fill="midnightblue" stroke="midnightblue" points="725.09,-214.083 728.59,-224.083 732.09,-214.083 725.09,-214.083"/>
</g>
</g>
</svg>
