<?xml version="1.0" encoding="UTF-8" standalone="no"?>
<!DOCTYPE svg PUBLIC "-//W3C//DTD SVG 1.1//EN"
 "http://www.w3.org/Graphics/SVG/1.1/DTD/svg11.dtd">
<!-- Generated by graphviz version 2.38.0 (20140413.2041)
 -->
<!-- Title: actuators.c Pages: 1 -->
<svg width="2140pt" height="364pt"
 viewBox="0.00 0.00 2140.42 364.00" xmlns="http://www.w3.org/2000/svg" xmlns:xlink="http://www.w3.org/1999/xlink">
<g id="graph0" class="graph" transform="scale(1 1) rotate(0) translate(4 360)">
<title>actuators.c</title>
<polygon fill="white" stroke="none" points="-4,4 -4,-360 2136.42,-360 2136.42,4 -4,4"/>
<!-- Node1 -->
<g id="node1" class="node"><title>Node1</title>
<polygon fill="#bfbfbf" stroke="black" points="168.5,-336.5 168.5,-355.5 233.5,-355.5 233.5,-336.5 168.5,-336.5"/>
<text text-anchor="middle" x="201" y="-343.5" font-family="Helvetica,sans-Serif" font-size="10.00">actuators.c</text>
</g>
<!-- Node2 -->
<g id="node2" class="node"><title>Node2</title>
<g id="a_node2"><a xlink:href="a00012.html" target="_top" xlink:title="Controlling beam and primary actuators. ">
<polygon fill="white" stroke="black" points="370.5,-280.5 370.5,-299.5 435.5,-299.5 435.5,-280.5 370.5,-280.5"/>
<text text-anchor="middle" x="403" y="-287.5" font-family="Helvetica,sans-Serif" font-size="10.00">actuators.h</text>
</a>
</g>
</g>
<!-- Node1&#45;&gt;Node2 -->
<g id="edge1" class="edge"><title>Node1&#45;&gt;Node2</title>
<path fill="none" stroke="midnightblue" d="M233.008,-336.444C267.729,-327.162 323.288,-312.309 361.377,-302.127"/>
<polygon fill="midnightblue" stroke="midnightblue" points="362.385,-305.48 371.142,-299.516 360.578,-298.718 362.385,-305.48"/>
</g>
<!-- Node5 -->
<g id="node5" class="node"><title>Node5</title>
<g id="a_node5"><a xlink:href="a00019.html" target="_top" xlink:title="Global defines include file. ">
<polygon fill="white" stroke="black" points="471,-0.5 471,-19.5 527,-19.5 527,-0.5 471,-0.5"/>
<text text-anchor="middle" x="499" y="-7.5" font-family="Helvetica,sans-Serif" font-size="10.00">globals.h</text>
</a>
</g>
</g>
<!-- Node1&#45;&gt;Node5 -->
<g id="edge89" class="edge"><title>Node1&#45;&gt;Node5</title>
<path fill="none" stroke="midnightblue" d="M168.259,-341.964C111.303,-334.69 0,-310.78 0,-235 0,-235 0,-235 0,-121 0,-77.225 33.9076,-73.5741 74,-56 142.962,-25.7711 369.719,-15.1889 460.714,-12.1017"/>
<polygon fill="midnightblue" stroke="midnightblue" points="460.986,-15.5947 470.866,-11.7695 460.757,-8.59849 460.986,-15.5947"/>
</g>
<!-- Node3 -->
<g id="node3" class="node"><title>Node3</title>
<polygon fill="white" stroke="#bfbfbf" points="424,-56.5 424,-75.5 470,-75.5 470,-56.5 424,-56.5"/>
<text text-anchor="middle" x="447" y="-63.5" font-family="Helvetica,sans-Serif" font-size="10.00">stdio.h</text>
</g>
<!-- Node2&#45;&gt;Node3 -->
<g id="edge2" class="edge"><title>Node2&#45;&gt;Node3</title>
<path fill="none" stroke="midnightblue" d="M370.164,-283.63C274.635,-266.717 8.9142,-209.792 95,-112 95.3301,-111.625 326.523,-82.2759 413.999,-71.1831"/>
<polygon fill="midnightblue" stroke="midnightblue" points="414.449,-74.6542 423.929,-69.924 413.569,-67.7098 414.449,-74.6542"/>
</g>
<!-- Node4 -->
<g id="node4" class="node"><title>Node4</title>
<g id="a_node4"><a xlink:href="a00014.html" target="_top" xlink:title="Provides DMA related configuration and access functions for ADC and DAC. ">
<polygon fill="white" stroke="black" points="538,-224.5 538,-243.5 624,-243.5 624,-224.5 538,-224.5"/>
<text text-anchor="middle" x="581" y="-231.5" font-family="Helvetica,sans-Serif" font-size="10.00">adc_dac_dma.h</text>
</a>
</g>
</g>
<!-- Node2&#45;&gt;Node4 -->
<g id="edge3" class="edge"><title>Node2&#45;&gt;Node4</title>
<path fill="none" stroke="midnightblue" d="M426.116,-280.444C454.433,-271.241 502.64,-256.562 537.836,-246.388"/>
<polygon fill="midnightblue" stroke="midnightblue" points="539.2,-249.638 547.847,-243.516 537.27,-242.909 539.2,-249.638"/>
</g>
<!-- Node2&#45;&gt;Node5 -->
<g id="edge84" class="edge"><title>Node2&#45;&gt;Node5</title>
<path fill="none" stroke="midnightblue" d="M370.287,-286.201C280.698,-277.642 38,-248.079 38,-179 38,-179 38,-179 38,-121 38,-34.3151 350.294,-15.8069 460.809,-11.9711"/>
<polygon fill="midnightblue" stroke="midnightblue" points="460.976,-15.4676 470.856,-11.6439 460.748,-8.47134 460.976,-15.4676"/>
</g>
<!-- Node26 -->
<g id="node26" class="node"><title>Node26</title>
<g id="a_node26"><a xlink:href="a00021.html" target="_top" xlink:title="Analog processing related callback handler definition. ">
<polygon fill="white" stroke="black" points="104,-112.5 104,-131.5 186,-131.5 186,-112.5 104,-112.5"/>
<text text-anchor="middle" x="145" y="-119.5" font-family="Helvetica,sans-Serif" font-size="10.00">isr_callbacks.h</text>
</a>
</g>
</g>
<!-- Node2&#45;&gt;Node26 -->
<g id="edge85" class="edge"><title>Node2&#45;&gt;Node26</title>
<path fill="none" stroke="midnightblue" d="M370.475,-282.679C321.582,-271.609 228.927,-244.321 173,-188 160.306,-175.216 152.967,-155.753 149.014,-141.456"/>
<polygon fill="midnightblue" stroke="midnightblue" points="152.408,-140.599 146.618,-131.726 145.611,-142.272 152.408,-140.599"/>
</g>
<!-- Node27 -->
<g id="node27" class="node"><title>Node27</title>
<g id="a_node27"><a xlink:href="a00038.html" target="_top" xlink:title="Project MD_APP scanner specific pin mappings. ">
<polygon fill="white" stroke="black" points="2047.5,-112.5 2047.5,-131.5 2114.5,-131.5 2114.5,-112.5 2047.5,-112.5"/>
<text text-anchor="middle" x="2081" y="-119.5" font-family="Helvetica,sans-Serif" font-size="10.00">mdb_gpio.h</text>
</a>
</g>
</g>
<!-- Node2&#45;&gt;Node27 -->
<g id="edge86" class="edge"><title>Node2&#45;&gt;Node27</title>
<path fill="none" stroke="midnightblue" d="M435.748,-286.215C568.482,-274.878 1079.36,-230.766 1499,-188 1700.28,-167.488 1940.31,-139.589 2037.22,-128.182"/>
<polygon fill="midnightblue" stroke="midnightblue" points="2037.72,-131.648 2047.24,-127.002 2036.9,-124.696 2037.72,-131.648"/>
</g>
<!-- Node28 -->
<g id="node28" class="node"><title>Node28</title>
<g id="a_node28"><a xlink:href="a00042_source.html" target="_top" xlink:title="pid.h">
<polygon fill="white" stroke="black" points="280,-112.5 280,-131.5 318,-131.5 318,-112.5 280,-112.5"/>
<text text-anchor="middle" x="299" y="-119.5" font-family="Helvetica,sans-Serif" font-size="10.00">pid.h</text>
</a>
</g>
</g>
<!-- Node2&#45;&gt;Node28 -->
<g id="edge87" class="edge"><title>Node2&#45;&gt;Node28</title>
<path fill="none" stroke="midnightblue" d="M397.409,-280.075C380.825,-253.606 331.709,-175.209 309.782,-140.21"/>
<polygon fill="midnightblue" stroke="midnightblue" points="312.643,-138.184 304.368,-131.568 306.711,-141.901 312.643,-138.184"/>
</g>
<!-- Node31 -->
<g id="node31" class="node"><title>Node31</title>
<g id="a_node31"><a xlink:href="a00063_source.html" target="_top" xlink:title="tools.h">
<polygon fill="white" stroke="black" points="708,-112.5 708,-131.5 754,-131.5 754,-112.5 708,-112.5"/>
<text text-anchor="middle" x="731" y="-119.5" font-family="Helvetica,sans-Serif" font-size="10.00">tools.h</text>
</a>
</g>
</g>
<!-- Node2&#45;&gt;Node31 -->
<g id="edge88" class="edge"><title>Node2&#45;&gt;Node31</title>
<path fill="none" stroke="midnightblue" d="M435.73,-287.329C534.69,-281.526 827.434,-258.577 884,-188 889.559,-181.064 889.325,-175.117 884,-168 883.072,-166.76 808.595,-145.241 763.907,-132.416"/>
<polygon fill="midnightblue" stroke="midnightblue" points="764.633,-128.984 754.056,-129.592 762.704,-135.712 764.633,-128.984"/>
</g>
<!-- Node4&#45;&gt;Node2 -->
<g id="edge83" class="edge"><title>Node4&#45;&gt;Node2</title>
<path fill="none" stroke="midnightblue" d="M557.884,-243.556C529.493,-252.783 481.108,-267.515 445.888,-277.692"/>
<polygon fill="midnightblue" stroke="midnightblue" points="444.523,-274.442 435.875,-280.562 446.452,-281.171 444.523,-274.442"/>
</g>
<!-- Node4&#45;&gt;Node5 -->
<g id="edge4" class="edge"><title>Node4&#45;&gt;Node5</title>
<path fill="none" stroke="midnightblue" d="M537.913,-225.997C458.228,-212.049 293.014,-178.124 261,-132 248.329,-113.744 259.252,-71.0293 275,-56 301.204,-30.9929 404.025,-18.7635 460.808,-13.8078"/>
<polygon fill="midnightblue" stroke="midnightblue" points="461.174,-17.2895 470.846,-12.9657 460.588,-10.314 461.174,-17.2895"/>
</g>
<!-- Node6 -->
<g id="node6" class="node"><title>Node6</title>
<g id="a_node6"><a xlink:href="a00040.html" target="_top" xlink:title="Provides nested vector interrupt controller configuration methods. ">
<polygon fill="white" stroke="black" points="1058,-168.5 1058,-187.5 1132,-187.5 1132,-168.5 1058,-168.5"/>
<text text-anchor="middle" x="1095" y="-175.5" font-family="Helvetica,sans-Serif" font-size="10.00">nvic_config.h</text>
</a>
</g>
</g>
<!-- Node4&#45;&gt;Node6 -->
<g id="edge5" class="edge"><title>Node4&#45;&gt;Node6</title>
<path fill="none" stroke="midnightblue" d="M624.38,-228.443C720.103,-218.386 948.762,-194.364 1047.86,-183.952"/>
<polygon fill="midnightblue" stroke="midnightblue" points="1048.3,-187.425 1057.88,-182.899 1047.57,-180.463 1048.3,-187.425"/>
</g>
<!-- Node8 -->
<g id="node8" class="node"><title>Node8</title>
<g id="a_node8"><a xlink:href="a00023.html" target="_top" xlink:title="Main header definition. ">
<polygon fill="white" stroke="black" points="533,-168.5 533,-187.5 579,-187.5 579,-168.5 533,-168.5"/>
<text text-anchor="middle" x="556" y="-175.5" font-family="Helvetica,sans-Serif" font-size="10.00">main.h</text>
</a>
</g>
</g>
<!-- Node4&#45;&gt;Node8 -->
<g id="edge7" class="edge"><title>Node4&#45;&gt;Node8</title>
<path fill="none" stroke="midnightblue" d="M571.705,-224.083C566.83,-216.849 561.574,-206.409 558.081,-197.397"/>
<polygon fill="midnightblue" stroke="midnightblue" points="561.361,-196.164 554.92,-187.751 554.709,-198.344 561.361,-196.164"/>
</g>
<!-- Node13 -->
<g id="node13" class="node"><title>Node13</title>
<polygon fill="white" stroke="#bfbfbf" points="1367.5,-0.5 1367.5,-19.5 1438.5,-19.5 1438.5,-0.5 1367.5,-0.5"/>
<text text-anchor="middle" x="1403" y="-7.5" font-family="Helvetica,sans-Serif" font-size="10.00">stm32f4xx.h</text>
</g>
<!-- Node4&#45;&gt;Node13 -->
<g id="edge81" class="edge"><title>Node4&#45;&gt;Node13</title>
<path fill="none" stroke="midnightblue" d="M624.027,-233.218C718.601,-232.901 951.267,-227.747 1141,-188 1290.12,-156.76 1376.6,-200.093 1465,-76 1479,-56.3521 1453.44,-36.7161 1431.02,-24.2514"/>
<polygon fill="midnightblue" stroke="midnightblue" points="1432.52,-21.0872 1422.05,-19.5264 1429.26,-27.2815 1432.52,-21.0872"/>
</g>
<!-- Node14 -->
<g id="node14" class="node"><title>Node14</title>
<polygon fill="white" stroke="#bfbfbf" points="1874.5,-0.5 1874.5,-19.5 1963.5,-19.5 1963.5,-0.5 1874.5,-0.5"/>
<text text-anchor="middle" x="1919" y="-7.5" font-family="Helvetica,sans-Serif" font-size="10.00">stm32f4xx_rcc.h</text>
</g>
<!-- Node4&#45;&gt;Node14 -->
<g id="edge80" class="edge"><title>Node4&#45;&gt;Node14</title>
<path fill="none" stroke="midnightblue" d="M624.281,-231.818C869.096,-224.928 2071.27,-188.299 2124,-132 2138.48,-116.539 2133.28,-78.3307 2111,-56 2091.94,-36.8984 2023.55,-24.2582 1973.81,-17.3649"/>
<polygon fill="midnightblue" stroke="midnightblue" points="1974.19,-13.8852 1963.82,-16.0218 1973.26,-20.8228 1974.19,-13.8852"/>
</g>
<!-- Node4&#45;&gt;Node28 -->
<g id="edge77" class="edge"><title>Node4&#45;&gt;Node28</title>
<path fill="none" stroke="midnightblue" d="M558.872,-224.368C508.162,-204.588 383.607,-156.003 327.37,-134.066"/>
<polygon fill="midnightblue" stroke="midnightblue" points="328.598,-130.788 318.01,-130.415 326.054,-137.31 328.598,-130.788"/>
</g>
<!-- Node4&#45;&gt;Node31 -->
<g id="edge82" class="edge"><title>Node4&#45;&gt;Node31</title>
<path fill="none" stroke="midnightblue" d="M585.764,-224.323C593.611,-210.718 610.45,-184.247 631,-168 651.021,-152.171 677.497,-140.58 698.177,-133.129"/>
<polygon fill="midnightblue" stroke="midnightblue" points="699.499,-136.375 707.809,-129.803 697.215,-129.759 699.499,-136.375"/>
</g>
<!-- Node33 -->
<g id="node33" class="node"><title>Node33</title>
<g id="a_node33"><a xlink:href="a00025.html" target="_top" xlink:title="Project XA&#45;Galvo scanner specific digital to analog converter methods. ">
<polygon fill="white" stroke="black" points="898,-112.5 898,-131.5 998,-131.5 998,-112.5 898,-112.5"/>
<text text-anchor="middle" x="948" y="-119.5" font-family="Helvetica,sans-Serif" font-size="10.00">md_stm32f4_dac.h</text>
</a>
</g>
</g>
<!-- Node4&#45;&gt;Node33 -->
<g id="edge73" class="edge"><title>Node4&#45;&gt;Node33</title>
<path fill="none" stroke="midnightblue" d="M590.664,-224.409C608.855,-208.416 647.807,-175.053 664,-168 669.121,-165.77 805.98,-144.65 887.811,-132.152"/>
<polygon fill="midnightblue" stroke="midnightblue" points="888.392,-135.604 897.749,-130.635 887.336,-128.684 888.392,-135.604"/>
</g>
<!-- Node34 -->
<g id="node34" class="node"><title>Node34</title>
<polygon fill="white" stroke="#bfbfbf" points="673,-168.5 673,-187.5 765,-187.5 765,-168.5 673,-168.5"/>
<text text-anchor="middle" x="719" y="-175.5" font-family="Helvetica,sans-Serif" font-size="10.00">stm32f4xx_adc.h</text>
</g>
<!-- Node4&#45;&gt;Node34 -->
<g id="edge78" class="edge"><title>Node4&#45;&gt;Node34</title>
<path fill="none" stroke="midnightblue" d="M602.867,-224.444C625.779,-215.478 661.975,-201.314 687.866,-191.183"/>
<polygon fill="midnightblue" stroke="midnightblue" points="689.199,-194.42 697.236,-187.516 686.648,-187.901 689.199,-194.42"/>
</g>
<!-- Node35 -->
<g id="node35" class="node"><title>Node35</title>
<polygon fill="white" stroke="#bfbfbf" points="783,-168.5 783,-187.5 875,-187.5 875,-168.5 783,-168.5"/>
<text text-anchor="middle" x="829" y="-175.5" font-family="Helvetica,sans-Serif" font-size="10.00">stm32f4xx_dac.h</text>
</g>
<!-- Node4&#45;&gt;Node35 -->
<g id="edge79" class="edge"><title>Node4&#45;&gt;Node35</title>
<path fill="none" stroke="midnightblue" d="M620.296,-224.444C663.559,-215.023 733.173,-199.866 779.973,-189.675"/>
<polygon fill="midnightblue" stroke="midnightblue" points="780.861,-193.064 789.888,-187.516 779.372,-186.224 780.861,-193.064"/>
</g>
<!-- Node7 -->
<g id="node7" class="node"><title>Node7</title>
<polygon fill="white" stroke="#bfbfbf" points="1247,-56.5 1247,-75.5 1293,-75.5 1293,-56.5 1247,-56.5"/>
<text text-anchor="middle" x="1270" y="-63.5" font-family="Helvetica,sans-Serif" font-size="10.00">misc.h</text>
</g>
<!-- Node6&#45;&gt;Node7 -->
<g id="edge6" class="edge"><title>Node6&#45;&gt;Node7</title>
<path fill="none" stroke="midnightblue" d="M1123.5,-168.407C1146.16,-160.826 1178.07,-148.427 1203,-132 1223.82,-118.287 1243.81,-97.5873 1256.45,-83.2472"/>
<polygon fill="midnightblue" stroke="midnightblue" points="1259.12,-85.5031 1262.99,-75.6397 1253.82,-80.938 1259.12,-85.5031"/>
</g>
<!-- Node8&#45;&gt;Node2 -->
<g id="edge47" class="edge"><title>Node8&#45;&gt;Node2</title>
<path fill="none" stroke="midnightblue" d="M544.05,-187.591C517.959,-206.35 455.644,-251.151 423.284,-274.417"/>
<polygon fill="midnightblue" stroke="midnightblue" points="421.082,-271.689 415.006,-280.368 425.168,-277.373 421.082,-271.689"/>
</g>
<!-- Node8&#45;&gt;Node3 -->
<g id="edge8" class="edge"><title>Node8&#45;&gt;Node3</title>
<path fill="none" stroke="midnightblue" d="M548.979,-168.25C538.56,-155.44 518.166,-131.041 499,-112 488.413,-101.482 475.767,-90.5068 465.597,-82.0284"/>
<polygon fill="midnightblue" stroke="midnightblue" points="467.682,-79.211 457.736,-75.5586 463.233,-84.6159 467.682,-79.211"/>
</g>
<!-- Node8&#45;&gt;Node4 -->
<g id="edge48" class="edge"><title>Node8&#45;&gt;Node4</title>
<path fill="none" stroke="midnightblue" d="M565.182,-187.751C570.052,-194.936 575.319,-205.362 578.838,-214.396"/>
<polygon fill="midnightblue" stroke="midnightblue" points="575.578,-215.685 582.038,-224.083 582.225,-213.49 575.578,-215.685"/>
</g>
<!-- Node8&#45;&gt;Node5 -->
<g id="edge12" class="edge"><title>Node8&#45;&gt;Node5</title>
<path fill="none" stroke="midnightblue" d="M532.823,-177.021C471.034,-176.535 304.762,-171.511 271,-132 252.493,-110.342 276.209,-72.1529 296,-56 320.855,-35.7134 409.065,-21.9033 460.666,-15.3564"/>
<polygon fill="midnightblue" stroke="midnightblue" points="461.281,-18.807 470.776,-14.107 460.423,-11.8599 461.281,-18.807"/>
</g>
<!-- Node9 -->
<g id="node9" class="node"><title>Node9</title>
<polygon fill="white" stroke="#bfbfbf" points="488,-56.5 488,-75.5 536,-75.5 536,-56.5 488,-56.5"/>
<text text-anchor="middle" x="512" y="-63.5" font-family="Helvetica,sans-Serif" font-size="10.00">stdlib.h</text>
</g>
<!-- Node8&#45;&gt;Node9 -->
<g id="edge9" class="edge"><title>Node8&#45;&gt;Node9</title>
<path fill="none" stroke="midnightblue" d="M552.919,-168.099C548.515,-155.513 540.061,-131.837 532,-112 528.334,-102.978 523.971,-93.0758 520.257,-84.8626"/>
<polygon fill="midnightblue" stroke="midnightblue" points="523.342,-83.1945 516,-75.5561 516.977,-86.1059 523.342,-83.1945"/>
</g>
<!-- Node10 -->
<g id="node10" class="node"><title>Node10</title>
<polygon fill="white" stroke="#bfbfbf" points="554.5,-56.5 554.5,-75.5 603.5,-75.5 603.5,-56.5 554.5,-56.5"/>
<text text-anchor="middle" x="579" y="-63.5" font-family="Helvetica,sans-Serif" font-size="10.00">string.h</text>
</g>
<!-- Node8&#45;&gt;Node10 -->
<g id="edge10" class="edge"><title>Node8&#45;&gt;Node10</title>
<path fill="none" stroke="midnightblue" d="M579.463,-170.244C607.44,-161.658 651.611,-146.239 661,-132 676.723,-108.155 642.203,-89.0817 613.224,-77.9131"/>
<polygon fill="midnightblue" stroke="midnightblue" points="614.283,-74.5739 603.689,-74.433 611.883,-81.1496 614.283,-74.5739"/>
</g>
<!-- Node11 -->
<g id="node11" class="node"><title>Node11</title>
<g id="a_node11"><a xlink:href="a00016.html" target="_top" xlink:title="Platform/Compiler dependent definitions. ">
<polygon fill="white" stroke="black" points="971.5,-56.5 971.5,-75.5 1036.5,-75.5 1036.5,-56.5 971.5,-56.5"/>
<text text-anchor="middle" x="1004" y="-63.5" font-family="Helvetica,sans-Serif" font-size="10.00">attributes.h</text>
</a>
</g>
</g>
<!-- Node8&#45;&gt;Node11 -->
<g id="edge11" class="edge"><title>Node8&#45;&gt;Node11</title>
<path fill="none" stroke="midnightblue" d="M579.091,-174.904C670.647,-166.569 1003.36,-136.024 1007,-132 1018.12,-119.72 1015.51,-100.184 1011.26,-85.7318"/>
<polygon fill="midnightblue" stroke="midnightblue" points="1014.44,-84.2034 1007.89,-75.8757 1007.82,-86.4703 1014.44,-84.2034"/>
</g>
<!-- Node12 -->
<g id="node12" class="node"><title>Node12</title>
<g id="a_node12"><a xlink:href="a00029.html" target="_top" xlink:title="Provides SysTick&#45;Timer driven delay functions. ">
<polygon fill="white" stroke="black" points="1349.5,-56.5 1349.5,-75.5 1456.5,-75.5 1456.5,-56.5 1349.5,-56.5"/>
<text text-anchor="middle" x="1403" y="-63.5" font-family="Helvetica,sans-Serif" font-size="10.00">md_stm32f4_delay.h</text>
</a>
</g>
</g>
<!-- Node8&#45;&gt;Node12 -->
<g id="edge13" class="edge"><title>Node8&#45;&gt;Node12</title>
<path fill="none" stroke="midnightblue" d="M579.166,-174.959C601.029,-173.058 634.731,-170.197 664,-168 903.416,-150.03 967.252,-177.452 1203,-132 1264.87,-120.072 1334.21,-94.6864 1372.84,-79.4085"/>
<polygon fill="midnightblue" stroke="midnightblue" points="1374.44,-82.5355 1382.43,-75.5717 1371.84,-76.0362 1374.44,-82.5355"/>
</g>
<!-- Node15 -->
<g id="node15" class="node"><title>Node15</title>
<g id="a_node15"><a xlink:href="a00031.html" target="_top" xlink:title="Definitions to extend board support for STM32F429i&#45;DISCO and equivalent boards. ">
<polygon fill="white" stroke="black" points="772.5,-112.5 772.5,-131.5 879.5,-131.5 879.5,-112.5 772.5,-112.5"/>
<text text-anchor="middle" x="826" y="-119.5" font-family="Helvetica,sans-Serif" font-size="10.00">md_stm32f4_disco.h</text>
</a>
</g>
</g>
<!-- Node8&#45;&gt;Node15 -->
<g id="edge17" class="edge"><title>Node8&#45;&gt;Node15</title>
<path fill="none" stroke="midnightblue" d="M579.02,-172.396C621.816,-163.837 714.615,-145.277 773.483,-133.503"/>
<polygon fill="midnightblue" stroke="midnightblue" points="774.224,-136.925 783.343,-131.531 772.851,-130.061 774.224,-136.925"/>
</g>
<!-- Node17 -->
<g id="node17" class="node"><title>Node17</title>
<g id="a_node17"><a xlink:href="a00035_source.html" target="_top" xlink:title="md_stm32f4_timer.h">
<polygon fill="white" stroke="black" points="1947,-56.5 1947,-75.5 2053,-75.5 2053,-56.5 1947,-56.5"/>
<text text-anchor="middle" x="2000" y="-63.5" font-family="Helvetica,sans-Serif" font-size="10.00">md_stm32f4_timer.h</text>
</a>
</g>
</g>
<!-- Node8&#45;&gt;Node17 -->
<g id="edge22" class="edge"><title>Node8&#45;&gt;Node17</title>
<path fill="none" stroke="midnightblue" d="M579.151,-174.747C601.005,-172.698 634.7,-169.735 664,-168 1118.15,-141.102 1235.32,-186.448 1687,-132 1785.18,-120.164 1898.33,-93.3128 1958.04,-78.0837"/>
<polygon fill="midnightblue" stroke="midnightblue" points="1959.04,-81.4409 1967.86,-75.5625 1957.3,-74.6611 1959.04,-81.4409"/>
</g>
<!-- Node18 -->
<g id="node18" class="node"><title>Node18</title>
<g id="a_node18"><a xlink:href="a00053_source.html" target="_top" xlink:title="tm_stm32f4_pwm.h">
<polygon fill="white" stroke="black" points="1575.5,-112.5 1575.5,-131.5 1678.5,-131.5 1678.5,-112.5 1575.5,-112.5"/>
<text text-anchor="middle" x="1627" y="-119.5" font-family="Helvetica,sans-Serif" font-size="10.00">tm_stm32f4_pwm.h</text>
</a>
</g>
</g>
<!-- Node8&#45;&gt;Node18 -->
<g id="edge25" class="edge"><title>Node8&#45;&gt;Node18</title>
<path fill="none" stroke="midnightblue" d="M579.156,-174.825C601.013,-172.83 634.71,-169.904 664,-168 1004,-145.897 1412.22,-130.491 1565.16,-125.108"/>
<polygon fill="midnightblue" stroke="midnightblue" points="1565.42,-128.601 1575.29,-124.753 1565.17,-121.605 1565.42,-128.601"/>
</g>
<!-- Node22 -->
<g id="node22" class="node"><title>Node22</title>
<g id="a_node22"><a xlink:href="a00059_source.html" target="_top" xlink:title="tm_stm32f4_usart.h">
<polygon fill="white" stroke="black" points="1090,-112.5 1090,-131.5 1194,-131.5 1194,-112.5 1090,-112.5"/>
<text text-anchor="middle" x="1142" y="-119.5" font-family="Helvetica,sans-Serif" font-size="10.00">tm_stm32f4_usart.h</text>
</a>
</g>
</g>
<!-- Node8&#45;&gt;Node22 -->
<g id="edge36" class="edge"><title>Node8&#45;&gt;Node22</title>
<path fill="none" stroke="midnightblue" d="M579.334,-174.85C663.272,-167.115 951.661,-140.54 1079.79,-128.732"/>
<polygon fill="midnightblue" stroke="midnightblue" points="1080.21,-132.209 1089.84,-127.806 1079.57,-125.239 1080.21,-132.209"/>
</g>
<!-- Node24 -->
<g id="node24" class="node"><title>Node24</title>
<polygon fill="white" stroke="#bfbfbf" points="336,-112.5 336,-131.5 404,-131.5 404,-112.5 336,-112.5"/>
<text text-anchor="middle" x="370" y="-119.5" font-family="Helvetica,sans-Serif" font-size="10.00">core_cm4.h</text>
</g>
<!-- Node8&#45;&gt;Node24 -->
<g id="edge45" class="edge"><title>Node8&#45;&gt;Node24</title>
<path fill="none" stroke="midnightblue" d="M532.819,-170.27C501.931,-161.303 446.828,-145.305 409.365,-134.429"/>
<polygon fill="midnightblue" stroke="midnightblue" points="409.881,-130.934 399.302,-131.507 407.929,-137.656 409.881,-130.934"/>
</g>
<!-- Node25 -->
<g id="node25" class="node"><title>Node25</title>
<polygon fill="white" stroke="#bfbfbf" points="422,-112.5 422,-131.5 490,-131.5 490,-112.5 422,-112.5"/>
<text text-anchor="middle" x="456" y="-119.5" font-family="Helvetica,sans-Serif" font-size="10.00">arm_math.h</text>
</g>
<!-- Node8&#45;&gt;Node25 -->
<g id="edge46" class="edge"><title>Node8&#45;&gt;Node25</title>
<path fill="none" stroke="midnightblue" d="M539.933,-168.324C524.042,-159.743 499.493,-146.486 481.042,-136.522"/>
<polygon fill="midnightblue" stroke="midnightblue" points="482.489,-133.326 472.027,-131.655 479.163,-139.486 482.489,-133.326"/>
</g>
<!-- Node8&#45;&gt;Node26 -->
<g id="edge49" class="edge"><title>Node8&#45;&gt;Node26</title>
<path fill="none" stroke="midnightblue" d="M532.769,-174.359C468.143,-166.417 285.946,-142.553 196.163,-130.354"/>
<polygon fill="midnightblue" stroke="midnightblue" points="196.587,-126.879 186.206,-128.997 195.642,-133.815 196.587,-126.879"/>
</g>
<!-- Node8&#45;&gt;Node27 -->
<g id="edge53" class="edge"><title>Node8&#45;&gt;Node27</title>
<path fill="none" stroke="midnightblue" d="M579.149,-174.712C601.001,-172.637 634.695,-169.658 664,-168 1198.5,-137.76 1333,-151.301 1868,-132 1926.6,-129.886 1994.25,-126.941 2037.31,-125.004"/>
<polygon fill="midnightblue" stroke="midnightblue" points="2037.6,-128.494 2047.43,-124.546 2037.29,-121.501 2037.6,-128.494"/>
</g>
<!-- Node8&#45;&gt;Node28 -->
<g id="edge57" class="edge"><title>Node8&#45;&gt;Node28</title>
<path fill="none" stroke="midnightblue" d="M532.721,-173.351C492.73,-166.887 408.284,-152.376 327.965,-132.008"/>
<polygon fill="midnightblue" stroke="midnightblue" points="328.75,-128.596 318.193,-129.496 327.006,-135.376 328.75,-128.596"/>
</g>
<!-- Node30 -->
<g id="node30" class="node"><title>Node30</title>
<g id="a_node30"><a xlink:href="a00045_source.html" target="_top" xlink:title="signalGen.h">
<polygon fill="white" stroke="black" points="584,-112.5 584,-131.5 652,-131.5 652,-112.5 584,-112.5"/>
<text text-anchor="middle" x="618" y="-119.5" font-family="Helvetica,sans-Serif" font-size="10.00">signalGen.h</text>
</a>
</g>
</g>
<!-- Node8&#45;&gt;Node30 -->
<g id="edge64" class="edge"><title>Node8&#45;&gt;Node30</title>
<path fill="none" stroke="midnightblue" d="M565.961,-168.324C575.127,-160.341 588.937,-148.313 600.028,-138.653"/>
<polygon fill="midnightblue" stroke="midnightblue" points="602.615,-141.041 607.857,-131.834 598.018,-135.762 602.615,-141.041"/>
</g>
<!-- Node8&#45;&gt;Node31 -->
<g id="edge68" class="edge"><title>Node8&#45;&gt;Node31</title>
<path fill="none" stroke="midnightblue" d="M579.239,-169.829C609.787,-160.403 663.626,-143.79 698.283,-133.096"/>
<polygon fill="midnightblue" stroke="midnightblue" points="699.421,-136.407 707.944,-130.114 697.357,-129.719 699.421,-136.407"/>
</g>
<!-- Node12&#45;&gt;Node5 -->
<g id="edge16" class="edge"><title>Node12&#45;&gt;Node5</title>
<path fill="none" stroke="midnightblue" d="M1349.22,-57.4895C1344.42,-56.9376 1339.62,-56.4298 1335,-56 1028.04,-27.4686 655.864,-15.325 537.243,-11.9991"/>
<polygon fill="midnightblue" stroke="midnightblue" points="537.297,-8.49932 527.204,-11.7218 537.104,-15.4967 537.297,-8.49932"/>
</g>
<!-- Node12&#45;&gt;Node13 -->
<g id="edge14" class="edge"><title>Node12&#45;&gt;Node13</title>
<path fill="none" stroke="midnightblue" d="M1403,-56.083C1403,-49.0059 1403,-38.8611 1403,-29.9865"/>
<polygon fill="midnightblue" stroke="midnightblue" points="1406.5,-29.751 1403,-19.7511 1399.5,-29.7511 1406.5,-29.751"/>
</g>
<!-- Node12&#45;&gt;Node14 -->
<g id="edge15" class="edge"><title>Node12&#45;&gt;Node14</title>
<path fill="none" stroke="midnightblue" d="M1456.76,-59.3739C1555.48,-49.0423 1764.65,-27.1529 1864.17,-16.7383"/>
<polygon fill="midnightblue" stroke="midnightblue" points="1864.73,-20.1987 1874.31,-15.6768 1864,-13.2367 1864.73,-20.1987"/>
</g>
<!-- Node15&#45;&gt;Node5 -->
<g id="edge19" class="edge"><title>Node15&#45;&gt;Node5</title>
<path fill="none" stroke="midnightblue" d="M808.434,-112.412C774.26,-95.7409 701.109,-60.2531 689,-56 637.621,-37.9536 575.906,-24.836 537.06,-17.5677"/>
<polygon fill="midnightblue" stroke="midnightblue" points="537.685,-14.1241 527.217,-15.76 536.42,-21.0089 537.685,-14.1241"/>
</g>
<!-- Node15&#45;&gt;Node13 -->
<g id="edge18" class="edge"><title>Node15&#45;&gt;Node13</title>
<path fill="none" stroke="midnightblue" d="M823.735,-112.399C820.627,-98.4094 816.995,-70.8048 832,-56 869.049,-19.4442 1227.41,-12.5832 1356.74,-11.2966"/>
<polygon fill="midnightblue" stroke="midnightblue" points="1357.13,-14.7933 1367.1,-11.2008 1357.07,-7.79357 1357.13,-14.7933"/>
</g>
<!-- Node16 -->
<g id="node16" class="node"><title>Node16</title>
<g id="a_node16"><a xlink:href="a00033.html" target="_top" xlink:title="Provides generic methods for GPIO module initialization and manipulation. ">
<polygon fill="white" stroke="black" points="851,-56.5 851,-75.5 953,-75.5 953,-56.5 851,-56.5"/>
<text text-anchor="middle" x="902" y="-63.5" font-family="Helvetica,sans-Serif" font-size="10.00">md_stm32f4_gpio.h</text>
</a>
</g>
</g>
<!-- Node15&#45;&gt;Node16 -->
<g id="edge20" class="edge"><title>Node15&#45;&gt;Node16</title>
<path fill="none" stroke="midnightblue" d="M838.211,-112.324C849.776,-104.107 867.375,-91.6017 881.161,-81.8069"/>
<polygon fill="midnightblue" stroke="midnightblue" points="883.443,-84.4791 889.567,-75.8339 879.388,-78.7729 883.443,-84.4791"/>
</g>
<!-- Node16&#45;&gt;Node13 -->
<g id="edge21" class="edge"><title>Node16&#45;&gt;Node13</title>
<path fill="none" stroke="midnightblue" d="M953.04,-57.1765C956.07,-56.7641 959.074,-56.3685 962,-56 1105.96,-37.8684 1277.07,-22.0363 1357.25,-14.9508"/>
<polygon fill="midnightblue" stroke="midnightblue" points="1357.84,-18.4129 1367.49,-14.05 1357.23,-11.4399 1357.84,-18.4129"/>
</g>
<!-- Node17&#45;&gt;Node13 -->
<g id="edge23" class="edge"><title>Node17&#45;&gt;Node13</title>
<path fill="none" stroke="midnightblue" d="M1946.76,-60.1841C1830.89,-49.704 1557.58,-24.9821 1448.81,-15.144"/>
<polygon fill="midnightblue" stroke="midnightblue" points="1449.09,-11.6545 1438.81,-14.2393 1448.46,-18.626 1449.09,-11.6545"/>
</g>
<!-- Node17&#45;&gt;Node14 -->
<g id="edge24" class="edge"><title>Node17&#45;&gt;Node14</title>
<path fill="none" stroke="midnightblue" d="M1986.99,-56.324C1974.47,-47.979 1955.32,-35.2122 1940.53,-25.3524"/>
<polygon fill="midnightblue" stroke="midnightblue" points="1942.24,-22.2894 1931.98,-19.6545 1938.36,-28.1137 1942.24,-22.2894"/>
</g>
<!-- Node18&#45;&gt;Node5 -->
<g id="edge35" class="edge"><title>Node18&#45;&gt;Node5</title>
<path fill="none" stroke="midnightblue" d="M1575.26,-118.011C1516.85,-113.472 1419.59,-102.376 1340,-76 1321.88,-69.9964 1320.39,-61.0949 1302,-56 1155.45,-15.4037 676.923,-11.3127 537.466,-10.9953"/>
<polygon fill="midnightblue" stroke="midnightblue" points="537.275,-7.4951 527.269,-10.9776 537.263,-14.4951 537.275,-7.4951"/>
</g>
<!-- Node18&#45;&gt;Node13 -->
<g id="edge26" class="edge"><title>Node18&#45;&gt;Node13</title>
<path fill="none" stroke="midnightblue" d="M1610.51,-112.418C1586.22,-99.8195 1539.32,-75.6792 1499,-56 1476.22,-44.8791 1450.16,-32.6991 1430.95,-23.8185"/>
<polygon fill="midnightblue" stroke="midnightblue" points="1432.39,-20.6301 1421.85,-19.621 1429.46,-26.9869 1432.39,-20.6301"/>
</g>
<!-- Node18&#45;&gt;Node14 -->
<g id="edge27" class="edge"><title>Node18&#45;&gt;Node14</title>
<path fill="none" stroke="midnightblue" d="M1678.67,-118.908C1748.51,-115.029 1868,-104.346 1900,-76 1913.04,-64.4457 1917.35,-44.4816 1918.67,-29.7192"/>
<polygon fill="midnightblue" stroke="midnightblue" points="1922.17,-29.8366 1919.19,-19.6697 1915.18,-29.4763 1922.17,-29.8366"/>
</g>
<!-- Node19 -->
<g id="node19" class="node"><title>Node19</title>
<polygon fill="white" stroke="#bfbfbf" points="1797,-56.5 1797,-75.5 1891,-75.5 1891,-56.5 1797,-56.5"/>
<text text-anchor="middle" x="1844" y="-63.5" font-family="Helvetica,sans-Serif" font-size="10.00">stm32f4xx_gpio.h</text>
</g>
<!-- Node18&#45;&gt;Node19 -->
<g id="edge28" class="edge"><title>Node18&#45;&gt;Node19</title>
<path fill="none" stroke="midnightblue" d="M1661.38,-112.444C1698.92,-103.102 1759.13,-88.1194 1800.07,-77.9326"/>
<polygon fill="midnightblue" stroke="midnightblue" points="1800.92,-81.3278 1809.78,-75.5164 1799.23,-74.5349 1800.92,-81.3278"/>
</g>
<!-- Node20 -->
<g id="node20" class="node"><title>Node20</title>
<polygon fill="white" stroke="#bfbfbf" points="1653.5,-0.5 1653.5,-19.5 1742.5,-19.5 1742.5,-0.5 1653.5,-0.5"/>
<text text-anchor="middle" x="1698" y="-7.5" font-family="Helvetica,sans-Serif" font-size="10.00">stm32f4xx_tim.h</text>
</g>
<!-- Node18&#45;&gt;Node20 -->
<g id="edge29" class="edge"><title>Node18&#45;&gt;Node20</title>
<path fill="none" stroke="midnightblue" d="M1660.8,-112.388C1679.39,-105.735 1700.89,-94.4531 1712,-76 1720.72,-61.5167 1714.88,-42.3316 1708.29,-28.5644"/>
<polygon fill="midnightblue" stroke="midnightblue" points="1711.33,-26.8328 1703.55,-19.642 1705.15,-30.1155 1711.33,-26.8328"/>
</g>
<!-- Node21 -->
<g id="node21" class="node"><title>Node21</title>
<g id="a_node21"><a xlink:href="a00057_source.html" target="_top" xlink:title="tm_stm32f4_timer_properties.h">
<polygon fill="white" stroke="black" points="1551,-56.5 1551,-75.5 1703,-75.5 1703,-56.5 1551,-56.5"/>
<text text-anchor="middle" x="1627" y="-63.5" font-family="Helvetica,sans-Serif" font-size="10.00">tm_stm32f4_timer_properties.h</text>
</a>
</g>
</g>
<!-- Node18&#45;&gt;Node21 -->
<g id="edge30" class="edge"><title>Node18&#45;&gt;Node21</title>
<path fill="none" stroke="midnightblue" d="M1627,-112.083C1627,-105.006 1627,-94.8611 1627,-85.9865"/>
<polygon fill="midnightblue" stroke="midnightblue" points="1630.5,-85.751 1627,-75.7511 1623.5,-85.7511 1630.5,-85.751"/>
</g>
<!-- Node21&#45;&gt;Node5 -->
<g id="edge34" class="edge"><title>Node21&#45;&gt;Node5</title>
<path fill="none" stroke="midnightblue" d="M1550.78,-60.6246C1523.7,-59.1073 1492.99,-57.4295 1465,-56 1104.17,-37.5729 667.361,-18.3271 537.293,-12.6605"/>
<polygon fill="midnightblue" stroke="midnightblue" points="537.202,-9.15335 527.059,-12.2152 536.898,-16.1467 537.202,-9.15335"/>
</g>
<!-- Node21&#45;&gt;Node13 -->
<g id="edge31" class="edge"><title>Node21&#45;&gt;Node13</title>
<path fill="none" stroke="midnightblue" d="M1591.51,-56.4435C1552.68,-47.0826 1490.34,-32.0561 1448.08,-21.868"/>
<polygon fill="midnightblue" stroke="midnightblue" points="1448.87,-18.4576 1438.33,-19.5164 1447.23,-25.2626 1448.87,-18.4576"/>
</g>
<!-- Node21&#45;&gt;Node14 -->
<g id="edge32" class="edge"><title>Node21&#45;&gt;Node14</title>
<path fill="none" stroke="midnightblue" d="M1673.27,-56.4435C1725.2,-46.8406 1809.36,-31.2754 1864.45,-21.0878"/>
<polygon fill="midnightblue" stroke="midnightblue" points="1865.19,-24.511 1874.38,-19.2508 1863.91,-17.6277 1865.19,-24.511"/>
</g>
<!-- Node21&#45;&gt;Node20 -->
<g id="edge33" class="edge"><title>Node21&#45;&gt;Node20</title>
<path fill="none" stroke="midnightblue" d="M1638.41,-56.324C1649.11,-48.1849 1665.34,-35.8395 1678.16,-26.0874"/>
<polygon fill="midnightblue" stroke="midnightblue" points="1680.54,-28.6734 1686.39,-19.8339 1676.31,-23.1018 1680.54,-28.6734"/>
</g>
<!-- Node22&#45;&gt;Node5 -->
<g id="edge43" class="edge"><title>Node22&#45;&gt;Node5</title>
<path fill="none" stroke="midnightblue" d="M1130.62,-112.301C1109.22,-96.1217 1063.47,-62.4555 1045,-56 950.94,-23.1181 645.104,-13.9169 537.154,-11.6597"/>
<polygon fill="midnightblue" stroke="midnightblue" points="537.112,-8.15824 527.044,-11.4567 536.971,-15.1568 537.112,-8.15824"/>
</g>
<!-- Node22&#45;&gt;Node7 -->
<g id="edge37" class="edge"><title>Node22&#45;&gt;Node7</title>
<path fill="none" stroke="midnightblue" d="M1162.28,-112.444C1183.35,-103.557 1216.52,-89.5632 1240.49,-79.4514"/>
<polygon fill="midnightblue" stroke="midnightblue" points="1241.96,-82.6283 1249.81,-75.5164 1239.24,-76.1787 1241.96,-82.6283"/>
</g>
<!-- Node22&#45;&gt;Node11 -->
<g id="edge42" class="edge"><title>Node22&#45;&gt;Node11</title>
<path fill="none" stroke="midnightblue" d="M1120.13,-112.444C1097.22,-103.478 1061.02,-89.314 1035.13,-79.1827"/>
<polygon fill="midnightblue" stroke="midnightblue" points="1036.35,-75.9011 1025.76,-75.5164 1033.8,-82.4198 1036.35,-75.9011"/>
</g>
<!-- Node22&#45;&gt;Node13 -->
<g id="edge38" class="edge"><title>Node22&#45;&gt;Node13</title>
<path fill="none" stroke="midnightblue" d="M1152.25,-112.362C1169.1,-98.5688 1204.16,-71.5469 1238,-56 1276.51,-38.3051 1323.37,-26.3529 1357.3,-19.2405"/>
<polygon fill="midnightblue" stroke="midnightblue" points="1358.29,-22.611 1367.39,-17.1875 1356.89,-15.7515 1358.29,-22.611"/>
</g>
<!-- Node22&#45;&gt;Node14 -->
<g id="edge39" class="edge"><title>Node22&#45;&gt;Node14</title>
<path fill="none" stroke="midnightblue" d="M1194.01,-120.796C1294.86,-119.544 1523.68,-112.516 1712,-76 1745.38,-69.5268 1834.65,-39.8494 1884.36,-22.9206"/>
<polygon fill="midnightblue" stroke="midnightblue" points="1885.71,-26.1588 1894.04,-19.615 1883.45,-19.5344 1885.71,-26.1588"/>
</g>
<!-- Node22&#45;&gt;Node16 -->
<g id="edge44" class="edge"><title>Node22&#45;&gt;Node16</title>
<path fill="none" stroke="midnightblue" d="M1103.97,-112.444C1062.19,-103.043 995.018,-87.9291 949.73,-77.7393"/>
<polygon fill="midnightblue" stroke="midnightblue" points="950.375,-74.297 939.851,-75.5164 948.839,-81.1263 950.375,-74.297"/>
</g>
<!-- Node22&#45;&gt;Node19 -->
<g id="edge40" class="edge"><title>Node22&#45;&gt;Node19</title>
<path fill="none" stroke="midnightblue" d="M1194.05,-117.401C1298.53,-110.112 1541.25,-92.8628 1745,-76 1758.5,-74.8827 1773.03,-73.6044 1786.69,-72.369"/>
<polygon fill="midnightblue" stroke="midnightblue" points="1787.29,-75.8288 1796.93,-71.4359 1786.65,-68.8577 1787.29,-75.8288"/>
</g>
<!-- Node23 -->
<g id="node23" class="node"><title>Node23</title>
<polygon fill="white" stroke="#bfbfbf" points="1093,-56.5 1093,-75.5 1191,-75.5 1191,-56.5 1093,-56.5"/>
<text text-anchor="middle" x="1142" y="-63.5" font-family="Helvetica,sans-Serif" font-size="10.00">stm32f4xx_usart.h</text>
</g>
<!-- Node22&#45;&gt;Node23 -->
<g id="edge41" class="edge"><title>Node22&#45;&gt;Node23</title>
<path fill="none" stroke="midnightblue" d="M1142,-112.083C1142,-105.006 1142,-94.8611 1142,-85.9865"/>
<polygon fill="midnightblue" stroke="midnightblue" points="1145.5,-85.751 1142,-75.7511 1138.5,-85.7511 1145.5,-85.751"/>
</g>
<!-- Node26&#45;&gt;Node4 -->
<g id="edge52" class="edge"><title>Node26&#45;&gt;Node4</title>
<path fill="none" stroke="midnightblue" d="M149.398,-131.538C157.333,-145.957 175.519,-174.846 200,-188 255.436,-217.787 436.627,-228.118 527.715,-231.487"/>
<polygon fill="midnightblue" stroke="midnightblue" points="527.714,-234.989 537.832,-231.846 527.963,-227.993 527.714,-234.989"/>
</g>
<!-- Node26&#45;&gt;Node5 -->
<g id="edge51" class="edge"><title>Node26&#45;&gt;Node5</title>
<path fill="none" stroke="midnightblue" d="M149.702,-112.083C157.835,-97.6399 175.99,-69.3976 200,-56 244.038,-31.4268 390.399,-18.3911 460.683,-13.4164"/>
<polygon fill="midnightblue" stroke="midnightblue" points="461.145,-16.8929 470.881,-12.7136 460.664,-9.90949 461.145,-16.8929"/>
</g>
<!-- Node26&#45;&gt;Node8 -->
<g id="edge50" class="edge"><title>Node26&#45;&gt;Node8</title>
<path fill="none" stroke="midnightblue" d="M186.303,-127.89C267.916,-138.146 447.969,-161.802 522.66,-172.082"/>
<polygon fill="midnightblue" stroke="midnightblue" points="522.506,-175.594 532.891,-173.499 523.466,-168.66 522.506,-175.594"/>
</g>
<!-- Node27&#45;&gt;Node13 -->
<g id="edge54" class="edge"><title>Node27&#45;&gt;Node13</title>
<path fill="none" stroke="midnightblue" d="M2081.34,-112.152C2081.35,-97.8076 2079.04,-69.7044 2062,-56 2038.13,-36.807 1595.09,-18.3065 1449.17,-12.7111"/>
<polygon fill="midnightblue" stroke="midnightblue" points="1448.91,-9.19875 1438.79,-12.3154 1448.65,-16.1937 1448.91,-9.19875"/>
</g>
<!-- Node27&#45;&gt;Node14 -->
<g id="edge56" class="edge"><title>Node27&#45;&gt;Node14</title>
<path fill="none" stroke="midnightblue" d="M2086.79,-112.448C2095.1,-99.0158 2108.03,-72.7764 2095,-56 2080.16,-36.8938 2019.91,-24.5274 1974,-17.6839"/>
<polygon fill="midnightblue" stroke="midnightblue" points="1974.25,-14.1841 1963.86,-16.2254 1973.26,-21.1129 1974.25,-14.1841"/>
</g>
<!-- Node27&#45;&gt;Node19 -->
<g id="edge55" class="edge"><title>Node27&#45;&gt;Node19</title>
<path fill="none" stroke="midnightblue" d="M2047.3,-113.32C2006.46,-104.016 1937.41,-88.2823 1891.27,-77.7693"/>
<polygon fill="midnightblue" stroke="midnightblue" points="1892.03,-74.3531 1881.5,-75.544 1890.47,-81.1782 1892.03,-74.3531"/>
</g>
<!-- Node28&#45;&gt;Node3 -->
<g id="edge59" class="edge"><title>Node28&#45;&gt;Node3</title>
<path fill="none" stroke="midnightblue" d="M318.045,-114.051C342.385,-105.17 384.895,-89.66 414.423,-78.8861"/>
<polygon fill="midnightblue" stroke="midnightblue" points="415.7,-82.146 423.895,-75.4303 413.301,-75.57 415.7,-82.146"/>
</g>
<!-- Node28&#45;&gt;Node5 -->
<g id="edge63" class="edge"><title>Node28&#45;&gt;Node5</title>
<path fill="none" stroke="midnightblue" d="M297.547,-112.131C295.818,-98.2621 294.75,-71.4365 309,-56 329.232,-34.0829 411.435,-21.0335 460.846,-15.0171"/>
<polygon fill="midnightblue" stroke="midnightblue" points="461.335,-18.4838 470.858,-13.8394 460.517,-11.5317 461.335,-18.4838"/>
</g>
<!-- Node28&#45;&gt;Node9 -->
<g id="edge58" class="edge"><title>Node28&#45;&gt;Node9</title>
<path fill="none" stroke="midnightblue" d="M318.22,-114.603C321.15,-113.692 324.147,-112.795 327,-112 390.872,-94.2006 410.021,-93.1934 477.955,-76.1894"/>
<polygon fill="midnightblue" stroke="midnightblue" points="479.038,-79.5258 487.874,-73.6805 477.321,-72.7395 479.038,-79.5258"/>
</g>
<!-- Node28&#45;&gt;Node10 -->
<g id="edge60" class="edge"><title>Node28&#45;&gt;Node10</title>
<path fill="none" stroke="midnightblue" d="M318.174,-114.426C321.11,-113.539 324.122,-112.696 327,-112 419.372,-89.6562 447.2,-96.125 544.253,-75.9653"/>
<polygon fill="midnightblue" stroke="midnightblue" points="545.126,-79.358 554.183,-73.8608 543.675,-72.5101 545.126,-79.358"/>
</g>
<!-- Node28&#45;&gt;Node13 -->
<g id="edge62" class="edge"><title>Node28&#45;&gt;Node13</title>
<path fill="none" stroke="midnightblue" d="M313.337,-112.474C341.904,-95.5576 404.123,-59.1057 415,-56 506.155,-29.9722 1175.27,-15.3628 1357.36,-11.8406"/>
<polygon fill="midnightblue" stroke="midnightblue" points="1357.48,-15.3391 1367.41,-11.648 1357.34,-8.34038 1357.48,-15.3391"/>
</g>
<!-- Node29 -->
<g id="node29" class="node"><title>Node29</title>
<polygon fill="white" stroke="#bfbfbf" points="318.5,-56.5 318.5,-75.5 367.5,-75.5 367.5,-56.5 318.5,-56.5"/>
<text text-anchor="middle" x="343" y="-63.5" font-family="Helvetica,sans-Serif" font-size="10.00">stdint.h</text>
</g>
<!-- Node28&#45;&gt;Node29 -->
<g id="edge61" class="edge"><title>Node28&#45;&gt;Node29</title>
<path fill="none" stroke="midnightblue" d="M306.266,-112.083C312.545,-104.377 321.788,-93.0333 329.431,-83.6531"/>
<polygon fill="midnightblue" stroke="midnightblue" points="332.266,-85.7143 335.869,-75.7511 326.839,-81.2926 332.266,-85.7143"/>
</g>
<!-- Node30&#45;&gt;Node3 -->
<g id="edge67" class="edge"><title>Node30&#45;&gt;Node3</title>
<path fill="none" stroke="midnightblue" d="M590.905,-112.444C560.822,-102.944 512.263,-87.6095 479.991,-77.4183"/>
<polygon fill="midnightblue" stroke="midnightblue" points="480.72,-73.978 470.13,-74.3042 478.612,-80.6531 480.72,-73.978"/>
</g>
<!-- Node30&#45;&gt;Node9 -->
<g id="edge66" class="edge"><title>Node30&#45;&gt;Node9</title>
<path fill="none" stroke="midnightblue" d="M600.969,-112.324C583.97,-103.664 557.624,-90.2424 538.007,-80.249"/>
<polygon fill="midnightblue" stroke="midnightblue" points="539.488,-77.0752 528.988,-75.6545 536.31,-83.3125 539.488,-77.0752"/>
</g>
<!-- Node30&#45;&gt;Node10 -->
<g id="edge65" class="edge"><title>Node30&#45;&gt;Node10</title>
<path fill="none" stroke="midnightblue" d="M611.56,-112.083C606.051,-104.455 597.969,-93.2645 591.235,-83.9408"/>
<polygon fill="midnightblue" stroke="midnightblue" points="594.013,-81.8087 585.32,-75.7511 588.338,-85.9071 594.013,-81.8087"/>
</g>
<!-- Node31&#45;&gt;Node3 -->
<g id="edge69" class="edge"><title>Node31&#45;&gt;Node3</title>
<path fill="none" stroke="midnightblue" d="M707.916,-117.649C664.944,-111.247 569.619,-96.2756 479.797,-75.9966"/>
<polygon fill="midnightblue" stroke="midnightblue" points="480.532,-72.5743 470.003,-73.7589 478.972,-79.3985 480.532,-72.5743"/>
</g>
<!-- Node31&#45;&gt;Node9 -->
<g id="edge71" class="edge"><title>Node31&#45;&gt;Node9</title>
<path fill="none" stroke="midnightblue" d="M707.749,-115.602C674.206,-107.767 610.065,-92.6008 545.992,-76.2015"/>
<polygon fill="midnightblue" stroke="midnightblue" points="546.686,-72.7661 536.129,-73.667 544.943,-79.5458 546.686,-72.7661"/>
</g>
<!-- Node31&#45;&gt;Node10 -->
<g id="edge70" class="edge"><title>Node31&#45;&gt;Node10</title>
<path fill="none" stroke="midnightblue" d="M707.914,-112.799C682.581,-103.799 641.676,-89.2666 612.746,-78.9887"/>
<polygon fill="midnightblue" stroke="midnightblue" points="613.652,-75.5963 603.057,-75.5467 611.309,-82.1925 613.652,-75.5963"/>
</g>
<!-- Node32 -->
<g id="node32" class="node"><title>Node32</title>
<polygon fill="white" stroke="#bfbfbf" points="621.5,-56.5 621.5,-75.5 680.5,-75.5 680.5,-56.5 621.5,-56.5"/>
<text text-anchor="middle" x="651" y="-63.5" font-family="Helvetica,sans-Serif" font-size="10.00">inttypes.h</text>
</g>
<!-- Node31&#45;&gt;Node32 -->
<g id="edge72" class="edge"><title>Node31&#45;&gt;Node32</title>
<path fill="none" stroke="midnightblue" d="M718.147,-112.324C705.784,-103.979 686.87,-91.2122 672.263,-81.3524"/>
<polygon fill="midnightblue" stroke="midnightblue" points="674.068,-78.3483 663.821,-75.6545 670.152,-84.1503 674.068,-78.3483"/>
</g>
<!-- Node33&#45;&gt;Node5 -->
<g id="edge75" class="edge"><title>Node33&#45;&gt;Node5</title>
<path fill="none" stroke="midnightblue" d="M921.428,-112.439C879.834,-99.2228 796.681,-73.5478 725,-56 659.388,-39.9378 582.011,-25.4877 536.932,-17.5105"/>
<polygon fill="midnightblue" stroke="midnightblue" points="537.461,-14.0499 527.006,-15.7665 536.25,-20.9443 537.461,-14.0499"/>
</g>
<!-- Node33&#45;&gt;Node13 -->
<g id="edge74" class="edge"><title>Node33&#45;&gt;Node13</title>
<path fill="none" stroke="midnightblue" d="M909.607,-112.499C870.107,-102.081 817.549,-82.4912 842,-56 876.647,-18.463 1229.04,-12.2243 1356.94,-11.1981"/>
<polygon fill="midnightblue" stroke="midnightblue" points="1357.21,-14.6964 1367.18,-11.1234 1357.16,-7.69654 1357.21,-14.6964"/>
</g>
<!-- Node33&#45;&gt;Node16 -->
<g id="edge76" class="edge"><title>Node33&#45;&gt;Node16</title>
<path fill="none" stroke="midnightblue" d="M940.404,-112.083C933.773,-104.298 923.979,-92.8015 915.942,-83.3665"/>
<polygon fill="midnightblue" stroke="midnightblue" points="918.604,-81.0939 909.455,-75.7511 913.275,-85.6332 918.604,-81.0939"/>
</g>
</g>
</svg>
