<?xml version="1.0" encoding="UTF-8" standalone="no"?>
<!DOCTYPE svg PUBLIC "-//W3C//DTD SVG 1.1//EN"
 "http://www.w3.org/Graphics/SVG/1.1/DTD/svg11.dtd">
<!-- Generated by graphviz version 2.38.0 (20140413.2041)
 -->
<!-- Title: main Pages: 1 -->
<svg width="508pt" height="731pt"
 viewBox="0.00 0.00 508.00 731.00" xmlns="http://www.w3.org/2000/svg" xmlns:xlink="http://www.w3.org/1999/xlink">
<g id="graph0" class="graph" transform="scale(1 1) rotate(0) translate(4 727)">
<title>main</title>
<polygon fill="white" stroke="none" points="-4,4 -4,-727 504,-727 504,4 -4,4"/>
<!-- Node1 -->
<g id="node1" class="node"><title>Node1</title>
<polygon fill="#bfbfbf" stroke="black" points="0,-342.5 0,-361.5 38,-361.5 38,-342.5 0,-342.5"/>
<text text-anchor="middle" x="19" y="-349.5" font-family="Helvetica,sans-Serif" font-size="10.00">main</text>
</g>
<!-- Node2 -->
<g id="node2" class="node"><title>Node2</title>
<g id="a_node2"><a xlink:href="a00144.html#ga93f514700ccf00d08dbdcff7f1224eb2" target="_top" xlink:title="Setup the microcontroller system Initialize the Embedded Flash Interface, the PLL and update the Syst...">
<polygon fill="white" stroke="black" points="118,-684.5 118,-703.5 182,-703.5 182,-684.5 118,-684.5"/>
<text text-anchor="middle" x="150" y="-691.5" font-family="Helvetica,sans-Serif" font-size="10.00">SystemInit</text>
</a>
</g>
</g>
<!-- Node1&#45;&gt;Node2 -->
<g id="edge1" class="edge"><title>Node1&#45;&gt;Node2</title>
<path fill="none" stroke="midnightblue" d="M20.2391,-361.668C21.6384,-410.279 30.29,-627.528 74,-675 82.7586,-684.512 95.5354,-689.557 108.07,-692.15"/>
<polygon fill="midnightblue" stroke="midnightblue" points="107.561,-695.613 117.989,-693.742 108.67,-688.701 107.561,-695.613"/>
</g>
<!-- Node5 -->
<g id="node5" class="node"><title>Node5</title>
<g id="a_node5"><a xlink:href="a00044.html#ab7945e1fc61902deac23a942a2e2d95d" target="_top" xlink:title="RCC_Configuration">
<polygon fill="white" stroke="black" points="99,-646.5 99,-665.5 201,-665.5 201,-646.5 99,-646.5"/>
<text text-anchor="middle" x="150" y="-653.5" font-family="Helvetica,sans-Serif" font-size="10.00">RCC_Configuration</text>
</a>
</g>
</g>
<!-- Node1&#45;&gt;Node5 -->
<g id="edge5" class="edge"><title>Node1&#45;&gt;Node5</title>
<path fill="none" stroke="midnightblue" d="M20.4759,-361.71C22.8838,-406.851 35.1767,-595.739 74,-637 78.3492,-641.622 83.6479,-645.186 89.3974,-647.923"/>
<polygon fill="midnightblue" stroke="midnightblue" points="88.1441,-651.191 98.7318,-651.579 90.697,-644.673 88.1441,-651.191"/>
</g>
<!-- Node6 -->
<g id="node6" class="node"><title>Node6</title>
<g id="a_node6"><a xlink:href="a00125.html#gad45b8278807ffed1f22e03d86d35bf90" target="_top" xlink:title="Initialize all GPIOs from MDB_GPIO. ">
<polygon fill="white" stroke="black" points="106,-608.5 106,-627.5 194,-627.5 194,-608.5 106,-608.5"/>
<text text-anchor="middle" x="150" y="-615.5" font-family="Helvetica,sans-Serif" font-size="10.00">MDB_GPIO_Init</text>
</a>
</g>
</g>
<!-- Node1&#45;&gt;Node6 -->
<g id="edge6" class="edge"><title>Node1&#45;&gt;Node6</title>
<path fill="none" stroke="midnightblue" d="M20.764,-361.502C24.2501,-402.508 39.9658,-563.828 74,-599 80.0422,-605.244 87.8196,-609.546 96.0694,-612.488"/>
<polygon fill="midnightblue" stroke="midnightblue" points="95.3155,-615.914 105.895,-615.352 97.2746,-609.194 95.3155,-615.914"/>
</g>
<!-- Node9 -->
<g id="node9" class="node"><title>Node9</title>
<g id="a_node9"><a xlink:href="a00030.html#ab6f9456b6ae46b75ed32de43a8456867" target="_top" xlink:title="Inserts a delay time. ">
<polygon fill="white" stroke="black" points="122,-570.5 122,-589.5 178,-589.5 178,-570.5 122,-570.5"/>
<text text-anchor="middle" x="150" y="-577.5" font-family="Helvetica,sans-Serif" font-size="10.00">Delayms</text>
</a>
</g>
</g>
<!-- Node1&#45;&gt;Node9 -->
<g id="edge9" class="edge"><title>Node1&#45;&gt;Node9</title>
<path fill="none" stroke="midnightblue" d="M21.1698,-361.512C25.9019,-398.469 44.7814,-531.919 74,-561 83.9384,-570.892 98.2426,-575.875 111.7,-578.309"/>
<polygon fill="midnightblue" stroke="midnightblue" points="111.35,-581.794 121.739,-579.712 112.319,-574.862 111.35,-581.794"/>
</g>
<!-- Node11 -->
<g id="node11" class="node"><title>Node11</title>
<g id="a_node11"><a xlink:href="a00125.html#ga96648f92af47de61ebadb96b6a543415" target="_top" xlink:title="Provides GPIO pin toggle functionality for MD_GPIO_NAME_t types defined in MDB_GPIO. ">
<polygon fill="white" stroke="black" points="98,-532.5 98,-551.5 202,-551.5 202,-532.5 98,-532.5"/>
<text text-anchor="middle" x="150" y="-539.5" font-family="Helvetica,sans-Serif" font-size="10.00">MDB_GPIO_Toggle</text>
</a>
</g>
</g>
<!-- Node1&#45;&gt;Node11 -->
<g id="edge11" class="edge"><title>Node1&#45;&gt;Node11</title>
<path fill="none" stroke="midnightblue" d="M19.9907,-361.814C20.5211,-390.982 26.2283,-477.911 74,-523 78.1515,-526.918 82.9917,-530.059 88.1775,-532.573"/>
<polygon fill="midnightblue" stroke="midnightblue" points="87.2274,-535.964 97.8109,-536.453 89.8425,-529.47 87.2274,-535.964"/>
</g>
<!-- Node12 -->
<g id="node12" class="node"><title>Node12</title>
<g id="a_node12"><a xlink:href="a00087.html#ga99e90c818f4042ca67ee111f9c666297" target="_top" xlink:title="Configures Button pin as input. ">
<polygon fill="white" stroke="black" points="91.5,-494.5 91.5,-513.5 208.5,-513.5 208.5,-494.5 91.5,-494.5"/>
<text text-anchor="middle" x="150" y="-501.5" font-family="Helvetica,sans-Serif" font-size="10.00">MD_DISCO_ButtonInit</text>
</a>
</g>
</g>
<!-- Node1&#45;&gt;Node12 -->
<g id="edge12" class="edge"><title>Node1&#45;&gt;Node12</title>
<path fill="none" stroke="midnightblue" d="M20.989,-361.737C24.0239,-386.344 35.478,-451.444 74,-485 76.5321,-487.206 79.2849,-489.162 82.1911,-490.896"/>
<polygon fill="midnightblue" stroke="midnightblue" points="80.7944,-494.111 91.3029,-495.461 83.9297,-487.852 80.7944,-494.111"/>
</g>
<!-- Node14 -->
<g id="node14" class="node"><title>Node14</title>
<g id="a_node14"><a xlink:href="a00087.html#gaca7a1ac308a8fda1547ddc0f5872aa74" target="_top" xlink:title="Configure all pins for on&#45;board LEDs as outputs. ">
<polygon fill="white" stroke="black" points="98,-456.5 98,-475.5 202,-475.5 202,-456.5 98,-456.5"/>
<text text-anchor="middle" x="150" y="-463.5" font-family="Helvetica,sans-Serif" font-size="10.00">MD_DISCO_LedInit</text>
</a>
</g>
</g>
<!-- Node1&#45;&gt;Node14 -->
<g id="edge14" class="edge"><title>Node1&#45;&gt;Node14</title>
<path fill="none" stroke="midnightblue" d="M22.7244,-361.793C28.6443,-381.196 44.5724,-424.582 74,-447 78.3407,-450.307 83.1925,-453.043 88.2838,-455.305"/>
<polygon fill="midnightblue" stroke="midnightblue" points="87.0578,-458.584 97.6482,-458.888 89.5593,-452.046 87.0578,-458.584"/>
</g>
<!-- Node15 -->
<g id="node15" class="node"><title>Node15</title>
<g id="a_node15"><a xlink:href="a00069.html#ga70bed9fb6612cb572a8c10e148404344" target="_top" xlink:title="Initializes USARTx peripheral and corresponding pins. ">
<polygon fill="white" stroke="black" points="105.5,-418.5 105.5,-437.5 194.5,-437.5 194.5,-418.5 105.5,-418.5"/>
<text text-anchor="middle" x="150" y="-425.5" font-family="Helvetica,sans-Serif" font-size="10.00">TM_USART_Init</text>
</a>
</g>
</g>
<!-- Node1&#45;&gt;Node15 -->
<g id="edge16" class="edge"><title>Node1&#45;&gt;Node15</title>
<path fill="none" stroke="midnightblue" d="M26.4609,-361.665C35.5411,-374.475 53.3032,-396.866 74,-409 80.6067,-412.873 87.9908,-415.964 95.4783,-418.428"/>
<polygon fill="midnightblue" stroke="midnightblue" points="94.7431,-421.86 105.324,-421.32 96.7158,-415.144 94.7431,-421.86"/>
</g>
<!-- Node16 -->
<g id="node16" class="node"><title>Node16</title>
<g id="a_node16"><a xlink:href="a00080.html#gabb02137ecc24355b4c9d3da38b59a44d" target="_top" xlink:title="Initializes DAC channel and it&#39;s pin. ">
<polygon fill="white" stroke="black" points="111,-380.5 111,-399.5 189,-399.5 189,-380.5 111,-380.5"/>
<text text-anchor="middle" x="150" y="-387.5" font-family="Helvetica,sans-Serif" font-size="10.00">MD_DAC_Init</text>
</a>
</g>
</g>
<!-- Node1&#45;&gt;Node16 -->
<g id="edge17" class="edge"><title>Node1&#45;&gt;Node16</title>
<path fill="none" stroke="midnightblue" d="M38.3587,-358.923C48.7434,-362.721 62.0121,-367.381 74,-371 82.5953,-373.595 91.8154,-376.13 100.748,-378.46"/>
<polygon fill="midnightblue" stroke="midnightblue" points="100.107,-381.909 110.662,-380.995 101.841,-375.127 100.107,-381.909"/>
</g>
<!-- Node17 -->
<g id="node17" class="node"><title>Node17</title>
<g id="a_node17"><a xlink:href="a00101.html#gab6494f34679dc4d0a8c08ec624a4bcf8" target="_top" xlink:title="Dual DAC set channel wrapper function. ">
<polygon fill="white" stroke="black" points="84,-342.5 84,-361.5 216,-361.5 216,-342.5 84,-342.5"/>
<text text-anchor="middle" x="150" y="-349.5" font-family="Helvetica,sans-Serif" font-size="10.00">DAC_SetDualChanSigned</text>
</a>
</g>
</g>
<!-- Node1&#45;&gt;Node17 -->
<g id="edge19" class="edge"><title>Node1&#45;&gt;Node17</title>
<path fill="none" stroke="midnightblue" d="M38.2089,-352C47.8941,-352 60.5224,-352 73.7722,-352"/>
<polygon fill="midnightblue" stroke="midnightblue" points="73.987,-355.5 83.987,-352 73.987,-348.5 73.987,-355.5"/>
</g>
<!-- Node18 -->
<g id="node18" class="node"><title>Node18</title>
<g id="a_node18"><a xlink:href="a00130.html#ga5c12343e267ace8587309499bea6babe" target="_top" xlink:title="Provides the initial configuration method for the nested vector interrupt controller. ">
<polygon fill="white" stroke="black" points="98,-304.5 98,-323.5 202,-323.5 202,-304.5 98,-304.5"/>
<text text-anchor="middle" x="150" y="-311.5" font-family="Helvetica,sans-Serif" font-size="10.00">NVIC_Configuration</text>
</a>
</g>
</g>
<!-- Node1&#45;&gt;Node18 -->
<g id="edge20" class="edge"><title>Node1&#45;&gt;Node18</title>
<path fill="none" stroke="midnightblue" d="M38.3587,-345.077C48.7434,-341.279 62.0121,-336.619 74,-333 81.862,-330.626 90.2466,-328.303 98.4558,-326.141"/>
<polygon fill="midnightblue" stroke="midnightblue" points="99.5271,-329.479 108.335,-323.591 97.7778,-322.701 99.5271,-329.479"/>
</g>
<!-- Node19 -->
<g id="node19" class="node"><title>Node19</title>
<g id="a_node19"><a xlink:href="a00044.html#ad273dc4b4b26574e92666e4020e1ef5a" target="_top" xlink:title="{ function_description } ">
<polygon fill="white" stroke="black" points="82,-266.5 82,-285.5 218,-285.5 218,-266.5 82,-266.5"/>
<text text-anchor="middle" x="150" y="-273.5" font-family="Helvetica,sans-Serif" font-size="10.00">TIM2_DMA_Trigger_Config</text>
</a>
</g>
</g>
<!-- Node1&#45;&gt;Node19 -->
<g id="edge21" class="edge"><title>Node1&#45;&gt;Node19</title>
<path fill="none" stroke="midnightblue" d="M26.4609,-342.335C35.5411,-329.525 53.3032,-307.134 74,-295 77.7153,-292.822 81.6763,-290.891 85.7634,-289.18"/>
<polygon fill="midnightblue" stroke="midnightblue" points="87.3167,-292.337 95.4721,-285.574 84.8792,-285.775 87.3167,-292.337"/>
</g>
<!-- Node20 -->
<g id="node20" class="node"><title>Node20</title>
<g id="a_node20"><a xlink:href="a00044.html#a93f716bf34edd1dedfaa4134287d428e" target="_top" xlink:title="{ function_description } ">
<polygon fill="white" stroke="black" points="113.5,-228.5 113.5,-247.5 186.5,-247.5 186.5,-228.5 113.5,-228.5"/>
<text text-anchor="middle" x="150" y="-235.5" font-family="Helvetica,sans-Serif" font-size="10.00">DMA_Config</text>
</a>
</g>
</g>
<!-- Node1&#45;&gt;Node20 -->
<g id="edge22" class="edge"><title>Node1&#45;&gt;Node20</title>
<path fill="none" stroke="midnightblue" d="M22.7244,-342.207C28.6443,-322.804 44.5724,-279.418 74,-257 82.502,-250.523 92.9645,-246.237 103.347,-243.405"/>
<polygon fill="midnightblue" stroke="midnightblue" points="104.264,-246.786 113.211,-241.112 102.678,-239.968 104.264,-246.786"/>
</g>
<!-- Node21 -->
<g id="node21" class="node"><title>Node21</title>
<g id="a_node21"><a xlink:href="a00044.html#a85f5a2827c06dbdba076d4e9125a11f8" target="_top" xlink:title="ADC common and regular scan group init. ">
<polygon fill="white" stroke="black" points="84.5,-190.5 84.5,-209.5 215.5,-209.5 215.5,-190.5 84.5,-190.5"/>
<text text-anchor="middle" x="150" y="-197.5" font-family="Helvetica,sans-Serif" font-size="10.00">ADC_Scan_Group_Config</text>
</a>
</g>
</g>
<!-- Node1&#45;&gt;Node21 -->
<g id="edge23" class="edge"><title>Node1&#45;&gt;Node21</title>
<path fill="none" stroke="midnightblue" d="M20.989,-342.263C24.0239,-317.656 35.478,-252.556 74,-219 75.9497,-217.302 78.0303,-215.751 80.211,-214.336"/>
<polygon fill="midnightblue" stroke="midnightblue" points="81.9442,-217.378 89.0537,-209.522 78.5973,-211.23 81.9442,-217.378"/>
</g>
<!-- Node22 -->
<g id="node22" class="node"><title>Node22</title>
<g id="a_node22"><a xlink:href="a00121.html#gabecad8655f9e14a855864feee9fee9e8" target="_top" xlink:title="Set initial values (POR state) of the ASG system and the global state structure members. ">
<polygon fill="white" stroke="black" points="104,-152.5 104,-171.5 196,-171.5 196,-152.5 104,-152.5"/>
<text text-anchor="middle" x="150" y="-159.5" font-family="Helvetica,sans-Serif" font-size="10.00">init_globalStructs</text>
</a>
</g>
</g>
<!-- Node1&#45;&gt;Node22 -->
<g id="edge24" class="edge"><title>Node1&#45;&gt;Node22</title>
<path fill="none" stroke="midnightblue" d="M19.9907,-342.186C20.5211,-313.018 26.2283,-226.089 74,-181 79.7007,-175.619 86.6999,-171.705 94.1094,-168.867"/>
<polygon fill="midnightblue" stroke="midnightblue" points="95.187,-172.197 103.647,-165.819 93.0563,-165.529 95.187,-172.197"/>
</g>
<!-- Node23 -->
<g id="node23" class="node"><title>Node23</title>
<g id="a_node23"><a xlink:href="a00087.html#ga4bdeb65c33d29739b341feeb76aee264" target="_top" xlink:title="Checks if button was pressed now, but was not already pressed before. ">
<polygon fill="white" stroke="black" points="74,-114.5 74,-133.5 226,-133.5 226,-114.5 74,-114.5"/>
<text text-anchor="middle" x="150" y="-121.5" font-family="Helvetica,sans-Serif" font-size="10.00">MD_DISCO_ButtonOnPressed</text>
</a>
</g>
</g>
<!-- Node1&#45;&gt;Node23 -->
<g id="edge25" class="edge"><title>Node1&#45;&gt;Node23</title>
<path fill="none" stroke="midnightblue" d="M21.1698,-342.488C25.9019,-305.531 44.7814,-172.081 74,-143 75.4281,-141.579 76.9463,-140.259 78.5391,-139.033"/>
<polygon fill="midnightblue" stroke="midnightblue" points="80.4659,-141.956 87.0542,-133.658 76.7296,-136.036 80.4659,-141.956"/>
</g>
<!-- Node24 -->
<g id="node24" class="node"><title>Node24</title>
<g id="a_node24"><a xlink:href="a00146.html#ga4af381bf92ce31395c19b6652b930b7a" target="_top" xlink:title="Fast console command parser. ">
<polygon fill="white" stroke="black" points="104,-76.5 104,-95.5 196,-95.5 196,-76.5 104,-76.5"/>
<text text-anchor="middle" x="150" y="-83.5" font-family="Helvetica,sans-Serif" font-size="10.00">fastConsoleCase</text>
</a>
</g>
</g>
<!-- Node1&#45;&gt;Node24 -->
<g id="edge26" class="edge"><title>Node1&#45;&gt;Node24</title>
<path fill="none" stroke="midnightblue" d="M20.764,-342.498C24.2501,-301.492 39.9658,-140.172 74,-105 79.5824,-99.2309 86.6461,-95.12 94.1951,-92.2074"/>
<polygon fill="midnightblue" stroke="midnightblue" points="95.4629,-95.4774 103.942,-89.1244 93.3518,-88.8033 95.4629,-95.4774"/>
</g>
<!-- Node27 -->
<g id="node27" class="node"><title>Node27</title>
<g id="a_node27"><a xlink:href="a00069.html#ga0bf136abba24771c4a5a83ace52a76c1" target="_top" xlink:title="Checks if internal USARTx buffer is full. ">
<polygon fill="white" stroke="black" points="91,-38.5 91,-57.5 209,-57.5 209,-38.5 91,-38.5"/>
<text text-anchor="middle" x="150" y="-45.5" font-family="Helvetica,sans-Serif" font-size="10.00">TM_USART_BufferFull</text>
</a>
</g>
</g>
<!-- Node1&#45;&gt;Node27 -->
<g id="edge29" class="edge"><title>Node1&#45;&gt;Node27</title>
<path fill="none" stroke="midnightblue" d="M20.4759,-342.29C22.8838,-297.149 35.1767,-108.261 74,-67 76.3472,-64.5054 78.9709,-62.3193 81.7928,-60.405"/>
<polygon fill="midnightblue" stroke="midnightblue" points="83.7157,-63.3413 90.7746,-55.4404 80.3294,-57.2148 83.7157,-63.3413"/>
</g>
<!-- Node28 -->
<g id="node28" class="node"><title>Node28</title>
<g id="a_node28"><a xlink:href="a00069.html#ga6c8dfcc950305f511393240ea847b2ad" target="_top" xlink:title="Clears internal USART buffer. ">
<polygon fill="white" stroke="black" points="87.5,-0.5 87.5,-19.5 212.5,-19.5 212.5,-0.5 87.5,-0.5"/>
<text text-anchor="middle" x="150" y="-7.5" font-family="Helvetica,sans-Serif" font-size="10.00">TM_USART_ClearBuffer</text>
</a>
</g>
</g>
<!-- Node1&#45;&gt;Node28 -->
<g id="edge30" class="edge"><title>Node1&#45;&gt;Node28</title>
<path fill="none" stroke="midnightblue" d="M20.2391,-342.332C21.6384,-293.721 30.29,-76.4717 74,-29 75.433,-27.4437 76.9736,-26.0069 78.603,-24.681"/>
<polygon fill="midnightblue" stroke="midnightblue" points="80.9456,-27.3314 87.4047,-18.9332 77.1182,-21.4704 80.9456,-27.3314"/>
</g>
<!-- Node3 -->
<g id="node3" class="node"><title>Node3</title>
<g id="a_node3"><a xlink:href="a00153.html#ga1ee14ac28e60198cc998586807b51e4c" target="_top" xlink:title="Configures the System clock source, PLL Multiplier and Divider factors, AHB/APBx prescalers and Flash...">
<polygon fill="white" stroke="black" points="426,-703.5 426,-722.5 500,-722.5 500,-703.5 426,-703.5"/>
<text text-anchor="middle" x="463" y="-710.5" font-family="Helvetica,sans-Serif" font-size="10.00">SetSysClock</text>
</a>
</g>
</g>
<!-- Node2&#45;&gt;Node3 -->
<g id="edge2" class="edge"><title>Node2&#45;&gt;Node3</title>
<path fill="none" stroke="midnightblue" d="M182.395,-700.837C204.524,-705.295 234.922,-710.699 262,-713 314.515,-717.462 375.066,-716.633 415.662,-715.218"/>
<polygon fill="midnightblue" stroke="midnightblue" points="415.93,-718.711 425.792,-714.839 415.667,-711.716 415.93,-718.711"/>
</g>
<!-- Node4 -->
<g id="node4" class="node"><title>Node4</title>
<g id="a_node4"><a xlink:href="a00153.html#gae0c36a9591fe6e9c45ecb21a794f0f0f" target="_top" xlink:title="Update SystemCoreClock variable according to Clock Register Values. The SystemCoreClock variable cont...">
<polygon fill="white" stroke="black" points="262,-684.5 262,-703.5 390,-703.5 390,-684.5 262,-684.5"/>
<text text-anchor="middle" x="326" y="-691.5" font-family="Helvetica,sans-Serif" font-size="10.00">SystemCoreClockUpdate</text>
</a>
</g>
</g>
<!-- Node2&#45;&gt;Node4 -->
<g id="edge3" class="edge"><title>Node2&#45;&gt;Node4</title>
<path fill="none" stroke="midnightblue" d="M182.108,-694C201.438,-694 227.152,-694 251.435,-694"/>
<polygon fill="midnightblue" stroke="midnightblue" points="251.732,-697.5 261.732,-694 251.732,-690.5 251.732,-697.5"/>
</g>
<!-- Node4&#45;&gt;Node3 -->
<g id="edge4" class="edge"><title>Node4&#45;&gt;Node3</title>
<path fill="none" stroke="midnightblue" d="M390.152,-702.888C398.741,-704.097 407.424,-705.319 415.642,-706.475"/>
<polygon fill="midnightblue" stroke="midnightblue" points="415.37,-709.972 425.76,-707.9 416.345,-703.04 415.37,-709.972"/>
</g>
<!-- Node7 -->
<g id="node7" class="node"><title>Node7</title>
<g id="a_node7"><a xlink:href="a00125.html#ga1de48ba66939a9726f7930fc6a1e653a" target="_top" xlink:title="MDB_GPIO_Off">
<polygon fill="white" stroke="black" points="282,-646.5 282,-665.5 370,-665.5 370,-646.5 282,-646.5"/>
<text text-anchor="middle" x="326" y="-653.5" font-family="Helvetica,sans-Serif" font-size="10.00">MDB_GPIO_Off</text>
</a>
</g>
</g>
<!-- Node6&#45;&gt;Node7 -->
<g id="edge7" class="edge"><title>Node6&#45;&gt;Node7</title>
<path fill="none" stroke="midnightblue" d="M194.011,-627.393C217.539,-632.532 246.892,-638.942 271.844,-644.391"/>
<polygon fill="midnightblue" stroke="midnightblue" points="271.364,-647.869 281.881,-646.583 272.858,-641.03 271.364,-647.869"/>
</g>
<!-- Node8 -->
<g id="node8" class="node"><title>Node8</title>
<g id="a_node8"><a xlink:href="a00125.html#ga9915de13874ce89948d7d860af7e28c8" target="_top" xlink:title="{ function_description } ">
<polygon fill="white" stroke="black" points="282.5,-608.5 282.5,-627.5 369.5,-627.5 369.5,-608.5 282.5,-608.5"/>
<text text-anchor="middle" x="326" y="-615.5" font-family="Helvetica,sans-Serif" font-size="10.00">MDB_GPIO_On</text>
</a>
</g>
</g>
<!-- Node6&#45;&gt;Node8 -->
<g id="edge8" class="edge"><title>Node6&#45;&gt;Node8</title>
<path fill="none" stroke="midnightblue" d="M194.011,-618C217.716,-618 247.334,-618 272.406,-618"/>
<polygon fill="midnightblue" stroke="midnightblue" points="272.484,-621.5 282.484,-618 272.483,-614.5 272.484,-621.5"/>
</g>
<!-- Node10 -->
<g id="node10" class="node"><title>Node10</title>
<g id="a_node10"><a xlink:href="a00093.html#ga5c41ccf5ad2d5d2d3f6beb8358641ed2" target="_top" xlink:title="This function decrement timing variable. ">
<polygon fill="white" stroke="black" points="263.5,-570.5 263.5,-589.5 388.5,-589.5 388.5,-570.5 263.5,-570.5"/>
<text text-anchor="middle" x="326" y="-577.5" font-family="Helvetica,sans-Serif" font-size="10.00">TimingDelay_Decrement</text>
</a>
</g>
</g>
<!-- Node9&#45;&gt;Node10 -->
<g id="edge10" class="edge"><title>Node9&#45;&gt;Node10</title>
<path fill="none" stroke="midnightblue" d="M178.188,-580C198.359,-580 226.845,-580 253.363,-580"/>
<polygon fill="midnightblue" stroke="midnightblue" points="253.409,-583.5 263.409,-580 253.409,-576.5 253.409,-583.5"/>
</g>
<!-- Node13 -->
<g id="node13" class="node"><title>Node13</title>
<g id="a_node13"><a xlink:href="a00091.html#ga76a4711f406d06b13979cb89d6358cfc" target="_top" xlink:title="Initialize GPIO pins. ">
<polygon fill="white" stroke="black" points="285.5,-456.5 285.5,-475.5 366.5,-475.5 366.5,-456.5 285.5,-456.5"/>
<text text-anchor="middle" x="326" y="-463.5" font-family="Helvetica,sans-Serif" font-size="10.00">MD_GPIO_Init</text>
</a>
</g>
</g>
<!-- Node12&#45;&gt;Node13 -->
<g id="edge13" class="edge"><title>Node12&#45;&gt;Node13</title>
<path fill="none" stroke="midnightblue" d="M194.908,-494.411C219.438,-489.054 250.083,-482.361 275.468,-476.817"/>
<polygon fill="midnightblue" stroke="midnightblue" points="276.249,-480.229 285.272,-474.676 274.755,-473.391 276.249,-480.229"/>
</g>
<!-- Node14&#45;&gt;Node13 -->
<g id="edge15" class="edge"><title>Node14&#45;&gt;Node13</title>
<path fill="none" stroke="midnightblue" d="M202.265,-466C225.302,-466 252.384,-466 275.24,-466"/>
<polygon fill="midnightblue" stroke="midnightblue" points="275.415,-469.5 285.415,-466 275.415,-462.5 275.415,-469.5"/>
</g>
<!-- Node16&#45;&gt;Node13 -->
<g id="edge18" class="edge"><title>Node16&#45;&gt;Node13</title>
<path fill="none" stroke="midnightblue" d="M189.033,-397.496C201.079,-400.433 214.299,-404.255 226,-409 253.766,-420.26 283.238,-438.081 302.733,-450.798"/>
<polygon fill="midnightblue" stroke="midnightblue" points="300.929,-453.801 311.198,-456.409 304.797,-447.967 300.929,-453.801"/>
</g>
<!-- Node25 -->
<g id="node25" class="node"><title>Node25</title>
<g id="a_node25"><a xlink:href="a00069.html#gabb0a95fd20e5e2a894e658b64a29ee61" target="_top" xlink:title="Gets string from USART. ">
<polygon fill="white" stroke="black" points="277.5,-95.5 277.5,-114.5 374.5,-114.5 374.5,-95.5 277.5,-95.5"/>
<text text-anchor="middle" x="326" y="-102.5" font-family="Helvetica,sans-Serif" font-size="10.00">TM_USART_Gets</text>
</a>
</g>
</g>
<!-- Node24&#45;&gt;Node25 -->
<g id="edge27" class="edge"><title>Node24&#45;&gt;Node25</title>
<path fill="none" stroke="midnightblue" d="M196.262,-90.9424C217.928,-93.3082 244.119,-96.1681 267.206,-98.6891"/>
<polygon fill="midnightblue" stroke="midnightblue" points="266.905,-102.177 277.226,-99.7833 267.665,-95.2184 266.905,-102.177"/>
</g>
<!-- Node26 -->
<g id="node26" class="node"><title>Node26</title>
<g id="a_node26"><a xlink:href="a00136.html#ga3471071fc0b691d5ea05997762e9171c" target="_top" xlink:title="Signal generator Integer array pointer. ">
<polygon fill="white" stroke="black" points="289.5,-57.5 289.5,-76.5 362.5,-76.5 362.5,-57.5 289.5,-57.5"/>
<text text-anchor="middle" x="326" y="-64.5" font-family="Helvetica,sans-Serif" font-size="10.00">__attribute__</text>
</a>
</g>
</g>
<!-- Node24&#45;&gt;Node26 -->
<g id="edge28" class="edge"><title>Node24&#45;&gt;Node26</title>
<path fill="none" stroke="midnightblue" d="M196.262,-81.0576C221.75,-78.2744 253.502,-74.8072 279.095,-72.0126"/>
<polygon fill="midnightblue" stroke="midnightblue" points="279.729,-75.4643 289.29,-70.8994 278.969,-68.5057 279.729,-75.4643"/>
</g>
</g>
</svg>
