<?xml version="1.0" encoding="UTF-8" standalone="no"?>
<!DOCTYPE svg PUBLIC "-//W3C//DTD SVG 1.1//EN"
 "http://www.w3.org/Graphics/SVG/1.1/DTD/svg11.dtd">
<!-- Generated by graphviz version 2.38.0 (20140413.2041)
 -->
<!-- Title: md_stm32f4_disco.c Pages: 1 -->
<svg width="222pt" height="196pt"
 viewBox="0.00 0.00 222.00 196.00" xmlns="http://www.w3.org/2000/svg" xmlns:xlink="http://www.w3.org/1999/xlink">
<g id="graph0" class="graph" transform="scale(1 1) rotate(0) translate(4 192)">
<title>md_stm32f4_disco.c</title>
<polygon fill="white" stroke="none" points="-4,4 -4,-192 218,-192 218,4 -4,4"/>
<!-- Node1 -->
<g id="node1" class="node"><title>Node1</title>
<polygon fill="#bfbfbf" stroke="black" points="30.5,-168.5 30.5,-187.5 137.5,-187.5 137.5,-168.5 30.5,-168.5"/>
<text text-anchor="middle" x="84" y="-175.5" font-family="Helvetica,sans-Serif" font-size="10.00">md_stm32f4_disco.c</text>
</g>
<!-- Node2 -->
<g id="node2" class="node"><title>Node2</title>
<g id="a_node2"><a xlink:href="a00032.html" target="_top" xlink:title="Definitions to extend board support for STM32F429i&#45;DISCO and equivalent boards. ">
<polygon fill="white" stroke="black" points="30.5,-112.5 30.5,-131.5 137.5,-131.5 137.5,-112.5 30.5,-112.5"/>
<text text-anchor="middle" x="84" y="-119.5" font-family="Helvetica,sans-Serif" font-size="10.00">md_stm32f4_disco.h</text>
</a>
</g>
</g>
<!-- Node1&#45;&gt;Node2 -->
<g id="edge1" class="edge"><title>Node1&#45;&gt;Node2</title>
<path fill="none" stroke="midnightblue" d="M84,-168.083C84,-161.006 84,-150.861 84,-141.986"/>
<polygon fill="midnightblue" stroke="midnightblue" points="87.5001,-141.751 84,-131.751 80.5001,-141.751 87.5001,-141.751"/>
</g>
<!-- Node3 -->
<g id="node3" class="node"><title>Node3</title>
<g id="a_node3"><a xlink:href="a00018.html" target="_top" xlink:title="Global defines include file. ">
<polygon fill="white" stroke="black" points="0,-56.5 0,-75.5 56,-75.5 56,-56.5 0,-56.5"/>
<text text-anchor="middle" x="28" y="-63.5" font-family="Helvetica,sans-Serif" font-size="10.00">globals.h</text>
</a>
</g>
</g>
<!-- Node2&#45;&gt;Node3 -->
<g id="edge2" class="edge"><title>Node2&#45;&gt;Node3</title>
<path fill="none" stroke="midnightblue" d="M75.0026,-112.324C66.8056,-104.42 54.4945,-92.5482 44.528,-82.9377"/>
<polygon fill="midnightblue" stroke="midnightblue" points="46.789,-80.2558 37.1611,-75.8339 41.9301,-85.2947 46.789,-80.2558"/>
</g>
<!-- Node4 -->
<g id="node4" class="node"><title>Node4</title>
<polygon fill="white" stroke="#bfbfbf" points="87.5,-0.5 87.5,-19.5 158.5,-19.5 158.5,-0.5 87.5,-0.5"/>
<text text-anchor="middle" x="123" y="-7.5" font-family="Helvetica,sans-Serif" font-size="10.00">stm32f4xx.h</text>
</g>
<!-- Node2&#45;&gt;Node4 -->
<g id="edge3" class="edge"><title>Node2&#45;&gt;Node4</title>
<path fill="none" stroke="midnightblue" d="M86.1039,-112.469C89.2827,-99.9328 95.7175,-75.87 103,-56 106.31,-46.9694 110.573,-37.1855 114.312,-29.0543"/>
<polygon fill="midnightblue" stroke="midnightblue" points="117.567,-30.3585 118.658,-19.8199 111.233,-27.378 117.567,-30.3585"/>
</g>
<!-- Node5 -->
<g id="node5" class="node"><title>Node5</title>
<g id="a_node5"><a xlink:href="a00034.html" target="_top" xlink:title="Provides generic methods for GPIO module initialization and manipulation. ">
<polygon fill="white" stroke="black" points="112,-56.5 112,-75.5 214,-75.5 214,-56.5 112,-56.5"/>
<text text-anchor="middle" x="163" y="-63.5" font-family="Helvetica,sans-Serif" font-size="10.00">md_stm32f4_gpio.h</text>
</a>
</g>
</g>
<!-- Node2&#45;&gt;Node5 -->
<g id="edge4" class="edge"><title>Node2&#45;&gt;Node5</title>
<path fill="none" stroke="midnightblue" d="M96.6927,-112.324C108.901,-103.979 127.578,-91.2122 142.003,-81.3524"/>
<polygon fill="midnightblue" stroke="midnightblue" points="144.058,-84.1871 150.339,-75.6545 140.108,-78.4082 144.058,-84.1871"/>
</g>
<!-- Node5&#45;&gt;Node4 -->
<g id="edge5" class="edge"><title>Node5&#45;&gt;Node4</title>
<path fill="none" stroke="midnightblue" d="M156.395,-56.083C150.745,-48.4554 142.455,-37.2645 135.549,-27.9408"/>
<polygon fill="midnightblue" stroke="midnightblue" points="138.247,-25.7034 129.482,-19.7511 132.622,-29.87 138.247,-25.7034"/>
</g>
</g>
</svg>
