<?xml version="1.0" encoding="UTF-8" standalone="no"?>
<!DOCTYPE svg PUBLIC "-//W3C//DTD SVG 1.1//EN"
 "http://www.w3.org/Graphics/SVG/1.1/DTD/svg11.dtd">
<!-- Generated by graphviz version 2.38.0 (20140413.2041)
 -->
<!-- Title: TM_USART_InitCustomPinsCallback Pages: 1 -->
<!--zoomable 446 -->
<svg id="main" version="1.1" xmlns="http://www.w3.org/2000/svg" xmlns:xlink="http://www.w3.org/1999/xlink" xml:space="preserve" onload="init(evt)">
<style type="text/css"><![CDATA[
.edge:hover path { stroke: red; }
.edge:hover polygon { stroke: red; fill: red; }
]]></style>
<script type="text/javascript"><![CDATA[
var edges = document.getElementsByTagName('g');
if (edges && edges.length) {
  for (var i=0;i<edges.length;i++) {
    if (edges[i].id.substr(0,4)=='edge') {
      edges[i].setAttribute('class','edge');
    }
  }
}
]]></script>
        <defs>
                <circle id="rim" cx="0" cy="0" r="7"/>
                <circle id="rim2" cx="0" cy="0" r="3.5"/>
                <g id="zoomPlus">
                        <use xlink:href="#rim" fill="#404040">
                                <set attributeName="fill" to="#808080" begin="zoomplus.mouseover" end="zoomplus.mouseout"/>
                        </use>
                        <path d="M-4,0h8M0,-4v8" fill="none" stroke="white" stroke-width="1.5" pointer-events="none"/>
                </g>
                <g id="zoomMin">
                        <use xlink:href="#rim" fill="#404040">
                                <set attributeName="fill" to="#808080" begin="zoomminus.mouseover" end="zoomminus.mouseout"/>
                        </use>
                        <path d="M-4,0h8" fill="none" stroke="white" stroke-width="1.5" pointer-events="none"/>
                </g>
                <g id="dirArrow">
                        <path fill="none" stroke="white" stroke-width="1.5" d="M0,-3.0v7 M-2.5,-0.5L0,-3.0L2.5,-0.5"/>
                </g>
               <g id="resetDef">
                       <use xlink:href="#rim2" fill="#404040">
                               <set attributeName="fill" to="#808080" begin="reset.mouseover" end="reset.mouseout"/>
                       </use>
               </g>
        </defs>

<script type="text/javascript">
var viewWidth = 558;
var viewHeight = 446;
var sectionId = 'dynsection-18';
</script>
<script xlink:href="svgpan.js"/>
<svg id="graph" class="graph">
<g id="viewport">
<title>TM_USART_InitCustomPinsCallback</title>
<polygon fill="white" stroke="none" points="-4,4 -4,-442 554,-442 554,4 -4,4"/>
<!-- Node1 -->
<g id="node1" class="node"><title>Node1</title>
<polygon fill="#bfbfbf" stroke="black" points="0,-209.5 0,-228.5 182,-228.5 182,-209.5 0,-209.5"/>
<text text-anchor="middle" x="91" y="-216.5" font-family="Helvetica,sans-Serif" font-size="10.00">TM_USART_InitCustomPinsCallback</text>
</g>
<!-- Node1&#45;&gt;Node1 -->
<g id="edge2" class="edge"><title>Node1&#45;&gt;Node1</title>
<path fill="none" stroke="midnightblue" d="M59.8659,-228.757C44.7196,-237.565 55.0977,-247 91,-247 116.244,-247 128.869,-242.336 128.875,-236.504"/>
<polygon fill="midnightblue" stroke="midnightblue" points="131.339,-234.004 122.134,-228.757 126.058,-238.599 131.339,-234.004"/>
</g>
<!-- Node2 -->
<g id="node2" class="node"><title>Node2</title>
<g id="a_node2"><a xlink:href="a00715.html#gabc8eafcb23a81935b70b9046f266f5aa" target="_top" xlink:title="Initialize GPIO pins for alternate port operation. ">
<polygon fill="white" stroke="black" points="233.5,-418.5 233.5,-437.5 353.5,-437.5 353.5,-418.5 233.5,-418.5"/>
<text text-anchor="middle" x="293.5" y="-425.5" font-family="Helvetica,sans-Serif" font-size="10.00">MD_GPIO_InitAlternate</text>
</a>
</g>
</g>
<!-- Node1&#45;&gt;Node2 -->
<g id="edge1" class="edge"><title>Node1&#45;&gt;Node2</title>
<path fill="none" stroke="midnightblue" d="M95.4849,-228.704C107.292,-260.138 148.939,-359.96 218,-409 220.721,-410.932 223.621,-412.668 226.639,-414.228"/>
<polygon fill="midnightblue" stroke="midnightblue" points="225.428,-417.52 235.986,-418.397 228.28,-411.127 225.428,-417.52"/>
</g>
<!-- Node3 -->
<g id="node3" class="node"><title>Node3</title>
<g id="a_node3"><a xlink:href="a00168.html#gafbf9e2222953815c9f35cd46863dbc26" target="_top" xlink:title="Callback function for receive interrupt on USART1 in case you have enabled custom USART handler mode...">
<polygon fill="white" stroke="black" points="218,-380.5 218,-399.5 369,-399.5 369,-380.5 218,-380.5"/>
<text text-anchor="middle" x="293.5" y="-387.5" font-family="Helvetica,sans-Serif" font-size="10.00">TM_USART1_ReceiveHandler</text>
</a>
</g>
</g>
<!-- Node1&#45;&gt;Node3 -->
<g id="edge3" class="edge"><title>Node1&#45;&gt;Node3</title>
<path fill="none" stroke="midnightblue" d="M97.0602,-228.615C111.79,-255.623 157.464,-332.693 218,-371 221.331,-373.108 224.885,-374.982 228.566,-376.649"/>
<polygon fill="midnightblue" stroke="midnightblue" points="227.338,-379.927 237.923,-380.379 229.93,-373.425 227.338,-379.927"/>
</g>
<!-- Node4 -->
<g id="node4" class="node"><title>Node4</title>
<g id="a_node4"><a xlink:href="a00168.html#ga21823124b3d98ea2085671f4a5af6017" target="_top" xlink:title="Callback function for receive interrupt on USART2 in case you have enabled custom USART handler mode...">
<polygon fill="white" stroke="black" points="218,-342.5 218,-361.5 369,-361.5 369,-342.5 218,-342.5"/>
<text text-anchor="middle" x="293.5" y="-349.5" font-family="Helvetica,sans-Serif" font-size="10.00">TM_USART2_ReceiveHandler</text>
</a>
</g>
</g>
<!-- Node1&#45;&gt;Node4 -->
<g id="edge4" class="edge"><title>Node1&#45;&gt;Node4</title>
<path fill="none" stroke="midnightblue" d="M99.7141,-228.642C117.876,-250.674 165.755,-304.96 218,-333 222.26,-335.286 226.805,-337.306 231.471,-339.089"/>
<polygon fill="midnightblue" stroke="midnightblue" points="230.567,-342.479 241.162,-342.425 232.846,-335.86 230.567,-342.479"/>
</g>
<!-- Node5 -->
<g id="node5" class="node"><title>Node5</title>
<g id="a_node5"><a xlink:href="a00168.html#ga868eb8844f04487e714b63b016a93bae" target="_top" xlink:title="Callback function for receive interrupt on USART3 in case you have enabled custom USART handler mode...">
<polygon fill="white" stroke="black" points="218,-304.5 218,-323.5 369,-323.5 369,-304.5 218,-304.5"/>
<text text-anchor="middle" x="293.5" y="-311.5" font-family="Helvetica,sans-Serif" font-size="10.00">TM_USART3_ReceiveHandler</text>
</a>
</g>
</g>
<!-- Node1&#45;&gt;Node5 -->
<g id="edge5" class="edge"><title>Node1&#45;&gt;Node5</title>
<path fill="none" stroke="midnightblue" d="M104.922,-228.569C127.012,-244.509 173.93,-276.563 218,-295 223.818,-297.434 230.027,-299.617 236.283,-301.558"/>
<polygon fill="midnightblue" stroke="midnightblue" points="235.525,-304.983 246.105,-304.412 237.478,-298.261 235.525,-304.983"/>
</g>
<!-- Node6 -->
<g id="node6" class="node"><title>Node6</title>
<g id="a_node6"><a xlink:href="a00168.html#gada9d723469cf9d7d0ac11930b8e14f2a" target="_top" xlink:title="Callback function for receive interrupt on UART4 in case you have enabled custom USART handler mode...">
<polygon fill="white" stroke="black" points="221.5,-266.5 221.5,-285.5 365.5,-285.5 365.5,-266.5 221.5,-266.5"/>
<text text-anchor="middle" x="293.5" y="-273.5" font-family="Helvetica,sans-Serif" font-size="10.00">TM_UART4_ReceiveHandler</text>
</a>
</g>
</g>
<!-- Node1&#45;&gt;Node6 -->
<g id="edge6" class="edge"><title>Node1&#45;&gt;Node6</title>
<path fill="none" stroke="midnightblue" d="M122.19,-228.505C147.648,-236.424 185.091,-247.846 218,-257 226.319,-259.314 235.19,-261.672 243.804,-263.903"/>
<polygon fill="midnightblue" stroke="midnightblue" points="243.193,-267.36 253.749,-266.455 244.932,-260.579 243.193,-267.36"/>
</g>
<!-- Node7 -->
<g id="node7" class="node"><title>Node7</title>
<g id="a_node7"><a xlink:href="a00168.html#ga4338d265fa58103332ea234f63594b81" target="_top" xlink:title="Callback function for receive interrupt on UART5 in case you have enabled custom USART handler mode...">
<polygon fill="white" stroke="black" points="221.5,-228.5 221.5,-247.5 365.5,-247.5 365.5,-228.5 221.5,-228.5"/>
<text text-anchor="middle" x="293.5" y="-235.5" font-family="Helvetica,sans-Serif" font-size="10.00">TM_UART5_ReceiveHandler</text>
</a>
</g>
</g>
<!-- Node1&#45;&gt;Node7 -->
<g id="edge7" class="edge"><title>Node1&#45;&gt;Node7</title>
<path fill="none" stroke="midnightblue" d="M182.279,-227.555C191.897,-228.467 201.638,-229.39 211.144,-230.29"/>
<polygon fill="midnightblue" stroke="midnightblue" points="211.065,-233.799 221.35,-231.258 211.725,-226.83 211.065,-233.799"/>
</g>
<!-- Node8 -->
<g id="node8" class="node"><title>Node8</title>
<g id="a_node8"><a xlink:href="a00168.html#ga65c1d6a6bcc2dbd40ea0e7cbf5e924de" target="_top" xlink:title="Callback function for receive interrupt on USART6 in case you have enabled custom USART handler mode...">
<polygon fill="white" stroke="black" points="218,-190.5 218,-209.5 369,-209.5 369,-190.5 218,-190.5"/>
<text text-anchor="middle" x="293.5" y="-197.5" font-family="Helvetica,sans-Serif" font-size="10.00">TM_USART6_ReceiveHandler</text>
</a>
</g>
</g>
<!-- Node1&#45;&gt;Node8 -->
<g id="edge8" class="edge"><title>Node1&#45;&gt;Node8</title>
<path fill="none" stroke="midnightblue" d="M182.279,-210.445C190.703,-209.647 199.222,-208.839 207.595,-208.046"/>
<polygon fill="midnightblue" stroke="midnightblue" points="208.094,-211.514 217.719,-207.087 207.433,-204.546 208.094,-211.514"/>
</g>
<!-- Node9 -->
<g id="node9" class="node"><title>Node9</title>
<g id="a_node9"><a xlink:href="a00168.html#ga461a5123a57231d34d51330f12ea39d2" target="_top" xlink:title="Callback function for receive interrupt on UART7 in case you have enabled custom USART handler mode...">
<polygon fill="white" stroke="black" points="221.5,-152.5 221.5,-171.5 365.5,-171.5 365.5,-152.5 221.5,-152.5"/>
<text text-anchor="middle" x="293.5" y="-159.5" font-family="Helvetica,sans-Serif" font-size="10.00">TM_UART7_ReceiveHandler</text>
</a>
</g>
</g>
<!-- Node1&#45;&gt;Node9 -->
<g id="edge9" class="edge"><title>Node1&#45;&gt;Node9</title>
<path fill="none" stroke="midnightblue" d="M122.19,-209.495C147.648,-201.576 185.091,-190.154 218,-181 226.319,-178.686 235.19,-176.328 243.804,-174.097"/>
<polygon fill="midnightblue" stroke="midnightblue" points="244.932,-177.421 253.749,-171.545 243.193,-170.64 244.932,-177.421"/>
</g>
<!-- Node10 -->
<g id="node10" class="node"><title>Node10</title>
<g id="a_node10"><a xlink:href="a00168.html#ga37fe7ffa31a540627af5ebfe93f2dcf5" target="_top" xlink:title="Callback function for receive interrupt on UART8 in case you have enabled custom USART handler mode...">
<polygon fill="white" stroke="black" points="221.5,-114.5 221.5,-133.5 365.5,-133.5 365.5,-114.5 221.5,-114.5"/>
<text text-anchor="middle" x="293.5" y="-121.5" font-family="Helvetica,sans-Serif" font-size="10.00">TM_UART8_ReceiveHandler</text>
</a>
</g>
</g>
<!-- Node1&#45;&gt;Node10 -->
<g id="edge10" class="edge"><title>Node1&#45;&gt;Node10</title>
<path fill="none" stroke="midnightblue" d="M104.922,-209.431C127.012,-193.491 173.93,-161.437 218,-143 223.818,-140.566 230.027,-138.383 236.283,-136.442"/>
<polygon fill="midnightblue" stroke="midnightblue" points="237.478,-139.739 246.105,-133.588 235.525,-133.017 237.478,-139.739"/>
</g>
<!-- Node11 -->
<g id="node11" class="node"><title>Node11</title>
<g id="a_node11"><a xlink:href="a00029.html#ga2f8e1ce72da21b6539d8e1f299ec3b0d" target="_top" xlink:title="Deinitializes the USARTx peripheral registers to their default reset values. ">
<polygon fill="white" stroke="black" points="252,-76.5 252,-95.5 335,-95.5 335,-76.5 252,-76.5"/>
<text text-anchor="middle" x="293.5" y="-83.5" font-family="Helvetica,sans-Serif" font-size="10.00">USART_DeInit</text>
</a>
</g>
</g>
<!-- Node1&#45;&gt;Node11 -->
<g id="edge11" class="edge"><title>Node1&#45;&gt;Node11</title>
<path fill="none" stroke="midnightblue" d="M99.7141,-209.358C117.876,-187.326 165.755,-133.04 218,-105 225.439,-101.008 233.75,-97.828 242.048,-95.3036"/>
<polygon fill="midnightblue" stroke="midnightblue" points="243.021,-98.6658 251.729,-92.6315 241.159,-91.9181 243.021,-98.6658"/>
</g>
<!-- Node14 -->
<g id="node14" class="node"><title>Node14</title>
<g id="a_node14"><a xlink:href="a00019.html#ga4ab373ed0870c06fca5eb51d639adf41" target="_top" xlink:title="Initializes the NVIC peripheral according to the specified parameters in the NVIC_InitStruct. ">
<polygon fill="white" stroke="black" points="263.5,-38.5 263.5,-57.5 323.5,-57.5 323.5,-38.5 263.5,-38.5"/>
<text text-anchor="middle" x="293.5" y="-45.5" font-family="Helvetica,sans-Serif" font-size="10.00">NVIC_Init</text>
</a>
</g>
</g>
<!-- Node1&#45;&gt;Node14 -->
<g id="edge14" class="edge"><title>Node1&#45;&gt;Node14</title>
<path fill="none" stroke="midnightblue" d="M97.0602,-209.385C111.79,-182.377 157.464,-105.307 218,-67 228.574,-60.3086 241.395,-55.97 253.399,-53.1584"/>
<polygon fill="midnightblue" stroke="midnightblue" points="254.133,-56.5808 263.222,-51.1376 252.722,-49.7243 254.133,-56.5808"/>
</g>
<!-- Node15 -->
<g id="node15" class="node"><title>Node15</title>
<g id="a_node15"><a xlink:href="a00029.html#ga98da340ea0324002ba1b4263e91ab2ff" target="_top" xlink:title="Initializes the USARTx peripheral according to the specified parameters in the USART_InitStruct ...">
<polygon fill="white" stroke="black" points="258.5,-0.5 258.5,-19.5 328.5,-19.5 328.5,-0.5 258.5,-0.5"/>
<text text-anchor="middle" x="293.5" y="-7.5" font-family="Helvetica,sans-Serif" font-size="10.00">USART_Init</text>
</a>
</g>
</g>
<!-- Node1&#45;&gt;Node15 -->
<g id="edge15" class="edge"><title>Node1&#45;&gt;Node15</title>
<path fill="none" stroke="midnightblue" d="M95.4849,-209.296C107.292,-177.862 148.939,-78.0401 218,-29 226.907,-22.675 237.734,-18.4522 248.342,-15.634"/>
<polygon fill="midnightblue" stroke="midnightblue" points="249.408,-18.9807 258.376,-13.3396 247.847,-12.1568 249.408,-18.9807"/>
</g>
<!-- Node12 -->
<g id="node12" class="node"><title>Node12</title>
<g id="a_node12"><a xlink:href="a00020.html#gad94553850ac07106a27ee85fec37efdf" target="_top" xlink:title="Forces or releases High Speed APB (APB2) peripheral reset. ">
<polygon fill="white" stroke="black" points="405,-95.5 405,-114.5 550,-114.5 550,-95.5 405,-95.5"/>
<text text-anchor="middle" x="477.5" y="-102.5" font-family="Helvetica,sans-Serif" font-size="10.00">RCC_APB2PeriphResetCmd</text>
</a>
</g>
</g>
<!-- Node11&#45;&gt;Node12 -->
<g id="edge12" class="edge"><title>Node11&#45;&gt;Node12</title>
<path fill="none" stroke="midnightblue" d="M335.344,-90.264C352.907,-92.0975 374.095,-94.3093 394.653,-96.4555"/>
<polygon fill="midnightblue" stroke="midnightblue" points="394.367,-99.9446 404.676,-97.5019 395.093,-92.9824 394.367,-99.9446"/>
</g>
<!-- Node13 -->
<g id="node13" class="node"><title>Node13</title>
<g id="a_node13"><a xlink:href="a00020.html#gab197ae4369c10b92640a733b40ed2801" target="_top" xlink:title="Forces or releases Low Speed APB (APB1) peripheral reset. ">
<polygon fill="white" stroke="black" points="405,-57.5 405,-76.5 550,-76.5 550,-57.5 405,-57.5"/>
<text text-anchor="middle" x="477.5" y="-64.5" font-family="Helvetica,sans-Serif" font-size="10.00">RCC_APB1PeriphResetCmd</text>
</a>
</g>
</g>
<!-- Node11&#45;&gt;Node13 -->
<g id="edge13" class="edge"><title>Node11&#45;&gt;Node13</title>
<path fill="none" stroke="midnightblue" d="M335.344,-81.736C352.907,-79.9025 374.095,-77.6907 394.653,-75.5445"/>
<polygon fill="midnightblue" stroke="midnightblue" points="395.093,-79.0176 404.676,-74.4981 394.367,-72.0554 395.093,-79.0176"/>
</g>
<!-- Node16 -->
<g id="node16" class="node"><title>Node16</title>
<g id="a_node16"><a xlink:href="a00020.html#ga3e9944fd1ed734275222bbb3e3f29993" target="_top" xlink:title="Returns the frequencies of different on chip clocks; SYSCLK, HCLK, PCLK1 and PCLK2. ">
<polygon fill="white" stroke="black" points="422.5,-0.5 422.5,-19.5 532.5,-19.5 532.5,-0.5 422.5,-0.5"/>
<text text-anchor="middle" x="477.5" y="-7.5" font-family="Helvetica,sans-Serif" font-size="10.00">RCC_GetClocksFreq</text>
</a>
</g>
</g>
<!-- Node15&#45;&gt;Node16 -->
<g id="edge16" class="edge"><title>Node15&#45;&gt;Node16</title>
<path fill="none" stroke="midnightblue" d="M328.733,-10C352.21,-10 384.081,-10 412.214,-10"/>
<polygon fill="midnightblue" stroke="midnightblue" points="412.387,-13.5001 422.387,-10 412.387,-6.5001 412.387,-13.5001"/>
</g>
</g>
</svg>
        <g id="navigator" transform="translate(0 0)" fill="#404254">
                <rect fill="#f2f5e9" fill-opacity="0.5" stroke="#606060" stroke-width=".5" x="0" y="0" width="60" height="60"/>
                <use id="zoomplus" xlink:href="#zoomPlus" x="17" y="9" onmousedown="handleZoom(evt,'in')"/>
                <use id="zoomminus" xlink:href="#zoomMin" x="42" y="9" onmousedown="handleZoom(evt,'out')"/>
                <use id="reset" xlink:href="#resetDef" x="30" y="36" onmousedown="handleReset()"/>
                <g id="arrowUp" xlink:href="#dirArrow" transform="translate(30 24)" onmousedown="handlePan(0,-1)">
                  <use xlink:href="#rim" fill="#404040">
                        <set attributeName="fill" to="#808080" begin="arrowUp.mouseover" end="arrowUp.mouseout"/>
                  </use>
                  <path fill="none" stroke="white" stroke-width="1.5" d="M0,-3.0v7 M-2.5,-0.5L0,-3.0L2.5,-0.5"/>
                </g>
                <g id="arrowRight" xlink:href="#dirArrow" transform="rotate(90) translate(36 -43)" onmousedown="handlePan(1,0)">
                  <use xlink:href="#rim" fill="#404040">
                        <set attributeName="fill" to="#808080" begin="arrowRight.mouseover" end="arrowRight.mouseout"/>
                  </use>
                  <path fill="none" stroke="white" stroke-width="1.5" d="M0,-3.0v7 M-2.5,-0.5L0,-3.0L2.5,-0.5"/>
                </g>
                <g id="arrowDown" xlink:href="#dirArrow" transform="rotate(180) translate(-30 -48)" onmousedown="handlePan(0,1)">
                  <use xlink:href="#rim" fill="#404040">
                        <set attributeName="fill" to="#808080" begin="arrowDown.mouseover" end="arrowDown.mouseout"/>
                  </use>
                  <path fill="none" stroke="white" stroke-width="1.5" d="M0,-3.0v7 M-2.5,-0.5L0,-3.0L2.5,-0.5"/>
                </g>
                <g id="arrowLeft" xlink:href="#dirArrow" transform="rotate(270) translate(-36 17)" onmousedown="handlePan(-1,0)">
                  <use xlink:href="#rim" fill="#404040">
                        <set attributeName="fill" to="#808080" begin="arrowLeft.mouseover" end="arrowLeft.mouseout"/>
                  </use>
                  <path fill="none" stroke="white" stroke-width="1.5" d="M0,-3.0v7 M-2.5,-0.5L0,-3.0L2.5,-0.5"/>
                </g>
        </g>
        <svg viewBox="0 0 15 15" width="100%" height="30px" preserveAspectRatio="xMaxYMin meet">
         <g id="arrow_out" transform="scale(0.3 0.3)">
          <a xlink:href="a00168_ga5cf7d7f613f4241fb77321ef9554f46b_cgraph_org.svg" target="_base">
           <rect id="button" ry="5" rx="5" y="6" x="6" height="38" width="38"
                fill="#f2f5e9" fill-opacity="0.5" stroke="#606060" stroke-width="1.0"/>
           <path id="arrow"
             d="M 11.500037,31.436501 C 11.940474,20.09759 22.043105,11.32322 32.158766,21.979434 L 37.068811,17.246167 C 37.068811,17.246167 37.088388,32 37.088388,32 L 22.160133,31.978069 C 22.160133,31.978069 26.997745,27.140456 26.997745,27.140456 C 18.528582,18.264221 13.291696,25.230495 11.500037,31.436501 z"
             style="fill:#404040;"/>
          </a>
         </g>
        </svg>
</svg>
