<?xml version="1.0" encoding="UTF-8" standalone="no"?>
<!DOCTYPE svg PUBLIC "-//W3C//DTD SVG 1.1//EN"
 "http://www.w3.org/Graphics/SVG/1.1/DTD/svg11.dtd">
<!-- Generated by graphviz version 2.38.0 (20140413.2041)
 -->
<!-- Title: MDB_GPIO_Off Pages: 1 -->
<svg width="460pt" height="66pt"
 viewBox="0.00 0.00 460.00 66.00" xmlns="http://www.w3.org/2000/svg" xmlns:xlink="http://www.w3.org/1999/xlink">
<g id="graph0" class="graph" transform="scale(1 1) rotate(0) translate(4 62)">
<title>MDB_GPIO_Off</title>
<polygon fill="white" stroke="none" points="-4,4 -4,-62 456,-62 456,4 -4,4"/>
<!-- Node1 -->
<g id="node1" class="node"><title>Node1</title>
<polygon fill="#bfbfbf" stroke="black" points="0,-19.5 0,-38.5 88,-38.5 88,-19.5 0,-19.5"/>
<text text-anchor="middle" x="44" y="-26.5" font-family="Helvetica,sans-Serif" font-size="10.00">MDB_GPIO_Off</text>
</g>
<!-- Node2 -->
<g id="node2" class="node"><title>Node2</title>
<g id="a_node2"><a xlink:href="a00122.html#gad45b8278807ffed1f22e03d86d35bf90" target="_top" xlink:title="Initialize all GPIOs from MDB_GPIO. ">
<polygon fill="white" stroke="black" points="132,-38.5 132,-57.5 220,-57.5 220,-38.5 132,-38.5"/>
<text text-anchor="middle" x="176" y="-45.5" font-family="Helvetica,sans-Serif" font-size="10.00">MDB_GPIO_Init</text>
</a>
</g>
</g>
<!-- Node1&#45;&gt;Node2 -->
<g id="edge1" class="edge"><title>Node1&#45;&gt;Node2</title>
<path fill="none" stroke="midnightblue" d="M98.3675,-36.7999C109.531,-38.4314 121.167,-40.1321 131.901,-41.7009"/>
<polygon fill="midnightblue" stroke="midnightblue" points="98.6892,-33.3098 88.2881,-35.3267 97.6768,-40.2362 98.6892,-33.3098"/>
</g>
<!-- Node4 -->
<g id="node4" class="node"><title>Node4</title>
<g id="a_node4"><a xlink:href="a00122.html#ga23127fb33a96a81838d3c4b368b0e915" target="_top" xlink:title="Provides GPIO on/off functionality. ">
<polygon fill="white" stroke="black" points="124,-0.5 124,-19.5 228,-19.5 228,-0.5 124,-0.5"/>
<text text-anchor="middle" x="176" y="-7.5" font-family="Helvetica,sans-Serif" font-size="10.00">MDB_GPIO_Switch</text>
</a>
</g>
</g>
<!-- Node1&#45;&gt;Node4 -->
<g id="edge3" class="edge"><title>Node1&#45;&gt;Node4</title>
<path fill="none" stroke="midnightblue" d="M98.3639,-21.2007C106.766,-19.9727 115.435,-18.7056 123.787,-17.485"/>
<polygon fill="midnightblue" stroke="midnightblue" points="97.6768,-17.7638 88.2881,-22.6733 98.6892,-24.6902 97.6768,-17.7638"/>
</g>
<!-- Node3 -->
<g id="node3" class="node"><title>Node3</title>
<g id="a_node3"><a xlink:href="a00143.html#ga840291bc02cba5474a4cb46a9b9566fe" target="_top" xlink:title="Main function entry. ">
<polygon fill="white" stroke="black" points="273,-38.5 273,-57.5 311,-57.5 311,-38.5 273,-38.5"/>
<text text-anchor="middle" x="292" y="-45.5" font-family="Helvetica,sans-Serif" font-size="10.00">main</text>
</a>
</g>
</g>
<!-- Node2&#45;&gt;Node3 -->
<g id="edge2" class="edge"><title>Node2&#45;&gt;Node3</title>
<path fill="none" stroke="midnightblue" d="M230.105,-48C245.487,-48 261.25,-48 272.883,-48"/>
<polygon fill="midnightblue" stroke="midnightblue" points="230.099,-44.5001 220.099,-48 230.098,-51.5001 230.099,-44.5001"/>
</g>
<!-- Node5 -->
<g id="node5" class="node"><title>Node5</title>
<g id="a_node5"><a xlink:href="a00095.html#gab27f871618e69ee02c2d2bd756a97397" target="_top" xlink:title="Set beam control source and new state. ">
<polygon fill="white" stroke="black" points="264,-0.5 264,-19.5 320,-19.5 320,-0.5 264,-0.5"/>
<text text-anchor="middle" x="292" y="-7.5" font-family="Helvetica,sans-Serif" font-size="10.00">beamCtrl</text>
</a>
</g>
</g>
<!-- Node4&#45;&gt;Node5 -->
<g id="edge4" class="edge"><title>Node4&#45;&gt;Node5</title>
<path fill="none" stroke="midnightblue" d="M238.447,-10C247.393,-10 256.193,-10 263.956,-10"/>
<polygon fill="midnightblue" stroke="midnightblue" points="238.331,-6.5001 228.331,-10 238.331,-13.5001 238.331,-6.5001"/>
</g>
<!-- Node6 -->
<g id="node6" class="node"><title>Node6</title>
<g id="a_node6"><a xlink:href="a00115.html#ga7133f3f78767503641d307386e68bd28" target="_top" xlink:title="{ function_description } ">
<polygon fill="white" stroke="black" points="356,-0.5 356,-19.5 452,-19.5 452,-0.5 356,-0.5"/>
<text text-anchor="middle" x="404" y="-7.5" font-family="Helvetica,sans-Serif" font-size="10.00">TIM4_IRQHandler</text>
</a>
</g>
</g>
<!-- Node5&#45;&gt;Node6 -->
<g id="edge5" class="edge"><title>Node5&#45;&gt;Node6</title>
<path fill="none" stroke="midnightblue" d="M330.273,-10C338.537,-10 347.398,-10 355.994,-10"/>
<polygon fill="midnightblue" stroke="midnightblue" points="330.191,-6.5001 320.191,-10 330.191,-13.5001 330.191,-6.5001"/>
</g>
</g>
</svg>
