<?xml version="1.0" encoding="UTF-8" standalone="no"?>
<!DOCTYPE svg PUBLIC "-//W3C//DTD SVG 1.1//EN"
 "http://www.w3.org/Graphics/SVG/1.1/DTD/svg11.dtd">
<!-- Generated by graphviz version 2.38.0 (20140413.2041)
 -->
<!-- Title: irq_callbacks.c Pages: 1 -->
<svg width="2094pt" height="364pt"
 viewBox="0.00 0.00 2094.06 364.00" xmlns="http://www.w3.org/2000/svg" xmlns:xlink="http://www.w3.org/1999/xlink">
<g id="graph0" class="graph" transform="scale(1 1) rotate(0) translate(4 360)">
<title>irq_callbacks.c</title>
<polygon fill="white" stroke="none" points="-4,4 -4,-360 2090.06,-360 2090.06,4 -4,4"/>
<!-- Node1 -->
<g id="node1" class="node"><title>Node1</title>
<polygon fill="#bfbfbf" stroke="black" points="305,-336.5 305,-355.5 387,-355.5 387,-336.5 305,-336.5"/>
<text text-anchor="middle" x="346" y="-343.5" font-family="Helvetica,sans-Serif" font-size="10.00">irq_callbacks.c</text>
</g>
<!-- Node2 -->
<g id="node2" class="node"><title>Node2</title>
<polygon fill="white" stroke="#bfbfbf" points="15.5,-0.5 15.5,-19.5 64.5,-19.5 64.5,-0.5 15.5,-0.5"/>
<text text-anchor="middle" x="40" y="-7.5" font-family="Helvetica,sans-Serif" font-size="10.00">stdint.h</text>
</g>
<!-- Node1&#45;&gt;Node2 -->
<g id="edge1" class="edge"><title>Node1&#45;&gt;Node2</title>
<path fill="none" stroke="midnightblue" d="M304.93,-343.94C252.004,-341.25 158.108,-331.931 85,-300 41.4179,-280.965 0,-282.558 0,-235 0,-235 0,-235 0,-121 0,-86.6168 17.4742,-49.6307 29.3234,-28.503"/>
<polygon fill="midnightblue" stroke="midnightblue" points="32.4244,-30.1332 34.4382,-19.7315 26.3773,-26.6071 32.4244,-30.1332"/>
</g>
<!-- Node3 -->
<g id="node3" class="node"><title>Node3</title>
<polygon fill="white" stroke="#bfbfbf" points="152,-224.5 152,-243.5 220,-243.5 220,-224.5 152,-224.5"/>
<text text-anchor="middle" x="186" y="-231.5" font-family="Helvetica,sans-Serif" font-size="10.00">arm_math.h</text>
</g>
<!-- Node1&#45;&gt;Node3 -->
<g id="edge2" class="edge"><title>Node1&#45;&gt;Node3</title>
<path fill="none" stroke="midnightblue" d="M333.445,-336.368C306.106,-317.573 240.936,-272.768 207.139,-249.533"/>
<polygon fill="midnightblue" stroke="midnightblue" points="208.72,-246.373 198.497,-243.591 204.754,-252.141 208.72,-246.373"/>
</g>
<!-- Node4 -->
<g id="node4" class="node"><title>Node4</title>
<g id="a_node4"><a xlink:href="a00025.html" target="_top" xlink:title="Main header definition. ">
<polygon fill="white" stroke="black" points="758,-280.5 758,-299.5 804,-299.5 804,-280.5 758,-280.5"/>
<text text-anchor="middle" x="781" y="-287.5" font-family="Helvetica,sans-Serif" font-size="10.00">main.h</text>
</a>
</g>
</g>
<!-- Node1&#45;&gt;Node4 -->
<g id="edge3" class="edge"><title>Node1&#45;&gt;Node4</title>
<path fill="none" stroke="midnightblue" d="M387.316,-339.871C473.096,-329.223 669.038,-304.899 747.554,-295.152"/>
<polygon fill="midnightblue" stroke="midnightblue" points="748.337,-298.582 757.83,-293.876 747.475,-291.635 748.337,-298.582"/>
</g>
<!-- Node14 -->
<g id="node14" class="node"><title>Node14</title>
<g id="a_node14"><a xlink:href="a00033.html" target="_top" xlink:title="Definitions to extend board support for STM32F429i&#45;DISCO and equivalent boards. ">
<polygon fill="white" stroke="black" points="1748.5,-112.5 1748.5,-131.5 1855.5,-131.5 1855.5,-112.5 1748.5,-112.5"/>
<text text-anchor="middle" x="1802" y="-119.5" font-family="Helvetica,sans-Serif" font-size="10.00">md_stm32f4_disco.h</text>
</a>
</g>
</g>
<!-- Node1&#45;&gt;Node14 -->
<g id="edge92" class="edge"><title>Node1&#45;&gt;Node14</title>
<path fill="none" stroke="midnightblue" d="M387.071,-344.142C547.748,-340.623 1133.93,-326.232 1318,-300 1423.01,-285.035 1448.47,-274.724 1550,-244 1619.31,-223.026 1638.31,-220.531 1703,-188 1732.15,-173.341 1763.2,-151.878 1782.6,-137.68"/>
<polygon fill="midnightblue" stroke="midnightblue" points="1784.69,-140.485 1790.64,-131.718 1780.52,-134.862 1784.69,-140.485"/>
</g>
<!-- Node24 -->
<g id="node24" class="node"><title>Node24</title>
<g id="a_node24"><a xlink:href="a00012.html" target="_top" xlink:title="Controlling beam and primary actuators. ">
<polygon fill="white" stroke="black" points="576.5,-224.5 576.5,-243.5 641.5,-243.5 641.5,-224.5 576.5,-224.5"/>
<text text-anchor="middle" x="609" y="-231.5" font-family="Helvetica,sans-Serif" font-size="10.00">actuators.h</text>
</a>
</g>
</g>
<!-- Node1&#45;&gt;Node24 -->
<g id="edge93" class="edge"><title>Node1&#45;&gt;Node24</title>
<path fill="none" stroke="midnightblue" d="M366.637,-336.368C412.92,-317.01 525.164,-270.065 579.096,-247.507"/>
<polygon fill="midnightblue" stroke="midnightblue" points="580.584,-250.679 588.459,-243.591 577.883,-244.221 580.584,-250.679"/>
</g>
<!-- Node27 -->
<g id="node27" class="node"><title>Node27</title>
<g id="a_node27"><a xlink:href="a00048.html" target="_top" xlink:title="PID compensator implementation. ">
<polygon fill="white" stroke="black" points="282,-56.5 282,-75.5 320,-75.5 320,-56.5 282,-56.5"/>
<text text-anchor="middle" x="301" y="-63.5" font-family="Helvetica,sans-Serif" font-size="10.00">pid.h</text>
</a>
</g>
</g>
<!-- Node1&#45;&gt;Node27 -->
<g id="edge90" class="edge"><title>Node1&#45;&gt;Node27</title>
<path fill="none" stroke="midnightblue" d="M304.749,-337.986C256.112,-327.244 177.531,-301.551 143,-244 101.33,-174.55 216.879,-107.367 272.72,-79.9397"/>
<polygon fill="midnightblue" stroke="midnightblue" points="274.276,-83.0752 281.77,-75.5859 271.241,-76.7672 274.276,-83.0752"/>
</g>
<!-- Node32 -->
<g id="node32" class="node"><title>Node32</title>
<g id="a_node32"><a xlink:href="a00023.html" target="_top" xlink:title="Analog processing related callback handler definition. ">
<polygon fill="white" stroke="black" points="740,-168.5 740,-187.5 822,-187.5 822,-168.5 740,-168.5"/>
<text text-anchor="middle" x="781" y="-175.5" font-family="Helvetica,sans-Serif" font-size="10.00">irq_callbacks.h</text>
</a>
</g>
</g>
<!-- Node1&#45;&gt;Node32 -->
<g id="edge94" class="edge"><title>Node1&#45;&gt;Node32</title>
<path fill="none" stroke="midnightblue" d="M387.028,-344.493C579.977,-341.692 1390.86,-325.132 1465,-244 1471,-237.438 1471.08,-230.488 1465,-224 1464.32,-223.277 990.937,-192.584 832.193,-182.311"/>
<polygon fill="midnightblue" stroke="midnightblue" points="832.406,-178.817 822.201,-181.664 831.954,-185.803 832.406,-178.817"/>
</g>
<!-- Node37 -->
<g id="node37" class="node"><title>Node37</title>
<g id="a_node37"><a xlink:href="a00051.html" target="_top" xlink:title="Provides DAC driven signal generator functions. ">
<polygon fill="white" stroke="black" points="28,-224.5 28,-243.5 96,-243.5 96,-224.5 28,-224.5"/>
<text text-anchor="middle" x="62" y="-231.5" font-family="Helvetica,sans-Serif" font-size="10.00">signalGen.h</text>
</a>
</g>
</g>
<!-- Node1&#45;&gt;Node37 -->
<g id="edge91" class="edge"><title>Node1&#45;&gt;Node37</title>
<path fill="none" stroke="midnightblue" d="M304.841,-340.797C246.118,-334.195 141.862,-320.046 110,-300 92.0558,-288.711 78.5701,-268.098 70.5323,-253.104"/>
<polygon fill="midnightblue" stroke="midnightblue" points="73.4735,-251.163 65.8502,-243.805 67.2212,-254.311 73.4735,-251.163"/>
</g>
<!-- Node4&#45;&gt;Node3 -->
<g id="edge42" class="edge"><title>Node4&#45;&gt;Node3</title>
<path fill="none" stroke="midnightblue" d="M757.98,-287.959C682.55,-284.366 436.092,-271.185 234,-244 232.724,-243.828 231.43,-243.645 230.125,-243.453"/>
<polygon fill="midnightblue" stroke="midnightblue" points="230.447,-239.96 220.018,-241.827 229.336,-246.871 230.447,-239.96"/>
</g>
<!-- Node5 -->
<g id="node5" class="node"><title>Node5</title>
<polygon fill="white" stroke="#bfbfbf" points="100,-0.5 100,-19.5 146,-19.5 146,-0.5 100,-0.5"/>
<text text-anchor="middle" x="123" y="-7.5" font-family="Helvetica,sans-Serif" font-size="10.00">stdio.h</text>
</g>
<!-- Node4&#45;&gt;Node5 -->
<g id="edge4" class="edge"><title>Node4&#45;&gt;Node5</title>
<path fill="none" stroke="midnightblue" d="M757.954,-288.156C678.49,-285.016 416.513,-272.678 338,-244 230.589,-204.767 155.915,-75.7573 131.585,-28.5259"/>
<polygon fill="midnightblue" stroke="midnightblue" points="134.673,-26.8754 127.049,-19.5177 128.42,-30.0234 134.673,-26.8754"/>
</g>
<!-- Node6 -->
<g id="node6" class="node"><title>Node6</title>
<polygon fill="white" stroke="#bfbfbf" points="309,-0.5 309,-19.5 357,-19.5 357,-0.5 309,-0.5"/>
<text text-anchor="middle" x="333" y="-7.5" font-family="Helvetica,sans-Serif" font-size="10.00">stdlib.h</text>
</g>
<!-- Node4&#45;&gt;Node6 -->
<g id="edge5" class="edge"><title>Node4&#45;&gt;Node6</title>
<path fill="none" stroke="midnightblue" d="M757.956,-287.819C717.414,-284.965 631.518,-275.402 567,-244 462.619,-193.197 439.727,-166.482 367,-76 355.429,-61.6038 346.056,-42.6572 340.104,-28.9367"/>
<polygon fill="midnightblue" stroke="midnightblue" points="343.306,-27.52 336.24,-19.6251 336.841,-30.203 343.306,-27.52"/>
</g>
<!-- Node7 -->
<g id="node7" class="node"><title>Node7</title>
<polygon fill="white" stroke="#bfbfbf" points="241.5,-0.5 241.5,-19.5 290.5,-19.5 290.5,-0.5 241.5,-0.5"/>
<text text-anchor="middle" x="266" y="-7.5" font-family="Helvetica,sans-Serif" font-size="10.00">string.h</text>
</g>
<!-- Node4&#45;&gt;Node7 -->
<g id="edge6" class="edge"><title>Node4&#45;&gt;Node7</title>
<path fill="none" stroke="midnightblue" d="M757.895,-288.265C683.552,-285.609 451.448,-274.975 384,-244 284.259,-198.194 246.882,-176.602 203,-76 193.641,-54.5432 216.503,-36.0496 237.258,-24.3352"/>
<polygon fill="midnightblue" stroke="midnightblue" points="239.02,-27.3627 246.222,-19.5925 235.746,-21.1753 239.02,-27.3627"/>
</g>
<!-- Node8 -->
<g id="node8" class="node"><title>Node8</title>
<polygon fill="white" stroke="#bfbfbf" points="1302,-224.5 1302,-243.5 1370,-243.5 1370,-224.5 1302,-224.5"/>
<text text-anchor="middle" x="1336" y="-231.5" font-family="Helvetica,sans-Serif" font-size="10.00">stdint&#45;gcc.h</text>
</g>
<!-- Node4&#45;&gt;Node8 -->
<g id="edge7" class="edge"><title>Node4&#45;&gt;Node8</title>
<path fill="none" stroke="midnightblue" d="M804.082,-287.75C875.977,-283.685 1102.2,-269.603 1288,-244 1289.28,-243.824 1290.57,-243.638 1291.87,-243.442"/>
<polygon fill="midnightblue" stroke="midnightblue" points="1292.67,-246.859 1301.98,-241.8 1291.55,-239.949 1292.67,-246.859"/>
</g>
<!-- Node9 -->
<g id="node9" class="node"><title>Node9</title>
<g id="a_node9"><a xlink:href="a00016.html" target="_top" xlink:title="Platform/Compiler dependent definitions. ">
<polygon fill="white" stroke="black" points="878.5,-56.5 878.5,-75.5 943.5,-75.5 943.5,-56.5 878.5,-56.5"/>
<text text-anchor="middle" x="911" y="-63.5" font-family="Helvetica,sans-Serif" font-size="10.00">attributes.h</text>
</a>
</g>
</g>
<!-- Node4&#45;&gt;Node9 -->
<g id="edge8" class="edge"><title>Node4&#45;&gt;Node9</title>
<path fill="none" stroke="midnightblue" d="M804.085,-282.181C822.912,-275.45 848.794,-263.321 864,-244 883.549,-219.16 901.085,-126.125 907.941,-85.8172"/>
<polygon fill="midnightblue" stroke="midnightblue" points="911.428,-86.1809 909.617,-75.7419 904.523,-85.0317 911.428,-86.1809"/>
</g>
<!-- Node10 -->
<g id="node10" class="node"><title>Node10</title>
<g id="a_node10"><a xlink:href="a00019.html" target="_top" xlink:title="Global defines include file. ">
<polygon fill="white" stroke="black" points="921,-0.5 921,-19.5 977,-19.5 977,-0.5 921,-0.5"/>
<text text-anchor="middle" x="949" y="-7.5" font-family="Helvetica,sans-Serif" font-size="10.00">globals.h</text>
</a>
</g>
</g>
<!-- Node4&#45;&gt;Node10 -->
<g id="edge9" class="edge"><title>Node4&#45;&gt;Node10</title>
<path fill="none" stroke="midnightblue" d="M791.181,-280.465C810.375,-263.355 850,-222.734 850,-179 850,-179 850,-179 850,-121 850,-90.9022 850.277,-79.5652 869,-56 880.493,-41.5349 897.984,-30.9421 913.683,-23.6812"/>
<polygon fill="midnightblue" stroke="midnightblue" points="915.367,-26.7665 923.157,-19.5859 912.589,-20.3412 915.367,-26.7665"/>
</g>
<!-- Node11 -->
<g id="node11" class="node"><title>Node11</title>
<g id="a_node11"><a xlink:href="a00031.html" target="_top" xlink:title="Provides SysTick&#45;Timer driven delay functions. ">
<polygon fill="white" stroke="black" points="1306.5,-56.5 1306.5,-75.5 1413.5,-75.5 1413.5,-56.5 1306.5,-56.5"/>
<text text-anchor="middle" x="1360" y="-63.5" font-family="Helvetica,sans-Serif" font-size="10.00">md_stm32f4_delay.h</text>
</a>
</g>
</g>
<!-- Node4&#45;&gt;Node11 -->
<g id="edge10" class="edge"><title>Node4&#45;&gt;Node11</title>
<path fill="none" stroke="midnightblue" d="M804.232,-284.581C839.043,-277.658 906.574,-263.051 962,-244 981.045,-237.454 1244.02,-119.225 1331.75,-79.7278"/>
<polygon fill="midnightblue" stroke="midnightblue" points="1333.4,-82.8203 1341.08,-75.523 1330.53,-76.4376 1333.4,-82.8203"/>
</g>
<!-- Node4&#45;&gt;Node14 -->
<g id="edge14" class="edge"><title>Node4&#45;&gt;Node14</title>
<path fill="none" stroke="midnightblue" d="M804.136,-288.557C911.904,-286.342 1365.22,-275.301 1503,-244 1609.23,-219.867 1726.67,-162.542 1776.94,-136.404"/>
<polygon fill="midnightblue" stroke="midnightblue" points="1778.84,-139.357 1786.07,-131.612 1775.59,-133.158 1778.84,-139.357"/>
</g>
<!-- Node16 -->
<g id="node16" class="node"><title>Node16</title>
<g id="a_node16"><a xlink:href="a00037_source.html" target="_top" xlink:title="md_stm32f4_timer.h">
<polygon fill="white" stroke="black" points="1470,-56.5 1470,-75.5 1576,-75.5 1576,-56.5 1470,-56.5"/>
<text text-anchor="middle" x="1523" y="-63.5" font-family="Helvetica,sans-Serif" font-size="10.00">md_stm32f4_timer.h</text>
</a>
</g>
</g>
<!-- Node4&#45;&gt;Node16 -->
<g id="edge19" class="edge"><title>Node4&#45;&gt;Node16</title>
<path fill="none" stroke="midnightblue" d="M804.13,-285.184C844.178,-278.365 928.877,-263.004 999,-244 1188.75,-192.574 1410.16,-110.19 1491.21,-79.2609"/>
<polygon fill="midnightblue" stroke="midnightblue" points="1492.74,-82.424 1500.83,-75.5813 1490.24,-75.8862 1492.74,-82.424"/>
</g>
<!-- Node17 -->
<g id="node17" class="node"><title>Node17</title>
<g id="a_node17"><a xlink:href="a00059_source.html" target="_top" xlink:title="tm_stm32f4_pwm.h">
<polygon fill="white" stroke="black" points="1627.5,-112.5 1627.5,-131.5 1730.5,-131.5 1730.5,-112.5 1627.5,-112.5"/>
<text text-anchor="middle" x="1679" y="-119.5" font-family="Helvetica,sans-Serif" font-size="10.00">tm_stm32f4_pwm.h</text>
</a>
</g>
</g>
<!-- Node4&#45;&gt;Node17 -->
<g id="edge22" class="edge"><title>Node4&#45;&gt;Node17</title>
<path fill="none" stroke="midnightblue" d="M804.054,-288.857C908.428,-287.999 1337.14,-282.176 1465,-244 1543.04,-220.699 1623.65,-164.902 1659.63,-138.003"/>
<polygon fill="midnightblue" stroke="midnightblue" points="1661.93,-140.652 1667.79,-131.824 1657.7,-135.072 1661.93,-140.652"/>
</g>
<!-- Node20 -->
<g id="node20" class="node"><title>Node20</title>
<g id="a_node20"><a xlink:href="a00065_source.html" target="_top" xlink:title="tm_stm32f4_usart.h">
<polygon fill="white" stroke="black" points="1066,-112.5 1066,-131.5 1170,-131.5 1170,-112.5 1066,-112.5"/>
<text text-anchor="middle" x="1118" y="-119.5" font-family="Helvetica,sans-Serif" font-size="10.00">tm_stm32f4_usart.h</text>
</a>
</g>
</g>
<!-- Node4&#45;&gt;Node20 -->
<g id="edge33" class="edge"><title>Node4&#45;&gt;Node20</title>
<path fill="none" stroke="midnightblue" d="M804.114,-283.974C833.679,-277.088 886.07,-263.335 928,-244 994.504,-213.333 1065.38,-162.785 1098.65,-137.852"/>
<polygon fill="midnightblue" stroke="midnightblue" points="1100.77,-140.636 1106.63,-131.814 1096.55,-135.053 1100.77,-140.636"/>
</g>
<!-- Node23 -->
<g id="node23" class="node"><title>Node23</title>
<polygon fill="white" stroke="#bfbfbf" points="1388,-224.5 1388,-243.5 1456,-243.5 1456,-224.5 1388,-224.5"/>
<text text-anchor="middle" x="1422" y="-231.5" font-family="Helvetica,sans-Serif" font-size="10.00">core_cm4.h</text>
</g>
<!-- Node4&#45;&gt;Node23 -->
<g id="edge41" class="edge"><title>Node4&#45;&gt;Node23</title>
<path fill="none" stroke="midnightblue" d="M804.206,-288.349C883.151,-285.905 1148.66,-275.806 1377.62,-244.012"/>
<polygon fill="midnightblue" stroke="midnightblue" points="1378.39,-247.438 1387.8,-242.58 1377.41,-240.506 1378.39,-247.438"/>
</g>
<!-- Node4&#45;&gt;Node24 -->
<g id="edge43" class="edge"><title>Node4&#45;&gt;Node24</title>
<path fill="none" stroke="midnightblue" d="M757.803,-281.717C729.094,-272.704 679.852,-257.244 645.926,-246.593"/>
<polygon fill="midnightblue" stroke="midnightblue" points="646.95,-243.246 636.361,-243.59 644.853,-249.925 646.95,-243.246"/>
</g>
<!-- Node25 -->
<g id="node25" class="node"><title>Node25</title>
<g id="a_node25"><a xlink:href="a00014.html" target="_top" xlink:title="Provides DMA related configuration and access functions for ADC and DAC. ">
<polygon fill="white" stroke="black" points="590,-112.5 590,-131.5 676,-131.5 676,-112.5 590,-112.5"/>
<text text-anchor="middle" x="633" y="-119.5" font-family="Helvetica,sans-Serif" font-size="10.00">adc_dac_dma.h</text>
</a>
</g>
</g>
<!-- Node4&#45;&gt;Node25 -->
<g id="edge78" class="edge"><title>Node4&#45;&gt;Node25</title>
<path fill="none" stroke="midnightblue" d="M769.78,-280.075C741.794,-253.493 671.066,-174.538 643.677,-139.763"/>
<polygon fill="midnightblue" stroke="midnightblue" points="646.278,-137.402 637.434,-131.568 640.71,-141.644 646.278,-137.402"/>
</g>
<!-- Node4&#45;&gt;Node27 -->
<g id="edge86" class="edge"><title>Node4&#45;&gt;Node27</title>
<path fill="none" stroke="midnightblue" d="M757.775,-287.92C692.161,-284.542 506.755,-272.641 454,-244 383.521,-205.737 330.748,-121.212 310.292,-84.5429"/>
<polygon fill="midnightblue" stroke="midnightblue" points="313.249,-82.6545 305.391,-75.5475 307.102,-86.0033 313.249,-82.6545"/>
</g>
<!-- Node30 -->
<g id="node30" class="node"><title>Node30</title>
<g id="a_node30"><a xlink:href="a00021.html" target="_top" xlink:title="Provides tools and helper functions. ">
<polygon fill="white" stroke="black" points="212.5,-56.5 212.5,-75.5 263.5,-75.5 263.5,-56.5 212.5,-56.5"/>
<text text-anchor="middle" x="238" y="-63.5" font-family="Helvetica,sans-Serif" font-size="10.00">helper.h</text>
</a>
</g>
</g>
<!-- Node4&#45;&gt;Node30 -->
<g id="edge89" class="edge"><title>Node4&#45;&gt;Node30</title>
<path fill="none" stroke="midnightblue" d="M757.594,-288.001C687.608,-284.715 481.077,-272.765 421,-244 341.953,-206.152 275.573,-120.75 249.658,-84.1637"/>
<polygon fill="midnightblue" stroke="midnightblue" points="252.282,-81.8065 243.7,-75.5937 246.535,-85.8023 252.282,-81.8065"/>
</g>
<!-- Node4&#45;&gt;Node32 -->
<g id="edge84" class="edge"><title>Node4&#45;&gt;Node32</title>
<path fill="none" stroke="midnightblue" d="M777.157,-280.368C773.809,-262.617 773.353,-221.666 775.789,-197.597"/>
<polygon fill="midnightblue" stroke="midnightblue" points="779.27,-197.975 777.165,-187.591 772.335,-197.022 779.27,-197.975"/>
</g>
<!-- Node33 -->
<g id="node33" class="node"><title>Node33</title>
<g id="a_node33"><a xlink:href="a00042_source.html" target="_top" xlink:title="mdb_gpio.h">
<polygon fill="white" stroke="black" points="929.5,-168.5 929.5,-187.5 996.5,-187.5 996.5,-168.5 929.5,-168.5"/>
<text text-anchor="middle" x="963" y="-175.5" font-family="Helvetica,sans-Serif" font-size="10.00">mdb_gpio.h</text>
</a>
</g>
</g>
<!-- Node4&#45;&gt;Node33 -->
<g id="edge85" class="edge"><title>Node4&#45;&gt;Node33</title>
<path fill="none" stroke="midnightblue" d="M804.323,-283.744C829.838,-277.247 871.201,-264.47 902,-244 921.639,-230.947 939.51,-210.405 950.761,-195.913"/>
<polygon fill="midnightblue" stroke="midnightblue" points="953.654,-197.888 956.866,-187.792 948.059,-193.682 953.654,-197.888"/>
</g>
<!-- Node35 -->
<g id="node35" class="node"><title>Node35</title>
<g id="a_node35"><a xlink:href="a00046.html" target="_top" xlink:title="Provides initialization methods to configure analog subsystems and DMA controller. ">
<polygon fill="white" stroke="black" points="1974.5,-168.5 1974.5,-187.5 2073.5,-187.5 2073.5,-168.5 1974.5,-168.5"/>
<text text-anchor="middle" x="2024" y="-175.5" font-family="Helvetica,sans-Serif" font-size="10.00">periph2dma_conf.h</text>
</a>
</g>
</g>
<!-- Node4&#45;&gt;Node35 -->
<g id="edge79" class="edge"><title>Node4&#45;&gt;Node35</title>
<path fill="none" stroke="midnightblue" d="M804.303,-289.26C910.161,-290.154 1356.21,-290.803 1718,-244 1813.52,-231.643 1923.56,-205.211 1982.15,-190.136"/>
<polygon fill="midnightblue" stroke="midnightblue" points="1983.33,-193.446 1992.13,-187.549 1981.57,-186.67 1983.33,-193.446"/>
</g>
<!-- Node4&#45;&gt;Node37 -->
<g id="edge87" class="edge"><title>Node4&#45;&gt;Node37</title>
<path fill="none" stroke="midnightblue" d="M757.798,-287.702C674.532,-282.971 382.968,-265.785 143,-244 131.121,-242.922 118.281,-241.577 106.402,-240.259"/>
<polygon fill="midnightblue" stroke="midnightblue" points="106.588,-236.758 96.2582,-239.115 105.803,-243.714 106.588,-236.758"/>
</g>
<!-- Node11&#45;&gt;Node10 -->
<g id="edge13" class="edge"><title>Node11&#45;&gt;Node10</title>
<path fill="none" stroke="midnightblue" d="M1306.18,-57.8709C1301.38,-57.2375 1296.6,-56.6068 1292,-56 1181.17,-41.3949 1050.17,-24.2382 986.929,-15.9618"/>
<polygon fill="midnightblue" stroke="midnightblue" points="987.381,-12.4912 977.012,-14.664 986.473,-19.4321 987.381,-12.4912"/>
</g>
<!-- Node12 -->
<g id="node12" class="node"><title>Node12</title>
<polygon fill="white" stroke="#bfbfbf" points="1696.5,-0.5 1696.5,-19.5 1767.5,-19.5 1767.5,-0.5 1696.5,-0.5"/>
<text text-anchor="middle" x="1732" y="-7.5" font-family="Helvetica,sans-Serif" font-size="10.00">stm32f4xx.h</text>
</g>
<!-- Node11&#45;&gt;Node12 -->
<g id="edge11" class="edge"><title>Node11&#45;&gt;Node12</title>
<path fill="none" stroke="midnightblue" d="M1413.69,-57.2056C1487.09,-46.5514 1617.47,-27.6251 1686.38,-17.6215"/>
<polygon fill="midnightblue" stroke="midnightblue" points="1687.1,-21.0541 1696.5,-16.1538 1686.1,-14.1268 1687.1,-21.0541"/>
</g>
<!-- Node13 -->
<g id="node13" class="node"><title>Node13</title>
<polygon fill="white" stroke="#bfbfbf" points="1315.5,-0.5 1315.5,-19.5 1404.5,-19.5 1404.5,-0.5 1315.5,-0.5"/>
<text text-anchor="middle" x="1360" y="-7.5" font-family="Helvetica,sans-Serif" font-size="10.00">stm32f4xx_rcc.h</text>
</g>
<!-- Node11&#45;&gt;Node13 -->
<g id="edge12" class="edge"><title>Node11&#45;&gt;Node13</title>
<path fill="none" stroke="midnightblue" d="M1360,-56.083C1360,-49.0059 1360,-38.8611 1360,-29.9865"/>
<polygon fill="midnightblue" stroke="midnightblue" points="1363.5,-29.751 1360,-19.7511 1356.5,-29.7511 1363.5,-29.751"/>
</g>
<!-- Node14&#45;&gt;Node10 -->
<g id="edge15" class="edge"><title>Node14&#45;&gt;Node10</title>
<path fill="none" stroke="midnightblue" d="M1748.26,-112.987C1745.47,-112.637 1742.7,-112.306 1740,-112 1543.71,-89.8002 1490.44,-116.01 1297,-76 1269.89,-70.392 1264.89,-62.5989 1238,-56 1149.51,-34.2846 1043.09,-20.9027 987.344,-14.8406"/>
<polygon fill="midnightblue" stroke="midnightblue" points="987.531,-11.3408 977.216,-13.7595 986.788,-18.3013 987.531,-11.3408"/>
</g>
<!-- Node14&#45;&gt;Node12 -->
<g id="edge16" class="edge"><title>Node14&#45;&gt;Node12</title>
<path fill="none" stroke="midnightblue" d="M1855.7,-117.898C1915.25,-113.204 2005.75,-101.916 2027,-76 2032.64,-69.1258 2032.79,-62.7427 2027,-56 2010.99,-37.3595 1856.67,-21.6315 1777.85,-14.7378"/>
<polygon fill="midnightblue" stroke="midnightblue" points="1777.97,-11.2355 1767.71,-13.8633 1777.37,-18.2097 1777.97,-11.2355"/>
</g>
<!-- Node15 -->
<g id="node15" class="node"><title>Node15</title>
<g id="a_node15"><a xlink:href="a00035.html" target="_top" xlink:title="Provides generic methods for GPIO module initialization and manipulation. ">
<polygon fill="white" stroke="black" points="1916,-56.5 1916,-75.5 2018,-75.5 2018,-56.5 1916,-56.5"/>
<text text-anchor="middle" x="1967" y="-63.5" font-family="Helvetica,sans-Serif" font-size="10.00">md_stm32f4_gpio.h</text>
</a>
</g>
</g>
<!-- Node14&#45;&gt;Node15 -->
<g id="edge17" class="edge"><title>Node14&#45;&gt;Node15</title>
<path fill="none" stroke="midnightblue" d="M1828.14,-112.444C1856.02,-103.32 1900.35,-88.8133 1931.4,-78.6509"/>
<polygon fill="midnightblue" stroke="midnightblue" points="1932.56,-81.9533 1940.98,-75.5164 1930.38,-75.3005 1932.56,-81.9533"/>
</g>
<!-- Node15&#45;&gt;Node12 -->
<g id="edge18" class="edge"><title>Node15&#45;&gt;Node12</title>
<path fill="none" stroke="midnightblue" d="M1929.76,-56.4435C1888.46,-46.9525 1821.81,-31.6372 1777.46,-21.446"/>
<polygon fill="midnightblue" stroke="midnightblue" points="1778.05,-17.9914 1767.52,-19.1629 1776.49,-24.8136 1778.05,-17.9914"/>
</g>
<!-- Node16&#45;&gt;Node12 -->
<g id="edge20" class="edge"><title>Node16&#45;&gt;Node12</title>
<path fill="none" stroke="midnightblue" d="M1556.12,-56.4435C1592.12,-47.1419 1649.77,-32.246 1689.19,-22.062"/>
<polygon fill="midnightblue" stroke="midnightblue" points="1690.23,-25.4068 1699.04,-19.5164 1688.48,-18.6294 1690.23,-25.4068"/>
</g>
<!-- Node16&#45;&gt;Node13 -->
<g id="edge21" class="edge"><title>Node16&#45;&gt;Node13</title>
<path fill="none" stroke="midnightblue" d="M1497.17,-56.4435C1469.75,-47.3591 1426.22,-32.9388 1395.57,-22.7831"/>
<polygon fill="midnightblue" stroke="midnightblue" points="1396.3,-19.3389 1385.71,-19.5164 1394.1,-25.9837 1396.3,-19.3389"/>
</g>
<!-- Node17&#45;&gt;Node10 -->
<g id="edge32" class="edge"><title>Node17&#45;&gt;Node10</title>
<path fill="none" stroke="midnightblue" d="M1627.25,-117.628C1548.42,-111.988 1393.7,-98.9382 1264,-76 1227.49,-69.5423 1219.22,-63.9485 1183,-56 1114.25,-40.9132 1033.53,-26.0041 987.115,-17.6999"/>
<polygon fill="midnightblue" stroke="midnightblue" points="987.651,-14.2404 977.192,-15.9319 986.423,-21.1319 987.651,-14.2404"/>
</g>
<!-- Node17&#45;&gt;Node12 -->
<g id="edge23" class="edge"><title>Node17&#45;&gt;Node12</title>
<path fill="none" stroke="midnightblue" d="M1728.74,-112.49C1782.04,-102.868 1860.22,-87.1009 1869,-76 1896.73,-40.9372 1827.4,-23.791 1777.57,-16.2197"/>
<polygon fill="midnightblue" stroke="midnightblue" points="1777.98,-12.743 1767.58,-14.7884 1776.99,-19.6722 1777.98,-12.743"/>
</g>
<!-- Node17&#45;&gt;Node13 -->
<g id="edge24" class="edge"><title>Node17&#45;&gt;Node13</title>
<path fill="none" stroke="midnightblue" d="M1627.22,-115.749C1582.04,-109.908 1515.38,-98.2075 1461,-76 1429.86,-63.2844 1397.87,-40.7882 1378.46,-25.8842"/>
<polygon fill="midnightblue" stroke="midnightblue" points="1380.5,-23.0415 1370.47,-19.633 1376.19,-28.5534 1380.5,-23.0415"/>
</g>
<!-- Node17&#45;&gt;Node15 -->
<g id="edge25" class="edge"><title>Node17&#45;&gt;Node15</title>
<path fill="none" stroke="midnightblue" d="M1724.63,-112.444C1775.3,-102.944 1857.07,-87.611 1911.43,-77.4198"/>
<polygon fill="midnightblue" stroke="midnightblue" points="1912.4,-80.7994 1921.58,-75.5164 1911.11,-73.9193 1912.4,-80.7994"/>
</g>
<!-- Node18 -->
<g id="node18" class="node"><title>Node18</title>
<polygon fill="white" stroke="#bfbfbf" points="1889.5,-0.5 1889.5,-19.5 1978.5,-19.5 1978.5,-0.5 1889.5,-0.5"/>
<text text-anchor="middle" x="1934" y="-7.5" font-family="Helvetica,sans-Serif" font-size="10.00">stm32f4xx_tim.h</text>
</g>
<!-- Node17&#45;&gt;Node18 -->
<g id="edge26" class="edge"><title>Node17&#45;&gt;Node18</title>
<path fill="none" stroke="midnightblue" d="M1730.57,-113.31C1733.76,-112.86 1736.92,-112.42 1740,-112 1803.69,-103.308 1984.47,-124.197 2027,-76 2047.17,-53.1463 2008.98,-34.1737 1975.62,-22.7391"/>
<polygon fill="midnightblue" stroke="midnightblue" points="1976.53,-19.3554 1965.94,-19.5768 1974.35,-26.0093 1976.53,-19.3554"/>
</g>
<!-- Node19 -->
<g id="node19" class="node"><title>Node19</title>
<g id="a_node19"><a xlink:href="a00063_source.html" target="_top" xlink:title="tm_stm32f4_timer_properties.h">
<polygon fill="white" stroke="black" points="1708,-56.5 1708,-75.5 1860,-75.5 1860,-56.5 1708,-56.5"/>
<text text-anchor="middle" x="1784" y="-63.5" font-family="Helvetica,sans-Serif" font-size="10.00">tm_stm32f4_timer_properties.h</text>
</a>
</g>
</g>
<!-- Node17&#45;&gt;Node19 -->
<g id="edge27" class="edge"><title>Node17&#45;&gt;Node19</title>
<path fill="none" stroke="midnightblue" d="M1695.87,-112.324C1712.71,-103.664 1738.81,-90.2424 1758.24,-80.249"/>
<polygon fill="midnightblue" stroke="midnightblue" points="1759.88,-83.3405 1767.17,-75.6545 1756.68,-77.1155 1759.88,-83.3405"/>
</g>
<!-- Node19&#45;&gt;Node10 -->
<g id="edge31" class="edge"><title>Node19&#45;&gt;Node10</title>
<path fill="none" stroke="midnightblue" d="M1707.69,-60.0647C1534.41,-48.8587 1116.33,-21.8212 987.466,-13.4876"/>
<polygon fill="midnightblue" stroke="midnightblue" points="987.501,-9.98264 977.296,-12.8299 987.049,-16.968 987.501,-9.98264"/>
</g>
<!-- Node19&#45;&gt;Node12 -->
<g id="edge28" class="edge"><title>Node19&#45;&gt;Node12</title>
<path fill="none" stroke="midnightblue" d="M1775.41,-56.083C1767.84,-48.2195 1756.62,-36.5688 1747.49,-27.0813"/>
<polygon fill="midnightblue" stroke="midnightblue" points="1749.88,-24.5266 1740.43,-19.7511 1744.84,-29.3821 1749.88,-24.5266"/>
</g>
<!-- Node19&#45;&gt;Node13 -->
<g id="edge29" class="edge"><title>Node19&#45;&gt;Node13</title>
<path fill="none" stroke="midnightblue" d="M1716.82,-56.4435C1633.24,-45.799 1492.13,-27.8283 1414.78,-17.9768"/>
<polygon fill="midnightblue" stroke="midnightblue" points="1415.12,-14.4919 1404.76,-16.7003 1414.24,-21.4358 1415.12,-14.4919"/>
</g>
<!-- Node19&#45;&gt;Node18 -->
<g id="edge30" class="edge"><title>Node19&#45;&gt;Node18</title>
<path fill="none" stroke="midnightblue" d="M1807.77,-56.4435C1832.89,-47.3986 1872.71,-33.064 1900.9,-22.9158"/>
<polygon fill="midnightblue" stroke="midnightblue" points="1902.12,-26.1968 1910.34,-19.5164 1899.75,-19.6106 1902.12,-26.1968"/>
</g>
<!-- Node20&#45;&gt;Node9 -->
<g id="edge39" class="edge"><title>Node20&#45;&gt;Node9</title>
<path fill="none" stroke="midnightblue" d="M1085.2,-112.444C1049.62,-103.162 992.686,-88.3093 953.653,-78.127"/>
<polygon fill="midnightblue" stroke="midnightblue" points="954.206,-74.6541 943.646,-75.5164 952.439,-81.4274 954.206,-74.6541"/>
</g>
<!-- Node20&#45;&gt;Node10 -->
<g id="edge40" class="edge"><title>Node20&#45;&gt;Node10</title>
<path fill="none" stroke="midnightblue" d="M1106,-112.332C1088.29,-99.6263 1054.02,-75.3537 1024,-56 1007.15,-45.1323 987.72,-33.501 972.862,-24.7865"/>
<polygon fill="midnightblue" stroke="midnightblue" points="974.232,-21.5338 963.831,-19.5183 970.705,-27.5803 974.232,-21.5338"/>
</g>
<!-- Node20&#45;&gt;Node12 -->
<g id="edge35" class="edge"><title>Node20&#45;&gt;Node12</title>
<path fill="none" stroke="midnightblue" d="M1170.21,-113.622C1174.87,-113.042 1179.52,-112.491 1184,-112 1376.4,-90.917 1433.12,-133.287 1618,-76 1653.8,-64.9074 1690.66,-41.2316 1712.44,-25.7242"/>
<polygon fill="midnightblue" stroke="midnightblue" points="1714.78,-28.3527 1720.8,-19.6387 1710.66,-22.6926 1714.78,-28.3527"/>
</g>
<!-- Node20&#45;&gt;Node13 -->
<g id="edge36" class="edge"><title>Node20&#45;&gt;Node13</title>
<path fill="none" stroke="midnightblue" d="M1136.99,-112.368C1179.4,-93.0908 1282,-46.4536 1331.86,-23.7894"/>
<polygon fill="midnightblue" stroke="midnightblue" points="1333.44,-26.9158 1341.1,-19.5914 1330.55,-20.5432 1333.44,-26.9158"/>
</g>
<!-- Node20&#45;&gt;Node15 -->
<g id="edge37" class="edge"><title>Node20&#45;&gt;Node15</title>
<path fill="none" stroke="midnightblue" d="M1170.39,-118.434C1292.76,-112.315 1606.89,-95.8835 1869,-76 1880.91,-75.0963 1893.63,-74.0149 1905.82,-72.9202"/>
<polygon fill="midnightblue" stroke="midnightblue" points="1906.27,-76.394 1915.91,-72.0012 1905.63,-69.4229 1906.27,-76.394"/>
</g>
<!-- Node21 -->
<g id="node21" class="node"><title>Node21</title>
<polygon fill="white" stroke="#bfbfbf" points="733,-0.5 733,-19.5 779,-19.5 779,-0.5 733,-0.5"/>
<text text-anchor="middle" x="756" y="-7.5" font-family="Helvetica,sans-Serif" font-size="10.00">misc.h</text>
</g>
<!-- Node20&#45;&gt;Node21 -->
<g id="edge34" class="edge"><title>Node20&#45;&gt;Node21</title>
<path fill="none" stroke="midnightblue" d="M1098.91,-112.454C1068.36,-99.0287 1006.41,-72.7993 952,-56 895.654,-38.6042 828.338,-24.574 789.056,-17.041"/>
<polygon fill="midnightblue" stroke="midnightblue" points="789.701,-13.6011 779.225,-15.1794 788.399,-20.4789 789.701,-13.6011"/>
</g>
<!-- Node22 -->
<g id="node22" class="node"><title>Node22</title>
<polygon fill="white" stroke="#bfbfbf" points="1076,-56.5 1076,-75.5 1174,-75.5 1174,-56.5 1076,-56.5"/>
<text text-anchor="middle" x="1125" y="-63.5" font-family="Helvetica,sans-Serif" font-size="10.00">stm32f4xx_usart.h</text>
</g>
<!-- Node20&#45;&gt;Node22 -->
<g id="edge38" class="edge"><title>Node20&#45;&gt;Node22</title>
<path fill="none" stroke="midnightblue" d="M1119.16,-112.083C1120.08,-104.927 1121.42,-94.6353 1122.58,-85.6911"/>
<polygon fill="midnightblue" stroke="midnightblue" points="1126.05,-86.1181 1123.87,-75.7511 1119.11,-85.2181 1126.05,-86.1181"/>
</g>
<!-- Node24&#45;&gt;Node5 -->
<g id="edge44" class="edge"><title>Node24&#45;&gt;Node5</title>
<path fill="none" stroke="midnightblue" d="M576.402,-224.698C505.054,-205.635 331.2,-154.262 203,-76 179.545,-61.6811 155.443,-41.1521 139.91,-27.0156"/>
<polygon fill="midnightblue" stroke="midnightblue" points="141.937,-24.1231 132.221,-19.8997 137.183,-29.2607 141.937,-24.1231"/>
</g>
<!-- Node24&#45;&gt;Node10 -->
<g id="edge67" class="edge"><title>Node24&#45;&gt;Node10</title>
<path fill="none" stroke="midnightblue" d="M616.783,-224.308C642.485,-196.093 728.029,-106.001 816,-56 845.972,-38.9643 883.422,-27.017 910.938,-19.7354"/>
<polygon fill="midnightblue" stroke="midnightblue" points="912.14,-23.0407 920.961,-17.1723 910.406,-16.259 912.14,-23.0407"/>
</g>
<!-- Node24&#45;&gt;Node25 -->
<g id="edge45" class="edge"><title>Node24&#45;&gt;Node25</title>
<path fill="none" stroke="midnightblue" d="M607.04,-224.368C607.567,-206.537 616.121,-165.295 623.836,-141.272"/>
<polygon fill="midnightblue" stroke="midnightblue" points="627.226,-142.186 627.29,-131.591 620.633,-139.834 627.226,-142.186"/>
</g>
<!-- Node24&#45;&gt;Node27 -->
<g id="edge76" class="edge"><title>Node24&#45;&gt;Node27</title>
<path fill="none" stroke="midnightblue" d="M596.042,-224.45C564.375,-203.74 480.212,-149.81 406,-112 380.829,-99.1756 351.161,-86.6908 329.794,-78.138"/>
<polygon fill="midnightblue" stroke="midnightblue" points="330.904,-74.813 320.317,-74.3846 328.326,-81.3211 330.904,-74.813"/>
</g>
<!-- Node24&#45;&gt;Node30 -->
<g id="edge77" class="edge"><title>Node24&#45;&gt;Node30</title>
<path fill="none" stroke="midnightblue" d="M588.212,-224.369C566.788,-215.428 532.457,-200.975 503,-188 415.747,-149.568 313.3,-102.124 265.348,-79.7809"/>
<polygon fill="midnightblue" stroke="midnightblue" points="266.779,-76.5861 256.237,-75.5315 263.82,-82.9301 266.779,-76.5861"/>
</g>
<!-- Node24&#45;&gt;Node32 -->
<g id="edge68" class="edge"><title>Node24&#45;&gt;Node32</title>
<path fill="none" stroke="midnightblue" d="M636.254,-224.444C665.441,-215.28 711.921,-200.688 744.309,-190.519"/>
<polygon fill="midnightblue" stroke="midnightblue" points="745.381,-193.851 753.874,-187.516 743.284,-187.173 745.381,-193.851"/>
</g>
<!-- Node24&#45;&gt;Node33 -->
<g id="edge72" class="edge"><title>Node24&#45;&gt;Node33</title>
<path fill="none" stroke="midnightblue" d="M641.669,-228.017C705.62,-218.261 847.35,-196.642 919.288,-185.668"/>
<polygon fill="midnightblue" stroke="midnightblue" points="920.02,-189.097 929.377,-184.129 918.964,-182.177 920.02,-189.097"/>
</g>
<!-- Node25&#45;&gt;Node4 -->
<g id="edge49" class="edge"><title>Node25&#45;&gt;Node4</title>
<path fill="none" stroke="midnightblue" d="M643.844,-131.568C671.442,-157.676 742.171,-236.592 769.949,-271.763"/>
<polygon fill="midnightblue" stroke="midnightblue" points="767.451,-274.258 776.306,-280.075 773.011,-270.005 767.451,-274.258"/>
</g>
<!-- Node25&#45;&gt;Node10 -->
<g id="edge46" class="edge"><title>Node25&#45;&gt;Node10</title>
<path fill="none" stroke="midnightblue" d="M642.013,-112.284C657.193,-98.1289 689.408,-70.2918 722,-56 784.639,-28.5329 864.353,-17.6969 910.731,-13.5193"/>
<polygon fill="midnightblue" stroke="midnightblue" points="911.268,-16.9866 920.939,-12.6596 910.68,-10.0113 911.268,-16.9866"/>
</g>
<!-- Node25&#45;&gt;Node12 -->
<g id="edge60" class="edge"><title>Node25&#45;&gt;Node12</title>
<path fill="none" stroke="midnightblue" d="M676.288,-119.549C856.647,-113.426 1541.06,-89.4032 1585,-76 1601.4,-70.9966 1602.64,-63.6201 1618,-56 1643.74,-43.2351 1674.04,-31.4174 1696.93,-23.0986"/>
<polygon fill="midnightblue" stroke="midnightblue" points="1698.33,-26.3133 1706.56,-19.6436 1695.97,-19.724 1698.33,-26.3133"/>
</g>
<!-- Node25&#45;&gt;Node13 -->
<g id="edge59" class="edge"><title>Node25&#45;&gt;Node13</title>
<path fill="none" stroke="midnightblue" d="M658.152,-112.481C700.927,-98.3559 790.814,-70.2337 869,-56 1025.71,-27.4714 1214.02,-16.6407 1305.19,-12.8525"/>
<polygon fill="midnightblue" stroke="midnightblue" points="1305.44,-16.3453 1315.3,-12.4453 1305.16,-9.35102 1305.44,-16.3453"/>
</g>
<!-- Node25&#45;&gt;Node24 -->
<g id="edge66" class="edge"><title>Node25&#45;&gt;Node24</title>
<path fill="none" stroke="midnightblue" d="M634.961,-131.591C634.446,-149.388 625.898,-190.625 618.181,-214.674"/>
<polygon fill="midnightblue" stroke="midnightblue" points="614.787,-213.774 614.726,-224.368 621.38,-216.124 614.787,-213.774"/>
</g>
<!-- Node26 -->
<g id="node26" class="node"><title>Node26</title>
<g id="a_node26"><a xlink:href="a00044.html" target="_top" xlink:title="Provides nested vector interrupt controller configuration methods. ">
<polygon fill="white" stroke="black" points="596,-56.5 596,-75.5 670,-75.5 670,-56.5 596,-56.5"/>
<text text-anchor="middle" x="633" y="-63.5" font-family="Helvetica,sans-Serif" font-size="10.00">nvic_config.h</text>
</a>
</g>
</g>
<!-- Node25&#45;&gt;Node26 -->
<g id="edge47" class="edge"><title>Node25&#45;&gt;Node26</title>
<path fill="none" stroke="midnightblue" d="M633,-112.083C633,-105.006 633,-94.8611 633,-85.9865"/>
<polygon fill="midnightblue" stroke="midnightblue" points="636.5,-85.751 633,-75.7511 629.5,-85.7511 636.5,-85.751"/>
</g>
<!-- Node25&#45;&gt;Node27 -->
<g id="edge50" class="edge"><title>Node25&#45;&gt;Node27</title>
<path fill="none" stroke="midnightblue" d="M589.937,-113.996C521.391,-102.847 389.22,-81.349 330.433,-71.7873"/>
<polygon fill="midnightblue" stroke="midnightblue" points="330.774,-68.2969 320.342,-70.146 329.651,-75.2061 330.774,-68.2969"/>
</g>
<!-- Node28 -->
<g id="node28" class="node"><title>Node28</title>
<polygon fill="white" stroke="#bfbfbf" points="376,-56.5 376,-75.5 468,-75.5 468,-56.5 376,-56.5"/>
<text text-anchor="middle" x="422" y="-63.5" font-family="Helvetica,sans-Serif" font-size="10.00">stm32f4xx_adc.h</text>
</g>
<!-- Node25&#45;&gt;Node28 -->
<g id="edge57" class="edge"><title>Node25&#45;&gt;Node28</title>
<path fill="none" stroke="midnightblue" d="M599.566,-112.444C563.144,-103.122 504.77,-88.1828 464.971,-77.9972"/>
<polygon fill="midnightblue" stroke="midnightblue" points="465.833,-74.6051 455.277,-75.5164 464.097,-81.3866 465.833,-74.6051"/>
</g>
<!-- Node29 -->
<g id="node29" class="node"><title>Node29</title>
<polygon fill="white" stroke="#bfbfbf" points="486,-56.5 486,-75.5 578,-75.5 578,-56.5 486,-56.5"/>
<text text-anchor="middle" x="532" y="-63.5" font-family="Helvetica,sans-Serif" font-size="10.00">stm32f4xx_dac.h</text>
</g>
<!-- Node25&#45;&gt;Node29 -->
<g id="edge58" class="edge"><title>Node25&#45;&gt;Node29</title>
<path fill="none" stroke="midnightblue" d="M616.773,-112.324C600.649,-103.703 575.7,-90.3643 557.036,-80.3855"/>
<polygon fill="midnightblue" stroke="midnightblue" points="558.656,-77.283 548.187,-75.6545 555.356,-83.456 558.656,-77.283"/>
</g>
<!-- Node25&#45;&gt;Node30 -->
<g id="edge61" class="edge"><title>Node25&#45;&gt;Node30</title>
<path fill="none" stroke="midnightblue" d="M589.776,-117.39C523.765,-111.486 393.749,-98.3204 273.635,-75.8797"/>
<polygon fill="midnightblue" stroke="midnightblue" points="274.006,-72.388 263.53,-73.9651 272.703,-79.2656 274.006,-72.388"/>
</g>
<!-- Node26&#45;&gt;Node21 -->
<g id="edge48" class="edge"><title>Node26&#45;&gt;Node21</title>
<path fill="none" stroke="midnightblue" d="M652.49,-56.4435C672.642,-47.5961 704.323,-33.6875 727.331,-23.5865"/>
<polygon fill="midnightblue" stroke="midnightblue" points="728.852,-26.7411 736.601,-19.5164 726.038,-20.3316 728.852,-26.7411"/>
</g>
<!-- Node27&#45;&gt;Node2 -->
<g id="edge54" class="edge"><title>Node27&#45;&gt;Node2</title>
<path fill="none" stroke="midnightblue" d="M281.74,-58.7006C278.505,-57.7355 275.17,-56.7967 272,-56 235.086,-46.7214 129.812,-27.2542 74.6594,-17.2413"/>
<polygon fill="midnightblue" stroke="midnightblue" points="75.116,-13.7671 64.6522,-15.4284 73.8681,-20.655 75.116,-13.7671"/>
</g>
<!-- Node27&#45;&gt;Node5 -->
<g id="edge52" class="edge"><title>Node27&#45;&gt;Node5</title>
<path fill="none" stroke="midnightblue" d="M281.975,-59.073C278.652,-58.0441 275.226,-56.9877 272,-56 232.072,-43.7751 186.056,-29.912 155.85,-20.8429"/>
<polygon fill="midnightblue" stroke="midnightblue" points="156.829,-17.4823 146.244,-17.9604 154.817,-24.187 156.829,-17.4823"/>
</g>
<!-- Node27&#45;&gt;Node6 -->
<g id="edge51" class="edge"><title>Node27&#45;&gt;Node6</title>
<path fill="none" stroke="midnightblue" d="M306.284,-56.083C310.711,-48.6127 317.163,-37.7244 322.618,-28.5199"/>
<polygon fill="midnightblue" stroke="midnightblue" points="325.727,-30.1383 327.814,-19.7511 319.705,-26.5697 325.727,-30.1383"/>
</g>
<!-- Node27&#45;&gt;Node7 -->
<g id="edge53" class="edge"><title>Node27&#45;&gt;Node7</title>
<path fill="none" stroke="midnightblue" d="M295.22,-56.083C290.328,-48.5341 283.173,-37.4948 277.167,-28.2298"/>
<polygon fill="midnightblue" stroke="midnightblue" points="280.048,-26.239 271.672,-19.7511 274.174,-30.0463 280.048,-26.239"/>
</g>
<!-- Node27&#45;&gt;Node10 -->
<g id="edge56" class="edge"><title>Node27&#45;&gt;Node10</title>
<path fill="none" stroke="midnightblue" d="M320.026,-62.106C333.192,-60.1769 351.131,-57.694 367,-56 571.493,-34.1704 817.492,-18.6729 910.699,-13.1855"/>
<polygon fill="midnightblue" stroke="midnightblue" points="911.005,-16.6737 920.783,-12.5959 910.596,-9.68564 911.005,-16.6737"/>
</g>
<!-- Node27&#45;&gt;Node12 -->
<g id="edge55" class="edge"><title>Node27&#45;&gt;Node12</title>
<path fill="none" stroke="midnightblue" d="M320.005,-61.8822C333.161,-59.8532 351.098,-57.3428 367,-56 434.08,-50.3356 1456.65,-19.2986 1686.41,-12.3713"/>
<polygon fill="midnightblue" stroke="midnightblue" points="1686.54,-15.869 1696.43,-12.0692 1686.33,-8.87213 1686.54,-15.869"/>
</g>
<!-- Node30&#45;&gt;Node5 -->
<g id="edge62" class="edge"><title>Node30&#45;&gt;Node5</title>
<path fill="none" stroke="midnightblue" d="M219.778,-56.4435C201.104,-47.6751 171.844,-33.9355 150.383,-23.8579"/>
<polygon fill="midnightblue" stroke="midnightblue" points="151.676,-20.5988 141.137,-19.5164 148.701,-26.935 151.676,-20.5988"/>
</g>
<!-- Node30&#45;&gt;Node6 -->
<g id="edge64" class="edge"><title>Node30&#45;&gt;Node6</title>
<path fill="none" stroke="midnightblue" d="M253.263,-56.324C268.221,-47.8215 291.255,-34.7288 308.727,-24.7975"/>
<polygon fill="midnightblue" stroke="midnightblue" points="310.81,-27.639 317.774,-19.6545 307.351,-21.5534 310.81,-27.639"/>
</g>
<!-- Node30&#45;&gt;Node7 -->
<g id="edge63" class="edge"><title>Node30&#45;&gt;Node7</title>
<path fill="none" stroke="midnightblue" d="M242.624,-56.083C246.456,-48.6913 252.024,-37.9533 256.765,-28.8111"/>
<polygon fill="midnightblue" stroke="midnightblue" points="259.966,-30.2398 261.462,-19.7511 253.752,-27.0175 259.966,-30.2398"/>
</g>
<!-- Node31 -->
<g id="node31" class="node"><title>Node31</title>
<polygon fill="white" stroke="#bfbfbf" points="164.5,-0.5 164.5,-19.5 223.5,-19.5 223.5,-0.5 164.5,-0.5"/>
<text text-anchor="middle" x="194" y="-7.5" font-family="Helvetica,sans-Serif" font-size="10.00">inttypes.h</text>
</g>
<!-- Node30&#45;&gt;Node31 -->
<g id="edge65" class="edge"><title>Node30&#45;&gt;Node31</title>
<path fill="none" stroke="midnightblue" d="M230.734,-56.083C224.455,-48.3768 215.212,-37.0333 207.569,-27.6531"/>
<polygon fill="midnightblue" stroke="midnightblue" points="210.161,-25.2926 201.131,-19.7511 204.734,-29.7143 210.161,-25.2926"/>
</g>
<!-- Node32&#45;&gt;Node4 -->
<g id="edge69" class="edge"><title>Node32&#45;&gt;Node4</title>
<path fill="none" stroke="midnightblue" d="M784.835,-187.591C788.188,-205.308 788.648,-246.254 786.216,-270.348"/>
<polygon fill="midnightblue" stroke="midnightblue" points="782.733,-269.986 784.843,-280.368 789.668,-270.936 782.733,-269.986"/>
</g>
<!-- Node32&#45;&gt;Node10 -->
<g id="edge70" class="edge"><title>Node32&#45;&gt;Node10</title>
<path fill="none" stroke="midnightblue" d="M782.602,-168.393C787.09,-146.597 801.763,-88.6429 836,-56 856.594,-36.3647 886.816,-24.9324 910.824,-18.5076"/>
<polygon fill="midnightblue" stroke="midnightblue" points="911.829,-21.8643 920.687,-16.0515 910.138,-15.0718 911.829,-21.8643"/>
</g>
<!-- Node32&#45;&gt;Node25 -->
<g id="edge71" class="edge"><title>Node32&#45;&gt;Node25</title>
<path fill="none" stroke="midnightblue" d="M757.549,-168.444C732.867,-159.438 693.815,-145.189 666.023,-135.049"/>
<polygon fill="midnightblue" stroke="midnightblue" points="666.935,-131.656 656.341,-131.516 664.536,-138.232 666.935,-131.656"/>
</g>
<!-- Node33&#45;&gt;Node12 -->
<g id="edge73" class="edge"><title>Node33&#45;&gt;Node12</title>
<path fill="none" stroke="midnightblue" d="M996.657,-174.544C1118.32,-165.289 1534.46,-130.264 1655,-76 1680.04,-64.7295 1703.31,-42.8495 1717.58,-27.6037"/>
<polygon fill="midnightblue" stroke="midnightblue" points="1720.41,-29.6876 1724.53,-19.9258 1715.23,-24.9889 1720.41,-29.6876"/>
</g>
<!-- Node33&#45;&gt;Node13 -->
<g id="edge75" class="edge"><title>Node33&#45;&gt;Node13</title>
<path fill="none" stroke="midnightblue" d="M976.029,-168.41C988.084,-160.051 1006.05,-146.517 1019,-132 1045.6,-102.193 1033.58,-77.8918 1067,-56 1105.24,-30.9512 1231.5,-18.9975 1305.2,-14.0266"/>
<polygon fill="midnightblue" stroke="midnightblue" points="1305.49,-17.5154 1315.24,-13.3709 1305.03,-10.5303 1305.49,-17.5154"/>
</g>
<!-- Node34 -->
<g id="node34" class="node"><title>Node34</title>
<polygon fill="white" stroke="#bfbfbf" points="916,-112.5 916,-131.5 1010,-131.5 1010,-112.5 916,-112.5"/>
<text text-anchor="middle" x="963" y="-119.5" font-family="Helvetica,sans-Serif" font-size="10.00">stm32f4xx_gpio.h</text>
</g>
<!-- Node33&#45;&gt;Node34 -->
<g id="edge74" class="edge"><title>Node33&#45;&gt;Node34</title>
<path fill="none" stroke="midnightblue" d="M963,-168.083C963,-161.006 963,-150.861 963,-141.986"/>
<polygon fill="midnightblue" stroke="midnightblue" points="966.5,-141.751 963,-131.751 959.5,-141.751 966.5,-141.751"/>
</g>
<!-- Node35&#45;&gt;Node12 -->
<g id="edge80" class="edge"><title>Node35&#45;&gt;Node12</title>
<path fill="none" stroke="midnightblue" d="M2042.98,-168.398C2056.89,-160.954 2074.71,-148.741 2083,-132 2095.73,-106.271 2062.29,-58.5095 2059,-56 2037.02,-39.2414 1862.41,-22.1812 1777.73,-14.7945"/>
<polygon fill="midnightblue" stroke="midnightblue" points="1777.89,-11.295 1767.62,-13.9214 1777.29,-18.269 1777.89,-11.295"/>
</g>
<!-- Node36 -->
<g id="node36" class="node"><title>Node36</title>
<g id="a_node36"><a xlink:href="a00027.html" target="_top" xlink:title="Project XA&#45;Galvo scanner specific digital to analog converter methods. ">
<polygon fill="white" stroke="black" points="1974,-112.5 1974,-131.5 2074,-131.5 2074,-112.5 1974,-112.5"/>
<text text-anchor="middle" x="2024" y="-119.5" font-family="Helvetica,sans-Serif" font-size="10.00">md_stm32f4_dac.h</text>
</a>
</g>
</g>
<!-- Node35&#45;&gt;Node36 -->
<g id="edge81" class="edge"><title>Node35&#45;&gt;Node36</title>
<path fill="none" stroke="midnightblue" d="M2024,-168.083C2024,-161.006 2024,-150.861 2024,-141.986"/>
<polygon fill="midnightblue" stroke="midnightblue" points="2027.5,-141.751 2024,-131.751 2020.5,-141.751 2027.5,-141.751"/>
</g>
<!-- Node36&#45;&gt;Node12 -->
<g id="edge82" class="edge"><title>Node36&#45;&gt;Node12</title>
<path fill="none" stroke="midnightblue" d="M2031.02,-112.349C2041.15,-98.779 2057.16,-72.3553 2043,-56 2025.88,-36.2228 1859.84,-20.821 1777.64,-14.3397"/>
<polygon fill="midnightblue" stroke="midnightblue" points="1777.81,-10.8425 1767.57,-13.5573 1777.27,-17.8215 1777.81,-10.8425"/>
</g>
<!-- Node36&#45;&gt;Node15 -->
<g id="edge83" class="edge"><title>Node36&#45;&gt;Node15</title>
<path fill="none" stroke="midnightblue" d="M2014.84,-112.324C2006.5,-104.42 1993.97,-92.5482 1983.82,-82.9377"/>
<polygon fill="midnightblue" stroke="midnightblue" points="1985.99,-80.1705 1976.32,-75.8339 1981.18,-85.2522 1985.99,-80.1705"/>
</g>
<!-- Node37&#45;&gt;Node5 -->
<g id="edge88" class="edge"><title>Node37&#45;&gt;Node5</title>
<path fill="none" stroke="midnightblue" d="M62.3778,-224.197C63.7626,-197.792 69.826,-117.295 94,-56 97.9145,-46.0745 104.15,-36.0018 109.837,-27.9099"/>
<polygon fill="midnightblue" stroke="midnightblue" points="112.753,-29.8538 115.873,-19.7288 107.12,-25.698 112.753,-29.8538"/>
</g>
</g>
</svg>
