<?xml version="1.0" encoding="UTF-8" standalone="no"?>
<!DOCTYPE svg PUBLIC "-//W3C//DTD SVG 1.1//EN"
 "http://www.w3.org/Graphics/SVG/1.1/DTD/svg11.dtd">
<!-- Generated by graphviz version 2.38.0 (20140413.2041)
 -->
<!-- Title: TM_USART_Gets Pages: 1 -->
<svg width="278pt" height="104pt"
 viewBox="0.00 0.00 278.00 104.00" xmlns="http://www.w3.org/2000/svg" xmlns:xlink="http://www.w3.org/1999/xlink">
<g id="graph0" class="graph" transform="scale(1 1) rotate(0) translate(4 100)">
<title>TM_USART_Gets</title>
<polygon fill="white" stroke="none" points="-4,4 -4,-100 274,-100 274,4 -4,4"/>
<!-- Node1 -->
<g id="node1" class="node"><title>Node1</title>
<polygon fill="#bfbfbf" stroke="black" points="0,-38.5 0,-57.5 97,-57.5 97,-38.5 0,-38.5"/>
<text text-anchor="middle" x="48.5" y="-45.5" font-family="Helvetica,sans-Serif" font-size="10.00">TM_USART_Gets</text>
</g>
<!-- Node2 -->
<g id="node2" class="node"><title>Node2</title>
<g id="a_node2"><a xlink:href="a00168.html#gabcee39f90c8c33ff3b1fb07e6496eef6" target="_top" xlink:title="Checks if internal USARTx buffer is empty. ">
<polygon fill="white" stroke="black" points="136,-76.5 136,-95.5 267,-95.5 267,-76.5 136,-76.5"/>
<text text-anchor="middle" x="201.5" y="-83.5" font-family="Helvetica,sans-Serif" font-size="10.00">TM_USART_BufferEmpty</text>
</a>
</g>
</g>
<!-- Node1&#45;&gt;Node2 -->
<g id="edge1" class="edge"><title>Node1&#45;&gt;Node2</title>
<path fill="none" stroke="midnightblue" d="M87.6037,-57.589C107.44,-62.5809 131.884,-68.7324 152.948,-74.0334"/>
<polygon fill="midnightblue" stroke="midnightblue" points="152.118,-77.4336 162.67,-76.4799 153.827,-70.6452 152.118,-77.4336"/>
</g>
<!-- Node3 -->
<g id="node3" class="node"><title>Node3</title>
<g id="a_node3"><a xlink:href="a00168.html#ga340391d061340e4635b4bbafea23602b" target="_top" xlink:title="Gets character from internal USART buffer. ">
<polygon fill="white" stroke="black" points="153,-38.5 153,-57.5 250,-57.5 250,-38.5 153,-38.5"/>
<text text-anchor="middle" x="201.5" y="-45.5" font-family="Helvetica,sans-Serif" font-size="10.00">TM_USART_Getc</text>
</a>
</g>
</g>
<!-- Node1&#45;&gt;Node3 -->
<g id="edge2" class="edge"><title>Node1&#45;&gt;Node3</title>
<path fill="none" stroke="midnightblue" d="M97.2773,-48C111.669,-48 127.621,-48 142.595,-48"/>
<polygon fill="midnightblue" stroke="midnightblue" points="142.775,-51.5001 152.774,-48 142.774,-44.5001 142.775,-51.5001"/>
</g>
<!-- Node4 -->
<g id="node4" class="node"><title>Node4</title>
<g id="a_node4"><a xlink:href="a00168.html#ga5f708a330c9fc45032143a5777d9b6fd" target="_top" xlink:title="Checks if character c is available in internal buffer. ">
<polygon fill="white" stroke="black" points="133,-0.5 133,-19.5 270,-19.5 270,-0.5 133,-0.5"/>
<text text-anchor="middle" x="201.5" y="-7.5" font-family="Helvetica,sans-Serif" font-size="10.00">TM_USART_FindCharacter</text>
</a>
</g>
</g>
<!-- Node1&#45;&gt;Node4 -->
<g id="edge3" class="edge"><title>Node1&#45;&gt;Node4</title>
<path fill="none" stroke="midnightblue" d="M87.6037,-38.411C107.44,-33.4191 131.884,-27.2676 152.948,-21.9666"/>
<polygon fill="midnightblue" stroke="midnightblue" points="153.827,-25.3548 162.67,-19.5201 152.118,-18.5664 153.827,-25.3548"/>
</g>
</g>
</svg>
