<?xml version="1.0" encoding="UTF-8" standalone="no"?>
<!DOCTYPE svg PUBLIC "-//W3C//DTD SVG 1.1//EN"
 "http://www.w3.org/Graphics/SVG/1.1/DTD/svg11.dtd">
<!-- Generated by graphviz version 2.38.0 (20140413.2041)
 -->
<!-- Title: RTC_SetDate Pages: 1 -->
<svg width="236pt" height="180pt"
 viewBox="0.00 0.00 236.00 180.00" xmlns="http://www.w3.org/2000/svg" xmlns:xlink="http://www.w3.org/1999/xlink">
<g id="graph0" class="graph" transform="scale(1 1) rotate(0) translate(4 176)">
<title>RTC_SetDate</title>
<polygon fill="white" stroke="none" points="-4,4 -4,-176 232,-176 232,4 -4,4"/>
<!-- Node1 -->
<g id="node1" class="node"><title>Node1</title>
<polygon fill="#bfbfbf" stroke="black" points="0,-76.5 0,-95.5 79,-95.5 79,-76.5 0,-76.5"/>
<text text-anchor="middle" x="39.5" y="-83.5" font-family="Helvetica,sans-Serif" font-size="10.00">RTC_SetDate</text>
</g>
<!-- Node2 -->
<g id="node2" class="node"><title>Node2</title>
<g id="a_node2"><a xlink:href="a01059.html#ga39e7c20215c2f546a20cf5df25c72d72" target="_top" xlink:title="Convert from 2 digit BCD to Binary. ">
<polygon fill="white" stroke="black" points="123,-152.5 123,-171.5 220,-171.5 220,-152.5 123,-152.5"/>
<text text-anchor="middle" x="171.5" y="-159.5" font-family="Helvetica,sans-Serif" font-size="10.00">RTC_Bcd2ToByte</text>
</a>
</g>
</g>
<!-- Node1&#45;&gt;Node2 -->
<g id="edge1" class="edge"><title>Node1&#45;&gt;Node2</title>
<path fill="none" stroke="midnightblue" d="M50.8446,-95.682C64.5782,-108.101 90.0172,-129.627 115,-143 118.945,-145.112 123.171,-147.058 127.465,-148.834"/>
<polygon fill="midnightblue" stroke="midnightblue" points="126.301,-152.136 136.891,-152.447 128.806,-145.6 126.301,-152.136"/>
</g>
<!-- Node3 -->
<g id="node3" class="node"><title>Node3</title>
<g id="a_node3"><a xlink:href="a01059.html#ga020add50c73f0a08516fef0eeee8cca9" target="_top" xlink:title="Converts a 2 digit decimal to BCD format. ">
<polygon fill="white" stroke="black" points="123,-114.5 123,-133.5 220,-133.5 220,-114.5 123,-114.5"/>
<text text-anchor="middle" x="171.5" y="-121.5" font-family="Helvetica,sans-Serif" font-size="10.00">RTC_ByteToBcd2</text>
</a>
</g>
</g>
<!-- Node1&#45;&gt;Node3 -->
<g id="edge2" class="edge"><title>Node1&#45;&gt;Node3</title>
<path fill="none" stroke="midnightblue" d="M73.3045,-95.589C89.7783,-100.404 109.943,-106.299 127.627,-111.468"/>
<polygon fill="midnightblue" stroke="midnightblue" points="127.126,-114.968 137.706,-114.414 129.09,-108.249 127.126,-114.968"/>
</g>
<!-- Node4 -->
<g id="node4" class="node"><title>Node4</title>
<g id="a_node4"><a xlink:href="a01060.html#ga679f8883cbfb267a53ffb1ab4cc5c8c5" target="_top" xlink:title="Enters the RTC Initialization mode. ">
<polygon fill="white" stroke="black" points="119.5,-76.5 119.5,-95.5 223.5,-95.5 223.5,-76.5 119.5,-76.5"/>
<text text-anchor="middle" x="171.5" y="-83.5" font-family="Helvetica,sans-Serif" font-size="10.00">RTC_EnterInitMode</text>
</a>
</g>
</g>
<!-- Node1&#45;&gt;Node4 -->
<g id="edge3" class="edge"><title>Node1&#45;&gt;Node4</title>
<path fill="none" stroke="midnightblue" d="M79.1523,-86C88.5827,-86 98.9038,-86 109.106,-86"/>
<polygon fill="midnightblue" stroke="midnightblue" points="109.231,-89.5001 119.231,-86 109.231,-82.5001 109.231,-89.5001"/>
</g>
<!-- Node5 -->
<g id="node5" class="node"><title>Node5</title>
<g id="a_node5"><a xlink:href="a01060.html#ga87f86f3b794205f09a1eac51738d900f" target="_top" xlink:title="Exits the RTC Initialization mode. ">
<polygon fill="white" stroke="black" points="122.5,-38.5 122.5,-57.5 220.5,-57.5 220.5,-38.5 122.5,-38.5"/>
<text text-anchor="middle" x="171.5" y="-45.5" font-family="Helvetica,sans-Serif" font-size="10.00">RTC_ExitInitMode</text>
</a>
</g>
</g>
<!-- Node1&#45;&gt;Node5 -->
<g id="edge4" class="edge"><title>Node1&#45;&gt;Node5</title>
<path fill="none" stroke="midnightblue" d="M73.3045,-76.411C89.7783,-71.5956 109.943,-65.7012 127.627,-60.532"/>
<polygon fill="midnightblue" stroke="midnightblue" points="129.09,-63.7511 137.706,-57.5859 127.126,-57.0323 129.09,-63.7511"/>
</g>
<!-- Node6 -->
<g id="node6" class="node"><title>Node6</title>
<g id="a_node6"><a xlink:href="a01060.html#ga2938febeef6baf0d91cc066ca5caf095" target="_top" xlink:title="Waits until the RTC Time and Date registers (RTC_TR and RTC_DR) are synchronized with RTC APB clock...">
<polygon fill="white" stroke="black" points="115,-0.5 115,-19.5 228,-19.5 228,-0.5 115,-0.5"/>
<text text-anchor="middle" x="171.5" y="-7.5" font-family="Helvetica,sans-Serif" font-size="10.00">RTC_WaitForSynchro</text>
</a>
</g>
</g>
<!-- Node1&#45;&gt;Node6 -->
<g id="edge5" class="edge"><title>Node1&#45;&gt;Node6</title>
<path fill="none" stroke="midnightblue" d="M50.8446,-76.318C64.5782,-63.8994 90.0172,-42.3726 115,-29 118.945,-26.8883 123.171,-24.9417 127.465,-23.1659"/>
<polygon fill="midnightblue" stroke="midnightblue" points="128.806,-26.4001 136.891,-19.553 126.301,-19.8638 128.806,-26.4001"/>
</g>
</g>
</svg>
