<?xml version="1.0" encoding="UTF-8" standalone="no"?>
<!DOCTYPE svg PUBLIC "-//W3C//DTD SVG 1.1//EN"
 "http://www.w3.org/Graphics/SVG/1.1/DTD/svg11.dtd">
<!-- Generated by graphviz version 2.38.0 (20140413.2041)
 -->
<!-- Title: md_stm32f4_dac_waveform.h Pages: 1 -->
<svg width="308pt" height="196pt"
 viewBox="0.00 0.00 308.25 196.00" xmlns="http://www.w3.org/2000/svg" xmlns:xlink="http://www.w3.org/1999/xlink">
<g id="graph0" class="graph" transform="scale(1 1) rotate(0) translate(4 192)">
<title>md_stm32f4_dac_waveform.h</title>
<polygon fill="white" stroke="none" points="-4,4 -4,-192 304.247,-192 304.247,4 -4,4"/>
<!-- Node1 -->
<g id="node1" class="node"><title>Node1</title>
<polygon fill="#bfbfbf" stroke="black" points="45.2474,-168.5 45.2474,-187.5 193.247,-187.5 193.247,-168.5 45.2474,-168.5"/>
<text text-anchor="middle" x="119.247" y="-175.5" font-family="Helvetica,sans-Serif" font-size="10.00">md_stm32f4_dac_waveform.h</text>
</g>
<!-- Node2 -->
<g id="node2" class="node"><title>Node2</title>
<polygon fill="white" stroke="#bfbfbf" points="61.7474,-0.5 61.7474,-19.5 132.747,-19.5 132.747,-0.5 61.7474,-0.5"/>
<text text-anchor="middle" x="97.2474" y="-7.5" font-family="Helvetica,sans-Serif" font-size="10.00">stm32f4xx.h</text>
</g>
<!-- Node1&#45;&gt;Node2 -->
<g id="edge1" class="edge"><title>Node1&#45;&gt;Node2</title>
<path fill="none" stroke="midnightblue" d="M64.1082,-168.42C42.6496,-162.092 20.1556,-151.098 7.2474,-132 -19.6693,-92.1772 38.3104,-47.2402 73.2612,-25.0062"/>
<polygon fill="midnightblue" stroke="midnightblue" points="75.3322,-27.841 82.0023,-19.6094 71.6547,-21.8848 75.3322,-27.841"/>
</g>
<!-- Node3 -->
<g id="node3" class="node"><title>Node3</title>
<polygon fill="white" stroke="#bfbfbf" points="16.2474,-112.5 16.2474,-131.5 108.247,-131.5 108.247,-112.5 16.2474,-112.5"/>
<text text-anchor="middle" x="62.2474" y="-119.5" font-family="Helvetica,sans-Serif" font-size="10.00">stm32f4xx_dac.h</text>
</g>
<!-- Node1&#45;&gt;Node3 -->
<g id="edge2" class="edge"><title>Node1&#45;&gt;Node3</title>
<path fill="none" stroke="midnightblue" d="M110.089,-168.324C101.746,-160.42 89.215,-148.548 79.0705,-138.938"/>
<polygon fill="midnightblue" stroke="midnightblue" points="81.2387,-136.171 71.5721,-131.834 76.4245,-141.252 81.2387,-136.171"/>
</g>
<!-- Node4 -->
<g id="node4" class="node"><title>Node4</title>
<g id="a_node4"><a xlink:href="a00026.html" target="_top" xlink:title="Project XA&#45;Galvo scanner specific digital to analog converter methods. ">
<polygon fill="white" stroke="black" points="126.247,-112.5 126.247,-131.5 226.247,-131.5 226.247,-112.5 126.247,-112.5"/>
<text text-anchor="middle" x="176.247" y="-119.5" font-family="Helvetica,sans-Serif" font-size="10.00">md_stm32f4_dac.h</text>
</a>
</g>
</g>
<!-- Node1&#45;&gt;Node4 -->
<g id="edge3" class="edge"><title>Node1&#45;&gt;Node4</title>
<path fill="none" stroke="midnightblue" d="M128.405,-168.324C136.749,-160.42 149.28,-148.548 159.424,-138.938"/>
<polygon fill="midnightblue" stroke="midnightblue" points="162.07,-141.252 166.923,-131.834 157.256,-136.171 162.07,-141.252"/>
</g>
<!-- Node6 -->
<g id="node6" class="node"><title>Node6</title>
<g id="a_node6"><a xlink:href="a00018.html" target="_top" xlink:title="Global defines include file. ">
<polygon fill="white" stroke="black" points="244.247,-112.5 244.247,-131.5 300.247,-131.5 300.247,-112.5 244.247,-112.5"/>
<text text-anchor="middle" x="272.247" y="-119.5" font-family="Helvetica,sans-Serif" font-size="10.00">globals.h</text>
</a>
</g>
</g>
<!-- Node1&#45;&gt;Node6 -->
<g id="edge7" class="edge"><title>Node1&#45;&gt;Node6</title>
<path fill="none" stroke="midnightblue" d="M143.491,-168.444C169.118,-159.399 209.733,-145.064 238.486,-134.916"/>
<polygon fill="midnightblue" stroke="midnightblue" points="239.853,-138.145 248.118,-131.516 237.523,-131.544 239.853,-138.145"/>
</g>
<!-- Node4&#45;&gt;Node2 -->
<g id="edge4" class="edge"><title>Node4&#45;&gt;Node2</title>
<path fill="none" stroke="midnightblue" d="M159.354,-112.346C145.808,-104.576 127.295,-91.9481 116.247,-76 106.728,-62.2583 101.922,-43.7295 99.5298,-29.9705"/>
<polygon fill="midnightblue" stroke="midnightblue" points="102.945,-29.1345 98.0379,-19.7446 96.0183,-30.1451 102.945,-29.1345"/>
</g>
<!-- Node5 -->
<g id="node5" class="node"><title>Node5</title>
<g id="a_node5"><a xlink:href="a00034.html" target="_top" xlink:title="Provides generic methods for GPIO module initialization and manipulation. ">
<polygon fill="white" stroke="black" points="125.247,-56.5 125.247,-75.5 227.247,-75.5 227.247,-56.5 125.247,-56.5"/>
<text text-anchor="middle" x="176.247" y="-63.5" font-family="Helvetica,sans-Serif" font-size="10.00">md_stm32f4_gpio.h</text>
</a>
</g>
</g>
<!-- Node4&#45;&gt;Node5 -->
<g id="edge5" class="edge"><title>Node4&#45;&gt;Node5</title>
<path fill="none" stroke="midnightblue" d="M176.247,-112.083C176.247,-105.006 176.247,-94.8611 176.247,-85.9865"/>
<polygon fill="midnightblue" stroke="midnightblue" points="179.747,-85.751 176.247,-75.7511 172.747,-85.7511 179.747,-85.751"/>
</g>
<!-- Node5&#45;&gt;Node2 -->
<g id="edge6" class="edge"><title>Node5&#45;&gt;Node2</title>
<path fill="none" stroke="midnightblue" d="M163.555,-56.324C151.346,-47.979 132.669,-35.2122 118.244,-25.3524"/>
<polygon fill="midnightblue" stroke="midnightblue" points="120.139,-22.4082 109.909,-19.6545 116.189,-28.1871 120.139,-22.4082"/>
</g>
</g>
</svg>
