<?xml version="1.0" encoding="UTF-8" standalone="no"?>
<!DOCTYPE svg PUBLIC "-//W3C//DTD SVG 1.1//EN"
 "http://www.w3.org/Graphics/SVG/1.1/DTD/svg11.dtd">
<!-- Generated by graphviz version 2.38.0 (20140413.2041)
 -->
<!-- Title: RCC_APB1PeriphResetCmd Pages: 1 -->
<svg width="830pt" height="294pt"
 viewBox="0.00 0.00 830.00 294.00" xmlns="http://www.w3.org/2000/svg" xmlns:xlink="http://www.w3.org/1999/xlink">
<g id="graph0" class="graph" transform="scale(1 1) rotate(0) translate(4 290)">
<title>RCC_APB1PeriphResetCmd</title>
<polygon fill="white" stroke="none" points="-4,4 -4,-290 826,-290 826,4 -4,4"/>
<!-- Node1 -->
<g id="node1" class="node"><title>Node1</title>
<polygon fill="#bfbfbf" stroke="black" points="0,-133.5 0,-152.5 145,-152.5 145,-133.5 0,-133.5"/>
<text text-anchor="middle" x="72.5" y="-140.5" font-family="Helvetica,sans-Serif" font-size="10.00">RCC_APB1PeriphResetCmd</text>
</g>
<!-- Node2 -->
<g id="node2" class="node"><title>Node2</title>
<g id="a_node2"><a xlink:href="a00971.html#ga002b74cd69574a14b17ad445090245cd" target="_top" xlink:title="Deinitializes the CAN peripheral registers to their default reset values. ">
<polygon fill="white" stroke="black" points="188.5,-266.5 188.5,-285.5 258.5,-285.5 258.5,-266.5 188.5,-266.5"/>
<text text-anchor="middle" x="223.5" y="-273.5" font-family="Helvetica,sans-Serif" font-size="10.00">CAN_DeInit</text>
</a>
</g>
</g>
<!-- Node1&#45;&gt;Node2 -->
<g id="edge1" class="edge"><title>Node1&#45;&gt;Node2</title>
<path fill="none" stroke="midnightblue" d="M86.6397,-160.756C105.363,-185.071 141.817,-228.906 181,-257 186.023,-260.602 191.838,-263.772 197.496,-266.44"/>
<polygon fill="midnightblue" stroke="midnightblue" points="89.4002,-158.604 80.5717,-152.747 83.8206,-162.831 89.4002,-158.604"/>
</g>
<!-- Node3 -->
<g id="node3" class="node"><title>Node3</title>
<g id="a_node3"><a xlink:href="a00989.html#ga1fae225204e1e049d6795319e99ba8bc" target="_top" xlink:title="Deinitializes the DAC peripheral registers to their default reset values. ">
<polygon fill="white" stroke="black" points="188.5,-228.5 188.5,-247.5 258.5,-247.5 258.5,-228.5 188.5,-228.5"/>
<text text-anchor="middle" x="223.5" y="-235.5" font-family="Helvetica,sans-Serif" font-size="10.00">DAC_DeInit</text>
</a>
</g>
</g>
<!-- Node1&#45;&gt;Node3 -->
<g id="edge2" class="edge"><title>Node1&#45;&gt;Node3</title>
<path fill="none" stroke="midnightblue" d="M93.4679,-158.828C114.506,-175.087 148.967,-200.558 181,-219 186.906,-222.4 193.527,-225.66 199.717,-228.49"/>
<polygon fill="midnightblue" stroke="midnightblue" points="95.6159,-156.064 85.5781,-152.674 91.3108,-161.584 95.6159,-156.064"/>
</g>
<!-- Node4 -->
<g id="node4" class="node"><title>Node4</title>
<g id="a_node4"><a xlink:href="a01030.html#ga2ee214364603059ad5d9089f749f5bfd" target="_top" xlink:title="Deinitialize the I2Cx peripheral registers to their default reset values. ">
<polygon fill="white" stroke="black" points="191.5,-190.5 191.5,-209.5 255.5,-209.5 255.5,-190.5 191.5,-190.5"/>
<text text-anchor="middle" x="223.5" y="-197.5" font-family="Helvetica,sans-Serif" font-size="10.00">I2C_DeInit</text>
</a>
</g>
</g>
<!-- Node1&#45;&gt;Node4 -->
<g id="edge3" class="edge"><title>Node1&#45;&gt;Node4</title>
<path fill="none" stroke="midnightblue" d="M108.013,-156.203C135.372,-166.669 172.954,-181.046 197.479,-190.428"/>
<polygon fill="midnightblue" stroke="midnightblue" points="109.03,-152.845 98.4392,-152.541 106.529,-159.383 109.03,-152.845"/>
</g>
<!-- Node5 -->
<g id="node5" class="node"><title>Node5</title>
<g id="a_node5"><a xlink:href="a01046.html#gad03a0aac7bc3bc3a9fd012f3769a6990" target="_top" xlink:title="Deinitializes the PWR peripheral registers to their default reset values. ">
<polygon fill="white" stroke="black" points="187.5,-152.5 187.5,-171.5 259.5,-171.5 259.5,-152.5 187.5,-152.5"/>
<text text-anchor="middle" x="223.5" y="-159.5" font-family="Helvetica,sans-Serif" font-size="10.00">PWR_DeInit</text>
</a>
</g>
</g>
<!-- Node1&#45;&gt;Node5 -->
<g id="edge4" class="edge"><title>Node1&#45;&gt;Node5</title>
<path fill="none" stroke="midnightblue" d="M155.63,-153.473C166.752,-154.891 177.644,-156.28 187.301,-157.512"/>
<polygon fill="midnightblue" stroke="midnightblue" points="155.744,-149.959 145.381,-152.166 154.858,-156.903 155.744,-149.959"/>
</g>
<!-- Node6 -->
<g id="node6" class="node"><title>Node6</title>
<g id="a_node6"><a xlink:href="a01083.html#gabe36880945fa56785283a9c0092124cc" target="_top" xlink:title="De&#45;initialize the SPIx peripheral registers to their default reset values. ">
<polygon fill="white" stroke="black" points="181,-114.5 181,-133.5 266,-133.5 266,-114.5 181,-114.5"/>
<text text-anchor="middle" x="223.5" y="-121.5" font-family="Helvetica,sans-Serif" font-size="10.00">SPI_I2S_DeInit</text>
</a>
</g>
</g>
<!-- Node1&#45;&gt;Node6 -->
<g id="edge5" class="edge"><title>Node1&#45;&gt;Node6</title>
<path fill="none" stroke="midnightblue" d="M155.387,-132.558C164.221,-131.432 172.914,-130.323 180.964,-129.297"/>
<polygon fill="midnightblue" stroke="midnightblue" points="154.858,-129.097 145.381,-133.834 155.744,-136.041 154.858,-129.097"/>
</g>
<!-- Node7 -->
<g id="node7" class="node"><title>Node7</title>
<g id="a_node7"><a xlink:href="a01091.html#ga1659cc0ce503ac151568e0c7c02b1ba5" target="_top" xlink:title="Deinitializes the TIMx peripheral registers to their default reset values. ">
<polygon fill="white" stroke="black" points="191,-76.5 191,-95.5 256,-95.5 256,-76.5 191,-76.5"/>
<text text-anchor="middle" x="223.5" y="-83.5" font-family="Helvetica,sans-Serif" font-size="10.00">TIM_DeInit</text>
</a>
</g>
</g>
<!-- Node1&#45;&gt;Node7 -->
<g id="edge6" class="edge"><title>Node1&#45;&gt;Node7</title>
<path fill="none" stroke="midnightblue" d="M108.013,-129.797C135.372,-119.331 172.954,-104.954 197.479,-95.5716"/>
<polygon fill="midnightblue" stroke="midnightblue" points="106.529,-126.617 98.4392,-133.459 109.03,-133.155 106.529,-126.617"/>
</g>
<!-- Node8 -->
<g id="node8" class="node"><title>Node8</title>
<g id="a_node8"><a xlink:href="a01101.html#ga2f8e1ce72da21b6539d8e1f299ec3b0d" target="_top" xlink:title="Deinitializes the USARTx peripheral registers to their default reset values. ">
<polygon fill="white" stroke="black" points="182,-38.5 182,-57.5 265,-57.5 265,-38.5 182,-38.5"/>
<text text-anchor="middle" x="223.5" y="-45.5" font-family="Helvetica,sans-Serif" font-size="10.00">USART_DeInit</text>
</a>
</g>
</g>
<!-- Node1&#45;&gt;Node8 -->
<g id="edge7" class="edge"><title>Node1&#45;&gt;Node8</title>
<path fill="none" stroke="midnightblue" d="M93.4679,-127.172C114.506,-110.913 148.967,-85.4421 181,-67 186.906,-63.5999 193.527,-60.34 199.717,-57.5099"/>
<polygon fill="midnightblue" stroke="midnightblue" points="91.3108,-124.416 85.5781,-133.326 95.6159,-129.936 91.3108,-124.416"/>
</g>
<!-- Node14 -->
<g id="node14" class="node"><title>Node14</title>
<g id="a_node14"><a xlink:href="a01112.html#ga7130f4dc861b9234b62e73f9f57f89a1" target="_top" xlink:title="Deinitializes the WWDG peripheral registers to their default reset values. ">
<polygon fill="white" stroke="black" points="182,-0.5 182,-19.5 265,-19.5 265,-0.5 182,-0.5"/>
<text text-anchor="middle" x="223.5" y="-7.5" font-family="Helvetica,sans-Serif" font-size="10.00">WWDG_DeInit</text>
</a>
</g>
</g>
<!-- Node1&#45;&gt;Node14 -->
<g id="edge15" class="edge"><title>Node1&#45;&gt;Node14</title>
<path fill="none" stroke="midnightblue" d="M86.6397,-125.244C105.363,-100.929 141.817,-57.0939 181,-29 186.023,-25.3985 191.838,-22.2278 197.496,-19.5597"/>
<polygon fill="midnightblue" stroke="midnightblue" points="83.8206,-123.169 80.5717,-133.253 89.4002,-127.396 83.8206,-123.169"/>
</g>
<!-- Node9 -->
<g id="node9" class="node"><title>Node9</title>
<g id="a_node9"><a xlink:href="a00582.html#ga5cf7d7f613f4241fb77321ef9554f46b" target="_top" xlink:title="Callback for custom pins initialization for USARTx. ">
<polygon fill="white" stroke="black" points="302,-38.5 302,-57.5 484,-57.5 484,-38.5 302,-38.5"/>
<text text-anchor="middle" x="393" y="-45.5" font-family="Helvetica,sans-Serif" font-size="10.00">TM_USART_InitCustomPinsCallback</text>
</a>
</g>
</g>
<!-- Node8&#45;&gt;Node9 -->
<g id="edge8" class="edge"><title>Node8&#45;&gt;Node9</title>
<path fill="none" stroke="midnightblue" d="M275.115,-48C283.614,-48 292.655,-48 301.8,-48"/>
<polygon fill="midnightblue" stroke="midnightblue" points="275.047,-44.5001 265.047,-48 275.047,-51.5001 275.047,-44.5001"/>
</g>
<!-- Node9&#45;&gt;Node9 -->
<g id="edge9" class="edge"><title>Node9&#45;&gt;Node9</title>
<path fill="none" stroke="midnightblue" d="M361.563,-66.2746C362.459,-71.741 372.938,-76 393,-76 422.859,-76 431.491,-66.5653 418.894,-57.7571"/>
<polygon fill="midnightblue" stroke="midnightblue" points="364.585,-68.0475 367.106,-57.7571 358.718,-64.2291 364.585,-68.0475"/>
</g>
<!-- Node10 -->
<g id="node10" class="node"><title>Node10</title>
<g id="a_node10"><a xlink:href="a00582.html#gab807a241fae0eae0d5434bae20a3569f" target="_top" xlink:title="Puts character to USART port. ">
<polygon fill="white" stroke="black" points="520,-38.5 520,-57.5 616,-57.5 616,-38.5 520,-38.5"/>
<text text-anchor="middle" x="568" y="-45.5" font-family="Helvetica,sans-Serif" font-size="10.00">TM_USART_Putc</text>
</a>
</g>
</g>
<!-- Node9&#45;&gt;Node10 -->
<g id="edge10" class="edge"><title>Node9&#45;&gt;Node10</title>
<path fill="none" stroke="midnightblue" d="M494.107,-48C502.963,-48 511.623,-48 519.704,-48"/>
<polygon fill="midnightblue" stroke="midnightblue" points="494.047,-44.5001 484.047,-48 494.047,-51.5001 494.047,-44.5001"/>
</g>
<!-- Node11 -->
<g id="node11" class="node"><title>Node11</title>
<g id="a_node11"><a xlink:href="a00582.html#ga70bed9fb6612cb572a8c10e148404344" target="_top" xlink:title="Initializes USARTx peripheral and corresponding pins. ">
<polygon fill="white" stroke="black" points="655.5,-76.5 655.5,-95.5 744.5,-95.5 744.5,-76.5 655.5,-76.5"/>
<text text-anchor="middle" x="700" y="-83.5" font-family="Helvetica,sans-Serif" font-size="10.00">TM_USART_Init</text>
</a>
</g>
</g>
<!-- Node10&#45;&gt;Node11 -->
<g id="edge11" class="edge"><title>Node10&#45;&gt;Node11</title>
<path fill="none" stroke="midnightblue" d="M611.884,-60.5353C629.569,-65.7048 649.734,-71.5991 666.206,-76.4141"/>
<polygon fill="midnightblue" stroke="midnightblue" points="612.385,-57.0353 601.804,-57.589 610.421,-63.7542 612.385,-57.0353"/>
</g>
<!-- Node13 -->
<g id="node13" class="node"><title>Node13</title>
<g id="a_node13"><a xlink:href="a00582.html#ga453aeaa886278333403ff4937c01dcf3" target="_top" xlink:title="Puts string to USART port. ">
<polygon fill="white" stroke="black" points="652,-38.5 652,-57.5 748,-57.5 748,-38.5 652,-38.5"/>
<text text-anchor="middle" x="700" y="-45.5" font-family="Helvetica,sans-Serif" font-size="10.00">TM_USART_Puts</text>
</a>
</g>
</g>
<!-- Node10&#45;&gt;Node13 -->
<g id="edge13" class="edge"><title>Node10&#45;&gt;Node13</title>
<path fill="none" stroke="midnightblue" d="M626.539,-41.2897C635.034,-41.199 643.703,-41.2638 651.952,-41.4842"/>
<polygon fill="midnightblue" stroke="midnightblue" points="626.235,-37.7946 616.301,-41.4775 626.363,-44.7934 626.235,-37.7946"/>
</g>
<!-- Node12 -->
<g id="node12" class="node"><title>Node12</title>
<g id="a_node12"><a xlink:href="a01287.html#ga840291bc02cba5474a4cb46a9b9566fe" target="_top" xlink:title="Main function entry. ">
<polygon fill="white" stroke="black" points="784,-76.5 784,-95.5 822,-95.5 822,-76.5 784,-76.5"/>
<text text-anchor="middle" x="803" y="-83.5" font-family="Helvetica,sans-Serif" font-size="10.00">main</text>
</a>
</g>
</g>
<!-- Node11&#45;&gt;Node12 -->
<g id="edge12" class="edge"><title>Node11&#45;&gt;Node12</title>
<path fill="none" stroke="midnightblue" d="M754.767,-86C765.256,-86 775.556,-86 783.848,-86"/>
<polygon fill="midnightblue" stroke="midnightblue" points="754.713,-82.5001 744.713,-86 754.713,-89.5001 754.713,-82.5001"/>
</g>
<!-- Node13&#45;&gt;Node10 -->
<g id="edge14" class="edge"><title>Node13&#45;&gt;Node10</title>
<path fill="none" stroke="midnightblue" d="M641.722,-54.7075C633.229,-54.8014 624.559,-54.7397 616.301,-54.5225"/>
<polygon fill="midnightblue" stroke="midnightblue" points="642.02,-58.2026 651.952,-54.5158 641.888,-51.2038 642.02,-58.2026"/>
</g>
</g>
</svg>
