<?xml version="1.0" encoding="UTF-8" standalone="no"?>
<!DOCTYPE svg PUBLIC "-//W3C//DTD SVG 1.1//EN"
 "http://www.w3.org/Graphics/SVG/1.1/DTD/svg11.dtd">
<!-- Generated by graphviz version 2.38.0 (20140413.2041)
 -->
<!-- Title: MDB_GPIO_Init Pages: 1 -->
<svg width="343pt" height="47pt"
 viewBox="0.00 0.00 343.00 47.00" xmlns="http://www.w3.org/2000/svg" xmlns:xlink="http://www.w3.org/1999/xlink">
<g id="graph0" class="graph" transform="scale(1 1) rotate(0) translate(4 43)">
<title>MDB_GPIO_Init</title>
<polygon fill="white" stroke="none" points="-4,4 -4,-43 339,-43 339,4 -4,4"/>
<!-- Node1 -->
<g id="node1" class="node"><title>Node1</title>
<polygon fill="#bfbfbf" stroke="black" points="0,-19.5 0,-38.5 88,-38.5 88,-19.5 0,-19.5"/>
<text text-anchor="middle" x="44" y="-26.5" font-family="Helvetica,sans-Serif" font-size="10.00">MDB_GPIO_Init</text>
</g>
<!-- Node2 -->
<g id="node2" class="node"><title>Node2</title>
<g id="a_node2"><a xlink:href="a00127.html#ga1de48ba66939a9726f7930fc6a1e653a" target="_top" xlink:title="MDB_GPIO_Off">
<polygon fill="white" stroke="black" points="247,-19.5 247,-38.5 335,-38.5 335,-19.5 247,-19.5"/>
<text text-anchor="middle" x="291" y="-26.5" font-family="Helvetica,sans-Serif" font-size="10.00">MDB_GPIO_Off</text>
</a>
</g>
</g>
<!-- Node1&#45;&gt;Node2 -->
<g id="edge1" class="edge"><title>Node1&#45;&gt;Node2</title>
<path fill="none" stroke="midnightblue" d="M88.2371,-29C129.657,-29 192.263,-29 236.739,-29"/>
<polygon fill="midnightblue" stroke="midnightblue" points="236.784,-32.5001 246.784,-29 236.784,-25.5001 236.784,-32.5001"/>
</g>
<!-- Node3 -->
<g id="node3" class="node"><title>Node3</title>
<g id="a_node3"><a xlink:href="a00127.html#ga9915de13874ce89948d7d860af7e28c8" target="_top" xlink:title="MDB_GPIO_On">
<polygon fill="white" stroke="black" points="124,-0.5 124,-19.5 211,-19.5 211,-0.5 124,-0.5"/>
<text text-anchor="middle" x="167.5" y="-7.5" font-family="Helvetica,sans-Serif" font-size="10.00">MDB_GPIO_On</text>
</a>
</g>
</g>
<!-- Node1&#45;&gt;Node3 -->
<g id="edge2" class="edge"><title>Node1&#45;&gt;Node3</title>
<path fill="none" stroke="midnightblue" d="M88.1785,-22.2478C96.5126,-20.9445 105.33,-19.5657 113.924,-18.2217"/>
<polygon fill="midnightblue" stroke="midnightblue" points="114.53,-21.6696 123.869,-16.6665 113.448,-14.7537 114.53,-21.6696"/>
</g>
<!-- Node3&#45;&gt;Node2 -->
<g id="edge3" class="edge"><title>Node3&#45;&gt;Node2</title>
<path fill="none" stroke="midnightblue" d="M211.336,-16.6987C219.496,-17.9748 228.13,-19.3249 236.572,-20.6451"/>
<polygon fill="midnightblue" stroke="midnightblue" points="236.31,-24.1465 246.731,-22.2336 237.391,-17.2305 236.31,-24.1465"/>
</g>
</g>
</svg>
