<?xml version="1.0" encoding="UTF-8" standalone="no"?>
<!DOCTYPE svg PUBLIC "-//W3C//DTD SVG 1.1//EN"
 "http://www.w3.org/Graphics/SVG/1.1/DTD/svg11.dtd">
<!-- Generated by graphviz version 2.38.0 (20140413.2041)
 -->
<!-- Title: adc_dac_dma.h Pages: 1 -->
<svg width="1899pt" height="252pt"
 viewBox="0.00 0.00 1899.14 252.00" xmlns="http://www.w3.org/2000/svg" xmlns:xlink="http://www.w3.org/1999/xlink">
<g id="graph0" class="graph" transform="scale(1 1) rotate(0) translate(4 248)">
<title>adc_dac_dma.h</title>
<polygon fill="white" stroke="none" points="-4,4 -4,-248 1895.14,-248 1895.14,4 -4,4"/>
<!-- Node1 -->
<g id="node1" class="node"><title>Node1</title>
<polygon fill="#bfbfbf" stroke="black" points="1418.64,-224.5 1418.64,-243.5 1504.64,-243.5 1504.64,-224.5 1418.64,-224.5"/>
<text text-anchor="middle" x="1461.64" y="-231.5" font-family="Helvetica,sans-Serif" font-size="10.00">adc_dac_dma.h</text>
</g>
<!-- Node2 -->
<g id="node2" class="node"><title>Node2</title>
<g id="a_node2"><a xlink:href="a00019.html" target="_top" xlink:title="Global defines include file. ">
<polygon fill="white" stroke="black" points="1272.64,-0.5 1272.64,-19.5 1328.64,-19.5 1328.64,-0.5 1272.64,-0.5"/>
<text text-anchor="middle" x="1300.64" y="-7.5" font-family="Helvetica,sans-Serif" font-size="10.00">globals.h</text>
</a>
</g>
</g>
<!-- Node1&#45;&gt;Node2 -->
<g id="edge1" class="edge"><title>Node1&#45;&gt;Node2</title>
<path fill="none" stroke="midnightblue" d="M1468.87,-224.475C1484.72,-204.686 1519.97,-154.108 1504.64,-112 1480.55,-45.8163 1391.13,-22.8328 1339.02,-14.9763"/>
<polygon fill="midnightblue" stroke="midnightblue" points="1339.2,-11.4679 1328.82,-13.5587 1338.24,-18.4014 1339.2,-11.4679"/>
</g>
<!-- Node3 -->
<g id="node3" class="node"><title>Node3</title>
<g id="a_node3"><a xlink:href="a00042.html" target="_top" xlink:title="Provides nested vector interrupt controller configuration methods. ">
<polygon fill="white" stroke="black" points="361.643,-168.5 361.643,-187.5 435.643,-187.5 435.643,-168.5 361.643,-168.5"/>
<text text-anchor="middle" x="398.643" y="-175.5" font-family="Helvetica,sans-Serif" font-size="10.00">nvic_config.h</text>
</a>
</g>
</g>
<!-- Node1&#45;&gt;Node3 -->
<g id="edge2" class="edge"><title>Node1&#45;&gt;Node3</title>
<path fill="none" stroke="midnightblue" d="M1418.32,-230.799C1247.79,-222.136 623.403,-190.418 445.963,-181.404"/>
<polygon fill="midnightblue" stroke="midnightblue" points="446.063,-177.904 435.898,-180.893 445.707,-184.895 446.063,-177.904"/>
</g>
<!-- Node5 -->
<g id="node5" class="node"><title>Node5</title>
<g id="a_node5"><a xlink:href="a00025.html" target="_top" xlink:title="Main header definition. ">
<polygon fill="white" stroke="black" points="1325.64,-168.5 1325.64,-187.5 1371.64,-187.5 1371.64,-168.5 1325.64,-168.5"/>
<text text-anchor="middle" x="1348.64" y="-175.5" font-family="Helvetica,sans-Serif" font-size="10.00">main.h</text>
</a>
</g>
</g>
<!-- Node1&#45;&gt;Node5 -->
<g id="edge4" class="edge"><title>Node1&#45;&gt;Node5</title>
<path fill="none" stroke="midnightblue" d="M1438.65,-224.444C1418.65,-215.794 1390.15,-202.306 1370.5,-192.268"/>
<polygon fill="midnightblue" stroke="midnightblue" points="1371.87,-189.034 1361.38,-187.516 1368.64,-195.242 1371.87,-189.034"/>
</g>
<!-- Node11 -->
<g id="node11" class="node"><title>Node11</title>
<polygon fill="white" stroke="#bfbfbf" points="707.143,-0.5 707.143,-19.5 778.143,-19.5 778.143,-0.5 707.143,-0.5"/>
<text text-anchor="middle" x="742.643" y="-7.5" font-family="Helvetica,sans-Serif" font-size="10.00">stm32f4xx.h</text>
</g>
<!-- Node1&#45;&gt;Node11 -->
<g id="edge82" class="edge"><title>Node1&#45;&gt;Node11</title>
<path fill="none" stroke="midnightblue" d="M1418.43,-232.625C1240.42,-230.868 563.441,-222.041 352.643,-188 195.163,-162.569 102.014,-207.453 11.6433,-76 6.6076,-68.6751 5.5248,-62.448 11.6433,-56 62.437,-2.47081 585.431,-27.6847 696.869,-19.5988"/>
<polygon fill="midnightblue" stroke="midnightblue" points="697.237,-23.0797 706.859,-18.6434 696.571,-16.1115 697.237,-23.0797"/>
</g>
<!-- Node12 -->
<g id="node12" class="node"><title>Node12</title>
<polygon fill="white" stroke="#bfbfbf" points="600.143,-0.5 600.143,-19.5 689.143,-19.5 689.143,-0.5 600.143,-0.5"/>
<text text-anchor="middle" x="644.643" y="-7.5" font-family="Helvetica,sans-Serif" font-size="10.00">stm32f4xx_rcc.h</text>
</g>
<!-- Node1&#45;&gt;Node12 -->
<g id="edge81" class="edge"><title>Node1&#45;&gt;Node12</title>
<path fill="none" stroke="midnightblue" d="M1418.58,-232.779C1204.63,-231.514 261.178,-223.928 135.643,-188 61.6741,-166.83 24.854,-149.957 3.64329,-76 1.19277,-67.4556 -2.41803,-62.5018 3.64329,-56 43.202,-13.5668 441.667,-10.3809 589.677,-10.6777"/>
<polygon fill="midnightblue" stroke="midnightblue" points="589.884,-14.1781 599.893,-10.7045 589.902,-7.17814 589.884,-14.1781"/>
</g>
<!-- Node23 -->
<g id="node23" class="node"><title>Node23</title>
<g id="a_node23"><a xlink:href="a00012.html" target="_top" xlink:title="Controlling beam and primary actuators. ">
<polygon fill="white" stroke="black" points="1590.14,-112.5 1590.14,-131.5 1655.14,-131.5 1655.14,-112.5 1590.14,-112.5"/>
<text text-anchor="middle" x="1622.64" y="-119.5" font-family="Helvetica,sans-Serif" font-size="10.00">actuators.h</text>
</a>
</g>
</g>
<!-- Node1&#45;&gt;Node23 -->
<g id="edge84" class="edge"><title>Node1&#45;&gt;Node23</title>
<path fill="none" stroke="midnightblue" d="M1470.56,-224.389C1484.01,-215.696 1508.43,-201.64 1528.64,-188 1552.7,-171.761 1579.06,-151.13 1597.99,-137.518"/>
<polygon fill="midnightblue" stroke="midnightblue" points="1600.21,-140.234 1606.39,-131.624 1596.19,-134.504 1600.21,-140.234"/>
</g>
<!-- Node27 -->
<g id="node27" class="node"><title>Node27</title>
<g id="a_node27"><a xlink:href="a00044.html" target="_top" xlink:title="PID compensator implementation. ">
<polygon fill="white" stroke="black" points="1656.64,-56.5 1656.64,-75.5 1694.64,-75.5 1694.64,-56.5 1656.64,-56.5"/>
<text text-anchor="middle" x="1675.64" y="-63.5" font-family="Helvetica,sans-Serif" font-size="10.00">pid.h</text>
</a>
</g>
</g>
<!-- Node1&#45;&gt;Node27 -->
<g id="edge78" class="edge"><title>Node1&#45;&gt;Node27</title>
<path fill="none" stroke="midnightblue" d="M1490.21,-224.399C1545.19,-207.188 1662.19,-167.147 1683.64,-132 1692.24,-117.926 1688.52,-98.9363 1683.69,-85.1181"/>
<polygon fill="midnightblue" stroke="midnightblue" points="1686.91,-83.7296 1679.97,-75.7264 1680.4,-86.3122 1686.91,-83.7296"/>
</g>
<!-- Node29 -->
<g id="node29" class="node"><title>Node29</title>
<g id="a_node29"><a xlink:href="a00021.html" target="_top" xlink:title="Provides tools and helper functions. ">
<polygon fill="white" stroke="black" points="1751.14,-56.5 1751.14,-75.5 1802.14,-75.5 1802.14,-56.5 1751.14,-56.5"/>
<text text-anchor="middle" x="1776.64" y="-63.5" font-family="Helvetica,sans-Serif" font-size="10.00">helper.h</text>
</a>
</g>
</g>
<!-- Node1&#45;&gt;Node29 -->
<g id="edge83" class="edge"><title>Node1&#45;&gt;Node29</title>
<path fill="none" stroke="midnightblue" d="M1504.94,-231.261C1602.64,-226.892 1833.52,-213.907 1856.64,-188 1887.89,-152.989 1831.26,-104.834 1798.13,-81.2224"/>
<polygon fill="midnightblue" stroke="midnightblue" points="1800.1,-78.3308 1789.89,-75.5072 1796.11,-84.0826 1800.1,-78.3308"/>
</g>
<!-- Node32 -->
<g id="node32" class="node"><title>Node32</title>
<g id="a_node32"><a xlink:href="a00027.html" target="_top" xlink:title="Project XA&#45;Galvo scanner specific digital to analog converter methods. ">
<polygon fill="white" stroke="black" points="544.643,-112.5 544.643,-131.5 644.643,-131.5 644.643,-112.5 544.643,-112.5"/>
<text text-anchor="middle" x="594.643" y="-119.5" font-family="Helvetica,sans-Serif" font-size="10.00">md_stm32f4_dac.h</text>
</a>
</g>
</g>
<!-- Node1&#45;&gt;Node32 -->
<g id="edge74" class="edge"><title>Node1&#45;&gt;Node32</title>
<path fill="none" stroke="midnightblue" d="M1418.35,-227.507C1275.59,-209.395 819.447,-151.522 654.71,-130.621"/>
<polygon fill="midnightblue" stroke="midnightblue" points="655.112,-127.144 644.751,-129.357 654.231,-134.088 655.112,-127.144"/>
</g>
<!-- Node33 -->
<g id="node33" class="node"><title>Node33</title>
<polygon fill="white" stroke="#bfbfbf" points="1645.64,-168.5 1645.64,-187.5 1737.64,-187.5 1737.64,-168.5 1645.64,-168.5"/>
<text text-anchor="middle" x="1691.64" y="-175.5" font-family="Helvetica,sans-Serif" font-size="10.00">stm32f4xx_adc.h</text>
</g>
<!-- Node1&#45;&gt;Node33 -->
<g id="edge79" class="edge"><title>Node1&#45;&gt;Node33</title>
<path fill="none" stroke="midnightblue" d="M1498.09,-224.444C1538.04,-215.063 1602.23,-199.993 1645.63,-189.804"/>
<polygon fill="midnightblue" stroke="midnightblue" points="1646.43,-193.21 1655.37,-187.516 1644.83,-186.395 1646.43,-193.21"/>
</g>
<!-- Node34 -->
<g id="node34" class="node"><title>Node34</title>
<polygon fill="white" stroke="#bfbfbf" points="1755.64,-168.5 1755.64,-187.5 1847.64,-187.5 1847.64,-168.5 1755.64,-168.5"/>
<text text-anchor="middle" x="1801.64" y="-175.5" font-family="Helvetica,sans-Serif" font-size="10.00">stm32f4xx_dac.h</text>
</g>
<!-- Node1&#45;&gt;Node34 -->
<g id="edge80" class="edge"><title>Node1&#45;&gt;Node34</title>
<path fill="none" stroke="midnightblue" d="M1505.11,-226.214C1559.04,-217.777 1654.1,-202.851 1745.46,-188.183"/>
<polygon fill="midnightblue" stroke="midnightblue" points="1746.11,-191.623 1755.43,-186.581 1745,-184.712 1746.11,-191.623"/>
</g>
<!-- Node4 -->
<g id="node4" class="node"><title>Node4</title>
<polygon fill="white" stroke="#bfbfbf" points="20.6433,-56.5 20.6433,-75.5 66.6433,-75.5 66.6433,-56.5 20.6433,-56.5"/>
<text text-anchor="middle" x="43.6433" y="-63.5" font-family="Helvetica,sans-Serif" font-size="10.00">misc.h</text>
</g>
<!-- Node3&#45;&gt;Node4 -->
<g id="edge3" class="edge"><title>Node3&#45;&gt;Node4</title>
<path fill="none" stroke="midnightblue" d="M361.641,-168.922C325.219,-160.684 268.163,-147.011 219.643,-132 167.814,-115.965 108.925,-93.2807 74.1027,-79.3869"/>
<polygon fill="midnightblue" stroke="midnightblue" points="75.1081,-76.0191 64.5239,-75.5443 72.5018,-82.5159 75.1081,-76.0191"/>
</g>
<!-- Node5&#45;&gt;Node1 -->
<g id="edge67" class="edge"><title>Node5&#45;&gt;Node1</title>
<path fill="none" stroke="midnightblue" d="M1371.86,-187.655C1391.76,-196.267 1419.94,-209.605 1439.5,-219.59"/>
<polygon fill="midnightblue" stroke="midnightblue" points="1438.12,-222.813 1448.6,-224.324 1441.35,-216.603 1438.12,-222.813"/>
</g>
<!-- Node5&#45;&gt;Node2 -->
<g id="edge9" class="edge"><title>Node5&#45;&gt;Node2</title>
<path fill="none" stroke="midnightblue" d="M1346.06,-168.075C1338.51,-141.945 1316.32,-65.2106 1306.01,-29.577"/>
<polygon fill="midnightblue" stroke="midnightblue" points="1309.26,-28.2023 1303.12,-19.5681 1302.54,-30.1468 1309.26,-28.2023"/>
</g>
<!-- Node6 -->
<g id="node6" class="node"><title>Node6</title>
<polygon fill="white" stroke="#bfbfbf" points="1566.64,-0.5 1566.64,-19.5 1612.64,-19.5 1612.64,-0.5 1566.64,-0.5"/>
<text text-anchor="middle" x="1589.64" y="-7.5" font-family="Helvetica,sans-Serif" font-size="10.00">stdio.h</text>
</g>
<!-- Node5&#45;&gt;Node6 -->
<g id="edge5" class="edge"><title>Node5&#45;&gt;Node6</title>
<path fill="none" stroke="midnightblue" d="M1371.89,-175.128C1404.33,-171.511 1463.8,-161.137 1504.64,-132 1542.65,-104.887 1569.55,-55.2329 1581.95,-28.746"/>
<polygon fill="midnightblue" stroke="midnightblue" points="1585.18,-30.084 1586.11,-19.5296 1578.8,-27.2035 1585.18,-30.084"/>
</g>
<!-- Node7 -->
<g id="node7" class="node"><title>Node7</title>
<polygon fill="white" stroke="#bfbfbf" points="1698.64,-0.5 1698.64,-19.5 1746.64,-19.5 1746.64,-0.5 1698.64,-0.5"/>
<text text-anchor="middle" x="1722.64" y="-7.5" font-family="Helvetica,sans-Serif" font-size="10.00">stdlib.h</text>
</g>
<!-- Node5&#45;&gt;Node7 -->
<g id="edge6" class="edge"><title>Node5&#45;&gt;Node7</title>
<path fill="none" stroke="midnightblue" d="M1372.08,-176.924C1440.08,-176.242 1635.64,-170.867 1683.64,-132 1714.56,-106.964 1721.28,-57.1972 1722.54,-29.9371"/>
<polygon fill="midnightblue" stroke="midnightblue" points="1726.04,-29.8574 1722.81,-19.7699 1719.05,-29.6757 1726.04,-29.8574"/>
</g>
<!-- Node8 -->
<g id="node8" class="node"><title>Node8</title>
<polygon fill="white" stroke="#bfbfbf" points="1842.14,-0.5 1842.14,-19.5 1891.14,-19.5 1891.14,-0.5 1842.14,-0.5"/>
<text text-anchor="middle" x="1866.64" y="-7.5" font-family="Helvetica,sans-Serif" font-size="10.00">string.h</text>
</g>
<!-- Node5&#45;&gt;Node8 -->
<g id="edge7" class="edge"><title>Node5&#45;&gt;Node8</title>
<path fill="none" stroke="midnightblue" d="M1371.67,-176.631C1448.02,-175.079 1691.87,-167.4 1760.64,-132 1806.42,-108.436 1841.24,-56.0583 1857.14,-28.5882"/>
<polygon fill="midnightblue" stroke="midnightblue" points="1860.29,-30.1281 1862.13,-19.694 1854.18,-26.704 1860.29,-30.1281"/>
</g>
<!-- Node9 -->
<g id="node9" class="node"><title>Node9</title>
<g id="a_node9"><a xlink:href="a00016.html" target="_top" xlink:title="Platform/Compiler dependent definitions. ">
<polygon fill="white" stroke="black" points="439.143,-56.5 439.143,-75.5 504.143,-75.5 504.143,-56.5 439.143,-56.5"/>
<text text-anchor="middle" x="471.643" y="-63.5" font-family="Helvetica,sans-Serif" font-size="10.00">attributes.h</text>
</a>
</g>
</g>
<!-- Node5&#45;&gt;Node9 -->
<g id="edge8" class="edge"><title>Node5&#45;&gt;Node9</title>
<path fill="none" stroke="midnightblue" d="M1325.51,-176.138C1243.16,-172.861 964.797,-159.921 880.643,-132 864.366,-126.599 863.889,-117.494 847.643,-112 709.247,-65.1955 663.043,-98.1864 514.53,-75.9456"/>
<polygon fill="midnightblue" stroke="midnightblue" points="515.017,-72.4794 504.597,-74.3994 513.94,-79.3961 515.017,-72.4794"/>
</g>
<!-- Node10 -->
<g id="node10" class="node"><title>Node10</title>
<g id="a_node10"><a xlink:href="a00031.html" target="_top" xlink:title="Provides SysTick&#45;Timer driven delay functions. ">
<polygon fill="white" stroke="black" points="681.143,-56.5 681.143,-75.5 788.143,-75.5 788.143,-56.5 681.143,-56.5"/>
<text text-anchor="middle" x="734.643" y="-63.5" font-family="Helvetica,sans-Serif" font-size="10.00">md_stm32f4_delay.h</text>
</a>
</g>
</g>
<!-- Node5&#45;&gt;Node10 -->
<g id="edge10" class="edge"><title>Node5&#45;&gt;Node10</title>
<path fill="none" stroke="midnightblue" d="M1325.58,-177.196C1260.88,-177.186 1072.72,-173.326 923.643,-132 903.332,-126.369 900.316,-119.566 880.643,-112 846.208,-98.7558 806.089,-86.6186 776.63,-78.2956"/>
<polygon fill="midnightblue" stroke="midnightblue" points="777.254,-74.836 766.681,-75.5151 775.37,-81.5777 777.254,-74.836"/>
</g>
<!-- Node13 -->
<g id="node13" class="node"><title>Node13</title>
<g id="a_node13"><a xlink:href="a00033.html" target="_top" xlink:title="Definitions to extend board support for STM32F429i&#45;DISCO and equivalent boards. ">
<polygon fill="white" stroke="black" points="933.143,-112.5 933.143,-131.5 1040.14,-131.5 1040.14,-112.5 933.143,-112.5"/>
<text text-anchor="middle" x="986.643" y="-119.5" font-family="Helvetica,sans-Serif" font-size="10.00">md_stm32f4_disco.h</text>
</a>
</g>
</g>
<!-- Node5&#45;&gt;Node13 -->
<g id="edge14" class="edge"><title>Node5&#45;&gt;Node13</title>
<path fill="none" stroke="midnightblue" d="M1325.45,-173.54C1270.77,-165.384 1132.26,-144.721 1050.26,-132.49"/>
<polygon fill="midnightblue" stroke="midnightblue" points="1050.71,-129.019 1040.31,-131.005 1049.68,-135.942 1050.71,-129.019"/>
</g>
<!-- Node15 -->
<g id="node15" class="node"><title>Node15</title>
<g id="a_node15"><a xlink:href="a00037_source.html" target="_top" xlink:title="md_stm32f4_timer.h">
<polygon fill="white" stroke="black" points="122.643,-56.5 122.643,-75.5 228.643,-75.5 228.643,-56.5 122.643,-56.5"/>
<text text-anchor="middle" x="175.643" y="-63.5" font-family="Helvetica,sans-Serif" font-size="10.00">md_stm32f4_timer.h</text>
</a>
</g>
</g>
<!-- Node5&#45;&gt;Node15 -->
<g id="edge19" class="edge"><title>Node5&#45;&gt;Node15</title>
<path fill="none" stroke="midnightblue" d="M1325.5,-176.921C1194.67,-176.332 546.738,-171.434 351.643,-132 296.722,-120.899 236.143,-95.3679 202.307,-79.8117"/>
<polygon fill="midnightblue" stroke="midnightblue" points="203.642,-76.5726 193.1,-75.52 200.685,-82.9172 203.642,-76.5726"/>
</g>
<!-- Node16 -->
<g id="node16" class="node"><title>Node16</title>
<g id="a_node16"><a xlink:href="a00055_source.html" target="_top" xlink:title="tm_stm32f4_pwm.h">
<polygon fill="white" stroke="black" points="1097.14,-112.5 1097.14,-131.5 1200.14,-131.5 1200.14,-112.5 1097.14,-112.5"/>
<text text-anchor="middle" x="1148.64" y="-119.5" font-family="Helvetica,sans-Serif" font-size="10.00">tm_stm32f4_pwm.h</text>
</a>
</g>
</g>
<!-- Node5&#45;&gt;Node16 -->
<g id="edge22" class="edge"><title>Node5&#45;&gt;Node16</title>
<path fill="none" stroke="midnightblue" d="M1325.31,-170.7C1292.18,-161.755 1231,-145.237 1190.06,-134.182"/>
<polygon fill="midnightblue" stroke="midnightblue" points="1190.94,-130.794 1180.37,-131.567 1189.11,-137.552 1190.94,-130.794"/>
</g>
<!-- Node19 -->
<g id="node19" class="node"><title>Node19</title>
<g id="a_node19"><a xlink:href="a00061_source.html" target="_top" xlink:title="tm_stm32f4_usart.h">
<polygon fill="white" stroke="black" points="360.643,-112.5 360.643,-131.5 464.643,-131.5 464.643,-112.5 360.643,-112.5"/>
<text text-anchor="middle" x="412.643" y="-119.5" font-family="Helvetica,sans-Serif" font-size="10.00">tm_stm32f4_usart.h</text>
</a>
</g>
</g>
<!-- Node5&#45;&gt;Node19 -->
<g id="edge33" class="edge"><title>Node5&#45;&gt;Node19</title>
<path fill="none" stroke="midnightblue" d="M1325.35,-175.862C1228.5,-171.1 848.115,-152.078 535.643,-132 515.81,-130.726 494.189,-129.192 474.684,-127.755"/>
<polygon fill="midnightblue" stroke="midnightblue" points="474.929,-124.264 464.698,-127.014 474.411,-131.245 474.929,-124.264"/>
</g>
<!-- Node21 -->
<g id="node21" class="node"><title>Node21</title>
<polygon fill="white" stroke="#bfbfbf" points="684.643,-112.5 684.643,-131.5 752.643,-131.5 752.643,-112.5 684.643,-112.5"/>
<text text-anchor="middle" x="718.643" y="-119.5" font-family="Helvetica,sans-Serif" font-size="10.00">core_cm4.h</text>
</g>
<!-- Node5&#45;&gt;Node21 -->
<g id="edge41" class="edge"><title>Node5&#45;&gt;Node21</title>
<path fill="none" stroke="midnightblue" d="M1325.59,-176.309C1247.76,-173.749 987.483,-163.356 762.835,-131.988"/>
<polygon fill="midnightblue" stroke="midnightblue" points="763.232,-128.51 752.84,-130.575 762.252,-135.441 763.232,-128.51"/>
</g>
<!-- Node22 -->
<g id="node22" class="node"><title>Node22</title>
<polygon fill="white" stroke="#bfbfbf" points="770.643,-112.5 770.643,-131.5 838.643,-131.5 838.643,-112.5 770.643,-112.5"/>
<text text-anchor="middle" x="804.643" y="-119.5" font-family="Helvetica,sans-Serif" font-size="10.00">arm_math.h</text>
</g>
<!-- Node5&#45;&gt;Node22 -->
<g id="edge42" class="edge"><title>Node5&#45;&gt;Node22</title>
<path fill="none" stroke="midnightblue" d="M1325.56,-175.687C1254.69,-171.489 1033.99,-157.17 852.643,-132 851.368,-131.823 850.075,-131.635 848.771,-131.439"/>
<polygon fill="midnightblue" stroke="midnightblue" points="849.099,-127.946 838.666,-129.792 847.973,-134.855 849.099,-127.946"/>
</g>
<!-- Node5&#45;&gt;Node23 -->
<g id="edge43" class="edge"><title>Node5&#45;&gt;Node23</title>
<path fill="none" stroke="midnightblue" d="M1372,-172.396C1418.03,-163.325 1521.05,-143.022 1579.67,-131.468"/>
<polygon fill="midnightblue" stroke="midnightblue" points="1580.6,-134.854 1589.73,-129.486 1579.24,-127.986 1580.6,-134.854"/>
</g>
<!-- Node24 -->
<g id="node24" class="node"><title>Node24</title>
<g id="a_node24"><a xlink:href="a00023.html" target="_top" xlink:title="Analog processing related callback handler definition. ">
<polygon fill="white" stroke="black" points="1366.64,-56.5 1366.64,-75.5 1448.64,-75.5 1448.64,-56.5 1366.64,-56.5"/>
<text text-anchor="middle" x="1407.64" y="-63.5" font-family="Helvetica,sans-Serif" font-size="10.00">isr_callbacks.h</text>
</a>
</g>
</g>
<!-- Node5&#45;&gt;Node24 -->
<g id="edge68" class="edge"><title>Node5&#45;&gt;Node24</title>
<path fill="none" stroke="midnightblue" d="M1349.43,-168.368C1355.74,-150.215 1378.09,-107.802 1393.49,-83.9902"/>
<polygon fill="midnightblue" stroke="midnightblue" points="1396.47,-85.829 1399.2,-75.5914 1390.68,-81.8933 1396.47,-85.829"/>
</g>
<!-- Node25 -->
<g id="node25" class="node"><title>Node25</title>
<g id="a_node25"><a xlink:href="a00040.html" target="_top" xlink:title="Project MD_APP scanner specific pin mappings. ">
<polygon fill="white" stroke="black" points="883.143,-56.5 883.143,-75.5 950.143,-75.5 950.143,-56.5 883.143,-56.5"/>
<text text-anchor="middle" x="916.643" y="-63.5" font-family="Helvetica,sans-Serif" font-size="10.00">mdb_gpio.h</text>
</a>
</g>
</g>
<!-- Node5&#45;&gt;Node25 -->
<g id="edge69" class="edge"><title>Node5&#45;&gt;Node25</title>
<path fill="none" stroke="midnightblue" d="M1325.38,-175.361C1279.06,-171.586 1172.47,-160.327 1087.64,-132 1069.17,-125.83 1066.58,-119.607 1048.64,-112 1017.91,-98.9626 981.99,-86.9147 955.386,-78.5727"/>
<polygon fill="midnightblue" stroke="midnightblue" points="956.264,-75.1807 945.676,-75.5626 954.191,-81.8667 956.264,-75.1807"/>
</g>
<!-- Node5&#45;&gt;Node27 -->
<g id="edge70" class="edge"><title>Node5&#45;&gt;Node27</title>
<path fill="none" stroke="midnightblue" d="M1371.91,-177.052C1437.52,-176.697 1621.9,-172.078 1663.64,-132 1675.91,-120.22 1678,-100.292 1677.58,-85.5992"/>
<polygon fill="midnightblue" stroke="midnightblue" points="1681.07,-85.3448 1676.9,-75.6062 1674.08,-85.8212 1681.07,-85.3448"/>
</g>
<!-- Node5&#45;&gt;Node29 -->
<g id="edge73" class="edge"><title>Node5&#45;&gt;Node29</title>
<path fill="none" stroke="midnightblue" d="M1371.87,-176.91C1445.97,-176.227 1675.52,-170.945 1736.64,-132 1753.53,-121.24 1764.42,-100.532 1770.51,-85.3708"/>
<polygon fill="midnightblue" stroke="midnightblue" points="1773.8,-86.545 1773.97,-75.9514 1767.23,-84.1302 1773.8,-86.545"/>
</g>
<!-- Node31 -->
<g id="node31" class="node"><title>Node31</title>
<g id="a_node31"><a xlink:href="a00047.html" target="_top" xlink:title="Provides DAC driven signal generator functions. ">
<polygon fill="white" stroke="black" points="1427.64,-112.5 1427.64,-131.5 1495.64,-131.5 1495.64,-112.5 1427.64,-112.5"/>
<text text-anchor="middle" x="1461.64" y="-119.5" font-family="Helvetica,sans-Serif" font-size="10.00">signalGen.h</text>
</a>
</g>
</g>
<!-- Node5&#45;&gt;Node31 -->
<g id="edge71" class="edge"><title>Node5&#45;&gt;Node31</title>
<path fill="none" stroke="midnightblue" d="M1366.55,-168.444C1384.9,-159.675 1413.65,-145.935 1434.74,-135.858"/>
<polygon fill="midnightblue" stroke="midnightblue" points="1436.31,-138.986 1443.82,-131.516 1433.29,-132.67 1436.31,-138.986"/>
</g>
<!-- Node10&#45;&gt;Node2 -->
<g id="edge13" class="edge"><title>Node10&#45;&gt;Node2</title>
<path fill="none" stroke="midnightblue" d="M788.146,-59.8955C901.544,-49.0766 1163.72,-24.0635 1262.27,-14.6612"/>
<polygon fill="midnightblue" stroke="midnightblue" points="1262.75,-18.1311 1272.37,-13.6971 1262.09,-11.1627 1262.75,-18.1311"/>
</g>
<!-- Node10&#45;&gt;Node11 -->
<g id="edge11" class="edge"><title>Node10&#45;&gt;Node11</title>
<path fill="none" stroke="midnightblue" d="M735.964,-56.083C737.024,-48.9272 738.549,-38.6353 739.874,-29.6911"/>
<polygon fill="midnightblue" stroke="midnightblue" points="743.343,-30.1561 741.347,-19.7511 736.419,-29.1302 743.343,-30.1561"/>
</g>
<!-- Node10&#45;&gt;Node12 -->
<g id="edge12" class="edge"><title>Node10&#45;&gt;Node12</title>
<path fill="none" stroke="midnightblue" d="M720.183,-56.324C706.144,-47.9002 684.595,-34.9709 668.1,-25.0741"/>
<polygon fill="midnightblue" stroke="midnightblue" points="669.443,-21.7983 659.067,-19.6545 665.842,-27.8007 669.443,-21.7983"/>
</g>
<!-- Node13&#45;&gt;Node2 -->
<g id="edge15" class="edge"><title>Node13&#45;&gt;Node2</title>
<path fill="none" stroke="midnightblue" d="M1040.19,-115.39C1103.68,-108.058 1205.12,-94.005 1238.64,-76 1259.81,-64.6343 1277.95,-43.4142 1289.04,-28.3128"/>
<polygon fill="midnightblue" stroke="midnightblue" points="1292.11,-30.0355 1295,-19.8435 1286.39,-26.0063 1292.11,-30.0355"/>
</g>
<!-- Node13&#45;&gt;Node11 -->
<g id="edge16" class="edge"><title>Node13&#45;&gt;Node11</title>
<path fill="none" stroke="midnightblue" d="M948.634,-112.473C918.499,-104.965 875.761,-92.6322 840.643,-76 811.334,-62.1191 780.667,-40.439 761.611,-25.9823"/>
<polygon fill="midnightblue" stroke="midnightblue" points="763.539,-23.0497 753.482,-19.717 759.266,-28.5939 763.539,-23.0497"/>
</g>
<!-- Node14 -->
<g id="node14" class="node"><title>Node14</title>
<g id="a_node14"><a xlink:href="a00035.html" target="_top" xlink:title="Provides generic methods for GPIO module initialization and manipulation. ">
<polygon fill="white" stroke="black" points="522.643,-56.5 522.643,-75.5 624.643,-75.5 624.643,-56.5 522.643,-56.5"/>
<text text-anchor="middle" x="573.643" y="-63.5" font-family="Helvetica,sans-Serif" font-size="10.00">md_stm32f4_gpio.h</text>
</a>
</g>
</g>
<!-- Node13&#45;&gt;Node14 -->
<g id="edge17" class="edge"><title>Node13&#45;&gt;Node14</title>
<path fill="none" stroke="midnightblue" d="M932.969,-114.211C864.597,-105.529 742.8,-89.9449 638.643,-76 637.373,-75.8299 636.089,-75.6574 634.794,-75.483"/>
<polygon fill="midnightblue" stroke="midnightblue" points="635.112,-71.9941 624.732,-74.118 634.171,-78.9306 635.112,-71.9941"/>
</g>
<!-- Node14&#45;&gt;Node11 -->
<g id="edge18" class="edge"><title>Node14&#45;&gt;Node11</title>
<path fill="none" stroke="midnightblue" d="M600.422,-56.4435C628.976,-47.3196 674.376,-32.8133 706.18,-22.6509"/>
<polygon fill="midnightblue" stroke="midnightblue" points="707.53,-25.8941 715.99,-19.5164 705.399,-19.2262 707.53,-25.8941"/>
</g>
<!-- Node15&#45;&gt;Node11 -->
<g id="edge20" class="edge"><title>Node15&#45;&gt;Node11</title>
<path fill="none" stroke="midnightblue" d="M228.714,-57.061C231.732,-56.6828 234.725,-56.3257 237.643,-56 438.164,-33.6243 492.767,-47.6884 696.706,-19.9561"/>
<polygon fill="midnightblue" stroke="midnightblue" points="697.418,-23.3911 706.847,-18.5596 696.463,-16.4565 697.418,-23.3911"/>
</g>
<!-- Node15&#45;&gt;Node12 -->
<g id="edge21" class="edge"><title>Node15&#45;&gt;Node12</title>
<path fill="none" stroke="midnightblue" d="M228.727,-57.1731C231.742,-56.7663 234.73,-56.3724 237.643,-56 363.506,-39.9116 511.707,-24.3825 589.915,-16.4535"/>
<polygon fill="midnightblue" stroke="midnightblue" points="590.421,-19.9203 600.018,-15.4321 589.716,-12.9559 590.421,-19.9203"/>
</g>
<!-- Node16&#45;&gt;Node2 -->
<g id="edge32" class="edge"><title>Node16&#45;&gt;Node2</title>
<path fill="none" stroke="midnightblue" d="M1200.31,-113.491C1226.13,-107.326 1256.16,-96.1611 1276.64,-76 1289.09,-63.7472 1295.14,-44.4855 1298.04,-30.1059"/>
<polygon fill="midnightblue" stroke="midnightblue" points="1301.56,-30.2884 1299.76,-19.8477 1294.66,-29.1326 1301.56,-30.2884"/>
</g>
<!-- Node16&#45;&gt;Node11 -->
<g id="edge23" class="edge"><title>Node16&#45;&gt;Node11</title>
<path fill="none" stroke="midnightblue" d="M1096.91,-114.767C1029.03,-106.205 913.826,-90.2446 873.643,-76 856.757,-70.0138 854.545,-64.2533 838.643,-56 816.281,-44.3939 790.388,-32.3345 771.133,-23.6243"/>
<polygon fill="midnightblue" stroke="midnightblue" points="772.546,-20.4224 761.99,-19.5147 769.676,-26.8071 772.546,-20.4224"/>
</g>
<!-- Node16&#45;&gt;Node12 -->
<g id="edge24" class="edge"><title>Node16&#45;&gt;Node12</title>
<path fill="none" stroke="midnightblue" d="M1096.96,-116.297C973.933,-105.08 673.772,-77.5701 671.643,-76 657.068,-65.2481 650.32,-45.1573 647.221,-30.146"/>
<polygon fill="midnightblue" stroke="midnightblue" points="650.606,-29.1747 645.493,-19.8956 643.704,-30.3382 650.606,-29.1747"/>
</g>
<!-- Node16&#45;&gt;Node14 -->
<g id="edge25" class="edge"><title>Node16&#45;&gt;Node14</title>
<path fill="none" stroke="midnightblue" d="M1097,-116.331C1081.46,-114.931 1064.36,-113.397 1048.64,-112 866.439,-95.8016 820.409,-96.5507 638.643,-76 637.37,-75.856 636.083,-75.7073 634.786,-75.5546"/>
<polygon fill="midnightblue" stroke="midnightblue" points="635.06,-72.062 624.708,-74.3161 634.206,-79.0098 635.06,-72.062"/>
</g>
<!-- Node17 -->
<g id="node17" class="node"><title>Node17</title>
<polygon fill="white" stroke="#bfbfbf" points="1052.14,-0.5 1052.14,-19.5 1141.14,-19.5 1141.14,-0.5 1052.14,-0.5"/>
<text text-anchor="middle" x="1096.64" y="-7.5" font-family="Helvetica,sans-Serif" font-size="10.00">stm32f4xx_tim.h</text>
</g>
<!-- Node16&#45;&gt;Node17 -->
<g id="edge26" class="edge"><title>Node16&#45;&gt;Node17</title>
<path fill="none" stroke="midnightblue" d="M1147.09,-112.233C1144.6,-99.4021 1139.01,-74.9762 1129.64,-56 1124.67,-45.9202 1117.42,-35.7332 1110.99,-27.6069"/>
<polygon fill="midnightblue" stroke="midnightblue" points="1113.53,-25.1898 1104.47,-19.7004 1108.13,-29.6427 1113.53,-25.1898"/>
</g>
<!-- Node18 -->
<g id="node18" class="node"><title>Node18</title>
<g id="a_node18"><a xlink:href="a00059_source.html" target="_top" xlink:title="tm_stm32f4_timer_properties.h">
<polygon fill="white" stroke="black" points="968.643,-56.5 968.643,-75.5 1120.64,-75.5 1120.64,-56.5 968.643,-56.5"/>
<text text-anchor="middle" x="1044.64" y="-63.5" font-family="Helvetica,sans-Serif" font-size="10.00">tm_stm32f4_timer_properties.h</text>
</a>
</g>
</g>
<!-- Node16&#45;&gt;Node18 -->
<g id="edge27" class="edge"><title>Node16&#45;&gt;Node18</title>
<path fill="none" stroke="midnightblue" d="M1131.93,-112.324C1115.33,-103.703 1089.64,-90.3643 1070.42,-80.3855"/>
<polygon fill="midnightblue" stroke="midnightblue" points="1071.8,-77.1565 1061.31,-75.6545 1068.57,-83.3689 1071.8,-77.1565"/>
</g>
<!-- Node18&#45;&gt;Node2 -->
<g id="edge31" class="edge"><title>Node18&#45;&gt;Node2</title>
<path fill="none" stroke="midnightblue" d="M1085.21,-56.4435C1133.94,-46.1645 1215.05,-29.0539 1262.62,-19.0198"/>
<polygon fill="midnightblue" stroke="midnightblue" points="1263.46,-22.4195 1272.53,-16.9308 1262.02,-15.5702 1263.46,-22.4195"/>
</g>
<!-- Node18&#45;&gt;Node11 -->
<g id="edge28" class="edge"><title>Node18&#45;&gt;Node11</title>
<path fill="none" stroke="midnightblue" d="M996.79,-56.4435C939.641,-46.2247 844.731,-29.2542 788.485,-19.1969"/>
<polygon fill="midnightblue" stroke="midnightblue" points="788.91,-15.7175 778.45,-17.4026 787.678,-22.6082 788.91,-15.7175"/>
</g>
<!-- Node18&#45;&gt;Node12 -->
<g id="edge29" class="edge"><title>Node18&#45;&gt;Node12</title>
<path fill="none" stroke="midnightblue" d="M972.421,-56.4717C904.415,-48.2502 799.448,-35.0698 699.158,-20.1819"/>
<polygon fill="midnightblue" stroke="midnightblue" points="699.563,-16.7037 689.156,-18.6891 698.53,-23.627 699.563,-16.7037"/>
</g>
<!-- Node18&#45;&gt;Node17 -->
<g id="edge30" class="edge"><title>Node18&#45;&gt;Node17</title>
<path fill="none" stroke="midnightblue" d="M1053.23,-56.083C1060.8,-48.2195 1072.02,-36.5688 1081.16,-27.0813"/>
<polygon fill="midnightblue" stroke="midnightblue" points="1083.8,-29.3821 1088.22,-19.7511 1078.76,-24.5266 1083.8,-29.3821"/>
</g>
<!-- Node19&#45;&gt;Node2 -->
<g id="edge40" class="edge"><title>Node19&#45;&gt;Node2</title>
<path fill="none" stroke="midnightblue" d="M464.702,-117.046C486.602,-115.42 512.357,-113.558 535.643,-112 799.538,-94.3492 871.074,-131.623 1129.64,-76 1182.54,-64.62 1240.77,-39.5972 1273.8,-24.1314"/>
<polygon fill="midnightblue" stroke="midnightblue" points="1275.68,-27.1149 1283.21,-19.6641 1272.68,-20.7915 1275.68,-27.1149"/>
</g>
<!-- Node19&#45;&gt;Node4 -->
<g id="edge34" class="edge"><title>Node19&#45;&gt;Node4</title>
<path fill="none" stroke="midnightblue" d="M360.619,-115.642C295.028,-108.498 178.951,-94.5667 80.6433,-76 79.3644,-75.7585 78.0633,-75.5008 76.7511,-75.231"/>
<polygon fill="midnightblue" stroke="midnightblue" points="77.1765,-71.7403 66.6555,-72.9892 75.659,-78.5739 77.1765,-71.7403"/>
</g>
<!-- Node19&#45;&gt;Node9 -->
<g id="edge39" class="edge"><title>Node19&#45;&gt;Node9</title>
<path fill="none" stroke="midnightblue" d="M422.123,-112.324C430.844,-104.341 443.987,-92.3128 454.541,-82.6529"/>
<polygon fill="midnightblue" stroke="midnightblue" points="456.978,-85.1674 461.991,-75.8339 452.252,-80.0036 456.978,-85.1674"/>
</g>
<!-- Node19&#45;&gt;Node11 -->
<g id="edge35" class="edge"><title>Node19&#45;&gt;Node11</title>
<path fill="none" stroke="midnightblue" d="M410.462,-112.481C407.474,-98.6107 404.011,-71.1729 418.643,-56 460.089,-13.0229 620.594,-28.5463 696.67,-19.7999"/>
<polygon fill="midnightblue" stroke="midnightblue" points="697.396,-23.2328 706.823,-18.396 696.438,-16.2988 697.396,-23.2328"/>
</g>
<!-- Node19&#45;&gt;Node12 -->
<g id="edge36" class="edge"><title>Node19&#45;&gt;Node12</title>
<path fill="none" stroke="midnightblue" d="M360.583,-120.98C283.543,-119.716 144.893,-112.304 113.643,-76 107.844,-69.2631 107.629,-62.5454 113.643,-56 145.412,-21.4255 460.697,-13.388 589.878,-11.5419"/>
<polygon fill="midnightblue" stroke="midnightblue" points="590.002,-15.0406 599.954,-11.4052 589.907,-8.04129 590.002,-15.0406"/>
</g>
<!-- Node19&#45;&gt;Node14 -->
<g id="edge37" class="edge"><title>Node19&#45;&gt;Node14</title>
<path fill="none" stroke="midnightblue" d="M438.154,-112.444C465.239,-103.359 508.233,-88.9388 538.512,-78.7831"/>
<polygon fill="midnightblue" stroke="midnightblue" points="539.884,-82.0148 548.252,-75.5164 537.658,-75.3781 539.884,-82.0148"/>
</g>
<!-- Node20 -->
<g id="node20" class="node"><title>Node20</title>
<polygon fill="white" stroke="#bfbfbf" points="246.643,-56.5 246.643,-75.5 344.643,-75.5 344.643,-56.5 246.643,-56.5"/>
<text text-anchor="middle" x="295.643" y="-63.5" font-family="Helvetica,sans-Serif" font-size="10.00">stm32f4xx_usart.h</text>
</g>
<!-- Node19&#45;&gt;Node20 -->
<g id="edge38" class="edge"><title>Node19&#45;&gt;Node20</title>
<path fill="none" stroke="midnightblue" d="M394.104,-112.444C375.02,-103.636 345.068,-89.8116 323.208,-79.722"/>
<polygon fill="midnightblue" stroke="midnightblue" points="324.642,-76.5292 314.096,-75.5164 321.708,-82.8849 324.642,-76.5292"/>
</g>
<!-- Node23&#45;&gt;Node1 -->
<g id="edge45" class="edge"><title>Node23&#45;&gt;Node1</title>
<path fill="none" stroke="midnightblue" d="M1617.82,-131.839C1605.12,-144.757 1574.36,-169.293 1546.64,-188 1529.75,-199.402 1509.91,-211.095 1493.48,-219.703"/>
<polygon fill="midnightblue" stroke="midnightblue" points="1491.58,-216.742 1484.25,-224.389 1494.75,-222.984 1491.58,-216.742"/>
</g>
<!-- Node23&#45;&gt;Node2 -->
<g id="edge46" class="edge"><title>Node23&#45;&gt;Node2</title>
<path fill="none" stroke="midnightblue" d="M1608.08,-112.463C1584.25,-98.8118 1535.11,-71.985 1490.64,-56 1439.4,-37.5798 1377.65,-24.5576 1338.76,-17.4122"/>
<polygon fill="midnightblue" stroke="midnightblue" points="1339.37,-13.9653 1328.9,-15.6377 1338.13,-20.8545 1339.37,-13.9653"/>
</g>
<!-- Node23&#45;&gt;Node6 -->
<g id="edge44" class="edge"><title>Node23&#45;&gt;Node6</title>
<path fill="none" stroke="midnightblue" d="M1620.34,-112.127C1617.05,-99.5738 1610.72,-75.9366 1604.64,-56 1601.94,-47.1272 1598.71,-37.3504 1595.94,-29.183"/>
<polygon fill="midnightblue" stroke="midnightblue" points="1599.2,-27.9093 1592.65,-19.5845 1592.58,-30.1791 1599.2,-27.9093"/>
</g>
<!-- Node23&#45;&gt;Node24 -->
<g id="edge47" class="edge"><title>Node23&#45;&gt;Node24</title>
<path fill="none" stroke="midnightblue" d="M1589.99,-112.799C1552.98,-103.504 1492.48,-88.3088 1451.41,-77.9928"/>
<polygon fill="midnightblue" stroke="midnightblue" points="1452.22,-74.5882 1441.67,-75.5467 1450.52,-81.3773 1452.22,-74.5882"/>
</g>
<!-- Node23&#45;&gt;Node25 -->
<g id="edge51" class="edge"><title>Node23&#45;&gt;Node25</title>
<path fill="none" stroke="midnightblue" d="M1590.09,-118.428C1566.4,-116.578 1533.54,-114.056 1504.64,-112 1265.82,-95.0047 1201.89,-108.565 960.507,-75.9099"/>
<polygon fill="midnightblue" stroke="midnightblue" points="960.748,-72.4104 950.366,-74.5252 959.801,-79.346 960.748,-72.4104"/>
</g>
<!-- Node23&#45;&gt;Node27 -->
<g id="edge55" class="edge"><title>Node23&#45;&gt;Node27</title>
<path fill="none" stroke="midnightblue" d="M1631.4,-112.083C1639.11,-104.22 1650.55,-92.5688 1659.86,-83.0813"/>
<polygon fill="midnightblue" stroke="midnightblue" points="1662.55,-85.3396 1667.05,-75.7511 1657.55,-80.4363 1662.55,-85.3396"/>
</g>
<!-- Node23&#45;&gt;Node29 -->
<g id="edge62" class="edge"><title>Node23&#45;&gt;Node29</title>
<path fill="none" stroke="midnightblue" d="M1647.05,-112.444C1672.84,-103.399 1713.72,-89.064 1742.66,-78.9158"/>
<polygon fill="midnightblue" stroke="midnightblue" points="1744.08,-82.1283 1752.36,-75.5164 1741.76,-75.5226 1744.08,-82.1283"/>
</g>
<!-- Node24&#45;&gt;Node1 -->
<g id="edge50" class="edge"><title>Node24&#45;&gt;Node1</title>
<path fill="none" stroke="midnightblue" d="M1408.44,-75.5576C1409.77,-88.1266 1412.85,-112.23 1418.64,-132 1427.5,-162.213 1442.83,-195.493 1452.59,-215.299"/>
<polygon fill="midnightblue" stroke="midnightblue" points="1449.52,-216.97 1457.13,-224.34 1455.77,-213.832 1449.52,-216.97"/>
</g>
<!-- Node24&#45;&gt;Node2 -->
<g id="edge49" class="edge"><title>Node24&#45;&gt;Node2</title>
<path fill="none" stroke="midnightblue" d="M1390.45,-56.324C1373.29,-47.6641 1346.7,-34.2424 1326.9,-24.249"/>
<polygon fill="midnightblue" stroke="midnightblue" points="1328.3,-21.0354 1317.79,-19.6545 1325.14,-27.2847 1328.3,-21.0354"/>
</g>
<!-- Node24&#45;&gt;Node5 -->
<g id="edge48" class="edge"><title>Node24&#45;&gt;Node5</title>
<path fill="none" stroke="midnightblue" d="M1406.87,-75.5914C1400.58,-93.7088 1378.24,-136.118 1362.83,-159.957"/>
<polygon fill="midnightblue" stroke="midnightblue" points="1359.84,-158.13 1357.12,-168.368 1365.63,-162.064 1359.84,-158.13"/>
</g>
<!-- Node25&#45;&gt;Node11 -->
<g id="edge52" class="edge"><title>Node25&#45;&gt;Node11</title>
<path fill="none" stroke="midnightblue" d="M889.072,-56.4435C859.546,-47.2801 812.525,-32.6876 779.761,-22.5192"/>
<polygon fill="midnightblue" stroke="midnightblue" points="780.673,-19.1378 770.085,-19.5164 778.598,-25.8232 780.673,-19.1378"/>
</g>
<!-- Node25&#45;&gt;Node12 -->
<g id="edge54" class="edge"><title>Node25&#45;&gt;Node12</title>
<path fill="none" stroke="midnightblue" d="M883.018,-58.3244C836.587,-49.1064 752.368,-32.3865 697.481,-21.4898"/>
<polygon fill="midnightblue" stroke="midnightblue" points="698.08,-18.0405 687.589,-19.5261 696.716,-24.9065 698.08,-18.0405"/>
</g>
<!-- Node26 -->
<g id="node26" class="node"><title>Node26</title>
<polygon fill="white" stroke="#bfbfbf" points="869.643,-0.5 869.643,-19.5 963.643,-19.5 963.643,-0.5 869.643,-0.5"/>
<text text-anchor="middle" x="916.643" y="-7.5" font-family="Helvetica,sans-Serif" font-size="10.00">stm32f4xx_gpio.h</text>
</g>
<!-- Node25&#45;&gt;Node26 -->
<g id="edge53" class="edge"><title>Node25&#45;&gt;Node26</title>
<path fill="none" stroke="midnightblue" d="M916.643,-56.083C916.643,-49.0059 916.643,-38.8611 916.643,-29.9865"/>
<polygon fill="midnightblue" stroke="midnightblue" points="920.143,-29.751 916.643,-19.7511 913.143,-29.7511 920.143,-29.751"/>
</g>
<!-- Node27&#45;&gt;Node2 -->
<g id="edge61" class="edge"><title>Node27&#45;&gt;Node2</title>
<path fill="none" stroke="midnightblue" d="M1656.53,-62.2479C1597.61,-53.7632 1417.97,-27.8952 1338.8,-16.4948"/>
<polygon fill="midnightblue" stroke="midnightblue" points="1339.16,-13.0107 1328.77,-15.0496 1338.16,-19.9393 1339.16,-13.0107"/>
</g>
<!-- Node27&#45;&gt;Node6 -->
<g id="edge57" class="edge"><title>Node27&#45;&gt;Node6</title>
<path fill="none" stroke="midnightblue" d="M1661.83,-56.324C1648.41,-47.9002 1627.82,-34.9709 1612.06,-25.0741"/>
<polygon fill="midnightblue" stroke="midnightblue" points="1613.76,-22.0081 1603.43,-19.6545 1610.03,-27.9364 1613.76,-22.0081"/>
</g>
<!-- Node27&#45;&gt;Node7 -->
<g id="edge56" class="edge"><title>Node27&#45;&gt;Node7</title>
<path fill="none" stroke="midnightblue" d="M1683.4,-56.083C1690.18,-48.2982 1700.19,-36.8015 1708.4,-27.3665"/>
<polygon fill="midnightblue" stroke="midnightblue" points="1711.1,-29.592 1715.03,-19.7511 1705.82,-24.9963 1711.1,-29.592"/>
</g>
<!-- Node27&#45;&gt;Node8 -->
<g id="edge58" class="edge"><title>Node27&#45;&gt;Node8</title>
<path fill="none" stroke="midnightblue" d="M1694.66,-59.6249C1726.75,-50.5501 1792.12,-32.0696 1832.38,-20.6875"/>
<polygon fill="midnightblue" stroke="midnightblue" points="1833.37,-24.0454 1842.04,-17.9568 1831.46,-17.3094 1833.37,-24.0454"/>
</g>
<!-- Node27&#45;&gt;Node11 -->
<g id="edge60" class="edge"><title>Node27&#45;&gt;Node11</title>
<path fill="none" stroke="midnightblue" d="M1656.38,-64.086C1566.4,-59.7846 1178.45,-40.8911 860.643,-20 836.75,-18.4294 810.156,-16.4236 788.272,-14.7043"/>
<polygon fill="midnightblue" stroke="midnightblue" points="788.504,-11.2118 778.259,-13.9119 787.952,-18.1899 788.504,-11.2118"/>
</g>
<!-- Node28 -->
<g id="node28" class="node"><title>Node28</title>
<polygon fill="white" stroke="#bfbfbf" points="1631.14,-0.5 1631.14,-19.5 1680.14,-19.5 1680.14,-0.5 1631.14,-0.5"/>
<text text-anchor="middle" x="1655.64" y="-7.5" font-family="Helvetica,sans-Serif" font-size="10.00">stdint.h</text>
</g>
<!-- Node27&#45;&gt;Node28 -->
<g id="edge59" class="edge"><title>Node27&#45;&gt;Node28</title>
<path fill="none" stroke="midnightblue" d="M1672.34,-56.083C1669.66,-48.8486 1665.79,-38.4087 1662.46,-29.3968"/>
<polygon fill="midnightblue" stroke="midnightblue" points="1665.64,-27.9129 1658.88,-19.7511 1659.08,-30.3442 1665.64,-27.9129"/>
</g>
<!-- Node29&#45;&gt;Node6 -->
<g id="edge63" class="edge"><title>Node29&#45;&gt;Node6</title>
<path fill="none" stroke="midnightblue" d="M1751.03,-57.6048C1717.66,-47.9677 1659.25,-31.101 1622.61,-20.5187"/>
<polygon fill="midnightblue" stroke="midnightblue" points="1623.46,-17.1237 1612.89,-17.7119 1621.52,-23.8489 1623.46,-17.1237"/>
</g>
<!-- Node29&#45;&gt;Node7 -->
<g id="edge65" class="edge"><title>Node29&#45;&gt;Node7</title>
<path fill="none" stroke="midnightblue" d="M1767.73,-56.083C1759.86,-48.2195 1748.21,-36.5688 1738.72,-27.0813"/>
<polygon fill="midnightblue" stroke="midnightblue" points="1740.94,-24.3473 1731.39,-19.7511 1735.99,-29.2971 1740.94,-24.3473"/>
</g>
<!-- Node29&#45;&gt;Node8 -->
<g id="edge64" class="edge"><title>Node29&#45;&gt;Node8</title>
<path fill="none" stroke="midnightblue" d="M1791.1,-56.324C1805.14,-47.9002 1826.69,-34.9709 1843.19,-25.0741"/>
<polygon fill="midnightblue" stroke="midnightblue" points="1845.44,-27.8007 1852.22,-19.6545 1841.84,-21.7983 1845.44,-27.8007"/>
</g>
<!-- Node30 -->
<g id="node30" class="node"><title>Node30</title>
<polygon fill="white" stroke="#bfbfbf" points="1765.14,-0.5 1765.14,-19.5 1824.14,-19.5 1824.14,-0.5 1765.14,-0.5"/>
<text text-anchor="middle" x="1794.64" y="-7.5" font-family="Helvetica,sans-Serif" font-size="10.00">inttypes.h</text>
</g>
<!-- Node29&#45;&gt;Node30 -->
<g id="edge66" class="edge"><title>Node29&#45;&gt;Node30</title>
<path fill="none" stroke="midnightblue" d="M1779.62,-56.083C1782.03,-48.8486 1785.51,-38.4087 1788.51,-29.3968"/>
<polygon fill="midnightblue" stroke="midnightblue" points="1791.88,-30.3447 1791.73,-19.7511 1785.24,-28.1311 1791.88,-30.3447"/>
</g>
<!-- Node31&#45;&gt;Node6 -->
<g id="edge72" class="edge"><title>Node31&#45;&gt;Node6</title>
<path fill="none" stroke="midnightblue" d="M1471.69,-112.368C1493.37,-93.7334 1544.81,-49.5324 1572.03,-26.1338"/>
<polygon fill="midnightblue" stroke="midnightblue" points="1574.34,-28.7636 1579.65,-19.5914 1569.78,-23.4546 1574.34,-28.7636"/>
</g>
<!-- Node32&#45;&gt;Node2 -->
<g id="edge76" class="edge"><title>Node32&#45;&gt;Node2</title>
<path fill="none" stroke="midnightblue" d="M644.732,-115.101C654.952,-113.991 665.638,-112.899 675.643,-112 792.115,-101.541 1089.73,-113.054 1200.64,-76 1217.45,-70.3858 1256.47,-43.2296 1280.5,-25.8421"/>
<polygon fill="midnightblue" stroke="midnightblue" points="1282.88,-28.4405 1288.9,-19.7218 1278.76,-22.7837 1282.88,-28.4405"/>
</g>
<!-- Node32&#45;&gt;Node11 -->
<g id="edge75" class="edge"><title>Node32&#45;&gt;Node11</title>
<path fill="none" stroke="midnightblue" d="M544.627,-117.752C484.043,-111.994 394.222,-96.4977 429.643,-56 467.35,-12.8897 622.799,-28.2456 696.554,-19.8067"/>
<polygon fill="midnightblue" stroke="midnightblue" points="697.397,-23.2232 706.82,-18.3791 696.433,-16.2899 697.397,-23.2232"/>
</g>
<!-- Node32&#45;&gt;Node14 -->
<g id="edge77" class="edge"><title>Node32&#45;&gt;Node14</title>
<path fill="none" stroke="midnightblue" d="M591.176,-112.083C588.332,-104.77 584.214,-94.1814 580.683,-85.1034"/>
<polygon fill="midnightblue" stroke="midnightblue" points="583.933,-83.8025 577.046,-75.7511 577.409,-86.3397 583.933,-83.8025"/>
</g>
</g>
</svg>
