<?xml version="1.0" encoding="UTF-8" standalone="no"?>
<!DOCTYPE svg PUBLIC "-//W3C//DTD SVG 1.1//EN"
 "http://www.w3.org/Graphics/SVG/1.1/DTD/svg11.dtd">
<!-- Generated by graphviz version 2.38.0 (20140413.2041)
 -->
<!-- Title: RTC_ExitInitMode Pages: 1 -->
<svg width="267pt" height="218pt"
 viewBox="0.00 0.00 267.00 218.00" xmlns="http://www.w3.org/2000/svg" xmlns:xlink="http://www.w3.org/1999/xlink">
<g id="graph0" class="graph" transform="scale(1 1) rotate(0) translate(4 214)">
<title>RTC_ExitInitMode</title>
<polygon fill="white" stroke="none" points="-4,4 -4,-214 263,-214 263,4 -4,4"/>
<!-- Node1 -->
<g id="node1" class="node"><title>Node1</title>
<polygon fill="#bfbfbf" stroke="black" points="0,-95.5 0,-114.5 98,-114.5 98,-95.5 0,-95.5"/>
<text text-anchor="middle" x="49" y="-102.5" font-family="Helvetica,sans-Serif" font-size="10.00">RTC_ExitInitMode</text>
</g>
<!-- Node2 -->
<g id="node2" class="node"><title>Node2</title>
<g id="a_node2"><a xlink:href="a01060.html#ga8eb747bf9698b2482ba6ef4d811de8e0" target="_top" xlink:title="Initializes the RTC registers according to the specified parameters in RTC_InitStruct. ">
<polygon fill="white" stroke="black" points="168.5,-190.5 168.5,-209.5 224.5,-209.5 224.5,-190.5 168.5,-190.5"/>
<text text-anchor="middle" x="196.5" y="-197.5" font-family="Helvetica,sans-Serif" font-size="10.00">RTC_Init</text>
</a>
</g>
</g>
<!-- Node1&#45;&gt;Node2 -->
<g id="edge1" class="edge"><title>Node1&#45;&gt;Node2</title>
<path fill="none" stroke="midnightblue" d="M64.8363,-122.254C80.4502,-139.41 106.534,-165.364 134,-181 144.586,-187.026 157.306,-191.365 168.425,-194.361"/>
<polygon fill="midnightblue" stroke="midnightblue" points="67.3119,-119.77 58.0521,-114.622 62.0802,-124.421 67.3119,-119.77"/>
</g>
<!-- Node3 -->
<g id="node3" class="node"><title>Node3</title>
<g id="a_node3"><a xlink:href="a01060.html#gaa60079ec257fb3a277d058ca8305533d" target="_top" xlink:title="Enables or disables the RTC reference clock detection. ">
<polygon fill="white" stroke="black" points="144,-152.5 144,-171.5 249,-171.5 249,-152.5 144,-152.5"/>
<text text-anchor="middle" x="196.5" y="-159.5" font-family="Helvetica,sans-Serif" font-size="10.00">RTC_RefClockCmd</text>
</a>
</g>
</g>
<!-- Node1&#45;&gt;Node3 -->
<g id="edge2" class="edge"><title>Node1&#45;&gt;Node3</title>
<path fill="none" stroke="midnightblue" d="M78.7608,-119.09C94.8097,-126.677 115.284,-135.907 134,-143 142.987,-146.406 152.876,-149.667 162.047,-152.497"/>
<polygon fill="midnightblue" stroke="midnightblue" points="79.9268,-115.768 69.3952,-114.612 76.9072,-122.083 79.9268,-115.768"/>
</g>
<!-- Node4 -->
<g id="node4" class="node"><title>Node4</title>
<g id="a_node4"><a xlink:href="a01061.html#ga9f9df80cfa82f7a4dd9f4d0cf2ffb3a6" target="_top" xlink:title="Set the RTC current time. ">
<polygon fill="white" stroke="black" points="156.5,-114.5 156.5,-133.5 236.5,-133.5 236.5,-114.5 156.5,-114.5"/>
<text text-anchor="middle" x="196.5" y="-121.5" font-family="Helvetica,sans-Serif" font-size="10.00">RTC_SetTime</text>
</a>
</g>
</g>
<!-- Node1&#45;&gt;Node4 -->
<g id="edge3" class="edge"><title>Node1&#45;&gt;Node4</title>
<path fill="none" stroke="midnightblue" d="M107.969,-112.57C124.168,-114.685 141.388,-116.934 156.23,-118.872"/>
<polygon fill="midnightblue" stroke="midnightblue" points="108.414,-109.098 98.0454,-111.274 107.508,-116.039 108.414,-109.098"/>
</g>
<!-- Node5 -->
<g id="node5" class="node"><title>Node5</title>
<g id="a_node5"><a xlink:href="a01061.html#ga69d08538147f3d89c818dcfabf50e362" target="_top" xlink:title="Set the RTC current date. ">
<polygon fill="white" stroke="black" points="157,-76.5 157,-95.5 236,-95.5 236,-76.5 157,-76.5"/>
<text text-anchor="middle" x="196.5" y="-83.5" font-family="Helvetica,sans-Serif" font-size="10.00">RTC_SetDate</text>
</a>
</g>
</g>
<!-- Node1&#45;&gt;Node5 -->
<g id="edge4" class="edge"><title>Node1&#45;&gt;Node5</title>
<path fill="none" stroke="midnightblue" d="M108.058,-97.4186C124.403,-95.2842 141.78,-93.015 156.701,-91.0665"/>
<polygon fill="midnightblue" stroke="midnightblue" points="107.508,-93.9606 98.0454,-98.726 108.414,-100.902 107.508,-93.9606"/>
</g>
<!-- Node6 -->
<g id="node6" class="node"><title>Node6</title>
<g id="a_node6"><a xlink:href="a01066.html#gaa3bb10170a2c70ac9ce3e41c611bdd43" target="_top" xlink:title="Configures the Coarse calibration parameters. ">
<polygon fill="white" stroke="black" points="134,-38.5 134,-57.5 259,-57.5 259,-38.5 134,-38.5"/>
<text text-anchor="middle" x="196.5" y="-45.5" font-family="Helvetica,sans-Serif" font-size="10.00">RTC_CoarseCalibConfig</text>
</a>
</g>
</g>
<!-- Node1&#45;&gt;Node6 -->
<g id="edge5" class="edge"><title>Node1&#45;&gt;Node6</title>
<path fill="none" stroke="midnightblue" d="M78.7608,-90.9104C94.8097,-83.3231 115.284,-74.0927 134,-67 142.987,-63.5944 152.876,-60.3327 162.047,-57.5025"/>
<polygon fill="midnightblue" stroke="midnightblue" points="76.9072,-87.9171 69.3952,-95.3885 79.9268,-94.2324 76.9072,-87.9171"/>
</g>
<!-- Node7 -->
<g id="node7" class="node"><title>Node7</title>
<g id="a_node7"><a xlink:href="a01066.html#ga008ae7173b2befe876f5e76686bc9089" target="_top" xlink:title="Enables or disables the Coarse calibration process. ">
<polygon fill="white" stroke="black" points="137.5,-0.5 137.5,-19.5 255.5,-19.5 255.5,-0.5 137.5,-0.5"/>
<text text-anchor="middle" x="196.5" y="-7.5" font-family="Helvetica,sans-Serif" font-size="10.00">RTC_CoarseCalibCmd</text>
</a>
</g>
</g>
<!-- Node1&#45;&gt;Node7 -->
<g id="edge6" class="edge"><title>Node1&#45;&gt;Node7</title>
<path fill="none" stroke="midnightblue" d="M64.8363,-87.7465C80.4502,-70.5902 106.534,-44.6361 134,-29 140.604,-25.2404 148.039,-22.1376 155.397,-19.6078"/>
<polygon fill="midnightblue" stroke="midnightblue" points="62.0802,-85.5788 58.0521,-95.3781 67.3119,-90.2296 62.0802,-85.5788"/>
</g>
</g>
</svg>
