<?xml version="1.0" encoding="UTF-8" standalone="no"?>
<!DOCTYPE svg PUBLIC "-//W3C//DTD SVG 1.1//EN"
 "http://www.w3.org/Graphics/SVG/1.1/DTD/svg11.dtd">
<!-- Generated by graphviz version 2.38.0 (20140413.2041)
 -->
<!-- Title: fastConsoleCase Pages: 1 -->
<svg width="233pt" height="66pt"
 viewBox="0.00 0.00 233.00 66.00" xmlns="http://www.w3.org/2000/svg" xmlns:xlink="http://www.w3.org/1999/xlink">
<g id="graph0" class="graph" transform="scale(1 1) rotate(0) translate(4 62)">
<title>fastConsoleCase</title>
<polygon fill="white" stroke="none" points="-4,4 -4,-62 229,-62 229,4 -4,4"/>
<!-- Node1 -->
<g id="node1" class="node"><title>Node1</title>
<polygon fill="#bfbfbf" stroke="black" points="0,-19.5 0,-38.5 92,-38.5 92,-19.5 0,-19.5"/>
<text text-anchor="middle" x="46" y="-26.5" font-family="Helvetica,sans-Serif" font-size="10.00">fastConsoleCase</text>
</g>
<!-- Node2 -->
<g id="node2" class="node"><title>Node2</title>
<g id="a_node2"><a xlink:href="a00067.html#gabb0a95fd20e5e2a894e658b64a29ee61" target="_top" xlink:title="Gets string from USART. ">
<polygon fill="white" stroke="black" points="128,-38.5 128,-57.5 225,-57.5 225,-38.5 128,-38.5"/>
<text text-anchor="middle" x="176.5" y="-45.5" font-family="Helvetica,sans-Serif" font-size="10.00">TM_USART_Gets</text>
</a>
</g>
</g>
<!-- Node1&#45;&gt;Node2 -->
<g id="edge1" class="edge"><title>Node1&#45;&gt;Node2</title>
<path fill="none" stroke="midnightblue" d="M92.3043,-35.6987C100.614,-36.9274 109.388,-38.2247 117.998,-39.4978"/>
<polygon fill="midnightblue" stroke="midnightblue" points="117.589,-42.9753 127.994,-40.9757 118.613,-36.0506 117.589,-42.9753"/>
</g>
<!-- Node3 -->
<g id="node3" class="node"><title>Node3</title>
<g id="a_node3"><a xlink:href="a00133.html#ga3471071fc0b691d5ea05997762e9171c" target="_top" xlink:title="Signal generator Integer array pointer. ">
<polygon fill="white" stroke="black" points="140,-0.5 140,-19.5 213,-19.5 213,-0.5 140,-0.5"/>
<text text-anchor="middle" x="176.5" y="-7.5" font-family="Helvetica,sans-Serif" font-size="10.00">__attribute__</text>
</a>
</g>
</g>
<!-- Node1&#45;&gt;Node3 -->
<g id="edge2" class="edge"><title>Node1&#45;&gt;Node3</title>
<path fill="none" stroke="midnightblue" d="M92.3043,-22.3013C104.498,-20.4984 117.691,-18.5476 129.901,-16.7423"/>
<polygon fill="midnightblue" stroke="midnightblue" points="130.501,-20.1917 139.882,-15.2665 129.477,-13.267 130.501,-20.1917"/>
</g>
</g>
</svg>
