<?xml version="1.0" encoding="UTF-8" standalone="no"?>
<!DOCTYPE svg PUBLIC "-//W3C//DTD SVG 1.1//EN"
 "http://www.w3.org/Graphics/SVG/1.1/DTD/svg11.dtd">
<!-- Generated by graphviz version 2.38.0 (20140413.2041)
 -->
<!-- Title: RCC_GetFlagStatus Pages: 1 -->
<svg width="484pt" height="28pt"
 viewBox="0.00 0.00 484.00 28.00" xmlns="http://www.w3.org/2000/svg" xmlns:xlink="http://www.w3.org/1999/xlink">
<g id="graph0" class="graph" transform="scale(1 1) rotate(0) translate(4 24)">
<title>RCC_GetFlagStatus</title>
<polygon fill="white" stroke="none" points="-4,4 -4,-24 480,-24 480,4 -4,4"/>
<!-- Node1 -->
<g id="node1" class="node"><title>Node1</title>
<polygon fill="#bfbfbf" stroke="black" points="0,-0.5 0,-19.5 107,-19.5 107,-0.5 0,-0.5"/>
<text text-anchor="middle" x="53.5" y="-7.5" font-family="Helvetica,sans-Serif" font-size="10.00">RCC_GetFlagStatus</text>
</g>
<!-- Node2 -->
<g id="node2" class="node"><title>Node2</title>
<g id="a_node2"><a xlink:href="a01054.html#gae0f15692614dd048ee4110a056f001dc" target="_top" xlink:title="Waits for HSE start&#45;up. ">
<polygon fill="white" stroke="black" points="143,-0.5 143,-19.5 277,-19.5 277,-0.5 143,-0.5"/>
<text text-anchor="middle" x="210" y="-7.5" font-family="Helvetica,sans-Serif" font-size="10.00">RCC_WaitForHSEStartUp</text>
</a>
</g>
</g>
<!-- Node1&#45;&gt;Node2 -->
<g id="edge1" class="edge"><title>Node1&#45;&gt;Node2</title>
<path fill="none" stroke="midnightblue" d="M117.342,-10C125.744,-10 134.381,-10 142.838,-10"/>
<polygon fill="midnightblue" stroke="midnightblue" points="117.238,-6.5001 107.238,-10 117.238,-13.5001 117.238,-6.5001"/>
</g>
<!-- Node3 -->
<g id="node3" class="node"><title>Node3</title>
<g id="a_node3"><a xlink:href="a00460.html#a6fedd7fae01484a6b99876a58703b27e" target="_top" xlink:title="MD_DELAY_Init">
<polygon fill="white" stroke="black" points="313,-0.5 313,-19.5 402,-19.5 402,-0.5 313,-0.5"/>
<text text-anchor="middle" x="357.5" y="-7.5" font-family="Helvetica,sans-Serif" font-size="10.00">MD_DELAY_Init</text>
</a>
</g>
</g>
<!-- Node2&#45;&gt;Node3 -->
<g id="edge2" class="edge"><title>Node2&#45;&gt;Node3</title>
<path fill="none" stroke="midnightblue" d="M287.508,-10C296.146,-10 304.714,-10 312.722,-10"/>
<polygon fill="midnightblue" stroke="midnightblue" points="287.363,-6.5001 277.363,-10 287.363,-13.5001 287.363,-6.5001"/>
</g>
<!-- Node4 -->
<g id="node4" class="node"><title>Node4</title>
<g id="a_node4"><a xlink:href="a01287.html#ga840291bc02cba5474a4cb46a9b9566fe" target="_top" xlink:title="Main function entry. ">
<polygon fill="white" stroke="black" points="438,-0.5 438,-19.5 476,-19.5 476,-0.5 438,-0.5"/>
<text text-anchor="middle" x="457" y="-7.5" font-family="Helvetica,sans-Serif" font-size="10.00">main</text>
</a>
</g>
</g>
<!-- Node3&#45;&gt;Node4 -->
<g id="edge3" class="edge"><title>Node3&#45;&gt;Node4</title>
<path fill="none" stroke="midnightblue" d="M412.171,-10C421.409,-10 430.409,-10 437.825,-10"/>
<polygon fill="midnightblue" stroke="midnightblue" points="412.117,-6.5001 402.117,-10 412.117,-13.5001 412.117,-6.5001"/>
</g>
</g>
</svg>
