<?xml version="1.0" encoding="UTF-8" standalone="no"?>
<!DOCTYPE svg PUBLIC "-//W3C//DTD SVG 1.1//EN"
 "http://www.w3.org/Graphics/SVG/1.1/DTD/svg11.dtd">
<!-- Generated by graphviz version 2.38.0 (20140413.2041)
 -->
<!-- Title: main.c Pages: 1 -->
<svg width="2135pt" height="364pt"
 viewBox="0.00 0.00 2134.50 364.00" xmlns="http://www.w3.org/2000/svg" xmlns:xlink="http://www.w3.org/1999/xlink">
<g id="graph0" class="graph" transform="scale(1 1) rotate(0) translate(4 360)">
<title>main.c</title>
<polygon fill="white" stroke="none" points="-4,4 -4,-360 2130.5,-360 2130.5,4 -4,4"/>
<!-- Node1 -->
<g id="node1" class="node"><title>Node1</title>
<polygon fill="#bfbfbf" stroke="black" points="695,-336.5 695,-355.5 741,-355.5 741,-336.5 695,-336.5"/>
<text text-anchor="middle" x="718" y="-343.5" font-family="Helvetica,sans-Serif" font-size="10.00">main.c</text>
</g>
<!-- Node2 -->
<g id="node2" class="node"><title>Node2</title>
<g id="a_node2"><a xlink:href="a00025.html" target="_top" xlink:title="Main header definition. ">
<polygon fill="white" stroke="black" points="654,-280.5 654,-299.5 700,-299.5 700,-280.5 654,-280.5"/>
<text text-anchor="middle" x="677" y="-287.5" font-family="Helvetica,sans-Serif" font-size="10.00">main.h</text>
</a>
</g>
</g>
<!-- Node1&#45;&gt;Node2 -->
<g id="edge1" class="edge"><title>Node1&#45;&gt;Node2</title>
<path fill="none" stroke="midnightblue" d="M711.23,-336.083C705.438,-328.455 696.942,-317.264 689.862,-307.941"/>
<polygon fill="midnightblue" stroke="midnightblue" points="692.479,-305.599 683.644,-299.751 686.904,-309.832 692.479,-305.599"/>
</g>
<!-- Node38 -->
<g id="node38" class="node"><title>Node38</title>
<g id="a_node38"><a xlink:href="a00015.html" target="_top" xlink:title="Table 29. Thumb architecture versions in relation to ARM architecture versions ">
<polygon fill="white" stroke="black" points="718,-280.5 718,-299.5 802,-299.5 802,-280.5 718,-280.5"/>
<text text-anchor="middle" x="760" y="-287.5" font-family="Helvetica,sans-Serif" font-size="10.00">arm_architect.h</text>
</a>
</g>
</g>
<!-- Node1&#45;&gt;Node38 -->
<g id="edge88" class="edge"><title>Node1&#45;&gt;Node38</title>
<path fill="none" stroke="midnightblue" d="M724.935,-336.083C730.929,-328.377 739.752,-317.033 747.048,-307.653"/>
<polygon fill="midnightblue" stroke="midnightblue" points="749.817,-309.793 753.194,-299.751 744.291,-305.496 749.817,-309.793"/>
</g>
<!-- Node3 -->
<g id="node3" class="node"><title>Node3</title>
<polygon fill="white" stroke="#bfbfbf" points="39,-0.5 39,-19.5 85,-19.5 85,-0.5 39,-0.5"/>
<text text-anchor="middle" x="62" y="-7.5" font-family="Helvetica,sans-Serif" font-size="10.00">stdio.h</text>
</g>
<!-- Node2&#45;&gt;Node3 -->
<g id="edge2" class="edge"><title>Node2&#45;&gt;Node3</title>
<path fill="none" stroke="midnightblue" d="M653.78,-288.986C557.763,-288.662 191.781,-284.725 85,-244 40.5644,-227.053 0,-226.558 0,-179 0,-179 0,-179 0,-121 0,-83.6216 27.5043,-47.2368 45.8746,-27.1037"/>
<polygon fill="midnightblue" stroke="midnightblue" points="48.5095,-29.4116 52.8517,-19.7474 43.4306,-24.5945 48.5095,-29.4116"/>
</g>
<!-- Node4 -->
<g id="node4" class="node"><title>Node4</title>
<polygon fill="white" stroke="#bfbfbf" points="103,-0.5 103,-19.5 151,-19.5 151,-0.5 103,-0.5"/>
<text text-anchor="middle" x="127" y="-7.5" font-family="Helvetica,sans-Serif" font-size="10.00">stdlib.h</text>
</g>
<!-- Node2&#45;&gt;Node4 -->
<g id="edge3" class="edge"><title>Node2&#45;&gt;Node4</title>
<path fill="none" stroke="midnightblue" d="M653.828,-288.288C563.287,-285.307 236.625,-272.634 201,-244 133.745,-189.943 126.641,-74.7974 126.566,-29.6827"/>
<polygon fill="midnightblue" stroke="midnightblue" points="130.067,-29.6156 126.672,-19.5797 123.068,-29.5426 130.067,-29.6156"/>
</g>
<!-- Node5 -->
<g id="node5" class="node"><title>Node5</title>
<polygon fill="white" stroke="#bfbfbf" points="246.5,-0.5 246.5,-19.5 295.5,-19.5 295.5,-0.5 246.5,-0.5"/>
<text text-anchor="middle" x="271" y="-7.5" font-family="Helvetica,sans-Serif" font-size="10.00">string.h</text>
</g>
<!-- Node2&#45;&gt;Node5 -->
<g id="edge4" class="edge"><title>Node2&#45;&gt;Node5</title>
<path fill="none" stroke="midnightblue" d="M653.934,-287.538C593.884,-283.398 434.229,-270.164 389,-244 357.752,-225.924 273.904,-95.2151 268,-76 263.381,-60.9665 264.673,-43.0607 266.813,-29.8529"/>
<polygon fill="midnightblue" stroke="midnightblue" points="270.325,-30.1279 268.785,-19.6455 263.452,-28.8002 270.325,-30.1279"/>
</g>
<!-- Node6 -->
<g id="node6" class="node"><title>Node6</title>
<polygon fill="white" stroke="#bfbfbf" points="1692,-224.5 1692,-243.5 1760,-243.5 1760,-224.5 1692,-224.5"/>
<text text-anchor="middle" x="1726" y="-231.5" font-family="Helvetica,sans-Serif" font-size="10.00">stdint&#45;gcc.h</text>
</g>
<!-- Node2&#45;&gt;Node6 -->
<g id="edge5" class="edge"><title>Node2&#45;&gt;Node6</title>
<path fill="none" stroke="midnightblue" d="M700.277,-281.765C703.192,-281.063 706.149,-280.447 709,-280 1134.75,-213.191 1249.7,-291.842 1678,-244 1679.26,-243.86 1680.53,-243.705 1681.81,-243.539"/>
<polygon fill="midnightblue" stroke="midnightblue" points="1682.37,-246.994 1691.74,-242.061 1681.34,-240.071 1682.37,-246.994"/>
</g>
<!-- Node7 -->
<g id="node7" class="node"><title>Node7</title>
<g id="a_node7"><a xlink:href="a00016.html" target="_top" xlink:title="Platform/Compiler dependent definitions. ">
<polygon fill="white" stroke="black" points="2061.5,-56.5 2061.5,-75.5 2126.5,-75.5 2126.5,-56.5 2061.5,-56.5"/>
<text text-anchor="middle" x="2094" y="-63.5" font-family="Helvetica,sans-Serif" font-size="10.00">attributes.h</text>
</a>
</g>
</g>
<!-- Node2&#45;&gt;Node7 -->
<g id="edge6" class="edge"><title>Node2&#45;&gt;Node7</title>
<path fill="none" stroke="midnightblue" d="M700.282,-281.793C703.195,-281.087 706.152,-280.462 709,-280 1042.8,-225.875 1133.63,-287.355 1469,-244 1587.52,-228.678 1615.3,-213.76 1732,-188 1841.07,-163.924 1872.7,-171.965 1977,-132 2012.28,-118.482 2049.94,-95.9139 2072.73,-81.2455"/>
<polygon fill="midnightblue" stroke="midnightblue" points="2074.8,-84.0755 2081.26,-75.6767 2070.97,-78.2149 2074.8,-84.0755"/>
</g>
<!-- Node8 -->
<g id="node8" class="node"><title>Node8</title>
<g id="a_node8"><a xlink:href="a00019.html" target="_top" xlink:title="Global defines include file. ">
<polygon fill="white" stroke="black" points="706,-0.5 706,-19.5 762,-19.5 762,-0.5 706,-0.5"/>
<text text-anchor="middle" x="734" y="-7.5" font-family="Helvetica,sans-Serif" font-size="10.00">globals.h</text>
</a>
</g>
</g>
<!-- Node2&#45;&gt;Node8 -->
<g id="edge7" class="edge"><title>Node2&#45;&gt;Node8</title>
<path fill="none" stroke="midnightblue" d="M677,-280.442C677,-261.936 677,-216.812 677,-179 677,-179 677,-179 677,-121 677,-84.3005 702.321,-47.6567 719.21,-27.2973"/>
<polygon fill="midnightblue" stroke="midnightblue" points="721.954,-29.475 725.833,-19.6161 716.652,-24.9037 721.954,-29.475"/>
</g>
<!-- Node9 -->
<g id="node9" class="node"><title>Node9</title>
<g id="a_node9"><a xlink:href="a00031.html" target="_top" xlink:title="Provides SysTick&#45;Timer driven delay functions. ">
<polygon fill="white" stroke="black" points="895.5,-56.5 895.5,-75.5 1002.5,-75.5 1002.5,-56.5 895.5,-56.5"/>
<text text-anchor="middle" x="949" y="-63.5" font-family="Helvetica,sans-Serif" font-size="10.00">md_stm32f4_delay.h</text>
</a>
</g>
</g>
<!-- Node2&#45;&gt;Node9 -->
<g id="edge8" class="edge"><title>Node2&#45;&gt;Node9</title>
<path fill="none" stroke="midnightblue" d="M687.663,-280.297C728.88,-246.657 878.088,-124.877 930.579,-82.0348"/>
<polygon fill="midnightblue" stroke="midnightblue" points="932.877,-84.6771 938.411,-75.6425 928.451,-79.2541 932.877,-84.6771"/>
</g>
<!-- Node12 -->
<g id="node12" class="node"><title>Node12</title>
<g id="a_node12"><a xlink:href="a00033.html" target="_top" xlink:title="Definitions to extend board support for STM32F429i&#45;DISCO and equivalent boards. ">
<polygon fill="white" stroke="black" points="1497.5,-112.5 1497.5,-131.5 1604.5,-131.5 1604.5,-112.5 1497.5,-112.5"/>
<text text-anchor="middle" x="1551" y="-119.5" font-family="Helvetica,sans-Serif" font-size="10.00">md_stm32f4_disco.h</text>
</a>
</g>
</g>
<!-- Node2&#45;&gt;Node12 -->
<g id="edge12" class="edge"><title>Node2&#45;&gt;Node12</title>
<path fill="none" stroke="midnightblue" d="M700.311,-281.958C703.219,-281.223 706.167,-280.547 709,-280 856.034,-251.629 896.429,-269.432 1044,-244 1134.84,-228.345 1402.16,-160.983 1507.56,-134.121"/>
<polygon fill="midnightblue" stroke="midnightblue" points="1508.72,-137.438 1517.54,-131.575 1506.99,-130.656 1508.72,-137.438"/>
</g>
<!-- Node14 -->
<g id="node14" class="node"><title>Node14</title>
<g id="a_node14"><a xlink:href="a00037_source.html" target="_top" xlink:title="md_stm32f4_timer.h">
<polygon fill="white" stroke="black" points="1267,-56.5 1267,-75.5 1373,-75.5 1373,-56.5 1267,-56.5"/>
<text text-anchor="middle" x="1320" y="-63.5" font-family="Helvetica,sans-Serif" font-size="10.00">md_stm32f4_timer.h</text>
</a>
</g>
</g>
<!-- Node2&#45;&gt;Node14 -->
<g id="edge17" class="edge"><title>Node2&#45;&gt;Node14</title>
<path fill="none" stroke="midnightblue" d="M692.725,-280.327C745.147,-251.782 919.368,-159.86 1074,-112 1107.3,-101.694 1195.6,-86.6141 1256.81,-76.8026"/>
<polygon fill="midnightblue" stroke="midnightblue" points="1257.44,-80.246 1266.76,-75.2147 1256.34,-73.3334 1257.44,-80.246"/>
</g>
<!-- Node15 -->
<g id="node15" class="node"><title>Node15</title>
<g id="a_node15"><a xlink:href="a00059_source.html" target="_top" xlink:title="tm_stm32f4_pwm.h">
<polygon fill="white" stroke="black" points="1083.5,-112.5 1083.5,-131.5 1186.5,-131.5 1186.5,-112.5 1083.5,-112.5"/>
<text text-anchor="middle" x="1135" y="-119.5" font-family="Helvetica,sans-Serif" font-size="10.00">tm_stm32f4_pwm.h</text>
</a>
</g>
</g>
<!-- Node2&#45;&gt;Node15 -->
<g id="edge20" class="edge"><title>Node2&#45;&gt;Node15</title>
<path fill="none" stroke="midnightblue" d="M700.316,-281.987C703.224,-281.247 706.17,-280.561 709,-280 842.888,-253.441 891.178,-303.549 1014,-244 1063.5,-220.001 1104.7,-167.415 1123.7,-140.152"/>
<polygon fill="midnightblue" stroke="midnightblue" points="1126.75,-141.892 1129.48,-131.653 1120.96,-137.957 1126.75,-141.892"/>
</g>
<!-- Node18 -->
<g id="node18" class="node"><title>Node18</title>
<g id="a_node18"><a xlink:href="a00065_source.html" target="_top" xlink:title="tm_stm32f4_usart.h">
<polygon fill="white" stroke="black" points="1765,-112.5 1765,-131.5 1869,-131.5 1869,-112.5 1765,-112.5"/>
<text text-anchor="middle" x="1817" y="-119.5" font-family="Helvetica,sans-Serif" font-size="10.00">tm_stm32f4_usart.h</text>
</a>
</g>
</g>
<!-- Node2&#45;&gt;Node18 -->
<g id="edge31" class="edge"><title>Node2&#45;&gt;Node18</title>
<path fill="none" stroke="midnightblue" d="M700.303,-281.914C703.213,-281.187 706.162,-280.524 709,-280 881.916,-248.062 928.632,-266.707 1103,-244 1351.34,-211.66 1645.5,-156.389 1763.82,-133.452"/>
<polygon fill="midnightblue" stroke="midnightblue" points="1764.56,-136.874 1773.71,-131.531 1763.23,-130.002 1764.56,-136.874"/>
</g>
<!-- Node21 -->
<g id="node21" class="node"><title>Node21</title>
<polygon fill="white" stroke="#bfbfbf" points="1778,-224.5 1778,-243.5 1846,-243.5 1846,-224.5 1778,-224.5"/>
<text text-anchor="middle" x="1812" y="-231.5" font-family="Helvetica,sans-Serif" font-size="10.00">core_cm4.h</text>
</g>
<!-- Node2&#45;&gt;Node21 -->
<g id="edge39" class="edge"><title>Node2&#45;&gt;Node21</title>
<path fill="none" stroke="midnightblue" d="M700.276,-281.756C703.19,-281.056 706.149,-280.443 709,-280 1171.5,-208.179 1299.21,-299.188 1767.75,-243.913"/>
<polygon fill="midnightblue" stroke="midnightblue" points="1768.31,-247.371 1777.82,-242.708 1767.48,-240.421 1768.31,-247.371"/>
</g>
<!-- Node22 -->
<g id="node22" class="node"><title>Node22</title>
<polygon fill="white" stroke="#bfbfbf" points="1864,-224.5 1864,-243.5 1932,-243.5 1932,-224.5 1864,-224.5"/>
<text text-anchor="middle" x="1898" y="-231.5" font-family="Helvetica,sans-Serif" font-size="10.00">arm_math.h</text>
</g>
<!-- Node2&#45;&gt;Node22 -->
<g id="edge40" class="edge"><title>Node2&#45;&gt;Node22</title>
<path fill="none" stroke="midnightblue" d="M700.275,-281.749C703.189,-281.05 706.148,-280.439 709,-280 1209.33,-202.957 1347.2,-303.092 1853.69,-243.915"/>
<polygon fill="midnightblue" stroke="midnightblue" points="1854.3,-247.367 1863.82,-242.716 1853.48,-240.416 1854.3,-247.367"/>
</g>
<!-- Node23 -->
<g id="node23" class="node"><title>Node23</title>
<g id="a_node23"><a xlink:href="a00012.html" target="_top" xlink:title="Controlling beam and primary actuators. ">
<polygon fill="white" stroke="black" points="427.5,-224.5 427.5,-243.5 492.5,-243.5 492.5,-224.5 427.5,-224.5"/>
<text text-anchor="middle" x="460" y="-231.5" font-family="Helvetica,sans-Serif" font-size="10.00">actuators.h</text>
</a>
</g>
</g>
<!-- Node2&#45;&gt;Node23 -->
<g id="edge41" class="edge"><title>Node2&#45;&gt;Node23</title>
<path fill="none" stroke="midnightblue" d="M653.777,-283.221C617.692,-274.241 547.61,-256.802 502.355,-245.54"/>
<polygon fill="midnightblue" stroke="midnightblue" points="503.088,-242.116 492.538,-243.097 501.397,-248.908 503.088,-242.116"/>
</g>
<!-- Node24 -->
<g id="node24" class="node"><title>Node24</title>
<g id="a_node24"><a xlink:href="a00014.html" target="_top" xlink:title="Provides DMA related configuration and access functions for ADC and DAC. ">
<polygon fill="white" stroke="black" points="487,-112.5 487,-131.5 573,-131.5 573,-112.5 487,-112.5"/>
<text text-anchor="middle" x="530" y="-119.5" font-family="Helvetica,sans-Serif" font-size="10.00">adc_dac_dma.h</text>
</a>
</g>
</g>
<!-- Node2&#45;&gt;Node24 -->
<g id="edge76" class="edge"><title>Node2&#45;&gt;Node24</title>
<path fill="none" stroke="midnightblue" d="M657.694,-280.328C629.805,-264.603 579.457,-229.174 549,-188 538.61,-173.954 531.124,-155.459 528.063,-141.79"/>
<polygon fill="midnightblue" stroke="midnightblue" points="531.489,-141.029 526.566,-131.647 524.564,-142.051 531.489,-141.029"/>
</g>
<!-- Node26 -->
<g id="node26" class="node"><title>Node26</title>
<g id="a_node26"><a xlink:href="a00048.html" target="_top" xlink:title="PID compensator implementation. ">
<polygon fill="white" stroke="black" points="277,-56.5 277,-75.5 315,-75.5 315,-56.5 277,-56.5"/>
<text text-anchor="middle" x="296" y="-63.5" font-family="Helvetica,sans-Serif" font-size="10.00">pid.h</text>
</a>
</g>
</g>
<!-- Node2&#45;&gt;Node26 -->
<g id="edge84" class="edge"><title>Node2&#45;&gt;Node26</title>
<path fill="none" stroke="midnightblue" d="M653.723,-287.259C597.701,-282.708 457.104,-269.046 418,-244 356.501,-204.61 317.737,-122.019 302.884,-85.2871"/>
<polygon fill="midnightblue" stroke="midnightblue" points="306.089,-83.8727 299.186,-75.8356 299.571,-86.4235 306.089,-83.8727"/>
</g>
<!-- Node30 -->
<g id="node30" class="node"><title>Node30</title>
<g id="a_node30"><a xlink:href="a00021.html" target="_top" xlink:title="Provides tools and helper functions. ">
<polygon fill="white" stroke="black" points="169.5,-56.5 169.5,-75.5 220.5,-75.5 220.5,-56.5 169.5,-56.5"/>
<text text-anchor="middle" x="195" y="-63.5" font-family="Helvetica,sans-Serif" font-size="10.00">helper.h</text>
</a>
</g>
</g>
<!-- Node2&#45;&gt;Node30 -->
<g id="edge87" class="edge"><title>Node2&#45;&gt;Node30</title>
<path fill="none" stroke="midnightblue" d="M653.952,-288.381C565.427,-285.785 250.604,-274.46 219,-244 175.683,-202.25 184.237,-122.127 190.92,-85.7684"/>
<polygon fill="midnightblue" stroke="midnightblue" points="194.423,-86.0983 192.956,-75.6056 187.559,-84.7232 194.423,-86.0983"/>
</g>
<!-- Node32 -->
<g id="node32" class="node"><title>Node32</title>
<g id="a_node32"><a xlink:href="a00023.html" target="_top" xlink:title="Analog processing related callback handler definition. ">
<polygon fill="white" stroke="black" points="567,-168.5 567,-187.5 649,-187.5 649,-168.5 567,-168.5"/>
<text text-anchor="middle" x="608" y="-175.5" font-family="Helvetica,sans-Serif" font-size="10.00">irq_callbacks.h</text>
</a>
</g>
</g>
<!-- Node2&#45;&gt;Node32 -->
<g id="edge82" class="edge"><title>Node2&#45;&gt;Node32</title>
<path fill="none" stroke="midnightblue" d="M667.743,-280.368C653.063,-262.376 626.404,-220.55 613.947,-196.627"/>
<polygon fill="midnightblue" stroke="midnightblue" points="617.074,-195.054 609.554,-187.591 610.779,-198.115 617.074,-195.054"/>
</g>
<!-- Node33 -->
<g id="node33" class="node"><title>Node33</title>
<g id="a_node33"><a xlink:href="a00042_source.html" target="_top" xlink:title="mdb_gpio.h">
<polygon fill="white" stroke="black" points="718.5,-168.5 718.5,-187.5 785.5,-187.5 785.5,-168.5 718.5,-168.5"/>
<text text-anchor="middle" x="752" y="-175.5" font-family="Helvetica,sans-Serif" font-size="10.00">mdb_gpio.h</text>
</a>
</g>
</g>
<!-- Node2&#45;&gt;Node33 -->
<g id="edge83" class="edge"><title>Node2&#45;&gt;Node33</title>
<path fill="none" stroke="midnightblue" d="M682.885,-280.368C695.262,-262.215 724.181,-219.802 740.416,-195.99"/>
<polygon fill="midnightblue" stroke="midnightblue" points="743.401,-197.825 746.142,-187.591 737.617,-193.882 743.401,-197.825"/>
</g>
<!-- Node35 -->
<g id="node35" class="node"><title>Node35</title>
<g id="a_node35"><a xlink:href="a00046.html" target="_top" xlink:title="Provides initialization methods to configure analog subsystems and DMA controller. ">
<polygon fill="white" stroke="black" points="1623.5,-168.5 1623.5,-187.5 1722.5,-187.5 1722.5,-168.5 1623.5,-168.5"/>
<text text-anchor="middle" x="1673" y="-175.5" font-family="Helvetica,sans-Serif" font-size="10.00">periph2dma_conf.h</text>
</a>
</g>
</g>
<!-- Node2&#45;&gt;Node35 -->
<g id="edge77" class="edge"><title>Node2&#45;&gt;Node35</title>
<path fill="none" stroke="midnightblue" d="M700.283,-281.804C703.197,-281.096 706.153,-280.468 709,-280 1015.96,-229.576 1100.23,-289.255 1408,-244 1490.43,-231.879 1584.68,-205.732 1635.6,-190.553"/>
<polygon fill="midnightblue" stroke="midnightblue" points="1636.92,-193.811 1645.49,-187.58 1634.91,-187.107 1636.92,-193.811"/>
</g>
<!-- Node37 -->
<g id="node37" class="node"><title>Node37</title>
<g id="a_node37"><a xlink:href="a00051.html" target="_top" xlink:title="Provides DAC driven signal generator functions. ">
<polygon fill="white" stroke="black" points="28,-168.5 28,-187.5 96,-187.5 96,-168.5 28,-168.5"/>
<text text-anchor="middle" x="62" y="-175.5" font-family="Helvetica,sans-Serif" font-size="10.00">signalGen.h</text>
</a>
</g>
</g>
<!-- Node2&#45;&gt;Node37 -->
<g id="edge85" class="edge"><title>Node2&#45;&gt;Node37</title>
<path fill="none" stroke="midnightblue" d="M653.901,-288.293C553.535,-285.069 158.181,-270.759 110,-244 91.087,-233.496 77.5415,-212.059 69.7602,-196.673"/>
<polygon fill="midnightblue" stroke="midnightblue" points="72.9162,-195.159 65.4807,-187.612 66.5866,-198.149 72.9162,-195.159"/>
</g>
<!-- Node9&#45;&gt;Node8 -->
<g id="edge11" class="edge"><title>Node9&#45;&gt;Node8</title>
<path fill="none" stroke="midnightblue" d="M914.933,-56.4435C875.964,-46.656 812.335,-30.6748 771.849,-20.5064"/>
<polygon fill="midnightblue" stroke="midnightblue" points="772.636,-17.0952 762.084,-18.0537 770.93,-23.8843 772.636,-17.0952"/>
</g>
<!-- Node10 -->
<g id="node10" class="node"><title>Node10</title>
<polygon fill="white" stroke="#bfbfbf" points="1422.5,-0.5 1422.5,-19.5 1493.5,-19.5 1493.5,-0.5 1422.5,-0.5"/>
<text text-anchor="middle" x="1458" y="-7.5" font-family="Helvetica,sans-Serif" font-size="10.00">stm32f4xx.h</text>
</g>
<!-- Node9&#45;&gt;Node10 -->
<g id="edge9" class="edge"><title>Node9&#45;&gt;Node10</title>
<path fill="none" stroke="midnightblue" d="M1002.51,-59.3231C1103.01,-48.6612 1318.31,-25.8197 1412.41,-15.8368"/>
<polygon fill="midnightblue" stroke="midnightblue" points="1412.89,-19.3051 1422.47,-14.7696 1412.15,-12.3442 1412.89,-19.3051"/>
</g>
<!-- Node11 -->
<g id="node11" class="node"><title>Node11</title>
<polygon fill="white" stroke="#bfbfbf" points="986.5,-0.5 986.5,-19.5 1075.5,-19.5 1075.5,-0.5 986.5,-0.5"/>
<text text-anchor="middle" x="1031" y="-7.5" font-family="Helvetica,sans-Serif" font-size="10.00">stm32f4xx_rcc.h</text>
</g>
<!-- Node9&#45;&gt;Node11 -->
<g id="edge10" class="edge"><title>Node9&#45;&gt;Node11</title>
<path fill="none" stroke="midnightblue" d="M962.175,-56.324C974.847,-47.979 994.233,-35.2122 1009.21,-25.3524"/>
<polygon fill="midnightblue" stroke="midnightblue" points="1011.43,-28.0776 1017.86,-19.6545 1007.58,-22.2313 1011.43,-28.0776"/>
</g>
<!-- Node12&#45;&gt;Node8 -->
<g id="edge13" class="edge"><title>Node12&#45;&gt;Node8</title>
<path fill="none" stroke="midnightblue" d="M1497.42,-118.883C1344.7,-112.66 914.231,-93.7504 853,-76 847.933,-74.531 791.588,-43.2339 758.28,-24.6122"/>
<polygon fill="midnightblue" stroke="midnightblue" points="759.597,-21.3384 749.162,-19.509 756.179,-27.4469 759.597,-21.3384"/>
</g>
<!-- Node12&#45;&gt;Node10 -->
<g id="edge14" class="edge"><title>Node12&#45;&gt;Node10</title>
<path fill="none" stroke="midnightblue" d="M1543.7,-112.368C1528.22,-94.0547 1491.86,-51.0489 1471.83,-27.3624"/>
<polygon fill="midnightblue" stroke="midnightblue" points="1474.39,-24.9682 1465.26,-19.5914 1469.05,-29.4877 1474.39,-24.9682"/>
</g>
<!-- Node13 -->
<g id="node13" class="node"><title>Node13</title>
<g id="a_node13"><a xlink:href="a00035.html" target="_top" xlink:title="Provides generic methods for GPIO module initialization and manipulation. ">
<polygon fill="white" stroke="black" points="1543,-56.5 1543,-75.5 1645,-75.5 1645,-56.5 1543,-56.5"/>
<text text-anchor="middle" x="1594" y="-63.5" font-family="Helvetica,sans-Serif" font-size="10.00">md_stm32f4_gpio.h</text>
</a>
</g>
</g>
<!-- Node12&#45;&gt;Node13 -->
<g id="edge15" class="edge"><title>Node12&#45;&gt;Node13</title>
<path fill="none" stroke="midnightblue" d="M1558.1,-112.083C1564.24,-104.377 1573.27,-93.0333 1580.74,-83.6531"/>
<polygon fill="midnightblue" stroke="midnightblue" points="1583.54,-85.7542 1587.03,-75.7511 1578.06,-81.3936 1583.54,-85.7542"/>
</g>
<!-- Node13&#45;&gt;Node10 -->
<g id="edge16" class="edge"><title>Node13&#45;&gt;Node10</title>
<path fill="none" stroke="midnightblue" d="M1572.45,-56.4435C1549.97,-47.5171 1514.51,-33.4387 1489.02,-23.3168"/>
<polygon fill="midnightblue" stroke="midnightblue" points="1490.03,-19.9539 1479.45,-19.5164 1487.45,-26.4598 1490.03,-19.9539"/>
</g>
<!-- Node14&#45;&gt;Node10 -->
<g id="edge18" class="edge"><title>Node14&#45;&gt;Node10</title>
<path fill="none" stroke="midnightblue" d="M1341.87,-56.4435C1364.78,-47.4776 1400.98,-33.314 1426.87,-23.1827"/>
<polygon fill="midnightblue" stroke="midnightblue" points="1428.2,-26.4198 1436.24,-19.5164 1425.65,-19.9011 1428.2,-26.4198"/>
</g>
<!-- Node14&#45;&gt;Node11 -->
<g id="edge19" class="edge"><title>Node14&#45;&gt;Node11</title>
<path fill="none" stroke="midnightblue" d="M1274.21,-56.4435C1222.96,-46.8686 1140,-31.3661 1085.47,-21.177"/>
<polygon fill="midnightblue" stroke="midnightblue" points="1086.1,-17.7353 1075.63,-19.339 1084.82,-24.6163 1086.1,-17.7353"/>
</g>
<!-- Node15&#45;&gt;Node8 -->
<g id="edge30" class="edge"><title>Node15&#45;&gt;Node8</title>
<path fill="none" stroke="midnightblue" d="M1083.27,-117.078C1005.39,-110.61 862.12,-96.3667 815,-76 788.785,-64.6693 764.002,-42.4771 748.914,-27.2012"/>
<polygon fill="midnightblue" stroke="midnightblue" points="751.398,-24.7347 741.952,-19.9375 746.345,-29.5786 751.398,-24.7347"/>
</g>
<!-- Node15&#45;&gt;Node10 -->
<g id="edge21" class="edge"><title>Node15&#45;&gt;Node10</title>
<path fill="none" stroke="midnightblue" d="M1186.57,-116.236C1252.74,-109.44 1363.27,-95.5782 1399,-76 1419.59,-64.719 1436.76,-43.4817 1447.17,-28.3531"/>
<polygon fill="midnightblue" stroke="midnightblue" points="1450.18,-30.1448 1452.75,-19.8665 1444.34,-26.2986 1450.18,-30.1448"/>
</g>
<!-- Node15&#45;&gt;Node11 -->
<g id="edge22" class="edge"><title>Node15&#45;&gt;Node11</title>
<path fill="none" stroke="midnightblue" d="M1106.35,-112.361C1087.78,-105.369 1064.46,-93.7276 1050,-76 1039.21,-62.7717 1034.55,-43.6409 1032.53,-29.5576"/>
<polygon fill="midnightblue" stroke="midnightblue" points="1036.01,-29.105 1031.42,-19.5543 1029.05,-29.8805 1036.01,-29.105"/>
</g>
<!-- Node15&#45;&gt;Node13 -->
<g id="edge23" class="edge"><title>Node15&#45;&gt;Node13</title>
<path fill="none" stroke="midnightblue" d="M1186.76,-114.91C1271.98,-104.884 1441.46,-84.9464 1532.6,-74.2236"/>
<polygon fill="midnightblue" stroke="midnightblue" points="1533.26,-77.6705 1542.78,-73.026 1532.44,-70.7185 1533.26,-77.6705"/>
</g>
<!-- Node16 -->
<g id="node16" class="node"><title>Node16</title>
<polygon fill="white" stroke="#bfbfbf" points="1214.5,-0.5 1214.5,-19.5 1303.5,-19.5 1303.5,-0.5 1214.5,-0.5"/>
<text text-anchor="middle" x="1259" y="-7.5" font-family="Helvetica,sans-Serif" font-size="10.00">stm32f4xx_tim.h</text>
</g>
<!-- Node15&#45;&gt;Node16 -->
<g id="edge24" class="edge"><title>Node15&#45;&gt;Node16</title>
<path fill="none" stroke="midnightblue" d="M1186.75,-119.101C1251.72,-115.502 1357.64,-105.202 1382,-76 1405.76,-47.5246 1356.77,-29.8246 1313.75,-20.2177"/>
<polygon fill="midnightblue" stroke="midnightblue" points="1314.36,-16.7676 1303.85,-18.1188 1312.9,-23.6156 1314.36,-16.7676"/>
</g>
<!-- Node17 -->
<g id="node17" class="node"><title>Node17</title>
<g id="a_node17"><a xlink:href="a00063_source.html" target="_top" xlink:title="tm_stm32f4_timer_properties.h">
<polygon fill="white" stroke="black" points="1059,-56.5 1059,-75.5 1211,-75.5 1211,-56.5 1059,-56.5"/>
<text text-anchor="middle" x="1135" y="-63.5" font-family="Helvetica,sans-Serif" font-size="10.00">tm_stm32f4_timer_properties.h</text>
</a>
</g>
</g>
<!-- Node15&#45;&gt;Node17 -->
<g id="edge25" class="edge"><title>Node15&#45;&gt;Node17</title>
<path fill="none" stroke="midnightblue" d="M1135,-112.083C1135,-105.006 1135,-94.8611 1135,-85.9865"/>
<polygon fill="midnightblue" stroke="midnightblue" points="1138.5,-85.751 1135,-75.7511 1131.5,-85.7511 1138.5,-85.751"/>
</g>
<!-- Node17&#45;&gt;Node8 -->
<g id="edge29" class="edge"><title>Node17&#45;&gt;Node8</title>
<path fill="none" stroke="midnightblue" d="M1071.46,-56.4435C987.227,-45.1004 841.215,-25.438 772.217,-16.1464"/>
<polygon fill="midnightblue" stroke="midnightblue" points="772.596,-12.666 762.219,-14.8 771.662,-19.6034 772.596,-12.666"/>
</g>
<!-- Node17&#45;&gt;Node10 -->
<g id="edge26" class="edge"><title>Node17&#45;&gt;Node10</title>
<path fill="none" stroke="midnightblue" d="M1186.18,-56.4435C1248.4,-46.0417 1352.46,-28.6443 1412.16,-18.6634"/>
<polygon fill="midnightblue" stroke="midnightblue" points="1412.77,-22.1095 1422.06,-17.0084 1411.62,-15.2054 1412.77,-22.1095"/>
</g>
<!-- Node17&#45;&gt;Node11 -->
<g id="edge27" class="edge"><title>Node17&#45;&gt;Node11</title>
<path fill="none" stroke="midnightblue" d="M1118.29,-56.324C1101.69,-47.7034 1076,-34.3643 1056.78,-24.3855"/>
<polygon fill="midnightblue" stroke="midnightblue" points="1058.16,-21.1565 1047.67,-19.6545 1054.93,-27.3689 1058.16,-21.1565"/>
</g>
<!-- Node17&#45;&gt;Node16 -->
<g id="edge28" class="edge"><title>Node17&#45;&gt;Node16</title>
<path fill="none" stroke="midnightblue" d="M1154.65,-56.4435C1174.96,-47.5961 1206.9,-33.6875 1230.1,-23.5865"/>
<polygon fill="midnightblue" stroke="midnightblue" points="1231.67,-26.7181 1239.44,-19.5164 1228.88,-20.3002 1231.67,-26.7181"/>
</g>
<!-- Node18&#45;&gt;Node7 -->
<g id="edge37" class="edge"><title>Node18&#45;&gt;Node7</title>
<path fill="none" stroke="midnightblue" d="M1860.89,-112.444C1913.09,-102.267 1999.64,-85.3949 2051.31,-75.3224"/>
<polygon fill="midnightblue" stroke="midnightblue" points="2052.01,-78.7515 2061.16,-73.4026 2050.67,-71.8808 2052.01,-78.7515"/>
</g>
<!-- Node18&#45;&gt;Node8 -->
<g id="edge38" class="edge"><title>Node18&#45;&gt;Node8</title>
<path fill="none" stroke="midnightblue" d="M1764.9,-114.96C1754.04,-113.848 1742.66,-112.79 1732,-112 1544.34,-98.0865 1067.11,-127.063 886,-76 868.383,-71.0331 866.571,-63.7726 850,-56 823.134,-43.3986 791.698,-31.3632 768.333,-22.9152"/>
<polygon fill="midnightblue" stroke="midnightblue" points="769.445,-19.5959 758.851,-19.523 767.088,-26.1868 769.445,-19.5959"/>
</g>
<!-- Node18&#45;&gt;Node10 -->
<g id="edge33" class="edge"><title>Node18&#45;&gt;Node10</title>
<path fill="none" stroke="midnightblue" d="M1821.24,-112.17C1827.18,-98.3557 1835.79,-71.6029 1822,-56 1801.24,-32.5146 1597.06,-18.5344 1503.91,-13.3319"/>
<polygon fill="midnightblue" stroke="midnightblue" points="1503.83,-9.82226 1493.65,-12.7695 1503.44,-16.8118 1503.83,-9.82226"/>
</g>
<!-- Node18&#45;&gt;Node11 -->
<g id="edge34" class="edge"><title>Node18&#45;&gt;Node11</title>
<path fill="none" stroke="midnightblue" d="M1800.42,-112.392C1771.56,-97.8666 1709.82,-68.8219 1654,-56 1599.48,-43.4774 1228.12,-21.9075 1086.09,-14.0098"/>
<polygon fill="midnightblue" stroke="midnightblue" points="1086.04,-10.502 1075.86,-13.4429 1085.65,-17.4912 1086.04,-10.502"/>
</g>
<!-- Node18&#45;&gt;Node13 -->
<g id="edge35" class="edge"><title>Node18&#45;&gt;Node13</title>
<path fill="none" stroke="midnightblue" d="M1781.66,-112.444C1743.09,-103.102 1681.22,-88.1194 1639.15,-77.9326"/>
<polygon fill="midnightblue" stroke="midnightblue" points="1639.71,-74.4683 1629.17,-75.5164 1638.07,-81.2717 1639.71,-74.4683"/>
</g>
<!-- Node19 -->
<g id="node19" class="node"><title>Node19</title>
<polygon fill="white" stroke="#bfbfbf" points="1862,-0.5 1862,-19.5 1908,-19.5 1908,-0.5 1862,-0.5"/>
<text text-anchor="middle" x="1885" y="-7.5" font-family="Helvetica,sans-Serif" font-size="10.00">misc.h</text>
</g>
<!-- Node18&#45;&gt;Node19 -->
<g id="edge32" class="edge"><title>Node18&#45;&gt;Node19</title>
<path fill="none" stroke="midnightblue" d="M1869.12,-113.144C1910.31,-105.745 1962.98,-93.2186 1976,-76 1995.42,-50.3186 1951.49,-30.6322 1918.14,-19.9513"/>
<polygon fill="midnightblue" stroke="midnightblue" points="1918.79,-16.4927 1908.21,-16.929 1916.75,-23.1893 1918.79,-16.4927"/>
</g>
<!-- Node20 -->
<g id="node20" class="node"><title>Node20</title>
<polygon fill="white" stroke="#bfbfbf" points="1869,-56.5 1869,-75.5 1967,-75.5 1967,-56.5 1869,-56.5"/>
<text text-anchor="middle" x="1918" y="-63.5" font-family="Helvetica,sans-Serif" font-size="10.00">stm32f4xx_usart.h</text>
</g>
<!-- Node18&#45;&gt;Node20 -->
<g id="edge36" class="edge"><title>Node18&#45;&gt;Node20</title>
<path fill="none" stroke="midnightblue" d="M1833.23,-112.324C1849.35,-103.703 1874.3,-90.3643 1892.96,-80.3855"/>
<polygon fill="midnightblue" stroke="midnightblue" points="1894.64,-83.456 1901.81,-75.6545 1891.34,-77.283 1894.64,-83.456"/>
</g>
<!-- Node23&#45;&gt;Node3 -->
<g id="edge42" class="edge"><title>Node23&#45;&gt;Node3</title>
<path fill="none" stroke="midnightblue" d="M439.673,-224.341C419.498,-215.611 387.798,-201.528 361,-188 269.707,-141.914 247.344,-129.192 160,-76 132.754,-59.4073 102.258,-38.8543 82.6305,-25.357"/>
<polygon fill="midnightblue" stroke="midnightblue" points="84.396,-22.3227 74.1789,-19.5189 80.4175,-28.0822 84.396,-22.3227"/>
</g>
<!-- Node23&#45;&gt;Node8 -->
<g id="edge65" class="edge"><title>Node23&#45;&gt;Node8</title>
<path fill="none" stroke="midnightblue" d="M454.26,-224.247C433.707,-192.39 366.24,-83.0708 390,-56 409.952,-33.2675 610.389,-18.5036 695.789,-13.1991"/>
<polygon fill="midnightblue" stroke="midnightblue" points="696.085,-16.6876 705.853,-12.5848 695.659,-9.70063 696.085,-16.6876"/>
</g>
<!-- Node23&#45;&gt;Node24 -->
<g id="edge43" class="edge"><title>Node23&#45;&gt;Node24</title>
<path fill="none" stroke="midnightblue" d="M461.65,-224.368C469.814,-206.135 496.605,-163.426 514.383,-139.675"/>
<polygon fill="midnightblue" stroke="midnightblue" points="517.3,-141.627 520.697,-131.591 511.783,-137.317 517.3,-141.627"/>
</g>
<!-- Node23&#45;&gt;Node26 -->
<g id="edge74" class="edge"><title>Node23&#45;&gt;Node26</title>
<path fill="none" stroke="midnightblue" d="M448.202,-224.184C437.27,-215.665 420.945,-202.023 409,-188 383.093,-157.588 388.647,-140.839 361,-112 349.306,-99.8017 333.826,-88.9283 320.907,-80.9268"/>
<polygon fill="midnightblue" stroke="midnightblue" points="322.422,-77.755 312.042,-75.6301 318.831,-83.764 322.422,-77.755"/>
</g>
<!-- Node23&#45;&gt;Node30 -->
<g id="edge75" class="edge"><title>Node23&#45;&gt;Node30</title>
<path fill="none" stroke="midnightblue" d="M446.623,-224.334C432.846,-215.365 410.797,-200.89 392,-188 343.894,-155.011 335.012,-142.021 285,-112 265.159,-100.09 241.753,-88.4565 223.784,-80.0024"/>
<polygon fill="midnightblue" stroke="midnightblue" points="224.962,-76.6904 214.418,-75.6513 222.013,-83.0388 224.962,-76.6904"/>
</g>
<!-- Node23&#45;&gt;Node32 -->
<g id="edge66" class="edge"><title>Node23&#45;&gt;Node32</title>
<path fill="none" stroke="midnightblue" d="M483.451,-224.444C508.133,-215.438 547.185,-201.189 574.977,-191.049"/>
<polygon fill="midnightblue" stroke="midnightblue" points="576.464,-194.232 584.659,-187.516 574.065,-187.656 576.464,-194.232"/>
</g>
<!-- Node23&#45;&gt;Node33 -->
<g id="edge70" class="edge"><title>Node23&#45;&gt;Node33</title>
<path fill="none" stroke="midnightblue" d="M492.646,-226.963C545.293,-217.227 649.003,-198.047 708.079,-187.122"/>
<polygon fill="midnightblue" stroke="midnightblue" points="709.02,-190.508 718.217,-185.248 707.747,-183.624 709.02,-190.508"/>
</g>
<!-- Node24&#45;&gt;Node2 -->
<g id="edge47" class="edge"><title>Node24&#45;&gt;Node2</title>
<path fill="none" stroke="midnightblue" d="M538.099,-131.647C545.159,-144.753 553.701,-170.022 567,-188 594.007,-224.51 636.653,-256.502 660.363,-274.245"/>
<polygon fill="midnightblue" stroke="midnightblue" points="658.354,-277.114 668.45,-280.328 662.562,-271.52 658.354,-277.114"/>
</g>
<!-- Node24&#45;&gt;Node8 -->
<g id="edge44" class="edge"><title>Node24&#45;&gt;Node8</title>
<path fill="none" stroke="midnightblue" d="M486.707,-114.93C438.749,-106.467 371.682,-88.3892 400,-56 438.055,-12.4742 616.403,-9.3326 695.758,-10.163"/>
<polygon fill="midnightblue" stroke="midnightblue" points="695.781,-13.6635 705.827,-10.2955 695.874,-6.66407 695.781,-13.6635"/>
</g>
<!-- Node24&#45;&gt;Node10 -->
<g id="edge58" class="edge"><title>Node24&#45;&gt;Node10</title>
<path fill="none" stroke="midnightblue" d="M573.242,-118.678C719.574,-110.755 1188.82,-84.7902 1220,-76 1238.37,-70.8211 1240.09,-62.5962 1258,-56 1309.26,-37.1195 1370.95,-24.7025 1412.14,-17.7856"/>
<polygon fill="midnightblue" stroke="midnightblue" points="1412.84,-21.2164 1422.15,-16.145 1411.71,-14.3085 1412.84,-21.2164"/>
</g>
<!-- Node24&#45;&gt;Node11 -->
<g id="edge57" class="edge"><title>Node24&#45;&gt;Node11</title>
<path fill="none" stroke="midnightblue" d="M553.506,-112.428C591.862,-98.7289 670.509,-71.8357 739,-56 820.559,-37.143 916.802,-24.0403 975.86,-17.0188"/>
<polygon fill="midnightblue" stroke="midnightblue" points="976.56,-20.4608 986.084,-15.8199 975.745,-13.5084 976.56,-20.4608"/>
</g>
<!-- Node24&#45;&gt;Node23 -->
<g id="edge64" class="edge"><title>Node24&#45;&gt;Node23</title>
<path fill="none" stroke="midnightblue" d="M528.368,-131.591C520.232,-149.789 493.448,-192.494 475.656,-216.272"/>
<polygon fill="midnightblue" stroke="midnightblue" points="472.731,-214.332 469.336,-224.368 478.248,-218.64 472.731,-214.332"/>
</g>
<!-- Node25 -->
<g id="node25" class="node"><title>Node25</title>
<g id="a_node25"><a xlink:href="a00044.html" target="_top" xlink:title="Provides nested vector interrupt controller configuration methods. ">
<polygon fill="white" stroke="black" points="1739,-56.5 1739,-75.5 1813,-75.5 1813,-56.5 1739,-56.5"/>
<text text-anchor="middle" x="1776" y="-63.5" font-family="Helvetica,sans-Serif" font-size="10.00">nvic_config.h</text>
</a>
</g>
</g>
<!-- Node24&#45;&gt;Node25 -->
<g id="edge45" class="edge"><title>Node24&#45;&gt;Node25</title>
<path fill="none" stroke="midnightblue" d="M573.33,-118.453C606.82,-116.533 654.339,-113.912 696,-112 1121.63,-92.466 1228.58,-99.6773 1654,-76 1678.73,-74.6234 1706.25,-72.633 1728.89,-70.8738"/>
<polygon fill="midnightblue" stroke="midnightblue" points="1729.22,-74.3585 1738.92,-70.0848 1728.67,-67.38 1729.22,-74.3585"/>
</g>
<!-- Node24&#45;&gt;Node26 -->
<g id="edge48" class="edge"><title>Node24&#45;&gt;Node26</title>
<path fill="none" stroke="midnightblue" d="M492.922,-112.444C446.351,-101.696 367.421,-83.4817 325.01,-73.6946"/>
<polygon fill="midnightblue" stroke="midnightblue" points="325.587,-70.2359 315.056,-71.3976 324.013,-77.0566 325.587,-70.2359"/>
</g>
<!-- Node28 -->
<g id="node28" class="node"><title>Node28</title>
<polygon fill="white" stroke="#bfbfbf" points="409,-56.5 409,-75.5 501,-75.5 501,-56.5 409,-56.5"/>
<text text-anchor="middle" x="455" y="-63.5" font-family="Helvetica,sans-Serif" font-size="10.00">stm32f4xx_adc.h</text>
</g>
<!-- Node24&#45;&gt;Node28 -->
<g id="edge55" class="edge"><title>Node24&#45;&gt;Node28</title>
<path fill="none" stroke="midnightblue" d="M517.95,-112.324C506.537,-104.107 489.169,-91.6017 475.565,-81.8069"/>
<polygon fill="midnightblue" stroke="midnightblue" points="477.43,-78.8366 467.269,-75.8339 473.34,-84.5174 477.43,-78.8366"/>
</g>
<!-- Node29 -->
<g id="node29" class="node"><title>Node29</title>
<polygon fill="white" stroke="#bfbfbf" points="519,-56.5 519,-75.5 611,-75.5 611,-56.5 519,-56.5"/>
<text text-anchor="middle" x="565" y="-63.5" font-family="Helvetica,sans-Serif" font-size="10.00">stm32f4xx_dac.h</text>
</g>
<!-- Node24&#45;&gt;Node29 -->
<g id="edge56" class="edge"><title>Node24&#45;&gt;Node29</title>
<path fill="none" stroke="midnightblue" d="M535.78,-112.083C540.672,-104.534 547.827,-93.4948 553.833,-84.2298"/>
<polygon fill="midnightblue" stroke="midnightblue" points="556.826,-86.0463 559.328,-75.7511 550.952,-82.239 556.826,-86.0463"/>
</g>
<!-- Node24&#45;&gt;Node30 -->
<g id="edge59" class="edge"><title>Node24&#45;&gt;Node30</title>
<path fill="none" stroke="midnightblue" d="M486.89,-114.051C420.07,-103.28 292.744,-82.7557 230.727,-72.759"/>
<polygon fill="midnightblue" stroke="midnightblue" points="231.074,-69.2698 220.644,-71.1337 229.96,-76.1806 231.074,-69.2698"/>
</g>
<!-- Node25&#45;&gt;Node19 -->
<g id="edge46" class="edge"><title>Node25&#45;&gt;Node19</title>
<path fill="none" stroke="midnightblue" d="M1793.51,-56.324C1811.07,-47.6247 1838.33,-34.1202 1858.53,-24.113"/>
<polygon fill="midnightblue" stroke="midnightblue" points="1860.12,-27.23 1867.53,-19.6545 1857.02,-20.9575 1860.12,-27.23"/>
</g>
<!-- Node26&#45;&gt;Node3 -->
<g id="edge50" class="edge"><title>Node26&#45;&gt;Node3</title>
<path fill="none" stroke="midnightblue" d="M276.98,-61.1272C242.616,-54.0526 167.704,-38.2789 94.831,-20.103"/>
<polygon fill="midnightblue" stroke="midnightblue" points="95.583,-16.6832 85.0316,-17.6408 93.8772,-23.4722 95.583,-16.6832"/>
</g>
<!-- Node26&#45;&gt;Node4 -->
<g id="edge49" class="edge"><title>Node26&#45;&gt;Node4</title>
<path fill="none" stroke="midnightblue" d="M276.942,-58.9105C248.815,-49.923 195.761,-32.9709 160.898,-21.8314"/>
<polygon fill="midnightblue" stroke="midnightblue" points="161.738,-18.4256 151.148,-18.7158 159.608,-25.0935 161.738,-18.4256"/>
</g>
<!-- Node26&#45;&gt;Node5 -->
<g id="edge51" class="edge"><title>Node26&#45;&gt;Node5</title>
<path fill="none" stroke="midnightblue" d="M291.872,-56.083C288.486,-48.77 283.584,-38.1814 279.381,-29.1034"/>
<polygon fill="midnightblue" stroke="midnightblue" points="282.429,-27.3553 275.051,-19.7511 276.077,-30.2962 282.429,-27.3553"/>
</g>
<!-- Node26&#45;&gt;Node8 -->
<g id="edge54" class="edge"><title>Node26&#45;&gt;Node8</title>
<path fill="none" stroke="midnightblue" d="M315.077,-59.256C319.609,-58.0422 324.45,-56.8678 329,-56 462.464,-30.5461 623.617,-17.957 695.798,-13.256"/>
<polygon fill="midnightblue" stroke="midnightblue" points="696.031,-16.7483 705.788,-12.619 695.585,-9.7625 696.031,-16.7483"/>
</g>
<!-- Node26&#45;&gt;Node10 -->
<g id="edge53" class="edge"><title>Node26&#45;&gt;Node10</title>
<path fill="none" stroke="midnightblue" d="M315.148,-63.0721C335.998,-61.0362 370.337,-57.8679 400,-56 804.847,-30.5062 906.868,-40.4804 1312,-20 1345.54,-18.3042 1383.4,-15.9585 1412.15,-14.0869"/>
<polygon fill="midnightblue" stroke="midnightblue" points="1412.56,-17.5678 1422.31,-13.421 1412.1,-10.5828 1412.56,-17.5678"/>
</g>
<!-- Node27 -->
<g id="node27" class="node"><title>Node27</title>
<polygon fill="white" stroke="#bfbfbf" points="313.5,-0.5 313.5,-19.5 362.5,-19.5 362.5,-0.5 313.5,-0.5"/>
<text text-anchor="middle" x="338" y="-7.5" font-family="Helvetica,sans-Serif" font-size="10.00">stdint.h</text>
</g>
<!-- Node26&#45;&gt;Node27 -->
<g id="edge52" class="edge"><title>Node26&#45;&gt;Node27</title>
<path fill="none" stroke="midnightblue" d="M302.935,-56.083C308.929,-48.3768 317.752,-37.0333 325.048,-27.6531"/>
<polygon fill="midnightblue" stroke="midnightblue" points="327.817,-29.7934 331.194,-19.7511 322.291,-25.4958 327.817,-29.7934"/>
</g>
<!-- Node30&#45;&gt;Node3 -->
<g id="edge60" class="edge"><title>Node30&#45;&gt;Node3</title>
<path fill="none" stroke="midnightblue" d="M173.926,-56.4435C151.94,-47.5171 117.266,-33.4387 92.3359,-23.3168"/>
<polygon fill="midnightblue" stroke="midnightblue" points="93.5578,-20.0355 82.9756,-19.5164 90.9244,-26.5213 93.5578,-20.0355"/>
</g>
<!-- Node30&#45;&gt;Node4 -->
<g id="edge62" class="edge"><title>Node30&#45;&gt;Node4</title>
<path fill="none" stroke="midnightblue" d="M184.075,-56.324C173.825,-48.1849 158.279,-35.8395 145.999,-26.0874"/>
<polygon fill="midnightblue" stroke="midnightblue" points="148.132,-23.3119 138.124,-19.8339 143.779,-28.7937 148.132,-23.3119"/>
</g>
<!-- Node30&#45;&gt;Node5 -->
<g id="edge61" class="edge"><title>Node30&#45;&gt;Node5</title>
<path fill="none" stroke="midnightblue" d="M207.211,-56.324C218.776,-48.1066 236.375,-35.6017 250.161,-25.8069"/>
<polygon fill="midnightblue" stroke="midnightblue" points="252.443,-28.4791 258.567,-19.8339 248.388,-22.7729 252.443,-28.4791"/>
</g>
<!-- Node31 -->
<g id="node31" class="node"><title>Node31</title>
<polygon fill="white" stroke="#bfbfbf" points="169.5,-0.5 169.5,-19.5 228.5,-19.5 228.5,-0.5 169.5,-0.5"/>
<text text-anchor="middle" x="199" y="-7.5" font-family="Helvetica,sans-Serif" font-size="10.00">inttypes.h</text>
</g>
<!-- Node30&#45;&gt;Node31 -->
<g id="edge63" class="edge"><title>Node30&#45;&gt;Node31</title>
<path fill="none" stroke="midnightblue" d="M195.661,-56.083C196.185,-49.0059 196.936,-38.8611 197.594,-29.9865"/>
<polygon fill="midnightblue" stroke="midnightblue" points="201.103,-29.9823 198.352,-19.7511 194.123,-29.4652 201.103,-29.9823"/>
</g>
<!-- Node32&#45;&gt;Node2 -->
<g id="edge67" class="edge"><title>Node32&#45;&gt;Node2</title>
<path fill="none" stroke="midnightblue" d="M617.225,-187.591C631.887,-205.548 658.547,-247.37 671.025,-271.32"/>
<polygon fill="midnightblue" stroke="midnightblue" points="667.906,-272.908 675.429,-280.368 674.2,-269.845 667.906,-272.908"/>
</g>
<!-- Node32&#45;&gt;Node8 -->
<g id="edge68" class="edge"><title>Node32&#45;&gt;Node8</title>
<path fill="none" stroke="midnightblue" d="M610.06,-168.446C615.519,-147.26 632.093,-91.506 663,-56 674.633,-42.6362 691.2,-31.827 705.406,-24.155"/>
<polygon fill="midnightblue" stroke="midnightblue" points="707.03,-27.2554 714.324,-19.5711 703.83,-21.0296 707.03,-27.2554"/>
</g>
<!-- Node32&#45;&gt;Node24 -->
<g id="edge69" class="edge"><title>Node32&#45;&gt;Node24</title>
<path fill="none" stroke="midnightblue" d="M595.468,-168.324C583.414,-159.979 564.973,-147.212 550.731,-137.352"/>
<polygon fill="midnightblue" stroke="midnightblue" points="552.715,-134.469 542.501,-131.655 548.731,-140.224 552.715,-134.469"/>
</g>
<!-- Node33&#45;&gt;Node10 -->
<g id="edge71" class="edge"><title>Node33&#45;&gt;Node10</title>
<path fill="none" stroke="midnightblue" d="M785.83,-176.259C907.955,-172.941 1324.17,-155.872 1425,-76 1439.7,-64.3526 1448.44,-44.4033 1453.2,-29.6697"/>
<polygon fill="midnightblue" stroke="midnightblue" points="1456.68,-30.2217 1456.09,-19.6435 1449.95,-28.2829 1456.68,-30.2217"/>
</g>
<!-- Node33&#45;&gt;Node11 -->
<g id="edge73" class="edge"><title>Node33&#45;&gt;Node11</title>
<path fill="none" stroke="midnightblue" d="M763.415,-168.342C774.919,-159.499 793.059,-145.228 808,-132 844.239,-99.9154 844.403,-80.7465 886,-56 913.761,-39.4849 948.172,-28.4693 976.504,-21.4725"/>
<polygon fill="midnightblue" stroke="midnightblue" points="977.328,-24.8744 986.251,-19.1628 975.714,-18.063 977.328,-24.8744"/>
</g>
<!-- Node34 -->
<g id="node34" class="node"><title>Node34</title>
<polygon fill="white" stroke="#bfbfbf" points="705,-112.5 705,-131.5 799,-131.5 799,-112.5 705,-112.5"/>
<text text-anchor="middle" x="752" y="-119.5" font-family="Helvetica,sans-Serif" font-size="10.00">stm32f4xx_gpio.h</text>
</g>
<!-- Node33&#45;&gt;Node34 -->
<g id="edge72" class="edge"><title>Node33&#45;&gt;Node34</title>
<path fill="none" stroke="midnightblue" d="M752,-168.083C752,-161.006 752,-150.861 752,-141.986"/>
<polygon fill="midnightblue" stroke="midnightblue" points="755.5,-141.751 752,-131.751 748.5,-141.751 755.5,-141.751"/>
</g>
<!-- Node35&#45;&gt;Node10 -->
<g id="edge78" class="edge"><title>Node35&#45;&gt;Node10</title>
<path fill="none" stroke="midnightblue" d="M1722.7,-174.032C1826.83,-166.114 2052.18,-139.083 1976,-56 1944.4,-21.5332 1624.58,-13.3804 1503.83,-11.5247"/>
<polygon fill="midnightblue" stroke="midnightblue" points="1503.84,-8.02463 1493.79,-11.378 1503.74,-15.0239 1503.84,-8.02463"/>
</g>
<!-- Node36 -->
<g id="node36" class="node"><title>Node36</title>
<g id="a_node36"><a xlink:href="a00027.html" target="_top" xlink:title="Project XA&#45;Galvo scanner specific digital to analog converter methods. ">
<polygon fill="white" stroke="black" points="1623,-112.5 1623,-131.5 1723,-131.5 1723,-112.5 1623,-112.5"/>
<text text-anchor="middle" x="1673" y="-119.5" font-family="Helvetica,sans-Serif" font-size="10.00">md_stm32f4_dac.h</text>
</a>
</g>
</g>
<!-- Node35&#45;&gt;Node36 -->
<g id="edge79" class="edge"><title>Node35&#45;&gt;Node36</title>
<path fill="none" stroke="midnightblue" d="M1673,-168.083C1673,-161.006 1673,-150.861 1673,-141.986"/>
<polygon fill="midnightblue" stroke="midnightblue" points="1676.5,-141.751 1673,-131.751 1669.5,-141.751 1676.5,-141.751"/>
</g>
<!-- Node36&#45;&gt;Node10 -->
<g id="edge80" class="edge"><title>Node36&#45;&gt;Node10</title>
<path fill="none" stroke="midnightblue" d="M1673.08,-112.443C1672.73,-98.5175 1669.91,-71.0025 1654,-56 1632.61,-35.8325 1554.55,-22.7257 1503.63,-16.1171"/>
<polygon fill="midnightblue" stroke="midnightblue" points="1503.88,-12.6209 1493.52,-14.8436 1503.01,-19.566 1503.88,-12.6209"/>
</g>
<!-- Node36&#45;&gt;Node13 -->
<g id="edge81" class="edge"><title>Node36&#45;&gt;Node13</title>
<path fill="none" stroke="midnightblue" d="M1660.31,-112.324C1648.1,-103.979 1629.42,-91.2122 1615,-81.3524"/>
<polygon fill="midnightblue" stroke="midnightblue" points="1616.89,-78.4082 1606.66,-75.6545 1612.94,-84.1871 1616.89,-78.4082"/>
</g>
<!-- Node37&#45;&gt;Node3 -->
<g id="edge86" class="edge"><title>Node37&#45;&gt;Node3</title>
<path fill="none" stroke="midnightblue" d="M62,-168.075C62,-141.945 62,-65.2106 62,-29.577"/>
<polygon fill="midnightblue" stroke="midnightblue" points="65.5001,-29.5681 62,-19.5681 58.5001,-29.5681 65.5001,-29.5681"/>
</g>
</g>
</svg>
