<?xml version="1.0" encoding="UTF-8" standalone="no"?>
<!DOCTYPE svg PUBLIC "-//W3C//DTD SVG 1.1//EN"
 "http://www.w3.org/Graphics/SVG/1.1/DTD/svg11.dtd">
<!-- Generated by graphviz version 2.38.0 (20140413.2041)
 -->
<!-- Title: actuators.h Pages: 1 -->
<svg width="1880pt" height="364pt"
 viewBox="0.00 0.00 1880.25 364.00" xmlns="http://www.w3.org/2000/svg" xmlns:xlink="http://www.w3.org/1999/xlink">
<g id="graph0" class="graph" transform="scale(1 1) rotate(0) translate(4 360)">
<title>actuators.h</title>
<polygon fill="white" stroke="none" points="-4,4 -4,-360 1876.25,-360 1876.25,4 -4,4"/>
<!-- Node1 -->
<g id="node1" class="node"><title>Node1</title>
<polygon fill="#bfbfbf" stroke="black" points="1291.75,-336.5 1291.75,-355.5 1356.75,-355.5 1356.75,-336.5 1291.75,-336.5"/>
<text text-anchor="middle" x="1324.25" y="-343.5" font-family="Helvetica,sans-Serif" font-size="10.00">actuators.h</text>
</g>
<!-- Node2 -->
<g id="node2" class="node"><title>Node2</title>
<polygon fill="white" stroke="#bfbfbf" points="451.251,-112.5 451.251,-131.5 497.251,-131.5 497.251,-112.5 451.251,-112.5"/>
<text text-anchor="middle" x="474.251" y="-119.5" font-family="Helvetica,sans-Serif" font-size="10.00">stdio.h</text>
</g>
<!-- Node1&#45;&gt;Node2 -->
<g id="edge1" class="edge"><title>Node1&#45;&gt;Node2</title>
<path fill="none" stroke="midnightblue" d="M1291.65,-344.598C1144.43,-342.036 543.872,-323.314 430.251,-188 416.62,-171.767 435.798,-151.264 452.947,-137.672"/>
<polygon fill="midnightblue" stroke="midnightblue" points="455.143,-140.4 461.05,-131.604 450.948,-134.797 455.143,-140.4"/>
</g>
<!-- Node3 -->
<g id="node3" class="node"><title>Node3</title>
<g id="a_node3"><a xlink:href="a00014.html" target="_top" xlink:title="Provides DMA related configuration and access functions for ADC and DAC. ">
<polygon fill="white" stroke="black" points="1281.25,-280.5 1281.25,-299.5 1367.25,-299.5 1367.25,-280.5 1281.25,-280.5"/>
<text text-anchor="middle" x="1324.25" y="-287.5" font-family="Helvetica,sans-Serif" font-size="10.00">adc_dac_dma.h</text>
</a>
</g>
</g>
<!-- Node1&#45;&gt;Node3 -->
<g id="edge2" class="edge"><title>Node1&#45;&gt;Node3</title>
<path fill="none" stroke="midnightblue" d="M1319.08,-336.083C1317.58,-328.927 1317.14,-318.635 1317.79,-309.691"/>
<polygon fill="midnightblue" stroke="midnightblue" points="1321.27,-310.126 1319.12,-299.751 1314.33,-309.2 1321.27,-310.126"/>
</g>
<!-- Node4 -->
<g id="node4" class="node"><title>Node4</title>
<g id="a_node4"><a xlink:href="a00019.html" target="_top" xlink:title="Global defines include file. ">
<polygon fill="white" stroke="black" points="1211.25,-56.5 1211.25,-75.5 1267.25,-75.5 1267.25,-56.5 1211.25,-56.5"/>
<text text-anchor="middle" x="1239.25" y="-63.5" font-family="Helvetica,sans-Serif" font-size="10.00">globals.h</text>
</a>
</g>
</g>
<!-- Node1&#45;&gt;Node4 -->
<g id="edge83" class="edge"><title>Node1&#45;&gt;Node4</title>
<path fill="none" stroke="midnightblue" d="M1356.93,-344.955C1469.49,-343.931 1834.25,-333.05 1834.25,-235 1834.25,-235 1834.25,-235 1834.25,-177 1834.25,-125.841 1787.4,-129.297 1739.25,-112 1654.29,-81.4756 1379.39,-70.8851 1277.61,-67.9555"/>
<polygon fill="midnightblue" stroke="midnightblue" points="1277.57,-64.4529 1267.47,-67.6727 1277.37,-71.4502 1277.57,-64.4529"/>
</g>
<!-- Node27 -->
<g id="node27" class="node"><title>Node27</title>
<g id="a_node27"><a xlink:href="a00023.html" target="_top" xlink:title="Analog processing related callback handler definition. ">
<polygon fill="white" stroke="black" points="1548.25,-168.5 1548.25,-187.5 1630.25,-187.5 1630.25,-168.5 1548.25,-168.5"/>
<text text-anchor="middle" x="1589.25" y="-175.5" font-family="Helvetica,sans-Serif" font-size="10.00">irq_callbacks.h</text>
</a>
</g>
</g>
<!-- Node1&#45;&gt;Node27 -->
<g id="edge84" class="edge"><title>Node1&#45;&gt;Node27</title>
<path fill="none" stroke="midnightblue" d="M1348.57,-336.353C1370.16,-328.244 1402.23,-315.124 1428.25,-300 1484.14,-267.521 1543.27,-218.848 1571.82,-194.309"/>
<polygon fill="midnightblue" stroke="midnightblue" points="1574.39,-196.708 1579.65,-187.513 1569.81,-191.419 1574.39,-196.708"/>
</g>
<!-- Node28 -->
<g id="node28" class="node"><title>Node28</title>
<g id="a_node28"><a xlink:href="a00040.html" target="_top" xlink:title="Project MD_APP scanner specific pin mappings. ">
<polygon fill="white" stroke="black" points="201.751,-168.5 201.751,-187.5 268.751,-187.5 268.751,-168.5 201.751,-168.5"/>
<text text-anchor="middle" x="235.251" y="-175.5" font-family="Helvetica,sans-Serif" font-size="10.00">mdb_gpio.h</text>
</a>
</g>
</g>
<!-- Node1&#45;&gt;Node28 -->
<g id="edge85" class="edge"><title>Node1&#45;&gt;Node28</title>
<path fill="none" stroke="midnightblue" d="M1291.63,-345.222C1128.77,-346.106 408.067,-347.3 321.251,-300 279.711,-277.368 253.528,-224.986 242.035,-197.15"/>
<polygon fill="midnightblue" stroke="midnightblue" points="245.271,-195.817 238.348,-187.797 238.759,-198.384 245.271,-195.817"/>
</g>
<!-- Node30 -->
<g id="node30" class="node"><title>Node30</title>
<g id="a_node30"><a xlink:href="a00046.html" target="_top" xlink:title="PID compensator implementation. ">
<polygon fill="white" stroke="black" points="1492.25,-168.5 1492.25,-187.5 1530.25,-187.5 1530.25,-168.5 1492.25,-168.5"/>
<text text-anchor="middle" x="1511.25" y="-175.5" font-family="Helvetica,sans-Serif" font-size="10.00">pid.h</text>
</a>
</g>
</g>
<!-- Node1&#45;&gt;Node30 -->
<g id="edge86" class="edge"><title>Node1&#45;&gt;Node30</title>
<path fill="none" stroke="midnightblue" d="M1343.21,-336.382C1359.92,-328.292 1384.47,-315.184 1403.25,-300 1442.84,-267.992 1480.38,-220.843 1499.02,-195.904"/>
<polygon fill="midnightblue" stroke="midnightblue" points="1501.88,-197.916 1505,-187.79 1496.25,-193.763 1501.88,-197.916"/>
</g>
<!-- Node33 -->
<g id="node33" class="node"><title>Node33</title>
<g id="a_node33"><a xlink:href="a00021.html" target="_top" xlink:title="Provides tools and helper functions. ">
<polygon fill="white" stroke="black" points="1384.75,-168.5 1384.75,-187.5 1435.75,-187.5 1435.75,-168.5 1384.75,-168.5"/>
<text text-anchor="middle" x="1410.25" y="-175.5" font-family="Helvetica,sans-Serif" font-size="10.00">helper.h</text>
</a>
</g>
</g>
<!-- Node1&#45;&gt;Node33 -->
<g id="edge87" class="edge"><title>Node1&#45;&gt;Node33</title>
<path fill="none" stroke="midnightblue" d="M1337.4,-336.395C1359.41,-321.029 1402.64,-286.464 1416.25,-244 1421.11,-228.824 1418.82,-210.707 1415.77,-197.46"/>
<polygon fill="midnightblue" stroke="midnightblue" points="1419.12,-196.417 1413.17,-187.649 1412.35,-198.212 1419.12,-196.417"/>
</g>
<!-- Node3&#45;&gt;Node1 -->
<g id="edge82" class="edge"><title>Node3&#45;&gt;Node1</title>
<path fill="none" stroke="midnightblue" d="M1329.38,-299.751C1330.91,-306.858 1331.36,-317.136 1330.72,-326.101"/>
<polygon fill="midnightblue" stroke="midnightblue" points="1327.24,-325.713 1329.42,-336.083 1334.18,-326.622 1327.24,-325.713"/>
</g>
<!-- Node3&#45;&gt;Node4 -->
<g id="edge3" class="edge"><title>Node3&#45;&gt;Node4</title>
<path fill="none" stroke="midnightblue" d="M1367.67,-285.232C1490.43,-273.058 1824.39,-228.582 1718.25,-112 1688.76,-79.6112 1386,-70.0875 1277.59,-67.7039"/>
<polygon fill="midnightblue" stroke="midnightblue" points="1277.5,-64.2012 1267.43,-67.4889 1277.35,-71.1996 1277.5,-64.2012"/>
</g>
<!-- Node5 -->
<g id="node5" class="node"><title>Node5</title>
<g id="a_node5"><a xlink:href="a00042.html" target="_top" xlink:title="Provides nested vector interrupt controller configuration methods. ">
<polygon fill="white" stroke="black" points="1185.25,-224.5 1185.25,-243.5 1259.25,-243.5 1259.25,-224.5 1185.25,-224.5"/>
<text text-anchor="middle" x="1222.25" y="-231.5" font-family="Helvetica,sans-Serif" font-size="10.00">nvic_config.h</text>
</a>
</g>
</g>
<!-- Node3&#45;&gt;Node5 -->
<g id="edge4" class="edge"><title>Node3&#45;&gt;Node5</title>
<path fill="none" stroke="midnightblue" d="M1307.86,-280.324C1291.58,-271.703 1266.38,-258.364 1247.53,-248.386"/>
<polygon fill="midnightblue" stroke="midnightblue" points="1249.07,-245.24 1238.6,-243.655 1245.8,-251.427 1249.07,-245.24"/>
</g>
<!-- Node7 -->
<g id="node7" class="node"><title>Node7</title>
<g id="a_node7"><a xlink:href="a00025.html" target="_top" xlink:title="Main header definition. ">
<polygon fill="white" stroke="black" points="1011.25,-224.5 1011.25,-243.5 1057.25,-243.5 1057.25,-224.5 1011.25,-224.5"/>
<text text-anchor="middle" x="1034.25" y="-231.5" font-family="Helvetica,sans-Serif" font-size="10.00">main.h</text>
</a>
</g>
</g>
<!-- Node3&#45;&gt;Node7 -->
<g id="edge6" class="edge"><title>Node3&#45;&gt;Node7</title>
<path fill="none" stroke="midnightblue" d="M1281.2,-283.758C1230.15,-276.655 1142.82,-262.918 1065.12,-245.746"/>
<polygon fill="midnightblue" stroke="midnightblue" points="1065.73,-242.296 1055.21,-243.524 1064.2,-249.127 1065.73,-242.296"/>
</g>
<!-- Node13 -->
<g id="node13" class="node"><title>Node13</title>
<polygon fill="white" stroke="#bfbfbf" points="956.751,-0.5 956.751,-19.5 1027.75,-19.5 1027.75,-0.5 956.751,-0.5"/>
<text text-anchor="middle" x="992.251" y="-7.5" font-family="Helvetica,sans-Serif" font-size="10.00">stm32f4xx.h</text>
</g>
<!-- Node3&#45;&gt;Node13 -->
<g id="edge80" class="edge"><title>Node3&#45;&gt;Node13</title>
<path fill="none" stroke="midnightblue" d="M1367.25,-289.484C1496.44,-289.795 1872.25,-281.859 1872.25,-179 1872.25,-179 1872.25,-179 1872.25,-121 1872.25,-36.0852 1218.77,-15.8338 1038.06,-11.8571"/>
<polygon fill="midnightblue" stroke="midnightblue" points="1037.91,-8.35311 1027.84,-11.6385 1037.76,-15.3515 1037.91,-8.35311"/>
</g>
<!-- Node14 -->
<g id="node14" class="node"><title>Node14</title>
<polygon fill="white" stroke="#bfbfbf" points="404.751,-56.5 404.751,-75.5 493.751,-75.5 493.751,-56.5 404.751,-56.5"/>
<text text-anchor="middle" x="449.251" y="-63.5" font-family="Helvetica,sans-Serif" font-size="10.00">stm32f4xx_rcc.h</text>
</g>
<!-- Node3&#45;&gt;Node14 -->
<g id="edge79" class="edge"><title>Node3&#45;&gt;Node14</title>
<path fill="none" stroke="midnightblue" d="M1281.14,-286.898C1122.08,-278.738 568.796,-246.666 403.251,-188 359.908,-172.64 338.274,-172.367 316.251,-132 297.141,-96.9722 350.129,-80.5236 394.793,-73.0022"/>
<polygon fill="midnightblue" stroke="midnightblue" points="395.411,-76.4483 404.75,-71.4447 394.329,-69.5324 395.411,-76.4483"/>
</g>
<!-- Node3&#45;&gt;Node30 -->
<g id="edge76" class="edge"><title>Node3&#45;&gt;Node30</title>
<path fill="none" stroke="midnightblue" d="M1343.7,-280.482C1362.62,-271.968 1391.98,-258.141 1416.25,-244 1443.38,-228.195 1472.99,-207.307 1491.82,-193.528"/>
<polygon fill="midnightblue" stroke="midnightblue" points="1493.94,-196.318 1499.9,-187.564 1489.78,-190.686 1493.94,-196.318"/>
</g>
<!-- Node3&#45;&gt;Node33 -->
<g id="edge81" class="edge"><title>Node3&#45;&gt;Node33</title>
<path fill="none" stroke="midnightblue" d="M1317.68,-280.311C1308.58,-267.151 1294.55,-241.812 1306.25,-224 1314.28,-211.772 1348.09,-198.563 1375.01,-189.64"/>
<polygon fill="midnightblue" stroke="midnightblue" points="1376.11,-192.961 1384.55,-186.557 1373.96,-186.3 1376.11,-192.961"/>
</g>
<!-- Node35 -->
<g id="node35" class="node"><title>Node35</title>
<polygon fill="white" stroke="#bfbfbf" points="1315.25,-224.5 1315.25,-243.5 1407.25,-243.5 1407.25,-224.5 1315.25,-224.5"/>
<text text-anchor="middle" x="1361.25" y="-231.5" font-family="Helvetica,sans-Serif" font-size="10.00">stm32f4xx_adc.h</text>
</g>
<!-- Node3&#45;&gt;Node35 -->
<g id="edge77" class="edge"><title>Node3&#45;&gt;Node35</title>
<path fill="none" stroke="midnightblue" d="M1330.36,-280.083C1335.53,-272.534 1343.1,-261.495 1349.45,-252.23"/>
<polygon fill="midnightblue" stroke="midnightblue" points="1352.49,-253.979 1355.25,-243.751 1346.72,-250.022 1352.49,-253.979"/>
</g>
<!-- Node36 -->
<g id="node36" class="node"><title>Node36</title>
<polygon fill="white" stroke="#bfbfbf" points="1075.25,-224.5 1075.25,-243.5 1167.25,-243.5 1167.25,-224.5 1075.25,-224.5"/>
<text text-anchor="middle" x="1121.25" y="-231.5" font-family="Helvetica,sans-Serif" font-size="10.00">stm32f4xx_dac.h</text>
</g>
<!-- Node3&#45;&gt;Node36 -->
<g id="edge78" class="edge"><title>Node3&#45;&gt;Node36</title>
<path fill="none" stroke="midnightblue" d="M1292.08,-280.444C1257.19,-271.162 1201.36,-256.309 1163.08,-246.127"/>
<polygon fill="midnightblue" stroke="midnightblue" points="1163.83,-242.705 1153.27,-243.516 1162.03,-249.47 1163.83,-242.705"/>
</g>
<!-- Node6 -->
<g id="node6" class="node"><title>Node6</title>
<polygon fill="white" stroke="#bfbfbf" points="749.251,-56.5 749.251,-75.5 795.251,-75.5 795.251,-56.5 749.251,-56.5"/>
<text text-anchor="middle" x="772.251" y="-63.5" font-family="Helvetica,sans-Serif" font-size="10.00">misc.h</text>
</g>
<!-- Node5&#45;&gt;Node6 -->
<g id="edge5" class="edge"><title>Node5&#45;&gt;Node6</title>
<path fill="none" stroke="midnightblue" d="M1185.12,-225.57C1182.12,-225.02 1179.14,-224.49 1176.25,-224 1065.58,-205.217 1033.38,-221.531 926.251,-188 907.282,-182.063 904.674,-175.46 886.251,-168 837.003,-148.057 803.659,-174.856 772.251,-132 762.566,-118.785 763.866,-99.6525 766.807,-85.5651"/>
<polygon fill="midnightblue" stroke="midnightblue" points="770.279,-86.1113 769.338,-75.5584 763.493,-84.3946 770.279,-86.1113"/>
</g>
<!-- Node7&#45;&gt;Node1 -->
<g id="edge46" class="edge"><title>Node7&#45;&gt;Node1</title>
<path fill="none" stroke="midnightblue" d="M1056.9,-243.591C1108.05,-262.991 1232.62,-310.245 1291.89,-332.726"/>
<polygon fill="midnightblue" stroke="midnightblue" points="1290.9,-336.094 1301.5,-336.368 1293.39,-329.549 1290.9,-336.094"/>
</g>
<!-- Node7&#45;&gt;Node2 -->
<g id="edge7" class="edge"><title>Node7&#45;&gt;Node2</title>
<path fill="none" stroke="midnightblue" d="M1010.95,-231.823C959.484,-228.731 832.62,-218.404 731.251,-188 711.062,-181.945 708.249,-174.656 688.251,-168 655.056,-156.951 558.74,-138.488 507.394,-129.012"/>
<polygon fill="midnightblue" stroke="midnightblue" points="507.926,-125.551 497.458,-127.187 506.661,-132.436 507.926,-125.551"/>
</g>
<!-- Node7&#45;&gt;Node3 -->
<g id="edge47" class="edge"><title>Node7&#45;&gt;Node3</title>
<path fill="none" stroke="midnightblue" d="M1057.26,-239.436C1063.26,-241.002 1069.51,-242.696 1075.25,-244 1142.45,-259.269 1220.51,-272.231 1271.15,-280.266"/>
<polygon fill="midnightblue" stroke="midnightblue" points="1270.79,-283.752 1281.21,-281.855 1271.88,-276.838 1270.79,-283.752"/>
</g>
<!-- Node7&#45;&gt;Node4 -->
<g id="edge12" class="edge"><title>Node7&#45;&gt;Node4</title>
<path fill="none" stroke="midnightblue" d="M1057.48,-225.746C1092.4,-214.722 1155.33,-194.358 1164.25,-188 1200.7,-162.035 1223.1,-112.274 1233.1,-85.3632"/>
<polygon fill="midnightblue" stroke="midnightblue" points="1236.5,-86.2583 1236.53,-75.6635 1229.9,-83.9247 1236.5,-86.2583"/>
</g>
<!-- Node8 -->
<g id="node8" class="node"><title>Node8</title>
<polygon fill="white" stroke="#bfbfbf" points="1393.25,-112.5 1393.25,-131.5 1441.25,-131.5 1441.25,-112.5 1393.25,-112.5"/>
<text text-anchor="middle" x="1417.25" y="-119.5" font-family="Helvetica,sans-Serif" font-size="10.00">stdlib.h</text>
</g>
<!-- Node7&#45;&gt;Node8 -->
<g id="edge8" class="edge"><title>Node7&#45;&gt;Node8</title>
<path fill="none" stroke="midnightblue" d="M1057.6,-226.119C1060.5,-225.357 1063.43,-224.63 1066.25,-224 1160.8,-202.853 1188.86,-217.175 1281.25,-188 1322.59,-174.946 1367.38,-151.569 1393.84,-136.695"/>
<polygon fill="midnightblue" stroke="midnightblue" points="1395.76,-139.626 1402.72,-131.634 1392.3,-133.545 1395.76,-139.626"/>
</g>
<!-- Node9 -->
<g id="node9" class="node"><title>Node9</title>
<polygon fill="white" stroke="#bfbfbf" points="1536.75,-112.5 1536.75,-131.5 1585.75,-131.5 1585.75,-112.5 1536.75,-112.5"/>
<text text-anchor="middle" x="1561.25" y="-119.5" font-family="Helvetica,sans-Serif" font-size="10.00">string.h</text>
</g>
<!-- Node7&#45;&gt;Node9 -->
<g id="edge9" class="edge"><title>Node7&#45;&gt;Node9</title>
<path fill="none" stroke="midnightblue" d="M1057.56,-225.925C1060.47,-225.196 1063.41,-224.53 1066.25,-224 1232.15,-193.03 1283.08,-238.037 1444.25,-188 1454.06,-184.956 1506.08,-155.141 1537.36,-136.965"/>
<polygon fill="midnightblue" stroke="midnightblue" points="1539.45,-139.797 1546.33,-131.741 1535.93,-133.748 1539.45,-139.797"/>
</g>
<!-- Node10 -->
<g id="node10" class="node"><title>Node10</title>
<polygon fill="white" stroke="#bfbfbf" points="773.251,-168.5 773.251,-187.5 841.251,-187.5 841.251,-168.5 773.251,-168.5"/>
<text text-anchor="middle" x="807.251" y="-175.5" font-family="Helvetica,sans-Serif" font-size="10.00">stdint&#45;gcc.h</text>
</g>
<!-- Node7&#45;&gt;Node10 -->
<g id="edge10" class="edge"><title>Node7&#45;&gt;Node10</title>
<path fill="none" stroke="midnightblue" d="M1011.24,-227.525C973.774,-218.613 898.992,-200.824 851.128,-189.438"/>
<polygon fill="midnightblue" stroke="midnightblue" points="851.885,-186.02 841.346,-187.111 850.265,-192.83 851.885,-186.02"/>
</g>
<!-- Node11 -->
<g id="node11" class="node"><title>Node11</title>
<g id="a_node11"><a xlink:href="a00016.html" target="_top" xlink:title="Platform/Compiler dependent definitions. ">
<polygon fill="white" stroke="black" points="511.751,-56.5 511.751,-75.5 576.751,-75.5 576.751,-56.5 511.751,-56.5"/>
<text text-anchor="middle" x="544.251" y="-63.5" font-family="Helvetica,sans-Serif" font-size="10.00">attributes.h</text>
</a>
</g>
</g>
<!-- Node7&#45;&gt;Node11 -->
<g id="edge11" class="edge"><title>Node7&#45;&gt;Node11</title>
<path fill="none" stroke="midnightblue" d="M1010.94,-231.462C963.473,-227.823 852.602,-216.73 764.251,-188 745.349,-181.853 742.881,-174.927 724.251,-168 663.225,-145.31 634.277,-171.144 582.251,-132 566.617,-120.237 556.275,-100.01 550.381,-85.2374"/>
<polygon fill="midnightblue" stroke="midnightblue" points="553.591,-83.8271 546.863,-75.6432 547.019,-86.2369 553.591,-83.8271"/>
</g>
<!-- Node12 -->
<g id="node12" class="node"><title>Node12</title>
<g id="a_node12"><a xlink:href="a00031.html" target="_top" xlink:title="Provides SysTick&#45;Timer driven delay functions. ">
<polygon fill="white" stroke="black" points="325.751,-112.5 325.751,-131.5 432.751,-131.5 432.751,-112.5 325.751,-112.5"/>
<text text-anchor="middle" x="379.251" y="-119.5" font-family="Helvetica,sans-Serif" font-size="10.00">md_stm32f4_delay.h</text>
</a>
</g>
</g>
<!-- Node7&#45;&gt;Node12 -->
<g id="edge13" class="edge"><title>Node7&#45;&gt;Node12</title>
<path fill="none" stroke="midnightblue" d="M1011.08,-232.375C906.624,-229.411 482.267,-215.74 430.251,-188 410.732,-177.591 396.222,-156.134 387.77,-140.718"/>
<polygon fill="midnightblue" stroke="midnightblue" points="390.785,-138.928 383.098,-131.636 384.56,-142.13 390.785,-138.928"/>
</g>
<!-- Node15 -->
<g id="node15" class="node"><title>Node15</title>
<g id="a_node15"><a xlink:href="a00033.html" target="_top" xlink:title="Definitions to extend board support for STM32F429i&#45;DISCO and equivalent boards. ">
<polygon fill="white" stroke="black" points="1267.75,-112.5 1267.75,-131.5 1374.75,-131.5 1374.75,-112.5 1267.75,-112.5"/>
<text text-anchor="middle" x="1321.25" y="-119.5" font-family="Helvetica,sans-Serif" font-size="10.00">md_stm32f4_disco.h</text>
</a>
</g>
</g>
<!-- Node7&#45;&gt;Node15 -->
<g id="edge17" class="edge"><title>Node7&#45;&gt;Node15</title>
<path fill="none" stroke="midnightblue" d="M1057.26,-226.279C1060.28,-225.472 1063.33,-224.691 1066.25,-224 1148.62,-204.525 1178.04,-226.822 1253.25,-188 1275.81,-176.353 1296.05,-154.876 1308.47,-139.806"/>
<polygon fill="midnightblue" stroke="midnightblue" points="1311.35,-141.804 1314.83,-131.797 1305.87,-137.449 1311.35,-141.804"/>
</g>
<!-- Node17 -->
<g id="node17" class="node"><title>Node17</title>
<g id="a_node17"><a xlink:href="a00037_source.html" target="_top" xlink:title="md_stm32f4_timer.h">
<polygon fill="white" stroke="black" points="125.251,-112.5 125.251,-131.5 231.251,-131.5 231.251,-112.5 125.251,-112.5"/>
<text text-anchor="middle" x="178.251" y="-119.5" font-family="Helvetica,sans-Serif" font-size="10.00">md_stm32f4_timer.h</text>
</a>
</g>
</g>
<!-- Node7&#45;&gt;Node17 -->
<g id="edge22" class="edge"><title>Node7&#45;&gt;Node17</title>
<path fill="none" stroke="midnightblue" d="M1011.12,-233.094C928.128,-233.063 637.885,-229.779 403.251,-188 333.618,-175.601 254.73,-150.041 211.315,-134.93"/>
<polygon fill="midnightblue" stroke="midnightblue" points="212.431,-131.613 201.837,-131.6 210.111,-138.217 212.431,-131.613"/>
</g>
<!-- Node18 -->
<g id="node18" class="node"><title>Node18</title>
<g id="a_node18"><a xlink:href="a00057_source.html" target="_top" xlink:title="tm_stm32f4_pwm.h">
<polygon fill="white" stroke="black" points="935.751,-168.5 935.751,-187.5 1038.75,-187.5 1038.75,-168.5 935.751,-168.5"/>
<text text-anchor="middle" x="987.251" y="-175.5" font-family="Helvetica,sans-Serif" font-size="10.00">tm_stm32f4_pwm.h</text>
</a>
</g>
</g>
<!-- Node7&#45;&gt;Node18 -->
<g id="edge25" class="edge"><title>Node7&#45;&gt;Node18</title>
<path fill="none" stroke="midnightblue" d="M1026.49,-224.083C1019.71,-216.298 1009.71,-204.801 1001.5,-195.367"/>
<polygon fill="midnightblue" stroke="midnightblue" points="1004.07,-192.996 994.868,-187.751 998.793,-197.592 1004.07,-192.996"/>
</g>
<!-- Node21 -->
<g id="node21" class="node"><title>Node21</title>
<g id="a_node21"><a xlink:href="a00063_source.html" target="_top" xlink:title="tm_stm32f4_usart.h">
<polygon fill="white" stroke="black" points="591.251,-112.5 591.251,-131.5 695.251,-131.5 695.251,-112.5 591.251,-112.5"/>
<text text-anchor="middle" x="643.251" y="-119.5" font-family="Helvetica,sans-Serif" font-size="10.00">tm_stm32f4_usart.h</text>
</a>
</g>
</g>
<!-- Node7&#45;&gt;Node21 -->
<g id="edge36" class="edge"><title>Node7&#45;&gt;Node21</title>
<path fill="none" stroke="midnightblue" d="M1010.98,-226.554C982.769,-218.516 933.943,-203.883 893.251,-188 873.616,-180.336 870.227,-174.724 850.251,-168 802.756,-152.012 747.174,-140.295 705.571,-132.831"/>
<polygon fill="midnightblue" stroke="midnightblue" points="706.033,-129.359 695.577,-131.072 704.819,-136.253 706.033,-129.359"/>
</g>
<!-- Node23 -->
<g id="node23" class="node"><title>Node23</title>
<polygon fill="white" stroke="#bfbfbf" points="439.251,-168.5 439.251,-187.5 507.251,-187.5 507.251,-168.5 439.251,-168.5"/>
<text text-anchor="middle" x="473.251" y="-175.5" font-family="Helvetica,sans-Serif" font-size="10.00">core_cm4.h</text>
</g>
<!-- Node7&#45;&gt;Node23 -->
<g id="edge44" class="edge"><title>Node7&#45;&gt;Node23</title>
<path fill="none" stroke="midnightblue" d="M1011.16,-231.981C939.416,-228.608 713.9,-216.446 517.379,-187.998"/>
<polygon fill="midnightblue" stroke="midnightblue" points="517.854,-184.531 507.452,-186.544 516.839,-191.457 517.854,-184.531"/>
</g>
<!-- Node24 -->
<g id="node24" class="node"><title>Node24</title>
<polygon fill="white" stroke="#bfbfbf" points="525.251,-168.5 525.251,-187.5 593.251,-187.5 593.251,-168.5 525.251,-168.5"/>
<text text-anchor="middle" x="559.251" y="-175.5" font-family="Helvetica,sans-Serif" font-size="10.00">arm_math.h</text>
</g>
<!-- Node7&#45;&gt;Node24 -->
<g id="edge45" class="edge"><title>Node7&#45;&gt;Node24</title>
<path fill="none" stroke="midnightblue" d="M1011.2,-231.435C947.783,-226.954 765.28,-212.875 603.588,-188.063"/>
<polygon fill="midnightblue" stroke="midnightblue" points="603.879,-184.566 593.46,-186.49 602.805,-191.483 603.879,-184.566"/>
</g>
<!-- Node25 -->
<g id="node25" class="node"><title>Node25</title>
<g id="a_node25"><a xlink:href="a00044.html" target="_top" xlink:title="Provides initialization methods to configure analog subsystems and DMA controller. ">
<polygon fill="white" stroke="black" points="1056.75,-168.5 1056.75,-187.5 1155.75,-187.5 1155.75,-168.5 1056.75,-168.5"/>
<text text-anchor="middle" x="1106.25" y="-175.5" font-family="Helvetica,sans-Serif" font-size="10.00">periph2dma_conf.h</text>
</a>
</g>
</g>
<!-- Node7&#45;&gt;Node25 -->
<g id="edge48" class="edge"><title>Node7&#45;&gt;Node25</title>
<path fill="none" stroke="midnightblue" d="M1045.82,-224.324C1056.67,-216.185 1073.13,-203.839 1086.13,-194.087"/>
<polygon fill="midnightblue" stroke="midnightblue" points="1088.57,-196.634 1094.47,-187.834 1084.37,-191.034 1088.57,-196.634"/>
</g>
<!-- Node7&#45;&gt;Node27 -->
<g id="edge54" class="edge"><title>Node7&#45;&gt;Node27</title>
<path fill="none" stroke="midnightblue" d="M1054.84,-224.455C1055.65,-224.293 1056.46,-224.141 1057.25,-224 1264.86,-187.279 1321.12,-214.709 1530.25,-188 1532.87,-187.666 1535.55,-187.287 1538.28,-186.878"/>
<polygon fill="midnightblue" stroke="midnightblue" points="1538.88,-190.326 1548.2,-185.295 1537.78,-183.414 1538.88,-190.326"/>
</g>
<!-- Node7&#45;&gt;Node28 -->
<g id="edge58" class="edge"><title>Node7&#45;&gt;Node28</title>
<path fill="none" stroke="midnightblue" d="M1011.23,-231.514C925.271,-225.958 614.961,-205.803 359.251,-188 332.616,-186.146 302.771,-183.982 279.035,-182.241"/>
<polygon fill="midnightblue" stroke="midnightblue" points="279.159,-178.741 268.93,-181.498 278.646,-185.722 279.159,-178.741"/>
</g>
<!-- Node7&#45;&gt;Node30 -->
<g id="edge62" class="edge"><title>Node7&#45;&gt;Node30</title>
<path fill="none" stroke="midnightblue" d="M1057.55,-225.903C1060.46,-225.178 1063.41,-224.518 1066.25,-224 1247.07,-190.973 1297.3,-220.311 1478.25,-188 1479.53,-187.771 1480.84,-187.515 1482.15,-187.239"/>
<polygon fill="midnightblue" stroke="midnightblue" points="1483.29,-190.566 1492.19,-184.822 1481.65,-183.761 1483.29,-190.566"/>
</g>
<!-- Node32 -->
<g id="node32" class="node"><title>Node32</title>
<g id="a_node32"><a xlink:href="a00049.html" target="_top" xlink:title="Provides DAC driven signal generator functions. ">
<polygon fill="white" stroke="black" points="611.251,-168.5 611.251,-187.5 679.251,-187.5 679.251,-168.5 611.251,-168.5"/>
<text text-anchor="middle" x="645.251" y="-175.5" font-family="Helvetica,sans-Serif" font-size="10.00">signalGen.h</text>
</a>
</g>
</g>
<!-- Node7&#45;&gt;Node32 -->
<g id="edge69" class="edge"><title>Node7&#45;&gt;Node32</title>
<path fill="none" stroke="midnightblue" d="M1011.03,-230.376C955.816,-224.039 812.367,-207.012 693.251,-188 691.979,-187.797 690.69,-187.586 689.389,-187.37"/>
<polygon fill="midnightblue" stroke="midnightblue" points="689.751,-183.881 679.3,-185.62 688.554,-190.778 689.751,-183.881"/>
</g>
<!-- Node7&#45;&gt;Node33 -->
<g id="edge71" class="edge"><title>Node7&#45;&gt;Node33</title>
<path fill="none" stroke="midnightblue" d="M1057.57,-225.994C1060.48,-225.253 1063.42,-224.565 1066.25,-224 1197.07,-197.863 1232.48,-208.822 1364.25,-188 1367.55,-187.479 1370.97,-186.894 1374.39,-186.28"/>
<polygon fill="midnightblue" stroke="midnightblue" points="1375.34,-189.662 1384.52,-184.378 1374.05,-182.782 1375.34,-189.662"/>
</g>
<!-- Node12&#45;&gt;Node4 -->
<g id="edge16" class="edge"><title>Node12&#45;&gt;Node4</title>
<path fill="none" stroke="midnightblue" d="M432.827,-113.006C436.012,-112.637 439.172,-112.297 442.251,-112 758.077,-81.5322 838.938,-100.911 1155.25,-76 1170.19,-74.8232 1186.59,-73.1517 1200.9,-71.568"/>
<polygon fill="midnightblue" stroke="midnightblue" points="1201.36,-75.0388 1210.9,-70.4387 1200.57,-68.083 1201.36,-75.0388"/>
</g>
<!-- Node12&#45;&gt;Node13 -->
<g id="edge14" class="edge"><title>Node12&#45;&gt;Node13</title>
<path fill="none" stroke="midnightblue" d="M378.484,-112.21C377.781,-97.9497 378.751,-69.9641 395.251,-56 437.013,-20.6566 813.909,-13.0105 946.426,-11.4095"/>
<polygon fill="midnightblue" stroke="midnightblue" points="946.683,-14.9069 956.642,-11.2923 946.603,-7.90733 946.683,-14.9069"/>
</g>
<!-- Node12&#45;&gt;Node14 -->
<g id="edge15" class="edge"><title>Node12&#45;&gt;Node14</title>
<path fill="none" stroke="midnightblue" d="M390.498,-112.324C401.048,-104.185 417.052,-91.8395 429.693,-82.0874"/>
<polygon fill="midnightblue" stroke="midnightblue" points="432.019,-84.7132 437.799,-75.8339 427.744,-79.1707 432.019,-84.7132"/>
</g>
<!-- Node15&#45;&gt;Node4 -->
<g id="edge18" class="edge"><title>Node15&#45;&gt;Node4</title>
<path fill="none" stroke="midnightblue" d="M1308.08,-112.324C1295.4,-103.979 1276.02,-91.2122 1261.05,-81.3524"/>
<polygon fill="midnightblue" stroke="midnightblue" points="1262.67,-78.2313 1252.39,-75.6545 1258.82,-84.0776 1262.67,-78.2313"/>
</g>
<!-- Node15&#45;&gt;Node13 -->
<g id="edge19" class="edge"><title>Node15&#45;&gt;Node13</title>
<path fill="none" stroke="midnightblue" d="M1317.85,-112.125C1311.83,-97.7431 1297.86,-69.5864 1276.25,-56 1237.46,-31.6139 1108.26,-19.062 1038.27,-13.9117"/>
<polygon fill="midnightblue" stroke="midnightblue" points="1038.2,-10.3981 1027.97,-13.1765 1037.7,-17.3803 1038.2,-10.3981"/>
</g>
<!-- Node16 -->
<g id="node16" class="node"><title>Node16</title>
<g id="a_node16"><a xlink:href="a00035.html" target="_top" xlink:title="Provides generic methods for GPIO module initialization and manipulation. ">
<polygon fill="white" stroke="black" points="1044.25,-56.5 1044.25,-75.5 1146.25,-75.5 1146.25,-56.5 1044.25,-56.5"/>
<text text-anchor="middle" x="1095.25" y="-63.5" font-family="Helvetica,sans-Serif" font-size="10.00">md_stm32f4_gpio.h</text>
</a>
</g>
</g>
<!-- Node15&#45;&gt;Node16 -->
<g id="edge20" class="edge"><title>Node15&#45;&gt;Node16</title>
<path fill="none" stroke="midnightblue" d="M1285.44,-112.444C1246.26,-103.083 1183.37,-88.0561 1140.74,-77.868"/>
<polygon fill="midnightblue" stroke="midnightblue" points="1141.43,-74.4363 1130.89,-75.5164 1139.81,-81.2446 1141.43,-74.4363"/>
</g>
<!-- Node16&#45;&gt;Node13 -->
<g id="edge21" class="edge"><title>Node16&#45;&gt;Node13</title>
<path fill="none" stroke="midnightblue" d="M1078.7,-56.324C1062.26,-47.7034 1036.82,-34.3643 1017.78,-24.3855"/>
<polygon fill="midnightblue" stroke="midnightblue" points="1019.24,-21.198 1008.76,-19.6545 1015.99,-27.3977 1019.24,-21.198"/>
</g>
<!-- Node17&#45;&gt;Node13 -->
<g id="edge23" class="edge"><title>Node17&#45;&gt;Node13</title>
<path fill="none" stroke="midnightblue" d="M198.939,-112.477C234.901,-98.0814 311.582,-69.2263 379.251,-56 588.334,-15.1333 844.12,-10.639 946.606,-10.6407"/>
<polygon fill="midnightblue" stroke="midnightblue" points="946.609,-14.1407 956.615,-10.6555 946.62,-7.14066 946.609,-14.1407"/>
</g>
<!-- Node17&#45;&gt;Node14 -->
<g id="edge24" class="edge"><title>Node17&#45;&gt;Node14</title>
<path fill="none" stroke="midnightblue" d="M221.192,-112.444C268.764,-102.964 345.494,-87.6747 396.639,-77.4835"/>
<polygon fill="midnightblue" stroke="midnightblue" points="397.388,-80.9032 406.511,-75.5164 396.02,-74.0382 397.388,-80.9032"/>
</g>
<!-- Node18&#45;&gt;Node4 -->
<g id="edge35" class="edge"><title>Node18&#45;&gt;Node4</title>
<path fill="none" stroke="midnightblue" d="M1038.89,-168.779C1088.19,-160.275 1158.39,-146.263 1182.25,-132 1201.91,-120.249 1218.38,-99.4156 1228.48,-84.5005"/>
<polygon fill="midnightblue" stroke="midnightblue" points="1231.68,-86.006 1234.17,-75.7088 1225.8,-82.2035 1231.68,-86.006"/>
</g>
<!-- Node18&#45;&gt;Node13 -->
<g id="edge26" class="edge"><title>Node18&#45;&gt;Node13</title>
<path fill="none" stroke="midnightblue" d="M987.52,-168.075C988.307,-141.945 990.618,-65.2106 991.691,-29.577"/>
<polygon fill="midnightblue" stroke="midnightblue" points="995.19,-29.669 991.993,-19.5681 988.193,-29.4582 995.19,-29.669"/>
</g>
<!-- Node18&#45;&gt;Node14 -->
<g id="edge27" class="edge"><title>Node18&#45;&gt;Node14</title>
<path fill="none" stroke="midnightblue" d="M935.466,-173.467C841.658,-166.7 647.302,-150.89 582.251,-132 541.146,-120.063 497.233,-96.147 471.563,-80.8905"/>
<polygon fill="midnightblue" stroke="midnightblue" points="473.339,-77.8745 462.97,-75.6997 469.72,-83.8662 473.339,-77.8745"/>
</g>
<!-- Node18&#45;&gt;Node16 -->
<g id="edge28" class="edge"><title>Node18&#45;&gt;Node16</title>
<path fill="none" stroke="midnightblue" d="M995.725,-168.368C1013.86,-149.894 1056.67,-106.293 1079.79,-82.7436"/>
<polygon fill="midnightblue" stroke="midnightblue" points="1082.31,-85.1792 1086.82,-75.5914 1077.31,-80.275 1082.31,-85.1792"/>
</g>
<!-- Node19 -->
<g id="node19" class="node"><title>Node19</title>
<polygon fill="white" stroke="#bfbfbf" points="813.751,-56.5 813.751,-75.5 902.751,-75.5 902.751,-56.5 813.751,-56.5"/>
<text text-anchor="middle" x="858.251" y="-63.5" font-family="Helvetica,sans-Serif" font-size="10.00">stm32f4xx_tim.h</text>
</g>
<!-- Node18&#45;&gt;Node19 -->
<g id="edge29" class="edge"><title>Node18&#45;&gt;Node19</title>
<path fill="none" stroke="midnightblue" d="M935.672,-169.215C877.606,-159.927 790.03,-144.134 780.251,-132 763.058,-110.668 795.495,-91.2785 823.635,-79.3363"/>
<polygon fill="midnightblue" stroke="midnightblue" points="824.974,-82.5703 832.935,-75.5798 822.352,-76.0797 824.974,-82.5703"/>
</g>
<!-- Node20 -->
<g id="node20" class="node"><title>Node20</title>
<g id="a_node20"><a xlink:href="a00061_source.html" target="_top" xlink:title="tm_stm32f4_timer_properties.h">
<polygon fill="white" stroke="black" points="789.251,-112.5 789.251,-131.5 941.251,-131.5 941.251,-112.5 789.251,-112.5"/>
<text text-anchor="middle" x="865.251" y="-119.5" font-family="Helvetica,sans-Serif" font-size="10.00">tm_stm32f4_timer_properties.h</text>
</a>
</g>
</g>
<!-- Node18&#45;&gt;Node20 -->
<g id="edge30" class="edge"><title>Node18&#45;&gt;Node20</title>
<path fill="none" stroke="midnightblue" d="M967.92,-168.444C947.931,-159.596 916.508,-145.687 893.687,-135.586"/>
<polygon fill="midnightblue" stroke="midnightblue" points="895.053,-132.363 884.492,-131.516 892.219,-138.764 895.053,-132.363"/>
</g>
<!-- Node20&#45;&gt;Node4 -->
<g id="edge34" class="edge"><title>Node20&#45;&gt;Node4</title>
<path fill="none" stroke="midnightblue" d="M924.512,-112.444C1001.97,-101.26 1135.44,-81.9885 1200.85,-72.5439"/>
<polygon fill="midnightblue" stroke="midnightblue" points="1201.73,-75.9542 1211.12,-71.061 1200.73,-69.0261 1201.73,-75.9542"/>
</g>
<!-- Node20&#45;&gt;Node13 -->
<g id="edge31" class="edge"><title>Node20&#45;&gt;Node13</title>
<path fill="none" stroke="midnightblue" d="M875.216,-112.368C896.639,-93.8137 947.324,-49.9129 974.427,-26.4376"/>
<polygon fill="midnightblue" stroke="midnightblue" points="977.064,-28.7841 982.332,-19.5914 972.481,-23.4929 977.064,-28.7841"/>
</g>
<!-- Node20&#45;&gt;Node14 -->
<g id="edge32" class="edge"><title>Node20&#45;&gt;Node14</title>
<path fill="none" stroke="midnightblue" d="M788.985,-112.553C717.736,-104.432 608.16,-91.354 503.839,-76.182"/>
<polygon fill="midnightblue" stroke="midnightblue" points="504.162,-72.6921 493.761,-74.7073 503.149,-79.6184 504.162,-72.6921"/>
</g>
<!-- Node20&#45;&gt;Node19 -->
<g id="edge33" class="edge"><title>Node20&#45;&gt;Node19</title>
<path fill="none" stroke="midnightblue" d="M864.095,-112.083C863.167,-104.927 861.833,-94.6353 860.674,-85.6911"/>
<polygon fill="midnightblue" stroke="midnightblue" points="864.142,-85.2181 859.385,-75.7511 857.2,-86.1181 864.142,-85.2181"/>
</g>
<!-- Node21&#45;&gt;Node4 -->
<g id="edge43" class="edge"><title>Node21&#45;&gt;Node4</title>
<path fill="none" stroke="midnightblue" d="M695.613,-116.73C788.321,-109.095 987.399,-92.3668 1155.25,-76 1170.17,-74.5454 1186.56,-72.8179 1200.88,-71.2672"/>
<polygon fill="midnightblue" stroke="midnightblue" points="1201.32,-74.7397 1210.88,-70.1757 1200.56,-67.781 1201.32,-74.7397"/>
</g>
<!-- Node21&#45;&gt;Node6 -->
<g id="edge37" class="edge"><title>Node21&#45;&gt;Node6</title>
<path fill="none" stroke="midnightblue" d="M663.691,-112.444C684.921,-103.557 718.35,-89.5632 742.506,-79.4514"/>
<polygon fill="midnightblue" stroke="midnightblue" points="744.033,-82.6064 751.906,-75.5164 741.33,-76.1493 744.033,-82.6064"/>
</g>
<!-- Node21&#45;&gt;Node11 -->
<g id="edge42" class="edge"><title>Node21&#45;&gt;Node11</title>
<path fill="none" stroke="midnightblue" d="M627.345,-112.324C611.613,-103.743 587.309,-90.486 569.042,-80.5224"/>
<polygon fill="midnightblue" stroke="midnightblue" points="570.572,-77.3704 560.117,-75.6545 567.22,-83.5157 570.572,-77.3704"/>
</g>
<!-- Node21&#45;&gt;Node13 -->
<g id="edge38" class="edge"><title>Node21&#45;&gt;Node13</title>
<path fill="none" stroke="midnightblue" d="M654.687,-112.458C676.19,-96.5473 722.11,-63.3203 740.251,-56 808.689,-28.3833 894.374,-17.6601 946.135,-13.5341"/>
<polygon fill="midnightblue" stroke="midnightblue" points="946.621,-17.0076 956.333,-12.7719 946.1,-10.027 946.621,-17.0076"/>
</g>
<!-- Node21&#45;&gt;Node14 -->
<g id="edge39" class="edge"><title>Node21&#45;&gt;Node14</title>
<path fill="none" stroke="midnightblue" d="M612.511,-112.444C579.307,-103.201 526.26,-88.4356 489.693,-78.2572"/>
<polygon fill="midnightblue" stroke="midnightblue" points="490.419,-74.8262 479.847,-75.5164 488.542,-81.5699 490.419,-74.8262"/>
</g>
<!-- Node21&#45;&gt;Node16 -->
<g id="edge40" class="edge"><title>Node21&#45;&gt;Node16</title>
<path fill="none" stroke="midnightblue" d="M695.543,-114.753C779.676,-104.701 944.687,-84.9877 1034.13,-74.3024"/>
<polygon fill="midnightblue" stroke="midnightblue" points="1034.61,-77.77 1044.12,-73.1083 1033.78,-70.8194 1034.61,-77.77"/>
</g>
<!-- Node22 -->
<g id="node22" class="node"><title>Node22</title>
<polygon fill="white" stroke="#bfbfbf" points="595.251,-56.5 595.251,-75.5 693.251,-75.5 693.251,-56.5 595.251,-56.5"/>
<text text-anchor="middle" x="644.251" y="-63.5" font-family="Helvetica,sans-Serif" font-size="10.00">stm32f4xx_usart.h</text>
</g>
<!-- Node21&#45;&gt;Node22 -->
<g id="edge41" class="edge"><title>Node21&#45;&gt;Node22</title>
<path fill="none" stroke="midnightblue" d="M643.416,-112.083C643.547,-105.006 643.735,-94.8611 643.899,-85.9865"/>
<polygon fill="midnightblue" stroke="midnightblue" points="647.403,-85.8142 644.089,-75.7511 640.404,-85.6845 647.403,-85.8142"/>
</g>
<!-- Node25&#45;&gt;Node13 -->
<g id="edge49" class="edge"><title>Node25&#45;&gt;Node13</title>
<path fill="none" stroke="midnightblue" d="M1096.95,-168.202C1088.01,-159.481 1074.39,-145.504 1064.25,-132 1038.32,-97.4442 1013.87,-52.9252 1001.22,-28.6733"/>
<polygon fill="midnightblue" stroke="midnightblue" points="1004.24,-26.8962 996.554,-19.6086 998.021,-30.1014 1004.24,-26.8962"/>
</g>
<!-- Node26 -->
<g id="node26" class="node"><title>Node26</title>
<g id="a_node26"><a xlink:href="a00027.html" target="_top" xlink:title="Project XA&#45;Galvo scanner specific digital to analog converter methods. ">
<polygon fill="white" stroke="black" points="1073.25,-112.5 1073.25,-131.5 1173.25,-131.5 1173.25,-112.5 1073.25,-112.5"/>
<text text-anchor="middle" x="1123.25" y="-119.5" font-family="Helvetica,sans-Serif" font-size="10.00">md_stm32f4_dac.h</text>
</a>
</g>
</g>
<!-- Node25&#45;&gt;Node26 -->
<g id="edge50" class="edge"><title>Node25&#45;&gt;Node26</title>
<path fill="none" stroke="midnightblue" d="M1109.06,-168.083C1111.34,-160.849 1114.62,-150.409 1117.46,-141.397"/>
<polygon fill="midnightblue" stroke="midnightblue" points="1120.83,-142.341 1120.5,-131.751 1114.15,-140.239 1120.83,-142.341"/>
</g>
<!-- Node26&#45;&gt;Node4 -->
<g id="edge52" class="edge"><title>Node26&#45;&gt;Node4</title>
<path fill="none" stroke="midnightblue" d="M1141.63,-112.444C1160.47,-103.675 1189.98,-89.9355 1211.63,-79.8579"/>
<polygon fill="midnightblue" stroke="midnightblue" points="1213.37,-82.9098 1220.96,-75.5164 1210.41,-76.5637 1213.37,-82.9098"/>
</g>
<!-- Node26&#45;&gt;Node13 -->
<g id="edge51" class="edge"><title>Node26&#45;&gt;Node13</title>
<path fill="none" stroke="midnightblue" d="M1133.2,-112.412C1147.09,-99.3832 1169.12,-74.2142 1155.25,-56 1141.05,-37.3489 1081.14,-24.4559 1038.07,-17.395"/>
<polygon fill="midnightblue" stroke="midnightblue" points="1038.49,-13.9185 1028.07,-15.8093 1037.4,-20.8322 1038.49,-13.9185"/>
</g>
<!-- Node26&#45;&gt;Node16 -->
<g id="edge53" class="edge"><title>Node26&#45;&gt;Node16</title>
<path fill="none" stroke="midnightblue" d="M1118.63,-112.083C1114.79,-104.691 1109.23,-93.9533 1104.49,-84.8111"/>
<polygon fill="midnightblue" stroke="midnightblue" points="1107.5,-83.0175 1099.79,-75.7511 1101.28,-86.2398 1107.5,-83.0175"/>
</g>
<!-- Node27&#45;&gt;Node3 -->
<g id="edge57" class="edge"><title>Node27&#45;&gt;Node3</title>
<path fill="none" stroke="midnightblue" d="M1571.24,-187.608C1544.14,-200.447 1491.17,-225.124 1445.25,-244 1416.28,-255.909 1382.88,-268.225 1358.52,-276.956"/>
<polygon fill="midnightblue" stroke="midnightblue" points="1357.25,-273.695 1349.01,-280.35 1359.6,-280.288 1357.25,-273.695"/>
</g>
<!-- Node27&#45;&gt;Node4 -->
<g id="edge56" class="edge"><title>Node27&#45;&gt;Node4</title>
<path fill="none" stroke="midnightblue" d="M1630.37,-168.637C1671.42,-158.521 1725.08,-139.374 1700.25,-112 1672.04,-80.9054 1383.1,-70.5966 1277.57,-67.8533"/>
<polygon fill="midnightblue" stroke="midnightblue" points="1277.45,-64.3493 1267.36,-67.5969 1277.27,-71.3471 1277.45,-64.3493"/>
</g>
<!-- Node27&#45;&gt;Node7 -->
<g id="edge55" class="edge"><title>Node27&#45;&gt;Node7</title>
<path fill="none" stroke="midnightblue" d="M1551.97,-187.503C1550.72,-187.677 1549.48,-187.844 1548.25,-188 1339.12,-214.709 1282.86,-187.279 1075.25,-224 1072.68,-224.455 1070.01,-225.032 1067.32,-225.672"/>
<polygon fill="midnightblue" stroke="midnightblue" points="1066.37,-222.3 1057.55,-228.167 1068.11,-229.082 1066.37,-222.3"/>
</g>
<!-- Node28&#45;&gt;Node13 -->
<g id="edge59" class="edge"><title>Node28&#45;&gt;Node13</title>
<path fill="none" stroke="midnightblue" d="M201.57,-175.516C143.617,-172.18 28.8692,-161.877 4.25084,-132 -1.40178,-125.14 -1.42453,-118.841 4.25084,-112 65.1985,-38.5323 760.022,-16.5918 946.454,-12.0078"/>
<polygon fill="midnightblue" stroke="midnightblue" points="946.815,-15.5002 956.728,-11.7603 946.647,-8.50228 946.815,-15.5002"/>
</g>
<!-- Node28&#45;&gt;Node14 -->
<g id="edge61" class="edge"><title>Node28&#45;&gt;Node14</title>
<path fill="none" stroke="midnightblue" d="M239.223,-168.381C246.133,-154.367 261.712,-126.727 283.251,-112 316.199,-89.4721 359.999,-78.2012 394.334,-72.5737"/>
<polygon fill="midnightblue" stroke="midnightblue" points="395.304,-75.9666 404.663,-71.0022 394.251,-69.0462 395.304,-75.9666"/>
</g>
<!-- Node29 -->
<g id="node29" class="node"><title>Node29</title>
<polygon fill="white" stroke="#bfbfbf" points="13.2508,-112.5 13.2508,-131.5 107.251,-131.5 107.251,-112.5 13.2508,-112.5"/>
<text text-anchor="middle" x="60.2508" y="-119.5" font-family="Helvetica,sans-Serif" font-size="10.00">stm32f4xx_gpio.h</text>
</g>
<!-- Node28&#45;&gt;Node29 -->
<g id="edge60" class="edge"><title>Node28&#45;&gt;Node29</title>
<path fill="none" stroke="midnightblue" d="M207.522,-168.444C177.825,-159.28 130.535,-144.688 97.5815,-134.519"/>
<polygon fill="midnightblue" stroke="midnightblue" points="98.4378,-131.121 87.8504,-131.516 96.3738,-137.809 98.4378,-131.121"/>
</g>
<!-- Node30&#45;&gt;Node2 -->
<g id="edge64" class="edge"><title>Node30&#45;&gt;Node2</title>
<path fill="none" stroke="midnightblue" d="M1492.24,-173.973C1478.86,-171.958 1460.5,-169.428 1444.25,-168 1062.28,-134.44 964.949,-155.927 582.251,-132 557.191,-130.433 528.909,-128.054 507.574,-126.135"/>
<polygon fill="midnightblue" stroke="midnightblue" points="507.681,-122.631 497.405,-125.209 507.046,-129.602 507.681,-122.631"/>
</g>
<!-- Node30&#45;&gt;Node4 -->
<g id="edge68" class="edge"><title>Node30&#45;&gt;Node4</title>
<path fill="none" stroke="midnightblue" d="M1530.25,-169.394C1552.46,-160.075 1587.08,-144.042 1594.25,-132 1598.8,-124.362 1600.13,-118.669 1594.25,-112 1573.53,-88.4859 1364.89,-74.0811 1277.47,-69.0354"/>
<polygon fill="midnightblue" stroke="midnightblue" points="1277.61,-65.5379 1267.43,-68.4664 1277.22,-72.5267 1277.61,-65.5379"/>
</g>
<!-- Node30&#45;&gt;Node8 -->
<g id="edge63" class="edge"><title>Node30&#45;&gt;Node8</title>
<path fill="none" stroke="midnightblue" d="M1496.15,-168.324C1481.35,-159.822 1458.56,-146.729 1441.27,-136.797"/>
<polygon fill="midnightblue" stroke="midnightblue" points="1442.73,-133.601 1432.32,-131.655 1439.24,-139.671 1442.73,-133.601"/>
</g>
<!-- Node30&#45;&gt;Node9 -->
<g id="edge65" class="edge"><title>Node30&#45;&gt;Node9</title>
<path fill="none" stroke="midnightblue" d="M1519.51,-168.083C1526.72,-160.298 1537.36,-148.801 1546.1,-139.367"/>
<polygon fill="midnightblue" stroke="midnightblue" points="1548.92,-141.467 1553.15,-131.751 1543.79,-136.711 1548.92,-141.467"/>
</g>
<!-- Node30&#45;&gt;Node13 -->
<g id="edge67" class="edge"><title>Node30&#45;&gt;Node13</title>
<path fill="none" stroke="midnightblue" d="M1530.46,-170.571C1533.39,-169.664 1536.39,-168.777 1539.25,-168 1612.36,-148.122 1749.89,-169.229 1700.25,-112 1656.6,-61.6818 1188.61,-24.751 1038.39,-14.1221"/>
<polygon fill="midnightblue" stroke="midnightblue" points="1038.35,-10.6111 1028.13,-13.4025 1037.86,-17.5939 1038.35,-10.6111"/>
</g>
<!-- Node31 -->
<g id="node31" class="node"><title>Node31</title>
<polygon fill="white" stroke="#bfbfbf" points="1642.75,-112.5 1642.75,-131.5 1691.75,-131.5 1691.75,-112.5 1642.75,-112.5"/>
<text text-anchor="middle" x="1667.25" y="-119.5" font-family="Helvetica,sans-Serif" font-size="10.00">stdint.h</text>
</g>
<!-- Node30&#45;&gt;Node31 -->
<g id="edge66" class="edge"><title>Node30&#45;&gt;Node31</title>
<path fill="none" stroke="midnightblue" d="M1530.38,-170.379C1555.85,-161.56 1601.36,-145.808 1632.87,-134.901"/>
<polygon fill="midnightblue" stroke="midnightblue" points="1634.26,-138.124 1642.56,-131.545 1631.97,-131.509 1634.26,-138.124"/>
</g>
<!-- Node32&#45;&gt;Node2 -->
<g id="edge70" class="edge"><title>Node32&#45;&gt;Node2</title>
<path fill="none" stroke="midnightblue" d="M618.155,-168.444C588.073,-158.944 539.514,-143.609 507.242,-133.418"/>
<polygon fill="midnightblue" stroke="midnightblue" points="507.971,-129.978 497.381,-130.304 505.863,-136.653 507.971,-129.978"/>
</g>
<!-- Node33&#45;&gt;Node2 -->
<g id="edge72" class="edge"><title>Node33&#45;&gt;Node2</title>
<path fill="none" stroke="midnightblue" d="M1384.48,-175.871C1282.62,-171.35 898.22,-153.747 582.251,-132 557.201,-130.276 528.919,-127.904 507.581,-126.027"/>
<polygon fill="midnightblue" stroke="midnightblue" points="507.681,-122.523 497.41,-125.124 507.062,-129.495 507.681,-122.523"/>
</g>
<!-- Node33&#45;&gt;Node8 -->
<g id="edge74" class="edge"><title>Node33&#45;&gt;Node8</title>
<path fill="none" stroke="midnightblue" d="M1411.41,-168.083C1412.33,-160.927 1413.67,-150.635 1414.83,-141.691"/>
<polygon fill="midnightblue" stroke="midnightblue" points="1418.3,-142.118 1416.12,-131.751 1411.36,-141.218 1418.3,-142.118"/>
</g>
<!-- Node33&#45;&gt;Node9 -->
<g id="edge73" class="edge"><title>Node33&#45;&gt;Node9</title>
<path fill="none" stroke="midnightblue" d="M1434.18,-168.444C1459.47,-159.399 1499.55,-145.064 1527.93,-134.916"/>
<polygon fill="midnightblue" stroke="midnightblue" points="1529.2,-138.179 1537.44,-131.516 1526.84,-131.588 1529.2,-138.179"/>
</g>
<!-- Node34 -->
<g id="node34" class="node"><title>Node34</title>
<polygon fill="white" stroke="#bfbfbf" points="1459.75,-112.5 1459.75,-131.5 1518.75,-131.5 1518.75,-112.5 1459.75,-112.5"/>
<text text-anchor="middle" x="1489.25" y="-119.5" font-family="Helvetica,sans-Serif" font-size="10.00">inttypes.h</text>
</g>
<!-- Node33&#45;&gt;Node34 -->
<g id="edge75" class="edge"><title>Node33&#45;&gt;Node34</title>
<path fill="none" stroke="midnightblue" d="M1422.94,-168.324C1435.15,-159.979 1453.83,-147.212 1468.25,-137.352"/>
<polygon fill="midnightblue" stroke="midnightblue" points="1470.31,-140.187 1476.59,-131.655 1466.36,-134.408 1470.31,-140.187"/>
</g>
</g>
</svg>
