<?xml version="1.0" encoding="UTF-8" standalone="no"?>
<!DOCTYPE svg PUBLIC "-//W3C//DTD SVG 1.1//EN"
 "http://www.w3.org/Graphics/SVG/1.1/DTD/svg11.dtd">
<!-- Generated by graphviz version 2.38.0 (20140413.2041)
 -->
<!-- Title: actuators.h Pages: 1 -->
<svg width="1915pt" height="308pt"
 viewBox="0.00 0.00 1914.60 308.00" xmlns="http://www.w3.org/2000/svg" xmlns:xlink="http://www.w3.org/1999/xlink">
<g id="graph0" class="graph" transform="scale(1 1) rotate(0) translate(4 304)">
<title>actuators.h</title>
<polygon fill="white" stroke="none" points="-4,4 -4,-304 1910.6,-304 1910.6,4 -4,4"/>
<!-- Node1 -->
<g id="node1" class="node"><title>Node1</title>
<polygon fill="#bfbfbf" stroke="black" points="1063.5,-280.5 1063.5,-299.5 1128.5,-299.5 1128.5,-280.5 1063.5,-280.5"/>
<text text-anchor="middle" x="1096" y="-287.5" font-family="Helvetica,sans-Serif" font-size="10.00">actuators.h</text>
</g>
<!-- Node2 -->
<g id="node2" class="node"><title>Node2</title>
<polygon fill="white" stroke="#bfbfbf" points="1202,-56.5 1202,-75.5 1248,-75.5 1248,-56.5 1202,-56.5"/>
<text text-anchor="middle" x="1225" y="-63.5" font-family="Helvetica,sans-Serif" font-size="10.00">stdio.h</text>
</g>
<!-- Node1&#45;&gt;Node2 -->
<g id="edge1" class="edge"><title>Node1&#45;&gt;Node2</title>
<path fill="none" stroke="midnightblue" d="M1067.85,-280.454C1022,-264.705 937.708,-227.197 953,-168 960.115,-140.456 960.928,-128.643 984,-112 988.22,-108.956 1126.7,-84.2903 1191.8,-72.8228"/>
<polygon fill="midnightblue" stroke="midnightblue" points="1192.71,-76.2162 1201.95,-71.0363 1191.5,-69.322 1192.71,-76.2162"/>
</g>
<!-- Node3 -->
<g id="node3" class="node"><title>Node3</title>
<g id="a_node3"><a xlink:href="a00014.html" target="_top" xlink:title="Provides DMA related configuration and access functions for ADC and DAC. ">
<polygon fill="white" stroke="black" points="1053,-224.5 1053,-243.5 1139,-243.5 1139,-224.5 1053,-224.5"/>
<text text-anchor="middle" x="1096" y="-231.5" font-family="Helvetica,sans-Serif" font-size="10.00">adc_dac_dma.h</text>
</a>
</g>
</g>
<!-- Node1&#45;&gt;Node3 -->
<g id="edge2" class="edge"><title>Node1&#45;&gt;Node3</title>
<path fill="none" stroke="midnightblue" d="M1090.83,-280.083C1089.32,-272.927 1088.89,-262.635 1089.54,-253.691"/>
<polygon fill="midnightblue" stroke="midnightblue" points="1093.02,-254.126 1090.87,-243.751 1086.08,-253.2 1093.02,-254.126"/>
</g>
<!-- Node4 -->
<g id="node4" class="node"><title>Node4</title>
<g id="a_node4"><a xlink:href="a00019.html" target="_top" xlink:title="Global defines include file. ">
<polygon fill="white" stroke="black" points="143,-0.5 143,-19.5 199,-19.5 199,-0.5 143,-0.5"/>
<text text-anchor="middle" x="171" y="-7.5" font-family="Helvetica,sans-Serif" font-size="10.00">globals.h</text>
</a>
</g>
</g>
<!-- Node1&#45;&gt;Node4 -->
<g id="edge76" class="edge"><title>Node1&#45;&gt;Node4</title>
<path fill="none" stroke="midnightblue" d="M1063.5,-289.234C881.798,-290.122 0,-288.78 0,-179 0,-179 0,-179 0,-121 0,-58.2538 82.4431,-29.6098 132.84,-17.9616"/>
<polygon fill="midnightblue" stroke="midnightblue" points="133.742,-21.3472 142.763,-15.7906 132.246,-14.509 133.742,-21.3472"/>
</g>
<!-- Node24 -->
<g id="node24" class="node"><title>Node24</title>
<g id="a_node24"><a xlink:href="a00023.html" target="_top" xlink:title="Analog processing related callback handler definition. ">
<polygon fill="white" stroke="black" points="136,-112.5 136,-131.5 218,-131.5 218,-112.5 136,-112.5"/>
<text text-anchor="middle" x="177" y="-119.5" font-family="Helvetica,sans-Serif" font-size="10.00">isr_callbacks.h</text>
</a>
</g>
</g>
<!-- Node1&#45;&gt;Node24 -->
<g id="edge77" class="edge"><title>Node1&#45;&gt;Node24</title>
<path fill="none" stroke="midnightblue" d="M1063.37,-283.203C1015.33,-274.661 922.731,-258.171 844,-244 614.304,-202.657 340.224,-152.757 228.358,-132.367"/>
<polygon fill="midnightblue" stroke="midnightblue" points="228.828,-128.894 218.362,-130.544 227.572,-135.781 228.828,-128.894"/>
</g>
<!-- Node25 -->
<g id="node25" class="node"><title>Node25</title>
<g id="a_node25"><a xlink:href="a00040.html" target="_top" xlink:title="Project MD_APP scanner specific pin mappings. ">
<polygon fill="white" stroke="black" points="1796.5,-112.5 1796.5,-131.5 1863.5,-131.5 1863.5,-112.5 1796.5,-112.5"/>
<text text-anchor="middle" x="1830" y="-119.5" font-family="Helvetica,sans-Serif" font-size="10.00">mdb_gpio.h</text>
</a>
</g>
</g>
<!-- Node1&#45;&gt;Node25 -->
<g id="edge78" class="edge"><title>Node1&#45;&gt;Node25</title>
<path fill="none" stroke="midnightblue" d="M1128.81,-285.007C1182.19,-278.249 1291.05,-263.378 1382,-244 1536.21,-211.142 1716.47,-157.804 1792.82,-134.504"/>
<polygon fill="midnightblue" stroke="midnightblue" points="1793.93,-137.826 1802.47,-131.552 1791.88,-131.132 1793.93,-137.826"/>
</g>
<!-- Node27 -->
<g id="node27" class="node"><title>Node27</title>
<g id="a_node27"><a xlink:href="a00046.html" target="_top" xlink:title="PID compensator implementation. ">
<polygon fill="white" stroke="black" points="1342,-112.5 1342,-131.5 1380,-131.5 1380,-112.5 1342,-112.5"/>
<text text-anchor="middle" x="1361" y="-119.5" font-family="Helvetica,sans-Serif" font-size="10.00">pid.h</text>
</a>
</g>
</g>
<!-- Node1&#45;&gt;Node27 -->
<g id="edge79" class="edge"><title>Node1&#45;&gt;Node27</title>
<path fill="none" stroke="midnightblue" d="M1128.62,-288.875C1190.82,-286.653 1325.47,-271.864 1385,-188 1395.4,-173.355 1385.5,-153.684 1375.45,-139.831"/>
<polygon fill="midnightblue" stroke="midnightblue" points="1377.97,-137.371 1369.03,-131.678 1372.47,-141.701 1377.97,-137.371"/>
</g>
<!-- Node30 -->
<g id="node30" class="node"><title>Node30</title>
<g id="a_node30"><a xlink:href="a00021.html" target="_top" xlink:title="Provides tools and helper functions. ">
<polygon fill="white" stroke="black" points="1474.5,-112.5 1474.5,-131.5 1525.5,-131.5 1525.5,-112.5 1474.5,-112.5"/>
<text text-anchor="middle" x="1500" y="-119.5" font-family="Helvetica,sans-Serif" font-size="10.00">helper.h</text>
</a>
</g>
</g>
<!-- Node1&#45;&gt;Node30 -->
<g id="edge80" class="edge"><title>Node1&#45;&gt;Node30</title>
<path fill="none" stroke="midnightblue" d="M1128.66,-288.3C1178.38,-286.133 1275.05,-277.537 1349,-244 1406.12,-218.096 1460.23,-165.625 1485.35,-139.11"/>
<polygon fill="midnightblue" stroke="midnightblue" points="1487.93,-141.476 1492.18,-131.773 1482.8,-136.705 1487.93,-141.476"/>
</g>
<!-- Node3&#45;&gt;Node1 -->
<g id="edge75" class="edge"><title>Node3&#45;&gt;Node1</title>
<path fill="none" stroke="midnightblue" d="M1101.13,-243.751C1102.66,-250.858 1103.1,-261.136 1102.47,-270.101"/>
<polygon fill="midnightblue" stroke="midnightblue" points="1098.99,-269.713 1101.17,-280.083 1105.93,-270.622 1098.99,-269.713"/>
</g>
<!-- Node3&#45;&gt;Node4 -->
<g id="edge3" class="edge"><title>Node3&#45;&gt;Node4</title>
<path fill="none" stroke="midnightblue" d="M1052.98,-225.792C975.147,-212.921 805.673,-185.68 662,-168 496.699,-147.659 450.638,-172.141 289,-132 273.14,-128.061 162.093,-89.5784 153,-76 143.365,-61.6129 150.867,-42.1587 158.923,-28.2917"/>
<polygon fill="midnightblue" stroke="midnightblue" points="161.965,-30.0299 164.385,-19.715 156.061,-26.2698 161.965,-30.0299"/>
</g>
<!-- Node5 -->
<g id="node5" class="node"><title>Node5</title>
<g id="a_node5"><a xlink:href="a00042.html" target="_top" xlink:title="Provides nested vector interrupt controller configuration methods. ">
<polygon fill="white" stroke="black" points="1284,-168.5 1284,-187.5 1358,-187.5 1358,-168.5 1284,-168.5"/>
<text text-anchor="middle" x="1321" y="-175.5" font-family="Helvetica,sans-Serif" font-size="10.00">nvic_config.h</text>
</a>
</g>
</g>
<!-- Node3&#45;&gt;Node5 -->
<g id="edge4" class="edge"><title>Node3&#45;&gt;Node5</title>
<path fill="none" stroke="midnightblue" d="M1131.65,-224.444C1170.66,-215.083 1233.27,-200.056 1275.72,-189.868"/>
<polygon fill="midnightblue" stroke="midnightblue" points="1276.61,-193.254 1285.51,-187.516 1274.97,-186.447 1276.61,-193.254"/>
</g>
<!-- Node7 -->
<g id="node7" class="node"><title>Node7</title>
<g id="a_node7"><a xlink:href="a00025.html" target="_top" xlink:title="Main header definition. ">
<polygon fill="white" stroke="black" points="962,-168.5 962,-187.5 1008,-187.5 1008,-168.5 962,-168.5"/>
<text text-anchor="middle" x="985" y="-175.5" font-family="Helvetica,sans-Serif" font-size="10.00">main.h</text>
</a>
</g>
</g>
<!-- Node3&#45;&gt;Node7 -->
<g id="edge6" class="edge"><title>Node3&#45;&gt;Node7</title>
<path fill="none" stroke="midnightblue" d="M1073.32,-224.444C1053.65,-215.794 1025.65,-202.306 1006.37,-192.268"/>
<polygon fill="midnightblue" stroke="midnightblue" points="1007.9,-189.118 997.426,-187.516 1004.61,-195.3 1007.9,-189.118"/>
</g>
<!-- Node12 -->
<g id="node12" class="node"><title>Node12</title>
<polygon fill="white" stroke="#bfbfbf" points="926.5,-0.5 926.5,-19.5 997.5,-19.5 997.5,-0.5 926.5,-0.5"/>
<text text-anchor="middle" x="962" y="-7.5" font-family="Helvetica,sans-Serif" font-size="10.00">stm32f4xx.h</text>
</g>
<!-- Node3&#45;&gt;Node12 -->
<g id="edge73" class="edge"><title>Node3&#45;&gt;Node12</title>
<path fill="none" stroke="midnightblue" d="M1083.51,-224.299C1066.41,-211.341 1039.49,-186.514 1055,-168 1113.55,-98.0889 1198.45,-201.911 1257,-132 1278.69,-106.105 1279.01,-81.6222 1257,-56 1240.99,-37.3595 1086.67,-21.6315 1007.85,-14.7378"/>
<polygon fill="midnightblue" stroke="midnightblue" points="1007.97,-11.2355 997.709,-13.8633 1007.37,-18.2097 1007.97,-11.2355"/>
</g>
<!-- Node13 -->
<g id="node13" class="node"><title>Node13</title>
<polygon fill="white" stroke="#bfbfbf" points="1129.5,-0.5 1129.5,-19.5 1218.5,-19.5 1218.5,-0.5 1129.5,-0.5"/>
<text text-anchor="middle" x="1174" y="-7.5" font-family="Helvetica,sans-Serif" font-size="10.00">stm32f4xx_rcc.h</text>
</g>
<!-- Node3&#45;&gt;Node13 -->
<g id="edge72" class="edge"><title>Node3&#45;&gt;Node13</title>
<path fill="none" stroke="midnightblue" d="M1139.03,-232.398C1283.81,-229.621 1750.96,-214.333 1872,-132 1895.52,-116 1895.88,-103.544 1903,-76 1905.22,-67.3936 1909.09,-62.4761 1903,-56 1879.99,-31.5215 1395.28,-16.7278 1229.23,-12.3632"/>
<polygon fill="midnightblue" stroke="midnightblue" points="1228.85,-8.85222 1218.76,-12.0908 1228.67,-15.8499 1228.85,-8.85222"/>
</g>
<!-- Node3&#45;&gt;Node27 -->
<g id="edge69" class="edge"><title>Node3&#45;&gt;Node27</title>
<path fill="none" stroke="midnightblue" d="M1139.27,-232.336C1208.26,-230.259 1338.32,-221.835 1367,-188 1377.85,-175.2 1374.14,-155.463 1369.09,-141.095"/>
<polygon fill="midnightblue" stroke="midnightblue" points="1372.32,-139.746 1365.36,-131.758 1365.82,-142.343 1372.32,-139.746"/>
</g>
<!-- Node3&#45;&gt;Node30 -->
<g id="edge74" class="edge"><title>Node3&#45;&gt;Node30</title>
<path fill="none" stroke="midnightblue" d="M1139.28,-231.096C1196.83,-227.487 1301.06,-217.17 1385,-188 1420.6,-175.627 1457.89,-152.349 1480.03,-137.269"/>
<polygon fill="midnightblue" stroke="midnightblue" points="1482.05,-140.128 1488.27,-131.553 1478.06,-134.376 1482.05,-140.128"/>
</g>
<!-- Node32 -->
<g id="node32" class="node"><title>Node32</title>
<polygon fill="white" stroke="#bfbfbf" points="1064,-168.5 1064,-187.5 1156,-187.5 1156,-168.5 1064,-168.5"/>
<text text-anchor="middle" x="1110" y="-175.5" font-family="Helvetica,sans-Serif" font-size="10.00">stm32f4xx_adc.h</text>
</g>
<!-- Node3&#45;&gt;Node32 -->
<g id="edge70" class="edge"><title>Node3&#45;&gt;Node32</title>
<path fill="none" stroke="midnightblue" d="M1098.31,-224.083C1100.17,-216.927 1102.84,-206.635 1105.15,-197.691"/>
<polygon fill="midnightblue" stroke="midnightblue" points="1108.61,-198.309 1107.73,-187.751 1101.83,-196.553 1108.61,-198.309"/>
</g>
<!-- Node33 -->
<g id="node33" class="node"><title>Node33</title>
<polygon fill="white" stroke="#bfbfbf" points="1174,-168.5 1174,-187.5 1266,-187.5 1266,-168.5 1174,-168.5"/>
<text text-anchor="middle" x="1220" y="-175.5" font-family="Helvetica,sans-Serif" font-size="10.00">stm32f4xx_dac.h</text>
</g>
<!-- Node3&#45;&gt;Node33 -->
<g id="edge71" class="edge"><title>Node3&#45;&gt;Node33</title>
<path fill="none" stroke="midnightblue" d="M1115.65,-224.444C1135.96,-215.596 1167.9,-201.687 1191.1,-191.586"/>
<polygon fill="midnightblue" stroke="midnightblue" points="1192.67,-194.718 1200.44,-187.516 1189.88,-188.3 1192.67,-194.718"/>
</g>
<!-- Node6 -->
<g id="node6" class="node"><title>Node6</title>
<polygon fill="white" stroke="#bfbfbf" points="898,-56.5 898,-75.5 944,-75.5 944,-56.5 898,-56.5"/>
<text text-anchor="middle" x="921" y="-63.5" font-family="Helvetica,sans-Serif" font-size="10.00">misc.h</text>
</g>
<!-- Node5&#45;&gt;Node6 -->
<g id="edge5" class="edge"><title>Node5&#45;&gt;Node6</title>
<path fill="none" stroke="midnightblue" d="M1315.51,-168.456C1305.71,-154.027 1283.72,-125.124 1257,-112 1136.86,-52.9998 1089.7,-99.8597 958,-76 956.719,-75.768 955.417,-75.5184 954.103,-75.2554"/>
<polygon fill="midnightblue" stroke="midnightblue" points="954.52,-71.7637 944.002,-73.0429 953.022,-78.6016 954.52,-71.7637"/>
</g>
<!-- Node7&#45;&gt;Node1 -->
<g id="edge45" class="edge"><title>Node7&#45;&gt;Node1</title>
<path fill="none" stroke="midnightblue" d="M992.323,-187.717C1003.18,-200.485 1024.37,-224.833 1044,-244 1054.68,-254.427 1067.32,-265.4 1077.47,-273.9"/>
<polygon fill="midnightblue" stroke="midnightblue" points="1075.38,-276.709 1085.31,-280.392 1079.84,-271.318 1075.38,-276.709"/>
</g>
<!-- Node7&#45;&gt;Node2 -->
<g id="edge7" class="edge"><title>Node7&#45;&gt;Node2</title>
<path fill="none" stroke="midnightblue" d="M984.122,-168.442C983.208,-154.516 983.637,-127 999,-112 1060.18,-52.2627 1104.43,-94.111 1188,-76 1189.27,-75.7243 1190.57,-75.4378 1191.87,-75.1438"/>
<polygon fill="midnightblue" stroke="midnightblue" points="1193,-78.4746 1201.95,-72.7971 1191.42,-71.6571 1193,-78.4746"/>
</g>
<!-- Node7&#45;&gt;Node3 -->
<g id="edge46" class="edge"><title>Node7&#45;&gt;Node3</title>
<path fill="none" stroke="midnightblue" d="M1007.9,-187.655C1027.47,-196.267 1055.16,-209.605 1074.36,-219.59"/>
<polygon fill="midnightblue" stroke="midnightblue" points="1072.81,-222.729 1083.28,-224.324 1076.09,-216.545 1072.81,-222.729"/>
</g>
<!-- Node7&#45;&gt;Node4 -->
<g id="edge11" class="edge"><title>Node7&#45;&gt;Node4</title>
<path fill="none" stroke="midnightblue" d="M961.633,-170.675C957.136,-169.64 952.443,-168.684 948,-168 711.584,-131.598 647.709,-166.447 411,-132 383.045,-127.932 180.639,-98.0658 163,-76 152.489,-62.8504 156.812,-43.1683 162.327,-28.9087"/>
<polygon fill="midnightblue" stroke="midnightblue" points="165.573,-30.2205 166.358,-19.6548 159.155,-27.4251 165.573,-30.2205"/>
</g>
<!-- Node8 -->
<g id="node8" class="node"><title>Node8</title>
<polygon fill="white" stroke="#bfbfbf" points="1477,-56.5 1477,-75.5 1525,-75.5 1525,-56.5 1477,-56.5"/>
<text text-anchor="middle" x="1501" y="-63.5" font-family="Helvetica,sans-Serif" font-size="10.00">stdlib.h</text>
</g>
<!-- Node7&#45;&gt;Node8 -->
<g id="edge8" class="edge"><title>Node7&#45;&gt;Node8</title>
<path fill="none" stroke="midnightblue" d="M1008.31,-173.837C1021.92,-172.033 1039.42,-169.783 1055,-168 1214.32,-149.774 1264.54,-190.107 1414,-132 1442.13,-121.062 1469.1,-98.3843 1485.36,-82.9276"/>
<polygon fill="midnightblue" stroke="midnightblue" points="1488.14,-85.1018 1492.84,-75.6034 1483.25,-80.1016 1488.14,-85.1018"/>
</g>
<!-- Node9 -->
<g id="node9" class="node"><title>Node9</title>
<polygon fill="white" stroke="#bfbfbf" points="1409.5,-56.5 1409.5,-75.5 1458.5,-75.5 1458.5,-56.5 1409.5,-56.5"/>
<text text-anchor="middle" x="1434" y="-63.5" font-family="Helvetica,sans-Serif" font-size="10.00">string.h</text>
</g>
<!-- Node7&#45;&gt;Node9 -->
<g id="edge9" class="edge"><title>Node7&#45;&gt;Node9</title>
<path fill="none" stroke="midnightblue" d="M1008,-173.922C1021.65,-172.126 1039.3,-169.855 1055,-168 1129.14,-159.24 1324.83,-170.145 1389,-132 1407.02,-121.287 1419.56,-100.217 1426.74,-84.9635"/>
<polygon fill="midnightblue" stroke="midnightblue" points="1430.06,-86.0965 1430.86,-75.5313 1423.65,-83.2959 1430.06,-86.0965"/>
</g>
<!-- Node10 -->
<g id="node10" class="node"><title>Node10</title>
<g id="a_node10"><a xlink:href="a00016.html" target="_top" xlink:title="Platform/Compiler dependent definitions. ">
<polygon fill="white" stroke="black" points="660.5,-56.5 660.5,-75.5 725.5,-75.5 725.5,-56.5 660.5,-56.5"/>
<text text-anchor="middle" x="693" y="-63.5" font-family="Helvetica,sans-Serif" font-size="10.00">attributes.h</text>
</a>
</g>
</g>
<!-- Node7&#45;&gt;Node10 -->
<g id="edge10" class="edge"><title>Node7&#45;&gt;Node10</title>
<path fill="none" stroke="midnightblue" d="M961.974,-171.082C957.361,-169.986 952.538,-168.904 948,-168 846.096,-147.703 797.411,-197.807 717,-132 703.202,-120.708 697.336,-100.702 694.843,-85.8587"/>
<polygon fill="midnightblue" stroke="midnightblue" points="698.287,-85.2043 693.518,-75.7435 691.346,-86.1134 698.287,-85.2043"/>
</g>
<!-- Node11 -->
<g id="node11" class="node"><title>Node11</title>
<g id="a_node11"><a xlink:href="a00031.html" target="_top" xlink:title="Provides SysTick&#45;Timer driven delay functions. ">
<polygon fill="white" stroke="black" points="1000.5,-56.5 1000.5,-75.5 1107.5,-75.5 1107.5,-56.5 1000.5,-56.5"/>
<text text-anchor="middle" x="1054" y="-63.5" font-family="Helvetica,sans-Serif" font-size="10.00">md_stm32f4_delay.h</text>
</a>
</g>
</g>
<!-- Node7&#45;&gt;Node11 -->
<g id="edge12" class="edge"><title>Node7&#45;&gt;Node11</title>
<path fill="none" stroke="midnightblue" d="M978.356,-168.422C969.147,-155.405 954.833,-130.253 966,-112 975.507,-96.4604 992.263,-86.0704 1008.62,-79.2314"/>
<polygon fill="midnightblue" stroke="midnightblue" points="1010.05,-82.4329 1018.15,-75.6029 1007.56,-75.8913 1010.05,-82.4329"/>
</g>
<!-- Node14 -->
<g id="node14" class="node"><title>Node14</title>
<g id="a_node14"><a xlink:href="a00033.html" target="_top" xlink:title="Definitions to extend board support for STM32F429i&#45;DISCO and equivalent boards. ">
<polygon fill="white" stroke="black" points="420.5,-112.5 420.5,-131.5 527.5,-131.5 527.5,-112.5 420.5,-112.5"/>
<text text-anchor="middle" x="474" y="-119.5" font-family="Helvetica,sans-Serif" font-size="10.00">md_stm32f4_disco.h</text>
</a>
</g>
</g>
<!-- Node7&#45;&gt;Node14 -->
<g id="edge16" class="edge"><title>Node7&#45;&gt;Node14</title>
<path fill="none" stroke="midnightblue" d="M961.622,-170.747C957.126,-169.706 952.436,-168.729 948,-168 769.901,-138.731 720.36,-152.683 537.949,-132.161"/>
<polygon fill="midnightblue" stroke="midnightblue" points="538.077,-128.653 527.744,-130.993 537.281,-135.608 538.077,-128.653"/>
</g>
<!-- Node16 -->
<g id="node16" class="node"><title>Node16</title>
<g id="a_node16"><a xlink:href="a00037_source.html" target="_top" xlink:title="md_stm32f4_timer.h">
<polygon fill="white" stroke="black" points="1621,-56.5 1621,-75.5 1727,-75.5 1727,-56.5 1621,-56.5"/>
<text text-anchor="middle" x="1674" y="-63.5" font-family="Helvetica,sans-Serif" font-size="10.00">md_stm32f4_timer.h</text>
</a>
</g>
</g>
<!-- Node7&#45;&gt;Node16 -->
<g id="edge21" class="edge"><title>Node7&#45;&gt;Node16</title>
<path fill="none" stroke="midnightblue" d="M1008.3,-173.691C1021.9,-171.838 1039.4,-169.588 1055,-168 1267.39,-146.38 1327.41,-185.819 1534,-132 1577.61,-120.639 1624.34,-96.1542 1651.27,-80.6909"/>
<polygon fill="midnightblue" stroke="midnightblue" points="1653.06,-83.6982 1659.93,-75.6339 1649.53,-77.6529 1653.06,-83.6982"/>
</g>
<!-- Node17 -->
<g id="node17" class="node"><title>Node17</title>
<g id="a_node17"><a xlink:href="a00057_source.html" target="_top" xlink:title="tm_stm32f4_pwm.h">
<polygon fill="white" stroke="black" points="545.5,-112.5 545.5,-131.5 648.5,-131.5 648.5,-112.5 545.5,-112.5"/>
<text text-anchor="middle" x="597" y="-119.5" font-family="Helvetica,sans-Serif" font-size="10.00">tm_stm32f4_pwm.h</text>
</a>
</g>
</g>
<!-- Node7&#45;&gt;Node17 -->
<g id="edge24" class="edge"><title>Node7&#45;&gt;Node17</title>
<path fill="none" stroke="midnightblue" d="M961.993,-170.985C957.379,-169.897 952.55,-168.842 948,-168 894.014,-158.005 744.314,-140.031 658.868,-130.092"/>
<polygon fill="midnightblue" stroke="midnightblue" points="659.114,-126.597 648.777,-128.921 658.307,-133.55 659.114,-126.597"/>
</g>
<!-- Node20 -->
<g id="node20" class="node"><title>Node20</title>
<g id="a_node20"><a xlink:href="a00063_source.html" target="_top" xlink:title="tm_stm32f4_usart.h">
<polygon fill="white" stroke="black" points="726,-112.5 726,-131.5 830,-131.5 830,-112.5 726,-112.5"/>
<text text-anchor="middle" x="778" y="-119.5" font-family="Helvetica,sans-Serif" font-size="10.00">tm_stm32f4_usart.h</text>
</a>
</g>
</g>
<!-- Node7&#45;&gt;Node20 -->
<g id="edge35" class="edge"><title>Node7&#45;&gt;Node20</title>
<path fill="none" stroke="midnightblue" d="M961.657,-170.91C927.494,-161.999 863.312,-145.255 820.602,-134.114"/>
<polygon fill="midnightblue" stroke="midnightblue" points="821.33,-130.686 810.77,-131.549 819.563,-137.46 821.33,-130.686"/>
</g>
<!-- Node22 -->
<g id="node22" class="node"><title>Node22</title>
<polygon fill="white" stroke="#bfbfbf" points="1008,-112.5 1008,-131.5 1076,-131.5 1076,-112.5 1008,-112.5"/>
<text text-anchor="middle" x="1042" y="-119.5" font-family="Helvetica,sans-Serif" font-size="10.00">core_cm4.h</text>
</g>
<!-- Node7&#45;&gt;Node22 -->
<g id="edge43" class="edge"><title>Node7&#45;&gt;Node22</title>
<path fill="none" stroke="midnightblue" d="M994.158,-168.324C1002.5,-160.42 1015.03,-148.548 1025.18,-138.938"/>
<polygon fill="midnightblue" stroke="midnightblue" points="1027.82,-141.252 1032.68,-131.834 1023.01,-136.171 1027.82,-141.252"/>
</g>
<!-- Node23 -->
<g id="node23" class="node"><title>Node23</title>
<polygon fill="white" stroke="#bfbfbf" points="1094,-112.5 1094,-131.5 1162,-131.5 1162,-112.5 1094,-112.5"/>
<text text-anchor="middle" x="1128" y="-119.5" font-family="Helvetica,sans-Serif" font-size="10.00">arm_math.h</text>
</g>
<!-- Node7&#45;&gt;Node23 -->
<g id="edge44" class="edge"><title>Node7&#45;&gt;Node23</title>
<path fill="none" stroke="midnightblue" d="M1007.66,-168.444C1031.4,-159.478 1068.91,-145.314 1095.74,-135.183"/>
<polygon fill="midnightblue" stroke="midnightblue" points="1097.33,-138.324 1105.45,-131.516 1094.86,-131.775 1097.33,-138.324"/>
</g>
<!-- Node7&#45;&gt;Node24 -->
<g id="edge47" class="edge"><title>Node7&#45;&gt;Node24</title>
<path fill="none" stroke="midnightblue" d="M961.974,-174.774C944.772,-172.744 921.379,-169.794 901,-168 617.204,-143.016 545.065,-153.726 261,-132 250.337,-131.184 238.997,-130.192 228.191,-129.168"/>
<polygon fill="midnightblue" stroke="midnightblue" points="228.325,-125.665 218.034,-128.181 227.648,-132.632 228.325,-125.665"/>
</g>
<!-- Node7&#45;&gt;Node25 -->
<g id="edge51" class="edge"><title>Node7&#45;&gt;Node25</title>
<path fill="none" stroke="midnightblue" d="M1008.29,-173.592C1021.88,-171.705 1039.38,-169.455 1055,-168 1198.68,-154.608 1644.27,-132.134 1786.14,-125.142"/>
<polygon fill="midnightblue" stroke="midnightblue" points="1786.39,-128.634 1796.21,-124.646 1786.05,-121.642 1786.39,-128.634"/>
</g>
<!-- Node7&#45;&gt;Node27 -->
<g id="edge55" class="edge"><title>Node7&#45;&gt;Node27</title>
<path fill="none" stroke="midnightblue" d="M1008.24,-173.663C1073.57,-164.28 1258.83,-137.673 1331.36,-127.256"/>
<polygon fill="midnightblue" stroke="midnightblue" points="1332.21,-130.671 1341.61,-125.785 1331.21,-123.742 1332.21,-130.671"/>
</g>
<!-- Node29 -->
<g id="node29" class="node"><title>Node29</title>
<g id="a_node29"><a xlink:href="a00049.html" target="_top" xlink:title="Provides DAC driven signal generator functions. ">
<polygon fill="white" stroke="black" points="1180,-112.5 1180,-131.5 1248,-131.5 1248,-112.5 1180,-112.5"/>
<text text-anchor="middle" x="1214" y="-119.5" font-family="Helvetica,sans-Serif" font-size="10.00">signalGen.h</text>
</a>
</g>
</g>
<!-- Node7&#45;&gt;Node29 -->
<g id="edge62" class="edge"><title>Node7&#45;&gt;Node29</title>
<path fill="none" stroke="midnightblue" d="M1008.09,-171.353C1012.69,-170.235 1017.5,-169.075 1022,-168 1072.74,-155.882 1131.11,-142.246 1170.04,-133.193"/>
<polygon fill="midnightblue" stroke="midnightblue" points="1171.04,-136.553 1179.99,-130.88 1169.46,-129.735 1171.04,-136.553"/>
</g>
<!-- Node7&#45;&gt;Node30 -->
<g id="edge64" class="edge"><title>Node7&#45;&gt;Node30</title>
<path fill="none" stroke="midnightblue" d="M1008.31,-173.771C1021.91,-171.945 1039.41,-169.695 1055,-168 1234.65,-148.474 1281.46,-159.895 1460,-132 1461.45,-131.773 1462.93,-131.525 1464.42,-131.259"/>
<polygon fill="midnightblue" stroke="midnightblue" points="1465.14,-134.684 1474.28,-129.315 1463.79,-127.816 1465.14,-134.684"/>
</g>
<!-- Node11&#45;&gt;Node4 -->
<g id="edge15" class="edge"><title>Node11&#45;&gt;Node4</title>
<path fill="none" stroke="midnightblue" d="M1000.22,-57.4657C995.42,-56.9189 990.625,-56.4188 986,-56 660.716,-26.5476 577.574,-46.0466 252,-20 237.951,-18.8761 222.572,-17.2642 209.024,-15.7142"/>
<polygon fill="midnightblue" stroke="midnightblue" points="209.413,-12.2359 199.074,-14.5502 208.6,-19.1885 209.413,-12.2359"/>
</g>
<!-- Node11&#45;&gt;Node12 -->
<g id="edge13" class="edge"><title>Node11&#45;&gt;Node12</title>
<path fill="none" stroke="midnightblue" d="M1039.22,-56.324C1024.73,-47.8215 1002.43,-34.7288 985.507,-24.7975"/>
<polygon fill="midnightblue" stroke="midnightblue" points="987.141,-21.6981 976.745,-19.6545 983.597,-27.735 987.141,-21.6981"/>
</g>
<!-- Node11&#45;&gt;Node13 -->
<g id="edge14" class="edge"><title>Node11&#45;&gt;Node13</title>
<path fill="none" stroke="midnightblue" d="M1073.01,-56.4435C1092.59,-47.6356 1123.31,-33.8116 1145.73,-23.722"/>
<polygon fill="midnightblue" stroke="midnightblue" points="1147.39,-26.8119 1155.07,-19.5164 1144.52,-20.4284 1147.39,-26.8119"/>
</g>
<!-- Node14&#45;&gt;Node4 -->
<g id="edge17" class="edge"><title>Node14&#45;&gt;Node4</title>
<path fill="none" stroke="midnightblue" d="M420.431,-116.507C339.164,-109.164 192.386,-93.6295 176,-76 164.702,-63.8445 164.706,-44.2902 166.771,-29.8"/>
<polygon fill="midnightblue" stroke="midnightblue" points="170.223,-30.3826 168.6,-19.9128 163.34,-29.1097 170.223,-30.3826"/>
</g>
<!-- Node14&#45;&gt;Node12 -->
<g id="edge18" class="edge"><title>Node14&#45;&gt;Node12</title>
<path fill="none" stroke="midnightblue" d="M473.705,-112.204C473.755,-97.9349 476.149,-69.9372 493,-56 525.172,-29.3911 804.328,-16.6028 916.058,-12.5149"/>
<polygon fill="midnightblue" stroke="midnightblue" points="916.465,-16.0026 926.334,-12.1463 916.214,-9.00715 916.465,-16.0026"/>
</g>
<!-- Node15 -->
<g id="node15" class="node"><title>Node15</title>
<g id="a_node15"><a xlink:href="a00035.html" target="_top" xlink:title="Provides generic methods for GPIO module initialization and manipulation. ">
<polygon fill="white" stroke="black" points="502,-56.5 502,-75.5 604,-75.5 604,-56.5 502,-56.5"/>
<text text-anchor="middle" x="553" y="-63.5" font-family="Helvetica,sans-Serif" font-size="10.00">md_stm32f4_gpio.h</text>
</a>
</g>
</g>
<!-- Node14&#45;&gt;Node15 -->
<g id="edge19" class="edge"><title>Node14&#45;&gt;Node15</title>
<path fill="none" stroke="midnightblue" d="M486.693,-112.324C498.901,-103.979 517.578,-91.2122 532.003,-81.3524"/>
<polygon fill="midnightblue" stroke="midnightblue" points="534.058,-84.1871 540.339,-75.6545 530.108,-78.4082 534.058,-84.1871"/>
</g>
<!-- Node15&#45;&gt;Node12 -->
<g id="edge20" class="edge"><title>Node15&#45;&gt;Node12</title>
<path fill="none" stroke="midnightblue" d="M604.09,-57.8891C608.792,-57.2458 613.484,-56.608 618,-56 724.806,-41.62 850.359,-25.3584 916.277,-16.8702"/>
<polygon fill="midnightblue" stroke="midnightblue" points="916.861,-20.324 926.332,-15.5761 915.968,-13.3813 916.861,-20.324"/>
</g>
<!-- Node16&#45;&gt;Node12 -->
<g id="edge22" class="edge"><title>Node16&#45;&gt;Node12</title>
<path fill="none" stroke="midnightblue" d="M1620.76,-57.1167C1617.46,-56.7142 1614.19,-56.3376 1611,-56 1493.7,-43.5713 1135.75,-21.4661 1007.95,-13.7494"/>
<polygon fill="midnightblue" stroke="midnightblue" points="1007.92,-10.2414 997.728,-13.1333 1007.5,-17.2287 1007.92,-10.2414"/>
</g>
<!-- Node16&#45;&gt;Node13 -->
<g id="edge23" class="edge"><title>Node16&#45;&gt;Node13</title>
<path fill="none" stroke="midnightblue" d="M1620.74,-57.242C1617.45,-56.8084 1614.18,-56.3907 1611,-56 1473.8,-39.1419 1311.82,-23.598 1228.93,-15.9577"/>
<polygon fill="midnightblue" stroke="midnightblue" points="1229.01,-12.4508 1218.73,-15.0213 1228.37,-19.4215 1229.01,-12.4508"/>
</g>
<!-- Node17&#45;&gt;Node4 -->
<g id="edge34" class="edge"><title>Node17&#45;&gt;Node4</title>
<path fill="none" stroke="midnightblue" d="M545.42,-113.357C542.233,-112.895 539.073,-112.439 536,-112 420.517,-95.4861 385.747,-115.557 276,-76 243.145,-64.1578 209.589,-41.0686 189.526,-25.8401"/>
<polygon fill="midnightblue" stroke="midnightblue" points="191.6,-23.0189 181.552,-19.6579 187.311,-28.5511 191.6,-23.0189"/>
</g>
<!-- Node17&#45;&gt;Node12 -->
<g id="edge25" class="edge"><title>Node17&#45;&gt;Node12</title>
<path fill="none" stroke="midnightblue" d="M601.564,-112.069C609.474,-97.6064 627.193,-69.3365 651,-56 695.549,-31.0441 841.238,-18.5238 916.334,-13.5964"/>
<polygon fill="midnightblue" stroke="midnightblue" points="916.687,-17.0811 926.443,-12.951 916.241,-10.0953 916.687,-17.0811"/>
</g>
<!-- Node17&#45;&gt;Node13 -->
<g id="edge26" class="edge"><title>Node17&#45;&gt;Node13</title>
<path fill="none" stroke="midnightblue" d="M648.88,-117.008C778.266,-106.987 1105.63,-81.1961 1116,-76 1137.05,-65.4546 1153.95,-43.6953 1163.96,-28.2619"/>
<polygon fill="midnightblue" stroke="midnightblue" points="1167.01,-29.9769 1169.28,-19.6267 1161.05,-26.3061 1167.01,-29.9769"/>
</g>
<!-- Node17&#45;&gt;Node15 -->
<g id="edge27" class="edge"><title>Node17&#45;&gt;Node15</title>
<path fill="none" stroke="midnightblue" d="M589.734,-112.083C583.455,-104.377 574.212,-93.0333 566.569,-83.6531"/>
<polygon fill="midnightblue" stroke="midnightblue" points="569.161,-81.2926 560.131,-75.7511 563.734,-85.7143 569.161,-81.2926"/>
</g>
<!-- Node18 -->
<g id="node18" class="node"><title>Node18</title>
<polygon fill="white" stroke="#bfbfbf" points="261.5,-0.5 261.5,-19.5 350.5,-19.5 350.5,-0.5 261.5,-0.5"/>
<text text-anchor="middle" x="306" y="-7.5" font-family="Helvetica,sans-Serif" font-size="10.00">stm32f4xx_tim.h</text>
</g>
<!-- Node17&#45;&gt;Node18 -->
<g id="edge28" class="edge"><title>Node17&#45;&gt;Node18</title>
<path fill="none" stroke="midnightblue" d="M545.417,-113.375C542.231,-112.908 539.072,-112.447 536,-112 480.238,-103.888 321.908,-118.579 285,-76 273.276,-62.4743 282.677,-42.3023 292.368,-28.0232"/>
<polygon fill="midnightblue" stroke="midnightblue" points="295.446,-29.7468 298.559,-19.6199 289.81,-25.5947 295.446,-29.7468"/>
</g>
<!-- Node19 -->
<g id="node19" class="node"><title>Node19</title>
<g id="a_node19"><a xlink:href="a00061_source.html" target="_top" xlink:title="tm_stm32f4_timer_properties.h">
<polygon fill="white" stroke="black" points="294,-56.5 294,-75.5 446,-75.5 446,-56.5 294,-56.5"/>
<text text-anchor="middle" x="370" y="-63.5" font-family="Helvetica,sans-Serif" font-size="10.00">tm_stm32f4_timer_properties.h</text>
</a>
</g>
</g>
<!-- Node17&#45;&gt;Node19 -->
<g id="edge29" class="edge"><title>Node17&#45;&gt;Node19</title>
<path fill="none" stroke="midnightblue" d="M561.031,-112.444C521.681,-103.083 458.513,-88.0561 415.686,-77.868"/>
<polygon fill="midnightblue" stroke="midnightblue" points="416.339,-74.4258 405.801,-75.5164 414.719,-81.2358 416.339,-74.4258"/>
</g>
<!-- Node19&#45;&gt;Node4 -->
<g id="edge33" class="edge"><title>Node19&#45;&gt;Node4</title>
<path fill="none" stroke="midnightblue" d="M338.468,-56.4435C303.406,-46.9293 246.776,-31.5622 209.22,-21.3713"/>
<polygon fill="midnightblue" stroke="midnightblue" points="209.735,-17.8844 199.167,-18.6433 207.901,-24.6401 209.735,-17.8844"/>
</g>
<!-- Node19&#45;&gt;Node12 -->
<g id="edge30" class="edge"><title>Node19&#45;&gt;Node12</title>
<path fill="none" stroke="midnightblue" d="M446.103,-57.3343C450.805,-56.8778 455.466,-56.4299 460,-56 628.045,-40.0662 827.883,-22.5936 916.177,-14.9491"/>
<polygon fill="midnightblue" stroke="midnightblue" points="916.721,-18.4152 926.382,-14.0663 916.118,-11.4413 916.721,-18.4152"/>
</g>
<!-- Node19&#45;&gt;Node13 -->
<g id="edge31" class="edge"><title>Node19&#45;&gt;Node13</title>
<path fill="none" stroke="midnightblue" d="M446.105,-59.3471C461.62,-58.2183 477.835,-57.0559 493,-56 725.918,-39.7833 1003.75,-21.8695 1119.36,-14.4796"/>
<polygon fill="midnightblue" stroke="midnightblue" points="1119.62,-17.9701 1129.37,-13.8395 1119.17,-10.9843 1119.62,-17.9701"/>
</g>
<!-- Node19&#45;&gt;Node18 -->
<g id="edge32" class="edge"><title>Node19&#45;&gt;Node18</title>
<path fill="none" stroke="midnightblue" d="M359.717,-56.324C350.164,-48.2631 335.72,-36.0765 324.216,-26.3695"/>
<polygon fill="midnightblue" stroke="midnightblue" points="326.37,-23.6076 316.47,-19.8339 321.856,-28.9577 326.37,-23.6076"/>
</g>
<!-- Node20&#45;&gt;Node4 -->
<g id="edge42" class="edge"><title>Node20&#45;&gt;Node4</title>
<path fill="none" stroke="midnightblue" d="M725.567,-116.853C602.843,-107.059 305.69,-82.8094 285,-76 268.71,-70.6386 266.832,-64.6104 252,-56 233.276,-45.13 211.852,-33.2518 195.742,-24.4299"/>
<polygon fill="midnightblue" stroke="midnightblue" points="197.385,-21.3396 186.931,-19.6195 194.031,-27.4835 197.385,-21.3396"/>
</g>
<!-- Node20&#45;&gt;Node6 -->
<g id="edge36" class="edge"><title>Node20&#45;&gt;Node6</title>
<path fill="none" stroke="midnightblue" d="M800.659,-112.444C824.402,-103.478 861.909,-89.314 888.738,-79.1827"/>
<polygon fill="midnightblue" stroke="midnightblue" points="890.329,-82.3235 898.447,-75.5164 887.856,-75.7749 890.329,-82.3235"/>
</g>
<!-- Node20&#45;&gt;Node10 -->
<g id="edge41" class="edge"><title>Node20&#45;&gt;Node10</title>
<path fill="none" stroke="midnightblue" d="M764.343,-112.324C751.084,-103.9 730.732,-90.9709 715.154,-81.0741"/>
<polygon fill="midnightblue" stroke="midnightblue" points="716.94,-78.0626 706.623,-75.6545 713.187,-83.9711 716.94,-78.0626"/>
</g>
<!-- Node20&#45;&gt;Node12 -->
<g id="edge37" class="edge"><title>Node20&#45;&gt;Node12</title>
<path fill="none" stroke="midnightblue" d="M792.438,-112.368C824.147,-93.4121 900.108,-48.0006 938.678,-24.9424"/>
<polygon fill="midnightblue" stroke="midnightblue" points="940.842,-27.7268 947.629,-19.5914 937.25,-21.7186 940.842,-27.7268"/>
</g>
<!-- Node20&#45;&gt;Node13 -->
<g id="edge38" class="edge"><title>Node20&#45;&gt;Node13</title>
<path fill="none" stroke="midnightblue" d="M830.227,-113.788C834.883,-113.172 839.526,-112.568 844,-112 911.923,-103.374 1096.21,-118.363 1150,-76 1164.01,-64.9685 1169.84,-44.9219 1172.27,-29.9973"/>
<polygon fill="midnightblue" stroke="midnightblue" points="1175.77,-30.1738 1173.54,-19.8169 1168.83,-29.3055 1175.77,-30.1738"/>
</g>
<!-- Node20&#45;&gt;Node15 -->
<g id="edge39" class="edge"><title>Node20&#45;&gt;Node15</title>
<path fill="none" stroke="midnightblue" d="M742.348,-112.444C703.344,-103.083 640.734,-88.0561 598.283,-77.868"/>
<polygon fill="midnightblue" stroke="midnightblue" points="599.026,-74.4469 588.485,-75.5164 597.392,-81.2536 599.026,-74.4469"/>
</g>
<!-- Node21 -->
<g id="node21" class="node"><title>Node21</title>
<polygon fill="white" stroke="#bfbfbf" points="744,-56.5 744,-75.5 842,-75.5 842,-56.5 744,-56.5"/>
<text text-anchor="middle" x="793" y="-63.5" font-family="Helvetica,sans-Serif" font-size="10.00">stm32f4xx_usart.h</text>
</g>
<!-- Node20&#45;&gt;Node21 -->
<g id="edge40" class="edge"><title>Node20&#45;&gt;Node21</title>
<path fill="none" stroke="midnightblue" d="M780.477,-112.083C782.486,-104.849 785.386,-94.4087 787.89,-85.3968"/>
<polygon fill="midnightblue" stroke="midnightblue" points="791.265,-86.323 790.569,-75.7511 784.52,-84.4495 791.265,-86.323"/>
</g>
<!-- Node24&#45;&gt;Node3 -->
<g id="edge50" class="edge"><title>Node24&#45;&gt;Node3</title>
<path fill="none" stroke="midnightblue" d="M218.108,-129.981C222.788,-130.7 227.494,-131.39 232,-132 380.391,-152.099 418.237,-150.868 567,-168 741.279,-188.07 947.563,-214.064 1042.86,-226.199"/>
<polygon fill="midnightblue" stroke="midnightblue" points="1042.46,-229.677 1052.83,-227.469 1043.35,-222.733 1042.46,-229.677"/>
</g>
<!-- Node24&#45;&gt;Node4 -->
<g id="edge49" class="edge"><title>Node24&#45;&gt;Node4</title>
<path fill="none" stroke="midnightblue" d="M135.719,-116.482C109.866,-111.278 78.4372,-100.083 62,-76 41.2616,-45.6153 93.941,-27.2155 133.092,-18.0921"/>
<polygon fill="midnightblue" stroke="midnightblue" points="133.939,-21.4895 142.952,-15.9187 132.432,-14.6536 133.939,-21.4895"/>
</g>
<!-- Node24&#45;&gt;Node7 -->
<g id="edge48" class="edge"><title>Node24&#45;&gt;Node7</title>
<path fill="none" stroke="midnightblue" d="M218.116,-126.532C236.86,-128.341 259.106,-130.478 279,-132 563.065,-153.726 635.204,-143.016 919,-168 929.778,-168.949 941.398,-170.221 951.897,-171.509"/>
<polygon fill="midnightblue" stroke="midnightblue" points="951.587,-174.998 961.95,-172.791 952.473,-168.054 951.587,-174.998"/>
</g>
<!-- Node25&#45;&gt;Node12 -->
<g id="edge52" class="edge"><title>Node25&#45;&gt;Node12</title>
<path fill="none" stroke="midnightblue" d="M1819.01,-112.26C1798.34,-96.0117 1754.1,-62.2321 1736,-56 1733.83,-55.2539 1174.27,-23.1568 1008.04,-13.6355"/>
<polygon fill="midnightblue" stroke="midnightblue" points="1007.85,-10.1192 997.667,-13.0416 1007.45,-17.1078 1007.85,-10.1192"/>
</g>
<!-- Node25&#45;&gt;Node13 -->
<g id="edge54" class="edge"><title>Node25&#45;&gt;Node13</title>
<path fill="none" stroke="midnightblue" d="M1846.73,-112.384C1869.21,-99.7412 1904.35,-75.5473 1886,-56 1863.58,-32.1151 1391.76,-16.9702 1228.79,-12.4357"/>
<polygon fill="midnightblue" stroke="midnightblue" points="1228.6,-8.9293 1218.51,-12.1524 1228.41,-15.9266 1228.6,-8.9293"/>
</g>
<!-- Node26 -->
<g id="node26" class="node"><title>Node26</title>
<polygon fill="white" stroke="#bfbfbf" points="1783,-56.5 1783,-75.5 1877,-75.5 1877,-56.5 1783,-56.5"/>
<text text-anchor="middle" x="1830" y="-63.5" font-family="Helvetica,sans-Serif" font-size="10.00">stm32f4xx_gpio.h</text>
</g>
<!-- Node25&#45;&gt;Node26 -->
<g id="edge53" class="edge"><title>Node25&#45;&gt;Node26</title>
<path fill="none" stroke="midnightblue" d="M1830,-112.083C1830,-105.006 1830,-94.8611 1830,-85.9865"/>
<polygon fill="midnightblue" stroke="midnightblue" points="1833.5,-85.751 1830,-75.7511 1826.5,-85.7511 1833.5,-85.751"/>
</g>
<!-- Node27&#45;&gt;Node2 -->
<g id="edge57" class="edge"><title>Node27&#45;&gt;Node2</title>
<path fill="none" stroke="midnightblue" d="M1341.8,-113.378C1319.6,-104.561 1282.72,-89.9185 1256.34,-79.4444"/>
<polygon fill="midnightblue" stroke="midnightblue" points="1257.38,-76.0924 1246.8,-75.655 1254.8,-82.5983 1257.38,-76.0924"/>
</g>
<!-- Node27&#45;&gt;Node4 -->
<g id="edge61" class="edge"><title>Node27&#45;&gt;Node4</title>
<path fill="none" stroke="midnightblue" d="M1341.87,-118.721C1266.68,-109.754 995.256,-77.3294 991,-76 972.783,-70.3098 971.404,-61.0519 953,-56 802.581,-14.7111 407.472,-32.6183 252,-20 237.952,-18.8599 222.573,-17.2444 209.026,-15.6961"/>
<polygon fill="midnightblue" stroke="midnightblue" points="209.414,-12.2177 199.075,-14.5342 208.602,-19.1705 209.414,-12.2177"/>
</g>
<!-- Node27&#45;&gt;Node8 -->
<g id="edge56" class="edge"><title>Node27&#45;&gt;Node8</title>
<path fill="none" stroke="midnightblue" d="M1380.17,-113.605C1403.12,-104.755 1441.87,-89.8087 1469.29,-79.2309"/>
<polygon fill="midnightblue" stroke="midnightblue" points="1470.76,-82.4152 1478.83,-75.5509 1468.24,-75.8841 1470.76,-82.4152"/>
</g>
<!-- Node27&#45;&gt;Node9 -->
<g id="edge58" class="edge"><title>Node27&#45;&gt;Node9</title>
<path fill="none" stroke="midnightblue" d="M1372.73,-112.324C1383.84,-104.107 1400.74,-91.6017 1413.98,-81.8069"/>
<polygon fill="midnightblue" stroke="midnightblue" points="1416.1,-84.5948 1422.06,-75.8339 1411.94,-78.9671 1416.1,-84.5948"/>
</g>
<!-- Node27&#45;&gt;Node12 -->
<g id="edge60" class="edge"><title>Node27&#45;&gt;Node12</title>
<path fill="none" stroke="midnightblue" d="M1354.29,-112.04C1342.87,-97.5356 1318.14,-69.2069 1290,-56 1240.83,-32.9204 1085.46,-19.3905 1007.52,-13.8902"/>
<polygon fill="midnightblue" stroke="midnightblue" points="1007.72,-10.396 997.507,-13.1977 1007.24,-17.3794 1007.72,-10.396"/>
</g>
<!-- Node28 -->
<g id="node28" class="node"><title>Node28</title>
<polygon fill="white" stroke="#bfbfbf" points="1342.5,-56.5 1342.5,-75.5 1391.5,-75.5 1391.5,-56.5 1342.5,-56.5"/>
<text text-anchor="middle" x="1367" y="-63.5" font-family="Helvetica,sans-Serif" font-size="10.00">stdint.h</text>
</g>
<!-- Node27&#45;&gt;Node28 -->
<g id="edge59" class="edge"><title>Node27&#45;&gt;Node28</title>
<path fill="none" stroke="midnightblue" d="M1361.99,-112.083C1362.79,-104.927 1363.93,-94.6353 1364.92,-85.6911"/>
<polygon fill="midnightblue" stroke="midnightblue" points="1368.4,-86.0765 1366.03,-75.7511 1361.44,-85.3034 1368.4,-86.0765"/>
</g>
<!-- Node29&#45;&gt;Node2 -->
<g id="edge63" class="edge"><title>Node29&#45;&gt;Node2</title>
<path fill="none" stroke="midnightblue" d="M1215.82,-112.083C1217.27,-104.927 1219.37,-94.6353 1221.19,-85.6911"/>
<polygon fill="midnightblue" stroke="midnightblue" points="1224.65,-86.2485 1223.22,-75.7511 1217.79,-84.8512 1224.65,-86.2485"/>
</g>
<!-- Node30&#45;&gt;Node2 -->
<g id="edge65" class="edge"><title>Node30&#45;&gt;Node2</title>
<path fill="none" stroke="midnightblue" d="M1474.13,-115.92C1424.01,-106.078 1313.75,-84.4265 1258.27,-73.5323"/>
<polygon fill="midnightblue" stroke="midnightblue" points="1258.74,-70.0585 1248.25,-71.566 1257.39,-76.9273 1258.74,-70.0585"/>
</g>
<!-- Node30&#45;&gt;Node8 -->
<g id="edge67" class="edge"><title>Node30&#45;&gt;Node8</title>
<path fill="none" stroke="midnightblue" d="M1500.17,-112.083C1500.3,-105.006 1500.48,-94.8611 1500.65,-85.9865"/>
<polygon fill="midnightblue" stroke="midnightblue" points="1504.15,-85.8142 1500.84,-75.7511 1497.15,-85.6845 1504.15,-85.8142"/>
</g>
<!-- Node30&#45;&gt;Node9 -->
<g id="edge66" class="edge"><title>Node30&#45;&gt;Node9</title>
<path fill="none" stroke="midnightblue" d="M1489.4,-112.324C1479.54,-104.263 1464.65,-92.0765 1452.78,-82.3695"/>
<polygon fill="midnightblue" stroke="midnightblue" points="1454.75,-79.4575 1444.8,-75.8339 1450.32,-84.8752 1454.75,-79.4575"/>
</g>
<!-- Node31 -->
<g id="node31" class="node"><title>Node31</title>
<polygon fill="white" stroke="#bfbfbf" points="1543.5,-56.5 1543.5,-75.5 1602.5,-75.5 1602.5,-56.5 1543.5,-56.5"/>
<text text-anchor="middle" x="1573" y="-63.5" font-family="Helvetica,sans-Serif" font-size="10.00">inttypes.h</text>
</g>
<!-- Node30&#45;&gt;Node31 -->
<g id="edge68" class="edge"><title>Node30&#45;&gt;Node31</title>
<path fill="none" stroke="midnightblue" d="M1511.73,-112.324C1522.84,-104.107 1539.74,-91.6017 1552.98,-81.8069"/>
<polygon fill="midnightblue" stroke="midnightblue" points="1555.1,-84.5948 1561.06,-75.8339 1550.94,-78.9671 1555.1,-84.5948"/>
</g>
</g>
</svg>
