<?xml version="1.0" encoding="UTF-8" standalone="no"?>
<!DOCTYPE svg PUBLIC "-//W3C//DTD SVG 1.1//EN"
 "http://www.w3.org/Graphics/SVG/1.1/DTD/svg11.dtd">
<!-- Generated by graphviz version 2.38.0 (20140413.2041)
 -->
<!-- Title: RCC_APB1PeriphClockCmd Pages: 1 -->
<svg width="388pt" height="66pt"
 viewBox="0.00 0.00 388.00 66.00" xmlns="http://www.w3.org/2000/svg" xmlns:xlink="http://www.w3.org/1999/xlink">
<g id="graph0" class="graph" transform="scale(1 1) rotate(0) translate(4 62)">
<title>RCC_APB1PeriphClockCmd</title>
<polygon fill="white" stroke="none" points="-4,4 -4,-62 384,-62 384,4 -4,4"/>
<!-- Node1 -->
<g id="node1" class="node"><title>Node1</title>
<polygon fill="#bfbfbf" stroke="black" points="0,-19.5 0,-38.5 144,-38.5 144,-19.5 0,-19.5"/>
<text text-anchor="middle" x="72" y="-26.5" font-family="Helvetica,sans-Serif" font-size="10.00">RCC_APB1PeriphClockCmd</text>
</g>
<!-- Node2 -->
<g id="node2" class="node"><title>Node2</title>
<g id="a_node2"><a xlink:href="a00582.html#ga70bed9fb6612cb572a8c10e148404344" target="_top" xlink:title="Initializes USARTx peripheral and corresponding pins. ">
<polygon fill="white" stroke="black" points="198.5,-38.5 198.5,-57.5 287.5,-57.5 287.5,-38.5 198.5,-38.5"/>
<text text-anchor="middle" x="243" y="-45.5" font-family="Helvetica,sans-Serif" font-size="10.00">TM_USART_Init</text>
</a>
</g>
</g>
<!-- Node1&#45;&gt;Node2 -->
<g id="edge1" class="edge"><title>Node1&#45;&gt;Node2</title>
<path fill="none" stroke="midnightblue" d="M154.164,-38.125C169.419,-39.84 184.819,-41.5714 198.372,-43.0951"/>
<polygon fill="midnightblue" stroke="midnightblue" points="154.51,-34.6419 144.181,-37.0026 153.728,-41.598 154.51,-34.6419"/>
</g>
<!-- Node4 -->
<g id="node4" class="node"><title>Node4</title>
<g id="a_node4"><a xlink:href="a01271.html#gae5d12b8da57e95abcca6e6d9ba8a50bb" target="_top" xlink:title="Enable AHBx peripheral clocks for DMA2, GPIOC, ADC1, TIM2. ">
<polygon fill="white" stroke="black" points="180,-0.5 180,-19.5 306,-19.5 306,-0.5 180,-0.5"/>
<text text-anchor="middle" x="243" y="-7.5" font-family="Helvetica,sans-Serif" font-size="10.00">RCC_Periph2DMA_Conf</text>
</a>
</g>
</g>
<!-- Node1&#45;&gt;Node4 -->
<g id="edge3" class="edge"><title>Node1&#45;&gt;Node4</title>
<path fill="none" stroke="midnightblue" d="M154.216,-19.8693C162.799,-18.9043 171.428,-17.9342 179.747,-16.9989"/>
<polygon fill="midnightblue" stroke="midnightblue" points="153.728,-16.402 144.181,-20.9974 154.51,-23.3581 153.728,-16.402"/>
</g>
<!-- Node3 -->
<g id="node3" class="node"><title>Node3</title>
<g id="a_node3"><a xlink:href="a01287.html#ga840291bc02cba5474a4cb46a9b9566fe" target="_top" xlink:title="Main function entry. ">
<polygon fill="white" stroke="black" points="342,-19.5 342,-38.5 380,-38.5 380,-19.5 342,-19.5"/>
<text text-anchor="middle" x="361" y="-26.5" font-family="Helvetica,sans-Serif" font-size="10.00">main</text>
</a>
</g>
</g>
<!-- Node2&#45;&gt;Node3 -->
<g id="edge2" class="edge"><title>Node2&#45;&gt;Node3</title>
<path fill="none" stroke="midnightblue" d="M297.803,-39.1874C313.612,-36.598 329.839,-33.9401 341.753,-31.9887"/>
<polygon fill="midnightblue" stroke="midnightblue" points="296.827,-35.8006 287.524,-40.871 297.958,-42.7085 296.827,-35.8006"/>
</g>
<!-- Node4&#45;&gt;Node3 -->
<g id="edge4" class="edge"><title>Node4&#45;&gt;Node3</title>
<path fill="none" stroke="midnightblue" d="M312.366,-21.1979C323.181,-22.9693 333.498,-24.6592 341.748,-26.0105"/>
<polygon fill="midnightblue" stroke="midnightblue" points="312.774,-17.7182 302.34,-19.5557 311.643,-24.6261 312.774,-17.7182"/>
</g>
</g>
</svg>
