<?xml version="1.0" encoding="UTF-8" standalone="no"?>
<!DOCTYPE svg PUBLIC "-//W3C//DTD SVG 1.1//EN"
 "http://www.w3.org/Graphics/SVG/1.1/DTD/svg11.dtd">
<!-- Generated by graphviz version 2.38.0 (20140413.2041)
 -->
<!-- Title: MDB_GPIO_Toggle Pages: 1 -->
<svg width="249pt" height="66pt"
 viewBox="0.00 0.00 249.00 66.00" xmlns="http://www.w3.org/2000/svg" xmlns:xlink="http://www.w3.org/1999/xlink">
<g id="graph0" class="graph" transform="scale(1 1) rotate(0) translate(4 62)">
<title>MDB_GPIO_Toggle</title>
<polygon fill="white" stroke="none" points="-4,4 -4,-62 245,-62 245,4 -4,4"/>
<!-- Node1 -->
<g id="node1" class="node"><title>Node1</title>
<polygon fill="#bfbfbf" stroke="black" points="0,-19.5 0,-38.5 104,-38.5 104,-19.5 0,-19.5"/>
<text text-anchor="middle" x="52" y="-26.5" font-family="Helvetica,sans-Serif" font-size="10.00">MDB_GPIO_Toggle</text>
</g>
<!-- Node2 -->
<g id="node2" class="node"><title>Node2</title>
<g id="a_node2"><a xlink:href="a00117.html#ga3e965ca8f413e014ad3a4e27b6b7c0bc" target="_top" xlink:title="Timer 4 overrun IRQ callback. ">
<polygon fill="white" stroke="black" points="140,-38.5 140,-57.5 241,-57.5 241,-38.5 140,-38.5"/>
<text text-anchor="middle" x="190.5" y="-45.5" font-family="Helvetica,sans-Serif" font-size="10.00">TIM4_IRQ_Handler</text>
</a>
</g>
</g>
<!-- Node1&#45;&gt;Node2 -->
<g id="edge1" class="edge"><title>Node1&#45;&gt;Node2</title>
<path fill="none" stroke="midnightblue" d="M114.181,-37.516C122.756,-38.7096 131.482,-39.9242 139.809,-41.0832"/>
<polygon fill="midnightblue" stroke="midnightblue" points="114.603,-34.0411 104.216,-36.129 113.638,-40.9743 114.603,-34.0411"/>
</g>
<!-- Node3 -->
<g id="node3" class="node"><title>Node3</title>
<g id="a_node3"><a xlink:href="a00149.html#ga840291bc02cba5474a4cb46a9b9566fe" target="_top" xlink:title="Main function entry. ">
<polygon fill="white" stroke="black" points="171.5,-0.5 171.5,-19.5 209.5,-19.5 209.5,-0.5 171.5,-0.5"/>
<text text-anchor="middle" x="190.5" y="-7.5" font-family="Helvetica,sans-Serif" font-size="10.00">main</text>
</a>
</g>
</g>
<!-- Node1&#45;&gt;Node3 -->
<g id="edge2" class="edge"><title>Node1&#45;&gt;Node3</title>
<path fill="none" stroke="midnightblue" d="M114.311,-20.4658C135.087,-17.5739 156.73,-14.5614 171.431,-12.5151"/>
<polygon fill="midnightblue" stroke="midnightblue" points="113.638,-17.0257 104.216,-21.871 114.603,-23.9589 113.638,-17.0257"/>
</g>
</g>
</svg>
