<?xml version="1.0" encoding="UTF-8" standalone="no"?>
<!DOCTYPE svg PUBLIC "-//W3C//DTD SVG 1.1//EN"
 "http://www.w3.org/Graphics/SVG/1.1/DTD/svg11.dtd">
<!-- Generated by graphviz version 2.38.0 (20140413.2041)
 -->
<!-- Title: RCC_AHB1PeriphResetCmd Pages: 1 -->
<svg width="273pt" height="66pt"
 viewBox="0.00 0.00 273.00 66.00" xmlns="http://www.w3.org/2000/svg" xmlns:xlink="http://www.w3.org/1999/xlink">
<g id="graph0" class="graph" transform="scale(1 1) rotate(0) translate(4 62)">
<title>RCC_AHB1PeriphResetCmd</title>
<polygon fill="white" stroke="none" points="-4,4 -4,-62 269,-62 269,4 -4,4"/>
<!-- Node1 -->
<g id="node1" class="node"><title>Node1</title>
<polygon fill="#bfbfbf" stroke="black" points="0,-19.5 0,-38.5 146,-38.5 146,-19.5 0,-19.5"/>
<text text-anchor="middle" x="73" y="-26.5" font-family="Helvetica,sans-Serif" font-size="10.00">RCC_AHB1PeriphResetCmd</text>
</g>
<!-- Node2 -->
<g id="node2" class="node"><title>Node2</title>
<g id="a_node2"><a xlink:href="a01004.html#gaccfa4814f6cec9d5e4e47d8b92f0de3a" target="_top" xlink:title="Deinitializes the DMA2D peripheral registers to their default reset values. ">
<polygon fill="white" stroke="black" points="182,-38.5 182,-57.5 265,-57.5 265,-38.5 182,-38.5"/>
<text text-anchor="middle" x="223.5" y="-45.5" font-family="Helvetica,sans-Serif" font-size="10.00">DMA2D_DeInit</text>
</a>
</g>
</g>
<!-- Node1&#45;&gt;Node2 -->
<g id="edge1" class="edge"><title>Node1&#45;&gt;Node2</title>
<path fill="none" stroke="midnightblue" d="M156.128,-39.508C165,-40.643 173.719,-41.7587 181.773,-42.7891"/>
<polygon fill="midnightblue" stroke="midnightblue" points="156.438,-36.0192 146.075,-38.2217 155.55,-42.9626 156.438,-36.0192"/>
</g>
<!-- Node3 -->
<g id="node3" class="node"><title>Node3</title>
<g id="a_node3"><a xlink:href="a01018.html#gaa60bdf3182c44b5fa818f237042f52ee" target="_top" xlink:title="De&#45;initializes the GPIOx peripheral registers to their default reset values. ">
<polygon fill="white" stroke="black" points="187,-0.5 187,-19.5 260,-19.5 260,-0.5 187,-0.5"/>
<text text-anchor="middle" x="223.5" y="-7.5" font-family="Helvetica,sans-Serif" font-size="10.00">GPIO_DeInit</text>
</a>
</g>
</g>
<!-- Node1&#45;&gt;Node3 -->
<g id="edge2" class="edge"><title>Node1&#45;&gt;Node3</title>
<path fill="none" stroke="midnightblue" d="M156.042,-18.5031C166.856,-17.1195 177.447,-15.7644 186.883,-14.557"/>
<polygon fill="midnightblue" stroke="midnightblue" points="155.55,-15.0374 146.075,-19.7783 156.438,-21.9808 155.55,-15.0374"/>
</g>
</g>
</svg>
