<?xml version="1.0" encoding="UTF-8" standalone="no"?>
<!DOCTYPE svg PUBLIC "-//W3C//DTD SVG 1.1//EN"
 "http://www.w3.org/Graphics/SVG/1.1/DTD/svg11.dtd">
<!-- Generated by graphviz version 2.38.0 (20140413.2041)
 -->
<!-- Title: main Pages: 1 -->
<svg width="508pt" height="617pt"
 viewBox="0.00 0.00 508.00 617.00" xmlns="http://www.w3.org/2000/svg" xmlns:xlink="http://www.w3.org/1999/xlink">
<g id="graph0" class="graph" transform="scale(1 1) rotate(0) translate(4 613)">
<title>main</title>
<polygon fill="white" stroke="none" points="-4,4 -4,-613 504,-613 504,4 -4,4"/>
<!-- Node1 -->
<g id="node1" class="node"><title>Node1</title>
<polygon fill="#bfbfbf" stroke="black" points="0,-285.5 0,-304.5 38,-304.5 38,-285.5 0,-285.5"/>
<text text-anchor="middle" x="19" y="-292.5" font-family="Helvetica,sans-Serif" font-size="10.00">main</text>
</g>
<!-- Node2 -->
<g id="node2" class="node"><title>Node2</title>
<g id="a_node2"><a xlink:href="a00142.html#ga93f514700ccf00d08dbdcff7f1224eb2" target="_top" xlink:title="Setup the microcontroller system Initialize the Embedded Flash Interface, the PLL and update the Syst...">
<polygon fill="white" stroke="black" points="118,-570.5 118,-589.5 182,-589.5 182,-570.5 118,-570.5"/>
<text text-anchor="middle" x="150" y="-577.5" font-family="Helvetica,sans-Serif" font-size="10.00">SystemInit</text>
</a>
</g>
</g>
<!-- Node1&#45;&gt;Node2 -->
<g id="edge1" class="edge"><title>Node1&#45;&gt;Node2</title>
<path fill="none" stroke="midnightblue" d="M20.6133,-304.639C23.5522,-347.794 37.5839,-522.799 74,-561 82.7613,-570.191 95.2788,-575.185 107.584,-577.828"/>
<polygon fill="midnightblue" stroke="midnightblue" points="107.342,-581.336 117.783,-579.536 108.498,-574.432 107.342,-581.336"/>
</g>
<!-- Node5 -->
<g id="node5" class="node"><title>Node5</title>
<g id="a_node5"><a xlink:href="a00099.html#gab7945e1fc61902deac23a942a2e2d95d" target="_top" xlink:title="RCC_Configuration">
<polygon fill="white" stroke="black" points="99,-532.5 99,-551.5 201,-551.5 201,-532.5 99,-532.5"/>
<text text-anchor="middle" x="150" y="-539.5" font-family="Helvetica,sans-Serif" font-size="10.00">RCC_Configuration</text>
</a>
</g>
</g>
<!-- Node1&#45;&gt;Node5 -->
<g id="edge5" class="edge"><title>Node1&#45;&gt;Node5</title>
<path fill="none" stroke="midnightblue" d="M20.9557,-304.557C25.0548,-343.66 42.3927,-490.897 74,-523 78.4527,-527.523 83.8168,-531.023 89.604,-533.724"/>
<polygon fill="midnightblue" stroke="midnightblue" points="88.3869,-537.006 98.9764,-537.344 90.9088,-530.476 88.3869,-537.006"/>
</g>
<!-- Node6 -->
<g id="node6" class="node"><title>Node6</title>
<g id="a_node6"><a xlink:href="a00123.html#gad45b8278807ffed1f22e03d86d35bf90" target="_top" xlink:title="Initialize all GPIOs from MDB_GPIO. ">
<polygon fill="white" stroke="black" points="106,-494.5 106,-513.5 194,-513.5 194,-494.5 106,-494.5"/>
<text text-anchor="middle" x="150" y="-501.5" font-family="Helvetica,sans-Serif" font-size="10.00">MDB_GPIO_Init</text>
</a>
</g>
</g>
<!-- Node1&#45;&gt;Node6 -->
<g id="edge6" class="edge"><title>Node1&#45;&gt;Node6</title>
<path fill="none" stroke="midnightblue" d="M19.6334,-304.535C18.9949,-335.45 21.3666,-433.861 74,-485 80.1626,-490.988 87.9283,-495.169 96.1112,-498.074"/>
<polygon fill="midnightblue" stroke="midnightblue" points="95.2568,-501.47 105.838,-500.928 97.228,-494.754 95.2568,-501.47"/>
</g>
<!-- Node9 -->
<g id="node9" class="node"><title>Node9</title>
<g id="a_node9"><a xlink:href="a00030.html#ab6f9456b6ae46b75ed32de43a8456867" target="_top" xlink:title="Inserts a delay time. ">
<polygon fill="white" stroke="black" points="122,-456.5 122,-475.5 178,-475.5 178,-456.5 122,-456.5"/>
<text text-anchor="middle" x="150" y="-463.5" font-family="Helvetica,sans-Serif" font-size="10.00">Delayms</text>
</a>
</g>
</g>
<!-- Node1&#45;&gt;Node9 -->
<g id="edge9" class="edge"><title>Node1&#45;&gt;Node9</title>
<path fill="none" stroke="midnightblue" d="M20.4166,-304.504C22.1195,-331.217 30.7293,-407.587 74,-447 84.2872,-456.37 98.5301,-461.268 111.843,-463.779"/>
<polygon fill="midnightblue" stroke="midnightblue" points="111.352,-467.244 121.761,-465.268 112.391,-460.322 111.352,-467.244"/>
</g>
<!-- Node11 -->
<g id="node11" class="node"><title>Node11</title>
<g id="a_node11"><a xlink:href="a00123.html#ga96648f92af47de61ebadb96b6a543415" target="_top" xlink:title="Provides GPIO pin toggle functionality for MD_GPIO_NAME_t types defined in MDB_GPIO. ">
<polygon fill="white" stroke="black" points="98,-418.5 98,-437.5 202,-437.5 202,-418.5 98,-418.5"/>
<text text-anchor="middle" x="150" y="-425.5" font-family="Helvetica,sans-Serif" font-size="10.00">MDB_GPIO_Toggle</text>
</a>
</g>
</g>
<!-- Node1&#45;&gt;Node11 -->
<g id="edge11" class="edge"><title>Node1&#45;&gt;Node11</title>
<path fill="none" stroke="midnightblue" d="M21.6988,-304.653C26.1022,-326.708 40.0024,-381.039 74,-409 78.2794,-412.519 83.127,-415.398 88.2485,-417.751"/>
<polygon fill="midnightblue" stroke="midnightblue" points="87.1116,-421.064 97.6996,-421.443 89.6588,-414.544 87.1116,-421.064"/>
</g>
<!-- Node12 -->
<g id="node12" class="node"><title>Node12</title>
<g id="a_node12"><a xlink:href="a00085.html#ga99e90c818f4042ca67ee111f9c666297" target="_top" xlink:title="Configures Button pin as input. ">
<polygon fill="white" stroke="black" points="91.5,-380.5 91.5,-399.5 208.5,-399.5 208.5,-380.5 91.5,-380.5"/>
<text text-anchor="middle" x="150" y="-387.5" font-family="Helvetica,sans-Serif" font-size="10.00">MD_DISCO_ButtonInit</text>
</a>
</g>
</g>
<!-- Node1&#45;&gt;Node12 -->
<g id="edge12" class="edge"><title>Node1&#45;&gt;Node12</title>
<path fill="none" stroke="midnightblue" d="M24.0922,-304.598C31.5406,-320.877 48.8953,-353.804 74,-371 76.9141,-372.996 80.021,-374.783 83.2501,-376.382"/>
<polygon fill="midnightblue" stroke="midnightblue" points="82.0469,-379.674 92.6162,-380.409 84.8122,-373.243 82.0469,-379.674"/>
</g>
<!-- Node14 -->
<g id="node14" class="node"><title>Node14</title>
<g id="a_node14"><a xlink:href="a00085.html#gaca7a1ac308a8fda1547ddc0f5872aa74" target="_top" xlink:title="Configure all pins for on&#45;board LEDs as outputs. ">
<polygon fill="white" stroke="black" points="98,-342.5 98,-361.5 202,-361.5 202,-342.5 98,-342.5"/>
<text text-anchor="middle" x="150" y="-349.5" font-family="Helvetica,sans-Serif" font-size="10.00">MD_DISCO_LedInit</text>
</a>
</g>
</g>
<!-- Node1&#45;&gt;Node14 -->
<g id="edge14" class="edge"><title>Node1&#45;&gt;Node14</title>
<path fill="none" stroke="midnightblue" d="M31.2465,-304.781C41.6752,-313.376 57.958,-325.63 74,-333 79.3171,-335.443 84.9964,-337.604 90.7605,-339.51"/>
<polygon fill="midnightblue" stroke="midnightblue" points="89.9064,-342.908 100.493,-342.479 91.9491,-336.213 89.9064,-342.908"/>
</g>
<!-- Node15 -->
<g id="node15" class="node"><title>Node15</title>
<g id="a_node15"><a xlink:href="a00067.html#ga70bed9fb6612cb572a8c10e148404344" target="_top" xlink:title="Initializes USARTx peripheral and corresponding pins. ">
<polygon fill="white" stroke="black" points="105.5,-304.5 105.5,-323.5 194.5,-323.5 194.5,-304.5 105.5,-304.5"/>
<text text-anchor="middle" x="150" y="-311.5" font-family="Helvetica,sans-Serif" font-size="10.00">TM_USART_Init</text>
</a>
</g>
</g>
<!-- Node1&#45;&gt;Node15 -->
<g id="edge16" class="edge"><title>Node1&#45;&gt;Node15</title>
<path fill="none" stroke="midnightblue" d="M38.2089,-297.682C53.0622,-299.87 74.8378,-303.077 95.1609,-306.07"/>
<polygon fill="midnightblue" stroke="midnightblue" points="94.8937,-309.569 105.297,-307.563 95.9137,-302.643 94.8937,-309.569"/>
</g>
<!-- Node16 -->
<g id="node16" class="node"><title>Node16</title>
<g id="a_node16"><a xlink:href="a00078.html#gabb02137ecc24355b4c9d3da38b59a44d" target="_top" xlink:title="Initializes DAC channel and it&#39;s pin. ">
<polygon fill="white" stroke="black" points="111,-266.5 111,-285.5 189,-285.5 189,-266.5 111,-266.5"/>
<text text-anchor="middle" x="150" y="-273.5" font-family="Helvetica,sans-Serif" font-size="10.00">MD_DAC_Init</text>
</a>
</g>
</g>
<!-- Node1&#45;&gt;Node16 -->
<g id="edge17" class="edge"><title>Node1&#45;&gt;Node16</title>
<path fill="none" stroke="midnightblue" d="M38.2089,-292.318C54.457,-289.925 78.9882,-286.312 100.841,-283.093"/>
<polygon fill="midnightblue" stroke="midnightblue" points="101.595,-286.52 110.978,-281.6 100.575,-279.595 101.595,-286.52"/>
</g>
<!-- Node17 -->
<g id="node17" class="node"><title>Node17</title>
<g id="a_node17"><a xlink:href="a00099.html#gab6494f34679dc4d0a8c08ec624a4bcf8" target="_top" xlink:title="Dual DAC set channel wrapper function. ">
<polygon fill="white" stroke="black" points="84,-228.5 84,-247.5 216,-247.5 216,-228.5 84,-228.5"/>
<text text-anchor="middle" x="150" y="-235.5" font-family="Helvetica,sans-Serif" font-size="10.00">DAC_SetDualChanSigned</text>
</a>
</g>
</g>
<!-- Node1&#45;&gt;Node17 -->
<g id="edge19" class="edge"><title>Node1&#45;&gt;Node17</title>
<path fill="none" stroke="midnightblue" d="M31.2465,-285.219C41.6752,-276.624 57.958,-264.37 74,-257 79.3171,-254.557 84.9964,-252.396 90.7605,-250.49"/>
<polygon fill="midnightblue" stroke="midnightblue" points="91.9491,-253.787 100.493,-247.521 89.9064,-247.092 91.9491,-253.787"/>
</g>
<!-- Node18 -->
<g id="node18" class="node"><title>Node18</title>
<g id="a_node18"><a xlink:href="a00128.html#ga5c12343e267ace8587309499bea6babe" target="_top" xlink:title="Provides the initial configuration method for the nested vector interrupt controller. ">
<polygon fill="white" stroke="black" points="98,-190.5 98,-209.5 202,-209.5 202,-190.5 98,-190.5"/>
<text text-anchor="middle" x="150" y="-197.5" font-family="Helvetica,sans-Serif" font-size="10.00">NVIC_Configuration</text>
</a>
</g>
</g>
<!-- Node1&#45;&gt;Node18 -->
<g id="edge20" class="edge"><title>Node1&#45;&gt;Node18</title>
<path fill="none" stroke="midnightblue" d="M24.0922,-285.402C31.5406,-269.123 48.8953,-236.196 74,-219 78.3218,-216.04 83.0675,-213.54 88.0076,-211.43"/>
<polygon fill="midnightblue" stroke="midnightblue" points="89.5324,-214.597 97.6869,-207.833 87.094,-208.036 89.5324,-214.597"/>
</g>
<!-- Node19 -->
<g id="node19" class="node"><title>Node19</title>
<g id="a_node19"><a xlink:href="a00119.html#gabecad8655f9e14a855864feee9fee9e8" target="_top" xlink:title="Set initial values (POR state) of the ASG system and the global state structure members. ">
<polygon fill="white" stroke="black" points="104,-152.5 104,-171.5 196,-171.5 196,-152.5 104,-152.5"/>
<text text-anchor="middle" x="150" y="-159.5" font-family="Helvetica,sans-Serif" font-size="10.00">init_globalStructs</text>
</a>
</g>
</g>
<!-- Node1&#45;&gt;Node19 -->
<g id="edge21" class="edge"><title>Node1&#45;&gt;Node19</title>
<path fill="none" stroke="midnightblue" d="M21.6988,-285.347C26.1022,-263.292 40.0024,-208.961 74,-181 79.8485,-176.19 86.7583,-172.577 93.9782,-169.867"/>
<polygon fill="midnightblue" stroke="midnightblue" points="95.4725,-173.065 103.945,-166.704 93.3551,-166.393 95.4725,-173.065"/>
</g>
<!-- Node20 -->
<g id="node20" class="node"><title>Node20</title>
<g id="a_node20"><a xlink:href="a00085.html#ga4bdeb65c33d29739b341feeb76aee264" target="_top" xlink:title="Checks if button was pressed now, but was not already pressed before. ">
<polygon fill="white" stroke="black" points="74,-114.5 74,-133.5 226,-133.5 226,-114.5 74,-114.5"/>
<text text-anchor="middle" x="150" y="-121.5" font-family="Helvetica,sans-Serif" font-size="10.00">MD_DISCO_ButtonOnPressed</text>
</a>
</g>
</g>
<!-- Node1&#45;&gt;Node20 -->
<g id="edge22" class="edge"><title>Node1&#45;&gt;Node20</title>
<path fill="none" stroke="midnightblue" d="M20.4166,-285.496C22.1195,-258.783 30.7293,-182.413 74,-143 75.6944,-141.457 77.496,-140.035 79.3832,-138.725"/>
<polygon fill="midnightblue" stroke="midnightblue" points="81.2276,-141.701 88.1372,-133.67 77.7271,-135.639 81.2276,-141.701"/>
</g>
<!-- Node21 -->
<g id="node21" class="node"><title>Node21</title>
<g id="a_node21"><a xlink:href="a00144.html#ga4af381bf92ce31395c19b6652b930b7a" target="_top" xlink:title="Fast console command parser. ">
<polygon fill="white" stroke="black" points="104,-76.5 104,-95.5 196,-95.5 196,-76.5 104,-76.5"/>
<text text-anchor="middle" x="150" y="-83.5" font-family="Helvetica,sans-Serif" font-size="10.00">fastConsoleCase</text>
</a>
</g>
</g>
<!-- Node1&#45;&gt;Node21 -->
<g id="edge23" class="edge"><title>Node1&#45;&gt;Node21</title>
<path fill="none" stroke="midnightblue" d="M19.6334,-285.465C18.9949,-254.55 21.3666,-156.139 74,-105 79.6899,-99.4716 86.7465,-95.4828 94.2363,-92.6175"/>
<polygon fill="midnightblue" stroke="midnightblue" points="95.4106,-95.9169 103.885,-89.5576 93.2945,-89.2444 95.4106,-95.9169"/>
</g>
<!-- Node24 -->
<g id="node24" class="node"><title>Node24</title>
<g id="a_node24"><a xlink:href="a00067.html#ga0bf136abba24771c4a5a83ace52a76c1" target="_top" xlink:title="Checks if internal USARTx buffer is full. ">
<polygon fill="white" stroke="black" points="91,-38.5 91,-57.5 209,-57.5 209,-38.5 91,-38.5"/>
<text text-anchor="middle" x="150" y="-45.5" font-family="Helvetica,sans-Serif" font-size="10.00">TM_USART_BufferFull</text>
</a>
</g>
</g>
<!-- Node1&#45;&gt;Node24 -->
<g id="edge26" class="edge"><title>Node1&#45;&gt;Node24</title>
<path fill="none" stroke="midnightblue" d="M20.9557,-285.443C25.0548,-246.34 42.3927,-99.1029 74,-67 76.4031,-64.5593 79.0716,-62.4162 81.9287,-60.5358"/>
<polygon fill="midnightblue" stroke="midnightblue" points="83.8506,-63.4759 90.9897,-55.6474 80.5269,-57.3153 83.8506,-63.4759"/>
</g>
<!-- Node25 -->
<g id="node25" class="node"><title>Node25</title>
<g id="a_node25"><a xlink:href="a00067.html#ga6c8dfcc950305f511393240ea847b2ad" target="_top" xlink:title="Clears internal USART buffer. ">
<polygon fill="white" stroke="black" points="87.5,-0.5 87.5,-19.5 212.5,-19.5 212.5,-0.5 87.5,-0.5"/>
<text text-anchor="middle" x="150" y="-7.5" font-family="Helvetica,sans-Serif" font-size="10.00">TM_USART_ClearBuffer</text>
</a>
</g>
</g>
<!-- Node1&#45;&gt;Node25 -->
<g id="edge27" class="edge"><title>Node1&#45;&gt;Node25</title>
<path fill="none" stroke="midnightblue" d="M20.6133,-285.361C23.5522,-242.206 37.5839,-67.2008 74,-29 75.425,-27.5052 76.9493,-26.1214 78.5559,-24.8407"/>
<polygon fill="midnightblue" stroke="midnightblue" points="80.6953,-27.6255 87.1958,-19.2593 76.8968,-21.7457 80.6953,-27.6255"/>
</g>
<!-- Node3 -->
<g id="node3" class="node"><title>Node3</title>
<g id="a_node3"><a xlink:href="a00151.html#ga1ee14ac28e60198cc998586807b51e4c" target="_top" xlink:title="Configures the System clock source, PLL Multiplier and Divider factors, AHB/APBx prescalers and Flash...">
<polygon fill="white" stroke="black" points="426,-589.5 426,-608.5 500,-608.5 500,-589.5 426,-589.5"/>
<text text-anchor="middle" x="463" y="-596.5" font-family="Helvetica,sans-Serif" font-size="10.00">SetSysClock</text>
</a>
</g>
</g>
<!-- Node2&#45;&gt;Node3 -->
<g id="edge2" class="edge"><title>Node2&#45;&gt;Node3</title>
<path fill="none" stroke="midnightblue" d="M182.395,-586.837C204.524,-591.295 234.922,-596.699 262,-599 314.515,-603.462 375.066,-602.633 415.662,-601.218"/>
<polygon fill="midnightblue" stroke="midnightblue" points="415.93,-604.711 425.792,-600.839 415.667,-597.716 415.93,-604.711"/>
</g>
<!-- Node4 -->
<g id="node4" class="node"><title>Node4</title>
<g id="a_node4"><a xlink:href="a00151.html#gae0c36a9591fe6e9c45ecb21a794f0f0f" target="_top" xlink:title="Update SystemCoreClock variable according to Clock Register Values. The SystemCoreClock variable cont...">
<polygon fill="white" stroke="black" points="262,-570.5 262,-589.5 390,-589.5 390,-570.5 262,-570.5"/>
<text text-anchor="middle" x="326" y="-577.5" font-family="Helvetica,sans-Serif" font-size="10.00">SystemCoreClockUpdate</text>
</a>
</g>
</g>
<!-- Node2&#45;&gt;Node4 -->
<g id="edge3" class="edge"><title>Node2&#45;&gt;Node4</title>
<path fill="none" stroke="midnightblue" d="M182.108,-580C201.438,-580 227.152,-580 251.435,-580"/>
<polygon fill="midnightblue" stroke="midnightblue" points="251.732,-583.5 261.732,-580 251.732,-576.5 251.732,-583.5"/>
</g>
<!-- Node4&#45;&gt;Node3 -->
<g id="edge4" class="edge"><title>Node4&#45;&gt;Node3</title>
<path fill="none" stroke="midnightblue" d="M390.152,-588.888C398.741,-590.097 407.424,-591.319 415.642,-592.475"/>
<polygon fill="midnightblue" stroke="midnightblue" points="415.37,-595.972 425.76,-593.9 416.345,-589.04 415.37,-595.972"/>
</g>
<!-- Node7 -->
<g id="node7" class="node"><title>Node7</title>
<g id="a_node7"><a xlink:href="a00123.html#ga1de48ba66939a9726f7930fc6a1e653a" target="_top" xlink:title="MDB_GPIO_Off">
<polygon fill="white" stroke="black" points="282,-532.5 282,-551.5 370,-551.5 370,-532.5 282,-532.5"/>
<text text-anchor="middle" x="326" y="-539.5" font-family="Helvetica,sans-Serif" font-size="10.00">MDB_GPIO_Off</text>
</a>
</g>
</g>
<!-- Node6&#45;&gt;Node7 -->
<g id="edge7" class="edge"><title>Node6&#45;&gt;Node7</title>
<path fill="none" stroke="midnightblue" d="M194.011,-513.393C217.539,-518.532 246.892,-524.942 271.844,-530.391"/>
<polygon fill="midnightblue" stroke="midnightblue" points="271.364,-533.869 281.881,-532.583 272.858,-527.03 271.364,-533.869"/>
</g>
<!-- Node8 -->
<g id="node8" class="node"><title>Node8</title>
<g id="a_node8"><a xlink:href="a00123.html#ga9915de13874ce89948d7d860af7e28c8" target="_top" xlink:title="{ function_description } ">
<polygon fill="white" stroke="black" points="282.5,-494.5 282.5,-513.5 369.5,-513.5 369.5,-494.5 282.5,-494.5"/>
<text text-anchor="middle" x="326" y="-501.5" font-family="Helvetica,sans-Serif" font-size="10.00">MDB_GPIO_On</text>
</a>
</g>
</g>
<!-- Node6&#45;&gt;Node8 -->
<g id="edge8" class="edge"><title>Node6&#45;&gt;Node8</title>
<path fill="none" stroke="midnightblue" d="M194.011,-504C217.716,-504 247.334,-504 272.406,-504"/>
<polygon fill="midnightblue" stroke="midnightblue" points="272.484,-507.5 282.484,-504 272.483,-500.5 272.484,-507.5"/>
</g>
<!-- Node10 -->
<g id="node10" class="node"><title>Node10</title>
<g id="a_node10"><a xlink:href="a00091.html#ga5c41ccf5ad2d5d2d3f6beb8358641ed2" target="_top" xlink:title="This function decrement timing variable. ">
<polygon fill="white" stroke="black" points="263.5,-456.5 263.5,-475.5 388.5,-475.5 388.5,-456.5 263.5,-456.5"/>
<text text-anchor="middle" x="326" y="-463.5" font-family="Helvetica,sans-Serif" font-size="10.00">TimingDelay_Decrement</text>
</a>
</g>
</g>
<!-- Node9&#45;&gt;Node10 -->
<g id="edge10" class="edge"><title>Node9&#45;&gt;Node10</title>
<path fill="none" stroke="midnightblue" d="M178.188,-466C198.359,-466 226.845,-466 253.363,-466"/>
<polygon fill="midnightblue" stroke="midnightblue" points="253.409,-469.5 263.409,-466 253.409,-462.5 253.409,-469.5"/>
</g>
<!-- Node13 -->
<g id="node13" class="node"><title>Node13</title>
<g id="a_node13"><a xlink:href="a00089.html#ga76a4711f406d06b13979cb89d6358cfc" target="_top" xlink:title="Initialize GPIO pins. ">
<polygon fill="white" stroke="black" points="285.5,-342.5 285.5,-361.5 366.5,-361.5 366.5,-342.5 285.5,-342.5"/>
<text text-anchor="middle" x="326" y="-349.5" font-family="Helvetica,sans-Serif" font-size="10.00">MD_GPIO_Init</text>
</a>
</g>
</g>
<!-- Node12&#45;&gt;Node13 -->
<g id="edge13" class="edge"><title>Node12&#45;&gt;Node13</title>
<path fill="none" stroke="midnightblue" d="M194.908,-380.411C219.438,-375.054 250.083,-368.361 275.468,-362.817"/>
<polygon fill="midnightblue" stroke="midnightblue" points="276.249,-366.229 285.272,-360.676 274.755,-359.391 276.249,-366.229"/>
</g>
<!-- Node14&#45;&gt;Node13 -->
<g id="edge15" class="edge"><title>Node14&#45;&gt;Node13</title>
<path fill="none" stroke="midnightblue" d="M202.265,-352C225.302,-352 252.384,-352 275.24,-352"/>
<polygon fill="midnightblue" stroke="midnightblue" points="275.415,-355.5 285.415,-352 275.415,-348.5 275.415,-355.5"/>
</g>
<!-- Node16&#45;&gt;Node13 -->
<g id="edge18" class="edge"><title>Node16&#45;&gt;Node13</title>
<path fill="none" stroke="midnightblue" d="M189.033,-283.496C201.079,-286.433 214.299,-290.255 226,-295 253.766,-306.26 283.238,-324.081 302.733,-336.798"/>
<polygon fill="midnightblue" stroke="midnightblue" points="300.929,-339.801 311.198,-342.409 304.797,-333.967 300.929,-339.801"/>
</g>
<!-- Node22 -->
<g id="node22" class="node"><title>Node22</title>
<g id="a_node22"><a xlink:href="a00067.html#gabb0a95fd20e5e2a894e658b64a29ee61" target="_top" xlink:title="Gets string from USART. ">
<polygon fill="white" stroke="black" points="277.5,-95.5 277.5,-114.5 374.5,-114.5 374.5,-95.5 277.5,-95.5"/>
<text text-anchor="middle" x="326" y="-102.5" font-family="Helvetica,sans-Serif" font-size="10.00">TM_USART_Gets</text>
</a>
</g>
</g>
<!-- Node21&#45;&gt;Node22 -->
<g id="edge24" class="edge"><title>Node21&#45;&gt;Node22</title>
<path fill="none" stroke="midnightblue" d="M196.262,-90.9424C217.928,-93.3082 244.119,-96.1681 267.206,-98.6891"/>
<polygon fill="midnightblue" stroke="midnightblue" points="266.905,-102.177 277.226,-99.7833 267.665,-95.2184 266.905,-102.177"/>
</g>
<!-- Node23 -->
<g id="node23" class="node"><title>Node23</title>
<g id="a_node23"><a xlink:href="a00134.html#ga3471071fc0b691d5ea05997762e9171c" target="_top" xlink:title="Signal generator Integer array pointer. ">
<polygon fill="white" stroke="black" points="289.5,-57.5 289.5,-76.5 362.5,-76.5 362.5,-57.5 289.5,-57.5"/>
<text text-anchor="middle" x="326" y="-64.5" font-family="Helvetica,sans-Serif" font-size="10.00">__attribute__</text>
</a>
</g>
</g>
<!-- Node21&#45;&gt;Node23 -->
<g id="edge25" class="edge"><title>Node21&#45;&gt;Node23</title>
<path fill="none" stroke="midnightblue" d="M196.262,-81.0576C221.75,-78.2744 253.502,-74.8072 279.095,-72.0126"/>
<polygon fill="midnightblue" stroke="midnightblue" points="279.729,-75.4643 289.29,-70.8994 278.969,-68.5057 279.729,-75.4643"/>
</g>
</g>
</svg>
