<?xml version="1.0" encoding="UTF-8" standalone="no"?>
<!DOCTYPE svg PUBLIC "-//W3C//DTD SVG 1.1//EN"
 "http://www.w3.org/Graphics/SVG/1.1/DTD/svg11.dtd">
<!-- Generated by graphviz version 2.38.0 (20140413.2041)
 -->
<!-- Title: globals.h Pages: 1 -->
<!--zoomable 420 -->
<svg id="main" version="1.1" xmlns="http://www.w3.org/2000/svg" xmlns:xlink="http://www.w3.org/1999/xlink" xml:space="preserve" onload="init(evt)">
<style type="text/css"><![CDATA[
.edge:hover path { stroke: red; }
.edge:hover polygon { stroke: red; fill: red; }
]]></style>
<script type="text/javascript"><![CDATA[
var edges = document.getElementsByTagName('g');
if (edges && edges.length) {
  for (var i=0;i<edges.length;i++) {
    if (edges[i].id.substr(0,4)=='edge') {
      edges[i].setAttribute('class','edge');
    }
  }
}
]]></script>
        <defs>
                <circle id="rim" cx="0" cy="0" r="7"/>
                <circle id="rim2" cx="0" cy="0" r="3.5"/>
                <g id="zoomPlus">
                        <use xlink:href="#rim" fill="#404040">
                                <set attributeName="fill" to="#808080" begin="zoomplus.mouseover" end="zoomplus.mouseout"/>
                        </use>
                        <path d="M-4,0h8M0,-4v8" fill="none" stroke="white" stroke-width="1.5" pointer-events="none"/>
                </g>
                <g id="zoomMin">
                        <use xlink:href="#rim" fill="#404040">
                                <set attributeName="fill" to="#808080" begin="zoomminus.mouseover" end="zoomminus.mouseout"/>
                        </use>
                        <path d="M-4,0h8" fill="none" stroke="white" stroke-width="1.5" pointer-events="none"/>
                </g>
                <g id="dirArrow">
                        <path fill="none" stroke="white" stroke-width="1.5" d="M0,-3.0v7 M-2.5,-0.5L0,-3.0L2.5,-0.5"/>
                </g>
               <g id="resetDef">
                       <use xlink:href="#rim2" fill="#404040">
                               <set attributeName="fill" to="#808080" begin="reset.mouseover" end="reset.mouseout"/>
                       </use>
               </g>
        </defs>

<script type="text/javascript">
var viewWidth = 1290;
var viewHeight = 420;
var sectionId = 'dynsection-0';
</script>
<script xlink:href="svgpan.js"/>
<svg id="graph" class="graph">
<g id="viewport">
<title>globals.h</title>
<polygon fill="white" stroke="none" points="-4,4 -4,-416 1285.5,-416 1285.5,4 -4,4"/>
<!-- Node1 -->
<g id="node1" class="node"><title>Node1</title>
<polygon fill="#bfbfbf" stroke="black" points="649,-392.5 649,-411.5 705,-411.5 705,-392.5 649,-392.5"/>
<text text-anchor="middle" x="677" y="-399.5" font-family="Helvetica,sans-Serif" font-size="10.00">globals.h</text>
</g>
<!-- Node2 -->
<g id="node2" class="node"><title>Node2</title>
<g id="a_node2"><a xlink:href="a00028.html" target="_top" xlink:title="Waveform generation extension for DAC library. ">
<polygon fill="white" stroke="black" points="0,-336.5 0,-355.5 148,-355.5 148,-336.5 0,-336.5"/>
<text text-anchor="middle" x="74" y="-343.5" font-family="Helvetica,sans-Serif" font-size="10.00">md_stm32f4_dac_waveform.h</text>
</a>
</g>
</g>
<!-- Node1&#45;&gt;Node2 -->
<g id="edge1" class="edge"><title>Node1&#45;&gt;Node2</title>
<path fill="none" stroke="midnightblue" d="M638.777,-397.854C553.298,-390.777 340.192,-372.896 162,-356 157.566,-355.58 153.008,-355.139 148.41,-354.688"/>
<polygon fill="midnightblue" stroke="midnightblue" points="638.54,-401.347 648.794,-398.683 639.117,-394.37 638.54,-401.347"/>
</g>
<!-- Node4 -->
<g id="node4" class="node"><title>Node4</title>
<g id="a_node4"><a xlink:href="a00030.html" target="_top" xlink:title="Provides SysTick&#45;Timer driven delay functions. ">
<polygon fill="white" stroke="black" points="697.5,-336.5 697.5,-355.5 804.5,-355.5 804.5,-336.5 697.5,-336.5"/>
<text text-anchor="middle" x="751" y="-343.5" font-family="Helvetica,sans-Serif" font-size="10.00">md_stm32f4_delay.h</text>
</a>
</g>
</g>
<!-- Node1&#45;&gt;Node4 -->
<g id="edge3" class="edge"><title>Node1&#45;&gt;Node4</title>
<path fill="none" stroke="midnightblue" d="M697.034,-386.38C710.409,-376.62 727.559,-364.106 738.894,-355.834"/>
<polygon fill="midnightblue" stroke="midnightblue" points="694.904,-383.602 688.889,-392.324 699.03,-389.257 694.904,-383.602"/>
</g>
<!-- Node6 -->
<g id="node6" class="node"><title>Node6</title>
<g id="a_node6"><a xlink:href="a00024.html" target="_top" xlink:title="Main header definition. ">
<polygon fill="white" stroke="black" points="800,-224.5 800,-243.5 846,-243.5 846,-224.5 800,-224.5"/>
<text text-anchor="middle" x="823" y="-231.5" font-family="Helvetica,sans-Serif" font-size="10.00">main.h</text>
</a>
</g>
</g>
<!-- Node1&#45;&gt;Node6 -->
<g id="edge36" class="edge"><title>Node1&#45;&gt;Node6</title>
<path fill="none" stroke="midnightblue" d="M715.327,-397.691C745.654,-393.101 787.077,-382.146 813,-356 843.572,-325.165 831.418,-265.605 825.503,-243.516"/>
<polygon fill="midnightblue" stroke="midnightblue" points="714.552,-394.263 705.107,-399.063 715.484,-401.201 714.552,-394.263"/>
</g>
<!-- Node7 -->
<g id="node7" class="node"><title>Node7</title>
<g id="a_node7"><a xlink:href="a00013.html" target="_top" xlink:title="Provides DMA related configuration and access functions for ADC and DAC. ">
<polygon fill="white" stroke="black" points="594,-168.5 594,-187.5 680,-187.5 680,-168.5 594,-168.5"/>
<text text-anchor="middle" x="637" y="-175.5" font-family="Helvetica,sans-Serif" font-size="10.00">adc_dac_dma.h</text>
</a>
</g>
</g>
<!-- Node1&#45;&gt;Node7 -->
<g id="edge35" class="edge"><title>Node1&#45;&gt;Node7</title>
<path fill="none" stroke="midnightblue" d="M638.732,-397.641C546.055,-388.603 314.021,-360.269 271,-300 251.376,-272.508 248.62,-249.3 271,-224 292.103,-200.144 501.558,-186.185 593.784,-181.151"/>
<polygon fill="midnightblue" stroke="midnightblue" points="638.52,-401.136 648.807,-398.601 639.184,-394.168 638.52,-401.136"/>
</g>
<!-- Node8 -->
<g id="node8" class="node"><title>Node8</title>
<g id="a_node8"><a xlink:href="a00011.html" target="_top" xlink:title="Controlling beam and primary actuators. ">
<polygon fill="white" stroke="black" points="604.5,-56.5 604.5,-75.5 669.5,-75.5 669.5,-56.5 604.5,-56.5"/>
<text text-anchor="middle" x="637" y="-63.5" font-family="Helvetica,sans-Serif" font-size="10.00">actuators.h</text>
</a>
</g>
</g>
<!-- Node1&#45;&gt;Node8 -->
<g id="edge44" class="edge"><title>Node1&#45;&gt;Node8</title>
<path fill="none" stroke="midnightblue" d="M638.643,-400.062C527.648,-396.319 214,-378.041 214,-291 214,-291 214,-291 214,-177 214,-96.4724 504.774,-73.8609 604.16,-68.4842"/>
<polygon fill="midnightblue" stroke="midnightblue" points="638.629,-403.564 648.734,-400.381 638.85,-396.567 638.629,-403.564"/>
</g>
<!-- Node9 -->
<g id="node9" class="node"><title>Node9</title>
<g id="a_node9"><a xlink:href="a00010.html" target="_top" xlink:title="Controlling beam and primary actuators. ">
<polygon fill="white" stroke="black" points="374.5,-0.5 374.5,-19.5 439.5,-19.5 439.5,-0.5 374.5,-0.5"/>
<text text-anchor="middle" x="407" y="-7.5" font-family="Helvetica,sans-Serif" font-size="10.00">actuators.c</text>
</a>
</g>
</g>
<!-- Node1&#45;&gt;Node9 -->
<g id="edge47" class="edge"><title>Node1&#45;&gt;Node9</title>
<path fill="none" stroke="midnightblue" d="M638.535,-399.914C547.112,-396.862 319.291,-386.353 250,-356 209.903,-338.436 176,-334.775 176,-291 176,-291 176,-291 176,-121 176,-34.1608 310.718,-15.8035 374.393,-11.9769"/>
<polygon fill="midnightblue" stroke="midnightblue" points="638.627,-403.419 648.734,-400.242 638.852,-396.423 638.627,-403.419"/>
</g>
<!-- Node11 -->
<g id="node11" class="node"><title>Node11</title>
<g id="a_node11"><a xlink:href="a00022.html" target="_top" xlink:title="Analog processing related callback handler definition. ">
<polygon fill="white" stroke="black" points="840,-112.5 840,-131.5 922,-131.5 922,-112.5 840,-112.5"/>
<text text-anchor="middle" x="881" y="-119.5" font-family="Helvetica,sans-Serif" font-size="10.00">irq_callbacks.h</text>
</a>
</g>
</g>
<!-- Node1&#45;&gt;Node11 -->
<g id="edge43" class="edge"><title>Node1&#45;&gt;Node11</title>
<path fill="none" stroke="midnightblue" d="M715.461,-399.014C796.567,-394.379 982.399,-381.274 1040,-356 1075.23,-340.543 1089.84,-334.91 1106,-300 1147.92,-209.459 985.733,-152.075 913.774,-131.523"/>
<polygon fill="midnightblue" stroke="midnightblue" points="714.98,-395.536 705.191,-399.588 715.37,-402.525 714.98,-395.536"/>
</g>
<!-- Node15 -->
<g id="node15" class="node"><title>Node15</title>
<g id="a_node15"><a xlink:href="a00032.html" target="_top" xlink:title="Definitions to extend board support for STM32F429i&#45;DISCO and equivalent boards. ">
<polygon fill="white" stroke="black" points="280.5,-280.5 280.5,-299.5 387.5,-299.5 387.5,-280.5 280.5,-280.5"/>
<text text-anchor="middle" x="334" y="-287.5" font-family="Helvetica,sans-Serif" font-size="10.00">md_stm32f4_disco.h</text>
</a>
</g>
</g>
<!-- Node1&#45;&gt;Node15 -->
<g id="edge22" class="edge"><title>Node1&#45;&gt;Node15</title>
<path fill="none" stroke="midnightblue" d="M638.576,-393.616C600.421,-385.85 540.488,-372.478 490,-356 438.678,-339.25 380.542,-312.999 351.899,-299.558"/>
<polygon fill="midnightblue" stroke="midnightblue" points="638.24,-397.118 648.734,-395.655 639.618,-390.255 638.24,-397.118"/>
</g>
<!-- Node17 -->
<g id="node17" class="node"><title>Node17</title>
<g id="a_node17"><a xlink:href="a00058_source.html" target="_top" xlink:title="tm_stm32f4_timer_properties.h">
<polygon fill="white" stroke="black" points="527,-336.5 527,-355.5 679,-355.5 679,-336.5 527,-336.5"/>
<text text-anchor="middle" x="603" y="-343.5" font-family="Helvetica,sans-Serif" font-size="10.00">tm_stm32f4_timer_properties.h</text>
</a>
</g>
</g>
<!-- Node1&#45;&gt;Node17 -->
<g id="edge26" class="edge"><title>Node1&#45;&gt;Node17</title>
<path fill="none" stroke="midnightblue" d="M656.966,-386.38C643.591,-376.62 626.441,-364.106 615.106,-355.834"/>
<polygon fill="midnightblue" stroke="midnightblue" points="654.97,-389.257 665.111,-392.324 659.096,-383.602 654.97,-389.257"/>
</g>
<!-- Node18 -->
<g id="node18" class="node"><title>Node18</title>
<g id="a_node18"><a xlink:href="a00056_source.html" target="_top" xlink:title="tm_stm32f4_pwm.h">
<polygon fill="white" stroke="black" points="405.5,-280.5 405.5,-299.5 508.5,-299.5 508.5,-280.5 405.5,-280.5"/>
<text text-anchor="middle" x="457" y="-287.5" font-family="Helvetica,sans-Serif" font-size="10.00">tm_stm32f4_pwm.h</text>
</a>
</g>
</g>
<!-- Node1&#45;&gt;Node18 -->
<g id="edge31" class="edge"><title>Node1&#45;&gt;Node18</title>
<path fill="none" stroke="midnightblue" d="M638.81,-396.103C605.071,-390.452 555.539,-378.834 518,-356 493.407,-341.041 472.349,-313.506 462.672,-299.567"/>
<polygon fill="midnightblue" stroke="midnightblue" points="638.32,-399.569 648.743,-397.671 639.411,-392.654 638.32,-399.569"/>
</g>
<!-- Node21 -->
<g id="node21" class="node"><title>Node21</title>
<g id="a_node21"><a xlink:href="a00060_source.html" target="_top" xlink:title="tm_stm32f4_usart.h">
<polygon fill="white" stroke="black" points="899,-336.5 899,-355.5 1003,-355.5 1003,-336.5 899,-336.5"/>
<text text-anchor="middle" x="951" y="-343.5" font-family="Helvetica,sans-Serif" font-size="10.00">tm_stm32f4_usart.h</text>
</a>
</g>
</g>
<!-- Node1&#45;&gt;Node21 -->
<g id="edge32" class="edge"><title>Node1&#45;&gt;Node21</title>
<path fill="none" stroke="midnightblue" d="M714.89,-393.533C765.35,-383.588 854.401,-366.038 907.534,-355.566"/>
<polygon fill="midnightblue" stroke="midnightblue" points="714.17,-390.107 705.035,-395.475 715.523,-396.975 714.17,-390.107"/>
</g>
<!-- Node23 -->
<g id="node23" class="node"><title>Node23</title>
<g id="a_node23"><a xlink:href="a00045.html" target="_top" xlink:title="PID compensator implementation. ">
<polygon fill="white" stroke="black" points="1059,-280.5 1059,-299.5 1097,-299.5 1097,-280.5 1059,-280.5"/>
<text text-anchor="middle" x="1078" y="-287.5" font-family="Helvetica,sans-Serif" font-size="10.00">pid.h</text>
</a>
</g>
</g>
<!-- Node1&#45;&gt;Node23 -->
<g id="edge37" class="edge"><title>Node1&#45;&gt;Node23</title>
<path fill="none" stroke="midnightblue" d="M715.315,-398.898C791.782,-394.213 960.414,-381.279 1012,-356 1039.15,-342.695 1062.02,-313.877 1072.25,-299.506"/>
<polygon fill="midnightblue" stroke="midnightblue" points="714.932,-395.415 705.158,-399.505 715.349,-402.402 714.932,-395.415"/>
</g>
<!-- Node25 -->
<g id="node25" class="node"><title>Node25</title>
<g id="a_node25"><a xlink:href="a00017.html" target="_top" xlink:title="TODO. ">
<polygon fill="white" stroke="black" points="1153.5,-336.5 1153.5,-355.5 1212.5,-355.5 1212.5,-336.5 1153.5,-336.5"/>
<text text-anchor="middle" x="1183" y="-343.5" font-family="Helvetica,sans-Serif" font-size="10.00">console.h</text>
</a>
</g>
</g>
<!-- Node1&#45;&gt;Node25 -->
<g id="edge45" class="edge"><title>Node1&#45;&gt;Node25</title>
<path fill="none" stroke="midnightblue" d="M715.267,-398.633C794.602,-393.428 982.655,-379.538 1139,-356 1143.63,-355.304 1148.5,-354.439 1153.25,-353.524"/>
<polygon fill="midnightblue" stroke="midnightblue" points="715.004,-395.143 705.251,-399.282 715.456,-402.128 715.004,-395.143"/>
</g>
<!-- Node27 -->
<g id="node27" class="node"><title>Node27</title>
<g id="a_node27"><a xlink:href="a00019.html" target="_top" xlink:title="helper.c">
<polygon fill="white" stroke="black" points="1230.5,-336.5 1230.5,-355.5 1281.5,-355.5 1281.5,-336.5 1230.5,-336.5"/>
<text text-anchor="middle" x="1256" y="-343.5" font-family="Helvetica,sans-Serif" font-size="10.00">helper.c</text>
</a>
</g>
</g>
<!-- Node1&#45;&gt;Node27 -->
<g id="edge48" class="edge"><title>Node1&#45;&gt;Node27</title>
<path fill="none" stroke="midnightblue" d="M715.195,-400.159C804.496,-397.689 1033.64,-388.444 1222,-356 1224.77,-355.523 1227.64,-354.927 1230.49,-354.27"/>
<polygon fill="midnightblue" stroke="midnightblue" points="714.915,-396.665 705.01,-400.427 715.099,-403.662 714.915,-396.665"/>
</g>
<!-- Node3 -->
<g id="node3" class="node"><title>Node3</title>
<g id="a_node3"><a xlink:href="a00027.html" target="_top" xlink:title="md_stm32f4_dac_waveform.c">
<polygon fill="white" stroke="black" points="0,-280.5 0,-299.5 148,-299.5 148,-280.5 0,-280.5"/>
<text text-anchor="middle" x="74" y="-287.5" font-family="Helvetica,sans-Serif" font-size="10.00">md_stm32f4_dac_waveform.c</text>
</a>
</g>
</g>
<!-- Node2&#45;&gt;Node3 -->
<g id="edge2" class="edge"><title>Node2&#45;&gt;Node3</title>
<path fill="none" stroke="midnightblue" d="M74,-325.805C74,-316.91 74,-306.78 74,-299.751"/>
<polygon fill="midnightblue" stroke="midnightblue" points="70.5001,-326.083 74,-336.083 77.5001,-326.083 70.5001,-326.083"/>
</g>
<!-- Node5 -->
<g id="node5" class="node"><title>Node5</title>
<g id="a_node5"><a xlink:href="a00029.html" target="_top" xlink:title="md_stm32f4_delay.c">
<polygon fill="white" stroke="black" points="697.5,-280.5 697.5,-299.5 804.5,-299.5 804.5,-280.5 697.5,-280.5"/>
<text text-anchor="middle" x="751" y="-287.5" font-family="Helvetica,sans-Serif" font-size="10.00">md_stm32f4_delay.c</text>
</a>
</g>
</g>
<!-- Node4&#45;&gt;Node5 -->
<g id="edge4" class="edge"><title>Node4&#45;&gt;Node5</title>
<path fill="none" stroke="midnightblue" d="M751,-325.805C751,-316.91 751,-306.78 751,-299.751"/>
<polygon fill="midnightblue" stroke="midnightblue" points="747.5,-326.083 751,-336.083 754.5,-326.083 747.5,-326.083"/>
</g>
<!-- Node4&#45;&gt;Node6 -->
<g id="edge5" class="edge"><title>Node4&#45;&gt;Node6</title>
<path fill="none" stroke="midnightblue" d="M778.664,-331.449C791.135,-323.913 804.862,-313.339 813,-300 823.822,-282.261 824.311,-256.891 823.689,-243.707"/>
<polygon fill="midnightblue" stroke="midnightblue" points="776.889,-328.432 769.902,-336.397 780.331,-334.527 776.889,-328.432"/>
</g>
<!-- Node6&#45;&gt;Node7 -->
<g id="edge6" class="edge"><title>Node6&#45;&gt;Node7</title>
<path fill="none" stroke="midnightblue" d="M790.08,-224.891C753.196,-214.854 694.545,-197.837 661.476,-187.585"/>
<polygon fill="midnightblue" stroke="midnightblue" points="789.3,-228.305 799.866,-227.525 791.12,-221.546 789.3,-228.305"/>
</g>
<!-- Node10 -->
<g id="node10" class="node"><title>Node10</title>
<g id="a_node10"><a xlink:href="a00021.html" target="_top" xlink:title="Callback handler implementations. ">
<polygon fill="white" stroke="black" points="840,-0.5 840,-19.5 922,-19.5 922,-0.5 840,-0.5"/>
<text text-anchor="middle" x="881" y="-7.5" font-family="Helvetica,sans-Serif" font-size="10.00">irq_callbacks.c</text>
</a>
</g>
</g>
<!-- Node6&#45;&gt;Node10 -->
<g id="edge19" class="edge"><title>Node6&#45;&gt;Node10</title>
<path fill="none" stroke="midnightblue" d="M847.77,-219.178C874.583,-202.552 915.58,-171.833 931,-132 947.411,-89.6061 907.662,-39.6001 889.487,-19.7511"/>
<polygon fill="midnightblue" stroke="midnightblue" points="845.724,-216.323 838.942,-224.463 849.32,-222.329 845.724,-216.323"/>
</g>
<!-- Node6&#45;&gt;Node11 -->
<g id="edge18" class="edge"><title>Node6&#45;&gt;Node11</title>
<path fill="none" stroke="midnightblue" d="M827.04,-215.371C831.682,-207.218 837.968,-197.298 843,-188 853.587,-168.439 863.623,-144.25 871.777,-131.613"/>
<polygon fill="midnightblue" stroke="midnightblue" points="823.914,-213.795 822.387,-224.279 830.119,-217.036 823.914,-213.795"/>
</g>
<!-- Node13 -->
<g id="node13" class="node"><title>Node13</title>
<g id="a_node13"><a xlink:href="a00023.html" target="_top" xlink:title="Main source implementation (29&#45;04&#45;2015) ">
<polygon fill="white" stroke="black" points="698,-168.5 698,-187.5 744,-187.5 744,-168.5 698,-168.5"/>
<text text-anchor="middle" x="721" y="-175.5" font-family="Helvetica,sans-Serif" font-size="10.00">main.c</text>
</a>
</g>
</g>
<!-- Node6&#45;&gt;Node13 -->
<g id="edge20" class="edge"><title>Node6&#45;&gt;Node13</title>
<path fill="none" stroke="midnightblue" d="M797.669,-219.59C778.81,-209.605 753.616,-196.267 737.347,-187.655"/>
<polygon fill="midnightblue" stroke="midnightblue" points="796.136,-222.738 806.612,-224.324 799.412,-216.552 796.136,-222.738"/>
</g>
<!-- Node14 -->
<g id="node14" class="node"><title>Node14</title>
<g id="a_node14"><a xlink:href="a00050.html" target="_top" xlink:title="stm32f4xx_it.c">
<polygon fill="white" stroke="black" points="762.5,-168.5 762.5,-187.5 843.5,-187.5 843.5,-168.5 762.5,-168.5"/>
<text text-anchor="middle" x="803" y="-175.5" font-family="Helvetica,sans-Serif" font-size="10.00">stm32f4xx_it.c</text>
</a>
</g>
</g>
<!-- Node6&#45;&gt;Node14 -->
<g id="edge21" class="edge"><title>Node6&#45;&gt;Node14</title>
<path fill="none" stroke="midnightblue" d="M816.218,-214.69C812.848,-205.589 808.931,-195.014 806.241,-187.751"/>
<polygon fill="midnightblue" stroke="midnightblue" points="812.942,-215.921 819.697,-224.083 819.506,-213.49 812.942,-215.921"/>
</g>
<!-- Node7&#45;&gt;Node6 -->
<g id="edge12" class="edge"><title>Node7&#45;&gt;Node6</title>
<path fill="none" stroke="midnightblue" d="M681.611,-190.322C718.81,-200.629 770.181,-215.602 799.76,-224.799"/>
<polygon fill="midnightblue" stroke="midnightblue" points="682.095,-186.825 671.525,-187.547 680.238,-193.574 682.095,-186.825"/>
</g>
<!-- Node7&#45;&gt;Node8 -->
<g id="edge7" class="edge"><title>Node7&#45;&gt;Node8</title>
<path fill="none" stroke="midnightblue" d="M631.784,-158.348C629.352,-134.254 629.812,-93.3079 633.165,-75.5914"/>
<polygon fill="midnightblue" stroke="midnightblue" points="628.332,-158.936 633.157,-168.368 635.267,-157.986 628.332,-158.936"/>
</g>
<!-- Node7&#45;&gt;Node11 -->
<g id="edge13" class="edge"><title>Node7&#45;&gt;Node11</title>
<path fill="none" stroke="midnightblue" d="M685.432,-166.281C731.541,-156.077 800.027,-140.92 842.518,-131.516"/>
<polygon fill="midnightblue" stroke="midnightblue" points="684.67,-162.865 675.663,-168.444 686.183,-169.7 684.67,-162.865"/>
</g>
<!-- Node12 -->
<g id="node12" class="node"><title>Node12</title>
<g id="a_node12"><a xlink:href="a00012.html" target="_top" xlink:title="adc_dac_dma.c">
<polygon fill="white" stroke="black" points="674,-112.5 674,-131.5 760,-131.5 760,-112.5 674,-112.5"/>
<text text-anchor="middle" x="717" y="-119.5" font-family="Helvetica,sans-Serif" font-size="10.00">adc_dac_dma.c</text>
</a>
</g>
</g>
<!-- Node7&#45;&gt;Node12 -->
<g id="edge17" class="edge"><title>Node7&#45;&gt;Node12</title>
<path fill="none" stroke="midnightblue" d="M658.301,-162.622C672.915,-152.757 691.827,-139.992 704.179,-131.655"/>
<polygon fill="midnightblue" stroke="midnightblue" points="656.184,-159.828 649.853,-168.324 660.1,-165.63 656.184,-159.828"/>
</g>
<!-- Node8&#45;&gt;Node6 -->
<g id="edge8" class="edge"><title>Node8&#45;&gt;Node6</title>
<path fill="none" stroke="midnightblue" d="M620.634,-82.6113C596.797,-107.228 558.145,-155.592 585,-188 612.166,-220.784 745.273,-229.86 799.72,-232.221"/>
<polygon fill="midnightblue" stroke="midnightblue" points="623.149,-85.0465 627.751,-75.5035 618.202,-80.0935 623.149,-85.0465"/>
</g>
<!-- Node8&#45;&gt;Node7 -->
<g id="edge9" class="edge"><title>Node8&#45;&gt;Node7</title>
<path fill="none" stroke="midnightblue" d="M642.211,-85.5974C644.647,-109.666 644.191,-150.617 640.843,-168.368"/>
<polygon fill="midnightblue" stroke="midnightblue" points="645.665,-85.0217 640.835,-75.5914 638.73,-85.9749 645.665,-85.0217"/>
</g>
<!-- Node8&#45;&gt;Node9 -->
<g id="edge10" class="edge"><title>Node8&#45;&gt;Node9</title>
<path fill="none" stroke="midnightblue" d="M594.046,-54.9151C549.238,-44.3949 479.995,-28.138 439.521,-18.6353"/>
<polygon fill="midnightblue" stroke="midnightblue" points="593.511,-58.3847 604.047,-57.2631 595.111,-51.57 593.511,-58.3847"/>
</g>
<!-- Node8&#45;&gt;Node10 -->
<g id="edge11" class="edge"><title>Node8&#45;&gt;Node10</title>
<path fill="none" stroke="midnightblue" d="M679.608,-55.5704C725.598,-45.3924 798.192,-29.3263 842.513,-19.5177"/>
<polygon fill="midnightblue" stroke="midnightblue" points="678.661,-52.1951 669.654,-57.7734 680.174,-59.0298 678.661,-52.1951"/>
</g>
<!-- Node11&#45;&gt;Node6 -->
<g id="edge14" class="edge"><title>Node11&#45;&gt;Node6</title>
<path fill="none" stroke="midnightblue" d="M881.186,-141.395C877.206,-154.611 869.271,-172.718 861,-188 853.922,-201.078 844.363,-215.387 835.993,-224.279"/>
<polygon fill="midnightblue" stroke="midnightblue" points="884.604,-142.152 883.52,-131.613 877.795,-140.527 884.604,-142.152"/>
</g>
<!-- Node11&#45;&gt;Node8 -->
<g id="edge15" class="edge"><title>Node11&#45;&gt;Node8</title>
<path fill="none" stroke="midnightblue" d="M832.423,-110.249C784.13,-99.5615 711.395,-83.4645 669.625,-74.2203"/>
<polygon fill="midnightblue" stroke="midnightblue" points="831.817,-113.7 842.337,-112.444 833.33,-106.865 831.817,-113.7"/>
</g>
<!-- Node11&#45;&gt;Node10 -->
<g id="edge16" class="edge"><title>Node11&#45;&gt;Node10</title>
<path fill="none" stroke="midnightblue" d="M881,-102.348C881,-78.2538 881,-37.3079 881,-19.5914"/>
<polygon fill="midnightblue" stroke="midnightblue" points="877.5,-102.368 881,-112.368 884.5,-102.369 877.5,-102.368"/>
</g>
<!-- Node15&#45;&gt;Node6 -->
<g id="edge24" class="edge"><title>Node15&#45;&gt;Node6</title>
<path fill="none" stroke="midnightblue" d="M397.752,-279.819C557.414,-260.015 736.897,-242.946 799.82,-237.121"/>
<polygon fill="midnightblue" stroke="midnightblue" points="397.241,-276.355 387.751,-281.066 398.107,-283.301 397.241,-276.355"/>
</g>
<!-- Node15&#45;&gt;Node10 -->
<g id="edge25" class="edge"><title>Node15&#45;&gt;Node10</title>
<path fill="none" stroke="midnightblue" d="M360.074,-275.366C372.538,-267.664 386.725,-256.972 396,-244 413.58,-219.413 416,-209.225 416,-179 416,-179 416,-179 416,-121 416,-34.3097 725.931,-15.8513 839.734,-11.9956"/>
<polygon fill="midnightblue" stroke="midnightblue" points="358.267,-272.369 351.399,-280.436 361.798,-278.413 358.267,-272.369"/>
</g>
<!-- Node16 -->
<g id="node16" class="node"><title>Node16</title>
<g id="a_node16"><a xlink:href="a00031.html" target="_top" xlink:title="DESCRIPTION. ">
<polygon fill="white" stroke="black" points="280.5,-224.5 280.5,-243.5 387.5,-243.5 387.5,-224.5 280.5,-224.5"/>
<text text-anchor="middle" x="334" y="-231.5" font-family="Helvetica,sans-Serif" font-size="10.00">md_stm32f4_disco.c</text>
</a>
</g>
</g>
<!-- Node15&#45;&gt;Node16 -->
<g id="edge23" class="edge"><title>Node15&#45;&gt;Node16</title>
<path fill="none" stroke="midnightblue" d="M334,-269.805C334,-260.91 334,-250.78 334,-243.751"/>
<polygon fill="midnightblue" stroke="midnightblue" points="330.5,-270.083 334,-280.083 337.5,-270.083 330.5,-270.083"/>
</g>
<!-- Node17&#45;&gt;Node18 -->
<g id="edge27" class="edge"><title>Node17&#45;&gt;Node18</title>
<path fill="none" stroke="midnightblue" d="M570.301,-332.906C542.852,-322.754 504.332,-308.506 480.026,-299.516"/>
<polygon fill="midnightblue" stroke="midnightblue" points="569.273,-336.257 579.866,-336.444 571.701,-329.692 569.273,-336.257"/>
</g>
<!-- Node20 -->
<g id="node20" class="node"><title>Node20</title>
<g id="a_node20"><a xlink:href="a00057_source.html" target="_top" xlink:title="tm_stm32f4_timer_properties.c">
<polygon fill="white" stroke="black" points="527,-280.5 527,-299.5 679,-299.5 679,-280.5 527,-280.5"/>
<text text-anchor="middle" x="603" y="-287.5" font-family="Helvetica,sans-Serif" font-size="10.00">tm_stm32f4_timer_properties.c</text>
</a>
</g>
</g>
<!-- Node17&#45;&gt;Node20 -->
<g id="edge30" class="edge"><title>Node17&#45;&gt;Node20</title>
<path fill="none" stroke="midnightblue" d="M603,-325.805C603,-316.91 603,-306.78 603,-299.751"/>
<polygon fill="midnightblue" stroke="midnightblue" points="599.5,-326.083 603,-336.083 606.5,-326.083 599.5,-326.083"/>
</g>
<!-- Node18&#45;&gt;Node6 -->
<g id="edge29" class="edge"><title>Node18&#45;&gt;Node6</title>
<path fill="none" stroke="midnightblue" d="M518.678,-279.9C601.309,-267.708 744,-246.656 799.739,-238.432"/>
<polygon fill="midnightblue" stroke="midnightblue" points="518.045,-276.455 508.663,-281.378 519.066,-283.38 518.045,-276.455"/>
</g>
<!-- Node19 -->
<g id="node19" class="node"><title>Node19</title>
<g id="a_node19"><a xlink:href="a00055_source.html" target="_top" xlink:title="tm_stm32f4_pwm.c">
<polygon fill="white" stroke="black" points="444.5,-224.5 444.5,-243.5 547.5,-243.5 547.5,-224.5 444.5,-224.5"/>
<text text-anchor="middle" x="496" y="-231.5" font-family="Helvetica,sans-Serif" font-size="10.00">tm_stm32f4_pwm.c</text>
</a>
</g>
</g>
<!-- Node18&#45;&gt;Node19 -->
<g id="edge28" class="edge"><title>Node18&#45;&gt;Node19</title>
<path fill="none" stroke="midnightblue" d="M469.382,-271.855C476.135,-262.505 484.209,-251.327 489.68,-243.751"/>
<polygon fill="midnightblue" stroke="midnightblue" points="466.458,-269.927 463.44,-280.083 472.132,-274.025 466.458,-269.927"/>
</g>
<!-- Node21&#45;&gt;Node6 -->
<g id="edge34" class="edge"><title>Node21&#45;&gt;Node6</title>
<path fill="none" stroke="midnightblue" d="M978.69,-331.56C1001.18,-318.827 1026.92,-298.893 1012,-280 991.564,-254.127 892.117,-241.527 846.254,-237.017"/>
<polygon fill="midnightblue" stroke="midnightblue" points="976.847,-328.577 969.692,-336.392 980.158,-334.744 976.847,-328.577"/>
</g>
<!-- Node22 -->
<g id="node22" class="node"><title>Node22</title>
<g id="a_node22"><a xlink:href="a00059_source.html" target="_top" xlink:title="tm_stm32f4_usart.c">
<polygon fill="white" stroke="black" points="899,-280.5 899,-299.5 1003,-299.5 1003,-280.5 899,-280.5"/>
<text text-anchor="middle" x="951" y="-287.5" font-family="Helvetica,sans-Serif" font-size="10.00">tm_stm32f4_usart.c</text>
</a>
</g>
</g>
<!-- Node21&#45;&gt;Node22 -->
<g id="edge33" class="edge"><title>Node21&#45;&gt;Node22</title>
<path fill="none" stroke="midnightblue" d="M951,-325.805C951,-316.91 951,-306.78 951,-299.751"/>
<polygon fill="midnightblue" stroke="midnightblue" points="947.5,-326.083 951,-336.083 954.5,-326.083 947.5,-326.083"/>
</g>
<!-- Node23&#45;&gt;Node6 -->
<g id="edge38" class="edge"><title>Node23&#45;&gt;Node6</title>
<path fill="none" stroke="midnightblue" d="M1048.86,-280.942C1047.56,-280.616 1046.27,-280.301 1045,-280 972.877,-262.875 886.602,-246.571 846.12,-239.164"/>
<polygon fill="midnightblue" stroke="midnightblue" points="1048.3,-284.412 1058.86,-283.549 1050.07,-277.638 1048.3,-284.412"/>
</g>
<!-- Node23&#45;&gt;Node7 -->
<g id="edge39" class="edge"><title>Node23&#45;&gt;Node7</title>
<path fill="none" stroke="midnightblue" d="M1049.11,-279.774C1006.79,-266.442 925.321,-241.477 855,-224 794.806,-209.04 724.4,-195.15 680.248,-186.869"/>
<polygon fill="midnightblue" stroke="midnightblue" points="1048.16,-283.145 1058.75,-282.824 1050.27,-276.471 1048.16,-283.145"/>
</g>
<!-- Node23&#45;&gt;Node8 -->
<g id="edge40" class="edge"><title>Node23&#45;&gt;Node8</title>
<path fill="none" stroke="midnightblue" d="M1052.63,-275.204C1039.49,-267.239 1023.78,-256.36 1012,-244 964.512,-194.174 988.342,-150.074 931,-112 888.575,-83.83 736.985,-72.3547 669.642,-68.5713"/>
<polygon fill="midnightblue" stroke="midnightblue" points="1051.25,-278.45 1061.65,-280.467 1054.78,-272.404 1051.25,-278.45"/>
</g>
<!-- Node23&#45;&gt;Node10 -->
<g id="edge41" class="edge"><title>Node23&#45;&gt;Node10</title>
<path fill="none" stroke="midnightblue" d="M1080.47,-270.289C1083.13,-248.431 1087,-211.159 1087,-179 1087,-179 1087,-179 1087,-121 1087,-47.0085 982.308,-22.6092 922.192,-14.698"/>
<polygon fill="midnightblue" stroke="midnightblue" points="1076.96,-270.101 1079.18,-280.462 1083.91,-270.982 1076.96,-270.101"/>
</g>
<!-- Node24 -->
<g id="node24" class="node"><title>Node24</title>
<g id="a_node24"><a xlink:href="a00044.html" target="_top" xlink:title="pid.c">
<polygon fill="white" stroke="black" points="1021,-224.5 1021,-243.5 1059,-243.5 1059,-224.5 1021,-224.5"/>
<text text-anchor="middle" x="1040" y="-231.5" font-family="Helvetica,sans-Serif" font-size="10.00">pid.c</text>
</a>
</g>
</g>
<!-- Node23&#45;&gt;Node24 -->
<g id="edge42" class="edge"><title>Node23&#45;&gt;Node24</title>
<path fill="none" stroke="midnightblue" d="M1065.94,-271.855C1059.36,-262.505 1051.49,-251.327 1046.16,-243.751"/>
<polygon fill="midnightblue" stroke="midnightblue" points="1063.11,-273.919 1071.73,-280.083 1068.83,-269.891 1063.11,-273.919"/>
</g>
<!-- Node26 -->
<g id="node26" class="node"><title>Node26</title>
<g id="a_node26"><a xlink:href="a00016.html" target="_top" xlink:title="console.c">
<polygon fill="white" stroke="black" points="1153.5,-280.5 1153.5,-299.5 1212.5,-299.5 1212.5,-280.5 1153.5,-280.5"/>
<text text-anchor="middle" x="1183" y="-287.5" font-family="Helvetica,sans-Serif" font-size="10.00">console.c</text>
</a>
</g>
</g>
<!-- Node25&#45;&gt;Node26 -->
<g id="edge46" class="edge"><title>Node25&#45;&gt;Node26</title>
<path fill="none" stroke="midnightblue" d="M1183,-325.805C1183,-316.91 1183,-306.78 1183,-299.751"/>
<polygon fill="midnightblue" stroke="midnightblue" points="1179.5,-326.083 1183,-336.083 1186.5,-326.083 1179.5,-326.083"/>
</g>
</g>
</svg>
        <g id="navigator" transform="translate(0 0)" fill="#404254">
                <rect fill="#f2f5e9" fill-opacity="0.5" stroke="#606060" stroke-width=".5" x="0" y="0" width="60" height="60"/>
                <use id="zoomplus" xlink:href="#zoomPlus" x="17" y="9" onmousedown="handleZoom(evt,'in')"/>
                <use id="zoomminus" xlink:href="#zoomMin" x="42" y="9" onmousedown="handleZoom(evt,'out')"/>
                <use id="reset" xlink:href="#resetDef" x="30" y="36" onmousedown="handleReset()"/>
                <g id="arrowUp" xlink:href="#dirArrow" transform="translate(30 24)" onmousedown="handlePan(0,-1)">
                  <use xlink:href="#rim" fill="#404040">
                        <set attributeName="fill" to="#808080" begin="arrowUp.mouseover" end="arrowUp.mouseout"/>
                  </use>
                  <path fill="none" stroke="white" stroke-width="1.5" d="M0,-3.0v7 M-2.5,-0.5L0,-3.0L2.5,-0.5"/>
                </g>
                <g id="arrowRight" xlink:href="#dirArrow" transform="rotate(90) translate(36 -43)" onmousedown="handlePan(1,0)">
                  <use xlink:href="#rim" fill="#404040">
                        <set attributeName="fill" to="#808080" begin="arrowRight.mouseover" end="arrowRight.mouseout"/>
                  </use>
                  <path fill="none" stroke="white" stroke-width="1.5" d="M0,-3.0v7 M-2.5,-0.5L0,-3.0L2.5,-0.5"/>
                </g>
                <g id="arrowDown" xlink:href="#dirArrow" transform="rotate(180) translate(-30 -48)" onmousedown="handlePan(0,1)">
                  <use xlink:href="#rim" fill="#404040">
                        <set attributeName="fill" to="#808080" begin="arrowDown.mouseover" end="arrowDown.mouseout"/>
                  </use>
                  <path fill="none" stroke="white" stroke-width="1.5" d="M0,-3.0v7 M-2.5,-0.5L0,-3.0L2.5,-0.5"/>
                </g>
                <g id="arrowLeft" xlink:href="#dirArrow" transform="rotate(270) translate(-36 17)" onmousedown="handlePan(-1,0)">
                  <use xlink:href="#rim" fill="#404040">
                        <set attributeName="fill" to="#808080" begin="arrowLeft.mouseover" end="arrowLeft.mouseout"/>
                  </use>
                  <path fill="none" stroke="white" stroke-width="1.5" d="M0,-3.0v7 M-2.5,-0.5L0,-3.0L2.5,-0.5"/>
                </g>
        </g>
        <svg viewBox="0 0 15 15" width="100%" height="30px" preserveAspectRatio="xMaxYMin meet">
         <g id="arrow_out" transform="scale(0.3 0.3)">
          <a xlink:href="a00173_org.svg" target="_base">
           <rect id="button" ry="5" rx="5" y="6" x="6" height="38" width="38"
                fill="#f2f5e9" fill-opacity="0.5" stroke="#606060" stroke-width="1.0"/>
           <path id="arrow"
             d="M 11.500037,31.436501 C 11.940474,20.09759 22.043105,11.32322 32.158766,21.979434 L 37.068811,17.246167 C 37.068811,17.246167 37.088388,32 37.088388,32 L 22.160133,31.978069 C 22.160133,31.978069 26.997745,27.140456 26.997745,27.140456 C 18.528582,18.264221 13.291696,25.230495 11.500037,31.436501 z"
             style="fill:#404040;"/>
          </a>
         </g>
        </svg>
</svg>
