<?xml version="1.0" encoding="UTF-8" standalone="no"?>
<!DOCTYPE svg PUBLIC "-//W3C//DTD SVG 1.1//EN"
 "http://www.w3.org/Graphics/SVG/1.1/DTD/svg11.dtd">
<!-- Generated by graphviz version 2.38.0 (20140413.2041)
 -->
<!-- Title: adc_dac_dma.c Pages: 1 -->
<svg width="2269pt" height="308pt"
 viewBox="0.00 0.00 2268.50 308.00" xmlns="http://www.w3.org/2000/svg" xmlns:xlink="http://www.w3.org/1999/xlink">
<g id="graph0" class="graph" transform="scale(1 1) rotate(0) translate(4 304)">
<title>adc_dac_dma.c</title>
<polygon fill="white" stroke="none" points="-4,4 -4,-304 2264.5,-304 2264.5,4 -4,4"/>
<!-- Node1 -->
<g id="node1" class="node"><title>Node1</title>
<polygon fill="#bfbfbf" stroke="black" points="673.5,-280.5 673.5,-299.5 759.5,-299.5 759.5,-280.5 673.5,-280.5"/>
<text text-anchor="middle" x="716.5" y="-287.5" font-family="Helvetica,sans-Serif" font-size="10.00">adc_dac_dma.c</text>
</g>
<!-- Node2 -->
<g id="node2" class="node"><title>Node2</title>
<g id="a_node2"><a xlink:href="a00014.html" target="_top" xlink:title="Provides DMA related configuration and access functions for ADC and DAC. ">
<polygon fill="white" stroke="black" points="673.5,-224.5 673.5,-243.5 759.5,-243.5 759.5,-224.5 673.5,-224.5"/>
<text text-anchor="middle" x="716.5" y="-231.5" font-family="Helvetica,sans-Serif" font-size="10.00">adc_dac_dma.h</text>
</a>
</g>
</g>
<!-- Node1&#45;&gt;Node2 -->
<g id="edge1" class="edge"><title>Node1&#45;&gt;Node2</title>
<path fill="none" stroke="midnightblue" d="M716.5,-280.083C716.5,-273.006 716.5,-262.861 716.5,-253.986"/>
<polygon fill="midnightblue" stroke="midnightblue" points="720,-253.751 716.5,-243.751 713,-253.751 720,-253.751"/>
</g>
<!-- Node3 -->
<g id="node3" class="node"><title>Node3</title>
<g id="a_node3"><a xlink:href="a00019.html" target="_top" xlink:title="Global defines include file. ">
<polygon fill="white" stroke="black" points="542.5,-0.5 542.5,-19.5 598.5,-19.5 598.5,-0.5 542.5,-0.5"/>
<text text-anchor="middle" x="570.5" y="-7.5" font-family="Helvetica,sans-Serif" font-size="10.00">defines.h</text>
</a>
</g>
</g>
<!-- Node2&#45;&gt;Node3 -->
<g id="edge2" class="edge"><title>Node2&#45;&gt;Node3</title>
<path fill="none" stroke="midnightblue" d="M713.976,-224.211C707.336,-202.488 687.442,-145.605 652.5,-112 625.85,-86.3699 598.841,-106.194 577.5,-76 568.092,-62.6895 567.037,-43.8577 567.923,-29.888"/>
<polygon fill="midnightblue" stroke="midnightblue" points="571.407,-30.226 568.928,-19.9252 564.442,-29.5235 571.407,-30.226"/>
</g>
<!-- Node4 -->
<g id="node4" class="node"><title>Node4</title>
<g id="a_node4"><a xlink:href="a00040.html" target="_top" xlink:title="Provides nested vector interrupt controller configuration methods. ">
<polygon fill="white" stroke="black" points="1481.5,-168.5 1481.5,-187.5 1555.5,-187.5 1555.5,-168.5 1481.5,-168.5"/>
<text text-anchor="middle" x="1518.5" y="-175.5" font-family="Helvetica,sans-Serif" font-size="10.00">nvic_config.h</text>
</a>
</g>
</g>
<!-- Node2&#45;&gt;Node4 -->
<g id="edge3" class="edge"><title>Node2&#45;&gt;Node4</title>
<path fill="none" stroke="midnightblue" d="M759.619,-230.097C897.536,-220.811 1327.25,-191.877 1471.07,-182.194"/>
<polygon fill="midnightblue" stroke="midnightblue" points="1471.58,-185.667 1481.32,-181.503 1471.11,-178.683 1471.58,-185.667"/>
</g>
<!-- Node6 -->
<g id="node6" class="node"><title>Node6</title>
<g id="a_node6"><a xlink:href="a00023.html" target="_top" xlink:title="Main header definition. ">
<polygon fill="white" stroke="black" points="608.5,-168.5 608.5,-187.5 654.5,-187.5 654.5,-168.5 608.5,-168.5"/>
<text text-anchor="middle" x="631.5" y="-175.5" font-family="Helvetica,sans-Serif" font-size="10.00">main.h</text>
</a>
</g>
</g>
<!-- Node2&#45;&gt;Node6 -->
<g id="edge5" class="edge"><title>Node2&#45;&gt;Node6</title>
<path fill="none" stroke="midnightblue" d="M697.728,-224.324C683.015,-216.107 663.004,-203.602 648.71,-193.807"/>
<polygon fill="midnightblue" stroke="midnightblue" points="650.443,-190.746 640.256,-187.834 646.404,-196.463 650.443,-190.746"/>
</g>
<!-- Node12 -->
<g id="node12" class="node"><title>Node12</title>
<polygon fill="white" stroke="#bfbfbf" points="1097,-0.5 1097,-19.5 1168,-19.5 1168,-0.5 1097,-0.5"/>
<text text-anchor="middle" x="1132.5" y="-7.5" font-family="Helvetica,sans-Serif" font-size="10.00">stm32f4xx.h</text>
</g>
<!-- Node2&#45;&gt;Node12 -->
<g id="edge89" class="edge"><title>Node2&#45;&gt;Node12</title>
<path fill="none" stroke="midnightblue" d="M759.663,-231.073C844.307,-225.722 1036.06,-205.744 1176.5,-132 1214.6,-111.992 1260.13,-91.9689 1236.5,-56 1223.43,-36.1086 1199.49,-24.9679 1177.87,-18.7495"/>
<polygon fill="midnightblue" stroke="midnightblue" points="1178.71,-15.3505 1168.15,-16.2249 1176.95,-22.1258 1178.71,-15.3505"/>
</g>
<!-- Node13 -->
<g id="node13" class="node"><title>Node13</title>
<polygon fill="white" stroke="#bfbfbf" points="1791,-0.5 1791,-19.5 1880,-19.5 1880,-0.5 1791,-0.5"/>
<text text-anchor="middle" x="1835.5" y="-7.5" font-family="Helvetica,sans-Serif" font-size="10.00">stm32f4xx_rcc.h</text>
</g>
<!-- Node2&#45;&gt;Node13 -->
<g id="edge88" class="edge"><title>Node2&#45;&gt;Node13</title>
<path fill="none" stroke="midnightblue" d="M759.662,-232.286C921.623,-229.401 1493.04,-217.328 1672.5,-188 1818.31,-164.17 1906.95,-201.14 1985.5,-76 2010.04,-36.8997 1942.84,-21.2455 1890.57,-15.0281"/>
<polygon fill="midnightblue" stroke="midnightblue" points="1890.67,-11.5181 1880.35,-13.9063 1889.91,-18.4763 1890.67,-11.5181"/>
</g>
<!-- Node16 -->
<g id="node16" class="node"><title>Node16</title>
<polygon fill="white" stroke="#bfbfbf" points="1442.5,-0.5 1442.5,-19.5 1536.5,-19.5 1536.5,-0.5 1442.5,-0.5"/>
<text text-anchor="middle" x="1489.5" y="-7.5" font-family="Helvetica,sans-Serif" font-size="10.00">stm32f4xx_gpio.h</text>
</g>
<!-- Node2&#45;&gt;Node16 -->
<g id="edge87" class="edge"><title>Node2&#45;&gt;Node16</title>
<path fill="none" stroke="midnightblue" d="M759.64,-232.255C909.624,-229.425 1407.74,-217.942 1564.5,-188 1717.87,-158.705 1806.37,-202.796 1897.5,-76 1939.19,-17.9904 1668.98,-10.9018 1547.01,-10.6122"/>
<polygon fill="midnightblue" stroke="midnightblue" points="1546.74,-7.11208 1536.74,-10.6031 1546.73,-14.1121 1546.74,-7.11208"/>
</g>
<!-- Node25 -->
<g id="node25" class="node"><title>Node25</title>
<g id="a_node25"><a xlink:href="a00012.html" target="_top" xlink:title="Controlling beam and primary actuators. ">
<polygon fill="white" stroke="black" points="205,-112.5 205,-131.5 270,-131.5 270,-112.5 205,-112.5"/>
<text text-anchor="middle" x="237.5" y="-119.5" font-family="Helvetica,sans-Serif" font-size="10.00">actuators.h</text>
</a>
</g>
</g>
<!-- Node2&#45;&gt;Node25 -->
<g id="edge91" class="edge"><title>Node2&#45;&gt;Node25</title>
<path fill="none" stroke="midnightblue" d="M673.301,-230.651C609.846,-226.234 488.725,-214.624 389.5,-188 341.06,-175.003 287.577,-151.443 258.539,-136.541"/>
<polygon fill="midnightblue" stroke="midnightblue" points="259.81,-133.254 249.335,-131.663 256.532,-139.439 259.81,-133.254"/>
</g>
<!-- Node28 -->
<g id="node28" class="node"><title>Node28</title>
<g id="a_node28"><a xlink:href="a00042_source.html" target="_top" xlink:title="pid.h">
<polygon fill="white" stroke="black" points="252.5,-56.5 252.5,-75.5 290.5,-75.5 290.5,-56.5 252.5,-56.5"/>
<text text-anchor="middle" x="271.5" y="-63.5" font-family="Helvetica,sans-Serif" font-size="10.00">pid.h</text>
</a>
</g>
</g>
<!-- Node2&#45;&gt;Node28 -->
<g id="edge84" class="edge"><title>Node2&#45;&gt;Node28</title>
<path fill="none" stroke="midnightblue" d="M673.267,-232.014C558.132,-228.323 249.188,-211.09 195.5,-132 179.537,-108.485 215.065,-88.4648 242.76,-77.0854"/>
<polygon fill="midnightblue" stroke="midnightblue" points="244.088,-80.3244 252.132,-73.4292 241.544,-73.8031 244.088,-80.3244"/>
</g>
<!-- Node30 -->
<g id="node30" class="node"><title>Node30</title>
<g id="a_node30"><a xlink:href="a00063_source.html" target="_top" xlink:title="tools.h">
<polygon fill="white" stroke="black" points="26.5,-56.5 26.5,-75.5 72.5,-75.5 72.5,-56.5 26.5,-56.5"/>
<text text-anchor="middle" x="49.5" y="-63.5" font-family="Helvetica,sans-Serif" font-size="10.00">tools.h</text>
</a>
</g>
</g>
<!-- Node2&#45;&gt;Node30 -->
<g id="edge90" class="edge"><title>Node2&#45;&gt;Node30</title>
<path fill="none" stroke="midnightblue" d="M673.341,-232.592C589.211,-230.992 397.828,-223.395 241.5,-188 170.876,-172.01 144.319,-178.128 88.5,-132 73.4798,-119.588 62.7881,-99.7899 56.4424,-85.3018"/>
<polygon fill="midnightblue" stroke="midnightblue" points="59.6121,-83.8058 52.5901,-75.8722 53.132,-86.4532 59.6121,-83.8058"/>
</g>
<!-- Node33 -->
<g id="node33" class="node"><title>Node33</title>
<g id="a_node33"><a xlink:href="a00025.html" target="_top" xlink:title="Project XA&#45;Galvo scanner specific digital to analog converter methods. ">
<polygon fill="white" stroke="black" points="1043.5,-112.5 1043.5,-131.5 1143.5,-131.5 1143.5,-112.5 1043.5,-112.5"/>
<text text-anchor="middle" x="1093.5" y="-119.5" font-family="Helvetica,sans-Serif" font-size="10.00">md_stm32f4_dac.h</text>
</a>
</g>
</g>
<!-- Node2&#45;&gt;Node33 -->
<g id="edge80" class="edge"><title>Node2&#45;&gt;Node33</title>
<path fill="none" stroke="midnightblue" d="M745.769,-224.46C813.073,-204.822 978.858,-156.45 1054.61,-134.348"/>
<polygon fill="midnightblue" stroke="midnightblue" points="1055.63,-137.695 1064.25,-131.535 1053.67,-130.976 1055.63,-137.695"/>
</g>
<!-- Node34 -->
<g id="node34" class="node"><title>Node34</title>
<polygon fill="white" stroke="#bfbfbf" points="2058.5,-168.5 2058.5,-187.5 2150.5,-187.5 2150.5,-168.5 2058.5,-168.5"/>
<text text-anchor="middle" x="2104.5" y="-175.5" font-family="Helvetica,sans-Serif" font-size="10.00">stm32f4xx_adc.h</text>
</g>
<!-- Node2&#45;&gt;Node34 -->
<g id="edge85" class="edge"><title>Node2&#45;&gt;Node34</title>
<path fill="none" stroke="midnightblue" d="M759.606,-233.338C925.805,-234.259 1540.83,-234.155 2044.5,-188 2045.77,-187.884 2047.05,-187.758 2048.34,-187.625"/>
<polygon fill="midnightblue" stroke="midnightblue" points="2048.85,-191.09 2058.38,-186.465 2048.04,-184.137 2048.85,-191.09"/>
</g>
<!-- Node35 -->
<g id="node35" class="node"><title>Node35</title>
<polygon fill="white" stroke="#bfbfbf" points="2168.5,-168.5 2168.5,-187.5 2260.5,-187.5 2260.5,-168.5 2168.5,-168.5"/>
<text text-anchor="middle" x="2214.5" y="-175.5" font-family="Helvetica,sans-Serif" font-size="10.00">stm32f4xx_dac.h</text>
</g>
<!-- Node2&#45;&gt;Node35 -->
<g id="edge86" class="edge"><title>Node2&#45;&gt;Node35</title>
<path fill="none" stroke="midnightblue" d="M759.691,-232.417C966.467,-229.512 1857.27,-215.658 2158.32,-187.952"/>
<polygon fill="midnightblue" stroke="midnightblue" points="2158.72,-191.43 2168.34,-187.003 2158.06,-184.461 2158.72,-191.43"/>
</g>
<!-- Node5 -->
<g id="node5" class="node"><title>Node5</title>
<polygon fill="white" stroke="#bfbfbf" points="1718.5,-56.5 1718.5,-75.5 1764.5,-75.5 1764.5,-56.5 1718.5,-56.5"/>
<text text-anchor="middle" x="1741.5" y="-63.5" font-family="Helvetica,sans-Serif" font-size="10.00">misc.h</text>
</g>
<!-- Node4&#45;&gt;Node5 -->
<g id="edge4" class="edge"><title>Node4&#45;&gt;Node5</title>
<path fill="none" stroke="midnightblue" d="M1553.27,-168.488C1581.03,-160.952 1620.46,-148.575 1652.5,-132 1679.13,-118.225 1706.5,-96.9624 1723.73,-82.5379"/>
<polygon fill="midnightblue" stroke="midnightblue" points="1726.42,-84.845 1731.76,-75.6941 1721.88,-79.5178 1726.42,-84.845"/>
</g>
<!-- Node6&#45;&gt;Node2 -->
<g id="edge71" class="edge"><title>Node6&#45;&gt;Node2</title>
<path fill="none" stroke="midnightblue" d="M650.233,-187.655C665.025,-195.913 685.187,-208.517 699.507,-218.342"/>
<polygon fill="midnightblue" stroke="midnightblue" points="697.774,-221.403 707.958,-224.324 701.818,-215.69 697.774,-221.403"/>
</g>
<!-- Node6&#45;&gt;Node3 -->
<g id="edge10" class="edge"><title>Node6&#45;&gt;Node3</title>
<path fill="none" stroke="midnightblue" d="M635.004,-168.439C639.885,-154.993 646.829,-128.735 634.5,-112 602.482,-68.5392 550.518,-119.461 518.5,-76 505.269,-58.0403 526.899,-38.1068 546.161,-25.1094"/>
<polygon fill="midnightblue" stroke="midnightblue" points="548.16,-27.9854 554.71,-19.6577 544.397,-22.0832 548.16,-27.9854"/>
</g>
<!-- Node7 -->
<g id="node7" class="node"><title>Node7</title>
<polygon fill="white" stroke="#bfbfbf" points="77.5,-0.5 77.5,-19.5 123.5,-19.5 123.5,-0.5 77.5,-0.5"/>
<text text-anchor="middle" x="100.5" y="-7.5" font-family="Helvetica,sans-Serif" font-size="10.00">stdio.h</text>
</g>
<!-- Node6&#45;&gt;Node7 -->
<g id="edge6" class="edge"><title>Node6&#45;&gt;Node7</title>
<path fill="none" stroke="midnightblue" d="M608.36,-176.846C517.501,-175.973 185.423,-170.18 88.5,-132 45.4923,-115.058 -6.14627,-95.7183 17.5,-56 23.4989,-45.9237 48.7213,-33.0532 69.8039,-23.6599"/>
<polygon fill="midnightblue" stroke="midnightblue" points="71.3403,-26.8084 79.1153,-19.6112 68.549,-20.389 71.3403,-26.8084"/>
</g>
<!-- Node8 -->
<g id="node8" class="node"><title>Node8</title>
<polygon fill="white" stroke="#bfbfbf" points="141.5,-0.5 141.5,-19.5 189.5,-19.5 189.5,-0.5 141.5,-0.5"/>
<text text-anchor="middle" x="165.5" y="-7.5" font-family="Helvetica,sans-Serif" font-size="10.00">stdlib.h</text>
</g>
<!-- Node6&#45;&gt;Node8 -->
<g id="edge7" class="edge"><title>Node6&#45;&gt;Node8</title>
<path fill="none" stroke="midnightblue" d="M608.337,-177.135C528.546,-177.219 266.126,-174.213 195.5,-132 169.682,-116.569 166.334,-104.752 157.5,-76 152.804,-60.7163 155.681,-42.6101 159.228,-29.3942"/>
<polygon fill="midnightblue" stroke="midnightblue" points="162.642,-30.1984 162.214,-19.6122 155.947,-28.1549 162.642,-30.1984"/>
</g>
<!-- Node9 -->
<g id="node9" class="node"><title>Node9</title>
<polygon fill="white" stroke="#bfbfbf" points="208,-0.5 208,-19.5 257,-19.5 257,-0.5 208,-0.5"/>
<text text-anchor="middle" x="232.5" y="-7.5" font-family="Helvetica,sans-Serif" font-size="10.00">string.h</text>
</g>
<!-- Node6&#45;&gt;Node9 -->
<g id="edge8" class="edge"><title>Node6&#45;&gt;Node9</title>
<path fill="none" stroke="midnightblue" d="M608.278,-174.266C570.229,-169.244 492.717,-156.722 431.5,-132 394.66,-117.123 297.11,-53.7809 253.769,-25.1507"/>
<polygon fill="midnightblue" stroke="midnightblue" points="255.655,-22.2016 245.385,-19.5981 251.79,-28.0378 255.655,-22.2016"/>
</g>
<!-- Node10 -->
<g id="node10" class="node"><title>Node10</title>
<g id="a_node10"><a xlink:href="a00016.html" target="_top" xlink:title="Platform/Compiler dependent definitions. ">
<polygon fill="white" stroke="black" points="1635,-56.5 1635,-75.5 1700,-75.5 1700,-56.5 1635,-56.5"/>
<text text-anchor="middle" x="1667.5" y="-63.5" font-family="Helvetica,sans-Serif" font-size="10.00">attributes.h</text>
</a>
</g>
</g>
<!-- Node6&#45;&gt;Node10 -->
<g id="edge9" class="edge"><title>Node6&#45;&gt;Node10</title>
<path fill="none" stroke="midnightblue" d="M654.587,-176.802C792.159,-175.508 1500.9,-167.165 1590.5,-132 1616.33,-121.862 1639.71,-99.3314 1653.77,-83.6583"/>
<polygon fill="midnightblue" stroke="midnightblue" points="1656.68,-85.6355 1660.57,-75.7788 1651.38,-81.0613 1656.68,-85.6355"/>
</g>
<!-- Node11 -->
<g id="node11" class="node"><title>Node11</title>
<g id="a_node11"><a xlink:href="a00029.html" target="_top" xlink:title="Provides SysTick&#45;Timer driven delay functions. ">
<polygon fill="white" stroke="black" points="997,-56.5 997,-75.5 1104,-75.5 1104,-56.5 997,-56.5"/>
<text text-anchor="middle" x="1050.5" y="-63.5" font-family="Helvetica,sans-Serif" font-size="10.00">md_stm32f4_delay.h</text>
</a>
</g>
</g>
<!-- Node6&#45;&gt;Node11 -->
<g id="edge11" class="edge"><title>Node6&#45;&gt;Node11</title>
<path fill="none" stroke="midnightblue" d="M654.726,-175.879C723.19,-172.284 923.07,-159.63 981.5,-132 1004.88,-120.944 1025.56,-98.9659 1038.04,-83.6427"/>
<polygon fill="midnightblue" stroke="midnightblue" points="1040.99,-85.5532 1044.4,-75.5225 1035.48,-81.2366 1040.99,-85.5532"/>
</g>
<!-- Node14 -->
<g id="node14" class="node"><title>Node14</title>
<g id="a_node14"><a xlink:href="a00031.html" target="_top" xlink:title="Definitions to extend board support for STM32F429i&#45;DISCO and equivalent boards. ">
<polygon fill="white" stroke="black" points="745,-112.5 745,-131.5 852,-131.5 852,-112.5 745,-112.5"/>
<text text-anchor="middle" x="798.5" y="-119.5" font-family="Helvetica,sans-Serif" font-size="10.00">md_stm32f4_disco.h</text>
</a>
</g>
</g>
<!-- Node6&#45;&gt;Node14 -->
<g id="edge15" class="edge"><title>Node6&#45;&gt;Node14</title>
<path fill="none" stroke="midnightblue" d="M654.721,-169.492C682.661,-160.457 729.881,-145.188 762.544,-134.626"/>
<polygon fill="midnightblue" stroke="midnightblue" points="763.738,-137.919 772.177,-131.512 761.585,-131.258 763.738,-137.919"/>
</g>
<!-- Node17 -->
<g id="node17" class="node"><title>Node17</title>
<g id="a_node17"><a xlink:href="a00035_source.html" target="_top" xlink:title="md_stm32f4_timer.h">
<polygon fill="white" stroke="black" points="1782.5,-56.5 1782.5,-75.5 1888.5,-75.5 1888.5,-56.5 1782.5,-56.5"/>
<text text-anchor="middle" x="1835.5" y="-63.5" font-family="Helvetica,sans-Serif" font-size="10.00">md_stm32f4_timer.h</text>
</a>
</g>
</g>
<!-- Node6&#45;&gt;Node17 -->
<g id="edge21" class="edge"><title>Node6&#45;&gt;Node17</title>
<path fill="none" stroke="midnightblue" d="M654.874,-176.728C785.569,-175.087 1426.92,-165.431 1621.5,-132 1688.14,-120.55 1763.14,-94.6004 1804.29,-79.1756"/>
<polygon fill="midnightblue" stroke="midnightblue" points="1805.65,-82.4055 1813.76,-75.5889 1803.17,-75.8597 1805.65,-82.4055"/>
</g>
<!-- Node18 -->
<g id="node18" class="node"><title>Node18</title>
<g id="a_node18"><a xlink:href="a00053_source.html" target="_top" xlink:title="tm_stm32f4_pwm.h">
<polygon fill="white" stroke="black" points="870,-112.5 870,-131.5 973,-131.5 973,-112.5 870,-112.5"/>
<text text-anchor="middle" x="921.5" y="-119.5" font-family="Helvetica,sans-Serif" font-size="10.00">tm_stm32f4_pwm.h</text>
</a>
</g>
</g>
<!-- Node6&#45;&gt;Node18 -->
<g id="edge25" class="edge"><title>Node6&#45;&gt;Node18</title>
<path fill="none" stroke="midnightblue" d="M654.742,-172.672C700.16,-164.215 801.827,-145.284 865.71,-133.389"/>
<polygon fill="midnightblue" stroke="midnightblue" points="866.433,-136.814 875.624,-131.542 865.152,-129.932 866.433,-136.814"/>
</g>
<!-- Node21 -->
<g id="node21" class="node"><title>Node21</title>
<g id="a_node21"><a xlink:href="a00059_source.html" target="_top" xlink:title="tm_stm32f4_usart.h">
<polygon fill="white" stroke="black" points="1477.5,-112.5 1477.5,-131.5 1581.5,-131.5 1581.5,-112.5 1477.5,-112.5"/>
<text text-anchor="middle" x="1529.5" y="-119.5" font-family="Helvetica,sans-Serif" font-size="10.00">tm_stm32f4_usart.h</text>
</a>
</g>
</g>
<!-- Node6&#45;&gt;Node21 -->
<g id="edge36" class="edge"><title>Node6&#45;&gt;Node21</title>
<path fill="none" stroke="midnightblue" d="M654.6,-175.611C770.13,-168.664 1286.81,-137.594 1467.15,-126.75"/>
<polygon fill="midnightblue" stroke="midnightblue" points="1467.49,-130.235 1477.26,-126.141 1467.07,-123.248 1467.49,-130.235"/>
</g>
<!-- Node23 -->
<g id="node23" class="node"><title>Node23</title>
<polygon fill="white" stroke="#bfbfbf" points="440.5,-112.5 440.5,-131.5 508.5,-131.5 508.5,-112.5 440.5,-112.5"/>
<text text-anchor="middle" x="474.5" y="-119.5" font-family="Helvetica,sans-Serif" font-size="10.00">core_cm4.h</text>
</g>
<!-- Node6&#45;&gt;Node23 -->
<g id="edge45" class="edge"><title>Node6&#45;&gt;Node23</title>
<path fill="none" stroke="midnightblue" d="M608.334,-169.032C582.125,-160.018 539.173,-145.244 509.013,-134.871"/>
<polygon fill="midnightblue" stroke="midnightblue" points="509.912,-131.479 499.318,-131.536 507.635,-138.098 509.912,-131.479"/>
</g>
<!-- Node24 -->
<g id="node24" class="node"><title>Node24</title>
<polygon fill="white" stroke="#bfbfbf" points="526.5,-112.5 526.5,-131.5 594.5,-131.5 594.5,-112.5 526.5,-112.5"/>
<text text-anchor="middle" x="560.5" y="-119.5" font-family="Helvetica,sans-Serif" font-size="10.00">arm_math.h</text>
</g>
<!-- Node6&#45;&gt;Node24 -->
<g id="edge46" class="edge"><title>Node6&#45;&gt;Node24</title>
<path fill="none" stroke="midnightblue" d="M620.093,-168.324C609.391,-160.185 593.159,-147.839 580.337,-138.087"/>
<polygon fill="midnightblue" stroke="midnightblue" points="582.193,-135.102 572.115,-131.834 577.956,-140.673 582.193,-135.102"/>
</g>
<!-- Node6&#45;&gt;Node25 -->
<g id="edge47" class="edge"><title>Node6&#45;&gt;Node25</title>
<path fill="none" stroke="midnightblue" d="M608.283,-174.479C552.387,-168.302 405.96,-151.487 284.5,-132 283.039,-131.766 281.553,-131.52 280.054,-131.267"/>
<polygon fill="midnightblue" stroke="midnightblue" points="280.528,-127.796 270.071,-129.5 279.309,-134.689 280.528,-127.796"/>
</g>
<!-- Node26 -->
<g id="node26" class="node"><title>Node26</title>
<g id="a_node26"><a xlink:href="a00021.html" target="_top" xlink:title="Analog processing related callback handler definition. ">
<polygon fill="white" stroke="black" points="384.5,-56.5 384.5,-75.5 466.5,-75.5 466.5,-56.5 384.5,-56.5"/>
<text text-anchor="middle" x="425.5" y="-63.5" font-family="Helvetica,sans-Serif" font-size="10.00">isr_callbacks.h</text>
</a>
</g>
</g>
<!-- Node6&#45;&gt;Node26 -->
<g id="edge72" class="edge"><title>Node6&#45;&gt;Node26</title>
<path fill="none" stroke="midnightblue" d="M624.718,-168.403C618.793,-154.42 611.894,-126.825 594.5,-112 584.81,-103.741 517.878,-88.2623 471.12,-77.7931"/>
<polygon fill="midnightblue" stroke="midnightblue" points="471.706,-74.3378 461.184,-75.5743 470.181,-81.1696 471.706,-74.3378"/>
</g>
<!-- Node27 -->
<g id="node27" class="node"><title>Node27</title>
<g id="a_node27"><a xlink:href="a00038.html" target="_top" xlink:title="Project MD_APP scanner specific pin mappings. ">
<polygon fill="white" stroke="black" points="1161,-56.5 1161,-75.5 1228,-75.5 1228,-56.5 1161,-56.5"/>
<text text-anchor="middle" x="1194.5" y="-63.5" font-family="Helvetica,sans-Serif" font-size="10.00">mdb_gpio.h</text>
</a>
</g>
</g>
<!-- Node6&#45;&gt;Node27 -->
<g id="edge73" class="edge"><title>Node6&#45;&gt;Node27</title>
<path fill="none" stroke="midnightblue" d="M654.666,-176.192C750.043,-172.708 1109.37,-157.948 1152.5,-132 1170.09,-121.42 1181.64,-100.324 1188.1,-85.0279"/>
<polygon fill="midnightblue" stroke="midnightblue" points="1191.41,-86.1548 1191.77,-75.5658 1184.89,-83.6241 1191.41,-86.1548"/>
</g>
<!-- Node6&#45;&gt;Node28 -->
<g id="edge74" class="edge"><title>Node6&#45;&gt;Node28</title>
<path fill="none" stroke="midnightblue" d="M608.389,-176.719C560.331,-175.384 446.903,-168.294 360.5,-132 332.559,-120.263 305.123,-98.1676 288.264,-83.0241"/>
<polygon fill="midnightblue" stroke="midnightblue" points="290.188,-80.0377 280.464,-75.8305 285.442,-85.1832 290.188,-80.0377"/>
</g>
<!-- Node6&#45;&gt;Node30 -->
<g id="edge79" class="edge"><title>Node6&#45;&gt;Node30</title>
<path fill="none" stroke="midnightblue" d="M608.371,-176.82C521.284,-175.858 213.574,-169.797 124.5,-132 99.3397,-121.324 76.564,-98.9219 62.8778,-83.4247"/>
<polygon fill="midnightblue" stroke="midnightblue" points="65.4002,-80.9883 56.2521,-75.6438 60.0706,-85.5266 65.4002,-80.9883"/>
</g>
<!-- Node32 -->
<g id="node32" class="node"><title>Node32</title>
<g id="a_node32"><a xlink:href="a00045_source.html" target="_top" xlink:title="signalGen.h">
<polygon fill="white" stroke="black" points="166.5,-56.5 166.5,-75.5 234.5,-75.5 234.5,-56.5 166.5,-56.5"/>
<text text-anchor="middle" x="200.5" y="-63.5" font-family="Helvetica,sans-Serif" font-size="10.00">signalGen.h</text>
</a>
</g>
</g>
<!-- Node6&#45;&gt;Node32 -->
<g id="edge75" class="edge"><title>Node6&#45;&gt;Node32</title>
<path fill="none" stroke="midnightblue" d="M608.399,-176.335C556.169,-174.256 425.519,-165.805 322.5,-132 302.644,-125.484 253.344,-97.7527 223.849,-80.6861"/>
<polygon fill="midnightblue" stroke="midnightblue" points="225.436,-77.56 215.031,-75.5602 221.918,-83.6118 225.436,-77.56"/>
</g>
<!-- Node11&#45;&gt;Node3 -->
<g id="edge14" class="edge"><title>Node11&#45;&gt;Node3</title>
<path fill="none" stroke="midnightblue" d="M996.835,-58.9627C898.906,-47.9457 693.498,-24.8372 608.536,-15.279"/>
<polygon fill="midnightblue" stroke="midnightblue" points="608.879,-11.7956 598.55,-14.1556 608.096,-18.7517 608.879,-11.7956"/>
</g>
<!-- Node11&#45;&gt;Node12 -->
<g id="edge12" class="edge"><title>Node11&#45;&gt;Node12</title>
<path fill="none" stroke="midnightblue" d="M1063.67,-56.324C1076.35,-47.979 1095.73,-35.2122 1110.71,-25.3524"/>
<polygon fill="midnightblue" stroke="midnightblue" points="1112.93,-28.0776 1119.36,-19.6545 1109.08,-22.2313 1112.93,-28.0776"/>
</g>
<!-- Node11&#45;&gt;Node13 -->
<g id="edge13" class="edge"><title>Node11&#45;&gt;Node13</title>
<path fill="none" stroke="midnightblue" d="M1104.21,-59.9812C1119.48,-58.617 1136.14,-57.1893 1151.5,-56 1385.31,-37.8944 1664.44,-20.9996 1780.59,-14.1791"/>
<polygon fill="midnightblue" stroke="midnightblue" points="1780.88,-17.6684 1790.66,-13.5893 1780.47,-10.6803 1780.88,-17.6684"/>
</g>
<!-- Node14&#45;&gt;Node3 -->
<g id="edge17" class="edge"><title>Node14&#45;&gt;Node3</title>
<path fill="none" stroke="midnightblue" d="M748.084,-112.474C691.507,-102.505 606.066,-86.0854 594.5,-76 581.061,-64.2822 575.139,-44.344 572.534,-29.6323"/>
<polygon fill="midnightblue" stroke="midnightblue" points="575.985,-29.0353 571.119,-19.6237 569.054,-30.0152 575.985,-29.0353"/>
</g>
<!-- Node14&#45;&gt;Node12 -->
<g id="edge16" class="edge"><title>Node14&#45;&gt;Node12</title>
<path fill="none" stroke="midnightblue" d="M820.668,-112.407C843.512,-103.498 880.115,-89.0685 911.5,-76 932.08,-67.4306 936.416,-63.2431 957.5,-56 1000.57,-41.2038 1051.07,-28.718 1086.72,-20.6803"/>
<polygon fill="midnightblue" stroke="midnightblue" points="1087.82,-24.0209 1096.82,-18.4321 1086.3,-17.188 1087.82,-24.0209"/>
</g>
<!-- Node15 -->
<g id="node15" class="node"><title>Node15</title>
<g id="a_node15"><a xlink:href="a00033.html" target="_top" xlink:title="Provides generic methods for GPIO module initialization and manipulation. ">
<polygon fill="white" stroke="black" points="1322.5,-56.5 1322.5,-75.5 1424.5,-75.5 1424.5,-56.5 1322.5,-56.5"/>
<text text-anchor="middle" x="1373.5" y="-63.5" font-family="Helvetica,sans-Serif" font-size="10.00">md_stm32f4_gpio.h</text>
</a>
</g>
</g>
<!-- Node14&#45;&gt;Node15 -->
<g id="edge18" class="edge"><title>Node14&#45;&gt;Node15</title>
<path fill="none" stroke="midnightblue" d="M852.244,-113.008C855.034,-112.653 857.799,-112.314 860.5,-112 1023.3,-93.0591 1216,-78.1695 1312.3,-71.2418"/>
<polygon fill="midnightblue" stroke="midnightblue" points="1312.71,-74.7213 1322.43,-70.5164 1312.21,-67.7392 1312.71,-74.7213"/>
</g>
<!-- Node15&#45;&gt;Node12 -->
<g id="edge19" class="edge"><title>Node15&#45;&gt;Node12</title>
<path fill="none" stroke="midnightblue" d="M1335.31,-56.4435C1292.62,-46.8772 1223.52,-31.3939 1178.04,-21.2045"/>
<polygon fill="midnightblue" stroke="midnightblue" points="1178.67,-17.7595 1168.15,-18.9883 1177.14,-24.5902 1178.67,-17.7595"/>
</g>
<!-- Node15&#45;&gt;Node16 -->
<g id="edge20" class="edge"><title>Node15&#45;&gt;Node16</title>
<path fill="none" stroke="midnightblue" d="M1391.88,-56.4435C1410.72,-47.6751 1440.23,-33.9355 1461.88,-23.8579"/>
<polygon fill="midnightblue" stroke="midnightblue" points="1463.62,-26.9098 1471.21,-19.5164 1460.66,-20.5637 1463.62,-26.9098"/>
</g>
<!-- Node17&#45;&gt;Node12 -->
<g id="edge22" class="edge"><title>Node17&#45;&gt;Node12</title>
<path fill="none" stroke="midnightblue" d="M1782.43,-57.033C1779.41,-56.6618 1776.42,-56.314 1773.5,-56 1550.98,-32.0723 1283.58,-18.012 1178.29,-13.0478"/>
<polygon fill="midnightblue" stroke="midnightblue" points="1178.17,-9.53878 1168.02,-12.5685 1177.85,-16.5312 1178.17,-9.53878"/>
</g>
<!-- Node17&#45;&gt;Node13 -->
<g id="edge23" class="edge"><title>Node17&#45;&gt;Node13</title>
<path fill="none" stroke="midnightblue" d="M1835.5,-56.083C1835.5,-49.0059 1835.5,-38.8611 1835.5,-29.9865"/>
<polygon fill="midnightblue" stroke="midnightblue" points="1839,-29.751 1835.5,-19.7511 1832,-29.7511 1839,-29.751"/>
</g>
<!-- Node17&#45;&gt;Node16 -->
<g id="edge24" class="edge"><title>Node17&#45;&gt;Node16</title>
<path fill="none" stroke="midnightblue" d="M1782.2,-56.6808C1718.5,-46.7396 1612.34,-30.1713 1546.89,-19.9565"/>
<polygon fill="midnightblue" stroke="midnightblue" points="1547.17,-16.4576 1536.75,-18.3736 1546.09,-23.3739 1547.17,-16.4576"/>
</g>
<!-- Node18&#45;&gt;Node3 -->
<g id="edge35" class="edge"><title>Node18&#45;&gt;Node3</title>
<path fill="none" stroke="midnightblue" d="M876.586,-112.464C837.538,-104.559 779.674,-91.6776 730.5,-76 683.072,-60.8789 629.863,-38.0308 598.321,-23.8388"/>
<polygon fill="midnightblue" stroke="midnightblue" points="599.429,-20.4984 588.877,-19.556 596.539,-26.8735 599.429,-20.4984"/>
</g>
<!-- Node18&#45;&gt;Node12 -->
<g id="edge26" class="edge"><title>Node18&#45;&gt;Node12</title>
<path fill="none" stroke="midnightblue" d="M928.2,-112.074C939.122,-98.1276 962.109,-71.1973 987.5,-56 1018.15,-37.6548 1056.98,-26.1218 1086.75,-19.3297"/>
<polygon fill="midnightblue" stroke="midnightblue" points="1087.85,-22.6727 1096.87,-17.1215 1086.35,-15.8336 1087.85,-22.6727"/>
</g>
<!-- Node18&#45;&gt;Node13 -->
<g id="edge27" class="edge"><title>Node18&#45;&gt;Node13</title>
<path fill="none" stroke="midnightblue" d="M973.225,-116.467C992.454,-114.891 1014.46,-113.215 1034.5,-112 1082.4,-109.095 1864.28,-110.631 1897.5,-76 1914.56,-58.2147 1886.93,-37.6192 1863.29,-24.4597"/>
<polygon fill="midnightblue" stroke="midnightblue" points="1864.67,-21.2311 1854.2,-19.6362 1861.39,-27.4147 1864.67,-21.2311"/>
</g>
<!-- Node18&#45;&gt;Node16 -->
<g id="edge28" class="edge"><title>Node18&#45;&gt;Node16</title>
<path fill="none" stroke="midnightblue" d="M973.089,-115.432C1035.73,-108.257 1144.42,-94.4744 1236.5,-76 1271.17,-69.0444 1279.26,-64.8238 1313.5,-56 1358.67,-44.3593 1410.39,-31.1491 1446.02,-22.0683"/>
<polygon fill="midnightblue" stroke="midnightblue" points="1447.25,-25.3662 1456.08,-19.5053 1445.52,-18.583 1447.25,-25.3662"/>
</g>
<!-- Node19 -->
<g id="node19" class="node"><title>Node19</title>
<polygon fill="white" stroke="#bfbfbf" points="699,-0.5 699,-19.5 788,-19.5 788,-0.5 699,-0.5"/>
<text text-anchor="middle" x="743.5" y="-7.5" font-family="Helvetica,sans-Serif" font-size="10.00">stm32f4xx_tim.h</text>
</g>
<!-- Node18&#45;&gt;Node19 -->
<g id="edge29" class="edge"><title>Node18&#45;&gt;Node19</title>
<path fill="none" stroke="midnightblue" d="M875.266,-112.484C824.744,-102.711 749.826,-86.6636 741.5,-76 731.312,-62.952 733.451,-43.5275 737.138,-29.3112"/>
<polygon fill="midnightblue" stroke="midnightblue" points="740.516,-30.2329 740.081,-19.647 733.819,-28.1938 740.516,-30.2329"/>
</g>
<!-- Node20 -->
<g id="node20" class="node"><title>Node20</title>
<g id="a_node20"><a xlink:href="a00057_source.html" target="_top" xlink:title="tm_stm32f4_timer_properties.h">
<polygon fill="white" stroke="black" points="750.5,-56.5 750.5,-75.5 902.5,-75.5 902.5,-56.5 750.5,-56.5"/>
<text text-anchor="middle" x="826.5" y="-63.5" font-family="Helvetica,sans-Serif" font-size="10.00">tm_stm32f4_timer_properties.h</text>
</a>
</g>
</g>
<!-- Node18&#45;&gt;Node20 -->
<g id="edge30" class="edge"><title>Node18&#45;&gt;Node20</title>
<path fill="none" stroke="midnightblue" d="M906.237,-112.324C891.279,-103.822 868.245,-90.7288 850.773,-80.7975"/>
<polygon fill="midnightblue" stroke="midnightblue" points="852.149,-77.5534 841.726,-75.6545 848.69,-83.639 852.149,-77.5534"/>
</g>
<!-- Node20&#45;&gt;Node3 -->
<g id="edge34" class="edge"><title>Node20&#45;&gt;Node3</title>
<path fill="none" stroke="midnightblue" d="M785.936,-56.4435C737.206,-46.1645 656.089,-29.0539 608.52,-19.0198"/>
<polygon fill="midnightblue" stroke="midnightblue" points="609.123,-15.5702 598.616,-16.9308 607.679,-22.4195 609.123,-15.5702"/>
</g>
<!-- Node20&#45;&gt;Node12 -->
<g id="edge31" class="edge"><title>Node20&#45;&gt;Node12</title>
<path fill="none" stroke="midnightblue" d="M874.987,-56.4435C933.052,-46.1967 1029.59,-29.1611 1086.52,-19.1144"/>
<polygon fill="midnightblue" stroke="midnightblue" points="1087.43,-22.5076 1096.67,-17.323 1086.21,-15.6142 1087.43,-22.5076"/>
</g>
<!-- Node20&#45;&gt;Node13 -->
<g id="edge32" class="edge"><title>Node20&#45;&gt;Node13</title>
<path fill="none" stroke="midnightblue" d="M902.664,-60.6981C929.478,-59.1953 959.826,-57.5078 987.5,-56 1287,-39.6823 1646.05,-20.8793 1780.83,-13.8473"/>
<polygon fill="midnightblue" stroke="midnightblue" points="1781.1,-17.3382 1790.91,-13.322 1780.74,-10.3477 1781.1,-17.3382"/>
</g>
<!-- Node20&#45;&gt;Node19 -->
<g id="edge33" class="edge"><title>Node20&#45;&gt;Node19</title>
<path fill="none" stroke="midnightblue" d="M813.165,-56.324C800.338,-47.979 780.715,-35.2122 765.56,-25.3524"/>
<polygon fill="midnightblue" stroke="midnightblue" points="767.093,-22.1742 756.802,-19.6545 763.276,-28.0417 767.093,-22.1742"/>
</g>
<!-- Node21&#45;&gt;Node3 -->
<g id="edge43" class="edge"><title>Node21&#45;&gt;Node3</title>
<path fill="none" stroke="midnightblue" d="M1477.38,-119.309C1312.98,-113.794 811.974,-95.5621 741.5,-76 723.11,-70.8954 721.039,-63.5264 703.5,-56 672.216,-42.5748 635.482,-30.405 608.556,-22.1163"/>
<polygon fill="midnightblue" stroke="midnightblue" points="609.334,-18.6947 598.748,-19.1351 607.298,-25.3921 609.334,-18.6947"/>
</g>
<!-- Node21&#45;&gt;Node5 -->
<g id="edge37" class="edge"><title>Node21&#45;&gt;Node5</title>
<path fill="none" stroke="midnightblue" d="M1565.1,-112.425C1599.41,-104.089 1653.02,-90.8742 1708.45,-76.2233"/>
<polygon fill="midnightblue" stroke="midnightblue" points="1709.68,-79.5176 1718.45,-73.5695 1707.89,-72.7518 1709.68,-79.5176"/>
</g>
<!-- Node21&#45;&gt;Node10 -->
<g id="edge42" class="edge"><title>Node21&#45;&gt;Node10</title>
<path fill="none" stroke="midnightblue" d="M1551.37,-112.444C1574.28,-103.478 1610.48,-89.314 1636.37,-79.1827"/>
<polygon fill="midnightblue" stroke="midnightblue" points="1637.7,-82.4198 1645.74,-75.5164 1635.15,-75.9011 1637.7,-82.4198"/>
</g>
<!-- Node21&#45;&gt;Node12 -->
<g id="edge38" class="edge"><title>Node21&#45;&gt;Node12</title>
<path fill="none" stroke="midnightblue" d="M1518.21,-112.41C1496.97,-96.4173 1451.6,-63.0561 1433.5,-56 1347.59,-22.5004 1238.92,-13.7621 1178.46,-11.5932"/>
<polygon fill="midnightblue" stroke="midnightblue" points="1178.2,-8.0838 1168.1,-11.2697 1177.99,-15.0804 1178.2,-8.0838"/>
</g>
<!-- Node21&#45;&gt;Node13 -->
<g id="edge39" class="edge"><title>Node21&#45;&gt;Node13</title>
<path fill="none" stroke="midnightblue" d="M1581.72,-119.495C1692.49,-115.762 1942.99,-104.257 1968.5,-76 1995.83,-45.7228 1938.16,-28.0041 1890.37,-18.9094"/>
<polygon fill="midnightblue" stroke="midnightblue" points="1890.82,-15.4342 1880.36,-17.0982 1889.57,-22.3224 1890.82,-15.4342"/>
</g>
<!-- Node21&#45;&gt;Node15 -->
<g id="edge44" class="edge"><title>Node21&#45;&gt;Node15</title>
<path fill="none" stroke="midnightblue" d="M1504.78,-112.444C1478.65,-103.399 1437.24,-89.064 1407.92,-78.9158"/>
<polygon fill="midnightblue" stroke="midnightblue" points="1408.7,-75.4801 1398.1,-75.5164 1406.41,-82.0951 1408.7,-75.4801"/>
</g>
<!-- Node21&#45;&gt;Node16 -->
<g id="edge40" class="edge"><title>Node21&#45;&gt;Node16</title>
<path fill="none" stroke="midnightblue" d="M1547.16,-112.489C1569.07,-100.727 1601.87,-78.4077 1587.5,-56 1577.23,-39.9762 1559.65,-29.5824 1542.2,-22.874"/>
<polygon fill="midnightblue" stroke="midnightblue" points="1543.16,-19.5018 1532.57,-19.5139 1540.86,-26.1114 1543.16,-19.5018"/>
</g>
<!-- Node22 -->
<g id="node22" class="node"><title>Node22</title>
<polygon fill="white" stroke="#bfbfbf" points="1480.5,-56.5 1480.5,-75.5 1578.5,-75.5 1578.5,-56.5 1480.5,-56.5"/>
<text text-anchor="middle" x="1529.5" y="-63.5" font-family="Helvetica,sans-Serif" font-size="10.00">stm32f4xx_usart.h</text>
</g>
<!-- Node21&#45;&gt;Node22 -->
<g id="edge41" class="edge"><title>Node21&#45;&gt;Node22</title>
<path fill="none" stroke="midnightblue" d="M1529.5,-112.083C1529.5,-105.006 1529.5,-94.8611 1529.5,-85.9865"/>
<polygon fill="midnightblue" stroke="midnightblue" points="1533,-85.751 1529.5,-75.7511 1526,-85.7511 1533,-85.751"/>
</g>
<!-- Node25&#45;&gt;Node2 -->
<g id="edge49" class="edge"><title>Node25&#45;&gt;Node2</title>
<path fill="none" stroke="midnightblue" d="M260.17,-131.55C292.57,-145.592 353.203,-173.431 407.5,-188 495.753,-211.68 601.329,-223.483 663.523,-228.911"/>
<polygon fill="midnightblue" stroke="midnightblue" points="663.235,-232.4 673.496,-229.76 663.829,-225.425 663.235,-232.4"/>
</g>
<!-- Node25&#45;&gt;Node3 -->
<g id="edge50" class="edge"><title>Node25&#45;&gt;Node3</title>
<path fill="none" stroke="midnightblue" d="M252.774,-112.475C277.753,-98.8411 329.206,-72.0379 375.5,-56 428.54,-37.6249 492.3,-24.5199 532.123,-17.3516"/>
<polygon fill="midnightblue" stroke="midnightblue" points="532.961,-20.7578 542.201,-15.5726 531.745,-13.8644 532.961,-20.7578"/>
</g>
<!-- Node25&#45;&gt;Node7 -->
<g id="edge48" class="edge"><title>Node25&#45;&gt;Node7</title>
<path fill="none" stroke="midnightblue" d="M218.264,-112.468C201.311,-104.435 176.433,-91.3616 157.5,-76 140.099,-61.8815 123.608,-42.1233 112.884,-28.1053"/>
<polygon fill="midnightblue" stroke="midnightblue" points="115.502,-25.7621 106.717,-19.8394 109.891,-29.9476 115.502,-25.7621"/>
</g>
<!-- Node25&#45;&gt;Node26 -->
<g id="edge51" class="edge"><title>Node25&#45;&gt;Node26</title>
<path fill="none" stroke="midnightblue" d="M267.289,-112.444C299.329,-103.241 350.433,-88.5617 385.853,-78.3879"/>
<polygon fill="midnightblue" stroke="midnightblue" points="387.205,-81.6412 395.85,-75.5164 385.273,-74.9132 387.205,-81.6412"/>
</g>
<!-- Node25&#45;&gt;Node27 -->
<g id="edge55" class="edge"><title>Node25&#45;&gt;Node27</title>
<path fill="none" stroke="midnightblue" d="M270.118,-119.435C418.642,-112.293 1027.4,-82.8523 1112.5,-76 1124.88,-75.0032 1138.28,-73.6489 1150.59,-72.2938"/>
<polygon fill="midnightblue" stroke="midnightblue" points="1151.09,-75.7605 1160.63,-71.1632 1150.3,-68.8045 1151.09,-75.7605"/>
</g>
<!-- Node25&#45;&gt;Node28 -->
<g id="edge59" class="edge"><title>Node25&#45;&gt;Node28</title>
<path fill="none" stroke="midnightblue" d="M243.114,-112.083C247.867,-104.534 254.818,-93.4948 260.652,-84.2298"/>
<polygon fill="midnightblue" stroke="midnightblue" points="263.624,-86.0783 265.99,-75.7511 257.7,-82.3486 263.624,-86.0783"/>
</g>
<!-- Node25&#45;&gt;Node30 -->
<g id="edge66" class="edge"><title>Node25&#45;&gt;Node30</title>
<path fill="none" stroke="midnightblue" d="M207.711,-112.444C173.598,-102.645 117.873,-86.6391 82.4778,-76.4723"/>
<polygon fill="midnightblue" stroke="midnightblue" points="83.2081,-73.0407 72.6305,-73.6439 81.2756,-79.7686 83.2081,-73.0407"/>
</g>
<!-- Node26&#45;&gt;Node2 -->
<g id="edge54" class="edge"><title>Node26&#45;&gt;Node2</title>
<path fill="none" stroke="midnightblue" d="M423.619,-75.627C421.198,-89.163 418.697,-115.541 431.5,-132 487.107,-203.481 597.199,-224.488 663.087,-230.588"/>
<polygon fill="midnightblue" stroke="midnightblue" points="663.008,-234.093 673.267,-231.444 663.595,-227.118 663.008,-234.093"/>
</g>
<!-- Node26&#45;&gt;Node3 -->
<g id="edge53" class="edge"><title>Node26&#45;&gt;Node3</title>
<path fill="none" stroke="midnightblue" d="M448.476,-56.4435C472.657,-47.4381 510.918,-33.1891 538.146,-23.049"/>
<polygon fill="midnightblue" stroke="midnightblue" points="539.482,-26.2864 547.632,-19.5164 537.039,-19.7265 539.482,-26.2864"/>
</g>
<!-- Node26&#45;&gt;Node6 -->
<g id="edge52" class="edge"><title>Node26&#45;&gt;Node6</title>
<path fill="none" stroke="midnightblue" d="M466.667,-74.168C518.481,-84.3307 601.614,-102.721 612.5,-112 626.225,-123.698 633.415,-143.347 635.357,-157.985"/>
<polygon fill="midnightblue" stroke="midnightblue" points="631.879,-158.566 635.814,-168.403 638.873,-158.26 631.879,-158.566"/>
</g>
<!-- Node27&#45;&gt;Node12 -->
<g id="edge56" class="edge"><title>Node27&#45;&gt;Node12</title>
<path fill="none" stroke="midnightblue" d="M1184.54,-56.324C1175.37,-48.3414 1161.56,-36.3128 1150.47,-26.6529"/>
<polygon fill="midnightblue" stroke="midnightblue" points="1152.48,-23.7624 1142.64,-19.8339 1147.88,-29.041 1152.48,-23.7624"/>
</g>
<!-- Node27&#45;&gt;Node13 -->
<g id="edge58" class="edge"><title>Node27&#45;&gt;Node13</title>
<path fill="none" stroke="midnightblue" d="M1228.06,-62.1728C1332.4,-53.3832 1651.79,-26.476 1780.7,-15.6166"/>
<polygon fill="midnightblue" stroke="midnightblue" points="1781.07,-19.0976 1790.74,-14.7704 1780.49,-12.1223 1781.07,-19.0976"/>
</g>
<!-- Node27&#45;&gt;Node16 -->
<g id="edge57" class="edge"><title>Node27&#45;&gt;Node16</title>
<path fill="none" stroke="midnightblue" d="M1228.07,-58.6838C1232.91,-57.7791 1237.83,-56.863 1242.5,-56 1307.46,-43.9926 1382.08,-30.4303 1432.15,-21.3627"/>
<polygon fill="midnightblue" stroke="midnightblue" points="1432.92,-24.7801 1442.14,-19.5546 1431.67,-17.892 1432.92,-24.7801"/>
</g>
<!-- Node28&#45;&gt;Node3 -->
<g id="edge65" class="edge"><title>Node28&#45;&gt;Node3</title>
<path fill="none" stroke="midnightblue" d="M290.616,-59.4433C295.146,-58.2218 299.977,-56.9969 304.5,-56 384.947,-38.2705 480.412,-23.6616 532.286,-16.2542"/>
<polygon fill="midnightblue" stroke="midnightblue" points="532.957,-19.6942 542.368,-14.8271 531.976,-12.7633 532.957,-19.6942"/>
</g>
<!-- Node28&#45;&gt;Node7 -->
<g id="edge61" class="edge"><title>Node28&#45;&gt;Node7</title>
<path fill="none" stroke="midnightblue" d="M252.225,-58.7875C249.303,-57.8505 246.322,-56.8976 243.5,-56 205.783,-44.004 162.416,-30.3809 133.42,-21.2967"/>
<polygon fill="midnightblue" stroke="midnightblue" points="134.385,-17.9314 123.796,-18.283 132.293,-24.6115 134.385,-17.9314"/>
</g>
<!-- Node28&#45;&gt;Node8 -->
<g id="edge60" class="edge"><title>Node28&#45;&gt;Node8</title>
<path fill="none" stroke="midnightblue" d="M254.469,-56.324C237.47,-47.6641 211.124,-34.2424 191.507,-24.249"/>
<polygon fill="midnightblue" stroke="midnightblue" points="192.988,-21.0752 182.488,-19.6545 189.81,-27.3125 192.988,-21.0752"/>
</g>
<!-- Node28&#45;&gt;Node9 -->
<g id="edge62" class="edge"><title>Node28&#45;&gt;Node9</title>
<path fill="none" stroke="midnightblue" d="M265.06,-56.083C259.551,-48.4554 251.469,-37.2645 244.735,-27.9408"/>
<polygon fill="midnightblue" stroke="midnightblue" points="247.513,-25.8087 238.82,-19.7511 241.838,-29.9071 247.513,-25.8087"/>
</g>
<!-- Node28&#45;&gt;Node12 -->
<g id="edge64" class="edge"><title>Node28&#45;&gt;Node12</title>
<path fill="none" stroke="midnightblue" d="M290.656,-63.1866C311.512,-61.2485 345.857,-58.1633 375.5,-56 644.758,-36.3499 968.37,-19.3066 1086.49,-13.302"/>
<polygon fill="midnightblue" stroke="midnightblue" points="1086.81,-16.7905 1096.62,-12.7887 1086.46,-9.79952 1086.81,-16.7905"/>
</g>
<!-- Node29 -->
<g id="node29" class="node"><title>Node29</title>
<polygon fill="white" stroke="#bfbfbf" points="275,-0.5 275,-19.5 324,-19.5 324,-0.5 275,-0.5"/>
<text text-anchor="middle" x="299.5" y="-7.5" font-family="Helvetica,sans-Serif" font-size="10.00">stdint.h</text>
</g>
<!-- Node28&#45;&gt;Node29 -->
<g id="edge63" class="edge"><title>Node28&#45;&gt;Node29</title>
<path fill="none" stroke="midnightblue" d="M276.124,-56.083C279.956,-48.6913 285.524,-37.9533 290.265,-28.8111"/>
<polygon fill="midnightblue" stroke="midnightblue" points="293.466,-30.2398 294.962,-19.7511 287.252,-27.0175 293.466,-30.2398"/>
</g>
<!-- Node30&#45;&gt;Node7 -->
<g id="edge67" class="edge"><title>Node30&#45;&gt;Node7</title>
<path fill="none" stroke="midnightblue" d="M57.9216,-56.083C65.3482,-48.2195 76.3517,-36.5688 85.3122,-27.0813"/>
<polygon fill="midnightblue" stroke="midnightblue" points="87.9134,-29.4244 92.2351,-19.7511 82.8243,-24.618 87.9134,-29.4244"/>
</g>
<!-- Node30&#45;&gt;Node8 -->
<g id="edge69" class="edge"><title>Node30&#45;&gt;Node8</title>
<path fill="none" stroke="midnightblue" d="M67.8805,-56.4435C86.7165,-47.6751 116.231,-33.9355 137.879,-23.8579"/>
<polygon fill="midnightblue" stroke="midnightblue" points="139.617,-26.9098 147.205,-19.5164 136.662,-20.5637 139.617,-26.9098"/>
</g>
<!-- Node30&#45;&gt;Node9 -->
<g id="edge68" class="edge"><title>Node30&#45;&gt;Node9</title>
<path fill="none" stroke="midnightblue" d="M72.6771,-58.1609C104.325,-48.822 161.31,-32.0069 197.991,-21.183"/>
<polygon fill="midnightblue" stroke="midnightblue" points="199.16,-24.4874 207.76,-18.3002 197.179,-17.7736 199.16,-24.4874"/>
</g>
<!-- Node31 -->
<g id="node31" class="node"><title>Node31</title>
<polygon fill="white" stroke="#bfbfbf" points="0,-0.5 0,-19.5 59,-19.5 59,-0.5 0,-0.5"/>
<text text-anchor="middle" x="29.5" y="-7.5" font-family="Helvetica,sans-Serif" font-size="10.00">inttypes.h</text>
</g>
<!-- Node30&#45;&gt;Node31 -->
<g id="edge70" class="edge"><title>Node30&#45;&gt;Node31</title>
<path fill="none" stroke="midnightblue" d="M46.1974,-56.083C43.518,-48.8486 39.6514,-38.4087 36.3136,-29.3968"/>
<polygon fill="midnightblue" stroke="midnightblue" points="39.4965,-27.9129 32.7411,-19.7511 32.9322,-30.3442 39.4965,-27.9129"/>
</g>
<!-- Node32&#45;&gt;Node7 -->
<g id="edge78" class="edge"><title>Node32&#45;&gt;Node7</title>
<path fill="none" stroke="midnightblue" d="M184.433,-56.324C168.542,-47.7428 143.993,-34.486 125.542,-24.5224"/>
<polygon fill="midnightblue" stroke="midnightblue" points="126.989,-21.3264 116.527,-19.6545 123.663,-27.4857 126.989,-21.3264"/>
</g>
<!-- Node32&#45;&gt;Node8 -->
<g id="edge77" class="edge"><title>Node32&#45;&gt;Node8</title>
<path fill="none" stroke="midnightblue" d="M194.72,-56.083C189.828,-48.5341 182.673,-37.4948 176.667,-28.2298"/>
<polygon fill="midnightblue" stroke="midnightblue" points="179.548,-26.239 171.172,-19.7511 173.674,-30.0463 179.548,-26.239"/>
</g>
<!-- Node32&#45;&gt;Node9 -->
<g id="edge76" class="edge"><title>Node32&#45;&gt;Node9</title>
<path fill="none" stroke="midnightblue" d="M205.784,-56.083C210.211,-48.6127 216.663,-37.7244 222.118,-28.5199"/>
<polygon fill="midnightblue" stroke="midnightblue" points="225.227,-30.1383 227.314,-19.7511 219.205,-26.5697 225.227,-30.1383"/>
</g>
<!-- Node33&#45;&gt;Node3 -->
<g id="edge82" class="edge"><title>Node33&#45;&gt;Node3</title>
<path fill="none" stroke="midnightblue" d="M1043.3,-116.17C946.287,-106.682 739.797,-85.6956 708.5,-76 690.27,-70.3523 687.655,-64.3644 670.5,-56 646.971,-44.5275 619.868,-32.3971 599.819,-23.6252"/>
<polygon fill="midnightblue" stroke="midnightblue" points="601.156,-20.3898 590.59,-19.6063 598.361,-26.8077 601.156,-20.3898"/>
</g>
<!-- Node33&#45;&gt;Node12 -->
<g id="edge81" class="edge"><title>Node33&#45;&gt;Node12</title>
<path fill="none" stroke="midnightblue" d="M1097.4,-112.476C1101.44,-103.501 1107.8,-88.9099 1112.5,-76 1118.18,-60.3976 1123.65,-42.3229 1127.43,-29.2"/>
<polygon fill="midnightblue" stroke="midnightblue" points="1130.82,-30.0797 1130.18,-19.5044 1124.09,-28.1724 1130.82,-30.0797"/>
</g>
<!-- Node33&#45;&gt;Node15 -->
<g id="edge83" class="edge"><title>Node33&#45;&gt;Node15</title>
<path fill="none" stroke="midnightblue" d="M1137.87,-112.444C1187.12,-102.944 1266.63,-87.611 1319.47,-77.4198"/>
<polygon fill="midnightblue" stroke="midnightblue" points="1320.18,-80.8469 1329.34,-75.5164 1318.86,-73.9735 1320.18,-80.8469"/>
</g>
</g>
</svg>
