<?xml version="1.0" encoding="UTF-8" standalone="no"?>
<!DOCTYPE svg PUBLIC "-//W3C//DTD SVG 1.1//EN"
 "http://www.w3.org/Graphics/SVG/1.1/DTD/svg11.dtd">
<!-- Generated by graphviz version 2.38.0 (20140413.2041)
 -->
<!-- Title: signalGen.h Pages: 1 -->
<svg width="442pt" height="308pt"
 viewBox="0.00 0.00 441.96 308.00" xmlns="http://www.w3.org/2000/svg" xmlns:xlink="http://www.w3.org/1999/xlink">
<g id="graph0" class="graph" transform="scale(1 1) rotate(0) translate(4 304)">
<title>signalGen.h</title>
<polygon fill="white" stroke="none" points="-4,4 -4,-304 437.955,-304 437.955,4 -4,4"/>
<!-- Node1 -->
<g id="node1" class="node"><title>Node1</title>
<polygon fill="#bfbfbf" stroke="black" points="303.955,-280.5 303.955,-299.5 371.955,-299.5 371.955,-280.5 303.955,-280.5"/>
<text text-anchor="middle" x="337.955" y="-287.5" font-family="Helvetica,sans-Serif" font-size="10.00">signalGen.h</text>
</g>
<!-- Node2 -->
<g id="node2" class="node"><title>Node2</title>
<g id="a_node2"><a xlink:href="a00024.html" target="_top" xlink:title="Main header definition. ">
<polygon fill="white" stroke="black" points="103.955,-224.5 103.955,-243.5 149.955,-243.5 149.955,-224.5 103.955,-224.5"/>
<text text-anchor="middle" x="126.955" y="-231.5" font-family="Helvetica,sans-Serif" font-size="10.00">main.h</text>
</a>
</g>
</g>
<!-- Node1&#45;&gt;Node2 -->
<g id="edge1" class="edge"><title>Node1&#45;&gt;Node2</title>
<path fill="none" stroke="midnightblue" d="M294.719,-277.935C250.924,-266.727 184.84,-249.814 150.129,-240.931"/>
<polygon fill="midnightblue" stroke="midnightblue" points="293.966,-281.355 304.522,-280.444 295.702,-274.573 293.966,-281.355"/>
</g>
<!-- Node6 -->
<g id="node6" class="node"><title>Node6</title>
<g id="a_node6"><a xlink:href="a00021.html" target="_top" xlink:title="Callback handler implementations. ">
<polygon fill="white" stroke="black" points="217.955,-0.5 217.955,-19.5 299.955,-19.5 299.955,-0.5 217.955,-0.5"/>
<text text-anchor="middle" x="258.955" y="-7.5" font-family="Helvetica,sans-Serif" font-size="10.00">irq_callbacks.c</text>
</a>
</g>
</g>
<!-- Node1&#45;&gt;Node6 -->
<g id="edge18" class="edge"><title>Node1&#45;&gt;Node6</title>
<path fill="none" stroke="midnightblue" d="M337.955,-270.251C337.955,-248.357 337.955,-211.052 337.955,-179 337.955,-179 337.955,-179 337.955,-121 337.955,-75.857 293.518,-36.5535 271.299,-19.7232"/>
<polygon fill="midnightblue" stroke="midnightblue" points="334.455,-270.442 337.955,-280.442 341.455,-270.442 334.455,-270.442"/>
</g>
<!-- Node11 -->
<g id="node11" class="node"><title>Node11</title>
<g id="a_node11"><a xlink:href="a00047.html" target="_top" xlink:title="signalGen.c">
<polygon fill="white" stroke="black" points="365.955,-224.5 365.955,-243.5 433.955,-243.5 433.955,-224.5 365.955,-224.5"/>
<text text-anchor="middle" x="399.955" y="-231.5" font-family="Helvetica,sans-Serif" font-size="10.00">signalGen.c</text>
</a>
</g>
</g>
<!-- Node1&#45;&gt;Node11 -->
<g id="edge19" class="edge"><title>Node1&#45;&gt;Node11</title>
<path fill="none" stroke="midnightblue" d="M355.709,-273.537C366.764,-263.909 380.587,-251.869 389.813,-243.834"/>
<polygon fill="midnightblue" stroke="midnightblue" points="353.159,-271.117 347.917,-280.324 357.756,-276.395 353.159,-271.117"/>
</g>
<!-- Node3 -->
<g id="node3" class="node"><title>Node3</title>
<g id="a_node3"><a xlink:href="a00013.html" target="_top" xlink:title="Provides DMA related configuration and access functions for ADC and DAC. ">
<polygon fill="white" stroke="black" points="185.955,-168.5 185.955,-187.5 271.955,-187.5 271.955,-168.5 185.955,-168.5"/>
<text text-anchor="middle" x="228.955" y="-175.5" font-family="Helvetica,sans-Serif" font-size="10.00">adc_dac_dma.h</text>
</a>
</g>
</g>
<!-- Node2&#45;&gt;Node3 -->
<g id="edge2" class="edge"><title>Node2&#45;&gt;Node3</title>
<path fill="none" stroke="midnightblue" d="M147.087,-219.177C164.591,-209.241 189.609,-196.149 207.498,-187.655"/>
<polygon fill="midnightblue" stroke="midnightblue" points="145.117,-216.274 138.228,-224.324 148.633,-222.327 145.117,-216.274"/>
</g>
<!-- Node2&#45;&gt;Node6 -->
<g id="edge15" class="edge"><title>Node2&#45;&gt;Node6</title>
<path fill="none" stroke="midnightblue" d="M160.179,-228.004C200.95,-221.116 266.47,-207.324 280.955,-188 320.516,-135.225 279.015,-47.7379 263.957,-19.8368"/>
<polygon fill="midnightblue" stroke="midnightblue" points="159.449,-224.577 150.145,-229.645 160.578,-231.486 159.449,-224.577"/>
</g>
<!-- Node7 -->
<g id="node7" class="node"><title>Node7</title>
<g id="a_node7"><a xlink:href="a00022.html" target="_top" xlink:title="Analog processing related callback handler definition. ">
<polygon fill="white" stroke="black" points="29.9551,-112.5 29.9551,-131.5 111.955,-131.5 111.955,-112.5 29.9551,-112.5"/>
<text text-anchor="middle" x="70.9551" y="-119.5" font-family="Helvetica,sans-Serif" font-size="10.00">irq_callbacks.h</text>
</a>
</g>
</g>
<!-- Node2&#45;&gt;Node7 -->
<g id="edge14" class="edge"><title>Node2&#45;&gt;Node7</title>
<path fill="none" stroke="midnightblue" d="M93.3065,-230.788C63.8929,-226.962 23.3561,-216.516 3.95515,-188 -11.018,-165.992 22.011,-143.522 47.0409,-131.628"/>
<polygon fill="midnightblue" stroke="midnightblue" points="93.257,-234.304 103.58,-231.92 94.0233,-227.346 93.257,-234.304"/>
</g>
<!-- Node9 -->
<g id="node9" class="node"><title>Node9</title>
<g id="a_node9"><a xlink:href="a00023.html" target="_top" xlink:title="Main source implementation (29&#45;04&#45;2015) ">
<polygon fill="white" stroke="black" points="21.9551,-168.5 21.9551,-187.5 67.9551,-187.5 67.9551,-168.5 21.9551,-168.5"/>
<text text-anchor="middle" x="44.9551" y="-175.5" font-family="Helvetica,sans-Serif" font-size="10.00">main.c</text>
</a>
</g>
</g>
<!-- Node2&#45;&gt;Node9 -->
<g id="edge16" class="edge"><title>Node2&#45;&gt;Node9</title>
<path fill="none" stroke="midnightblue" d="M105.122,-218.622C90.1423,-208.757 70.7577,-195.992 58.0972,-187.655"/>
<polygon fill="midnightblue" stroke="midnightblue" points="103.504,-221.747 113.78,-224.324 107.354,-215.901 103.504,-221.747"/>
</g>
<!-- Node10 -->
<g id="node10" class="node"><title>Node10</title>
<g id="a_node10"><a xlink:href="a00050.html" target="_top" xlink:title="stm32f4xx_it.c">
<polygon fill="white" stroke="black" points="86.4551,-168.5 86.4551,-187.5 167.455,-187.5 167.455,-168.5 86.4551,-168.5"/>
<text text-anchor="middle" x="126.955" y="-175.5" font-family="Helvetica,sans-Serif" font-size="10.00">stm32f4xx_it.c</text>
</a>
</g>
</g>
<!-- Node2&#45;&gt;Node10 -->
<g id="edge17" class="edge"><title>Node2&#45;&gt;Node10</title>
<path fill="none" stroke="midnightblue" d="M126.955,-213.805C126.955,-204.91 126.955,-194.78 126.955,-187.751"/>
<polygon fill="midnightblue" stroke="midnightblue" points="123.455,-214.083 126.955,-224.083 130.455,-214.083 123.455,-214.083"/>
</g>
<!-- Node3&#45;&gt;Node2 -->
<g id="edge8" class="edge"><title>Node3&#45;&gt;Node2</title>
<path fill="none" stroke="midnightblue" d="M209.069,-192.683C191.487,-202.675 166.192,-215.912 148.206,-224.444"/>
<polygon fill="midnightblue" stroke="midnightblue" points="211.065,-195.571 217.949,-187.516 207.545,-189.521 211.065,-195.571"/>
</g>
<!-- Node4 -->
<g id="node4" class="node"><title>Node4</title>
<g id="a_node4"><a xlink:href="a00011.html" target="_top" xlink:title="Controlling beam and primary actuators. ">
<polygon fill="white" stroke="black" points="116.455,-56.5 116.455,-75.5 181.455,-75.5 181.455,-56.5 116.455,-56.5"/>
<text text-anchor="middle" x="148.955" y="-63.5" font-family="Helvetica,sans-Serif" font-size="10.00">actuators.h</text>
</a>
</g>
</g>
<!-- Node3&#45;&gt;Node4 -->
<g id="edge3" class="edge"><title>Node3&#45;&gt;Node4</title>
<path fill="none" stroke="midnightblue" d="M200.601,-162.877C189.078,-154.79 176.668,-143.897 167.955,-132 154.742,-113.958 146.164,-88.7163 145.543,-75.6311"/>
<polygon fill="midnightblue" stroke="midnightblue" points="198.88,-165.934 209.163,-168.485 202.715,-160.078 198.88,-165.934"/>
</g>
<!-- Node3&#45;&gt;Node7 -->
<g id="edge9" class="edge"><title>Node3&#45;&gt;Node7</title>
<path fill="none" stroke="midnightblue" d="M194.347,-165.172C164.596,-155.004 122.408,-140.585 95.8736,-131.516"/>
<polygon fill="midnightblue" stroke="midnightblue" points="193.325,-168.521 203.92,-168.444 195.589,-161.898 193.325,-168.521"/>
</g>
<!-- Node8 -->
<g id="node8" class="node"><title>Node8</title>
<g id="a_node8"><a xlink:href="a00012.html" target="_top" xlink:title="adc_dac_dma.c">
<polygon fill="white" stroke="black" points="185.955,-112.5 185.955,-131.5 271.955,-131.5 271.955,-112.5 185.955,-112.5"/>
<text text-anchor="middle" x="228.955" y="-119.5" font-family="Helvetica,sans-Serif" font-size="10.00">adc_dac_dma.c</text>
</a>
</g>
</g>
<!-- Node3&#45;&gt;Node8 -->
<g id="edge13" class="edge"><title>Node3&#45;&gt;Node8</title>
<path fill="none" stroke="midnightblue" d="M228.955,-157.805C228.955,-148.91 228.955,-138.78 228.955,-131.751"/>
<polygon fill="midnightblue" stroke="midnightblue" points="225.455,-158.083 228.955,-168.083 232.455,-158.083 225.455,-158.083"/>
</g>
<!-- Node4&#45;&gt;Node2 -->
<g id="edge4" class="edge"><title>Node4&#45;&gt;Node2</title>
<path fill="none" stroke="midnightblue" d="M106.278,-71.7151C78.3115,-77.0052 42.983,-88.2227 20.9551,-112 3.4443,-130.902 9.31723,-142.454 5.95515,-168 4.79529,-176.813 0.882153,-180.701 5.95515,-188 27.956,-219.655 75.0145,-229.087 103.528,-231.869"/>
<polygon fill="midnightblue" stroke="midnightblue" points="106.941,-75.1528 116.21,-70.0221 105.764,-68.2523 106.941,-75.1528"/>
</g>
<!-- Node4&#45;&gt;Node3 -->
<g id="edge5" class="edge"><title>Node4&#45;&gt;Node3</title>
<path fill="none" stroke="midnightblue" d="M161.606,-84.9474C167.841,-98.6737 175.426,-117.623 185.955,-132 196.818,-146.834 213.429,-160.105 222.982,-168.326"/>
<polygon fill="midnightblue" stroke="midnightblue" points="164.596,-83.0934 157.075,-75.6311 158.301,-86.1548 164.596,-83.0934"/>
</g>
<!-- Node5 -->
<g id="node5" class="node"><title>Node5</title>
<g id="a_node5"><a xlink:href="a00010.html" target="_top" xlink:title="Controlling beam and primary actuators. ">
<polygon fill="white" stroke="black" points="116.455,-0.5 116.455,-19.5 181.455,-19.5 181.455,-0.5 116.455,-0.5"/>
<text text-anchor="middle" x="148.955" y="-7.5" font-family="Helvetica,sans-Serif" font-size="10.00">actuators.c</text>
</a>
</g>
</g>
<!-- Node4&#45;&gt;Node5 -->
<g id="edge6" class="edge"><title>Node4&#45;&gt;Node5</title>
<path fill="none" stroke="midnightblue" d="M148.955,-45.8045C148.955,-36.9102 148.955,-26.7798 148.955,-19.7511"/>
<polygon fill="midnightblue" stroke="midnightblue" points="145.455,-46.083 148.955,-56.083 152.455,-46.083 145.455,-46.083"/>
</g>
<!-- Node4&#45;&gt;Node6 -->
<g id="edge7" class="edge"><title>Node4&#45;&gt;Node6</title>
<path fill="none" stroke="midnightblue" d="M175.717,-51.8622C196.114,-41.8492 223.621,-28.3458 241.326,-19.6545"/>
<polygon fill="midnightblue" stroke="midnightblue" points="174.063,-48.7753 166.629,-56.324 177.148,-55.059 174.063,-48.7753"/>
</g>
<!-- Node7&#45;&gt;Node2 -->
<g id="edge10" class="edge"><title>Node7&#45;&gt;Node2</title>
<path fill="none" stroke="midnightblue" d="M50.7062,-137.071C31.8769,-149.658 9.02914,-169.001 21.9551,-188 40.6267,-215.444 78.8748,-226.151 103.871,-230.328"/>
<polygon fill="midnightblue" stroke="midnightblue" points="52.6645,-139.973 59.1918,-131.628 48.8849,-134.082 52.6645,-139.973"/>
</g>
<!-- Node7&#45;&gt;Node4 -->
<g id="edge11" class="edge"><title>Node7&#45;&gt;Node4</title>
<path fill="none" stroke="midnightblue" d="M91.7232,-106.622C105.972,-96.7574 124.411,-83.9919 136.454,-75.6545"/>
<polygon fill="midnightblue" stroke="midnightblue" points="89.7169,-103.754 83.4872,-112.324 93.7014,-109.51 89.7169,-103.754"/>
</g>
<!-- Node7&#45;&gt;Node6 -->
<g id="edge12" class="edge"><title>Node7&#45;&gt;Node6</title>
<path fill="none" stroke="midnightblue" d="M113.346,-109.461C136.955,-101.958 166.272,-90.7999 189.955,-76 215.635,-59.9522 240.045,-33.394 251.745,-19.7244"/>
<polygon fill="midnightblue" stroke="midnightblue" points="112.141,-106.169 103.611,-112.452 114.198,-112.86 112.141,-106.169"/>
</g>
</g>
</svg>
