<?xml version="1.0" encoding="UTF-8" standalone="no"?>
<!DOCTYPE svg PUBLIC "-//W3C//DTD SVG 1.1//EN"
 "http://www.w3.org/Graphics/SVG/1.1/DTD/svg11.dtd">
<!-- Generated by graphviz version 2.38.0 (20140413.2041)
 -->
<!-- Title: DMA2D_Exported_Constants Pages: 1 -->
<svg width="427pt" height="446pt"
 viewBox="0.00 0.00 427.00 446.00" xmlns="http://www.w3.org/2000/svg" xmlns:xlink="http://www.w3.org/1999/xlink">
<g id="graph0" class="graph" transform="scale(1 1) rotate(0) translate(4 442)">
<title>DMA2D_Exported_Constants</title>
<polygon fill="white" stroke="none" points="-4,4 -4,-442 423,-442 423,4 -4,4"/>
<!-- Node8 -->
<g id="node1" class="node"><title>Node8</title>
<g id="a_node1"><a xlink:href="a00288.html" target="_top" xlink:title="DMA2D_FGCM">
<polygon fill="white" stroke="black" points="301.5,-418.5 301.5,-437.5 387.5,-437.5 387.5,-418.5 301.5,-418.5"/>
<text text-anchor="middle" x="344.5" y="-425.5" font-family="Helvetica,sans-Serif" font-size="10.00">DMA2D_FGCM</text>
</a>
</g>
</g>
<!-- Node11 -->
<g id="node2" class="node"><title>Node11</title>
<g id="a_node2"><a xlink:href="a00291.html" target="_top" xlink:title="DMA2D_Interrupts">
<polygon fill="white" stroke="black" points="295.5,-380.5 295.5,-399.5 393.5,-399.5 393.5,-380.5 295.5,-380.5"/>
<text text-anchor="middle" x="344.5" y="-387.5" font-family="Helvetica,sans-Serif" font-size="10.00">DMA2D_Interrupts</text>
</a>
</g>
</g>
<!-- Node5 -->
<g id="node3" class="node"><title>Node5</title>
<g id="a_node3"><a xlink:href="a00285.html" target="_top" xlink:title="DMA2D_OUTPUT_OFFSET">
<polygon fill="white" stroke="black" points="273,-342.5 273,-361.5 416,-361.5 416,-342.5 273,-342.5"/>
<text text-anchor="middle" x="344.5" y="-349.5" font-family="Helvetica,sans-Serif" font-size="10.00">DMA2D_OUTPUT_OFFSET</text>
</a>
</g>
</g>
<!-- Node7 -->
<g id="node4" class="node"><title>Node7</title>
<g id="a_node4"><a xlink:href="a00287.html" target="_top" xlink:title="DMA2D_OFFSET">
<polygon fill="white" stroke="black" points="296.5,-304.5 296.5,-323.5 392.5,-323.5 392.5,-304.5 296.5,-304.5"/>
<text text-anchor="middle" x="344.5" y="-311.5" font-family="Helvetica,sans-Serif" font-size="10.00">DMA2D_OFFSET</text>
</a>
</g>
</g>
<!-- Node10 -->
<g id="node5" class="node"><title>Node10</title>
<g id="a_node5"><a xlink:href="a00290.html" target="_top" xlink:title="DMA2D_FG_COLOR_VALUE">
<polygon fill="white" stroke="black" points="270,-266.5 270,-285.5 419,-285.5 419,-266.5 270,-266.5"/>
<text text-anchor="middle" x="344.5" y="-273.5" font-family="Helvetica,sans-Serif" font-size="10.00">DMA2D_FG_COLOR_VALUE</text>
</a>
</g>
</g>
<!-- Node6 -->
<g id="node6" class="node"><title>Node6</title>
<g id="a_node6"><a xlink:href="a00286.html" target="_top" xlink:title="DMA2D_SIZE">
<polygon fill="white" stroke="black" points="304.5,-228.5 304.5,-247.5 384.5,-247.5 384.5,-228.5 304.5,-228.5"/>
<text text-anchor="middle" x="344.5" y="-235.5" font-family="Helvetica,sans-Serif" font-size="10.00">DMA2D_SIZE</text>
</a>
</g>
</g>
<!-- Node12 -->
<g id="node7" class="node"><title>Node12</title>
<g id="a_node7"><a xlink:href="a00292.html" target="_top" xlink:title="DMA2D_Flag">
<polygon fill="white" stroke="black" points="306.5,-190.5 306.5,-209.5 382.5,-209.5 382.5,-190.5 306.5,-190.5"/>
<text text-anchor="middle" x="344.5" y="-197.5" font-family="Helvetica,sans-Serif" font-size="10.00">DMA2D_Flag</text>
</a>
</g>
</g>
<!-- Node2 -->
<g id="node8" class="node"><title>Node2</title>
<g id="a_node8"><a xlink:href="a00282.html" target="_top" xlink:title="DMA2D_MODE">
<polygon fill="white" stroke="black" points="301,-152.5 301,-171.5 388,-171.5 388,-152.5 301,-152.5"/>
<text text-anchor="middle" x="344.5" y="-159.5" font-family="Helvetica,sans-Serif" font-size="10.00">DMA2D_MODE</text>
</a>
</g>
</g>
<!-- Node3 -->
<g id="node9" class="node"><title>Node3</title>
<g id="a_node9"><a xlink:href="a00283.html" target="_top" xlink:title="DMA2D_CMODE">
<polygon fill="white" stroke="black" points="297,-114.5 297,-133.5 392,-133.5 392,-114.5 297,-114.5"/>
<text text-anchor="middle" x="344.5" y="-121.5" font-family="Helvetica,sans-Serif" font-size="10.00">DMA2D_CMODE</text>
</a>
</g>
</g>
<!-- Node4 -->
<g id="node10" class="node"><title>Node4</title>
<g id="a_node10"><a xlink:href="a00284.html" target="_top" xlink:title="DMA2D_OUTPUT_COLOR">
<polygon fill="white" stroke="black" points="275,-76.5 275,-95.5 414,-95.5 414,-76.5 275,-76.5"/>
<text text-anchor="middle" x="344.5" y="-83.5" font-family="Helvetica,sans-Serif" font-size="10.00">DMA2D_OUTPUT_COLOR</text>
</a>
</g>
</g>
<!-- Node1 -->
<g id="node11" class="node"><title>Node1</title>
<g id="a_node11"><a xlink:href="a00009.html" target="_top" xlink:title="DMA2D driver modules. ">
<polygon fill="white" stroke="black" points="0,-209.5 0,-228.5 52,-228.5 52,-209.5 0,-209.5"/>
<text text-anchor="middle" x="26" y="-216.5" font-family="Helvetica,sans-Serif" font-size="10.00">DMA2D</text>
</a>
</g>
</g>
<!-- Node0 -->
<g id="node12" class="node"><title>Node0</title>
<polygon fill="#bfbfbf" stroke="black" points="88,-209.5 88,-228.5 234,-228.5 234,-209.5 88,-209.5"/>
<text text-anchor="middle" x="161" y="-216.5" font-family="Helvetica,sans-Serif" font-size="10.00">DMA2D_Exported_Constants</text>
</g>
<!-- Node1&#45;&gt;Node0 -->
<g id="edge1" class="edge"><title>Node1&#45;&gt;Node0</title>
<path fill="none" stroke="black" d="M62.0783,-219C70.1237,-219 78.9659,-219 87.9441,-219"/>
<polygon fill="black" stroke="black" points="62.0163,-215.5 52.0163,-219 62.0162,-222.5 62.0163,-215.5"/>
</g>
<!-- Node0&#45;&gt;Node8 -->
<g id="edge8" class="edge"><title>Node0&#45;&gt;Node8</title>
<path fill="none" stroke="black" d="M167.509,-238.696C179.415,-277.525 211.322,-364.073 270,-409 279,-415.891 290.247,-420.296 301.217,-423.108"/>
<polygon fill="black" stroke="black" points="170.742,-237.284 164.561,-228.678 164.026,-239.26 170.742,-237.284"/>
</g>
<!-- Node0&#45;&gt;Node11 -->
<g id="edge11" class="edge"><title>Node0&#45;&gt;Node11</title>
<path fill="none" stroke="black" d="M170.062,-237.866C184.908,-270.276 219.717,-336.377 270,-371 277.49,-376.157 286.282,-379.915 295.13,-382.653"/>
<polygon fill="black" stroke="black" points="173.208,-236.326 165.949,-228.609 166.811,-239.169 173.208,-236.326"/>
</g>
<!-- Node0&#45;&gt;Node5 -->
<g id="edge5" class="edge"><title>Node0&#45;&gt;Node5</title>
<path fill="none" stroke="black" d="M174.02,-237.003C191.903,-262.348 227.957,-308.214 270,-333 276.585,-336.882 283.959,-339.981 291.427,-342.451"/>
<polygon fill="black" stroke="black" points="176.834,-234.918 168.276,-228.671 171.07,-238.891 176.834,-234.918"/>
</g>
<!-- Node0&#45;&gt;Node7 -->
<g id="edge7" class="edge"><title>Node0&#45;&gt;Node7</title>
<path fill="none" stroke="black" d="M180.463,-235.166C200.996,-252.352 235.797,-279.186 270,-295 278.254,-298.817 287.399,-301.956 296.354,-304.506"/>
<polygon fill="black" stroke="black" points="182.71,-232.483 172.827,-228.666 178.173,-237.813 182.71,-232.483"/>
</g>
<!-- Node0&#45;&gt;Node10 -->
<g id="edge10" class="edge"><title>Node0&#45;&gt;Node10</title>
<path fill="none" stroke="black" d="M196.598,-232.02C217.667,-239.737 245.214,-249.451 270,-257 280.969,-260.341 292.971,-263.605 304.038,-266.46"/>
<polygon fill="black" stroke="black" points="197.705,-228.698 187.112,-228.521 195.282,-235.265 197.705,-228.698"/>
</g>
<!-- Node0&#45;&gt;Node6 -->
<g id="edge6" class="edge"><title>Node0&#45;&gt;Node6</title>
<path fill="none" stroke="black" d="M244.434,-227.629C265.307,-229.814 286.771,-232.061 304.36,-233.903"/>
<polygon fill="black" stroke="black" points="244.565,-224.124 234.255,-226.564 243.836,-231.086 244.565,-224.124"/>
</g>
<!-- Node0&#45;&gt;Node12 -->
<g id="edge12" class="edge"><title>Node0&#45;&gt;Node12</title>
<path fill="none" stroke="black" d="M244.479,-210.366C266.14,-208.098 288.435,-205.764 306.372,-203.887"/>
<polygon fill="black" stroke="black" points="243.836,-206.914 234.255,-211.436 244.565,-213.876 243.836,-206.914"/>
</g>
<!-- Node0&#45;&gt;Node2 -->
<g id="edge2" class="edge"><title>Node0&#45;&gt;Node2</title>
<path fill="none" stroke="black" d="M196.598,-205.98C217.667,-198.263 245.214,-188.549 270,-181 280.969,-177.659 292.971,-174.395 304.038,-171.54"/>
<polygon fill="black" stroke="black" points="195.282,-202.735 187.112,-209.479 197.705,-209.302 195.282,-202.735"/>
</g>
<!-- Node0&#45;&gt;Node3 -->
<g id="edge3" class="edge"><title>Node0&#45;&gt;Node3</title>
<path fill="none" stroke="black" d="M180.463,-202.834C200.996,-185.648 235.797,-158.814 270,-143 278.374,-139.128 287.664,-135.953 296.743,-133.383"/>
<polygon fill="black" stroke="black" points="178.173,-200.187 172.827,-209.334 182.71,-205.517 178.173,-200.187"/>
</g>
<!-- Node0&#45;&gt;Node4 -->
<g id="edge4" class="edge"><title>Node0&#45;&gt;Node4</title>
<path fill="none" stroke="black" d="M174.02,-200.997C191.903,-175.652 227.957,-129.786 270,-105 276.585,-101.118 283.959,-98.0194 291.427,-95.549"/>
<polygon fill="black" stroke="black" points="171.07,-199.109 168.276,-209.329 176.834,-203.082 171.07,-199.109"/>
</g>
<!-- Node13 -->
<g id="node13" class="node"><title>Node13</title>
<g id="a_node13"><a xlink:href="a00293.html" target="_top" xlink:title="DMA2D_DeadTime">
<polygon fill="white" stroke="black" points="293.5,-38.5 293.5,-57.5 395.5,-57.5 395.5,-38.5 293.5,-38.5"/>
<text text-anchor="middle" x="344.5" y="-45.5" font-family="Helvetica,sans-Serif" font-size="10.00">DMA2D_DeadTime</text>
</a>
</g>
</g>
<!-- Node0&#45;&gt;Node13 -->
<g id="edge13" class="edge"><title>Node0&#45;&gt;Node13</title>
<path fill="none" stroke="black" d="M170.062,-200.134C184.908,-167.724 219.717,-101.623 270,-67 276.947,-62.2163 285.015,-58.6369 293.208,-55.9587"/>
<polygon fill="black" stroke="black" points="166.811,-198.831 165.949,-209.391 173.208,-201.674 166.811,-198.831"/>
</g>
<!-- Node9 -->
<g id="node14" class="node"><title>Node9</title>
<g id="a_node14"><a xlink:href="a00289.html" target="_top" xlink:title="DMA2D_FG_CLUT_CM">
<polygon fill="white" stroke="black" points="283,-0.5 283,-19.5 406,-19.5 406,-0.5 283,-0.5"/>
<text text-anchor="middle" x="344.5" y="-7.5" font-family="Helvetica,sans-Serif" font-size="10.00">DMA2D_FG_CLUT_CM</text>
</a>
</g>
</g>
<!-- Node0&#45;&gt;Node9 -->
<g id="edge9" class="edge"><title>Node0&#45;&gt;Node9</title>
<path fill="none" stroke="black" d="M167.509,-199.304C179.415,-160.475 211.322,-73.9269 270,-29 275.023,-25.1541 280.746,-22.0824 286.731,-19.6298"/>
<polygon fill="black" stroke="black" points="164.026,-198.74 164.561,-209.322 170.742,-200.716 164.026,-198.74"/>
</g>
</g>
</svg>
