<?xml version="1.0" encoding="UTF-8" standalone="no"?>
<!DOCTYPE svg PUBLIC "-//W3C//DTD SVG 1.1//EN"
 "http://www.w3.org/Graphics/SVG/1.1/DTD/svg11.dtd">
<!-- Generated by graphviz version 2.38.0 (20140413.2041)
 -->
<!-- Title: DCMI_Exported_Constants Pages: 1 -->
<svg width="407pt" height="332pt"
 viewBox="0.00 0.00 407.00 332.00" xmlns="http://www.w3.org/2000/svg" xmlns:xlink="http://www.w3.org/1999/xlink">
<g id="graph0" class="graph" transform="scale(1 1) rotate(0) translate(4 328)">
<title>DCMI_Exported_Constants</title>
<polygon fill="white" stroke="none" points="-4,4 -4,-328 403,-328 403,4 -4,4"/>
<!-- Node9 -->
<g id="node1" class="node"><title>Node9</title>
<g id="a_node1"><a xlink:href="a00258.html" target="_top" xlink:title="DCMI_interrupt_sources">
<polygon fill="white" stroke="black" points="264,-304.5 264,-323.5 387,-323.5 387,-304.5 264,-304.5"/>
<text text-anchor="middle" x="325.5" y="-311.5" font-family="Helvetica,sans-Serif" font-size="10.00">DCMI_interrupt_sources</text>
</a>
</g>
</g>
<!-- Node6 -->
<g id="node2" class="node"><title>Node6</title>
<g id="a_node2"><a xlink:href="a00255.html" target="_top" xlink:title="DCMI_HSYNC_Polarity">
<polygon fill="white" stroke="black" points="264.5,-266.5 264.5,-285.5 386.5,-285.5 386.5,-266.5 264.5,-266.5"/>
<text text-anchor="middle" x="325.5" y="-273.5" font-family="Helvetica,sans-Serif" font-size="10.00">DCMI_HSYNC_Polarity</text>
</a>
</g>
</g>
<!-- Node0 -->
<g id="node3" class="node"><title>Node0</title>
<polygon fill="#bfbfbf" stroke="black" points="79,-152.5 79,-171.5 216,-171.5 216,-152.5 79,-152.5"/>
<text text-anchor="middle" x="147.5" y="-159.5" font-family="Helvetica,sans-Serif" font-size="10.00">DCMI_Exported_Constants</text>
</g>
<!-- Node0&#45;&gt;Node9 -->
<g id="edge9" class="edge"><title>Node0&#45;&gt;Node9</title>
<path fill="none" stroke="black" d="M157.947,-180.906C173.478,-209.999 207.207,-265.467 252,-295 257.866,-298.868 264.483,-301.949 271.274,-304.404"/>
<polygon fill="black" stroke="black" points="160.936,-179.067 153.224,-171.801 154.722,-182.29 160.936,-179.067"/>
</g>
<!-- Node0&#45;&gt;Node6 -->
<g id="edge6" class="edge"><title>Node0&#45;&gt;Node6</title>
<path fill="none" stroke="black" d="M162.675,-179.427C181.052,-200.868 215.141,-236.89 252,-257 259.082,-260.864 266.986,-263.971 274.899,-266.46"/>
<polygon fill="black" stroke="black" points="165.326,-177.142 156.217,-171.731 159.964,-181.641 165.326,-177.142"/>
</g>
<!-- Node3 -->
<g id="node4" class="node"><title>Node3</title>
<g id="a_node4"><a xlink:href="a00252.html" target="_top" xlink:title="DCMI_Synchronization_Mode">
<polygon fill="white" stroke="black" points="252,-228.5 252,-247.5 399,-247.5 399,-228.5 252,-228.5"/>
<text text-anchor="middle" x="325.5" y="-235.5" font-family="Helvetica,sans-Serif" font-size="10.00">DCMI_Synchronization_Mode</text>
</a>
</g>
</g>
<!-- Node0&#45;&gt;Node3 -->
<g id="edge3" class="edge"><title>Node0&#45;&gt;Node3</title>
<path fill="none" stroke="black" d="M171.626,-176.915C192.083,-189.569 223.088,-207.457 252,-219 261.184,-222.667 271.305,-225.831 280.997,-228.468"/>
<polygon fill="black" stroke="black" points="173.346,-173.862 163.015,-171.511 169.625,-179.791 173.346,-173.862"/>
</g>
<!-- Node4 -->
<g id="node6" class="node"><title>Node4</title>
<g id="a_node6"><a xlink:href="a00253.html" target="_top" xlink:title="DCMI_PIXCK_Polarity">
<polygon fill="white" stroke="black" points="267,-190.5 267,-209.5 384,-209.5 384,-190.5 267,-190.5"/>
<text text-anchor="middle" x="325.5" y="-197.5" font-family="Helvetica,sans-Serif" font-size="10.00">DCMI_PIXCK_Polarity</text>
</a>
</g>
</g>
<!-- Node0&#45;&gt;Node4 -->
<g id="edge4" class="edge"><title>Node0&#45;&gt;Node4</title>
<path fill="none" stroke="black" d="M202.933,-173.753C227.819,-179.126 256.919,-185.409 280.407,-190.48"/>
<polygon fill="black" stroke="black" points="203.426,-170.278 192.912,-171.589 201.948,-177.121 203.426,-170.278"/>
</g>
<!-- Node10 -->
<g id="node7" class="node"><title>Node10</title>
<g id="a_node7"><a xlink:href="a00259.html" target="_top" xlink:title="DCMI_Flags">
<polygon fill="white" stroke="black" points="289.5,-152.5 289.5,-171.5 361.5,-171.5 361.5,-152.5 289.5,-152.5"/>
<text text-anchor="middle" x="325.5" y="-159.5" font-family="Helvetica,sans-Serif" font-size="10.00">DCMI_Flags</text>
</a>
</g>
</g>
<!-- Node0&#45;&gt;Node10 -->
<g id="edge10" class="edge"><title>Node0&#45;&gt;Node10</title>
<path fill="none" stroke="black" d="M226.111,-162C248.204,-162 271.183,-162 289.373,-162"/>
<polygon fill="black" stroke="black" points="226.043,-158.5 216.043,-162 226.043,-165.5 226.043,-158.5"/>
</g>
<!-- Node2 -->
<g id="node8" class="node"><title>Node2</title>
<g id="a_node8"><a xlink:href="a00251.html" target="_top" xlink:title="DCMI_Capture_Mode">
<polygon fill="white" stroke="black" points="269.5,-114.5 269.5,-133.5 381.5,-133.5 381.5,-114.5 269.5,-114.5"/>
<text text-anchor="middle" x="325.5" y="-121.5" font-family="Helvetica,sans-Serif" font-size="10.00">DCMI_Capture_Mode</text>
</a>
</g>
</g>
<!-- Node0&#45;&gt;Node2 -->
<g id="edge2" class="edge"><title>Node0&#45;&gt;Node2</title>
<path fill="none" stroke="black" d="M202.933,-150.247C227.819,-144.874 256.919,-138.591 280.407,-133.52"/>
<polygon fill="black" stroke="black" points="201.948,-146.879 192.912,-152.411 203.426,-153.722 201.948,-146.879"/>
</g>
<!-- Node8 -->
<g id="node9" class="node"><title>Node8</title>
<g id="a_node9"><a xlink:href="a00257.html" target="_top" xlink:title="DCMI_Extended_Data_Mode">
<polygon fill="white" stroke="black" points="253,-76.5 253,-95.5 398,-95.5 398,-76.5 253,-76.5"/>
<text text-anchor="middle" x="325.5" y="-83.5" font-family="Helvetica,sans-Serif" font-size="10.00">DCMI_Extended_Data_Mode</text>
</a>
</g>
</g>
<!-- Node0&#45;&gt;Node8 -->
<g id="edge8" class="edge"><title>Node0&#45;&gt;Node8</title>
<path fill="none" stroke="black" d="M171.626,-147.085C192.083,-134.431 223.088,-116.543 252,-105 261.184,-101.333 271.305,-98.1692 280.997,-95.5323"/>
<polygon fill="black" stroke="black" points="169.625,-144.209 163.015,-152.489 173.346,-150.138 169.625,-144.209"/>
</g>
<!-- Node5 -->
<g id="node10" class="node"><title>Node5</title>
<g id="a_node10"><a xlink:href="a00254.html" target="_top" xlink:title="DCMI_VSYNC_Polarity">
<polygon fill="white" stroke="black" points="264.5,-38.5 264.5,-57.5 386.5,-57.5 386.5,-38.5 264.5,-38.5"/>
<text text-anchor="middle" x="325.5" y="-45.5" font-family="Helvetica,sans-Serif" font-size="10.00">DCMI_VSYNC_Polarity</text>
</a>
</g>
</g>
<!-- Node0&#45;&gt;Node5 -->
<g id="edge5" class="edge"><title>Node0&#45;&gt;Node5</title>
<path fill="none" stroke="black" d="M162.675,-144.573C181.052,-123.132 215.141,-87.1099 252,-67 259.082,-63.1362 266.986,-60.0294 274.899,-57.5397"/>
<polygon fill="black" stroke="black" points="159.964,-142.359 156.217,-152.269 165.326,-146.858 159.964,-142.359"/>
</g>
<!-- Node7 -->
<g id="node11" class="node"><title>Node7</title>
<g id="a_node11"><a xlink:href="a00256.html" target="_top" xlink:title="DCMI_Capture_Rate">
<polygon fill="white" stroke="black" points="271,-0.5 271,-19.5 380,-19.5 380,-0.5 271,-0.5"/>
<text text-anchor="middle" x="325.5" y="-7.5" font-family="Helvetica,sans-Serif" font-size="10.00">DCMI_Capture_Rate</text>
</a>
</g>
</g>
<!-- Node0&#45;&gt;Node7 -->
<g id="edge7" class="edge"><title>Node0&#45;&gt;Node7</title>
<path fill="none" stroke="black" d="M157.947,-143.094C173.478,-114.001 207.207,-58.5332 252,-29 257.866,-25.1323 264.483,-22.051 271.274,-19.5962"/>
<polygon fill="black" stroke="black" points="154.722,-141.71 153.224,-152.199 160.936,-144.933 154.722,-141.71"/>
</g>
<!-- Node1 -->
<g id="node5" class="node"><title>Node1</title>
<g id="a_node5"><a xlink:href="a00008.html" target="_top" xlink:title="DCMI driver modules. ">
<polygon fill="white" stroke="black" points="0,-152.5 0,-171.5 43,-171.5 43,-152.5 0,-152.5"/>
<text text-anchor="middle" x="21.5" y="-159.5" font-family="Helvetica,sans-Serif" font-size="10.00">DCMI</text>
</a>
</g>
</g>
<!-- Node1&#45;&gt;Node0 -->
<g id="edge1" class="edge"><title>Node1&#45;&gt;Node0</title>
<path fill="none" stroke="black" d="M53.3244,-162C61.169,-162 69.9136,-162 78.8159,-162"/>
<polygon fill="black" stroke="black" points="53.2548,-158.5 43.2548,-162 53.2548,-165.5 53.2548,-158.5"/>
</g>
</g>
</svg>
