<?xml version="1.0" encoding="UTF-8" standalone="no"?>
<!DOCTYPE svg PUBLIC "-//W3C//DTD SVG 1.1//EN"
 "http://www.w3.org/Graphics/SVG/1.1/DTD/svg11.dtd">
<!-- Generated by graphviz version 2.38.0 (20140413.2041)
 -->
<!-- Title: pid.c Pages: 1 -->
<svg width="418pt" height="140pt"
 viewBox="0.00 0.00 418.00 140.00" xmlns="http://www.w3.org/2000/svg" xmlns:xlink="http://www.w3.org/1999/xlink">
<g id="graph0" class="graph" transform="scale(1 1) rotate(0) translate(4 136)">
<title>pid.c</title>
<polygon fill="white" stroke="none" points="-4,4 -4,-136 414,-136 414,4 -4,4"/>
<!-- Node1 -->
<g id="node1" class="node"><title>Node1</title>
<polygon fill="#bfbfbf" stroke="black" points="169,-112.5 169,-131.5 207,-131.5 207,-112.5 169,-112.5"/>
<text text-anchor="middle" x="188" y="-119.5" font-family="Helvetica,sans-Serif" font-size="10.00">pid.c</text>
</g>
<!-- Node2 -->
<g id="node2" class="node"><title>Node2</title>
<g id="a_node2"><a xlink:href="a00045.html" target="_top" xlink:title="PID compensator implementation. ">
<polygon fill="white" stroke="black" points="169,-56.5 169,-75.5 207,-75.5 207,-56.5 169,-56.5"/>
<text text-anchor="middle" x="188" y="-63.5" font-family="Helvetica,sans-Serif" font-size="10.00">pid.h</text>
</a>
</g>
</g>
<!-- Node1&#45;&gt;Node2 -->
<g id="edge1" class="edge"><title>Node1&#45;&gt;Node2</title>
<path fill="none" stroke="midnightblue" d="M188,-112.083C188,-105.006 188,-94.8611 188,-85.9865"/>
<polygon fill="midnightblue" stroke="midnightblue" points="191.5,-85.751 188,-75.7511 184.5,-85.7511 191.5,-85.751"/>
</g>
<!-- Node3 -->
<g id="node3" class="node"><title>Node3</title>
<polygon fill="white" stroke="#bfbfbf" points="0,-0.5 0,-19.5 48,-19.5 48,-0.5 0,-0.5"/>
<text text-anchor="middle" x="24" y="-7.5" font-family="Helvetica,sans-Serif" font-size="10.00">stdlib.h</text>
</g>
<!-- Node2&#45;&gt;Node3 -->
<g id="edge2" class="edge"><title>Node2&#45;&gt;Node3</title>
<path fill="none" stroke="midnightblue" d="M168.866,-58.6998C141.683,-49.7491 91.4631,-33.2135 57.8902,-22.159"/>
<polygon fill="midnightblue" stroke="midnightblue" points="58.6425,-18.7219 48.0494,-18.9187 56.4532,-25.3707 58.6425,-18.7219"/>
</g>
<!-- Node4 -->
<g id="node4" class="node"><title>Node4</title>
<polygon fill="white" stroke="#bfbfbf" points="66,-0.5 66,-19.5 112,-19.5 112,-0.5 66,-0.5"/>
<text text-anchor="middle" x="89" y="-7.5" font-family="Helvetica,sans-Serif" font-size="10.00">stdio.h</text>
</g>
<!-- Node2&#45;&gt;Node4 -->
<g id="edge3" class="edge"><title>Node2&#45;&gt;Node4</title>
<path fill="none" stroke="midnightblue" d="M172.094,-56.324C156.362,-47.7428 132.058,-34.486 113.791,-24.5224"/>
<polygon fill="midnightblue" stroke="midnightblue" points="115.322,-21.3704 104.867,-19.6545 111.97,-27.5157 115.322,-21.3704"/>
</g>
<!-- Node5 -->
<g id="node5" class="node"><title>Node5</title>
<polygon fill="white" stroke="#bfbfbf" points="130.5,-0.5 130.5,-19.5 179.5,-19.5 179.5,-0.5 130.5,-0.5"/>
<text text-anchor="middle" x="155" y="-7.5" font-family="Helvetica,sans-Serif" font-size="10.00">string.h</text>
</g>
<!-- Node2&#45;&gt;Node5 -->
<g id="edge4" class="edge"><title>Node2&#45;&gt;Node5</title>
<path fill="none" stroke="midnightblue" d="M182.551,-56.083C177.986,-48.6127 171.332,-37.7244 165.707,-28.5199"/>
<polygon fill="midnightblue" stroke="midnightblue" points="168.549,-26.4588 160.348,-19.7511 162.576,-30.109 168.549,-26.4588"/>
</g>
<!-- Node6 -->
<g id="node6" class="node"><title>Node6</title>
<polygon fill="white" stroke="#bfbfbf" points="197.5,-0.5 197.5,-19.5 246.5,-19.5 246.5,-0.5 197.5,-0.5"/>
<text text-anchor="middle" x="222" y="-7.5" font-family="Helvetica,sans-Serif" font-size="10.00">stdint.h</text>
</g>
<!-- Node2&#45;&gt;Node6 -->
<g id="edge5" class="edge"><title>Node2&#45;&gt;Node6</title>
<path fill="none" stroke="midnightblue" d="M193.614,-56.083C198.367,-48.5341 205.318,-37.4948 211.152,-28.2298"/>
<polygon fill="midnightblue" stroke="midnightblue" points="214.124,-30.0783 216.49,-19.7511 208.2,-26.3486 214.124,-30.0783"/>
</g>
<!-- Node7 -->
<g id="node7" class="node"><title>Node7</title>
<polygon fill="white" stroke="#bfbfbf" points="264.5,-0.5 264.5,-19.5 335.5,-19.5 335.5,-0.5 264.5,-0.5"/>
<text text-anchor="middle" x="300" y="-7.5" font-family="Helvetica,sans-Serif" font-size="10.00">stm32f4xx.h</text>
</g>
<!-- Node2&#45;&gt;Node7 -->
<g id="edge6" class="edge"><title>Node2&#45;&gt;Node7</title>
<path fill="none" stroke="midnightblue" d="M205.995,-56.324C224.038,-47.6247 252.047,-34.1202 272.803,-24.113"/>
<polygon fill="midnightblue" stroke="midnightblue" points="274.562,-27.1502 282.05,-19.6545 271.522,-20.8449 274.562,-27.1502"/>
</g>
<!-- Node8 -->
<g id="node8" class="node"><title>Node8</title>
<g id="a_node8"><a xlink:href="a00018.html" target="_top" xlink:title="Global defines include file. ">
<polygon fill="white" stroke="black" points="354,-0.5 354,-19.5 410,-19.5 410,-0.5 354,-0.5"/>
<text text-anchor="middle" x="382" y="-7.5" font-family="Helvetica,sans-Serif" font-size="10.00">globals.h</text>
</a>
</g>
</g>
<!-- Node2&#45;&gt;Node8 -->
<g id="edge7" class="edge"><title>Node2&#45;&gt;Node8</title>
<path fill="none" stroke="midnightblue" d="M207.311,-59.6249C239.096,-50.7773 303.002,-32.9892 344.078,-21.5556"/>
<polygon fill="midnightblue" stroke="midnightblue" points="345.047,-24.9191 353.742,-18.8656 343.17,-18.1754 345.047,-24.9191"/>
</g>
</g>
</svg>
