<?xml version="1.0" encoding="UTF-8" standalone="no"?>
<!DOCTYPE svg PUBLIC "-//W3C//DTD SVG 1.1//EN"
 "http://www.w3.org/Graphics/SVG/1.1/DTD/svg11.dtd">
<!-- Generated by graphviz version 2.38.0 (20140413.2041)
 -->
<!-- Title: stm32f4xx_it.c Pages: 1 -->
<svg width="2205pt" height="364pt"
 viewBox="0.00 0.00 2205.00 364.00" xmlns="http://www.w3.org/2000/svg" xmlns:xlink="http://www.w3.org/1999/xlink">
<g id="graph0" class="graph" transform="scale(1 1) rotate(0) translate(4 360)">
<title>stm32f4xx_it.c</title>
<polygon fill="white" stroke="none" points="-4,4 -4,-360 2201,-360 2201,4 -4,4"/>
<!-- Node1 -->
<g id="node1" class="node"><title>Node1</title>
<polygon fill="#bfbfbf" stroke="black" points="1067.5,-336.5 1067.5,-355.5 1148.5,-355.5 1148.5,-336.5 1067.5,-336.5"/>
<text text-anchor="middle" x="1108" y="-343.5" font-family="Helvetica,sans-Serif" font-size="10.00">stm32f4xx_it.c</text>
</g>
<!-- Node2 -->
<g id="node2" class="node"><title>Node2</title>
<g id="a_node2"><a xlink:href="a00051.html" target="_top" xlink:title="This file contains the headers of the interrupt handlers. ">
<polygon fill="white" stroke="black" points="682.5,-280.5 682.5,-299.5 763.5,-299.5 763.5,-280.5 682.5,-280.5"/>
<text text-anchor="middle" x="723" y="-287.5" font-family="Helvetica,sans-Serif" font-size="10.00">stm32f4xx_it.h</text>
</a>
</g>
</g>
<!-- Node1&#45;&gt;Node2 -->
<g id="edge1" class="edge"><title>Node1&#45;&gt;Node2</title>
<path fill="none" stroke="midnightblue" d="M1067.16,-339.272C996.32,-329.336 850.849,-308.932 773.676,-298.108"/>
<polygon fill="midnightblue" stroke="midnightblue" points="774.097,-294.633 763.708,-296.71 773.125,-301.565 774.097,-294.633"/>
</g>
<!-- Node4 -->
<g id="node4" class="node"><title>Node4</title>
<g id="a_node4"><a xlink:href="a00024.html" target="_top" xlink:title="Main header definition. ">
<polygon fill="white" stroke="black" points="1471,-280.5 1471,-299.5 1517,-299.5 1517,-280.5 1471,-280.5"/>
<text text-anchor="middle" x="1494" y="-287.5" font-family="Helvetica,sans-Serif" font-size="10.00">main.h</text>
</a>
</g>
</g>
<!-- Node1&#45;&gt;Node4 -->
<g id="edge3" class="edge"><title>Node1&#45;&gt;Node4</title>
<path fill="none" stroke="midnightblue" d="M1148.58,-339.323C1225.17,-328.608 1389.68,-305.593 1460.48,-295.69"/>
<polygon fill="midnightblue" stroke="midnightblue" points="1461.2,-299.123 1470.62,-294.271 1460.23,-292.191 1461.2,-299.123"/>
</g>
<!-- Node3 -->
<g id="node3" class="node"><title>Node3</title>
<polygon fill="white" stroke="#bfbfbf" points="474.5,-0.5 474.5,-19.5 545.5,-19.5 545.5,-0.5 474.5,-0.5"/>
<text text-anchor="middle" x="510" y="-7.5" font-family="Helvetica,sans-Serif" font-size="10.00">stm32f4xx.h</text>
</g>
<!-- Node2&#45;&gt;Node3 -->
<g id="edge2" class="edge"><title>Node2&#45;&gt;Node3</title>
<path fill="none" stroke="midnightblue" d="M682.168,-287.393C569.806,-282.71 257.766,-267.874 158,-244 84.1526,-226.328 0,-254.932 0,-179 0,-179 0,-179 0,-121 0,-78.5445 31.324,-73.511 70,-56 139.517,-24.5253 366.317,-14.7987 464.268,-12.0225"/>
<polygon fill="midnightblue" stroke="midnightblue" points="464.547,-15.5164 474.448,-11.7461 464.357,-8.51894 464.547,-15.5164"/>
</g>
<!-- Node5 -->
<g id="node5" class="node"><title>Node5</title>
<polygon fill="white" stroke="#bfbfbf" points="2078,-0.5 2078,-19.5 2124,-19.5 2124,-0.5 2078,-0.5"/>
<text text-anchor="middle" x="2101" y="-7.5" font-family="Helvetica,sans-Serif" font-size="10.00">stdio.h</text>
</g>
<!-- Node4&#45;&gt;Node5 -->
<g id="edge4" class="edge"><title>Node4&#45;&gt;Node5</title>
<path fill="none" stroke="midnightblue" d="M1517.13,-288.595C1604.96,-286.809 1917.52,-278.137 2010,-244 2056.63,-226.788 2101,-228.702 2101,-179 2101,-179 2101,-179 2101,-121 2101,-88.948 2101,-51.6426 2101,-29.7489"/>
<polygon fill="midnightblue" stroke="midnightblue" points="2104.5,-29.5577 2101,-19.5578 2097.5,-29.5578 2104.5,-29.5577"/>
</g>
<!-- Node6 -->
<g id="node6" class="node"><title>Node6</title>
<polygon fill="white" stroke="#bfbfbf" points="1934,-0.5 1934,-19.5 1982,-19.5 1982,-0.5 1934,-0.5"/>
<text text-anchor="middle" x="1958" y="-7.5" font-family="Helvetica,sans-Serif" font-size="10.00">stdlib.h</text>
</g>
<!-- Node4&#45;&gt;Node6 -->
<g id="edge5" class="edge"><title>Node4&#45;&gt;Node6</title>
<path fill="none" stroke="midnightblue" d="M1517.28,-289.492C1603.43,-290.915 1903.33,-292.242 1983,-244 2012.42,-226.185 2025,-213.395 2025,-179 2025,-179 2025,-179 2025,-121 2025,-82.7036 1995.01,-46.4156 1975.16,-26.5891"/>
<polygon fill="midnightblue" stroke="midnightblue" points="1977.52,-24.0028 1967.89,-19.5975 1972.67,-29.0501 1977.52,-24.0028"/>
</g>
<!-- Node7 -->
<g id="node7" class="node"><title>Node7</title>
<polygon fill="white" stroke="#bfbfbf" points="1866.5,-0.5 1866.5,-19.5 1915.5,-19.5 1915.5,-0.5 1866.5,-0.5"/>
<text text-anchor="middle" x="1891" y="-7.5" font-family="Helvetica,sans-Serif" font-size="10.00">string.h</text>
</g>
<!-- Node4&#45;&gt;Node7 -->
<g id="edge6" class="edge"><title>Node4&#45;&gt;Node7</title>
<path fill="none" stroke="midnightblue" d="M1517.28,-288.118C1600.97,-284.732 1883.18,-271.354 1912,-244 1972.12,-186.93 1923.03,-72.7561 1900.65,-28.8089"/>
<polygon fill="midnightblue" stroke="midnightblue" points="1903.71,-27.1117 1895.97,-19.8776 1897.51,-30.36 1903.71,-27.1117"/>
</g>
<!-- Node8 -->
<g id="node8" class="node"><title>Node8</title>
<polygon fill="white" stroke="#bfbfbf" points="1643,-224.5 1643,-243.5 1711,-243.5 1711,-224.5 1643,-224.5"/>
<text text-anchor="middle" x="1677" y="-231.5" font-family="Helvetica,sans-Serif" font-size="10.00">stdint&#45;gcc.h</text>
</g>
<!-- Node4&#45;&gt;Node8 -->
<g id="edge7" class="edge"><title>Node4&#45;&gt;Node8</title>
<path fill="none" stroke="midnightblue" d="M1517.18,-282.161C1547.59,-273.185 1601.42,-257.303 1638.12,-246.472"/>
<polygon fill="midnightblue" stroke="midnightblue" points="1639.39,-249.748 1647.99,-243.561 1637.41,-243.034 1639.39,-249.748"/>
</g>
<!-- Node9 -->
<g id="node9" class="node"><title>Node9</title>
<g id="a_node9"><a xlink:href="a00015.html" target="_top" xlink:title="Platform/Compiler dependent definitions. ">
<polygon fill="white" stroke="black" points="104.5,-56.5 104.5,-75.5 169.5,-75.5 169.5,-56.5 104.5,-56.5"/>
<text text-anchor="middle" x="137" y="-63.5" font-family="Helvetica,sans-Serif" font-size="10.00">attributes.h</text>
</a>
</g>
</g>
<!-- Node4&#45;&gt;Node9 -->
<g id="edge8" class="edge"><title>Node4&#45;&gt;Node9</title>
<path fill="none" stroke="midnightblue" d="M1470.69,-288.622C1347.09,-286.502 767.427,-275.038 591,-244 507.649,-229.336 489.87,-212.952 409,-188 328.536,-163.174 303.448,-169.395 228,-132 200.344,-118.293 171.941,-96.5414 154.386,-82.024"/>
<polygon fill="midnightblue" stroke="midnightblue" points="156.594,-79.3079 146.69,-75.5453 152.086,-84.663 156.594,-79.3079"/>
</g>
<!-- Node10 -->
<g id="node10" class="node"><title>Node10</title>
<g id="a_node10"><a xlink:href="a00018.html" target="_top" xlink:title="Global defines include file. ">
<polygon fill="white" stroke="black" points="1430,-0.5 1430,-19.5 1486,-19.5 1486,-0.5 1430,-0.5"/>
<text text-anchor="middle" x="1458" y="-7.5" font-family="Helvetica,sans-Serif" font-size="10.00">globals.h</text>
</a>
</g>
</g>
<!-- Node4&#45;&gt;Node10 -->
<g id="edge9" class="edge"><title>Node4&#45;&gt;Node10</title>
<path fill="none" stroke="midnightblue" d="M1490.66,-280.177C1487.4,-271.205 1482.57,-256.836 1480,-244 1464.22,-165.318 1459.7,-69.3578 1458.45,-29.6122"/>
<polygon fill="midnightblue" stroke="midnightblue" points="1461.95,-29.4545 1458.17,-19.5561 1454.95,-29.6499 1461.95,-29.4545"/>
</g>
<!-- Node11 -->
<g id="node11" class="node"><title>Node11</title>
<g id="a_node11"><a xlink:href="a00030.html" target="_top" xlink:title="Provides SysTick&#45;Timer driven delay functions. ">
<polygon fill="white" stroke="black" points="775.5,-56.5 775.5,-75.5 882.5,-75.5 882.5,-56.5 775.5,-56.5"/>
<text text-anchor="middle" x="829" y="-63.5" font-family="Helvetica,sans-Serif" font-size="10.00">md_stm32f4_delay.h</text>
</a>
</g>
</g>
<!-- Node4&#45;&gt;Node11 -->
<g id="edge10" class="edge"><title>Node4&#45;&gt;Node11</title>
<path fill="none" stroke="midnightblue" d="M1470.76,-286.946C1377.99,-278.419 1034.81,-243.625 943,-188 897.712,-160.56 858.785,-110.303 840.362,-84.0272"/>
<polygon fill="midnightblue" stroke="midnightblue" points="843.07,-81.7871 834.528,-75.5184 837.296,-85.7453 843.07,-81.7871"/>
</g>
<!-- Node13 -->
<g id="node13" class="node"><title>Node13</title>
<g id="a_node13"><a xlink:href="a00032.html" target="_top" xlink:title="Definitions to extend board support for STM32F429i&#45;DISCO and equivalent boards. ">
<polygon fill="white" stroke="black" points="237.5,-112.5 237.5,-131.5 344.5,-131.5 344.5,-112.5 237.5,-112.5"/>
<text text-anchor="middle" x="291" y="-119.5" font-family="Helvetica,sans-Serif" font-size="10.00">md_stm32f4_disco.h</text>
</a>
</g>
</g>
<!-- Node4&#45;&gt;Node13 -->
<g id="edge14" class="edge"><title>Node4&#45;&gt;Node13</title>
<path fill="none" stroke="midnightblue" d="M1470.73,-288.487C1354.7,-285.811 837.919,-272.475 680,-244 542.906,-219.28 386.498,-160.972 321.649,-135.393"/>
<polygon fill="midnightblue" stroke="midnightblue" points="322.63,-132.017 312.045,-131.579 320.047,-138.523 322.63,-132.017"/>
</g>
<!-- Node15 -->
<g id="node15" class="node"><title>Node15</title>
<g id="a_node15"><a xlink:href="a00036_source.html" target="_top" xlink:title="md_stm32f4_timer.h">
<polygon fill="white" stroke="black" points="652,-56.5 652,-75.5 758,-75.5 758,-56.5 652,-56.5"/>
<text text-anchor="middle" x="705" y="-63.5" font-family="Helvetica,sans-Serif" font-size="10.00">md_stm32f4_timer.h</text>
</a>
</g>
</g>
<!-- Node4&#45;&gt;Node15 -->
<g id="edge19" class="edge"><title>Node4&#45;&gt;Node15</title>
<path fill="none" stroke="midnightblue" d="M1470.68,-289.113C1403.46,-288.921 1204,-284.694 1045,-244 983.262,-228.199 969.988,-216.523 913,-188 843.087,-153.008 764.237,-104.515 726.876,-80.9587"/>
<polygon fill="midnightblue" stroke="midnightblue" points="728.624,-77.9227 718.303,-75.5306 724.879,-83.837 728.624,-77.9227"/>
</g>
<!-- Node16 -->
<g id="node16" class="node"><title>Node16</title>
<g id="a_node16"><a xlink:href="a00056_source.html" target="_top" xlink:title="tm_stm32f4_pwm.h">
<polygon fill="white" stroke="black" points="1051.5,-112.5 1051.5,-131.5 1154.5,-131.5 1154.5,-112.5 1051.5,-112.5"/>
<text text-anchor="middle" x="1103" y="-119.5" font-family="Helvetica,sans-Serif" font-size="10.00">tm_stm32f4_pwm.h</text>
</a>
</g>
</g>
<!-- Node4&#45;&gt;Node16 -->
<g id="edge22" class="edge"><title>Node4&#45;&gt;Node16</title>
<path fill="none" stroke="midnightblue" d="M1473.8,-280.425C1409.45,-253.103 1209,-168.001 1132.8,-135.652"/>
<polygon fill="midnightblue" stroke="midnightblue" points="1133.88,-132.31 1123.31,-131.624 1131.15,-138.753 1133.88,-132.31"/>
</g>
<!-- Node19 -->
<g id="node19" class="node"><title>Node19</title>
<g id="a_node19"><a xlink:href="a00060_source.html" target="_top" xlink:title="tm_stm32f4_usart.h">
<polygon fill="white" stroke="black" points="378,-112.5 378,-131.5 482,-131.5 482,-112.5 378,-112.5"/>
<text text-anchor="middle" x="430" y="-119.5" font-family="Helvetica,sans-Serif" font-size="10.00">tm_stm32f4_usart.h</text>
</a>
</g>
</g>
<!-- Node4&#45;&gt;Node19 -->
<g id="edge33" class="edge"><title>Node4&#45;&gt;Node19</title>
<path fill="none" stroke="midnightblue" d="M1470.74,-288.501C1361.34,-286.016 897.448,-273.876 756,-244 640.618,-219.63 511.507,-161.999 456.801,-136.056"/>
<polygon fill="midnightblue" stroke="midnightblue" points="458.004,-132.752 447.472,-131.596 454.984,-139.067 458.004,-132.752"/>
</g>
<!-- Node22 -->
<g id="node22" class="node"><title>Node22</title>
<polygon fill="white" stroke="#bfbfbf" points="1729,-224.5 1729,-243.5 1797,-243.5 1797,-224.5 1729,-224.5"/>
<text text-anchor="middle" x="1763" y="-231.5" font-family="Helvetica,sans-Serif" font-size="10.00">core_cm4.h</text>
</g>
<!-- Node4&#45;&gt;Node22 -->
<g id="edge41" class="edge"><title>Node4&#45;&gt;Node22</title>
<path fill="none" stroke="midnightblue" d="M1517.11,-284.475C1556.36,-276.776 1638.79,-260.533 1718.53,-244.286"/>
<polygon fill="midnightblue" stroke="midnightblue" points="1719.64,-247.631 1728.74,-242.202 1718.24,-240.773 1719.64,-247.631"/>
</g>
<!-- Node23 -->
<g id="node23" class="node"><title>Node23</title>
<polygon fill="white" stroke="#bfbfbf" points="1815,-224.5 1815,-243.5 1883,-243.5 1883,-224.5 1815,-224.5"/>
<text text-anchor="middle" x="1849" y="-231.5" font-family="Helvetica,sans-Serif" font-size="10.00">arm_math.h</text>
</g>
<!-- Node4&#45;&gt;Node23 -->
<g id="edge42" class="edge"><title>Node4&#45;&gt;Node23</title>
<path fill="none" stroke="midnightblue" d="M1517.17,-286.166C1567.59,-279.892 1691.21,-263.925 1804.86,-244.11"/>
<polygon fill="midnightblue" stroke="midnightblue" points="1805.53,-247.546 1814.77,-242.368 1804.32,-240.652 1805.53,-247.546"/>
</g>
<!-- Node24 -->
<g id="node24" class="node"><title>Node24</title>
<g id="a_node24"><a xlink:href="a00045.html" target="_top" xlink:title="PID compensator implementation. ">
<polygon fill="white" stroke="black" points="1839,-56.5 1839,-75.5 1877,-75.5 1877,-56.5 1839,-56.5"/>
<text text-anchor="middle" x="1858" y="-63.5" font-family="Helvetica,sans-Serif" font-size="10.00">pid.h</text>
</a>
</g>
</g>
<!-- Node4&#45;&gt;Node24 -->
<g id="edge43" class="edge"><title>Node4&#45;&gt;Node24</title>
<path fill="none" stroke="midnightblue" d="M1517.15,-288.144C1598.37,-284.905 1866.87,-272.134 1892,-244 1932.78,-198.353 1891.39,-119.123 1869.59,-84.2818"/>
<polygon fill="midnightblue" stroke="midnightblue" points="1872.41,-82.199 1864.05,-75.6969 1866.53,-85.9963 1872.41,-82.199"/>
</g>
<!-- Node26 -->
<g id="node26" class="node"><title>Node26</title>
<g id="a_node26"><a xlink:href="a00011.html" target="_top" xlink:title="Controlling beam and primary actuators. ">
<polygon fill="white" stroke="black" points="1559.5,-224.5 1559.5,-243.5 1624.5,-243.5 1624.5,-224.5 1559.5,-224.5"/>
<text text-anchor="middle" x="1592" y="-231.5" font-family="Helvetica,sans-Serif" font-size="10.00">actuators.h</text>
</a>
</g>
</g>
<!-- Node4&#45;&gt;Node26 -->
<g id="edge50" class="edge"><title>Node4&#45;&gt;Node26</title>
<path fill="none" stroke="midnightblue" d="M1509.75,-280.324C1525.32,-271.743 1549.38,-258.486 1567.46,-248.522"/>
<polygon fill="midnightblue" stroke="midnightblue" points="1569.22,-251.546 1576.29,-243.655 1565.85,-245.415 1569.22,-251.546"/>
</g>
<!-- Node27 -->
<g id="node27" class="node"><title>Node27</title>
<g id="a_node27"><a xlink:href="a00013.html" target="_top" xlink:title="Provides DMA related configuration and access functions for ADC and DAC. ">
<polygon fill="white" stroke="black" points="1508,-112.5 1508,-131.5 1594,-131.5 1594,-112.5 1508,-112.5"/>
<text text-anchor="middle" x="1551" y="-119.5" font-family="Helvetica,sans-Serif" font-size="10.00">adc_dac_dma.h</text>
</a>
</g>
</g>
<!-- Node4&#45;&gt;Node27 -->
<g id="edge80" class="edge"><title>Node4&#45;&gt;Node27</title>
<path fill="none" stroke="midnightblue" d="M1486.95,-280.217C1477.19,-259.447 1466.49,-206.186 1485,-168 1491.46,-154.67 1504,-144.098 1516.54,-136.559"/>
<polygon fill="midnightblue" stroke="midnightblue" points="1518.49,-139.479 1525.59,-131.61 1515.13,-133.338 1518.49,-139.479"/>
</g>
<!-- Node31 -->
<g id="node31" class="node"><title>Node31</title>
<g id="a_node31"><a xlink:href="a00020.html" target="_top" xlink:title="Provides tools and helper functions. ">
<polygon fill="white" stroke="black" points="1939.5,-56.5 1939.5,-75.5 1990.5,-75.5 1990.5,-56.5 1939.5,-56.5"/>
<text text-anchor="middle" x="1965" y="-63.5" font-family="Helvetica,sans-Serif" font-size="10.00">helper.h</text>
</a>
</g>
</g>
<!-- Node4&#45;&gt;Node31 -->
<g id="edge79" class="edge"><title>Node4&#45;&gt;Node31</title>
<path fill="none" stroke="midnightblue" d="M1517.1,-288.553C1607.33,-286.571 1932.52,-277.163 1963,-244 2003.33,-200.117 1983.7,-121.141 1971.82,-85.4272"/>
<polygon fill="midnightblue" stroke="midnightblue" points="1975.06,-84.1 1968.45,-75.8193 1968.45,-86.4142 1975.06,-84.1"/>
</g>
<!-- Node33 -->
<g id="node33" class="node"><title>Node33</title>
<g id="a_node33"><a xlink:href="a00022.html" target="_top" xlink:title="Analog processing related callback handler definition. ">
<polygon fill="white" stroke="black" points="1503,-168.5 1503,-187.5 1585,-187.5 1585,-168.5 1503,-168.5"/>
<text text-anchor="middle" x="1544" y="-175.5" font-family="Helvetica,sans-Serif" font-size="10.00">irq_callbacks.h</text>
</a>
</g>
</g>
<!-- Node4&#45;&gt;Node33 -->
<g id="edge86" class="edge"><title>Node4&#45;&gt;Node33</title>
<path fill="none" stroke="midnightblue" d="M1494.08,-280.368C1498.89,-262.296 1517.62,-220.176 1531.06,-196.307"/>
<polygon fill="midnightblue" stroke="midnightblue" points="1534.14,-197.972 1536.26,-187.591 1528.13,-194.385 1534.14,-197.972"/>
</g>
<!-- Node34 -->
<g id="node34" class="node"><title>Node34</title>
<g id="a_node34"><a xlink:href="a00039.html" target="_top" xlink:title="Project MD_APP scanner specific pin mappings. ">
<polygon fill="white" stroke="black" points="952.5,-168.5 952.5,-187.5 1019.5,-187.5 1019.5,-168.5 952.5,-168.5"/>
<text text-anchor="middle" x="986" y="-175.5" font-family="Helvetica,sans-Serif" font-size="10.00">mdb_gpio.h</text>
</a>
</g>
</g>
<!-- Node4&#45;&gt;Node34 -->
<g id="edge87" class="edge"><title>Node4&#45;&gt;Node34</title>
<path fill="none" stroke="midnightblue" d="M1470.82,-285.918C1424.06,-279.525 1315.19,-263.757 1225,-244 1153,-228.227 1070.26,-204.433 1023.45,-190.432"/>
<polygon fill="midnightblue" stroke="midnightblue" points="1024.33,-187.041 1013.74,-187.515 1022.31,-193.745 1024.33,-187.041"/>
</g>
<!-- Node36 -->
<g id="node36" class="node"><title>Node36</title>
<g id="a_node36"><a xlink:href="a00043.html" target="_top" xlink:title="Provides initialization methods to configure analog subsystems and DMA controller. ">
<polygon fill="white" stroke="black" points="73.5,-168.5 73.5,-187.5 172.5,-187.5 172.5,-168.5 73.5,-168.5"/>
<text text-anchor="middle" x="123" y="-175.5" font-family="Helvetica,sans-Serif" font-size="10.00">periph2dma_conf.h</text>
</a>
</g>
</g>
<!-- Node4&#45;&gt;Node36 -->
<g id="edge81" class="edge"><title>Node4&#45;&gt;Node36</title>
<path fill="none" stroke="midnightblue" d="M1470.92,-288.67C1301.28,-286.19 252.341,-269.839 191,-244 167.347,-234.036 147.108,-211.81 135.005,-196.131"/>
<polygon fill="midnightblue" stroke="midnightblue" points="137.61,-193.767 128.855,-187.799 131.978,-197.923 137.61,-193.767"/>
</g>
<!-- Node38 -->
<g id="node38" class="node"><title>Node38</title>
<g id="a_node38"><a xlink:href="a00048.html" target="_top" xlink:title="Provides DAC driven signal generator functions. ">
<polygon fill="white" stroke="black" points="2129,-168.5 2129,-187.5 2197,-187.5 2197,-168.5 2129,-168.5"/>
<text text-anchor="middle" x="2163" y="-175.5" font-family="Helvetica,sans-Serif" font-size="10.00">signalGen.h</text>
</a>
</g>
</g>
<!-- Node4&#45;&gt;Node38 -->
<g id="edge88" class="edge"><title>Node4&#45;&gt;Node38</title>
<path fill="none" stroke="midnightblue" d="M1517.12,-288.462C1623.37,-285.839 2061.8,-273.306 2115,-244 2133.95,-233.561 2147.49,-212.11 2155.26,-196.704"/>
<polygon fill="midnightblue" stroke="midnightblue" points="2158.44,-198.167 2159.53,-187.629 2152.1,-195.186 2158.44,-198.167"/>
</g>
<!-- Node11&#45;&gt;Node3 -->
<g id="edge11" class="edge"><title>Node11&#45;&gt;Node3</title>
<path fill="none" stroke="midnightblue" d="M778.454,-56.4435C717.299,-46.0913 615.21,-28.8099 556.116,-18.8065"/>
<polygon fill="midnightblue" stroke="midnightblue" points="556.399,-15.3047 545.955,-17.0865 555.231,-22.2065 556.399,-15.3047"/>
</g>
<!-- Node11&#45;&gt;Node10 -->
<g id="edge13" class="edge"><title>Node11&#45;&gt;Node10</title>
<path fill="none" stroke="midnightblue" d="M882.628,-60.396C1006.98,-49.7204 1312.54,-23.4875 1419.93,-14.2683"/>
<polygon fill="midnightblue" stroke="midnightblue" points="1420.32,-17.7477 1429.99,-13.4051 1419.72,-10.7734 1420.32,-17.7477"/>
</g>
<!-- Node12 -->
<g id="node12" class="node"><title>Node12</title>
<polygon fill="white" stroke="#bfbfbf" points="866.5,-0.5 866.5,-19.5 955.5,-19.5 955.5,-0.5 866.5,-0.5"/>
<text text-anchor="middle" x="911" y="-7.5" font-family="Helvetica,sans-Serif" font-size="10.00">stm32f4xx_rcc.h</text>
</g>
<!-- Node11&#45;&gt;Node12 -->
<g id="edge12" class="edge"><title>Node11&#45;&gt;Node12</title>
<path fill="none" stroke="midnightblue" d="M842.175,-56.324C854.847,-47.979 874.233,-35.2122 889.206,-25.3524"/>
<polygon fill="midnightblue" stroke="midnightblue" points="891.431,-28.0776 897.858,-19.6545 887.581,-22.2313 891.431,-28.0776"/>
</g>
<!-- Node13&#45;&gt;Node3 -->
<g id="edge16" class="edge"><title>Node13&#45;&gt;Node3</title>
<path fill="none" stroke="midnightblue" d="M267.61,-112.416C239.248,-100.745 197.512,-78.709 217,-56 248.329,-19.4916 390.167,-12.3072 464.395,-11.0874"/>
<polygon fill="midnightblue" stroke="midnightblue" points="464.45,-14.5871 474.402,-10.9525 464.356,-7.58773 464.45,-14.5871"/>
</g>
<!-- Node13&#45;&gt;Node10 -->
<g id="edge15" class="edge"><title>Node13&#45;&gt;Node10</title>
<path fill="none" stroke="midnightblue" d="M344.66,-114.322C352.806,-113.449 361.12,-112.638 369,-112 710.035,-84.3745 800.255,-130.74 1138,-76 1170.36,-70.755 1177.06,-63.368 1209,-56 1282.98,-38.9375 1370.55,-24.4042 1419.65,-16.7612"/>
<polygon fill="midnightblue" stroke="midnightblue" points="1420.47,-20.1766 1429.81,-15.1918 1419.4,-13.2586 1420.47,-20.1766"/>
</g>
<!-- Node14 -->
<g id="node14" class="node"><title>Node14</title>
<g id="a_node14"><a xlink:href="a00034.html" target="_top" xlink:title="Provides generic methods for GPIO module initialization and manipulation. ">
<polygon fill="white" stroke="black" points="226,-56.5 226,-75.5 328,-75.5 328,-56.5 226,-56.5"/>
<text text-anchor="middle" x="277" y="-63.5" font-family="Helvetica,sans-Serif" font-size="10.00">md_stm32f4_gpio.h</text>
</a>
</g>
</g>
<!-- Node13&#45;&gt;Node14 -->
<g id="edge17" class="edge"><title>Node13&#45;&gt;Node14</title>
<path fill="none" stroke="midnightblue" d="M288.688,-112.083C286.833,-104.927 284.165,-94.6353 281.846,-85.6911"/>
<polygon fill="midnightblue" stroke="midnightblue" points="285.166,-84.5527 279.269,-75.7511 278.391,-86.3094 285.166,-84.5527"/>
</g>
<!-- Node14&#45;&gt;Node3 -->
<g id="edge18" class="edge"><title>Node14&#45;&gt;Node3</title>
<path fill="none" stroke="midnightblue" d="M313.92,-56.4435C354.753,-46.9801 420.57,-31.7262 464.543,-21.535"/>
<polygon fill="midnightblue" stroke="midnightblue" points="465.448,-24.9183 474.399,-19.2508 463.867,-18.099 465.448,-24.9183"/>
</g>
<!-- Node15&#45;&gt;Node3 -->
<g id="edge20" class="edge"><title>Node15&#45;&gt;Node3</title>
<path fill="none" stroke="midnightblue" d="M674.102,-56.4435C640.726,-47.2011 587.406,-32.4356 550.651,-22.2572"/>
<polygon fill="midnightblue" stroke="midnightblue" points="551.325,-18.8122 540.754,-19.5164 549.457,-25.5583 551.325,-18.8122"/>
</g>
<!-- Node15&#45;&gt;Node12 -->
<g id="edge21" class="edge"><title>Node15&#45;&gt;Node12</title>
<path fill="none" stroke="midnightblue" d="M737.641,-56.4435C773.05,-47.1616 829.709,-32.3093 868.553,-22.127"/>
<polygon fill="midnightblue" stroke="midnightblue" points="869.726,-25.4378 878.511,-19.5164 867.951,-18.6666 869.726,-25.4378"/>
</g>
<!-- Node16&#45;&gt;Node3 -->
<g id="edge23" class="edge"><title>Node16&#45;&gt;Node3</title>
<path fill="none" stroke="midnightblue" d="M1051.45,-113.159C1048.25,-112.746 1045.08,-112.356 1042,-112 850.603,-89.9281 792.285,-138.388 610,-76 578.061,-65.0687 546.246,-41.6986 527.35,-26.1661"/>
<polygon fill="midnightblue" stroke="midnightblue" points="529.525,-23.4222 519.623,-19.6539 525.014,-28.7747 529.525,-23.4222"/>
</g>
<!-- Node16&#45;&gt;Node10 -->
<g id="edge32" class="edge"><title>Node16&#45;&gt;Node10</title>
<path fill="none" stroke="midnightblue" d="M1154.69,-119.058C1233.15,-115.226 1377.66,-104.434 1420,-76 1436.24,-65.0924 1446.48,-44.7208 1452.18,-29.6799"/>
<polygon fill="midnightblue" stroke="midnightblue" points="1455.61,-30.4762 1455.56,-19.8816 1448.99,-28.198 1455.61,-30.4762"/>
</g>
<!-- Node16&#45;&gt;Node12 -->
<g id="edge24" class="edge"><title>Node16&#45;&gt;Node12</title>
<path fill="none" stroke="midnightblue" d="M1058.72,-112.485C1031.01,-105.702 995.473,-94.2485 968,-76 949.129,-63.4655 932.696,-43.1159 922.386,-28.524"/>
<polygon fill="midnightblue" stroke="midnightblue" points="925.046,-26.2111 916.531,-19.9066 919.256,-30.145 925.046,-26.2111"/>
</g>
<!-- Node16&#45;&gt;Node14 -->
<g id="edge25" class="edge"><title>Node16&#45;&gt;Node14</title>
<path fill="none" stroke="midnightblue" d="M1051.46,-113.053C1048.26,-112.666 1045.09,-112.311 1042,-112 746.613,-82.3021 671.091,-97.5788 375,-76 363.085,-75.1317 350.368,-74.0662 338.176,-72.9762"/>
<polygon fill="midnightblue" stroke="midnightblue" points="338.363,-69.4789 328.087,-72.0586 337.729,-76.4501 338.363,-69.4789"/>
</g>
<!-- Node17 -->
<g id="node17" class="node"><title>Node17</title>
<polygon fill="white" stroke="#bfbfbf" points="1090.5,-0.5 1090.5,-19.5 1179.5,-19.5 1179.5,-0.5 1090.5,-0.5"/>
<text text-anchor="middle" x="1135" y="-7.5" font-family="Helvetica,sans-Serif" font-size="10.00">stm32f4xx_tim.h</text>
</g>
<!-- Node16&#45;&gt;Node17 -->
<g id="edge26" class="edge"><title>Node16&#45;&gt;Node17</title>
<path fill="none" stroke="midnightblue" d="M1112.56,-112.45C1121.09,-104.12 1132.99,-90.6042 1138,-76 1143.16,-60.9738 1141.74,-42.8422 1139.42,-29.5511"/>
<polygon fill="midnightblue" stroke="midnightblue" points="1142.84,-28.7823 1137.38,-19.6994 1135.98,-30.2013 1142.84,-28.7823"/>
</g>
<!-- Node18 -->
<g id="node18" class="node"><title>Node18</title>
<g id="a_node18"><a xlink:href="a00058_source.html" target="_top" xlink:title="tm_stm32f4_timer_properties.h">
<polygon fill="white" stroke="black" points="977,-56.5 977,-75.5 1129,-75.5 1129,-56.5 977,-56.5"/>
<text text-anchor="middle" x="1053" y="-63.5" font-family="Helvetica,sans-Serif" font-size="10.00">tm_stm32f4_timer_properties.h</text>
</a>
</g>
</g>
<!-- Node16&#45;&gt;Node18 -->
<g id="edge27" class="edge"><title>Node16&#45;&gt;Node18</title>
<path fill="none" stroke="midnightblue" d="M1094.74,-112.083C1087.54,-104.298 1076.89,-92.8015 1068.15,-83.3665"/>
<polygon fill="midnightblue" stroke="midnightblue" points="1070.47,-80.7108 1061.1,-75.7511 1065.33,-85.4666 1070.47,-80.7108"/>
</g>
<!-- Node18&#45;&gt;Node3 -->
<g id="edge28" class="edge"><title>Node18&#45;&gt;Node3</title>
<path fill="none" stroke="midnightblue" d="M976.926,-57.4347C862.284,-46.0338 648.747,-24.798 555.515,-15.5264"/>
<polygon fill="midnightblue" stroke="midnightblue" points="555.846,-12.0421 545.549,-14.5352 555.153,-19.0077 555.846,-12.0421"/>
</g>
<!-- Node18&#45;&gt;Node10 -->
<g id="edge31" class="edge"><title>Node18&#45;&gt;Node10</title>
<path fill="none" stroke="midnightblue" d="M1117.17,-56.4435C1202.46,-45.0721 1350.45,-25.3399 1419.92,-16.0771"/>
<polygon fill="midnightblue" stroke="midnightblue" points="1420.53,-19.527 1429.98,-14.7359 1419.61,-12.5884 1420.53,-19.527"/>
</g>
<!-- Node18&#45;&gt;Node12 -->
<g id="edge29" class="edge"><title>Node18&#45;&gt;Node12</title>
<path fill="none" stroke="midnightblue" d="M1030.5,-56.4435C1006.92,-47.4776 969.678,-33.314 943.036,-23.1827"/>
<polygon fill="midnightblue" stroke="midnightblue" points="943.986,-19.7995 933.395,-19.5164 941.498,-26.3424 943.986,-19.7995"/>
</g>
<!-- Node18&#45;&gt;Node17 -->
<g id="edge30" class="edge"><title>Node18&#45;&gt;Node17</title>
<path fill="none" stroke="midnightblue" d="M1066.17,-56.324C1078.85,-47.979 1098.23,-35.2122 1113.21,-25.3524"/>
<polygon fill="midnightblue" stroke="midnightblue" points="1115.43,-28.0776 1121.86,-19.6545 1111.58,-22.2313 1115.43,-28.0776"/>
</g>
<!-- Node19&#45;&gt;Node3 -->
<g id="edge35" class="edge"><title>Node19&#45;&gt;Node3</title>
<path fill="none" stroke="midnightblue" d="M413.149,-112.315C391.85,-100.173 359.701,-77.2261 375,-56 395.181,-27.9999 433.541,-17.1589 464.229,-13.0875"/>
<polygon fill="midnightblue" stroke="midnightblue" points="464.759,-16.5499 474.304,-11.9512 463.975,-9.59399 464.759,-16.5499"/>
</g>
<!-- Node19&#45;&gt;Node9 -->
<g id="edge39" class="edge"><title>Node19&#45;&gt;Node9</title>
<path fill="none" stroke="midnightblue" d="M383.573,-112.444C327.484,-102.106 233.905,-84.8597 179.593,-74.8498"/>
<polygon fill="midnightblue" stroke="midnightblue" points="180.07,-71.3789 169.601,-73.0084 178.801,-78.263 180.07,-71.3789"/>
</g>
<!-- Node19&#45;&gt;Node10 -->
<g id="edge40" class="edge"><title>Node19&#45;&gt;Node10</title>
<path fill="none" stroke="midnightblue" d="M482.039,-121.009C605.011,-120.354 922.927,-114.708 1185,-76 1269.95,-63.4533 1367.33,-37.3728 1419.76,-22.3411"/>
<polygon fill="midnightblue" stroke="midnightblue" points="1420.99,-25.6278 1429.63,-19.4893 1419.05,-18.9029 1420.99,-25.6278"/>
</g>
<!-- Node19&#45;&gt;Node12 -->
<g id="edge36" class="edge"><title>Node19&#45;&gt;Node12</title>
<path fill="none" stroke="midnightblue" d="M454.316,-112.447C493.58,-98.8952 573.567,-72.3507 643,-56 715.911,-38.8305 801.466,-25.6492 855.938,-18.1131"/>
<polygon fill="midnightblue" stroke="midnightblue" points="856.638,-21.5501 866.071,-16.7268 855.689,-14.6147 856.638,-21.5501"/>
</g>
<!-- Node19&#45;&gt;Node14 -->
<g id="edge37" class="edge"><title>Node19&#45;&gt;Node14</title>
<path fill="none" stroke="midnightblue" d="M405.757,-112.444C380.129,-103.399 339.515,-89.064 310.762,-78.9158"/>
<polygon fill="midnightblue" stroke="midnightblue" points="311.725,-75.5442 301.13,-75.5164 309.395,-82.1452 311.725,-75.5442"/>
</g>
<!-- Node20 -->
<g id="node20" class="node"><title>Node20</title>
<polygon fill="white" stroke="#bfbfbf" points="1280,-0.5 1280,-19.5 1326,-19.5 1326,-0.5 1280,-0.5"/>
<text text-anchor="middle" x="1303" y="-7.5" font-family="Helvetica,sans-Serif" font-size="10.00">misc.h</text>
</g>
<!-- Node19&#45;&gt;Node20 -->
<g id="edge34" class="edge"><title>Node19&#45;&gt;Node20</title>
<path fill="none" stroke="midnightblue" d="M482.152,-119.787C623.726,-116.16 1012.98,-103.875 1138,-76 1189.2,-64.5847 1245.33,-39.5736 1277.15,-24.1195"/>
<polygon fill="midnightblue" stroke="midnightblue" points="1278.79,-27.2141 1286.22,-19.6559 1275.7,-20.9344 1278.79,-27.2141"/>
</g>
<!-- Node21 -->
<g id="node21" class="node"><title>Node21</title>
<polygon fill="white" stroke="#bfbfbf" points="384,-56.5 384,-75.5 482,-75.5 482,-56.5 384,-56.5"/>
<text text-anchor="middle" x="433" y="-63.5" font-family="Helvetica,sans-Serif" font-size="10.00">stm32f4xx_usart.h</text>
</g>
<!-- Node19&#45;&gt;Node21 -->
<g id="edge38" class="edge"><title>Node19&#45;&gt;Node21</title>
<path fill="none" stroke="midnightblue" d="M430.495,-112.083C430.889,-105.006 431.452,-94.8611 431.945,-85.9865"/>
<polygon fill="midnightblue" stroke="midnightblue" points="435.454,-85.9299 432.514,-75.7511 428.464,-85.5415 435.454,-85.9299"/>
</g>
<!-- Node24&#45;&gt;Node3 -->
<g id="edge48" class="edge"><title>Node24&#45;&gt;Node3</title>
<path fill="none" stroke="midnightblue" d="M1838.85,-63.0532C1818,-61.001 1783.67,-57.819 1754,-56 1513.99,-41.2833 751.259,-18.1493 555.923,-12.3518"/>
<polygon fill="midnightblue" stroke="midnightblue" points="555.824,-8.84737 545.724,-12.0495 555.616,-15.8443 555.824,-8.84737"/>
</g>
<!-- Node24&#45;&gt;Node5 -->
<g id="edge45" class="edge"><title>Node24&#45;&gt;Node5</title>
<path fill="none" stroke="midnightblue" d="M1877.01,-61.3706C1912.57,-54.4896 1991.78,-38.7422 2068.19,-20.0765"/>
<polygon fill="midnightblue" stroke="midnightblue" points="2069.1,-23.4565 2077.97,-17.666 2067.43,-16.6597 2069.1,-23.4565"/>
</g>
<!-- Node24&#45;&gt;Node6 -->
<g id="edge44" class="edge"><title>Node24&#45;&gt;Node6</title>
<path fill="none" stroke="midnightblue" d="M1874.07,-56.324C1889.96,-47.7428 1914.51,-34.486 1932.96,-24.5224"/>
<polygon fill="midnightblue" stroke="midnightblue" points="1934.84,-27.4857 1941.97,-19.6545 1931.51,-21.3264 1934.84,-27.4857"/>
</g>
<!-- Node24&#45;&gt;Node7 -->
<g id="edge46" class="edge"><title>Node24&#45;&gt;Node7</title>
<path fill="none" stroke="midnightblue" d="M1863.45,-56.083C1868.01,-48.6127 1874.67,-37.7244 1880.29,-28.5199"/>
<polygon fill="midnightblue" stroke="midnightblue" points="1883.42,-30.109 1885.65,-19.7511 1877.45,-26.4588 1883.42,-30.109"/>
</g>
<!-- Node24&#45;&gt;Node10 -->
<g id="edge49" class="edge"><title>Node24&#45;&gt;Node10</title>
<path fill="none" stroke="midnightblue" d="M1838.92,-59.2934C1834.38,-58.0781 1829.54,-56.8936 1825,-56 1706.32,-32.667 1563.53,-19.3035 1496.41,-13.8741"/>
<polygon fill="midnightblue" stroke="midnightblue" points="1496.55,-10.3742 1486.3,-13.0705 1496,-17.3522 1496.55,-10.3742"/>
</g>
<!-- Node25 -->
<g id="node25" class="node"><title>Node25</title>
<polygon fill="white" stroke="#bfbfbf" points="1799.5,-0.5 1799.5,-19.5 1848.5,-19.5 1848.5,-0.5 1799.5,-0.5"/>
<text text-anchor="middle" x="1824" y="-7.5" font-family="Helvetica,sans-Serif" font-size="10.00">stdint.h</text>
</g>
<!-- Node24&#45;&gt;Node25 -->
<g id="edge47" class="edge"><title>Node24&#45;&gt;Node25</title>
<path fill="none" stroke="midnightblue" d="M1852.39,-56.083C1847.63,-48.5341 1840.68,-37.4948 1834.85,-28.2298"/>
<polygon fill="midnightblue" stroke="midnightblue" points="1837.8,-26.3486 1829.51,-19.7511 1831.88,-30.0783 1837.8,-26.3486"/>
</g>
<!-- Node26&#45;&gt;Node5 -->
<g id="edge51" class="edge"><title>Node26&#45;&gt;Node5</title>
<path fill="none" stroke="midnightblue" d="M1624.54,-225.934C1627.73,-225.269 1630.93,-224.614 1634,-224 1719.99,-206.811 1746.54,-220.474 1828,-188 1933.32,-146.014 2041.31,-61.0537 2083.04,-26.321"/>
<polygon fill="midnightblue" stroke="midnightblue" points="2085.51,-28.8179 2090.92,-19.7053 2081.01,-23.4586 2085.51,-28.8179"/>
</g>
<!-- Node26&#45;&gt;Node10 -->
<g id="edge68" class="edge"><title>Node26&#45;&gt;Node10</title>
<path fill="none" stroke="midnightblue" d="M1613.61,-224.469C1673.3,-199.743 1832.14,-125.378 1772,-56 1736.69,-15.2642 1571.72,-10.5166 1496.08,-10.5368"/>
<polygon fill="midnightblue" stroke="midnightblue" points="1496.01,-7.03685 1486.02,-10.568 1496.03,-14.0368 1496.01,-7.03685"/>
</g>
<!-- Node26&#45;&gt;Node24 -->
<g id="edge77" class="edge"><title>Node26&#45;&gt;Node24</title>
<path fill="none" stroke="midnightblue" d="M1624.62,-225.513C1675.05,-213.849 1766.82,-192.234 1773,-188 1811.51,-161.598 1838.2,-111.645 1850.43,-84.9248"/>
<polygon fill="midnightblue" stroke="midnightblue" points="1853.7,-86.184 1854.53,-75.6218 1847.29,-83.3607 1853.7,-86.184"/>
</g>
<!-- Node26&#45;&gt;Node27 -->
<g id="edge52" class="edge"><title>Node26&#45;&gt;Node27</title>
<path fill="none" stroke="midnightblue" d="M1588.55,-224.202C1588.5,-211.335 1592.56,-186.862 1585,-168 1580.51,-156.804 1571.76,-146.817 1564.07,-139.112"/>
<polygon fill="midnightblue" stroke="midnightblue" points="1566.01,-136.122 1556.38,-131.698 1561.15,-141.16 1566.01,-136.122"/>
</g>
<!-- Node26&#45;&gt;Node31 -->
<g id="edge78" class="edge"><title>Node26&#45;&gt;Node31</title>
<path fill="none" stroke="midnightblue" d="M1624.62,-226.017C1681.46,-213.824 1793.04,-189.77 1797,-188 1858.53,-160.512 1920.05,-108.384 1948.57,-82.4525"/>
<polygon fill="midnightblue" stroke="midnightblue" points="1951.03,-84.9386 1956.01,-75.588 1946.29,-79.791 1951.03,-84.9386"/>
</g>
<!-- Node26&#45;&gt;Node33 -->
<g id="edge69" class="edge"><title>Node26&#45;&gt;Node33</title>
<path fill="none" stroke="midnightblue" d="M1584.07,-224.083C1577.15,-216.298 1566.93,-204.801 1558.55,-195.367"/>
<polygon fill="midnightblue" stroke="midnightblue" points="1561.04,-192.9 1551.78,-187.751 1555.81,-197.55 1561.04,-192.9"/>
</g>
<!-- Node26&#45;&gt;Node34 -->
<g id="edge73" class="edge"><title>Node26&#45;&gt;Node34</title>
<path fill="none" stroke="midnightblue" d="M1559.42,-230.097C1457.74,-221.036 1146.16,-193.272 1030.14,-182.933"/>
<polygon fill="midnightblue" stroke="midnightblue" points="1030.13,-179.419 1019.86,-182.017 1029.51,-186.391 1030.13,-179.419"/>
</g>
<!-- Node27&#45;&gt;Node3 -->
<g id="edge61" class="edge"><title>Node27&#45;&gt;Node3</title>
<path fill="none" stroke="midnightblue" d="M1507.73,-119.928C1338.55,-115.589 726.948,-98.4835 643,-76 624.184,-70.9604 621.453,-64.6509 604,-56 581.774,-44.9838 556.394,-32.8603 537.613,-23.9753"/>
<polygon fill="midnightblue" stroke="midnightblue" points="538.981,-20.7511 528.444,-19.6471 535.993,-27.0812 538.981,-20.7511"/>
</g>
<!-- Node27&#45;&gt;Node4 -->
<g id="edge56" class="edge"><title>Node27&#45;&gt;Node4</title>
<path fill="none" stroke="midnightblue" d="M1540.25,-131.61C1528.44,-139.128 1511.03,-151.435 1503,-168 1487.02,-200.966 1492.81,-245.165 1495.28,-269.998"/>
<polygon fill="midnightblue" stroke="midnightblue" points="1491.82,-270.531 1496.11,-280.217 1498.79,-269.968 1491.82,-270.531"/>
</g>
<!-- Node27&#45;&gt;Node10 -->
<g id="edge53" class="edge"><title>Node27&#45;&gt;Node10</title>
<path fill="none" stroke="midnightblue" d="M1567.57,-112.462C1588.96,-100.307 1621.67,-77.1397 1606,-56 1581,-22.2706 1531.34,-12.9548 1496.47,-10.8137"/>
<polygon fill="midnightblue" stroke="midnightblue" points="1496.31,-7.30326 1486.16,-10.3604 1496,-14.2965 1496.31,-7.30326"/>
</g>
<!-- Node27&#45;&gt;Node12 -->
<g id="edge60" class="edge"><title>Node27&#45;&gt;Node12</title>
<path fill="none" stroke="midnightblue" d="M1507.76,-113.569C1394.83,-94.1576 1091.08,-41.9513 965.988,-20.4511"/>
<polygon fill="midnightblue" stroke="midnightblue" points="966.318,-16.9566 955.87,-18.712 965.133,-23.8555 966.318,-16.9566"/>
</g>
<!-- Node27&#45;&gt;Node24 -->
<g id="edge57" class="edge"><title>Node27&#45;&gt;Node24</title>
<path fill="none" stroke="midnightblue" d="M1594.01,-113.435C1657.44,-102.278 1774.42,-81.7019 1828.79,-72.1375"/>
<polygon fill="midnightblue" stroke="midnightblue" points="1829.56,-75.557 1838.8,-70.3775 1828.34,-68.6628 1829.56,-75.557"/>
</g>
<!-- Node27&#45;&gt;Node26 -->
<g id="edge67" class="edge"><title>Node27&#45;&gt;Node26</title>
<path fill="none" stroke="midnightblue" d="M1570.61,-131.698C1582.87,-139.749 1596.89,-152.755 1603,-168 1608.97,-182.884 1607.7,-201.26 1603.85,-214.672"/>
<polygon fill="midnightblue" stroke="midnightblue" points="1600.51,-213.61 1600.3,-224.202 1607.07,-216.055 1600.51,-213.61"/>
</g>
<!-- Node28 -->
<g id="node28" class="node"><title>Node28</title>
<g id="a_node28"><a xlink:href="a00041.html" target="_top" xlink:title="Provides nested vector interrupt controller configuration methods. ">
<polygon fill="white" stroke="black" points="1337,-56.5 1337,-75.5 1411,-75.5 1411,-56.5 1337,-56.5"/>
<text text-anchor="middle" x="1374" y="-63.5" font-family="Helvetica,sans-Serif" font-size="10.00">nvic_config.h</text>
</a>
</g>
</g>
<!-- Node27&#45;&gt;Node28 -->
<g id="edge54" class="edge"><title>Node27&#45;&gt;Node28</title>
<path fill="none" stroke="midnightblue" d="M1522.95,-112.444C1492.92,-103.28 1445.09,-88.6876 1411.76,-78.5192"/>
<polygon fill="midnightblue" stroke="midnightblue" points="1412.5,-75.0869 1401.91,-75.5164 1410.46,-81.7822 1412.5,-75.0869"/>
</g>
<!-- Node29 -->
<g id="node29" class="node"><title>Node29</title>
<polygon fill="white" stroke="#bfbfbf" points="1653,-56.5 1653,-75.5 1745,-75.5 1745,-56.5 1653,-56.5"/>
<text text-anchor="middle" x="1699" y="-63.5" font-family="Helvetica,sans-Serif" font-size="10.00">stm32f4xx_adc.h</text>
</g>
<!-- Node27&#45;&gt;Node29 -->
<g id="edge58" class="edge"><title>Node27&#45;&gt;Node29</title>
<path fill="none" stroke="midnightblue" d="M1574.45,-112.444C1599.13,-103.438 1638.19,-89.1891 1665.98,-79.049"/>
<polygon fill="midnightblue" stroke="midnightblue" points="1667.46,-82.2321 1675.66,-75.5164 1665.06,-75.6561 1667.46,-82.2321"/>
</g>
<!-- Node30 -->
<g id="node30" class="node"><title>Node30</title>
<polygon fill="white" stroke="#bfbfbf" points="1505,-56.5 1505,-75.5 1597,-75.5 1597,-56.5 1505,-56.5"/>
<text text-anchor="middle" x="1551" y="-63.5" font-family="Helvetica,sans-Serif" font-size="10.00">stm32f4xx_dac.h</text>
</g>
<!-- Node27&#45;&gt;Node30 -->
<g id="edge59" class="edge"><title>Node27&#45;&gt;Node30</title>
<path fill="none" stroke="midnightblue" d="M1551,-112.083C1551,-105.006 1551,-94.8611 1551,-85.9865"/>
<polygon fill="midnightblue" stroke="midnightblue" points="1554.5,-85.751 1551,-75.7511 1547.5,-85.7511 1554.5,-85.751"/>
</g>
<!-- Node27&#45;&gt;Node31 -->
<g id="edge62" class="edge"><title>Node27&#45;&gt;Node31</title>
<path fill="none" stroke="midnightblue" d="M1594.13,-115.374C1676.22,-104.667 1853.47,-81.5475 1929.35,-71.6499"/>
<polygon fill="midnightblue" stroke="midnightblue" points="1929.9,-75.1079 1939.36,-70.3438 1929,-68.1667 1929.9,-75.1079"/>
</g>
<!-- Node28&#45;&gt;Node20 -->
<g id="edge55" class="edge"><title>Node28&#45;&gt;Node20</title>
<path fill="none" stroke="midnightblue" d="M1362.59,-56.324C1351.89,-48.1849 1335.66,-35.8395 1322.84,-26.0874"/>
<polygon fill="midnightblue" stroke="midnightblue" points="1324.69,-23.1018 1314.61,-19.8339 1320.46,-28.6734 1324.69,-23.1018"/>
</g>
<!-- Node31&#45;&gt;Node5 -->
<g id="edge63" class="edge"><title>Node31&#45;&gt;Node5</title>
<path fill="none" stroke="midnightblue" d="M1986.55,-56.4435C2009.03,-47.5171 2044.49,-33.4387 2069.98,-23.3168"/>
<polygon fill="midnightblue" stroke="midnightblue" points="2071.55,-26.4598 2079.55,-19.5164 2068.97,-19.9539 2071.55,-26.4598"/>
</g>
<!-- Node31&#45;&gt;Node6 -->
<g id="edge65" class="edge"><title>Node31&#45;&gt;Node6</title>
<path fill="none" stroke="midnightblue" d="M1963.84,-56.083C1962.92,-48.9272 1961.58,-38.6353 1960.42,-29.6911"/>
<polygon fill="midnightblue" stroke="midnightblue" points="1963.89,-29.2181 1959.13,-19.7511 1956.95,-30.1181 1963.89,-29.2181"/>
</g>
<!-- Node31&#45;&gt;Node7 -->
<g id="edge64" class="edge"><title>Node31&#45;&gt;Node7</title>
<path fill="none" stroke="midnightblue" d="M1953.11,-56.324C1941.85,-48.1066 1924.71,-35.6017 1911.29,-25.8069"/>
<polygon fill="midnightblue" stroke="midnightblue" points="1913.25,-22.9014 1903.11,-19.8339 1909.12,-28.5559 1913.25,-22.9014"/>
</g>
<!-- Node32 -->
<g id="node32" class="node"><title>Node32</title>
<polygon fill="white" stroke="#bfbfbf" points="2000.5,-0.5 2000.5,-19.5 2059.5,-19.5 2059.5,-0.5 2000.5,-0.5"/>
<text text-anchor="middle" x="2030" y="-7.5" font-family="Helvetica,sans-Serif" font-size="10.00">inttypes.h</text>
</g>
<!-- Node31&#45;&gt;Node32 -->
<g id="edge66" class="edge"><title>Node31&#45;&gt;Node32</title>
<path fill="none" stroke="midnightblue" d="M1975.44,-56.324C1985.15,-48.2631 1999.82,-36.0765 2011.5,-26.3695"/>
<polygon fill="midnightblue" stroke="midnightblue" points="2013.91,-28.9163 2019.37,-19.8339 2009.44,-23.532 2013.91,-28.9163"/>
</g>
<!-- Node33&#45;&gt;Node4 -->
<g id="edge70" class="edge"><title>Node33&#45;&gt;Node4</title>
<path fill="none" stroke="midnightblue" d="M1543.93,-187.591C1539.14,-205.629 1520.42,-247.744 1506.97,-271.64"/>
<polygon fill="midnightblue" stroke="midnightblue" points="1503.88,-269.987 1501.77,-280.368 1509.89,-273.573 1503.88,-269.987"/>
</g>
<!-- Node33&#45;&gt;Node10 -->
<g id="edge71" class="edge"><title>Node33&#45;&gt;Node10</title>
<path fill="none" stroke="midnightblue" d="M1585.22,-169.87C1660.31,-155.183 1807,-117.668 1754,-56 1721.22,-17.8638 1568.91,-11.6688 1496.47,-10.9173"/>
<polygon fill="midnightblue" stroke="midnightblue" points="1496.41,-7.41687 1486.39,-10.8428 1496.36,-14.4167 1496.41,-7.41687"/>
</g>
<!-- Node33&#45;&gt;Node27 -->
<g id="edge72" class="edge"><title>Node33&#45;&gt;Node27</title>
<path fill="none" stroke="midnightblue" d="M1545.16,-168.083C1546.08,-160.927 1547.42,-150.635 1548.58,-141.691"/>
<polygon fill="midnightblue" stroke="midnightblue" points="1552.05,-142.118 1549.87,-131.751 1545.11,-141.218 1552.05,-142.118"/>
</g>
<!-- Node34&#45;&gt;Node3 -->
<g id="edge74" class="edge"><title>Node34&#45;&gt;Node3</title>
<path fill="none" stroke="midnightblue" d="M952.32,-175.799C877.445,-171.734 693.721,-153.924 566,-76 546.599,-64.1633 530.432,-43.3465 520.535,-28.4587"/>
<polygon fill="midnightblue" stroke="midnightblue" points="523.28,-26.2525 514.966,-19.6854 517.37,-30.0039 523.28,-26.2525"/>
</g>
<!-- Node34&#45;&gt;Node12 -->
<g id="edge76" class="edge"><title>Node34&#45;&gt;Node12</title>
<path fill="none" stroke="midnightblue" d="M969.709,-168.416C956.754,-160.688 939.311,-148.083 930,-132 911.328,-99.7503 909.316,-54.9515 909.905,-29.8974"/>
<polygon fill="midnightblue" stroke="midnightblue" points="913.414,-29.7422 910.325,-19.6078 906.42,-29.4569 913.414,-29.7422"/>
</g>
<!-- Node35 -->
<g id="node35" class="node"><title>Node35</title>
<polygon fill="white" stroke="#bfbfbf" points="939,-112.5 939,-131.5 1033,-131.5 1033,-112.5 939,-112.5"/>
<text text-anchor="middle" x="986" y="-119.5" font-family="Helvetica,sans-Serif" font-size="10.00">stm32f4xx_gpio.h</text>
</g>
<!-- Node34&#45;&gt;Node35 -->
<g id="edge75" class="edge"><title>Node34&#45;&gt;Node35</title>
<path fill="none" stroke="midnightblue" d="M986,-168.083C986,-161.006 986,-150.861 986,-141.986"/>
<polygon fill="midnightblue" stroke="midnightblue" points="989.5,-141.751 986,-131.751 982.5,-141.751 989.5,-141.751"/>
</g>
<!-- Node36&#45;&gt;Node3 -->
<g id="edge82" class="edge"><title>Node36&#45;&gt;Node3</title>
<path fill="none" stroke="midnightblue" d="M104.016,-168.398C90.1137,-160.954 72.2861,-148.741 64,-132 51.7477,-107.246 81.7247,-59.2575 86,-56 115.637,-33.4185 360.913,-18.5224 464.312,-13.1903"/>
<polygon fill="midnightblue" stroke="midnightblue" points="464.639,-16.6783 474.448,-12.6749 464.283,-9.68735 464.639,-16.6783"/>
</g>
<!-- Node37 -->
<g id="node37" class="node"><title>Node37</title>
<g id="a_node37"><a xlink:href="a00026.html" target="_top" xlink:title="Project XA&#45;Galvo scanner specific digital to analog converter methods. ">
<polygon fill="white" stroke="black" points="73,-112.5 73,-131.5 173,-131.5 173,-112.5 73,-112.5"/>
<text text-anchor="middle" x="123" y="-119.5" font-family="Helvetica,sans-Serif" font-size="10.00">md_stm32f4_dac.h</text>
</a>
</g>
</g>
<!-- Node36&#45;&gt;Node37 -->
<g id="edge83" class="edge"><title>Node36&#45;&gt;Node37</title>
<path fill="none" stroke="midnightblue" d="M123,-168.083C123,-161.006 123,-150.861 123,-141.986"/>
<polygon fill="midnightblue" stroke="midnightblue" points="126.5,-141.751 123,-131.751 119.5,-141.751 126.5,-141.751"/>
</g>
<!-- Node37&#45;&gt;Node3 -->
<g id="edge84" class="edge"><title>Node37&#45;&gt;Node3</title>
<path fill="none" stroke="midnightblue" d="M114.018,-112.46C100.971,-99.0439 79.8997,-72.8262 95,-56 119.334,-28.8844 361.512,-16.6016 464.276,-12.5801"/>
<polygon fill="midnightblue" stroke="midnightblue" points="464.497,-16.0743 474.356,-12.1948 464.23,-9.07945 464.497,-16.0743"/>
</g>
<!-- Node37&#45;&gt;Node14 -->
<g id="edge85" class="edge"><title>Node37&#45;&gt;Node14</title>
<path fill="none" stroke="midnightblue" d="M147.402,-112.444C173.197,-103.399 214.077,-89.064 243.018,-78.9158"/>
<polygon fill="midnightblue" stroke="midnightblue" points="244.434,-82.1283 252.712,-75.5164 242.118,-75.5226 244.434,-82.1283"/>
</g>
<!-- Node38&#45;&gt;Node5 -->
<g id="edge89" class="edge"><title>Node38&#45;&gt;Node5</title>
<path fill="none" stroke="midnightblue" d="M2159.67,-168.075C2149.87,-141.832 2121,-64.5453 2107.77,-29.1165"/>
<polygon fill="midnightblue" stroke="midnightblue" points="2110.98,-27.7114 2104.2,-19.5681 2104.42,-30.1607 2110.98,-27.7114"/>
</g>
</g>
</svg>
