<?xml version="1.0" encoding="UTF-8" standalone="no"?>
<!DOCTYPE svg PUBLIC "-//W3C//DTD SVG 1.1//EN"
 "http://www.w3.org/Graphics/SVG/1.1/DTD/svg11.dtd">
<!-- Generated by graphviz version 2.38.0 (20140413.2041)
 -->
<!-- Title: global_t Pages: 1 -->
<svg width="93pt" height="325pt"
 viewBox="0.00 0.00 93.00 325.00" xmlns="http://www.w3.org/2000/svg" xmlns:xlink="http://www.w3.org/1999/xlink">
<g id="graph0" class="graph" transform="scale(1 1) rotate(0) translate(4 321)">
<title>global_t</title>
<polygon fill="white" stroke="none" points="-4,4 -4,-321 89,-321 89,4 -4,4"/>
<!-- Node1 -->
<g id="node1" class="node"><title>Node1</title>
<polygon fill="#bfbfbf" stroke="black" points="0,-0.5 0,-200.5 85,-200.5 85,-0.5 0,-0.5"/>
<text text-anchor="middle" x="42.5" y="-188.5" font-family="Helvetica,sans-Serif" font-size="10.00">global_t</text>
<polyline fill="none" stroke="black" points="0,-181.5 85,-181.5 "/>
<text text-anchor="start" x="8" y="-169.5" font-family="Helvetica,sans-Serif" font-size="10.00">+ lookAt</text>
<text text-anchor="start" x="8" y="-158.5" font-family="Helvetica,sans-Serif" font-size="10.00">+ miscReq</text>
<text text-anchor="start" x="8" y="-147.5" font-family="Helvetica,sans-Serif" font-size="10.00">+ waveForm</text>
<text text-anchor="start" x="8" y="-136.5" font-family="Helvetica,sans-Serif" font-size="10.00">+ gen</text>
<text text-anchor="start" x="8" y="-125.5" font-family="Helvetica,sans-Serif" font-size="10.00">+ freq</text>
<text text-anchor="start" x="8" y="-114.5" font-family="Helvetica,sans-Serif" font-size="10.00">+ tctr</text>
<text text-anchor="start" x="8" y="-103.5" font-family="Helvetica,sans-Serif" font-size="10.00">+ ampl</text>
<text text-anchor="start" x="8" y="-92.5" font-family="Helvetica,sans-Serif" font-size="10.00">+ pBase</text>
<text text-anchor="start" x="8" y="-81.5" font-family="Helvetica,sans-Serif" font-size="10.00">+ duty</text>
<text text-anchor="start" x="8" y="-70.5" font-family="Helvetica,sans-Serif" font-size="10.00">+ dutyCyc</text>
<text text-anchor="start" x="8" y="-59.5" font-family="Helvetica,sans-Serif" font-size="10.00">+ setpointSrc</text>
<text text-anchor="start" x="8" y="-48.5" font-family="Helvetica,sans-Serif" font-size="10.00">+ refresh</text>
<text text-anchor="start" x="8" y="-37.5" font-family="Helvetica,sans-Serif" font-size="10.00">+ ampl_f</text>
<text text-anchor="start" x="8" y="-26.5" font-family="Helvetica,sans-Serif" font-size="10.00">+ beamEnabled</text>
<polyline fill="none" stroke="black" points="0,-19.5 85,-19.5 "/>
<text text-anchor="middle" x="42.5" y="-7.5" font-family="Helvetica,sans-Serif" font-size="10.00"> </text>
</g>
<!-- Node2 -->
<g id="node2" class="node"><title>Node2</title>
<g id="a_node2"><a xlink:href="a00003.html#a00151" target="_top" xlink:title="DAC output register value range data type declaration. ">
<polygon fill="white" stroke="black" points="10,-248.5 10,-316.5 75,-316.5 75,-248.5 10,-248.5"/>
<text text-anchor="middle" x="42.5" y="-304.5" font-family="Helvetica,sans-Serif" font-size="10.00">DacLimit_t</text>
<polyline fill="none" stroke="black" points="10,-297.5 75,-297.5 "/>
<text text-anchor="start" x="18" y="-285.5" font-family="Helvetica,sans-Serif" font-size="10.00">+ lowerLim</text>
<text text-anchor="start" x="18" y="-274.5" font-family="Helvetica,sans-Serif" font-size="10.00">+ upperLim</text>
<polyline fill="none" stroke="black" points="10,-267.5 75,-267.5 "/>
<text text-anchor="middle" x="42.5" y="-255.5" font-family="Helvetica,sans-Serif" font-size="10.00"> </text>
</a>
</g>
</g>
<!-- Node2&#45;&gt;Node1 -->
<g id="edge1" class="edge"><title>Node2&#45;&gt;Node1</title>
<path fill="none" stroke="#404040" d="M42.5,-248.485C42.5,-237.917 42.5,-225.569 42.5,-212.6"/>
<polygon fill="none" stroke="#404040" points="42.5001,-212.55 38.5,-206.55 42.5,-200.55 46.5,-206.55 42.5001,-212.55"/>
<text text-anchor="middle" x="62.5" y="-222" font-family="Helvetica,sans-Serif" font-size="10.00"> +dacHw</text>
</g>
</g>
</svg>
