<?xml version="1.0" encoding="UTF-8" standalone="no"?>
<!DOCTYPE svg PUBLIC "-//W3C//DTD SVG 1.1//EN"
 "http://www.w3.org/Graphics/SVG/1.1/DTD/svg11.dtd">
<!-- Generated by graphviz version 2.38.0 (20140413.2041)
 -->
<!-- Title: periph2dma_conf.c Pages: 1 -->
<svg width="187pt" height="252pt"
 viewBox="0.00 0.00 186.50 252.00" xmlns="http://www.w3.org/2000/svg" xmlns:xlink="http://www.w3.org/1999/xlink">
<g id="graph0" class="graph" transform="scale(1 1) rotate(0) translate(4 248)">
<title>periph2dma_conf.c</title>
<polygon fill="white" stroke="none" points="-4,4 -4,-248 182.5,-248 182.5,4 -4,4"/>
<!-- Node1 -->
<g id="node1" class="node"><title>Node1</title>
<polygon fill="#bfbfbf" stroke="black" points="0,-224.5 0,-243.5 99,-243.5 99,-224.5 0,-224.5"/>
<text text-anchor="middle" x="49.5" y="-231.5" font-family="Helvetica,sans-Serif" font-size="10.00">periph2dma_conf.c</text>
</g>
<!-- Node2 -->
<g id="node2" class="node"><title>Node2</title>
<g id="a_node2"><a xlink:href="a00043.html" target="_top" xlink:title="Provides initialization methods to configure analog subsystems and DMA controller. ">
<polygon fill="white" stroke="black" points="0,-168.5 0,-187.5 99,-187.5 99,-168.5 0,-168.5"/>
<text text-anchor="middle" x="49.5" y="-175.5" font-family="Helvetica,sans-Serif" font-size="10.00">periph2dma_conf.h</text>
</a>
</g>
</g>
<!-- Node1&#45;&gt;Node2 -->
<g id="edge1" class="edge"><title>Node1&#45;&gt;Node2</title>
<path fill="none" stroke="midnightblue" d="M49.5,-224.083C49.5,-217.006 49.5,-206.861 49.5,-197.986"/>
<polygon fill="midnightblue" stroke="midnightblue" points="53.0001,-197.751 49.5,-187.751 46.0001,-197.751 53.0001,-197.751"/>
</g>
<!-- Node3 -->
<g id="node3" class="node"><title>Node3</title>
<polygon fill="white" stroke="#bfbfbf" points="13,-0.5 13,-19.5 84,-19.5 84,-0.5 13,-0.5"/>
<text text-anchor="middle" x="48.5" y="-7.5" font-family="Helvetica,sans-Serif" font-size="10.00">stm32f4xx.h</text>
</g>
<!-- Node2&#45;&gt;Node3 -->
<g id="edge2" class="edge"><title>Node2&#45;&gt;Node3</title>
<path fill="none" stroke="midnightblue" d="M44.3698,-168.407C39.4422,-159.614 32.3396,-145.381 29.5,-132 21.8057,-95.7427 33.3974,-52.764 41.5794,-29.0256"/>
<polygon fill="midnightblue" stroke="midnightblue" points="44.891,-30.1599 45.0172,-19.5658 38.312,-27.769 44.891,-30.1599"/>
</g>
<!-- Node4 -->
<g id="node4" class="node"><title>Node4</title>
<g id="a_node4"><a xlink:href="a00026.html" target="_top" xlink:title="Project XA&#45;Galvo scanner specific digital to analog converter methods. ">
<polygon fill="white" stroke="black" points="38.5,-112.5 38.5,-131.5 138.5,-131.5 138.5,-112.5 38.5,-112.5"/>
<text text-anchor="middle" x="88.5" y="-119.5" font-family="Helvetica,sans-Serif" font-size="10.00">md_stm32f4_dac.h</text>
</a>
</g>
</g>
<!-- Node2&#45;&gt;Node4 -->
<g id="edge3" class="edge"><title>Node2&#45;&gt;Node4</title>
<path fill="none" stroke="midnightblue" d="M55.9401,-168.083C61.4489,-160.455 69.5312,-149.264 76.265,-139.941"/>
<polygon fill="midnightblue" stroke="midnightblue" points="79.1622,-141.907 82.1798,-131.751 73.4874,-137.809 79.1622,-141.907"/>
</g>
<!-- Node4&#45;&gt;Node3 -->
<g id="edge4" class="edge"><title>Node4&#45;&gt;Node3</title>
<path fill="none" stroke="midnightblue" d="M83.9082,-112.207C79.3525,-103.259 72.3658,-88.9074 67.5,-76 61.6679,-60.5296 56.51,-42.4418 53.0453,-29.2804"/>
<polygon fill="midnightblue" stroke="midnightblue" points="56.4251,-28.3695 50.5556,-19.5491 49.6435,-30.1046 56.4251,-28.3695"/>
</g>
<!-- Node5 -->
<g id="node5" class="node"><title>Node5</title>
<g id="a_node5"><a xlink:href="a00034.html" target="_top" xlink:title="Provides generic methods for GPIO module initialization and manipulation. ">
<polygon fill="white" stroke="black" points="76.5,-56.5 76.5,-75.5 178.5,-75.5 178.5,-56.5 76.5,-56.5"/>
<text text-anchor="middle" x="127.5" y="-63.5" font-family="Helvetica,sans-Serif" font-size="10.00">md_stm32f4_gpio.h</text>
</a>
</g>
</g>
<!-- Node4&#45;&gt;Node5 -->
<g id="edge5" class="edge"><title>Node4&#45;&gt;Node5</title>
<path fill="none" stroke="midnightblue" d="M94.9401,-112.083C100.449,-104.455 108.531,-93.2645 115.265,-83.9408"/>
<polygon fill="midnightblue" stroke="midnightblue" points="118.162,-85.9071 121.18,-75.7511 112.487,-81.8087 118.162,-85.9071"/>
</g>
<!-- Node5&#45;&gt;Node3 -->
<g id="edge6" class="edge"><title>Node5&#45;&gt;Node3</title>
<path fill="none" stroke="midnightblue" d="M114.807,-56.324C102.599,-47.979 83.9215,-35.2122 69.4971,-25.3524"/>
<polygon fill="midnightblue" stroke="midnightblue" points="71.392,-22.4082 61.1612,-19.6545 67.4418,-28.1871 71.392,-22.4082"/>
</g>
</g>
</svg>
