<?xml version="1.0" encoding="UTF-8" standalone="no"?>
<!DOCTYPE svg PUBLIC "-//W3C//DTD SVG 1.1//EN"
 "http://www.w3.org/Graphics/SVG/1.1/DTD/svg11.dtd">
<!-- Generated by graphviz version 2.38.0 (20140413.2041)
 -->
<!-- Title: stm32f4xx_it.c Pages: 1 -->
<svg width="2369pt" height="364pt"
 viewBox="0.00 0.00 2369.24 364.00" xmlns="http://www.w3.org/2000/svg" xmlns:xlink="http://www.w3.org/1999/xlink">
<g id="graph0" class="graph" transform="scale(1 1) rotate(0) translate(4 360)">
<title>stm32f4xx_it.c</title>
<polygon fill="white" stroke="none" points="-4,4 -4,-360 2365.24,-360 2365.24,4 -4,4"/>
<!-- Node1 -->
<g id="node1" class="node"><title>Node1</title>
<polygon fill="#bfbfbf" stroke="black" points="1147.5,-336.5 1147.5,-355.5 1228.5,-355.5 1228.5,-336.5 1147.5,-336.5"/>
<text text-anchor="middle" x="1188" y="-343.5" font-family="Helvetica,sans-Serif" font-size="10.00">stm32f4xx_it.c</text>
</g>
<!-- Node2 -->
<g id="node2" class="node"><title>Node2</title>
<g id="a_node2"><a xlink:href="a00054_source.html" target="_top" xlink:title="stm32f4xx_it.h">
<polygon fill="white" stroke="black" points="724.5,-280.5 724.5,-299.5 805.5,-299.5 805.5,-280.5 724.5,-280.5"/>
<text text-anchor="middle" x="765" y="-287.5" font-family="Helvetica,sans-Serif" font-size="10.00">stm32f4xx_it.h</text>
</a>
</g>
</g>
<!-- Node1&#45;&gt;Node2 -->
<g id="edge1" class="edge"><title>Node1&#45;&gt;Node2</title>
<path fill="none" stroke="midnightblue" d="M1147.44,-339.822C1069.85,-329.917 900.563,-308.306 815.669,-297.468"/>
<polygon fill="midnightblue" stroke="midnightblue" points="816.109,-293.996 805.747,-296.202 815.223,-300.94 816.109,-293.996"/>
</g>
<!-- Node4 -->
<g id="node4" class="node"><title>Node4</title>
<g id="a_node4"><a xlink:href="a00025.html" target="_top" xlink:title="Main header definition. ">
<polygon fill="white" stroke="black" points="1588,-280.5 1588,-299.5 1634,-299.5 1634,-280.5 1588,-280.5"/>
<text text-anchor="middle" x="1611" y="-287.5" font-family="Helvetica,sans-Serif" font-size="10.00">main.h</text>
</a>
</g>
</g>
<!-- Node1&#45;&gt;Node4 -->
<g id="edge3" class="edge"><title>Node1&#45;&gt;Node4</title>
<path fill="none" stroke="midnightblue" d="M1228.56,-339.822C1311.9,-329.183 1501.02,-305.04 1577.74,-295.246"/>
<polygon fill="midnightblue" stroke="midnightblue" points="1578.32,-298.701 1587.79,-293.963 1577.43,-291.757 1578.32,-298.701"/>
</g>
<!-- Node3 -->
<g id="node3" class="node"><title>Node3</title>
<polygon fill="white" stroke="#bfbfbf" points="274.5,-0.5 274.5,-19.5 345.5,-19.5 345.5,-0.5 274.5,-0.5"/>
<text text-anchor="middle" x="310" y="-7.5" font-family="Helvetica,sans-Serif" font-size="10.00">stm32f4xx.h</text>
</g>
<!-- Node2&#45;&gt;Node3 -->
<g id="edge2" class="edge"><title>Node2&#45;&gt;Node3</title>
<path fill="none" stroke="midnightblue" d="M724.41,-287.486C566.257,-281.058 0,-252.882 0,-179 0,-179 0,-179 0,-121 0,-80.458 28.1721,-74.9741 64,-56 127.894,-22.1623 212.757,-13.3056 264.271,-11.2482"/>
<polygon fill="midnightblue" stroke="midnightblue" points="264.546,-14.7411 274.425,-10.9138 264.316,-7.74489 264.546,-14.7411"/>
</g>
<!-- Node5 -->
<g id="node5" class="node"><title>Node5</title>
<polygon fill="white" stroke="#bfbfbf" points="2067,-0.5 2067,-19.5 2113,-19.5 2113,-0.5 2067,-0.5"/>
<text text-anchor="middle" x="2090" y="-7.5" font-family="Helvetica,sans-Serif" font-size="10.00">stdio.h</text>
</g>
<!-- Node4&#45;&gt;Node5 -->
<g id="edge4" class="edge"><title>Node4&#45;&gt;Node5</title>
<path fill="none" stroke="midnightblue" d="M1634.02,-289.317C1710.86,-289.947 1957.23,-288.393 2020,-244 2090.26,-194.312 2093.02,-76.1389 2091.22,-29.957"/>
<polygon fill="midnightblue" stroke="midnightblue" points="2094.71,-29.6603 2090.71,-19.8524 2087.72,-30.0184 2094.71,-29.6603"/>
</g>
<!-- Node6 -->
<g id="node6" class="node"><title>Node6</title>
<polygon fill="white" stroke="#bfbfbf" points="1856,-0.5 1856,-19.5 1904,-19.5 1904,-0.5 1856,-0.5"/>
<text text-anchor="middle" x="1880" y="-7.5" font-family="Helvetica,sans-Serif" font-size="10.00">stdlib.h</text>
</g>
<!-- Node4&#45;&gt;Node6 -->
<g id="edge5" class="edge"><title>Node4&#45;&gt;Node6</title>
<path fill="none" stroke="midnightblue" d="M1634.41,-288.307C1693.65,-286.073 1847.43,-277.143 1884,-244 1945.21,-188.534 1906.24,-73.3409 1887.95,-28.9668"/>
<polygon fill="midnightblue" stroke="midnightblue" points="1891.06,-27.3332 1883.92,-19.5081 1884.62,-30.0795 1891.06,-27.3332"/>
</g>
<!-- Node7 -->
<g id="node7" class="node"><title>Node7</title>
<polygon fill="white" stroke="#bfbfbf" points="1922.5,-0.5 1922.5,-19.5 1971.5,-19.5 1971.5,-0.5 1922.5,-0.5"/>
<text text-anchor="middle" x="1947" y="-7.5" font-family="Helvetica,sans-Serif" font-size="10.00">string.h</text>
</g>
<!-- Node4&#45;&gt;Node7 -->
<g id="edge6" class="edge"><title>Node4&#45;&gt;Node7</title>
<path fill="none" stroke="midnightblue" d="M1634.14,-287.861C1713.45,-283.749 1970.94,-268.596 1998,-244 2059.84,-187.792 2033.25,-130.3 1995,-56 1988.85,-44.0602 1978.23,-33.5965 1968.54,-25.7712"/>
<polygon fill="midnightblue" stroke="midnightblue" points="1970.48,-22.8515 1960.39,-19.6027 1966.25,-28.4312 1970.48,-22.8515"/>
</g>
<!-- Node8 -->
<g id="node8" class="node"><title>Node8</title>
<polygon fill="white" stroke="#bfbfbf" points="2106,-224.5 2106,-243.5 2174,-243.5 2174,-224.5 2106,-224.5"/>
<text text-anchor="middle" x="2140" y="-231.5" font-family="Helvetica,sans-Serif" font-size="10.00">stdint&#45;gcc.h</text>
</g>
<!-- Node4&#45;&gt;Node8 -->
<g id="edge7" class="edge"><title>Node4&#45;&gt;Node8</title>
<path fill="none" stroke="midnightblue" d="M1634.12,-287.595C1703.63,-283.21 1916.75,-268.575 2092,-244 2093.28,-243.821 2094.57,-243.632 2095.87,-243.434"/>
<polygon fill="midnightblue" stroke="midnightblue" points="2096.67,-246.85 2105.98,-241.78 2095.54,-239.942 2096.67,-246.85"/>
</g>
<!-- Node9 -->
<g id="node9" class="node"><title>Node9</title>
<g id="a_node9"><a xlink:href="a00016.html" target="_top" xlink:title="Platform/Compiler dependent definitions. ">
<polygon fill="white" stroke="black" points="1216.5,-56.5 1216.5,-75.5 1281.5,-75.5 1281.5,-56.5 1216.5,-56.5"/>
<text text-anchor="middle" x="1249" y="-63.5" font-family="Helvetica,sans-Serif" font-size="10.00">attributes.h</text>
</a>
</g>
</g>
<!-- Node4&#45;&gt;Node9 -->
<g id="edge8" class="edge"><title>Node4&#45;&gt;Node9</title>
<path fill="none" stroke="midnightblue" d="M1603.33,-280.376C1595.27,-271.321 1582.24,-256.664 1571,-244 1518.96,-185.37 1521.61,-151.687 1454,-112 1426.9,-96.09 1343.24,-81.1892 1291.55,-73.1614"/>
<polygon fill="midnightblue" stroke="midnightblue" points="1292.08,-69.7017 1281.67,-71.6492 1291.02,-76.6212 1292.08,-69.7017"/>
</g>
<!-- Node10 -->
<g id="node10" class="node"><title>Node10</title>
<g id="a_node10"><a xlink:href="a00019.html" target="_top" xlink:title="Global defines include file. ">
<polygon fill="white" stroke="black" points="1431,-0.5 1431,-19.5 1487,-19.5 1487,-0.5 1431,-0.5"/>
<text text-anchor="middle" x="1459" y="-7.5" font-family="Helvetica,sans-Serif" font-size="10.00">globals.h</text>
</a>
</g>
</g>
<!-- Node4&#45;&gt;Node10 -->
<g id="edge9" class="edge"><title>Node4&#45;&gt;Node10</title>
<path fill="none" stroke="midnightblue" d="M1634.11,-287.289C1661.8,-283.911 1707.43,-273.865 1731,-244 1782.77,-178.405 1794.02,-114.144 1734,-56 1700.93,-23.9686 1565.04,-14.6924 1497.49,-12.041"/>
<polygon fill="midnightblue" stroke="midnightblue" points="1497.38,-8.53487 1487.26,-11.6699 1497.13,-15.5303 1497.38,-8.53487"/>
</g>
<!-- Node11 -->
<g id="node11" class="node"><title>Node11</title>
<g id="a_node11"><a xlink:href="a00031.html" target="_top" xlink:title="Provides SysTick&#45;Timer driven delay functions. ">
<polygon fill="white" stroke="black" points="784.5,-56.5 784.5,-75.5 891.5,-75.5 891.5,-56.5 784.5,-56.5"/>
<text text-anchor="middle" x="838" y="-63.5" font-family="Helvetica,sans-Serif" font-size="10.00">md_stm32f4_delay.h</text>
</a>
</g>
</g>
<!-- Node4&#45;&gt;Node11 -->
<g id="edge10" class="edge"><title>Node4&#45;&gt;Node11</title>
<path fill="none" stroke="midnightblue" d="M1587.9,-285.647C1545.25,-279.229 1451.44,-264.046 1374,-244 1179.33,-193.609 952.375,-110.284 869.955,-79.1941"/>
<polygon fill="midnightblue" stroke="midnightblue" points="871.001,-75.8476 860.409,-75.5826 868.524,-82.3947 871.001,-75.8476"/>
</g>
<!-- Node13 -->
<g id="node13" class="node"><title>Node13</title>
<g id="a_node13"><a xlink:href="a00033.html" target="_top" xlink:title="Definitions to extend board support for STM32F429i&#45;DISCO and equivalent boards. ">
<polygon fill="white" stroke="black" points="348.5,-112.5 348.5,-131.5 455.5,-131.5 455.5,-112.5 348.5,-112.5"/>
<text text-anchor="middle" x="402" y="-119.5" font-family="Helvetica,sans-Serif" font-size="10.00">md_stm32f4_disco.h</text>
</a>
</g>
</g>
<!-- Node4&#45;&gt;Node13 -->
<g id="edge14" class="edge"><title>Node4&#45;&gt;Node13</title>
<path fill="none" stroke="midnightblue" d="M1587.82,-288.464C1472.24,-285.675 957.426,-271.881 800,-244 659.645,-219.143 499.14,-160.692 432.981,-135.222"/>
<polygon fill="midnightblue" stroke="midnightblue" points="434.143,-131.919 423.554,-131.569 431.614,-138.446 434.143,-131.919"/>
</g>
<!-- Node15 -->
<g id="node15" class="node"><title>Node15</title>
<g id="a_node15"><a xlink:href="a00037_source.html" target="_top" xlink:title="md_stm32f4_timer.h">
<polygon fill="white" stroke="black" points="376,-56.5 376,-75.5 482,-75.5 482,-56.5 376,-56.5"/>
<text text-anchor="middle" x="429" y="-63.5" font-family="Helvetica,sans-Serif" font-size="10.00">md_stm32f4_timer.h</text>
</a>
</g>
</g>
<!-- Node4&#45;&gt;Node15 -->
<g id="edge19" class="edge"><title>Node4&#45;&gt;Node15</title>
<path fill="none" stroke="midnightblue" d="M1587.87,-286.185C1536.7,-279.829 1410.08,-263.395 1305,-244 1039.48,-194.992 977.231,-162.558 712,-112 690.866,-107.971 569.077,-88.8406 492.312,-76.8565"/>
<polygon fill="midnightblue" stroke="midnightblue" points="492.678,-73.3713 482.257,-75.2876 491.598,-80.2876 492.678,-73.3713"/>
</g>
<!-- Node16 -->
<g id="node16" class="node"><title>Node16</title>
<g id="a_node16"><a xlink:href="a00059_source.html" target="_top" xlink:title="tm_stm32f4_pwm.h">
<polygon fill="white" stroke="black" points="600.5,-112.5 600.5,-131.5 703.5,-131.5 703.5,-112.5 600.5,-112.5"/>
<text text-anchor="middle" x="652" y="-119.5" font-family="Helvetica,sans-Serif" font-size="10.00">tm_stm32f4_pwm.h</text>
</a>
</g>
</g>
<!-- Node4&#45;&gt;Node16 -->
<g id="edge22" class="edge"><title>Node4&#45;&gt;Node16</title>
<path fill="none" stroke="midnightblue" d="M1587.94,-289.143C1476.35,-289.607 991.843,-288.954 849,-244 775.897,-220.994 702.252,-164.995 669.54,-138.016"/>
<polygon fill="midnightblue" stroke="midnightblue" points="671.696,-135.257 661.781,-131.523 667.204,-140.625 671.696,-135.257"/>
</g>
<!-- Node19 -->
<g id="node19" class="node"><title>Node19</title>
<g id="a_node19"><a xlink:href="a00065_source.html" target="_top" xlink:title="tm_stm32f4_usart.h">
<polygon fill="white" stroke="black" points="1060,-112.5 1060,-131.5 1164,-131.5 1164,-112.5 1060,-112.5"/>
<text text-anchor="middle" x="1112" y="-119.5" font-family="Helvetica,sans-Serif" font-size="10.00">tm_stm32f4_usart.h</text>
</a>
</g>
</g>
<!-- Node4&#45;&gt;Node19 -->
<g id="edge33" class="edge"><title>Node4&#45;&gt;Node19</title>
<path fill="none" stroke="midnightblue" d="M1588,-283.955C1554.17,-276.349 1489.16,-261.014 1435,-244 1325.33,-209.548 1198.5,-158.723 1141.93,-135.455"/>
<polygon fill="midnightblue" stroke="midnightblue" points="1143.09,-132.15 1132.51,-131.572 1140.42,-138.621 1143.09,-132.15"/>
</g>
<!-- Node22 -->
<g id="node22" class="node"><title>Node22</title>
<polygon fill="white" stroke="#bfbfbf" points="2192,-224.5 2192,-243.5 2260,-243.5 2260,-224.5 2192,-224.5"/>
<text text-anchor="middle" x="2226" y="-231.5" font-family="Helvetica,sans-Serif" font-size="10.00">core_cm4.h</text>
</g>
<!-- Node4&#45;&gt;Node22 -->
<g id="edge41" class="edge"><title>Node4&#45;&gt;Node22</title>
<path fill="none" stroke="midnightblue" d="M1634,-288.246C1710.47,-285.519 1963.19,-274.731 2181.75,-244"/>
<polygon fill="midnightblue" stroke="midnightblue" points="2182.4,-247.444 2191.8,-242.569 2181.41,-240.514 2182.4,-247.444"/>
</g>
<!-- Node23 -->
<g id="node23" class="node"><title>Node23</title>
<polygon fill="white" stroke="#bfbfbf" points="2278,-224.5 2278,-243.5 2346,-243.5 2346,-224.5 2278,-224.5"/>
<text text-anchor="middle" x="2312" y="-231.5" font-family="Helvetica,sans-Serif" font-size="10.00">arm_math.h</text>
</g>
<!-- Node4&#45;&gt;Node23 -->
<g id="edge42" class="edge"><title>Node4&#45;&gt;Node23</title>
<path fill="none" stroke="midnightblue" d="M1634.14,-288.572C1718.01,-286.779 2014.07,-278.353 2267.67,-243.992"/>
<polygon fill="midnightblue" stroke="midnightblue" points="2268.38,-247.428 2277.81,-242.601 2267.42,-240.493 2268.38,-247.428"/>
</g>
<!-- Node24 -->
<g id="node24" class="node"><title>Node24</title>
<g id="a_node24"><a xlink:href="a00012.html" target="_top" xlink:title="Controlling beam and primary actuators. ">
<polygon fill="white" stroke="black" points="1656.5,-224.5 1656.5,-243.5 1721.5,-243.5 1721.5,-224.5 1656.5,-224.5"/>
<text text-anchor="middle" x="1689" y="-231.5" font-family="Helvetica,sans-Serif" font-size="10.00">actuators.h</text>
</a>
</g>
</g>
<!-- Node4&#45;&gt;Node24 -->
<g id="edge43" class="edge"><title>Node4&#45;&gt;Node24</title>
<path fill="none" stroke="midnightblue" d="M1623.53,-280.324C1635.59,-271.979 1654.03,-259.212 1668.27,-249.352"/>
<polygon fill="midnightblue" stroke="midnightblue" points="1670.27,-252.224 1676.5,-243.655 1666.28,-246.469 1670.27,-252.224"/>
</g>
<!-- Node25 -->
<g id="node25" class="node"><title>Node25</title>
<g id="a_node25"><a xlink:href="a00014.html" target="_top" xlink:title="Provides DMA related configuration and access functions for ADC and DAC. ">
<polygon fill="white" stroke="black" points="1568,-112.5 1568,-131.5 1654,-131.5 1654,-112.5 1568,-112.5"/>
<text text-anchor="middle" x="1611" y="-119.5" font-family="Helvetica,sans-Serif" font-size="10.00">adc_dac_dma.h</text>
</a>
</g>
</g>
<!-- Node4&#45;&gt;Node25 -->
<g id="edge78" class="edge"><title>Node4&#45;&gt;Node25</title>
<path fill="none" stroke="midnightblue" d="M1599.83,-280.341C1584.65,-263.503 1560.6,-224.769 1552,-188 1549.97,-179.345 1548.38,-176.12 1552,-168 1557.68,-155.248 1568.96,-144.594 1580.28,-136.858"/>
<polygon fill="midnightblue" stroke="midnightblue" points="1582.21,-139.778 1588.86,-131.526 1578.52,-133.833 1582.21,-139.778"/>
</g>
<!-- Node27 -->
<g id="node27" class="node"><title>Node27</title>
<g id="a_node27"><a xlink:href="a00048.html" target="_top" xlink:title="PID compensator implementation. ">
<polygon fill="white" stroke="black" points="1840,-56.5 1840,-75.5 1878,-75.5 1878,-56.5 1840,-56.5"/>
<text text-anchor="middle" x="1859" y="-63.5" font-family="Helvetica,sans-Serif" font-size="10.00">pid.h</text>
</a>
</g>
</g>
<!-- Node4&#45;&gt;Node27 -->
<g id="edge86" class="edge"><title>Node4&#45;&gt;Node27</title>
<path fill="none" stroke="midnightblue" d="M1634.04,-288.515C1690.77,-286.784 1834.7,-278.966 1864,-244 1902.29,-198.301 1879.7,-120.26 1866.49,-85.1069"/>
<polygon fill="midnightblue" stroke="midnightblue" points="1869.69,-83.681 1862.77,-75.6574 1863.18,-86.2445 1869.69,-83.681"/>
</g>
<!-- Node31 -->
<g id="node31" class="node"><title>Node31</title>
<g id="a_node31"><a xlink:href="a00021.html" target="_top" xlink:title="Provides tools and helper functions. ">
<polygon fill="white" stroke="black" points="1934.5,-56.5 1934.5,-75.5 1985.5,-75.5 1985.5,-56.5 1934.5,-56.5"/>
<text text-anchor="middle" x="1960" y="-63.5" font-family="Helvetica,sans-Serif" font-size="10.00">helper.h</text>
</a>
</g>
</g>
<!-- Node4&#45;&gt;Node31 -->
<g id="edge89" class="edge"><title>Node4&#45;&gt;Node31</title>
<path fill="none" stroke="midnightblue" d="M1634.2,-287.909C1711.25,-284.05 1955.11,-269.87 1978,-244 2017.87,-198.945 1986.65,-119.989 1969.44,-84.7992"/>
<polygon fill="midnightblue" stroke="midnightblue" points="1972.48,-83.0625 1964.83,-75.7321 1966.24,-86.2329 1972.48,-83.0625"/>
</g>
<!-- Node33 -->
<g id="node33" class="node"><title>Node33</title>
<g id="a_node33"><a xlink:href="a00023.html" target="_top" xlink:title="Analog processing related callback handler definition. ">
<polygon fill="white" stroke="black" points="1570,-168.5 1570,-187.5 1652,-187.5 1652,-168.5 1570,-168.5"/>
<text text-anchor="middle" x="1611" y="-175.5" font-family="Helvetica,sans-Serif" font-size="10.00">irq_callbacks.h</text>
</a>
</g>
</g>
<!-- Node4&#45;&gt;Node33 -->
<g id="edge84" class="edge"><title>Node4&#45;&gt;Node33</title>
<path fill="none" stroke="midnightblue" d="M1607.16,-280.368C1603.81,-262.617 1603.35,-221.666 1605.79,-197.597"/>
<polygon fill="midnightblue" stroke="midnightblue" points="1609.27,-197.975 1607.16,-187.591 1602.34,-197.022 1609.27,-197.975"/>
</g>
<!-- Node34 -->
<g id="node34" class="node"><title>Node34</title>
<g id="a_node34"><a xlink:href="a00042_source.html" target="_top" xlink:title="mdb_gpio.h">
<polygon fill="white" stroke="black" points="1364.5,-168.5 1364.5,-187.5 1431.5,-187.5 1431.5,-168.5 1364.5,-168.5"/>
<text text-anchor="middle" x="1398" y="-175.5" font-family="Helvetica,sans-Serif" font-size="10.00">mdb_gpio.h</text>
</a>
</g>
</g>
<!-- Node4&#45;&gt;Node34 -->
<g id="edge85" class="edge"><title>Node4&#45;&gt;Node34</title>
<path fill="none" stroke="midnightblue" d="M1587.88,-285.345C1557.89,-279.853 1504.71,-267.515 1465,-244 1443.55,-231.299 1423.69,-210.396 1411.25,-195.731"/>
<polygon fill="midnightblue" stroke="midnightblue" points="1413.89,-193.425 1404.83,-187.927 1408.48,-197.873 1413.89,-193.425"/>
</g>
<!-- Node36 -->
<g id="node36" class="node"><title>Node36</title>
<g id="a_node36"><a xlink:href="a00046.html" target="_top" xlink:title="Provides initialization methods to configure analog subsystems and DMA controller. ">
<polygon fill="white" stroke="black" points="66.5,-168.5 66.5,-187.5 165.5,-187.5 165.5,-168.5 66.5,-168.5"/>
<text text-anchor="middle" x="116" y="-175.5" font-family="Helvetica,sans-Serif" font-size="10.00">periph2dma_conf.h</text>
</a>
</g>
</g>
<!-- Node4&#45;&gt;Node36 -->
<g id="edge79" class="edge"><title>Node4&#45;&gt;Node36</title>
<path fill="none" stroke="midnightblue" d="M1587.86,-288.988C1473.42,-288.729 956.61,-285.221 536,-244 404.054,-231.069 250.42,-204.268 170.545,-189.438"/>
<polygon fill="midnightblue" stroke="midnightblue" points="170.713,-185.909 160.241,-187.515 169.429,-192.791 170.713,-185.909"/>
</g>
<!-- Node38 -->
<g id="node38" class="node"><title>Node38</title>
<g id="a_node38"><a xlink:href="a00051.html" target="_top" xlink:title="Provides DAC driven signal generator functions. ">
<polygon fill="white" stroke="black" points="2225,-168.5 2225,-187.5 2293,-187.5 2293,-168.5 2225,-168.5"/>
<text text-anchor="middle" x="2259" y="-175.5" font-family="Helvetica,sans-Serif" font-size="10.00">signalGen.h</text>
</a>
</g>
</g>
<!-- Node4&#45;&gt;Node38 -->
<g id="edge87" class="edge"><title>Node4&#45;&gt;Node38</title>
<path fill="none" stroke="midnightblue" d="M1634.03,-288.485C1756.82,-285.633 2329.67,-270.913 2355,-244 2376.5,-221.159 2336.24,-202.039 2301.46,-190.574"/>
<polygon fill="midnightblue" stroke="midnightblue" points="2302.43,-187.212 2291.84,-187.546 2300.33,-193.889 2302.43,-187.212"/>
</g>
<!-- Node11&#45;&gt;Node3 -->
<g id="edge11" class="edge"><title>Node11&#45;&gt;Node3</title>
<path fill="none" stroke="midnightblue" d="M784.467,-59.525C680.502,-48.8922 452.963,-25.6212 355.634,-15.6672"/>
<polygon fill="midnightblue" stroke="midnightblue" points="355.83,-12.169 345.526,-14.6334 355.118,-19.1327 355.83,-12.169"/>
</g>
<!-- Node11&#45;&gt;Node10 -->
<g id="edge13" class="edge"><title>Node11&#45;&gt;Node10</title>
<path fill="none" stroke="midnightblue" d="M891.792,-57.6261C896.593,-57.045 901.382,-56.4932 906,-56 1099.02,-35.3868 1330.83,-19.3415 1420.75,-13.4459"/>
<polygon fill="midnightblue" stroke="midnightblue" points="1421,-16.937 1430.75,-12.7937 1420.55,-9.95184 1421,-16.937"/>
</g>
<!-- Node12 -->
<g id="node12" class="node"><title>Node12</title>
<polygon fill="white" stroke="#bfbfbf" points="793.5,-0.5 793.5,-19.5 882.5,-19.5 882.5,-0.5 793.5,-0.5"/>
<text text-anchor="middle" x="838" y="-7.5" font-family="Helvetica,sans-Serif" font-size="10.00">stm32f4xx_rcc.h</text>
</g>
<!-- Node11&#45;&gt;Node12 -->
<g id="edge12" class="edge"><title>Node11&#45;&gt;Node12</title>
<path fill="none" stroke="midnightblue" d="M838,-56.083C838,-49.0059 838,-38.8611 838,-29.9865"/>
<polygon fill="midnightblue" stroke="midnightblue" points="841.5,-29.751 838,-19.7511 834.5,-29.7511 841.5,-29.751"/>
</g>
<!-- Node13&#45;&gt;Node3 -->
<g id="edge16" class="edge"><title>Node13&#45;&gt;Node3</title>
<path fill="none" stroke="midnightblue" d="M348.245,-118.212C287.149,-113.787 193.02,-102.724 171,-76 142.155,-40.9932 213.171,-23.7989 263.97,-16.2087"/>
<polygon fill="midnightblue" stroke="midnightblue" points="264.729,-19.6363 274.142,-14.774 263.752,-12.7049 264.729,-19.6363"/>
</g>
<!-- Node13&#45;&gt;Node10 -->
<g id="edge15" class="edge"><title>Node13&#45;&gt;Node10</title>
<path fill="none" stroke="midnightblue" d="M455.78,-117.479C575.857,-109.426 858.521,-89.329 900,-76 916.691,-70.6365 917.297,-61.325 934,-56 980.017,-41.3298 1307.4,-20.2395 1420.6,-13.3054"/>
<polygon fill="midnightblue" stroke="midnightblue" points="1421.1,-16.7814 1430.87,-12.6792 1420.68,-9.79434 1421.1,-16.7814"/>
</g>
<!-- Node14 -->
<g id="node14" class="node"><title>Node14</title>
<g id="a_node14"><a xlink:href="a00035.html" target="_top" xlink:title="Provides generic methods for GPIO module initialization and manipulation. ">
<polygon fill="white" stroke="black" points="180,-56.5 180,-75.5 282,-75.5 282,-56.5 180,-56.5"/>
<text text-anchor="middle" x="231" y="-63.5" font-family="Helvetica,sans-Serif" font-size="10.00">md_stm32f4_gpio.h</text>
</a>
</g>
</g>
<!-- Node13&#45;&gt;Node14 -->
<g id="edge17" class="edge"><title>Node13&#45;&gt;Node14</title>
<path fill="none" stroke="midnightblue" d="M374.905,-112.444C346.012,-103.32 300.075,-88.8133 267.895,-78.6509"/>
<polygon fill="midnightblue" stroke="midnightblue" points="268.559,-75.1903 257.969,-75.5164 266.451,-81.8654 268.559,-75.1903"/>
</g>
<!-- Node14&#45;&gt;Node3 -->
<g id="edge18" class="edge"><title>Node14&#45;&gt;Node3</title>
<path fill="none" stroke="midnightblue" d="M243.693,-56.324C255.901,-47.979 274.578,-35.2122 289.003,-25.3524"/>
<polygon fill="midnightblue" stroke="midnightblue" points="291.058,-28.1871 297.339,-19.6545 287.108,-22.4082 291.058,-28.1871"/>
</g>
<!-- Node15&#45;&gt;Node3 -->
<g id="edge20" class="edge"><title>Node15&#45;&gt;Node3</title>
<path fill="none" stroke="midnightblue" d="M410.144,-56.4435C390.734,-47.6356 360.27,-33.8116 338.035,-23.722"/>
<polygon fill="midnightblue" stroke="midnightblue" points="339.32,-20.4615 328.768,-19.5164 336.428,-26.836 339.32,-20.4615"/>
</g>
<!-- Node15&#45;&gt;Node12 -->
<g id="edge21" class="edge"><title>Node15&#45;&gt;Node12</title>
<path fill="none" stroke="midnightblue" d="M482.05,-57.9958C559.828,-47.7268 704.102,-28.6785 782.983,-18.2638"/>
<polygon fill="midnightblue" stroke="midnightblue" points="783.745,-21.6937 793.201,-16.9148 782.829,-14.754 783.745,-21.6937"/>
</g>
<!-- Node16&#45;&gt;Node3 -->
<g id="edge23" class="edge"><title>Node16&#45;&gt;Node3</title>
<path fill="none" stroke="midnightblue" d="M600.366,-117.995C526.7,-112.902 395.922,-100.636 356,-76 338.22,-65.0281 325.402,-44.3584 317.883,-29.2643"/>
<polygon fill="midnightblue" stroke="midnightblue" points="320.917,-27.487 313.529,-19.893 314.569,-30.4367 320.917,-27.487"/>
</g>
<!-- Node16&#45;&gt;Node10 -->
<g id="edge32" class="edge"><title>Node16&#45;&gt;Node10</title>
<path fill="none" stroke="midnightblue" d="M703.692,-114.078C760.425,-106.172 854.073,-92.215 934,-76 970.341,-68.6274 978.463,-62.3297 1015,-56 1163.74,-30.2321 1343.26,-17.6212 1420.55,-13.066"/>
<polygon fill="midnightblue" stroke="midnightblue" points="1420.98,-16.547 1430.76,-12.4762 1420.58,-9.55865 1420.98,-16.547"/>
</g>
<!-- Node16&#45;&gt;Node12 -->
<g id="edge24" class="edge"><title>Node16&#45;&gt;Node12</title>
<path fill="none" stroke="midnightblue" d="M669.166,-112.453C686.503,-103.697 713.941,-89.4912 737,-76 765.25,-59.4719 796.827,-38.7762 817.031,-25.2369"/>
<polygon fill="midnightblue" stroke="midnightblue" points="819.121,-28.0491 825.461,-19.5604 815.211,-22.2427 819.121,-28.0491"/>
</g>
<!-- Node16&#45;&gt;Node14 -->
<g id="edge25" class="edge"><title>Node16&#45;&gt;Node14</title>
<path fill="none" stroke="midnightblue" d="M600.389,-114.671C531.113,-106.131 404.231,-90.3329 296,-76 294.729,-75.8317 293.445,-75.6609 292.15,-75.488"/>
<polygon fill="midnightblue" stroke="midnightblue" points="292.465,-71.9988 282.087,-74.1318 291.53,-78.9361 292.465,-71.9988"/>
</g>
<!-- Node17 -->
<g id="node17" class="node"><title>Node17</title>
<polygon fill="white" stroke="#bfbfbf" points="485.5,-0.5 485.5,-19.5 574.5,-19.5 574.5,-0.5 485.5,-0.5"/>
<text text-anchor="middle" x="530" y="-7.5" font-family="Helvetica,sans-Serif" font-size="10.00">stm32f4xx_tim.h</text>
</g>
<!-- Node16&#45;&gt;Node17 -->
<g id="edge26" class="edge"><title>Node16&#45;&gt;Node17</title>
<path fill="none" stroke="midnightblue" d="M600.225,-120.543C526.366,-118.667 396.409,-110.417 367,-76 333.511,-36.8081 415.507,-21.0282 474.952,-14.8333"/>
<polygon fill="midnightblue" stroke="midnightblue" points="475.403,-18.306 485.016,-13.8517 474.724,-11.3391 475.403,-18.306"/>
</g>
<!-- Node18 -->
<g id="node18" class="node"><title>Node18</title>
<g id="a_node18"><a xlink:href="a00063_source.html" target="_top" xlink:title="tm_stm32f4_timer_properties.h">
<polygon fill="white" stroke="black" points="576,-56.5 576,-75.5 728,-75.5 728,-56.5 576,-56.5"/>
<text text-anchor="middle" x="652" y="-63.5" font-family="Helvetica,sans-Serif" font-size="10.00">tm_stm32f4_timer_properties.h</text>
</a>
</g>
</g>
<!-- Node16&#45;&gt;Node18 -->
<g id="edge27" class="edge"><title>Node16&#45;&gt;Node18</title>
<path fill="none" stroke="midnightblue" d="M652,-112.083C652,-105.006 652,-94.8611 652,-85.9865"/>
<polygon fill="midnightblue" stroke="midnightblue" points="655.5,-85.751 652,-75.7511 648.5,-85.7511 655.5,-85.751"/>
</g>
<!-- Node18&#45;&gt;Node3 -->
<g id="edge28" class="edge"><title>Node18&#45;&gt;Node3</title>
<path fill="none" stroke="midnightblue" d="M597.809,-56.4435C530.903,-45.8794 418.297,-28.0995 355.61,-18.2015"/>
<polygon fill="midnightblue" stroke="midnightblue" points="356.044,-14.7269 345.621,-16.6243 354.953,-21.6412 356.044,-14.7269"/>
</g>
<!-- Node18&#45;&gt;Node10 -->
<g id="edge31" class="edge"><title>Node18&#45;&gt;Node10</title>
<path fill="none" stroke="midnightblue" d="M728.105,-59.3436C743.62,-58.2152 759.835,-57.0537 775,-56 1021.2,-38.8942 1317.37,-19.9726 1420.99,-13.4021"/>
<polygon fill="midnightblue" stroke="midnightblue" points="1421.22,-16.8949 1430.98,-12.7694 1420.78,-9.90886 1421.22,-16.8949"/>
</g>
<!-- Node18&#45;&gt;Node12 -->
<g id="edge29" class="edge"><title>Node18&#45;&gt;Node12</title>
<path fill="none" stroke="midnightblue" d="M681.472,-56.4435C713.171,-47.2406 763.732,-32.5617 798.775,-22.3879"/>
<polygon fill="midnightblue" stroke="midnightblue" points="800.038,-25.6658 808.666,-19.5164 798.086,-18.9434 800.038,-25.6658"/>
</g>
<!-- Node18&#45;&gt;Node17 -->
<g id="edge30" class="edge"><title>Node18&#45;&gt;Node17</title>
<path fill="none" stroke="midnightblue" d="M632.669,-56.4435C612.68,-47.5961 581.257,-33.6875 558.436,-23.5865"/>
<polygon fill="midnightblue" stroke="midnightblue" points="559.802,-20.3635 549.241,-19.5164 556.968,-26.7645 559.802,-20.3635"/>
</g>
<!-- Node19&#45;&gt;Node3 -->
<g id="edge35" class="edge"><title>Node19&#45;&gt;Node3</title>
<path fill="none" stroke="midnightblue" d="M1059.74,-119.313C936.859,-114.964 632.574,-101.856 534,-76 513.613,-70.6523 510.874,-63.0193 491,-56 445.929,-40.0811 392.652,-27.558 355.62,-19.8076"/>
<polygon fill="midnightblue" stroke="midnightblue" points="356.126,-16.3386 345.626,-17.7493 354.714,-23.1947 356.126,-16.3386"/>
</g>
<!-- Node19&#45;&gt;Node9 -->
<g id="edge39" class="edge"><title>Node19&#45;&gt;Node9</title>
<path fill="none" stroke="midnightblue" d="M1133.71,-112.444C1156.35,-103.517 1192.07,-89.4387 1217.75,-79.3168"/>
<polygon fill="midnightblue" stroke="midnightblue" points="1219.37,-82.4397 1227.39,-75.5164 1216.81,-75.9273 1219.37,-82.4397"/>
</g>
<!-- Node19&#45;&gt;Node10 -->
<g id="edge40" class="edge"><title>Node19&#45;&gt;Node10</title>
<path fill="none" stroke="midnightblue" d="M1124.08,-112.315C1147.58,-95.4722 1197.98,-59.6893 1207,-56 1278.81,-26.6183 1369.87,-16.3828 1420.54,-12.8441"/>
<polygon fill="midnightblue" stroke="midnightblue" points="1420.96,-16.3242 1430.71,-12.1861 1420.51,-9.33876 1420.96,-16.3242"/>
</g>
<!-- Node19&#45;&gt;Node12 -->
<g id="edge36" class="edge"><title>Node19&#45;&gt;Node12</title>
<path fill="none" stroke="midnightblue" d="M1090.5,-112.368C1042.18,-92.9703 924.857,-45.8696 868.806,-23.3673"/>
<polygon fill="midnightblue" stroke="midnightblue" points="869.985,-20.069 859.4,-19.5914 867.377,-26.5651 869.985,-20.069"/>
</g>
<!-- Node19&#45;&gt;Node14 -->
<g id="edge37" class="edge"><title>Node19&#45;&gt;Node14</title>
<path fill="none" stroke="midnightblue" d="M1059.61,-117.939C937.958,-110.81 626.928,-92.4506 367,-76 342.52,-74.4507 315.566,-72.6804 292.156,-71.1222"/>
<polygon fill="midnightblue" stroke="midnightblue" points="292.226,-67.6192 282.015,-70.4457 291.76,-74.6036 292.226,-67.6192"/>
</g>
<!-- Node20 -->
<g id="node20" class="node"><title>Node20</title>
<polygon fill="white" stroke="#bfbfbf" points="1247,-0.5 1247,-19.5 1293,-19.5 1293,-0.5 1247,-0.5"/>
<text text-anchor="middle" x="1270" y="-7.5" font-family="Helvetica,sans-Serif" font-size="10.00">misc.h</text>
</g>
<!-- Node19&#45;&gt;Node20 -->
<g id="edge34" class="edge"><title>Node19&#45;&gt;Node20</title>
<path fill="none" stroke="midnightblue" d="M1118.43,-112.444C1128.87,-99.0058 1150.71,-72.7585 1174,-56 1193.56,-41.9296 1218.21,-30.4838 1237.64,-22.6568"/>
<polygon fill="midnightblue" stroke="midnightblue" points="1238.94,-25.9034 1246.99,-19.0044 1236.4,-19.3833 1238.94,-25.9034"/>
</g>
<!-- Node21 -->
<g id="node21" class="node"><title>Node21</title>
<polygon fill="white" stroke="#bfbfbf" points="1024,-56.5 1024,-75.5 1122,-75.5 1122,-56.5 1024,-56.5"/>
<text text-anchor="middle" x="1073" y="-63.5" font-family="Helvetica,sans-Serif" font-size="10.00">stm32f4xx_usart.h</text>
</g>
<!-- Node19&#45;&gt;Node21 -->
<g id="edge38" class="edge"><title>Node19&#45;&gt;Node21</title>
<path fill="none" stroke="midnightblue" d="M1105.56,-112.083C1100.05,-104.455 1091.97,-93.2645 1085.24,-83.9408"/>
<polygon fill="midnightblue" stroke="midnightblue" points="1088.01,-81.8087 1079.32,-75.7511 1082.34,-85.9071 1088.01,-81.8087"/>
</g>
<!-- Node24&#45;&gt;Node5 -->
<g id="edge44" class="edge"><title>Node24&#45;&gt;Node5</title>
<path fill="none" stroke="midnightblue" d="M1713.69,-224.357C1736.89,-215.96 1772.37,-202.4 1802,-188 1891.2,-144.648 1911.13,-128.927 1995,-76 2021.26,-59.4277 2050.64,-39.0252 2069.68,-25.5483"/>
<polygon fill="midnightblue" stroke="midnightblue" points="2071.77,-28.3559 2077.9,-19.7091 2067.72,-22.6507 2071.77,-28.3559"/>
</g>
<!-- Node24&#45;&gt;Node10 -->
<g id="edge67" class="edge"><title>Node24&#45;&gt;Node10</title>
<path fill="none" stroke="midnightblue" d="M1694.32,-224.381C1710.85,-196.389 1757.74,-106.905 1715,-56 1687.65,-23.4255 1561.77,-14.4239 1497.3,-11.9417"/>
<polygon fill="midnightblue" stroke="midnightblue" points="1497.25,-8.43782 1487.13,-11.5849 1497,-15.4335 1497.25,-8.43782"/>
</g>
<!-- Node24&#45;&gt;Node25 -->
<g id="edge45" class="edge"><title>Node24&#45;&gt;Node25</title>
<path fill="none" stroke="midnightblue" d="M1680.84,-224.401C1673.69,-211.357 1665.04,-186.17 1652,-168 1644.05,-156.926 1632.96,-146.597 1624.1,-138.635"/>
<polygon fill="midnightblue" stroke="midnightblue" points="1626.23,-135.851 1616.45,-131.779 1621.56,-141.062 1626.23,-135.851"/>
</g>
<!-- Node24&#45;&gt;Node27 -->
<g id="edge76" class="edge"><title>Node24&#45;&gt;Node27</title>
<path fill="none" stroke="midnightblue" d="M1702.2,-224.406C1714.97,-215.835 1734.6,-201.967 1750,-188 1787.68,-153.831 1826.23,-107.929 1845.82,-83.6599"/>
<polygon fill="midnightblue" stroke="midnightblue" points="1848.63,-85.7538 1852.14,-75.7592 1843.16,-81.3802 1848.63,-85.7538"/>
</g>
<!-- Node24&#45;&gt;Node31 -->
<g id="edge77" class="edge"><title>Node24&#45;&gt;Node31</title>
<path fill="none" stroke="midnightblue" d="M1706.18,-224.477C1723.53,-215.739 1750.97,-201.548 1774,-188 1835.31,-151.93 1904.94,-104.946 1938.99,-81.5557"/>
<polygon fill="midnightblue" stroke="midnightblue" points="1941.37,-84.1686 1947.62,-75.6127 1937.4,-78.4044 1941.37,-84.1686"/>
</g>
<!-- Node24&#45;&gt;Node33 -->
<g id="edge68" class="edge"><title>Node24&#45;&gt;Node33</title>
<path fill="none" stroke="midnightblue" d="M1676.47,-224.324C1664.41,-215.979 1645.97,-203.212 1631.73,-193.352"/>
<polygon fill="midnightblue" stroke="midnightblue" points="1633.72,-190.469 1623.5,-187.655 1629.73,-196.224 1633.72,-190.469"/>
</g>
<!-- Node24&#45;&gt;Node34 -->
<g id="edge72" class="edge"><title>Node24&#45;&gt;Node34</title>
<path fill="none" stroke="midnightblue" d="M1656.47,-226.963C1604,-217.227 1500.64,-198.047 1441.77,-187.122"/>
<polygon fill="midnightblue" stroke="midnightblue" points="1442.14,-183.631 1431.67,-185.248 1440.86,-190.513 1442.14,-183.631"/>
</g>
<!-- Node25&#45;&gt;Node3 -->
<g id="edge60" class="edge"><title>Node25&#45;&gt;Node3</title>
<path fill="none" stroke="midnightblue" d="M1567.69,-118.323C1536.17,-116.421 1492.45,-113.882 1454,-112 1256.96,-102.355 758.037,-125.209 567,-76 547.752,-71.042 545.777,-62.517 527,-56 469.505,-36.0452 400.214,-23.5698 355.654,-16.9493"/>
<polygon fill="midnightblue" stroke="midnightblue" points="356.108,-13.4785 345.709,-15.508 355.104,-20.4061 356.108,-13.4785"/>
</g>
<!-- Node25&#45;&gt;Node4 -->
<g id="edge49" class="edge"><title>Node25&#45;&gt;Node4</title>
<path fill="none" stroke="midnightblue" d="M1603.24,-131.526C1593.07,-139.298 1577.13,-151.998 1570,-168 1566.38,-176.12 1567.97,-179.345 1570,-188 1577.29,-219.167 1595.68,-251.747 1605.66,-271.205"/>
<polygon fill="midnightblue" stroke="midnightblue" points="1602.59,-272.884 1610.11,-280.341 1608.88,-269.818 1602.59,-272.884"/>
</g>
<!-- Node25&#45;&gt;Node10 -->
<g id="edge46" class="edge"><title>Node25&#45;&gt;Node10</title>
<path fill="none" stroke="midnightblue" d="M1632.1,-112.448C1658.22,-100.64 1697.17,-78.2682 1679,-56 1656.49,-28.4199 1554.13,-17.2887 1497.3,-13.1738"/>
<polygon fill="midnightblue" stroke="midnightblue" points="1497.47,-9.67701 1487.25,-12.4847 1496.99,-16.6606 1497.47,-9.67701"/>
</g>
<!-- Node25&#45;&gt;Node12 -->
<g id="edge59" class="edge"><title>Node25&#45;&gt;Node12</title>
<path fill="none" stroke="midnightblue" d="M1567.88,-116.394C1518.49,-110.354 1435.53,-97.867 1367,-76 1346.92,-69.593 1344.35,-61.4967 1324,-56 1171.78,-14.8797 984.076,-9.76231 892.895,-10.0345"/>
<polygon fill="midnightblue" stroke="midnightblue" points="892.772,-6.53498 882.791,-10.0882 892.809,-13.5349 892.772,-6.53498"/>
</g>
<!-- Node25&#45;&gt;Node24 -->
<g id="edge66" class="edge"><title>Node25&#45;&gt;Node24</title>
<path fill="none" stroke="midnightblue" d="M1630.28,-131.618C1643.34,-139.898 1659.45,-153.292 1670,-168 1680.18,-182.195 1687.69,-200.674 1690.82,-214.298"/>
<polygon fill="midnightblue" stroke="midnightblue" points="1687.39,-215.049 1692.37,-224.401 1694.31,-213.985 1687.39,-215.049"/>
</g>
<!-- Node26 -->
<g id="node26" class="node"><title>Node26</title>
<g id="a_node26"><a xlink:href="a00044.html" target="_top" xlink:title="Provides nested vector interrupt controller configuration methods. ">
<polygon fill="white" stroke="black" points="1376,-56.5 1376,-75.5 1450,-75.5 1450,-56.5 1376,-56.5"/>
<text text-anchor="middle" x="1413" y="-63.5" font-family="Helvetica,sans-Serif" font-size="10.00">nvic_config.h</text>
</a>
</g>
</g>
<!-- Node25&#45;&gt;Node26 -->
<g id="edge47" class="edge"><title>Node25&#45;&gt;Node26</title>
<path fill="none" stroke="midnightblue" d="M1579.63,-112.444C1545.74,-103.201 1491.6,-88.4356 1454.28,-78.2572"/>
<polygon fill="midnightblue" stroke="midnightblue" points="1454.8,-74.771 1444.23,-75.5164 1452.95,-81.5243 1454.8,-74.771"/>
</g>
<!-- Node25&#45;&gt;Node27 -->
<g id="edge50" class="edge"><title>Node25&#45;&gt;Node27</title>
<path fill="none" stroke="midnightblue" d="M1650.3,-112.444C1700.24,-101.568 1785.31,-83.0463 1829.85,-73.3481"/>
<polygon fill="midnightblue" stroke="midnightblue" points="1830.71,-76.7418 1839.74,-71.1943 1829.22,-69.9021 1830.71,-76.7418"/>
</g>
<!-- Node29 -->
<g id="node29" class="node"><title>Node29</title>
<polygon fill="white" stroke="#bfbfbf" points="1468,-56.5 1468,-75.5 1560,-75.5 1560,-56.5 1468,-56.5"/>
<text text-anchor="middle" x="1514" y="-63.5" font-family="Helvetica,sans-Serif" font-size="10.00">stm32f4xx_adc.h</text>
</g>
<!-- Node25&#45;&gt;Node29 -->
<g id="edge57" class="edge"><title>Node25&#45;&gt;Node29</title>
<path fill="none" stroke="midnightblue" d="M1595.42,-112.324C1580,-103.743 1556.19,-90.486 1538.29,-80.5224"/>
<polygon fill="midnightblue" stroke="midnightblue" points="1539.99,-77.4606 1529.55,-75.6545 1536.58,-83.5767 1539.99,-77.4606"/>
</g>
<!-- Node30 -->
<g id="node30" class="node"><title>Node30</title>
<polygon fill="white" stroke="#bfbfbf" points="1578,-56.5 1578,-75.5 1670,-75.5 1670,-56.5 1578,-56.5"/>
<text text-anchor="middle" x="1624" y="-63.5" font-family="Helvetica,sans-Serif" font-size="10.00">stm32f4xx_dac.h</text>
</g>
<!-- Node25&#45;&gt;Node30 -->
<g id="edge58" class="edge"><title>Node25&#45;&gt;Node30</title>
<path fill="none" stroke="midnightblue" d="M1613.15,-112.083C1614.87,-104.927 1617.35,-94.6353 1619.5,-85.6911"/>
<polygon fill="midnightblue" stroke="midnightblue" points="1622.96,-86.2925 1621.89,-75.7511 1616.15,-84.6541 1622.96,-86.2925"/>
</g>
<!-- Node25&#45;&gt;Node31 -->
<g id="edge61" class="edge"><title>Node25&#45;&gt;Node31</title>
<path fill="none" stroke="midnightblue" d="M1654.14,-114.324C1723.77,-103.552 1859.6,-82.5348 1924.21,-72.5385"/>
<polygon fill="midnightblue" stroke="midnightblue" points="1924.96,-75.9631 1934.31,-70.9751 1923.89,-69.0454 1924.96,-75.9631"/>
</g>
<!-- Node26&#45;&gt;Node20 -->
<g id="edge48" class="edge"><title>Node26&#45;&gt;Node20</title>
<path fill="none" stroke="midnightblue" d="M1390.34,-56.4435C1366.6,-47.4776 1329.09,-33.314 1302.26,-23.1827"/>
<polygon fill="midnightblue" stroke="midnightblue" points="1303.14,-19.7749 1292.55,-19.5164 1300.67,-26.3235 1303.14,-19.7749"/>
</g>
<!-- Node27&#45;&gt;Node3 -->
<g id="edge55" class="edge"><title>Node27&#45;&gt;Node3</title>
<path fill="none" stroke="midnightblue" d="M1839.83,-63.9148C1806.93,-62.0815 1737.62,-58.3424 1679,-56 1144.52,-34.643 1010.43,-42.4809 476,-20 435.408,-18.2925 389.266,-15.7416 355.951,-13.7911"/>
<polygon fill="midnightblue" stroke="midnightblue" points="355.797,-10.276 345.608,-13.1808 355.384,-17.2639 355.797,-10.276"/>
</g>
<!-- Node27&#45;&gt;Node5 -->
<g id="edge52" class="edge"><title>Node27&#45;&gt;Node5</title>
<path fill="none" stroke="midnightblue" d="M1878.01,-61.044C1911.92,-53.9155 1985.26,-38.1689 2056.88,-20.1839"/>
<polygon fill="midnightblue" stroke="midnightblue" points="2058.13,-23.4773 2066.97,-17.632 2056.41,-16.691 2058.13,-23.4773"/>
</g>
<!-- Node27&#45;&gt;Node6 -->
<g id="edge51" class="edge"><title>Node27&#45;&gt;Node6</title>
<path fill="none" stroke="midnightblue" d="M1862.47,-56.083C1865.31,-48.77 1869.43,-38.1814 1872.96,-29.1034"/>
<polygon fill="midnightblue" stroke="midnightblue" points="1876.23,-30.3397 1876.6,-19.7511 1869.71,-27.8025 1876.23,-30.3397"/>
</g>
<!-- Node27&#45;&gt;Node7 -->
<g id="edge53" class="edge"><title>Node27&#45;&gt;Node7</title>
<path fill="none" stroke="midnightblue" d="M1873.14,-56.324C1886.87,-47.9002 1907.94,-34.9709 1924.06,-25.0741"/>
<polygon fill="midnightblue" stroke="midnightblue" points="1926.2,-27.8678 1932.9,-19.6545 1922.54,-21.9016 1926.2,-27.8678"/>
</g>
<!-- Node27&#45;&gt;Node10 -->
<g id="edge56" class="edge"><title>Node27&#45;&gt;Node10</title>
<path fill="none" stroke="midnightblue" d="M1839.92,-59.2934C1835.38,-58.0781 1830.54,-56.8936 1826,-56 1707.32,-32.667 1564.53,-19.3035 1497.41,-13.8741"/>
<polygon fill="midnightblue" stroke="midnightblue" points="1497.55,-10.3742 1487.3,-13.0705 1497,-17.3522 1497.55,-10.3742"/>
</g>
<!-- Node28 -->
<g id="node28" class="node"><title>Node28</title>
<polygon fill="white" stroke="#bfbfbf" points="1788.5,-0.5 1788.5,-19.5 1837.5,-19.5 1837.5,-0.5 1788.5,-0.5"/>
<text text-anchor="middle" x="1813" y="-7.5" font-family="Helvetica,sans-Serif" font-size="10.00">stdint.h</text>
</g>
<!-- Node27&#45;&gt;Node28 -->
<g id="edge54" class="edge"><title>Node27&#45;&gt;Node28</title>
<path fill="none" stroke="midnightblue" d="M1851.4,-56.083C1844.77,-48.2982 1834.98,-36.8015 1826.94,-27.3665"/>
<polygon fill="midnightblue" stroke="midnightblue" points="1829.6,-25.0939 1820.45,-19.7511 1824.27,-29.6332 1829.6,-25.0939"/>
</g>
<!-- Node31&#45;&gt;Node5 -->
<g id="edge62" class="edge"><title>Node31&#45;&gt;Node5</title>
<path fill="none" stroke="midnightblue" d="M1980.6,-56.4435C2001.99,-47.5566 2035.68,-33.5632 2060.02,-23.4514"/>
<polygon fill="midnightblue" stroke="midnightblue" points="2061.61,-26.5848 2069.5,-19.5164 2058.92,-20.1203 2061.61,-26.5848"/>
</g>
<!-- Node31&#45;&gt;Node6 -->
<g id="edge64" class="edge"><title>Node31&#45;&gt;Node6</title>
<path fill="none" stroke="midnightblue" d="M1947.15,-56.324C1934.78,-47.979 1915.87,-35.2122 1901.26,-25.3524"/>
<polygon fill="midnightblue" stroke="midnightblue" points="1903.07,-22.3483 1892.82,-19.6545 1899.15,-28.1503 1903.07,-22.3483"/>
</g>
<!-- Node31&#45;&gt;Node7 -->
<g id="edge63" class="edge"><title>Node31&#45;&gt;Node7</title>
<path fill="none" stroke="midnightblue" d="M1957.85,-56.083C1956.13,-48.9272 1953.65,-38.6353 1951.5,-29.6911"/>
<polygon fill="midnightblue" stroke="midnightblue" points="1954.85,-28.6541 1949.11,-19.7511 1948.04,-30.2925 1954.85,-28.6541"/>
</g>
<!-- Node32 -->
<g id="node32" class="node"><title>Node32</title>
<polygon fill="white" stroke="#bfbfbf" points="1989.5,-0.5 1989.5,-19.5 2048.5,-19.5 2048.5,-0.5 1989.5,-0.5"/>
<text text-anchor="middle" x="2019" y="-7.5" font-family="Helvetica,sans-Serif" font-size="10.00">inttypes.h</text>
</g>
<!-- Node31&#45;&gt;Node32 -->
<g id="edge65" class="edge"><title>Node31&#45;&gt;Node32</title>
<path fill="none" stroke="midnightblue" d="M1969.48,-56.324C1978.2,-48.3414 1991.34,-36.3128 2001.9,-26.6529"/>
<polygon fill="midnightblue" stroke="midnightblue" points="2004.33,-29.1674 2009.35,-19.8339 1999.61,-24.0036 2004.33,-29.1674"/>
</g>
<!-- Node33&#45;&gt;Node4 -->
<g id="edge69" class="edge"><title>Node33&#45;&gt;Node4</title>
<path fill="none" stroke="midnightblue" d="M1614.84,-187.591C1618.19,-205.308 1618.65,-246.254 1616.22,-270.348"/>
<polygon fill="midnightblue" stroke="midnightblue" points="1612.73,-269.986 1614.84,-280.368 1619.67,-270.936 1612.73,-269.986"/>
</g>
<!-- Node33&#45;&gt;Node10 -->
<g id="edge70" class="edge"><title>Node33&#45;&gt;Node10</title>
<path fill="none" stroke="midnightblue" d="M1625.17,-168.451C1657.03,-148.188 1729.07,-95.9429 1696,-56 1671.24,-26.1013 1558.08,-15.9074 1497.51,-12.5584"/>
<polygon fill="midnightblue" stroke="midnightblue" points="1497.37,-9.0465 1487.2,-12.0264 1497.01,-16.0372 1497.37,-9.0465"/>
</g>
<!-- Node33&#45;&gt;Node25 -->
<g id="edge71" class="edge"><title>Node33&#45;&gt;Node25</title>
<path fill="none" stroke="midnightblue" d="M1611,-168.083C1611,-161.006 1611,-150.861 1611,-141.986"/>
<polygon fill="midnightblue" stroke="midnightblue" points="1614.5,-141.751 1611,-131.751 1607.5,-141.751 1614.5,-141.751"/>
</g>
<!-- Node34&#45;&gt;Node3 -->
<g id="edge73" class="edge"><title>Node34&#45;&gt;Node3</title>
<path fill="none" stroke="midnightblue" d="M1364.41,-176.756C1207.17,-175.432 543.023,-167.786 339,-132 257.313,-117.672 210.061,-142.866 161,-76 132.062,-36.5598 210.615,-20.7296 264.367,-14.6185"/>
<polygon fill="midnightblue" stroke="midnightblue" points="264.839,-18.0881 274.415,-13.5543 264.102,-11.1271 264.839,-18.0881"/>
</g>
<!-- Node34&#45;&gt;Node12 -->
<g id="edge75" class="edge"><title>Node34&#45;&gt;Node12</title>
<path fill="none" stroke="midnightblue" d="M1385.09,-168.3C1373.12,-159.864 1355.22,-146.276 1342,-132 1314.19,-101.969 1325.21,-76.8661 1290,-56 1224.1,-16.9444 997.898,-11.2507 892.658,-10.7753"/>
<polygon fill="midnightblue" stroke="midnightblue" points="892.568,-7.27515 882.557,-10.7442 892.547,-14.2751 892.568,-7.27515"/>
</g>
<!-- Node35 -->
<g id="node35" class="node"><title>Node35</title>
<polygon fill="white" stroke="#bfbfbf" points="1351,-112.5 1351,-131.5 1445,-131.5 1445,-112.5 1351,-112.5"/>
<text text-anchor="middle" x="1398" y="-119.5" font-family="Helvetica,sans-Serif" font-size="10.00">stm32f4xx_gpio.h</text>
</g>
<!-- Node34&#45;&gt;Node35 -->
<g id="edge74" class="edge"><title>Node34&#45;&gt;Node35</title>
<path fill="none" stroke="midnightblue" d="M1398,-168.083C1398,-161.006 1398,-150.861 1398,-141.986"/>
<polygon fill="midnightblue" stroke="midnightblue" points="1401.5,-141.751 1398,-131.751 1394.5,-141.751 1401.5,-141.751"/>
</g>
<!-- Node36&#45;&gt;Node3 -->
<g id="edge80" class="edge"><title>Node36&#45;&gt;Node3</title>
<path fill="none" stroke="midnightblue" d="M97.0158,-168.398C83.1137,-160.954 65.2861,-148.741 57,-132 40.5853,-98.8361 60.7528,-77.3164 91,-56 118.405,-36.6869 208.546,-22.9478 264.276,-16.0544"/>
<polygon fill="midnightblue" stroke="midnightblue" points="264.752,-19.5225 274.259,-14.8471 263.911,-12.5731 264.752,-19.5225"/>
</g>
<!-- Node37 -->
<g id="node37" class="node"><title>Node37</title>
<g id="a_node37"><a xlink:href="a00027.html" target="_top" xlink:title="Project XA&#45;Galvo scanner specific digital to analog converter methods. ">
<polygon fill="white" stroke="black" points="66,-112.5 66,-131.5 166,-131.5 166,-112.5 66,-112.5"/>
<text text-anchor="middle" x="116" y="-119.5" font-family="Helvetica,sans-Serif" font-size="10.00">md_stm32f4_dac.h</text>
</a>
</g>
</g>
<!-- Node36&#45;&gt;Node37 -->
<g id="edge81" class="edge"><title>Node36&#45;&gt;Node37</title>
<path fill="none" stroke="midnightblue" d="M116,-168.083C116,-161.006 116,-150.861 116,-141.986"/>
<polygon fill="midnightblue" stroke="midnightblue" points="119.5,-141.751 116,-131.751 112.5,-141.751 119.5,-141.751"/>
</g>
<!-- Node37&#45;&gt;Node3 -->
<g id="edge82" class="edge"><title>Node37&#45;&gt;Node3</title>
<path fill="none" stroke="midnightblue" d="M109.725,-112.414C100.704,-98.9331 86.5565,-72.6294 100,-56 120.205,-31.0069 208.425,-19.2685 263.896,-14.2669"/>
<polygon fill="midnightblue" stroke="midnightblue" points="264.523,-17.726 274.186,-13.3821 263.923,-10.7518 264.523,-17.726"/>
</g>
<!-- Node37&#45;&gt;Node14 -->
<g id="edge83" class="edge"><title>Node37&#45;&gt;Node14</title>
<path fill="none" stroke="midnightblue" d="M134.222,-112.444C152.896,-103.675 182.156,-89.9355 203.617,-79.8579"/>
<polygon fill="midnightblue" stroke="midnightblue" points="205.299,-82.935 212.863,-75.5164 202.324,-76.5988 205.299,-82.935"/>
</g>
<!-- Node38&#45;&gt;Node5 -->
<g id="edge88" class="edge"><title>Node38&#45;&gt;Node5</title>
<path fill="none" stroke="midnightblue" d="M2249.91,-168.075C2222.62,-141.267 2141.1,-61.1902 2106.17,-26.8851"/>
<polygon fill="midnightblue" stroke="midnightblue" points="2108.31,-24.0787 2098.72,-19.5681 2103.4,-29.0725 2108.31,-24.0787"/>
</g>
</g>
</svg>
