<?xml version="1.0" encoding="UTF-8" standalone="no"?>
<!DOCTYPE svg PUBLIC "-//W3C//DTD SVG 1.1//EN"
 "http://www.w3.org/Graphics/SVG/1.1/DTD/svg11.dtd">
<!-- Generated by graphviz version 2.38.0 (20140413.2041)
 -->
<!-- Title: stm32f4xx_it.c Pages: 1 -->
<svg width="1963pt" height="420pt"
 viewBox="0.00 0.00 1963.00 420.00" xmlns="http://www.w3.org/2000/svg" xmlns:xlink="http://www.w3.org/1999/xlink">
<g id="graph0" class="graph" transform="scale(1 1) rotate(0) translate(4 416)">
<title>stm32f4xx_it.c</title>
<polygon fill="white" stroke="none" points="-4,4 -4,-416 1959,-416 1959,4 -4,4"/>
<!-- Node1 -->
<g id="node1" class="node"><title>Node1</title>
<polygon fill="#bfbfbf" stroke="black" points="842.5,-392.5 842.5,-411.5 923.5,-411.5 923.5,-392.5 842.5,-392.5"/>
<text text-anchor="middle" x="883" y="-399.5" font-family="Helvetica,sans-Serif" font-size="10.00">stm32f4xx_it.c</text>
</g>
<!-- Node2 -->
<g id="node2" class="node"><title>Node2</title>
<g id="a_node2"><a xlink:href="a00050_source.html" target="_top" xlink:title="stm32f4xx_it.h">
<polygon fill="white" stroke="black" points="532.5,-336.5 532.5,-355.5 613.5,-355.5 613.5,-336.5 532.5,-336.5"/>
<text text-anchor="middle" x="573" y="-343.5" font-family="Helvetica,sans-Serif" font-size="10.00">stm32f4xx_it.h</text>
</a>
</g>
</g>
<!-- Node1&#45;&gt;Node2 -->
<g id="edge1" class="edge"><title>Node1&#45;&gt;Node2</title>
<path fill="none" stroke="midnightblue" d="M842.473,-393.94C786.311,-384.157 684.845,-366.483 623.723,-355.836"/>
<polygon fill="midnightblue" stroke="midnightblue" points="623.989,-352.329 613.537,-354.061 622.788,-359.226 623.989,-352.329"/>
</g>
<!-- Node4 -->
<g id="node4" class="node"><title>Node4</title>
<g id="a_node4"><a xlink:href="a00025.html" target="_top" xlink:title="Main header definition. ">
<polygon fill="white" stroke="black" points="1170,-336.5 1170,-355.5 1216,-355.5 1216,-336.5 1170,-336.5"/>
<text text-anchor="middle" x="1193" y="-343.5" font-family="Helvetica,sans-Serif" font-size="10.00">main.h</text>
</a>
</g>
</g>
<!-- Node1&#45;&gt;Node4 -->
<g id="edge3" class="edge"><title>Node1&#45;&gt;Node4</title>
<path fill="none" stroke="midnightblue" d="M923.527,-393.94C985.483,-383.148 1102.57,-362.752 1159.81,-352.781"/>
<polygon fill="midnightblue" stroke="midnightblue" points="1160.52,-356.21 1169.77,-351.046 1159.32,-349.314 1160.52,-356.21"/>
</g>
<!-- Node3 -->
<g id="node3" class="node"><title>Node3</title>
<polygon fill="white" stroke="#bfbfbf" points="694.5,-0.5 694.5,-19.5 765.5,-19.5 765.5,-0.5 694.5,-0.5"/>
<text text-anchor="middle" x="730" y="-7.5" font-family="Helvetica,sans-Serif" font-size="10.00">stm32f4xx.h</text>
</g>
<!-- Node2&#45;&gt;Node3 -->
<g id="edge2" class="edge"><title>Node2&#45;&gt;Node3</title>
<path fill="none" stroke="midnightblue" d="M532.269,-343.575C415.413,-339.206 84.7434,-324.769 43,-300 13.2112,-282.324 0,-269.638 0,-235 0,-235 0,-235 0,-121 0,-47.1179 81.2317,-73.5463 153,-56 253.547,-31.4178 565.986,-17.2562 684.125,-12.6644"/>
<polygon fill="midnightblue" stroke="midnightblue" points="684.421,-16.1557 694.28,-12.2748 684.153,-9.16084 684.421,-16.1557"/>
</g>
<!-- Node5 -->
<g id="node5" class="node"><title>Node5</title>
<polygon fill="white" stroke="#bfbfbf" points="1888,-56.5 1888,-75.5 1934,-75.5 1934,-56.5 1888,-56.5"/>
<text text-anchor="middle" x="1911" y="-63.5" font-family="Helvetica,sans-Serif" font-size="10.00">stdio.h</text>
</g>
<!-- Node4&#45;&gt;Node5 -->
<g id="edge4" class="edge"><title>Node4&#45;&gt;Node5</title>
<path fill="none" stroke="midnightblue" d="M1216.3,-345.243C1320.8,-346.06 1746.51,-346.427 1870,-300 1914.52,-283.264 1955,-282.558 1955,-235 1955,-235 1955,-235 1955,-177 1955,-142.04 1935.6,-105.013 1922.57,-84.0745"/>
<polygon fill="midnightblue" stroke="midnightblue" points="1925.49,-82.1462 1917.12,-75.6515 1919.61,-85.9487 1925.49,-82.1462"/>
</g>
<!-- Node6 -->
<g id="node6" class="node"><title>Node6</title>
<polygon fill="white" stroke="#bfbfbf" points="1677,-56.5 1677,-75.5 1725,-75.5 1725,-56.5 1677,-56.5"/>
<text text-anchor="middle" x="1701" y="-63.5" font-family="Helvetica,sans-Serif" font-size="10.00">stdlib.h</text>
</g>
<!-- Node4&#45;&gt;Node6 -->
<g id="edge5" class="edge"><title>Node4&#45;&gt;Node6</title>
<path fill="none" stroke="midnightblue" d="M1216.11,-345.208C1318.12,-345.52 1723,-340.134 1723,-235 1723,-235 1723,-235 1723,-177 1723,-144.328 1713.55,-107.24 1707.04,-85.5533"/>
<polygon fill="midnightblue" stroke="midnightblue" points="1710.29,-84.2221 1703.97,-75.7215 1703.61,-86.3103 1710.29,-84.2221"/>
</g>
<!-- Node7 -->
<g id="node7" class="node"><title>Node7</title>
<polygon fill="white" stroke="#bfbfbf" points="1820.5,-56.5 1820.5,-75.5 1869.5,-75.5 1869.5,-56.5 1820.5,-56.5"/>
<text text-anchor="middle" x="1845" y="-63.5" font-family="Helvetica,sans-Serif" font-size="10.00">string.h</text>
</g>
<!-- Node4&#45;&gt;Node7 -->
<g id="edge6" class="edge"><title>Node4&#45;&gt;Node7</title>
<path fill="none" stroke="midnightblue" d="M1216.19,-345.101C1309.59,-345.21 1658,-342.691 1758,-300 1797.95,-282.944 1831,-278.442 1831,-235 1831,-235 1831,-235 1831,-177 1831,-144.541 1837.07,-107.121 1841.22,-85.3564"/>
<polygon fill="midnightblue" stroke="midnightblue" points="1844.66,-86.0003 1843.17,-75.5108 1837.79,-84.6401 1844.66,-86.0003"/>
</g>
<!-- Node8 -->
<g id="node8" class="node"><title>Node8</title>
<g id="a_node8"><a xlink:href="a00016.html" target="_top" xlink:title="Platform/Compiler dependent definitions. ">
<polygon fill="white" stroke="black" points="348.5,-56.5 348.5,-75.5 413.5,-75.5 413.5,-56.5 348.5,-56.5"/>
<text text-anchor="middle" x="381" y="-63.5" font-family="Helvetica,sans-Serif" font-size="10.00">attributes.h</text>
</a>
</g>
</g>
<!-- Node4&#45;&gt;Node8 -->
<g id="edge7" class="edge"><title>Node4&#45;&gt;Node8</title>
<path fill="none" stroke="midnightblue" d="M1169.77,-344.663C1074.81,-343.078 707.045,-334.894 407,-300 241.59,-280.763 38,-401.525 38,-235 38,-235 38,-235 38,-177 38,-146.902 34.1554,-131.596 57,-112 103.278,-72.3029 268.727,-85.2009 329,-76 332.027,-75.5379 335.15,-75.0431 338.292,-74.5319"/>
<polygon fill="midnightblue" stroke="midnightblue" points="339.012,-77.9604 348.3,-72.8639 337.861,-71.0556 339.012,-77.9604"/>
</g>
<!-- Node9 -->
<g id="node9" class="node"><title>Node9</title>
<g id="a_node9"><a xlink:href="a00019.html" target="_top" xlink:title="Global defines include file. ">
<polygon fill="white" stroke="black" points="1037,-56.5 1037,-75.5 1093,-75.5 1093,-56.5 1037,-56.5"/>
<text text-anchor="middle" x="1065" y="-63.5" font-family="Helvetica,sans-Serif" font-size="10.00">globals.h</text>
</a>
</g>
</g>
<!-- Node4&#45;&gt;Node9 -->
<g id="edge8" class="edge"><title>Node4&#45;&gt;Node9</title>
<path fill="none" stroke="midnightblue" d="M1183.17,-336.325C1165.36,-320.051 1127.78,-283.048 1108,-244 1080.9,-190.504 1070.35,-119.135 1066.71,-85.7301"/>
<polygon fill="midnightblue" stroke="midnightblue" points="1070.17,-85.1895 1065.69,-75.589 1063.2,-85.8885 1070.17,-85.1895"/>
</g>
<!-- Node10 -->
<g id="node10" class="node"><title>Node10</title>
<g id="a_node10"><a xlink:href="a00031.html" target="_top" xlink:title="Provides SysTick&#45;Timer driven delay functions. ">
<polygon fill="white" stroke="black" points="588.5,-112.5 588.5,-131.5 695.5,-131.5 695.5,-112.5 588.5,-112.5"/>
<text text-anchor="middle" x="642" y="-119.5" font-family="Helvetica,sans-Serif" font-size="10.00">md_stm32f4_delay.h</text>
</a>
</g>
</g>
<!-- Node4&#45;&gt;Node10 -->
<g id="edge9" class="edge"><title>Node4&#45;&gt;Node10</title>
<path fill="none" stroke="midnightblue" d="M1169.86,-342.979C1127.25,-338.727 1033.94,-326.934 960,-300 840.088,-256.318 711.437,-171.381 662.484,-137.482"/>
<polygon fill="midnightblue" stroke="midnightblue" points="664.239,-134.439 654.035,-131.588 660.234,-140.18 664.239,-134.439"/>
</g>
<!-- Node12 -->
<g id="node12" class="node"><title>Node12</title>
<g id="a_node12"><a xlink:href="a00033.html" target="_top" xlink:title="Definitions to extend board support for STM32F429i&#45;DISCO and equivalent boards. ">
<polygon fill="white" stroke="black" points="713.5,-112.5 713.5,-131.5 820.5,-131.5 820.5,-112.5 713.5,-112.5"/>
<text text-anchor="middle" x="767" y="-119.5" font-family="Helvetica,sans-Serif" font-size="10.00">md_stm32f4_disco.h</text>
</a>
</g>
</g>
<!-- Node4&#45;&gt;Node12 -->
<g id="edge13" class="edge"><title>Node4&#45;&gt;Node12</title>
<path fill="none" stroke="midnightblue" d="M1169.74,-342.858C1132.09,-338.696 1056.15,-327.395 998,-300 907.028,-257.138 817.874,-173.927 782.706,-139.021"/>
<polygon fill="midnightblue" stroke="midnightblue" points="784.853,-136.217 775.316,-131.603 779.894,-141.158 784.853,-136.217"/>
</g>
<!-- Node14 -->
<g id="node14" class="node"><title>Node14</title>
<g id="a_node14"><a xlink:href="a00037_source.html" target="_top" xlink:title="md_stm32f4_timer.h">
<polygon fill="white" stroke="black" points="66,-112.5 66,-131.5 172,-131.5 172,-112.5 66,-112.5"/>
<text text-anchor="middle" x="119" y="-119.5" font-family="Helvetica,sans-Serif" font-size="10.00">md_stm32f4_timer.h</text>
</a>
</g>
</g>
<!-- Node4&#45;&gt;Node14 -->
<g id="edge18" class="edge"><title>Node4&#45;&gt;Node14</title>
<path fill="none" stroke="midnightblue" d="M1170,-344.833C1061.84,-343.858 603.385,-337.542 466,-300 332.764,-263.591 191.259,-172.618 139.482,-137.317"/>
<polygon fill="midnightblue" stroke="midnightblue" points="141.37,-134.368 131.147,-131.585 137.403,-140.136 141.37,-134.368"/>
</g>
<!-- Node15 -->
<g id="node15" class="node"><title>Node15</title>
<g id="a_node15"><a xlink:href="a00055_source.html" target="_top" xlink:title="tm_stm32f4_pwm.h">
<polygon fill="white" stroke="black" points="373.5,-168.5 373.5,-187.5 476.5,-187.5 476.5,-168.5 373.5,-168.5"/>
<text text-anchor="middle" x="425" y="-175.5" font-family="Helvetica,sans-Serif" font-size="10.00">tm_stm32f4_pwm.h</text>
</a>
</g>
</g>
<!-- Node4&#45;&gt;Node15 -->
<g id="edge21" class="edge"><title>Node4&#45;&gt;Node15</title>
<path fill="none" stroke="midnightblue" d="M1169.89,-344.83C1055.08,-343.811 549.369,-337.226 491,-300 454.295,-276.591 436.427,-225.342 429.16,-197.646"/>
<polygon fill="midnightblue" stroke="midnightblue" points="432.499,-196.566 426.738,-187.675 425.697,-198.218 432.499,-196.566"/>
</g>
<!-- Node18 -->
<g id="node18" class="node"><title>Node18</title>
<g id="a_node18"><a xlink:href="a00061_source.html" target="_top" xlink:title="tm_stm32f4_usart.h">
<polygon fill="white" stroke="black" points="839,-112.5 839,-131.5 943,-131.5 943,-112.5 839,-112.5"/>
<text text-anchor="middle" x="891" y="-119.5" font-family="Helvetica,sans-Serif" font-size="10.00">tm_stm32f4_usart.h</text>
</a>
</g>
</g>
<!-- Node4&#45;&gt;Node18 -->
<g id="edge32" class="edge"><title>Node4&#45;&gt;Node18</title>
<path fill="none" stroke="midnightblue" d="M1169.93,-340.802C1139.01,-334.618 1082.94,-321.416 1039,-300 1000.64,-281.304 989.659,-275.621 961,-244 932.051,-212.059 909.575,-166.19 898.526,-141.098"/>
<polygon fill="midnightblue" stroke="midnightblue" points="901.661,-139.53 894.504,-131.718 895.228,-142.288 901.661,-139.53"/>
</g>
<!-- Node21 -->
<g id="node21" class="node"><title>Node21</title>
<polygon fill="white" stroke="#bfbfbf" points="1195,-280.5 1195,-299.5 1263,-299.5 1263,-280.5 1195,-280.5"/>
<text text-anchor="middle" x="1229" y="-287.5" font-family="Helvetica,sans-Serif" font-size="10.00">core_cm4.h</text>
</g>
<!-- Node4&#45;&gt;Node21 -->
<g id="edge40" class="edge"><title>Node4&#45;&gt;Node21</title>
<path fill="none" stroke="midnightblue" d="M1198.94,-336.083C1203.98,-328.534 1211.34,-317.495 1217.51,-308.23"/>
<polygon fill="midnightblue" stroke="midnightblue" points="1220.53,-310.013 1223.17,-299.751 1214.71,-306.13 1220.53,-310.013"/>
</g>
<!-- Node22 -->
<g id="node22" class="node"><title>Node22</title>
<polygon fill="white" stroke="#bfbfbf" points="1281,-280.5 1281,-299.5 1349,-299.5 1349,-280.5 1281,-280.5"/>
<text text-anchor="middle" x="1315" y="-287.5" font-family="Helvetica,sans-Serif" font-size="10.00">arm_math.h</text>
</g>
<!-- Node4&#45;&gt;Node22 -->
<g id="edge41" class="edge"><title>Node4&#45;&gt;Node22</title>
<path fill="none" stroke="midnightblue" d="M1212.33,-336.444C1232.32,-327.596 1263.74,-313.687 1286.56,-303.586"/>
<polygon fill="midnightblue" stroke="midnightblue" points="1288.03,-306.764 1295.76,-299.516 1285.2,-300.363 1288.03,-306.764"/>
</g>
<!-- Node23 -->
<g id="node23" class="node"><title>Node23</title>
<g id="a_node23"><a xlink:href="a00012.html" target="_top" xlink:title="Controlling beam and primary actuators. ">
<polygon fill="white" stroke="black" points="1423.5,-280.5 1423.5,-299.5 1488.5,-299.5 1488.5,-280.5 1423.5,-280.5"/>
<text text-anchor="middle" x="1456" y="-287.5" font-family="Helvetica,sans-Serif" font-size="10.00">actuators.h</text>
</a>
</g>
</g>
<!-- Node4&#45;&gt;Node23 -->
<g id="edge42" class="edge"><title>Node4&#45;&gt;Node23</title>
<path fill="none" stroke="midnightblue" d="M1216.34,-340.208C1260.6,-331.12 1357.32,-311.261 1413.42,-299.743"/>
<polygon fill="midnightblue" stroke="midnightblue" points="1414.31,-303.133 1423.4,-297.693 1412.9,-296.276 1414.31,-303.133"/>
</g>
<!-- Node24 -->
<g id="node24" class="node"><title>Node24</title>
<g id="a_node24"><a xlink:href="a00014.html" target="_top" xlink:title="Provides DMA related configuration and access functions for ADC and DAC. ">
<polygon fill="white" stroke="black" points="1362,-168.5 1362,-187.5 1448,-187.5 1448,-168.5 1362,-168.5"/>
<text text-anchor="middle" x="1405" y="-175.5" font-family="Helvetica,sans-Serif" font-size="10.00">adc_dac_dma.h</text>
</a>
</g>
</g>
<!-- Node4&#45;&gt;Node24 -->
<g id="edge81" class="edge"><title>Node4&#45;&gt;Node24</title>
<path fill="none" stroke="midnightblue" d="M1216.11,-344.685C1249.62,-342.746 1311.06,-334.182 1349,-300 1379.03,-272.944 1390.05,-224.397 1397.06,-197.76"/>
<polygon fill="midnightblue" stroke="midnightblue" points="1400.52,-198.386 1399.86,-187.812 1393.78,-196.49 1400.52,-198.386"/>
</g>
<!-- Node27 -->
<g id="node27" class="node"><title>Node27</title>
<g id="a_node27"><a xlink:href="a00044.html" target="_top" xlink:title="PID compensator implementation. ">
<polygon fill="white" stroke="black" points="1657,-112.5 1657,-131.5 1695,-131.5 1695,-112.5 1657,-112.5"/>
<text text-anchor="middle" x="1676" y="-119.5" font-family="Helvetica,sans-Serif" font-size="10.00">pid.h</text>
</a>
</g>
</g>
<!-- Node4&#45;&gt;Node27 -->
<g id="edge84" class="edge"><title>Node4&#45;&gt;Node27</title>
<path fill="none" stroke="midnightblue" d="M1216.27,-343.431C1278.51,-338.939 1447.48,-324.741 1497,-300 1574.52,-261.268 1639.34,-176.351 1664.63,-140.029"/>
<polygon fill="midnightblue" stroke="midnightblue" points="1667.69,-141.754 1670.44,-131.523 1661.91,-137.804 1667.69,-141.754"/>
</g>
<!-- Node31 -->
<g id="node31" class="node"><title>Node31</title>
<g id="a_node31"><a xlink:href="a00021.html" target="_top" xlink:title="Provides tools and helper functions. ">
<polygon fill="white" stroke="black" points="1751.5,-112.5 1751.5,-131.5 1802.5,-131.5 1802.5,-112.5 1751.5,-112.5"/>
<text text-anchor="middle" x="1777" y="-119.5" font-family="Helvetica,sans-Serif" font-size="10.00">helper.h</text>
</a>
</g>
</g>
<!-- Node4&#45;&gt;Node31 -->
<g id="edge87" class="edge"><title>Node4&#45;&gt;Node31</title>
<path fill="none" stroke="midnightblue" d="M1216.13,-344.672C1314.79,-343.063 1697.17,-334.621 1737,-300 1783.13,-259.904 1782.31,-178.928 1779.21,-142.059"/>
<polygon fill="midnightblue" stroke="midnightblue" points="1782.66,-141.349 1778.18,-131.747 1775.7,-142.045 1782.66,-141.349"/>
</g>
<!-- Node33 -->
<g id="node33" class="node"><title>Node33</title>
<g id="a_node33"><a xlink:href="a00023.html" target="_top" xlink:title="Analog processing related callback handler definition. ">
<polygon fill="white" stroke="black" points="1117,-224.5 1117,-243.5 1199,-243.5 1199,-224.5 1117,-224.5"/>
<text text-anchor="middle" x="1158" y="-231.5" font-family="Helvetica,sans-Serif" font-size="10.00">isr_callbacks.h</text>
</a>
</g>
</g>
<!-- Node4&#45;&gt;Node33 -->
<g id="edge82" class="edge"><title>Node4&#45;&gt;Node33</title>
<path fill="none" stroke="midnightblue" d="M1186.41,-336.368C1177.41,-318.617 1163.93,-277.666 1158.71,-253.597"/>
<polygon fill="midnightblue" stroke="midnightblue" points="1162.12,-252.809 1156.9,-243.591 1155.23,-254.055 1162.12,-252.809"/>
</g>
<!-- Node34 -->
<g id="node34" class="node"><title>Node34</title>
<g id="a_node34"><a xlink:href="a00040.html" target="_top" xlink:title="Project MD_APP scanner specific pin mappings. ">
<polygon fill="white" stroke="black" points="970.5,-224.5 970.5,-243.5 1037.5,-243.5 1037.5,-224.5 970.5,-224.5"/>
<text text-anchor="middle" x="1004" y="-231.5" font-family="Helvetica,sans-Serif" font-size="10.00">mdb_gpio.h</text>
</a>
</g>
</g>
<!-- Node4&#45;&gt;Node34 -->
<g id="edge83" class="edge"><title>Node4&#45;&gt;Node34</title>
<path fill="none" stroke="midnightblue" d="M1169.78,-340.363C1142.92,-334.235 1098.15,-321.608 1065,-300 1045.24,-287.124 1027.4,-266.548 1016.18,-252"/>
<polygon fill="midnightblue" stroke="midnightblue" points="1018.88,-249.768 1010.1,-243.843 1013.27,-253.952 1018.88,-249.768"/>
</g>
<!-- Node36 -->
<g id="node36" class="node"><title>Node36</title>
<g id="a_node36"><a xlink:href="a00047.html" target="_top" xlink:title="Provides DAC driven signal generator functions. ">
<polygon fill="white" stroke="black" points="1859,-224.5 1859,-243.5 1927,-243.5 1927,-224.5 1859,-224.5"/>
<text text-anchor="middle" x="1893" y="-231.5" font-family="Helvetica,sans-Serif" font-size="10.00">signalGen.h</text>
</a>
</g>
</g>
<!-- Node4&#45;&gt;Node36 -->
<g id="edge85" class="edge"><title>Node4&#45;&gt;Node36</title>
<path fill="none" stroke="midnightblue" d="M1216.17,-344.546C1325.74,-342.248 1788.92,-330.768 1845,-300 1863.97,-289.594 1877.5,-268.136 1885.27,-252.719"/>
<polygon fill="midnightblue" stroke="midnightblue" points="1888.45,-254.176 1889.53,-243.637 1882.11,-251.199 1888.45,-254.176"/>
</g>
<!-- Node10&#45;&gt;Node3 -->
<g id="edge10" class="edge"><title>Node10&#45;&gt;Node3</title>
<path fill="none" stroke="midnightblue" d="M648.905,-112.368C663.492,-94.135 697.659,-51.4257 716.66,-27.6752"/>
<polygon fill="midnightblue" stroke="midnightblue" points="719.613,-29.5866 723.127,-19.5914 714.147,-25.2137 719.613,-29.5866"/>
</g>
<!-- Node10&#45;&gt;Node9 -->
<g id="edge12" class="edge"><title>Node10&#45;&gt;Node9</title>
<path fill="none" stroke="midnightblue" d="M695.759,-113.129C698.546,-112.742 701.305,-112.364 704,-112 821.396,-96.164 960.548,-79.3775 1026.56,-71.5337"/>
<polygon fill="midnightblue" stroke="midnightblue" points="1027.37,-74.9622 1036.89,-70.3086 1026.55,-68.011 1027.37,-74.9622"/>
</g>
<!-- Node11 -->
<g id="node11" class="node"><title>Node11</title>
<polygon fill="white" stroke="#bfbfbf" points="477.5,-56.5 477.5,-75.5 566.5,-75.5 566.5,-56.5 477.5,-56.5"/>
<text text-anchor="middle" x="522" y="-63.5" font-family="Helvetica,sans-Serif" font-size="10.00">stm32f4xx_rcc.h</text>
</g>
<!-- Node10&#45;&gt;Node11 -->
<g id="edge11" class="edge"><title>Node10&#45;&gt;Node11</title>
<path fill="none" stroke="midnightblue" d="M622.986,-112.444C603.412,-103.636 572.692,-89.8116 550.271,-79.722"/>
<polygon fill="midnightblue" stroke="midnightblue" points="551.481,-76.4284 540.925,-75.5164 548.608,-82.8119 551.481,-76.4284"/>
</g>
<!-- Node12&#45;&gt;Node3 -->
<g id="edge15" class="edge"><title>Node12&#45;&gt;Node3</title>
<path fill="none" stroke="midnightblue" d="M748.918,-112.39C735.438,-104.872 718.028,-92.5651 710,-76 702.542,-60.6104 709.926,-41.8274 717.744,-28.4176"/>
<polygon fill="midnightblue" stroke="midnightblue" points="720.863,-30.0371 723.308,-19.7281 714.968,-26.2625 720.863,-30.0371"/>
</g>
<!-- Node12&#45;&gt;Node9 -->
<g id="edge14" class="edge"><title>Node12&#45;&gt;Node9</title>
<path fill="none" stroke="midnightblue" d="M814.219,-112.444C873.116,-101.771 972.655,-83.7337 1026.93,-73.8992"/>
<polygon fill="midnightblue" stroke="midnightblue" points="1027.62,-77.3312 1036.83,-72.1041 1026.37,-70.4433 1027.62,-77.3312"/>
</g>
<!-- Node13 -->
<g id="node13" class="node"><title>Node13</title>
<g id="a_node13"><a xlink:href="a00035.html" target="_top" xlink:title="Provides generic methods for GPIO module initialization and manipulation. ">
<polygon fill="white" stroke="black" points="719,-56.5 719,-75.5 821,-75.5 821,-56.5 719,-56.5"/>
<text text-anchor="middle" x="770" y="-63.5" font-family="Helvetica,sans-Serif" font-size="10.00">md_stm32f4_gpio.h</text>
</a>
</g>
</g>
<!-- Node12&#45;&gt;Node13 -->
<g id="edge16" class="edge"><title>Node12&#45;&gt;Node13</title>
<path fill="none" stroke="midnightblue" d="M767.495,-112.083C767.889,-105.006 768.452,-94.8611 768.945,-85.9865"/>
<polygon fill="midnightblue" stroke="midnightblue" points="772.454,-85.9299 769.514,-75.7511 765.464,-85.5415 772.454,-85.9299"/>
</g>
<!-- Node13&#45;&gt;Node3 -->
<g id="edge17" class="edge"><title>Node13&#45;&gt;Node3</title>
<path fill="none" stroke="midnightblue" d="M763.395,-56.083C757.745,-48.4554 749.455,-37.2645 742.549,-27.9408"/>
<polygon fill="midnightblue" stroke="midnightblue" points="745.247,-25.7034 736.482,-19.7511 739.622,-29.87 745.247,-25.7034"/>
</g>
<!-- Node14&#45;&gt;Node3 -->
<g id="edge19" class="edge"><title>Node14&#45;&gt;Node3</title>
<path fill="none" stroke="midnightblue" d="M124.799,-112.345C135.13,-97.7493 158.26,-68.6012 186,-56 274.376,-15.8542 569.659,-11.1435 684.118,-10.8636"/>
<polygon fill="midnightblue" stroke="midnightblue" points="684.302,-14.3634 694.297,-10.8494 684.292,-7.36342 684.302,-14.3634"/>
</g>
<!-- Node14&#45;&gt;Node11 -->
<g id="edge20" class="edge"><title>Node14&#45;&gt;Node11</title>
<path fill="none" stroke="midnightblue" d="M172.1,-113.885C248.806,-103.607 389.895,-84.7014 467.42,-74.3135"/>
<polygon fill="midnightblue" stroke="midnightblue" points="468.02,-77.7645 477.466,-72.9673 467.09,-70.8265 468.02,-77.7645"/>
</g>
<!-- Node15&#45;&gt;Node3 -->
<g id="edge22" class="edge"><title>Node15&#45;&gt;Node3</title>
<path fill="none" stroke="midnightblue" d="M373.185,-175.437C334.751,-171.747 283.139,-161.152 248,-132 220.525,-109.206 197.896,-82.3337 222,-56 252.865,-22.2805 564.526,-13.6796 683.857,-11.6144"/>
<polygon fill="midnightblue" stroke="midnightblue" points="684.182,-15.1096 694.123,-11.4448 684.067,-8.11058 684.182,-15.1096"/>
</g>
<!-- Node15&#45;&gt;Node9 -->
<g id="edge31" class="edge"><title>Node15&#45;&gt;Node9</title>
<path fill="none" stroke="midnightblue" d="M476.611,-175.438C591.327,-171.506 864.264,-159.486 952,-132 987.527,-120.87 1024.05,-97.205 1045.63,-81.7099"/>
<polygon fill="midnightblue" stroke="midnightblue" points="1047.92,-84.3685 1053.91,-75.6297 1043.78,-78.7255 1047.92,-84.3685"/>
</g>
<!-- Node15&#45;&gt;Node11 -->
<g id="edge23" class="edge"><title>Node15&#45;&gt;Node11</title>
<path fill="none" stroke="midnightblue" d="M430.18,-168.076C437.954,-155.051 453.497,-130.385 470,-112 479.844,-101.033 492.285,-90.1798 502.529,-81.8804"/>
<polygon fill="midnightblue" stroke="midnightblue" points="504.843,-84.5131 510.513,-75.5632 500.499,-79.0237 504.843,-84.5131"/>
</g>
<!-- Node15&#45;&gt;Node13 -->
<g id="edge24" class="edge"><title>Node15&#45;&gt;Node13</title>
<path fill="none" stroke="midnightblue" d="M442.646,-168.398C470.889,-154.896 528.237,-128.563 579,-112 623.744,-97.4009 675.821,-85.4533 714.285,-77.5472"/>
<polygon fill="midnightblue" stroke="midnightblue" points="715.151,-80.943 724.256,-75.5255 713.76,-74.0826 715.151,-80.943"/>
</g>
<!-- Node16 -->
<g id="node16" class="node"><title>Node16</title>
<polygon fill="white" stroke="#bfbfbf" points="231.5,-56.5 231.5,-75.5 320.5,-75.5 320.5,-56.5 231.5,-56.5"/>
<text text-anchor="middle" x="276" y="-63.5" font-family="Helvetica,sans-Serif" font-size="10.00">stm32f4xx_tim.h</text>
</g>
<!-- Node15&#45;&gt;Node16 -->
<g id="edge25" class="edge"><title>Node15&#45;&gt;Node16</title>
<path fill="none" stroke="midnightblue" d="M373.41,-170.114C329.451,-163.064 271.2,-150.505 257,-132 246.314,-118.075 254.554,-98.2845 263.28,-84.2061"/>
<polygon fill="midnightblue" stroke="midnightblue" points="266.194,-86.1446 268.89,-75.8985 260.393,-82.2272 266.194,-86.1446"/>
</g>
<!-- Node17 -->
<g id="node17" class="node"><title>Node17</title>
<g id="a_node17"><a xlink:href="a00059_source.html" target="_top" xlink:title="tm_stm32f4_timer_properties.h">
<polygon fill="white" stroke="black" points="266,-112.5 266,-131.5 418,-131.5 418,-112.5 266,-112.5"/>
<text text-anchor="middle" x="342" y="-119.5" font-family="Helvetica,sans-Serif" font-size="10.00">tm_stm32f4_timer_properties.h</text>
</a>
</g>
</g>
<!-- Node15&#45;&gt;Node17 -->
<g id="edge26" class="edge"><title>Node15&#45;&gt;Node17</title>
<path fill="none" stroke="midnightblue" d="M411.665,-168.324C398.838,-159.979 379.215,-147.212 364.06,-137.352"/>
<polygon fill="midnightblue" stroke="midnightblue" points="365.593,-134.174 355.302,-131.655 361.776,-140.042 365.593,-134.174"/>
</g>
<!-- Node17&#45;&gt;Node3 -->
<g id="edge27" class="edge"><title>Node17&#45;&gt;Node3</title>
<path fill="none" stroke="midnightblue" d="M357.045,-112.498C385.299,-96.6572 445.477,-63.5435 468,-56 541.44,-31.4034 631.18,-19.7172 684.292,-14.5846"/>
<polygon fill="midnightblue" stroke="midnightblue" points="684.778,-18.0546 694.411,-13.6436 684.13,-11.0847 684.778,-18.0546"/>
</g>
<!-- Node17&#45;&gt;Node9 -->
<g id="edge30" class="edge"><title>Node17&#45;&gt;Node9</title>
<path fill="none" stroke="midnightblue" d="M418.28,-115.344C532.859,-106.843 756.209,-90.247 946,-76 972.875,-73.9826 1003.16,-71.6917 1026.46,-69.9261"/>
<polygon fill="midnightblue" stroke="midnightblue" points="1026.92,-73.4009 1036.63,-69.1547 1026.39,-66.4209 1026.92,-73.4009"/>
</g>
<!-- Node17&#45;&gt;Node11 -->
<g id="edge28" class="edge"><title>Node17&#45;&gt;Node11</title>
<path fill="none" stroke="midnightblue" d="M370.522,-112.444C401.066,-103.28 449.708,-88.6876 483.603,-78.5192"/>
<polygon fill="midnightblue" stroke="midnightblue" points="485.039,-81.7424 493.612,-75.5164 483.028,-75.0376 485.039,-81.7424"/>
</g>
<!-- Node17&#45;&gt;Node16 -->
<g id="edge29" class="edge"><title>Node17&#45;&gt;Node16</title>
<path fill="none" stroke="midnightblue" d="M331.396,-112.324C321.544,-104.263 306.649,-92.0765 294.785,-82.3695"/>
<polygon fill="midnightblue" stroke="midnightblue" points="296.753,-79.4575 286.797,-75.8339 292.32,-84.8752 296.753,-79.4575"/>
</g>
<!-- Node18&#45;&gt;Node3 -->
<g id="edge34" class="edge"><title>Node18&#45;&gt;Node3</title>
<path fill="none" stroke="midnightblue" d="M907.465,-112.468C929.152,-100.129 962.694,-76.53 946,-56 925.013,-30.1898 833.073,-18.688 776.121,-13.96"/>
<polygon fill="midnightblue" stroke="midnightblue" points="776.164,-10.4525 765.919,-13.154 775.613,-17.4308 776.164,-10.4525"/>
</g>
<!-- Node18&#45;&gt;Node8 -->
<g id="edge38" class="edge"><title>Node18&#45;&gt;Node8</title>
<path fill="none" stroke="midnightblue" d="M838.927,-113.269C835.57,-112.823 832.239,-112.396 829,-112 668.954,-92.4136 628.415,-92.2958 468,-76 453.534,-74.5305 437.717,-72.901 423.584,-71.437"/>
<polygon fill="midnightblue" stroke="midnightblue" points="423.942,-67.9554 413.635,-70.4048 423.22,-74.918 423.942,-67.9554"/>
</g>
<!-- Node18&#45;&gt;Node9 -->
<g id="edge39" class="edge"><title>Node18&#45;&gt;Node9</title>
<path fill="none" stroke="midnightblue" d="M918.571,-112.444C948.097,-103.28 995.118,-88.6876 1027.88,-78.5192"/>
<polygon fill="midnightblue" stroke="midnightblue" points="1029.04,-81.8232 1037.56,-75.5164 1026.97,-75.1378 1029.04,-81.8232"/>
</g>
<!-- Node18&#45;&gt;Node11 -->
<g id="edge35" class="edge"><title>Node18&#45;&gt;Node11</title>
<path fill="none" stroke="midnightblue" d="M838.914,-113.378C769.517,-103.222 647.295,-85.3359 576.633,-74.9951"/>
<polygon fill="midnightblue" stroke="midnightblue" points="576.995,-71.5109 566.594,-73.5259 575.982,-78.4371 576.995,-71.5109"/>
</g>
<!-- Node18&#45;&gt;Node13 -->
<g id="edge36" class="edge"><title>Node18&#45;&gt;Node13</title>
<path fill="none" stroke="midnightblue" d="M871.827,-112.444C852.091,-103.636 821.115,-89.8116 798.507,-79.722"/>
<polygon fill="midnightblue" stroke="midnightblue" points="799.641,-76.3957 789.083,-75.5164 796.789,-82.788 799.641,-76.3957"/>
</g>
<!-- Node19 -->
<g id="node19" class="node"><title>Node19</title>
<polygon fill="white" stroke="#bfbfbf" points="1320,-56.5 1320,-75.5 1366,-75.5 1366,-56.5 1320,-56.5"/>
<text text-anchor="middle" x="1343" y="-63.5" font-family="Helvetica,sans-Serif" font-size="10.00">misc.h</text>
</g>
<!-- Node18&#45;&gt;Node19 -->
<g id="edge33" class="edge"><title>Node18&#45;&gt;Node19</title>
<path fill="none" stroke="midnightblue" d="M943.292,-114.753C1037.17,-103.537 1231.76,-80.2894 1309.68,-70.9808"/>
<polygon fill="midnightblue" stroke="midnightblue" points="1310.36,-74.4242 1319.88,-69.7625 1309.53,-67.4736 1310.36,-74.4242"/>
</g>
<!-- Node20 -->
<g id="node20" class="node"><title>Node20</title>
<polygon fill="white" stroke="#bfbfbf" points="839,-56.5 839,-75.5 937,-75.5 937,-56.5 839,-56.5"/>
<text text-anchor="middle" x="888" y="-63.5" font-family="Helvetica,sans-Serif" font-size="10.00">stm32f4xx_usart.h</text>
</g>
<!-- Node18&#45;&gt;Node20 -->
<g id="edge37" class="edge"><title>Node18&#45;&gt;Node20</title>
<path fill="none" stroke="midnightblue" d="M890.505,-112.083C890.111,-105.006 889.548,-94.8611 889.055,-85.9865"/>
<polygon fill="midnightblue" stroke="midnightblue" points="892.536,-85.5415 888.486,-75.7511 885.546,-85.9299 892.536,-85.5415"/>
</g>
<!-- Node23&#45;&gt;Node5 -->
<g id="edge43" class="edge"><title>Node23&#45;&gt;Node5</title>
<path fill="none" stroke="midnightblue" d="M1479.18,-280.46C1536.96,-258.813 1691.44,-198.747 1812,-132 1840.39,-116.281 1871.4,-95.2384 1891.01,-81.4106"/>
<polygon fill="midnightblue" stroke="midnightblue" points="1893.05,-84.2574 1899.17,-75.6101 1888.99,-78.5525 1893.05,-84.2574"/>
</g>
<!-- Node23&#45;&gt;Node9 -->
<g id="edge70" class="edge"><title>Node23&#45;&gt;Node9</title>
<path fill="none" stroke="midnightblue" d="M1461.31,-280.259C1477.77,-251.892 1524.32,-161.39 1480,-112 1455.04,-84.1911 1200.96,-71.9832 1103.12,-68.2878"/>
<polygon fill="midnightblue" stroke="midnightblue" points="1103.19,-64.788 1093.07,-67.9174 1102.93,-71.7832 1103.19,-64.788"/>
</g>
<!-- Node23&#45;&gt;Node24 -->
<g id="edge44" class="edge"><title>Node23&#45;&gt;Node24</title>
<path fill="none" stroke="midnightblue" d="M1448.16,-280.368C1436.52,-262.537 1416.96,-221.295 1408.29,-197.272"/>
<polygon fill="midnightblue" stroke="midnightblue" points="1411.57,-196.02 1405.15,-187.591 1404.91,-198.184 1411.57,-196.02"/>
</g>
<!-- Node23&#45;&gt;Node27 -->
<g id="edge79" class="edge"><title>Node23&#45;&gt;Node27</title>
<path fill="none" stroke="midnightblue" d="M1468.24,-280.218C1480.1,-271.508 1498.39,-257.54 1513,-244 1546.68,-212.786 1546.13,-195.372 1583,-168 1602.75,-153.342 1628.02,-141.478 1647.23,-133.619"/>
<polygon fill="midnightblue" stroke="midnightblue" points="1648.66,-136.818 1656.66,-129.881 1646.08,-130.311 1648.66,-136.818"/>
</g>
<!-- Node23&#45;&gt;Node31 -->
<g id="edge80" class="edge"><title>Node23&#45;&gt;Node31</title>
<path fill="none" stroke="midnightblue" d="M1471.55,-280.414C1487.87,-271.389 1514.27,-256.757 1537,-244 1596.7,-210.485 1609.61,-198.316 1671,-168 1695.45,-155.926 1723.94,-143.943 1745.22,-135.382"/>
<polygon fill="midnightblue" stroke="midnightblue" points="1746.75,-138.54 1754.74,-131.586 1744.16,-132.037 1746.75,-138.54"/>
</g>
<!-- Node23&#45;&gt;Node33 -->
<g id="edge71" class="edge"><title>Node23&#45;&gt;Node33</title>
<path fill="none" stroke="midnightblue" d="M1423.26,-283.067C1371.55,-273.698 1270.59,-255.402 1209.23,-244.283"/>
<polygon fill="midnightblue" stroke="midnightblue" points="1209.83,-240.835 1199.36,-242.495 1208.58,-247.723 1209.83,-240.835"/>
</g>
<!-- Node23&#45;&gt;Node34 -->
<g id="edge75" class="edge"><title>Node23&#45;&gt;Node34</title>
<path fill="none" stroke="midnightblue" d="M1423.49,-285.116C1343.76,-275.591 1138.42,-251.059 1047.93,-240.249"/>
<polygon fill="midnightblue" stroke="midnightblue" points="1048.08,-236.742 1037.74,-239.031 1047.25,-243.692 1048.08,-236.742"/>
</g>
<!-- Node24&#45;&gt;Node3 -->
<g id="edge63" class="edge"><title>Node24&#45;&gt;Node3</title>
<path fill="none" stroke="midnightblue" d="M1448.04,-173.754C1502.06,-168.682 1590.07,-156.773 1610,-132 1615.57,-125.073 1615.51,-118.976 1610,-112 1557.73,-45.8056 948.728,-18.8889 775.629,-12.5445"/>
<polygon fill="midnightblue" stroke="midnightblue" points="775.695,-9.04463 765.575,-12.1812 775.442,-16.0401 775.695,-9.04463"/>
</g>
<!-- Node24&#45;&gt;Node4 -->
<g id="edge48" class="edge"><title>Node24&#45;&gt;Node4</title>
<path fill="none" stroke="midnightblue" d="M1408.61,-187.812C1410.82,-210.088 1401.33,-269.079 1367,-300 1328.28,-334.877 1265.11,-343.083 1226.3,-344.796"/>
<polygon fill="midnightblue" stroke="midnightblue" points="1225.93,-341.306 1216.04,-345.123 1226.15,-348.302 1225.93,-341.306"/>
</g>
<!-- Node24&#45;&gt;Node9 -->
<g id="edge45" class="edge"><title>Node24&#45;&gt;Node9</title>
<path fill="none" stroke="midnightblue" d="M1371.27,-168.424C1341.48,-160.407 1297.14,-147.382 1260,-132 1242.37,-124.696 1239.71,-119.111 1222,-112 1182.47,-96.1273 1135.26,-83.3862 1103.01,-75.5678"/>
<polygon fill="midnightblue" stroke="midnightblue" points="1103.63,-72.1176 1093.09,-73.2047 1102,-78.9271 1103.63,-72.1176"/>
</g>
<!-- Node24&#45;&gt;Node11 -->
<g id="edge62" class="edge"><title>Node24&#45;&gt;Node11</title>
<path fill="none" stroke="midnightblue" d="M1361.86,-175.577C1197.02,-170.021 614.456,-149.243 579,-132 557.986,-121.78 541.45,-99.9505 531.717,-84.4119"/>
<polygon fill="midnightblue" stroke="midnightblue" points="534.668,-82.5263 526.557,-75.71 528.647,-86.0966 534.668,-82.5263"/>
</g>
<!-- Node24&#45;&gt;Node23 -->
<g id="edge69" class="edge"><title>Node24&#45;&gt;Node23</title>
<path fill="none" stroke="midnightblue" d="M1412.82,-187.591C1424.44,-205.388 1444.01,-246.625 1452.69,-270.674"/>
<polygon fill="midnightblue" stroke="midnightblue" points="1449.42,-271.942 1455.84,-280.368 1456.07,-269.776 1449.42,-271.942"/>
</g>
<!-- Node25 -->
<g id="node25" class="node"><title>Node25</title>
<g id="a_node25"><a xlink:href="a00042.html" target="_top" xlink:title="Provides nested vector interrupt controller configuration methods. ">
<polygon fill="white" stroke="black" points="1527,-112.5 1527,-131.5 1601,-131.5 1601,-112.5 1527,-112.5"/>
<text text-anchor="middle" x="1564" y="-119.5" font-family="Helvetica,sans-Serif" font-size="10.00">nvic_config.h</text>
</a>
</g>
</g>
<!-- Node24&#45;&gt;Node25 -->
<g id="edge46" class="edge"><title>Node24&#45;&gt;Node25</title>
<path fill="none" stroke="midnightblue" d="M1430.19,-168.444C1456.94,-159.359 1499.4,-144.939 1529.31,-134.783"/>
<polygon fill="midnightblue" stroke="midnightblue" points="1530.58,-138.046 1538.92,-131.516 1528.33,-131.418 1530.58,-138.046"/>
</g>
<!-- Node26 -->
<g id="node26" class="node"><title>Node26</title>
<g id="a_node26"><a xlink:href="a00027.html" target="_top" xlink:title="Project XA&#45;Galvo scanner specific digital to analog converter methods. ">
<polygon fill="white" stroke="black" points="1113,-112.5 1113,-131.5 1213,-131.5 1213,-112.5 1113,-112.5"/>
<text text-anchor="middle" x="1163" y="-119.5" font-family="Helvetica,sans-Serif" font-size="10.00">md_stm32f4_dac.h</text>
</a>
</g>
</g>
<!-- Node24&#45;&gt;Node26 -->
<g id="edge49" class="edge"><title>Node24&#45;&gt;Node26</title>
<path fill="none" stroke="midnightblue" d="M1366.65,-168.444C1324.53,-159.043 1256.79,-143.929 1211.13,-133.739"/>
<polygon fill="midnightblue" stroke="midnightblue" points="1211.69,-130.278 1201.17,-131.516 1210.16,-137.11 1211.69,-130.278"/>
</g>
<!-- Node24&#45;&gt;Node27 -->
<g id="edge53" class="edge"><title>Node24&#45;&gt;Node27</title>
<path fill="none" stroke="midnightblue" d="M1448.21,-169.892C1496.06,-161.774 1575.39,-147.586 1643,-132 1644.27,-131.707 1645.56,-131.399 1646.87,-131.079"/>
<polygon fill="midnightblue" stroke="midnightblue" points="1648.06,-134.385 1656.87,-128.494 1646.31,-127.608 1648.06,-134.385"/>
</g>
<!-- Node29 -->
<g id="node29" class="node"><title>Node29</title>
<polygon fill="white" stroke="#bfbfbf" points="1269,-112.5 1269,-131.5 1361,-131.5 1361,-112.5 1269,-112.5"/>
<text text-anchor="middle" x="1315" y="-119.5" font-family="Helvetica,sans-Serif" font-size="10.00">stm32f4xx_adc.h</text>
</g>
<!-- Node24&#45;&gt;Node29 -->
<g id="edge60" class="edge"><title>Node24&#45;&gt;Node29</title>
<path fill="none" stroke="midnightblue" d="M1390.54,-168.324C1376.5,-159.9 1354.95,-146.971 1338.46,-137.074"/>
<polygon fill="midnightblue" stroke="midnightblue" points="1339.8,-133.798 1329.42,-131.655 1336.2,-139.801 1339.8,-133.798"/>
</g>
<!-- Node30 -->
<g id="node30" class="node"><title>Node30</title>
<polygon fill="white" stroke="#bfbfbf" points="1379,-112.5 1379,-131.5 1471,-131.5 1471,-112.5 1379,-112.5"/>
<text text-anchor="middle" x="1425" y="-119.5" font-family="Helvetica,sans-Serif" font-size="10.00">stm32f4xx_dac.h</text>
</g>
<!-- Node24&#45;&gt;Node30 -->
<g id="edge61" class="edge"><title>Node24&#45;&gt;Node30</title>
<path fill="none" stroke="midnightblue" d="M1408.3,-168.083C1410.98,-160.849 1414.85,-150.409 1418.19,-141.397"/>
<polygon fill="midnightblue" stroke="midnightblue" points="1421.57,-142.344 1421.76,-131.751 1415,-139.913 1421.57,-142.344"/>
</g>
<!-- Node24&#45;&gt;Node31 -->
<g id="edge64" class="edge"><title>Node24&#45;&gt;Node31</title>
<path fill="none" stroke="midnightblue" d="M1448.04,-170.753C1522.11,-160.001 1672.34,-138.193 1741.14,-128.206"/>
<polygon fill="midnightblue" stroke="midnightblue" points="1742.06,-131.609 1751.45,-126.708 1741.05,-124.681 1742.06,-131.609"/>
</g>
<!-- Node25&#45;&gt;Node19 -->
<g id="edge47" class="edge"><title>Node25&#45;&gt;Node19</title>
<path fill="none" stroke="midnightblue" d="M1528.98,-112.444C1486.91,-102.163 1416.86,-85.0475 1375.8,-75.0141"/>
<polygon fill="midnightblue" stroke="midnightblue" points="1376.56,-71.5981 1366.02,-72.6243 1374.9,-78.398 1376.56,-71.5981"/>
</g>
<!-- Node26&#45;&gt;Node3 -->
<g id="edge50" class="edge"><title>Node26&#45;&gt;Node3</title>
<path fill="none" stroke="midnightblue" d="M1157.87,-112.46C1148.69,-98.0378 1127.96,-69.1442 1102,-56 1045.88,-27.5815 862.262,-16.4191 775.801,-12.6589"/>
<polygon fill="midnightblue" stroke="midnightblue" points="775.892,-9.15971 765.754,-12.2364 775.598,-16.1535 775.892,-9.15971"/>
</g>
<!-- Node26&#45;&gt;Node9 -->
<g id="edge51" class="edge"><title>Node26&#45;&gt;Node9</title>
<path fill="none" stroke="midnightblue" d="M1147.25,-112.324C1131.68,-103.743 1107.62,-90.486 1089.54,-80.5224"/>
<polygon fill="midnightblue" stroke="midnightblue" points="1091.15,-77.4152 1080.71,-75.6545 1087.78,-83.546 1091.15,-77.4152"/>
</g>
<!-- Node26&#45;&gt;Node13 -->
<g id="edge52" class="edge"><title>Node26&#45;&gt;Node13</title>
<path fill="none" stroke="midnightblue" d="M1112.76,-114.442C1049.51,-106.136 937.26,-91.2226 830.989,-76.1244"/>
<polygon fill="midnightblue" stroke="midnightblue" points="831.449,-72.6547 821.056,-74.71 830.462,-79.5848 831.449,-72.6547"/>
</g>
<!-- Node27&#45;&gt;Node3 -->
<g id="edge58" class="edge"><title>Node27&#45;&gt;Node3</title>
<path fill="none" stroke="midnightblue" d="M1672.68,-112.322C1666.57,-97.691 1652.01,-68.4913 1629,-56 1553.72,-15.1272 947.858,-11.258 775.558,-10.9891"/>
<polygon fill="midnightblue" stroke="midnightblue" points="775.554,-7.48916 765.549,-10.9768 775.545,-14.4892 775.554,-7.48916"/>
</g>
<!-- Node27&#45;&gt;Node5 -->
<g id="edge55" class="edge"><title>Node27&#45;&gt;Node5</title>
<path fill="none" stroke="midnightblue" d="M1695.11,-117.135C1729.65,-110.074 1804.94,-94.3213 1878.13,-76.1109"/>
<polygon fill="midnightblue" stroke="midnightblue" points="1879.12,-79.4703 1887.97,-73.6437 1877.42,-72.6804 1879.12,-79.4703"/>
</g>
<!-- Node27&#45;&gt;Node6 -->
<g id="edge54" class="edge"><title>Node27&#45;&gt;Node6</title>
<path fill="none" stroke="midnightblue" d="M1680.13,-112.083C1683.51,-104.77 1688.42,-94.1814 1692.62,-85.1034"/>
<polygon fill="midnightblue" stroke="midnightblue" points="1695.92,-86.2962 1696.95,-75.7511 1689.57,-83.3553 1695.92,-86.2962"/>
</g>
<!-- Node27&#45;&gt;Node7 -->
<g id="edge56" class="edge"><title>Node27&#45;&gt;Node7</title>
<path fill="none" stroke="midnightblue" d="M1695.06,-114.91C1723.03,-105.973 1775.65,-89.1601 1810.52,-78.0187"/>
<polygon fill="midnightblue" stroke="midnightblue" points="1811.82,-81.2758 1820.28,-74.8981 1809.69,-74.6079 1811.82,-81.2758"/>
</g>
<!-- Node27&#45;&gt;Node9 -->
<g id="edge59" class="edge"><title>Node27&#45;&gt;Node9</title>
<path fill="none" stroke="midnightblue" d="M1656.97,-118.132C1643.8,-116.215 1625.86,-113.735 1610,-112 1420.23,-91.2415 1192.34,-75.3305 1103.29,-69.4587"/>
<polygon fill="midnightblue" stroke="midnightblue" points="1103.34,-65.9544 1093.13,-68.7928 1102.88,-72.9394 1103.34,-65.9544"/>
</g>
<!-- Node28 -->
<g id="node28" class="node"><title>Node28</title>
<polygon fill="white" stroke="#bfbfbf" points="1571.5,-56.5 1571.5,-75.5 1620.5,-75.5 1620.5,-56.5 1571.5,-56.5"/>
<text text-anchor="middle" x="1596" y="-63.5" font-family="Helvetica,sans-Serif" font-size="10.00">stdint.h</text>
</g>
<!-- Node27&#45;&gt;Node28 -->
<g id="edge57" class="edge"><title>Node27&#45;&gt;Node28</title>
<path fill="none" stroke="midnightblue" d="M1663.15,-112.324C1650.78,-103.979 1631.87,-91.2122 1617.26,-81.3524"/>
<polygon fill="midnightblue" stroke="midnightblue" points="1619.07,-78.3483 1608.82,-75.6545 1615.15,-84.1503 1619.07,-78.3483"/>
</g>
<!-- Node31&#45;&gt;Node5 -->
<g id="edge65" class="edge"><title>Node31&#45;&gt;Node5</title>
<path fill="none" stroke="midnightblue" d="M1798.23,-112.444C1820.38,-103.517 1855.32,-89.4387 1880.44,-79.3168"/>
<polygon fill="midnightblue" stroke="midnightblue" points="1881.9,-82.5006 1889.87,-75.5164 1879.28,-76.0079 1881.9,-82.5006"/>
</g>
<!-- Node31&#45;&gt;Node6 -->
<g id="edge67" class="edge"><title>Node31&#45;&gt;Node6</title>
<path fill="none" stroke="midnightblue" d="M1764.79,-112.324C1753.22,-104.107 1735.62,-91.6017 1721.84,-81.8069"/>
<polygon fill="midnightblue" stroke="midnightblue" points="1723.61,-78.7729 1713.43,-75.8339 1719.56,-84.4791 1723.61,-78.7729"/>
</g>
<!-- Node31&#45;&gt;Node7 -->
<g id="edge66" class="edge"><title>Node31&#45;&gt;Node7</title>
<path fill="none" stroke="midnightblue" d="M1787.93,-112.324C1798.17,-104.185 1813.72,-91.8395 1826,-82.0874"/>
<polygon fill="midnightblue" stroke="midnightblue" points="1828.22,-84.7937 1833.88,-75.8339 1823.87,-79.3119 1828.22,-84.7937"/>
</g>
<!-- Node32 -->
<g id="node32" class="node"><title>Node32</title>
<polygon fill="white" stroke="#bfbfbf" points="1743.5,-56.5 1743.5,-75.5 1802.5,-75.5 1802.5,-56.5 1743.5,-56.5"/>
<text text-anchor="middle" x="1773" y="-63.5" font-family="Helvetica,sans-Serif" font-size="10.00">inttypes.h</text>
</g>
<!-- Node31&#45;&gt;Node32 -->
<g id="edge68" class="edge"><title>Node31&#45;&gt;Node32</title>
<path fill="none" stroke="midnightblue" d="M1776.34,-112.083C1775.82,-105.006 1775.06,-94.8611 1774.41,-85.9865"/>
<polygon fill="midnightblue" stroke="midnightblue" points="1777.88,-85.4652 1773.65,-75.7511 1770.9,-85.9823 1777.88,-85.4652"/>
</g>
<!-- Node33&#45;&gt;Node4 -->
<g id="edge72" class="edge"><title>Node33&#45;&gt;Node4</title>
<path fill="none" stroke="midnightblue" d="M1164.57,-243.591C1173.56,-261.308 1187.05,-302.254 1192.28,-326.348"/>
<polygon fill="midnightblue" stroke="midnightblue" points="1188.87,-327.153 1194.1,-336.368 1195.76,-325.905 1188.87,-327.153"/>
</g>
<!-- Node33&#45;&gt;Node9 -->
<g id="edge73" class="edge"><title>Node33&#45;&gt;Node9</title>
<path fill="none" stroke="midnightblue" d="M1153,-224.075C1138.23,-197.719 1094.62,-119.878 1074.89,-84.6608"/>
<polygon fill="midnightblue" stroke="midnightblue" points="1077.74,-82.5816 1069.8,-75.5681 1071.63,-86.003 1077.74,-82.5816"/>
</g>
<!-- Node33&#45;&gt;Node24 -->
<g id="edge74" class="edge"><title>Node33&#45;&gt;Node24</title>
<path fill="none" stroke="midnightblue" d="M1197.14,-224.444C1240.23,-215.023 1309.56,-199.866 1356.17,-189.675"/>
<polygon fill="midnightblue" stroke="midnightblue" points="1357.02,-193.072 1366.05,-187.516 1355.53,-186.233 1357.02,-193.072"/>
</g>
<!-- Node34&#45;&gt;Node3 -->
<g id="edge76" class="edge"><title>Node34&#45;&gt;Node3</title>
<path fill="none" stroke="midnightblue" d="M986.498,-224.465C973.213,-216.917 955.924,-204.533 948,-188 922.481,-134.755 1000.58,-101.537 963,-56 939.759,-27.8406 837.007,-17.1027 775.986,-13.161"/>
<polygon fill="midnightblue" stroke="midnightblue" points="776.033,-9.65748 765.838,-12.5431 775.607,-16.6445 776.033,-9.65748"/>
</g>
<!-- Node34&#45;&gt;Node11 -->
<g id="edge78" class="edge"><title>Node34&#45;&gt;Node11</title>
<path fill="none" stroke="midnightblue" d="M970.283,-229.478C876.466,-219.076 614.998,-185.807 550,-132 535.971,-120.387 528.801,-100.432 525.25,-85.6879"/>
<polygon fill="midnightblue" stroke="midnightblue" points="528.629,-84.7432 523.187,-75.6531 521.773,-86.1531 528.629,-84.7432"/>
</g>
<!-- Node35 -->
<g id="node35" class="node"><title>Node35</title>
<polygon fill="white" stroke="#bfbfbf" points="957,-168.5 957,-187.5 1051,-187.5 1051,-168.5 957,-168.5"/>
<text text-anchor="middle" x="1004" y="-175.5" font-family="Helvetica,sans-Serif" font-size="10.00">stm32f4xx_gpio.h</text>
</g>
<!-- Node34&#45;&gt;Node35 -->
<g id="edge77" class="edge"><title>Node34&#45;&gt;Node35</title>
<path fill="none" stroke="midnightblue" d="M1004,-224.083C1004,-217.006 1004,-206.861 1004,-197.986"/>
<polygon fill="midnightblue" stroke="midnightblue" points="1007.5,-197.751 1004,-187.751 1000.5,-197.751 1007.5,-197.751"/>
</g>
<!-- Node36&#45;&gt;Node5 -->
<g id="edge86" class="edge"><title>Node36&#45;&gt;Node5</title>
<path fill="none" stroke="midnightblue" d="M1893.97,-224.075C1896.8,-197.945 1905.12,-121.211 1908.99,-85.577"/>
<polygon fill="midnightblue" stroke="midnightblue" points="1912.47,-85.8872 1910.07,-75.5681 1905.51,-85.1325 1912.47,-85.8872"/>
</g>
</g>
</svg>
