<?xml version="1.0" encoding="UTF-8" standalone="no"?>
<!DOCTYPE svg PUBLIC "-//W3C//DTD SVG 1.1//EN"
 "http://www.w3.org/Graphics/SVG/1.1/DTD/svg11.dtd">
<!-- Generated by graphviz version 2.38.0 (20140413.2041)
 -->
<!-- Title: EXTI_Exported_Constants Pages: 1 -->
<svg width="321pt" height="28pt"
 viewBox="0.00 0.00 321.00 28.00" xmlns="http://www.w3.org/2000/svg" xmlns:xlink="http://www.w3.org/1999/xlink">
<g id="graph0" class="graph" transform="scale(1 1) rotate(0) translate(4 24)">
<title>EXTI_Exported_Constants</title>
<polygon fill="white" stroke="none" points="-4,4 -4,-24 317,-24 317,4 -4,4"/>
<!-- Node0 -->
<g id="node1" class="node"><title>Node0</title>
<polygon fill="#bfbfbf" stroke="black" points="75,-0.5 75,-19.5 209,-19.5 209,-0.5 75,-0.5"/>
<text text-anchor="middle" x="142" y="-7.5" font-family="Helvetica,sans-Serif" font-size="10.00">EXTI_Exported_Constants</text>
</g>
<!-- Node2 -->
<g id="node2" class="node"><title>Node2</title>
<g id="a_node2"><a xlink:href="a00296.html" target="_top" xlink:title="EXTI_Lines">
<polygon fill="white" stroke="black" points="245,-0.5 245,-19.5 313,-19.5 313,-0.5 245,-0.5"/>
<text text-anchor="middle" x="279" y="-7.5" font-family="Helvetica,sans-Serif" font-size="10.00">EXTI_Lines</text>
</a>
</g>
</g>
<!-- Node0&#45;&gt;Node2 -->
<g id="edge2" class="edge"><title>Node0&#45;&gt;Node2</title>
<path fill="none" stroke="black" d="M219.357,-10C228.204,-10 236.844,-10 244.656,-10"/>
<polygon fill="black" stroke="black" points="219.314,-6.5001 209.314,-10 219.313,-13.5001 219.314,-6.5001"/>
</g>
<!-- Node1 -->
<g id="node3" class="node"><title>Node1</title>
<g id="a_node3"><a xlink:href="a00011.html" target="_top" xlink:title="EXTI driver modules. ">
<polygon fill="white" stroke="black" points="0,-0.5 0,-19.5 39,-19.5 39,-0.5 0,-0.5"/>
<text text-anchor="middle" x="19.5" y="-7.5" font-family="Helvetica,sans-Serif" font-size="10.00">EXTI</text>
</a>
</g>
</g>
<!-- Node1&#45;&gt;Node0 -->
<g id="edge1" class="edge"><title>Node1&#45;&gt;Node0</title>
<path fill="none" stroke="black" d="M49.3285,-10C57.1043,-10 65.8498,-10 74.7718,-10"/>
<polygon fill="black" stroke="black" points="49.0641,-6.5001 39.064,-10 49.064,-13.5001 49.0641,-6.5001"/>
</g>
</g>
</svg>
