<?xml version="1.0" encoding="UTF-8" standalone="no"?>
<!DOCTYPE svg PUBLIC "-//W3C//DTD SVG 1.1//EN"
 "http://www.w3.org/Graphics/SVG/1.1/DTD/svg11.dtd">
<!-- Generated by graphviz version 2.38.0 (20140413.2041)
 -->
<!-- Title: mdb_gpio.h Pages: 1 -->
<svg width="362pt" height="308pt"
 viewBox="0.00 0.00 361.77 308.00" xmlns="http://www.w3.org/2000/svg" xmlns:xlink="http://www.w3.org/1999/xlink">
<g id="graph0" class="graph" transform="scale(1 1) rotate(0) translate(4 304)">
<title>mdb_gpio.h</title>
<polygon fill="white" stroke="none" points="-4,4 -4,-304 357.774,-304 357.774,4 -4,4"/>
<!-- Node1 -->
<g id="node1" class="node"><title>Node1</title>
<polygon fill="#bfbfbf" stroke="black" points="115.547,-280.5 115.547,-299.5 182.547,-299.5 182.547,-280.5 115.547,-280.5"/>
<text text-anchor="middle" x="149.047" y="-287.5" font-family="Helvetica,sans-Serif" font-size="10.00">mdb_gpio.h</text>
</g>
<!-- Node2 -->
<g id="node2" class="node"><title>Node2</title>
<g id="a_node2"><a xlink:href="a00024.html" target="_top" xlink:title="Main header definition. ">
<polygon fill="white" stroke="black" points="126.047,-224.5 126.047,-243.5 172.047,-243.5 172.047,-224.5 126.047,-224.5"/>
<text text-anchor="middle" x="149.047" y="-231.5" font-family="Helvetica,sans-Serif" font-size="10.00">main.h</text>
</a>
</g>
</g>
<!-- Node1&#45;&gt;Node2 -->
<g id="edge1" class="edge"><title>Node1&#45;&gt;Node2</title>
<path fill="none" stroke="midnightblue" d="M149.047,-269.805C149.047,-260.91 149.047,-250.78 149.047,-243.751"/>
<polygon fill="midnightblue" stroke="midnightblue" points="145.547,-270.083 149.047,-280.083 152.547,-270.083 145.547,-270.083"/>
</g>
<!-- Node4 -->
<g id="node4" class="node"><title>Node4</title>
<g id="a_node4"><a xlink:href="a00011.html" target="_top" xlink:title="Controlling beam and primary actuators. ">
<polygon fill="white" stroke="black" points="12.5473,-56.5 12.5473,-75.5 77.5473,-75.5 77.5473,-56.5 12.5473,-56.5"/>
<text text-anchor="middle" x="45.0473" y="-63.5" font-family="Helvetica,sans-Serif" font-size="10.00">actuators.h</text>
</a>
</g>
</g>
<!-- Node1&#45;&gt;Node4 -->
<g id="edge18" class="edge"><title>Node1&#45;&gt;Node4</title>
<path fill="none" stroke="midnightblue" d="M115.912,-276.604C81.0939,-261.572 28.2287,-232.574 5.04733,-188 -0.715486,-176.919 -3.63619,-142.049 8.04733,-112 13.7652,-97.2943 26.2539,-83.801 35.1383,-75.5032"/>
<polygon fill="midnightblue" stroke="midnightblue" points="114.637,-279.864 125.214,-280.474 117.326,-273.401 114.637,-279.864"/>
</g>
<!-- Node11 -->
<g id="node11" class="node"><title>Node11</title>
<g id="a_node11"><a xlink:href="a00038.html" target="_top" xlink:title="DESCRIPTION. ">
<polygon fill="white" stroke="black" points="190.547,-224.5 190.547,-243.5 257.547,-243.5 257.547,-224.5 190.547,-224.5"/>
<text text-anchor="middle" x="224.047" y="-231.5" font-family="Helvetica,sans-Serif" font-size="10.00">mdb_gpio.c</text>
</a>
</g>
</g>
<!-- Node1&#45;&gt;Node11 -->
<g id="edge19" class="edge"><title>Node1&#45;&gt;Node11</title>
<path fill="none" stroke="midnightblue" d="M169.352,-274.38C182.908,-264.62 200.289,-252.106 211.778,-243.834"/>
<polygon fill="midnightblue" stroke="midnightblue" points="167.168,-271.641 161.097,-280.324 171.258,-277.321 167.168,-271.641"/>
</g>
<!-- Node3 -->
<g id="node3" class="node"><title>Node3</title>
<g id="a_node3"><a xlink:href="a00013.html" target="_top" xlink:title="Provides DMA related configuration and access functions for ADC and DAC. ">
<polygon fill="white" stroke="black" points="26.0473,-168.5 26.0473,-187.5 112.047,-187.5 112.047,-168.5 26.0473,-168.5"/>
<text text-anchor="middle" x="69.0473" y="-175.5" font-family="Helvetica,sans-Serif" font-size="10.00">adc_dac_dma.h</text>
</a>
</g>
</g>
<!-- Node2&#45;&gt;Node3 -->
<g id="edge2" class="edge"><title>Node2&#45;&gt;Node3</title>
<path fill="none" stroke="midnightblue" d="M122.202,-218.935C106.409,-209.099 87.6797,-196.263 76.9859,-187.834"/>
<polygon fill="midnightblue" stroke="midnightblue" points="120.715,-222.126 131.079,-224.324 124.347,-216.143 120.715,-222.126"/>
</g>
<!-- Node6 -->
<g id="node6" class="node"><title>Node6</title>
<g id="a_node6"><a xlink:href="a00021.html" target="_top" xlink:title="Callback handler implementations. ">
<polygon fill="white" stroke="black" points="186.047,-0.5 186.047,-19.5 268.047,-19.5 268.047,-0.5 186.047,-0.5"/>
<text text-anchor="middle" x="227.047" y="-7.5" font-family="Helvetica,sans-Serif" font-size="10.00">irq_callbacks.c</text>
</a>
</g>
</g>
<!-- Node2&#45;&gt;Node6 -->
<g id="edge15" class="edge"><title>Node2&#45;&gt;Node6</title>
<path fill="none" stroke="midnightblue" d="M182.15,-224.071C255.478,-209.283 297.471,-242.471 341.047,-188 389.454,-127.492 279.507,-45.8152 240.283,-19.5265"/>
<polygon fill="midnightblue" stroke="midnightblue" points="181.053,-220.731 172.08,-226.365 182.608,-227.556 181.053,-220.731"/>
</g>
<!-- Node7 -->
<g id="node7" class="node"><title>Node7</title>
<g id="a_node7"><a xlink:href="a00022.html" target="_top" xlink:title="Analog processing related callback handler definition. ">
<polygon fill="white" stroke="black" points="186.047,-112.5 186.047,-131.5 268.047,-131.5 268.047,-112.5 186.047,-112.5"/>
<text text-anchor="middle" x="227.047" y="-119.5" font-family="Helvetica,sans-Serif" font-size="10.00">irq_callbacks.h</text>
</a>
</g>
</g>
<!-- Node2&#45;&gt;Node7 -->
<g id="edge14" class="edge"><title>Node2&#45;&gt;Node7</title>
<path fill="none" stroke="midnightblue" d="M147.232,-214.298C150.354,-200.674 157.863,-182.195 168.047,-168 178.6,-153.292 194.704,-139.898 207.765,-131.618"/>
<polygon fill="midnightblue" stroke="midnightblue" points="143.739,-213.985 145.68,-224.401 150.658,-215.049 143.739,-213.985"/>
</g>
<!-- Node9 -->
<g id="node9" class="node"><title>Node9</title>
<g id="a_node9"><a xlink:href="a00023.html" target="_top" xlink:title="Main source implementation (29&#45;04&#45;2015) ">
<polygon fill="white" stroke="black" points="186.047,-168.5 186.047,-187.5 232.047,-187.5 232.047,-168.5 186.047,-168.5"/>
<text text-anchor="middle" x="209.047" y="-175.5" font-family="Helvetica,sans-Serif" font-size="10.00">main.c</text>
</a>
</g>
</g>
<!-- Node2&#45;&gt;Node9 -->
<g id="edge16" class="edge"><title>Node2&#45;&gt;Node9</title>
<path fill="none" stroke="midnightblue" d="M166.228,-217.537C176.927,-207.909 190.304,-195.869 199.232,-187.834"/>
<polygon fill="midnightblue" stroke="midnightblue" points="163.779,-215.033 158.687,-224.324 168.462,-220.236 163.779,-215.033"/>
</g>
<!-- Node10 -->
<g id="node10" class="node"><title>Node10</title>
<g id="a_node10"><a xlink:href="a00050.html" target="_top" xlink:title="stm32f4xx_it.c">
<polygon fill="white" stroke="black" points="250.547,-168.5 250.547,-187.5 331.547,-187.5 331.547,-168.5 250.547,-168.5"/>
<text text-anchor="middle" x="291.047" y="-175.5" font-family="Helvetica,sans-Serif" font-size="10.00">stm32f4xx_it.c</text>
</a>
</g>
</g>
<!-- Node2&#45;&gt;Node10 -->
<g id="edge17" class="edge"><title>Node2&#45;&gt;Node10</title>
<path fill="none" stroke="midnightblue" d="M181.202,-220.772C207.876,-210.629 245.116,-196.467 268.652,-187.516"/>
<polygon fill="midnightblue" stroke="midnightblue" points="179.651,-217.618 171.548,-224.444 182.139,-224.16 179.651,-217.618"/>
</g>
<!-- Node3&#45;&gt;Node2 -->
<g id="edge8" class="edge"><title>Node3&#45;&gt;Node2</title>
<path fill="none" stroke="midnightblue" d="M95.9072,-193.074C111.797,-202.971 130.653,-215.9 141.309,-224.324"/>
<polygon fill="midnightblue" stroke="midnightblue" points="97.3435,-189.852 86.979,-187.655 93.7111,-195.836 97.3435,-189.852"/>
</g>
<!-- Node3&#45;&gt;Node4 -->
<g id="edge3" class="edge"><title>Node3&#45;&gt;Node4</title>
<path fill="none" stroke="midnightblue" d="M59.866,-158.674C52.1494,-134.625 43.6015,-93.3881 43.0864,-75.5914"/>
<polygon fill="midnightblue" stroke="midnightblue" points="56.667,-160.124 63.3211,-168.368 63.2607,-157.774 56.667,-160.124"/>
</g>
<!-- Node3&#45;&gt;Node7 -->
<g id="edge9" class="edge"><title>Node3&#45;&gt;Node7</title>
<path fill="none" stroke="midnightblue" d="M103.655,-165.172C133.406,-155.004 175.594,-140.585 202.129,-131.516"/>
<polygon fill="midnightblue" stroke="midnightblue" points="102.414,-161.898 94.0829,-168.444 104.677,-168.521 102.414,-161.898"/>
</g>
<!-- Node8 -->
<g id="node8" class="node"><title>Node8</title>
<g id="a_node8"><a xlink:href="a00012.html" target="_top" xlink:title="adc_dac_dma.c">
<polygon fill="white" stroke="black" points="82.0473,-112.5 82.0473,-131.5 168.047,-131.5 168.047,-112.5 82.0473,-112.5"/>
<text text-anchor="middle" x="125.047" y="-119.5" font-family="Helvetica,sans-Serif" font-size="10.00">adc_dac_dma.c</text>
</a>
</g>
</g>
<!-- Node3&#45;&gt;Node8 -->
<g id="edge13" class="edge"><title>Node3&#45;&gt;Node8</title>
<path fill="none" stroke="midnightblue" d="M85.3772,-161.253C95.3123,-151.673 107.635,-139.791 115.886,-131.834"/>
<polygon fill="midnightblue" stroke="midnightblue" points="82.8137,-158.863 78.0447,-168.324 87.6727,-163.902 82.8137,-158.863"/>
</g>
<!-- Node4&#45;&gt;Node2 -->
<g id="edge4" class="edge"><title>Node4&#45;&gt;Node2</title>
<path fill="none" stroke="midnightblue" d="M33.3692,-83.9444C17.7083,-108.974 -5.6508,-156.281 17.0473,-188 41.9161,-222.752 95.2388,-230.975 125.959,-232.731"/>
<polygon fill="midnightblue" stroke="midnightblue" points="36.3342,-85.8053 38.8824,-75.5214 30.4773,-81.9716 36.3342,-85.8053"/>
</g>
<!-- Node4&#45;&gt;Node3 -->
<g id="edge5" class="edge"><title>Node4&#45;&gt;Node3</title>
<path fill="none" stroke="midnightblue" d="M54.2113,-85.2717C61.9266,-109.295 70.4799,-150.537 71.0071,-168.368"/>
<polygon fill="midnightblue" stroke="midnightblue" points="57.4144,-83.8336 50.7573,-75.5914 50.8215,-86.1861 57.4144,-83.8336"/>
</g>
<!-- Node5 -->
<g id="node5" class="node"><title>Node5</title>
<g id="a_node5"><a xlink:href="a00010.html" target="_top" xlink:title="Controlling beam and primary actuators. ">
<polygon fill="white" stroke="black" points="12.5473,-0.5 12.5473,-19.5 77.5473,-19.5 77.5473,-0.5 12.5473,-0.5"/>
<text text-anchor="middle" x="45.0473" y="-7.5" font-family="Helvetica,sans-Serif" font-size="10.00">actuators.c</text>
</a>
</g>
</g>
<!-- Node4&#45;&gt;Node5 -->
<g id="edge6" class="edge"><title>Node4&#45;&gt;Node5</title>
<path fill="none" stroke="midnightblue" d="M45.0473,-45.8045C45.0473,-36.9102 45.0473,-26.7798 45.0473,-19.7511"/>
<polygon fill="midnightblue" stroke="midnightblue" points="41.5474,-46.083 45.0473,-56.083 48.5474,-46.083 41.5474,-46.083"/>
</g>
<!-- Node4&#45;&gt;Node6 -->
<g id="edge7" class="edge"><title>Node4&#45;&gt;Node6</title>
<path fill="none" stroke="midnightblue" d="M83.5783,-53.5677C117.912,-43.381 167.38,-28.7034 198.344,-19.5164"/>
<polygon fill="midnightblue" stroke="midnightblue" points="82.4771,-50.2436 73.8858,-56.4435 84.4683,-56.9544 82.4771,-50.2436"/>
</g>
<!-- Node7&#45;&gt;Node2 -->
<g id="edge10" class="edge"><title>Node7&#45;&gt;Node2</title>
<path fill="none" stroke="midnightblue" d="M213.951,-138.635C205.085,-146.597 193.993,-156.926 186.047,-168 173.011,-186.17 164.358,-211.357 157.212,-224.401"/>
<polygon fill="midnightblue" stroke="midnightblue" points="216.487,-141.062 221.594,-131.779 211.813,-135.851 216.487,-141.062"/>
</g>
<!-- Node7&#45;&gt;Node4 -->
<g id="edge11" class="edge"><title>Node7&#45;&gt;Node4</title>
<path fill="none" stroke="midnightblue" d="M188.516,-109.568C154.183,-99.381 104.714,-84.7034 73.7509,-75.5164"/>
<polygon fill="midnightblue" stroke="midnightblue" points="187.626,-112.954 198.209,-112.444 189.618,-106.244 187.626,-112.954"/>
</g>
<!-- Node7&#45;&gt;Node6 -->
<g id="edge12" class="edge"><title>Node7&#45;&gt;Node6</title>
<path fill="none" stroke="midnightblue" d="M227.047,-102.348C227.047,-78.2538 227.047,-37.3079 227.047,-19.5914"/>
<polygon fill="midnightblue" stroke="midnightblue" points="223.547,-102.368 227.047,-112.368 230.547,-102.369 223.547,-102.368"/>
</g>
</g>
</svg>
