<?xml version="1.0" encoding="UTF-8" standalone="no"?>
<!DOCTYPE svg PUBLIC "-//W3C//DTD SVG 1.1//EN"
 "http://www.w3.org/Graphics/SVG/1.1/DTD/svg11.dtd">
<!-- Generated by graphviz version 2.38.0 (20140413.2041)
 -->
<!-- Title: DMA_Exported_Constants Pages: 1 -->
<svg width="427pt" height="810pt"
 viewBox="0.00 0.00 427.00 810.00" xmlns="http://www.w3.org/2000/svg" xmlns:xlink="http://www.w3.org/1999/xlink">
<g id="graph0" class="graph" transform="scale(1 1) rotate(0) translate(4 806)">
<title>DMA_Exported_Constants</title>
<polygon fill="white" stroke="none" points="-4,4 -4,-806 423,-806 423,4 -4,4"/>
<!-- Node8 -->
<g id="node1" class="node"><title>Node8</title>
<g id="a_node1"><a xlink:href="a00267.html" target="_top" xlink:title="DMA_memory_data_size">
<polygon fill="white" stroke="black" points="268.5,-782.5 268.5,-801.5 395.5,-801.5 395.5,-782.5 268.5,-782.5"/>
<text text-anchor="middle" x="332" y="-789.5" font-family="Helvetica,sans-Serif" font-size="10.00">DMA_memory_data_size</text>
</a>
</g>
</g>
<!-- Node0 -->
<g id="node2" class="node"><title>Node0</title>
<polygon fill="#bfbfbf" stroke="black" points="75,-406.5 75,-425.5 209,-425.5 209,-406.5 75,-406.5"/>
<text text-anchor="middle" x="142" y="-413.5" font-family="Helvetica,sans-Serif" font-size="10.00">DMA_Exported_Constants</text>
</g>
<!-- Node0&#45;&gt;Node8 -->
<g id="edge8" class="edge"><title>Node0&#45;&gt;Node8</title>
<path fill="none" stroke="black" d="M142.181,-435.845C140.845,-496.248 145.548,-679.424 245,-773 251.57,-779.182 259.68,-783.524 268.271,-786.545"/>
<polygon fill="black" stroke="black" points="145.682,-435.856 142.491,-425.753 138.685,-435.641 145.682,-435.856"/>
</g>
<!-- Node15 -->
<g id="node3" class="node"><title>Node15</title>
<g id="a_node3"><a xlink:href="a00274.html" target="_top" xlink:title="DMA_fifo_status_level">
<polygon fill="white" stroke="black" points="274,-744.5 274,-763.5 390,-763.5 390,-744.5 274,-744.5"/>
<text text-anchor="middle" x="332" y="-751.5" font-family="Helvetica,sans-Serif" font-size="10.00">DMA_fifo_status_level</text>
</a>
</g>
</g>
<!-- Node0&#45;&gt;Node15 -->
<g id="edge15" class="edge"><title>Node0&#45;&gt;Node15</title>
<path fill="none" stroke="black" d="M142.97,-435.928C144.032,-492.121 155.156,-653.066 245,-735 253.022,-742.315 263.209,-747.034 273.743,-750.035"/>
<polygon fill="black" stroke="black" points="146.467,-435.559 142.872,-425.593 139.467,-435.626 146.467,-435.559"/>
</g>
<!-- Node12 -->
<g id="node4" class="node"><title>Node12</title>
<g id="a_node4"><a xlink:href="a00271.html" target="_top" xlink:title="DMA_fifo_threshold\l_level">
<polygon fill="white" stroke="black" points="280.5,-695 280.5,-725 383.5,-725 383.5,-695 280.5,-695"/>
<text text-anchor="start" x="288.5" y="-713" font-family="Helvetica,sans-Serif" font-size="10.00">DMA_fifo_threshold</text>
<text text-anchor="middle" x="332" y="-702" font-family="Helvetica,sans-Serif" font-size="10.00">_level</text>
</a>
</g>
</g>
<!-- Node0&#45;&gt;Node12 -->
<g id="edge12" class="edge"><title>Node0&#45;&gt;Node12</title>
<path fill="none" stroke="black" d="M144.573,-435.483C149.616,-484.789 169.768,-615.525 245,-685 254.709,-693.966 267.452,-699.735 280.144,-703.44"/>
<polygon fill="black" stroke="black" points="148.057,-435.145 143.651,-425.51 141.087,-435.79 148.057,-435.145"/>
</g>
<!-- Node4 -->
<g id="node5" class="node"><title>Node4</title>
<g id="a_node5"><a xlink:href="a00263.html" target="_top" xlink:title="DMA_data_buffer_size">
<polygon fill="white" stroke="black" points="274,-656.5 274,-675.5 390,-675.5 390,-656.5 274,-656.5"/>
<text text-anchor="middle" x="332" y="-663.5" font-family="Helvetica,sans-Serif" font-size="10.00">DMA_data_buffer_size</text>
</a>
</g>
</g>
<!-- Node0&#45;&gt;Node4 -->
<g id="edge4" class="edge"><title>Node0&#45;&gt;Node4</title>
<path fill="none" stroke="black" d="M145.665,-435.695C152.835,-480.639 176.838,-591.176 245,-647 253.281,-653.782 263.463,-658.275 273.888,-661.225"/>
<polygon fill="black" stroke="black" points="149.119,-435.133 144.188,-425.756 142.195,-436.161 149.119,-435.133"/>
</g>
<!-- Node9 -->
<g id="node6" class="node"><title>Node9</title>
<g id="a_node6"><a xlink:href="a00268.html" target="_top" xlink:title="DMA_circular_normal_mode">
<polygon fill="white" stroke="black" points="262,-618.5 262,-637.5 402,-637.5 402,-618.5 262,-618.5"/>
<text text-anchor="middle" x="332" y="-625.5" font-family="Helvetica,sans-Serif" font-size="10.00">DMA_circular_normal_mode</text>
</a>
</g>
</g>
<!-- Node0&#45;&gt;Node9 -->
<g id="edge9" class="edge"><title>Node0&#45;&gt;Node9</title>
<path fill="none" stroke="black" d="M147.506,-435.654C157.625,-475.122 186.03,-564.075 245,-609 250.109,-612.892 255.856,-616.018 261.894,-618.525"/>
<polygon fill="black" stroke="black" points="150.899,-434.795 145.126,-425.911 144.099,-436.456 150.899,-434.795"/>
</g>
<!-- Node7 -->
<g id="node7" class="node"><title>Node7</title>
<g id="a_node7"><a xlink:href="a00266.html" target="_top" xlink:title="DMA_peripheral_data_size">
<polygon fill="white" stroke="black" points="265,-580.5 265,-599.5 399,-599.5 399,-580.5 265,-580.5"/>
<text text-anchor="middle" x="332" y="-587.5" font-family="Helvetica,sans-Serif" font-size="10.00">DMA_peripheral_data_size</text>
</a>
</g>
</g>
<!-- Node0&#45;&gt;Node7 -->
<g id="edge7" class="edge"><title>Node0&#45;&gt;Node7</title>
<path fill="none" stroke="black" d="M150.085,-435.414C163.295,-468.735 194.966,-536.542 245,-571 251.045,-575.163 257.846,-578.433 264.908,-580.998"/>
<polygon fill="black" stroke="black" points="153.285,-433.984 146.445,-425.894 146.747,-436.484 153.285,-433.984"/>
</g>
<!-- Node18 -->
<g id="node8" class="node"><title>Node18</title>
<g id="a_node8"><a xlink:href="a00277.html" target="_top" xlink:title="DMA_interrupts_definitions">
<polygon fill="white" stroke="black" points="265,-542.5 265,-561.5 399,-561.5 399,-542.5 265,-542.5"/>
<text text-anchor="middle" x="332" y="-549.5" font-family="Helvetica,sans-Serif" font-size="10.00">DMA_interrupts_definitions</text>
</a>
</g>
</g>
<!-- Node0&#45;&gt;Node18 -->
<g id="edge18" class="edge"><title>Node0&#45;&gt;Node18</title>
<path fill="none" stroke="black" d="M153.628,-434.308C169.84,-460.508 203.309,-508.257 245,-533 251.575,-536.902 258.862,-540.004 266.332,-542.471"/>
<polygon fill="black" stroke="black" points="156.609,-432.474 148.452,-425.713 150.612,-436.085 156.609,-432.474"/>
</g>
<!-- Node14 -->
<g id="node9" class="node"><title>Node14</title>
<g id="a_node9"><a xlink:href="a00273.html" target="_top" xlink:title="DMA_peripheral_burst">
<polygon fill="white" stroke="black" points="275.5,-504.5 275.5,-523.5 388.5,-523.5 388.5,-504.5 275.5,-504.5"/>
<text text-anchor="middle" x="332" y="-511.5" font-family="Helvetica,sans-Serif" font-size="10.00">DMA_peripheral_burst</text>
</a>
</g>
</g>
<!-- Node0&#45;&gt;Node14 -->
<g id="edge14" class="edge"><title>Node0&#45;&gt;Node14</title>
<path fill="none" stroke="black" d="M159.687,-432.782C178.687,-450.904 211.459,-479.282 245,-495 254.415,-499.412 264.896,-502.821 275.213,-505.448"/>
<polygon fill="black" stroke="black" points="162.032,-430.18 152.426,-425.71 157.148,-435.194 162.032,-430.18"/>
</g>
<!-- Node10 -->
<g id="node10" class="node"><title>Node10</title>
<g id="a_node10"><a xlink:href="a00269.html" target="_top" xlink:title="DMA_priority_level">
<polygon fill="white" stroke="black" points="282.5,-466.5 282.5,-485.5 381.5,-485.5 381.5,-466.5 282.5,-466.5"/>
<text text-anchor="middle" x="332" y="-473.5" font-family="Helvetica,sans-Serif" font-size="10.00">DMA_priority_level</text>
</a>
</g>
</g>
<!-- Node0&#45;&gt;Node10 -->
<g id="edge10" class="edge"><title>Node0&#45;&gt;Node10</title>
<path fill="none" stroke="black" d="M172.975,-429.569C193.052,-438.278 220.242,-449.346 245,-457 256.979,-460.703 270.108,-463.983 282.42,-466.732"/>
<polygon fill="black" stroke="black" points="174.296,-426.327 163.733,-425.509 171.481,-432.736 174.296,-426.327"/>
</g>
<!-- Node3 -->
<g id="node11" class="node"><title>Node3</title>
<g id="a_node11"><a xlink:href="a00262.html" target="_top" xlink:title="DMA_data_transfer_direction">
<polygon fill="white" stroke="black" points="260.5,-428.5 260.5,-447.5 403.5,-447.5 403.5,-428.5 260.5,-428.5"/>
<text text-anchor="middle" x="332" y="-435.5" font-family="Helvetica,sans-Serif" font-size="10.00">DMA_data_transfer_direction</text>
</a>
</g>
</g>
<!-- Node0&#45;&gt;Node3 -->
<g id="edge3" class="edge"><title>Node0&#45;&gt;Node3</title>
<path fill="none" stroke="black" d="M219.279,-424.926C232.854,-426.515 246.94,-428.163 260.35,-429.732"/>
<polygon fill="black" stroke="black" points="219.356,-421.412 209.017,-423.725 218.543,-428.364 219.356,-421.412"/>
</g>
<!-- Node17 -->
<g id="node12" class="node"><title>Node17</title>
<g id="a_node12"><a xlink:href="a00276.html" target="_top" xlink:title="DMA_interrupt_enable\l_definitions">
<polygon fill="white" stroke="black" points="275.5,-379 275.5,-409 388.5,-409 388.5,-379 275.5,-379"/>
<text text-anchor="start" x="283.5" y="-397" font-family="Helvetica,sans-Serif" font-size="10.00">DMA_interrupt_enable</text>
<text text-anchor="middle" x="332" y="-386" font-family="Helvetica,sans-Serif" font-size="10.00">_definitions</text>
</a>
</g>
</g>
<!-- Node0&#45;&gt;Node17 -->
<g id="edge17" class="edge"><title>Node0&#45;&gt;Node17</title>
<path fill="none" stroke="black" d="M219.064,-407.099C237.911,-404.893 257.757,-402.571 275.418,-400.504"/>
<polygon fill="black" stroke="black" points="218.543,-403.636 209.017,-408.275 219.356,-410.588 218.543,-403.636"/>
</g>
<!-- Node5 -->
<g id="node14" class="node"><title>Node5</title>
<g id="a_node14"><a xlink:href="a00264.html" target="_top" xlink:title="DMA_peripheral_incremented_mode">
<polygon fill="white" stroke="black" points="245,-340.5 245,-359.5 419,-359.5 419,-340.5 245,-340.5"/>
<text text-anchor="middle" x="332" y="-347.5" font-family="Helvetica,sans-Serif" font-size="10.00">DMA_peripheral_incremented_mode</text>
</a>
</g>
</g>
<!-- Node0&#45;&gt;Node5 -->
<g id="edge5" class="edge"><title>Node0&#45;&gt;Node5</title>
<path fill="none" stroke="black" d="M169.501,-401.876C189.722,-391.574 218.518,-377.912 245,-369 255.869,-365.342 267.751,-362.197 279.119,-359.578"/>
<polygon fill="black" stroke="black" points="167.859,-398.784 160.582,-406.485 171.073,-405.003 167.859,-398.784"/>
</g>
<!-- Node6 -->
<g id="node15" class="node"><title>Node6</title>
<g id="a_node15"><a xlink:href="a00265.html" target="_top" xlink:title="DMA_memory_incremented_mode">
<polygon fill="white" stroke="black" points="248.5,-302.5 248.5,-321.5 415.5,-321.5 415.5,-302.5 248.5,-302.5"/>
<text text-anchor="middle" x="332" y="-309.5" font-family="Helvetica,sans-Serif" font-size="10.00">DMA_memory_incremented_mode</text>
</a>
</g>
</g>
<!-- Node0&#45;&gt;Node6 -->
<g id="edge6" class="edge"><title>Node0&#45;&gt;Node6</title>
<path fill="none" stroke="black" d="M158.547,-398.82C177.17,-379.333 210.233,-348.056 245,-331 252.962,-327.094 261.731,-323.983 270.532,-321.506"/>
<polygon fill="black" stroke="black" points="155.758,-396.678 151.487,-406.374 160.873,-401.458 155.758,-396.678"/>
</g>
<!-- Node11 -->
<g id="node16" class="node"><title>Node11</title>
<g id="a_node16"><a xlink:href="a00270.html" target="_top" xlink:title="DMA_fifo_direct_mode">
<polygon fill="white" stroke="black" points="274,-264.5 274,-283.5 390,-283.5 390,-264.5 274,-264.5"/>
<text text-anchor="middle" x="332" y="-271.5" font-family="Helvetica,sans-Serif" font-size="10.00">DMA_fifo_direct_mode</text>
</a>
</g>
</g>
<!-- Node0&#45;&gt;Node11 -->
<g id="edge11" class="edge"><title>Node0&#45;&gt;Node11</title>
<path fill="none" stroke="black" d="M152.919,-397.561C168.645,-370.199 201.977,-319.257 245,-293 253.745,-287.663 263.803,-283.818 273.888,-281.05"/>
<polygon fill="black" stroke="black" points="149.755,-396.048 147.936,-406.486 155.867,-399.461 149.755,-396.048"/>
</g>
<!-- Node19 -->
<g id="node17" class="node"><title>Node19</title>
<g id="a_node17"><a xlink:href="a00278.html" target="_top" xlink:title="DMA_peripheral_increment\l_offset">
<polygon fill="white" stroke="black" points="265,-215 265,-245 399,-245 399,-215 265,-215"/>
<text text-anchor="start" x="273" y="-233" font-family="Helvetica,sans-Serif" font-size="10.00">DMA_peripheral_increment</text>
<text text-anchor="middle" x="332" y="-222" font-family="Helvetica,sans-Serif" font-size="10.00">_offset</text>
</a>
</g>
</g>
<!-- Node0&#45;&gt;Node19 -->
<g id="edge19" class="edge"><title>Node0&#45;&gt;Node19</title>
<path fill="none" stroke="black" d="M149.927,-396.674C163.07,-362.785 194.877,-292.67 245,-255 250.966,-250.516 257.719,-246.835 264.752,-243.813"/>
<polygon fill="black" stroke="black" points="146.545,-395.725 146.316,-406.317 153.101,-398.18 146.545,-395.725"/>
</g>
<!-- Node16 -->
<g id="node18" class="node"><title>Node16</title>
<g id="a_node18"><a xlink:href="a00275.html" target="_top" xlink:title="DMA_flags_definition">
<polygon fill="white" stroke="black" points="277,-176.5 277,-195.5 387,-195.5 387,-176.5 277,-176.5"/>
<text text-anchor="middle" x="332" y="-183.5" font-family="Helvetica,sans-Serif" font-size="10.00">DMA_flags_definition</text>
</a>
</g>
</g>
<!-- Node0&#45;&gt;Node16 -->
<g id="edge16" class="edge"><title>Node0&#45;&gt;Node16</title>
<path fill="none" stroke="black" d="M146.566,-396.289C155.272,-354.142 181.713,-255.034 245,-205 254.116,-197.793 265.399,-193.191 276.759,-190.281"/>
<polygon fill="black" stroke="black" points="143.122,-395.663 144.643,-406.148 149.993,-397.003 143.122,-395.663"/>
</g>
<!-- Node20 -->
<g id="node19" class="node"><title>Node20</title>
<g id="a_node19"><a xlink:href="a00279.html" target="_top" xlink:title="DMA_flow_controller\l_definitions">
<polygon fill="white" stroke="black" points="278.5,-127 278.5,-157 385.5,-157 385.5,-127 278.5,-127"/>
<text text-anchor="start" x="286.5" y="-145" font-family="Helvetica,sans-Serif" font-size="10.00">DMA_flow_controller</text>
<text text-anchor="middle" x="332" y="-134" font-family="Helvetica,sans-Serif" font-size="10.00">_definitions</text>
</a>
</g>
</g>
<!-- Node0&#45;&gt;Node20 -->
<g id="edge20" class="edge"><title>Node0&#45;&gt;Node20</title>
<path fill="none" stroke="black" d="M145.26,-396.403C151.716,-349.57 174.565,-230.346 245,-167 254.249,-158.682 266.115,-153.122 278.061,-149.407"/>
<polygon fill="black" stroke="black" points="141.773,-396.077 143.98,-406.44 148.717,-396.963 141.773,-396.077"/>
</g>
<!-- Node13 -->
<g id="node20" class="node"><title>Node13</title>
<g id="a_node20"><a xlink:href="a00272.html" target="_top" xlink:title="DMA_memory_burst">
<polygon fill="white" stroke="black" points="278.5,-88.5 278.5,-107.5 385.5,-107.5 385.5,-88.5 278.5,-88.5"/>
<text text-anchor="middle" x="332" y="-95.5" font-family="Helvetica,sans-Serif" font-size="10.00">DMA_memory_burst</text>
</a>
</g>
</g>
<!-- Node0&#45;&gt;Node13 -->
<g id="edge13" class="edge"><title>Node0&#45;&gt;Node13</title>
<path fill="none" stroke="black" d="M143.453,-396.239C145.811,-342.556 160.069,-192.966 245,-117 254.231,-108.743 266.231,-103.809 278.322,-100.922"/>
<polygon fill="black" stroke="black" points="139.948,-396.326 143.103,-406.44 146.944,-396.566 139.948,-396.326"/>
</g>
<!-- Node21 -->
<g id="node21" class="node"><title>Node21</title>
<g id="a_node21"><a xlink:href="a00280.html" target="_top" xlink:title="DMA_memory_targets\l_definitions">
<polygon fill="white" stroke="black" points="274.5,-39 274.5,-69 389.5,-69 389.5,-39 274.5,-39"/>
<text text-anchor="start" x="282.5" y="-57" font-family="Helvetica,sans-Serif" font-size="10.00">DMA_memory_targets</text>
<text text-anchor="middle" x="332" y="-46" font-family="Helvetica,sans-Serif" font-size="10.00">_definitions</text>
</a>
</g>
</g>
<!-- Node0&#45;&gt;Node21 -->
<g id="edge21" class="edge"><title>Node0&#45;&gt;Node21</title>
<path fill="none" stroke="black" d="M142.856,-396.036C143.56,-338.261 153.718,-169.283 245,-79 253.07,-71.0183 263.531,-65.5558 274.362,-61.8248"/>
<polygon fill="black" stroke="black" points="139.355,-396.32 142.821,-406.332 146.355,-396.344 139.355,-396.32"/>
</g>
<!-- Node2 -->
<g id="node22" class="node"><title>Node2</title>
<g id="a_node22"><a xlink:href="a00261.html" target="_top" xlink:title="DMA_channel">
<polygon fill="white" stroke="black" points="293,-0.5 293,-19.5 371,-19.5 371,-0.5 293,-0.5"/>
<text text-anchor="middle" x="332" y="-7.5" font-family="Helvetica,sans-Serif" font-size="10.00">DMA_channel</text>
</a>
</g>
</g>
<!-- Node0&#45;&gt;Node2 -->
<g id="edge2" class="edge"><title>Node0&#45;&gt;Node2</title>
<path fill="none" stroke="black" d="M145.485,-396.267C154.869,-324.867 190.418,-81.4268 245,-29 257.571,-16.9249 276.001,-11.8364 292.577,-9.90662"/>
<polygon fill="black" stroke="black" points="142.012,-395.828 144.204,-406.193 148.955,-396.723 142.012,-395.828"/>
</g>
<!-- Node1 -->
<g id="node13" class="node"><title>Node1</title>
<g id="a_node13"><a xlink:href="a00010.html" target="_top" xlink:title="DMA driver modules. ">
<polygon fill="white" stroke="black" points="0,-406.5 0,-425.5 39,-425.5 39,-406.5 0,-406.5"/>
<text text-anchor="middle" x="19.5" y="-413.5" font-family="Helvetica,sans-Serif" font-size="10.00">DMA</text>
</a>
</g>
</g>
<!-- Node1&#45;&gt;Node0 -->
<g id="edge1" class="edge"><title>Node1&#45;&gt;Node0</title>
<path fill="none" stroke="black" d="M49.3285,-416C57.1043,-416 65.8498,-416 74.7718,-416"/>
<polygon fill="black" stroke="black" points="49.0641,-412.5 39.064,-416 49.064,-419.5 49.0641,-412.5"/>
</g>
</g>
</svg>
