<?xml version="1.0" encoding="UTF-8" standalone="no"?>
<!DOCTYPE svg PUBLIC "-//W3C//DTD SVG 1.1//EN"
 "http://www.w3.org/Graphics/SVG/1.1/DTD/svg11.dtd">
<!-- Generated by graphviz version 2.38.0 (20140413.2041)
 -->
<!-- Title: md_stm32f4_gpio.h Pages: 1 -->
<svg width="1129pt" height="364pt"
 viewBox="0.00 0.00 1129.00 364.00" xmlns="http://www.w3.org/2000/svg" xmlns:xlink="http://www.w3.org/1999/xlink">
<g id="graph0" class="graph" transform="scale(1 1) rotate(0) translate(4 360)">
<title>md_stm32f4_gpio.h</title>
<polygon fill="white" stroke="none" points="-4,4 -4,-360 1125,-360 1125,4 -4,4"/>
<!-- Node1 -->
<g id="node1" class="node"><title>Node1</title>
<polygon fill="#bfbfbf" stroke="black" points="638,-336.5 638,-355.5 740,-355.5 740,-336.5 638,-336.5"/>
<text text-anchor="middle" x="689" y="-343.5" font-family="Helvetica,sans-Serif" font-size="10.00">md_stm32f4_gpio.h</text>
</g>
<!-- Node2 -->
<g id="node2" class="node"><title>Node2</title>
<g id="a_node2"><a xlink:href="a00027.html" target="_top" xlink:title="Project XA&#45;Galvo scanner specific digital to analog converter methods. ">
<polygon fill="white" stroke="black" points="213,-280.5 213,-299.5 313,-299.5 313,-280.5 213,-280.5"/>
<text text-anchor="middle" x="263" y="-287.5" font-family="Helvetica,sans-Serif" font-size="10.00">md_stm32f4_dac.h</text>
</a>
</g>
</g>
<!-- Node1&#45;&gt;Node2 -->
<g id="edge1" class="edge"><title>Node1&#45;&gt;Node2</title>
<path fill="none" stroke="midnightblue" d="M627.619,-337.219C542.878,-326.477 391.651,-307.308 313.245,-297.369"/>
<polygon fill="midnightblue" stroke="midnightblue" points="627.254,-340.701 637.614,-338.486 628.134,-333.756 627.254,-340.701"/>
</g>
<!-- Node17 -->
<g id="node17" class="node"><title>Node17</title>
<g id="a_node17"><a xlink:href="a00033.html" target="_top" xlink:title="Definitions to extend board support for STM32F429i&#45;DISCO and equivalent boards. ">
<polygon fill="white" stroke="black" points="426.5,-224.5 426.5,-243.5 533.5,-243.5 533.5,-224.5 426.5,-224.5"/>
<text text-anchor="middle" x="480" y="-231.5" font-family="Helvetica,sans-Serif" font-size="10.00">md_stm32f4_disco.h</text>
</a>
</g>
</g>
<!-- Node1&#45;&gt;Node17 -->
<g id="edge22" class="edge"><title>Node1&#45;&gt;Node17</title>
<path fill="none" stroke="midnightblue" d="M648.954,-333.457C624.516,-325.636 593.067,-314.157 567,-300 536.514,-283.444 504.907,-257.108 489.54,-243.604"/>
<polygon fill="midnightblue" stroke="midnightblue" points="648.035,-336.836 658.624,-336.479 650.123,-330.155 648.035,-336.836"/>
</g>
<!-- Node19 -->
<g id="node19" class="node"><title>Node19</title>
<g id="a_node19"><a xlink:href="a00034.html" target="_top" xlink:title="md_stm32f4_gpio.c">
<polygon fill="white" stroke="black" points="820,-280.5 820,-299.5 922,-299.5 922,-280.5 820,-280.5"/>
<text text-anchor="middle" x="871" y="-287.5" font-family="Helvetica,sans-Serif" font-size="10.00">md_stm32f4_gpio.c</text>
</a>
</g>
</g>
<!-- Node1&#45;&gt;Node19 -->
<g id="edge26" class="edge"><title>Node1&#45;&gt;Node19</title>
<path fill="none" stroke="midnightblue" d="M727.531,-333.568C761.864,-323.381 811.333,-308.703 842.296,-299.516"/>
<polygon fill="midnightblue" stroke="midnightblue" points="726.43,-330.244 717.838,-336.444 728.421,-336.954 726.43,-330.244"/>
</g>
<!-- Node20 -->
<g id="node20" class="node"><title>Node20</title>
<g id="a_node20"><a xlink:href="a00057_source.html" target="_top" xlink:title="tm_stm32f4_pwm.h">
<polygon fill="white" stroke="black" points="576.5,-280.5 576.5,-299.5 679.5,-299.5 679.5,-280.5 576.5,-280.5"/>
<text text-anchor="middle" x="628" y="-287.5" font-family="Helvetica,sans-Serif" font-size="10.00">tm_stm32f4_pwm.h</text>
</a>
</g>
</g>
<!-- Node1&#45;&gt;Node20 -->
<g id="edge27" class="edge"><title>Node1&#45;&gt;Node20</title>
<path fill="none" stroke="midnightblue" d="M671.533,-329.537C660.656,-319.909 647.056,-307.869 637.979,-299.834"/>
<polygon fill="midnightblue" stroke="midnightblue" points="669.392,-332.316 679.199,-336.324 674.032,-327.075 669.392,-332.316"/>
</g>
<!-- Node22 -->
<g id="node22" class="node"><title>Node22</title>
<g id="a_node22"><a xlink:href="a00059_source.html" target="_top" xlink:title="tm_stm32f4_timer.h">
<polygon fill="white" stroke="black" points="991,-280.5 991,-299.5 1095,-299.5 1095,-280.5 991,-280.5"/>
<text text-anchor="middle" x="1043" y="-287.5" font-family="Helvetica,sans-Serif" font-size="10.00">tm_stm32f4_timer.h</text>
</a>
</g>
</g>
<!-- Node1&#45;&gt;Node22 -->
<g id="edge30" class="edge"><title>Node1&#45;&gt;Node22</title>
<path fill="none" stroke="midnightblue" d="M750.229,-335.66C818.177,-325.295 926.674,-308.745 990.765,-298.968"/>
<polygon fill="midnightblue" stroke="midnightblue" points="749.454,-332.238 740.097,-337.206 750.51,-339.158 749.454,-332.238"/>
</g>
<!-- Node24 -->
<g id="node24" class="node"><title>Node24</title>
<g id="a_node24"><a xlink:href="a00063_source.html" target="_top" xlink:title="tm_stm32f4_usart.h">
<polygon fill="white" stroke="black" points="698,-280.5 698,-299.5 802,-299.5 802,-280.5 698,-280.5"/>
<text text-anchor="middle" x="750" y="-287.5" font-family="Helvetica,sans-Serif" font-size="10.00">tm_stm32f4_usart.h</text>
</a>
</g>
</g>
<!-- Node1&#45;&gt;Node24 -->
<g id="edge32" class="edge"><title>Node1&#45;&gt;Node24</title>
<path fill="none" stroke="midnightblue" d="M706.467,-329.537C717.344,-319.909 730.944,-307.869 740.021,-299.834"/>
<polygon fill="midnightblue" stroke="midnightblue" points="703.968,-327.075 698.801,-336.324 708.608,-332.316 703.968,-327.075"/>
</g>
<!-- Node3 -->
<g id="node3" class="node"><title>Node3</title>
<g id="a_node3"><a xlink:href="a00026.html" target="_top" xlink:title="md_stm32f4_dac.c">
<polygon fill="white" stroke="black" points="0,-224.5 0,-243.5 100,-243.5 100,-224.5 0,-224.5"/>
<text text-anchor="middle" x="50" y="-231.5" font-family="Helvetica,sans-Serif" font-size="10.00">md_stm32f4_dac.c</text>
</a>
</g>
</g>
<!-- Node2&#45;&gt;Node3 -->
<g id="edge2" class="edge"><title>Node2&#45;&gt;Node3</title>
<path fill="none" stroke="midnightblue" d="M219.449,-277.959C179.219,-267.76 120.297,-252.822 83.5926,-243.516"/>
<polygon fill="midnightblue" stroke="midnightblue" points="218.696,-281.379 229.25,-280.444 220.416,-274.593 218.696,-281.379"/>
</g>
<!-- Node4 -->
<g id="node4" class="node"><title>Node4</title>
<g id="a_node4"><a xlink:href="a00029.html" target="_top" xlink:title="Waveform generation extension for DAC library. ">
<polygon fill="white" stroke="black" points="118,-224.5 118,-243.5 266,-243.5 266,-224.5 118,-224.5"/>
<text text-anchor="middle" x="192" y="-231.5" font-family="Helvetica,sans-Serif" font-size="10.00">md_stm32f4_dac_waveform.h</text>
</a>
</g>
</g>
<!-- Node2&#45;&gt;Node4 -->
<g id="edge3" class="edge"><title>Node2&#45;&gt;Node4</title>
<path fill="none" stroke="midnightblue" d="M243.41,-274.101C230.632,-264.382 214.387,-252.027 203.615,-243.834"/>
<polygon fill="midnightblue" stroke="midnightblue" points="241.514,-277.056 251.593,-280.324 245.752,-271.484 241.514,-277.056"/>
</g>
<!-- Node6 -->
<g id="node6" class="node"><title>Node6</title>
<g id="a_node6"><a xlink:href="a00044.html" target="_top" xlink:title="Provides initialization methods to configure analog subsystems and DMA controller. ">
<polygon fill="white" stroke="black" points="284.5,-224.5 284.5,-243.5 383.5,-243.5 383.5,-224.5 284.5,-224.5"/>
<text text-anchor="middle" x="334" y="-231.5" font-family="Helvetica,sans-Serif" font-size="10.00">periph2dma_conf.h</text>
</a>
</g>
</g>
<!-- Node2&#45;&gt;Node6 -->
<g id="edge5" class="edge"><title>Node2&#45;&gt;Node6</title>
<path fill="none" stroke="midnightblue" d="M282.59,-274.101C295.368,-264.382 311.613,-252.027 322.385,-243.834"/>
<polygon fill="midnightblue" stroke="midnightblue" points="280.248,-271.484 274.407,-280.324 284.486,-277.056 280.248,-271.484"/>
</g>
<!-- Node5 -->
<g id="node5" class="node"><title>Node5</title>
<g id="a_node5"><a xlink:href="a00028_source.html" target="_top" xlink:title="md_stm32f4_dac_waveform.c">
<polygon fill="white" stroke="black" points="105,-168.5 105,-187.5 253,-187.5 253,-168.5 105,-168.5"/>
<text text-anchor="middle" x="179" y="-175.5" font-family="Helvetica,sans-Serif" font-size="10.00">md_stm32f4_dac_waveform.c</text>
</a>
</g>
</g>
<!-- Node4&#45;&gt;Node5 -->
<g id="edge4" class="edge"><title>Node4&#45;&gt;Node5</title>
<path fill="none" stroke="midnightblue" d="M187.45,-214.101C185.292,-205.136 182.818,-194.858 181.107,-187.751"/>
<polygon fill="midnightblue" stroke="midnightblue" points="184.11,-215.18 189.853,-224.083 190.915,-213.542 184.11,-215.18"/>
</g>
<!-- Node7 -->
<g id="node7" class="node"><title>Node7</title>
<g id="a_node7"><a xlink:href="a00025.html" target="_top" xlink:title="Main header definition. ">
<polygon fill="white" stroke="black" points="672,-168.5 672,-187.5 718,-187.5 718,-168.5 672,-168.5"/>
<text text-anchor="middle" x="695" y="-175.5" font-family="Helvetica,sans-Serif" font-size="10.00">main.h</text>
</a>
</g>
</g>
<!-- Node6&#45;&gt;Node7 -->
<g id="edge6" class="edge"><title>Node6&#45;&gt;Node7</title>
<path fill="none" stroke="midnightblue" d="M393.904,-224.039C475.179,-211.882 616.585,-190.73 671.891,-182.457"/>
<polygon fill="midnightblue" stroke="midnightblue" points="393.189,-220.607 383.816,-225.548 394.224,-227.53 393.189,-220.607"/>
</g>
<!-- Node16 -->
<g id="node16" class="node"><title>Node16</title>
<g id="a_node16"><a xlink:href="a00043.html" target="_top" xlink:title="periph2dma_conf.c">
<polygon fill="white" stroke="black" points="271.5,-168.5 271.5,-187.5 370.5,-187.5 370.5,-168.5 271.5,-168.5"/>
<text text-anchor="middle" x="321" y="-175.5" font-family="Helvetica,sans-Serif" font-size="10.00">periph2dma_conf.c</text>
</a>
</g>
</g>
<!-- Node6&#45;&gt;Node16 -->
<g id="edge21" class="edge"><title>Node6&#45;&gt;Node16</title>
<path fill="none" stroke="midnightblue" d="M329.45,-214.101C327.292,-205.136 324.818,-194.858 323.107,-187.751"/>
<polygon fill="midnightblue" stroke="midnightblue" points="326.11,-215.18 331.853,-224.083 332.915,-213.542 326.11,-215.18"/>
</g>
<!-- Node8 -->
<g id="node8" class="node"><title>Node8</title>
<g id="a_node8"><a xlink:href="a00014.html" target="_top" xlink:title="Provides DMA related configuration and access functions for ADC and DAC. ">
<polygon fill="white" stroke="black" points="792,-112.5 792,-131.5 878,-131.5 878,-112.5 792,-112.5"/>
<text text-anchor="middle" x="835" y="-119.5" font-family="Helvetica,sans-Serif" font-size="10.00">adc_dac_dma.h</text>
</a>
</g>
</g>
<!-- Node7&#45;&gt;Node8 -->
<g id="edge7" class="edge"><title>Node7&#45;&gt;Node8</title>
<path fill="none" stroke="midnightblue" d="M721.603,-164.503C746.372,-154.38 782.886,-140.388 807.84,-131.516"/>
<polygon fill="midnightblue" stroke="midnightblue" points="719.993,-161.382 712.095,-168.444 722.673,-167.848 719.993,-161.382"/>
</g>
<!-- Node11 -->
<g id="node11" class="node"><title>Node11</title>
<g id="a_node11"><a xlink:href="a00022_source.html" target="_top" xlink:title="irq_callbacks.c">
<polygon fill="white" stroke="black" points="577,-0.5 577,-19.5 659,-19.5 659,-0.5 577,-0.5"/>
<text text-anchor="middle" x="618" y="-7.5" font-family="Helvetica,sans-Serif" font-size="10.00">irq_callbacks.c</text>
</a>
</g>
</g>
<!-- Node7&#45;&gt;Node11 -->
<g id="edge18" class="edge"><title>Node7&#45;&gt;Node11</title>
<path fill="none" stroke="midnightblue" d="M661.827,-173.823C635.044,-169.314 598.963,-158.402 581,-132 555.916,-95.1307 593.879,-40.6491 610.674,-19.6706"/>
<polygon fill="midnightblue" stroke="midnightblue" points="661.535,-177.318 671.937,-175.302 662.548,-170.392 661.535,-177.318"/>
</g>
<!-- Node12 -->
<g id="node12" class="node"><title>Node12</title>
<g id="a_node12"><a xlink:href="a00023_source.html" target="_top" xlink:title="irq_callbacks.h">
<polygon fill="white" stroke="black" points="633,-56.5 633,-75.5 715,-75.5 715,-56.5 633,-56.5"/>
<text text-anchor="middle" x="674" y="-63.5" font-family="Helvetica,sans-Serif" font-size="10.00">irq_callbacks.h</text>
</a>
</g>
</g>
<!-- Node7&#45;&gt;Node12 -->
<g id="edge17" class="edge"><title>Node7&#45;&gt;Node12</title>
<path fill="none" stroke="midnightblue" d="M718.513,-162.335C735.62,-149.692 754.149,-130.59 744,-112 734.377,-94.374 714.567,-82.622 698.469,-75.5617"/>
<polygon fill="midnightblue" stroke="midnightblue" points="716.091,-159.754 709.856,-168.32 720.072,-165.512 716.091,-159.754"/>
</g>
<!-- Node14 -->
<g id="node14" class="node"><title>Node14</title>
<g id="a_node14"><a xlink:href="a00024.html" target="_top" xlink:title="Main source implementation (29&#45;04&#45;2015) ">
<polygon fill="white" stroke="black" points="590,-112.5 590,-131.5 636,-131.5 636,-112.5 590,-112.5"/>
<text text-anchor="middle" x="613" y="-119.5" font-family="Helvetica,sans-Serif" font-size="10.00">main.c</text>
</a>
</g>
</g>
<!-- Node7&#45;&gt;Node14 -->
<g id="edge19" class="edge"><title>Node7&#45;&gt;Node14</title>
<path fill="none" stroke="midnightblue" d="M673.167,-162.622C658.187,-152.757 638.803,-139.992 626.142,-131.655"/>
<polygon fill="midnightblue" stroke="midnightblue" points="671.549,-165.747 681.825,-168.324 675.399,-159.901 671.549,-165.747"/>
</g>
<!-- Node15 -->
<g id="node15" class="node"><title>Node15</title>
<g id="a_node15"><a xlink:href="a00051.html" target="_top" xlink:title="stm32f4xx_it.c">
<polygon fill="white" stroke="black" points="654.5,-112.5 654.5,-131.5 735.5,-131.5 735.5,-112.5 654.5,-112.5"/>
<text text-anchor="middle" x="695" y="-119.5" font-family="Helvetica,sans-Serif" font-size="10.00">stm32f4xx_it.c</text>
</a>
</g>
</g>
<!-- Node7&#45;&gt;Node15 -->
<g id="edge20" class="edge"><title>Node7&#45;&gt;Node15</title>
<path fill="none" stroke="midnightblue" d="M695,-157.805C695,-148.91 695,-138.78 695,-131.751"/>
<polygon fill="midnightblue" stroke="midnightblue" points="691.5,-158.083 695,-168.083 698.5,-158.083 691.5,-158.083"/>
</g>
<!-- Node8&#45;&gt;Node7 -->
<g id="edge13" class="edge"><title>Node8&#45;&gt;Node7</title>
<path fill="none" stroke="midnightblue" d="M808.304,-135.535C782.132,-146.229 742.91,-161.22 718.034,-169.94"/>
<polygon fill="midnightblue" stroke="midnightblue" points="809.74,-138.729 817.639,-131.669 807.061,-132.262 809.74,-138.729"/>
</g>
<!-- Node9 -->
<g id="node9" class="node"><title>Node9</title>
<g id="a_node9"><a xlink:href="a00012.html" target="_top" xlink:title="Controlling beam and primary actuators. ">
<polygon fill="white" stroke="black" points="837.5,-56.5 837.5,-75.5 902.5,-75.5 902.5,-56.5 837.5,-56.5"/>
<text text-anchor="middle" x="870" y="-63.5" font-family="Helvetica,sans-Serif" font-size="10.00">actuators.h</text>
</a>
</g>
</g>
<!-- Node8&#45;&gt;Node9 -->
<g id="edge8" class="edge"><title>Node8&#45;&gt;Node9</title>
<path fill="none" stroke="midnightblue" d="M840.271,-102.983C845.486,-93.8168 852.862,-83.0922 859.197,-75.7511"/>
<polygon fill="midnightblue" stroke="midnightblue" points="837.054,-101.587 835.613,-112.083 843.285,-104.776 837.054,-101.587"/>
</g>
<!-- Node8&#45;&gt;Node12 -->
<g id="edge14" class="edge"><title>Node8&#45;&gt;Node12</title>
<path fill="none" stroke="midnightblue" d="M799.735,-109.172C769.419,-99.0039 726.43,-84.5852 699.392,-75.5164"/>
<polygon fill="midnightblue" stroke="midnightblue" points="798.895,-112.582 809.489,-112.444 801.121,-105.945 798.895,-112.582"/>
</g>
<!-- Node13 -->
<g id="node13" class="node"><title>Node13</title>
<g id="a_node13"><a xlink:href="a00013.html" target="_top" xlink:title="adc_dac_dma.c">
<polygon fill="white" stroke="black" points="733,-56.5 733,-75.5 819,-75.5 819,-56.5 733,-56.5"/>
<text text-anchor="middle" x="776" y="-63.5" font-family="Helvetica,sans-Serif" font-size="10.00">adc_dac_dma.c</text>
</a>
</g>
</g>
<!-- Node8&#45;&gt;Node13 -->
<g id="edge16" class="edge"><title>Node8&#45;&gt;Node13</title>
<path fill="none" stroke="midnightblue" d="M818.105,-105.537C807.585,-95.9087 794.431,-83.8694 785.652,-75.8339"/>
<polygon fill="midnightblue" stroke="midnightblue" points="815.781,-108.154 825.521,-112.324 820.507,-102.99 815.781,-108.154"/>
</g>
<!-- Node9&#45;&gt;Node7 -->
<g id="edge9" class="edge"><title>Node9&#45;&gt;Node7</title>
<path fill="none" stroke="midnightblue" d="M882.003,-84.2934C890.216,-98.4626 897.833,-118.335 887,-132 866.157,-158.293 764.683,-170.703 718.262,-175.076"/>
<polygon fill="midnightblue" stroke="midnightblue" points="884.759,-82.1045 876.442,-75.5415 878.851,-85.8588 884.759,-82.1045"/>
</g>
<!-- Node9&#45;&gt;Node8 -->
<g id="edge10" class="edge"><title>Node9&#45;&gt;Node8</title>
<path fill="none" stroke="midnightblue" d="M864.846,-84.8111C859.664,-93.9533 852.296,-104.691 845.946,-112.083"/>
<polygon fill="midnightblue" stroke="midnightblue" points="868.04,-86.2505 869.459,-75.7511 861.802,-83.0741 868.04,-86.2505"/>
</g>
<!-- Node10 -->
<g id="node10" class="node"><title>Node10</title>
<g id="a_node10"><a xlink:href="a00011.html" target="_top" xlink:title="Controlling beam and primary actuators. ">
<polygon fill="white" stroke="black" points="837.5,-0.5 837.5,-19.5 902.5,-19.5 902.5,-0.5 837.5,-0.5"/>
<text text-anchor="middle" x="870" y="-7.5" font-family="Helvetica,sans-Serif" font-size="10.00">actuators.c</text>
</a>
</g>
</g>
<!-- Node9&#45;&gt;Node10 -->
<g id="edge11" class="edge"><title>Node9&#45;&gt;Node10</title>
<path fill="none" stroke="midnightblue" d="M870,-45.8045C870,-36.9102 870,-26.7798 870,-19.7511"/>
<polygon fill="midnightblue" stroke="midnightblue" points="866.5,-46.083 870,-56.083 873.5,-46.083 866.5,-46.083"/>
</g>
<!-- Node9&#45;&gt;Node11 -->
<g id="edge12" class="edge"><title>Node9&#45;&gt;Node11</title>
<path fill="none" stroke="midnightblue" d="M827.356,-55.862C779.918,-45.6966 703.888,-29.4046 657.681,-19.5032"/>
<polygon fill="midnightblue" stroke="midnightblue" points="826.802,-59.3227 837.314,-57.9958 828.269,-52.4781 826.802,-59.3227"/>
</g>
<!-- Node12&#45;&gt;Node11 -->
<g id="edge15" class="edge"><title>Node12&#45;&gt;Node11</title>
<path fill="none" stroke="midnightblue" d="M657.67,-49.2533C647.735,-39.6731 635.412,-27.7906 627.161,-19.8339"/>
<polygon fill="midnightblue" stroke="midnightblue" points="655.375,-51.902 665.003,-56.324 660.234,-46.8631 655.375,-51.902"/>
</g>
<!-- Node17&#45;&gt;Node7 -->
<g id="edge24" class="edge"><title>Node17&#45;&gt;Node7</title>
<path fill="none" stroke="midnightblue" d="M523.829,-221.992C568.711,-210.719 636.742,-193.632 672,-184.777"/>
<polygon fill="midnightblue" stroke="midnightblue" points="522.914,-218.613 514.067,-224.444 524.619,-225.402 522.914,-218.613"/>
</g>
<!-- Node17&#45;&gt;Node11 -->
<g id="edge25" class="edge"><title>Node17&#45;&gt;Node11</title>
<path fill="none" stroke="midnightblue" d="M489.492,-215.24C513.288,-170.728 573.685,-57.8125 575,-56 585.026,-42.1806 599.056,-28.2781 608.328,-19.6592"/>
<polygon fill="midnightblue" stroke="midnightblue" points="486.39,-213.619 484.762,-224.089 492.563,-216.919 486.39,-213.619"/>
</g>
<!-- Node18 -->
<g id="node18" class="node"><title>Node18</title>
<g id="a_node18"><a xlink:href="a00032.html" target="_top" xlink:title="DESCRIPTION. ">
<polygon fill="white" stroke="black" points="388.5,-168.5 388.5,-187.5 495.5,-187.5 495.5,-168.5 388.5,-168.5"/>
<text text-anchor="middle" x="442" y="-175.5" font-family="Helvetica,sans-Serif" font-size="10.00">md_stm32f4_disco.c</text>
</a>
</g>
</g>
<!-- Node17&#45;&gt;Node18 -->
<g id="edge23" class="edge"><title>Node17&#45;&gt;Node18</title>
<path fill="none" stroke="midnightblue" d="M467.935,-215.855C461.355,-206.505 453.489,-195.327 448.158,-187.751"/>
<polygon fill="midnightblue" stroke="midnightblue" points="465.108,-217.919 473.725,-224.083 470.832,-213.891 465.108,-217.919"/>
</g>
<!-- Node20&#45;&gt;Node7 -->
<g id="edge29" class="edge"><title>Node20&#45;&gt;Node7</title>
<path fill="none" stroke="midnightblue" d="M642.017,-272.656C648.783,-264.365 656.764,-253.963 663,-244 675.012,-224.809 685.953,-200.47 691.39,-187.711"/>
<polygon fill="midnightblue" stroke="midnightblue" points="639.253,-270.505 635.53,-280.425 644.626,-274.992 639.253,-270.505"/>
</g>
<!-- Node21 -->
<g id="node21" class="node"><title>Node21</title>
<g id="a_node21"><a xlink:href="a00056_source.html" target="_top" xlink:title="tm_stm32f4_pwm.c">
<polygon fill="white" stroke="black" points="551.5,-224.5 551.5,-243.5 654.5,-243.5 654.5,-224.5 551.5,-224.5"/>
<text text-anchor="middle" x="603" y="-231.5" font-family="Helvetica,sans-Serif" font-size="10.00">tm_stm32f4_pwm.c</text>
</a>
</g>
</g>
<!-- Node20&#45;&gt;Node21 -->
<g id="edge28" class="edge"><title>Node20&#45;&gt;Node21</title>
<path fill="none" stroke="midnightblue" d="M619.659,-270.983C615.415,-261.817 610.45,-251.092 607.051,-243.751"/>
<polygon fill="midnightblue" stroke="midnightblue" points="616.494,-272.479 623.872,-280.083 622.847,-269.538 616.494,-272.479"/>
</g>
<!-- Node23 -->
<g id="node23" class="node"><title>Node23</title>
<g id="a_node23"><a xlink:href="a00058_source.html" target="_top" xlink:title="tm_stm32f4_timer.c">
<polygon fill="white" stroke="black" points="1017,-224.5 1017,-243.5 1121,-243.5 1121,-224.5 1017,-224.5"/>
<text text-anchor="middle" x="1069" y="-231.5" font-family="Helvetica,sans-Serif" font-size="10.00">tm_stm32f4_timer.c</text>
</a>
</g>
</g>
<!-- Node22&#45;&gt;Node23 -->
<g id="edge31" class="edge"><title>Node22&#45;&gt;Node23</title>
<path fill="none" stroke="midnightblue" d="M1051.67,-270.983C1056.09,-261.817 1061.25,-251.092 1064.79,-243.751"/>
<polygon fill="midnightblue" stroke="midnightblue" points="1048.48,-269.555 1047.29,-280.083 1054.79,-272.591 1048.48,-269.555"/>
</g>
<!-- Node24&#45;&gt;Node7 -->
<g id="edge36" class="edge"><title>Node24&#45;&gt;Node7</title>
<path fill="none" stroke="midnightblue" d="M741.16,-271.32C729.185,-247.37 708.274,-205.548 699.296,-187.591"/>
<polygon fill="midnightblue" stroke="midnightblue" points="738.082,-272.989 745.684,-280.368 744.343,-269.859 738.082,-272.989"/>
</g>
<!-- Node25 -->
<g id="node25" class="node"><title>Node25</title>
<g id="a_node25"><a xlink:href="a00062_source.html" target="_top" xlink:title="tm_stm32f4_usart.c">
<polygon fill="white" stroke="black" points="749,-224.5 749,-243.5 853,-243.5 853,-224.5 749,-224.5"/>
<text text-anchor="middle" x="801" y="-231.5" font-family="Helvetica,sans-Serif" font-size="10.00">tm_stm32f4_usart.c</text>
</a>
</g>
</g>
<!-- Node24&#45;&gt;Node25 -->
<g id="edge33" class="edge"><title>Node24&#45;&gt;Node25</title>
<path fill="none" stroke="midnightblue" d="M765.378,-272.718C774.367,-263.2 785.359,-251.561 792.735,-243.751"/>
<polygon fill="midnightblue" stroke="midnightblue" points="762.743,-270.41 758.422,-280.083 767.832,-275.216 762.743,-270.41"/>
</g>
<!-- Node26 -->
<g id="node26" class="node"><title>Node26</title>
<g id="a_node26"><a xlink:href="a00065_source.html" target="_top" xlink:title="tm_stm32f4_usart_dma.h">
<polygon fill="white" stroke="black" points="871,-224.5 871,-243.5 999,-243.5 999,-224.5 871,-224.5"/>
<text text-anchor="middle" x="935" y="-231.5" font-family="Helvetica,sans-Serif" font-size="10.00">tm_stm32f4_usart_dma.h</text>
</a>
</g>
</g>
<!-- Node24&#45;&gt;Node26 -->
<g id="edge34" class="edge"><title>Node24&#45;&gt;Node26</title>
<path fill="none" stroke="midnightblue" d="M789.166,-277.568C824.065,-267.381 874.349,-252.703 905.823,-243.516"/>
<polygon fill="midnightblue" stroke="midnightblue" points="787.933,-274.282 779.314,-280.444 789.894,-281.001 787.933,-274.282"/>
</g>
<!-- Node27 -->
<g id="node27" class="node"><title>Node27</title>
<g id="a_node27"><a xlink:href="a00064_source.html" target="_top" xlink:title="tm_stm32f4_usart_dma.c">
<polygon fill="white" stroke="black" points="871,-168.5 871,-187.5 999,-187.5 999,-168.5 871,-168.5"/>
<text text-anchor="middle" x="935" y="-175.5" font-family="Helvetica,sans-Serif" font-size="10.00">tm_stm32f4_usart_dma.c</text>
</a>
</g>
</g>
<!-- Node26&#45;&gt;Node27 -->
<g id="edge35" class="edge"><title>Node26&#45;&gt;Node27</title>
<path fill="none" stroke="midnightblue" d="M935,-213.805C935,-204.91 935,-194.78 935,-187.751"/>
<polygon fill="midnightblue" stroke="midnightblue" points="931.5,-214.083 935,-224.083 938.5,-214.083 931.5,-214.083"/>
</g>
</g>
</svg>
