<?xml version="1.0" encoding="UTF-8" standalone="no"?>
<!DOCTYPE svg PUBLIC "-//W3C//DTD SVG 1.1//EN"
 "http://www.w3.org/Graphics/SVG/1.1/DTD/svg11.dtd">
<!-- Generated by graphviz version 2.38.0 (20140413.2041)
 -->
<!-- Title: md_stm32f4_gpio.h Pages: 1 -->
<svg width="1106pt" height="420pt"
 viewBox="0.00 0.00 1106.00 420.00" xmlns="http://www.w3.org/2000/svg" xmlns:xlink="http://www.w3.org/1999/xlink">
<g id="graph0" class="graph" transform="scale(1 1) rotate(0) translate(4 416)">
<title>md_stm32f4_gpio.h</title>
<polygon fill="white" stroke="none" points="-4,4 -4,-416 1102,-416 1102,4 -4,4"/>
<!-- Node1 -->
<g id="node1" class="node"><title>Node1</title>
<polygon fill="#bfbfbf" stroke="black" points="643,-392.5 643,-411.5 745,-411.5 745,-392.5 643,-392.5"/>
<text text-anchor="middle" x="694" y="-399.5" font-family="Helvetica,sans-Serif" font-size="10.00">md_stm32f4_gpio.h</text>
</g>
<!-- Node2 -->
<g id="node2" class="node"><title>Node2</title>
<g id="a_node2"><a xlink:href="a00027.html" target="_top" xlink:title="Project XA&#45;Galvo scanner specific digital to analog converter methods. ">
<polygon fill="white" stroke="black" points="225,-336.5 225,-355.5 325,-355.5 325,-336.5 225,-336.5"/>
<text text-anchor="middle" x="275" y="-343.5" font-family="Helvetica,sans-Serif" font-size="10.00">md_stm32f4_dac.h</text>
</a>
</g>
</g>
<!-- Node1&#45;&gt;Node2 -->
<g id="edge1" class="edge"><title>Node1&#45;&gt;Node2</title>
<path fill="none" stroke="midnightblue" d="M632.545,-393.08C549.265,-382.347 402.156,-363.388 325.164,-353.465"/>
<polygon fill="midnightblue" stroke="midnightblue" points="632.257,-396.572 642.622,-394.379 633.152,-389.629 632.257,-396.572"/>
</g>
<!-- Node17 -->
<g id="node17" class="node"><title>Node17</title>
<g id="a_node17"><a xlink:href="a00033.html" target="_top" xlink:title="Definitions to extend board support for STM32F429i&#45;DISCO and equivalent boards. ">
<polygon fill="white" stroke="black" points="600.5,-280.5 600.5,-299.5 707.5,-299.5 707.5,-280.5 600.5,-280.5"/>
<text text-anchor="middle" x="654" y="-287.5" font-family="Helvetica,sans-Serif" font-size="10.00">md_stm32f4_disco.h</text>
</a>
</g>
</g>
<!-- Node1&#45;&gt;Node17 -->
<g id="edge24" class="edge"><title>Node1&#45;&gt;Node17</title>
<path fill="none" stroke="midnightblue" d="M684.827,-382.988C680.891,-374.865 676.421,-365.076 673,-356 665.535,-336.198 659.174,-312.107 656.056,-299.549"/>
<polygon fill="midnightblue" stroke="midnightblue" points="681.824,-384.809 689.408,-392.207 688.093,-381.694 681.824,-384.809"/>
</g>
<!-- Node19 -->
<g id="node19" class="node"><title>Node19</title>
<g id="a_node19"><a xlink:href="a00034.html" target="_top" xlink:title="md_stm32f4_gpio.c">
<polygon fill="white" stroke="black" points="804,-336.5 804,-355.5 906,-355.5 906,-336.5 804,-336.5"/>
<text text-anchor="middle" x="855" y="-343.5" font-family="Helvetica,sans-Serif" font-size="10.00">md_stm32f4_gpio.c</text>
</a>
</g>
</g>
<!-- Node1&#45;&gt;Node19 -->
<g id="edge28" class="edge"><title>Node1&#45;&gt;Node19</title>
<path fill="none" stroke="midnightblue" d="M729.265,-389.172C759.581,-379.004 802.57,-364.585 829.608,-355.516"/>
<polygon fill="midnightblue" stroke="midnightblue" points="727.879,-385.945 719.511,-392.444 730.105,-392.582 727.879,-385.945"/>
</g>
<!-- Node20 -->
<g id="node20" class="node"><title>Node20</title>
<g id="a_node20"><a xlink:href="a00057_source.html" target="_top" xlink:title="tm_stm32f4_pwm.h">
<polygon fill="white" stroke="black" points="440.5,-336.5 440.5,-355.5 543.5,-355.5 543.5,-336.5 440.5,-336.5"/>
<text text-anchor="middle" x="492" y="-343.5" font-family="Helvetica,sans-Serif" font-size="10.00">tm_stm32f4_pwm.h</text>
</a>
</g>
</g>
<!-- Node1&#45;&gt;Node20 -->
<g id="edge29" class="edge"><title>Node1&#45;&gt;Node20</title>
<path fill="none" stroke="midnightblue" d="M652.212,-389.829C614.073,-379.633 558.519,-364.782 523.858,-355.516"/>
<polygon fill="midnightblue" stroke="midnightblue" points="651.428,-393.242 661.992,-392.444 653.236,-386.48 651.428,-393.242"/>
</g>
<!-- Node22 -->
<g id="node22" class="node"><title>Node22</title>
<g id="a_node22"><a xlink:href="a00059_source.html" target="_top" xlink:title="tm_stm32f4_timer.h">
<polygon fill="white" stroke="black" points="959,-336.5 959,-355.5 1063,-355.5 1063,-336.5 959,-336.5"/>
<text text-anchor="middle" x="1011" y="-343.5" font-family="Helvetica,sans-Serif" font-size="10.00">tm_stm32f4_timer.h</text>
</a>
</g>
</g>
<!-- Node1&#45;&gt;Node22 -->
<g id="edge32" class="edge"><title>Node1&#45;&gt;Node22</title>
<path fill="none" stroke="midnightblue" d="M754.303,-390.727C814.207,-380.523 904.991,-365.058 961.005,-355.516"/>
<polygon fill="midnightblue" stroke="midnightblue" points="753.5,-387.314 744.23,-392.444 754.675,-394.214 753.5,-387.314"/>
</g>
<!-- Node24 -->
<g id="node24" class="node"><title>Node24</title>
<g id="a_node24"><a xlink:href="a00063_source.html" target="_top" xlink:title="tm_stm32f4_usart.h">
<polygon fill="white" stroke="black" points="682,-336.5 682,-355.5 786,-355.5 786,-336.5 682,-336.5"/>
<text text-anchor="middle" x="734" y="-343.5" font-family="Helvetica,sans-Serif" font-size="10.00">tm_stm32f4_usart.h</text>
</a>
</g>
</g>
<!-- Node1&#45;&gt;Node24 -->
<g id="edge34" class="edge"><title>Node1&#45;&gt;Node24</title>
<path fill="none" stroke="midnightblue" d="M706.7,-383.855C713.626,-374.505 721.906,-363.327 727.518,-355.751"/>
<polygon fill="midnightblue" stroke="midnightblue" points="703.745,-381.964 700.605,-392.083 709.37,-386.131 703.745,-381.964"/>
</g>
<!-- Node3 -->
<g id="node3" class="node"><title>Node3</title>
<g id="a_node3"><a xlink:href="a00026.html" target="_top" xlink:title="md_stm32f4_dac.c">
<polygon fill="white" stroke="black" points="166,-280.5 166,-299.5 266,-299.5 266,-280.5 166,-280.5"/>
<text text-anchor="middle" x="216" y="-287.5" font-family="Helvetica,sans-Serif" font-size="10.00">md_stm32f4_dac.c</text>
</a>
</g>
</g>
<!-- Node2&#45;&gt;Node3 -->
<g id="edge2" class="edge"><title>Node2&#45;&gt;Node3</title>
<path fill="none" stroke="midnightblue" d="M258.105,-329.537C247.585,-319.909 234.431,-307.869 225.652,-299.834"/>
<polygon fill="midnightblue" stroke="midnightblue" points="255.781,-332.154 265.521,-336.324 260.507,-326.99 255.781,-332.154"/>
</g>
<!-- Node4 -->
<g id="node4" class="node"><title>Node4</title>
<g id="a_node4"><a xlink:href="a00029.html" target="_top" xlink:title="Waveform generation extension for DAC library. ">
<polygon fill="white" stroke="black" points="0,-280.5 0,-299.5 148,-299.5 148,-280.5 0,-280.5"/>
<text text-anchor="middle" x="74" y="-287.5" font-family="Helvetica,sans-Serif" font-size="10.00">md_stm32f4_dac_waveform.h</text>
</a>
</g>
</g>
<!-- Node2&#45;&gt;Node4 -->
<g id="edge3" class="edge"><title>Node2&#45;&gt;Node4</title>
<path fill="none" stroke="midnightblue" d="M233.419,-333.829C195.469,-323.633 140.19,-308.782 105.7,-299.516"/>
<polygon fill="midnightblue" stroke="midnightblue" points="232.585,-337.229 243.151,-336.444 234.402,-330.469 232.585,-337.229"/>
</g>
<!-- Node6 -->
<g id="node6" class="node"><title>Node6</title>
<g id="a_node6"><a xlink:href="a00044.html" target="_top" xlink:title="Provides initialization methods to configure analog subsystems and DMA controller. ">
<polygon fill="white" stroke="black" points="284.5,-280.5 284.5,-299.5 383.5,-299.5 383.5,-280.5 284.5,-280.5"/>
<text text-anchor="middle" x="334" y="-287.5" font-family="Helvetica,sans-Serif" font-size="10.00">periph2dma_conf.h</text>
</a>
</g>
</g>
<!-- Node2&#45;&gt;Node6 -->
<g id="edge5" class="edge"><title>Node2&#45;&gt;Node6</title>
<path fill="none" stroke="midnightblue" d="M291.895,-329.537C302.415,-319.909 315.569,-307.869 324.348,-299.834"/>
<polygon fill="midnightblue" stroke="midnightblue" points="289.493,-326.99 284.479,-336.324 294.219,-332.154 289.493,-326.99"/>
</g>
<!-- Node5 -->
<g id="node5" class="node"><title>Node5</title>
<g id="a_node5"><a xlink:href="a00028_source.html" target="_top" xlink:title="md_stm32f4_dac_waveform.c">
<polygon fill="white" stroke="black" points="0,-224.5 0,-243.5 148,-243.5 148,-224.5 0,-224.5"/>
<text text-anchor="middle" x="74" y="-231.5" font-family="Helvetica,sans-Serif" font-size="10.00">md_stm32f4_dac_waveform.c</text>
</a>
</g>
</g>
<!-- Node4&#45;&gt;Node5 -->
<g id="edge4" class="edge"><title>Node4&#45;&gt;Node5</title>
<path fill="none" stroke="midnightblue" d="M74,-269.805C74,-260.91 74,-250.78 74,-243.751"/>
<polygon fill="midnightblue" stroke="midnightblue" points="70.5001,-270.083 74,-280.083 77.5001,-270.083 70.5001,-270.083"/>
</g>
<!-- Node7 -->
<g id="node7" class="node"><title>Node7</title>
<g id="a_node7"><a xlink:href="a00025.html" target="_top" xlink:title="Main header definition. ">
<polygon fill="white" stroke="black" points="414,-224.5 414,-243.5 460,-243.5 460,-224.5 414,-224.5"/>
<text text-anchor="middle" x="437" y="-231.5" font-family="Helvetica,sans-Serif" font-size="10.00">main.h</text>
</a>
</g>
</g>
<!-- Node6&#45;&gt;Node7 -->
<g id="edge6" class="edge"><title>Node6&#45;&gt;Node7</title>
<path fill="none" stroke="midnightblue" d="M359.579,-275.59C378.623,-265.605 404.064,-252.267 420.492,-243.655"/>
<polygon fill="midnightblue" stroke="midnightblue" points="357.78,-272.581 350.549,-280.324 361.031,-278.78 357.78,-272.581"/>
</g>
<!-- Node16 -->
<g id="node16" class="node"><title>Node16</title>
<g id="a_node16"><a xlink:href="a00043.html" target="_top" xlink:title="periph2dma_conf.c">
<polygon fill="white" stroke="black" points="284.5,-224.5 284.5,-243.5 383.5,-243.5 383.5,-224.5 284.5,-224.5"/>
<text text-anchor="middle" x="334" y="-231.5" font-family="Helvetica,sans-Serif" font-size="10.00">periph2dma_conf.c</text>
</a>
</g>
</g>
<!-- Node6&#45;&gt;Node16 -->
<g id="edge23" class="edge"><title>Node6&#45;&gt;Node16</title>
<path fill="none" stroke="midnightblue" d="M334,-269.805C334,-260.91 334,-250.78 334,-243.751"/>
<polygon fill="midnightblue" stroke="midnightblue" points="330.5,-270.083 334,-280.083 337.5,-270.083 330.5,-270.083"/>
</g>
<!-- Node8 -->
<g id="node8" class="node"><title>Node8</title>
<g id="a_node8"><a xlink:href="a00014.html" target="_top" xlink:title="Provides DMA related configuration and access functions for ADC and DAC. ">
<polygon fill="white" stroke="black" points="314,-168.5 314,-187.5 400,-187.5 400,-168.5 314,-168.5"/>
<text text-anchor="middle" x="357" y="-175.5" font-family="Helvetica,sans-Serif" font-size="10.00">adc_dac_dma.h</text>
</a>
</g>
</g>
<!-- Node7&#45;&gt;Node8 -->
<g id="edge7" class="edge"><title>Node7&#45;&gt;Node8</title>
<path fill="none" stroke="midnightblue" d="M410.155,-218.935C394.361,-209.099 375.632,-196.263 364.939,-187.834"/>
<polygon fill="midnightblue" stroke="midnightblue" points="408.667,-222.126 419.032,-224.324 412.3,-216.143 408.667,-222.126"/>
</g>
<!-- Node11 -->
<g id="node11" class="node"><title>Node11</title>
<g id="a_node11"><a xlink:href="a00022.html" target="_top" xlink:title="Callback handler implementations. ">
<polygon fill="white" stroke="black" points="573,-0.5 573,-19.5 655,-19.5 655,-0.5 573,-0.5"/>
<text text-anchor="middle" x="614" y="-7.5" font-family="Helvetica,sans-Serif" font-size="10.00">irq_callbacks.c</text>
</a>
</g>
</g>
<!-- Node7&#45;&gt;Node11 -->
<g id="edge20" class="edge"><title>Node7&#45;&gt;Node11</title>
<path fill="none" stroke="midnightblue" d="M470.338,-230.037C519.752,-224.878 608.692,-212.386 628,-188 668.949,-136.283 631.653,-47.3441 618.313,-19.5532"/>
<polygon fill="midnightblue" stroke="midnightblue" points="469.745,-226.579 460.142,-231.056 470.441,-233.545 469.745,-226.579"/>
</g>
<!-- Node12 -->
<g id="node12" class="node"><title>Node12</title>
<g id="a_node12"><a xlink:href="a00023.html" target="_top" xlink:title="Analog processing related callback handler definition. ">
<polygon fill="white" stroke="black" points="474,-112.5 474,-131.5 556,-131.5 556,-112.5 474,-112.5"/>
<text text-anchor="middle" x="515" y="-119.5" font-family="Helvetica,sans-Serif" font-size="10.00">irq_callbacks.h</text>
</a>
</g>
</g>
<!-- Node7&#45;&gt;Node12 -->
<g id="edge19" class="edge"><title>Node7&#45;&gt;Node12</title>
<path fill="none" stroke="midnightblue" d="M435.185,-214.298C438.306,-200.674 445.815,-182.195 456,-168 466.553,-153.292 482.656,-139.898 495.718,-131.618"/>
<polygon fill="midnightblue" stroke="midnightblue" points="431.692,-213.985 433.632,-224.401 438.611,-215.049 431.692,-213.985"/>
</g>
<!-- Node14 -->
<g id="node14" class="node"><title>Node14</title>
<g id="a_node14"><a xlink:href="a00024.html" target="_top" xlink:title="Main source implementation (29&#45;04&#45;2015) ">
<polygon fill="white" stroke="black" points="474,-168.5 474,-187.5 520,-187.5 520,-168.5 474,-168.5"/>
<text text-anchor="middle" x="497" y="-175.5" font-family="Helvetica,sans-Serif" font-size="10.00">main.c</text>
</a>
</g>
</g>
<!-- Node7&#45;&gt;Node14 -->
<g id="edge21" class="edge"><title>Node7&#45;&gt;Node14</title>
<path fill="none" stroke="midnightblue" d="M454.181,-217.537C464.879,-207.909 478.256,-195.869 487.185,-187.834"/>
<polygon fill="midnightblue" stroke="midnightblue" points="451.732,-215.033 446.64,-224.324 456.414,-220.236 451.732,-215.033"/>
</g>
<!-- Node15 -->
<g id="node15" class="node"><title>Node15</title>
<g id="a_node15"><a xlink:href="a00051.html" target="_top" xlink:title="stm32f4xx_it.c">
<polygon fill="white" stroke="black" points="538.5,-168.5 538.5,-187.5 619.5,-187.5 619.5,-168.5 538.5,-168.5"/>
<text text-anchor="middle" x="579" y="-175.5" font-family="Helvetica,sans-Serif" font-size="10.00">stm32f4xx_it.c</text>
</a>
</g>
</g>
<!-- Node7&#45;&gt;Node15 -->
<g id="edge22" class="edge"><title>Node7&#45;&gt;Node15</title>
<path fill="none" stroke="midnightblue" d="M469.155,-220.772C495.828,-210.629 533.069,-196.467 556.605,-187.516"/>
<polygon fill="midnightblue" stroke="midnightblue" points="467.603,-217.618 459.5,-224.444 470.091,-224.16 467.603,-217.618"/>
</g>
<!-- Node8&#45;&gt;Node7 -->
<g id="edge13" class="edge"><title>Node8&#45;&gt;Node7</title>
<path fill="none" stroke="midnightblue" d="M383.86,-193.074C399.749,-202.971 418.606,-215.9 429.261,-224.324"/>
<polygon fill="midnightblue" stroke="midnightblue" points="385.296,-189.852 374.932,-187.655 381.664,-195.836 385.296,-189.852"/>
</g>
<!-- Node9 -->
<g id="node9" class="node"><title>Node9</title>
<g id="a_node9"><a xlink:href="a00012.html" target="_top" xlink:title="Controlling beam and primary actuators. ">
<polygon fill="white" stroke="black" points="300.5,-56.5 300.5,-75.5 365.5,-75.5 365.5,-56.5 300.5,-56.5"/>
<text text-anchor="middle" x="333" y="-63.5" font-family="Helvetica,sans-Serif" font-size="10.00">actuators.h</text>
</a>
</g>
</g>
<!-- Node8&#45;&gt;Node9 -->
<g id="edge8" class="edge"><title>Node8&#45;&gt;Node9</title>
<path fill="none" stroke="midnightblue" d="M347.819,-158.674C340.102,-134.625 331.554,-93.3881 331.039,-75.5914"/>
<polygon fill="midnightblue" stroke="midnightblue" points="344.62,-160.124 351.274,-168.368 351.213,-157.774 344.62,-160.124"/>
</g>
<!-- Node8&#45;&gt;Node12 -->
<g id="edge14" class="edge"><title>Node8&#45;&gt;Node12</title>
<path fill="none" stroke="midnightblue" d="M391.608,-165.172C421.359,-155.004 463.547,-140.585 490.082,-131.516"/>
<polygon fill="midnightblue" stroke="midnightblue" points="390.366,-161.898 382.036,-168.444 392.63,-168.521 390.366,-161.898"/>
</g>
<!-- Node13 -->
<g id="node13" class="node"><title>Node13</title>
<g id="a_node13"><a xlink:href="a00013.html" target="_top" xlink:title="adc_dac_dma.c">
<polygon fill="white" stroke="black" points="370,-112.5 370,-131.5 456,-131.5 456,-112.5 370,-112.5"/>
<text text-anchor="middle" x="413" y="-119.5" font-family="Helvetica,sans-Serif" font-size="10.00">adc_dac_dma.c</text>
</a>
</g>
</g>
<!-- Node8&#45;&gt;Node13 -->
<g id="edge18" class="edge"><title>Node8&#45;&gt;Node13</title>
<path fill="none" stroke="midnightblue" d="M373.33,-161.253C383.265,-151.673 395.588,-139.791 403.839,-131.834"/>
<polygon fill="midnightblue" stroke="midnightblue" points="370.766,-158.863 365.997,-168.324 375.625,-163.902 370.766,-158.863"/>
</g>
<!-- Node9&#45;&gt;Node7 -->
<g id="edge9" class="edge"><title>Node9&#45;&gt;Node7</title>
<path fill="none" stroke="midnightblue" d="M321.322,-83.9444C305.661,-108.974 282.302,-156.281 305,-188 317.857,-205.967 379.467,-221.186 413.785,-228.445"/>
<polygon fill="midnightblue" stroke="midnightblue" points="324.287,-85.8053 326.835,-75.5214 318.43,-81.9716 324.287,-85.8053"/>
</g>
<!-- Node9&#45;&gt;Node8 -->
<g id="edge10" class="edge"><title>Node9&#45;&gt;Node8</title>
<path fill="none" stroke="midnightblue" d="M342.164,-85.2717C349.879,-109.295 358.433,-150.537 358.96,-168.368"/>
<polygon fill="midnightblue" stroke="midnightblue" points="345.367,-83.8336 338.71,-75.5914 338.774,-86.1861 345.367,-83.8336"/>
</g>
<!-- Node10 -->
<g id="node10" class="node"><title>Node10</title>
<g id="a_node10"><a xlink:href="a00011.html" target="_top" xlink:title="Controlling beam and primary actuators. ">
<polygon fill="white" stroke="black" points="300.5,-0.5 300.5,-19.5 365.5,-19.5 365.5,-0.5 300.5,-0.5"/>
<text text-anchor="middle" x="333" y="-7.5" font-family="Helvetica,sans-Serif" font-size="10.00">actuators.c</text>
</a>
</g>
</g>
<!-- Node9&#45;&gt;Node10 -->
<g id="edge11" class="edge"><title>Node9&#45;&gt;Node10</title>
<path fill="none" stroke="midnightblue" d="M333,-45.8045C333,-36.9102 333,-26.7798 333,-19.7511"/>
<polygon fill="midnightblue" stroke="midnightblue" points="329.5,-46.083 333,-56.083 336.5,-46.083 329.5,-46.083"/>
</g>
<!-- Node9&#45;&gt;Node11 -->
<g id="edge12" class="edge"><title>Node9&#45;&gt;Node11</title>
<path fill="none" stroke="midnightblue" d="M375.336,-56.8643C428.701,-46.6092 519.831,-29.0966 572.701,-18.9365"/>
<polygon fill="midnightblue" stroke="midnightblue" points="374.669,-53.4284 365.509,-58.7528 375.99,-60.3026 374.669,-53.4284"/>
</g>
<!-- Node12&#45;&gt;Node7 -->
<g id="edge15" class="edge"><title>Node12&#45;&gt;Node7</title>
<path fill="none" stroke="midnightblue" d="M501.903,-138.635C493.037,-146.597 481.945,-156.926 474,-168 460.963,-186.17 452.311,-211.357 445.164,-224.401"/>
<polygon fill="midnightblue" stroke="midnightblue" points="504.439,-141.062 509.546,-131.779 499.765,-135.851 504.439,-141.062"/>
</g>
<!-- Node12&#45;&gt;Node9 -->
<g id="edge16" class="edge"><title>Node12&#45;&gt;Node9</title>
<path fill="none" stroke="midnightblue" d="M476.469,-109.568C442.136,-99.381 392.667,-84.7034 361.704,-75.5164"/>
<polygon fill="midnightblue" stroke="midnightblue" points="475.579,-112.954 486.162,-112.444 477.57,-106.244 475.579,-112.954"/>
</g>
<!-- Node12&#45;&gt;Node11 -->
<g id="edge17" class="edge"><title>Node12&#45;&gt;Node11</title>
<path fill="none" stroke="midnightblue" d="M529.493,-104.897C550.776,-81.2486 589.746,-37.9493 606.268,-19.5914"/>
<polygon fill="midnightblue" stroke="midnightblue" points="526.857,-102.594 522.768,-112.368 532.06,-107.277 526.857,-102.594"/>
</g>
<!-- Node17&#45;&gt;Node7 -->
<g id="edge26" class="edge"><title>Node17&#45;&gt;Node7</title>
<path fill="none" stroke="midnightblue" d="M609.763,-277.992C564.464,-266.719 495.8,-249.632 460.214,-240.777"/>
<polygon fill="midnightblue" stroke="midnightblue" points="609.066,-281.425 619.616,-280.444 610.757,-274.632 609.066,-281.425"/>
</g>
<!-- Node17&#45;&gt;Node11 -->
<g id="edge27" class="edge"><title>Node17&#45;&gt;Node11</title>
<path fill="none" stroke="midnightblue" d="M662.526,-271.281C672.005,-249.915 686,-212.671 686,-179 686,-179 686,-179 686,-121 686,-76.9489 645.077,-36.7974 624.935,-19.7031"/>
<polygon fill="midnightblue" stroke="midnightblue" points="659.326,-269.862 658.316,-280.408 665.682,-272.793 659.326,-269.862"/>
</g>
<!-- Node18 -->
<g id="node18" class="node"><title>Node18</title>
<g id="a_node18"><a xlink:href="a00032.html" target="_top" xlink:title="DESCRIPTION. ">
<polygon fill="white" stroke="black" points="550.5,-224.5 550.5,-243.5 657.5,-243.5 657.5,-224.5 550.5,-224.5"/>
<text text-anchor="middle" x="604" y="-231.5" font-family="Helvetica,sans-Serif" font-size="10.00">md_stm32f4_disco.c</text>
</a>
</g>
</g>
<!-- Node17&#45;&gt;Node18 -->
<g id="edge25" class="edge"><title>Node17&#45;&gt;Node18</title>
<path fill="none" stroke="midnightblue" d="M638.924,-272.718C630.111,-263.2 619.334,-251.561 612.103,-243.751"/>
<polygon fill="midnightblue" stroke="midnightblue" points="636.381,-275.123 645.744,-280.083 641.518,-270.367 636.381,-275.123"/>
</g>
<!-- Node20&#45;&gt;Node7 -->
<g id="edge31" class="edge"><title>Node20&#45;&gt;Node7</title>
<path fill="none" stroke="midnightblue" d="M462.998,-331.33C450.768,-323.917 437.807,-313.48 431,-300 421.703,-281.589 428.658,-256.503 433.455,-243.539"/>
<polygon fill="midnightblue" stroke="midnightblue" points="461.657,-334.59 472.094,-336.41 465.07,-328.479 461.657,-334.59"/>
</g>
<!-- Node21 -->
<g id="node21" class="node"><title>Node21</title>
<g id="a_node21"><a xlink:href="a00056_source.html" target="_top" xlink:title="tm_stm32f4_pwm.c">
<polygon fill="white" stroke="black" points="440.5,-280.5 440.5,-299.5 543.5,-299.5 543.5,-280.5 440.5,-280.5"/>
<text text-anchor="middle" x="492" y="-287.5" font-family="Helvetica,sans-Serif" font-size="10.00">tm_stm32f4_pwm.c</text>
</a>
</g>
</g>
<!-- Node20&#45;&gt;Node21 -->
<g id="edge30" class="edge"><title>Node20&#45;&gt;Node21</title>
<path fill="none" stroke="midnightblue" d="M492,-325.805C492,-316.91 492,-306.78 492,-299.751"/>
<polygon fill="midnightblue" stroke="midnightblue" points="488.5,-326.083 492,-336.083 495.5,-326.083 488.5,-326.083"/>
</g>
<!-- Node23 -->
<g id="node23" class="node"><title>Node23</title>
<g id="a_node23"><a xlink:href="a00058_source.html" target="_top" xlink:title="tm_stm32f4_timer.c">
<polygon fill="white" stroke="black" points="994,-280.5 994,-299.5 1098,-299.5 1098,-280.5 994,-280.5"/>
<text text-anchor="middle" x="1046" y="-287.5" font-family="Helvetica,sans-Serif" font-size="10.00">tm_stm32f4_timer.c</text>
</a>
</g>
</g>
<!-- Node22&#45;&gt;Node23 -->
<g id="edge33" class="edge"><title>Node22&#45;&gt;Node23</title>
<path fill="none" stroke="midnightblue" d="M1022.3,-327.566C1028.32,-318.275 1035.47,-307.248 1040.33,-299.751"/>
<polygon fill="midnightblue" stroke="midnightblue" points="1019.28,-325.788 1016.78,-336.083 1025.16,-329.595 1019.28,-325.788"/>
</g>
<!-- Node24&#45;&gt;Node7 -->
<g id="edge38" class="edge"><title>Node24&#45;&gt;Node7</title>
<path fill="none" stroke="midnightblue" d="M691.608,-333.699C662.797,-325.525 624.062,-313.566 591,-300 572.978,-292.606 569.759,-288.004 552,-280 520.726,-265.906 483.623,-251.851 460.193,-243.292"/>
<polygon fill="midnightblue" stroke="midnightblue" points="690.786,-337.103 701.359,-336.428 692.673,-330.362 690.786,-337.103"/>
</g>
<!-- Node25 -->
<g id="node25" class="node"><title>Node25</title>
<g id="a_node25"><a xlink:href="a00062_source.html" target="_top" xlink:title="tm_stm32f4_usart.c">
<polygon fill="white" stroke="black" points="872,-280.5 872,-299.5 976,-299.5 976,-280.5 872,-280.5"/>
<text text-anchor="middle" x="924" y="-287.5" font-family="Helvetica,sans-Serif" font-size="10.00">tm_stm32f4_usart.c</text>
</a>
</g>
</g>
<!-- Node24&#45;&gt;Node25 -->
<g id="edge35" class="edge"><title>Node24&#45;&gt;Node25</title>
<path fill="none" stroke="midnightblue" d="M773.764,-333.699C809.623,-323.507 861.571,-308.743 894.035,-299.516"/>
<polygon fill="midnightblue" stroke="midnightblue" points="772.768,-330.343 764.106,-336.444 774.682,-337.076 772.768,-330.343"/>
</g>
<!-- Node26 -->
<g id="node26" class="node"><title>Node26</title>
<g id="a_node26"><a xlink:href="a00065_source.html" target="_top" xlink:title="tm_stm32f4_usart_dma.h">
<polygon fill="white" stroke="black" points="726,-280.5 726,-299.5 854,-299.5 854,-280.5 726,-280.5"/>
<text text-anchor="middle" x="790" y="-287.5" font-family="Helvetica,sans-Serif" font-size="10.00">tm_stm32f4_usart_dma.h</text>
</a>
</g>
</g>
<!-- Node24&#45;&gt;Node26 -->
<g id="edge36" class="edge"><title>Node24&#45;&gt;Node26</title>
<path fill="none" stroke="midnightblue" d="M750.33,-329.253C760.265,-319.673 772.588,-307.791 780.839,-299.834"/>
<polygon fill="midnightblue" stroke="midnightblue" points="747.766,-326.863 742.997,-336.324 752.625,-331.902 747.766,-326.863"/>
</g>
<!-- Node27 -->
<g id="node27" class="node"><title>Node27</title>
<g id="a_node27"><a xlink:href="a00064_source.html" target="_top" xlink:title="tm_stm32f4_usart_dma.c">
<polygon fill="white" stroke="black" points="726,-224.5 726,-243.5 854,-243.5 854,-224.5 726,-224.5"/>
<text text-anchor="middle" x="790" y="-231.5" font-family="Helvetica,sans-Serif" font-size="10.00">tm_stm32f4_usart_dma.c</text>
</a>
</g>
</g>
<!-- Node26&#45;&gt;Node27 -->
<g id="edge37" class="edge"><title>Node26&#45;&gt;Node27</title>
<path fill="none" stroke="midnightblue" d="M790,-269.805C790,-260.91 790,-250.78 790,-243.751"/>
<polygon fill="midnightblue" stroke="midnightblue" points="786.5,-270.083 790,-280.083 793.5,-270.083 786.5,-270.083"/>
</g>
</g>
</svg>
