<?xml version="1.0" encoding="UTF-8" standalone="no"?>
<!DOCTYPE svg PUBLIC "-//W3C//DTD SVG 1.1//EN"
 "http://www.w3.org/Graphics/SVG/1.1/DTD/svg11.dtd">
<!-- Generated by graphviz version 2.38.0 (20140413.2041)
 -->
<!-- Title: I2C_Exported_Constants Pages: 1 -->
<!--zoomable 572 -->
<svg id="main" version="1.1" xmlns="http://www.w3.org/2000/svg" xmlns:xlink="http://www.w3.org/1999/xlink" xml:space="preserve" onload="init(evt)">
<style type="text/css"><![CDATA[
.edge:hover path { stroke: red; }
.edge:hover polygon { stroke: red; fill: red; }
]]></style>
<script type="text/javascript"><![CDATA[
var edges = document.getElementsByTagName('g');
if (edges && edges.length) {
  for (var i=0;i<edges.length;i++) {
    if (edges[i].id.substr(0,4)=='edge') {
      edges[i].setAttribute('class','edge');
    }
  }
}
]]></script>
        <defs>
                <circle id="rim" cx="0" cy="0" r="7"/>
                <circle id="rim2" cx="0" cy="0" r="3.5"/>
                <g id="zoomPlus">
                        <use xlink:href="#rim" fill="#404040">
                                <set attributeName="fill" to="#808080" begin="zoomplus.mouseover" end="zoomplus.mouseout"/>
                        </use>
                        <path d="M-4,0h8M0,-4v8" fill="none" stroke="white" stroke-width="1.5" pointer-events="none"/>
                </g>
                <g id="zoomMin">
                        <use xlink:href="#rim" fill="#404040">
                                <set attributeName="fill" to="#808080" begin="zoomminus.mouseover" end="zoomminus.mouseout"/>
                        </use>
                        <path d="M-4,0h8" fill="none" stroke="white" stroke-width="1.5" pointer-events="none"/>
                </g>
                <g id="dirArrow">
                        <path fill="none" stroke="white" stroke-width="1.5" d="M0,-3.0v7 M-2.5,-0.5L0,-3.0L2.5,-0.5"/>
                </g>
               <g id="resetDef">
                       <use xlink:href="#rim2" fill="#404040">
                               <set attributeName="fill" to="#808080" begin="reset.mouseover" end="reset.mouseout"/>
                       </use>
               </g>
        </defs>

<script type="text/javascript">
var viewWidth = 388;
var viewHeight = 572;
var sectionId = 'dynsection-0';
</script>
<script xlink:href="svgpan.js"/>
<svg id="graph" class="graph">
<g id="viewport">
<title>I2C_Exported_Constants</title>
<polygon fill="white" stroke="none" points="-4,4 -4,-568 384,-568 384,4 -4,4"/>
<!-- Node8 -->
<g id="node1" class="node"><title>Node8</title>
<g id="a_node1"><a xlink:href="a00334.html" target="_top" xlink:title="I2C_registers">
<polygon fill="white" stroke="black" points="268,-544.5 268,-563.5 343,-563.5 343,-544.5 268,-544.5"/>
<text text-anchor="middle" x="305.5" y="-551.5" font-family="Helvetica,sans-Serif" font-size="10.00">I2C_registers</text>
</a>
</g>
</g>
<!-- Node10 -->
<g id="node2" class="node"><title>Node10</title>
<g id="a_node2"><a xlink:href="a00336.html" target="_top" xlink:title="I2C_SMBus_alert_pin\l_level">
<polygon fill="white" stroke="black" points="249.5,-495 249.5,-525 361.5,-525 361.5,-495 249.5,-495"/>
<text text-anchor="start" x="257.5" y="-513" font-family="Helvetica,sans-Serif" font-size="10.00">I2C_SMBus_alert_pin</text>
<text text-anchor="middle" x="305.5" y="-502" font-family="Helvetica,sans-Serif" font-size="10.00">_level</text>
</a>
</g>
</g>
<!-- Node7 -->
<g id="node3" class="node"><title>Node7</title>
<g id="a_node3"><a xlink:href="a00333.html" target="_top" xlink:title="I2C_acknowledged_address">
<polygon fill="white" stroke="black" points="235.5,-456.5 235.5,-475.5 375.5,-475.5 375.5,-456.5 235.5,-456.5"/>
<text text-anchor="middle" x="305.5" y="-463.5" font-family="Helvetica,sans-Serif" font-size="10.00">I2C_acknowledged_address</text>
</a>
</g>
</g>
<!-- Node0 -->
<g id="node4" class="node"><title>Node0</title>
<polygon fill="#bfbfbf" stroke="black" points="68,-266.5 68,-285.5 195,-285.5 195,-266.5 68,-266.5"/>
<text text-anchor="middle" x="131.5" y="-273.5" font-family="Helvetica,sans-Serif" font-size="10.00">I2C_Exported_Constants</text>
</g>
<!-- Node0&#45;&gt;Node8 -->
<g id="edge8" class="edge"><title>Node0&#45;&gt;Node8</title>
<path fill="none" stroke="black" d="M134.014,-295.849C138.809,-344.344 157.998,-469.647 231,-535 241.114,-544.055 254.988,-548.899 267.959,-551.455"/>
<polygon fill="black" stroke="black" points="137.487,-295.389 133.118,-285.737 130.514,-296.007 137.487,-295.389"/>
</g>
<!-- Node0&#45;&gt;Node10 -->
<g id="edge10" class="edge"><title>Node0&#45;&gt;Node10</title>
<path fill="none" stroke="black" d="M136.401,-295.833C145.522,-337.023 172.086,-432.37 231,-485 236.327,-489.759 242.599,-493.619 249.196,-496.749"/>
<polygon fill="black" stroke="black" points="139.805,-295.01 134.321,-285.944 132.955,-296.451 139.805,-295.01"/>
</g>
<!-- Node0&#45;&gt;Node7 -->
<g id="edge7" class="edge"><title>Node0&#45;&gt;Node7</title>
<path fill="none" stroke="black" d="M138.054,-295.179C149.384,-330.793 178.622,-407.134 231,-447 236.139,-450.911 242.003,-454.021 248.127,-456.494"/>
<polygon fill="black" stroke="black" points="141.373,-294.063 135.107,-285.52 134.678,-296.106 141.373,-294.063"/>
</g>
<!-- Node14 -->
<g id="node5" class="node"><title>Node14</title>
<g id="a_node5"><a xlink:href="a00340.html" target="_top" xlink:title="I2C_Events">
<polygon fill="white" stroke="black" points="271.5,-418.5 271.5,-437.5 339.5,-437.5 339.5,-418.5 271.5,-418.5"/>
<text text-anchor="middle" x="305.5" y="-425.5" font-family="Helvetica,sans-Serif" font-size="10.00">I2C_Events</text>
</a>
</g>
</g>
<!-- Node0&#45;&gt;Node14 -->
<g id="edge14" class="edge"><title>Node0&#45;&gt;Node14</title>
<path fill="none" stroke="black" d="M141.235,-294.926C155.67,-324.045 187.31,-379.547 231,-409 242.912,-417.03 258.005,-421.667 271.411,-424.344"/>
<polygon fill="black" stroke="black" points="144.341,-293.309 136.855,-285.812 138.032,-296.341 144.341,-293.309"/>
</g>
<!-- Node6 -->
<g id="node6" class="node"><title>Node6</title>
<g id="a_node6"><a xlink:href="a00332.html" target="_top" xlink:title="I2C_transfer_direction">
<polygon fill="white" stroke="black" points="249,-380.5 249,-399.5 362,-399.5 362,-380.5 249,-380.5"/>
<text text-anchor="middle" x="305.5" y="-387.5" font-family="Helvetica,sans-Serif" font-size="10.00">I2C_transfer_direction</text>
</a>
</g>
</g>
<!-- Node0&#45;&gt;Node6 -->
<g id="edge6" class="edge"><title>Node0&#45;&gt;Node6</title>
<path fill="none" stroke="black" d="M146.023,-293.758C163.363,-315.277 195.466,-351.117 231,-371 237.901,-374.861 245.605,-377.957 253.356,-380.432"/>
<polygon fill="black" stroke="black" points="148.661,-291.451 139.726,-285.758 143.161,-295.781 148.661,-291.451"/>
</g>
<!-- Node11 -->
<g id="node8" class="node"><title>Node11</title>
<g id="a_node8"><a xlink:href="a00337.html" target="_top" xlink:title="I2C_PEC_position">
<polygon fill="white" stroke="black" points="256.5,-342.5 256.5,-361.5 354.5,-361.5 354.5,-342.5 256.5,-342.5"/>
<text text-anchor="middle" x="305.5" y="-349.5" font-family="Helvetica,sans-Serif" font-size="10.00">I2C_PEC_position</text>
</a>
</g>
</g>
<!-- Node0&#45;&gt;Node11 -->
<g id="edge11" class="edge"><title>Node0&#45;&gt;Node11</title>
<path fill="none" stroke="black" d="M154.657,-291.175C174.055,-303.875 203.379,-321.686 231,-333 240.025,-336.697 249.974,-339.844 259.559,-342.451"/>
<polygon fill="black" stroke="black" points="156.498,-288.196 146.234,-285.572 152.621,-294.025 156.498,-288.196"/>
</g>
<!-- Node4 -->
<g id="node9" class="node"><title>Node4</title>
<g id="a_node9"><a xlink:href="a00330.html" target="_top" xlink:title="I2C_duty_cycle_in_fast_mode">
<polygon fill="white" stroke="black" points="231,-304.5 231,-323.5 380,-323.5 380,-304.5 231,-304.5"/>
<text text-anchor="middle" x="305.5" y="-311.5" font-family="Helvetica,sans-Serif" font-size="10.00">I2C_duty_cycle_in_fast_mode</text>
</a>
</g>
</g>
<!-- Node0&#45;&gt;Node4 -->
<g id="edge4" class="edge"><title>Node0&#45;&gt;Node4</title>
<path fill="none" stroke="black" d="M185.696,-287.753C210.017,-293.126 238.455,-299.409 261.409,-304.48"/>
<polygon fill="black" stroke="black" points="186.422,-284.329 175.903,-285.589 184.912,-291.164 186.422,-284.329"/>
</g>
<!-- Node5 -->
<g id="node10" class="node"><title>Node5</title>
<g id="a_node10"><a xlink:href="a00331.html" target="_top" xlink:title="I2C_acknowledgement">
<polygon fill="white" stroke="black" points="247.5,-266.5 247.5,-285.5 363.5,-285.5 363.5,-266.5 247.5,-266.5"/>
<text text-anchor="middle" x="305.5" y="-273.5" font-family="Helvetica,sans-Serif" font-size="10.00">I2C_acknowledgement</text>
</a>
</g>
</g>
<!-- Node0&#45;&gt;Node5 -->
<g id="edge5" class="edge"><title>Node0&#45;&gt;Node5</title>
<path fill="none" stroke="black" d="M205.231,-276C219.317,-276 233.89,-276 247.389,-276"/>
<polygon fill="black" stroke="black" points="205.083,-272.5 195.083,-276 205.082,-279.5 205.083,-272.5"/>
</g>
<!-- Node12 -->
<g id="node11" class="node"><title>Node12</title>
<g id="a_node11"><a xlink:href="a00338.html" target="_top" xlink:title="I2C_interrupts_definition">
<polygon fill="white" stroke="black" points="244.5,-228.5 244.5,-247.5 366.5,-247.5 366.5,-228.5 244.5,-228.5"/>
<text text-anchor="middle" x="305.5" y="-235.5" font-family="Helvetica,sans-Serif" font-size="10.00">I2C_interrupts_definition</text>
</a>
</g>
</g>
<!-- Node0&#45;&gt;Node12 -->
<g id="edge12" class="edge"><title>Node0&#45;&gt;Node12</title>
<path fill="none" stroke="black" d="M185.696,-264.247C210.017,-258.874 238.455,-252.591 261.409,-247.52"/>
<polygon fill="black" stroke="black" points="184.912,-260.836 175.903,-266.411 186.422,-267.671 184.912,-260.836"/>
</g>
<!-- Node13 -->
<g id="node12" class="node"><title>Node13</title>
<g id="a_node12"><a xlink:href="a00339.html" target="_top" xlink:title="I2C_flags_definition">
<polygon fill="white" stroke="black" points="254,-190.5 254,-209.5 357,-209.5 357,-190.5 254,-190.5"/>
<text text-anchor="middle" x="305.5" y="-197.5" font-family="Helvetica,sans-Serif" font-size="10.00">I2C_flags_definition</text>
</a>
</g>
</g>
<!-- Node0&#45;&gt;Node13 -->
<g id="edge13" class="edge"><title>Node0&#45;&gt;Node13</title>
<path fill="none" stroke="black" d="M154.657,-260.825C174.055,-248.125 203.379,-230.314 231,-219 240.025,-215.303 249.974,-212.156 259.559,-209.549"/>
<polygon fill="black" stroke="black" points="152.621,-257.975 146.234,-266.428 156.498,-263.804 152.621,-257.975"/>
</g>
<!-- Node15 -->
<g id="node13" class="node"><title>Node15</title>
<g id="a_node13"><a xlink:href="a00341.html" target="_top" xlink:title="I2C_own_address1">
<polygon fill="white" stroke="black" points="255,-152.5 255,-171.5 356,-171.5 356,-152.5 255,-152.5"/>
<text text-anchor="middle" x="305.5" y="-159.5" font-family="Helvetica,sans-Serif" font-size="10.00">I2C_own_address1</text>
</a>
</g>
</g>
<!-- Node0&#45;&gt;Node15 -->
<g id="edge15" class="edge"><title>Node0&#45;&gt;Node15</title>
<path fill="none" stroke="black" d="M146.023,-258.242C163.363,-236.723 195.466,-200.883 231,-181 238.361,-176.881 246.635,-173.634 254.906,-171.081"/>
<polygon fill="black" stroke="black" points="143.161,-256.219 139.726,-266.242 148.661,-260.549 143.161,-256.219"/>
</g>
<!-- Node3 -->
<g id="node14" class="node"><title>Node3</title>
<g id="a_node14"><a xlink:href="a00329.html" target="_top" xlink:title="I2C_mode">
<polygon fill="white" stroke="black" points="274.5,-114.5 274.5,-133.5 336.5,-133.5 336.5,-114.5 274.5,-114.5"/>
<text text-anchor="middle" x="305.5" y="-121.5" font-family="Helvetica,sans-Serif" font-size="10.00">I2C_mode</text>
</a>
</g>
</g>
<!-- Node0&#45;&gt;Node3 -->
<g id="edge3" class="edge"><title>Node0&#45;&gt;Node3</title>
<path fill="none" stroke="black" d="M141.235,-257.074C155.67,-227.955 187.31,-172.453 231,-143 243.786,-134.38 260.238,-129.671 274.333,-127.098"/>
<polygon fill="black" stroke="black" points="138.032,-255.659 136.855,-266.188 144.341,-258.691 138.032,-255.659"/>
</g>
<!-- Node9 -->
<g id="node15" class="node"><title>Node9</title>
<g id="a_node15"><a xlink:href="a00335.html" target="_top" xlink:title="I2C_NACK_position">
<polygon fill="white" stroke="black" points="253,-76.5 253,-95.5 358,-95.5 358,-76.5 253,-76.5"/>
<text text-anchor="middle" x="305.5" y="-83.5" font-family="Helvetica,sans-Serif" font-size="10.00">I2C_NACK_position</text>
</a>
</g>
</g>
<!-- Node0&#45;&gt;Node9 -->
<g id="edge9" class="edge"><title>Node0&#45;&gt;Node9</title>
<path fill="none" stroke="black" d="M138.054,-256.821C149.384,-221.207 178.622,-144.866 231,-105 237.397,-100.131 244.919,-96.5032 252.666,-93.8021"/>
<polygon fill="black" stroke="black" points="134.678,-255.894 135.107,-266.48 141.373,-257.937 134.678,-255.894"/>
</g>
<!-- Node16 -->
<g id="node16" class="node"><title>Node16</title>
<g id="a_node16"><a xlink:href="a00342.html" target="_top" xlink:title="I2C_clock_speed">
<polygon fill="white" stroke="black" points="259.5,-38.5 259.5,-57.5 351.5,-57.5 351.5,-38.5 259.5,-38.5"/>
<text text-anchor="middle" x="305.5" y="-45.5" font-family="Helvetica,sans-Serif" font-size="10.00">I2C_clock_speed</text>
</a>
</g>
</g>
<!-- Node0&#45;&gt;Node16 -->
<g id="edge16" class="edge"><title>Node0&#45;&gt;Node16</title>
<path fill="none" stroke="black" d="M135.975,-256.389C144.395,-214.841 169.874,-117.622 231,-67 239.019,-60.3589 249.088,-56.0072 259.179,-53.1644"/>
<polygon fill="black" stroke="black" points="132.514,-255.855 134.075,-266.335 139.39,-257.169 132.514,-255.855"/>
</g>
<!-- Node2 -->
<g id="node17" class="node"><title>Node2</title>
<g id="a_node17"><a xlink:href="a00328.html" target="_top" xlink:title="I2C_Digital_Filter">
<polygon fill="white" stroke="black" points="259.5,-0.5 259.5,-19.5 351.5,-19.5 351.5,-0.5 259.5,-0.5"/>
<text text-anchor="middle" x="305.5" y="-7.5" font-family="Helvetica,sans-Serif" font-size="10.00">I2C_Digital_Filter</text>
</a>
</g>
</g>
<!-- Node0&#45;&gt;Node2 -->
<g id="edge2" class="edge"><title>Node0&#45;&gt;Node2</title>
<path fill="none" stroke="black" d="M134.393,-256.437C139.99,-209.706 160.752,-90.8799 231,-29 238.912,-22.0305 249.057,-17.5614 259.266,-14.7107"/>
<polygon fill="black" stroke="black" points="130.906,-256.132 133.299,-266.453 137.864,-256.893 130.906,-256.132"/>
</g>
<!-- Node1 -->
<g id="node7" class="node"><title>Node1</title>
<g id="a_node7"><a xlink:href="a00015.html" target="_top" xlink:title="I2C driver modules. ">
<polygon fill="white" stroke="black" points="0,-266.5 0,-285.5 32,-285.5 32,-266.5 0,-266.5"/>
<text text-anchor="middle" x="16" y="-273.5" font-family="Helvetica,sans-Serif" font-size="10.00">I2C</text>
</a>
</g>
</g>
<!-- Node1&#45;&gt;Node0 -->
<g id="edge1" class="edge"><title>Node1&#45;&gt;Node0</title>
<path fill="none" stroke="black" d="M42.3169,-276C49.9933,-276 58.7906,-276 67.79,-276"/>
<polygon fill="black" stroke="black" points="42.3071,-272.5 32.3071,-276 42.3071,-279.5 42.3071,-272.5"/>
</g>
</g>
</svg>
        <g id="navigator" transform="translate(0 0)" fill="#404254">
                <rect fill="#f2f5e9" fill-opacity="0.5" stroke="#606060" stroke-width=".5" x="0" y="0" width="60" height="60"/>
                <use id="zoomplus" xlink:href="#zoomPlus" x="17" y="9" onmousedown="handleZoom(evt,'in')"/>
                <use id="zoomminus" xlink:href="#zoomMin" x="42" y="9" onmousedown="handleZoom(evt,'out')"/>
                <use id="reset" xlink:href="#resetDef" x="30" y="36" onmousedown="handleReset()"/>
                <g id="arrowUp" xlink:href="#dirArrow" transform="translate(30 24)" onmousedown="handlePan(0,-1)">
                  <use xlink:href="#rim" fill="#404040">
                        <set attributeName="fill" to="#808080" begin="arrowUp.mouseover" end="arrowUp.mouseout"/>
                  </use>
                  <path fill="none" stroke="white" stroke-width="1.5" d="M0,-3.0v7 M-2.5,-0.5L0,-3.0L2.5,-0.5"/>
                </g>
                <g id="arrowRight" xlink:href="#dirArrow" transform="rotate(90) translate(36 -43)" onmousedown="handlePan(1,0)">
                  <use xlink:href="#rim" fill="#404040">
                        <set attributeName="fill" to="#808080" begin="arrowRight.mouseover" end="arrowRight.mouseout"/>
                  </use>
                  <path fill="none" stroke="white" stroke-width="1.5" d="M0,-3.0v7 M-2.5,-0.5L0,-3.0L2.5,-0.5"/>
                </g>
                <g id="arrowDown" xlink:href="#dirArrow" transform="rotate(180) translate(-30 -48)" onmousedown="handlePan(0,1)">
                  <use xlink:href="#rim" fill="#404040">
                        <set attributeName="fill" to="#808080" begin="arrowDown.mouseover" end="arrowDown.mouseout"/>
                  </use>
                  <path fill="none" stroke="white" stroke-width="1.5" d="M0,-3.0v7 M-2.5,-0.5L0,-3.0L2.5,-0.5"/>
                </g>
                <g id="arrowLeft" xlink:href="#dirArrow" transform="rotate(270) translate(-36 17)" onmousedown="handlePan(-1,0)">
                  <use xlink:href="#rim" fill="#404040">
                        <set attributeName="fill" to="#808080" begin="arrowLeft.mouseover" end="arrowLeft.mouseout"/>
                  </use>
                  <path fill="none" stroke="white" stroke-width="1.5" d="M0,-3.0v7 M-2.5,-0.5L0,-3.0L2.5,-0.5"/>
                </g>
        </g>
        <svg viewBox="0 0 15 15" width="100%" height="30px" preserveAspectRatio="xMaxYMin meet">
         <g id="arrow_out" transform="scale(0.3 0.3)">
          <a xlink:href="a00327_org.svg" target="_base">
           <rect id="button" ry="5" rx="5" y="6" x="6" height="38" width="38"
                fill="#f2f5e9" fill-opacity="0.5" stroke="#606060" stroke-width="1.0"/>
           <path id="arrow"
             d="M 11.500037,31.436501 C 11.940474,20.09759 22.043105,11.32322 32.158766,21.979434 L 37.068811,17.246167 C 37.068811,17.246167 37.088388,32 37.088388,32 L 22.160133,31.978069 C 22.160133,31.978069 26.997745,27.140456 26.997745,27.140456 C 18.528582,18.264221 13.291696,25.230495 11.500037,31.436501 z"
             style="fill:#404040;"/>
          </a>
         </g>
        </svg>
</svg>
