<?xml version="1.0" encoding="UTF-8" standalone="no"?>
<!DOCTYPE svg PUBLIC "-//W3C//DTD SVG 1.1//EN"
 "http://www.w3.org/Graphics/SVG/1.1/DTD/svg11.dtd">
<!-- Generated by graphviz version 2.38.0 (20140413.2041)
 -->
<!-- Title: IWDG_Exported_Constants Pages: 1 -->
<svg width="369pt" height="104pt"
 viewBox="0.00 0.00 369.00 104.00" xmlns="http://www.w3.org/2000/svg" xmlns:xlink="http://www.w3.org/1999/xlink">
<g id="graph0" class="graph" transform="scale(1 1) rotate(0) translate(4 100)">
<title>IWDG_Exported_Constants</title>
<polygon fill="white" stroke="none" points="-4,4 -4,-100 365,-100 365,4 -4,4"/>
<!-- Node4 -->
<g id="node1" class="node"><title>Node4</title>
<g id="a_node1"><a xlink:href="a00346.html" target="_top" xlink:title="IWDG_Flag">
<polygon fill="white" stroke="black" points="274,-76.5 274,-95.5 342,-95.5 342,-76.5 274,-76.5"/>
<text text-anchor="middle" x="308" y="-83.5" font-family="Helvetica,sans-Serif" font-size="10.00">IWDG_Flag</text>
</a>
</g>
</g>
<!-- Node2 -->
<g id="node2" class="node"><title>Node2</title>
<g id="a_node2"><a xlink:href="a00344.html" target="_top" xlink:title="IWDG_WriteAccess">
<polygon fill="white" stroke="black" points="255,-38.5 255,-57.5 361,-57.5 361,-38.5 255,-38.5"/>
<text text-anchor="middle" x="308" y="-45.5" font-family="Helvetica,sans-Serif" font-size="10.00">IWDG_WriteAccess</text>
</a>
</g>
</g>
<!-- Node3 -->
<g id="node3" class="node"><title>Node3</title>
<g id="a_node3"><a xlink:href="a00345.html" target="_top" xlink:title="IWDG_prescaler">
<polygon fill="white" stroke="black" points="263.5,-0.5 263.5,-19.5 352.5,-19.5 352.5,-0.5 263.5,-0.5"/>
<text text-anchor="middle" x="308" y="-7.5" font-family="Helvetica,sans-Serif" font-size="10.00">IWDG_prescaler</text>
</a>
</g>
</g>
<!-- Node1 -->
<g id="node4" class="node"><title>Node1</title>
<g id="a_node4"><a xlink:href="a00621.html" target="_top" xlink:title="IWDG driver modules. ">
<polygon fill="white" stroke="black" points="0,-38.5 0,-57.5 44,-57.5 44,-38.5 0,-38.5"/>
<text text-anchor="middle" x="22" y="-45.5" font-family="Helvetica,sans-Serif" font-size="10.00">IWDG</text>
</a>
</g>
</g>
<!-- Node0 -->
<g id="node5" class="node"><title>Node0</title>
<polygon fill="#bfbfbf" stroke="black" points="80,-38.5 80,-57.5 219,-57.5 219,-38.5 80,-38.5"/>
<text text-anchor="middle" x="149.5" y="-45.5" font-family="Helvetica,sans-Serif" font-size="10.00">IWDG_Exported_Constants</text>
</g>
<!-- Node1&#45;&gt;Node0 -->
<g id="edge1" class="edge"><title>Node1&#45;&gt;Node0</title>
<path fill="none" stroke="black" d="M54.1972,-48C62.1367,-48 70.9872,-48 79.9972,-48"/>
<polygon fill="black" stroke="black" points="54.0059,-44.5001 44.0059,-48 54.0058,-51.5001 54.0059,-44.5001"/>
</g>
<!-- Node0&#45;&gt;Node4 -->
<g id="edge4" class="edge"><title>Node0&#45;&gt;Node4</title>
<path fill="none" stroke="black" d="M200.026,-60.0255C224.118,-65.8752 252.427,-72.7491 273.87,-77.9557"/>
<polygon fill="black" stroke="black" points="200.535,-56.5475 189.992,-57.589 198.883,-63.3498 200.535,-56.5475"/>
</g>
<!-- Node0&#45;&gt;Node2 -->
<g id="edge2" class="edge"><title>Node0&#45;&gt;Node2</title>
<path fill="none" stroke="black" d="M229.307,-48C237.984,-48 246.651,-48 254.883,-48"/>
<polygon fill="black" stroke="black" points="229.143,-44.5001 219.143,-48 229.143,-51.5001 229.143,-44.5001"/>
</g>
<!-- Node0&#45;&gt;Node3 -->
<g id="edge3" class="edge"><title>Node0&#45;&gt;Node3</title>
<path fill="none" stroke="black" d="M199.789,-36.032C221.72,-30.7069 247.185,-24.5238 267.792,-19.5201"/>
<polygon fill="black" stroke="black" points="198.883,-32.6502 189.992,-38.411 200.535,-39.4525 198.883,-32.6502"/>
</g>
</g>
</svg>
