<?xml version="1.0" encoding="UTF-8" standalone="no"?>
<!DOCTYPE svg PUBLIC "-//W3C//DTD SVG 1.1//EN"
 "http://www.w3.org/Graphics/SVG/1.1/DTD/svg11.dtd">
<!-- Generated by graphviz version 2.38.0 (20140413.2041)
 -->
<!-- Title: RTC_Exported_Constants Pages: 1 -->
<!--zoomable 1689 -->
<svg id="main" version="1.1" xmlns="http://www.w3.org/2000/svg" xmlns:xlink="http://www.w3.org/1999/xlink" xml:space="preserve" onload="init(evt)">
<style type="text/css"><![CDATA[
.edge:hover path { stroke: red; }
.edge:hover polygon { stroke: red; fill: red; }
]]></style>
<script type="text/javascript"><![CDATA[
var edges = document.getElementsByTagName('g');
if (edges && edges.length) {
  for (var i=0;i<edges.length;i++) {
    if (edges[i].id.substr(0,4)=='edge') {
      edges[i].setAttribute('class','edge');
    }
  }
}
]]></script>
        <defs>
                <circle id="rim" cx="0" cy="0" r="7"/>
                <circle id="rim2" cx="0" cy="0" r="3.5"/>
                <g id="zoomPlus">
                        <use xlink:href="#rim" fill="#404040">
                                <set attributeName="fill" to="#808080" begin="zoomplus.mouseover" end="zoomplus.mouseout"/>
                        </use>
                        <path d="M-4,0h8M0,-4v8" fill="none" stroke="white" stroke-width="1.5" pointer-events="none"/>
                </g>
                <g id="zoomMin">
                        <use xlink:href="#rim" fill="#404040">
                                <set attributeName="fill" to="#808080" begin="zoomminus.mouseover" end="zoomminus.mouseout"/>
                        </use>
                        <path d="M-4,0h8" fill="none" stroke="white" stroke-width="1.5" pointer-events="none"/>
                </g>
                <g id="dirArrow">
                        <path fill="none" stroke="white" stroke-width="1.5" d="M0,-3.0v7 M-2.5,-0.5L0,-3.0L2.5,-0.5"/>
                </g>
               <g id="resetDef">
                       <use xlink:href="#rim2" fill="#404040">
                               <set attributeName="fill" to="#808080" begin="reset.mouseover" end="reset.mouseout"/>
                       </use>
               </g>
        </defs>

<script type="text/javascript">
var viewWidth = 415;
var viewHeight = 1689;
var sectionId = 'dynsection-0';
</script>
<script xlink:href="svgpan.js"/>
<svg id="graph" class="graph">
<g id="viewport">
<title>RTC_Exported_Constants</title>
<polygon fill="white" stroke="none" points="-4,4 -4,-1684.5 411,-1684.5 411,4 -4,4"/>
<!-- Node23 -->
<g id="node1" class="node"><title>Node23</title>
<g id="a_node1"><a xlink:href="a00415.html" target="_top" xlink:title="RTC_Smooth_calib_Plus\l_pulses_Definitions">
<polygon fill="white" stroke="black" points="261,-1650 261,-1680 388,-1680 388,-1650 261,-1650"/>
<text text-anchor="start" x="269" y="-1668" font-family="Helvetica,sans-Serif" font-size="10.00">RTC_Smooth_calib_Plus</text>
<text text-anchor="middle" x="324.5" y="-1657" font-family="Helvetica,sans-Serif" font-size="10.00">_pulses_Definitions</text>
</a>
</g>
</g>
<!-- Node22 -->
<g id="node2" class="node"><title>Node22</title>
<g id="a_node2"><a xlink:href="a00414.html" target="_top" xlink:title="RTC_Smooth_calib_period\l_Definitions">
<polygon fill="white" stroke="black" points="257.5,-1601 257.5,-1631 391.5,-1631 391.5,-1601 257.5,-1601"/>
<text text-anchor="start" x="265.5" y="-1619" font-family="Helvetica,sans-Serif" font-size="10.00">RTC_Smooth_calib_period</text>
<text text-anchor="middle" x="324.5" y="-1608" font-family="Helvetica,sans-Serif" font-size="10.00">_Definitions</text>
</a>
</g>
</g>
<!-- Node14 -->
<g id="node3" class="node"><title>Node14</title>
<g id="a_node3"><a xlink:href="a00406.html" target="_top" xlink:title="RTC_Alarm_Sub_Seconds\l_Masks_Definitions">
<polygon fill="white" stroke="black" points="257.5,-1552 257.5,-1582 391.5,-1582 391.5,-1552 257.5,-1552"/>
<text text-anchor="start" x="265.5" y="-1570" font-family="Helvetica,sans-Serif" font-size="10.00">RTC_Alarm_Sub_Seconds</text>
<text text-anchor="middle" x="324.5" y="-1559" font-family="Helvetica,sans-Serif" font-size="10.00">_Masks_Definitions</text>
</a>
</g>
</g>
<!-- Node11 -->
<g id="node4" class="node"><title>Node11</title>
<g id="a_node4"><a xlink:href="a00403.html" target="_top" xlink:title="RTC_AlarmDateWeekDay\l_Definitions">
<polygon fill="white" stroke="black" points="258,-1503 258,-1533 391,-1533 391,-1503 258,-1503"/>
<text text-anchor="start" x="266" y="-1521" font-family="Helvetica,sans-Serif" font-size="10.00">RTC_AlarmDateWeekDay</text>
<text text-anchor="middle" x="324.5" y="-1510" font-family="Helvetica,sans-Serif" font-size="10.00">_Definitions</text>
</a>
</g>
</g>
<!-- Node8 -->
<g id="node5" class="node"><title>Node8</title>
<g id="a_node5"><a xlink:href="a00400.html" target="_top" xlink:title="RTC_Month_Date_Definitions">
<polygon fill="white" stroke="black" points="250.5,-1464.5 250.5,-1483.5 398.5,-1483.5 398.5,-1464.5 250.5,-1464.5"/>
<text text-anchor="middle" x="324.5" y="-1471.5" font-family="Helvetica,sans-Serif" font-size="10.00">RTC_Month_Date_Definitions</text>
</a>
</g>
</g>
<!-- Node3 -->
<g id="node6" class="node"><title>Node3</title>
<g id="a_node6"><a xlink:href="a00395.html" target="_top" xlink:title="RTC_Asynchronous_Predivider">
<polygon fill="white" stroke="black" points="247.5,-1426.5 247.5,-1445.5 401.5,-1445.5 401.5,-1426.5 247.5,-1426.5"/>
<text text-anchor="middle" x="324.5" y="-1433.5" font-family="Helvetica,sans-Serif" font-size="10.00">RTC_Asynchronous_Predivider</text>
</a>
</g>
</g>
<!-- Node18 -->
<g id="node7" class="node"><title>Node18</title>
<g id="a_node7"><a xlink:href="a00410.html" target="_top" xlink:title="RTC_Output_selection\l_Definitions">
<polygon fill="white" stroke="black" points="266.5,-1377 266.5,-1407 382.5,-1407 382.5,-1377 266.5,-1377"/>
<text text-anchor="start" x="274.5" y="-1395" font-family="Helvetica,sans-Serif" font-size="10.00">RTC_Output_selection</text>
<text text-anchor="middle" x="324.5" y="-1384" font-family="Helvetica,sans-Serif" font-size="10.00">_Definitions</text>
</a>
</g>
</g>
<!-- Node29 -->
<g id="node8" class="node"><title>Node29</title>
<g id="a_node8"><a xlink:href="a00421.html" target="_top" xlink:title="RTC_Tamper_Pin_Precharge\l_Duration_Definitions">
<polygon fill="white" stroke="black" points="252,-1328 252,-1358 397,-1358 397,-1328 252,-1328"/>
<text text-anchor="start" x="260" y="-1346" font-family="Helvetica,sans-Serif" font-size="10.00">RTC_Tamper_Pin_Precharge</text>
<text text-anchor="middle" x="324.5" y="-1335" font-family="Helvetica,sans-Serif" font-size="10.00">_Duration_Definitions</text>
</a>
</g>
</g>
<!-- Node25 -->
<g id="node9" class="node"><title>Node25</title>
<g id="a_node9"><a xlink:href="a00417.html" target="_top" xlink:title="RTC_DayLightSaving\l_Definitions">
<polygon fill="white" stroke="black" points="268.5,-1279 268.5,-1309 380.5,-1309 380.5,-1279 268.5,-1279"/>
<text text-anchor="start" x="276.5" y="-1297" font-family="Helvetica,sans-Serif" font-size="10.00">RTC_DayLightSaving</text>
<text text-anchor="middle" x="324.5" y="-1286" font-family="Helvetica,sans-Serif" font-size="10.00">_Definitions</text>
</a>
</g>
</g>
<!-- Node37 -->
<g id="node10" class="node"><title>Node37</title>
<g id="a_node10"><a xlink:href="a00429.html" target="_top" xlink:title="RTC_Input_parameter\l_format_definitions">
<polygon fill="white" stroke="black" points="268,-1230 268,-1260 381,-1260 381,-1230 268,-1230"/>
<text text-anchor="start" x="276" y="-1248" font-family="Helvetica,sans-Serif" font-size="10.00">RTC_Input_parameter</text>
<text text-anchor="middle" x="324.5" y="-1237" font-family="Helvetica,sans-Serif" font-size="10.00">_format_definitions</text>
</a>
</g>
</g>
<!-- Node34 -->
<g id="node11" class="node"><title>Node34</title>
<g id="a_node11"><a xlink:href="a00426.html" target="_top" xlink:title="RTC_Add_1_Second_Parameter\l_Definitions">
<polygon fill="white" stroke="black" points="245,-1181 245,-1211 404,-1211 404,-1181 245,-1181"/>
<text text-anchor="start" x="253" y="-1199" font-family="Helvetica,sans-Serif" font-size="10.00">RTC_Add_1_Second_Parameter</text>
<text text-anchor="middle" x="324.5" y="-1188" font-family="Helvetica,sans-Serif" font-size="10.00">_Definitions</text>
</a>
</g>
</g>
<!-- Node15 -->
<g id="node12" class="node"><title>Node15</title>
<g id="a_node12"><a xlink:href="a00407.html" target="_top" xlink:title="RTC_Alarm_Sub_Seconds\l_Value">
<polygon fill="white" stroke="black" points="257.5,-1132 257.5,-1162 391.5,-1162 391.5,-1132 257.5,-1132"/>
<text text-anchor="start" x="265.5" y="-1150" font-family="Helvetica,sans-Serif" font-size="10.00">RTC_Alarm_Sub_Seconds</text>
<text text-anchor="middle" x="324.5" y="-1139" font-family="Helvetica,sans-Serif" font-size="10.00">_Value</text>
</a>
</g>
</g>
<!-- Node1 -->
<g id="node13" class="node"><title>Node1</title>
<g id="a_node13"><a xlink:href="a00021.html" target="_top" xlink:title="RTC driver modules. ">
<polygon fill="white" stroke="black" points="0,-827.5 0,-846.5 38,-846.5 38,-827.5 0,-827.5"/>
<text text-anchor="middle" x="19" y="-834.5" font-family="Helvetica,sans-Serif" font-size="10.00">RTC</text>
</a>
</g>
</g>
<!-- Node0 -->
<g id="node41" class="node"><title>Node0</title>
<polygon fill="#bfbfbf" stroke="black" points="74,-827.5 74,-846.5 206,-846.5 206,-827.5 74,-827.5"/>
<text text-anchor="middle" x="140" y="-834.5" font-family="Helvetica,sans-Serif" font-size="10.00">RTC_Exported_Constants</text>
</g>
<!-- Node1&#45;&gt;Node0 -->
<g id="edge1" class="edge"><title>Node1&#45;&gt;Node0</title>
<path fill="none" stroke="black" d="M48.3415,-837C56.133,-837 64.9175,-837 73.8735,-837"/>
<polygon fill="black" stroke="black" points="48.0736,-833.5 38.0735,-837 48.0735,-840.5 48.0736,-833.5"/>
</g>
<!-- Node16 -->
<g id="node14" class="node"><title>Node16</title>
<g id="a_node14"><a xlink:href="a00408.html" target="_top" xlink:title="RTC_Wakeup_Timer_Definitions">
<polygon fill="white" stroke="black" points="244,-1093.5 244,-1112.5 405,-1112.5 405,-1093.5 244,-1093.5"/>
<text text-anchor="middle" x="324.5" y="-1100.5" font-family="Helvetica,sans-Serif" font-size="10.00">RTC_Wakeup_Timer_Definitions</text>
</a>
</g>
</g>
<!-- Node12 -->
<g id="node15" class="node"><title>Node12</title>
<g id="a_node15"><a xlink:href="a00404.html" target="_top" xlink:title="RTC_AlarmMask_Definitions">
<polygon fill="white" stroke="black" points="252.5,-1055.5 252.5,-1074.5 396.5,-1074.5 396.5,-1055.5 252.5,-1055.5"/>
<text text-anchor="middle" x="324.5" y="-1062.5" font-family="Helvetica,sans-Serif" font-size="10.00">RTC_AlarmMask_Definitions</text>
</a>
</g>
</g>
<!-- Node39 -->
<g id="node16" class="node"><title>Node39</title>
<g id="a_node16"><a xlink:href="a00431.html" target="_top" xlink:title="RTC_Interrupts_Definitions">
<polygon fill="white" stroke="black" points="256.5,-1017.5 256.5,-1036.5 392.5,-1036.5 392.5,-1017.5 256.5,-1017.5"/>
<text text-anchor="middle" x="324.5" y="-1024.5" font-family="Helvetica,sans-Serif" font-size="10.00">RTC_Interrupts_Definitions</text>
</a>
</g>
</g>
<!-- Node32 -->
<g id="node17" class="node"><title>Node32</title>
<g id="a_node17"><a xlink:href="a00424.html" target="_top" xlink:title="RTC_TimeStamp_Pin_Selection">
<polygon fill="white" stroke="black" points="245.5,-979.5 245.5,-998.5 403.5,-998.5 403.5,-979.5 245.5,-979.5"/>
<text text-anchor="middle" x="324.5" y="-986.5" font-family="Helvetica,sans-Serif" font-size="10.00">RTC_TimeStamp_Pin_Selection</text>
</a>
</g>
</g>
<!-- Node13 -->
<g id="node18" class="node"><title>Node13</title>
<g id="a_node18"><a xlink:href="a00405.html" target="_top" xlink:title="RTC_Alarms_Definitions">
<polygon fill="white" stroke="black" points="262,-941.5 262,-960.5 387,-960.5 387,-941.5 262,-941.5"/>
<text text-anchor="middle" x="324.5" y="-948.5" font-family="Helvetica,sans-Serif" font-size="10.00">RTC_Alarms_Definitions</text>
</a>
</g>
</g>
<!-- Node2 -->
<g id="node19" class="node"><title>Node2</title>
<g id="a_node19"><a xlink:href="a00394.html" target="_top" xlink:title="RTC_Hour_Formats">
<polygon fill="white" stroke="black" points="272,-903.5 272,-922.5 377,-922.5 377,-903.5 272,-903.5"/>
<text text-anchor="middle" x="324.5" y="-910.5" font-family="Helvetica,sans-Serif" font-size="10.00">RTC_Hour_Formats</text>
</a>
</g>
</g>
<!-- Node38 -->
<g id="node20" class="node"><title>Node38</title>
<g id="a_node20"><a xlink:href="a00430.html" target="_top" xlink:title="RTC_Flags_Definitions">
<polygon fill="white" stroke="black" points="265,-865.5 265,-884.5 384,-884.5 384,-865.5 265,-865.5"/>
<text text-anchor="middle" x="324.5" y="-872.5" font-family="Helvetica,sans-Serif" font-size="10.00">RTC_Flags_Definitions</text>
</a>
</g>
</g>
<!-- Node5 -->
<g id="node21" class="node"><title>Node5</title>
<g id="a_node21"><a xlink:href="a00397.html" target="_top" xlink:title="RTC_Time_Definitions">
<polygon fill="white" stroke="black" points="266.5,-827.5 266.5,-846.5 382.5,-846.5 382.5,-827.5 266.5,-827.5"/>
<text text-anchor="middle" x="324.5" y="-834.5" font-family="Helvetica,sans-Serif" font-size="10.00">RTC_Time_Definitions</text>
</a>
</g>
</g>
<!-- Node27 -->
<g id="node22" class="node"><title>Node27</title>
<g id="a_node22"><a xlink:href="a00419.html" target="_top" xlink:title="RTC_Tamper_Filter_Definitions">
<polygon fill="white" stroke="black" points="247,-789.5 247,-808.5 402,-808.5 402,-789.5 247,-789.5"/>
<text text-anchor="middle" x="324.5" y="-796.5" font-family="Helvetica,sans-Serif" font-size="10.00">RTC_Tamper_Filter_Definitions</text>
</a>
</g>
</g>
<!-- Node36 -->
<g id="node23" class="node"><title>Node36</title>
<g id="a_node23"><a xlink:href="a00428.html" target="_top" xlink:title="RTC_Backup_Registers\l_Definitions">
<polygon fill="white" stroke="black" points="263,-740 263,-770 386,-770 386,-740 263,-740"/>
<text text-anchor="start" x="271" y="-758" font-family="Helvetica,sans-Serif" font-size="10.00">RTC_Backup_Registers</text>
<text text-anchor="middle" x="324.5" y="-747" font-family="Helvetica,sans-Serif" font-size="10.00">_Definitions</text>
</a>
</g>
</g>
<!-- Node28 -->
<g id="node24" class="node"><title>Node28</title>
<g id="a_node24"><a xlink:href="a00420.html" target="_top" xlink:title="RTC_Tamper_Sampling\l_Frequencies_Definitions">
<polygon fill="white" stroke="black" points="261,-691 261,-721 388,-721 388,-691 261,-691"/>
<text text-anchor="start" x="269" y="-709" font-family="Helvetica,sans-Serif" font-size="10.00">RTC_Tamper_Sampling</text>
<text text-anchor="middle" x="324.5" y="-698" font-family="Helvetica,sans-Serif" font-size="10.00">_Frequencies_Definitions</text>
</a>
</g>
</g>
<!-- Node6 -->
<g id="node25" class="node"><title>Node6</title>
<g id="a_node25"><a xlink:href="a00398.html" target="_top" xlink:title="RTC_AM_PM_Definitions">
<polygon fill="white" stroke="black" points="259.5,-652.5 259.5,-671.5 389.5,-671.5 389.5,-652.5 259.5,-652.5"/>
<text text-anchor="middle" x="324.5" y="-659.5" font-family="Helvetica,sans-Serif" font-size="10.00">RTC_AM_PM_Definitions</text>
</a>
</g>
</g>
<!-- Node40 -->
<g id="node26" class="node"><title>Node40</title>
<g id="a_node26"><a xlink:href="a00432.html" target="_top" xlink:title="RTC_Legacy">
<polygon fill="white" stroke="black" points="287.5,-614.5 287.5,-633.5 361.5,-633.5 361.5,-614.5 287.5,-614.5"/>
<text text-anchor="middle" x="324.5" y="-621.5" font-family="Helvetica,sans-Serif" font-size="10.00">RTC_Legacy</text>
</a>
</g>
</g>
<!-- Node20 -->
<g id="node27" class="node"><title>Node20</title>
<g id="a_node27"><a xlink:href="a00412.html" target="_top" xlink:title="RTC_Digital_Calibration\l_Definitions">
<polygon fill="white" stroke="black" points="263.5,-565 263.5,-595 385.5,-595 385.5,-565 263.5,-565"/>
<text text-anchor="start" x="271.5" y="-583" font-family="Helvetica,sans-Serif" font-size="10.00">RTC_Digital_Calibration</text>
<text text-anchor="middle" x="324.5" y="-572" font-family="Helvetica,sans-Serif" font-size="10.00">_Definitions</text>
</a>
</g>
</g>
<!-- Node33 -->
<g id="node28" class="node"><title>Node33</title>
<g id="a_node28"><a xlink:href="a00425.html" target="_top" xlink:title="RTC_Output_Type_ALARM_OUT">
<polygon fill="white" stroke="black" points="242,-526.5 242,-545.5 407,-545.5 407,-526.5 242,-526.5"/>
<text text-anchor="middle" x="324.5" y="-533.5" font-family="Helvetica,sans-Serif" font-size="10.00">RTC_Output_Type_ALARM_OUT</text>
</a>
</g>
</g>
<!-- Node30 -->
<g id="node29" class="node"><title>Node30</title>
<g id="a_node29"><a xlink:href="a00422.html" target="_top" xlink:title="RTC_Tamper_Pins_Definitions">
<polygon fill="white" stroke="black" points="248.5,-488.5 248.5,-507.5 400.5,-507.5 400.5,-488.5 248.5,-488.5"/>
<text text-anchor="middle" x="324.5" y="-495.5" font-family="Helvetica,sans-Serif" font-size="10.00">RTC_Tamper_Pins_Definitions</text>
</a>
</g>
</g>
<!-- Node17 -->
<g id="node30" class="node"><title>Node17</title>
<g id="a_node30"><a xlink:href="a00409.html" target="_top" xlink:title="RTC_Time_Stamp_Edges\l_definitions">
<polygon fill="white" stroke="black" points="259,-439 259,-469 390,-469 390,-439 259,-439"/>
<text text-anchor="start" x="267" y="-457" font-family="Helvetica,sans-Serif" font-size="10.00">RTC_Time_Stamp_Edges</text>
<text text-anchor="middle" x="324.5" y="-446" font-family="Helvetica,sans-Serif" font-size="10.00">_definitions</text>
</a>
</g>
</g>
<!-- Node31 -->
<g id="node31" class="node"><title>Node31</title>
<g id="a_node31"><a xlink:href="a00423.html" target="_top" xlink:title="RTC_Tamper_Pin_Selection">
<polygon fill="white" stroke="black" points="254,-400.5 254,-419.5 395,-419.5 395,-400.5 254,-400.5"/>
<text text-anchor="middle" x="324.5" y="-407.5" font-family="Helvetica,sans-Serif" font-size="10.00">RTC_Tamper_Pin_Selection</text>
</a>
</g>
</g>
<!-- Node19 -->
<g id="node32" class="node"><title>Node19</title>
<g id="a_node32"><a xlink:href="a00411.html" target="_top" xlink:title="RTC_Output_Polarity\l_Definitions">
<polygon fill="white" stroke="black" points="269.5,-351 269.5,-381 379.5,-381 379.5,-351 269.5,-351"/>
<text text-anchor="start" x="277.5" y="-369" font-family="Helvetica,sans-Serif" font-size="10.00">RTC_Output_Polarity</text>
<text text-anchor="middle" x="324.5" y="-358" font-family="Helvetica,sans-Serif" font-size="10.00">_Definitions</text>
</a>
</g>
</g>
<!-- Node4 -->
<g id="node33" class="node"><title>Node4</title>
<g id="a_node33"><a xlink:href="a00396.html" target="_top" xlink:title="RTC_Synchronous_Predivider">
<polygon fill="white" stroke="black" points="250,-312.5 250,-331.5 399,-331.5 399,-312.5 250,-312.5"/>
<text text-anchor="middle" x="324.5" y="-319.5" font-family="Helvetica,sans-Serif" font-size="10.00">RTC_Synchronous_Predivider</text>
</a>
</g>
</g>
<!-- Node24 -->
<g id="node34" class="node"><title>Node24</title>
<g id="a_node34"><a xlink:href="a00416.html" target="_top" xlink:title="RTC_Smooth_calib_Minus\l_pulses_Definitions">
<polygon fill="white" stroke="black" points="257.5,-263 257.5,-293 391.5,-293 391.5,-263 257.5,-263"/>
<text text-anchor="start" x="265.5" y="-281" font-family="Helvetica,sans-Serif" font-size="10.00">RTC_Smooth_calib_Minus</text>
<text text-anchor="middle" x="324.5" y="-270" font-family="Helvetica,sans-Serif" font-size="10.00">_pulses_Definitions</text>
</a>
</g>
</g>
<!-- Node35 -->
<g id="node35" class="node"><title>Node35</title>
<g id="a_node35"><a xlink:href="a00427.html" target="_top" xlink:title="RTC_Substract_Fraction\l_Of_Second_Value">
<polygon fill="white" stroke="black" points="262,-214 262,-244 387,-244 387,-214 262,-214"/>
<text text-anchor="start" x="270" y="-232" font-family="Helvetica,sans-Serif" font-size="10.00">RTC_Substract_Fraction</text>
<text text-anchor="middle" x="324.5" y="-221" font-family="Helvetica,sans-Serif" font-size="10.00">_Of_Second_Value</text>
</a>
</g>
</g>
<!-- Node26 -->
<g id="node36" class="node"><title>Node26</title>
<g id="a_node36"><a xlink:href="a00418.html" target="_top" xlink:title="RTC_Tamper_Trigger\l_Definitions">
<polygon fill="white" stroke="black" points="269,-165 269,-195 380,-195 380,-165 269,-165"/>
<text text-anchor="start" x="277" y="-183" font-family="Helvetica,sans-Serif" font-size="10.00">RTC_Tamper_Trigger</text>
<text text-anchor="middle" x="324.5" y="-172" font-family="Helvetica,sans-Serif" font-size="10.00">_Definitions</text>
</a>
</g>
</g>
<!-- Node7 -->
<g id="node37" class="node"><title>Node7</title>
<g id="a_node37"><a xlink:href="a00399.html" target="_top" xlink:title="RTC_Year_Date_Definitions">
<polygon fill="white" stroke="black" points="254,-126.5 254,-145.5 395,-145.5 395,-126.5 254,-126.5"/>
<text text-anchor="middle" x="324.5" y="-133.5" font-family="Helvetica,sans-Serif" font-size="10.00">RTC_Year_Date_Definitions</text>
</a>
</g>
</g>
<!-- Node10 -->
<g id="node38" class="node"><title>Node10</title>
<g id="a_node38"><a xlink:href="a00402.html" target="_top" xlink:title="RTC_Alarm_Definitions">
<polygon fill="white" stroke="black" points="264.5,-88.5 264.5,-107.5 384.5,-107.5 384.5,-88.5 264.5,-88.5"/>
<text text-anchor="middle" x="324.5" y="-95.5" font-family="Helvetica,sans-Serif" font-size="10.00">RTC_Alarm_Definitions</text>
</a>
</g>
</g>
<!-- Node21 -->
<g id="node39" class="node"><title>Node21</title>
<g id="a_node39"><a xlink:href="a00413.html" target="_top" xlink:title="RTC_Calib_Output_selection\l_Definitions">
<polygon fill="white" stroke="black" points="252.5,-39 252.5,-69 396.5,-69 396.5,-39 252.5,-39"/>
<text text-anchor="start" x="260.5" y="-57" font-family="Helvetica,sans-Serif" font-size="10.00">RTC_Calib_Output_selection</text>
<text text-anchor="middle" x="324.5" y="-46" font-family="Helvetica,sans-Serif" font-size="10.00">_Definitions</text>
</a>
</g>
</g>
<!-- Node9 -->
<g id="node40" class="node"><title>Node9</title>
<g id="a_node40"><a xlink:href="a00401.html" target="_top" xlink:title="RTC_WeekDay_Definitions">
<polygon fill="white" stroke="black" points="255.5,-0.5 255.5,-19.5 393.5,-19.5 393.5,-0.5 255.5,-0.5"/>
<text text-anchor="middle" x="324.5" y="-7.5" font-family="Helvetica,sans-Serif" font-size="10.00">RTC_WeekDay_Definitions</text>
</a>
</g>
</g>
<!-- Node0&#45;&gt;Node23 -->
<g id="edge23" class="edge"><title>Node0&#45;&gt;Node23</title>
<path fill="none" stroke="black" d="M140.663,-856.927C139.18,-968.785 137.369,-1517.95 242,-1641 247.16,-1647.07 253.769,-1651.64 260.987,-1655.09"/>
<polygon fill="black" stroke="black" points="144.166,-856.784 140.815,-846.733 137.167,-856.68 144.166,-856.784"/>
</g>
<!-- Node0&#45;&gt;Node22 -->
<g id="edge22" class="edge"><title>Node0&#45;&gt;Node22</title>
<path fill="none" stroke="black" d="M140.844,-856.715C140.396,-964.017 143.488,-1477.09 242,-1592 246.32,-1597.04 251.64,-1601.05 257.474,-1604.23"/>
<polygon fill="black" stroke="black" points="144.344,-856.661 140.903,-846.64 137.345,-856.62 144.344,-856.661"/>
</g>
<!-- Node0&#45;&gt;Node14 -->
<g id="edge14" class="edge"><title>Node0&#45;&gt;Node14</title>
<path fill="none" stroke="black" d="M141.048,-857.035C141.702,-960.796 149.757,-1436.39 242,-1543 246.246,-1547.91 251.441,-1551.84 257.132,-1554.98"/>
<polygon fill="black" stroke="black" points="144.547,-856.721 141.001,-846.738 137.547,-856.754 144.547,-856.721"/>
</g>
<!-- Node0&#45;&gt;Node11 -->
<g id="edge11" class="edge"><title>Node0&#45;&gt;Node11</title>
<path fill="none" stroke="black" d="M141.301,-856.524C143.204,-954.747 156.451,-1394.06 242,-1493 246.453,-1498.15 251.937,-1502.26 257.938,-1505.53"/>
<polygon fill="black" stroke="black" points="144.8,-856.44 141.125,-846.503 137.801,-856.563 144.8,-856.44"/>
</g>
<!-- Node0&#45;&gt;Node8 -->
<g id="edge8" class="edge"><title>Node0&#45;&gt;Node8</title>
<path fill="none" stroke="black" d="M141.385,-857.003C143.642,-952.983 158.16,-1365.34 242,-1455 245.572,-1458.82 249.752,-1461.94 254.297,-1464.49"/>
<polygon fill="black" stroke="black" points="144.882,-856.832 141.166,-846.91 137.883,-856.983 144.882,-856.832"/>
</g>
<!-- Node0&#45;&gt;Node3 -->
<g id="edge3" class="edge"><title>Node0&#45;&gt;Node3</title>
<path fill="none" stroke="black" d="M141.615,-856.924C144.873,-949.127 163.069,-1333.47 242,-1417 245.592,-1420.8 249.786,-1423.91 254.341,-1426.44"/>
<polygon fill="black" stroke="black" points="145.107,-856.62 141.276,-846.743 138.111,-856.854 145.107,-856.62"/>
</g>
<!-- Node0&#45;&gt;Node18 -->
<g id="edge18" class="edge"><title>Node0&#45;&gt;Node18</title>
<path fill="none" stroke="black" d="M142.068,-856.783C147.145,-943.638 171.596,-1290.3 242,-1368 248.537,-1375.21 257.12,-1380.3 266.26,-1383.88"/>
<polygon fill="black" stroke="black" points="145.557,-856.49 141.499,-846.703 138.568,-856.885 145.557,-856.49"/>
</g>
<!-- Node0&#45;&gt;Node29 -->
<g id="edge29" class="edge"><title>Node0&#45;&gt;Node29</title>
<path fill="none" stroke="black" d="M142.5,-856.999C149.05,-939.123 177.74,-1249.39 242,-1319 245.202,-1322.47 248.876,-1325.44 252.856,-1328"/>
<polygon fill="black" stroke="black" points="145.956,-856.292 141.693,-846.593 138.977,-856.834 145.956,-856.292"/>
</g>
<!-- Node0&#45;&gt;Node25 -->
<g id="edge25" class="edge"><title>Node0&#45;&gt;Node25</title>
<path fill="none" stroke="black" d="M143.002,-856.909C151.095,-933.555 183.775,-1208.34 242,-1270 249.089,-1277.51 258.395,-1282.7 268.175,-1286.29"/>
<polygon fill="black" stroke="black" points="146.46,-856.314 141.95,-846.727 139.497,-857.034 146.46,-856.314"/>
</g>
<!-- Node0&#45;&gt;Node37 -->
<g id="edge37" class="edge"><title>Node0&#45;&gt;Node37</title>
<path fill="none" stroke="black" d="M143.636,-856.894C153.419,-927.866 189.795,-1167.25 242,-1221 249.091,-1228.3 258.28,-1233.41 267.921,-1236.98"/>
<polygon fill="black" stroke="black" points="147.061,-856.108 142.251,-846.668 140.125,-857.048 147.061,-856.108"/>
</g>
<!-- Node0&#45;&gt;Node34 -->
<g id="edge34" class="edge"><title>Node0&#45;&gt;Node34</title>
<path fill="none" stroke="black" d="M140.846,-856.828C141.512,-914.214 151.494,-1082.08 242,-1172 245.453,-1175.43 249.37,-1178.38 253.574,-1180.9"/>
<polygon fill="black" stroke="black" points="144.345,-856.592 140.817,-846.602 137.345,-856.612 144.345,-856.592"/>
</g>
<!-- Node0&#45;&gt;Node15 -->
<g id="edge15" class="edge"><title>Node0&#45;&gt;Node15</title>
<path fill="none" stroke="black" d="M142.121,-856.864C146.109,-908.335 163.939,-1047.22 242,-1122 246.489,-1126.3 251.698,-1129.86 257.271,-1132.81"/>
<polygon fill="black" stroke="black" points="145.604,-856.49 141.434,-846.751 138.62,-856.965 145.604,-856.49"/>
</g>
<!-- Node0&#45;&gt;Node16 -->
<g id="edge16" class="edge"><title>Node0&#45;&gt;Node16</title>
<path fill="none" stroke="black" d="M143.01,-856.685C148.901,-903.685 170.501,-1023.06 242,-1084 246.534,-1087.86 251.705,-1090.98 257.195,-1093.48"/>
<polygon fill="black" stroke="black" points="146.471,-856.145 141.854,-846.609 139.517,-856.943 146.471,-856.145"/>
</g>
<!-- Node0&#45;&gt;Node12 -->
<g id="edge12" class="edge"><title>Node0&#45;&gt;Node12</title>
<path fill="none" stroke="black" d="M144.628,-856.735C153.388,-898.525 179.741,-996.183 242,-1046 246.765,-1049.81 252.159,-1052.89 257.85,-1055.36"/>
<polygon fill="black" stroke="black" points="148.023,-855.86 142.649,-846.73 141.156,-857.219 148.023,-855.86"/>
</g>
<!-- Node0&#45;&gt;Node39 -->
<g id="edge39" class="edge"><title>Node0&#45;&gt;Node39</title>
<path fill="none" stroke="black" d="M146.752,-856.304C158.464,-892.128 188.597,-968.804 242,-1008 247.271,-1011.87 253.207,-1014.96 259.411,-1017.44"/>
<polygon fill="black" stroke="black" points="150.036,-855.079 143.703,-846.585 143.357,-857.174 150.036,-855.079"/>
</g>
<!-- Node0&#45;&gt;Node32 -->
<g id="edge32" class="edge"><title>Node0&#45;&gt;Node32</title>
<path fill="none" stroke="black" d="M149.785,-855.627C164.546,-884.802 197.169,-940.937 242,-970 247.974,-973.873 254.646,-976.959 261.532,-979.418"/>
<polygon fill="black" stroke="black" points="152.865,-853.957 145.318,-846.521 146.58,-857.04 152.865,-853.957"/>
</g>
<!-- Node0&#45;&gt;Node13 -->
<g id="edge13" class="edge"><title>Node0&#45;&gt;Node13</title>
<path fill="none" stroke="black" d="M154.616,-854.556C172.355,-876.17 205.448,-912.414 242,-932 249.299,-935.911 257.389,-939.023 265.554,-941.497"/>
<polygon fill="black" stroke="black" points="157.175,-852.152 148.19,-846.537 151.713,-856.529 157.175,-852.152"/>
</g>
<!-- Node0&#45;&gt;Node2 -->
<g id="edge2" class="edge"><title>Node0&#45;&gt;Node2</title>
<path fill="none" stroke="black" d="M163.708,-852.313C183.592,-865.1 213.656,-882.96 242,-894 251.612,-897.744 262.161,-900.872 272.389,-903.439"/>
<polygon fill="black" stroke="black" points="165.36,-849.211 155.075,-846.667 161.528,-855.07 165.36,-849.211"/>
</g>
<!-- Node0&#45;&gt;Node38 -->
<g id="edge38" class="edge"><title>Node0&#45;&gt;Node38</title>
<path fill="none" stroke="black" d="M197.099,-848.681C222.98,-854.07 253.315,-860.386 277.779,-865.48"/>
<polygon fill="black" stroke="black" points="197.556,-845.201 187.052,-846.589 196.129,-852.054 197.556,-845.201"/>
</g>
<!-- Node0&#45;&gt;Node5 -->
<g id="edge5" class="edge"><title>Node0&#45;&gt;Node5</title>
<path fill="none" stroke="black" d="M216.384,-837C233.063,-837 250.472,-837 266.288,-837"/>
<polygon fill="black" stroke="black" points="216.114,-833.5 206.114,-837 216.114,-840.5 216.114,-833.5"/>
</g>
<!-- Node0&#45;&gt;Node27 -->
<g id="edge27" class="edge"><title>Node0&#45;&gt;Node27</title>
<path fill="none" stroke="black" d="M197.099,-825.319C222.98,-819.93 253.315,-813.614 277.779,-808.52"/>
<polygon fill="black" stroke="black" points="196.129,-821.946 187.052,-827.411 197.556,-828.799 196.129,-821.946"/>
</g>
<!-- Node0&#45;&gt;Node36 -->
<g id="edge36" class="edge"><title>Node0&#45;&gt;Node36</title>
<path fill="none" stroke="black" d="M164.251,-821.959C184.26,-809.49 214.211,-791.937 242,-780 250.431,-776.378 259.559,-773.045 268.551,-770.072"/>
<polygon fill="black" stroke="black" points="162.129,-819.16 155.541,-827.458 165.866,-825.079 162.129,-819.16"/>
</g>
<!-- Node0&#45;&gt;Node28 -->
<g id="edge28" class="edge"><title>Node0&#45;&gt;Node28</title>
<path fill="none" stroke="black" d="M153.292,-818.941C170.432,-795.117 203.748,-753.469 242,-730 247.783,-726.452 254.12,-723.404 260.624,-720.791"/>
<polygon fill="black" stroke="black" points="150.232,-817.208 147.347,-827.402 155.96,-821.232 150.232,-817.208"/>
</g>
<!-- Node0&#45;&gt;Node6 -->
<g id="edge6" class="edge"><title>Node0&#45;&gt;Node6</title>
<path fill="none" stroke="black" d="M147.781,-818.002C160.672,-784.739 191.981,-716.156 242,-681 247.468,-677.157 253.602,-674.082 259.987,-671.622"/>
<polygon fill="black" stroke="black" points="144.463,-816.881 144.242,-827.473 151.021,-819.331 144.463,-816.881"/>
</g>
<!-- Node0&#45;&gt;Node40 -->
<g id="edge40" class="edge"><title>Node0&#45;&gt;Node40</title>
<path fill="none" stroke="black" d="M145.413,-817.308C155.345,-777.75 183.319,-688.535 242,-643 254.856,-633.024 272.062,-628.141 287.352,-625.803"/>
<polygon fill="black" stroke="black" points="142,-816.531 143.08,-827.071 148.809,-818.158 142,-816.531"/>
</g>
<!-- Node0&#45;&gt;Node20 -->
<g id="edge20" class="edge"><title>Node0&#45;&gt;Node20</title>
<path fill="none" stroke="black" d="M143.915,-817.316C151.549,-772.794 176.289,-663.678 242,-605 248.182,-599.48 255.559,-595.178 263.313,-591.826"/>
<polygon fill="black" stroke="black" points="140.425,-816.97 142.294,-827.398 147.337,-818.081 140.425,-816.97"/>
</g>
<!-- Node0&#45;&gt;Node33 -->
<g id="edge33" class="edge"><title>Node0&#45;&gt;Node33</title>
<path fill="none" stroke="black" d="M141.882,-817.38C145.297,-765.972 161.874,-626.412 242,-555 246.23,-551.23 251.063,-548.168 256.216,-545.685"/>
<polygon fill="black" stroke="black" points="138.382,-817.281 141.311,-827.463 145.37,-817.677 138.382,-817.281"/>
</g>
<!-- Node0&#45;&gt;Node30 -->
<g id="edge30" class="edge"><title>Node0&#45;&gt;Node30</title>
<path fill="none" stroke="black" d="M140.928,-817.069C141.867,-760.857 152.614,-599.781 242,-517 246.157,-513.15 250.939,-510.032 256.059,-507.512"/>
<polygon fill="black" stroke="black" points="137.426,-817.381 140.852,-827.406 144.426,-817.432 137.426,-817.381"/>
</g>
<!-- Node0&#45;&gt;Node17 -->
<g id="edge17" class="edge"><title>Node0&#45;&gt;Node17</title>
<path fill="none" stroke="black" d="M140.439,-817.082C139.873,-757.151 146.563,-576.624 242,-479 246.863,-474.026 252.687,-470.036 258.956,-466.836"/>
<polygon fill="black" stroke="black" points="136.945,-817.465 140.624,-827.4 143.944,-817.339 136.945,-817.465"/>
</g>
<!-- Node0&#45;&gt;Node31 -->
<g id="edge31" class="edge"><title>Node0&#45;&gt;Node31</title>
<path fill="none" stroke="black" d="M143.179,-817.204C151.705,-743.321 185.169,-485.061 242,-429 245.827,-425.225 250.25,-422.144 255.017,-419.636"/>
<polygon fill="black" stroke="black" points="139.669,-817.09 142.025,-827.42 146.625,-817.876 139.669,-817.09"/>
</g>
<!-- Node0&#45;&gt;Node19 -->
<g id="edge19" class="edge"><title>Node0&#45;&gt;Node19</title>
<path fill="none" stroke="black" d="M142.886,-817.029C150.647,-738.894 182.552,-455.079 242,-391 249.348,-383.08 259.133,-377.643 269.366,-373.919"/>
<polygon fill="black" stroke="black" points="139.364,-817.087 141.881,-827.378 146.331,-817.763 139.364,-817.087"/>
</g>
<!-- Node0&#45;&gt;Node4 -->
<g id="edge4" class="edge"><title>Node0&#45;&gt;Node4</title>
<path fill="none" stroke="black" d="M142.232,-817.38C147.86,-734.123 173.84,-411.107 242,-341 245.646,-337.25 249.878,-334.179 254.46,-331.67"/>
<polygon fill="black" stroke="black" points="138.732,-817.279 141.571,-827.486 145.717,-817.736 138.732,-817.279"/>
</g>
<!-- Node0&#45;&gt;Node24 -->
<g id="edge24" class="edge"><title>Node0&#45;&gt;Node24</title>
<path fill="none" stroke="black" d="M142.073,-817.126C147.17,-729.866 171.693,-381.555 242,-303 246.343,-298.148 251.6,-294.225 257.33,-291.055"/>
<polygon fill="black" stroke="black" points="138.57,-817.071 141.501,-827.252 145.559,-817.465 138.57,-817.071"/>
</g>
<!-- Node0&#45;&gt;Node35 -->
<g id="edge35" class="edge"><title>Node0&#45;&gt;Node35</title>
<path fill="none" stroke="black" d="M141.703,-817.04C145.35,-724.652 165.034,-339.38 242,-253 247.397,-246.943 254.237,-242.381 261.65,-238.951"/>
<polygon fill="black" stroke="black" points="138.197,-817.116 141.319,-827.24 145.192,-817.379 138.197,-817.116"/>
</g>
<!-- Node0&#45;&gt;Node26 -->
<g id="edge26" class="edge"><title>Node0&#45;&gt;Node26</title>
<path fill="none" stroke="black" d="M141.405,-817.236C143.781,-720.587 158.845,-298.558 242,-204 249.013,-196.025 258.528,-190.638 268.583,-187.013"/>
<polygon fill="black" stroke="black" points="137.903,-817.289 141.175,-827.366 144.901,-817.448 137.903,-817.289"/>
</g>
<!-- Node0&#45;&gt;Node7 -->
<g id="edge7" class="edge"><title>Node0&#45;&gt;Node7</title>
<path fill="none" stroke="black" d="M141.049,-816.901C141.716,-714.854 149.858,-255.026 242,-155 245.445,-151.26 249.472,-148.187 253.856,-145.67"/>
<polygon fill="black" stroke="black" points="137.548,-817.048 141.001,-827.065 144.548,-817.081 137.548,-817.048"/>
</g>
<!-- Node0&#45;&gt;Node10 -->
<g id="edge10" class="edge"><title>Node0&#45;&gt;Node10</title>
<path fill="none" stroke="black" d="M140.876,-816.793C140.649,-711.152 144.933,-223.186 242,-117 248.078,-110.351 255.992,-105.809 264.496,-102.742"/>
<polygon fill="black" stroke="black" points="137.377,-817.035 140.916,-827.021 144.377,-817.008 137.377,-817.035"/>
</g>
<!-- Node0&#45;&gt;Node21 -->
<g id="edge21" class="edge"><title>Node0&#45;&gt;Node21</title>
<path fill="none" stroke="black" d="M140.854,-817.226C140.458,-709.599 143.784,-194.942 242,-79 245.253,-75.1604 249.079,-71.8998 253.269,-69.132"/>
<polygon fill="black" stroke="black" points="137.355,-817.35 140.908,-827.331 144.355,-817.312 137.355,-817.35"/>
</g>
<!-- Node0&#45;&gt;Node9 -->
<g id="edge9" class="edge"><title>Node0&#45;&gt;Node9</title>
<path fill="none" stroke="black" d="M142.133,-817.21C149.075,-699.038 187.357,-89.6847 242,-29 245.792,-24.7893 250.319,-21.4205 255.271,-18.735"/>
<polygon fill="black" stroke="black" points="138.631,-817.156 141.545,-827.343 145.619,-817.562 138.631,-817.156"/>
</g>
</g>
</svg>
        <g id="navigator" transform="translate(0 0)" fill="#404254">
                <rect fill="#f2f5e9" fill-opacity="0.5" stroke="#606060" stroke-width=".5" x="0" y="0" width="60" height="60"/>
                <use id="zoomplus" xlink:href="#zoomPlus" x="17" y="9" onmousedown="handleZoom(evt,'in')"/>
                <use id="zoomminus" xlink:href="#zoomMin" x="42" y="9" onmousedown="handleZoom(evt,'out')"/>
                <use id="reset" xlink:href="#resetDef" x="30" y="36" onmousedown="handleReset()"/>
                <g id="arrowUp" xlink:href="#dirArrow" transform="translate(30 24)" onmousedown="handlePan(0,-1)">
                  <use xlink:href="#rim" fill="#404040">
                        <set attributeName="fill" to="#808080" begin="arrowUp.mouseover" end="arrowUp.mouseout"/>
                  </use>
                  <path fill="none" stroke="white" stroke-width="1.5" d="M0,-3.0v7 M-2.5,-0.5L0,-3.0L2.5,-0.5"/>
                </g>
                <g id="arrowRight" xlink:href="#dirArrow" transform="rotate(90) translate(36 -43)" onmousedown="handlePan(1,0)">
                  <use xlink:href="#rim" fill="#404040">
                        <set attributeName="fill" to="#808080" begin="arrowRight.mouseover" end="arrowRight.mouseout"/>
                  </use>
                  <path fill="none" stroke="white" stroke-width="1.5" d="M0,-3.0v7 M-2.5,-0.5L0,-3.0L2.5,-0.5"/>
                </g>
                <g id="arrowDown" xlink:href="#dirArrow" transform="rotate(180) translate(-30 -48)" onmousedown="handlePan(0,1)">
                  <use xlink:href="#rim" fill="#404040">
                        <set attributeName="fill" to="#808080" begin="arrowDown.mouseover" end="arrowDown.mouseout"/>
                  </use>
                  <path fill="none" stroke="white" stroke-width="1.5" d="M0,-3.0v7 M-2.5,-0.5L0,-3.0L2.5,-0.5"/>
                </g>
                <g id="arrowLeft" xlink:href="#dirArrow" transform="rotate(270) translate(-36 17)" onmousedown="handlePan(-1,0)">
                  <use xlink:href="#rim" fill="#404040">
                        <set attributeName="fill" to="#808080" begin="arrowLeft.mouseover" end="arrowLeft.mouseout"/>
                  </use>
                  <path fill="none" stroke="white" stroke-width="1.5" d="M0,-3.0v7 M-2.5,-0.5L0,-3.0L2.5,-0.5"/>
                </g>
        </g>
        <svg viewBox="0 0 15 15" width="100%" height="30px" preserveAspectRatio="xMaxYMin meet">
         <g id="arrow_out" transform="scale(0.3 0.3)">
          <a xlink:href="a00393_org.svg" target="_base">
           <rect id="button" ry="5" rx="5" y="6" x="6" height="38" width="38"
                fill="#f2f5e9" fill-opacity="0.5" stroke="#606060" stroke-width="1.0"/>
           <path id="arrow"
             d="M 11.500037,31.436501 C 11.940474,20.09759 22.043105,11.32322 32.158766,21.979434 L 37.068811,17.246167 C 37.068811,17.246167 37.088388,32 37.088388,32 L 22.160133,31.978069 C 22.160133,31.978069 26.997745,27.140456 26.997745,27.140456 C 18.528582,18.264221 13.291696,25.230495 11.500037,31.436501 z"
             style="fill:#404040;"/>
          </a>
         </g>
        </svg>
</svg>
