<?xml version="1.0" encoding="UTF-8" standalone="no"?>
<!DOCTYPE svg PUBLIC "-//W3C//DTD SVG 1.1//EN"
 "http://www.w3.org/Graphics/SVG/1.1/DTD/svg11.dtd">
<!-- Generated by graphviz version 2.38.0 (20140413.2041)
 -->
<!-- Title: PWR_Exported_Constants Pages: 1 -->
<svg width="393pt" height="253pt"
 viewBox="0.00 0.00 393.00 252.50" xmlns="http://www.w3.org/2000/svg" xmlns:xlink="http://www.w3.org/1999/xlink">
<g id="graph0" class="graph" transform="scale(1 1) rotate(0) translate(4 248.5)">
<title>PWR_Exported_Constants</title>
<polygon fill="white" stroke="none" points="-4,4 -4,-248.5 389,-248.5 389,4 -4,4"/>
<!-- Node7 -->
<g id="node1" class="node"><title>Node7</title>
<g id="a_node1"><a xlink:href="a00372.html" target="_top" xlink:title="PWR_Flag">
<polygon fill="white" stroke="black" points="284,-225 284,-244 349,-244 349,-225 284,-225"/>
<text text-anchor="middle" x="316.5" y="-232" font-family="Helvetica,sans-Serif" font-size="10.00">PWR_Flag</text>
</a>
</g>
</g>
<!-- Node4 -->
<g id="node2" class="node"><title>Node4</title>
<g id="a_node2"><a xlink:href="a00369.html" target="_top" xlink:title="PWR_Regulator_state\l_in_UnderDrive_mode">
<polygon fill="white" stroke="black" points="259,-175.5 259,-205.5 374,-205.5 374,-175.5 259,-175.5"/>
<text text-anchor="start" x="267" y="-193.5" font-family="Helvetica,sans-Serif" font-size="10.00">PWR_Regulator_state</text>
<text text-anchor="middle" x="316.5" y="-182.5" font-family="Helvetica,sans-Serif" font-size="10.00">_in_UnderDrive_mode</text>
</a>
</g>
</g>
<!-- Node2 -->
<g id="node3" class="node"><title>Node2</title>
<g id="a_node3"><a xlink:href="a00367.html" target="_top" xlink:title="PWR_PVD_detection_level">
<polygon fill="white" stroke="black" points="248,-137 248,-156 385,-156 385,-137 248,-137"/>
<text text-anchor="middle" x="316.5" y="-144" font-family="Helvetica,sans-Serif" font-size="10.00">PWR_PVD_detection_level</text>
</a>
</g>
</g>
<!-- Node5 -->
<g id="node4" class="node"><title>Node5</title>
<g id="a_node4"><a xlink:href="a00370.html" target="_top" xlink:title="PWR_STOP_mode_entry">
<polygon fill="white" stroke="black" points="252,-99 252,-118 381,-118 381,-99 252,-99"/>
<text text-anchor="middle" x="316.5" y="-106" font-family="Helvetica,sans-Serif" font-size="10.00">PWR_STOP_mode_entry</text>
</a>
</g>
</g>
<!-- Node3 -->
<g id="node5" class="node"><title>Node3</title>
<g id="a_node5"><a xlink:href="a00368.html" target="_top" xlink:title="PWR_Regulator_state\l_in_STOP_mode">
<polygon fill="white" stroke="black" points="259,-49.5 259,-79.5 374,-79.5 374,-49.5 259,-49.5"/>
<text text-anchor="start" x="267" y="-67.5" font-family="Helvetica,sans-Serif" font-size="10.00">PWR_Regulator_state</text>
<text text-anchor="middle" x="316.5" y="-56.5" font-family="Helvetica,sans-Serif" font-size="10.00">_in_STOP_mode</text>
</a>
</g>
</g>
<!-- Node0 -->
<g id="node6" class="node"><title>Node0</title>
<polygon fill="#bfbfbf" stroke="black" points="77,-118 77,-137 212,-137 212,-118 77,-118"/>
<text text-anchor="middle" x="144.5" y="-125" font-family="Helvetica,sans-Serif" font-size="10.00">PWR_Exported_Constants</text>
</g>
<!-- Node0&#45;&gt;Node7 -->
<g id="edge7" class="edge"><title>Node0&#45;&gt;Node7</title>
<path fill="none" stroke="black" d="M160.946,-144.684C179.683,-164.521 213.114,-196.807 248,-215.5 259.053,-221.422 272.138,-225.655 283.832,-228.599"/>
<polygon fill="black" stroke="black" points="163.436,-142.221 154.073,-137.262 158.3,-146.978 163.436,-142.221"/>
</g>
<!-- Node0&#45;&gt;Node4 -->
<g id="edge4" class="edge"><title>Node0&#45;&gt;Node4</title>
<path fill="none" stroke="black" d="M180.72,-140.56C200.494,-147.892 225.621,-157.207 248,-165.5 256.671,-168.713 265.97,-172.158 274.808,-175.431"/>
<polygon fill="black" stroke="black" points="181.788,-137.223 171.195,-137.028 179.354,-143.787 181.788,-137.223"/>
</g>
<!-- Node0&#45;&gt;Node2 -->
<g id="edge2" class="edge"><title>Node0&#45;&gt;Node2</title>
<path fill="none" stroke="black" d="M222.184,-136.071C230.752,-137.028 239.432,-137.998 247.875,-138.942"/>
<polygon fill="black" stroke="black" points="222.527,-132.587 212.201,-134.955 221.75,-139.544 222.527,-132.587"/>
</g>
<!-- Node0&#45;&gt;Node5 -->
<g id="edge5" class="edge"><title>Node0&#45;&gt;Node5</title>
<path fill="none" stroke="black" d="M222.371,-118.909C232.202,-117.81 242.18,-116.695 251.771,-115.623"/>
<polygon fill="black" stroke="black" points="221.75,-115.456 212.201,-120.045 222.527,-122.413 221.75,-115.456"/>
</g>
<!-- Node0&#45;&gt;Node3 -->
<g id="edge3" class="edge"><title>Node0&#45;&gt;Node3</title>
<path fill="none" stroke="black" d="M180.72,-114.44C200.494,-107.108 225.621,-97.7927 248,-89.5 256.671,-86.2868 265.97,-82.8423 274.808,-79.5687"/>
<polygon fill="black" stroke="black" points="179.354,-111.213 171.195,-117.972 181.788,-117.777 179.354,-111.213"/>
</g>
<!-- Node6 -->
<g id="node8" class="node"><title>Node6</title>
<g id="a_node8"><a xlink:href="a00371.html" target="_top" xlink:title="PWR_Regulator_Voltage\l_Scale">
<polygon fill="white" stroke="black" points="253.5,-0.5 253.5,-30.5 379.5,-30.5 379.5,-0.5 253.5,-0.5"/>
<text text-anchor="start" x="261.5" y="-18.5" font-family="Helvetica,sans-Serif" font-size="10.00">PWR_Regulator_Voltage</text>
<text text-anchor="middle" x="316.5" y="-7.5" font-family="Helvetica,sans-Serif" font-size="10.00">_Scale</text>
</a>
</g>
</g>
<!-- Node0&#45;&gt;Node6 -->
<g id="edge6" class="edge"><title>Node0&#45;&gt;Node6</title>
<path fill="none" stroke="black" d="M161.172,-110.721C180.124,-91.2715 213.762,-59.355 248,-39.5 253.702,-36.1931 259.937,-33.2268 266.239,-30.6018"/>
<polygon fill="black" stroke="black" points="158.602,-108.344 154.212,-117.986 163.657,-113.186 158.602,-108.344"/>
</g>
<!-- Node1 -->
<g id="node7" class="node"><title>Node1</title>
<g id="a_node7"><a xlink:href="a00630.html" target="_top" xlink:title="PWR driver modules. ">
<polygon fill="white" stroke="black" points="0,-118 0,-137 41,-137 41,-118 0,-118"/>
<text text-anchor="middle" x="20.5" y="-125" font-family="Helvetica,sans-Serif" font-size="10.00">PWR</text>
</a>
</g>
</g>
<!-- Node1&#45;&gt;Node0 -->
<g id="edge1" class="edge"><title>Node1&#45;&gt;Node0</title>
<path fill="none" stroke="black" d="M51.1907,-127.5C59.08,-127.5 67.9278,-127.5 76.9389,-127.5"/>
<polygon fill="black" stroke="black" points="51.1014,-124 41.1014,-127.5 51.1014,-131 51.1014,-124"/>
</g>
</g>
</svg>
