<?xml version="1.0" encoding="UTF-8" standalone="no"?>
<!DOCTYPE svg PUBLIC "-//W3C//DTD SVG 1.1//EN"
 "http://www.w3.org/Graphics/SVG/1.1/DTD/svg11.dtd">
<!-- Generated by graphviz version 2.38.0 (20140413.2041)
 -->
<!-- Title: GPIO_Exported_Constants Pages: 1 -->
<svg width="377pt" height="154pt"
 viewBox="0.00 0.00 377.00 153.50" xmlns="http://www.w3.org/2000/svg" xmlns:xlink="http://www.w3.org/1999/xlink">
<g id="graph0" class="graph" transform="scale(1 1) rotate(0) translate(4 149.5)">
<title>GPIO_Exported_Constants</title>
<polygon fill="white" stroke="none" points="-4,4 -4,-149.5 373,-149.5 373,4 -4,4"/>
<!-- Node0 -->
<g id="node1" class="node"><title>Node0</title>
<polygon fill="#bfbfbf" stroke="black" points="77,-57.5 77,-76.5 213,-76.5 213,-57.5 77,-57.5"/>
<text text-anchor="middle" x="145" y="-64.5" font-family="Helvetica,sans-Serif" font-size="10.00">GPIO_Exported_Constants</text>
</g>
<!-- Node4 -->
<g id="node2" class="node"><title>Node4</title>
<g id="a_node2"><a xlink:href="a00317.html" target="_top" xlink:title="GPIO_Alternat_function\l_selection_define">
<polygon fill="white" stroke="black" points="249,-115 249,-145 369,-145 369,-115 249,-115"/>
<text text-anchor="start" x="257" y="-133" font-family="Helvetica,sans-Serif" font-size="10.00">GPIO_Alternat_function</text>
<text text-anchor="middle" x="309" y="-122" font-family="Helvetica,sans-Serif" font-size="10.00">_selection_define</text>
</a>
</g>
</g>
<!-- Node0&#45;&gt;Node4 -->
<g id="edge4" class="edge"><title>Node0&#45;&gt;Node4</title>
<path fill="none" stroke="black" d="M180.071,-80.2498C206.137,-90.3867 242.102,-104.373 269.261,-114.935"/>
<polygon fill="black" stroke="black" points="181.193,-76.9309 170.604,-76.5683 178.656,-83.4549 181.193,-76.9309"/>
</g>
<!-- Node3 -->
<g id="node3" class="node"><title>Node3</title>
<g id="a_node3"><a xlink:href="a00316.html" target="_top" xlink:title="GPIO_Pin_sources">
<polygon fill="white" stroke="black" points="258.5,-76.5 258.5,-95.5 359.5,-95.5 359.5,-76.5 258.5,-76.5"/>
<text text-anchor="middle" x="309" y="-83.5" font-family="Helvetica,sans-Serif" font-size="10.00">GPIO_Pin_sources</text>
</a>
</g>
</g>
<!-- Node0&#45;&gt;Node3 -->
<g id="edge3" class="edge"><title>Node0&#45;&gt;Node3</title>
<path fill="none" stroke="black" d="M223.293,-76.0652C235.253,-77.4679 247.321,-78.8833 258.451,-80.1887"/>
<polygon fill="black" stroke="black" points="223.635,-72.5814 213.295,-74.8926 222.819,-79.5338 223.635,-72.5814"/>
</g>
<!-- Node5 -->
<g id="node4" class="node"><title>Node5</title>
<g id="a_node4"><a xlink:href="a00318.html" target="_top" xlink:title="GPIO_Legacy">
<polygon fill="white" stroke="black" points="270,-38.5 270,-57.5 348,-57.5 348,-38.5 270,-38.5"/>
<text text-anchor="middle" x="309" y="-45.5" font-family="Helvetica,sans-Serif" font-size="10.00">GPIO_Legacy</text>
</a>
</g>
</g>
<!-- Node0&#45;&gt;Node5 -->
<g id="edge5" class="edge"><title>Node0&#45;&gt;Node5</title>
<path fill="none" stroke="black" d="M223.318,-57.9319C239.493,-56.0348 255.864,-54.1148 269.844,-52.4751"/>
<polygon fill="black" stroke="black" points="222.819,-54.4662 213.295,-59.1074 223.635,-61.4186 222.819,-54.4662"/>
</g>
<!-- Node2 -->
<g id="node5" class="node"><title>Node2</title>
<g id="a_node5"><a xlink:href="a00315.html" target="_top" xlink:title="GPIO_pins_define">
<polygon fill="white" stroke="black" points="261,-0.5 261,-19.5 357,-19.5 357,-0.5 261,-0.5"/>
<text text-anchor="middle" x="309" y="-7.5" font-family="Helvetica,sans-Serif" font-size="10.00">GPIO_pins_define</text>
</a>
</g>
</g>
<!-- Node0&#45;&gt;Node2 -->
<g id="edge2" class="edge"><title>Node0&#45;&gt;Node2</title>
<path fill="none" stroke="black" d="M180.455,-53.8781C200.405,-46.3838 226.036,-36.9299 249,-29 258.256,-25.8037 268.387,-22.479 277.601,-19.521"/>
<polygon fill="black" stroke="black" points="178.993,-50.6889 170.871,-57.492 181.463,-57.2387 178.993,-50.6889"/>
</g>
<!-- Node1 -->
<g id="node6" class="node"><title>Node1</title>
<g id="a_node6"><a xlink:href="a00013.html" target="_top" xlink:title="GPIO driver modules. ">
<polygon fill="white" stroke="black" points="0,-57.5 0,-76.5 41,-76.5 41,-57.5 0,-57.5"/>
<text text-anchor="middle" x="20.5" y="-64.5" font-family="Helvetica,sans-Serif" font-size="10.00">GPIO</text>
</a>
</g>
</g>
<!-- Node1&#45;&gt;Node0 -->
<g id="edge1" class="edge"><title>Node1&#45;&gt;Node0</title>
<path fill="none" stroke="black" d="M51.2394,-67C59.1016,-67 67.9158,-67 76.8994,-67"/>
<polygon fill="black" stroke="black" points="51.1818,-63.5001 41.1817,-67 51.1817,-70.5001 51.1818,-63.5001"/>
</g>
</g>
</svg>
