<?xml version="1.0" encoding="UTF-8" standalone="no"?>
<!DOCTYPE svg PUBLIC "-//W3C//DTD SVG 1.1//EN"
 "http://www.w3.org/Graphics/SVG/1.1/DTD/svg11.dtd">
<!-- Generated by graphviz version 2.38.0 (20140413.2041)
 -->
<!-- Title: RCC_Exported_Constants Pages: 1 -->
<!--zoomable 748 -->
<svg id="main" version="1.1" xmlns="http://www.w3.org/2000/svg" xmlns:xlink="http://www.w3.org/1999/xlink" xml:space="preserve" onload="init(evt)">
<style type="text/css"><![CDATA[
.edge:hover path { stroke: red; }
.edge:hover polygon { stroke: red; fill: red; }
]]></style>
<script type="text/javascript"><![CDATA[
var edges = document.getElementsByTagName('g');
if (edges && edges.length) {
  for (var i=0;i<edges.length;i++) {
    if (edges[i].id.substr(0,4)=='edge') {
      edges[i].setAttribute('class','edge');
    }
  }
}
]]></script>
        <defs>
                <circle id="rim" cx="0" cy="0" r="7"/>
                <circle id="rim2" cx="0" cy="0" r="3.5"/>
                <g id="zoomPlus">
                        <use xlink:href="#rim" fill="#404040">
                                <set attributeName="fill" to="#808080" begin="zoomplus.mouseover" end="zoomplus.mouseout"/>
                        </use>
                        <path d="M-4,0h8M0,-4v8" fill="none" stroke="white" stroke-width="1.5" pointer-events="none"/>
                </g>
                <g id="zoomMin">
                        <use xlink:href="#rim" fill="#404040">
                                <set attributeName="fill" to="#808080" begin="zoomminus.mouseover" end="zoomminus.mouseout"/>
                        </use>
                        <path d="M-4,0h8" fill="none" stroke="white" stroke-width="1.5" pointer-events="none"/>
                </g>
                <g id="dirArrow">
                        <path fill="none" stroke="white" stroke-width="1.5" d="M0,-3.0v7 M-2.5,-0.5L0,-3.0L2.5,-0.5"/>
                </g>
               <g id="resetDef">
                       <use xlink:href="#rim2" fill="#404040">
                               <set attributeName="fill" to="#808080" begin="reset.mouseover" end="reset.mouseout"/>
                       </use>
               </g>
        </defs>

<script type="text/javascript">
var viewWidth = 417;
var viewHeight = 748;
var sectionId = 'dynsection-0';
</script>
<script xlink:href="svgpan.js"/>
<svg id="graph" class="graph">
<g id="viewport">
<title>RCC_Exported_Constants</title>
<polygon fill="white" stroke="none" points="-4,4 -4,-744 413,-744 413,4 -4,4"/>
<!-- Node10 -->
<g id="node1" class="node"><title>Node10</title>
<g id="a_node1"><a xlink:href="a00382.html" target="_top" xlink:title="RCC_LSE_Configuration">
<polygon fill="white" stroke="black" points="264,-720.5 264,-739.5 390,-739.5 390,-720.5 264,-720.5"/>
<text text-anchor="middle" x="327" y="-727.5" font-family="Helvetica,sans-Serif" font-size="10.00">RCC_LSE_Configuration</text>
</a>
</g>
</g>
<!-- Node13 -->
<g id="node2" class="node"><title>Node13</title>
<g id="a_node2"><a xlink:href="a00385.html" target="_top" xlink:title="RCC_AHB1_Peripherals">
<polygon fill="white" stroke="black" points="264.5,-682.5 264.5,-701.5 389.5,-701.5 389.5,-682.5 264.5,-682.5"/>
<text text-anchor="middle" x="327" y="-689.5" font-family="Helvetica,sans-Serif" font-size="10.00">RCC_AHB1_Peripherals</text>
</a>
</g>
</g>
<!-- Node16 -->
<g id="node3" class="node"><title>Node16</title>
<g id="a_node3"><a xlink:href="a00388.html" target="_top" xlink:title="RCC_APB1_Peripherals">
<polygon fill="white" stroke="black" points="265,-644.5 265,-663.5 389,-663.5 389,-644.5 265,-644.5"/>
<text text-anchor="middle" x="327" y="-651.5" font-family="Helvetica,sans-Serif" font-size="10.00">RCC_APB1_Peripherals</text>
</a>
</g>
</g>
<!-- Node4 -->
<g id="node4" class="node"><title>Node4</title>
<g id="a_node4"><a xlink:href="a00376.html" target="_top" xlink:title="RCC_PLLSAIDivR_Factor">
<polygon fill="white" stroke="black" points="260,-606.5 260,-625.5 394,-625.5 394,-606.5 260,-606.5"/>
<text text-anchor="middle" x="327" y="-613.5" font-family="Helvetica,sans-Serif" font-size="10.00">RCC_PLLSAIDivR_Factor</text>
</a>
</g>
</g>
<!-- Node19 -->
<g id="node5" class="node"><title>Node19</title>
<g id="a_node5"><a xlink:href="a00391.html" target="_top" xlink:title="RCC_MCO2_Clock_Source\l_Prescaler">
<polygon fill="white" stroke="black" points="257,-557 257,-587 397,-587 397,-557 257,-557"/>
<text text-anchor="start" x="265" y="-575" font-family="Helvetica,sans-Serif" font-size="10.00">RCC_MCO2_Clock_Source</text>
<text text-anchor="middle" x="327" y="-564" font-family="Helvetica,sans-Serif" font-size="10.00">_Prescaler</text>
</a>
</g>
</g>
<!-- Node9 -->
<g id="node6" class="node"><title>Node9</title>
<g id="a_node6"><a xlink:href="a00381.html" target="_top" xlink:title="RCC_Interrupt_Source">
<polygon fill="white" stroke="black" points="269,-518.5 269,-537.5 385,-537.5 385,-518.5 269,-518.5"/>
<text text-anchor="middle" x="327" y="-525.5" font-family="Helvetica,sans-Serif" font-size="10.00">RCC_Interrupt_Source</text>
</a>
</g>
</g>
<!-- Node15 -->
<g id="node7" class="node"><title>Node15</title>
<g id="a_node7"><a xlink:href="a00387.html" target="_top" xlink:title="RCC_AHB3_Peripherals">
<polygon fill="white" stroke="black" points="264.5,-480.5 264.5,-499.5 389.5,-499.5 389.5,-480.5 264.5,-480.5"/>
<text text-anchor="middle" x="327" y="-487.5" font-family="Helvetica,sans-Serif" font-size="10.00">RCC_AHB3_Peripherals</text>
</a>
</g>
</g>
<!-- Node12 -->
<g id="node8" class="node"><title>Node12</title>
<g id="a_node8"><a xlink:href="a00384.html" target="_top" xlink:title="RCC_TIM_PRescaler_Selection">
<polygon fill="white" stroke="black" points="248,-442.5 248,-461.5 406,-461.5 406,-442.5 248,-442.5"/>
<text text-anchor="middle" x="327" y="-449.5" font-family="Helvetica,sans-Serif" font-size="10.00">RCC_TIM_PRescaler_Selection</text>
</a>
</g>
</g>
<!-- Node20 -->
<g id="node9" class="node"><title>Node20</title>
<g id="a_node9"><a xlink:href="a00392.html" target="_top" xlink:title="RCC_Flag">
<polygon fill="white" stroke="black" points="295.5,-404.5 295.5,-423.5 358.5,-423.5 358.5,-404.5 295.5,-404.5"/>
<text text-anchor="middle" x="327" y="-411.5" font-family="Helvetica,sans-Serif" font-size="10.00">RCC_Flag</text>
</a>
</g>
</g>
<!-- Node18 -->
<g id="node10" class="node"><title>Node18</title>
<g id="a_node10"><a xlink:href="a00390.html" target="_top" xlink:title="RCC_MCO1_Clock_Source\l_Prescaler">
<polygon fill="white" stroke="black" points="257,-355 257,-385 397,-385 397,-355 257,-355"/>
<text text-anchor="start" x="265" y="-373" font-family="Helvetica,sans-Serif" font-size="10.00">RCC_MCO1_Clock_Source</text>
<text text-anchor="middle" x="327" y="-362" font-family="Helvetica,sans-Serif" font-size="10.00">_Prescaler</text>
</a>
</g>
</g>
<!-- Node11 -->
<g id="node11" class="node"><title>Node11</title>
<g id="a_node11"><a xlink:href="a00383.html" target="_top" xlink:title="RCC_RTC_Clock_Source">
<polygon fill="white" stroke="black" points="261,-316.5 261,-335.5 393,-335.5 393,-316.5 261,-316.5"/>
<text text-anchor="middle" x="327" y="-323.5" font-family="Helvetica,sans-Serif" font-size="10.00">RCC_RTC_Clock_Source</text>
</a>
</g>
</g>
<!-- Node6 -->
<g id="node12" class="node"><title>Node6</title>
<g id="a_node12"><a xlink:href="a00378.html" target="_top" xlink:title="RCC_System_Clock_Source">
<polygon fill="white" stroke="black" points="254.5,-278.5 254.5,-297.5 399.5,-297.5 399.5,-278.5 254.5,-278.5"/>
<text text-anchor="middle" x="327" y="-285.5" font-family="Helvetica,sans-Serif" font-size="10.00">RCC_System_Clock_Source</text>
</a>
</g>
</g>
<!-- Node2 -->
<g id="node13" class="node"><title>Node2</title>
<g id="a_node13"><a xlink:href="a00374.html" target="_top" xlink:title="RCC_HSE_configuration">
<polygon fill="white" stroke="black" points="264,-240.5 264,-259.5 390,-259.5 390,-240.5 264,-240.5"/>
<text text-anchor="middle" x="327" y="-247.5" font-family="Helvetica,sans-Serif" font-size="10.00">RCC_HSE_configuration</text>
</a>
</g>
</g>
<!-- Node0 -->
<g id="node14" class="node"><title>Node0</title>
<polygon fill="#bfbfbf" stroke="black" points="75,-360.5 75,-379.5 209,-379.5 209,-360.5 75,-360.5"/>
<text text-anchor="middle" x="142" y="-367.5" font-family="Helvetica,sans-Serif" font-size="10.00">RCC_Exported_Constants</text>
</g>
<!-- Node0&#45;&gt;Node10 -->
<g id="edge10" class="edge"><title>Node0&#45;&gt;Node10</title>
<path fill="none" stroke="black" d="M142.547,-389.672C142.338,-448.028 150.098,-621.65 245,-711 250.363,-716.05 256.805,-719.841 263.681,-722.676"/>
<polygon fill="black" stroke="black" points="146.048,-389.64 142.672,-379.597 139.048,-389.553 146.048,-389.64"/>
</g>
<!-- Node0&#45;&gt;Node13 -->
<g id="edge13" class="edge"><title>Node0&#45;&gt;Node13</title>
<path fill="none" stroke="black" d="M143.415,-389.959C145.675,-444.192 159.707,-595.395 245,-673 250.556,-678.055 257.196,-681.84 264.252,-684.663"/>
<polygon fill="black" stroke="black" points="146.903,-389.537 143.084,-379.654 139.907,-389.761 146.903,-389.537"/>
</g>
<!-- Node0&#45;&gt;Node16 -->
<g id="edge16" class="edge"><title>Node0&#45;&gt;Node16</title>
<path fill="none" stroke="black" d="M144.491,-389.769C149.321,-439.163 168.977,-568.741 245,-635 250.771,-640.03 257.624,-643.792 264.864,-646.594"/>
<polygon fill="black" stroke="black" points="147.973,-389.41 143.613,-379.754 141,-390.022 147.973,-389.41"/>
</g>
<!-- Node0&#45;&gt;Node4 -->
<g id="edge4" class="edge"><title>Node0&#45;&gt;Node4</title>
<path fill="none" stroke="black" d="M145.874,-389.583C153.44,-433.817 178.145,-541.884 245,-597 249.681,-600.859 255.006,-603.963 260.638,-606.456"/>
<polygon fill="black" stroke="black" points="149.306,-388.882 144.271,-379.56 142.394,-389.987 149.306,-388.882"/>
</g>
<!-- Node0&#45;&gt;Node19 -->
<g id="edge19" class="edge"><title>Node0&#45;&gt;Node19</title>
<path fill="none" stroke="black" d="M148.936,-389.619C160.976,-426.094 191.747,-504.489 245,-547 249.831,-550.856 255.257,-554.12 260.952,-556.882"/>
<polygon fill="black" stroke="black" points="152.158,-388.204 145.796,-379.732 145.486,-390.322 152.158,-388.204"/>
</g>
<!-- Node0&#45;&gt;Node9 -->
<g id="edge9" class="edge"><title>Node0&#45;&gt;Node9</title>
<path fill="none" stroke="black" d="M151.486,-389.016C166.049,-419.365 198.763,-478.437 245,-509 252.23,-513.779 260.52,-517.361 268.977,-520.046"/>
<polygon fill="black" stroke="black" points="154.486,-387.167 147.099,-379.573 148.138,-390.117 154.486,-387.167"/>
</g>
<!-- Node0&#45;&gt;Node15 -->
<g id="edge15" class="edge"><title>Node0&#45;&gt;Node15</title>
<path fill="none" stroke="black" d="M155.773,-387.673C173.266,-410.532 206.886,-449.908 245,-471 251.951,-474.847 259.654,-477.917 267.465,-480.368"/>
<polygon fill="black" stroke="black" points="158.475,-385.442 149.686,-379.525 152.867,-389.631 158.475,-385.442"/>
</g>
<!-- Node0&#45;&gt;Node12 -->
<g id="edge12" class="edge"><title>Node0&#45;&gt;Node12</title>
<path fill="none" stroke="black" d="M163.76,-385.627C183.642,-399.893 214.973,-420.593 245,-433 254.211,-436.806 264.341,-439.941 274.226,-442.49"/>
<polygon fill="black" stroke="black" points="165.616,-382.649 155.477,-379.578 161.488,-388.302 165.616,-382.649"/>
</g>
<!-- Node0&#45;&gt;Node20 -->
<g id="edge20" class="edge"><title>Node0&#45;&gt;Node20</title>
<path fill="none" stroke="black" d="M191.891,-382.088C208.714,-386.219 227.675,-390.845 245,-395 261.574,-398.975 280.079,-403.322 295.212,-406.854"/>
<polygon fill="black" stroke="black" points="192.273,-378.577 181.726,-379.588 190.601,-385.375 192.273,-378.577"/>
</g>
<!-- Node0&#45;&gt;Node18 -->
<g id="edge18" class="edge"><title>Node0&#45;&gt;Node18</title>
<path fill="none" stroke="black" d="M219.412,-370C231.859,-370 244.689,-370 256.946,-370"/>
<polygon fill="black" stroke="black" points="219.067,-366.5 209.067,-370 219.067,-373.5 219.067,-366.5"/>
</g>
<!-- Node0&#45;&gt;Node11 -->
<g id="edge11" class="edge"><title>Node0&#45;&gt;Node11</title>
<path fill="none" stroke="black" d="M191.891,-357.912C208.714,-353.781 227.675,-349.155 245,-345 257.922,-341.901 272.018,-338.575 284.774,-335.587"/>
<polygon fill="black" stroke="black" points="190.601,-354.625 181.726,-360.412 192.273,-361.423 190.601,-354.625"/>
</g>
<!-- Node0&#45;&gt;Node6 -->
<g id="edge6" class="edge"><title>Node0&#45;&gt;Node6</title>
<path fill="none" stroke="black" d="M163.76,-354.373C183.642,-340.107 214.973,-319.407 245,-307 254.211,-303.194 264.341,-300.059 274.226,-297.51"/>
<polygon fill="black" stroke="black" points="161.488,-351.698 155.477,-360.422 165.616,-357.351 161.488,-351.698"/>
</g>
<!-- Node0&#45;&gt;Node2 -->
<g id="edge2" class="edge"><title>Node0&#45;&gt;Node2</title>
<path fill="none" stroke="black" d="M155.773,-352.327C173.266,-329.468 206.886,-290.092 245,-269 251.951,-265.153 259.654,-262.083 267.465,-259.632"/>
<polygon fill="black" stroke="black" points="152.867,-350.369 149.686,-360.475 158.475,-354.558 152.867,-350.369"/>
</g>
<!-- Node8 -->
<g id="node15" class="node"><title>Node8</title>
<g id="a_node15"><a xlink:href="a00380.html" target="_top" xlink:title="RCC_APB1_APB2_Clock\l_Source">
<polygon fill="white" stroke="black" points="261.5,-191 261.5,-221 392.5,-221 392.5,-191 261.5,-191"/>
<text text-anchor="start" x="269.5" y="-209" font-family="Helvetica,sans-Serif" font-size="10.00">RCC_APB1_APB2_Clock</text>
<text text-anchor="middle" x="327" y="-198" font-family="Helvetica,sans-Serif" font-size="10.00">_Source</text>
</a>
</g>
</g>
<!-- Node0&#45;&gt;Node8 -->
<g id="edge8" class="edge"><title>Node0&#45;&gt;Node8</title>
<path fill="none" stroke="black" d="M151.952,-350.911C166.969,-320.943 200.062,-262.983 245,-231 250.396,-227.16 256.397,-223.897 262.625,-221.128"/>
<polygon fill="black" stroke="black" points="148.633,-349.732 147.404,-360.256 154.927,-352.796 148.633,-349.732"/>
</g>
<!-- Node5 -->
<g id="node16" class="node"><title>Node5</title>
<g id="a_node16"><a xlink:href="a00377.html" target="_top" xlink:title="RCC_PLL_Clock_Source">
<polygon fill="white" stroke="black" points="263,-152.5 263,-171.5 391,-171.5 391,-152.5 263,-152.5"/>
<text text-anchor="middle" x="327" y="-159.5" font-family="Helvetica,sans-Serif" font-size="10.00">RCC_PLL_Clock_Source</text>
</a>
</g>
</g>
<!-- Node0&#45;&gt;Node5 -->
<g id="edge5" class="edge"><title>Node0&#45;&gt;Node5</title>
<path fill="none" stroke="black" d="M147.815,-350.312C158.368,-311.516 187.325,-225.133 245,-181 250.391,-176.874 256.533,-173.623 262.969,-171.065"/>
<polygon fill="black" stroke="black" points="144.342,-349.765 145.219,-360.323 151.117,-351.522 144.342,-349.765"/>
</g>
<!-- Node14 -->
<g id="node17" class="node"><title>Node14</title>
<g id="a_node17"><a xlink:href="a00386.html" target="_top" xlink:title="RCC_AHB2_Peripherals">
<polygon fill="white" stroke="black" points="264.5,-114.5 264.5,-133.5 389.5,-133.5 389.5,-114.5 264.5,-114.5"/>
<text text-anchor="middle" x="327" y="-121.5" font-family="Helvetica,sans-Serif" font-size="10.00">RCC_AHB2_Peripherals</text>
</a>
</g>
</g>
<!-- Node0&#45;&gt;Node14 -->
<g id="edge14" class="edge"><title>Node0&#45;&gt;Node14</title>
<path fill="none" stroke="black" d="M145.874,-350.417C153.44,-306.183 178.145,-198.116 245,-143 250.684,-138.314 257.318,-134.741 264.298,-132.024"/>
<polygon fill="black" stroke="black" points="142.394,-350.013 144.271,-360.44 149.306,-351.118 142.394,-350.013"/>
</g>
<!-- Node17 -->
<g id="node18" class="node"><title>Node17</title>
<g id="a_node18"><a xlink:href="a00389.html" target="_top" xlink:title="RCC_APB2_Peripherals">
<polygon fill="white" stroke="black" points="265,-76.5 265,-95.5 389,-95.5 389,-76.5 265,-76.5"/>
<text text-anchor="middle" x="327" y="-83.5" font-family="Helvetica,sans-Serif" font-size="10.00">RCC_APB2_Peripherals</text>
</a>
</g>
</g>
<!-- Node0&#45;&gt;Node17 -->
<g id="edge17" class="edge"><title>Node0&#45;&gt;Node17</title>
<path fill="none" stroke="black" d="M144.491,-350.231C149.321,-300.837 168.977,-171.259 245,-105 250.771,-99.9701 257.624,-96.2085 264.864,-93.4056"/>
<polygon fill="black" stroke="black" points="141,-349.978 143.613,-360.246 147.973,-350.59 141,-349.978"/>
</g>
<!-- Node3 -->
<g id="node19" class="node"><title>Node3</title>
<g id="a_node19"><a xlink:href="a00375.html" target="_top" xlink:title="RCC_LSE_Dual_Mode_Selection">
<polygon fill="white" stroke="black" points="245,-38.5 245,-57.5 409,-57.5 409,-38.5 245,-38.5"/>
<text text-anchor="middle" x="327" y="-45.5" font-family="Helvetica,sans-Serif" font-size="10.00">RCC_LSE_Dual_Mode_Selection</text>
</a>
</g>
</g>
<!-- Node0&#45;&gt;Node3 -->
<g id="edge3" class="edge"><title>Node0&#45;&gt;Node3</title>
<path fill="none" stroke="black" d="M143.415,-350.041C145.675,-295.808 159.707,-144.605 245,-67 249.167,-63.2089 253.944,-60.1319 259.048,-57.6395"/>
<polygon fill="black" stroke="black" points="139.907,-350.239 143.084,-360.346 146.903,-350.463 139.907,-350.239"/>
</g>
<!-- Node7 -->
<g id="node21" class="node"><title>Node7</title>
<g id="a_node21"><a xlink:href="a00379.html" target="_top" xlink:title="RCC_AHB_Clock_Source">
<polygon fill="white" stroke="black" points="261,-0.5 261,-19.5 393,-19.5 393,-0.5 261,-0.5"/>
<text text-anchor="middle" x="327" y="-7.5" font-family="Helvetica,sans-Serif" font-size="10.00">RCC_AHB_Clock_Source</text>
</a>
</g>
</g>
<!-- Node0&#45;&gt;Node7 -->
<g id="edge7" class="edge"><title>Node0&#45;&gt;Node7</title>
<path fill="none" stroke="black" d="M142.547,-350.328C142.338,-291.972 150.098,-118.35 245,-29 249.627,-24.6434 255.057,-21.2231 260.876,-18.546"/>
<polygon fill="black" stroke="black" points="139.048,-350.447 142.672,-360.403 146.048,-350.36 139.048,-350.447"/>
</g>
<!-- Node1 -->
<g id="node20" class="node"><title>Node1</title>
<g id="a_node20"><a xlink:href="a00020.html" target="_top" xlink:title="RCC driver modules. ">
<polygon fill="white" stroke="black" points="0,-360.5 0,-379.5 39,-379.5 39,-360.5 0,-360.5"/>
<text text-anchor="middle" x="19.5" y="-367.5" font-family="Helvetica,sans-Serif" font-size="10.00">RCC</text>
</a>
</g>
</g>
<!-- Node1&#45;&gt;Node0 -->
<g id="edge1" class="edge"><title>Node1&#45;&gt;Node0</title>
<path fill="none" stroke="black" d="M49.3285,-370C57.1043,-370 65.8498,-370 74.7718,-370"/>
<polygon fill="black" stroke="black" points="49.0641,-366.5 39.064,-370 49.064,-373.5 49.0641,-366.5"/>
</g>
</g>
</svg>
        <g id="navigator" transform="translate(0 0)" fill="#404254">
                <rect fill="#f2f5e9" fill-opacity="0.5" stroke="#606060" stroke-width=".5" x="0" y="0" width="60" height="60"/>
                <use id="zoomplus" xlink:href="#zoomPlus" x="17" y="9" onmousedown="handleZoom(evt,'in')"/>
                <use id="zoomminus" xlink:href="#zoomMin" x="42" y="9" onmousedown="handleZoom(evt,'out')"/>
                <use id="reset" xlink:href="#resetDef" x="30" y="36" onmousedown="handleReset()"/>
                <g id="arrowUp" xlink:href="#dirArrow" transform="translate(30 24)" onmousedown="handlePan(0,-1)">
                  <use xlink:href="#rim" fill="#404040">
                        <set attributeName="fill" to="#808080" begin="arrowUp.mouseover" end="arrowUp.mouseout"/>
                  </use>
                  <path fill="none" stroke="white" stroke-width="1.5" d="M0,-3.0v7 M-2.5,-0.5L0,-3.0L2.5,-0.5"/>
                </g>
                <g id="arrowRight" xlink:href="#dirArrow" transform="rotate(90) translate(36 -43)" onmousedown="handlePan(1,0)">
                  <use xlink:href="#rim" fill="#404040">
                        <set attributeName="fill" to="#808080" begin="arrowRight.mouseover" end="arrowRight.mouseout"/>
                  </use>
                  <path fill="none" stroke="white" stroke-width="1.5" d="M0,-3.0v7 M-2.5,-0.5L0,-3.0L2.5,-0.5"/>
                </g>
                <g id="arrowDown" xlink:href="#dirArrow" transform="rotate(180) translate(-30 -48)" onmousedown="handlePan(0,1)">
                  <use xlink:href="#rim" fill="#404040">
                        <set attributeName="fill" to="#808080" begin="arrowDown.mouseover" end="arrowDown.mouseout"/>
                  </use>
                  <path fill="none" stroke="white" stroke-width="1.5" d="M0,-3.0v7 M-2.5,-0.5L0,-3.0L2.5,-0.5"/>
                </g>
                <g id="arrowLeft" xlink:href="#dirArrow" transform="rotate(270) translate(-36 17)" onmousedown="handlePan(-1,0)">
                  <use xlink:href="#rim" fill="#404040">
                        <set attributeName="fill" to="#808080" begin="arrowLeft.mouseover" end="arrowLeft.mouseout"/>
                  </use>
                  <path fill="none" stroke="white" stroke-width="1.5" d="M0,-3.0v7 M-2.5,-0.5L0,-3.0L2.5,-0.5"/>
                </g>
        </g>
        <svg viewBox="0 0 15 15" width="100%" height="30px" preserveAspectRatio="xMaxYMin meet">
         <g id="arrow_out" transform="scale(0.3 0.3)">
          <a xlink:href="a00373_org.svg" target="_base">
           <rect id="button" ry="5" rx="5" y="6" x="6" height="38" width="38"
                fill="#f2f5e9" fill-opacity="0.5" stroke="#606060" stroke-width="1.0"/>
           <path id="arrow"
             d="M 11.500037,31.436501 C 11.940474,20.09759 22.043105,11.32322 32.158766,21.979434 L 37.068811,17.246167 C 37.068811,17.246167 37.088388,32 37.088388,32 L 22.160133,31.978069 C 22.160133,31.978069 26.997745,27.140456 26.997745,27.140456 C 18.528582,18.264221 13.291696,25.230495 11.500037,31.436501 z"
             style="fill:#404040;"/>
          </a>
         </g>
        </svg>
</svg>
