<?xml version="1.0" encoding="UTF-8" standalone="no"?>
<!DOCTYPE svg PUBLIC "-//W3C//DTD SVG 1.1//EN"
 "http://www.w3.org/Graphics/SVG/1.1/DTD/svg11.dtd">
<!-- Generated by graphviz version 2.38.0 (20140413.2041)
 -->
<!-- Title: Matrix Functions Pages: 1 -->
<svg width="279pt" height="294pt"
 viewBox="0.00 0.00 279.00 294.00" xmlns="http://www.w3.org/2000/svg" xmlns:xlink="http://www.w3.org/1999/xlink">
<g id="graph0" class="graph" transform="scale(1 1) rotate(0) translate(4 290)">
<title>Matrix Functions</title>
<polygon fill="white" stroke="none" points="-4,4 -4,-290 275,-290 275,4 -4,4"/>
<!-- Node7 -->
<g id="node1" class="node"><title>Node7</title>
<g id="a_node1"><a xlink:href="a00572.html" target="_top" xlink:title="Matrix Subtraction">
<polygon fill="white" stroke="black" points="150,-266.5 150,-285.5 246,-285.5 246,-266.5 150,-266.5"/>
<text text-anchor="middle" x="198" y="-273.5" font-family="Helvetica,sans-Serif" font-size="10.00">Matrix Subtraction</text>
</a>
</g>
</g>
<!-- Node2 -->
<g id="node2" class="node"><title>Node2</title>
<g id="a_node2"><a xlink:href="a00567.html" target="_top" xlink:title="Complex Matrix Multiplication">
<polygon fill="white" stroke="black" points="125,-228.5 125,-247.5 271,-247.5 271,-228.5 125,-228.5"/>
<text text-anchor="middle" x="198" y="-235.5" font-family="Helvetica,sans-Serif" font-size="10.00">Complex Matrix Multiplication</text>
</a>
</g>
</g>
<!-- Node5 -->
<g id="node3" class="node"><title>Node5</title>
<g id="a_node3"><a xlink:href="a00570.html" target="_top" xlink:title="Matrix Multiplication">
<polygon fill="white" stroke="black" points="146,-190.5 146,-209.5 250,-209.5 250,-190.5 146,-190.5"/>
<text text-anchor="middle" x="198" y="-197.5" font-family="Helvetica,sans-Serif" font-size="10.00">Matrix Multiplication</text>
</a>
</g>
</g>
<!-- Node4 -->
<g id="node4" class="node"><title>Node4</title>
<g id="a_node4"><a xlink:href="a00569.html" target="_top" xlink:title="Matrix Inverse">
<polygon fill="white" stroke="black" points="158.5,-152.5 158.5,-171.5 237.5,-171.5 237.5,-152.5 158.5,-152.5"/>
<text text-anchor="middle" x="198" y="-159.5" font-family="Helvetica,sans-Serif" font-size="10.00">Matrix Inverse</text>
</a>
</g>
</g>
<!-- Node0 -->
<g id="node5" class="node"><title>Node0</title>
<polygon fill="#bfbfbf" stroke="black" points="0,-133.5 0,-152.5 89,-152.5 89,-133.5 0,-133.5"/>
<text text-anchor="middle" x="44.5" y="-140.5" font-family="Helvetica,sans-Serif" font-size="10.00">Matrix Functions</text>
</g>
<!-- Node0&#45;&gt;Node7 -->
<g id="edge7" class="edge"><title>Node0&#45;&gt;Node7</title>
<path fill="none" stroke="black" d="M53.6068,-162.027C65.4838,-187.578 90.0596,-232.583 125,-257 132.418,-262.184 141.162,-265.953 149.953,-268.694"/>
<polygon fill="black" stroke="black" points="56.7039,-160.379 49.4269,-152.678 50.3136,-163.236 56.7039,-160.379"/>
</g>
<!-- Node0&#45;&gt;Node2 -->
<g id="edge2" class="edge"><title>Node0&#45;&gt;Node2</title>
<path fill="none" stroke="black" d="M59.3831,-160.719C73.9245,-178.087 98.328,-204.065 125,-219 131.881,-222.853 139.57,-225.948 147.293,-228.429"/>
<polygon fill="black" stroke="black" points="61.7436,-158.075 52.7181,-152.526 56.3134,-162.492 61.7436,-158.075"/>
</g>
<!-- Node0&#45;&gt;Node5 -->
<g id="edge5" class="edge"><title>Node0&#45;&gt;Node5</title>
<path fill="none" stroke="black" d="M72.362,-157.396C87.5175,-165.119 106.977,-174.381 125,-181 134.708,-184.565 145.38,-187.758 155.465,-190.462"/>
<polygon fill="black" stroke="black" points="73.5715,-154.08 63.0826,-152.586 70.3503,-160.295 73.5715,-154.08"/>
</g>
<!-- Node0&#45;&gt;Node4 -->
<g id="edge4" class="edge"><title>Node0&#45;&gt;Node4</title>
<path fill="none" stroke="black" d="M99.3049,-149.748C118.829,-152.196 140.481,-154.912 158.43,-157.163"/>
<polygon fill="black" stroke="black" points="99.6779,-146.267 89.3201,-148.496 98.8068,-153.213 99.6779,-146.267"/>
</g>
<!-- Node6 -->
<g id="node6" class="node"><title>Node6</title>
<g id="a_node6"><a xlink:href="a00571.html" target="_top" xlink:title="Matrix Scale">
<polygon fill="white" stroke="black" points="162.5,-114.5 162.5,-133.5 233.5,-133.5 233.5,-114.5 162.5,-114.5"/>
<text text-anchor="middle" x="198" y="-121.5" font-family="Helvetica,sans-Serif" font-size="10.00">Matrix Scale</text>
</a>
</g>
</g>
<!-- Node0&#45;&gt;Node6 -->
<g id="edge6" class="edge"><title>Node0&#45;&gt;Node6</title>
<path fill="none" stroke="black" d="M99.3866,-136.242C120.357,-133.612 143.772,-130.675 162.412,-128.338"/>
<polygon fill="black" stroke="black" points="98.8068,-132.787 89.3201,-137.504 99.6779,-139.733 98.8068,-132.787"/>
</g>
<!-- Node1 -->
<g id="node7" class="node"><title>Node1</title>
<g id="a_node7"><a xlink:href="a00566.html" target="_top" xlink:title="Matrix Addition">
<polygon fill="white" stroke="black" points="157,-76.5 157,-95.5 239,-95.5 239,-76.5 157,-76.5"/>
<text text-anchor="middle" x="198" y="-83.5" font-family="Helvetica,sans-Serif" font-size="10.00">Matrix Addition</text>
</a>
</g>
</g>
<!-- Node0&#45;&gt;Node1 -->
<g id="edge1" class="edge"><title>Node0&#45;&gt;Node1</title>
<path fill="none" stroke="black" d="M72.362,-128.604C87.5175,-120.881 106.977,-111.619 125,-105 135.194,-101.256 146.45,-97.924 156.974,-95.1359"/>
<polygon fill="black" stroke="black" points="70.3503,-125.705 63.0826,-133.414 73.5715,-131.92 70.3503,-125.705"/>
</g>
<!-- Node8 -->
<g id="node8" class="node"><title>Node8</title>
<g id="a_node8"><a xlink:href="a00573.html" target="_top" xlink:title="Matrix Transpose">
<polygon fill="white" stroke="black" points="152,-38.5 152,-57.5 244,-57.5 244,-38.5 152,-38.5"/>
<text text-anchor="middle" x="198" y="-45.5" font-family="Helvetica,sans-Serif" font-size="10.00">Matrix Transpose</text>
</a>
</g>
</g>
<!-- Node0&#45;&gt;Node8 -->
<g id="edge8" class="edge"><title>Node0&#45;&gt;Node8</title>
<path fill="none" stroke="black" d="M59.3831,-125.281C73.9245,-107.913 98.328,-81.935 125,-67 133.234,-62.3892 142.627,-58.863 151.848,-56.1778"/>
<polygon fill="black" stroke="black" points="56.3134,-123.508 52.7181,-133.474 61.7436,-127.925 56.3134,-123.508"/>
</g>
<!-- Node3 -->
<g id="node9" class="node"><title>Node3</title>
<g id="a_node9"><a xlink:href="a00568.html" target="_top" xlink:title="Matrix Initialization">
<polygon fill="white" stroke="black" points="149,-0.5 149,-19.5 247,-19.5 247,-0.5 149,-0.5"/>
<text text-anchor="middle" x="198" y="-7.5" font-family="Helvetica,sans-Serif" font-size="10.00">Matrix Initialization</text>
</a>
</g>
</g>
<!-- Node0&#45;&gt;Node3 -->
<g id="edge3" class="edge"><title>Node0&#45;&gt;Node3</title>
<path fill="none" stroke="black" d="M53.6068,-123.973C65.4838,-98.4222 90.0596,-53.4165 125,-29 132.1,-24.0385 140.415,-20.3727 148.823,-17.664"/>
<polygon fill="black" stroke="black" points="50.3136,-122.764 49.4269,-133.322 56.7039,-125.621 50.3136,-122.764"/>
</g>
</g>
</svg>
