<?xml version="1.0" encoding="UTF-8" standalone="no"?>
<!DOCTYPE svg PUBLIC "-//W3C//DTD SVG 1.1//EN"
 "http://www.w3.org/Graphics/SVG/1.1/DTD/svg11.dtd">
<!-- Generated by graphviz version 2.38.0 (20140413.2041)
 -->
<!-- Title: Fast Math Functions Pages: 1 -->
<svg width="222pt" height="104pt"
 viewBox="0.00 0.00 222.00 104.00" xmlns="http://www.w3.org/2000/svg" xmlns:xlink="http://www.w3.org/1999/xlink">
<g id="graph0" class="graph" transform="scale(1 1) rotate(0) translate(4 100)">
<title>Fast Math Functions</title>
<polygon fill="white" stroke="none" points="-4,4 -4,-100 218,-100 218,4 -4,4"/>
<!-- Node0 -->
<g id="node1" class="node"><title>Node0</title>
<polygon fill="#bfbfbf" stroke="black" points="0,-38.5 0,-57.5 107,-57.5 107,-38.5 0,-38.5"/>
<text text-anchor="middle" x="53.5" y="-45.5" font-family="Helvetica,sans-Serif" font-size="10.00">Fast Math Functions</text>
</g>
<!-- Node1 -->
<g id="node2" class="node"><title>Node1</title>
<g id="a_node2"><a xlink:href="a00508.html" target="_top" xlink:title="Square Root">
<polygon fill="white" stroke="black" points="143,-76.5 143,-95.5 214,-95.5 214,-76.5 143,-76.5"/>
<text text-anchor="middle" x="178.5" y="-83.5" font-family="Helvetica,sans-Serif" font-size="10.00">Square Root</text>
</a>
</g>
</g>
<!-- Node0&#45;&gt;Node1 -->
<g id="edge1" class="edge"><title>Node0&#45;&gt;Node1</title>
<path fill="none" stroke="black" d="M95.5445,-60.6804C112.164,-65.8148 131.032,-71.6441 146.472,-76.4141"/>
<polygon fill="black" stroke="black" points="96.1257,-57.1968 85.5381,-57.589 94.0594,-63.8849 96.1257,-57.1968"/>
</g>
<!-- Node3 -->
<g id="node3" class="node"><title>Node3</title>
<g id="a_node3"><a xlink:href="a00551.html" target="_top" xlink:title="Sine">
<polygon fill="white" stroke="black" points="160.5,-38.5 160.5,-57.5 196.5,-57.5 196.5,-38.5 160.5,-38.5"/>
<text text-anchor="middle" x="178.5" y="-45.5" font-family="Helvetica,sans-Serif" font-size="10.00">Sine</text>
</a>
</g>
</g>
<!-- Node0&#45;&gt;Node3 -->
<g id="edge3" class="edge"><title>Node0&#45;&gt;Node3</title>
<path fill="none" stroke="black" d="M117.439,-48C133.334,-48 149.101,-48 160.489,-48"/>
<polygon fill="black" stroke="black" points="117.02,-44.5001 107.02,-48 117.02,-51.5001 117.02,-44.5001"/>
</g>
<!-- Node2 -->
<g id="node4" class="node"><title>Node2</title>
<g id="a_node4"><a xlink:href="a00550.html" target="_top" xlink:title="Cosine">
<polygon fill="white" stroke="black" points="155,-0.5 155,-19.5 202,-19.5 202,-0.5 155,-0.5"/>
<text text-anchor="middle" x="178.5" y="-7.5" font-family="Helvetica,sans-Serif" font-size="10.00">Cosine</text>
</a>
</g>
</g>
<!-- Node0&#45;&gt;Node2 -->
<g id="edge2" class="edge"><title>Node0&#45;&gt;Node2</title>
<path fill="none" stroke="black" d="M95.2271,-35.4177C114.982,-29.3146 137.977,-22.2105 154.626,-17.0668"/>
<polygon fill="black" stroke="black" points="94.0594,-32.1151 85.5381,-38.411 96.1257,-38.8032 94.0594,-32.1151"/>
</g>
</g>
</svg>
