<?xml version="1.0" encoding="UTF-8" standalone="no"?>
<!DOCTYPE svg PUBLIC "-//W3C//DTD SVG 1.1//EN"
 "http://www.w3.org/Graphics/SVG/1.1/DTD/svg11.dtd">
<!-- Generated by graphviz version 2.38.0 (20140413.2041)
 -->
<!-- Title: SYSCFG_Exported_Constants Pages: 1 -->
<svg width="440pt" height="165pt"
 viewBox="0.00 0.00 440.00 164.50" xmlns="http://www.w3.org/2000/svg" xmlns:xlink="http://www.w3.org/1999/xlink">
<g id="graph0" class="graph" transform="scale(1 1) rotate(0) translate(4 160.5)">
<title>SYSCFG_Exported_Constants</title>
<polygon fill="white" stroke="none" points="-4,4 -4,-160.5 436,-160.5 436,4 -4,4"/>
<!-- Node2 -->
<g id="node1" class="node"><title>Node2</title>
<g id="a_node1"><a xlink:href="a00477.html" target="_top" xlink:title="SYSCFG_EXTI_Port_Sources">
<polygon fill="white" stroke="black" points="282,-137 282,-156 432,-156 432,-137 282,-137"/>
<text text-anchor="middle" x="357" y="-144" font-family="Helvetica,sans-Serif" font-size="10.00">SYSCFG_EXTI_Port_Sources</text>
</a>
</g>
</g>
<!-- Node3 -->
<g id="node2" class="node"><title>Node3</title>
<g id="a_node2"><a xlink:href="a00478.html" target="_top" xlink:title="SYSCFG_EXTI_Pin_Sources">
<polygon fill="white" stroke="black" points="284,-99 284,-118 430,-118 430,-99 284,-99"/>
<text text-anchor="middle" x="357" y="-106" font-family="Helvetica,sans-Serif" font-size="10.00">SYSCFG_EXTI_Pin_Sources</text>
</a>
</g>
</g>
<!-- Node1 -->
<g id="node3" class="node"><title>Node1</title>
<g id="a_node3"><a xlink:href="a00674.html" target="_top" xlink:title="SYSCFG driver modules. ">
<polygon fill="white" stroke="black" points="0,-77 0,-96 58,-96 58,-77 0,-77"/>
<text text-anchor="middle" x="29" y="-84" font-family="Helvetica,sans-Serif" font-size="10.00">SYSCFG</text>
</a>
</g>
</g>
<!-- Node0 -->
<g id="node6" class="node"><title>Node0</title>
<polygon fill="#bfbfbf" stroke="black" points="94,-77 94,-96 246,-96 246,-77 94,-77"/>
<text text-anchor="middle" x="170" y="-84" font-family="Helvetica,sans-Serif" font-size="10.00">SYSCFG_Exported_Constants</text>
</g>
<!-- Node1&#45;&gt;Node0 -->
<g id="edge1" class="edge"><title>Node1&#45;&gt;Node0</title>
<path fill="none" stroke="black" d="M68.2004,-86.5C76.2055,-86.5 84.9109,-86.5 93.7411,-86.5"/>
<polygon fill="black" stroke="black" points="68.1288,-83.0001 58.1287,-86.5 68.1287,-90.0001 68.1288,-83.0001"/>
</g>
<!-- Node5 -->
<g id="node4" class="node"><title>Node5</title>
<g id="a_node4"><a xlink:href="a00480.html" target="_top" xlink:title="SYSCFG_ETHERNET_Media\l_Interface">
<polygon fill="white" stroke="black" points="282.5,-49.5 282.5,-79.5 431.5,-79.5 431.5,-49.5 282.5,-49.5"/>
<text text-anchor="start" x="290.5" y="-67.5" font-family="Helvetica,sans-Serif" font-size="10.00">SYSCFG_ETHERNET_Media</text>
<text text-anchor="middle" x="357" y="-56.5" font-family="Helvetica,sans-Serif" font-size="10.00">_Interface</text>
</a>
</g>
</g>
<!-- Node4 -->
<g id="node5" class="node"><title>Node4</title>
<g id="a_node5"><a xlink:href="a00479.html" target="_top" xlink:title="SYSCFG_Memory_Remap\l_Config">
<polygon fill="white" stroke="black" points="289.5,-0.5 289.5,-30.5 424.5,-30.5 424.5,-0.5 289.5,-0.5"/>
<text text-anchor="start" x="297.5" y="-18.5" font-family="Helvetica,sans-Serif" font-size="10.00">SYSCFG_Memory_Remap</text>
<text text-anchor="middle" x="357" y="-7.5" font-family="Helvetica,sans-Serif" font-size="10.00">_Config</text>
</a>
</g>
</g>
<!-- Node0&#45;&gt;Node2 -->
<g id="edge2" class="edge"><title>Node0&#45;&gt;Node2</title>
<path fill="none" stroke="black" d="M204.072,-99.7282C225.983,-108.24 255.471,-119.219 282,-127.5 292.889,-130.899 304.813,-134.159 315.848,-136.989"/>
<polygon fill="black" stroke="black" points="205.163,-96.3969 194.576,-96.0093 202.611,-102.915 205.163,-96.3969"/>
</g>
<!-- Node0&#45;&gt;Node3 -->
<g id="edge3" class="edge"><title>Node0&#45;&gt;Node3</title>
<path fill="none" stroke="black" d="M256.205,-96.6324C265.433,-97.7299 274.759,-98.8389 283.812,-99.9155"/>
<polygon fill="black" stroke="black" points="256.59,-93.1537 246.247,-95.4482 255.763,-100.105 256.59,-93.1537"/>
</g>
<!-- Node0&#45;&gt;Node5 -->
<g id="edge5" class="edge"><title>Node0&#45;&gt;Node5</title>
<path fill="none" stroke="black" d="M256.366,-76.3483C265.035,-75.3174 273.788,-74.2765 282.318,-73.2621"/>
<polygon fill="black" stroke="black" points="255.763,-72.8953 246.247,-77.5518 256.59,-79.8463 255.763,-72.8953"/>
</g>
<!-- Node0&#45;&gt;Node4 -->
<g id="edge4" class="edge"><title>Node0&#45;&gt;Node4</title>
<path fill="none" stroke="black" d="M201.282,-72.8361C223.437,-63.0463 254.331,-49.8225 282,-39.5 290.225,-36.4314 299.044,-33.3739 307.625,-30.5196"/>
<polygon fill="black" stroke="black" points="199.775,-69.6757 192.059,-76.9362 202.619,-76.0722 199.775,-69.6757"/>
</g>
</g>
</svg>
