<?xml version="1.0" encoding="UTF-8" standalone="no"?>
<!DOCTYPE svg PUBLIC "-//W3C//DTD SVG 1.1//EN"
 "http://www.w3.org/Graphics/SVG/1.1/DTD/svg11.dtd">
<!-- Generated by graphviz version 2.38.0 (20140413.2041)
 -->
<!-- Title: Basic Math Functions Pages: 1 -->
<svg width="270pt" height="332pt"
 viewBox="0.00 0.00 270.00 332.00" xmlns="http://www.w3.org/2000/svg" xmlns:xlink="http://www.w3.org/1999/xlink">
<g id="graph0" class="graph" transform="scale(1 1) rotate(0) translate(4 328)">
<title>Basic Math Functions</title>
<polygon fill="white" stroke="none" points="-4,4 -4,-328 266,-328 266,4 -4,4"/>
<!-- Node1 -->
<g id="node1" class="node"><title>Node1</title>
<g id="a_node1"><a xlink:href="a00534.html" target="_top" xlink:title="Vector Absolute Value">
<polygon fill="white" stroke="black" points="148,-304.5 148,-323.5 262,-323.5 262,-304.5 148,-304.5"/>
<text text-anchor="middle" x="205" y="-311.5" font-family="Helvetica,sans-Serif" font-size="10.00">Vector Absolute Value</text>
</a>
</g>
</g>
<!-- Node2 -->
<g id="node2" class="node"><title>Node2</title>
<g id="a_node2"><a xlink:href="a00535.html" target="_top" xlink:title="Vector Addition">
<polygon fill="white" stroke="black" points="163.5,-266.5 163.5,-285.5 246.5,-285.5 246.5,-266.5 163.5,-266.5"/>
<text text-anchor="middle" x="205" y="-273.5" font-family="Helvetica,sans-Serif" font-size="10.00">Vector Addition</text>
</a>
</g>
</g>
<!-- Node4 -->
<g id="node3" class="node"><title>Node4</title>
<g id="a_node3"><a xlink:href="a00537.html" target="_top" xlink:title="Vector Multiplication">
<polygon fill="white" stroke="black" points="152.5,-228.5 152.5,-247.5 257.5,-247.5 257.5,-228.5 152.5,-228.5"/>
<text text-anchor="middle" x="205" y="-235.5" font-family="Helvetica,sans-Serif" font-size="10.00">Vector Multiplication</text>
</a>
</g>
</g>
<!-- Node5 -->
<g id="node4" class="node"><title>Node5</title>
<g id="a_node4"><a xlink:href="a00538.html" target="_top" xlink:title="Vector Negate">
<polygon fill="white" stroke="black" points="165,-190.5 165,-209.5 245,-209.5 245,-190.5 165,-190.5"/>
<text text-anchor="middle" x="205" y="-197.5" font-family="Helvetica,sans-Serif" font-size="10.00">Vector Negate</text>
</a>
</g>
</g>
<!-- Node0 -->
<g id="node5" class="node"><title>Node0</title>
<polygon fill="#bfbfbf" stroke="black" points="0,-152.5 0,-171.5 112,-171.5 112,-152.5 0,-152.5"/>
<text text-anchor="middle" x="56" y="-159.5" font-family="Helvetica,sans-Serif" font-size="10.00">Basic Math Functions</text>
</g>
<!-- Node0&#45;&gt;Node1 -->
<g id="edge1" class="edge"><title>Node0&#45;&gt;Node1</title>
<path fill="none" stroke="black" d="M65.1193,-180.927C78.3681,-209.643 107.302,-264.13 148,-295 153.071,-298.847 158.971,-301.945 165,-304.431"/>
<polygon fill="black" stroke="black" points="68.2295,-179.308 60.955,-171.606 61.8382,-182.163 68.2295,-179.308"/>
</g>
<!-- Node0&#45;&gt;Node2 -->
<g id="edge2" class="edge"><title>Node0&#45;&gt;Node2</title>
<path fill="none" stroke="black" d="M69.6447,-179.667C85.6506,-200.838 115.129,-236.07 148,-257 153.975,-260.805 160.798,-263.939 167.577,-266.487"/>
<polygon fill="black" stroke="black" points="72.3961,-177.501 63.6392,-171.537 66.7656,-181.66 72.3961,-177.501"/>
</g>
<!-- Node0&#45;&gt;Node4 -->
<g id="edge4" class="edge"><title>Node0&#45;&gt;Node4</title>
<path fill="none" stroke="black" d="M78.5531,-177.512C96.495,-189.923 123.048,-207.151 148,-219 155.419,-222.523 163.67,-225.7 171.509,-228.402"/>
<polygon fill="black" stroke="black" points="80.2054,-174.396 70.0097,-171.515 76.1837,-180.125 80.2054,-174.396"/>
</g>
<!-- Node0&#45;&gt;Node5 -->
<g id="edge5" class="edge"><title>Node0&#45;&gt;Node5</title>
<path fill="none" stroke="black" d="M103.855,-174.112C124.328,-179.404 147.99,-185.521 167.172,-190.48"/>
<polygon fill="black" stroke="black" points="104.652,-170.703 94.0943,-171.589 102.9,-177.48 104.652,-170.703"/>
</g>
<!-- Node7 -->
<g id="node6" class="node"><title>Node7</title>
<g id="a_node6"><a xlink:href="a00540.html" target="_top" xlink:title="Vector Scale">
<polygon fill="white" stroke="black" points="168.5,-152.5 168.5,-171.5 241.5,-171.5 241.5,-152.5 168.5,-152.5"/>
<text text-anchor="middle" x="205" y="-159.5" font-family="Helvetica,sans-Serif" font-size="10.00">Vector Scale</text>
</a>
</g>
</g>
<!-- Node0&#45;&gt;Node7 -->
<g id="edge7" class="edge"><title>Node0&#45;&gt;Node7</title>
<path fill="none" stroke="black" d="M122.39,-162C138.121,-162 154.354,-162 168.159,-162"/>
<polygon fill="black" stroke="black" points="122.156,-158.5 112.156,-162 122.156,-165.5 122.156,-158.5"/>
</g>
<!-- Node6 -->
<g id="node7" class="node"><title>Node6</title>
<g id="a_node7"><a xlink:href="a00539.html" target="_top" xlink:title="Vector Offset">
<polygon fill="white" stroke="black" points="167.5,-114.5 167.5,-133.5 242.5,-133.5 242.5,-114.5 167.5,-114.5"/>
<text text-anchor="middle" x="205" y="-121.5" font-family="Helvetica,sans-Serif" font-size="10.00">Vector Offset</text>
</a>
</g>
</g>
<!-- Node0&#45;&gt;Node6 -->
<g id="edge6" class="edge"><title>Node0&#45;&gt;Node6</title>
<path fill="none" stroke="black" d="M103.893,-149.878C124.448,-144.565 148.212,-138.421 167.427,-133.454"/>
<polygon fill="black" stroke="black" points="102.9,-146.52 94.0943,-152.411 104.652,-153.297 102.9,-146.52"/>
</g>
<!-- Node3 -->
<g id="node8" class="node"><title>Node3</title>
<g id="a_node8"><a xlink:href="a00536.html" target="_top" xlink:title="Vector Dot Product">
<polygon fill="white" stroke="black" points="154.5,-76.5 154.5,-95.5 255.5,-95.5 255.5,-76.5 154.5,-76.5"/>
<text text-anchor="middle" x="205" y="-83.5" font-family="Helvetica,sans-Serif" font-size="10.00">Vector Dot Product</text>
</a>
</g>
</g>
<!-- Node0&#45;&gt;Node3 -->
<g id="edge3" class="edge"><title>Node0&#45;&gt;Node3</title>
<path fill="none" stroke="black" d="M78.5531,-146.488C96.495,-134.077 123.048,-116.849 148,-105 155.419,-101.477 163.67,-98.3002 171.509,-95.5975"/>
<polygon fill="black" stroke="black" points="76.1837,-143.875 70.0097,-152.485 80.2054,-149.604 76.1837,-143.875"/>
</g>
<!-- Node9 -->
<g id="node9" class="node"><title>Node9</title>
<g id="a_node9"><a xlink:href="a00542.html" target="_top" xlink:title="Vector Subtraction">
<polygon fill="white" stroke="black" points="156,-38.5 156,-57.5 254,-57.5 254,-38.5 156,-38.5"/>
<text text-anchor="middle" x="205" y="-45.5" font-family="Helvetica,sans-Serif" font-size="10.00">Vector Subtraction</text>
</a>
</g>
</g>
<!-- Node0&#45;&gt;Node9 -->
<g id="edge9" class="edge"><title>Node0&#45;&gt;Node9</title>
<path fill="none" stroke="black" d="M69.6447,-144.333C85.6506,-123.162 115.129,-87.9303 148,-67 153.975,-63.1952 160.798,-60.0611 167.577,-57.5126"/>
<polygon fill="black" stroke="black" points="66.7656,-142.34 63.6392,-152.463 72.3961,-146.499 66.7656,-142.34"/>
</g>
<!-- Node8 -->
<g id="node10" class="node"><title>Node8</title>
<g id="a_node10"><a xlink:href="a00541.html" target="_top" xlink:title="Vector Shift">
<polygon fill="white" stroke="black" points="171,-0.5 171,-19.5 239,-19.5 239,-0.5 171,-0.5"/>
<text text-anchor="middle" x="205" y="-7.5" font-family="Helvetica,sans-Serif" font-size="10.00">Vector Shift</text>
</a>
</g>
</g>
<!-- Node0&#45;&gt;Node8 -->
<g id="edge8" class="edge"><title>Node0&#45;&gt;Node8</title>
<path fill="none" stroke="black" d="M65.1193,-143.073C78.3681,-114.357 107.302,-59.8699 148,-29 154.707,-23.9124 162.863,-20.1347 170.852,-17.3496"/>
<polygon fill="black" stroke="black" points="61.8382,-141.837 60.955,-152.394 68.2295,-144.692 61.8382,-141.837"/>
</g>
</g>
</svg>
