<?xml version="1.0" encoding="UTF-8" standalone="no"?>
<!DOCTYPE svg PUBLIC "-//W3C//DTD SVG 1.1//EN"
 "http://www.w3.org/Graphics/SVG/1.1/DTD/svg11.dtd">
<!-- Generated by graphviz version 2.38.0 (20140413.2041)
 -->
<!-- Title: Filtering Functions Pages: 1 -->
<!--zoomable 656 -->
<svg id="main" version="1.1" xmlns="http://www.w3.org/2000/svg" xmlns:xlink="http://www.w3.org/1999/xlink" xml:space="preserve" onload="init(evt)">
<style type="text/css"><![CDATA[
.edge:hover path { stroke: red; }
.edge:hover polygon { stroke: red; fill: red; }
]]></style>
<script type="text/javascript"><![CDATA[
var edges = document.getElementsByTagName('g');
if (edges && edges.length) {
  for (var i=0;i<edges.length;i++) {
    if (edges[i].id.substr(0,4)=='edge') {
      edges[i].setAttribute('class','edge');
    }
  }
}
]]></script>
        <defs>
                <circle id="rim" cx="0" cy="0" r="7"/>
                <circle id="rim2" cx="0" cy="0" r="3.5"/>
                <g id="zoomPlus">
                        <use xlink:href="#rim" fill="#404040">
                                <set attributeName="fill" to="#808080" begin="zoomplus.mouseover" end="zoomplus.mouseout"/>
                        </use>
                        <path d="M-4,0h8M0,-4v8" fill="none" stroke="white" stroke-width="1.5" pointer-events="none"/>
                </g>
                <g id="zoomMin">
                        <use xlink:href="#rim" fill="#404040">
                                <set attributeName="fill" to="#808080" begin="zoomminus.mouseover" end="zoomminus.mouseout"/>
                        </use>
                        <path d="M-4,0h8" fill="none" stroke="white" stroke-width="1.5" pointer-events="none"/>
                </g>
                <g id="dirArrow">
                        <path fill="none" stroke="white" stroke-width="1.5" d="M0,-3.0v7 M-2.5,-0.5L0,-3.0L2.5,-0.5"/>
                </g>
               <g id="resetDef">
                       <use xlink:href="#rim2" fill="#404040">
                               <set attributeName="fill" to="#808080" begin="reset.mouseover" end="reset.mouseout"/>
                       </use>
               </g>
        </defs>

<script type="text/javascript">
var viewWidth = 289;
var viewHeight = 656;
var sectionId = 'dynsection-0';
</script>
<script xlink:href="svgpan.js"/>
<svg id="graph" class="graph">
<g id="viewport">
<title>Filtering Functions</title>
<polygon fill="white" stroke="none" points="-4,4 -4,-651.5 285,-651.5 285,4 -4,4"/>
<!-- Node4 -->
<g id="node1" class="node"><title>Node4</title>
<g id="a_node1"><a xlink:href="a00555.html" target="_top" xlink:title="Convolution">
<polygon fill="white" stroke="black" points="173,-628 173,-647 241,-647 241,-628 173,-628"/>
<text text-anchor="middle" x="207" y="-635" font-family="Helvetica,sans-Serif" font-size="10.00">Convolution</text>
</a>
</g>
</g>
<!-- Node3 -->
<g id="node2" class="node"><title>Node3</title>
<g id="a_node2"><a xlink:href="a00554.html" target="_top" xlink:title="Biquad Cascade IIR\l Filters Using a Direct\l Form II Transposed Structure">
<polygon fill="white" stroke="black" points="133,-568 133,-609 281,-609 281,-568 133,-568"/>
<text text-anchor="start" x="141" y="-597" font-family="Helvetica,sans-Serif" font-size="10.00">Biquad Cascade IIR</text>
<text text-anchor="start" x="141" y="-586" font-family="Helvetica,sans-Serif" font-size="10.00"> Filters Using a Direct</text>
<text text-anchor="middle" x="207" y="-575" font-family="Helvetica,sans-Serif" font-size="10.00"> Form II Transposed Structure</text>
</a>
</g>
</g>
<!-- Node7 -->
<g id="node3" class="node"><title>Node7</title>
<g id="a_node3"><a xlink:href="a00558.html" target="_top" xlink:title="Finite Impulse Response\l (FIR) Decimator">
<polygon fill="white" stroke="black" points="144.5,-519.5 144.5,-549.5 269.5,-549.5 269.5,-519.5 144.5,-519.5"/>
<text text-anchor="start" x="152.5" y="-537.5" font-family="Helvetica,sans-Serif" font-size="10.00">Finite Impulse Response</text>
<text text-anchor="middle" x="207" y="-526.5" font-family="Helvetica,sans-Serif" font-size="10.00"> (FIR) Decimator</text>
</a>
</g>
</g>
<!-- Node6 -->
<g id="node4" class="node"><title>Node6</title>
<g id="a_node4"><a xlink:href="a00557.html" target="_top" xlink:title="Correlation">
<polygon fill="white" stroke="black" points="175,-481 175,-500 239,-500 239,-481 175,-481"/>
<text text-anchor="middle" x="207" y="-488" font-family="Helvetica,sans-Serif" font-size="10.00">Correlation</text>
</a>
</g>
</g>
<!-- Node1 -->
<g id="node5" class="node"><title>Node1</title>
<g id="a_node5"><a xlink:href="a00552.html" target="_top" xlink:title="High Precision Q31\l Biquad Cascade Filter">
<polygon fill="white" stroke="black" points="149,-431.5 149,-461.5 265,-461.5 265,-431.5 149,-431.5"/>
<text text-anchor="start" x="157" y="-449.5" font-family="Helvetica,sans-Serif" font-size="10.00">High Precision Q31</text>
<text text-anchor="middle" x="207" y="-438.5" font-family="Helvetica,sans-Serif" font-size="10.00"> Biquad Cascade Filter</text>
</a>
</g>
</g>
<!-- Node14 -->
<g id="node6" class="node"><title>Node14</title>
<g id="a_node6"><a xlink:href="a00560.html" target="_top" xlink:title="Finite Impulse Response\l (FIR) Interpolator">
<polygon fill="white" stroke="black" points="144.5,-382.5 144.5,-412.5 269.5,-412.5 269.5,-382.5 144.5,-382.5"/>
<text text-anchor="start" x="152.5" y="-400.5" font-family="Helvetica,sans-Serif" font-size="10.00">Finite Impulse Response</text>
<text text-anchor="middle" x="207" y="-389.5" font-family="Helvetica,sans-Serif" font-size="10.00"> (FIR) Interpolator</text>
</a>
</g>
</g>
<!-- Node10 -->
<g id="node7" class="node"><title>Node10</title>
<g id="a_node7"><a xlink:href="a00562.html" target="_top" xlink:title="Finite Impulse Response\l (FIR) Sparse Filters">
<polygon fill="white" stroke="black" points="144.5,-333.5 144.5,-363.5 269.5,-363.5 269.5,-333.5 144.5,-333.5"/>
<text text-anchor="start" x="152.5" y="-351.5" font-family="Helvetica,sans-Serif" font-size="10.00">Finite Impulse Response</text>
<text text-anchor="middle" x="207" y="-340.5" font-family="Helvetica,sans-Serif" font-size="10.00"> (FIR) Sparse Filters</text>
</a>
</g>
</g>
<!-- Node13 -->
<g id="node8" class="node"><title>Node13</title>
<g id="a_node8"><a xlink:href="a00565.html" target="_top" xlink:title="Normalized LMS Filters">
<polygon fill="white" stroke="black" points="147.5,-295 147.5,-314 266.5,-314 266.5,-295 147.5,-295"/>
<text text-anchor="middle" x="207" y="-302" font-family="Helvetica,sans-Serif" font-size="10.00">Normalized LMS Filters</text>
</a>
</g>
</g>
<!-- Node2 -->
<g id="node9" class="node"><title>Node2</title>
<g id="a_node9"><a xlink:href="a00553.html" target="_top" xlink:title="Biquad Cascade IIR\l Filters Using Direct\l Form I Structure">
<polygon fill="white" stroke="black" points="154.5,-235 154.5,-276 259.5,-276 259.5,-235 154.5,-235"/>
<text text-anchor="start" x="162.5" y="-264" font-family="Helvetica,sans-Serif" font-size="10.00">Biquad Cascade IIR</text>
<text text-anchor="start" x="162.5" y="-253" font-family="Helvetica,sans-Serif" font-size="10.00"> Filters Using Direct</text>
<text text-anchor="middle" x="207" y="-242" font-family="Helvetica,sans-Serif" font-size="10.00"> Form I Structure</text>
</a>
</g>
</g>
<!-- Node5 -->
<g id="node10" class="node"><title>Node5</title>
<g id="a_node10"><a xlink:href="a00556.html" target="_top" xlink:title="Partial Convolution">
<polygon fill="white" stroke="black" points="157.5,-197 157.5,-216 256.5,-216 256.5,-197 157.5,-197"/>
<text text-anchor="middle" x="207" y="-204" font-family="Helvetica,sans-Serif" font-size="10.00">Partial Convolution</text>
</a>
</g>
</g>
<!-- Node0 -->
<g id="node11" class="node"><title>Node0</title>
<polygon fill="#bfbfbf" stroke="black" points="0,-317 0,-336 97,-336 97,-317 0,-317"/>
<text text-anchor="middle" x="48.5" y="-324" font-family="Helvetica,sans-Serif" font-size="10.00">Filtering Functions</text>
</g>
<!-- Node0&#45;&gt;Node4 -->
<g id="edge4" class="edge"><title>Node0&#45;&gt;Node4</title>
<path fill="none" stroke="black" d="M48.9197,-346.582C48.549,-399.241 55.1369,-542.476 133,-618.5 143.495,-628.747 158.779,-633.664 172.654,-635.954"/>
<polygon fill="black" stroke="black" points="52.4247,-346.315 49.0954,-336.257 45.4257,-346.195 52.4247,-346.315"/>
</g>
<!-- Node0&#45;&gt;Node3 -->
<g id="edge3" class="edge"><title>Node0&#45;&gt;Node3</title>
<path fill="none" stroke="black" d="M51.1916,-346.449C55.9708,-390.658 73.3859,-497.822 133,-559.5 136.033,-562.638 139.448,-565.444 143.103,-567.953"/>
<polygon fill="black" stroke="black" points="54.6664,-346.02 50.2113,-336.407 47.6995,-346.7 54.6664,-346.02"/>
</g>
<!-- Node0&#45;&gt;Node7 -->
<g id="edge7" class="edge"><title>Node0&#45;&gt;Node7</title>
<path fill="none" stroke="black" d="M53.1049,-346.052C60.9546,-383.183 83.0537,-464.229 133,-509.5 137.268,-513.369 142.162,-516.643 147.351,-519.413"/>
<polygon fill="black" stroke="black" points="56.4946,-345.152 51.1113,-336.027 49.629,-346.517 56.4946,-345.152"/>
</g>
<!-- Node0&#45;&gt;Node6 -->
<g id="edge6" class="edge"><title>Node0&#45;&gt;Node6</title>
<path fill="none" stroke="black" d="M55.1675,-345.715C65.4076,-376.997 90.0199,-438.727 133,-471.5 144.976,-480.632 160.923,-485.393 174.858,-487.868"/>
<polygon fill="black" stroke="black" points="58.4607,-344.519 52.1383,-336.017 51.7791,-346.606 58.4607,-344.519"/>
</g>
<!-- Node0&#45;&gt;Node1 -->
<g id="edge1" class="edge"><title>Node0&#45;&gt;Node1</title>
<path fill="none" stroke="black" d="M60.8828,-344.741C75.2044,-366.264 101.745,-401.741 133,-422.5 138.112,-425.895 143.744,-428.845 149.544,-431.4"/>
<polygon fill="black" stroke="black" points="63.7237,-342.689 55.3518,-336.195 57.8471,-346.492 63.7237,-342.689"/>
</g>
<!-- Node0&#45;&gt;Node14 -->
<g id="edge14" class="edge"><title>Node0&#45;&gt;Node14</title>
<path fill="none" stroke="black" d="M73.3018,-341.547C89.6675,-351.476 112.131,-364.302 133,-373.5 140.203,-376.675 147.963,-379.661 155.641,-382.377"/>
<polygon fill="black" stroke="black" points="74.7792,-338.346 64.4287,-336.084 71.1094,-344.307 74.7792,-338.346"/>
</g>
<!-- Node0&#45;&gt;Node10 -->
<g id="edge10" class="edge"><title>Node0&#45;&gt;Node10</title>
<path fill="none" stroke="black" d="M107.259,-334.62C119.338,-336.318 132.118,-338.114 144.333,-339.831"/>
<polygon fill="black" stroke="black" points="107.695,-331.146 97.3055,-333.22 106.721,-338.078 107.695,-331.146"/>
</g>
<!-- Node0&#45;&gt;Node13 -->
<g id="edge13" class="edge"><title>Node0&#45;&gt;Node13</title>
<path fill="none" stroke="black" d="M107.549,-318.34C120.575,-316.509 134.401,-314.565 147.447,-312.731"/>
<polygon fill="black" stroke="black" points="106.721,-314.922 97.3055,-319.78 107.695,-321.854 106.721,-314.922"/>
</g>
<!-- Node0&#45;&gt;Node2 -->
<g id="edge2" class="edge"><title>Node0&#45;&gt;Node2</title>
<path fill="none" stroke="black" d="M77.6065,-312.119C93.6995,-304.032 114.343,-293.903 133,-285.5 139.996,-282.349 147.425,-279.141 154.762,-276.052"/>
<polygon fill="black" stroke="black" points="75.5785,-309.222 68.2328,-316.857 78.7364,-315.47 75.5785,-309.222"/>
</g>
<!-- Node0&#45;&gt;Node5 -->
<g id="edge5" class="edge"><title>Node0&#45;&gt;Node5</title>
<path fill="none" stroke="black" d="M59.8212,-307.955C73.5342,-285.06 99.9258,-246.574 133,-225.5 140.4,-220.785 148.927,-217.237 157.483,-214.567"/>
<polygon fill="black" stroke="black" points="56.729,-306.31 54.738,-316.716 62.7838,-309.823 56.729,-306.31"/>
</g>
<!-- Node12 -->
<g id="node12" class="node"><title>Node12</title>
<g id="a_node12"><a xlink:href="a00564.html" target="_top" xlink:title="Least Mean Square \l(LMS) Filters">
<polygon fill="white" stroke="black" points="155,-147.5 155,-177.5 259,-177.5 259,-147.5 155,-147.5"/>
<text text-anchor="start" x="163" y="-165.5" font-family="Helvetica,sans-Serif" font-size="10.00">Least Mean Square </text>
<text text-anchor="middle" x="207" y="-154.5" font-family="Helvetica,sans-Serif" font-size="10.00">(LMS) Filters</text>
</a>
</g>
</g>
<!-- Node0&#45;&gt;Node12 -->
<g id="edge12" class="edge"><title>Node0&#45;&gt;Node12</title>
<path fill="none" stroke="black" d="M56.138,-307.169C67.3535,-277.294 92.8358,-219.972 133,-187.5 139.459,-182.278 147.071,-178.119 154.899,-174.815"/>
<polygon fill="black" stroke="black" points="52.7515,-306.242 52.6507,-316.837 59.3362,-308.617 52.7515,-306.242"/>
</g>
<!-- Node11 -->
<g id="node13" class="node"><title>Node11</title>
<g id="a_node13"><a xlink:href="a00563.html" target="_top" xlink:title="Infinite Impulse Response\l (IIR) Lattice Filters">
<polygon fill="white" stroke="black" points="141.5,-98.5 141.5,-128.5 272.5,-128.5 272.5,-98.5 141.5,-98.5"/>
<text text-anchor="start" x="149.5" y="-116.5" font-family="Helvetica,sans-Serif" font-size="10.00">Infinite Impulse Response</text>
<text text-anchor="middle" x="207" y="-105.5" font-family="Helvetica,sans-Serif" font-size="10.00"> (IIR) Lattice Filters</text>
</a>
</g>
</g>
<!-- Node0&#45;&gt;Node11 -->
<g id="edge11" class="edge"><title>Node0&#45;&gt;Node11</title>
<path fill="none" stroke="black" d="M52.942,-306.422C60.5129,-268.291 82.1558,-185.054 133,-138.5 137.248,-134.61 142.129,-131.321 147.31,-128.542"/>
<polygon fill="black" stroke="black" points="49.4148,-306.246 51.0274,-316.717 56.2968,-307.526 49.4148,-306.246"/>
</g>
<!-- Node9 -->
<g id="node14" class="node"><title>Node9</title>
<g id="a_node14"><a xlink:href="a00561.html" target="_top" xlink:title="Finite Impulse Response\l (FIR) Lattice Filters">
<polygon fill="white" stroke="black" points="144.5,-49.5 144.5,-79.5 269.5,-79.5 269.5,-49.5 144.5,-49.5"/>
<text text-anchor="start" x="152.5" y="-67.5" font-family="Helvetica,sans-Serif" font-size="10.00">Finite Impulse Response</text>
<text text-anchor="middle" x="207" y="-56.5" font-family="Helvetica,sans-Serif" font-size="10.00"> (FIR) Lattice Filters</text>
</a>
</g>
</g>
<!-- Node0&#45;&gt;Node9 -->
<g id="edge9" class="edge"><title>Node0&#45;&gt;Node9</title>
<path fill="none" stroke="black" d="M50.8103,-306.624C54.8386,-261.624 70.8662,-151.09 133,-89.5 136.901,-85.6334 141.425,-82.364 146.272,-79.5998"/>
<polygon fill="black" stroke="black" points="47.3041,-306.566 50.0086,-316.81 54.2825,-307.115 47.3041,-306.566"/>
</g>
<!-- Node8 -->
<g id="node15" class="node"><title>Node8</title>
<g id="a_node15"><a xlink:href="a00559.html" target="_top" xlink:title="Finite Impulse Response\l (FIR) Filters">
<polygon fill="white" stroke="black" points="144.5,-0.5 144.5,-30.5 269.5,-30.5 269.5,-0.5 144.5,-0.5"/>
<text text-anchor="start" x="152.5" y="-18.5" font-family="Helvetica,sans-Serif" font-size="10.00">Finite Impulse Response</text>
<text text-anchor="middle" x="207" y="-7.5" font-family="Helvetica,sans-Serif" font-size="10.00"> (FIR) Filters</text>
</a>
</g>
</g>
<!-- Node0&#45;&gt;Node8 -->
<g id="edge8" class="edge"><title>Node0&#45;&gt;Node8</title>
<path fill="none" stroke="black" d="M49.3899,-306.795C50.1896,-255.691 59.4291,-117.527 133,-40.5 136.701,-36.6251 141.028,-33.3507 145.694,-30.5838"/>
<polygon fill="black" stroke="black" points="45.8898,-306.81 49.3291,-316.831 52.8897,-306.853 45.8898,-306.81"/>
</g>
</g>
</svg>
        <g id="navigator" transform="translate(0 0)" fill="#404254">
                <rect fill="#f2f5e9" fill-opacity="0.5" stroke="#606060" stroke-width=".5" x="0" y="0" width="60" height="60"/>
                <use id="zoomplus" xlink:href="#zoomPlus" x="17" y="9" onmousedown="handleZoom(evt,'in')"/>
                <use id="zoomminus" xlink:href="#zoomMin" x="42" y="9" onmousedown="handleZoom(evt,'out')"/>
                <use id="reset" xlink:href="#resetDef" x="30" y="36" onmousedown="handleReset()"/>
                <g id="arrowUp" xlink:href="#dirArrow" transform="translate(30 24)" onmousedown="handlePan(0,-1)">
                  <use xlink:href="#rim" fill="#404040">
                        <set attributeName="fill" to="#808080" begin="arrowUp.mouseover" end="arrowUp.mouseout"/>
                  </use>
                  <path fill="none" stroke="white" stroke-width="1.5" d="M0,-3.0v7 M-2.5,-0.5L0,-3.0L2.5,-0.5"/>
                </g>
                <g id="arrowRight" xlink:href="#dirArrow" transform="rotate(90) translate(36 -43)" onmousedown="handlePan(1,0)">
                  <use xlink:href="#rim" fill="#404040">
                        <set attributeName="fill" to="#808080" begin="arrowRight.mouseover" end="arrowRight.mouseout"/>
                  </use>
                  <path fill="none" stroke="white" stroke-width="1.5" d="M0,-3.0v7 M-2.5,-0.5L0,-3.0L2.5,-0.5"/>
                </g>
                <g id="arrowDown" xlink:href="#dirArrow" transform="rotate(180) translate(-30 -48)" onmousedown="handlePan(0,1)">
                  <use xlink:href="#rim" fill="#404040">
                        <set attributeName="fill" to="#808080" begin="arrowDown.mouseover" end="arrowDown.mouseout"/>
                  </use>
                  <path fill="none" stroke="white" stroke-width="1.5" d="M0,-3.0v7 M-2.5,-0.5L0,-3.0L2.5,-0.5"/>
                </g>
                <g id="arrowLeft" xlink:href="#dirArrow" transform="rotate(270) translate(-36 17)" onmousedown="handlePan(-1,0)">
                  <use xlink:href="#rim" fill="#404040">
                        <set attributeName="fill" to="#808080" begin="arrowLeft.mouseover" end="arrowLeft.mouseout"/>
                  </use>
                  <path fill="none" stroke="white" stroke-width="1.5" d="M0,-3.0v7 M-2.5,-0.5L0,-3.0L2.5,-0.5"/>
                </g>
        </g>
        <svg viewBox="0 0 15 15" width="100%" height="30px" preserveAspectRatio="xMaxYMin meet">
         <g id="arrow_out" transform="scale(0.3 0.3)">
          <a xlink:href="a00494_org.svg" target="_base">
           <rect id="button" ry="5" rx="5" y="6" x="6" height="38" width="38"
                fill="#f2f5e9" fill-opacity="0.5" stroke="#606060" stroke-width="1.0"/>
           <path id="arrow"
             d="M 11.500037,31.436501 C 11.940474,20.09759 22.043105,11.32322 32.158766,21.979434 L 37.068811,17.246167 C 37.068811,17.246167 37.088388,32 37.088388,32 L 22.160133,31.978069 C 22.160133,31.978069 26.997745,27.140456 26.997745,27.140456 C 18.528582,18.264221 13.291696,25.230495 11.500037,31.436501 z"
             style="fill:#404040;"/>
          </a>
         </g>
        </svg>
</svg>
