<?xml version="1.0" encoding="UTF-8" standalone="no"?>
<!DOCTYPE svg PUBLIC "-//W3C//DTD SVG 1.1//EN"
 "http://www.w3.org/Graphics/SVG/1.1/DTD/svg11.dtd">
<!-- Generated by graphviz version 2.38.0 (20140413.2041)
 -->
<!-- Title: MD_DELAY_Init Pages: 1 -->
<svg width="410pt" height="104pt"
 viewBox="0.00 0.00 410.00 104.00" xmlns="http://www.w3.org/2000/svg" xmlns:xlink="http://www.w3.org/1999/xlink">
<g id="graph0" class="graph" transform="scale(1 1) rotate(0) translate(4 100)">
<title>MD_DELAY_Init</title>
<polygon fill="white" stroke="none" points="-4,4 -4,-100 406,-100 406,4 -4,4"/>
<!-- Node1 -->
<g id="node1" class="node"><title>Node1</title>
<polygon fill="#bfbfbf" stroke="black" points="0,-38.5 0,-57.5 89,-57.5 89,-38.5 0,-38.5"/>
<text text-anchor="middle" x="44.5" y="-45.5" font-family="Helvetica,sans-Serif" font-size="10.00">MD_DELAY_Init</text>
</g>
<!-- Node2 -->
<g id="node2" class="node"><title>Node2</title>
<g id="a_node2"><a xlink:href="a00111.html#ga523b06e73f6aa8a03e42299c855066a8" target="_top" xlink:title="Configures the External High Speed oscillator (HSE). ">
<polygon fill="white" stroke="black" points="145,-76.5 145,-95.5 239,-95.5 239,-76.5 145,-76.5"/>
<text text-anchor="middle" x="192" y="-83.5" font-family="Helvetica,sans-Serif" font-size="10.00">RCC_HSEConfig</text>
</a>
</g>
</g>
<!-- Node1&#45;&gt;Node2 -->
<g id="edge1" class="edge"><title>Node1&#45;&gt;Node2</title>
<path fill="none" stroke="midnightblue" d="M82.2158,-57.589C101.157,-62.5358 124.457,-68.6211 144.629,-73.8892"/>
<polygon fill="midnightblue" stroke="midnightblue" points="143.988,-77.3394 154.548,-76.4799 145.757,-70.5665 143.988,-77.3394"/>
</g>
<!-- Node3 -->
<g id="node3" class="node"><title>Node3</title>
<g id="a_node3"><a xlink:href="a00111.html#gae0f15692614dd048ee4110a056f001dc" target="_top" xlink:title="Waits for HSE start&#45;up. ">
<polygon fill="white" stroke="black" points="125,-38.5 125,-57.5 259,-57.5 259,-38.5 125,-38.5"/>
<text text-anchor="middle" x="192" y="-45.5" font-family="Helvetica,sans-Serif" font-size="10.00">RCC_WaitForHSEStartUp</text>
</a>
</g>
</g>
<!-- Node1&#45;&gt;Node3 -->
<g id="edge2" class="edge"><title>Node1&#45;&gt;Node3</title>
<path fill="none" stroke="midnightblue" d="M89.1548,-48C97.2168,-48 105.85,-48 114.553,-48"/>
<polygon fill="midnightblue" stroke="midnightblue" points="114.773,-51.5001 124.773,-48 114.773,-44.5001 114.773,-51.5001"/>
</g>
<!-- Node5 -->
<g id="node5" class="node"><title>Node5</title>
<g id="a_node5"><a xlink:href="a01143.html#gae4e8f0238527c69f522029b93c8e5b78" target="_top" xlink:title="System Tick Configuration. ">
<polygon fill="white" stroke="black" points="149,-0.5 149,-19.5 235,-19.5 235,-0.5 149,-0.5"/>
<text text-anchor="middle" x="192" y="-7.5" font-family="Helvetica,sans-Serif" font-size="10.00">SysTick_Config</text>
</a>
</g>
</g>
<!-- Node1&#45;&gt;Node5 -->
<g id="edge4" class="edge"><title>Node1&#45;&gt;Node5</title>
<path fill="none" stroke="midnightblue" d="M82.2158,-38.411C101.157,-33.4642 124.457,-27.3789 144.629,-22.1108"/>
<polygon fill="midnightblue" stroke="midnightblue" points="145.757,-25.4335 154.548,-19.5201 143.988,-18.6606 145.757,-25.4335"/>
</g>
<!-- Node4 -->
<g id="node4" class="node"><title>Node4</title>
<g id="a_node4"><a xlink:href="a01057.html#ga2897bdc52f272031c44fb1f72205d295" target="_top" xlink:title="Checks whether the specified RCC flag is set or not. ">
<polygon fill="white" stroke="black" points="295,-38.5 295,-57.5 402,-57.5 402,-38.5 295,-38.5"/>
<text text-anchor="middle" x="348.5" y="-45.5" font-family="Helvetica,sans-Serif" font-size="10.00">RCC_GetFlagStatus</text>
</a>
</g>
</g>
<!-- Node3&#45;&gt;Node4 -->
<g id="edge3" class="edge"><title>Node3&#45;&gt;Node4</title>
<path fill="none" stroke="midnightblue" d="M259.419,-48C267.791,-48 276.338,-48 284.653,-48"/>
<polygon fill="midnightblue" stroke="midnightblue" points="284.654,-51.5001 294.654,-48 284.654,-44.5001 284.654,-51.5001"/>
</g>
<!-- Node6 -->
<g id="node6" class="node"><title>Node6</title>
<g id="a_node6"><a xlink:href="a01142.html#ga2305cbd44aaad792e3a4e538bdaf14f9" target="_top" xlink:title="Set Interrupt Priority. ">
<polygon fill="white" stroke="black" points="302.5,-0.5 302.5,-19.5 394.5,-19.5 394.5,-0.5 302.5,-0.5"/>
<text text-anchor="middle" x="348.5" y="-7.5" font-family="Helvetica,sans-Serif" font-size="10.00">NVIC_SetPriority</text>
</a>
</g>
</g>
<!-- Node5&#45;&gt;Node6 -->
<g id="edge5" class="edge"><title>Node5&#45;&gt;Node6</title>
<path fill="none" stroke="midnightblue" d="M235.218,-10C252.782,-10 273.413,-10 292.165,-10"/>
<polygon fill="midnightblue" stroke="midnightblue" points="292.358,-13.5001 302.358,-10 292.358,-6.5001 292.358,-13.5001"/>
</g>
</g>
</svg>
