<?xml version="1.0" encoding="UTF-8" standalone="no"?>
<!DOCTYPE svg PUBLIC "-//W3C//DTD SVG 1.1//EN"
 "http://www.w3.org/Graphics/SVG/1.1/DTD/svg11.dtd">
<!-- Generated by graphviz version 2.38.0 (20140413.2041)
 -->
<!-- Title: fastConsoleCase Pages: 1 -->
<svg width="250pt" height="142pt"
 viewBox="0.00 0.00 250.00 142.00" xmlns="http://www.w3.org/2000/svg" xmlns:xlink="http://www.w3.org/1999/xlink">
<g id="graph0" class="graph" transform="scale(1 1) rotate(0) translate(4 138)">
<title>fastConsoleCase</title>
<polygon fill="white" stroke="none" points="-4,4 -4,-138 246,-138 246,4 -4,4"/>
<!-- Node1 -->
<g id="node1" class="node"><title>Node1</title>
<polygon fill="#bfbfbf" stroke="black" points="0,-57.5 0,-76.5 92,-76.5 92,-57.5 0,-57.5"/>
<text text-anchor="middle" x="46" y="-64.5" font-family="Helvetica,sans-Serif" font-size="10.00">fastConsoleCase</text>
</g>
<!-- Node2 -->
<g id="node2" class="node"><title>Node2</title>
<g id="a_node2"><a xlink:href="a00582.html#gabb0a95fd20e5e2a894e658b64a29ee61" target="_top" xlink:title="Gets string from USART. ">
<polygon fill="white" stroke="black" points="136.5,-114.5 136.5,-133.5 233.5,-133.5 233.5,-114.5 136.5,-114.5"/>
<text text-anchor="middle" x="185" y="-121.5" font-family="Helvetica,sans-Serif" font-size="10.00">TM_USART_Gets</text>
</a>
</g>
</g>
<!-- Node1&#45;&gt;Node2 -->
<g id="edge1" class="edge"><title>Node1&#45;&gt;Node2</title>
<path fill="none" stroke="midnightblue" d="M65.7212,-76.5117C81.9715,-84.5912 106.243,-96.2375 128,-105 133.178,-107.086 138.683,-109.142 144.142,-111.088"/>
<polygon fill="midnightblue" stroke="midnightblue" points="143.244,-114.482 153.839,-114.454 145.54,-107.869 143.244,-114.482"/>
</g>
<!-- Node3 -->
<g id="node3" class="node"><title>Node3</title>
<g id="a_node3"><a xlink:href="a01277.html#ga3471071fc0b691d5ea05997762e9171c" target="_top" xlink:title="Signal generator Integer array pointer. ">
<polygon fill="white" stroke="black" points="148.5,-76.5 148.5,-95.5 221.5,-95.5 221.5,-76.5 148.5,-76.5"/>
<text text-anchor="middle" x="185" y="-83.5" font-family="Helvetica,sans-Serif" font-size="10.00">__attribute__</text>
</a>
</g>
</g>
<!-- Node1&#45;&gt;Node3 -->
<g id="edge2" class="edge"><title>Node1&#45;&gt;Node3</title>
<path fill="none" stroke="midnightblue" d="M92.2386,-73.274C107.057,-75.3291 123.523,-77.6127 138.37,-79.6718"/>
<polygon fill="midnightblue" stroke="midnightblue" points="137.964,-83.1489 148.35,-81.0558 138.926,-76.2152 137.964,-83.1489"/>
</g>
<!-- Node4 -->
<g id="node4" class="node"><title>Node4</title>
<g id="a_node4"><a xlink:href="a01126.html#gae31536b19b82b93ed184fb1ab73cfcb3" target="_top" xlink:title="Initialization function for the floating&#45;point PID Control. ">
<polygon fill="white" stroke="black" points="141,-38.5 141,-57.5 229,-57.5 229,-38.5 141,-38.5"/>
<text text-anchor="middle" x="185" y="-45.5" font-family="Helvetica,sans-Serif" font-size="10.00">arm_pid_init_f32</text>
</a>
</g>
</g>
<!-- Node1&#45;&gt;Node4 -->
<g id="edge3" class="edge"><title>Node1&#45;&gt;Node4</title>
<path fill="none" stroke="midnightblue" d="M92.2386,-60.726C104.538,-59.0202 117.974,-57.1569 130.676,-55.3953"/>
<polygon fill="midnightblue" stroke="midnightblue" points="131.246,-58.8499 140.67,-54.0093 130.284,-51.9163 131.246,-58.8499"/>
</g>
<!-- Node5 -->
<g id="node5" class="node"><title>Node5</title>
<g id="a_node5"><a xlink:href="a01234.html#gaa4c41497bc8308d40c005cb2ee30963b" target="_top" xlink:title="MDB_GPIO_BeamPin">
<polygon fill="white" stroke="black" points="128,-0.5 128,-19.5 242,-19.5 242,-0.5 128,-0.5"/>
<text text-anchor="middle" x="185" y="-7.5" font-family="Helvetica,sans-Serif" font-size="10.00">MDB_GPIO_BeamPin</text>
</a>
</g>
</g>
<!-- Node1&#45;&gt;Node5 -->
<g id="edge4" class="edge"><title>Node1&#45;&gt;Node5</title>
<path fill="none" stroke="midnightblue" d="M65.7212,-57.4883C81.9715,-49.4088 106.243,-37.7625 128,-29 133.178,-26.9145 138.683,-24.8577 144.142,-22.9115"/>
<polygon fill="midnightblue" stroke="midnightblue" points="145.54,-26.1314 153.839,-19.5457 143.244,-19.5185 145.54,-26.1314"/>
</g>
</g>
</svg>
