<?xml version="1.0" encoding="UTF-8" standalone="no"?>
<!DOCTYPE svg PUBLIC "-//W3C//DTD SVG 1.1//EN"
 "http://www.w3.org/Graphics/SVG/1.1/DTD/svg11.dtd">
<!-- Generated by graphviz version 2.38.0 (20140413.2041)
 -->
<!-- Title: Complex Math Functions Pages: 1 -->
<svg width="322pt" height="230pt"
 viewBox="0.00 0.00 322.00 230.00" xmlns="http://www.w3.org/2000/svg" xmlns:xlink="http://www.w3.org/1999/xlink">
<g id="graph0" class="graph" transform="scale(1 1) rotate(0) translate(4 226)">
<title>Complex Math Functions</title>
<polygon fill="white" stroke="none" points="-4,4 -4,-226 318,-226 318,4 -4,4"/>
<!-- Node6 -->
<g id="node1" class="node"><title>Node6</title>
<g id="a_node1"><a xlink:href="a00548.html" target="_top" xlink:title="Complex&#45;by&#45;Real Multiplication">
<polygon fill="white" stroke="black" points="162,-202.5 162,-221.5 314,-221.5 314,-202.5 162,-202.5"/>
<text text-anchor="middle" x="238" y="-209.5" font-family="Helvetica,sans-Serif" font-size="10.00">Complex&#45;by&#45;Real Multiplication</text>
</a>
</g>
</g>
<!-- Node5 -->
<g id="node2" class="node"><title>Node5</title>
<g id="a_node2"><a xlink:href="a00547.html" target="_top" xlink:title="Complex&#45;by&#45;Complex\l Multiplication">
<polygon fill="white" stroke="black" points="182.5,-153 182.5,-183 293.5,-183 293.5,-153 182.5,-153"/>
<text text-anchor="start" x="190.5" y="-171" font-family="Helvetica,sans-Serif" font-size="10.00">Complex&#45;by&#45;Complex</text>
<text text-anchor="middle" x="238" y="-160" font-family="Helvetica,sans-Serif" font-size="10.00"> Multiplication</text>
</a>
</g>
</g>
<!-- Node0 -->
<g id="node3" class="node"><title>Node0</title>
<polygon fill="#bfbfbf" stroke="black" points="0,-95.5 0,-114.5 126,-114.5 126,-95.5 0,-95.5"/>
<text text-anchor="middle" x="63" y="-102.5" font-family="Helvetica,sans-Serif" font-size="10.00">Complex Math Functions</text>
</g>
<!-- Node0&#45;&gt;Node6 -->
<g id="edge6" class="edge"><title>Node0&#45;&gt;Node6</title>
<path fill="none" stroke="black" d="M78.4867,-122.326C96.1612,-142.338 127.926,-174.83 162,-193 169.23,-196.855 177.273,-199.952 185.33,-202.433"/>
<polygon fill="black" stroke="black" points="80.9934,-119.874 71.8089,-114.592 75.695,-124.449 80.9934,-119.874"/>
</g>
<!-- Node0&#45;&gt;Node5 -->
<g id="edge5" class="edge"><title>Node0&#45;&gt;Node5</title>
<path fill="none" stroke="black" d="M97.0178,-118.259C115.953,-125.748 140.217,-135.151 162,-143 171.168,-146.303 181.019,-149.697 190.47,-152.878"/>
<polygon fill="black" stroke="black" points="98.229,-114.974 87.6433,-114.536 95.6451,-121.48 98.229,-114.974"/>
</g>
<!-- Node1 -->
<g id="node4" class="node"><title>Node1</title>
<g id="a_node4"><a xlink:href="a00543.html" target="_top" xlink:title="Complex Conjugate">
<polygon fill="white" stroke="black" points="186.5,-114.5 186.5,-133.5 289.5,-133.5 289.5,-114.5 186.5,-114.5"/>
<text text-anchor="middle" x="238" y="-121.5" font-family="Helvetica,sans-Serif" font-size="10.00">Complex Conjugate</text>
</a>
</g>
</g>
<!-- Node0&#45;&gt;Node1 -->
<g id="edge1" class="edge"><title>Node0&#45;&gt;Node1</title>
<path fill="none" stroke="black" d="M136.724,-112.987C153.396,-114.818 170.768,-116.726 186.278,-118.429"/>
<polygon fill="black" stroke="black" points="136.779,-109.472 126.457,-111.859 136.015,-116.43 136.779,-109.472"/>
</g>
<!-- Node3 -->
<g id="node5" class="node"><title>Node3</title>
<g id="a_node5"><a xlink:href="a00545.html" target="_top" xlink:title="Complex Magnitude">
<polygon fill="white" stroke="black" points="186,-76.5 186,-95.5 290,-95.5 290,-76.5 186,-76.5"/>
<text text-anchor="middle" x="238" y="-83.5" font-family="Helvetica,sans-Serif" font-size="10.00">Complex Magnitude</text>
</a>
</g>
</g>
<!-- Node0&#45;&gt;Node3 -->
<g id="edge3" class="edge"><title>Node0&#45;&gt;Node3</title>
<path fill="none" stroke="black" d="M136.622,-97.0242C153.126,-95.2116 170.323,-93.3229 185.723,-91.6315"/>
<polygon fill="black" stroke="black" points="136.015,-93.5697 126.457,-98.1406 136.779,-100.528 136.015,-93.5697"/>
</g>
<!-- Node4 -->
<g id="node6" class="node"><title>Node4</title>
<g id="a_node6"><a xlink:href="a00546.html" target="_top" xlink:title="Complex Magnitude Squared">
<polygon fill="white" stroke="black" points="166.5,-38.5 166.5,-57.5 309.5,-57.5 309.5,-38.5 166.5,-38.5"/>
<text text-anchor="middle" x="238" y="-45.5" font-family="Helvetica,sans-Serif" font-size="10.00">Complex Magnitude Squared</text>
</a>
</g>
</g>
<!-- Node0&#45;&gt;Node4 -->
<g id="edge4" class="edge"><title>Node0&#45;&gt;Node4</title>
<path fill="none" stroke="black" d="M95.6756,-91.5871C114.698,-83.8171 139.499,-74.1832 162,-67 172.749,-63.5687 184.518,-60.3435 195.482,-57.5586"/>
<polygon fill="black" stroke="black" points="94.206,-88.4072 86.2975,-95.4576 96.8765,-94.8778 94.206,-88.4072"/>
</g>
<!-- Node2 -->
<g id="node7" class="node"><title>Node2</title>
<g id="a_node7"><a xlink:href="a00544.html" target="_top" xlink:title="Complex Dot Product">
<polygon fill="white" stroke="black" points="182.5,-0.5 182.5,-19.5 293.5,-19.5 293.5,-0.5 182.5,-0.5"/>
<text text-anchor="middle" x="238" y="-7.5" font-family="Helvetica,sans-Serif" font-size="10.00">Complex Dot Product</text>
</a>
</g>
</g>
<!-- Node0&#45;&gt;Node2 -->
<g id="edge2" class="edge"><title>Node0&#45;&gt;Node2</title>
<path fill="none" stroke="black" d="M80.951,-88.256C99.393,-70.9566 130.479,-44.3773 162,-29 169.847,-25.172 178.544,-22.0629 187.154,-19.5546"/>
<polygon fill="black" stroke="black" points="78.4378,-85.8167 73.634,-95.26 83.2782,-90.8735 78.4378,-85.8167"/>
</g>
</g>
</svg>
