<?xml version="1.0" encoding="UTF-8" standalone="no"?>
<!DOCTYPE svg PUBLIC "-//W3C//DTD SVG 1.1//EN"
 "http://www.w3.org/Graphics/SVG/1.1/DTD/svg11.dtd">
<!-- Generated by graphviz version 2.38.0 (20140413.2041)
 -->
<!-- Title: Transform Functions Pages: 1 -->
<svg width="273pt" height="230pt"
 viewBox="0.00 0.00 273.00 229.50" xmlns="http://www.w3.org/2000/svg" xmlns:xlink="http://www.w3.org/1999/xlink">
<g id="graph0" class="graph" transform="scale(1 1) rotate(0) translate(4 225.5)">
<title>Transform Functions</title>
<polygon fill="white" stroke="none" points="-4,4 -4,-225.5 269,-225.5 269,4 -4,4"/>
<!-- Node6 -->
<g id="node1" class="node"><title>Node6</title>
<g id="a_node1"><a xlink:href="a00681.html" target="_top" xlink:title="RealFFT">
<polygon fill="white" stroke="black" points="176.5,-202 176.5,-221 231.5,-221 231.5,-202 176.5,-202"/>
<text text-anchor="middle" x="204" y="-209" font-family="Helvetica,sans-Serif" font-size="10.00">RealFFT</text>
</a>
</g>
</g>
<!-- Node1 -->
<g id="node2" class="node"><title>Node1</title>
<g id="a_node2"><a xlink:href="a00587.html" target="_top" xlink:title="Complex FFT Functions">
<polygon fill="white" stroke="black" points="143,-164 143,-183 265,-183 265,-164 143,-164"/>
<text text-anchor="middle" x="204" y="-171" font-family="Helvetica,sans-Serif" font-size="10.00">Complex FFT Functions</text>
</a>
</g>
</g>
<!-- Node4 -->
<g id="node3" class="node"><title>Node4</title>
<g id="a_node3"><a xlink:href="a00590.html" target="_top" xlink:title="Real FFT Functions">
<polygon fill="white" stroke="black" points="152,-126 152,-145 256,-145 256,-126 152,-126"/>
<text text-anchor="middle" x="204" y="-133" font-family="Helvetica,sans-Serif" font-size="10.00">Real FFT Functions</text>
</a>
</g>
</g>
<!-- Node5 -->
<g id="node4" class="node"><title>Node5</title>
<g id="a_node4"><a xlink:href="a00680.html" target="_top" xlink:title="Complex FFT Tables">
<polygon fill="white" stroke="black" points="149.5,-88 149.5,-107 258.5,-107 258.5,-88 149.5,-88"/>
<text text-anchor="middle" x="204" y="-95" font-family="Helvetica,sans-Serif" font-size="10.00">Complex FFT Tables</text>
</a>
</g>
</g>
<!-- Node3 -->
<g id="node5" class="node"><title>Node3</title>
<g id="a_node5"><a xlink:href="a00589.html" target="_top" xlink:title="DCT Type IV Functions">
<polygon fill="white" stroke="black" points="143.5,-50 143.5,-69 264.5,-69 264.5,-50 143.5,-50"/>
<text text-anchor="middle" x="204" y="-57" font-family="Helvetica,sans-Serif" font-size="10.00">DCT Type IV Functions</text>
</a>
</g>
</g>
<!-- Node2 -->
<g id="node6" class="node"><title>Node2</title>
<g id="a_node6"><a xlink:href="a00588.html" target="_top" xlink:title="Radix&#45;8 Complex FFT\l Functions">
<polygon fill="white" stroke="black" points="147.5,-0.5 147.5,-30.5 260.5,-30.5 260.5,-0.5 147.5,-0.5"/>
<text text-anchor="start" x="155.5" y="-18.5" font-family="Helvetica,sans-Serif" font-size="10.00">Radix&#45;8 Complex FFT</text>
<text text-anchor="middle" x="204" y="-7.5" font-family="Helvetica,sans-Serif" font-size="10.00"> Functions</text>
</a>
</g>
</g>
<!-- Node0 -->
<g id="node7" class="node"><title>Node0</title>
<polygon fill="#bfbfbf" stroke="black" points="0,-107 0,-126 107,-126 107,-107 0,-107"/>
<text text-anchor="middle" x="53.5" y="-114" font-family="Helvetica,sans-Serif" font-size="10.00">Transform Functions</text>
</g>
<!-- Node0&#45;&gt;Node6 -->
<g id="edge6" class="edge"><title>Node0&#45;&gt;Node6</title>
<path fill="none" stroke="black" d="M70.3399,-133.671C86.9554,-150.762 114.565,-176.665 143,-192.5 153.31,-198.241 165.599,-202.52 176.363,-205.548"/>
<polygon fill="black" stroke="black" points="72.5391,-130.905 63.1109,-126.071 67.4673,-135.729 72.5391,-130.905"/>
</g>
<!-- Node0&#45;&gt;Node1 -->
<g id="edge1" class="edge"><title>Node0&#45;&gt;Node1</title>
<path fill="none" stroke="black" d="M84.7576,-130.373C101.716,-137.924 123.349,-147.19 143,-154.5 151.91,-157.814 161.693,-161.07 170.727,-163.925"/>
<polygon fill="black" stroke="black" points="85.9191,-127.058 75.363,-126.152 83.0505,-133.443 85.9191,-127.058"/>
</g>
<!-- Node0&#45;&gt;Node4 -->
<g id="edge4" class="edge"><title>Node0&#45;&gt;Node4</title>
<path fill="none" stroke="black" d="M117.288,-124.534C128.828,-126.01 140.746,-127.535 151.891,-128.961"/>
<polygon fill="black" stroke="black" points="117.637,-121.05 107.274,-123.252 116.749,-127.993 117.637,-121.05"/>
</g>
<!-- Node0&#45;&gt;Node5 -->
<g id="edge5" class="edge"><title>Node0&#45;&gt;Node5</title>
<path fill="none" stroke="black" d="M117.365,-108.457C128.023,-107.093 139.002,-105.688 149.395,-104.359"/>
<polygon fill="black" stroke="black" points="116.749,-105.007 107.274,-109.748 117.637,-111.95 116.749,-105.007"/>
</g>
<!-- Node0&#45;&gt;Node3 -->
<g id="edge3" class="edge"><title>Node0&#45;&gt;Node3</title>
<path fill="none" stroke="black" d="M84.7576,-102.627C101.716,-95.0755 123.349,-85.8099 143,-78.5 151.91,-75.1858 161.693,-71.9298 170.727,-69.0753"/>
<polygon fill="black" stroke="black" points="83.0505,-99.5572 75.363,-106.848 85.9191,-105.942 83.0505,-99.5572"/>
</g>
<!-- Node0&#45;&gt;Node2 -->
<g id="edge2" class="edge"><title>Node0&#45;&gt;Node2</title>
<path fill="none" stroke="black" d="M70.9126,-99.5749C87.7925,-82.8857 115.439,-57.4806 143,-40.5 148.861,-36.8892 155.335,-33.5798 161.798,-30.6331"/>
<polygon fill="black" stroke="black" points="68.1066,-97.433 63.5385,-106.993 73.0709,-102.368 68.1066,-97.433"/>
</g>
</g>
</svg>
