<?xml version="1.0" encoding="UTF-8" standalone="no"?>
<!DOCTYPE svg PUBLIC "-//W3C//DTD SVG 1.1//EN"
 "http://www.w3.org/Graphics/SVG/1.1/DTD/svg11.dtd">
<!-- Generated by graphviz version 2.38.0 (20140413.2041)
 -->
<!-- Title: ADC_Exported_Constants Pages: 1 -->
<svg width="398pt" height="1009pt"
 viewBox="0.00 0.00 398.00 1009.00" xmlns="http://www.w3.org/2000/svg" xmlns:xlink="http://www.w3.org/1999/xlink">
<g id="graph0" class="graph" transform="scale(1 1) rotate(0) translate(4 1005)">
<title>ADC_Exported_Constants</title>
<polygon fill="white" stroke="none" points="-4,4 -4,-1005 394,-1005 394,4 -4,4"/>
<!-- Node12 -->
<g id="node1" class="node"><title>Node12</title>
<g id="a_node1"><a xlink:href="a00604.html" target="_top" xlink:title="ADC_external_trigger\l_edge_for_injected_channels\l_conversion">
<polygon fill="white" stroke="black" points="245,-959.5 245,-1000.5 388,-1000.5 388,-959.5 245,-959.5"/>
<text text-anchor="start" x="253" y="-988.5" font-family="Helvetica,sans-Serif" font-size="10.00">ADC_external_trigger</text>
<text text-anchor="start" x="253" y="-977.5" font-family="Helvetica,sans-Serif" font-size="10.00">_edge_for_injected_channels</text>
<text text-anchor="middle" x="316.5" y="-966.5" font-family="Helvetica,sans-Serif" font-size="10.00">_conversion</text>
</a>
</g>
</g>
<!-- Node11 -->
<g id="node2" class="node"><title>Node11</title>
<g id="a_node2"><a xlink:href="a00603.html" target="_top" xlink:title="ADC_sampling_times">
<polygon fill="white" stroke="black" points="260.5,-921.5 260.5,-940.5 372.5,-940.5 372.5,-921.5 260.5,-921.5"/>
<text text-anchor="middle" x="316.5" y="-928.5" font-family="Helvetica,sans-Serif" font-size="10.00">ADC_sampling_times</text>
</a>
</g>
</g>
<!-- Node14 -->
<g id="node3" class="node"><title>Node14</title>
<g id="a_node3"><a xlink:href="a00606.html" target="_top" xlink:title="ADC_injected_channel\l_selection">
<polygon fill="white" stroke="black" points="258.5,-872 258.5,-902 374.5,-902 374.5,-872 258.5,-872"/>
<text text-anchor="start" x="266.5" y="-890" font-family="Helvetica,sans-Serif" font-size="10.00">ADC_injected_channel</text>
<text text-anchor="middle" x="316.5" y="-879" font-family="Helvetica,sans-Serif" font-size="10.00">_selection</text>
</a>
</g>
</g>
<!-- Node8 -->
<g id="node4" class="node"><title>Node8</title>
<g id="a_node4"><a xlink:href="a00600.html" target="_top" xlink:title="ADC_extrenal_trigger\l_sources_for_regular\l_channels_conversion">
<polygon fill="white" stroke="black" points="260,-812.5 260,-853.5 373,-853.5 373,-812.5 260,-812.5"/>
<text text-anchor="start" x="268" y="-841.5" font-family="Helvetica,sans-Serif" font-size="10.00">ADC_extrenal_trigger</text>
<text text-anchor="start" x="268" y="-830.5" font-family="Helvetica,sans-Serif" font-size="10.00">_sources_for_regular</text>
<text text-anchor="middle" x="316.5" y="-819.5" font-family="Helvetica,sans-Serif" font-size="10.00">_channels_conversion</text>
</a>
</g>
</g>
<!-- Node4 -->
<g id="node5" class="node"><title>Node4</title>
<g id="a_node5"><a xlink:href="a00596.html" target="_top" xlink:title="ADC_Direct_memory_access\l_mode_for_multi_mode">
<polygon fill="white" stroke="black" points="243,-764 243,-794 390,-794 390,-764 243,-764"/>
<text text-anchor="start" x="251" y="-782" font-family="Helvetica,sans-Serif" font-size="10.00">ADC_Direct_memory_access</text>
<text text-anchor="middle" x="316.5" y="-771" font-family="Helvetica,sans-Serif" font-size="10.00">_mode_for_multi_mode</text>
</a>
</g>
</g>
<!-- Node20 -->
<g id="node6" class="node"><title>Node20</title>
<g id="a_node6"><a xlink:href="a00612.html" target="_top" xlink:title="ADC_injected_length">
<polygon fill="white" stroke="black" points="262,-725.5 262,-744.5 371,-744.5 371,-725.5 262,-725.5"/>
<text text-anchor="middle" x="316.5" y="-732.5" font-family="Helvetica,sans-Serif" font-size="10.00">ADC_injected_length</text>
</a>
</g>
</g>
<!-- Node18 -->
<g id="node7" class="node"><title>Node18</title>
<g id="a_node7"><a xlink:href="a00610.html" target="_top" xlink:title="ADC_thresholds">
<polygon fill="white" stroke="black" points="272,-687.5 272,-706.5 361,-706.5 361,-687.5 272,-687.5"/>
<text text-anchor="middle" x="316.5" y="-694.5" font-family="Helvetica,sans-Serif" font-size="10.00">ADC_thresholds</text>
</a>
</g>
</g>
<!-- Node21 -->
<g id="node8" class="node"><title>Node21</title>
<g id="a_node8"><a xlink:href="a00613.html" target="_top" xlink:title="ADC_injected_rank">
<polygon fill="white" stroke="black" points="266,-649.5 266,-668.5 367,-668.5 367,-649.5 266,-649.5"/>
<text text-anchor="middle" x="316.5" y="-656.5" font-family="Helvetica,sans-Serif" font-size="10.00">ADC_injected_rank</text>
</a>
</g>
</g>
<!-- Node15 -->
<g id="node9" class="node"><title>Node15</title>
<g id="a_node9"><a xlink:href="a00607.html" target="_top" xlink:title="ADC_analog_watchdog\l_selection">
<polygon fill="white" stroke="black" points="257,-600 257,-630 376,-630 376,-600 257,-600"/>
<text text-anchor="start" x="265" y="-618" font-family="Helvetica,sans-Serif" font-size="10.00">ADC_analog_watchdog</text>
<text text-anchor="middle" x="316.5" y="-607" font-family="Helvetica,sans-Serif" font-size="10.00">_selection</text>
</a>
</g>
</g>
<!-- Node7 -->
<g id="node10" class="node"><title>Node7</title>
<g id="a_node10"><a xlink:href="a00599.html" target="_top" xlink:title="ADC_external_trigger\l_edge_for_regular_channels\l_conversion">
<polygon fill="white" stroke="black" points="247.5,-540.5 247.5,-581.5 385.5,-581.5 385.5,-540.5 247.5,-540.5"/>
<text text-anchor="start" x="255.5" y="-569.5" font-family="Helvetica,sans-Serif" font-size="10.00">ADC_external_trigger</text>
<text text-anchor="start" x="255.5" y="-558.5" font-family="Helvetica,sans-Serif" font-size="10.00">_edge_for_regular_channels</text>
<text text-anchor="middle" x="316.5" y="-547.5" font-family="Helvetica,sans-Serif" font-size="10.00">_conversion</text>
</a>
</g>
</g>
<!-- Node13 -->
<g id="node11" class="node"><title>Node13</title>
<g id="a_node11"><a xlink:href="a00605.html" target="_top" xlink:title="ADC_extrenal_trigger\l_sources_for_injected\l_channels_conversion">
<polygon fill="white" stroke="black" points="260,-480.5 260,-521.5 373,-521.5 373,-480.5 260,-480.5"/>
<text text-anchor="start" x="268" y="-509.5" font-family="Helvetica,sans-Serif" font-size="10.00">ADC_extrenal_trigger</text>
<text text-anchor="start" x="268" y="-498.5" font-family="Helvetica,sans-Serif" font-size="10.00">_sources_for_injected</text>
<text text-anchor="middle" x="316.5" y="-487.5" font-family="Helvetica,sans-Serif" font-size="10.00">_channels_conversion</text>
</a>
</g>
</g>
<!-- Node16 -->
<g id="node12" class="node"><title>Node16</title>
<g id="a_node12"><a xlink:href="a00608.html" target="_top" xlink:title="ADC_interrupts_definition">
<polygon fill="white" stroke="black" points="252.5,-442.5 252.5,-461.5 380.5,-461.5 380.5,-442.5 252.5,-442.5"/>
<text text-anchor="middle" x="316.5" y="-449.5" font-family="Helvetica,sans-Serif" font-size="10.00">ADC_interrupts_definition</text>
</a>
</g>
</g>
<!-- Node9 -->
<g id="node13" class="node"><title>Node9</title>
<g id="a_node13"><a xlink:href="a00601.html" target="_top" xlink:title="ADC_data_align">
<polygon fill="white" stroke="black" points="272.5,-404.5 272.5,-423.5 360.5,-423.5 360.5,-404.5 272.5,-404.5"/>
<text text-anchor="middle" x="316.5" y="-411.5" font-family="Helvetica,sans-Serif" font-size="10.00">ADC_data_align</text>
</a>
</g>
</g>
<!-- Node10 -->
<g id="node14" class="node"><title>Node10</title>
<g id="a_node14"><a xlink:href="a00602.html" target="_top" xlink:title="ADC_channels">
<polygon fill="white" stroke="black" points="275,-366.5 275,-385.5 358,-385.5 358,-366.5 275,-366.5"/>
<text text-anchor="middle" x="316.5" y="-373.5" font-family="Helvetica,sans-Serif" font-size="10.00">ADC_channels</text>
</a>
</g>
</g>
<!-- Node23 -->
<g id="node15" class="node"><title>Node23</title>
<g id="a_node15"><a xlink:href="a00615.html" target="_top" xlink:title="ADC_regular_rank">
<polygon fill="white" stroke="black" points="268,-328.5 268,-347.5 365,-347.5 365,-328.5 268,-328.5"/>
<text text-anchor="middle" x="316.5" y="-335.5" font-family="Helvetica,sans-Serif" font-size="10.00">ADC_regular_rank</text>
</a>
</g>
</g>
<!-- Node2 -->
<g id="node16" class="node"><title>Node2</title>
<g id="a_node16"><a xlink:href="a00594.html" target="_top" xlink:title="ADC_Common_mode">
<polygon fill="white" stroke="black" points="260,-290.5 260,-309.5 373,-309.5 373,-290.5 260,-290.5"/>
<text text-anchor="middle" x="316.5" y="-297.5" font-family="Helvetica,sans-Serif" font-size="10.00">ADC_Common_mode</text>
</a>
</g>
</g>
<!-- Node1 -->
<g id="node17" class="node"><title>Node1</title>
<g id="a_node17"><a xlink:href="a00028.html" target="_top" xlink:title="ADC driver modules. ">
<polygon fill="white" stroke="black" points="0,-442.5 0,-461.5 38,-461.5 38,-442.5 0,-442.5"/>
<text text-anchor="middle" x="19" y="-449.5" font-family="Helvetica,sans-Serif" font-size="10.00">ADC</text>
</a>
</g>
</g>
<!-- Node0 -->
<g id="node23" class="node"><title>Node0</title>
<polygon fill="#bfbfbf" stroke="black" points="74,-442.5 74,-461.5 207,-461.5 207,-442.5 74,-442.5"/>
<text text-anchor="middle" x="140.5" y="-449.5" font-family="Helvetica,sans-Serif" font-size="10.00">ADC_Exported_Constants</text>
</g>
<!-- Node1&#45;&gt;Node0 -->
<g id="edge1" class="edge"><title>Node1&#45;&gt;Node0</title>
<path fill="none" stroke="black" d="M48.3874,-452C56.1536,-452 64.9063,-452 73.837,-452"/>
<polygon fill="black" stroke="black" points="48.1495,-448.5 38.1495,-452 48.1494,-455.5 48.1495,-448.5"/>
</g>
<!-- Node24 -->
<g id="node18" class="node"><title>Node24</title>
<g id="a_node18"><a xlink:href="a00616.html" target="_top" xlink:title="ADC_regular_discontinuous\l_mode_number">
<polygon fill="white" stroke="black" points="247.5,-241 247.5,-271 385.5,-271 385.5,-241 247.5,-241"/>
<text text-anchor="start" x="255.5" y="-259" font-family="Helvetica,sans-Serif" font-size="10.00">ADC_regular_discontinuous</text>
<text text-anchor="middle" x="316.5" y="-248" font-family="Helvetica,sans-Serif" font-size="10.00">_mode_number</text>
</a>
</g>
</g>
<!-- Node22 -->
<g id="node19" class="node"><title>Node22</title>
<g id="a_node19"><a xlink:href="a00614.html" target="_top" xlink:title="ADC_regular_length">
<polygon fill="white" stroke="black" points="264.5,-202.5 264.5,-221.5 368.5,-221.5 368.5,-202.5 264.5,-202.5"/>
<text text-anchor="middle" x="316.5" y="-209.5" font-family="Helvetica,sans-Serif" font-size="10.00">ADC_regular_length</text>
</a>
</g>
</g>
<!-- Node5 -->
<g id="node20" class="node"><title>Node5</title>
<g id="a_node20"><a xlink:href="a00597.html" target="_top" xlink:title="ADC_delay_between_2\l_sampling_phases">
<polygon fill="white" stroke="black" points="257,-153 257,-183 376,-183 376,-153 257,-153"/>
<text text-anchor="start" x="265" y="-171" font-family="Helvetica,sans-Serif" font-size="10.00">ADC_delay_between_2</text>
<text text-anchor="middle" x="316.5" y="-160" font-family="Helvetica,sans-Serif" font-size="10.00">_sampling_phases</text>
</a>
</g>
</g>
<!-- Node19 -->
<g id="node21" class="node"><title>Node19</title>
<g id="a_node21"><a xlink:href="a00611.html" target="_top" xlink:title="ADC_injected_offset">
<polygon fill="white" stroke="black" points="263,-114.5 263,-133.5 370,-133.5 370,-114.5 263,-114.5"/>
<text text-anchor="middle" x="316.5" y="-121.5" font-family="Helvetica,sans-Serif" font-size="10.00">ADC_injected_offset</text>
</a>
</g>
</g>
<!-- Node3 -->
<g id="node22" class="node"><title>Node3</title>
<g id="a_node22"><a xlink:href="a00595.html" target="_top" xlink:title="ADC_Prescaler">
<polygon fill="white" stroke="black" points="274,-76.5 274,-95.5 359,-95.5 359,-76.5 274,-76.5"/>
<text text-anchor="middle" x="316.5" y="-83.5" font-family="Helvetica,sans-Serif" font-size="10.00">ADC_Prescaler</text>
</a>
</g>
</g>
<!-- Node0&#45;&gt;Node12 -->
<g id="edge12" class="edge"><title>Node0&#45;&gt;Node12</title>
<path fill="none" stroke="black" d="M143.092,-471.959C150.1,-555.268 180.659,-874.429 243,-950 245.861,-953.468 249.188,-956.54 252.815,-959.261"/>
<polygon fill="black" stroke="black" points="146.566,-471.498 142.259,-461.819 139.59,-472.072 146.566,-471.498"/>
</g>
<!-- Node0&#45;&gt;Node11 -->
<g id="edge11" class="edge"><title>Node0&#45;&gt;Node11</title>
<path fill="none" stroke="black" d="M143.148,-471.656C150.195,-551.037 180.326,-846.824 243,-912 247.87,-917.065 253.912,-920.838 260.414,-923.64"/>
<polygon fill="black" stroke="black" points="146.625,-471.229 142.275,-461.568 139.651,-471.832 146.625,-471.229"/>
</g>
<!-- Node0&#45;&gt;Node14 -->
<g id="edge14" class="edge"><title>Node0&#45;&gt;Node14</title>
<path fill="none" stroke="black" d="M143.848,-471.78C152.986,-545.628 188.392,-803.984 243,-863 247.322,-867.671 252.572,-871.434 258.251,-874.466"/>
<polygon fill="black" stroke="black" points="147.288,-471.076 142.608,-461.571 140.34,-471.92 147.288,-471.076"/>
</g>
<!-- Node0&#45;&gt;Node8 -->
<g id="edge8" class="edge"><title>Node0&#45;&gt;Node8</title>
<path fill="none" stroke="black" d="M141.46,-471.634C142.398,-529.994 152.984,-704.523 243,-804 247.73,-809.227 253.53,-813.527 259.769,-817.061"/>
<polygon fill="black" stroke="black" points="144.96,-471.539 141.381,-461.567 137.96,-471.594 144.96,-471.539"/>
</g>
<!-- Node0&#45;&gt;Node4 -->
<g id="edge4" class="edge"><title>Node0&#45;&gt;Node4</title>
<path fill="none" stroke="black" d="M142.355,-471.8C145.719,-525.018 162.243,-672.608 243,-754 246.845,-757.875 251.318,-761.15 256.119,-763.918"/>
<polygon fill="black" stroke="black" points="145.842,-471.469 141.806,-461.673 138.852,-471.848 145.842,-471.469"/>
</g>
<!-- Node0&#45;&gt;Node20 -->
<g id="edge20" class="edge"><title>Node0&#45;&gt;Node20</title>
<path fill="none" stroke="black" d="M143.113,-471.886C148.196,-521.049 168.307,-649.152 243,-716 248.43,-720.859 254.953,-724.502 261.832,-727.228"/>
<polygon fill="black" stroke="black" points="146.572,-471.289 142.16,-461.656 139.603,-471.938 146.572,-471.289"/>
</g>
<!-- Node0&#45;&gt;Node18 -->
<g id="edge18" class="edge"><title>Node0&#45;&gt;Node18</title>
<path fill="none" stroke="black" d="M144.565,-471.983C152.419,-516.146 177.468,-622.523 243,-678 251.144,-684.894 261.509,-689.321 271.837,-692.154"/>
<polygon fill="black" stroke="black" points="147.987,-471.226 142.889,-461.938 141.083,-472.378 147.987,-471.226"/>
</g>
<!-- Node0&#45;&gt;Node21 -->
<g id="edge21" class="edge"><title>Node0&#45;&gt;Node21</title>
<path fill="none" stroke="black" d="M146.393,-471.457C157.073,-509.821 186.195,-595.362 243,-640 249.65,-645.226 257.597,-649.023 265.754,-651.779"/>
<polygon fill="black" stroke="black" points="149.713,-470.324 143.76,-461.56 142.948,-472.124 149.713,-470.324"/>
</g>
<!-- Node0&#45;&gt;Node15 -->
<g id="edge15" class="edge"><title>Node0&#45;&gt;Node15</title>
<path fill="none" stroke="black" d="M150.46,-470.982C165.475,-500.804 198.504,-558.566 243,-591 247.714,-594.436 252.95,-597.4 258.388,-599.953"/>
<polygon fill="black" stroke="black" points="153.45,-469.13 145.911,-461.687 147.163,-472.207 153.45,-469.13"/>
</g>
<!-- Node0&#45;&gt;Node7 -->
<g id="edge7" class="edge"><title>Node0&#45;&gt;Node7</title>
<path fill="none" stroke="black" d="M159.273,-468.259C178.742,-485.468 211.417,-512.628 243,-531 248.77,-534.356 254.987,-537.527 261.268,-540.46"/>
<polygon fill="black" stroke="black" points="161.564,-465.612 151.78,-461.548 156.894,-470.826 161.564,-465.612"/>
</g>
<!-- Node0&#45;&gt;Node13 -->
<g id="edge13" class="edge"><title>Node0&#45;&gt;Node13</title>
<path fill="none" stroke="black" d="M185.12,-464.284C207.718,-470.648 235.563,-478.489 259.71,-485.289"/>
<polygon fill="black" stroke="black" points="186.036,-460.906 175.462,-461.564 184.139,-467.644 186.036,-460.906"/>
</g>
<!-- Node0&#45;&gt;Node16 -->
<g id="edge16" class="edge"><title>Node0&#45;&gt;Node16</title>
<path fill="none" stroke="black" d="M217.402,-452C229.02,-452 240.907,-452 252.215,-452"/>
<polygon fill="black" stroke="black" points="217.282,-448.5 207.282,-452 217.282,-455.5 217.282,-448.5"/>
</g>
<!-- Node0&#45;&gt;Node9 -->
<g id="edge9" class="edge"><title>Node0&#45;&gt;Node9</title>
<path fill="none" stroke="black" d="M195.353,-440.239C220.055,-434.844 248.948,-428.534 272.209,-423.454"/>
<polygon fill="black" stroke="black" points="194.43,-436.858 185.408,-442.411 195.924,-443.697 194.43,-436.858"/>
</g>
<!-- Node0&#45;&gt;Node10 -->
<g id="edge10" class="edge"><title>Node0&#45;&gt;Node10</title>
<path fill="none" stroke="black" d="M164.138,-437.059C184.173,-424.388 214.563,-406.49 243,-395 253.013,-390.954 264.155,-387.534 274.64,-384.76"/>
<polygon fill="black" stroke="black" points="162.231,-434.124 155.705,-442.471 166.012,-440.015 162.231,-434.124"/>
</g>
<!-- Node0&#45;&gt;Node23 -->
<g id="edge23" class="edge"><title>Node0&#45;&gt;Node23</title>
<path fill="none" stroke="black" d="M155.566,-434.277C173.567,-412.792 206.784,-376.988 243,-357 250.633,-352.787 259.236,-349.478 267.779,-346.889"/>
<polygon fill="black" stroke="black" points="152.653,-432.309 149.024,-442.263 158.068,-436.745 152.653,-432.309"/>
</g>
<!-- Node0&#45;&gt;Node2 -->
<g id="edge2" class="edge"><title>Node0&#45;&gt;Node2</title>
<path fill="none" stroke="black" d="M150.668,-433.093C165.768,-403.998 198.67,-348.529 243,-319 248.848,-315.105 255.454,-312.007 262.24,-309.545"/>
<polygon fill="black" stroke="black" points="147.454,-431.693 146.08,-442.198 153.705,-434.843 147.454,-431.693"/>
</g>
<!-- Node0&#45;&gt;Node24 -->
<g id="edge24" class="edge"><title>Node0&#45;&gt;Node24</title>
<path fill="none" stroke="black" d="M147.877,-432.701C160.466,-397.508 191.818,-322.694 243,-281 247.748,-277.132 253.131,-273.847 258.767,-271.06"/>
<polygon fill="black" stroke="black" points="144.528,-431.676 144.571,-442.271 151.144,-433.962 144.528,-431.676"/>
</g>
<!-- Node0&#45;&gt;Node22 -->
<g id="edge22" class="edge"><title>Node0&#45;&gt;Node22</title>
<path fill="none" stroke="black" d="M144.759,-432.174C152.958,-388.804 178.58,-285.071 243,-231 249.179,-225.813 256.618,-222.025 264.343,-219.261"/>
<polygon fill="black" stroke="black" points="141.267,-431.818 142.963,-442.277 148.159,-433.044 141.267,-431.818"/>
</g>
<!-- Node0&#45;&gt;Node5 -->
<g id="edge5" class="edge"><title>Node0&#45;&gt;Node5</title>
<path fill="none" stroke="black" d="M143.592,-432.495C149.736,-384.778 172.021,-261.097 243,-193 247.035,-189.129 251.698,-185.855 256.673,-183.086"/>
<polygon fill="black" stroke="black" points="140.115,-432.095 142.409,-442.439 147.066,-432.923 140.115,-432.095"/>
</g>
<!-- Node0&#45;&gt;Node19 -->
<g id="edge19" class="edge"><title>Node0&#45;&gt;Node19</title>
<path fill="none" stroke="black" d="M141.839,-432.123C143.89,-377.449 157.375,-223.549 243,-143 248.592,-137.74 255.457,-133.895 262.711,-131.093"/>
<polygon fill="black" stroke="black" points="138.337,-432.126 141.553,-442.221 145.335,-432.324 138.337,-432.126"/>
</g>
<!-- Node0&#45;&gt;Node3 -->
<g id="edge3" class="edge"><title>Node0&#45;&gt;Node3</title>
<path fill="none" stroke="black" d="M141.003,-432.109C140.666,-373.08 148.065,-197.289 243,-105 251.304,-96.9278 262.596,-92.1719 273.796,-89.4021"/>
<polygon fill="black" stroke="black" points="137.506,-432.349 141.15,-442.298 144.505,-432.249 137.506,-432.349"/>
</g>
<!-- Node17 -->
<g id="node24" class="node"><title>Node17</title>
<g id="a_node24"><a xlink:href="a00609.html" target="_top" xlink:title="ADC_flags_definition">
<polygon fill="white" stroke="black" points="262,-38.5 262,-57.5 371,-57.5 371,-38.5 262,-38.5"/>
<text text-anchor="middle" x="316.5" y="-45.5" font-family="Helvetica,sans-Serif" font-size="10.00">ADC_flags_definition</text>
</a>
</g>
</g>
<!-- Node0&#45;&gt;Node17 -->
<g id="edge17" class="edge"><title>Node0&#45;&gt;Node17</title>
<path fill="none" stroke="black" d="M144.101,-431.999C153.768,-360.656 189.831,-120.091 243,-67 248.248,-61.7594 254.754,-57.9106 261.696,-55.0935"/>
<polygon fill="black" stroke="black" points="140.583,-431.905 142.733,-442.279 147.521,-432.828 140.583,-431.905"/>
</g>
<!-- Node6 -->
<g id="node25" class="node"><title>Node6</title>
<g id="a_node25"><a xlink:href="a00598.html" target="_top" xlink:title="ADC_resolution">
<polygon fill="white" stroke="black" points="273.5,-0.5 273.5,-19.5 359.5,-19.5 359.5,-0.5 273.5,-0.5"/>
<text text-anchor="middle" x="316.5" y="-7.5" font-family="Helvetica,sans-Serif" font-size="10.00">ADC_resolution</text>
</a>
</g>
</g>
<!-- Node0&#45;&gt;Node6 -->
<g id="edge6" class="edge"><title>Node0&#45;&gt;Node6</title>
<path fill="none" stroke="black" d="M143.54,-432.493C151.775,-357.404 184.946,-88.2749 243,-29 251.012,-20.8195 262.083,-16.018 273.162,-13.2391"/>
<polygon fill="black" stroke="black" points="140.056,-432.152 142.469,-442.469 147.016,-432.9 140.056,-432.152"/>
</g>
</g>
</svg>
