<?xml version="1.0" encoding="UTF-8" standalone="no"?>
<!DOCTYPE svg PUBLIC "-//W3C//DTD SVG 1.1//EN"
 "http://www.w3.org/Graphics/SVG/1.1/DTD/svg11.dtd">
<!-- Generated by graphviz version 2.38.0 (20140413.2041)
 -->
<!-- Title: DMA_Init Pages: 1 -->
<svg width="401pt" height="142pt"
 viewBox="0.00 0.00 401.00 142.00" xmlns="http://www.w3.org/2000/svg" xmlns:xlink="http://www.w3.org/1999/xlink">
<g id="graph0" class="graph" transform="scale(1 1) rotate(0) translate(4 138)">
<title>DMA_Init</title>
<polygon fill="white" stroke="none" points="-4,4 -4,-138 397,-138 397,4 -4,4"/>
<!-- Node1 -->
<g id="node1" class="node"><title>Node1</title>
<polygon fill="#bfbfbf" stroke="black" points="0,-57.5 0,-76.5 58,-76.5 58,-57.5 0,-57.5"/>
<text text-anchor="middle" x="29" y="-64.5" font-family="Helvetica,sans-Serif" font-size="10.00">DMA_Init</text>
</g>
<!-- Node2 -->
<g id="node2" class="node"><title>Node2</title>
<g id="a_node2"><a xlink:href="a00709.html#gaf46f7f55713090d0d01917f8b4cf12d4" target="_top" xlink:title="DAC Channel Escalator Configuration. ">
<polygon fill="white" stroke="black" points="94,-114.5 94,-133.5 233,-133.5 233,-114.5 94,-114.5"/>
<text text-anchor="middle" x="163.5" y="-121.5" font-family="Helvetica,sans-Serif" font-size="10.00">DAC_CHx_EscalatorConfig</text>
</a>
</g>
</g>
<!-- Node1&#45;&gt;Node2 -->
<g id="edge1" class="edge"><title>Node1&#45;&gt;Node2</title>
<path fill="none" stroke="midnightblue" d="M52.1183,-82.1158C64.105,-89.7892 79.4138,-98.7781 94,-105 102.627,-108.68 112.169,-111.85 121.323,-114.488"/>
<polygon fill="midnightblue" stroke="midnightblue" points="53.9479,-79.1302 43.6665,-76.572 50.1086,-84.9834 53.9479,-79.1302"/>
</g>
<!-- Node3 -->
<g id="node3" class="node"><title>Node3</title>
<g id="a_node3"><a xlink:href="a00757.html#ga85f5a2827c06dbdba076d4e9125a11f8" target="_top" xlink:title="ADC common and regular scan group init. ">
<polygon fill="white" stroke="black" points="98,-76.5 98,-95.5 229,-95.5 229,-76.5 98,-76.5"/>
<text text-anchor="middle" x="163.5" y="-83.5" font-family="Helvetica,sans-Serif" font-size="10.00">ADC_Scan_Group_Config</text>
</a>
</g>
</g>
<!-- Node1&#45;&gt;Node3 -->
<g id="edge2" class="edge"><title>Node1&#45;&gt;Node3</title>
<path fill="none" stroke="midnightblue" d="M68.1852,-72.4756C77.5054,-73.8121 87.7347,-75.2789 97.9118,-76.7383"/>
<polygon fill="midnightblue" stroke="midnightblue" points="68.4954,-68.9844 58.0998,-71.0294 67.5018,-75.9135 68.4954,-68.9844"/>
</g>
<!-- Node5 -->
<g id="node5" class="node"><title>Node5</title>
<g id="a_node5"><a xlink:href="a00757.html#gad273dc4b4b26574e92666e4020e1ef5a" target="_top" xlink:title="Timer&#45;triggered ADC&#45;scan mode with DMA to memory. ">
<polygon fill="white" stroke="black" points="95.5,-38.5 95.5,-57.5 231.5,-57.5 231.5,-38.5 95.5,-38.5"/>
<text text-anchor="middle" x="163.5" y="-45.5" font-family="Helvetica,sans-Serif" font-size="10.00">TIM2_DMA_Trigger_Config</text>
</a>
</g>
</g>
<!-- Node1&#45;&gt;Node5 -->
<g id="edge4" class="edge"><title>Node1&#45;&gt;Node5</title>
<path fill="none" stroke="midnightblue" d="M68.2809,-61.5107C76.9919,-60.2615 86.4932,-58.8991 96.0013,-57.5357"/>
<polygon fill="midnightblue" stroke="midnightblue" points="67.5018,-58.0865 58.0998,-62.9706 68.4954,-65.0156 67.5018,-58.0865"/>
</g>
<!-- Node6 -->
<g id="node6" class="node"><title>Node6</title>
<g id="a_node6"><a xlink:href="a00172.html#ga99719473dd4a8863caff947e0753aa53" target="_top" xlink:title="Sends data over USART with DMA TX functionality. ">
<polygon fill="white" stroke="black" points="100.5,-0.5 100.5,-19.5 226.5,-19.5 226.5,-0.5 100.5,-0.5"/>
<text text-anchor="middle" x="163.5" y="-7.5" font-family="Helvetica,sans-Serif" font-size="10.00">TM_USART_DMA_Send</text>
</a>
</g>
</g>
<!-- Node1&#45;&gt;Node6 -->
<g id="edge6" class="edge"><title>Node1&#45;&gt;Node6</title>
<path fill="none" stroke="midnightblue" d="M52.1183,-51.8842C64.105,-44.2108 79.4138,-35.2219 94,-29 102.627,-25.3199 112.169,-22.1503 121.323,-19.5125"/>
<polygon fill="midnightblue" stroke="midnightblue" points="50.1086,-49.0166 43.6665,-57.428 53.9479,-54.8698 50.1086,-49.0166"/>
</g>
<!-- Node4 -->
<g id="node4" class="node"><title>Node4</title>
<g id="a_node4"><a xlink:href="a00773.html#ga840291bc02cba5474a4cb46a9b9566fe" target="_top" xlink:title="Main function entry. ">
<polygon fill="white" stroke="black" points="312,-57.5 312,-76.5 350,-76.5 350,-57.5 312,-57.5"/>
<text text-anchor="middle" x="331" y="-64.5" font-family="Helvetica,sans-Serif" font-size="10.00">main</text>
</a>
</g>
</g>
<!-- Node3&#45;&gt;Node4 -->
<g id="edge3" class="edge"><title>Node3&#45;&gt;Node4</title>
<path fill="none" stroke="midnightblue" d="M239.629,-77.3749C266.428,-74.2983 294.302,-71.0983 311.88,-69.0803"/>
<polygon fill="midnightblue" stroke="midnightblue" points="238.971,-73.9274 229.435,-78.5452 239.769,-80.8818 238.971,-73.9274"/>
</g>
<!-- Node5&#45;&gt;Node4 -->
<g id="edge5" class="edge"><title>Node5&#45;&gt;Node4</title>
<path fill="none" stroke="midnightblue" d="M242.093,-56.9079C268.051,-59.8881 294.69,-62.9462 311.736,-64.9032"/>
<polygon fill="midnightblue" stroke="midnightblue" points="242.149,-53.3915 231.815,-55.728 241.351,-60.3458 242.149,-53.3915"/>
</g>
<!-- Node7 -->
<g id="node7" class="node"><title>Node7</title>
<g id="a_node7"><a xlink:href="a00172.html#ga1b330f016fec0d9f315155e53dbb1c71" target="_top" xlink:title="Puts string to USART port with DMA. ">
<polygon fill="white" stroke="black" points="269,-0.5 269,-19.5 393,-19.5 393,-0.5 269,-0.5"/>
<text text-anchor="middle" x="331" y="-7.5" font-family="Helvetica,sans-Serif" font-size="10.00">TM_USART_DMA_Puts</text>
</a>
</g>
</g>
<!-- Node6&#45;&gt;Node7 -->
<g id="edge7" class="edge"><title>Node6&#45;&gt;Node7</title>
<path fill="none" stroke="midnightblue" d="M236.781,-10C247.504,-10 258.466,-10 268.929,-10"/>
<polygon fill="midnightblue" stroke="midnightblue" points="236.597,-6.5001 226.597,-10 236.597,-13.5001 236.597,-6.5001"/>
</g>
</g>
</svg>
