<?xml version="1.0" encoding="UTF-8" standalone="no"?>
<!DOCTYPE svg PUBLIC "-//W3C//DTD SVG 1.1//EN"
 "http://www.w3.org/Graphics/SVG/1.1/DTD/svg11.dtd">
<!-- Generated by graphviz version 2.38.0 (20140413.2041)
 -->
<!-- Title: CRYP_FIFOFlush Pages: 1 -->
<svg width="245pt" height="332pt"
 viewBox="0.00 0.00 245.00 332.00" xmlns="http://www.w3.org/2000/svg" xmlns:xlink="http://www.w3.org/1999/xlink">
<g id="graph0" class="graph" transform="scale(1 1) rotate(0) translate(4 328)">
<title>CRYP_FIFOFlush</title>
<polygon fill="white" stroke="none" points="-4,4 -4,-328 241,-328 241,4 -4,4"/>
<!-- Node1 -->
<g id="node1" class="node"><title>Node1</title>
<polygon fill="#bfbfbf" stroke="black" points="0,-152.5 0,-171.5 97,-171.5 97,-152.5 0,-152.5"/>
<text text-anchor="middle" x="48.5" y="-159.5" font-family="Helvetica,sans-Serif" font-size="10.00">CRYP_FIFOFlush</text>
</g>
<!-- Node2 -->
<g id="node2" class="node"><title>Node2</title>
<g id="a_node2"><a xlink:href="a00571.html#ga79ff82ece0e9620dc86d6e57abe639e1" target="_top" xlink:title="Encrypt and decrypt using AES in ECB Mode. ">
<polygon fill="white" stroke="black" points="136.5,-304.5 136.5,-323.5 233.5,-323.5 233.5,-304.5 136.5,-304.5"/>
<text text-anchor="middle" x="185" y="-311.5" font-family="Helvetica,sans-Serif" font-size="10.00">CRYP_AES_ECB</text>
</a>
</g>
</g>
<!-- Node1&#45;&gt;Node2 -->
<g id="edge1" class="edge"><title>Node1&#45;&gt;Node2</title>
<path fill="none" stroke="midnightblue" d="M56.7958,-181.166C68.6155,-209.796 94.5701,-263.707 133,-295 137.689,-298.818 143.221,-301.915 148.882,-304.412"/>
<polygon fill="midnightblue" stroke="midnightblue" points="59.9109,-179.528 52.9613,-171.53 53.407,-182.116 59.9109,-179.528"/>
</g>
<!-- Node3 -->
<g id="node3" class="node"><title>Node3</title>
<g id="a_node3"><a xlink:href="a00571.html#gaa43eadf707257710f6a53b3295b39d70" target="_top" xlink:title="Encrypt and decrypt using AES in CBC Mode. ">
<polygon fill="white" stroke="black" points="136,-266.5 136,-285.5 234,-285.5 234,-266.5 136,-266.5"/>
<text text-anchor="middle" x="185" y="-273.5" font-family="Helvetica,sans-Serif" font-size="10.00">CRYP_AES_CBC</text>
</a>
</g>
</g>
<!-- Node1&#45;&gt;Node3 -->
<g id="edge2" class="edge"><title>Node1&#45;&gt;Node3</title>
<path fill="none" stroke="midnightblue" d="M61.2896,-180.167C75.8406,-201.294 102.44,-235.95 133,-257 138.447,-260.752 144.728,-263.873 150.98,-266.427"/>
<polygon fill="midnightblue" stroke="midnightblue" points="64.1281,-178.116 55.6475,-171.765 58.3167,-182.019 64.1281,-178.116"/>
</g>
<!-- Node4 -->
<g id="node4" class="node"><title>Node4</title>
<g id="a_node4"><a xlink:href="a00571.html#ga2f36aea6e94452e5e5e938547fb89d4c" target="_top" xlink:title="Encrypt and decrypt using AES in CTR Mode. ">
<polygon fill="white" stroke="black" points="136.5,-228.5 136.5,-247.5 233.5,-247.5 233.5,-228.5 136.5,-228.5"/>
<text text-anchor="middle" x="185" y="-235.5" font-family="Helvetica,sans-Serif" font-size="10.00">CRYP_AES_CTR</text>
</a>
</g>
</g>
<!-- Node1&#45;&gt;Node4 -->
<g id="edge3" class="edge"><title>Node1&#45;&gt;Node4</title>
<path fill="none" stroke="midnightblue" d="M69.9074,-178.009C86.2952,-190.341 110.249,-207.219 133,-219 139.796,-222.519 147.398,-225.714 154.614,-228.436"/>
<polygon fill="midnightblue" stroke="midnightblue" points="71.7073,-174.979 61.6371,-171.687 67.456,-180.541 71.7073,-174.979"/>
</g>
<!-- Node5 -->
<g id="node5" class="node"><title>Node5</title>
<g id="a_node5"><a xlink:href="a00571.html#ga74b48d820c5c360eb303fc2fb78af055" target="_top" xlink:title="Encrypt and decrypt using AES in GCM Mode. The GCM and CCM modes are available only on STM32F437x Dev...">
<polygon fill="white" stroke="black" points="135.5,-190.5 135.5,-209.5 234.5,-209.5 234.5,-190.5 135.5,-190.5"/>
<text text-anchor="middle" x="185" y="-197.5" font-family="Helvetica,sans-Serif" font-size="10.00">CRYP_AES_GCM</text>
</a>
</g>
</g>
<!-- Node1&#45;&gt;Node5 -->
<g id="edge4" class="edge"><title>Node1&#45;&gt;Node5</title>
<path fill="none" stroke="midnightblue" d="M93.1004,-174.318C111.58,-179.539 132.789,-185.532 150.071,-190.414"/>
<polygon fill="midnightblue" stroke="midnightblue" points="94.015,-170.94 83.44,-171.589 92.1117,-177.676 94.015,-170.94"/>
</g>
<!-- Node6 -->
<g id="node6" class="node"><title>Node6</title>
<g id="a_node6"><a xlink:href="a00571.html#ga9d9f5c74b634b85b7aa8c2a2ea0bcd51" target="_top" xlink:title="Encrypt and decrypt using AES in CCM Mode. The GCM and CCM modes are available only on STM32F437x Dev...">
<polygon fill="white" stroke="black" points="135.5,-152.5 135.5,-171.5 234.5,-171.5 234.5,-152.5 135.5,-152.5"/>
<text text-anchor="middle" x="185" y="-159.5" font-family="Helvetica,sans-Serif" font-size="10.00">CRYP_AES_CCM</text>
</a>
</g>
</g>
<!-- Node1&#45;&gt;Node6 -->
<g id="edge5" class="edge"><title>Node1&#45;&gt;Node6</title>
<path fill="none" stroke="midnightblue" d="M107.335,-162C116.706,-162 126.327,-162 135.448,-162"/>
<polygon fill="midnightblue" stroke="midnightblue" points="107.298,-158.5 97.2984,-162 107.298,-165.5 107.298,-158.5"/>
</g>
<!-- Node7 -->
<g id="node7" class="node"><title>Node7</title>
<g id="a_node7"><a xlink:href="a00572.html#ga3b96b7608b39197209abed5f5845f590" target="_top" xlink:title="Encrypt and decrypt using DES in ECB Mode. ">
<polygon fill="white" stroke="black" points="136,-114.5 136,-133.5 234,-133.5 234,-114.5 136,-114.5"/>
<text text-anchor="middle" x="185" y="-121.5" font-family="Helvetica,sans-Serif" font-size="10.00">CRYP_DES_ECB</text>
</a>
</g>
</g>
<!-- Node1&#45;&gt;Node7 -->
<g id="edge6" class="edge"><title>Node1&#45;&gt;Node7</title>
<path fill="none" stroke="midnightblue" d="M93.1004,-149.682C111.58,-144.461 132.789,-138.468 150.071,-133.586"/>
<polygon fill="midnightblue" stroke="midnightblue" points="92.1117,-146.324 83.44,-152.411 94.015,-153.06 92.1117,-146.324"/>
</g>
<!-- Node8 -->
<g id="node8" class="node"><title>Node8</title>
<g id="a_node8"><a xlink:href="a00572.html#ga75724391a8560c557e1152b805f5cad1" target="_top" xlink:title="Encrypt and decrypt using DES in CBC Mode. ">
<polygon fill="white" stroke="black" points="136,-76.5 136,-95.5 234,-95.5 234,-76.5 136,-76.5"/>
<text text-anchor="middle" x="185" y="-83.5" font-family="Helvetica,sans-Serif" font-size="10.00">CRYP_DES_CBC</text>
</a>
</g>
</g>
<!-- Node1&#45;&gt;Node8 -->
<g id="edge7" class="edge"><title>Node1&#45;&gt;Node8</title>
<path fill="none" stroke="midnightblue" d="M69.9074,-145.991C86.2952,-133.659 110.249,-116.781 133,-105 139.796,-101.481 147.398,-98.2864 154.614,-95.5637"/>
<polygon fill="midnightblue" stroke="midnightblue" points="67.456,-143.459 61.6371,-152.313 71.7073,-149.021 67.456,-143.459"/>
</g>
<!-- Node9 -->
<g id="node9" class="node"><title>Node9</title>
<g id="a_node9"><a xlink:href="a00573.html#ga17c03ab4f0566fcbc3dd8c052e6f9886" target="_top" xlink:title="Encrypt and decrypt using TDES in ECB Mode. ">
<polygon fill="white" stroke="black" points="133,-38.5 133,-57.5 237,-57.5 237,-38.5 133,-38.5"/>
<text text-anchor="middle" x="185" y="-45.5" font-family="Helvetica,sans-Serif" font-size="10.00">CRYP_TDES_ECB</text>
</a>
</g>
</g>
<!-- Node1&#45;&gt;Node9 -->
<g id="edge8" class="edge"><title>Node1&#45;&gt;Node9</title>
<path fill="none" stroke="midnightblue" d="M61.2896,-143.833C75.8406,-122.706 102.44,-88.0499 133,-67 138.447,-63.2481 144.728,-60.1274 150.98,-57.5733"/>
<polygon fill="midnightblue" stroke="midnightblue" points="58.3167,-141.981 55.6475,-152.235 64.1281,-145.884 58.3167,-141.981"/>
</g>
<!-- Node10 -->
<g id="node10" class="node"><title>Node10</title>
<g id="a_node10"><a xlink:href="a00573.html#gabe52a368c4882450c1e82f16bc1eb686" target="_top" xlink:title="Encrypt and decrypt using TDES in CBC Mode. ">
<polygon fill="white" stroke="black" points="133,-0.5 133,-19.5 237,-19.5 237,-0.5 133,-0.5"/>
<text text-anchor="middle" x="185" y="-7.5" font-family="Helvetica,sans-Serif" font-size="10.00">CRYP_TDES_CBC</text>
</a>
</g>
</g>
<!-- Node1&#45;&gt;Node10 -->
<g id="edge9" class="edge"><title>Node1&#45;&gt;Node10</title>
<path fill="none" stroke="midnightblue" d="M56.7958,-142.834C68.6155,-114.204 94.5701,-60.2932 133,-29 137.689,-25.1817 143.221,-22.085 148.882,-19.5878"/>
<polygon fill="midnightblue" stroke="midnightblue" points="53.407,-141.884 52.9613,-152.47 59.9109,-144.472 53.407,-141.884"/>
</g>
</g>
</svg>
