<?xml version="1.0" encoding="UTF-8" standalone="no"?>
<!DOCTYPE svg PUBLIC "-//W3C//DTD SVG 1.1//EN"
 "http://www.w3.org/Graphics/SVG/1.1/DTD/svg11.dtd">
<!-- Generated by graphviz version 2.38.0 (20140413.2041)
 -->
<!-- Title: TM_USART_ClearBuffer Pages: 1 -->
<svg width="471pt" height="85pt"
 viewBox="0.00 0.00 471.00 85.00" xmlns="http://www.w3.org/2000/svg" xmlns:xlink="http://www.w3.org/1999/xlink">
<g id="graph0" class="graph" transform="scale(1 1) rotate(0) translate(4 81)">
<title>TM_USART_ClearBuffer</title>
<polygon fill="white" stroke="none" points="-4,4 -4,-81 467,-81 467,4 -4,4"/>
<!-- Node1 -->
<g id="node1" class="node"><title>Node1</title>
<polygon fill="#bfbfbf" stroke="black" points="0,-47.5 0,-66.5 125,-66.5 125,-47.5 0,-47.5"/>
<text text-anchor="middle" x="62.5" y="-54.5" font-family="Helvetica,sans-Serif" font-size="10.00">TM_USART_ClearBuffer</text>
</g>
<!-- Node2 -->
<g id="node2" class="node"><title>Node2</title>
<g id="a_node2"><a xlink:href="a01285.html#ga840291bc02cba5474a4cb46a9b9566fe" target="_top" xlink:title="Main function entry. ">
<polygon fill="white" stroke="black" points="425,-57.5 425,-76.5 463,-76.5 463,-57.5 425,-57.5"/>
<text text-anchor="middle" x="444" y="-64.5" font-family="Helvetica,sans-Serif" font-size="10.00">main</text>
</a>
</g>
</g>
<!-- Node1&#45;&gt;Node2 -->
<g id="edge1" class="edge"><title>Node1&#45;&gt;Node2</title>
<path fill="none" stroke="midnightblue" d="M135.335,-60.9342C180.564,-63.2119 240.177,-65.8497 293,-67 340.645,-68.0375 396.823,-67.5917 424.987,-67.2531"/>
<polygon fill="midnightblue" stroke="midnightblue" points="135.494,-57.4379 125.329,-60.4244 135.138,-64.4288 135.494,-57.4379"/>
</g>
<!-- Node3 -->
<g id="node3" class="node"><title>Node3</title>
<g id="a_node3"><a xlink:href="a00580.html#gab807a241fae0eae0d5434bae20a3569f" target="_top" xlink:title="Puts character to USART port. ">
<polygon fill="white" stroke="black" points="161,-19.5 161,-38.5 257,-38.5 257,-19.5 161,-19.5"/>
<text text-anchor="middle" x="209" y="-26.5" font-family="Helvetica,sans-Serif" font-size="10.00">TM_USART_Putc</text>
</a>
</g>
</g>
<!-- Node1&#45;&gt;Node3 -->
<g id="edge2" class="edge"><title>Node1&#45;&gt;Node3</title>
<path fill="none" stroke="midnightblue" d="M122.834,-45.5027C135.501,-43.0483 148.714,-40.4879 160.849,-38.1365"/>
<polygon fill="midnightblue" stroke="midnightblue" points="121.976,-42.1038 112.825,-47.4423 123.308,-48.976 121.976,-42.1038"/>
</g>
<!-- Node4 -->
<g id="node4" class="node"><title>Node4</title>
<g id="a_node4"><a xlink:href="a00580.html#ga70bed9fb6612cb572a8c10e148404344" target="_top" xlink:title="Initializes USARTx peripheral and corresponding pins. ">
<polygon fill="white" stroke="black" points="296.5,-38.5 296.5,-57.5 385.5,-57.5 385.5,-38.5 296.5,-38.5"/>
<text text-anchor="middle" x="341" y="-45.5" font-family="Helvetica,sans-Serif" font-size="10.00">TM_USART_Init</text>
</a>
</g>
</g>
<!-- Node3&#45;&gt;Node4 -->
<g id="edge3" class="edge"><title>Node3&#45;&gt;Node4</title>
<path fill="none" stroke="midnightblue" d="M267.343,-37.3808C277.096,-38.8063 287.082,-40.2658 296.407,-41.6287"/>
<polygon fill="midnightblue" stroke="midnightblue" points="267.702,-33.8962 257.301,-35.9132 266.689,-40.8226 267.702,-33.8962"/>
</g>
<!-- Node5 -->
<g id="node5" class="node"><title>Node5</title>
<g id="a_node5"><a xlink:href="a00580.html#ga453aeaa886278333403ff4937c01dcf3" target="_top" xlink:title="Puts string to USART port. ">
<polygon fill="white" stroke="black" points="293,-0.5 293,-19.5 389,-19.5 389,-0.5 293,-0.5"/>
<text text-anchor="middle" x="341" y="-7.5" font-family="Helvetica,sans-Serif" font-size="10.00">TM_USART_Puts</text>
</a>
</g>
</g>
<!-- Node3&#45;&gt;Node5 -->
<g id="edge5" class="edge"><title>Node3&#45;&gt;Node5</title>
<path fill="none" stroke="midnightblue" d="M246.893,-17.4534C261.184,-14.7201 277.72,-12.182 292.856,-10.372"/>
<polygon fill="midnightblue" stroke="midnightblue" points="246.042,-14.0546 236.936,-19.4705 247.432,-20.9152 246.042,-14.0546"/>
</g>
<!-- Node4&#45;&gt;Node2 -->
<g id="edge4" class="edge"><title>Node4&#45;&gt;Node2</title>
<path fill="none" stroke="midnightblue" d="M395.767,-58.1147C406.256,-60.0878 416.556,-62.0254 424.848,-63.5852"/>
<polygon fill="midnightblue" stroke="midnightblue" points="396.187,-54.6323 385.713,-56.2232 394.893,-61.5117 396.187,-54.6323"/>
</g>
<!-- Node5&#45;&gt;Node3 -->
<g id="edge6" class="edge"><title>Node5&#45;&gt;Node3</title>
<path fill="none" stroke="midnightblue" d="M303.047,-21.558C288.819,-24.2775 272.373,-26.803 257.301,-28.6093"/>
<polygon fill="midnightblue" stroke="midnightblue" points="303.857,-24.9652 312.964,-19.551 302.468,-18.1043 303.857,-24.9652"/>
</g>
</g>
</svg>
