<?xml version="1.0" encoding="UTF-8" standalone="no"?>
<!DOCTYPE svg PUBLIC "-//W3C//DTD SVG 1.1//EN"
 "http://www.w3.org/Graphics/SVG/1.1/DTD/svg11.dtd">
<!-- Generated by graphviz version 2.38.0 (20140413.2041)
 -->
<!-- Title: arm_conv_fast_opt_q15 Pages: 1 -->
<svg width="245pt" height="66pt"
 viewBox="0.00 0.00 245.00 66.00" xmlns="http://www.w3.org/2000/svg" xmlns:xlink="http://www.w3.org/1999/xlink">
<g id="graph0" class="graph" transform="scale(1 1) rotate(0) translate(4 62)">
<title>arm_conv_fast_opt_q15</title>
<polygon fill="white" stroke="none" points="-4,4 -4,-62 241,-62 241,4 -4,4"/>
<!-- Node1 -->
<g id="node1" class="node"><title>Node1</title>
<polygon fill="#bfbfbf" stroke="black" points="0,-19.5 0,-38.5 121,-38.5 121,-19.5 0,-19.5"/>
<text text-anchor="middle" x="60.5" y="-26.5" font-family="Helvetica,sans-Serif" font-size="10.00">arm_conv_fast_opt_q15</text>
</g>
<!-- Node2 -->
<g id="node2" class="node"><title>Node2</title>
<g id="a_node2"><a xlink:href="a00582.html#ga76b21c32a3783a2b3334d930a646e5d8" target="_top" xlink:title="Fills a constant value into a Q15 vector. ">
<polygon fill="white" stroke="black" points="162.5,-38.5 162.5,-57.5 231.5,-57.5 231.5,-38.5 162.5,-38.5"/>
<text text-anchor="middle" x="197" y="-45.5" font-family="Helvetica,sans-Serif" font-size="10.00">arm_fill_q15</text>
</a>
</g>
</g>
<!-- Node1&#45;&gt;Node2 -->
<g id="edge1" class="edge"><title>Node1&#45;&gt;Node2</title>
<path fill="none" stroke="midnightblue" d="M121.277,-37.4443C131.691,-38.9155 142.348,-40.4208 152.23,-41.8169"/>
<polygon fill="midnightblue" stroke="midnightblue" points="151.815,-45.2929 162.206,-43.2262 152.794,-38.3618 151.815,-45.2929"/>
</g>
<!-- Node3 -->
<g id="node3" class="node"><title>Node3</title>
<g id="a_node3"><a xlink:href="a00581.html#ga872ca4cfc18c680b8991ccd569a5fda0" target="_top" xlink:title="Copies the elements of a Q15 vector. ">
<polygon fill="white" stroke="black" points="157,-0.5 157,-19.5 237,-19.5 237,-0.5 157,-0.5"/>
<text text-anchor="middle" x="197" y="-7.5" font-family="Helvetica,sans-Serif" font-size="10.00">arm_copy_q15</text>
</a>
</g>
</g>
<!-- Node1&#45;&gt;Node3 -->
<g id="edge2" class="edge"><title>Node1&#45;&gt;Node3</title>
<path fill="none" stroke="midnightblue" d="M121.277,-20.5557C129.856,-19.3437 138.6,-18.1086 146.939,-16.9305"/>
<polygon fill="midnightblue" stroke="midnightblue" points="147.462,-20.3915 156.874,-15.5271 146.483,-13.4603 147.462,-20.3915"/>
</g>
</g>
</svg>
