<?xml version="1.0" encoding="UTF-8" standalone="no"?>
<!DOCTYPE svg PUBLIC "-//W3C//DTD SVG 1.1//EN"
 "http://www.w3.org/Graphics/SVG/1.1/DTD/svg11.dtd">
<!-- Generated by graphviz version 2.38.0 (20140413.2041)
 -->
<!-- Title: arm_mean_f32 Pages: 1 -->
<svg width="342pt" height="104pt"
 viewBox="0.00 0.00 342.00 104.00" xmlns="http://www.w3.org/2000/svg" xmlns:xlink="http://www.w3.org/1999/xlink">
<g id="graph0" class="graph" transform="scale(1 1) rotate(0) translate(4 100)">
<title>arm_mean_f32</title>
<polygon fill="white" stroke="none" points="-4,4 -4,-100 338,-100 338,4 -4,4"/>
<!-- Node1 -->
<g id="node1" class="node"><title>Node1</title>
<polygon fill="#bfbfbf" stroke="black" points="0,-38.5 0,-57.5 81,-57.5 81,-38.5 0,-38.5"/>
<text text-anchor="middle" x="40.5" y="-45.5" font-family="Helvetica,sans-Serif" font-size="10.00">arm_mean_f32</text>
</g>
<!-- Node2 -->
<g id="node2" class="node"><title>Node2</title>
<g id="a_node2"><a xlink:href="a00508.html#ga56a40d1cf842b0b45267df6761975da0" target="_top" xlink:title="Floating&#45;point square root function. ">
<polygon fill="white" stroke="black" points="117,-38.5 117,-57.5 191,-57.5 191,-38.5 117,-38.5"/>
<text text-anchor="middle" x="154" y="-45.5" font-family="Helvetica,sans-Serif" font-size="10.00">arm_sqrt_f32</text>
</a>
</g>
</g>
<!-- Node1&#45;&gt;Node2 -->
<g id="edge1" class="edge"><title>Node1&#45;&gt;Node2</title>
<path fill="none" stroke="midnightblue" d="M91.1409,-48C99.7943,-48 108.646,-48 116.85,-48"/>
<polygon fill="midnightblue" stroke="midnightblue" points="91.1247,-44.5001 81.1247,-48 91.1246,-51.5001 91.1247,-44.5001"/>
</g>
<!-- Node3 -->
<g id="node3" class="node"><title>Node3</title>
<g id="a_node3"><a xlink:href="a00545.html#gae45024c497392cde2ae358a76d435213" target="_top" xlink:title="Floating&#45;point complex magnitude. ">
<polygon fill="white" stroke="black" points="227,-76.5 227,-95.5 334,-95.5 334,-76.5 227,-76.5"/>
<text text-anchor="middle" x="280.5" y="-83.5" font-family="Helvetica,sans-Serif" font-size="10.00">arm_cmplx_mag_f32</text>
</a>
</g>
</g>
<!-- Node2&#45;&gt;Node3 -->
<g id="edge2" class="edge"><title>Node2&#45;&gt;Node3</title>
<path fill="none" stroke="midnightblue" d="M200.861,-55.4601C222.844,-61.5877 247.763,-69.8079 263.548,-76.4368"/>
<polygon fill="midnightblue" stroke="midnightblue" points="201.577,-52.0282 191.011,-52.8052 199.755,-58.787 201.577,-52.0282"/>
</g>
<!-- Node4 -->
<g id="node4" class="node"><title>Node4</title>
<g id="a_node4"><a xlink:href="a00578.html#ga0e3ab1b57da32d45388d1fa90d7fd88c" target="_top" xlink:title="Root Mean Square of the elements of a floating&#45;point vector. ">
<polygon fill="white" stroke="black" points="243.5,-38.5 243.5,-57.5 317.5,-57.5 317.5,-38.5 243.5,-38.5"/>
<text text-anchor="middle" x="280.5" y="-45.5" font-family="Helvetica,sans-Serif" font-size="10.00">arm_rms_f32</text>
</a>
</g>
</g>
<!-- Node2&#45;&gt;Node4 -->
<g id="edge4" class="edge"><title>Node2&#45;&gt;Node4</title>
<path fill="none" stroke="midnightblue" d="M201.306,-41.4508C215.12,-41.0958 230.058,-41.2116 243.139,-41.7982"/>
<polygon fill="midnightblue" stroke="midnightblue" points="200.881,-37.9635 191.011,-41.814 201.128,-44.9591 200.881,-37.9635"/>
</g>
<!-- Node5 -->
<g id="node5" class="node"><title>Node5</title>
<g id="a_node5"><a xlink:href="a00579.html#ga4969b5b5f3d001377bc401a3ee99dfc2" target="_top" xlink:title="Standard deviation of the elements of a floating&#45;point vector. ">
<polygon fill="white" stroke="black" points="245,-0.5 245,-19.5 316,-19.5 316,-0.5 245,-0.5"/>
<text text-anchor="middle" x="280.5" y="-7.5" font-family="Helvetica,sans-Serif" font-size="10.00">arm_std_f32</text>
</a>
</g>
</g>
<!-- Node2&#45;&gt;Node5 -->
<g id="edge6" class="edge"><title>Node2&#45;&gt;Node5</title>
<path fill="none" stroke="midnightblue" d="M180.323,-34.7126C198.945,-27.6549 224.472,-19.6776 244.964,-14.4248"/>
<polygon fill="midnightblue" stroke="midnightblue" points="179.023,-31.4631 171.021,-38.4076 181.607,-37.9686 179.023,-31.4631"/>
</g>
<!-- Node3&#45;&gt;Node2 -->
<g id="edge3" class="edge"><title>Node3&#45;&gt;Node2</title>
<path fill="none" stroke="midnightblue" d="M216.888,-73.6393C199.866,-68.4343 182.88,-62.5673 171.021,-57.5924"/>
<polygon fill="midnightblue" stroke="midnightblue" points="216.292,-77.114 226.876,-76.6157 218.292,-70.4055 216.292,-77.114"/>
</g>
<!-- Node4&#45;&gt;Node2 -->
<g id="edge5" class="edge"><title>Node4&#45;&gt;Node2</title>
<path fill="none" stroke="midnightblue" d="M232.823,-54.5586C218.989,-54.9052 204.059,-54.781 191.011,-54.186"/>
<polygon fill="midnightblue" stroke="midnightblue" points="233.266,-58.0455 243.139,-54.2018 233.024,-51.0497 233.266,-58.0455"/>
</g>
<!-- Node5&#45;&gt;Node2 -->
<g id="edge7" class="edge"><title>Node5&#45;&gt;Node2</title>
<path fill="none" stroke="midnightblue" d="M254.197,-23.2798C236.017,-30.1711 211.249,-37.9405 191.011,-43.1948"/>
<polygon fill="midnightblue" stroke="midnightblue" points="255.548,-26.5092 263.548,-19.5632 252.962,-20.0041 255.548,-26.5092"/>
</g>
</g>
</svg>
