<?xml version="1.0" encoding="UTF-8" standalone="no"?>
<!DOCTYPE svg PUBLIC "-//W3C//DTD SVG 1.1//EN"
 "http://www.w3.org/Graphics/SVG/1.1/DTD/svg11.dtd">
<!-- Generated by graphviz version 2.38.0 (20140413.2041)
 -->
<!-- Title: Examples Pages: 1 -->
<!--zoomable 455 -->
<svg id="main" version="1.1" xmlns="http://www.w3.org/2000/svg" xmlns:xlink="http://www.w3.org/1999/xlink" xml:space="preserve" onload="init(evt)">
<style type="text/css"><![CDATA[
.edge:hover path { stroke: red; }
.edge:hover polygon { stroke: red; fill: red; }
]]></style>
<script type="text/javascript"><![CDATA[
var edges = document.getElementsByTagName('g');
if (edges && edges.length) {
  for (var i=0;i<edges.length;i++) {
    if (edges[i].id.substr(0,4)=='edge') {
      edges[i].setAttribute('class','edge');
    }
  }
}
]]></script>
        <defs>
                <circle id="rim" cx="0" cy="0" r="7"/>
                <circle id="rim2" cx="0" cy="0" r="3.5"/>
                <g id="zoomPlus">
                        <use xlink:href="#rim" fill="#404040">
                                <set attributeName="fill" to="#808080" begin="zoomplus.mouseover" end="zoomplus.mouseout"/>
                        </use>
                        <path d="M-4,0h8M0,-4v8" fill="none" stroke="white" stroke-width="1.5" pointer-events="none"/>
                </g>
                <g id="zoomMin">
                        <use xlink:href="#rim" fill="#404040">
                                <set attributeName="fill" to="#808080" begin="zoomminus.mouseover" end="zoomminus.mouseout"/>
                        </use>
                        <path d="M-4,0h8" fill="none" stroke="white" stroke-width="1.5" pointer-events="none"/>
                </g>
                <g id="dirArrow">
                        <path fill="none" stroke="white" stroke-width="1.5" d="M0,-3.0v7 M-2.5,-0.5L0,-3.0L2.5,-0.5"/>
                </g>
               <g id="resetDef">
                       <use xlink:href="#rim2" fill="#404040">
                               <set attributeName="fill" to="#808080" begin="reset.mouseover" end="reset.mouseout"/>
                       </use>
               </g>
        </defs>

<script type="text/javascript">
var viewWidth = 226;
var viewHeight = 455;
var sectionId = 'dynsection-0';
</script>
<script xlink:href="svgpan.js"/>
<svg id="graph" class="graph">
<g id="viewport">
<title>Examples</title>
<polygon fill="white" stroke="none" points="-4,4 -4,-451 222,-451 222,4 -4,4"/>
<!-- Node4 -->
<g id="node1" class="node"><title>Node4</title>
<g id="a_node1"><a xlink:href="a00526.html" target="_top" xlink:title="Frequency Bin Example">
<polygon fill="white" stroke="black" points="96.5,-427.5 96.5,-446.5 217.5,-446.5 217.5,-427.5 96.5,-427.5"/>
<text text-anchor="middle" x="157" y="-434.5" font-family="Helvetica,sans-Serif" font-size="10.00">Frequency Bin Example</text>
</a>
</g>
</g>
<!-- Node11 -->
<g id="node2" class="node"><title>Node11</title>
<g id="a_node2"><a xlink:href="a00533.html" target="_top" xlink:title="Variance Example">
<polygon fill="white" stroke="black" points="109,-389.5 109,-408.5 205,-408.5 205,-389.5 109,-389.5"/>
<text text-anchor="middle" x="157" y="-396.5" font-family="Helvetica,sans-Serif" font-size="10.00">Variance Example</text>
</a>
</g>
</g>
<!-- Node1 -->
<g id="node3" class="node"><title>Node1</title>
<g id="a_node3"><a xlink:href="a00523.html" target="_top" xlink:title="Class Marks Example">
<polygon fill="white" stroke="black" points="100.5,-351.5 100.5,-370.5 213.5,-370.5 213.5,-351.5 100.5,-351.5"/>
<text text-anchor="middle" x="157" y="-358.5" font-family="Helvetica,sans-Serif" font-size="10.00">Class Marks Example</text>
</a>
</g>
</g>
<!-- Node10 -->
<g id="node4" class="node"><title>Node10</title>
<g id="a_node4"><a xlink:href="a00532.html" target="_top" xlink:title="SineCosine Example">
<polygon fill="white" stroke="black" points="103,-313.5 103,-332.5 211,-332.5 211,-313.5 103,-313.5"/>
<text text-anchor="middle" x="157" y="-320.5" font-family="Helvetica,sans-Serif" font-size="10.00">SineCosine Example</text>
</a>
</g>
</g>
<!-- Node9 -->
<g id="node5" class="node"><title>Node9</title>
<g id="a_node5"><a xlink:href="a00531.html" target="_top" xlink:title="Signal Convergence\l Example">
<polygon fill="white" stroke="black" points="105,-264 105,-294 209,-294 209,-264 105,-264"/>
<text text-anchor="start" x="113" y="-282" font-family="Helvetica,sans-Serif" font-size="10.00">Signal Convergence</text>
<text text-anchor="middle" x="157" y="-271" font-family="Helvetica,sans-Serif" font-size="10.00"> Example</text>
</a>
</g>
</g>
<!-- Node2 -->
<g id="node6" class="node"><title>Node2</title>
<g id="a_node6"><a xlink:href="a00524.html" target="_top" xlink:title="Convolution Example">
<polygon fill="white" stroke="black" points="102,-225.5 102,-244.5 212,-244.5 212,-225.5 102,-225.5"/>
<text text-anchor="middle" x="157" y="-232.5" font-family="Helvetica,sans-Serif" font-size="10.00">Convolution Example</text>
</a>
</g>
</g>
<!-- Node0 -->
<g id="node7" class="node"><title>Node0</title>
<polygon fill="#bfbfbf" stroke="black" points="0,-225.5 0,-244.5 60,-244.5 60,-225.5 0,-225.5"/>
<text text-anchor="middle" x="30" y="-232.5" font-family="Helvetica,sans-Serif" font-size="10.00">Examples</text>
</g>
<!-- Node0&#45;&gt;Node4 -->
<g id="edge4" class="edge"><title>Node0&#45;&gt;Node4</title>
<path fill="none" stroke="black" d="M32.3671,-254.562C36.0163,-291.71 49.191,-372.784 96,-418 100.008,-421.872 104.8,-424.955 109.905,-427.41"/>
<polygon fill="black" stroke="black" points="35.849,-254.199 31.5138,-244.532 28.8742,-254.792 35.849,-254.199"/>
</g>
<!-- Node0&#45;&gt;Node11 -->
<g id="edge11" class="edge"><title>Node0&#45;&gt;Node11</title>
<path fill="none" stroke="black" d="M34.5023,-254.76C41.0402,-285.859 58.0338,-346.158 96,-380 100.323,-383.853 105.428,-386.926 110.805,-389.375"/>
<polygon fill="black" stroke="black" points="37.8953,-253.873 32.5472,-244.727 31.0246,-255.212 37.8953,-253.873"/>
</g>
<!-- Node0&#45;&gt;Node1 -->
<g id="edge1" class="edge"><title>Node0&#45;&gt;Node1</title>
<path fill="none" stroke="black" d="M37.6854,-253.981C47.063,-277.911 66.369,-318.727 96,-342 100.898,-345.847 106.589,-348.923 112.478,-351.38"/>
<polygon fill="black" stroke="black" points="40.9512,-252.721 34.1732,-244.578 34.3937,-255.171 40.9512,-252.721"/>
</g>
<!-- Node0&#45;&gt;Node10 -->
<g id="edge10" class="edge"><title>Node0&#45;&gt;Node10</title>
<path fill="none" stroke="black" d="M43.9462,-253.278C55.8399,-268.822 74.7989,-290.68 96,-304 102.106,-307.836 109.052,-310.958 115.999,-313.477"/>
<polygon fill="black" stroke="black" points="46.5585,-250.925 37.7962,-244.969 40.9319,-255.089 46.5585,-250.925"/>
</g>
<!-- Node0&#45;&gt;Node9 -->
<g id="edge9" class="edge"><title>Node0&#45;&gt;Node9</title>
<path fill="none" stroke="black" d="M67.6148,-247.888C81.8987,-252.916 98.3736,-258.715 113.201,-263.935"/>
<polygon fill="black" stroke="black" points="68.718,-244.566 58.1231,-244.547 66.3937,-251.169 68.718,-244.566"/>
</g>
<!-- Node0&#45;&gt;Node2 -->
<g id="edge2" class="edge"><title>Node0&#45;&gt;Node2</title>
<path fill="none" stroke="black" d="M70.3448,-235C80.3475,-235 91.2717,-235 101.869,-235"/>
<polygon fill="black" stroke="black" points="70.307,-231.5 60.3069,-235 70.3069,-238.5 70.307,-231.5"/>
</g>
<!-- Node5 -->
<g id="node8" class="node"><title>Node5</title>
<g id="a_node8"><a xlink:href="a00527.html" target="_top" xlink:title="FIR Lowpass Filter\l Example">
<polygon fill="white" stroke="black" points="107,-176 107,-206 207,-206 207,-176 107,-176"/>
<text text-anchor="start" x="115" y="-194" font-family="Helvetica,sans-Serif" font-size="10.00">FIR Lowpass Filter</text>
<text text-anchor="middle" x="157" y="-183" font-family="Helvetica,sans-Serif" font-size="10.00"> Example</text>
</a>
</g>
</g>
<!-- Node0&#45;&gt;Node5 -->
<g id="edge5" class="edge"><title>Node0&#45;&gt;Node5</title>
<path fill="none" stroke="black" d="M67.6148,-222.112C81.8987,-217.084 98.3736,-211.285 113.201,-206.065"/>
<polygon fill="black" stroke="black" points="66.3937,-218.831 58.1231,-225.453 68.718,-225.434 66.3937,-218.831"/>
</g>
<!-- Node3 -->
<g id="node9" class="node"><title>Node3</title>
<g id="a_node9"><a xlink:href="a00525.html" target="_top" xlink:title="Dot Product Example">
<polygon fill="white" stroke="black" points="102,-137.5 102,-156.5 212,-156.5 212,-137.5 102,-137.5"/>
<text text-anchor="middle" x="157" y="-144.5" font-family="Helvetica,sans-Serif" font-size="10.00">Dot Product Example</text>
</a>
</g>
</g>
<!-- Node0&#45;&gt;Node3 -->
<g id="edge3" class="edge"><title>Node0&#45;&gt;Node3</title>
<path fill="none" stroke="black" d="M44.0517,-217.072C56.0134,-201.809 75.0127,-180.3 96,-167 102.678,-162.768 110.345,-159.335 117.918,-156.585"/>
<polygon fill="black" stroke="black" points="41.1192,-215.146 37.8603,-225.228 46.6946,-219.379 41.1192,-215.146"/>
</g>
<!-- Node7 -->
<g id="node10" class="node"><title>Node7</title>
<g id="a_node10"><a xlink:href="a00529.html" target="_top" xlink:title="Linear Interpolate\l Example">
<polygon fill="white" stroke="black" points="111,-88 111,-118 203,-118 203,-88 111,-88"/>
<text text-anchor="start" x="119" y="-106" font-family="Helvetica,sans-Serif" font-size="10.00">Linear Interpolate</text>
<text text-anchor="middle" x="157" y="-95" font-family="Helvetica,sans-Serif" font-size="10.00"> Example</text>
</a>
</g>
</g>
<!-- Node0&#45;&gt;Node7 -->
<g id="edge7" class="edge"><title>Node0&#45;&gt;Node7</title>
<path fill="none" stroke="black" d="M38.2945,-215.747C48.1176,-192.153 67.6939,-152.322 96,-128 100.451,-124.176 105.569,-120.874 110.9,-118.039"/>
<polygon fill="black" stroke="black" points="34.9257,-214.746 34.4711,-225.331 41.4274,-217.339 34.9257,-214.746"/>
</g>
<!-- Node6 -->
<g id="node11" class="node"><title>Node6</title>
<g id="a_node11"><a xlink:href="a00528.html" target="_top" xlink:title="Graphic Audio Equalizer\l Example">
<polygon fill="white" stroke="black" points="96,-39 96,-69 218,-69 218,-39 96,-39"/>
<text text-anchor="start" x="104" y="-57" font-family="Helvetica,sans-Serif" font-size="10.00">Graphic Audio Equalizer</text>
<text text-anchor="middle" x="157" y="-46" font-family="Helvetica,sans-Serif" font-size="10.00"> Example</text>
</a>
</g>
</g>
<!-- Node0&#45;&gt;Node6 -->
<g id="edge6" class="edge"><title>Node0&#45;&gt;Node6</title>
<path fill="none" stroke="black" d="M34.26,-215.076C40.5724,-182.498 57.3982,-117.602 96,-79 99.8302,-75.1698 104.333,-71.8971 109.123,-69.1074"/>
<polygon fill="black" stroke="black" points="30.7727,-214.693 32.4472,-225.155 37.6622,-215.932 30.7727,-214.693"/>
</g>
<!-- Node8 -->
<g id="node12" class="node"><title>Node8</title>
<g id="a_node12"><a xlink:href="a00530.html" target="_top" xlink:title="Matrix Example">
<polygon fill="white" stroke="black" points="114.5,-0.5 114.5,-19.5 199.5,-19.5 199.5,-0.5 114.5,-0.5"/>
<text text-anchor="middle" x="157" y="-7.5" font-family="Helvetica,sans-Serif" font-size="10.00">Matrix Example</text>
</a>
</g>
</g>
<!-- Node0&#45;&gt;Node8 -->
<g id="edge8" class="edge"><title>Node0&#45;&gt;Node8</title>
<path fill="none" stroke="black" d="M31.5699,-215.15C33.81,-174.698 44.609,-82.1523 96,-30 101.087,-24.8381 107.538,-21.0085 114.313,-18.1673"/>
<polygon fill="black" stroke="black" points="28.066,-215.168 31.1321,-225.309 35.0595,-215.469 28.066,-215.168"/>
</g>
</g>
</svg>
        <g id="navigator" transform="translate(0 0)" fill="#404254">
                <rect fill="#f2f5e9" fill-opacity="0.5" stroke="#606060" stroke-width=".5" x="0" y="0" width="60" height="60"/>
                <use id="zoomplus" xlink:href="#zoomPlus" x="17" y="9" onmousedown="handleZoom(evt,'in')"/>
                <use id="zoomminus" xlink:href="#zoomMin" x="42" y="9" onmousedown="handleZoom(evt,'out')"/>
                <use id="reset" xlink:href="#resetDef" x="30" y="36" onmousedown="handleReset()"/>
                <g id="arrowUp" xlink:href="#dirArrow" transform="translate(30 24)" onmousedown="handlePan(0,-1)">
                  <use xlink:href="#rim" fill="#404040">
                        <set attributeName="fill" to="#808080" begin="arrowUp.mouseover" end="arrowUp.mouseout"/>
                  </use>
                  <path fill="none" stroke="white" stroke-width="1.5" d="M0,-3.0v7 M-2.5,-0.5L0,-3.0L2.5,-0.5"/>
                </g>
                <g id="arrowRight" xlink:href="#dirArrow" transform="rotate(90) translate(36 -43)" onmousedown="handlePan(1,0)">
                  <use xlink:href="#rim" fill="#404040">
                        <set attributeName="fill" to="#808080" begin="arrowRight.mouseover" end="arrowRight.mouseout"/>
                  </use>
                  <path fill="none" stroke="white" stroke-width="1.5" d="M0,-3.0v7 M-2.5,-0.5L0,-3.0L2.5,-0.5"/>
                </g>
                <g id="arrowDown" xlink:href="#dirArrow" transform="rotate(180) translate(-30 -48)" onmousedown="handlePan(0,1)">
                  <use xlink:href="#rim" fill="#404040">
                        <set attributeName="fill" to="#808080" begin="arrowDown.mouseover" end="arrowDown.mouseout"/>
                  </use>
                  <path fill="none" stroke="white" stroke-width="1.5" d="M0,-3.0v7 M-2.5,-0.5L0,-3.0L2.5,-0.5"/>
                </g>
                <g id="arrowLeft" xlink:href="#dirArrow" transform="rotate(270) translate(-36 17)" onmousedown="handlePan(-1,0)">
                  <use xlink:href="#rim" fill="#404040">
                        <set attributeName="fill" to="#808080" begin="arrowLeft.mouseover" end="arrowLeft.mouseout"/>
                  </use>
                  <path fill="none" stroke="white" stroke-width="1.5" d="M0,-3.0v7 M-2.5,-0.5L0,-3.0L2.5,-0.5"/>
                </g>
        </g>
        <svg viewBox="0 0 15 15" width="100%" height="30px" preserveAspectRatio="xMaxYMin meet">
         <g id="arrow_out" transform="scale(0.3 0.3)">
          <a xlink:href="a00501_org.svg" target="_base">
           <rect id="button" ry="5" rx="5" y="6" x="6" height="38" width="38"
                fill="#f2f5e9" fill-opacity="0.5" stroke="#606060" stroke-width="1.0"/>
           <path id="arrow"
             d="M 11.500037,31.436501 C 11.940474,20.09759 22.043105,11.32322 32.158766,21.979434 L 37.068811,17.246167 C 37.068811,17.246167 37.088388,32 37.088388,32 L 22.160133,31.978069 C 22.160133,31.978069 26.997745,27.140456 26.997745,27.140456 C 18.528582,18.264221 13.291696,25.230495 11.500037,31.436501 z"
             style="fill:#404040;"/>
          </a>
         </g>
        </svg>
</svg>
