<?xml version="1.0" encoding="UTF-8" standalone="no"?>
<!DOCTYPE svg PUBLIC "-//W3C//DTD SVG 1.1//EN"
 "http://www.w3.org/Graphics/SVG/1.1/DTD/svg11.dtd">
<!-- Generated by graphviz version 2.38.0 (20140413.2041)
 -->
<!-- Title: USART_Exported_Constants Pages: 1 -->
<svg width="427pt" height="584pt"
 viewBox="0.00 0.00 427.00 584.00" xmlns="http://www.w3.org/2000/svg" xmlns:xlink="http://www.w3.org/1999/xlink">
<g id="graph0" class="graph" transform="scale(1 1) rotate(0) translate(4 580)">
<title>USART_Exported_Constants</title>
<polygon fill="white" stroke="none" points="-4,4 -4,-580 423,-580 423,4 -4,4"/>
<!-- Node8 -->
<g id="node1" class="node"><title>Node8</title>
<g id="a_node1"><a xlink:href="a00535.html" target="_top" xlink:title="USART_Clock_Polarity">
<polygon fill="white" stroke="black" points="284,-556.5 284,-575.5 404,-575.5 404,-556.5 284,-556.5"/>
<text text-anchor="middle" x="344" y="-563.5" font-family="Helvetica,sans-Serif" font-size="10.00">USART_Clock_Polarity</text>
</a>
</g>
</g>
<!-- Node5 -->
<g id="node2" class="node"><title>Node5</title>
<g id="a_node2"><a xlink:href="a00532.html" target="_top" xlink:title="USART_Mode">
<polygon fill="white" stroke="black" points="304,-518.5 304,-537.5 384,-537.5 384,-518.5 304,-518.5"/>
<text text-anchor="middle" x="344" y="-525.5" font-family="Helvetica,sans-Serif" font-size="10.00">USART_Mode</text>
</a>
</g>
</g>
<!-- Node7 -->
<g id="node3" class="node"><title>Node7</title>
<g id="a_node3"><a xlink:href="a00534.html" target="_top" xlink:title="USART_Clock">
<polygon fill="white" stroke="black" points="303,-480.5 303,-499.5 385,-499.5 385,-480.5 303,-480.5"/>
<text text-anchor="middle" x="344" y="-487.5" font-family="Helvetica,sans-Serif" font-size="10.00">USART_Clock</text>
</a>
</g>
</g>
<!-- Node10 -->
<g id="node4" class="node"><title>Node10</title>
<g id="a_node4"><a xlink:href="a00537.html" target="_top" xlink:title="USART_Last_Bit">
<polygon fill="white" stroke="black" points="298,-442.5 298,-461.5 390,-461.5 390,-442.5 298,-442.5"/>
<text text-anchor="middle" x="344" y="-449.5" font-family="Helvetica,sans-Serif" font-size="10.00">USART_Last_Bit</text>
</a>
</g>
</g>
<!-- Node4 -->
<g id="node5" class="node"><title>Node4</title>
<g id="a_node5"><a xlink:href="a00531.html" target="_top" xlink:title="USART_Parity">
<polygon fill="white" stroke="black" points="303,-404.5 303,-423.5 385,-423.5 385,-404.5 303,-404.5"/>
<text text-anchor="middle" x="344" y="-411.5" font-family="Helvetica,sans-Serif" font-size="10.00">USART_Parity</text>
</a>
</g>
</g>
<!-- Node16 -->
<g id="node6" class="node"><title>Node16</title>
<g id="a_node6"><a xlink:href="a00544.html" target="_top" xlink:title="USART_Flags">
<polygon fill="white" stroke="black" points="304,-366.5 304,-385.5 384,-385.5 384,-366.5 304,-366.5"/>
<text text-anchor="middle" x="344" y="-373.5" font-family="Helvetica,sans-Serif" font-size="10.00">USART_Flags</text>
</a>
</g>
</g>
<!-- Node15 -->
<g id="node7" class="node"><title>Node15</title>
<g id="a_node7"><a xlink:href="a00543.html" target="_top" xlink:title="USART_IrDA_Low_Power">
<polygon fill="white" stroke="black" points="277.5,-328.5 277.5,-347.5 410.5,-347.5 410.5,-328.5 277.5,-328.5"/>
<text text-anchor="middle" x="344" y="-335.5" font-family="Helvetica,sans-Serif" font-size="10.00">USART_IrDA_Low_Power</text>
</a>
</g>
</g>
<!-- Node11 -->
<g id="node8" class="node"><title>Node11</title>
<g id="a_node8"><a xlink:href="a00538.html" target="_top" xlink:title="USART_Interrupt_definition">
<polygon fill="white" stroke="black" points="275.5,-290.5 275.5,-309.5 412.5,-309.5 412.5,-290.5 275.5,-290.5"/>
<text text-anchor="middle" x="344" y="-297.5" font-family="Helvetica,sans-Serif" font-size="10.00">USART_Interrupt_definition</text>
</a>
</g>
</g>
<!-- Node6 -->
<g id="node9" class="node"><title>Node6</title>
<g id="a_node9"><a xlink:href="a00533.html" target="_top" xlink:title="USART_Hardware_Flow\l_Control">
<polygon fill="white" stroke="black" points="281.5,-241 281.5,-271 406.5,-271 406.5,-241 281.5,-241"/>
<text text-anchor="start" x="289.5" y="-259" font-family="Helvetica,sans-Serif" font-size="10.00">USART_Hardware_Flow</text>
<text text-anchor="middle" x="344" y="-248" font-family="Helvetica,sans-Serif" font-size="10.00">_Control</text>
</a>
</g>
</g>
<!-- Node2 -->
<g id="node10" class="node"><title>Node2</title>
<g id="a_node10"><a xlink:href="a00529.html" target="_top" xlink:title="USART_Word_Length">
<polygon fill="white" stroke="black" points="287,-202.5 287,-221.5 401,-221.5 401,-202.5 287,-202.5"/>
<text text-anchor="middle" x="344" y="-209.5" font-family="Helvetica,sans-Serif" font-size="10.00">USART_Word_Length</text>
</a>
</g>
</g>
<!-- Node1 -->
<g id="node11" class="node"><title>Node1</title>
<g id="a_node11"><a xlink:href="a00029.html" target="_top" xlink:title="USART driver modules. ">
<polygon fill="white" stroke="black" points="0,-290.5 0,-309.5 51,-309.5 51,-290.5 0,-290.5"/>
<text text-anchor="middle" x="25.5" y="-297.5" font-family="Helvetica,sans-Serif" font-size="10.00">USART</text>
</a>
</g>
</g>
<!-- Node0 -->
<g id="node13" class="node"><title>Node0</title>
<polygon fill="#bfbfbf" stroke="black" points="87,-290.5 87,-309.5 233,-309.5 233,-290.5 87,-290.5"/>
<text text-anchor="middle" x="160" y="-297.5" font-family="Helvetica,sans-Serif" font-size="10.00">USART_Exported_Constants</text>
</g>
<!-- Node1&#45;&gt;Node0 -->
<g id="edge1" class="edge"><title>Node1&#45;&gt;Node0</title>
<path fill="none" stroke="black" d="M61.1285,-300C69.1442,-300 77.9667,-300 86.9324,-300"/>
<polygon fill="black" stroke="black" points="61.1117,-296.5 51.1117,-300 61.1117,-303.5 61.1117,-296.5"/>
</g>
<!-- Node12 -->
<g id="node12" class="node"><title>Node12</title>
<g id="a_node12"><a xlink:href="a00540.html" target="_top" xlink:title="USART_DMA_Requests">
<polygon fill="white" stroke="black" points="281,-164.5 281,-183.5 407,-183.5 407,-164.5 281,-164.5"/>
<text text-anchor="middle" x="344" y="-171.5" font-family="Helvetica,sans-Serif" font-size="10.00">USART_DMA_Requests</text>
</a>
</g>
</g>
<!-- Node0&#45;&gt;Node8 -->
<g id="edge8" class="edge"><title>Node0&#45;&gt;Node8</title>
<path fill="none" stroke="black" d="M163.69,-319.613C171.183,-366.453 196.717,-485.501 269,-547 273.546,-550.868 278.78,-553.963 284.321,-556.437"/>
<polygon fill="black" stroke="black" points="167.129,-318.944 162.189,-309.572 160.206,-319.98 167.129,-318.944"/>
</g>
<!-- Node0&#45;&gt;Node5 -->
<g id="edge5" class="edge"><title>Node0&#45;&gt;Node5</title>
<path fill="none" stroke="black" d="M165.4,-319.653C175.773,-361.284 205.788,-458.654 269,-509 278.856,-516.85 291.588,-521.491 303.704,-524.223"/>
<polygon fill="black" stroke="black" points="168.749,-318.607 163.032,-309.688 161.939,-320.226 168.749,-318.607"/>
</g>
<!-- Node0&#45;&gt;Node7 -->
<g id="edge7" class="edge"><title>Node0&#45;&gt;Node7</title>
<path fill="none" stroke="black" d="M167.631,-319.208C180.957,-354.87 214.466,-431.288 269,-471 278.864,-478.183 291.196,-482.658 302.947,-485.442"/>
<polygon fill="black" stroke="black" points="170.827,-317.754 164.142,-309.535 164.242,-320.129 170.827,-317.754"/>
</g>
<!-- Node0&#45;&gt;Node10 -->
<g id="edge10" class="edge"><title>Node0&#45;&gt;Node10</title>
<path fill="none" stroke="black" d="M171.056,-318.93C187.53,-348.054 223.08,-403.564 269,-433 277.598,-438.512 287.719,-442.427 297.668,-445.207"/>
<polygon fill="black" stroke="black" points="173.927,-316.887 166.039,-309.814 167.795,-320.263 173.927,-316.887"/>
</g>
<!-- Node0&#45;&gt;Node4 -->
<g id="edge4" class="edge"><title>Node0&#45;&gt;Node4</title>
<path fill="none" stroke="black" d="M175.939,-317.432C195.268,-338.878 230.997,-374.906 269,-395 279.436,-400.518 291.56,-404.496 302.936,-407.337"/>
<polygon fill="black" stroke="black" points="178.384,-314.914 169.141,-309.734 173.137,-319.547 178.384,-314.914"/>
</g>
<!-- Node0&#45;&gt;Node16 -->
<g id="edge16" class="edge"><title>Node0&#45;&gt;Node16</title>
<path fill="none" stroke="black" d="M185.288,-314.939C206.683,-327.575 239.022,-345.425 269,-357 280.013,-361.252 292.312,-364.844 303.672,-367.721"/>
<polygon fill="black" stroke="black" points="186.929,-311.842 176.551,-309.708 183.333,-317.848 186.929,-311.842"/>
</g>
<!-- Node0&#45;&gt;Node15 -->
<g id="edge15" class="edge"><title>Node0&#45;&gt;Node15</title>
<path fill="none" stroke="black" d="M216.946,-311.681C242.756,-317.07 273.007,-323.386 297.404,-328.48"/>
<polygon fill="black" stroke="black" points="217.431,-308.207 206.926,-309.589 216,-315.059 217.431,-308.207"/>
</g>
<!-- Node0&#45;&gt;Node11 -->
<g id="edge11" class="edge"><title>Node0&#45;&gt;Node11</title>
<path fill="none" stroke="black" d="M243.376,-300C254.069,-300 264.921,-300 275.337,-300"/>
<polygon fill="black" stroke="black" points="243.193,-296.5 233.193,-300 243.193,-303.5 243.193,-296.5"/>
</g>
<!-- Node0&#45;&gt;Node6 -->
<g id="edge6" class="edge"><title>Node0&#45;&gt;Node6</title>
<path fill="none" stroke="black" d="M210.246,-288.094C232.163,-282.796 258.205,-276.5 281.395,-270.894"/>
<polygon fill="black" stroke="black" points="209.389,-284.701 200.491,-290.453 211.034,-291.505 209.389,-284.701"/>
</g>
<!-- Node0&#45;&gt;Node2 -->
<g id="edge2" class="edge"><title>Node0&#45;&gt;Node2</title>
<path fill="none" stroke="black" d="M181.348,-284.19C202.271,-268.631 236.324,-245.199 269,-231 277.637,-227.247 287.175,-224.114 296.451,-221.546"/>
<polygon fill="black" stroke="black" points="179.096,-281.505 173.228,-290.326 183.316,-287.09 179.096,-281.505"/>
</g>
<!-- Node0&#45;&gt;Node12 -->
<g id="edge12" class="edge"><title>Node0&#45;&gt;Node12</title>
<path fill="none" stroke="black" d="M174.068,-282.085C192.514,-258.119 228.491,-215.981 269,-193 275.807,-189.138 283.406,-186.048 291.072,-183.577"/>
<polygon fill="black" stroke="black" points="171.1,-280.208 167.884,-290.303 176.693,-284.417 171.1,-280.208"/>
</g>
<!-- Node3 -->
<g id="node14" class="node"><title>Node3</title>
<g id="a_node14"><a xlink:href="a00530.html" target="_top" xlink:title="USART_Stop_Bits">
<polygon fill="white" stroke="black" points="294.5,-126.5 294.5,-145.5 393.5,-145.5 393.5,-126.5 294.5,-126.5"/>
<text text-anchor="middle" x="344" y="-133.5" font-family="Helvetica,sans-Serif" font-size="10.00">USART_Stop_Bits</text>
</a>
</g>
</g>
<!-- Node0&#45;&gt;Node3 -->
<g id="edge3" class="edge"><title>Node0&#45;&gt;Node3</title>
<path fill="none" stroke="black" d="M169.716,-281.142C185.145,-249.916 220.29,-187.682 269,-155 276.6,-149.901 285.479,-146.17 294.395,-143.441"/>
<polygon fill="black" stroke="black" points="166.418,-279.925 165.249,-290.455 172.729,-282.953 166.418,-279.925"/>
</g>
<!-- Node13 -->
<g id="node15" class="node"><title>Node13</title>
<g id="a_node15"><a xlink:href="a00541.html" target="_top" xlink:title="USART_WakeUp_methods">
<polygon fill="white" stroke="black" points="275.5,-88.5 275.5,-107.5 412.5,-107.5 412.5,-88.5 275.5,-88.5"/>
<text text-anchor="middle" x="344" y="-95.5" font-family="Helvetica,sans-Serif" font-size="10.00">USART_WakeUp_methods</text>
</a>
</g>
</g>
<!-- Node0&#45;&gt;Node13 -->
<g id="edge13" class="edge"><title>Node0&#45;&gt;Node13</title>
<path fill="none" stroke="black" d="M166.895,-280.484C179.311,-242.803 211.828,-159.967 269,-117 274.196,-113.095 280.113,-109.989 286.287,-107.519"/>
<polygon fill="black" stroke="black" points="163.487,-279.651 163.801,-290.241 170.16,-281.767 163.487,-279.651"/>
</g>
<!-- Node14 -->
<g id="node16" class="node"><title>Node14</title>
<g id="a_node16"><a xlink:href="a00542.html" target="_top" xlink:title="USART_LIN_Break_Detection\l_Length">
<polygon fill="white" stroke="black" points="269,-39 269,-69 419,-69 419,-39 269,-39"/>
<text text-anchor="start" x="277" y="-57" font-family="Helvetica,sans-Serif" font-size="10.00">USART_LIN_Break_Detection</text>
<text text-anchor="middle" x="344" y="-46" font-family="Helvetica,sans-Serif" font-size="10.00">_Length</text>
</a>
</g>
</g>
<!-- Node0&#45;&gt;Node14 -->
<g id="edge14" class="edge"><title>Node0&#45;&gt;Node14</title>
<path fill="none" stroke="black" d="M165.154,-280.482C175.254,-237.73 205.103,-135.157 269,-79 273.38,-75.1506 278.376,-71.8891 283.658,-69.1265"/>
<polygon fill="black" stroke="black" points="161.696,-279.91 162.909,-290.435 168.524,-281.45 161.696,-279.91"/>
</g>
<!-- Node9 -->
<g id="node17" class="node"><title>Node9</title>
<g id="a_node17"><a xlink:href="a00536.html" target="_top" xlink:title="USART_Clock_Phase">
<polygon fill="white" stroke="black" points="286.5,-0.5 286.5,-19.5 401.5,-19.5 401.5,-0.5 286.5,-0.5"/>
<text text-anchor="middle" x="344" y="-7.5" font-family="Helvetica,sans-Serif" font-size="10.00">USART_Clock_Phase</text>
</a>
</g>
</g>
<!-- Node0&#45;&gt;Node9 -->
<g id="edge9" class="edge"><title>Node0&#45;&gt;Node9</title>
<path fill="none" stroke="black" d="M162.867,-280.205C168.677,-230.139 191.03,-97.5843 269,-29 274.079,-24.5322 280.072,-21.0904 286.412,-18.4432"/>
<polygon fill="black" stroke="black" points="159.367,-280.02 161.791,-290.334 166.327,-280.759 159.367,-280.02"/>
</g>
</g>
</svg>
