<?xml version="1.0" encoding="UTF-8" standalone="no"?>
<!DOCTYPE svg PUBLIC "-//W3C//DTD SVG 1.1//EN"
 "http://www.w3.org/Graphics/SVG/1.1/DTD/svg11.dtd">
<!-- Generated by graphviz version 2.38.0 (20140413.2041)
 -->
<!-- Title: arm_max_f32 Pages: 1 -->
<svg width="337pt" height="104pt"
 viewBox="0.00 0.00 337.00 104.00" xmlns="http://www.w3.org/2000/svg" xmlns:xlink="http://www.w3.org/1999/xlink">
<g id="graph0" class="graph" transform="scale(1 1) rotate(0) translate(4 100)">
<title>arm_max_f32</title>
<polygon fill="white" stroke="none" points="-4,4 -4,-100 333,-100 333,4 -4,4"/>
<!-- Node1 -->
<g id="node1" class="node"><title>Node1</title>
<polygon fill="#bfbfbf" stroke="black" points="0,-38.5 0,-57.5 76,-57.5 76,-38.5 0,-38.5"/>
<text text-anchor="middle" x="38" y="-45.5" font-family="Helvetica,sans-Serif" font-size="10.00">arm_max_f32</text>
</g>
<!-- Node2 -->
<g id="node2" class="node"><title>Node2</title>
<g id="a_node2"><a xlink:href="a00508.html#ga56a40d1cf842b0b45267df6761975da0" target="_top" xlink:title="Floating&#45;point square root function. ">
<polygon fill="white" stroke="black" points="112,-38.5 112,-57.5 186,-57.5 186,-38.5 112,-38.5"/>
<text text-anchor="middle" x="149" y="-45.5" font-family="Helvetica,sans-Serif" font-size="10.00">arm_sqrt_f32</text>
</a>
</g>
</g>
<!-- Node1&#45;&gt;Node2 -->
<g id="edge1" class="edge"><title>Node1&#45;&gt;Node2</title>
<path fill="none" stroke="midnightblue" d="M86.3836,-48C94.8684,-48 103.587,-48 111.699,-48"/>
<polygon fill="midnightblue" stroke="midnightblue" points="86.2068,-44.5001 76.2068,-48 86.2067,-51.5001 86.2068,-44.5001"/>
</g>
<!-- Node3 -->
<g id="node3" class="node"><title>Node3</title>
<g id="a_node3"><a xlink:href="a00545.html#gae45024c497392cde2ae358a76d435213" target="_top" xlink:title="Floating&#45;point complex magnitude. ">
<polygon fill="white" stroke="black" points="222,-76.5 222,-95.5 329,-95.5 329,-76.5 222,-76.5"/>
<text text-anchor="middle" x="275.5" y="-83.5" font-family="Helvetica,sans-Serif" font-size="10.00">arm_cmplx_mag_f32</text>
</a>
</g>
</g>
<!-- Node2&#45;&gt;Node3 -->
<g id="edge2" class="edge"><title>Node2&#45;&gt;Node3</title>
<path fill="none" stroke="midnightblue" d="M195.861,-55.4601C217.844,-61.5877 242.763,-69.8079 258.548,-76.4368"/>
<polygon fill="midnightblue" stroke="midnightblue" points="196.577,-52.0282 186.011,-52.8052 194.755,-58.787 196.577,-52.0282"/>
</g>
<!-- Node4 -->
<g id="node4" class="node"><title>Node4</title>
<g id="a_node4"><a xlink:href="a00578.html#ga0e3ab1b57da32d45388d1fa90d7fd88c" target="_top" xlink:title="Root Mean Square of the elements of a floating&#45;point vector. ">
<polygon fill="white" stroke="black" points="238.5,-38.5 238.5,-57.5 312.5,-57.5 312.5,-38.5 238.5,-38.5"/>
<text text-anchor="middle" x="275.5" y="-45.5" font-family="Helvetica,sans-Serif" font-size="10.00">arm_rms_f32</text>
</a>
</g>
</g>
<!-- Node2&#45;&gt;Node4 -->
<g id="edge4" class="edge"><title>Node2&#45;&gt;Node4</title>
<path fill="none" stroke="midnightblue" d="M196.306,-41.4508C210.12,-41.0958 225.058,-41.2116 238.139,-41.7982"/>
<polygon fill="midnightblue" stroke="midnightblue" points="195.881,-37.9635 186.011,-41.814 196.128,-44.9591 195.881,-37.9635"/>
</g>
<!-- Node5 -->
<g id="node5" class="node"><title>Node5</title>
<g id="a_node5"><a xlink:href="a00579.html#ga4969b5b5f3d001377bc401a3ee99dfc2" target="_top" xlink:title="Standard deviation of the elements of a floating&#45;point vector. ">
<polygon fill="white" stroke="black" points="240,-0.5 240,-19.5 311,-19.5 311,-0.5 240,-0.5"/>
<text text-anchor="middle" x="275.5" y="-7.5" font-family="Helvetica,sans-Serif" font-size="10.00">arm_std_f32</text>
</a>
</g>
</g>
<!-- Node2&#45;&gt;Node5 -->
<g id="edge6" class="edge"><title>Node2&#45;&gt;Node5</title>
<path fill="none" stroke="midnightblue" d="M175.323,-34.7126C193.945,-27.6549 219.472,-19.6776 239.964,-14.4248"/>
<polygon fill="midnightblue" stroke="midnightblue" points="174.023,-31.4631 166.021,-38.4076 176.607,-37.9686 174.023,-31.4631"/>
</g>
<!-- Node3&#45;&gt;Node2 -->
<g id="edge3" class="edge"><title>Node3&#45;&gt;Node2</title>
<path fill="none" stroke="midnightblue" d="M211.888,-73.6393C194.866,-68.4343 177.88,-62.5673 166.021,-57.5924"/>
<polygon fill="midnightblue" stroke="midnightblue" points="211.292,-77.114 221.876,-76.6157 213.292,-70.4055 211.292,-77.114"/>
</g>
<!-- Node4&#45;&gt;Node2 -->
<g id="edge5" class="edge"><title>Node4&#45;&gt;Node2</title>
<path fill="none" stroke="midnightblue" d="M227.823,-54.5586C213.989,-54.9052 199.059,-54.781 186.011,-54.186"/>
<polygon fill="midnightblue" stroke="midnightblue" points="228.266,-58.0455 238.139,-54.2018 228.024,-51.0497 228.266,-58.0455"/>
</g>
<!-- Node5&#45;&gt;Node2 -->
<g id="edge7" class="edge"><title>Node5&#45;&gt;Node2</title>
<path fill="none" stroke="midnightblue" d="M249.197,-23.2798C231.017,-30.1711 206.249,-37.9405 186.011,-43.1948"/>
<polygon fill="midnightblue" stroke="midnightblue" points="250.548,-26.5092 258.548,-19.5632 247.962,-20.0041 250.548,-26.5092"/>
</g>
</g>
</svg>
