<?xml version="1.0" encoding="UTF-8" standalone="no"?>
<!DOCTYPE svg PUBLIC "-//W3C//DTD SVG 1.1//EN"
 "http://www.w3.org/Graphics/SVG/1.1/DTD/svg11.dtd">
<!-- Generated by graphviz version 2.38.0 (20140413.2041)
 -->
<!-- Title: TM_USART_Puts Pages: 1 -->
<svg width="836pt" height="897pt"
 viewBox="0.00 0.00 836.00 896.75" xmlns="http://www.w3.org/2000/svg" xmlns:xlink="http://www.w3.org/1999/xlink">
<g id="graph0" class="graph" transform="scale(1 1) rotate(0) translate(4 892.754)">
<title>TM_USART_Puts</title>
<polygon fill="white" stroke="none" points="-4,4 -4,-892.754 832,-892.754 832,4 -4,4"/>
<!-- Node1 -->
<g id="node1" class="node"><title>Node1</title>
<polygon fill="#bfbfbf" stroke="black" points="0,-487.5 0,-506.5 96,-506.5 96,-487.5 0,-487.5"/>
<text text-anchor="middle" x="48" y="-494.5" font-family="Helvetica,sans-Serif" font-size="10.00">TM_USART_Puts</text>
</g>
<!-- Node2 -->
<g id="node2" class="node"><title>Node2</title>
<g id="a_node2"><a xlink:href="a00580.html#gab807a241fae0eae0d5434bae20a3569f" target="_top" xlink:title="Puts character to USART port. ">
<polygon fill="white" stroke="black" points="139,-487.5 139,-506.5 235,-506.5 235,-487.5 139,-487.5"/>
<text text-anchor="middle" x="187" y="-494.5" font-family="Helvetica,sans-Serif" font-size="10.00">TM_USART_Putc</text>
</a>
</g>
</g>
<!-- Node1&#45;&gt;Node2 -->
<g id="edge1" class="edge"><title>Node1&#45;&gt;Node2</title>
<path fill="none" stroke="midnightblue" d="M96.1476,-490.55C106.588,-490.248 117.764,-490.174 128.563,-490.329"/>
<polygon fill="midnightblue" stroke="midnightblue" points="128.693,-493.832 138.765,-490.548 128.843,-486.834 128.693,-493.832"/>
</g>
<!-- Node13 -->
<g id="node13" class="node"><title>Node13</title>
<g id="a_node13"><a xlink:href="a00580.html#gafbf9e2222953815c9f35cd46863dbc26" target="_top" xlink:title="Callback function for receive interrupt on USART1 in case you have enabled custom USART handler mode...">
<polygon fill="white" stroke="black" points="496,-380.5 496,-399.5 647,-399.5 647,-380.5 496,-380.5"/>
<text text-anchor="middle" x="571.5" y="-387.5" font-family="Helvetica,sans-Serif" font-size="10.00">TM_USART1_ReceiveHandler</text>
</a>
</g>
</g>
<!-- Node1&#45;&gt;Node13 -->
<g id="edge40" class="edge"><title>Node1&#45;&gt;Node13</title>
<path fill="none" stroke="midnightblue" d="M61.9918,-487.148C95.5053,-462.43 188.53,-398.184 278,-376 360.098,-355.644 459.029,-367.66 518.237,-378.569"/>
<polygon fill="midnightblue" stroke="midnightblue" points="517.625,-382.015 528.103,-380.444 518.933,-375.138 517.625,-382.015"/>
</g>
<!-- Node14 -->
<g id="node14" class="node"><title>Node14</title>
<g id="a_node14"><a xlink:href="a00580.html#ga21823124b3d98ea2085671f4a5af6017" target="_top" xlink:title="Callback function for receive interrupt on USART2 in case you have enabled custom USART handler mode...">
<polygon fill="white" stroke="black" points="496,-866.5 496,-885.5 647,-885.5 647,-866.5 496,-866.5"/>
<text text-anchor="middle" x="571.5" y="-873.5" font-family="Helvetica,sans-Serif" font-size="10.00">TM_USART2_ReceiveHandler</text>
</a>
</g>
</g>
<!-- Node1&#45;&gt;Node14 -->
<g id="edge41" class="edge"><title>Node1&#45;&gt;Node14</title>
<path fill="none" stroke="midnightblue" d="M48.5812,-506.583C47.3401,-547.516 48.0884,-709.448 132,-794 224.434,-887.139 386.592,-892.911 485.693,-886.163"/>
<polygon fill="midnightblue" stroke="midnightblue" points="485.96,-889.653 495.675,-885.427 485.444,-882.672 485.96,-889.653"/>
</g>
<!-- Node15 -->
<g id="node15" class="node"><title>Node15</title>
<g id="a_node15"><a xlink:href="a00580.html#ga868eb8844f04487e714b63b016a93bae" target="_top" xlink:title="Callback function for receive interrupt on USART3 in case you have enabled custom USART handler mode...">
<polygon fill="white" stroke="black" points="496,-790.5 496,-809.5 647,-809.5 647,-790.5 496,-790.5"/>
<text text-anchor="middle" x="571.5" y="-797.5" font-family="Helvetica,sans-Serif" font-size="10.00">TM_USART3_ReceiveHandler</text>
</a>
</g>
</g>
<!-- Node1&#45;&gt;Node15 -->
<g id="edge42" class="edge"><title>Node1&#45;&gt;Node15</title>
<path fill="none" stroke="midnightblue" d="M48.9186,-506.675C49.1613,-544.549 55.4095,-683.994 132,-752 240.491,-848.331 428.553,-828.373 519,-811.486"/>
<polygon fill="midnightblue" stroke="midnightblue" points="519.856,-814.885 529.012,-809.554 518.53,-808.012 519.856,-814.885"/>
</g>
<!-- Node16 -->
<g id="node16" class="node"><title>Node16</title>
<g id="a_node16"><a xlink:href="a00580.html#gada9d723469cf9d7d0ac11930b8e14f2a" target="_top" xlink:title="Callback function for receive interrupt on UART4 in case you have enabled custom USART handler mode...">
<polygon fill="white" stroke="black" points="499.5,-76.5 499.5,-95.5 643.5,-95.5 643.5,-76.5 499.5,-76.5"/>
<text text-anchor="middle" x="571.5" y="-83.5" font-family="Helvetica,sans-Serif" font-size="10.00">TM_UART4_ReceiveHandler</text>
</a>
</g>
</g>
<!-- Node1&#45;&gt;Node16 -->
<g id="edge43" class="edge"><title>Node1&#45;&gt;Node16</title>
<path fill="none" stroke="midnightblue" d="M50.5394,-487.45C59.7321,-433.981 112.691,-170.662 278,-73 359.746,-24.7061 477.918,-53.8062 535.843,-73.0721"/>
<polygon fill="midnightblue" stroke="midnightblue" points="535.01,-76.4862 545.605,-76.4171 537.279,-69.8643 535.01,-76.4862"/>
</g>
<!-- Node17 -->
<g id="node17" class="node"><title>Node17</title>
<g id="a_node17"><a xlink:href="a00580.html#ga4338d265fa58103332ea234f63594b81" target="_top" xlink:title="Callback function for receive interrupt on UART5 in case you have enabled custom USART handler mode...">
<polygon fill="white" stroke="black" points="499.5,-714.5 499.5,-733.5 643.5,-733.5 643.5,-714.5 499.5,-714.5"/>
<text text-anchor="middle" x="571.5" y="-721.5" font-family="Helvetica,sans-Serif" font-size="10.00">TM_UART5_ReceiveHandler</text>
</a>
</g>
</g>
<!-- Node1&#45;&gt;Node17 -->
<g id="edge44" class="edge"><title>Node1&#45;&gt;Node17</title>
<path fill="none" stroke="midnightblue" d="M50.0428,-506.895C54.0506,-539.976 71.4141,-647.905 132,-706 238.485,-808.107 314.021,-778.332 460,-757 486.167,-753.176 514.747,-744.514 536.285,-737.023"/>
<polygon fill="midnightblue" stroke="midnightblue" points="537.707,-740.232 545.951,-733.576 535.356,-733.639 537.707,-740.232"/>
</g>
<!-- Node18 -->
<g id="node18" class="node"><title>Node18</title>
<g id="a_node18"><a xlink:href="a00580.html#ga65c1d6a6bcc2dbd40ea0e7cbf5e924de" target="_top" xlink:title="Callback function for receive interrupt on USART6 in case you have enabled custom USART handler mode...">
<polygon fill="white" stroke="black" points="496,-614.5 496,-633.5 647,-633.5 647,-614.5 496,-614.5"/>
<text text-anchor="middle" x="571.5" y="-621.5" font-family="Helvetica,sans-Serif" font-size="10.00">TM_USART6_ReceiveHandler</text>
</a>
</g>
</g>
<!-- Node1&#45;&gt;Node18 -->
<g id="edge45" class="edge"><title>Node1&#45;&gt;Node18</title>
<path fill="none" stroke="midnightblue" d="M51.6457,-506.651C59.5396,-533.866 85.3226,-612.273 132,-659 183.556,-710.611 207.094,-716.853 278,-734 356.623,-753.013 385.233,-764.87 460,-734 471.892,-729.09 527.069,-670.801 554.677,-641.127"/>
<polygon fill="midnightblue" stroke="midnightblue" points="557.439,-643.296 561.675,-633.585 552.308,-638.535 557.439,-643.296"/>
</g>
<!-- Node19 -->
<g id="node19" class="node"><title>Node19</title>
<g id="a_node19"><a xlink:href="a00580.html#ga461a5123a57231d34d51330f12ea39d2" target="_top" xlink:title="Callback function for receive interrupt on UART7 in case you have enabled custom USART handler mode...">
<polygon fill="white" stroke="black" points="499.5,-342.5 499.5,-361.5 643.5,-361.5 643.5,-342.5 499.5,-342.5"/>
<text text-anchor="middle" x="571.5" y="-349.5" font-family="Helvetica,sans-Serif" font-size="10.00">TM_UART7_ReceiveHandler</text>
</a>
</g>
</g>
<!-- Node1&#45;&gt;Node19 -->
<g id="edge46" class="edge"><title>Node1&#45;&gt;Node19</title>
<path fill="none" stroke="midnightblue" d="M52.9146,-487.45C62.6032,-465.141 89.9986,-409.565 132,-384 251.794,-311.086 425.496,-326.347 514.027,-340.777"/>
<polygon fill="midnightblue" stroke="midnightblue" points="513.691,-344.269 524.134,-342.481 514.855,-337.367 513.691,-344.269"/>
</g>
<!-- Node20 -->
<g id="node20" class="node"><title>Node20</title>
<g id="a_node20"><a xlink:href="a00580.html#ga37fe7ffa31a540627af5ebfe93f2dcf5" target="_top" xlink:title="Callback function for receive interrupt on UART8 in case you have enabled custom USART handler mode...">
<polygon fill="white" stroke="black" points="499.5,-576.5 499.5,-595.5 643.5,-595.5 643.5,-576.5 499.5,-576.5"/>
<text text-anchor="middle" x="571.5" y="-583.5" font-family="Helvetica,sans-Serif" font-size="10.00">TM_UART8_ReceiveHandler</text>
</a>
</g>
</g>
<!-- Node1&#45;&gt;Node20 -->
<g id="edge47" class="edge"><title>Node1&#45;&gt;Node20</title>
<path fill="none" stroke="midnightblue" d="M55.4198,-506.599C79.5149,-541.64 168.783,-662.803 278,-705 353.453,-734.152 393.821,-751.512 460,-705 498.646,-677.838 461.037,-636.763 496,-605 497.726,-603.432 499.563,-601.99 501.488,-600.663"/>
<polygon fill="midnightblue" stroke="midnightblue" points="503.478,-603.558 510.423,-595.556 500.004,-597.48 503.478,-603.558"/>
</g>
<!-- Node27 -->
<g id="node27" class="node"><title>Node27</title>
<g id="a_node27"><a xlink:href="a00124.html#ga93d8f031241bcdbe938d091a85295445" target="_top" xlink:title="Checks whether the specified USART interrupt has occurred or not. ">
<polygon fill="white" stroke="black" points="132,-0.5 132,-19.5 242,-19.5 242,-0.5 132,-0.5"/>
<text text-anchor="middle" x="187" y="-7.5" font-family="Helvetica,sans-Serif" font-size="10.00">USART_GetITStatus</text>
</a>
</g>
</g>
<!-- Node1&#45;&gt;Node27 -->
<g id="edge39" class="edge"><title>Node1&#45;&gt;Node27</title>
<path fill="none" stroke="midnightblue" d="M49.5325,-487.134C52.9626,-426.857 73.674,-108.385 132,-34 134.855,-30.3594 138.379,-27.2568 142.249,-24.6154"/>
<polygon fill="midnightblue" stroke="midnightblue" points="144.194,-27.5354 151.146,-19.5403 140.725,-21.455 144.194,-27.5354"/>
</g>
<!-- Node2&#45;&gt;Node1 -->
<g id="edge2" class="edge"><title>Node2&#45;&gt;Node1</title>
<path fill="none" stroke="midnightblue" d="M138.765,-503.452C128.321,-503.754 117.144,-503.826 106.347,-503.67"/>
<polygon fill="midnightblue" stroke="midnightblue" points="106.221,-500.166 96.1476,-503.45 106.07,-507.165 106.221,-500.166"/>
</g>
<!-- Node3 -->
<g id="node3" class="node"><title>Node3</title>
<g id="a_node3"><a xlink:href="a00580.html#ga3bbfbfe88ae6dce27876b84798cfda62" target="_top" xlink:title="Sends data array to USART port. ">
<polygon fill="white" stroke="black" points="320,-676.5 320,-695.5 418,-695.5 418,-676.5 320,-676.5"/>
<text text-anchor="middle" x="369" y="-683.5" font-family="Helvetica,sans-Serif" font-size="10.00">TM_USART_Send</text>
</a>
</g>
</g>
<!-- Node2&#45;&gt;Node3 -->
<g id="edge3" class="edge"><title>Node2&#45;&gt;Node3</title>
<path fill="none" stroke="midnightblue" d="M190.052,-506.563C196.846,-535.766 221.468,-624.382 278,-667 287.271,-673.989 298.535,-678.541 309.912,-681.476"/>
<polygon fill="midnightblue" stroke="midnightblue" points="309.375,-684.941 319.892,-683.66 310.872,-678.103 309.375,-684.941"/>
</g>
<!-- Node4 -->
<g id="node4" class="node"><title>Node4</title>
<g id="a_node4"><a xlink:href="a00580.html#ga340391d061340e4635b4bbafea23602b" target="_top" xlink:title="Gets character from internal USART buffer. ">
<polygon fill="white" stroke="black" points="523,-275.5 523,-294.5 620,-294.5 620,-275.5 523,-275.5"/>
<text text-anchor="middle" x="571.5" y="-282.5" font-family="Helvetica,sans-Serif" font-size="10.00">TM_USART_Getc</text>
</a>
</g>
</g>
<!-- Node2&#45;&gt;Node4 -->
<g id="edge4" class="edge"><title>Node2&#45;&gt;Node4</title>
<path fill="none" stroke="midnightblue" d="M190.256,-487.448C197.483,-459.114 222.885,-375.085 278,-336 347.504,-286.711 449.201,-279.81 512.539,-281.108"/>
<polygon fill="midnightblue" stroke="midnightblue" points="512.654,-284.612 522.749,-281.395 512.851,-277.615 512.654,-284.612"/>
</g>
<!-- Node5 -->
<g id="node5" class="node"><title>Node5</title>
<g id="a_node5"><a xlink:href="a00580.html#gabb0a95fd20e5e2a894e658b64a29ee61" target="_top" xlink:title="Gets string from USART. ">
<polygon fill="white" stroke="black" points="320.5,-152.5 320.5,-171.5 417.5,-171.5 417.5,-152.5 320.5,-152.5"/>
<text text-anchor="middle" x="369" y="-159.5" font-family="Helvetica,sans-Serif" font-size="10.00">TM_USART_Gets</text>
</a>
</g>
</g>
<!-- Node2&#45;&gt;Node5 -->
<g id="edge5" class="edge"><title>Node2&#45;&gt;Node5</title>
<path fill="none" stroke="midnightblue" d="M188.961,-487.28C193.105,-449.7 212.318,-311.665 278,-224 293.616,-203.157 318.36,-186.841 337.954,-176.19"/>
<polygon fill="midnightblue" stroke="midnightblue" points="339.576,-179.291 346.819,-171.56 336.335,-173.087 339.576,-179.291"/>
</g>
<!-- Node6 -->
<g id="node6" class="node"><title>Node6</title>
<g id="a_node6"><a xlink:href="a00580.html#gabcee39f90c8c33ff3b1fb07e6496eef6" target="_top" xlink:title="Checks if internal USARTx buffer is empty. ">
<polygon fill="white" stroke="black" points="506,-180.5 506,-199.5 637,-199.5 637,-180.5 506,-180.5"/>
<text text-anchor="middle" x="571.5" y="-187.5" font-family="Helvetica,sans-Serif" font-size="10.00">TM_USART_BufferEmpty</text>
</a>
</g>
</g>
<!-- Node2&#45;&gt;Node6 -->
<g id="edge10" class="edge"><title>Node2&#45;&gt;Node6</title>
<path fill="none" stroke="midnightblue" d="M189.11,-487.051C193.468,-452.779 212.528,-338.461 278,-279 338.143,-224.378 430.931,-203.257 495.827,-195.103"/>
<polygon fill="midnightblue" stroke="midnightblue" points="496.473,-198.551 505.993,-193.903 495.652,-191.599 496.473,-198.551"/>
</g>
<!-- Node7 -->
<g id="node7" class="node"><title>Node7</title>
<g id="a_node7"><a xlink:href="a00580.html#ga5f708a330c9fc45032143a5777d9b6fd" target="_top" xlink:title="Checks if character c is available in internal buffer. ">
<polygon fill="white" stroke="black" points="503,-114.5 503,-133.5 640,-133.5 640,-114.5 503,-114.5"/>
<text text-anchor="middle" x="571.5" y="-121.5" font-family="Helvetica,sans-Serif" font-size="10.00">TM_USART_FindCharacter</text>
</a>
</g>
</g>
<!-- Node2&#45;&gt;Node7 -->
<g id="edge9" class="edge"><title>Node2&#45;&gt;Node7</title>
<path fill="none" stroke="midnightblue" d="M188.964,-487.226C194.326,-434.978 222.278,-189.304 278,-143 347.886,-84.9261 462.584,-98.6215 525.581,-112.221"/>
<polygon fill="midnightblue" stroke="midnightblue" points="525.08,-115.696 535.605,-114.48 526.619,-108.867 525.08,-115.696"/>
</g>
<!-- Node8 -->
<g id="node8" class="node"><title>Node8</title>
<g id="a_node8"><a xlink:href="a00580.html#ga0bf136abba24771c4a5a83ace52a76c1" target="_top" xlink:title="Checks if internal USARTx buffer is full. ">
<polygon fill="white" stroke="black" points="310,-638.5 310,-657.5 428,-657.5 428,-638.5 310,-638.5"/>
<text text-anchor="middle" x="369" y="-645.5" font-family="Helvetica,sans-Serif" font-size="10.00">TM_USART_BufferFull</text>
</a>
</g>
</g>
<!-- Node2&#45;&gt;Node8 -->
<g id="edge11" class="edge"><title>Node2&#45;&gt;Node8</title>
<path fill="none" stroke="midnightblue" d="M192.029,-506.696C202.46,-530.571 232.733,-592.534 278,-624 284.702,-628.659 292.261,-632.414 300.077,-635.44"/>
<polygon fill="midnightblue" stroke="midnightblue" points="299.104,-638.807 309.698,-638.781 301.4,-632.194 299.104,-638.807"/>
</g>
<!-- Node9 -->
<g id="node9" class="node"><title>Node9</title>
<g id="a_node9"><a xlink:href="a00580.html#ga6c8dfcc950305f511393240ea847b2ad" target="_top" xlink:title="Clears internal USART buffer. ">
<polygon fill="white" stroke="black" points="306.5,-468.5 306.5,-487.5 431.5,-487.5 431.5,-468.5 306.5,-468.5"/>
<text text-anchor="middle" x="369" y="-475.5" font-family="Helvetica,sans-Serif" font-size="10.00">TM_USART_ClearBuffer</text>
</a>
</g>
</g>
<!-- Node2&#45;&gt;Node9 -->
<g id="edge12" class="edge"><title>Node2&#45;&gt;Node9</title>
<path fill="none" stroke="midnightblue" d="M235.293,-492.008C254.001,-490.033 275.915,-487.72 296.483,-485.549"/>
<polygon fill="midnightblue" stroke="midnightblue" points="296.874,-489.027 306.452,-484.497 296.139,-482.066 296.874,-489.027"/>
</g>
<!-- Node10 -->
<g id="node10" class="node"><title>Node10</title>
<g id="a_node10"><a xlink:href="a00580.html#gae2f5677e3f69e09a943fb3124c997656" target="_top" xlink:title="Sets custom character for TM_USART_Gets() function to detect when string ends. ">
<polygon fill="white" stroke="black" points="293.5,-419 293.5,-449 444.5,-449 444.5,-419 293.5,-419"/>
<text text-anchor="start" x="301.5" y="-437" font-family="Helvetica,sans-Serif" font-size="10.00">TM_USART_SetCustomString</text>
<text text-anchor="middle" x="369" y="-426" font-family="Helvetica,sans-Serif" font-size="10.00">EndCharacter</text>
</a>
</g>
</g>
<!-- Node2&#45;&gt;Node10 -->
<g id="edge13" class="edge"><title>Node2&#45;&gt;Node10</title>
<path fill="none" stroke="midnightblue" d="M208.438,-487.48C226.491,-479.288 253.655,-467.481 278,-459 284.949,-456.579 292.262,-454.231 299.591,-452.006"/>
<polygon fill="midnightblue" stroke="midnightblue" points="300.969,-455.248 309.564,-449.053 298.982,-448.536 300.969,-455.248"/>
</g>
<!-- Node11 -->
<g id="node11" class="node"><title>Node11</title>
<g id="a_node11"><a xlink:href="a00580.html#ga5cf7d7f613f4241fb77321ef9554f46b" target="_top" xlink:title="Callback for custom pins initialization for USARTx. ">
<polygon fill="white" stroke="black" points="278,-506.5 278,-525.5 460,-525.5 460,-506.5 278,-506.5"/>
<text text-anchor="middle" x="369" y="-513.5" font-family="Helvetica,sans-Serif" font-size="10.00">TM_USART_InitCustomPinsCallback</text>
</a>
</g>
</g>
<!-- Node2&#45;&gt;Node11 -->
<g id="edge14" class="edge"><title>Node2&#45;&gt;Node11</title>
<path fill="none" stroke="midnightblue" d="M235.293,-501.992C245.444,-503.064 256.538,-504.235 267.849,-505.429"/>
<polygon fill="midnightblue" stroke="midnightblue" points="267.515,-508.913 277.827,-506.482 268.25,-501.951 267.515,-508.913"/>
</g>
<!-- Node2&#45;&gt;Node13 -->
<g id="edge31" class="edge"><title>Node2&#45;&gt;Node13</title>
<path fill="none" stroke="midnightblue" d="M194.266,-487.348C207.234,-468.331 239.082,-426.357 278,-409 343.352,-379.854 425.16,-376.994 485.629,-380.337"/>
<polygon fill="midnightblue" stroke="midnightblue" points="485.705,-383.848 495.903,-380.976 486.139,-376.862 485.705,-383.848"/>
</g>
<!-- Node2&#45;&gt;Node14 -->
<g id="edge32" class="edge"><title>Node2&#45;&gt;Node14</title>
<path fill="none" stroke="midnightblue" d="M188.005,-506.503C188.554,-546.389 196.063,-701.993 278,-784 333.001,-839.049 420.561,-861.227 485.564,-870.126"/>
<polygon fill="midnightblue" stroke="midnightblue" points="485.429,-873.637 495.794,-871.443 486.323,-866.694 485.429,-873.637"/>
</g>
<!-- Node2&#45;&gt;Node15 -->
<g id="edge33" class="edge"><title>Node2&#45;&gt;Node15</title>
<path fill="none" stroke="midnightblue" d="M188.432,-506.693C190.619,-543.397 203.565,-674.998 278,-739 335.124,-788.117 421.571,-801.137 485.687,-803.209"/>
<polygon fill="midnightblue" stroke="midnightblue" points="485.697,-806.71 495.778,-803.451 485.865,-799.712 485.697,-806.71"/>
</g>
<!-- Node2&#45;&gt;Node16 -->
<g id="edge34" class="edge"><title>Node2&#45;&gt;Node16</title>
<path fill="none" stroke="midnightblue" d="M188.669,-487.163C192.704,-431.062 215.726,-152.224 278,-100 308.88,-74.1038 413.698,-74.9134 489.029,-79.283"/>
<polygon fill="midnightblue" stroke="midnightblue" points="489.257,-82.8034 499.452,-79.9207 489.685,-75.8164 489.257,-82.8034"/>
</g>
<!-- Node2&#45;&gt;Node17 -->
<g id="edge35" class="edge"><title>Node2&#45;&gt;Node17</title>
<path fill="none" stroke="midnightblue" d="M188.77,-506.588C192.065,-540.567 208.196,-655.832 278,-705 349.726,-755.521 457.502,-746.613 520.243,-735.407"/>
<polygon fill="midnightblue" stroke="midnightblue" points="521.105,-738.807 530.289,-733.524 519.815,-731.927 521.105,-738.807"/>
</g>
<!-- Node2&#45;&gt;Node18 -->
<g id="edge36" class="edge"><title>Node2&#45;&gt;Node18</title>
<path fill="none" stroke="midnightblue" d="M194.848,-506.759C208.369,-525.172 240.46,-564.821 278,-583 343.005,-614.479 425.024,-623.73 485.657,-625.683"/>
<polygon fill="midnightblue" stroke="midnightblue" points="485.87,-629.19 495.958,-625.952 486.052,-622.192 485.87,-629.19"/>
</g>
<!-- Node2&#45;&gt;Node19 -->
<g id="edge37" class="edge"><title>Node2&#45;&gt;Node19</title>
<path fill="none" stroke="midnightblue" d="M191.851,-487.258C201.877,-463.363 231.299,-401.913 278,-376 343.943,-339.41 431.41,-337.108 493.468,-341.676"/>
<polygon fill="midnightblue" stroke="midnightblue" points="493.338,-345.177 503.588,-342.498 493.905,-338.2 493.338,-345.177"/>
</g>
<!-- Node2&#45;&gt;Node20 -->
<g id="edge38" class="edge"><title>Node2&#45;&gt;Node20</title>
<path fill="none" stroke="midnightblue" d="M199.632,-506.652C215.987,-519.63 247.232,-542.307 278,-553 346.676,-576.867 429.357,-584.398 489.268,-586.379"/>
<polygon fill="midnightblue" stroke="midnightblue" points="489.334,-589.882 499.429,-586.669 489.533,-582.885 489.334,-589.882"/>
</g>
<!-- Node5&#45;&gt;Node4 -->
<g id="edge7" class="edge"><title>Node5&#45;&gt;Node4</title>
<path fill="none" stroke="midnightblue" d="M417.835,-170.337C431.941,-173.947 447.055,-179.002 460,-186 499.581,-207.396 536.595,-245.688 556.116,-267.856"/>
<polygon fill="midnightblue" stroke="midnightblue" points="553.526,-270.211 562.71,-275.493 558.824,-265.637 553.526,-270.211"/>
</g>
<!-- Node5&#45;&gt;Node6 -->
<g id="edge6" class="edge"><title>Node5&#45;&gt;Node6</title>
<path fill="none" stroke="midnightblue" d="M417.516,-168.636C440.928,-171.905 469.704,-175.924 495.957,-179.59"/>
<polygon fill="midnightblue" stroke="midnightblue" points="495.491,-183.059 505.879,-180.976 496.459,-176.126 495.491,-183.059"/>
</g>
<!-- Node5&#45;&gt;Node7 -->
<g id="edge8" class="edge"><title>Node5&#45;&gt;Node7</title>
<path fill="none" stroke="midnightblue" d="M417.516,-152.995C445.295,-147.73 480.625,-141.034 510.334,-135.403"/>
<polygon fill="midnightblue" stroke="midnightblue" points="511.001,-138.839 520.174,-133.538 509.697,-131.961 511.001,-138.839"/>
</g>
<!-- Node11&#45;&gt;Node11 -->
<g id="edge16" class="edge"><title>Node11&#45;&gt;Node11</title>
<path fill="none" stroke="midnightblue" d="M340.949,-525.757C327.302,-534.565 336.652,-544 369,-544 391.239,-544 402.608,-539.541 403.108,-533.891"/>
<polygon fill="midnightblue" stroke="midnightblue" points="405.831,-531.688 397.051,-525.757 400.216,-535.868 405.831,-531.688"/>
</g>
<!-- Node12 -->
<g id="node12" class="node"><title>Node12</title>
<g id="a_node12"><a xlink:href="a01227.html#gabc8eafcb23a81935b70b9046f266f5aa" target="_top" xlink:title="Initialize GPIO pins for alternate port operation. ">
<polygon fill="white" stroke="black" points="511.5,-424.5 511.5,-443.5 631.5,-443.5 631.5,-424.5 511.5,-424.5"/>
<text text-anchor="middle" x="571.5" y="-431.5" font-family="Helvetica,sans-Serif" font-size="10.00">MD_GPIO_InitAlternate</text>
</a>
</g>
</g>
<!-- Node11&#45;&gt;Node12 -->
<g id="edge15" class="edge"><title>Node11&#45;&gt;Node12</title>
<path fill="none" stroke="midnightblue" d="M439.192,-506.487C446.497,-504.01 453.588,-500.901 460,-497 481.586,-483.867 474.692,-466.579 496,-453 499.324,-450.882 502.873,-448.999 506.55,-447.326"/>
<polygon fill="midnightblue" stroke="midnightblue" points="507.916,-450.549 515.9,-443.585 505.315,-444.05 507.916,-450.549"/>
</g>
<!-- Node11&#45;&gt;Node13 -->
<g id="edge17" class="edge"><title>Node11&#45;&gt;Node13</title>
<path fill="none" stroke="midnightblue" d="M444.396,-506.459C449.997,-503.938 455.291,-500.828 460,-497 490.884,-471.893 466.619,-441.851 496,-415 501.007,-410.424 506.879,-406.683 513.092,-403.624"/>
<polygon fill="midnightblue" stroke="midnightblue" points="514.584,-406.792 522.376,-399.614 511.808,-400.366 514.584,-406.792"/>
</g>
<!-- Node11&#45;&gt;Node14 -->
<g id="edge18" class="edge"><title>Node11&#45;&gt;Node14</title>
<path fill="none" stroke="midnightblue" d="M380.599,-525.734C399.762,-543.986 440.034,-585.456 460,-629 495.822,-707.126 450.895,-745.84 496,-819 507.074,-836.962 526.023,-851.343 542.038,-861.167"/>
<polygon fill="midnightblue" stroke="midnightblue" points="540.645,-864.406 551.047,-866.418 544.17,-858.358 540.645,-864.406"/>
</g>
<!-- Node11&#45;&gt;Node15 -->
<g id="edge19" class="edge"><title>Node11&#45;&gt;Node15</title>
<path fill="none" stroke="midnightblue" d="M379.819,-525.687C398.06,-544.185 437.37,-586.495 460,-629 484.97,-675.9 465.484,-699.504 496,-743 508.275,-760.497 527.545,-775.035 543.411,-785.049"/>
<polygon fill="midnightblue" stroke="midnightblue" points="541.912,-788.233 552.281,-790.41 545.534,-782.242 541.912,-788.233"/>
</g>
<!-- Node11&#45;&gt;Node16 -->
<g id="edge20" class="edge"><title>Node11&#45;&gt;Node16</title>
<path fill="none" stroke="midnightblue" d="M448.734,-506.339C452.896,-503.78 456.709,-500.698 460,-497 518.151,-431.648 439.223,-171.548 496,-105 497.002,-103.826 498.065,-102.719 499.182,-101.676"/>
<polygon fill="midnightblue" stroke="midnightblue" points="501.318,-104.449 507.257,-95.6753 497.143,-98.8309 501.318,-104.449"/>
</g>
<!-- Node11&#45;&gt;Node17 -->
<g id="edge21" class="edge"><title>Node11&#45;&gt;Node17</title>
<path fill="none" stroke="midnightblue" d="M379.402,-525.753C410.968,-558.5 513.444,-664.81 553.877,-706.755"/>
<polygon fill="midnightblue" stroke="midnightblue" points="551.425,-709.255 560.885,-714.026 556.465,-704.397 551.425,-709.255"/>
</g>
<!-- Node11&#45;&gt;Node18 -->
<g id="edge22" class="edge"><title>Node11&#45;&gt;Node18</title>
<path fill="none" stroke="midnightblue" d="M380.61,-525.582C401.285,-543.755 449.067,-583.342 496,-605 501.28,-607.436 506.92,-609.594 512.645,-611.497"/>
<polygon fill="midnightblue" stroke="midnightblue" points="511.724,-614.875 522.311,-614.463 513.778,-608.183 511.724,-614.875"/>
</g>
<!-- Node11&#45;&gt;Node19 -->
<g id="edge23" class="edge"><title>Node11&#45;&gt;Node19</title>
<path fill="none" stroke="midnightblue" d="M446.272,-506.489C451.259,-503.935 455.911,-500.811 460,-497 502.603,-457.289 454.233,-411.59 496,-371 497.472,-369.57 499.035,-368.243 500.675,-367.012"/>
<polygon fill="midnightblue" stroke="midnightblue" points="502.745,-369.847 509.425,-361.623 499.075,-363.886 502.745,-369.847"/>
</g>
<!-- Node11&#45;&gt;Node20 -->
<g id="edge24" class="edge"><title>Node11&#45;&gt;Node20</title>
<path fill="none" stroke="midnightblue" d="M391.077,-525.553C415.839,-536.536 458.331,-554.636 496,-567 503.401,-569.429 511.3,-571.739 519.084,-573.856"/>
<polygon fill="midnightblue" stroke="midnightblue" points="518.275,-577.262 528.837,-576.43 520.062,-570.494 518.275,-577.262"/>
</g>
<!-- Node21 -->
<g id="node21" class="node"><title>Node21</title>
<g id="a_node21"><a xlink:href="a00124.html#ga2f8e1ce72da21b6539d8e1f299ec3b0d" target="_top" xlink:title="Deinitializes the USARTx peripheral registers to their default reset values. ">
<polygon fill="white" stroke="black" points="530,-538.5 530,-557.5 613,-557.5 613,-538.5 530,-538.5"/>
<text text-anchor="middle" x="571.5" y="-545.5" font-family="Helvetica,sans-Serif" font-size="10.00">USART_DeInit</text>
</a>
</g>
</g>
<!-- Node11&#45;&gt;Node21 -->
<g id="edge25" class="edge"><title>Node11&#45;&gt;Node21</title>
<path fill="none" stroke="midnightblue" d="M429.614,-525.514C458.274,-530.089 492.267,-535.514 519.683,-539.889"/>
<polygon fill="midnightblue" stroke="midnightblue" points="519.416,-543.391 529.843,-541.511 520.519,-536.479 519.416,-543.391"/>
</g>
<!-- Node24 -->
<g id="node24" class="node"><title>Node24</title>
<g id="a_node24"><a xlink:href="a00109.html#ga4ab373ed0870c06fca5eb51d639adf41" target="_top" xlink:title="Initializes the NVIC peripheral according to the specified parameters in the NVIC_InitStruct. ">
<polygon fill="white" stroke="black" points="541.5,-500.5 541.5,-519.5 601.5,-519.5 601.5,-500.5 541.5,-500.5"/>
<text text-anchor="middle" x="571.5" y="-507.5" font-family="Helvetica,sans-Serif" font-size="10.00">NVIC_Init</text>
</a>
</g>
</g>
<!-- Node11&#45;&gt;Node24 -->
<g id="edge28" class="edge"><title>Node11&#45;&gt;Node24</title>
<path fill="none" stroke="midnightblue" d="M460.279,-513.298C485.062,-512.557 510.667,-511.791 530.953,-511.183"/>
<polygon fill="midnightblue" stroke="midnightblue" points="531.153,-514.679 541.043,-510.881 530.943,-507.682 531.153,-514.679"/>
</g>
<!-- Node25 -->
<g id="node25" class="node"><title>Node25</title>
<g id="a_node25"><a xlink:href="a00124.html#ga98da340ea0324002ba1b4263e91ab2ff" target="_top" xlink:title="Initializes the USARTx peripheral according to the specified parameters in the USART_InitStruct ...">
<polygon fill="white" stroke="black" points="536.5,-462.5 536.5,-481.5 606.5,-481.5 606.5,-462.5 536.5,-462.5"/>
<text text-anchor="middle" x="571.5" y="-469.5" font-family="Helvetica,sans-Serif" font-size="10.00">USART_Init</text>
</a>
</g>
</g>
<!-- Node11&#45;&gt;Node25 -->
<g id="edge29" class="edge"><title>Node11&#45;&gt;Node25</title>
<path fill="none" stroke="midnightblue" d="M415.813,-506.462C429.987,-503.475 445.647,-500.138 460,-497 481.862,-492.219 506.118,-486.75 526.322,-482.148"/>
<polygon fill="midnightblue" stroke="midnightblue" points="527.214,-485.535 536.184,-479.898 525.656,-478.71 527.214,-485.535"/>
</g>
<!-- Node22 -->
<g id="node22" class="node"><title>Node22</title>
<g id="a_node22"><a xlink:href="a00111.html#gad94553850ac07106a27ee85fec37efdf" target="_top" xlink:title="Forces or releases High Speed APB (APB2) peripheral reset. ">
<polygon fill="white" stroke="black" points="683,-519.5 683,-538.5 828,-538.5 828,-519.5 683,-519.5"/>
<text text-anchor="middle" x="755.5" y="-526.5" font-family="Helvetica,sans-Serif" font-size="10.00">RCC_APB2PeriphResetCmd</text>
</a>
</g>
</g>
<!-- Node21&#45;&gt;Node22 -->
<g id="edge26" class="edge"><title>Node21&#45;&gt;Node22</title>
<path fill="none" stroke="midnightblue" d="M613.344,-543.736C630.907,-541.903 652.095,-539.691 672.653,-537.544"/>
<polygon fill="midnightblue" stroke="midnightblue" points="673.093,-541.018 682.676,-536.498 672.367,-534.055 673.093,-541.018"/>
</g>
<!-- Node23 -->
<g id="node23" class="node"><title>Node23</title>
<g id="a_node23"><a xlink:href="a00111.html#gab197ae4369c10b92640a733b40ed2801" target="_top" xlink:title="Forces or releases Low Speed APB (APB1) peripheral reset. ">
<polygon fill="white" stroke="black" points="683,-557.5 683,-576.5 828,-576.5 828,-557.5 683,-557.5"/>
<text text-anchor="middle" x="755.5" y="-564.5" font-family="Helvetica,sans-Serif" font-size="10.00">RCC_APB1PeriphResetCmd</text>
</a>
</g>
</g>
<!-- Node21&#45;&gt;Node23 -->
<g id="edge27" class="edge"><title>Node21&#45;&gt;Node23</title>
<path fill="none" stroke="midnightblue" d="M613.344,-552.264C630.907,-554.097 652.095,-556.309 672.653,-558.456"/>
<polygon fill="midnightblue" stroke="midnightblue" points="672.367,-561.945 682.676,-559.502 673.093,-554.982 672.367,-561.945"/>
</g>
<!-- Node26 -->
<g id="node26" class="node"><title>Node26</title>
<g id="a_node26"><a xlink:href="a00111.html#ga3e9944fd1ed734275222bbb3e3f29993" target="_top" xlink:title="Returns the frequencies of different on chip clocks; SYSCLK, HCLK, PCLK1 and PCLK2. ">
<polygon fill="white" stroke="black" points="700.5,-462.5 700.5,-481.5 810.5,-481.5 810.5,-462.5 700.5,-462.5"/>
<text text-anchor="middle" x="755.5" y="-469.5" font-family="Helvetica,sans-Serif" font-size="10.00">RCC_GetClocksFreq</text>
</a>
</g>
</g>
<!-- Node25&#45;&gt;Node26 -->
<g id="edge30" class="edge"><title>Node25&#45;&gt;Node26</title>
<path fill="none" stroke="midnightblue" d="M606.733,-472C630.21,-472 662.081,-472 690.214,-472"/>
<polygon fill="midnightblue" stroke="midnightblue" points="690.387,-475.5 700.387,-472 690.387,-468.5 690.387,-475.5"/>
</g>
</g>
</svg>
