<?xml version="1.0" encoding="UTF-8" standalone="no"?>
<!DOCTYPE svg PUBLIC "-//W3C//DTD SVG 1.1//EN"
 "http://www.w3.org/Graphics/SVG/1.1/DTD/svg11.dtd">
<!-- Generated by graphviz version 2.38.0 (20140413.2041)
 -->
<!-- Title: TM_USART_BufferFull Pages: 1 -->
<svg width="464pt" height="85pt"
 viewBox="0.00 0.00 464.00 85.00" xmlns="http://www.w3.org/2000/svg" xmlns:xlink="http://www.w3.org/1999/xlink">
<g id="graph0" class="graph" transform="scale(1 1) rotate(0) translate(4 81)">
<title>TM_USART_BufferFull</title>
<polygon fill="white" stroke="none" points="-4,4 -4,-81 460,-81 460,4 -4,4"/>
<!-- Node1 -->
<g id="node1" class="node"><title>Node1</title>
<polygon fill="#bfbfbf" stroke="black" points="0,-47.5 0,-66.5 118,-66.5 118,-47.5 0,-47.5"/>
<text text-anchor="middle" x="59" y="-54.5" font-family="Helvetica,sans-Serif" font-size="10.00">TM_USART_BufferFull</text>
</g>
<!-- Node2 -->
<g id="node2" class="node"><title>Node2</title>
<g id="a_node2"><a xlink:href="a01285.html#ga840291bc02cba5474a4cb46a9b9566fe" target="_top" xlink:title="Main function entry. ">
<polygon fill="white" stroke="black" points="418,-57.5 418,-76.5 456,-76.5 456,-57.5 418,-57.5"/>
<text text-anchor="middle" x="437" y="-64.5" font-family="Helvetica,sans-Serif" font-size="10.00">main</text>
</a>
</g>
</g>
<!-- Node1&#45;&gt;Node2 -->
<g id="edge1" class="edge"><title>Node1&#45;&gt;Node2</title>
<path fill="none" stroke="midnightblue" d="M128.228,-60.8054C173.056,-63.1116 232.998,-65.828 286,-67 333.645,-68.0536 389.823,-67.6009 417.987,-67.257"/>
<polygon fill="midnightblue" stroke="midnightblue" points="128.207,-57.2996 118.038,-60.2749 127.842,-64.2902 128.207,-57.2996"/>
</g>
<!-- Node3 -->
<g id="node3" class="node"><title>Node3</title>
<g id="a_node3"><a xlink:href="a00580.html#gab807a241fae0eae0d5434bae20a3569f" target="_top" xlink:title="Puts character to USART port. ">
<polygon fill="white" stroke="black" points="154,-19.5 154,-38.5 250,-38.5 250,-19.5 154,-19.5"/>
<text text-anchor="middle" x="202" y="-26.5" font-family="Helvetica,sans-Serif" font-size="10.00">TM_USART_Putc</text>
</a>
</g>
</g>
<!-- Node1&#45;&gt;Node3 -->
<g id="edge2" class="edge"><title>Node1&#45;&gt;Node3</title>
<path fill="none" stroke="midnightblue" d="M117.94,-45.4943C129.792,-43.1407 142.133,-40.6899 153.565,-38.4198"/>
<polygon fill="midnightblue" stroke="midnightblue" points="117.257,-42.0615 108.13,-47.4423 118.62,-48.9274 117.257,-42.0615"/>
</g>
<!-- Node4 -->
<g id="node4" class="node"><title>Node4</title>
<g id="a_node4"><a xlink:href="a00580.html#ga70bed9fb6612cb572a8c10e148404344" target="_top" xlink:title="Initializes USARTx peripheral and corresponding pins. ">
<polygon fill="white" stroke="black" points="289.5,-38.5 289.5,-57.5 378.5,-57.5 378.5,-38.5 289.5,-38.5"/>
<text text-anchor="middle" x="334" y="-45.5" font-family="Helvetica,sans-Serif" font-size="10.00">TM_USART_Init</text>
</a>
</g>
</g>
<!-- Node3&#45;&gt;Node4 -->
<g id="edge3" class="edge"><title>Node3&#45;&gt;Node4</title>
<path fill="none" stroke="midnightblue" d="M260.343,-37.3808C270.096,-38.8063 280.082,-40.2658 289.407,-41.6287"/>
<polygon fill="midnightblue" stroke="midnightblue" points="260.702,-33.8962 250.301,-35.9132 259.689,-40.8226 260.702,-33.8962"/>
</g>
<!-- Node5 -->
<g id="node5" class="node"><title>Node5</title>
<g id="a_node5"><a xlink:href="a00580.html#ga453aeaa886278333403ff4937c01dcf3" target="_top" xlink:title="Puts string to USART port. ">
<polygon fill="white" stroke="black" points="286,-0.5 286,-19.5 382,-19.5 382,-0.5 286,-0.5"/>
<text text-anchor="middle" x="334" y="-7.5" font-family="Helvetica,sans-Serif" font-size="10.00">TM_USART_Puts</text>
</a>
</g>
</g>
<!-- Node3&#45;&gt;Node5 -->
<g id="edge5" class="edge"><title>Node3&#45;&gt;Node5</title>
<path fill="none" stroke="midnightblue" d="M239.893,-17.4534C254.184,-14.7201 270.72,-12.182 285.856,-10.372"/>
<polygon fill="midnightblue" stroke="midnightblue" points="239.042,-14.0546 229.936,-19.4705 240.432,-20.9152 239.042,-14.0546"/>
</g>
<!-- Node4&#45;&gt;Node2 -->
<g id="edge4" class="edge"><title>Node4&#45;&gt;Node2</title>
<path fill="none" stroke="midnightblue" d="M388.767,-58.1147C399.256,-60.0878 409.556,-62.0254 417.848,-63.5852"/>
<polygon fill="midnightblue" stroke="midnightblue" points="389.187,-54.6323 378.713,-56.2232 387.893,-61.5117 389.187,-54.6323"/>
</g>
<!-- Node5&#45;&gt;Node3 -->
<g id="edge6" class="edge"><title>Node5&#45;&gt;Node3</title>
<path fill="none" stroke="midnightblue" d="M296.047,-21.558C281.819,-24.2775 265.373,-26.803 250.301,-28.6093"/>
<polygon fill="midnightblue" stroke="midnightblue" points="296.857,-24.9652 305.964,-19.551 295.468,-18.1043 296.857,-24.9652"/>
</g>
</g>
</svg>
