<?xml version="1.0" encoding="UTF-8" standalone="no"?>
<!DOCTYPE svg PUBLIC "-//W3C//DTD SVG 1.1//EN"
 "http://www.w3.org/Graphics/SVG/1.1/DTD/svg11.dtd">
<!-- Generated by graphviz version 2.38.0 (20140413.2041)
 -->
<!-- Title: TM_USART_DMA_Puts Pages: 1 -->
<svg width="401pt" height="66pt"
 viewBox="0.00 0.00 401.00 66.00" xmlns="http://www.w3.org/2000/svg" xmlns:xlink="http://www.w3.org/1999/xlink">
<g id="graph0" class="graph" transform="scale(1 1) rotate(0) translate(4 62)">
<title>TM_USART_DMA_Puts</title>
<polygon fill="white" stroke="none" points="-4,4 -4,-62 397,-62 397,4 -4,4"/>
<!-- Node1 -->
<g id="node1" class="node"><title>Node1</title>
<polygon fill="#bfbfbf" stroke="black" points="0,-19.5 0,-38.5 124,-38.5 124,-19.5 0,-19.5"/>
<text text-anchor="middle" x="62" y="-26.5" font-family="Helvetica,sans-Serif" font-size="10.00">TM_USART_DMA_Puts</text>
</g>
<!-- Node2 -->
<g id="node2" class="node"><title>Node2</title>
<g id="a_node2"><a xlink:href="a00584.html#ga99719473dd4a8863caff947e0753aa53" target="_top" xlink:title="Sends data over USART with DMA TX functionality. ">
<polygon fill="white" stroke="black" points="160,-19.5 160,-38.5 286,-38.5 286,-19.5 160,-19.5"/>
<text text-anchor="middle" x="223" y="-26.5" font-family="Helvetica,sans-Serif" font-size="10.00">TM_USART_DMA_Send</text>
</a>
</g>
</g>
<!-- Node1&#45;&gt;Node2 -->
<g id="edge1" class="edge"><title>Node1&#45;&gt;Node2</title>
<path fill="none" stroke="midnightblue" d="M124.019,-29C132.453,-29 141.182,-29 149.795,-29"/>
<polygon fill="midnightblue" stroke="midnightblue" points="149.829,-32.5001 159.829,-29 149.829,-25.5001 149.829,-32.5001"/>
</g>
<!-- Node3 -->
<g id="node3" class="node"><title>Node3</title>
<g id="a_node3"><a xlink:href="a00098.html#ga38d4a4ab8990299f8a6cf064e1e811d0" target="_top" xlink:title="Deinitialize the DMAy Streamx registers to their default reset values. ">
<polygon fill="white" stroke="black" points="322,-38.5 322,-57.5 393,-57.5 393,-38.5 322,-38.5"/>
<text text-anchor="middle" x="357.5" y="-45.5" font-family="Helvetica,sans-Serif" font-size="10.00">DMA_DeInit</text>
</a>
</g>
</g>
<!-- Node2&#45;&gt;Node3 -->
<g id="edge2" class="edge"><title>Node2&#45;&gt;Node3</title>
<path fill="none" stroke="midnightblue" d="M286.37,-37.9436C294.96,-39.1753 303.636,-40.4196 311.82,-41.5931"/>
<polygon fill="midnightblue" stroke="midnightblue" points="311.484,-45.0805 321.879,-43.0355 312.477,-38.1514 311.484,-45.0805"/>
</g>
<!-- Node4 -->
<g id="node4" class="node"><title>Node4</title>
<g id="a_node4"><a xlink:href="a00098.html#gaced8a4149acfb0a50b50e63273a87148" target="_top" xlink:title="Initializes the DMAy Streamx according to the specified parameters in the DMA_InitStruct structure...">
<polygon fill="white" stroke="black" points="328.5,-0.5 328.5,-19.5 386.5,-19.5 386.5,-0.5 328.5,-0.5"/>
<text text-anchor="middle" x="357.5" y="-7.5" font-family="Helvetica,sans-Serif" font-size="10.00">DMA_Init</text>
</a>
</g>
</g>
<!-- Node2&#45;&gt;Node4 -->
<g id="edge3" class="edge"><title>Node2&#45;&gt;Node4</title>
<path fill="none" stroke="midnightblue" d="M286.37,-20.0564C297.33,-18.4848 308.432,-16.8928 318.47,-15.4533"/>
<polygon fill="midnightblue" stroke="midnightblue" points="319.094,-18.8997 328.496,-14.0156 318.101,-11.9706 319.094,-18.8997"/>
</g>
</g>
</svg>
