<?xml version="1.0" encoding="UTF-8" standalone="no"?>
<!DOCTYPE svg PUBLIC "-//W3C//DTD SVG 1.1//EN"
 "http://www.w3.org/Graphics/SVG/1.1/DTD/svg11.dtd">
<!-- Generated by graphviz version 2.38.0 (20140413.2041)
 -->
<!-- Title: NVIC_Init Pages: 1 -->
<svg width="632pt" height="160pt"
 viewBox="0.00 0.00 632.00 160.00" xmlns="http://www.w3.org/2000/svg" xmlns:xlink="http://www.w3.org/1999/xlink">
<g id="graph0" class="graph" transform="scale(1 1) rotate(0) translate(4 156)">
<title>NVIC_Init</title>
<polygon fill="white" stroke="none" points="-4,4 -4,-156 628,-156 628,4 -4,4"/>
<!-- Node1 -->
<g id="node1" class="node"><title>Node1</title>
<polygon fill="#bfbfbf" stroke="black" points="0,-75.5 0,-94.5 60,-94.5 60,-75.5 0,-75.5"/>
<text text-anchor="middle" x="30" y="-82.5" font-family="Helvetica,sans-Serif" font-size="10.00">NVIC_Init</text>
</g>
<!-- Node2 -->
<g id="node2" class="node"><title>Node2</title>
<g id="a_node2"><a xlink:href="a00168.html#ga70bed9fb6612cb572a8c10e148404344" target="_top" xlink:title="Initializes USARTx peripheral and corresponding pins. ">
<polygon fill="white" stroke="black" points="457.5,-56.5 457.5,-75.5 546.5,-75.5 546.5,-56.5 457.5,-56.5"/>
<text text-anchor="middle" x="502" y="-63.5" font-family="Helvetica,sans-Serif" font-size="10.00">TM_USART_Init</text>
</a>
</g>
</g>
<!-- Node1&#45;&gt;Node2 -->
<g id="edge1" class="edge"><title>Node1&#45;&gt;Node2</title>
<path fill="none" stroke="midnightblue" d="M70.2961,-83.4114C157.431,-79.8889 366.325,-71.4443 457.357,-67.7643"/>
<polygon fill="midnightblue" stroke="midnightblue" points="69.8963,-79.9246 60.0459,-83.8258 70.1792,-86.9189 69.8963,-79.9246"/>
</g>
<!-- Node4 -->
<g id="node4" class="node"><title>Node4</title>
<g id="a_node4"><a xlink:href="a00754.html#ga5c12343e267ace8587309499bea6babe" target="_top" xlink:title="Provides the initial configuration method for the nested vector interrupt controller. ">
<polygon fill="white" stroke="black" points="314,-94.5 314,-113.5 418,-113.5 418,-94.5 314,-94.5"/>
<text text-anchor="middle" x="366" y="-101.5" font-family="Helvetica,sans-Serif" font-size="10.00">NVIC_Configuration</text>
</a>
</g>
</g>
<!-- Node1&#45;&gt;Node4 -->
<g id="edge3" class="edge"><title>Node1&#45;&gt;Node4</title>
<path fill="none" stroke="midnightblue" d="M70.3429,-87.2381C130.912,-90.6836 246.993,-97.287 313.955,-101.096"/>
<polygon fill="midnightblue" stroke="midnightblue" points="70.2387,-83.7266 60.056,-86.6529 69.8411,-90.7153 70.2387,-83.7266"/>
</g>
<!-- Node5 -->
<g id="node5" class="node"><title>Node5</title>
<g id="a_node5"><a xlink:href="a00757.html#gad273dc4b4b26574e92666e4020e1ef5a" target="_top" xlink:title="Timer&#45;triggered ADC&#45;scan mode with DMA to memory. ">
<polygon fill="white" stroke="black" points="119,-132.5 119,-151.5 255,-151.5 255,-132.5 119,-132.5"/>
<text text-anchor="middle" x="187" y="-139.5" font-family="Helvetica,sans-Serif" font-size="10.00">TIM2_DMA_Trigger_Config</text>
</a>
</g>
</g>
<!-- Node1&#45;&gt;Node5 -->
<g id="edge5" class="edge"><title>Node1&#45;&gt;Node5</title>
<path fill="none" stroke="midnightblue" d="M56.2435,-99.3717C68.0558,-105.688 82.4749,-112.829 96,-118 110.954,-123.717 127.801,-128.602 142.841,-132.443"/>
<polygon fill="midnightblue" stroke="midnightblue" points="57.8494,-96.2608 47.3959,-94.5359 54.4921,-102.403 57.8494,-96.2608"/>
</g>
<!-- Node6 -->
<g id="node6" class="node"><title>Node6</title>
<g id="a_node6"><a xlink:href="a00168.html#ga5cf7d7f613f4241fb77321ef9554f46b" target="_top" xlink:title="Callback for custom pins initialization for USARTx. ">
<polygon fill="white" stroke="black" points="96,-0.5 96,-19.5 278,-19.5 278,-0.5 96,-0.5"/>
<text text-anchor="middle" x="187" y="-7.5" font-family="Helvetica,sans-Serif" font-size="10.00">TM_USART_InitCustomPinsCallback</text>
</a>
</g>
</g>
<!-- Node1&#45;&gt;Node6 -->
<g id="edge7" class="edge"><title>Node1&#45;&gt;Node6</title>
<path fill="none" stroke="midnightblue" d="M58.5445,-70.7617C70.0746,-64.8679 83.644,-58.0175 96,-52 119.408,-40.6 146.514,-28.036 164.812,-19.6474"/>
<polygon fill="midnightblue" stroke="midnightblue" points="56.7098,-67.7692 49.4103,-75.4483 59.9053,-73.9973 56.7098,-67.7692"/>
</g>
<!-- Node3 -->
<g id="node3" class="node"><title>Node3</title>
<g id="a_node3"><a xlink:href="a00773.html#ga840291bc02cba5474a4cb46a9b9566fe" target="_top" xlink:title="Main function entry. ">
<polygon fill="white" stroke="black" points="586,-94.5 586,-113.5 624,-113.5 624,-94.5 586,-94.5"/>
<text text-anchor="middle" x="605" y="-101.5" font-family="Helvetica,sans-Serif" font-size="10.00">main</text>
</a>
</g>
</g>
<!-- Node2&#45;&gt;Node3 -->
<g id="edge2" class="edge"><title>Node2&#45;&gt;Node3</title>
<path fill="none" stroke="midnightblue" d="M538.137,-79.2198C554.219,-85.2705 572.599,-92.1857 585.848,-97.1707"/>
<polygon fill="midnightblue" stroke="midnightblue" points="539.079,-75.8346 528.487,-75.589 536.614,-82.3863 539.079,-75.8346"/>
</g>
<!-- Node4&#45;&gt;Node3 -->
<g id="edge4" class="edge"><title>Node4&#45;&gt;Node3</title>
<path fill="none" stroke="midnightblue" d="M428.329,-104C480.699,-104 552.661,-104 585.865,-104"/>
<polygon fill="midnightblue" stroke="midnightblue" points="428.134,-100.5 418.134,-104 428.134,-107.5 428.134,-100.5"/>
</g>
<!-- Node5&#45;&gt;Node3 -->
<g id="edge6" class="edge"><title>Node5&#45;&gt;Node3</title>
<path fill="none" stroke="midnightblue" d="M265.258,-141.061C338.873,-139.182 452.604,-133.712 550,-118 562.047,-116.057 575.317,-112.635 585.687,-109.661"/>
<polygon fill="midnightblue" stroke="midnightblue" points="265.056,-137.565 255.143,-141.303 265.224,-144.562 265.056,-137.565"/>
</g>
<!-- Node6&#45;&gt;Node6 -->
<g id="edge8" class="edge"><title>Node6&#45;&gt;Node6</title>
<path fill="none" stroke="midnightblue" d="M157.881,-28.6539C159.098,-33.9368 168.804,-38 187,-38 214.727,-38 222.741,-28.5653 211.044,-19.7571"/>
<polygon fill="midnightblue" stroke="midnightblue" points="161.041,-30.1775 162.956,-19.7571 154.961,-26.7091 161.041,-30.1775"/>
</g>
<!-- Node7 -->
<g id="node7" class="node"><title>Node7</title>
<g id="a_node7"><a xlink:href="a00168.html#gab807a241fae0eae0d5434bae20a3569f" target="_top" xlink:title="Puts character to USART port. ">
<polygon fill="white" stroke="black" points="318,-9.5 318,-28.5 414,-28.5 414,-9.5 318,-9.5"/>
<text text-anchor="middle" x="366" y="-16.5" font-family="Helvetica,sans-Serif" font-size="10.00">TM_USART_Putc</text>
</a>
</g>
</g>
<!-- Node6&#45;&gt;Node7 -->
<g id="edge9" class="edge"><title>Node6&#45;&gt;Node7</title>
<path fill="none" stroke="midnightblue" d="M288.274,-15.0987C298.443,-15.6157 308.4,-16.122 317.596,-16.5896"/>
<polygon fill="midnightblue" stroke="midnightblue" points="288.22,-11.5915 278.056,-14.5791 287.865,-18.5825 288.22,-11.5915"/>
</g>
<!-- Node7&#45;&gt;Node2 -->
<g id="edge10" class="edge"><title>Node7&#45;&gt;Node2</title>
<path fill="none" stroke="midnightblue" d="M403.799,-31.907C425.814,-39.6289 453.332,-49.2806 473.464,-56.3417"/>
<polygon fill="midnightblue" stroke="midnightblue" points="404.712,-28.5183 394.117,-28.5112 402.395,-35.1237 404.712,-28.5183"/>
</g>
<!-- Node8 -->
<g id="node8" class="node"><title>Node8</title>
<g id="a_node8"><a xlink:href="a00168.html#ga453aeaa886278333403ff4937c01dcf3" target="_top" xlink:title="Puts string to USART port. ">
<polygon fill="white" stroke="black" points="454,-9.5 454,-28.5 550,-28.5 550,-9.5 454,-9.5"/>
<text text-anchor="middle" x="502" y="-16.5" font-family="Helvetica,sans-Serif" font-size="10.00">TM_USART_Puts</text>
</a>
</g>
</g>
<!-- Node7&#45;&gt;Node8 -->
<g id="edge11" class="edge"><title>Node7&#45;&gt;Node8</title>
<path fill="none" stroke="midnightblue" d="M424.326,-12.3129C434.133,-12.1845 444.223,-12.2526 453.732,-12.5172"/>
<polygon fill="midnightblue" stroke="midnightblue" points="424.17,-8.81528 414.243,-12.5179 424.312,-15.8138 424.17,-8.81528"/>
</g>
<!-- Node8&#45;&gt;Node7 -->
<g id="edge12" class="edge"><title>Node8&#45;&gt;Node7</title>
<path fill="none" stroke="midnightblue" d="M443.649,-25.6874C433.84,-25.8155 423.75,-25.747 414.243,-25.4821"/>
<polygon fill="midnightblue" stroke="midnightblue" points="443.805,-29.185 453.732,-25.4828 443.663,-22.1865 443.805,-29.185"/>
</g>
</g>
</svg>
