<?xml version="1.0" encoding="UTF-8" standalone="no"?>
<!DOCTYPE svg PUBLIC "-//W3C//DTD SVG 1.1//EN"
 "http://www.w3.org/Graphics/SVG/1.1/DTD/svg11.dtd">
<!-- Generated by graphviz version 2.38.0 (20140413.2041)
 -->
<!-- Title: CRYP_DataOut Pages: 1 -->
<svg width="235pt" height="332pt"
 viewBox="0.00 0.00 235.00 332.00" xmlns="http://www.w3.org/2000/svg" xmlns:xlink="http://www.w3.org/1999/xlink">
<g id="graph0" class="graph" transform="scale(1 1) rotate(0) translate(4 328)">
<title>CRYP_DataOut</title>
<polygon fill="white" stroke="none" points="-4,4 -4,-328 231,-328 231,4 -4,4"/>
<!-- Node1 -->
<g id="node1" class="node"><title>Node1</title>
<polygon fill="#bfbfbf" stroke="black" points="0,-152.5 0,-171.5 87,-171.5 87,-152.5 0,-152.5"/>
<text text-anchor="middle" x="43.5" y="-159.5" font-family="Helvetica,sans-Serif" font-size="10.00">CRYP_DataOut</text>
</g>
<!-- Node2 -->
<g id="node2" class="node"><title>Node2</title>
<g id="a_node2"><a xlink:href="a00571.html#ga79ff82ece0e9620dc86d6e57abe639e1" target="_top" xlink:title="Encrypt and decrypt using AES in ECB Mode. ">
<polygon fill="white" stroke="black" points="126.5,-304.5 126.5,-323.5 223.5,-323.5 223.5,-304.5 126.5,-304.5"/>
<text text-anchor="middle" x="175" y="-311.5" font-family="Helvetica,sans-Serif" font-size="10.00">CRYP_AES_ECB</text>
</a>
</g>
</g>
<!-- Node1&#45;&gt;Node2 -->
<g id="edge1" class="edge"><title>Node1&#45;&gt;Node2</title>
<path fill="none" stroke="midnightblue" d="M51.0464,-181.166C61.7522,-209.798 85.632,-263.71 123,-295 127.564,-298.822 132.97,-301.913 138.528,-304.402"/>
<polygon fill="midnightblue" stroke="midnightblue" points="54.2604,-179.76 47.5876,-171.531 47.672,-182.125 54.2604,-179.76"/>
</g>
<!-- Node3 -->
<g id="node3" class="node"><title>Node3</title>
<g id="a_node3"><a xlink:href="a00571.html#gaa43eadf707257710f6a53b3295b39d70" target="_top" xlink:title="Encrypt and decrypt using AES in CBC Mode. ">
<polygon fill="white" stroke="black" points="126,-266.5 126,-285.5 224,-285.5 224,-266.5 126,-266.5"/>
<text text-anchor="middle" x="175" y="-273.5" font-family="Helvetica,sans-Serif" font-size="10.00">CRYP_AES_CBC</text>
</a>
</g>
</g>
<!-- Node1&#45;&gt;Node3 -->
<g id="edge2" class="edge"><title>Node1&#45;&gt;Node3</title>
<path fill="none" stroke="midnightblue" d="M55.512,-180.484C68.9892,-201.665 93.6721,-236.133 123,-257 128.312,-260.78 134.466,-263.902 140.621,-266.447"/>
<polygon fill="midnightblue" stroke="midnightblue" points="58.3683,-178.448 50.1319,-171.783 52.4146,-182.129 58.3683,-178.448"/>
</g>
<!-- Node4 -->
<g id="node4" class="node"><title>Node4</title>
<g id="a_node4"><a xlink:href="a00571.html#ga2f36aea6e94452e5e5e938547fb89d4c" target="_top" xlink:title="Encrypt and decrypt using AES in CTR Mode. ">
<polygon fill="white" stroke="black" points="126.5,-228.5 126.5,-247.5 223.5,-247.5 223.5,-228.5 126.5,-228.5"/>
<text text-anchor="middle" x="175" y="-235.5" font-family="Helvetica,sans-Serif" font-size="10.00">CRYP_AES_CTR</text>
</a>
</g>
</g>
<!-- Node1&#45;&gt;Node4 -->
<g id="edge3" class="edge"><title>Node1&#45;&gt;Node4</title>
<path fill="none" stroke="midnightblue" d="M63.6953,-178.229C79.0137,-190.598 101.412,-207.42 123,-219 129.661,-222.573 137.14,-225.768 144.274,-228.473"/>
<polygon fill="midnightblue" stroke="midnightblue" points="65.5007,-175.183 55.5537,-171.534 61.0546,-180.589 65.5007,-175.183"/>
</g>
<!-- Node5 -->
<g id="node5" class="node"><title>Node5</title>
<g id="a_node5"><a xlink:href="a00571.html#ga74b48d820c5c360eb303fc2fb78af055" target="_top" xlink:title="Encrypt and decrypt using AES in GCM Mode. The GCM and CCM modes are available only on STM32F437x Dev...">
<polygon fill="white" stroke="black" points="125.5,-190.5 125.5,-209.5 224.5,-209.5 224.5,-190.5 125.5,-190.5"/>
<text text-anchor="middle" x="175" y="-197.5" font-family="Helvetica,sans-Serif" font-size="10.00">CRYP_AES_GCM</text>
</a>
</g>
</g>
<!-- Node1&#45;&gt;Node5 -->
<g id="edge4" class="edge"><title>Node1&#45;&gt;Node5</title>
<path fill="none" stroke="midnightblue" d="M87.219,-174.535C104.836,-179.705 124.923,-185.599 141.332,-190.414"/>
<polygon fill="midnightblue" stroke="midnightblue" points="87.7592,-171.046 77.1783,-171.589 85.7882,-177.763 87.7592,-171.046"/>
</g>
<!-- Node6 -->
<g id="node6" class="node"><title>Node6</title>
<g id="a_node6"><a xlink:href="a00571.html#ga9d9f5c74b634b85b7aa8c2a2ea0bcd51" target="_top" xlink:title="Encrypt and decrypt using AES in CCM Mode. The GCM and CCM modes are available only on STM32F437x Dev...">
<polygon fill="white" stroke="black" points="125.5,-152.5 125.5,-171.5 224.5,-171.5 224.5,-152.5 125.5,-152.5"/>
<text text-anchor="middle" x="175" y="-159.5" font-family="Helvetica,sans-Serif" font-size="10.00">CRYP_AES_CCM</text>
</a>
</g>
</g>
<!-- Node1&#45;&gt;Node6 -->
<g id="edge5" class="edge"><title>Node1&#45;&gt;Node6</title>
<path fill="none" stroke="midnightblue" d="M97.5185,-162C106.764,-162 116.34,-162 125.458,-162"/>
<polygon fill="midnightblue" stroke="midnightblue" points="97.2621,-158.5 87.262,-162 97.262,-165.5 97.2621,-158.5"/>
</g>
<!-- Node7 -->
<g id="node7" class="node"><title>Node7</title>
<g id="a_node7"><a xlink:href="a00572.html#ga3b96b7608b39197209abed5f5845f590" target="_top" xlink:title="Encrypt and decrypt using DES in ECB Mode. ">
<polygon fill="white" stroke="black" points="126,-114.5 126,-133.5 224,-133.5 224,-114.5 126,-114.5"/>
<text text-anchor="middle" x="175" y="-121.5" font-family="Helvetica,sans-Serif" font-size="10.00">CRYP_DES_ECB</text>
</a>
</g>
</g>
<!-- Node1&#45;&gt;Node7 -->
<g id="edge6" class="edge"><title>Node1&#45;&gt;Node7</title>
<path fill="none" stroke="midnightblue" d="M87.219,-149.465C104.836,-144.295 124.923,-138.401 141.332,-133.586"/>
<polygon fill="midnightblue" stroke="midnightblue" points="85.7882,-146.237 77.1783,-152.411 87.7592,-152.954 85.7882,-146.237"/>
</g>
<!-- Node8 -->
<g id="node8" class="node"><title>Node8</title>
<g id="a_node8"><a xlink:href="a00572.html#ga75724391a8560c557e1152b805f5cad1" target="_top" xlink:title="Encrypt and decrypt using DES in CBC Mode. ">
<polygon fill="white" stroke="black" points="126,-76.5 126,-95.5 224,-95.5 224,-76.5 126,-76.5"/>
<text text-anchor="middle" x="175" y="-83.5" font-family="Helvetica,sans-Serif" font-size="10.00">CRYP_DES_CBC</text>
</a>
</g>
</g>
<!-- Node1&#45;&gt;Node8 -->
<g id="edge7" class="edge"><title>Node1&#45;&gt;Node8</title>
<path fill="none" stroke="midnightblue" d="M63.6953,-145.771C79.0137,-133.402 101.412,-116.58 123,-105 129.661,-101.427 137.14,-98.2317 144.274,-95.5269"/>
<polygon fill="midnightblue" stroke="midnightblue" points="61.0546,-143.411 55.5537,-152.466 65.5007,-148.817 61.0546,-143.411"/>
</g>
<!-- Node9 -->
<g id="node9" class="node"><title>Node9</title>
<g id="a_node9"><a xlink:href="a00573.html#ga17c03ab4f0566fcbc3dd8c052e6f9886" target="_top" xlink:title="Encrypt and decrypt using TDES in ECB Mode. ">
<polygon fill="white" stroke="black" points="123,-38.5 123,-57.5 227,-57.5 227,-38.5 123,-38.5"/>
<text text-anchor="middle" x="175" y="-45.5" font-family="Helvetica,sans-Serif" font-size="10.00">CRYP_TDES_ECB</text>
</a>
</g>
</g>
<!-- Node1&#45;&gt;Node9 -->
<g id="edge8" class="edge"><title>Node1&#45;&gt;Node9</title>
<path fill="none" stroke="midnightblue" d="M55.512,-143.516C68.9892,-122.335 93.6721,-87.8675 123,-67 128.312,-63.2203 134.466,-60.0978 140.621,-57.5528"/>
<polygon fill="midnightblue" stroke="midnightblue" points="52.4146,-141.871 50.1319,-152.217 58.3683,-145.552 52.4146,-141.871"/>
</g>
<!-- Node10 -->
<g id="node10" class="node"><title>Node10</title>
<g id="a_node10"><a xlink:href="a00573.html#gabe52a368c4882450c1e82f16bc1eb686" target="_top" xlink:title="Encrypt and decrypt using TDES in CBC Mode. ">
<polygon fill="white" stroke="black" points="123,-0.5 123,-19.5 227,-19.5 227,-0.5 123,-0.5"/>
<text text-anchor="middle" x="175" y="-7.5" font-family="Helvetica,sans-Serif" font-size="10.00">CRYP_TDES_CBC</text>
</a>
</g>
</g>
<!-- Node1&#45;&gt;Node10 -->
<g id="edge9" class="edge"><title>Node1&#45;&gt;Node10</title>
<path fill="none" stroke="midnightblue" d="M51.0464,-142.834C61.7522,-114.202 85.632,-60.2903 123,-29 127.564,-25.1784 132.97,-22.087 138.528,-19.598"/>
<polygon fill="midnightblue" stroke="midnightblue" points="47.672,-141.875 47.5876,-152.469 54.2604,-144.24 47.672,-141.875"/>
</g>
</g>
</svg>
