<?xml version="1.0" encoding="UTF-8" standalone="no"?>
<!DOCTYPE svg PUBLIC "-//W3C//DTD SVG 1.1//EN"
 "http://www.w3.org/Graphics/SVG/1.1/DTD/svg11.dtd">
<!-- Generated by graphviz version 2.38.0 (20140413.2041)
 -->
<!-- Title: arm_fill_q15 Pages: 1 -->
<svg width="244pt" height="356pt"
 viewBox="0.00 0.00 244.00 356.00" xmlns="http://www.w3.org/2000/svg" xmlns:xlink="http://www.w3.org/1999/xlink">
<g id="graph0" class="graph" transform="scale(1 1) rotate(0) translate(4 352)">
<title>arm_fill_q15</title>
<polygon fill="white" stroke="none" points="-4,4 -4,-352 240,-352 240,4 -4,4"/>
<!-- Node1 -->
<g id="node1" class="node"><title>Node1</title>
<polygon fill="#bfbfbf" stroke="black" points="0,-164.5 0,-183.5 69,-183.5 69,-164.5 0,-164.5"/>
<text text-anchor="middle" x="34.5" y="-171.5" font-family="Helvetica,sans-Serif" font-size="10.00">arm_fill_q15</text>
</g>
<!-- Node2 -->
<g id="node2" class="node"><title>Node2</title>
<g id="a_node2"><a xlink:href="a00555.html#gaf16f490d245391ec18a42adc73d6d749" target="_top" xlink:title="Convolution of Q15 sequences (fast version) for Cortex&#45;M3 and Cortex&#45;M4. ">
<polygon fill="white" stroke="black" points="110,-328.5 110,-347.5 231,-347.5 231,-328.5 110,-328.5"/>
<text text-anchor="middle" x="170.5" y="-335.5" font-family="Helvetica,sans-Serif" font-size="10.00">arm_conv_fast_opt_q15</text>
</a>
</g>
</g>
<!-- Node1&#45;&gt;Node2 -->
<g id="edge1" class="edge"><title>Node1&#45;&gt;Node2</title>
<path fill="none" stroke="midnightblue" d="M39.5744,-193.874C47.0205,-225.13 65.8083,-285.643 105,-319 109.534,-322.859 114.821,-325.934 120.381,-328.385"/>
<polygon fill="midnightblue" stroke="midnightblue" points="42.918,-192.786 37.3274,-183.787 36.0855,-194.308 42.918,-192.786"/>
</g>
<!-- Node3 -->
<g id="node3" class="node"><title>Node3</title>
<g id="a_node3"><a xlink:href="a00555.html#gac77dbcaef5c754cac27eab96c4753a3c" target="_top" xlink:title="Convolution of Q15 sequences. ">
<polygon fill="white" stroke="black" points="121,-290.5 121,-309.5 220,-309.5 220,-290.5 121,-290.5"/>
<text text-anchor="middle" x="170.5" y="-297.5" font-family="Helvetica,sans-Serif" font-size="10.00">arm_conv_opt_q15</text>
</a>
</g>
</g>
<!-- Node1&#45;&gt;Node3 -->
<g id="edge2" class="edge"><title>Node1&#45;&gt;Node3</title>
<path fill="none" stroke="midnightblue" d="M42.9288,-193.082C53.2544,-217.119 74.2148,-258.05 105,-281 110.241,-284.907 116.276,-288.014 122.506,-290.484"/>
<polygon fill="midnightblue" stroke="midnightblue" points="46.0844,-191.552 39.0461,-183.633 39.6097,-194.213 46.0844,-191.552"/>
</g>
<!-- Node4 -->
<g id="node4" class="node"><title>Node4</title>
<g id="a_node4"><a xlink:href="a00555.html#ga4c7cf073e89d6d57cc4e711f078c3f68" target="_top" xlink:title="Convolution of Q7 sequences. ">
<polygon fill="white" stroke="black" points="123.5,-252.5 123.5,-271.5 217.5,-271.5 217.5,-252.5 123.5,-252.5"/>
<text text-anchor="middle" x="170.5" y="-259.5" font-family="Helvetica,sans-Serif" font-size="10.00">arm_conv_opt_q7</text>
</a>
</g>
</g>
<!-- Node1&#45;&gt;Node4 -->
<g id="edge3" class="edge"><title>Node1&#45;&gt;Node4</title>
<path fill="none" stroke="midnightblue" d="M48.7638,-191.405C61.5566,-207.046 82.2802,-229.562 105,-243 111.43,-246.803 118.677,-249.893 125.93,-252.387"/>
<polygon fill="midnightblue" stroke="midnightblue" points="51.468,-189.182 42.5104,-183.524 45.9846,-193.533 51.468,-189.182"/>
</g>
<!-- Node5 -->
<g id="node5" class="node"><title>Node5</title>
<g id="a_node5"><a xlink:href="a00556.html#ga3de9c4ddcc7886de25b70d875099a8d9" target="_top" xlink:title="Partial convolution of Q15 sequences (fast version) for Cortex&#45;M3 and Cortex&#45;M4. ">
<polygon fill="white" stroke="black" points="114,-203 114,-233 227,-233 227,-203 114,-203"/>
<text text-anchor="start" x="122" y="-221" font-family="Helvetica,sans-Serif" font-size="10.00">arm_conv_partial_fast</text>
<text text-anchor="middle" x="170.5" y="-210" font-family="Helvetica,sans-Serif" font-size="10.00">_opt_q15</text>
</a>
</g>
</g>
<!-- Node1&#45;&gt;Node5 -->
<g id="edge4" class="edge"><title>Node1&#45;&gt;Node5</title>
<path fill="none" stroke="midnightblue" d="M74.31,-186.744C89.7236,-191.805 107.572,-197.665 123.619,-202.935"/>
<polygon fill="midnightblue" stroke="midnightblue" points="75.1688,-183.342 64.576,-183.547 72.985,-189.992 75.1688,-183.342"/>
</g>
<!-- Node6 -->
<g id="node6" class="node"><title>Node6</title>
<g id="a_node6"><a xlink:href="a00556.html#ga834b23b4ade8682beeb55778399101f8" target="_top" xlink:title="Partial convolution of Q15 sequences. ">
<polygon fill="white" stroke="black" points="105,-164.5 105,-183.5 236,-183.5 236,-164.5 105,-164.5"/>
<text text-anchor="middle" x="170.5" y="-171.5" font-family="Helvetica,sans-Serif" font-size="10.00">arm_conv_partial_opt_q15</text>
</a>
</g>
</g>
<!-- Node1&#45;&gt;Node6 -->
<g id="edge5" class="edge"><title>Node1&#45;&gt;Node6</title>
<path fill="none" stroke="midnightblue" d="M79.3487,-174C87.5268,-174 96.2297,-174 104.88,-174"/>
<polygon fill="midnightblue" stroke="midnightblue" points="79.3139,-170.5 69.3139,-174 79.3138,-177.5 79.3139,-170.5"/>
</g>
<!-- Node7 -->
<g id="node7" class="node"><title>Node7</title>
<g id="a_node7"><a xlink:href="a00556.html#ga3707e16af1435b215840006a7ab0c98f" target="_top" xlink:title="Partial convolution of Q7 sequences. ">
<polygon fill="white" stroke="black" points="108,-126.5 108,-145.5 233,-145.5 233,-126.5 108,-126.5"/>
<text text-anchor="middle" x="170.5" y="-133.5" font-family="Helvetica,sans-Serif" font-size="10.00">arm_conv_partial_opt_q7</text>
</a>
</g>
</g>
<!-- Node1&#45;&gt;Node7 -->
<g id="edge6" class="edge"><title>Node1&#45;&gt;Node7</title>
<path fill="none" stroke="midnightblue" d="M78.9383,-161.682C97.3491,-156.461 118.48,-150.468 135.697,-145.586"/>
<polygon fill="midnightblue" stroke="midnightblue" points="77.9796,-158.315 69.3139,-164.411 79.8894,-165.05 77.9796,-158.315"/>
</g>
<!-- Node8 -->
<g id="node8" class="node"><title>Node8</title>
<g id="a_node8"><a xlink:href="a00557.html#ga40a0236b17220e8e22a22b5bc1c53c6b" target="_top" xlink:title="Correlation of Q15 sequences (fast version) for Cortex&#45;M3 and Cortex&#45;M4. ">
<polygon fill="white" stroke="black" points="121.5,-77 121.5,-107 219.5,-107 219.5,-77 121.5,-77"/>
<text text-anchor="start" x="129.5" y="-95" font-family="Helvetica,sans-Serif" font-size="10.00">arm_correlate_fast</text>
<text text-anchor="middle" x="170.5" y="-84" font-family="Helvetica,sans-Serif" font-size="10.00">_opt_q15</text>
</a>
</g>
</g>
<!-- Node1&#45;&gt;Node8 -->
<g id="edge7" class="edge"><title>Node1&#45;&gt;Node8</title>
<path fill="none" stroke="midnightblue" d="M52.5982,-157.345C66.003,-144.968 85.5802,-128.335 105,-117 111.223,-113.368 118.072,-110.065 124.912,-107.136"/>
<polygon fill="midnightblue" stroke="midnightblue" points="49.9767,-155.006 45.106,-164.415 54.7811,-160.097 49.9767,-155.006"/>
</g>
<!-- Node9 -->
<g id="node9" class="node"><title>Node9</title>
<g id="a_node9"><a xlink:href="a00557.html#gad71c0ec70ec69edbc48563d9a5f68451" target="_top" xlink:title="Correlation of Q15 sequences. ">
<polygon fill="white" stroke="black" points="112.5,-38.5 112.5,-57.5 228.5,-57.5 228.5,-38.5 112.5,-38.5"/>
<text text-anchor="middle" x="170.5" y="-45.5" font-family="Helvetica,sans-Serif" font-size="10.00">arm_correlate_opt_q15</text>
</a>
</g>
</g>
<!-- Node1&#45;&gt;Node9 -->
<g id="edge8" class="edge"><title>Node1&#45;&gt;Node9</title>
<path fill="none" stroke="midnightblue" d="M43.0274,-155.164C53.458,-131.423 74.5302,-90.9507 105,-68 110.806,-63.6267 117.583,-60.1987 124.52,-57.5145"/>
<polygon fill="midnightblue" stroke="midnightblue" points="39.7541,-153.919 39.0999,-164.494 46.2057,-156.635 39.7541,-153.919"/>
</g>
<!-- Node10 -->
<g id="node10" class="node"><title>Node10</title>
<g id="a_node10"><a xlink:href="a00557.html#ga746e8857cafe33ec5d6780729c18c311" target="_top" xlink:title="Correlation of Q7 sequences. ">
<polygon fill="white" stroke="black" points="115.5,-0.5 115.5,-19.5 225.5,-19.5 225.5,-0.5 115.5,-0.5"/>
<text text-anchor="middle" x="170.5" y="-7.5" font-family="Helvetica,sans-Serif" font-size="10.00">arm_correlate_opt_q7</text>
</a>
</g>
</g>
<!-- Node1&#45;&gt;Node10 -->
<g id="edge9" class="edge"><title>Node1&#45;&gt;Node10</title>
<path fill="none" stroke="midnightblue" d="M39.5744,-154.126C47.0205,-122.87 65.8083,-62.3575 105,-29 109.534,-25.1412 114.821,-22.0658 120.381,-19.6148"/>
<polygon fill="midnightblue" stroke="midnightblue" points="36.0855,-153.692 37.3274,-164.213 42.918,-155.214 36.0855,-153.692"/>
</g>
</g>
</svg>
