<?xml version="1.0" encoding="UTF-8" standalone="no"?>
<!DOCTYPE svg PUBLIC "-//W3C//DTD SVG 1.1//EN"
 "http://www.w3.org/Graphics/SVG/1.1/DTD/svg11.dtd">
<!-- Generated by graphviz version 2.38.0 (20140413.2041)
 -->
<!-- Title: TM_UART7_ReceiveHandler Pages: 1 -->
<svg width="701pt" height="122pt"
 viewBox="0.00 0.00 701.00 122.00" xmlns="http://www.w3.org/2000/svg" xmlns:xlink="http://www.w3.org/1999/xlink">
<g id="graph0" class="graph" transform="scale(1 1) rotate(0) translate(4 118)">
<title>TM_UART7_ReceiveHandler</title>
<polygon fill="white" stroke="none" points="-4,4 -4,-118 697,-118 697,4 -4,4"/>
<!-- Node1 -->
<g id="node1" class="node"><title>Node1</title>
<polygon fill="#bfbfbf" stroke="black" points="0,-56.5 0,-75.5 144,-75.5 144,-56.5 0,-56.5"/>
<text text-anchor="middle" x="72" y="-63.5" font-family="Helvetica,sans-Serif" font-size="10.00">TM_UART7_ReceiveHandler</text>
</g>
<!-- Node2 -->
<g id="node2" class="node"><title>Node2</title>
<g id="a_node2"><a xlink:href="a00582.html#ga453aeaa886278333403ff4937c01dcf3" target="_top" xlink:title="Puts string to USART port. ">
<polygon fill="white" stroke="black" points="223,-94.5 223,-113.5 319,-113.5 319,-94.5 223,-94.5"/>
<text text-anchor="middle" x="271" y="-101.5" font-family="Helvetica,sans-Serif" font-size="10.00">TM_USART_Puts</text>
</a>
</g>
</g>
<!-- Node1&#45;&gt;Node2 -->
<g id="edge1" class="edge"><title>Node1&#45;&gt;Node2</title>
<path fill="none" stroke="midnightblue" d="M132.459,-77.4693C161.43,-83.0575 195.776,-89.6826 222.899,-94.9145"/>
<polygon fill="midnightblue" stroke="midnightblue" points="132.939,-73.9974 122.457,-75.54 131.613,-80.8707 132.939,-73.9974"/>
</g>
<!-- Node3 -->
<g id="node3" class="node"><title>Node3</title>
<g id="a_node3"><a xlink:href="a00582.html#gab807a241fae0eae0d5434bae20a3569f" target="_top" xlink:title="Puts character to USART port. ">
<polygon fill="white" stroke="black" points="398,-75.5 398,-94.5 494,-94.5 494,-75.5 398,-75.5"/>
<text text-anchor="middle" x="446" y="-82.5" font-family="Helvetica,sans-Serif" font-size="10.00">TM_USART_Putc</text>
</a>
</g>
</g>
<!-- Node1&#45;&gt;Node3 -->
<g id="edge9" class="edge"><title>Node1&#45;&gt;Node3</title>
<path fill="none" stroke="midnightblue" d="M154.572,-70.1663C229.087,-73.9722 336.684,-79.4677 397.828,-82.5907"/>
<polygon fill="midnightblue" stroke="midnightblue" points="154.451,-66.6556 144.285,-69.6409 154.094,-73.6465 154.451,-66.6556"/>
</g>
<!-- Node6 -->
<g id="node6" class="node"><title>Node6</title>
<g id="a_node6"><a xlink:href="a00582.html#ga5cf7d7f613f4241fb77321ef9554f46b" target="_top" xlink:title="Callback for custom pins initialization for USARTx. ">
<polygon fill="white" stroke="black" points="180,-0.5 180,-19.5 362,-19.5 362,-0.5 180,-0.5"/>
<text text-anchor="middle" x="271" y="-7.5" font-family="Helvetica,sans-Serif" font-size="10.00">TM_USART_InitCustomPinsCallback</text>
</a>
</g>
</g>
<!-- Node1&#45;&gt;Node6 -->
<g id="edge6" class="edge"><title>Node1&#45;&gt;Node6</title>
<path fill="none" stroke="midnightblue" d="M116.663,-53.5882C152.857,-43.2996 203.549,-28.8895 236.576,-19.5011"/>
<polygon fill="midnightblue" stroke="midnightblue" points="115.527,-50.2723 106.866,-56.3733 117.441,-57.0055 115.527,-50.2723"/>
</g>
<!-- Node2&#45;&gt;Node3 -->
<g id="edge2" class="edge"><title>Node2&#45;&gt;Node3</title>
<path fill="none" stroke="midnightblue" d="M318.017,-92.9015C342.633,-89.2734 372.896,-85.934 397.704,-84.1027"/>
<polygon fill="midnightblue" stroke="midnightblue" points="317.195,-89.4868 307.846,-94.4705 318.262,-96.405 317.195,-89.4868"/>
</g>
<!-- Node3&#45;&gt;Node2 -->
<g id="edge5" class="edge"><title>Node3&#45;&gt;Node2</title>
<path fill="none" stroke="midnightblue" d="M399.129,-96.077C374.479,-99.7145 344.134,-103.064 319.273,-104.899"/>
<polygon fill="midnightblue" stroke="midnightblue" points="399.963,-99.4897 409.312,-94.5041 398.895,-92.5718 399.963,-99.4897"/>
</g>
<!-- Node4 -->
<g id="node4" class="node"><title>Node4</title>
<g id="a_node4"><a xlink:href="a00582.html#ga70bed9fb6612cb572a8c10e148404344" target="_top" xlink:title="Initializes USARTx peripheral and corresponding pins. ">
<polygon fill="white" stroke="black" points="530,-75.5 530,-94.5 619,-94.5 619,-75.5 530,-75.5"/>
<text text-anchor="middle" x="574.5" y="-82.5" font-family="Helvetica,sans-Serif" font-size="10.00">TM_USART_Init</text>
</a>
</g>
</g>
<!-- Node3&#45;&gt;Node4 -->
<g id="edge3" class="edge"><title>Node3&#45;&gt;Node4</title>
<path fill="none" stroke="midnightblue" d="M504.371,-85C512.88,-85 521.533,-85 529.706,-85"/>
<polygon fill="midnightblue" stroke="midnightblue" points="504.104,-81.5001 494.104,-85 504.104,-88.5001 504.104,-81.5001"/>
</g>
<!-- Node5 -->
<g id="node5" class="node"><title>Node5</title>
<g id="a_node5"><a xlink:href="a01287.html#ga840291bc02cba5474a4cb46a9b9566fe" target="_top" xlink:title="Main function entry. ">
<polygon fill="white" stroke="black" points="655,-75.5 655,-94.5 693,-94.5 693,-75.5 655,-75.5"/>
<text text-anchor="middle" x="674" y="-82.5" font-family="Helvetica,sans-Serif" font-size="10.00">main</text>
</a>
</g>
</g>
<!-- Node4&#45;&gt;Node5 -->
<g id="edge4" class="edge"><title>Node4&#45;&gt;Node5</title>
<path fill="none" stroke="midnightblue" d="M629.171,-85C638.409,-85 647.409,-85 654.825,-85"/>
<polygon fill="midnightblue" stroke="midnightblue" points="629.117,-81.5001 619.117,-85 629.117,-88.5001 629.117,-81.5001"/>
</g>
<!-- Node6&#45;&gt;Node3 -->
<g id="edge8" class="edge"><title>Node6&#45;&gt;Node3</title>
<path fill="none" stroke="midnightblue" d="M303.875,-23.8187C338.418,-38.7941 392.634,-62.2981 422.823,-75.3856"/>
<polygon fill="midnightblue" stroke="midnightblue" points="304.83,-20.4178 294.263,-19.6514 302.045,-26.8402 304.83,-20.4178"/>
</g>
<!-- Node6&#45;&gt;Node6 -->
<g id="edge7" class="edge"><title>Node6&#45;&gt;Node6</title>
<path fill="none" stroke="midnightblue" d="M238.44,-28.2746C239.368,-33.741 250.222,-38 271,-38 301.926,-38 310.865,-28.5653 297.818,-19.7571"/>
<polygon fill="midnightblue" stroke="midnightblue" points="241.494,-30.0054 244.182,-19.7571 235.69,-26.0928 241.494,-30.0054"/>
</g>
</g>
</svg>
