<?xml version="1.0" encoding="UTF-8" standalone="no"?>
<!DOCTYPE svg PUBLIC "-//W3C//DTD SVG 1.1//EN"
 "http://www.w3.org/Graphics/SVG/1.1/DTD/svg11.dtd">
<!-- Generated by graphviz version 2.38.0 (20140413.2041)
 -->
<!-- Title: MD_DAC_SigGen_Macros Pages: 1 -->
<svg width="393pt" height="28pt"
 viewBox="0.00 0.00 393.00 28.00" xmlns="http://www.w3.org/2000/svg" xmlns:xlink="http://www.w3.org/1999/xlink">
<g id="graph0" class="graph" transform="scale(1 1) rotate(0) translate(4 24)">
<title>MD_DAC_SigGen_Macros</title>
<polygon fill="white" stroke="none" points="-4,4 -4,-24 389,-24 389,4 -4,4"/>
<!-- Node2 -->
<g id="node1" class="node"><title>Node2</title>
<g id="a_node1"><a xlink:href="a00597.html" target="_top" xlink:title="General_Notes">
<polygon fill="white" stroke="black" points="303,-0.5 303,-19.5 385,-19.5 385,-0.5 303,-0.5"/>
<text text-anchor="middle" x="344" y="-7.5" font-family="Helvetica,sans-Serif" font-size="10.00">General_Notes</text>
</a>
</g>
</g>
<!-- Node1 -->
<g id="node2" class="node"><title>Node1</title>
<g id="a_node2"><a xlink:href="a00595.html" target="_top" xlink:title="MD_DAC_SigGen">
<polygon fill="white" stroke="black" points="0,-0.5 0,-19.5 97,-19.5 97,-0.5 0,-0.5"/>
<text text-anchor="middle" x="48.5" y="-7.5" font-family="Helvetica,sans-Serif" font-size="10.00">MD_DAC_SigGen</text>
</a>
</g>
</g>
<!-- Node0 -->
<g id="node3" class="node"><title>Node0</title>
<polygon fill="#bfbfbf" stroke="black" points="133,-0.5 133,-19.5 267,-19.5 267,-0.5 133,-0.5"/>
<text text-anchor="middle" x="200" y="-7.5" font-family="Helvetica,sans-Serif" font-size="10.00">MD_DAC_SigGen_Macros</text>
</g>
<!-- Node1&#45;&gt;Node0 -->
<g id="edge1" class="edge"><title>Node1&#45;&gt;Node0</title>
<path fill="none" stroke="black" d="M107.281,-10C115.681,-10 124.384,-10 132.933,-10"/>
<polygon fill="black" stroke="black" points="107.214,-6.5001 97.2138,-10 107.214,-13.5001 107.214,-6.5001"/>
</g>
<!-- Node0&#45;&gt;Node2 -->
<g id="edge2" class="edge"><title>Node0&#45;&gt;Node2</title>
<path fill="none" stroke="black" d="M277.293,-10C286.036,-10 294.671,-10 302.665,-10"/>
<polygon fill="black" stroke="black" points="277.012,-6.5001 267.011,-10 277.011,-13.5001 277.012,-6.5001"/>
</g>
</g>
</svg>
