<?xml version="1.0" encoding="UTF-8" standalone="no"?>
<!DOCTYPE svg PUBLIC "-//W3C//DTD SVG 1.1//EN"
 "http://www.w3.org/Graphics/SVG/1.1/DTD/svg11.dtd">
<!-- Generated by graphviz version 2.38.0 (20140413.2041)
 -->
<!-- Title: arm_std_f32 Pages: 1 -->
<!--zoomable 1738 -->
<svg id="main" version="1.1" xmlns="http://www.w3.org/2000/svg" xmlns:xlink="http://www.w3.org/1999/xlink" xml:space="preserve" onload="init(evt)">
<style type="text/css"><![CDATA[
.edge:hover path { stroke: red; }
.edge:hover polygon { stroke: red; fill: red; }
]]></style>
<script type="text/javascript"><![CDATA[
var edges = document.getElementsByTagName('g');
if (edges && edges.length) {
  for (var i=0;i<edges.length;i++) {
    if (edges[i].id.substr(0,4)=='edge') {
      edges[i].setAttribute('class','edge');
    }
  }
}
]]></script>
        <defs>
                <circle id="rim" cx="0" cy="0" r="7"/>
                <circle id="rim2" cx="0" cy="0" r="3.5"/>
                <g id="zoomPlus">
                        <use xlink:href="#rim" fill="#404040">
                                <set attributeName="fill" to="#808080" begin="zoomplus.mouseover" end="zoomplus.mouseout"/>
                        </use>
                        <path d="M-4,0h8M0,-4v8" fill="none" stroke="white" stroke-width="1.5" pointer-events="none"/>
                </g>
                <g id="zoomMin">
                        <use xlink:href="#rim" fill="#404040">
                                <set attributeName="fill" to="#808080" begin="zoomminus.mouseover" end="zoomminus.mouseout"/>
                        </use>
                        <path d="M-4,0h8" fill="none" stroke="white" stroke-width="1.5" pointer-events="none"/>
                </g>
                <g id="dirArrow">
                        <path fill="none" stroke="white" stroke-width="1.5" d="M0,-3.0v7 M-2.5,-0.5L0,-3.0L2.5,-0.5"/>
                </g>
               <g id="resetDef">
                       <use xlink:href="#rim2" fill="#404040">
                               <set attributeName="fill" to="#808080" begin="reset.mouseover" end="reset.mouseout"/>
                       </use>
               </g>
        </defs>

<script type="text/javascript">
var viewWidth = 478;
var viewHeight = 1738;
var sectionId = 'dynsection-1';
</script>
<script xlink:href="svgpan.js"/>
<svg id="graph" class="graph">
<g id="viewport">
<title>arm_std_f32</title>
<polygon fill="white" stroke="none" points="-4,4 -4,-1734 474,-1734 474,4 -4,4"/>
<!-- Node1 -->
<g id="node1" class="node"><title>Node1</title>
<polygon fill="#bfbfbf" stroke="black" points="0,-893.5 0,-912.5 71,-912.5 71,-893.5 0,-893.5"/>
<text text-anchor="middle" x="35.5" y="-900.5" font-family="Helvetica,sans-Serif" font-size="10.00">arm_std_f32</text>
</g>
<!-- Node2 -->
<g id="node2" class="node"><title>Node2</title>
<g id="a_node2"><a xlink:href="a00508.html#ga56a40d1cf842b0b45267df6761975da0" target="_top" xlink:title="Floating&#45;point square root function. ">
<polygon fill="white" stroke="black" points="107,-893.5 107,-912.5 181,-912.5 181,-893.5 107,-893.5"/>
<text text-anchor="middle" x="144" y="-900.5" font-family="Helvetica,sans-Serif" font-size="10.00">arm_sqrt_f32</text>
</a>
</g>
</g>
<!-- Node1&#45;&gt;Node2 -->
<g id="edge1" class="edge"><title>Node1&#45;&gt;Node2</title>
<path fill="none" stroke="midnightblue" d="M71.0775,-896.633C79.1954,-896.287 87.9762,-896.175 96.5206,-896.299"/>
<polygon fill="midnightblue" stroke="midnightblue" points="96.6772,-899.804 106.765,-896.566 96.8599,-892.806 96.6772,-899.804"/>
</g>
<!-- Node2&#45;&gt;Node1 -->
<g id="edge21" class="edge"><title>Node2&#45;&gt;Node1</title>
<path fill="none" stroke="midnightblue" d="M106.765,-909.434C98.5617,-909.749 89.7561,-909.828 81.2478,-909.673"/>
<polygon fill="midnightblue" stroke="midnightblue" points="81.1783,-906.169 71.0775,-909.367 80.9676,-913.166 81.1783,-906.169"/>
</g>
<!-- Node3 -->
<g id="node3" class="node"><title>Node3</title>
<g id="a_node3"><a xlink:href="a00508.html#ga119e25831e141d734d7ef10636670058" target="_top" xlink:title="Q31 square root function. ">
<polygon fill="white" stroke="black" points="394,-1425.5 394,-1444.5 470,-1444.5 470,-1425.5 394,-1425.5"/>
<text text-anchor="middle" x="432" y="-1432.5" font-family="Helvetica,sans-Serif" font-size="10.00">arm_sqrt_q31</text>
</a>
</g>
</g>
<!-- Node2&#45;&gt;Node3 -->
<g id="edge2" class="edge"><title>Node2&#45;&gt;Node3</title>
<path fill="none" stroke="midnightblue" d="M144.464,-912.626C142.885,-950.981 142.365,-1094.45 217,-1169 262.918,-1214.87 311.05,-1162.19 358,-1207 418.019,-1264.28 428.823,-1370.87 430.671,-1415.03"/>
<polygon fill="midnightblue" stroke="midnightblue" points="427.174,-1415.18 430.976,-1425.07 434.17,-1414.97 427.174,-1415.18"/>
</g>
<!-- Node4 -->
<g id="node4" class="node"><title>Node4</title>
<g id="a_node4"><a xlink:href="a00508.html#ga5abe5ca724f3e15849662b03752c1238" target="_top" xlink:title="Q15 square root function. ">
<polygon fill="white" stroke="black" points="394,-1026.5 394,-1045.5 470,-1045.5 470,-1026.5 394,-1026.5"/>
<text text-anchor="middle" x="432" y="-1033.5" font-family="Helvetica,sans-Serif" font-size="10.00">arm_sqrt_q15</text>
</a>
</g>
</g>
<!-- Node2&#45;&gt;Node4 -->
<g id="edge3" class="edge"><title>Node2&#45;&gt;Node4</title>
<path fill="none" stroke="midnightblue" d="M160.813,-912.663C175.086,-921.062 196.873,-933.091 217,-941 277.406,-964.738 299.933,-950.007 358,-979 379.165,-989.568 400.114,-1006.82 414.104,-1019.57"/>
<polygon fill="midnightblue" stroke="midnightblue" points="411.794,-1022.21 421.487,-1026.48 416.577,-1017.09 411.794,-1022.21"/>
</g>
<!-- Node5 -->
<g id="node5" class="node"><title>Node5</title>
<g id="a_node5"><a xlink:href="a00577.html#ga0b93d31bb5b5ed214c2b94d8a7744cd2" target="_top" xlink:title="Sum of the squares of the elements of a Q31 vector. ">
<polygon fill="white" stroke="black" points="244.5,-1634.5 244.5,-1653.5 330.5,-1653.5 330.5,-1634.5 244.5,-1634.5"/>
<text text-anchor="middle" x="287.5" y="-1641.5" font-family="Helvetica,sans-Serif" font-size="10.00">arm_power_q31</text>
</a>
</g>
</g>
<!-- Node2&#45;&gt;Node5 -->
<g id="edge4" class="edge"><title>Node2&#45;&gt;Node5</title>
<path fill="none" stroke="midnightblue" d="M145.309,-912.613C148.009,-994.119 168.67,-1567.81 217,-1625 221.774,-1630.65 228.05,-1634.7 234.879,-1637.59"/>
<polygon fill="midnightblue" stroke="midnightblue" points="233.852,-1640.94 244.447,-1640.86 236.114,-1634.32 233.852,-1640.94"/>
</g>
<!-- Node6 -->
<g id="node6" class="node"><title>Node6</title>
<g id="a_node6"><a xlink:href="a00577.html#ga993c00dd7f661d66bdb6e58426e893aa" target="_top" xlink:title="Sum of the squares of the elements of a floating&#45;point vector. ">
<polygon fill="white" stroke="black" points="246,-1596.5 246,-1615.5 329,-1615.5 329,-1596.5 246,-1596.5"/>
<text text-anchor="middle" x="287.5" y="-1603.5" font-family="Helvetica,sans-Serif" font-size="10.00">arm_power_f32</text>
</a>
</g>
</g>
<!-- Node2&#45;&gt;Node6 -->
<g id="edge5" class="edge"><title>Node2&#45;&gt;Node6</title>
<path fill="none" stroke="midnightblue" d="M145.374,-912.853C148.49,-992.761 171.185,-1533.09 217,-1587 222.126,-1593.03 228.965,-1597.24 236.356,-1600.16"/>
<polygon fill="midnightblue" stroke="midnightblue" points="235.336,-1603.51 245.926,-1603.21 237.462,-1596.84 235.336,-1603.51"/>
</g>
<!-- Node7 -->
<g id="node7" class="node"><title>Node7</title>
<g id="a_node7"><a xlink:href="a00577.html#ga7050c04b7515e01a75c38f1abbaf71ba" target="_top" xlink:title="Sum of the squares of the elements of a Q15 vector. ">
<polygon fill="white" stroke="black" points="244.5,-1558.5 244.5,-1577.5 330.5,-1577.5 330.5,-1558.5 244.5,-1558.5"/>
<text text-anchor="middle" x="287.5" y="-1565.5" font-family="Helvetica,sans-Serif" font-size="10.00">arm_power_q15</text>
</a>
</g>
</g>
<!-- Node2&#45;&gt;Node7 -->
<g id="edge6" class="edge"><title>Node2&#45;&gt;Node7</title>
<path fill="none" stroke="midnightblue" d="M145.435,-912.791C148.945,-989.941 173.637,-1498.29 217,-1549 221.643,-1554.43 227.673,-1558.38 234.24,-1561.25"/>
<polygon fill="midnightblue" stroke="midnightblue" points="233.553,-1564.71 244.147,-1564.71 235.863,-1558.11 233.553,-1564.71"/>
</g>
<!-- Node8 -->
<g id="node8" class="node"><title>Node8</title>
<g id="a_node8"><a xlink:href="a00577.html#gaf969c85c5655e3d72d7b99ff188f92c9" target="_top" xlink:title="Sum of the squares of the elements of a Q7 vector. ">
<polygon fill="white" stroke="black" points="247.5,-1520.5 247.5,-1539.5 327.5,-1539.5 327.5,-1520.5 247.5,-1520.5"/>
<text text-anchor="middle" x="287.5" y="-1527.5" font-family="Helvetica,sans-Serif" font-size="10.00">arm_power_q7</text>
</a>
</g>
</g>
<!-- Node2&#45;&gt;Node8 -->
<g id="edge7" class="edge"><title>Node2&#45;&gt;Node8</title>
<path fill="none" stroke="midnightblue" d="M145.5,-912.683C149.417,-986.864 176.079,-1463.48 217,-1511 222.455,-1517.33 229.798,-1521.66 237.671,-1524.59"/>
<polygon fill="midnightblue" stroke="midnightblue" points="236.864,-1528 247.447,-1527.51 238.869,-1521.29 236.864,-1528"/>
</g>
<!-- Node9 -->
<g id="node9" class="node"><title>Node9</title>
<g id="a_node9"><a xlink:href="a00575.html#gaebc707ee539020357c25da4c75b52eb7" target="_top" xlink:title="Mean value of a Q7 vector. ">
<polygon fill="white" stroke="black" points="248.5,-1482.5 248.5,-1501.5 326.5,-1501.5 326.5,-1482.5 248.5,-1482.5"/>
<text text-anchor="middle" x="287.5" y="-1489.5" font-family="Helvetica,sans-Serif" font-size="10.00">arm_mean_q7</text>
</a>
</g>
</g>
<!-- Node2&#45;&gt;Node9 -->
<g id="edge8" class="edge"><title>Node2&#45;&gt;Node9</title>
<path fill="none" stroke="midnightblue" d="M144.816,-912.517C143.71,-979.886 140.343,-1384.68 217,-1473 222.657,-1479.52 230.314,-1483.9 238.481,-1486.83"/>
<polygon fill="midnightblue" stroke="midnightblue" points="237.636,-1490.23 248.214,-1489.64 239.576,-1483.5 237.636,-1490.23"/>
</g>
<!-- Node10 -->
<g id="node10" class="node"><title>Node10</title>
<g id="a_node10"><a xlink:href="a00575.html#gac882495d5f098819fd3939c1ef7795b3" target="_top" xlink:title="Mean value of a Q15 vector. ">
<polygon fill="white" stroke="black" points="246,-1444.5 246,-1463.5 329,-1463.5 329,-1444.5 246,-1444.5"/>
<text text-anchor="middle" x="287.5" y="-1451.5" font-family="Helvetica,sans-Serif" font-size="10.00">arm_mean_q15</text>
</a>
</g>
</g>
<!-- Node2&#45;&gt;Node10 -->
<g id="edge9" class="edge"><title>Node2&#45;&gt;Node10</title>
<path fill="none" stroke="midnightblue" d="M144.909,-912.709C144.499,-978.016 145.312,-1353.14 217,-1435 222.042,-1440.76 228.645,-1444.85 235.773,-1447.74"/>
<polygon fill="midnightblue" stroke="midnightblue" points="235.131,-1451.21 245.723,-1450.99 237.301,-1444.56 235.131,-1451.21"/>
</g>
<!-- Node11 -->
<g id="node11" class="node"><title>Node11</title>
<g id="a_node11"><a xlink:href="a00575.html#gacf2526d8c2d75e486e8f0b0e31877ad0" target="_top" xlink:title="Mean value of a Q31 vector. ">
<polygon fill="white" stroke="black" points="246,-1406.5 246,-1425.5 329,-1425.5 329,-1406.5 246,-1406.5"/>
<text text-anchor="middle" x="287.5" y="-1413.5" font-family="Helvetica,sans-Serif" font-size="10.00">arm_mean_q31</text>
</a>
</g>
</g>
<!-- Node2&#45;&gt;Node11 -->
<g id="edge10" class="edge"><title>Node2&#45;&gt;Node11</title>
<path fill="none" stroke="midnightblue" d="M145.021,-912.816C145.355,-975.679 150.237,-1321.54 217,-1397 222.072,-1402.73 228.689,-1406.81 235.824,-1409.7"/>
<polygon fill="midnightblue" stroke="midnightblue" points="235.185,-1413.17 245.777,-1412.94 237.353,-1406.51 235.185,-1413.17"/>
</g>
<!-- Node12 -->
<g id="node12" class="node"><title>Node12</title>
<g id="a_node12"><a xlink:href="a00575.html#ga74ce08c49ab61e57bd50c3a0ca1fdb2b" target="_top" xlink:title="Mean value of a floating&#45;point vector. ">
<polygon fill="white" stroke="black" points="247,-1368.5 247,-1387.5 328,-1387.5 328,-1368.5 247,-1368.5"/>
<text text-anchor="middle" x="287.5" y="-1375.5" font-family="Helvetica,sans-Serif" font-size="10.00">arm_mean_f32</text>
</a>
</g>
</g>
<!-- Node2&#45;&gt;Node12 -->
<g id="edge11" class="edge"><title>Node2&#45;&gt;Node12</title>
<path fill="none" stroke="midnightblue" d="M145.152,-912.831C146.277,-972.876 155.115,-1289.89 217,-1359 222.398,-1365.03 229.505,-1369.22 237.114,-1372.13"/>
<polygon fill="midnightblue" stroke="midnightblue" points="236.341,-1375.55 246.928,-1375.15 238.404,-1368.86 236.341,-1375.55"/>
</g>
<!-- Node13 -->
<g id="node13" class="node"><title>Node13</title>
<g id="a_node13"><a xlink:href="a00580.html#ga393f26c5a3bfa05624fb8d32232a6d96" target="_top" xlink:title="Variance of the elements of a floating&#45;point vector. ">
<polygon fill="white" stroke="black" points="252,-1330.5 252,-1349.5 323,-1349.5 323,-1330.5 252,-1330.5"/>
<text text-anchor="middle" x="287.5" y="-1337.5" font-family="Helvetica,sans-Serif" font-size="10.00">arm_var_f32</text>
</a>
</g>
</g>
<!-- Node2&#45;&gt;Node13 -->
<g id="edge12" class="edge"><title>Node2&#45;&gt;Node13</title>
<path fill="none" stroke="midnightblue" d="M145.303,-912.746C147.263,-969.609 159.947,-1258.17 217,-1321 223.553,-1328.22 232.557,-1332.8 241.912,-1335.69"/>
<polygon fill="midnightblue" stroke="midnightblue" points="241.152,-1339.1 251.7,-1338.12 242.839,-1332.31 241.152,-1339.1"/>
</g>
<!-- Node14 -->
<g id="node14" class="node"><title>Node14</title>
<g id="a_node14"><a xlink:href="a00580.html#gac02873f1c2cc80adfd799305f0e6465d" target="_top" xlink:title="Variance of the elements of a Q31 vector. ">
<polygon fill="white" stroke="black" points="251,-1292.5 251,-1311.5 324,-1311.5 324,-1292.5 251,-1292.5"/>
<text text-anchor="middle" x="287.5" y="-1299.5" font-family="Helvetica,sans-Serif" font-size="10.00">arm_var_q31</text>
</a>
</g>
</g>
<!-- Node2&#45;&gt;Node14 -->
<g id="edge13" class="edge"><title>Node2&#45;&gt;Node14</title>
<path fill="none" stroke="midnightblue" d="M145.474,-912.553C148.313,-965.88 164.729,-1226.39 217,-1283 223.357,-1289.88 231.944,-1294.37 240.912,-1297.26"/>
<polygon fill="midnightblue" stroke="midnightblue" points="240.145,-1300.68 250.705,-1299.82 241.915,-1293.91 240.145,-1300.68"/>
</g>
<!-- Node15 -->
<g id="node15" class="node"><title>Node15</title>
<g id="a_node15"><a xlink:href="a00580.html#ga79dce009ed2de28a125aeb3f19631654" target="_top" xlink:title="Variance of the elements of a Q15 vector. ">
<polygon fill="white" stroke="black" points="251,-1254.5 251,-1273.5 324,-1273.5 324,-1254.5 251,-1254.5"/>
<text text-anchor="middle" x="287.5" y="-1261.5" font-family="Helvetica,sans-Serif" font-size="10.00">arm_var_q15</text>
</a>
</g>
</g>
<!-- Node2&#45;&gt;Node15 -->
<g id="edge14" class="edge"><title>Node2&#45;&gt;Node15</title>
<path fill="none" stroke="midnightblue" d="M145.693,-912.572C149.512,-962.709 169.562,-1194.66 217,-1245 223.426,-1251.82 232.042,-1256.27 241.016,-1259.17"/>
<polygon fill="midnightblue" stroke="midnightblue" points="240.247,-1262.58 250.807,-1261.73 242.018,-1255.81 240.247,-1262.58"/>
</g>
<!-- Node16 -->
<g id="node16" class="node"><title>Node16</title>
<g id="a_node16"><a xlink:href="a00578.html#ga0e3ab1b57da32d45388d1fa90d7fd88c" target="_top" xlink:title="Root Mean Square of the elements of a floating&#45;point vector. ">
<polygon fill="white" stroke="black" points="250.5,-1216.5 250.5,-1235.5 324.5,-1235.5 324.5,-1216.5 250.5,-1216.5"/>
<text text-anchor="middle" x="287.5" y="-1223.5" font-family="Helvetica,sans-Serif" font-size="10.00">arm_rms_f32</text>
</a>
</g>
</g>
<!-- Node2&#45;&gt;Node16 -->
<g id="edge15" class="edge"><title>Node2&#45;&gt;Node16</title>
<path fill="none" stroke="midnightblue" d="M146.445,-912.58C152.496,-958.226 177.335,-1149.32 217,-1193 226.711,-1203.69 241.416,-1209.62 254.803,-1213.69"/>
<polygon fill="midnightblue" stroke="midnightblue" points="254.103,-1217.13 264.678,-1216.48 256.008,-1210.39 254.103,-1217.13"/>
</g>
<!-- Node17 -->
<g id="node17" class="node"><title>Node17</title>
<g id="a_node17"><a xlink:href="a00578.html#gae33015fda23fc44e7ead5e5ed7e8d314" target="_top" xlink:title="Root Mean Square of the elements of a Q31 vector. ">
<polygon fill="white" stroke="black" points="249.5,-1140.5 249.5,-1159.5 325.5,-1159.5 325.5,-1140.5 249.5,-1140.5"/>
<text text-anchor="middle" x="287.5" y="-1147.5" font-family="Helvetica,sans-Serif" font-size="10.00">arm_rms_q31</text>
</a>
</g>
</g>
<!-- Node2&#45;&gt;Node17 -->
<g id="edge17" class="edge"><title>Node2&#45;&gt;Node17</title>
<path fill="none" stroke="midnightblue" d="M144.984,-912.915C145.485,-948.153 152.076,-1068.56 217,-1131 223.286,-1137.05 231.303,-1141.21 239.641,-1144.06"/>
<polygon fill="midnightblue" stroke="midnightblue" points="238.918,-1147.5 249.494,-1146.85 240.824,-1140.76 238.918,-1147.5"/>
</g>
<!-- Node18 -->
<g id="node18" class="node"><title>Node18</title>
<g id="a_node18"><a xlink:href="a00578.html#gaf5b836b72dda9e5dfbbd17c7906fd13f" target="_top" xlink:title="Root Mean Square of the elements of a Q15 vector. ">
<polygon fill="white" stroke="black" points="249.5,-988.5 249.5,-1007.5 325.5,-1007.5 325.5,-988.5 249.5,-988.5"/>
<text text-anchor="middle" x="287.5" y="-995.5" font-family="Helvetica,sans-Serif" font-size="10.00">arm_rms_q15</text>
</a>
</g>
</g>
<!-- Node2&#45;&gt;Node18 -->
<g id="edge19" class="edge"><title>Node2&#45;&gt;Node18</title>
<path fill="none" stroke="midnightblue" d="M152.369,-912.647C164.367,-927.74 189.554,-956.966 217,-974 224.017,-978.355 231.926,-982.041 239.828,-985.119"/>
<polygon fill="midnightblue" stroke="midnightblue" points="238.808,-988.472 249.403,-988.576 241.185,-981.888 238.808,-988.472"/>
</g>
<!-- Node19 -->
<g id="node19" class="node"><title>Node19</title>
<g id="a_node19"><a xlink:href="a00579.html#ga39495e74f96116178be085c9dc7742f5" target="_top" xlink:title="Standard deviation of the elements of a Q31 vector. ">
<polygon fill="white" stroke="black" points="251,-1710.5 251,-1729.5 324,-1729.5 324,-1710.5 251,-1710.5"/>
<text text-anchor="middle" x="287.5" y="-1717.5" font-family="Helvetica,sans-Serif" font-size="10.00">arm_std_q31</text>
</a>
</g>
</g>
<!-- Node2&#45;&gt;Node19 -->
<g id="edge22" class="edge"><title>Node2&#45;&gt;Node19</title>
<path fill="none" stroke="midnightblue" d="M145.211,-912.514C147.194,-998.34 163.705,-1637.33 217,-1701 223.198,-1708.4 231.976,-1713.07 241.216,-1715.98"/>
<polygon fill="midnightblue" stroke="midnightblue" points="240.372,-1719.37 250.923,-1718.41 242.074,-1712.58 240.372,-1719.37"/>
</g>
<!-- Node20 -->
<g id="node20" class="node"><title>Node20</title>
<g id="a_node20"><a xlink:href="a00579.html#gaf9d27afa9928ff28a63cd98ea9218a72" target="_top" xlink:title="Standard deviation of the elements of a Q15 vector. ">
<polygon fill="white" stroke="black" points="251,-1102.5 251,-1121.5 324,-1121.5 324,-1102.5 251,-1102.5"/>
<text text-anchor="middle" x="287.5" y="-1109.5" font-family="Helvetica,sans-Serif" font-size="10.00">arm_std_q15</text>
</a>
</g>
</g>
<!-- Node2&#45;&gt;Node20 -->
<g id="edge24" class="edge"><title>Node2&#45;&gt;Node20</title>
<path fill="none" stroke="midnightblue" d="M145.667,-912.564C148.357,-943.57 161.138,-1042.23 217,-1093 223.725,-1099.11 232.232,-1103.29 240.966,-1106.13"/>
<polygon fill="midnightblue" stroke="midnightblue" points="240.274,-1109.57 250.841,-1108.81 242.105,-1102.81 240.274,-1109.57"/>
</g>
<!-- Node21 -->
<g id="node21" class="node"><title>Node21</title>
<g id="a_node21"><a xlink:href="a00545.html#gae45024c497392cde2ae358a76d435213" target="_top" xlink:title="Floating&#45;point complex magnitude. ">
<polygon fill="white" stroke="black" points="234,-1026.5 234,-1045.5 341,-1045.5 341,-1026.5 234,-1026.5"/>
<text text-anchor="middle" x="287.5" y="-1033.5" font-family="Helvetica,sans-Serif" font-size="10.00">arm_cmplx_mag_f32</text>
</a>
</g>
</g>
<!-- Node2&#45;&gt;Node21 -->
<g id="edge26" class="edge"><title>Node2&#45;&gt;Node21</title>
<path fill="none" stroke="midnightblue" d="M150.356,-912.551C159.853,-933.655 182.003,-982.097 217,-1008 227.869,-1016.04 241.951,-1020.68 254.595,-1024.04"/>
<polygon fill="midnightblue" stroke="midnightblue" points="253.786,-1027.44 264.338,-1026.49 255.495,-1020.65 253.786,-1027.44"/>
</g>
<!-- Node22 -->
<g id="node22" class="node"><title>Node22</title>
<g id="a_node22"><a xlink:href="a00545.html#ga14f82f9230e9d96d5b9774e2fefcb7be" target="_top" xlink:title="Q31 complex magnitude. ">
<polygon fill="white" stroke="black" points="232.5,-1672.5 232.5,-1691.5 342.5,-1691.5 342.5,-1672.5 232.5,-1672.5"/>
<text text-anchor="middle" x="287.5" y="-1679.5" font-family="Helvetica,sans-Serif" font-size="10.00">arm_cmplx_mag_q31</text>
</a>
</g>
</g>
<!-- Node2&#45;&gt;Node22 -->
<g id="edge28" class="edge"><title>Node2&#45;&gt;Node22</title>
<path fill="none" stroke="midnightblue" d="M145.258,-912.583C147.593,-996.359 166.193,-1602.58 217,-1663 218.962,-1665.33 221.181,-1667.4 223.59,-1669.22"/>
<polygon fill="midnightblue" stroke="midnightblue" points="222.039,-1672.37 232.413,-1674.52 225.644,-1666.37 222.039,-1672.37"/>
</g>
<!-- Node23 -->
<g id="node23" class="node"><title>Node23</title>
<g id="a_node23"><a xlink:href="a00545.html#ga0a4a8f77a6a51d9b3f3b9d729f85b7a4" target="_top" xlink:title="Q15 complex magnitude. ">
<polygon fill="white" stroke="black" points="232.5,-1064.5 232.5,-1083.5 342.5,-1083.5 342.5,-1064.5 232.5,-1064.5"/>
<text text-anchor="middle" x="287.5" y="-1071.5" font-family="Helvetica,sans-Serif" font-size="10.00">arm_cmplx_mag_q15</text>
</a>
</g>
</g>
<!-- Node2&#45;&gt;Node23 -->
<g id="edge30" class="edge"><title>Node2&#45;&gt;Node23</title>
<path fill="none" stroke="midnightblue" d="M146.66,-912.525C151.838,-939.294 170.231,-1015.8 217,-1055 219.013,-1056.69 221.164,-1058.23 223.415,-1059.63"/>
<polygon fill="midnightblue" stroke="midnightblue" points="222.043,-1062.86 232.527,-1064.39 225.287,-1056.66 222.043,-1062.86"/>
</g>
<!-- Node24 -->
<g id="node24" class="node"><title>Node24</title>
<g id="a_node24"><a xlink:href="a00544.html#ga2b08b5e8001d2c15204639d00893fc70" target="_top" xlink:title="Q15 complex dot product. ">
<polygon fill="white" stroke="black" points="223.5,-912.5 223.5,-931.5 351.5,-931.5 351.5,-912.5 223.5,-912.5"/>
<text text-anchor="middle" x="287.5" y="-919.5" font-family="Helvetica,sans-Serif" font-size="10.00">arm_cmplx_dot_prod_q15</text>
</a>
</g>
</g>
<!-- Node2&#45;&gt;Node24 -->
<g id="edge32" class="edge"><title>Node2&#45;&gt;Node24</title>
<path fill="none" stroke="midnightblue" d="M181.073,-907.844C190.915,-909.165 201.947,-910.647 213.067,-912.14"/>
<polygon fill="midnightblue" stroke="midnightblue" points="212.896,-915.648 223.273,-913.51 213.828,-908.71 212.896,-915.648"/>
</g>
<!-- Node25 -->
<g id="node25" class="node"><title>Node25</title>
<g id="a_node25"><a xlink:href="a00544.html#ga5b731a59db062a9ad84562ef68a6c8af" target="_top" xlink:title="Q31 complex dot product. ">
<polygon fill="white" stroke="black" points="223.5,-874.5 223.5,-893.5 351.5,-893.5 351.5,-874.5 223.5,-874.5"/>
<text text-anchor="middle" x="287.5" y="-881.5" font-family="Helvetica,sans-Serif" font-size="10.00">arm_cmplx_dot_prod_q31</text>
</a>
</g>
</g>
<!-- Node2&#45;&gt;Node25 -->
<g id="edge33" class="edge"><title>Node2&#45;&gt;Node25</title>
<path fill="none" stroke="midnightblue" d="M181.073,-898.156C190.915,-896.835 201.947,-895.353 213.067,-893.86"/>
<polygon fill="midnightblue" stroke="midnightblue" points="213.828,-897.29 223.273,-892.49 212.896,-890.352 213.828,-897.29"/>
</g>
<!-- Node26 -->
<g id="node26" class="node"><title>Node26</title>
<g id="a_node26"><a xlink:href="a00544.html#gadcfaf567a25eb641da4043eafb9bb076" target="_top" xlink:title="Floating&#45;point complex dot product. ">
<polygon fill="white" stroke="black" points="224.5,-836.5 224.5,-855.5 350.5,-855.5 350.5,-836.5 224.5,-836.5"/>
<text text-anchor="middle" x="287.5" y="-843.5" font-family="Helvetica,sans-Serif" font-size="10.00">arm_cmplx_dot_prod_f32</text>
</a>
</g>
</g>
<!-- Node2&#45;&gt;Node26 -->
<g id="edge34" class="edge"><title>Node2&#45;&gt;Node26</title>
<path fill="none" stroke="midnightblue" d="M160.82,-893.354C175.098,-884.967 196.887,-872.946 217,-865 222.955,-862.647 229.307,-860.476 235.66,-858.507"/>
<polygon fill="midnightblue" stroke="midnightblue" points="236.982,-861.767 245.586,-855.584 235.004,-855.052 236.982,-861.767"/>
</g>
<!-- Node27 -->
<g id="node27" class="node"><title>Node27</title>
<g id="a_node27"><a xlink:href="a00548.html#ga3bd8889dcb45980e1d3e53344df54e85" target="_top" xlink:title="Q15 complex&#45;by&#45;real multiplication. ">
<polygon fill="white" stroke="black" points="222,-798.5 222,-817.5 353,-817.5 353,-798.5 222,-798.5"/>
<text text-anchor="middle" x="287.5" y="-805.5" font-family="Helvetica,sans-Serif" font-size="10.00">arm_cmplx_mult_real_q15</text>
</a>
</g>
</g>
<!-- Node2&#45;&gt;Node27 -->
<g id="edge35" class="edge"><title>Node2&#45;&gt;Node27</title>
<path fill="none" stroke="midnightblue" d="M151.337,-893.478C162.597,-877.315 187.686,-844.557 217,-827 220.622,-824.831 224.497,-822.903 228.495,-821.191"/>
<polygon fill="midnightblue" stroke="midnightblue" points="229.887,-824.407 237.986,-817.576 227.396,-817.865 229.887,-824.407"/>
</g>
<!-- Node28 -->
<g id="node28" class="node"><title>Node28</title>
<g id="a_node28"><a xlink:href="a00548.html#ga715e4bb8e945b8ca51ec5237611697ce" target="_top" xlink:title="Q31 complex&#45;by&#45;real multiplication. ">
<polygon fill="white" stroke="black" points="222,-760.5 222,-779.5 353,-779.5 353,-760.5 222,-760.5"/>
<text text-anchor="middle" x="287.5" y="-767.5" font-family="Helvetica,sans-Serif" font-size="10.00">arm_cmplx_mult_real_q31</text>
</a>
</g>
</g>
<!-- Node2&#45;&gt;Node28 -->
<g id="edge36" class="edge"><title>Node2&#45;&gt;Node28</title>
<path fill="none" stroke="midnightblue" d="M148.305,-893.351C156.364,-871.305 179.181,-816.992 217,-789 219.532,-787.126 222.239,-785.436 225.062,-783.913"/>
<polygon fill="midnightblue" stroke="midnightblue" points="226.791,-786.97 234.398,-779.595 223.852,-780.617 226.791,-786.97"/>
</g>
<!-- Node29 -->
<g id="node29" class="node"><title>Node29</title>
<g id="a_node29"><a xlink:href="a00548.html#ga9c18616f56cb4d3c0889ce0b339221ca" target="_top" xlink:title="Floating&#45;point complex&#45;by&#45;real multiplication. ">
<polygon fill="white" stroke="black" points="223.5,-722.5 223.5,-741.5 351.5,-741.5 351.5,-722.5 223.5,-722.5"/>
<text text-anchor="middle" x="287.5" y="-729.5" font-family="Helvetica,sans-Serif" font-size="10.00">arm_cmplx_mult_real_f32</text>
</a>
</g>
</g>
<!-- Node2&#45;&gt;Node29 -->
<g id="edge37" class="edge"><title>Node2&#45;&gt;Node29</title>
<path fill="none" stroke="midnightblue" d="M146.66,-893.475C151.838,-866.706 170.231,-790.205 217,-751 219.013,-749.312 221.164,-747.774 223.415,-746.371"/>
<polygon fill="midnightblue" stroke="midnightblue" points="225.287,-749.343 232.527,-741.608 222.043,-743.139 225.287,-749.343"/>
</g>
<!-- Node30 -->
<g id="node30" class="node"><title>Node30</title>
<g id="a_node30"><a xlink:href="a00576.html#ga3631d38ac8d715fc14f6f1b343f4c4ed" target="_top" xlink:title="Minimum value of a Q7 vector. ">
<polygon fill="white" stroke="black" points="252.5,-684.5 252.5,-703.5 322.5,-703.5 322.5,-684.5 252.5,-684.5"/>
<text text-anchor="middle" x="287.5" y="-691.5" font-family="Helvetica,sans-Serif" font-size="10.00">arm_min_q7</text>
</a>
</g>
</g>
<!-- Node2&#45;&gt;Node30 -->
<g id="edge38" class="edge"><title>Node2&#45;&gt;Node30</title>
<path fill="none" stroke="midnightblue" d="M145.667,-893.436C148.357,-862.43 161.138,-763.774 217,-713 224.07,-706.574 233.107,-702.292 242.309,-699.445"/>
<polygon fill="midnightblue" stroke="midnightblue" points="243.457,-702.764 252.273,-696.887 241.716,-695.984 243.457,-702.764"/>
</g>
<!-- Node31 -->
<g id="node31" class="node"><title>Node31</title>
<g id="a_node31"><a xlink:href="a00576.html#gad065e37535ebb726750ac1545cb3fa6f" target="_top" xlink:title="Minimum value of a Q15 vector. ">
<polygon fill="white" stroke="black" points="250,-646.5 250,-665.5 325,-665.5 325,-646.5 250,-646.5"/>
<text text-anchor="middle" x="287.5" y="-653.5" font-family="Helvetica,sans-Serif" font-size="10.00">arm_min_q15</text>
</a>
</g>
</g>
<!-- Node2&#45;&gt;Node31 -->
<g id="edge39" class="edge"><title>Node2&#45;&gt;Node31</title>
<path fill="none" stroke="midnightblue" d="M144.984,-893.085C145.485,-857.847 152.076,-737.439 217,-675 223.42,-668.826 231.645,-664.617 240.174,-661.757"/>
<polygon fill="midnightblue" stroke="midnightblue" points="241.155,-665.117 249.854,-659.068 239.282,-658.372 241.155,-665.117"/>
</g>
<!-- Node32 -->
<g id="node32" class="node"><title>Node32</title>
<g id="a_node32"><a xlink:href="a00576.html#gab20faeceb5ff5d2d9dd628c2ecf41303" target="_top" xlink:title="Minimum value of a Q31 vector. ">
<polygon fill="white" stroke="black" points="250,-608.5 250,-627.5 325,-627.5 325,-608.5 250,-608.5"/>
<text text-anchor="middle" x="287.5" y="-615.5" font-family="Helvetica,sans-Serif" font-size="10.00">arm_min_q31</text>
</a>
</g>
</g>
<!-- Node2&#45;&gt;Node32 -->
<g id="edge40" class="edge"><title>Node2&#45;&gt;Node32</title>
<path fill="none" stroke="midnightblue" d="M144.472,-893.382C142.922,-855.056 142.5,-711.688 217,-637 223.29,-630.694 231.458,-626.426 239.972,-623.55"/>
<polygon fill="midnightblue" stroke="midnightblue" points="240.952,-626.911 249.65,-620.861 239.078,-620.166 240.952,-626.911"/>
</g>
<!-- Node33 -->
<g id="node33" class="node"><title>Node33</title>
<g id="a_node33"><a xlink:href="a00576.html#gaf62b1673740fc516ea64daf777b7d74a" target="_top" xlink:title="Minimum value of a floating&#45;point vector. ">
<polygon fill="white" stroke="black" points="251,-570.5 251,-589.5 324,-589.5 324,-570.5 251,-570.5"/>
<text text-anchor="middle" x="287.5" y="-577.5" font-family="Helvetica,sans-Serif" font-size="10.00">arm_min_f32</text>
</a>
</g>
</g>
<!-- Node2&#45;&gt;Node33 -->
<g id="edge41" class="edge"><title>Node2&#45;&gt;Node33</title>
<path fill="none" stroke="midnightblue" d="M145.98,-893.27C150.905,-846.255 174.412,-643.075 217,-599 223.511,-592.262 232.162,-587.84 241.143,-584.956"/>
<polygon fill="midnightblue" stroke="midnightblue" points="242.145,-588.312 250.933,-582.394 240.372,-581.54 242.145,-588.312"/>
</g>
<!-- Node34 -->
<g id="node34" class="node"><title>Node34</title>
<g id="a_node34"><a xlink:href="a00574.html#ga6afd64d381b5c232de59163ebfe71e35" target="_top" xlink:title="Maximum value of a Q7 vector. ">
<polygon fill="white" stroke="black" points="251,-532.5 251,-551.5 324,-551.5 324,-532.5 251,-532.5"/>
<text text-anchor="middle" x="287.5" y="-539.5" font-family="Helvetica,sans-Serif" font-size="10.00">arm_max_q7</text>
</a>
</g>
</g>
<!-- Node2&#45;&gt;Node34 -->
<g id="edge42" class="edge"><title>Node2&#45;&gt;Node34</title>
<path fill="none" stroke="midnightblue" d="M145.693,-893.428C149.512,-843.291 169.562,-611.341 217,-561 223.426,-554.181 232.042,-549.726 241.016,-546.835"/>
<polygon fill="midnightblue" stroke="midnightblue" points="242.018,-550.19 250.807,-544.274 240.247,-543.418 242.018,-550.19"/>
</g>
<!-- Node35 -->
<g id="node35" class="node"><title>Node35</title>
<g id="a_node35"><a xlink:href="a00574.html#gac132856c68f4bf2a056eaad5921c7880" target="_top" xlink:title="Maximum value of a Q15 vector. ">
<polygon fill="white" stroke="black" points="248.5,-494.5 248.5,-513.5 326.5,-513.5 326.5,-494.5 248.5,-494.5"/>
<text text-anchor="middle" x="287.5" y="-501.5" font-family="Helvetica,sans-Serif" font-size="10.00">arm_max_q15</text>
</a>
</g>
</g>
<!-- Node2&#45;&gt;Node35 -->
<g id="edge43" class="edge"><title>Node2&#45;&gt;Node35</title>
<path fill="none" stroke="midnightblue" d="M145.474,-893.447C148.313,-840.12 164.729,-579.607 217,-523 222.794,-516.725 230.442,-512.446 238.542,-509.544"/>
<polygon fill="midnightblue" stroke="midnightblue" points="239.556,-512.894 248.175,-506.733 237.595,-506.174 239.556,-512.894"/>
</g>
<!-- Node36 -->
<g id="node36" class="node"><title>Node36</title>
<g id="a_node36"><a xlink:href="a00574.html#gaff7cbd4e955382def06724cc4cc85795" target="_top" xlink:title="Maximum value of a Q31 vector. ">
<polygon fill="white" stroke="black" points="248.5,-456.5 248.5,-475.5 326.5,-475.5 326.5,-456.5 248.5,-456.5"/>
<text text-anchor="middle" x="287.5" y="-463.5" font-family="Helvetica,sans-Serif" font-size="10.00">arm_max_q31</text>
</a>
</g>
</g>
<!-- Node2&#45;&gt;Node36 -->
<g id="edge44" class="edge"><title>Node2&#45;&gt;Node36</title>
<path fill="none" stroke="midnightblue" d="M145.303,-893.254C147.263,-836.391 159.947,-547.829 217,-485 222.802,-478.61 230.526,-474.285 238.713,-471.375"/>
<polygon fill="midnightblue" stroke="midnightblue" points="239.81,-474.701 248.45,-468.57 237.872,-467.975 239.81,-474.701"/>
</g>
<!-- Node37 -->
<g id="node37" class="node"><title>Node37</title>
<g id="a_node37"><a xlink:href="a00574.html#ga5b89d1b04575aeec494f678695fb87d8" target="_top" xlink:title="Maximum value of a floating&#45;point vector. ">
<polygon fill="white" stroke="black" points="249.5,-418.5 249.5,-437.5 325.5,-437.5 325.5,-418.5 249.5,-418.5"/>
<text text-anchor="middle" x="287.5" y="-425.5" font-family="Helvetica,sans-Serif" font-size="10.00">arm_max_f32</text>
</a>
</g>
</g>
<!-- Node2&#45;&gt;Node37 -->
<g id="edge45" class="edge"><title>Node2&#45;&gt;Node37</title>
<path fill="none" stroke="midnightblue" d="M145.152,-893.169C146.277,-833.124 155.115,-516.114 217,-447 223.002,-440.297 231.118,-435.861 239.686,-432.947"/>
<polygon fill="midnightblue" stroke="midnightblue" points="240.746,-436.285 249.463,-430.263 238.894,-429.535 240.746,-436.285"/>
</g>
<!-- Node38 -->
<g id="node38" class="node"><title>Node38</title>
<g id="a_node38"><a xlink:href="a00547.html#ga67e96abfc9c3e30efb70a2ec9d0fe7e8" target="_top" xlink:title="Q15 complex&#45;by&#45;complex multiplication. ">
<polygon fill="white" stroke="black" points="217,-380.5 217,-399.5 358,-399.5 358,-380.5 217,-380.5"/>
<text text-anchor="middle" x="287.5" y="-387.5" font-family="Helvetica,sans-Serif" font-size="10.00">arm_cmplx_mult_cmplx_q15</text>
</a>
</g>
</g>
<!-- Node2&#45;&gt;Node38 -->
<g id="edge46" class="edge"><title>Node2&#45;&gt;Node38</title>
<path fill="none" stroke="midnightblue" d="M145.021,-893.184C145.355,-830.321 150.237,-484.459 217,-409 218.168,-407.68 219.418,-406.447 220.738,-405.297"/>
<polygon fill="midnightblue" stroke="midnightblue" points="222.761,-408.153 228.968,-399.566 218.761,-402.408 222.761,-408.153"/>
</g>
<!-- Node39 -->
<g id="node39" class="node"><title>Node39</title>
<g id="a_node39"><a xlink:href="a00547.html#ga1829e50993a90742de225a0ce4213838" target="_top" xlink:title="Q31 complex&#45;by&#45;complex multiplication. ">
<polygon fill="white" stroke="black" points="217,-342.5 217,-361.5 358,-361.5 358,-342.5 217,-342.5"/>
<text text-anchor="middle" x="287.5" y="-349.5" font-family="Helvetica,sans-Serif" font-size="10.00">arm_cmplx_mult_cmplx_q31</text>
</a>
</g>
</g>
<!-- Node2&#45;&gt;Node39 -->
<g id="edge47" class="edge"><title>Node2&#45;&gt;Node39</title>
<path fill="none" stroke="midnightblue" d="M144.909,-893.291C144.499,-827.984 145.312,-452.863 217,-371 218.161,-369.674 219.406,-368.436 220.72,-367.281"/>
<polygon fill="midnightblue" stroke="midnightblue" points="222.746,-370.135 228.926,-361.53 218.728,-364.402 222.746,-370.135"/>
</g>
<!-- Node40 -->
<g id="node40" class="node"><title>Node40</title>
<g id="a_node40"><a xlink:href="a00547.html#ga14b47080054a1ba1250a86805be1ff6b" target="_top" xlink:title="Floating&#45;point complex&#45;by&#45;complex multiplication. ">
<polygon fill="white" stroke="black" points="218,-304.5 218,-323.5 357,-323.5 357,-304.5 218,-304.5"/>
<text text-anchor="middle" x="287.5" y="-311.5" font-family="Helvetica,sans-Serif" font-size="10.00">arm_cmplx_mult_cmplx_f32</text>
</a>
</g>
</g>
<!-- Node2&#45;&gt;Node40 -->
<g id="edge48" class="edge"><title>Node2&#45;&gt;Node40</title>
<path fill="none" stroke="midnightblue" d="M144.816,-893.483C143.71,-826.114 140.343,-421.325 217,-333 218.025,-331.819 219.115,-330.708 220.263,-329.663"/>
<polygon fill="midnightblue" stroke="midnightblue" points="222.496,-332.368 228.564,-323.683 218.405,-326.688 222.496,-332.368"/>
</g>
<!-- Node41 -->
<g id="node41" class="node"><title>Node41</title>
<g id="a_node41"><a xlink:href="a00583.html#ga177704107f94564e9abe4daaa36f4554" target="_top" xlink:title="Converts the elements of the floating&#45;point vector to Q31 vector. ">
<polygon fill="white" stroke="black" points="241.5,-266.5 241.5,-285.5 333.5,-285.5 333.5,-266.5 241.5,-266.5"/>
<text text-anchor="middle" x="287.5" y="-273.5" font-family="Helvetica,sans-Serif" font-size="10.00">arm_float_to_q31</text>
</a>
</g>
</g>
<!-- Node2&#45;&gt;Node41 -->
<g id="edge49" class="edge"><title>Node2&#45;&gt;Node41</title>
<path fill="none" stroke="midnightblue" d="M145.5,-893.317C149.417,-819.136 176.079,-342.522 217,-295 221.026,-290.324 226.081,-286.745 231.619,-284.013"/>
<polygon fill="midnightblue" stroke="midnightblue" points="233.295,-287.114 241.299,-280.172 230.713,-280.608 233.295,-287.114"/>
</g>
<!-- Node42 -->
<g id="node42" class="node"><title>Node42</title>
<g id="a_node42"><a xlink:href="a00583.html#ga215456e35a18db86882e1d3f0d24e1f2" target="_top" xlink:title="Converts the elements of the floating&#45;point vector to Q15 vector. ">
<polygon fill="white" stroke="black" points="241.5,-228.5 241.5,-247.5 333.5,-247.5 333.5,-228.5 241.5,-228.5"/>
<text text-anchor="middle" x="287.5" y="-235.5" font-family="Helvetica,sans-Serif" font-size="10.00">arm_float_to_q15</text>
</a>
</g>
</g>
<!-- Node2&#45;&gt;Node42 -->
<g id="edge50" class="edge"><title>Node2&#45;&gt;Node42</title>
<path fill="none" stroke="midnightblue" d="M145.435,-893.209C148.945,-816.059 173.637,-307.709 217,-257 221.01,-252.31 226.055,-248.723 231.588,-245.986"/>
<polygon fill="midnightblue" stroke="midnightblue" points="233.262,-249.087 241.262,-242.141 230.676,-242.582 233.262,-249.087"/>
</g>
<!-- Node43 -->
<g id="node43" class="node"><title>Node43</title>
<g id="a_node43"><a xlink:href="a00583.html#ga44a393818cdee8dce80f2d66add25411" target="_top" xlink:title="Converts the elements of the floating&#45;point vector to Q7 vector. ">
<polygon fill="white" stroke="black" points="244.5,-190.5 244.5,-209.5 330.5,-209.5 330.5,-190.5 244.5,-190.5"/>
<text text-anchor="middle" x="287.5" y="-197.5" font-family="Helvetica,sans-Serif" font-size="10.00">arm_float_to_q7</text>
</a>
</g>
</g>
<!-- Node2&#45;&gt;Node43 -->
<g id="edge51" class="edge"><title>Node2&#45;&gt;Node43</title>
<path fill="none" stroke="midnightblue" d="M145.374,-893.147C148.49,-813.239 171.185,-272.91 217,-219 221.789,-213.364 228.074,-209.319 234.907,-206.429"/>
<polygon fill="midnightblue" stroke="midnightblue" points="236.142,-209.705 244.476,-203.164 233.882,-203.08 236.142,-209.705"/>
</g>
<!-- Node44 -->
<g id="node44" class="node"><title>Node44</title>
<g id="a_node44"><a xlink:href="a00585.html#ga901dede4661365c9e7c630d3eb31c32c" target="_top" xlink:title="Converts the elements of the Q31 vector to Q15 vector. ">
<polygon fill="white" stroke="black" points="243,-152.5 243,-171.5 332,-171.5 332,-152.5 243,-152.5"/>
<text text-anchor="middle" x="287.5" y="-159.5" font-family="Helvetica,sans-Serif" font-size="10.00">arm_q31_to_q15</text>
</a>
</g>
</g>
<!-- Node2&#45;&gt;Node44 -->
<g id="edge52" class="edge"><title>Node2&#45;&gt;Node44</title>
<path fill="none" stroke="midnightblue" d="M145.309,-893.387C148.009,-811.881 168.67,-238.185 217,-181 221.292,-175.922 226.798,-172.133 232.829,-169.317"/>
<polygon fill="midnightblue" stroke="midnightblue" points="234.499,-172.43 242.639,-165.649 232.047,-165.873 234.499,-172.43"/>
</g>
<!-- Node45 -->
<g id="node45" class="node"><title>Node45</title>
<g id="a_node45"><a xlink:href="a00585.html#ga7f297d1a7d776805395095fdb24a8071" target="_top" xlink:title="Converts the elements of the Q31 vector to Q7 vector. ">
<polygon fill="white" stroke="black" points="246,-114.5 246,-133.5 329,-133.5 329,-114.5 246,-114.5"/>
<text text-anchor="middle" x="287.5" y="-121.5" font-family="Helvetica,sans-Serif" font-size="10.00">arm_q31_to_q7</text>
</a>
</g>
</g>
<!-- Node2&#45;&gt;Node45 -->
<g id="edge53" class="edge"><title>Node2&#45;&gt;Node45</title>
<path fill="none" stroke="midnightblue" d="M145.258,-893.417C147.593,-809.641 166.193,-203.419 217,-143 222.095,-136.942 228.917,-132.717 236.302,-129.791"/>
<polygon fill="midnightblue" stroke="midnightblue" points="237.407,-133.112 245.87,-126.737 235.279,-126.444 237.407,-133.112"/>
</g>
<!-- Node46 -->
<g id="node46" class="node"><title>Node46</title>
<g id="a_node46"><a xlink:href="a00584.html#gaf8b0d2324de273fc430b0e61ad4e9eb2" target="_top" xlink:title="Converts the elements of the Q15 vector to floating&#45;point vector. ">
<polygon fill="white" stroke="black" points="241.5,-76.5 241.5,-95.5 333.5,-95.5 333.5,-76.5 241.5,-76.5"/>
<text text-anchor="middle" x="287.5" y="-83.5" font-family="Helvetica,sans-Serif" font-size="10.00">arm_q15_to_float</text>
</a>
</g>
</g>
<!-- Node2&#45;&gt;Node46 -->
<g id="edge54" class="edge"><title>Node2&#45;&gt;Node46</title>
<path fill="none" stroke="midnightblue" d="M145.211,-893.486C147.194,-807.66 163.705,-168.666 217,-105 220.961,-100.269 225.975,-96.6551 231.491,-93.9044"/>
<polygon fill="midnightblue" stroke="midnightblue" points="233.162,-97.006 241.148,-90.0447 230.564,-90.5059 233.162,-97.006"/>
</g>
<!-- Node47 -->
<g id="node47" class="node"><title>Node47</title>
<g id="a_node47"><a xlink:href="a00584.html#ga7ba2d87366990ad5380439e2b4a4c0a5" target="_top" xlink:title="Converts the elements of the Q15 vector to Q31 vector. ">
<polygon fill="white" stroke="black" points="243,-38.5 243,-57.5 332,-57.5 332,-38.5 243,-38.5"/>
<text text-anchor="middle" x="287.5" y="-45.5" font-family="Helvetica,sans-Serif" font-size="10.00">arm_q15_to_q31</text>
</a>
</g>
</g>
<!-- Node2&#45;&gt;Node47 -->
<g id="edge55" class="edge"><title>Node2&#45;&gt;Node47</title>
<path fill="none" stroke="midnightblue" d="M145.173,-893.314C146.843,-804.535 161.265,-133.857 217,-67 221.413,-61.7066 227.145,-57.8116 233.425,-54.9582"/>
<polygon fill="midnightblue" stroke="midnightblue" points="234.738,-58.2047 242.927,-51.4815 232.333,-51.6309 234.738,-58.2047"/>
</g>
<!-- Node48 -->
<g id="node48" class="node"><title>Node48</title>
<g id="a_node48"><a xlink:href="a00584.html#ga8fb31855ff8cce09c2ec9308f48ded69" target="_top" xlink:title="Converts the elements of the Q15 vector to Q7 vector. ">
<polygon fill="white" stroke="black" points="246,-0.5 246,-19.5 329,-19.5 329,-0.5 246,-0.5"/>
<text text-anchor="middle" x="287.5" y="-7.5" font-family="Helvetica,sans-Serif" font-size="10.00">arm_q15_to_q7</text>
</a>
</g>
</g>
<!-- Node2&#45;&gt;Node48 -->
<g id="edge56" class="edge"><title>Node2&#45;&gt;Node48</title>
<path fill="none" stroke="midnightblue" d="M145.133,-893.45C146.474,-803.007 158.758,-99.1284 217,-29 222.057,-22.9105 228.861,-18.6706 236.239,-15.738"/>
<polygon fill="midnightblue" stroke="midnightblue" points="237.343,-19.0596 245.803,-12.6816 235.212,-12.3918 237.343,-19.0596"/>
</g>
<!-- Node16&#45;&gt;Node2 -->
<g id="edge16" class="edge"><title>Node16&#45;&gt;Node2</title>
<path fill="none" stroke="midnightblue" d="M250.45,-1229.2C238.314,-1226.29 225.668,-1220.54 217,-1211 178.138,-1168.21 153.508,-983.907 146.836,-922.639"/>
<polygon fill="midnightblue" stroke="midnightblue" points="150.317,-922.276 145.8,-912.693 143.355,-923.001 150.317,-922.276"/>
</g>
<!-- Node17&#45;&gt;Node3 -->
<g id="edge18" class="edge"><title>Node17&#45;&gt;Node3</title>
<path fill="none" stroke="midnightblue" d="M325.802,-1155.84C337.476,-1159.36 349.51,-1164.99 358,-1174 423.569,-1243.61 431.037,-1367.2 431.331,-1415.18"/>
<polygon fill="midnightblue" stroke="midnightblue" points="427.83,-1415.42 431.286,-1425.44 434.83,-1415.45 427.83,-1415.42"/>
</g>
<!-- Node18&#45;&gt;Node4 -->
<g id="edge20" class="edge"><title>Node18&#45;&gt;Node4</title>
<path fill="none" stroke="midnightblue" d="M324.459,-1007.59C342.939,-1012.52 365.656,-1018.57 385.359,-1023.83"/>
<polygon fill="midnightblue" stroke="midnightblue" points="384.489,-1027.22 395.053,-1026.41 386.292,-1020.46 384.489,-1027.22"/>
</g>
<!-- Node19&#45;&gt;Node3 -->
<g id="edge23" class="edge"><title>Node19&#45;&gt;Node3</title>
<path fill="none" stroke="midnightblue" d="M324.252,-1717.36C336.359,-1714.77 349.062,-1709.93 358,-1701 427.158,-1631.91 432.44,-1503.87 431.741,-1454.82"/>
<polygon fill="midnightblue" stroke="midnightblue" points="435.235,-1454.53 431.488,-1444.62 428.237,-1454.71 435.235,-1454.53"/>
</g>
<!-- Node20&#45;&gt;Node4 -->
<g id="edge25" class="edge"><title>Node20&#45;&gt;Node4</title>
<path fill="none" stroke="midnightblue" d="M324.143,-1105.14C335.327,-1102.23 347.49,-1098.27 358,-1093 379.146,-1082.39 400.098,-1065.15 414.094,-1052.4"/>
<polygon fill="midnightblue" stroke="midnightblue" points="416.563,-1054.89 421.48,-1045.5 411.784,-1049.77 416.563,-1054.89"/>
</g>
<!-- Node21&#45;&gt;Node2 -->
<g id="edge27" class="edge"><title>Node21&#45;&gt;Node2</title>
<path fill="none" stroke="midnightblue" d="M233.684,-1035.05C227.742,-1032.71 222.027,-1029.72 217,-1026 181.454,-999.69 159.16,-950.127 149.918,-922.343"/>
<polygon fill="midnightblue" stroke="midnightblue" points="153.192,-921.079 146.927,-912.535 146.496,-923.121 153.192,-921.079"/>
</g>
<!-- Node22&#45;&gt;Node3 -->
<g id="edge29" class="edge"><title>Node22&#45;&gt;Node3</title>
<path fill="none" stroke="midnightblue" d="M342.654,-1673.14C348.296,-1670.55 353.574,-1667.24 358,-1663 417.916,-1605.61 428.777,-1499.09 430.656,-1454.95"/>
<polygon fill="midnightblue" stroke="midnightblue" points="434.155,-1455.02 430.968,-1444.92 427.158,-1454.8 434.155,-1455.02"/>
</g>
<!-- Node23&#45;&gt;Node4 -->
<g id="edge31" class="edge"><title>Node23&#45;&gt;Node4</title>
<path fill="none" stroke="midnightblue" d="M324.459,-1064.41C342.939,-1059.48 365.656,-1053.43 385.359,-1048.17"/>
<polygon fill="midnightblue" stroke="midnightblue" points="386.292,-1051.54 395.053,-1045.59 384.489,-1044.78 386.292,-1051.54"/>
</g>
</g>
</svg>
        <g id="navigator" transform="translate(0 0)" fill="#404254">
                <rect fill="#f2f5e9" fill-opacity="0.5" stroke="#606060" stroke-width=".5" x="0" y="0" width="60" height="60"/>
                <use id="zoomplus" xlink:href="#zoomPlus" x="17" y="9" onmousedown="handleZoom(evt,'in')"/>
                <use id="zoomminus" xlink:href="#zoomMin" x="42" y="9" onmousedown="handleZoom(evt,'out')"/>
                <use id="reset" xlink:href="#resetDef" x="30" y="36" onmousedown="handleReset()"/>
                <g id="arrowUp" xlink:href="#dirArrow" transform="translate(30 24)" onmousedown="handlePan(0,-1)">
                  <use xlink:href="#rim" fill="#404040">
                        <set attributeName="fill" to="#808080" begin="arrowUp.mouseover" end="arrowUp.mouseout"/>
                  </use>
                  <path fill="none" stroke="white" stroke-width="1.5" d="M0,-3.0v7 M-2.5,-0.5L0,-3.0L2.5,-0.5"/>
                </g>
                <g id="arrowRight" xlink:href="#dirArrow" transform="rotate(90) translate(36 -43)" onmousedown="handlePan(1,0)">
                  <use xlink:href="#rim" fill="#404040">
                        <set attributeName="fill" to="#808080" begin="arrowRight.mouseover" end="arrowRight.mouseout"/>
                  </use>
                  <path fill="none" stroke="white" stroke-width="1.5" d="M0,-3.0v7 M-2.5,-0.5L0,-3.0L2.5,-0.5"/>
                </g>
                <g id="arrowDown" xlink:href="#dirArrow" transform="rotate(180) translate(-30 -48)" onmousedown="handlePan(0,1)">
                  <use xlink:href="#rim" fill="#404040">
                        <set attributeName="fill" to="#808080" begin="arrowDown.mouseover" end="arrowDown.mouseout"/>
                  </use>
                  <path fill="none" stroke="white" stroke-width="1.5" d="M0,-3.0v7 M-2.5,-0.5L0,-3.0L2.5,-0.5"/>
                </g>
                <g id="arrowLeft" xlink:href="#dirArrow" transform="rotate(270) translate(-36 17)" onmousedown="handlePan(-1,0)">
                  <use xlink:href="#rim" fill="#404040">
                        <set attributeName="fill" to="#808080" begin="arrowLeft.mouseover" end="arrowLeft.mouseout"/>
                  </use>
                  <path fill="none" stroke="white" stroke-width="1.5" d="M0,-3.0v7 M-2.5,-0.5L0,-3.0L2.5,-0.5"/>
                </g>
        </g>
        <svg viewBox="0 0 15 15" width="100%" height="30px" preserveAspectRatio="xMaxYMin meet">
         <g id="arrow_out" transform="scale(0.3 0.3)">
          <a xlink:href="a00579_ga4969b5b5f3d001377bc401a3ee99dfc2_cgraph_org.svg" target="_base">
           <rect id="button" ry="5" rx="5" y="6" x="6" height="38" width="38"
                fill="#f2f5e9" fill-opacity="0.5" stroke="#606060" stroke-width="1.0"/>
           <path id="arrow"
             d="M 11.500037,31.436501 C 11.940474,20.09759 22.043105,11.32322 32.158766,21.979434 L 37.068811,17.246167 C 37.068811,17.246167 37.088388,32 37.088388,32 L 22.160133,31.978069 C 22.160133,31.978069 26.997745,27.140456 26.997745,27.140456 C 18.528582,18.264221 13.291696,25.230495 11.500037,31.436501 z"
             style="fill:#404040;"/>
          </a>
         </g>
        </svg>
</svg>
