<?xml version="1.0" encoding="UTF-8" standalone="no"?>
<!DOCTYPE svg PUBLIC "-//W3C//DTD SVG 1.1//EN"
 "http://www.w3.org/Graphics/SVG/1.1/DTD/svg11.dtd">
<!-- Generated by graphviz version 2.38.0 (20140413.2041)
 -->
<!-- Title: arm_pid_q15 Pages: 1 -->
<svg width="226pt" height="66pt"
 viewBox="0.00 0.00 226.00 66.00" xmlns="http://www.w3.org/2000/svg" xmlns:xlink="http://www.w3.org/1999/xlink">
<g id="graph0" class="graph" transform="scale(1 1) rotate(0) translate(4 62)">
<title>arm_pid_q15</title>
<polygon fill="white" stroke="none" points="-4,4 -4,-62 222,-62 222,4 -4,4"/>
<!-- Node1 -->
<g id="node1" class="node"><title>Node1</title>
<polygon fill="#bfbfbf" stroke="black" points="0,-19.5 0,-38.5 72,-38.5 72,-19.5 0,-19.5"/>
<text text-anchor="middle" x="36" y="-26.5" font-family="Helvetica,sans-Serif" font-size="10.00">arm_pid_q15</text>
</g>
<!-- Node2 -->
<g id="node2" class="node"><title>Node2</title>
<g id="a_node2"><a xlink:href="a00666.html#ga542be7aabbf7a2297a4b62cf212910e3" target="_top" xlink:title="Floating&#45;point matrix inverse. ">
<polygon fill="white" stroke="black" points="108,-38.5 108,-57.5 218,-57.5 218,-38.5 108,-38.5"/>
<text text-anchor="middle" x="163" y="-45.5" font-family="Helvetica,sans-Serif" font-size="10.00">arm_mat_inverse_f32</text>
</a>
</g>
</g>
<!-- Node1&#45;&gt;Node2 -->
<g id="edge1" class="edge"><title>Node1&#45;&gt;Node2</title>
<path fill="none" stroke="midnightblue" d="M72.1521,-34.3431C80.2318,-35.5712 89.0711,-36.9148 97.952,-38.2647"/>
<polygon fill="midnightblue" stroke="midnightblue" points="97.5459,-41.7431 107.958,-39.7857 98.5979,-34.8226 97.5459,-41.7431"/>
</g>
<!-- Node3 -->
<g id="node3" class="node"><title>Node3</title>
<g id="a_node3"><a xlink:href="a00666.html#gaede2367c02df083cc915ddd5d8fae838" target="_top" xlink:title="Floating&#45;point matrix inverse. ">
<polygon fill="white" stroke="black" points="108,-0.5 108,-19.5 218,-19.5 218,-0.5 108,-0.5"/>
<text text-anchor="middle" x="163" y="-7.5" font-family="Helvetica,sans-Serif" font-size="10.00">arm_mat_inverse_f64</text>
</a>
</g>
</g>
<!-- Node1&#45;&gt;Node3 -->
<g id="edge2" class="edge"><title>Node1&#45;&gt;Node3</title>
<path fill="none" stroke="midnightblue" d="M72.1521,-23.6569C80.2318,-22.4288 89.0711,-21.0852 97.952,-19.7353"/>
<polygon fill="midnightblue" stroke="midnightblue" points="98.5979,-23.1774 107.958,-18.2143 97.5459,-16.2569 98.5979,-23.1774"/>
</g>
</g>
</svg>
