<?xml version="1.0" encoding="UTF-8" standalone="no"?>
<!DOCTYPE svg PUBLIC "-//W3C//DTD SVG 1.1//EN"
 "http://www.w3.org/Graphics/SVG/1.1/DTD/svg11.dtd">
<!-- Generated by graphviz version 2.38.0 (20140413.2041)
 -->
<!-- Title: arm_cmplx_dot_prod_f32 Pages: 1 -->
<svg width="387pt" height="104pt"
 viewBox="0.00 0.00 387.00 104.00" xmlns="http://www.w3.org/2000/svg" xmlns:xlink="http://www.w3.org/1999/xlink">
<g id="graph0" class="graph" transform="scale(1 1) rotate(0) translate(4 100)">
<title>arm_cmplx_dot_prod_f32</title>
<polygon fill="white" stroke="none" points="-4,4 -4,-100 383,-100 383,4 -4,4"/>
<!-- Node1 -->
<g id="node1" class="node"><title>Node1</title>
<polygon fill="#bfbfbf" stroke="black" points="0,-38.5 0,-57.5 126,-57.5 126,-38.5 0,-38.5"/>
<text text-anchor="middle" x="63" y="-45.5" font-family="Helvetica,sans-Serif" font-size="10.00">arm_cmplx_dot_prod_f32</text>
</g>
<!-- Node2 -->
<g id="node2" class="node"><title>Node2</title>
<g id="a_node2"><a xlink:href="a00508.html#ga56a40d1cf842b0b45267df6761975da0" target="_top" xlink:title="Floating&#45;point square root function. ">
<polygon fill="white" stroke="black" points="162,-38.5 162,-57.5 236,-57.5 236,-38.5 162,-38.5"/>
<text text-anchor="middle" x="199" y="-45.5" font-family="Helvetica,sans-Serif" font-size="10.00">arm_sqrt_f32</text>
</a>
</g>
</g>
<!-- Node1&#45;&gt;Node2 -->
<g id="edge1" class="edge"><title>Node1&#45;&gt;Node2</title>
<path fill="none" stroke="midnightblue" d="M136.571,-48C145.307,-48 153.916,-48 161.798,-48"/>
<polygon fill="midnightblue" stroke="midnightblue" points="136.293,-44.5001 126.293,-48 136.292,-51.5001 136.293,-44.5001"/>
</g>
<!-- Node3 -->
<g id="node3" class="node"><title>Node3</title>
<g id="a_node3"><a xlink:href="a00545.html#gae45024c497392cde2ae358a76d435213" target="_top" xlink:title="Floating&#45;point complex magnitude. ">
<polygon fill="white" stroke="black" points="272,-76.5 272,-95.5 379,-95.5 379,-76.5 272,-76.5"/>
<text text-anchor="middle" x="325.5" y="-83.5" font-family="Helvetica,sans-Serif" font-size="10.00">arm_cmplx_mag_f32</text>
</a>
</g>
</g>
<!-- Node2&#45;&gt;Node3 -->
<g id="edge2" class="edge"><title>Node2&#45;&gt;Node3</title>
<path fill="none" stroke="midnightblue" d="M245.861,-55.4601C267.844,-61.5877 292.763,-69.8079 308.548,-76.4368"/>
<polygon fill="midnightblue" stroke="midnightblue" points="246.577,-52.0282 236.011,-52.8052 244.755,-58.787 246.577,-52.0282"/>
</g>
<!-- Node4 -->
<g id="node4" class="node"><title>Node4</title>
<g id="a_node4"><a xlink:href="a00578.html#ga0e3ab1b57da32d45388d1fa90d7fd88c" target="_top" xlink:title="Root Mean Square of the elements of a floating&#45;point vector. ">
<polygon fill="white" stroke="black" points="288.5,-38.5 288.5,-57.5 362.5,-57.5 362.5,-38.5 288.5,-38.5"/>
<text text-anchor="middle" x="325.5" y="-45.5" font-family="Helvetica,sans-Serif" font-size="10.00">arm_rms_f32</text>
</a>
</g>
</g>
<!-- Node2&#45;&gt;Node4 -->
<g id="edge4" class="edge"><title>Node2&#45;&gt;Node4</title>
<path fill="none" stroke="midnightblue" d="M246.306,-41.4508C260.12,-41.0958 275.058,-41.2116 288.139,-41.7982"/>
<polygon fill="midnightblue" stroke="midnightblue" points="245.881,-37.9635 236.011,-41.814 246.128,-44.9591 245.881,-37.9635"/>
</g>
<!-- Node5 -->
<g id="node5" class="node"><title>Node5</title>
<g id="a_node5"><a xlink:href="a00579.html#ga4969b5b5f3d001377bc401a3ee99dfc2" target="_top" xlink:title="Standard deviation of the elements of a floating&#45;point vector. ">
<polygon fill="white" stroke="black" points="290,-0.5 290,-19.5 361,-19.5 361,-0.5 290,-0.5"/>
<text text-anchor="middle" x="325.5" y="-7.5" font-family="Helvetica,sans-Serif" font-size="10.00">arm_std_f32</text>
</a>
</g>
</g>
<!-- Node2&#45;&gt;Node5 -->
<g id="edge6" class="edge"><title>Node2&#45;&gt;Node5</title>
<path fill="none" stroke="midnightblue" d="M225.323,-34.7126C243.945,-27.6549 269.472,-19.6776 289.964,-14.4248"/>
<polygon fill="midnightblue" stroke="midnightblue" points="224.023,-31.4631 216.021,-38.4076 226.607,-37.9686 224.023,-31.4631"/>
</g>
<!-- Node3&#45;&gt;Node2 -->
<g id="edge3" class="edge"><title>Node3&#45;&gt;Node2</title>
<path fill="none" stroke="midnightblue" d="M261.888,-73.6393C244.866,-68.4343 227.88,-62.5673 216.021,-57.5924"/>
<polygon fill="midnightblue" stroke="midnightblue" points="261.292,-77.114 271.876,-76.6157 263.292,-70.4055 261.292,-77.114"/>
</g>
<!-- Node4&#45;&gt;Node2 -->
<g id="edge5" class="edge"><title>Node4&#45;&gt;Node2</title>
<path fill="none" stroke="midnightblue" d="M277.823,-54.5586C263.989,-54.9052 249.059,-54.781 236.011,-54.186"/>
<polygon fill="midnightblue" stroke="midnightblue" points="278.266,-58.0455 288.139,-54.2018 278.024,-51.0497 278.266,-58.0455"/>
</g>
<!-- Node5&#45;&gt;Node2 -->
<g id="edge7" class="edge"><title>Node5&#45;&gt;Node2</title>
<path fill="none" stroke="midnightblue" d="M299.197,-23.2798C281.017,-30.1711 256.249,-37.9405 236.011,-43.1948"/>
<polygon fill="midnightblue" stroke="midnightblue" points="300.548,-26.5092 308.548,-19.5632 297.962,-20.0041 300.548,-26.5092"/>
</g>
</g>
</svg>
