<?xml version="1.0" encoding="UTF-8" standalone="no"?>
<!DOCTYPE svg PUBLIC "-//W3C//DTD SVG 1.1//EN"
 "http://www.w3.org/Graphics/SVG/1.1/DTD/svg11.dtd">
<!-- Generated by graphviz version 2.38.0 (20140413.2041)
 -->
<!-- Title: TM_USART_Putc Pages: 1 -->
<svg width="690pt" height="707pt"
 viewBox="0.00 0.00 690.00 707.05" xmlns="http://www.w3.org/2000/svg" xmlns:xlink="http://www.w3.org/1999/xlink">
<g id="graph0" class="graph" transform="scale(1 1) rotate(0) translate(4 703.052)">
<title>TM_USART_Putc</title>
<polygon fill="white" stroke="none" points="-4,4 -4,-703.052 686,-703.052 686,4 -4,4"/>
<!-- Node1 -->
<g id="node1" class="node"><title>Node1</title>
<polygon fill="#bfbfbf" stroke="black" points="0,-354 0,-373 96,-373 96,-354 0,-354"/>
<text text-anchor="middle" x="48" y="-361" font-family="Helvetica,sans-Serif" font-size="10.00">TM_USART_Putc</text>
</g>
<!-- Node2 -->
<g id="node2" class="node"><title>Node2</title>
<g id="a_node2"><a xlink:href="a00580.html#ga453aeaa886278333403ff4937c01dcf3" target="_top" xlink:title="Puts string to USART port. ">
<polygon fill="white" stroke="black" points="175,-562 175,-581 271,-581 271,-562 175,-562"/>
<text text-anchor="middle" x="223" y="-569" font-family="Helvetica,sans-Serif" font-size="10.00">TM_USART_Puts</text>
</a>
</g>
</g>
<!-- Node1&#45;&gt;Node2 -->
<g id="edge1" class="edge"><title>Node1&#45;&gt;Node2</title>
<path fill="none" stroke="midnightblue" d="M51.1362,-373.019C57.1527,-402.864 77.4978,-492.236 132,-538.5 145.374,-549.853 163.576,-555.893 180.111,-559.771"/>
<polygon fill="midnightblue" stroke="midnightblue" points="179.62,-563.245 190.133,-561.933 181.096,-556.403 179.62,-563.245"/>
</g>
<!-- Node4 -->
<g id="node4" class="node"><title>Node4</title>
<g id="a_node4"><a xlink:href="a00580.html#gafbf9e2222953815c9f35cd46863dbc26" target="_top" xlink:title="Callback function for receive interrupt on USART1 in case you have enabled custom USART handler mode...">
<polygon fill="white" stroke="black" points="350,-676 350,-695 501,-695 501,-676 350,-676"/>
<text text-anchor="middle" x="425.5" y="-683" font-family="Helvetica,sans-Serif" font-size="10.00">TM_USART1_ReceiveHandler</text>
</a>
</g>
</g>
<!-- Node1&#45;&gt;Node4 -->
<g id="edge40" class="edge"><title>Node1&#45;&gt;Node4</title>
<path fill="none" stroke="midnightblue" d="M50.3718,-373.066C57.0689,-418.375 87.8072,-610.774 132,-648.5 194.543,-701.891 293.783,-702.842 359.029,-696.144"/>
<polygon fill="midnightblue" stroke="midnightblue" points="359.647,-699.597 369.198,-695.01 358.872,-692.64 359.647,-699.597"/>
</g>
<!-- Node5 -->
<g id="node5" class="node"><title>Node5</title>
<g id="a_node5"><a xlink:href="a00580.html#ga21823124b3d98ea2085671f4a5af6017" target="_top" xlink:title="Callback function for receive interrupt on USART2 in case you have enabled custom USART handler mode...">
<polygon fill="white" stroke="black" points="350,-638 350,-657 501,-657 501,-638 350,-638"/>
<text text-anchor="middle" x="425.5" y="-645" font-family="Helvetica,sans-Serif" font-size="10.00">TM_USART2_ReceiveHandler</text>
</a>
</g>
</g>
<!-- Node1&#45;&gt;Node5 -->
<g id="edge41" class="edge"><title>Node1&#45;&gt;Node5</title>
<path fill="none" stroke="midnightblue" d="M48.8945,-373.039C49.0472,-410.348 55.0036,-547.44 132,-610.5 194.209,-661.45 290.216,-663.802 355.114,-658.014"/>
<polygon fill="midnightblue" stroke="midnightblue" points="355.641,-661.479 365.253,-657.021 354.959,-654.512 355.641,-661.479"/>
</g>
<!-- Node6 -->
<g id="node6" class="node"><title>Node6</title>
<g id="a_node6"><a xlink:href="a00580.html#ga868eb8844f04487e714b63b016a93bae" target="_top" xlink:title="Callback function for receive interrupt on USART3 in case you have enabled custom USART handler mode...">
<polygon fill="white" stroke="black" points="350,-562 350,-581 501,-581 501,-562 350,-562"/>
<text text-anchor="middle" x="425.5" y="-569" font-family="Helvetica,sans-Serif" font-size="10.00">TM_USART3_ReceiveHandler</text>
</a>
</g>
</g>
<!-- Node1&#45;&gt;Node6 -->
<g id="edge42" class="edge"><title>Node1&#45;&gt;Node6</title>
<path fill="none" stroke="midnightblue" d="M48.9804,-373.055C49.4875,-409.155 56.6847,-537.846 132,-590.5 169.095,-616.433 295.865,-597.153 369.777,-582.972"/>
<polygon fill="midnightblue" stroke="midnightblue" points="370.695,-586.359 379.841,-581.01 369.356,-579.488 370.695,-586.359"/>
</g>
<!-- Node7 -->
<g id="node7" class="node"><title>Node7</title>
<g id="a_node7"><a xlink:href="a00580.html#gada9d723469cf9d7d0ac11930b8e14f2a" target="_top" xlink:title="Callback function for receive interrupt on UART4 in case you have enabled custom USART handler mode...">
<polygon fill="white" stroke="black" points="353.5,-524 353.5,-543 497.5,-543 497.5,-524 353.5,-524"/>
<text text-anchor="middle" x="425.5" y="-531" font-family="Helvetica,sans-Serif" font-size="10.00">TM_UART4_ReceiveHandler</text>
</a>
</g>
</g>
<!-- Node1&#45;&gt;Node7 -->
<g id="edge43" class="edge"><title>Node1&#45;&gt;Node7</title>
<path fill="none" stroke="midnightblue" d="M51.6862,-373.07C59.3697,-398.481 84.0316,-467.8 132,-498.5 194.737,-538.653 280.762,-544.447 343.271,-541.98"/>
<polygon fill="midnightblue" stroke="midnightblue" points="343.661,-545.466 353.484,-541.496 343.33,-538.474 343.661,-545.466"/>
</g>
<!-- Node8 -->
<g id="node8" class="node"><title>Node8</title>
<g id="a_node8"><a xlink:href="a00580.html#ga4338d265fa58103332ea234f63594b81" target="_top" xlink:title="Callback function for receive interrupt on UART5 in case you have enabled custom USART handler mode...">
<polygon fill="white" stroke="black" points="353.5,-486 353.5,-505 497.5,-505 497.5,-486 353.5,-486"/>
<text text-anchor="middle" x="425.5" y="-493" font-family="Helvetica,sans-Serif" font-size="10.00">TM_UART5_ReceiveHandler</text>
</a>
</g>
</g>
<!-- Node1&#45;&gt;Node8 -->
<g id="edge44" class="edge"><title>Node1&#45;&gt;Node8</title>
<path fill="none" stroke="midnightblue" d="M53.533,-373.312C63.9442,-394.581 91.7991,-444.764 132,-466.5 196.845,-501.561 281.646,-506.287 343.233,-503.75"/>
<polygon fill="midnightblue" stroke="midnightblue" points="343.476,-507.242 353.295,-503.262 343.138,-500.25 343.476,-507.242"/>
</g>
<!-- Node9 -->
<g id="node9" class="node"><title>Node9</title>
<g id="a_node9"><a xlink:href="a00580.html#ga65c1d6a6bcc2dbd40ea0e7cbf5e924de" target="_top" xlink:title="Callback function for receive interrupt on USART6 in case you have enabled custom USART handler mode...">
<polygon fill="white" stroke="black" points="350,-448 350,-467 501,-467 501,-448 350,-448"/>
<text text-anchor="middle" x="425.5" y="-455" font-family="Helvetica,sans-Serif" font-size="10.00">TM_USART6_ReceiveHandler</text>
</a>
</g>
</g>
<!-- Node1&#45;&gt;Node9 -->
<g id="edge45" class="edge"><title>Node1&#45;&gt;Node9</title>
<path fill="none" stroke="midnightblue" d="M55.9282,-373.02C68.7541,-389.78 98.0103,-424.136 132,-438.5 197.802,-466.308 279.391,-469.332 339.667,-466.391"/>
<polygon fill="midnightblue" stroke="midnightblue" points="340.116,-469.871 349.907,-465.824 339.729,-462.882 340.116,-469.871"/>
</g>
<!-- Node10 -->
<g id="node10" class="node"><title>Node10</title>
<g id="a_node10"><a xlink:href="a00580.html#ga461a5123a57231d34d51330f12ea39d2" target="_top" xlink:title="Callback function for receive interrupt on UART7 in case you have enabled custom USART handler mode...">
<polygon fill="white" stroke="black" points="353.5,-410 353.5,-429 497.5,-429 497.5,-410 353.5,-410"/>
<text text-anchor="middle" x="425.5" y="-417" font-family="Helvetica,sans-Serif" font-size="10.00">TM_UART7_ReceiveHandler</text>
</a>
</g>
</g>
<!-- Node1&#45;&gt;Node10 -->
<g id="edge46" class="edge"><title>Node1&#45;&gt;Node10</title>
<path fill="none" stroke="midnightblue" d="M96.3645,-361.397C150.116,-360.263 239.935,-362.192 314,-382.5 331.252,-387.23 333.237,-394.254 350,-400.5 356.707,-402.999 363.874,-405.285 371.012,-407.337"/>
<polygon fill="midnightblue" stroke="midnightblue" points="370.115,-410.72 380.684,-409.989 371.966,-403.97 370.115,-410.72"/>
</g>
<!-- Node11 -->
<g id="node11" class="node"><title>Node11</title>
<g id="a_node11"><a xlink:href="a00580.html#ga37fe7ffa31a540627af5ebfe93f2dcf5" target="_top" xlink:title="Callback function for receive interrupt on UART8 in case you have enabled custom USART handler mode...">
<polygon fill="white" stroke="black" points="353.5,-372 353.5,-391 497.5,-391 497.5,-372 353.5,-372"/>
<text text-anchor="middle" x="425.5" y="-379" font-family="Helvetica,sans-Serif" font-size="10.00">TM_UART8_ReceiveHandler</text>
</a>
</g>
</g>
<!-- Node1&#45;&gt;Node11 -->
<g id="edge47" class="edge"><title>Node1&#45;&gt;Node11</title>
<path fill="none" stroke="midnightblue" d="M96.2304,-354.13C107.876,-352.209 120.35,-350.476 132,-349.5 212.607,-342.75 234.322,-335.554 314,-349.5 330.757,-352.433 333.739,-357.503 350,-362.5 357.801,-364.897 366.125,-367.233 374.278,-369.4"/>
<polygon fill="midnightblue" stroke="midnightblue" points="373.531,-372.822 384.091,-371.953 375.294,-366.048 373.531,-372.822"/>
</g>
<!-- Node12 -->
<g id="node12" class="node"><title>Node12</title>
<g id="a_node12"><a xlink:href="a00580.html#ga3bbfbfe88ae6dce27876b84798cfda62" target="_top" xlink:title="Sends data array to USART port. ">
<polygon fill="white" stroke="black" points="174,-278 174,-297 272,-297 272,-278 174,-278"/>
<text text-anchor="middle" x="223" y="-285" font-family="Helvetica,sans-Serif" font-size="10.00">TM_USART_Send</text>
</a>
</g>
</g>
<!-- Node1&#45;&gt;Node12 -->
<g id="edge12" class="edge"><title>Node1&#45;&gt;Node12</title>
<path fill="none" stroke="midnightblue" d="M61.5554,-353.943C77.2593,-342.401 105.334,-323.094 132,-311.5 142.667,-306.862 154.445,-302.936 165.867,-299.687"/>
<polygon fill="midnightblue" stroke="midnightblue" points="167.038,-302.996 175.777,-297.006 165.21,-296.239 167.038,-302.996"/>
</g>
<!-- Node13 -->
<g id="node13" class="node"><title>Node13</title>
<g id="a_node13"><a xlink:href="a00580.html#ga340391d061340e4635b4bbafea23602b" target="_top" xlink:title="Gets character from internal USART buffer. ">
<polygon fill="white" stroke="black" points="377,-182 377,-201 474,-201 474,-182 377,-182"/>
<text text-anchor="middle" x="425.5" y="-189" font-family="Helvetica,sans-Serif" font-size="10.00">TM_USART_Getc</text>
</a>
</g>
</g>
<!-- Node1&#45;&gt;Node13 -->
<g id="edge13" class="edge"><title>Node1&#45;&gt;Node13</title>
<path fill="none" stroke="midnightblue" d="M54.4347,-353.862C65.9784,-334.347 94.9471,-290.174 132,-268.5 203.327,-226.778 236.561,-259.336 314,-230.5 331.153,-224.113 332.992,-217.262 350,-210.5 356.25,-208.015 362.927,-205.772 369.619,-203.773"/>
<polygon fill="midnightblue" stroke="midnightblue" points="370.714,-207.1 379.388,-201.017 368.813,-200.363 370.714,-207.1"/>
</g>
<!-- Node14 -->
<g id="node14" class="node"><title>Node14</title>
<g id="a_node14"><a xlink:href="a00580.html#gabb0a95fd20e5e2a894e658b64a29ee61" target="_top" xlink:title="Gets string from USART. ">
<polygon fill="white" stroke="black" points="174.5,-202 174.5,-221 271.5,-221 271.5,-202 174.5,-202"/>
<text text-anchor="middle" x="223" y="-209" font-family="Helvetica,sans-Serif" font-size="10.00">TM_USART_Gets</text>
</a>
</g>
</g>
<!-- Node1&#45;&gt;Node14 -->
<g id="edge14" class="edge"><title>Node1&#45;&gt;Node14</title>
<path fill="none" stroke="midnightblue" d="M52.4709,-353.731C61.5332,-329.678 88.2808,-267.247 132,-235.5 141.513,-228.592 152.882,-223.672 164.285,-220.168"/>
<polygon fill="midnightblue" stroke="midnightblue" points="165.545,-223.452 174.269,-217.439 163.7,-216.7 165.545,-223.452"/>
</g>
<!-- Node15 -->
<g id="node15" class="node"><title>Node15</title>
<g id="a_node15"><a xlink:href="a00580.html#gabcee39f90c8c33ff3b1fb07e6496eef6" target="_top" xlink:title="Checks if internal USARTx buffer is empty. ">
<polygon fill="white" stroke="black" points="360,-144 360,-163 491,-163 491,-144 360,-144"/>
<text text-anchor="middle" x="425.5" y="-151" font-family="Helvetica,sans-Serif" font-size="10.00">TM_USART_BufferEmpty</text>
</a>
</g>
</g>
<!-- Node1&#45;&gt;Node15 -->
<g id="edge19" class="edge"><title>Node1&#45;&gt;Node15</title>
<path fill="none" stroke="midnightblue" d="M50.4875,-353.713C55.5871,-323.855 75.2953,-233.475 132,-192.5 165.76,-168.105 274.638,-158.966 349.589,-155.544"/>
<polygon fill="midnightblue" stroke="midnightblue" points="350.089,-159.026 359.929,-155.098 349.787,-152.033 350.089,-159.026"/>
</g>
<!-- Node16 -->
<g id="node16" class="node"><title>Node16</title>
<g id="a_node16"><a xlink:href="a00580.html#ga5f708a330c9fc45032143a5777d9b6fd" target="_top" xlink:title="Checks if character c is available in internal buffer. ">
<polygon fill="white" stroke="black" points="357,-106 357,-125 494,-125 494,-106 357,-106"/>
<text text-anchor="middle" x="425.5" y="-113" font-family="Helvetica,sans-Serif" font-size="10.00">TM_USART_FindCharacter</text>
</a>
</g>
</g>
<!-- Node1&#45;&gt;Node16 -->
<g id="edge18" class="edge"><title>Node1&#45;&gt;Node16</title>
<path fill="none" stroke="midnightblue" d="M49.5532,-353.533C52.0357,-319.264 65.1986,-205.537 132,-153.5 164.458,-128.216 271.416,-119.701 346.558,-116.866"/>
<polygon fill="midnightblue" stroke="midnightblue" points="347.067,-120.35 356.938,-116.502 346.822,-113.354 347.067,-120.35"/>
</g>
<!-- Node17 -->
<g id="node17" class="node"><title>Node17</title>
<g id="a_node17"><a xlink:href="a00580.html#ga0bf136abba24771c4a5a83ace52a76c1" target="_top" xlink:title="Checks if internal USARTx buffer is full. ">
<polygon fill="white" stroke="black" points="164,-88 164,-107 282,-107 282,-88 164,-88"/>
<text text-anchor="middle" x="223" y="-95" font-family="Helvetica,sans-Serif" font-size="10.00">TM_USART_BufferFull</text>
</a>
</g>
</g>
<!-- Node1&#45;&gt;Node17 -->
<g id="edge20" class="edge"><title>Node1&#45;&gt;Node17</title>
<path fill="none" stroke="midnightblue" d="M49.2421,-353.953C50.6946,-317.778 60.8604,-187.84 132,-121.5 138.445,-115.49 146.223,-110.952 154.477,-107.53"/>
<polygon fill="midnightblue" stroke="midnightblue" points="155.725,-110.8 163.95,-104.123 153.356,-104.214 155.725,-110.8"/>
</g>
<!-- Node18 -->
<g id="node18" class="node"><title>Node18</title>
<g id="a_node18"><a xlink:href="a00580.html#ga6c8dfcc950305f511393240ea847b2ad" target="_top" xlink:title="Clears internal USART buffer. ">
<polygon fill="white" stroke="black" points="160.5,-50 160.5,-69 285.5,-69 285.5,-50 160.5,-50"/>
<text text-anchor="middle" x="223" y="-57" font-family="Helvetica,sans-Serif" font-size="10.00">TM_USART_ClearBuffer</text>
</a>
</g>
</g>
<!-- Node1&#45;&gt;Node18 -->
<g id="edge21" class="edge"><title>Node1&#45;&gt;Node18</title>
<path fill="none" stroke="midnightblue" d="M48.5642,-353.871C47.3003,-313.488 48.1129,-156.294 132,-78.5 137.394,-73.4982 143.76,-69.6812 150.575,-66.7846"/>
<polygon fill="midnightblue" stroke="midnightblue" points="151.858,-70.0428 160.096,-63.3803 149.501,-63.4515 151.858,-70.0428"/>
</g>
<!-- Node19 -->
<g id="node19" class="node"><title>Node19</title>
<g id="a_node19"><a xlink:href="a00580.html#gae2f5677e3f69e09a943fb3124c997656" target="_top" xlink:title="Sets custom character for TM_USART_Gets() function to detect when string ends. ">
<polygon fill="white" stroke="black" points="147.5,-0.5 147.5,-30.5 298.5,-30.5 298.5,-0.5 147.5,-0.5"/>
<text text-anchor="start" x="155.5" y="-18.5" font-family="Helvetica,sans-Serif" font-size="10.00">TM_USART_SetCustomString</text>
<text text-anchor="middle" x="223" y="-7.5" font-family="Helvetica,sans-Serif" font-size="10.00">EndCharacter</text>
</a>
</g>
</g>
<!-- Node1&#45;&gt;Node19 -->
<g id="edge22" class="edge"><title>Node1&#45;&gt;Node19</title>
<path fill="none" stroke="midnightblue" d="M50.1826,-353.81C56.3146,-305.095 85.9863,-87.4162 132,-40.5 134.076,-38.3835 136.314,-36.4417 138.681,-34.6606"/>
<polygon fill="midnightblue" stroke="midnightblue" points="140.654,-37.5531 147.176,-29.2031 136.871,-31.6638 140.654,-37.5531"/>
</g>
<!-- Node20 -->
<g id="node20" class="node"><title>Node20</title>
<g id="a_node20"><a xlink:href="a00580.html#ga5cf7d7f613f4241fb77321ef9554f46b" target="_top" xlink:title="Callback for custom pins initialization for USARTx. ">
<polygon fill="white" stroke="black" points="132,-392 132,-411 314,-411 314,-392 132,-392"/>
<text text-anchor="middle" x="223" y="-399" font-family="Helvetica,sans-Serif" font-size="10.00">TM_USART_InitCustomPinsCallback</text>
</a>
</g>
</g>
<!-- Node1&#45;&gt;Node20 -->
<g id="edge23" class="edge"><title>Node1&#45;&gt;Node20</title>
<path fill="none" stroke="midnightblue" d="M92.6552,-373.089C115.793,-378.171 144.402,-384.455 168.827,-389.82"/>
<polygon fill="midnightblue" stroke="midnightblue" points="168.141,-393.253 178.659,-391.98 169.642,-386.416 168.141,-393.253"/>
</g>
<!-- Node2&#45;&gt;Node1 -->
<g id="edge2" class="edge"><title>Node2&#45;&gt;Node1</title>
<path fill="none" stroke="midnightblue" d="M174.811,-575.484C159.776,-572.555 143.959,-566.651 132,-556.5 78.1454,-510.786 57.641,-422.981 51.3568,-383.32"/>
<polygon fill="midnightblue" stroke="midnightblue" points="54.8009,-382.68 49.9191,-373.277 47.8715,-383.672 54.8009,-382.68"/>
</g>
<!-- Node3 -->
<g id="node3" class="node"><title>Node3</title>
<g id="a_node3"><a xlink:href="a00124.html#ga93d8f031241bcdbe938d091a85295445" target="_top" xlink:title="Checks whether the specified USART interrupt has occurred or not. ">
<polygon fill="white" stroke="black" points="370.5,-600 370.5,-619 480.5,-619 480.5,-600 370.5,-600"/>
<text text-anchor="middle" x="425.5" y="-607" font-family="Helvetica,sans-Serif" font-size="10.00">USART_GetITStatus</text>
</a>
</g>
</g>
<!-- Node2&#45;&gt;Node3 -->
<g id="edge3" class="edge"><title>Node2&#45;&gt;Node3</title>
<path fill="none" stroke="midnightblue" d="M271.008,-580.409C298.878,-585.691 334.481,-592.439 364.38,-598.106"/>
<polygon fill="midnightblue" stroke="midnightblue" points="363.804,-601.559 374.281,-599.982 365.108,-594.681 363.804,-601.559"/>
</g>
<!-- Node2&#45;&gt;Node4 -->
<g id="edge4" class="edge"><title>Node2&#45;&gt;Node4</title>
<path fill="none" stroke="midnightblue" d="M233.851,-581.171C253.945,-600.355 301.847,-643.366 350,-666.5 354.963,-668.884 360.261,-670.994 365.657,-672.855"/>
<polygon fill="midnightblue" stroke="midnightblue" points="364.835,-676.265 375.425,-675.942 366.944,-669.591 364.835,-676.265"/>
</g>
<!-- Node2&#45;&gt;Node5 -->
<g id="edge5" class="edge"><title>Node2&#45;&gt;Node5</title>
<path fill="none" stroke="midnightblue" d="M242.367,-581.043C266.536,-593.311 310.578,-614.676 350,-628.5 356.928,-630.929 364.318,-633.192 371.651,-635.247"/>
<polygon fill="midnightblue" stroke="midnightblue" points="371.002,-638.697 381.568,-637.917 372.822,-631.938 371.002,-638.697"/>
</g>
<!-- Node2&#45;&gt;Node6 -->
<g id="edge6" class="edge"><title>Node2&#45;&gt;Node6</title>
<path fill="none" stroke="midnightblue" d="M271.008,-571.5C291.568,-571.5 316.336,-571.5 339.918,-571.5"/>
<polygon fill="midnightblue" stroke="midnightblue" points="339.936,-575 349.936,-571.5 339.936,-568 339.936,-575"/>
</g>
<!-- Node2&#45;&gt;Node7 -->
<g id="edge7" class="edge"><title>Node2&#45;&gt;Node7</title>
<path fill="none" stroke="midnightblue" d="M271.008,-562.591C298.878,-557.309 334.481,-550.561 364.38,-544.894"/>
<polygon fill="midnightblue" stroke="midnightblue" points="365.108,-548.319 374.281,-543.018 363.804,-541.441 365.108,-548.319"/>
</g>
<!-- Node2&#45;&gt;Node8 -->
<g id="edge8" class="edge"><title>Node2&#45;&gt;Node8</title>
<path fill="none" stroke="midnightblue" d="M242.367,-561.957C266.536,-549.689 310.578,-528.324 350,-514.5 356.928,-512.071 364.318,-509.808 371.651,-507.753"/>
<polygon fill="midnightblue" stroke="midnightblue" points="372.822,-511.062 381.568,-505.083 371.002,-504.303 372.822,-511.062"/>
</g>
<!-- Node2&#45;&gt;Node9 -->
<g id="edge9" class="edge"><title>Node2&#45;&gt;Node9</title>
<path fill="none" stroke="midnightblue" d="M233.851,-561.829C253.945,-542.645 301.847,-499.634 350,-476.5 354.963,-474.116 360.261,-472.006 365.657,-470.145"/>
<polygon fill="midnightblue" stroke="midnightblue" points="366.944,-473.409 375.425,-467.058 364.835,-466.735 366.944,-473.409"/>
</g>
<!-- Node2&#45;&gt;Node10 -->
<g id="edge10" class="edge"><title>Node2&#45;&gt;Node10</title>
<path fill="none" stroke="midnightblue" d="M230.315,-561.699C246.801,-536.944 293.777,-471.523 350,-438.5 353.69,-436.333 357.625,-434.41 361.684,-432.705"/>
<polygon fill="midnightblue" stroke="midnightblue" points="363.182,-435.882 371.328,-429.108 360.736,-429.323 363.182,-435.882"/>
</g>
<!-- Node2&#45;&gt;Node11 -->
<g id="edge11" class="edge"><title>Node2&#45;&gt;Node11</title>
<path fill="none" stroke="midnightblue" d="M230.727,-561.581C254.411,-526.772 333.407,-411.676 350,-400.5 353.058,-398.44 356.324,-396.604 359.717,-394.966"/>
<polygon fill="midnightblue" stroke="midnightblue" points="361.084,-398.188 368.94,-391.08 358.366,-391.738 361.084,-398.188"/>
</g>
<!-- Node14&#45;&gt;Node13 -->
<g id="edge16" class="edge"><title>Node14&#45;&gt;Node13</title>
<path fill="none" stroke="midnightblue" d="M271.516,-206.76C300.127,-203.906 336.749,-200.253 366.989,-197.237"/>
<polygon fill="midnightblue" stroke="midnightblue" points="367.375,-200.716 376.978,-196.24 366.68,-193.75 367.375,-200.716"/>
</g>
<!-- Node14&#45;&gt;Node15 -->
<g id="edge15" class="edge"><title>Node14&#45;&gt;Node15</title>
<path fill="none" stroke="midnightblue" d="M264.668,-201.889C280.238,-197.889 298.077,-192.913 314,-187.5 330.411,-181.921 333.559,-177.99 350,-172.5 357.219,-170.09 364.917,-167.811 372.524,-165.724"/>
<polygon fill="midnightblue" stroke="midnightblue" points="373.656,-169.045 382.423,-163.096 371.86,-162.279 373.656,-169.045"/>
</g>
<!-- Node14&#45;&gt;Node16 -->
<g id="edge17" class="edge"><title>Node14&#45;&gt;Node16</title>
<path fill="none" stroke="midnightblue" d="M236.899,-201.794C258.957,-185.629 305.828,-153.13 350,-134.5 355.811,-132.049 362.015,-129.856 368.269,-127.908"/>
<polygon fill="midnightblue" stroke="midnightblue" points="369.466,-131.205 378.088,-125.048 367.508,-124.484 369.466,-131.205"/>
</g>
<!-- Node20&#45;&gt;Node4 -->
<g id="edge26" class="edge"><title>Node20&#45;&gt;Node4</title>
<path fill="none" stroke="midnightblue" d="M230.956,-411.314C247.319,-434.755 288.768,-496.253 314,-552.5 335.747,-600.979 311.389,-629.999 350,-666.5 351.655,-668.065 353.42,-669.505 355.274,-670.831"/>
<polygon fill="midnightblue" stroke="midnightblue" points="353.511,-673.854 363.898,-675.94 357.079,-667.832 353.511,-673.854"/>
</g>
<!-- Node20&#45;&gt;Node5 -->
<g id="edge27" class="edge"><title>Node20&#45;&gt;Node5</title>
<path fill="none" stroke="midnightblue" d="M230.227,-411.207C245.337,-434.917 284.847,-497.835 314,-552.5 331.588,-585.479 321.152,-604.736 350,-628.5 352.028,-630.171 354.185,-631.697 356.439,-633.091"/>
<polygon fill="midnightblue" stroke="midnightblue" points="355.06,-636.319 365.545,-637.838 358.296,-630.112 355.06,-636.319"/>
</g>
<!-- Node20&#45;&gt;Node6 -->
<g id="edge28" class="edge"><title>Node20&#45;&gt;Node6</title>
<path fill="none" stroke="midnightblue" d="M229.078,-411.052C243.854,-437.881 289.638,-514.44 350,-552.5 353.396,-554.641 357.023,-556.542 360.779,-558.228"/>
<polygon fill="midnightblue" stroke="midnightblue" points="359.737,-561.58 370.324,-561.996 362.307,-555.069 359.737,-561.58"/>
</g>
<!-- Node20&#45;&gt;Node7 -->
<g id="edge29" class="edge"><title>Node20&#45;&gt;Node7</title>
<path fill="none" stroke="midnightblue" d="M231.734,-411.055C249.938,-432.887 297.9,-486.685 350,-514.5 354.265,-516.777 358.814,-518.79 363.482,-520.568"/>
<polygon fill="midnightblue" stroke="midnightblue" points="362.582,-523.959 373.177,-523.897 364.856,-517.339 362.582,-523.959"/>
</g>
<!-- Node20&#45;&gt;Node8 -->
<g id="edge30" class="edge"><title>Node20&#45;&gt;Node8</title>
<path fill="none" stroke="midnightblue" d="M237.3,-411.186C259.568,-426.984 306.265,-458.353 350,-476.5 355.906,-478.951 362.211,-481.15 368.558,-483.105"/>
<polygon fill="midnightblue" stroke="midnightblue" points="367.938,-486.569 378.516,-485.979 369.878,-479.843 367.938,-486.569"/>
</g>
<!-- Node20&#45;&gt;Node9 -->
<g id="edge31" class="edge"><title>Node20&#45;&gt;Node9</title>
<path fill="none" stroke="midnightblue" d="M255.238,-411.012C280.681,-418.678 317.569,-429.606 350,-438.5 358.511,-440.834 367.595,-443.23 376.389,-445.5"/>
<polygon fill="midnightblue" stroke="midnightblue" points="375.592,-448.909 386.147,-447.999 377.329,-442.128 375.592,-448.909"/>
</g>
<!-- Node20&#45;&gt;Node10 -->
<g id="edge32" class="edge"><title>Node20&#45;&gt;Node10</title>
<path fill="none" stroke="midnightblue" d="M314.279,-409.605C323.897,-410.468 333.638,-411.343 343.144,-412.196"/>
<polygon fill="midnightblue" stroke="midnightblue" points="343.077,-415.704 353.35,-413.113 343.703,-408.732 343.077,-415.704"/>
</g>
<!-- Node20&#45;&gt;Node11 -->
<g id="edge33" class="edge"><title>Node20&#45;&gt;Node11</title>
<path fill="none" stroke="midnightblue" d="M314.279,-392.495C323.897,-391.535 333.638,-390.564 343.144,-389.615"/>
<polygon fill="midnightblue" stroke="midnightblue" points="343.747,-393.073 353.35,-388.597 343.052,-386.107 343.747,-393.073"/>
</g>
<!-- Node20&#45;&gt;Node20 -->
<g id="edge25" class="edge"><title>Node20&#45;&gt;Node20</title>
<path fill="none" stroke="midnightblue" d="M196.182,-411.257C183.135,-420.065 192.074,-429.5 223,-429.5 243.778,-429.5 254.632,-425.241 255.56,-419.775"/>
<polygon fill="midnightblue" stroke="midnightblue" points="258.31,-417.593 249.818,-411.257 252.506,-421.505 258.31,-417.593"/>
</g>
<!-- Node21 -->
<g id="node21" class="node"><title>Node21</title>
<g id="a_node21"><a xlink:href="a01227.html#gabc8eafcb23a81935b70b9046f266f5aa" target="_top" xlink:title="Initialize GPIO pins for alternate port operation. ">
<polygon fill="white" stroke="black" points="365.5,-334 365.5,-353 485.5,-353 485.5,-334 365.5,-334"/>
<text text-anchor="middle" x="425.5" y="-341" font-family="Helvetica,sans-Serif" font-size="10.00">MD_GPIO_InitAlternate</text>
</a>
</g>
</g>
<!-- Node20&#45;&gt;Node21 -->
<g id="edge24" class="edge"><title>Node20&#45;&gt;Node21</title>
<path fill="none" stroke="midnightblue" d="M253.407,-391.937C278.864,-383.769 316.721,-371.887 350,-362.5 358.218,-360.182 366.981,-357.836 375.503,-355.621"/>
<polygon fill="midnightblue" stroke="midnightblue" points="376.535,-358.969 385.349,-353.09 374.793,-352.19 376.535,-358.969"/>
</g>
<!-- Node22 -->
<g id="node22" class="node"><title>Node22</title>
<g id="a_node22"><a xlink:href="a00124.html#ga2f8e1ce72da21b6539d8e1f299ec3b0d" target="_top" xlink:title="Deinitializes the USARTx peripheral registers to their default reset values. ">
<polygon fill="white" stroke="black" points="384,-296 384,-315 467,-315 467,-296 384,-296"/>
<text text-anchor="middle" x="425.5" y="-303" font-family="Helvetica,sans-Serif" font-size="10.00">USART_DeInit</text>
</a>
</g>
</g>
<!-- Node20&#45;&gt;Node22 -->
<g id="edge34" class="edge"><title>Node20&#45;&gt;Node22</title>
<path fill="none" stroke="midnightblue" d="M236.899,-391.794C258.957,-375.629 305.828,-343.13 350,-324.5 357.607,-321.292 365.887,-318.524 374.071,-316.173"/>
<polygon fill="midnightblue" stroke="midnightblue" points="375.21,-319.491 383.954,-313.508 373.388,-312.732 375.21,-319.491"/>
</g>
<!-- Node25 -->
<g id="node25" class="node"><title>Node25</title>
<g id="a_node25"><a xlink:href="a00109.html#ga4ab373ed0870c06fca5eb51d639adf41" target="_top" xlink:title="Initializes the NVIC peripheral according to the specified parameters in the NVIC_InitStruct. ">
<polygon fill="white" stroke="black" points="395.5,-258 395.5,-277 455.5,-277 455.5,-258 395.5,-258"/>
<text text-anchor="middle" x="425.5" y="-265" font-family="Helvetica,sans-Serif" font-size="10.00">NVIC_Init</text>
</a>
</g>
</g>
<!-- Node20&#45;&gt;Node25 -->
<g id="edge37" class="edge"><title>Node20&#45;&gt;Node25</title>
<path fill="none" stroke="midnightblue" d="M231.694,-391.77C249.813,-369.539 297.609,-314.765 350,-286.5 360.812,-280.667 373.48,-276.572 385.271,-273.72"/>
<polygon fill="midnightblue" stroke="midnightblue" points="386.316,-277.074 395.339,-271.52 384.822,-270.235 386.316,-277.074"/>
</g>
<!-- Node26 -->
<g id="node26" class="node"><title>Node26</title>
<g id="a_node26"><a xlink:href="a00124.html#ga98da340ea0324002ba1b4263e91ab2ff" target="_top" xlink:title="Initializes the USARTx peripheral according to the specified parameters in the USART_InitStruct ...">
<polygon fill="white" stroke="black" points="390.5,-220 390.5,-239 460.5,-239 460.5,-220 390.5,-220"/>
<text text-anchor="middle" x="425.5" y="-227" font-family="Helvetica,sans-Serif" font-size="10.00">USART_Init</text>
</a>
</g>
</g>
<!-- Node20&#45;&gt;Node26 -->
<g id="edge38" class="edge"><title>Node20&#45;&gt;Node26</title>
<path fill="none" stroke="midnightblue" d="M234.436,-391.848C251.991,-375.326 288.055,-340.142 314,-306.5 332.528,-282.475 325.53,-266.436 350,-248.5 358.811,-242.042 369.603,-237.771 380.209,-234.949"/>
<polygon fill="midnightblue" stroke="midnightblue" points="381.275,-238.296 390.249,-232.663 379.721,-231.47 381.275,-238.296"/>
</g>
<!-- Node23 -->
<g id="node23" class="node"><title>Node23</title>
<g id="a_node23"><a xlink:href="a00111.html#gad94553850ac07106a27ee85fec37efdf" target="_top" xlink:title="Forces or releases High Speed APB (APB2) peripheral reset. ">
<polygon fill="white" stroke="black" points="537,-277 537,-296 682,-296 682,-277 537,-277"/>
<text text-anchor="middle" x="609.5" y="-284" font-family="Helvetica,sans-Serif" font-size="10.00">RCC_APB2PeriphResetCmd</text>
</a>
</g>
</g>
<!-- Node22&#45;&gt;Node23 -->
<g id="edge35" class="edge"><title>Node22&#45;&gt;Node23</title>
<path fill="none" stroke="midnightblue" d="M467.344,-301.236C484.907,-299.403 506.095,-297.191 526.653,-295.044"/>
<polygon fill="midnightblue" stroke="midnightblue" points="527.093,-298.518 536.676,-293.998 526.367,-291.555 527.093,-298.518"/>
</g>
<!-- Node24 -->
<g id="node24" class="node"><title>Node24</title>
<g id="a_node24"><a xlink:href="a00111.html#gab197ae4369c10b92640a733b40ed2801" target="_top" xlink:title="Forces or releases Low Speed APB (APB1) peripheral reset. ">
<polygon fill="white" stroke="black" points="537,-315 537,-334 682,-334 682,-315 537,-315"/>
<text text-anchor="middle" x="609.5" y="-322" font-family="Helvetica,sans-Serif" font-size="10.00">RCC_APB1PeriphResetCmd</text>
</a>
</g>
</g>
<!-- Node22&#45;&gt;Node24 -->
<g id="edge36" class="edge"><title>Node22&#45;&gt;Node24</title>
<path fill="none" stroke="midnightblue" d="M467.344,-309.764C484.907,-311.597 506.095,-313.809 526.653,-315.956"/>
<polygon fill="midnightblue" stroke="midnightblue" points="526.367,-319.445 536.676,-317.002 527.093,-312.482 526.367,-319.445"/>
</g>
<!-- Node27 -->
<g id="node27" class="node"><title>Node27</title>
<g id="a_node27"><a xlink:href="a00111.html#ga3e9944fd1ed734275222bbb3e3f29993" target="_top" xlink:title="Returns the frequencies of different on chip clocks; SYSCLK, HCLK, PCLK1 and PCLK2. ">
<polygon fill="white" stroke="black" points="554.5,-220 554.5,-239 664.5,-239 664.5,-220 554.5,-220"/>
<text text-anchor="middle" x="609.5" y="-227" font-family="Helvetica,sans-Serif" font-size="10.00">RCC_GetClocksFreq</text>
</a>
</g>
</g>
<!-- Node26&#45;&gt;Node27 -->
<g id="edge39" class="edge"><title>Node26&#45;&gt;Node27</title>
<path fill="none" stroke="midnightblue" d="M460.733,-229.5C484.21,-229.5 516.081,-229.5 544.214,-229.5"/>
<polygon fill="midnightblue" stroke="midnightblue" points="544.387,-233 554.387,-229.5 544.387,-226 544.387,-233"/>
</g>
</g>
</svg>
