<?xml version="1.0" encoding="UTF-8" standalone="no"?>
<!DOCTYPE svg PUBLIC "-//W3C//DTD SVG 1.1//EN"
 "http://www.w3.org/Graphics/SVG/1.1/DTD/svg11.dtd">
<!-- Generated by graphviz version 2.38.0 (20140413.2041)
 -->
<!-- Title: Defines and Type Definitions Pages: 1 -->
<svg width="316pt" height="519pt"
 viewBox="0.00 0.00 316.00 519.00" xmlns="http://www.w3.org/2000/svg" xmlns:xlink="http://www.w3.org/1999/xlink">
<g id="graph0" class="graph" transform="scale(1 1) rotate(0) translate(4 515)">
<title>Defines and Type Definitions</title>
<polygon fill="white" stroke="none" points="-4,4 -4,-515 312,-515 312,4 -4,4"/>
<!-- Node11 -->
<g id="node1" class="node"><title>Node11</title>
<g id="a_node1"><a xlink:href="a00122.html" target="_top" xlink:title="Type definitions for the Trace Port Interface (TPI) ">
<polygon fill="white" stroke="black" points="191.5,-480.5 191.5,-510.5 295.5,-510.5 295.5,-480.5 191.5,-480.5"/>
<text text-anchor="start" x="199.5" y="-498.5" font-family="Helvetica,sans-Serif" font-size="10.00">Trace Port Interface</text>
<text text-anchor="middle" x="243.5" y="-487.5" font-family="Helvetica,sans-Serif" font-size="10.00"> (TPI)</text>
</a>
</g>
</g>
<!-- Node1 -->
<g id="node2" class="node"><title>Node1</title>
<g id="a_node2"><a xlink:href="a00029.html" target="_top" xlink:title="Core Register type definitions. ">
<polygon fill="white" stroke="black" points="194.5,-431.5 194.5,-461.5 292.5,-461.5 292.5,-431.5 194.5,-431.5"/>
<text text-anchor="start" x="202.5" y="-449.5" font-family="Helvetica,sans-Serif" font-size="10.00">Status and Control</text>
<text text-anchor="middle" x="243.5" y="-438.5" font-family="Helvetica,sans-Serif" font-size="10.00"> Registers</text>
</a>
</g>
</g>
<!-- Node7 -->
<g id="node3" class="node"><title>Node7</title>
<g id="a_node3"><a xlink:href="a00613.html" target="_top" xlink:title="Definitions for base addresses, unions, and structures. ">
<polygon fill="white" stroke="black" points="200,-393 200,-412 287,-412 287,-393 200,-393"/>
<text text-anchor="middle" x="243.5" y="-400" font-family="Helvetica,sans-Serif" font-size="10.00">Core Definitions</text>
</a>
</g>
</g>
<!-- Node4 -->
<g id="node4" class="node"><title>Node4</title>
<g id="a_node4"><a xlink:href="a00116.html" target="_top" xlink:title="Type definitions for the System Timer Registers. ">
<polygon fill="white" stroke="black" points="192,-343.5 192,-373.5 295,-373.5 295,-343.5 192,-343.5"/>
<text text-anchor="start" x="200" y="-361.5" font-family="Helvetica,sans-Serif" font-size="10.00">System Tick Timer </text>
<text text-anchor="middle" x="243.5" y="-350.5" font-family="Helvetica,sans-Serif" font-size="10.00">(SysTick)</text>
</a>
</g>
</g>
<!-- Node2 -->
<g id="node5" class="node"><title>Node2</title>
<g id="a_node5"><a xlink:href="a00110.html" target="_top" xlink:title="Type definitions for the NVIC Registers. ">
<polygon fill="white" stroke="black" points="179,-294.5 179,-324.5 308,-324.5 308,-294.5 179,-294.5"/>
<text text-anchor="start" x="187" y="-312.5" font-family="Helvetica,sans-Serif" font-size="10.00">Nested Vectored Interrupt</text>
<text text-anchor="middle" x="243.5" y="-301.5" font-family="Helvetica,sans-Serif" font-size="10.00"> Controller (NVIC)</text>
</a>
</g>
</g>
<!-- Node8 -->
<g id="node6" class="node"><title>Node8</title>
<g id="a_node6"><a xlink:href="a00114.html" target="_top" xlink:title="Type definitions for the System Control and ID Register not in the SCB. ">
<polygon fill="white" stroke="black" points="190,-245.5 190,-275.5 297,-275.5 297,-245.5 190,-245.5"/>
<text text-anchor="start" x="198" y="-263.5" font-family="Helvetica,sans-Serif" font-size="10.00">System Controls not</text>
<text text-anchor="middle" x="243.5" y="-252.5" font-family="Helvetica,sans-Serif" font-size="10.00"> in SCB (SCnSCB)</text>
</a>
</g>
</g>
<!-- Node3 -->
<g id="node7" class="node"><title>Node3</title>
<g id="a_node7"><a xlink:href="a00113.html" target="_top" xlink:title="Type definitions for the System Control Block Registers. ">
<polygon fill="white" stroke="black" points="187,-196.5 187,-226.5 300,-226.5 300,-196.5 187,-196.5"/>
<text text-anchor="start" x="195" y="-214.5" font-family="Helvetica,sans-Serif" font-size="10.00">System Control Block</text>
<text text-anchor="middle" x="243.5" y="-203.5" font-family="Helvetica,sans-Serif" font-size="10.00"> (SCB)</text>
</a>
</g>
</g>
<!-- Node10 -->
<g id="node8" class="node"><title>Node10</title>
<g id="a_node8"><a xlink:href="a00099.html" target="_top" xlink:title="Type definitions for the Data Watchpoint and Trace (DWT) ">
<polygon fill="white" stroke="black" points="189,-147.5 189,-177.5 298,-177.5 298,-147.5 189,-147.5"/>
<text text-anchor="start" x="197" y="-165.5" font-family="Helvetica,sans-Serif" font-size="10.00">Data Watchpoint and</text>
<text text-anchor="middle" x="243.5" y="-154.5" font-family="Helvetica,sans-Serif" font-size="10.00"> Trace (DWT)</text>
</a>
</g>
</g>
<!-- Node5 -->
<g id="node9" class="node"><title>Node5</title>
<g id="a_node9"><a xlink:href="a00092.html" target="_top" xlink:title="Cortex&#45;M0 Core Debug Registers (DCB registers, SHCSR, and DFSR) are only accessible over DAP and not ...">
<polygon fill="white" stroke="black" points="186.5,-98.5 186.5,-128.5 300.5,-128.5 300.5,-98.5 186.5,-98.5"/>
<text text-anchor="start" x="194.5" y="-116.5" font-family="Helvetica,sans-Serif" font-size="10.00">Core Debug Registers</text>
<text text-anchor="middle" x="243.5" y="-105.5" font-family="Helvetica,sans-Serif" font-size="10.00"> (CoreDebug)</text>
</a>
</g>
</g>
<!-- Node9 -->
<g id="node10" class="node"><title>Node9</title>
<g id="a_node10"><a xlink:href="a00106.html" target="_top" xlink:title="Type definitions for the Instrumentation Trace Macrocell (ITM) ">
<polygon fill="white" stroke="black" points="187.5,-49.5 187.5,-79.5 299.5,-79.5 299.5,-49.5 187.5,-49.5"/>
<text text-anchor="start" x="195.5" y="-67.5" font-family="Helvetica,sans-Serif" font-size="10.00">Instrumentation Trace</text>
<text text-anchor="middle" x="243.5" y="-56.5" font-family="Helvetica,sans-Serif" font-size="10.00"> Macrocell (ITM)</text>
</a>
</g>
</g>
<!-- Node0 -->
<g id="node11" class="node"><title>Node0</title>
<polygon fill="#bfbfbf" stroke="black" points="0,-251 0,-270 143,-270 143,-251 0,-251"/>
<text text-anchor="middle" x="71.5" y="-258" font-family="Helvetica,sans-Serif" font-size="10.00">Defines and Type Definitions</text>
</g>
<!-- Node0&#45;&gt;Node11 -->
<g id="edge11" class="edge"><title>Node0&#45;&gt;Node11</title>
<path fill="none" stroke="black" d="M77.1427,-279.806C87.9592,-320.8 118.628,-417.215 179,-471.5 182.768,-474.888 187.062,-477.816 191.599,-480.341"/>
<polygon fill="black" stroke="black" points="80.5082,-278.839 74.6606,-270.004 73.7223,-280.557 80.5082,-278.839"/>
</g>
<!-- Node0&#45;&gt;Node1 -->
<g id="edge1" class="edge"><title>Node0&#45;&gt;Node1</title>
<path fill="none" stroke="black" d="M80.5477,-279.837C95.3364,-313.178 129.884,-381.723 179,-421.5 183.696,-425.303 189.041,-428.583 194.59,-431.397"/>
<polygon fill="black" stroke="black" points="83.6215,-278.126 76.4471,-270.33 77.194,-280.899 83.6215,-278.126"/>
</g>
<!-- Node0&#45;&gt;Node7 -->
<g id="edge7" class="edge"><title>Node0&#45;&gt;Node7</title>
<path fill="none" stroke="black" d="M83.5694,-278.929C100.684,-305.86 136.114,-355.772 179,-383.5 185.281,-387.561 192.466,-390.785 199.692,-393.335"/>
<polygon fill="black" stroke="black" points="86.3575,-276.783 78.1126,-270.13 80.4087,-280.473 86.3575,-276.783"/>
</g>
<!-- Node0&#45;&gt;Node4 -->
<g id="edge4" class="edge"><title>Node0&#45;&gt;Node4</title>
<path fill="none" stroke="black" d="M92.3601,-276.536C113.067,-292.705 146.92,-317.623 179,-334.5 185.154,-337.737 191.844,-340.757 198.496,-343.488"/>
<polygon fill="black" stroke="black" points="94.3493,-273.647 84.334,-270.191 90.0081,-279.138 94.3493,-273.647"/>
</g>
<!-- Node0&#45;&gt;Node2 -->
<g id="edge2" class="edge"><title>Node0&#45;&gt;Node2</title>
<path fill="none" stroke="black" d="M115.401,-272.866C138.163,-279.426 166.313,-287.54 190.331,-294.463"/>
<polygon fill="black" stroke="black" points="116.259,-269.471 105.681,-270.064 114.321,-276.197 116.259,-269.471"/>
</g>
<!-- Node0&#45;&gt;Node8 -->
<g id="edge8" class="edge"><title>Node0&#45;&gt;Node8</title>
<path fill="none" stroke="black" d="M153.489,-260.5C165.894,-260.5 178.414,-260.5 189.988,-260.5"/>
<polygon fill="black" stroke="black" points="153.118,-257 143.118,-260.5 153.118,-264 153.118,-257"/>
</g>
<!-- Node0&#45;&gt;Node3 -->
<g id="edge3" class="edge"><title>Node0&#45;&gt;Node3</title>
<path fill="none" stroke="black" d="M115.401,-248.134C138.163,-241.574 166.313,-233.46 190.331,-226.537"/>
<polygon fill="black" stroke="black" points="114.321,-244.803 105.681,-250.936 116.259,-251.529 114.321,-244.803"/>
</g>
<!-- Node0&#45;&gt;Node10 -->
<g id="edge10" class="edge"><title>Node0&#45;&gt;Node10</title>
<path fill="none" stroke="black" d="M92.7836,-244.534C113.586,-228.665 147.296,-204.329 179,-187.5 185.698,-183.945 193.015,-180.605 200.224,-177.595"/>
<polygon fill="black" stroke="black" points="90.4812,-241.889 84.702,-250.769 94.7574,-247.431 90.4812,-241.889"/>
</g>
<!-- Node0&#45;&gt;Node5 -->
<g id="edge5" class="edge"><title>Node0&#45;&gt;Node5</title>
<path fill="none" stroke="black" d="M84.1773,-242.296C101.827,-216.079 137.66,-167.646 179,-138.5 184.326,-134.745 190.294,-131.45 196.383,-128.59"/>
<polygon fill="black" stroke="black" points="81.1046,-240.598 78.521,-250.873 86.9482,-244.452 81.1046,-240.598"/>
</g>
<!-- Node0&#45;&gt;Node9 -->
<g id="edge9" class="edge"><title>Node0&#45;&gt;Node9</title>
<path fill="none" stroke="black" d="M79.6353,-241.413C93.5714,-206.566 127.609,-132.298 179,-89.5 183.552,-85.709 188.748,-82.4452 194.164,-79.6473"/>
<polygon fill="black" stroke="black" points="76.3151,-240.295 75.9588,-250.884 82.8406,-242.828 76.3151,-240.295"/>
</g>
<!-- Node6 -->
<g id="node12" class="node"><title>Node6</title>
<g id="a_node12"><a xlink:href="a00612.html" target="_top" xlink:title="Macros for use with bit field definitions (xxx_Pos, xxx_Msk). ">
<polygon fill="white" stroke="black" points="190,-0.5 190,-30.5 297,-30.5 297,-0.5 190,-0.5"/>
<text text-anchor="start" x="198" y="-18.5" font-family="Helvetica,sans-Serif" font-size="10.00">Core register bit field</text>
<text text-anchor="middle" x="243.5" y="-7.5" font-family="Helvetica,sans-Serif" font-size="10.00"> macros</text>
</a>
</g>
</g>
<!-- Node0&#45;&gt;Node6 -->
<g id="edge6" class="edge"><title>Node0&#45;&gt;Node6</title>
<path fill="none" stroke="black" d="M76.8898,-240.716C87.2848,-198.272 117.293,-97.6993 179,-40.5 183.171,-36.6339 188.01,-33.3387 193.12,-30.5362"/>
<polygon fill="black" stroke="black" points="73.4407,-240.094 74.5644,-250.629 80.2557,-241.693 73.4407,-240.094"/>
</g>
</g>
</svg>
