<?xml version="1.0" encoding="UTF-8" standalone="no"?>
<!DOCTYPE svg PUBLIC "-//W3C//DTD SVG 1.1//EN"
 "http://www.w3.org/Graphics/SVG/1.1/DTD/svg11.dtd">
<!-- Generated by graphviz version 2.38.0 (20140413.2041)
 -->
<!-- Title: arm_correlate_fast_opt_q15 Pages: 1 -->
<svg width="222pt" height="66pt"
 viewBox="0.00 0.00 222.00 66.00" xmlns="http://www.w3.org/2000/svg" xmlns:xlink="http://www.w3.org/1999/xlink">
<g id="graph0" class="graph" transform="scale(1 1) rotate(0) translate(4 62)">
<title>arm_correlate_fast_opt_q15</title>
<polygon fill="white" stroke="none" points="-4,4 -4,-62 218,-62 218,4 -4,4"/>
<!-- Node1 -->
<g id="node1" class="node"><title>Node1</title>
<polygon fill="#bfbfbf" stroke="black" points="0,-14 0,-44 98,-44 98,-14 0,-14"/>
<text text-anchor="start" x="8" y="-32" font-family="Helvetica,sans-Serif" font-size="10.00">arm_correlate_fast</text>
<text text-anchor="middle" x="49" y="-21" font-family="Helvetica,sans-Serif" font-size="10.00">_opt_q15</text>
</g>
<!-- Node2 -->
<g id="node2" class="node"><title>Node2</title>
<g id="a_node2"><a xlink:href="a00679.html#ga76b21c32a3783a2b3334d930a646e5d8" target="_top" xlink:title="Fills a constant value into a Q15 vector. ">
<polygon fill="white" stroke="black" points="139.5,-38.5 139.5,-57.5 208.5,-57.5 208.5,-38.5 139.5,-38.5"/>
<text text-anchor="middle" x="174" y="-45.5" font-family="Helvetica,sans-Serif" font-size="10.00">arm_fill_q15</text>
</a>
</g>
</g>
<!-- Node1&#45;&gt;Node2 -->
<g id="edge1" class="edge"><title>Node1&#45;&gt;Node2</title>
<path fill="none" stroke="midnightblue" d="M98.2598,-36.4548C108.45,-38.0289 119.149,-39.6816 129.165,-41.2288"/>
<polygon fill="midnightblue" stroke="midnightblue" points="128.889,-44.7275 139.306,-42.7952 129.957,-37.8095 128.889,-44.7275"/>
</g>
<!-- Node3 -->
<g id="node3" class="node"><title>Node3</title>
<g id="a_node3"><a xlink:href="a00678.html#ga872ca4cfc18c680b8991ccd569a5fda0" target="_top" xlink:title="Copies the elements of a Q15 vector. ">
<polygon fill="white" stroke="black" points="134,-0.5 134,-19.5 214,-19.5 214,-0.5 134,-0.5"/>
<text text-anchor="middle" x="174" y="-7.5" font-family="Helvetica,sans-Serif" font-size="10.00">arm_copy_q15</text>
</a>
</g>
</g>
<!-- Node1&#45;&gt;Node3 -->
<g id="edge2" class="edge"><title>Node1&#45;&gt;Node3</title>
<path fill="none" stroke="midnightblue" d="M98.2598,-21.5452C106.681,-20.2444 115.45,-18.8898 123.894,-17.5855"/>
<polygon fill="midnightblue" stroke="midnightblue" points="124.639,-21.0121 133.987,-16.0264 123.57,-14.0941 124.639,-21.0121"/>
</g>
</g>
</svg>
