<?xml version="1.0" encoding="UTF-8" standalone="no"?>
<!DOCTYPE svg PUBLIC "-//W3C//DTD SVG 1.1//EN"
 "http://www.w3.org/Graphics/SVG/1.1/DTD/svg11.dtd">
<!-- Generated by graphviz version 2.38.0 (20140413.2041)
 -->
<!-- Title: arm_cmplx_mult_real_q31 Pages: 1 -->
<svg width="392pt" height="104pt"
 viewBox="0.00 0.00 392.00 104.00" xmlns="http://www.w3.org/2000/svg" xmlns:xlink="http://www.w3.org/1999/xlink">
<g id="graph0" class="graph" transform="scale(1 1) rotate(0) translate(4 100)">
<title>arm_cmplx_mult_real_q31</title>
<polygon fill="white" stroke="none" points="-4,4 -4,-100 388,-100 388,4 -4,4"/>
<!-- Node1 -->
<g id="node1" class="node"><title>Node1</title>
<polygon fill="#bfbfbf" stroke="black" points="0,-38.5 0,-57.5 131,-57.5 131,-38.5 0,-38.5"/>
<text text-anchor="middle" x="65.5" y="-45.5" font-family="Helvetica,sans-Serif" font-size="10.00">arm_cmplx_mult_real_q31</text>
</g>
<!-- Node2 -->
<g id="node2" class="node"><title>Node2</title>
<g id="a_node2"><a xlink:href="a00605.html#ga56a40d1cf842b0b45267df6761975da0" target="_top" xlink:title="Floating&#45;point square root function. ">
<polygon fill="white" stroke="black" points="167,-38.5 167,-57.5 241,-57.5 241,-38.5 167,-38.5"/>
<text text-anchor="middle" x="204" y="-45.5" font-family="Helvetica,sans-Serif" font-size="10.00">arm_sqrt_f32</text>
</a>
</g>
</g>
<!-- Node1&#45;&gt;Node2 -->
<g id="edge1" class="edge"><title>Node1&#45;&gt;Node2</title>
<path fill="none" stroke="midnightblue" d="M141.216,-48C150.103,-48 158.843,-48 166.825,-48"/>
<polygon fill="midnightblue" stroke="midnightblue" points="141.152,-44.5001 131.152,-48 141.152,-51.5001 141.152,-44.5001"/>
</g>
<!-- Node3 -->
<g id="node3" class="node"><title>Node3</title>
<g id="a_node3"><a xlink:href="a00642.html#gae45024c497392cde2ae358a76d435213" target="_top" xlink:title="Floating&#45;point complex magnitude. ">
<polygon fill="white" stroke="black" points="277,-76.5 277,-95.5 384,-95.5 384,-76.5 277,-76.5"/>
<text text-anchor="middle" x="330.5" y="-83.5" font-family="Helvetica,sans-Serif" font-size="10.00">arm_cmplx_mag_f32</text>
</a>
</g>
</g>
<!-- Node2&#45;&gt;Node3 -->
<g id="edge2" class="edge"><title>Node2&#45;&gt;Node3</title>
<path fill="none" stroke="midnightblue" d="M250.861,-55.4601C272.844,-61.5877 297.763,-69.8079 313.548,-76.4368"/>
<polygon fill="midnightblue" stroke="midnightblue" points="251.577,-52.0282 241.011,-52.8052 249.755,-58.787 251.577,-52.0282"/>
</g>
<!-- Node4 -->
<g id="node4" class="node"><title>Node4</title>
<g id="a_node4"><a xlink:href="a00675.html#ga0e3ab1b57da32d45388d1fa90d7fd88c" target="_top" xlink:title="Root Mean Square of the elements of a floating&#45;point vector. ">
<polygon fill="white" stroke="black" points="293.5,-38.5 293.5,-57.5 367.5,-57.5 367.5,-38.5 293.5,-38.5"/>
<text text-anchor="middle" x="330.5" y="-45.5" font-family="Helvetica,sans-Serif" font-size="10.00">arm_rms_f32</text>
</a>
</g>
</g>
<!-- Node2&#45;&gt;Node4 -->
<g id="edge4" class="edge"><title>Node2&#45;&gt;Node4</title>
<path fill="none" stroke="midnightblue" d="M251.306,-41.4508C265.12,-41.0958 280.058,-41.2116 293.139,-41.7982"/>
<polygon fill="midnightblue" stroke="midnightblue" points="250.881,-37.9635 241.011,-41.814 251.128,-44.9591 250.881,-37.9635"/>
</g>
<!-- Node5 -->
<g id="node5" class="node"><title>Node5</title>
<g id="a_node5"><a xlink:href="a00676.html#ga4969b5b5f3d001377bc401a3ee99dfc2" target="_top" xlink:title="Standard deviation of the elements of a floating&#45;point vector. ">
<polygon fill="white" stroke="black" points="295,-0.5 295,-19.5 366,-19.5 366,-0.5 295,-0.5"/>
<text text-anchor="middle" x="330.5" y="-7.5" font-family="Helvetica,sans-Serif" font-size="10.00">arm_std_f32</text>
</a>
</g>
</g>
<!-- Node2&#45;&gt;Node5 -->
<g id="edge6" class="edge"><title>Node2&#45;&gt;Node5</title>
<path fill="none" stroke="midnightblue" d="M230.323,-34.7126C248.945,-27.6549 274.472,-19.6776 294.964,-14.4248"/>
<polygon fill="midnightblue" stroke="midnightblue" points="229.023,-31.4631 221.021,-38.4076 231.607,-37.9686 229.023,-31.4631"/>
</g>
<!-- Node3&#45;&gt;Node2 -->
<g id="edge3" class="edge"><title>Node3&#45;&gt;Node2</title>
<path fill="none" stroke="midnightblue" d="M266.888,-73.6393C249.866,-68.4343 232.88,-62.5673 221.021,-57.5924"/>
<polygon fill="midnightblue" stroke="midnightblue" points="266.292,-77.114 276.876,-76.6157 268.292,-70.4055 266.292,-77.114"/>
</g>
<!-- Node4&#45;&gt;Node2 -->
<g id="edge5" class="edge"><title>Node4&#45;&gt;Node2</title>
<path fill="none" stroke="midnightblue" d="M282.823,-54.5586C268.989,-54.9052 254.059,-54.781 241.011,-54.186"/>
<polygon fill="midnightblue" stroke="midnightblue" points="283.266,-58.0455 293.139,-54.2018 283.024,-51.0497 283.266,-58.0455"/>
</g>
<!-- Node5&#45;&gt;Node2 -->
<g id="edge7" class="edge"><title>Node5&#45;&gt;Node2</title>
<path fill="none" stroke="midnightblue" d="M304.197,-23.2798C286.017,-30.1711 261.249,-37.9405 241.011,-43.1948"/>
<polygon fill="midnightblue" stroke="midnightblue" points="305.548,-26.5092 313.548,-19.5632 302.962,-20.0041 305.548,-26.5092"/>
</g>
</g>
</svg>
