<?xml version="1.0" encoding="UTF-8" standalone="no"?>
<!DOCTYPE svg PUBLIC "-//W3C//DTD SVG 1.1//EN"
 "http://www.w3.org/Graphics/SVG/1.1/DTD/svg11.dtd">
<!-- Generated by graphviz version 2.38.0 (20140413.2041)
 -->
<!-- Title: NVIC_GetPriorityGrouping Pages: 1 -->
<svg width="299pt" height="180pt"
 viewBox="0.00 0.00 299.00 180.00" xmlns="http://www.w3.org/2000/svg" xmlns:xlink="http://www.w3.org/1999/xlink">
<g id="graph0" class="graph" transform="scale(1 1) rotate(0) translate(4 176)">
<title>NVIC_GetPriorityGrouping</title>
<polygon fill="white" stroke="none" points="-4,4 -4,-176 295,-176 295,4 -4,4"/>
<!-- Node1 -->
<g id="node1" class="node"><title>Node1</title>
<polygon fill="#bfbfbf" stroke="black" points="0,-76.5 0,-95.5 132,-95.5 132,-76.5 0,-76.5"/>
<text text-anchor="middle" x="66" y="-83.5" font-family="Helvetica,sans-Serif" font-size="10.00">NVIC_GetPriorityGrouping</text>
</g>
<!-- Node2 -->
<g id="node2" class="node"><title>Node2</title>
<g id="a_node2"><a xlink:href="a00615.html#ga3349f2e3580d7ce22d6530b7294e5921" target="_top" xlink:title="Enable External Interrupt. ">
<polygon fill="white" stroke="black" points="182,-152.5 182,-171.5 277,-171.5 277,-152.5 182,-152.5"/>
<text text-anchor="middle" x="229.5" y="-159.5" font-family="Helvetica,sans-Serif" font-size="10.00">NVIC_EnableIRQ</text>
</a>
</g>
</g>
<!-- Node1&#45;&gt;Node2 -->
<g id="edge1" class="edge"><title>Node1&#45;&gt;Node2</title>
<path fill="none" stroke="midnightblue" d="M81.5555,-95.5092C100.749,-107.741 135.856,-129.066 168,-143 173.114,-145.217 178.571,-147.3 184.035,-149.215"/>
<polygon fill="midnightblue" stroke="midnightblue" points="183.214,-152.631 193.808,-152.475 185.429,-145.991 183.214,-152.631"/>
</g>
<!-- Node3 -->
<g id="node3" class="node"><title>Node3</title>
<g id="a_node3"><a xlink:href="a00615.html#ga260fba04ac8346855c57f091d4ee1e71" target="_top" xlink:title="Disable External Interrupt. ">
<polygon fill="white" stroke="black" points="180.5,-114.5 180.5,-133.5 278.5,-133.5 278.5,-114.5 180.5,-114.5"/>
<text text-anchor="middle" x="229.5" y="-121.5" font-family="Helvetica,sans-Serif" font-size="10.00">NVIC_DisableIRQ</text>
</a>
</g>
</g>
<!-- Node1&#45;&gt;Node3 -->
<g id="edge2" class="edge"><title>Node1&#45;&gt;Node3</title>
<path fill="none" stroke="midnightblue" d="M107.753,-95.589C129.161,-100.626 155.586,-106.844 178.253,-112.177"/>
<polygon fill="midnightblue" stroke="midnightblue" points="177.504,-115.596 188.04,-114.48 179.107,-108.783 177.504,-115.596"/>
</g>
<!-- Node4 -->
<g id="node4" class="node"><title>Node4</title>
<g id="a_node4"><a xlink:href="a00615.html#gafec8042db64c0f8ed432b6c8386a05d8" target="_top" xlink:title="Get Pending Interrupt. ">
<polygon fill="white" stroke="black" points="171.5,-76.5 171.5,-95.5 287.5,-95.5 287.5,-76.5 171.5,-76.5"/>
<text text-anchor="middle" x="229.5" y="-83.5" font-family="Helvetica,sans-Serif" font-size="10.00">NVIC_GetPendingIRQ</text>
</a>
</g>
</g>
<!-- Node1&#45;&gt;Node4 -->
<g id="edge3" class="edge"><title>Node1&#45;&gt;Node4</title>
<path fill="none" stroke="midnightblue" d="M132.223,-86C141.738,-86 151.551,-86 161.108,-86"/>
<polygon fill="midnightblue" stroke="midnightblue" points="161.352,-89.5001 171.352,-86 161.352,-82.5001 161.352,-89.5001"/>
</g>
<!-- Node5 -->
<g id="node5" class="node"><title>Node5</title>
<g id="a_node5"><a xlink:href="a00615.html#ga3ecf446519da33e1690deffbf5be505f" target="_top" xlink:title="Set Pending Interrupt. ">
<polygon fill="white" stroke="black" points="172,-38.5 172,-57.5 287,-57.5 287,-38.5 172,-38.5"/>
<text text-anchor="middle" x="229.5" y="-45.5" font-family="Helvetica,sans-Serif" font-size="10.00">NVIC_SetPendingIRQ</text>
</a>
</g>
</g>
<!-- Node1&#45;&gt;Node5 -->
<g id="edge4" class="edge"><title>Node1&#45;&gt;Node5</title>
<path fill="none" stroke="midnightblue" d="M107.753,-76.411C129.161,-71.3739 155.586,-65.1562 178.253,-59.8229"/>
<polygon fill="midnightblue" stroke="midnightblue" points="179.107,-63.2175 188.04,-57.5201 177.504,-56.4036 179.107,-63.2175"/>
</g>
<!-- Node6 -->
<g id="node6" class="node"><title>Node6</title>
<g id="a_node6"><a xlink:href="a00615.html#ga332e10ef9605dc6eb10b9e14511930f8" target="_top" xlink:title="Clear Pending Interrupt. ">
<polygon fill="white" stroke="black" points="168,-0.5 168,-19.5 291,-19.5 291,-0.5 168,-0.5"/>
<text text-anchor="middle" x="229.5" y="-7.5" font-family="Helvetica,sans-Serif" font-size="10.00">NVIC_ClearPendingIRQ</text>
</a>
</g>
</g>
<!-- Node1&#45;&gt;Node6 -->
<g id="edge5" class="edge"><title>Node1&#45;&gt;Node6</title>
<path fill="none" stroke="midnightblue" d="M81.5555,-76.4908C100.749,-64.2592 135.856,-42.9342 168,-29 173.114,-26.7832 178.571,-24.7002 184.035,-22.7847"/>
<polygon fill="midnightblue" stroke="midnightblue" points="185.429,-26.0095 193.808,-19.525 183.214,-19.3692 185.429,-26.0095"/>
</g>
</g>
</svg>
