<?xml version="1.0" encoding="UTF-8" standalone="no"?>
<!DOCTYPE svg PUBLIC "-//W3C//DTD SVG 1.1//EN"
 "http://www.w3.org/Graphics/SVG/1.1/DTD/svg11.dtd">
<!-- Generated by graphviz version 2.38.0 (20140413.2041)
 -->
<!-- Title: arm_cmplx_dot_prod_q31 Pages: 1 -->
<svg width="389pt" height="104pt"
 viewBox="0.00 0.00 389.00 104.00" xmlns="http://www.w3.org/2000/svg" xmlns:xlink="http://www.w3.org/1999/xlink">
<g id="graph0" class="graph" transform="scale(1 1) rotate(0) translate(4 100)">
<title>arm_cmplx_dot_prod_q31</title>
<polygon fill="white" stroke="none" points="-4,4 -4,-100 385,-100 385,4 -4,4"/>
<!-- Node1 -->
<g id="node1" class="node"><title>Node1</title>
<polygon fill="#bfbfbf" stroke="black" points="0,-38.5 0,-57.5 128,-57.5 128,-38.5 0,-38.5"/>
<text text-anchor="middle" x="64" y="-45.5" font-family="Helvetica,sans-Serif" font-size="10.00">arm_cmplx_dot_prod_q31</text>
</g>
<!-- Node2 -->
<g id="node2" class="node"><title>Node2</title>
<g id="a_node2"><a xlink:href="a00605.html#ga56a40d1cf842b0b45267df6761975da0" target="_top" xlink:title="Floating&#45;point square root function. ">
<polygon fill="white" stroke="black" points="164,-38.5 164,-57.5 238,-57.5 238,-38.5 164,-38.5"/>
<text text-anchor="middle" x="201" y="-45.5" font-family="Helvetica,sans-Serif" font-size="10.00">arm_sqrt_f32</text>
</a>
</g>
</g>
<!-- Node1&#45;&gt;Node2 -->
<g id="edge1" class="edge"><title>Node1&#45;&gt;Node2</title>
<path fill="none" stroke="midnightblue" d="M138.182,-48C147.045,-48 155.777,-48 163.76,-48"/>
<polygon fill="midnightblue" stroke="midnightblue" points="138.152,-44.5001 128.152,-48 138.152,-51.5001 138.152,-44.5001"/>
</g>
<!-- Node3 -->
<g id="node3" class="node"><title>Node3</title>
<g id="a_node3"><a xlink:href="a00642.html#gae45024c497392cde2ae358a76d435213" target="_top" xlink:title="Floating&#45;point complex magnitude. ">
<polygon fill="white" stroke="black" points="274,-76.5 274,-95.5 381,-95.5 381,-76.5 274,-76.5"/>
<text text-anchor="middle" x="327.5" y="-83.5" font-family="Helvetica,sans-Serif" font-size="10.00">arm_cmplx_mag_f32</text>
</a>
</g>
</g>
<!-- Node2&#45;&gt;Node3 -->
<g id="edge2" class="edge"><title>Node2&#45;&gt;Node3</title>
<path fill="none" stroke="midnightblue" d="M247.861,-55.4601C269.844,-61.5877 294.763,-69.8079 310.548,-76.4368"/>
<polygon fill="midnightblue" stroke="midnightblue" points="248.577,-52.0282 238.011,-52.8052 246.755,-58.787 248.577,-52.0282"/>
</g>
<!-- Node4 -->
<g id="node4" class="node"><title>Node4</title>
<g id="a_node4"><a xlink:href="a00675.html#ga0e3ab1b57da32d45388d1fa90d7fd88c" target="_top" xlink:title="Root Mean Square of the elements of a floating&#45;point vector. ">
<polygon fill="white" stroke="black" points="290.5,-38.5 290.5,-57.5 364.5,-57.5 364.5,-38.5 290.5,-38.5"/>
<text text-anchor="middle" x="327.5" y="-45.5" font-family="Helvetica,sans-Serif" font-size="10.00">arm_rms_f32</text>
</a>
</g>
</g>
<!-- Node2&#45;&gt;Node4 -->
<g id="edge4" class="edge"><title>Node2&#45;&gt;Node4</title>
<path fill="none" stroke="midnightblue" d="M248.306,-41.4508C262.12,-41.0958 277.058,-41.2116 290.139,-41.7982"/>
<polygon fill="midnightblue" stroke="midnightblue" points="247.881,-37.9635 238.011,-41.814 248.128,-44.9591 247.881,-37.9635"/>
</g>
<!-- Node5 -->
<g id="node5" class="node"><title>Node5</title>
<g id="a_node5"><a xlink:href="a00676.html#ga4969b5b5f3d001377bc401a3ee99dfc2" target="_top" xlink:title="Standard deviation of the elements of a floating&#45;point vector. ">
<polygon fill="white" stroke="black" points="292,-0.5 292,-19.5 363,-19.5 363,-0.5 292,-0.5"/>
<text text-anchor="middle" x="327.5" y="-7.5" font-family="Helvetica,sans-Serif" font-size="10.00">arm_std_f32</text>
</a>
</g>
</g>
<!-- Node2&#45;&gt;Node5 -->
<g id="edge6" class="edge"><title>Node2&#45;&gt;Node5</title>
<path fill="none" stroke="midnightblue" d="M227.323,-34.7126C245.945,-27.6549 271.472,-19.6776 291.964,-14.4248"/>
<polygon fill="midnightblue" stroke="midnightblue" points="226.023,-31.4631 218.021,-38.4076 228.607,-37.9686 226.023,-31.4631"/>
</g>
<!-- Node3&#45;&gt;Node2 -->
<g id="edge3" class="edge"><title>Node3&#45;&gt;Node2</title>
<path fill="none" stroke="midnightblue" d="M263.888,-73.6393C246.866,-68.4343 229.88,-62.5673 218.021,-57.5924"/>
<polygon fill="midnightblue" stroke="midnightblue" points="263.292,-77.114 273.876,-76.6157 265.292,-70.4055 263.292,-77.114"/>
</g>
<!-- Node4&#45;&gt;Node2 -->
<g id="edge5" class="edge"><title>Node4&#45;&gt;Node2</title>
<path fill="none" stroke="midnightblue" d="M279.823,-54.5586C265.989,-54.9052 251.059,-54.781 238.011,-54.186"/>
<polygon fill="midnightblue" stroke="midnightblue" points="280.266,-58.0455 290.139,-54.2018 280.024,-51.0497 280.266,-58.0455"/>
</g>
<!-- Node5&#45;&gt;Node2 -->
<g id="edge7" class="edge"><title>Node5&#45;&gt;Node2</title>
<path fill="none" stroke="midnightblue" d="M301.197,-23.2798C283.017,-30.1711 258.249,-37.9405 238.011,-43.1948"/>
<polygon fill="midnightblue" stroke="midnightblue" points="302.548,-26.5092 310.548,-19.5632 299.962,-20.0041 302.548,-26.5092"/>
</g>
</g>
</svg>
