<?xml version="1.0" encoding="UTF-8" standalone="no"?>
<!DOCTYPE svg PUBLIC "-//W3C//DTD SVG 1.1//EN"
 "http://www.w3.org/Graphics/SVG/1.1/DTD/svg11.dtd">
<!-- Generated by graphviz version 2.38.0 (20140413.2041)
 -->
<!-- Title: arm_correlate_opt_q15 Pages: 1 -->
<svg width="240pt" height="66pt"
 viewBox="0.00 0.00 240.00 66.00" xmlns="http://www.w3.org/2000/svg" xmlns:xlink="http://www.w3.org/1999/xlink">
<g id="graph0" class="graph" transform="scale(1 1) rotate(0) translate(4 62)">
<title>arm_correlate_opt_q15</title>
<polygon fill="white" stroke="none" points="-4,4 -4,-62 236,-62 236,4 -4,4"/>
<!-- Node1 -->
<g id="node1" class="node"><title>Node1</title>
<polygon fill="#bfbfbf" stroke="black" points="0,-19.5 0,-38.5 116,-38.5 116,-19.5 0,-19.5"/>
<text text-anchor="middle" x="58" y="-26.5" font-family="Helvetica,sans-Serif" font-size="10.00">arm_correlate_opt_q15</text>
</g>
<!-- Node2 -->
<g id="node2" class="node"><title>Node2</title>
<g id="a_node2"><a xlink:href="a00679.html#ga76b21c32a3783a2b3334d930a646e5d8" target="_top" xlink:title="Fills a constant value into a Q15 vector. ">
<polygon fill="white" stroke="black" points="157.5,-38.5 157.5,-57.5 226.5,-57.5 226.5,-38.5 157.5,-38.5"/>
<text text-anchor="middle" x="192" y="-45.5" font-family="Helvetica,sans-Serif" font-size="10.00">arm_fill_q15</text>
</a>
</g>
</g>
<!-- Node1&#45;&gt;Node2 -->
<g id="edge1" class="edge"><title>Node1&#45;&gt;Node2</title>
<path fill="none" stroke="midnightblue" d="M116.129,-37.2232C126.575,-38.7268 137.324,-40.2738 147.301,-41.71"/>
<polygon fill="midnightblue" stroke="midnightblue" points="146.978,-45.1995 157.375,-43.16 147.975,-38.2709 146.978,-45.1995"/>
</g>
<!-- Node3 -->
<g id="node3" class="node"><title>Node3</title>
<g id="a_node3"><a xlink:href="a00678.html#ga872ca4cfc18c680b8991ccd569a5fda0" target="_top" xlink:title="Copies the elements of a Q15 vector. ">
<polygon fill="white" stroke="black" points="152,-0.5 152,-19.5 232,-19.5 232,-0.5 152,-0.5"/>
<text text-anchor="middle" x="192" y="-7.5" font-family="Helvetica,sans-Serif" font-size="10.00">arm_copy_q15</text>
</a>
</g>
</g>
<!-- Node1&#45;&gt;Node3 -->
<g id="edge2" class="edge"><title>Node1&#45;&gt;Node3</title>
<path fill="none" stroke="midnightblue" d="M116.129,-20.7768C124.65,-19.5504 133.371,-18.2951 141.711,-17.0947"/>
<polygon fill="midnightblue" stroke="midnightblue" points="142.256,-20.5523 151.655,-15.6632 141.259,-13.6237 142.256,-20.5523"/>
</g>
</g>
</svg>
