<?xml version="1.0" encoding="UTF-8" standalone="no"?>
<!DOCTYPE svg PUBLIC "-//W3C//DTD SVG 1.1//EN"
 "http://www.w3.org/Graphics/SVG/1.1/DTD/svg11.dtd">
<!-- Generated by graphviz version 2.38.0 (20140413.2041)
 -->
<!-- Title: arm_conv_partial_opt_q15 Pages: 1 -->
<svg width="255pt" height="66pt"
 viewBox="0.00 0.00 255.00 66.00" xmlns="http://www.w3.org/2000/svg" xmlns:xlink="http://www.w3.org/1999/xlink">
<g id="graph0" class="graph" transform="scale(1 1) rotate(0) translate(4 62)">
<title>arm_conv_partial_opt_q15</title>
<polygon fill="white" stroke="none" points="-4,4 -4,-62 251,-62 251,4 -4,4"/>
<!-- Node1 -->
<g id="node1" class="node"><title>Node1</title>
<polygon fill="#bfbfbf" stroke="black" points="0,-19.5 0,-38.5 131,-38.5 131,-19.5 0,-19.5"/>
<text text-anchor="middle" x="65.5" y="-26.5" font-family="Helvetica,sans-Serif" font-size="10.00">arm_conv_partial_opt_q15</text>
</g>
<!-- Node2 -->
<g id="node2" class="node"><title>Node2</title>
<g id="a_node2"><a xlink:href="a00679.html#ga76b21c32a3783a2b3334d930a646e5d8" target="_top" xlink:title="Fills a constant value into a Q15 vector. ">
<polygon fill="white" stroke="black" points="172.5,-38.5 172.5,-57.5 241.5,-57.5 241.5,-38.5 172.5,-38.5"/>
<text text-anchor="middle" x="207" y="-45.5" font-family="Helvetica,sans-Serif" font-size="10.00">arm_fill_q15</text>
</a>
</g>
</g>
<!-- Node1&#45;&gt;Node2 -->
<g id="edge1" class="edge"><title>Node1&#45;&gt;Node2</title>
<path fill="none" stroke="midnightblue" d="M131.349,-37.8325C141.911,-39.271 152.623,-40.73 162.511,-42.0767"/>
<polygon fill="midnightblue" stroke="midnightblue" points="162.094,-45.5523 172.475,-43.4339 163.039,-38.6163 162.094,-45.5523"/>
</g>
<!-- Node3 -->
<g id="node3" class="node"><title>Node3</title>
<g id="a_node3"><a xlink:href="a00678.html#ga872ca4cfc18c680b8991ccd569a5fda0" target="_top" xlink:title="Copies the elements of a Q15 vector. ">
<polygon fill="white" stroke="black" points="167,-0.5 167,-19.5 247,-19.5 247,-0.5 167,-0.5"/>
<text text-anchor="middle" x="207" y="-7.5" font-family="Helvetica,sans-Serif" font-size="10.00">arm_copy_q15</text>
</a>
</g>
</g>
<!-- Node1&#45;&gt;Node3 -->
<g id="edge2" class="edge"><title>Node1&#45;&gt;Node3</title>
<path fill="none" stroke="midnightblue" d="M131.349,-20.1675C139.854,-19.0091 148.457,-17.8375 156.648,-16.7218"/>
<polygon fill="midnightblue" stroke="midnightblue" points="157.328,-20.1615 166.764,-15.3439 156.384,-13.2256 157.328,-20.1615"/>
</g>
</g>
</svg>
