<?xml version="1.0" encoding="UTF-8" standalone="no"?>
<!DOCTYPE svg PUBLIC "-//W3C//DTD SVG 1.1//EN"
 "http://www.w3.org/Graphics/SVG/1.1/DTD/svg11.dtd">
<!-- Generated by graphviz version 2.38.0 (20140413.2041)
 -->
<!-- Title: arm_cmplx_mult_cmplx_q31 Pages: 1 -->
<svg width="406pt" height="104pt"
 viewBox="0.00 0.00 406.00 104.00" xmlns="http://www.w3.org/2000/svg" xmlns:xlink="http://www.w3.org/1999/xlink">
<g id="graph0" class="graph" transform="scale(1 1) rotate(0) translate(4 100)">
<title>arm_cmplx_mult_cmplx_q31</title>
<polygon fill="white" stroke="none" points="-4,4 -4,-100 402,-100 402,4 -4,4"/>
<!-- Node1 -->
<g id="node1" class="node"><title>Node1</title>
<polygon fill="#bfbfbf" stroke="black" points="0,-57.5 0,-76.5 141,-76.5 141,-57.5 0,-57.5"/>
<text text-anchor="middle" x="70.5" y="-64.5" font-family="Helvetica,sans-Serif" font-size="10.00">arm_cmplx_mult_cmplx_q31</text>
</g>
<!-- Node2 -->
<g id="node2" class="node"><title>Node2</title>
<g id="a_node2"><a xlink:href="a00686.html#gad04d0baab6ed081d8e8afe02538eb80b" target="_top" xlink:title="Processing function for the Q31 DCT4/IDCT4. ">
<polygon fill="white" stroke="black" points="177,-76.5 177,-95.5 255,-95.5 255,-76.5 177,-76.5"/>
<text text-anchor="middle" x="216" y="-83.5" font-family="Helvetica,sans-Serif" font-size="10.00">arm_dct4_q31</text>
</a>
</g>
</g>
<!-- Node1&#45;&gt;Node2 -->
<g id="edge1" class="edge"><title>Node1&#45;&gt;Node2</title>
<path fill="none" stroke="midnightblue" d="M151.213,-77.5543C160.091,-78.7298 168.805,-79.8835 176.801,-80.9423"/>
<polygon fill="midnightblue" stroke="midnightblue" points="151.521,-74.0647 141.148,-76.2217 150.602,-81.0041 151.521,-74.0647"/>
</g>
<!-- Node3 -->
<g id="node3" class="node"><title>Node3</title>
<g id="a_node3"><a xlink:href="a00605.html#ga56a40d1cf842b0b45267df6761975da0" target="_top" xlink:title="Floating&#45;point square root function. ">
<polygon fill="white" stroke="black" points="179,-38.5 179,-57.5 253,-57.5 253,-38.5 179,-38.5"/>
<text text-anchor="middle" x="216" y="-45.5" font-family="Helvetica,sans-Serif" font-size="10.00">arm_sqrt_f32</text>
</a>
</g>
</g>
<!-- Node1&#45;&gt;Node3 -->
<g id="edge2" class="edge"><title>Node1&#45;&gt;Node3</title>
<path fill="none" stroke="midnightblue" d="M151.189,-56.4488C160.786,-55.1781 170.191,-53.9329 178.706,-52.8054"/>
<polygon fill="midnightblue" stroke="midnightblue" points="150.602,-52.9959 141.148,-57.7783 151.521,-59.9353 150.602,-52.9959"/>
</g>
<!-- Node4 -->
<g id="node4" class="node"><title>Node4</title>
<g id="a_node4"><a xlink:href="a00642.html#gae45024c497392cde2ae358a76d435213" target="_top" xlink:title="Floating&#45;point complex magnitude. ">
<polygon fill="white" stroke="black" points="291,-76.5 291,-95.5 398,-95.5 398,-76.5 291,-76.5"/>
<text text-anchor="middle" x="344.5" y="-83.5" font-family="Helvetica,sans-Serif" font-size="10.00">arm_cmplx_mag_f32</text>
</a>
</g>
</g>
<!-- Node3&#45;&gt;Node4 -->
<g id="edge3" class="edge"><title>Node3&#45;&gt;Node4</title>
<path fill="none" stroke="midnightblue" d="M262.968,-55.2877C285.415,-61.4215 311.008,-69.7149 327.202,-76.3997"/>
<polygon fill="midnightblue" stroke="midnightblue" points="263.812,-51.8907 253.25,-52.7186 262.023,-58.6582 263.812,-51.8907"/>
</g>
<!-- Node5 -->
<g id="node5" class="node"><title>Node5</title>
<g id="a_node5"><a xlink:href="a00675.html#ga0e3ab1b57da32d45388d1fa90d7fd88c" target="_top" xlink:title="Root Mean Square of the elements of a floating&#45;point vector. ">
<polygon fill="white" stroke="black" points="307.5,-38.5 307.5,-57.5 381.5,-57.5 381.5,-38.5 307.5,-38.5"/>
<text text-anchor="middle" x="344.5" y="-45.5" font-family="Helvetica,sans-Serif" font-size="10.00">arm_rms_f32</text>
</a>
</g>
</g>
<!-- Node3&#45;&gt;Node5 -->
<g id="edge5" class="edge"><title>Node3&#45;&gt;Node5</title>
<path fill="none" stroke="midnightblue" d="M263.491,-41.4652C277.925,-41.0864 293.615,-41.2077 307.245,-41.8291"/>
<polygon fill="midnightblue" stroke="midnightblue" points="263.119,-37.9761 253.25,-41.8294 263.368,-44.9717 263.119,-37.9761"/>
</g>
<!-- Node6 -->
<g id="node6" class="node"><title>Node6</title>
<g id="a_node6"><a xlink:href="a00676.html#ga4969b5b5f3d001377bc401a3ee99dfc2" target="_top" xlink:title="Standard deviation of the elements of a floating&#45;point vector. ">
<polygon fill="white" stroke="black" points="309,-0.5 309,-19.5 380,-19.5 380,-0.5 309,-0.5"/>
<text text-anchor="middle" x="344.5" y="-7.5" font-family="Helvetica,sans-Serif" font-size="10.00">arm_std_f32</text>
</a>
</g>
</g>
<!-- Node3&#45;&gt;Node6 -->
<g id="edge7" class="edge"><title>Node3&#45;&gt;Node6</title>
<path fill="none" stroke="midnightblue" d="M242.802,-34.6857C261.875,-27.5758 288.047,-19.5379 308.929,-14.294"/>
<polygon fill="midnightblue" stroke="midnightblue" points="241.319,-31.5077 233.279,-38.4076 243.867,-38.0275 241.319,-31.5077"/>
</g>
<!-- Node4&#45;&gt;Node3 -->
<g id="edge4" class="edge"><title>Node4&#45;&gt;Node3</title>
<path fill="none" stroke="midnightblue" d="M281.094,-74.003C263.396,-68.7089 245.609,-62.6835 233.279,-57.5924"/>
<polygon fill="midnightblue" stroke="midnightblue" points="280.302,-77.4178 290.882,-76.8584 282.263,-70.6979 280.302,-77.4178"/>
</g>
<!-- Node5&#45;&gt;Node3 -->
<g id="edge6" class="edge"><title>Node5&#45;&gt;Node3</title>
<path fill="none" stroke="midnightblue" d="M297.003,-54.535C282.569,-54.9136 266.88,-54.7922 253.25,-54.1706"/>
<polygon fill="midnightblue" stroke="midnightblue" points="297.376,-58.0241 307.245,-54.1709 297.127,-51.0285 297.376,-58.0241"/>
</g>
<!-- Node6&#45;&gt;Node3 -->
<g id="edge8" class="edge"><title>Node6&#45;&gt;Node3</title>
<path fill="none" stroke="midnightblue" d="M317.653,-23.331C299.092,-30.2475 273.825,-38.039 253.25,-43.2814"/>
<polygon fill="midnightblue" stroke="midnightblue" points="319.161,-26.4993 327.202,-19.6003 316.614,-19.9793 319.161,-26.4993"/>
</g>
</g>
</svg>
