<?xml version="1.0" encoding="UTF-8" standalone="no"?>
<!DOCTYPE svg PUBLIC "-//W3C//DTD SVG 1.1//EN"
 "http://www.w3.org/Graphics/SVG/1.1/DTD/svg11.dtd">
<!-- Generated by graphviz version 2.38.0 (20140413.2041)
 -->
<!-- Title: MD_Application Pages: 1 -->
<svg width="373pt" height="408pt"
 viewBox="0.00 0.00 373.00 408.00" xmlns="http://www.w3.org/2000/svg" xmlns:xlink="http://www.w3.org/1999/xlink">
<g id="graph0" class="graph" transform="scale(1 1) rotate(0) translate(4 404)">
<title>MD_Application</title>
<polygon fill="white" stroke="none" points="-4,4 -4,-404 369,-404 369,4 -4,4"/>
<!-- Node10 -->
<g id="node1" class="node"><title>Node10</title>
<g id="a_node1"><a xlink:href="a00640.html" target="_top" xlink:title="Interrupt Controller">
<polygon fill="white" stroke="black" points="263,-380.5 263,-399.5 361,-399.5 361,-380.5 263,-380.5"/>
<text text-anchor="middle" x="312" y="-387.5" font-family="Helvetica,sans-Serif" font-size="10.00">Interrupt Controller</text>
</a>
</g>
</g>
<!-- Node9 -->
<g id="node2" class="node"><title>Node9</title>
<g id="a_node2"><a xlink:href="a00636.html" target="_top" xlink:title="Main">
<polygon fill="white" stroke="black" points="293,-342.5 293,-361.5 331,-361.5 331,-342.5 293,-342.5"/>
<text text-anchor="middle" x="312" y="-349.5" font-family="Helvetica,sans-Serif" font-size="10.00">Main</text>
</a>
</g>
</g>
<!-- Node6 -->
<g id="node3" class="node"><title>Node6</title>
<g id="a_node3"><a xlink:href="a00624.html" target="_top" xlink:title="Proportional&#45;Integral&#45;Derivative compensator initialization and calculation implementations. ">
<polygon fill="white" stroke="black" points="264.5,-304.5 264.5,-323.5 359.5,-323.5 359.5,-304.5 264.5,-304.5"/>
<text text-anchor="middle" x="312" y="-311.5" font-family="Helvetica,sans-Serif" font-size="10.00">PID Compensator</text>
</a>
</g>
</g>
<!-- Node7 -->
<g id="node4" class="node"><title>Node7</title>
<g id="a_node4"><a xlink:href="a00626.html" target="_top" xlink:title="Helper">
<polygon fill="white" stroke="black" points="289.5,-266.5 289.5,-285.5 334.5,-285.5 334.5,-266.5 289.5,-266.5"/>
<text text-anchor="middle" x="312" y="-273.5" font-family="Helvetica,sans-Serif" font-size="10.00">Helper</text>
</a>
</g>
</g>
<!-- Node0 -->
<g id="node5" class="node"><title>Node0</title>
<polygon fill="#bfbfbf" stroke="black" points="137,-190.5 137,-209.5 223,-209.5 223,-190.5 137,-190.5"/>
<text text-anchor="middle" x="180" y="-197.5" font-family="Helvetica,sans-Serif" font-size="10.00">MD_Application</text>
</g>
<!-- Node0&#45;&gt;Node10 -->
<g id="edge10" class="edge"><title>Node0&#45;&gt;Node10</title>
<path fill="none" stroke="black" d="M184.758,-219.622C192.483,-254.789 213.399,-328.808 259,-371 263.162,-374.851 268.168,-377.936 273.408,-380.404"/>
<polygon fill="black" stroke="black" points="188.15,-218.744 182.698,-209.659 181.295,-220.161 188.15,-218.744"/>
</g>
<!-- Node0&#45;&gt;Node9 -->
<g id="edge9" class="edge"><title>Node0&#45;&gt;Node9</title>
<path fill="none" stroke="black" d="M187.446,-219.196C198.008,-247.866 221.639,-301.827 259,-333 268.594,-341.005 281.854,-345.779 292.582,-348.54"/>
<polygon fill="black" stroke="black" points="190.668,-217.809 184.037,-209.547 184.068,-220.141 190.668,-217.809"/>
</g>
<!-- Node0&#45;&gt;Node6 -->
<g id="edge6" class="edge"><title>Node0&#45;&gt;Node6</title>
<path fill="none" stroke="black" d="M191.686,-218.192C204.982,-239.377 229.564,-274.126 259,-295 264.331,-298.781 270.499,-301.893 276.683,-304.426"/>
<polygon fill="black" stroke="black" points="194.587,-216.228 186.394,-209.511 188.61,-219.871 194.587,-216.228"/>
</g>
<!-- Node0&#45;&gt;Node7 -->
<g id="edge7" class="edge"><title>Node0&#45;&gt;Node7</title>
<path fill="none" stroke="black" d="M200.036,-216.276C215.237,-228.67 237.483,-245.504 259,-257 268.579,-262.118 279.834,-266.42 289.418,-269.629"/>
<polygon fill="black" stroke="black" points="201.887,-213.264 191.959,-209.565 197.414,-218.648 201.887,-213.264"/>
</g>
<!-- Node8 -->
<g id="node7" class="node"><title>Node8</title>
<g id="a_node7"><a xlink:href="a00631.html" target="_top" xlink:title="Provides project specific callback handlers to service interrupt requests. ">
<polygon fill="white" stroke="black" points="276.5,-228.5 276.5,-247.5 347.5,-247.5 347.5,-228.5 276.5,-228.5"/>
<text text-anchor="middle" x="312" y="-235.5" font-family="Helvetica,sans-Serif" font-size="10.00">IRQ Handler</text>
</a>
</g>
</g>
<!-- Node0&#45;&gt;Node8 -->
<g id="edge8" class="edge"><title>Node0&#45;&gt;Node8</title>
<path fill="none" stroke="black" d="M223.884,-212.535C241.569,-217.705 261.734,-223.599 278.206,-228.414"/>
<polygon fill="black" stroke="black" points="224.385,-209.035 213.804,-209.589 222.421,-215.754 224.385,-209.035"/>
</g>
<!-- Node4 -->
<g id="node8" class="node"><title>Node4</title>
<g id="a_node8"><a xlink:href="a00615.html" target="_top" xlink:title="Analog">
<polygon fill="white" stroke="black" points="288.5,-190.5 288.5,-209.5 335.5,-209.5 335.5,-190.5 288.5,-190.5"/>
<text text-anchor="middle" x="312" y="-197.5" font-family="Helvetica,sans-Serif" font-size="10.00">Analog</text>
</a>
</g>
</g>
<!-- Node0&#45;&gt;Node4 -->
<g id="edge4" class="edge"><title>Node0&#45;&gt;Node4</title>
<path fill="none" stroke="black" d="M233.33,-200C252.453,-200 273.098,-200 288.293,-200"/>
<polygon fill="black" stroke="black" points="233.207,-196.5 223.207,-200 233.207,-203.5 233.207,-196.5"/>
</g>
<!-- Node3 -->
<g id="node9" class="node"><title>Node3</title>
<g id="a_node9"><a xlink:href="a00612.html" target="_top" xlink:title="Provides actuator related update and configuration methods. ">
<polygon fill="white" stroke="black" points="282.5,-152.5 282.5,-171.5 341.5,-171.5 341.5,-152.5 282.5,-152.5"/>
<text text-anchor="middle" x="312" y="-159.5" font-family="Helvetica,sans-Serif" font-size="10.00">Actuators</text>
</a>
</g>
</g>
<!-- Node0&#45;&gt;Node3 -->
<g id="edge3" class="edge"><title>Node0&#45;&gt;Node3</title>
<path fill="none" stroke="black" d="M223.54,-187.565C242.758,-181.948 264.962,-175.457 282.189,-170.422"/>
<polygon fill="black" stroke="black" points="222.421,-184.246 213.804,-190.411 224.385,-190.965 222.421,-184.246"/>
</g>
<!-- Node11 -->
<g id="node10" class="node"><title>Node11</title>
<g id="a_node10"><a xlink:href="a00645.html" target="_top" xlink:title="DMA Configurations">
<polygon fill="white" stroke="black" points="259.5,-114.5 259.5,-133.5 364.5,-133.5 364.5,-114.5 259.5,-114.5"/>
<text text-anchor="middle" x="312" y="-121.5" font-family="Helvetica,sans-Serif" font-size="10.00">DMA Configurations</text>
</a>
</g>
</g>
<!-- Node0&#45;&gt;Node11 -->
<g id="edge11" class="edge"><title>Node0&#45;&gt;Node11</title>
<path fill="none" stroke="black" d="M200.036,-183.724C215.237,-171.33 237.483,-154.496 259,-143 265.697,-139.422 273.213,-136.243 280.404,-133.557"/>
<polygon fill="black" stroke="black" points="197.414,-181.352 191.959,-190.435 201.887,-186.736 197.414,-181.352"/>
</g>
<!-- Node2 -->
<g id="node11" class="node"><title>Node2</title>
<g id="a_node11"><a xlink:href="a00607.html" target="_top" xlink:title="General Purpose I/O">
<polygon fill="white" stroke="black" points="259,-76.5 259,-95.5 365,-95.5 365,-76.5 259,-76.5"/>
<text text-anchor="middle" x="312" y="-83.5" font-family="Helvetica,sans-Serif" font-size="10.00">General Purpose I/O</text>
</a>
</g>
</g>
<!-- Node0&#45;&gt;Node2 -->
<g id="edge2" class="edge"><title>Node0&#45;&gt;Node2</title>
<path fill="none" stroke="black" d="M191.686,-181.808C204.982,-160.623 229.564,-125.874 259,-105 264.331,-101.219 270.499,-98.1065 276.683,-95.5736"/>
<polygon fill="black" stroke="black" points="188.61,-180.129 186.394,-190.489 194.587,-183.772 188.61,-180.129"/>
</g>
<!-- Node12 -->
<g id="node12" class="node"><title>Node12</title>
<g id="a_node12"><a xlink:href="a00650.html" target="_top" xlink:title="Signal generator">
<polygon fill="white" stroke="black" points="268.5,-38.5 268.5,-57.5 355.5,-57.5 355.5,-38.5 268.5,-38.5"/>
<text text-anchor="middle" x="312" y="-45.5" font-family="Helvetica,sans-Serif" font-size="10.00">Signal generator</text>
</a>
</g>
</g>
<!-- Node0&#45;&gt;Node12 -->
<g id="edge12" class="edge"><title>Node0&#45;&gt;Node12</title>
<path fill="none" stroke="black" d="M187.446,-180.804C198.008,-152.134 221.639,-98.1733 259,-67 263.576,-63.1822 268.985,-60.0993 274.556,-57.6191"/>
<polygon fill="black" stroke="black" points="184.068,-179.859 184.037,-190.453 190.668,-182.191 184.068,-179.859"/>
</g>
<!-- Node5 -->
<g id="node13" class="node"><title>Node5</title>
<g id="a_node13"><a xlink:href="a00620.html" target="_top" xlink:title="Global Declarations">
<polygon fill="white" stroke="black" points="261,-0.5 261,-19.5 363,-19.5 363,-0.5 261,-0.5"/>
<text text-anchor="middle" x="312" y="-7.5" font-family="Helvetica,sans-Serif" font-size="10.00">Global Declarations</text>
</a>
</g>
</g>
<!-- Node0&#45;&gt;Node5 -->
<g id="edge5" class="edge"><title>Node0&#45;&gt;Node5</title>
<path fill="none" stroke="black" d="M184.758,-180.378C192.483,-145.211 213.399,-71.1918 259,-29 263.162,-25.1488 268.168,-22.0635 273.408,-19.5957"/>
<polygon fill="black" stroke="black" points="181.295,-179.839 182.698,-190.341 188.15,-181.256 181.295,-179.839"/>
</g>
<!-- Node1 -->
<g id="node6" class="node"><title>Node1</title>
<g id="a_node6"><a xlink:href="a00656.html" target="_top" xlink:title="Stm32f4xx_system">
<polygon fill="white" stroke="black" points="0,-190.5 0,-209.5 101,-209.5 101,-190.5 0,-190.5"/>
<text text-anchor="middle" x="50.5" y="-197.5" font-family="Helvetica,sans-Serif" font-size="10.00">Stm32f4xx_system</text>
</a>
</g>
</g>
<!-- Node1&#45;&gt;Node0 -->
<g id="edge1" class="edge"><title>Node1&#45;&gt;Node0</title>
<path fill="none" stroke="black" d="M111.193,-200C119.81,-200 128.527,-200 136.71,-200"/>
<polygon fill="black" stroke="black" points="111.16,-196.5 101.16,-200 111.16,-203.5 111.16,-196.5"/>
</g>
</g>
</svg>
