<?xml version="1.0" encoding="UTF-8" standalone="no"?>
<!DOCTYPE svg PUBLIC "-//W3C//DTD SVG 1.1//EN"
 "http://www.w3.org/Graphics/SVG/1.1/DTD/svg11.dtd">
<!-- Generated by graphviz version 2.38.0 (20140413.2041)
 -->
<!-- Title: TI1_Config Pages: 1 -->
<svg width="252pt" height="104pt"
 viewBox="0.00 0.00 252.00 104.00" xmlns="http://www.w3.org/2000/svg" xmlns:xlink="http://www.w3.org/1999/xlink">
<g id="graph0" class="graph" transform="scale(1 1) rotate(0) translate(4 100)">
<title>TI1_Config</title>
<polygon fill="white" stroke="none" points="-4,4 -4,-100 248,-100 248,4 -4,4"/>
<!-- Node1 -->
<g id="node1" class="node"><title>Node1</title>
<polygon fill="#bfbfbf" stroke="black" points="0,-38.5 0,-57.5 65,-57.5 65,-38.5 0,-38.5"/>
<text text-anchor="middle" x="32.5" y="-45.5" font-family="Helvetica,sans-Serif" font-size="10.00">TI1_Config</text>
</g>
<!-- Node2 -->
<g id="node2" class="node"><title>Node2</title>
<g id="a_node2"><a xlink:href="a00679.html#ga9e6a153dd6552e4e1188eba227316f7f" target="_top" xlink:title="Initializes the TIM peripheral according to the specified parameters in the TIM_ICInitStruct. ">
<polygon fill="white" stroke="black" points="141,-76.5 141,-95.5 204,-95.5 204,-76.5 141,-76.5"/>
<text text-anchor="middle" x="172.5" y="-83.5" font-family="Helvetica,sans-Serif" font-size="10.00">TIM_ICInit</text>
</a>
</g>
</g>
<!-- Node1&#45;&gt;Node2 -->
<g id="edge1" class="edge"><title>Node1&#45;&gt;Node2</title>
<path fill="none" stroke="midnightblue" d="M74.9335,-59.7413C83.5443,-62.1593 92.5641,-64.676 101,-67 114.077,-70.6024 128.538,-74.5126 140.942,-77.8441"/>
<polygon fill="midnightblue" stroke="midnightblue" points="75.6468,-56.3061 65.0725,-56.9655 73.75,-63.0442 75.6468,-56.3061"/>
</g>
<!-- Node3 -->
<g id="node3" class="node"><title>Node3</title>
<g id="a_node3"><a xlink:href="a00679.html#gaa71f9296556310f85628d6c748a06475" target="_top" xlink:title="Configures the TIM peripheral according to the specified parameters in the TIM_ICInitStruct to measur...">
<polygon fill="white" stroke="black" points="125,-38.5 125,-57.5 220,-57.5 220,-38.5 125,-38.5"/>
<text text-anchor="middle" x="172.5" y="-45.5" font-family="Helvetica,sans-Serif" font-size="10.00">TIM_PWMIConfig</text>
</a>
</g>
</g>
<!-- Node1&#45;&gt;Node3 -->
<g id="edge2" class="edge"><title>Node1&#45;&gt;Node3</title>
<path fill="none" stroke="midnightblue" d="M75.5411,-48C91.1076,-48 108.846,-48 124.802,-48"/>
<polygon fill="midnightblue" stroke="midnightblue" points="75.16,-44.5001 65.16,-48 75.16,-51.5001 75.16,-44.5001"/>
</g>
<!-- Node4 -->
<g id="node4" class="node"><title>Node4</title>
<g id="a_node4"><a xlink:href="a00682.html#gaf460e7d9c9969044e364130e209937fc" target="_top" xlink:title="Configures the TIMx Trigger as External Clock. ">
<polygon fill="white" stroke="black" points="101,-0.5 101,-19.5 244,-19.5 244,-0.5 101,-0.5"/>
<text text-anchor="middle" x="172.5" y="-7.5" font-family="Helvetica,sans-Serif" font-size="10.00">TIM_TIxExternalClockConfig</text>
</a>
</g>
</g>
<!-- Node1&#45;&gt;Node4 -->
<g id="edge3" class="edge"><title>Node1&#45;&gt;Node4</title>
<path fill="none" stroke="midnightblue" d="M74.9335,-36.2587C83.5443,-33.8407 92.5641,-31.324 101,-29 112.243,-25.9026 124.511,-22.5777 135.614,-19.5887"/>
<polygon fill="midnightblue" stroke="midnightblue" points="73.75,-32.9558 65.0725,-39.0345 75.6468,-39.6939 73.75,-32.9558"/>
</g>
</g>
</svg>
