<?xml version="1.0" encoding="UTF-8" standalone="no"?>
<!DOCTYPE svg PUBLIC "-//W3C//DTD SVG 1.1//EN"
 "http://www.w3.org/Graphics/SVG/1.1/DTD/svg11.dtd">
<!-- Generated by graphviz version 2.38.0 (20140413.2041)
 -->
<!-- Title: arm_rms_f32 Pages: 1 -->
<svg width="335pt" height="66pt"
 viewBox="0.00 0.00 335.00 66.00" xmlns="http://www.w3.org/2000/svg" xmlns:xlink="http://www.w3.org/1999/xlink">
<g id="graph0" class="graph" transform="scale(1 1) rotate(0) translate(4 62)">
<title>arm_rms_f32</title>
<polygon fill="white" stroke="none" points="-4,4 -4,-62 331,-62 331,4 -4,4"/>
<!-- Node1 -->
<g id="node1" class="node"><title>Node1</title>
<polygon fill="#bfbfbf" stroke="black" points="0,-19.5 0,-38.5 74,-38.5 74,-19.5 0,-19.5"/>
<text text-anchor="middle" x="37" y="-26.5" font-family="Helvetica,sans-Serif" font-size="10.00">arm_rms_f32</text>
</g>
<!-- Node2 -->
<g id="node2" class="node"><title>Node2</title>
<g id="a_node2"><a xlink:href="a00605.html#ga56a40d1cf842b0b45267df6761975da0" target="_top" xlink:title="Floating&#45;point square root function. ">
<polygon fill="white" stroke="black" points="110,-19.5 110,-38.5 184,-38.5 184,-19.5 110,-19.5"/>
<text text-anchor="middle" x="147" y="-26.5" font-family="Helvetica,sans-Serif" font-size="10.00">arm_sqrt_f32</text>
</a>
</g>
</g>
<!-- Node1&#45;&gt;Node2 -->
<g id="edge1" class="edge"><title>Node1&#45;&gt;Node2</title>
<path fill="none" stroke="midnightblue" d="M84.3872,-22.31C92.8374,-22.176 101.541,-22.2664 109.649,-22.5812"/>
<polygon fill="midnightblue" stroke="midnightblue" points="84.1643,-18.8146 74.2629,-22.5846 84.3542,-25.8121 84.1643,-18.8146"/>
</g>
<!-- Node2&#45;&gt;Node1 -->
<g id="edge4" class="edge"><title>Node2&#45;&gt;Node1</title>
<path fill="none" stroke="midnightblue" d="M99.5209,-35.6915C91.0689,-35.8238 82.3661,-35.7318 74.2629,-35.4154"/>
<polygon fill="midnightblue" stroke="midnightblue" points="99.7468,-39.1868 109.649,-35.4188 99.5584,-32.1893 99.7468,-39.1868"/>
</g>
<!-- Node3 -->
<g id="node3" class="node"><title>Node3</title>
<g id="a_node3"><a xlink:href="a00642.html#gae45024c497392cde2ae358a76d435213" target="_top" xlink:title="Floating&#45;point complex magnitude. ">
<polygon fill="white" stroke="black" points="220,-38.5 220,-57.5 327,-57.5 327,-38.5 220,-38.5"/>
<text text-anchor="middle" x="273.5" y="-45.5" font-family="Helvetica,sans-Serif" font-size="10.00">arm_cmplx_mag_f32</text>
</a>
</g>
</g>
<!-- Node2&#45;&gt;Node3 -->
<g id="edge2" class="edge"><title>Node2&#45;&gt;Node3</title>
<path fill="none" stroke="midnightblue" d="M194.146,-29.4972C211.804,-31.7333 231.318,-35.0229 246.455,-38.4147"/>
<polygon fill="midnightblue" stroke="midnightblue" points="194.35,-25.9973 184.011,-28.3096 193.535,-32.9497 194.35,-25.9973"/>
</g>
<!-- Node4 -->
<g id="node4" class="node"><title>Node4</title>
<g id="a_node4"><a xlink:href="a00676.html#ga4969b5b5f3d001377bc401a3ee99dfc2" target="_top" xlink:title="Standard deviation of the elements of a floating&#45;point vector. ">
<polygon fill="white" stroke="black" points="238,-0.5 238,-19.5 309,-19.5 309,-0.5 238,-0.5"/>
<text text-anchor="middle" x="273.5" y="-7.5" font-family="Helvetica,sans-Serif" font-size="10.00">arm_std_f32</text>
</a>
</g>
</g>
<!-- Node2&#45;&gt;Node4 -->
<g id="edge5" class="edge"><title>Node2&#45;&gt;Node4</title>
<path fill="none" stroke="midnightblue" d="M183.875,-17.3452C200.821,-13.9815 220.965,-10.9251 237.763,-9.17511"/>
<polygon fill="midnightblue" stroke="midnightblue" points="182.859,-13.9825 173.796,-19.4705 184.303,-20.8319 182.859,-13.9825"/>
</g>
<!-- Node3&#45;&gt;Node2 -->
<g id="edge3" class="edge"><title>Node3&#45;&gt;Node2</title>
<path fill="none" stroke="midnightblue" d="M209.639,-45.1565C196.956,-43.2089 184.306,-40.8927 173.796,-38.5295"/>
<polygon fill="midnightblue" stroke="midnightblue" points="209.378,-48.6553 219.778,-46.6333 210.387,-41.7284 209.378,-48.6553"/>
</g>
<!-- Node4&#45;&gt;Node2 -->
<g id="edge6" class="edge"><title>Node4&#45;&gt;Node2</title>
<path fill="none" stroke="midnightblue" d="M236.617,-21.6562C220.1,-24.9348 200.544,-27.9212 184.011,-29.6904"/>
<polygon fill="midnightblue" stroke="midnightblue" points="237.391,-25.0702 246.455,-19.5853 235.949,-18.2203 237.391,-25.0702"/>
</g>
</g>
</svg>
