<?xml version="1.0" encoding="UTF-8" standalone="no"?>
<!DOCTYPE svg PUBLIC "-//W3C//DTD SVG 1.1//EN"
 "http://www.w3.org/Graphics/SVG/1.1/DTD/svg11.dtd">
<!-- Generated by graphviz version 2.38.0 (20140413.2041)
 -->
<!-- Title: arm_var_f32 Pages: 1 -->
<svg width="332pt" height="104pt"
 viewBox="0.00 0.00 332.00 104.00" xmlns="http://www.w3.org/2000/svg" xmlns:xlink="http://www.w3.org/1999/xlink">
<g id="graph0" class="graph" transform="scale(1 1) rotate(0) translate(4 100)">
<title>arm_var_f32</title>
<polygon fill="white" stroke="none" points="-4,4 -4,-100 328,-100 328,4 -4,4"/>
<!-- Node1 -->
<g id="node1" class="node"><title>Node1</title>
<polygon fill="#bfbfbf" stroke="black" points="0,-38.5 0,-57.5 71,-57.5 71,-38.5 0,-38.5"/>
<text text-anchor="middle" x="35.5" y="-45.5" font-family="Helvetica,sans-Serif" font-size="10.00">arm_var_f32</text>
</g>
<!-- Node2 -->
<g id="node2" class="node"><title>Node2</title>
<g id="a_node2"><a xlink:href="a00605.html#ga56a40d1cf842b0b45267df6761975da0" target="_top" xlink:title="Floating&#45;point square root function. ">
<polygon fill="white" stroke="black" points="107,-38.5 107,-57.5 181,-57.5 181,-38.5 107,-38.5"/>
<text text-anchor="middle" x="144" y="-45.5" font-family="Helvetica,sans-Serif" font-size="10.00">arm_sqrt_f32</text>
</a>
</g>
</g>
<!-- Node1&#45;&gt;Node2 -->
<g id="edge1" class="edge"><title>Node1&#45;&gt;Node2</title>
<path fill="none" stroke="midnightblue" d="M81.2478,-48C89.7561,-48 98.5617,-48 106.765,-48"/>
<polygon fill="midnightblue" stroke="midnightblue" points="81.0775,-44.5001 71.0775,-48 81.0775,-51.5001 81.0775,-44.5001"/>
</g>
<!-- Node3 -->
<g id="node3" class="node"><title>Node3</title>
<g id="a_node3"><a xlink:href="a00642.html#gae45024c497392cde2ae358a76d435213" target="_top" xlink:title="Floating&#45;point complex magnitude. ">
<polygon fill="white" stroke="black" points="217,-76.5 217,-95.5 324,-95.5 324,-76.5 217,-76.5"/>
<text text-anchor="middle" x="270.5" y="-83.5" font-family="Helvetica,sans-Serif" font-size="10.00">arm_cmplx_mag_f32</text>
</a>
</g>
</g>
<!-- Node2&#45;&gt;Node3 -->
<g id="edge2" class="edge"><title>Node2&#45;&gt;Node3</title>
<path fill="none" stroke="midnightblue" d="M190.861,-55.4601C212.844,-61.5877 237.763,-69.8079 253.548,-76.4368"/>
<polygon fill="midnightblue" stroke="midnightblue" points="191.577,-52.0282 181.011,-52.8052 189.755,-58.787 191.577,-52.0282"/>
</g>
<!-- Node4 -->
<g id="node4" class="node"><title>Node4</title>
<g id="a_node4"><a xlink:href="a00675.html#ga0e3ab1b57da32d45388d1fa90d7fd88c" target="_top" xlink:title="Root Mean Square of the elements of a floating&#45;point vector. ">
<polygon fill="white" stroke="black" points="233.5,-38.5 233.5,-57.5 307.5,-57.5 307.5,-38.5 233.5,-38.5"/>
<text text-anchor="middle" x="270.5" y="-45.5" font-family="Helvetica,sans-Serif" font-size="10.00">arm_rms_f32</text>
</a>
</g>
</g>
<!-- Node2&#45;&gt;Node4 -->
<g id="edge4" class="edge"><title>Node2&#45;&gt;Node4</title>
<path fill="none" stroke="midnightblue" d="M191.306,-41.4508C205.12,-41.0958 220.058,-41.2116 233.139,-41.7982"/>
<polygon fill="midnightblue" stroke="midnightblue" points="190.881,-37.9635 181.011,-41.814 191.128,-44.9591 190.881,-37.9635"/>
</g>
<!-- Node5 -->
<g id="node5" class="node"><title>Node5</title>
<g id="a_node5"><a xlink:href="a00676.html#ga4969b5b5f3d001377bc401a3ee99dfc2" target="_top" xlink:title="Standard deviation of the elements of a floating&#45;point vector. ">
<polygon fill="white" stroke="black" points="235,-0.5 235,-19.5 306,-19.5 306,-0.5 235,-0.5"/>
<text text-anchor="middle" x="270.5" y="-7.5" font-family="Helvetica,sans-Serif" font-size="10.00">arm_std_f32</text>
</a>
</g>
</g>
<!-- Node2&#45;&gt;Node5 -->
<g id="edge6" class="edge"><title>Node2&#45;&gt;Node5</title>
<path fill="none" stroke="midnightblue" d="M170.323,-34.7126C188.945,-27.6549 214.472,-19.6776 234.964,-14.4248"/>
<polygon fill="midnightblue" stroke="midnightblue" points="169.023,-31.4631 161.021,-38.4076 171.607,-37.9686 169.023,-31.4631"/>
</g>
<!-- Node3&#45;&gt;Node2 -->
<g id="edge3" class="edge"><title>Node3&#45;&gt;Node2</title>
<path fill="none" stroke="midnightblue" d="M206.888,-73.6393C189.866,-68.4343 172.88,-62.5673 161.021,-57.5924"/>
<polygon fill="midnightblue" stroke="midnightblue" points="206.292,-77.114 216.876,-76.6157 208.292,-70.4055 206.292,-77.114"/>
</g>
<!-- Node4&#45;&gt;Node2 -->
<g id="edge5" class="edge"><title>Node4&#45;&gt;Node2</title>
<path fill="none" stroke="midnightblue" d="M222.823,-54.5586C208.989,-54.9052 194.059,-54.781 181.011,-54.186"/>
<polygon fill="midnightblue" stroke="midnightblue" points="223.266,-58.0455 233.139,-54.2018 223.024,-51.0497 223.266,-58.0455"/>
</g>
<!-- Node5&#45;&gt;Node2 -->
<g id="edge7" class="edge"><title>Node5&#45;&gt;Node2</title>
<path fill="none" stroke="midnightblue" d="M244.197,-23.2798C226.017,-30.1711 201.249,-37.9405 181.011,-43.1948"/>
<polygon fill="midnightblue" stroke="midnightblue" points="245.548,-26.5092 253.548,-19.5632 242.962,-20.0041 245.548,-26.5092"/>
</g>
</g>
</svg>
