<?xml version="1.0" encoding="UTF-8" standalone="no"?>
<!DOCTYPE svg PUBLIC "-//W3C//DTD SVG 1.1//EN"
 "http://www.w3.org/Graphics/SVG/1.1/DTD/svg11.dtd">
<!-- Generated by graphviz version 2.38.0 (20140413.2041)
 -->
<!-- Title: arm_dct4_q31 Pages: 1 -->
<svg width="373pt" height="142pt"
 viewBox="0.00 0.00 373.00 142.00" xmlns="http://www.w3.org/2000/svg" xmlns:xlink="http://www.w3.org/1999/xlink">
<g id="graph0" class="graph" transform="scale(1 1) rotate(0) translate(4 138)">
<title>arm_dct4_q31</title>
<polygon fill="white" stroke="none" points="-4,4 -4,-138 369,-138 369,4 -4,4"/>
<!-- Node1 -->
<g id="node1" class="node"><title>Node1</title>
<polygon fill="#bfbfbf" stroke="black" points="0,-57.5 0,-76.5 78,-76.5 78,-57.5 0,-57.5"/>
<text text-anchor="middle" x="39" y="-64.5" font-family="Helvetica,sans-Serif" font-size="10.00">arm_dct4_q31</text>
</g>
<!-- Node2 -->
<g id="node2" class="node"><title>Node2</title>
<g id="a_node2"><a xlink:href="a00634.html#ga3528c0f54a0607acc603f0490d3ca6c6" target="_top" xlink:title="Q31 vector multiplication. ">
<polygon fill="white" stroke="black" points="145.5,-114.5 145.5,-133.5 223.5,-133.5 223.5,-114.5 145.5,-114.5"/>
<text text-anchor="middle" x="184.5" y="-121.5" font-family="Helvetica,sans-Serif" font-size="10.00">arm_mult_q31</text>
</a>
</g>
</g>
<!-- Node1&#45;&gt;Node2 -->
<g id="edge1" class="edge"><title>Node1&#45;&gt;Node2</title>
<path fill="none" stroke="midnightblue" d="M56.2957,-76.6176C70.9943,-84.9864 93.4039,-96.9966 114,-105 120.813,-107.648 128.138,-110.077 135.385,-112.249"/>
<polygon fill="midnightblue" stroke="midnightblue" points="134.587,-115.661 145.164,-115.048 136.513,-108.931 134.587,-115.661"/>
</g>
<!-- Node3 -->
<g id="node3" class="node"><title>Node3</title>
<g id="a_node3"><a xlink:href="a00638.html#ga387dd8b7b87377378280978f16cdb13d" target="_top" xlink:title="Shifts the elements of a Q31 vector a specified number of bits. ">
<polygon fill="white" stroke="black" points="145.5,-76.5 145.5,-95.5 223.5,-95.5 223.5,-76.5 145.5,-76.5"/>
<text text-anchor="middle" x="184.5" y="-83.5" font-family="Helvetica,sans-Serif" font-size="10.00">arm_shift_q31</text>
</a>
</g>
</g>
<!-- Node1&#45;&gt;Node3 -->
<g id="edge2" class="edge"><title>Node1&#45;&gt;Node3</title>
<path fill="none" stroke="midnightblue" d="M78.0786,-72.0418C95.5933,-74.3608 116.57,-77.1382 135.183,-79.6026"/>
<polygon fill="midnightblue" stroke="midnightblue" points="134.871,-83.0917 145.243,-80.9347 135.789,-76.1523 134.871,-83.0917"/>
</g>
<!-- Node4 -->
<g id="node4" class="node"><title>Node4</title>
<g id="a_node4"><a xlink:href="a01303.html#gabaeab5646aeea9844e6d42ca8c73fe3a" target="_top" xlink:title="Processing function for the Q31 RFFT/RIFFT. ">
<polygon fill="white" stroke="black" points="149,-38.5 149,-57.5 220,-57.5 220,-38.5 149,-38.5"/>
<text text-anchor="middle" x="184.5" y="-45.5" font-family="Helvetica,sans-Serif" font-size="10.00">arm_rfft_q31</text>
</a>
</g>
</g>
<!-- Node1&#45;&gt;Node4 -->
<g id="edge3" class="edge"><title>Node1&#45;&gt;Node4</title>
<path fill="none" stroke="midnightblue" d="M78.0786,-61.9582C96.6597,-59.498 119.137,-56.5219 138.555,-53.9509"/>
<polygon fill="midnightblue" stroke="midnightblue" points="139.234,-57.3916 148.688,-52.6092 138.315,-50.4522 139.234,-57.3916"/>
</g>
<!-- Node6 -->
<g id="node6" class="node"><title>Node6</title>
<g id="a_node6"><a xlink:href="a00644.html#ga1829e50993a90742de225a0ce4213838" target="_top" xlink:title="Q31 complex&#45;by&#45;complex multiplication. ">
<polygon fill="white" stroke="black" points="114,-0.5 114,-19.5 255,-19.5 255,-0.5 114,-0.5"/>
<text text-anchor="middle" x="184.5" y="-7.5" font-family="Helvetica,sans-Serif" font-size="10.00">arm_cmplx_mult_cmplx_q31</text>
</a>
</g>
</g>
<!-- Node1&#45;&gt;Node6 -->
<g id="edge5" class="edge"><title>Node1&#45;&gt;Node6</title>
<path fill="none" stroke="midnightblue" d="M56.2957,-57.3824C70.9943,-49.0136 93.4039,-37.0034 114,-29 120.045,-26.6511 126.491,-24.4744 132.929,-22.4964"/>
<polygon fill="midnightblue" stroke="midnightblue" points="134.366,-25.723 142.98,-19.5555 132.4,-19.0047 134.366,-25.723"/>
</g>
<!-- Node5 -->
<g id="node5" class="node"><title>Node5</title>
<g id="a_node5"><a xlink:href="a00684.html#ga5a0008bd997ab6e2e299ef2fb272fb4b" target="_top" xlink:title="Processing function for the fixed&#45;point complex FFT in Q31 format. ">
<polygon fill="white" stroke="black" points="291,-38.5 291,-57.5 365,-57.5 365,-38.5 291,-38.5"/>
<text text-anchor="middle" x="328" y="-45.5" font-family="Helvetica,sans-Serif" font-size="10.00">arm_cfft_q31</text>
</a>
</g>
</g>
<!-- Node4&#45;&gt;Node5 -->
<g id="edge4" class="edge"><title>Node4&#45;&gt;Node5</title>
<path fill="none" stroke="midnightblue" d="M220.115,-48C238.369,-48 261.011,-48 280.749,-48"/>
<polygon fill="midnightblue" stroke="midnightblue" points="280.768,-51.5001 290.768,-48 280.768,-44.5001 280.768,-51.5001"/>
</g>
</g>
</svg>
