<?xml version="1.0" encoding="UTF-8" standalone="no"?>
<!DOCTYPE svg PUBLIC "-//W3C//DTD SVG 1.1//EN"
 "http://www.w3.org/Graphics/SVG/1.1/DTD/svg11.dtd">
<!-- Generated by graphviz version 2.38.0 (20140413.2041)
 -->
<!-- Title: arm_cfft_radix4_init_f32 Pages: 1 -->
<svg width="382pt" height="28pt"
 viewBox="0.00 0.00 382.00 28.00" xmlns="http://www.w3.org/2000/svg" xmlns:xlink="http://www.w3.org/1999/xlink">
<g id="graph0" class="graph" transform="scale(1 1) rotate(0) translate(4 24)">
<title>arm_cfft_radix4_init_f32</title>
<polygon fill="white" stroke="none" points="-4,4 -4,-24 378,-24 378,4 -4,4"/>
<!-- Node1 -->
<g id="node1" class="node"><title>Node1</title>
<polygon fill="#bfbfbf" stroke="black" points="0,-0.5 0,-19.5 121,-19.5 121,-0.5 0,-0.5"/>
<text text-anchor="middle" x="60.5" y="-7.5" font-family="Helvetica,sans-Serif" font-size="10.00">arm_cfft_radix4_init_f32</text>
</g>
<!-- Node2 -->
<g id="node2" class="node"><title>Node2</title>
<g id="a_node2"><a xlink:href="a01303.html#ga10717ee326bf50832ef1c25b85a23068" target="_top" xlink:title="Initialization function for the floating&#45;point RFFT/RIFFT. ">
<polygon fill="white" stroke="black" points="157,-0.5 157,-19.5 244,-19.5 244,-0.5 157,-0.5"/>
<text text-anchor="middle" x="200.5" y="-7.5" font-family="Helvetica,sans-Serif" font-size="10.00">arm_rfft_init_f32</text>
</a>
</g>
</g>
<!-- Node1&#45;&gt;Node2 -->
<g id="edge1" class="edge"><title>Node1&#45;&gt;Node2</title>
<path fill="none" stroke="midnightblue" d="M131.363,-10C140.019,-10 148.656,-10 156.731,-10"/>
<polygon fill="midnightblue" stroke="midnightblue" points="131.226,-6.5001 121.226,-10 131.226,-13.5001 131.226,-6.5001"/>
</g>
<!-- Node3 -->
<g id="node3" class="node"><title>Node3</title>
<g id="a_node3"><a xlink:href="a00686.html#gab094ad3bc6fa1b84e8b12a24e1850a06" target="_top" xlink:title="Initialization function for the floating&#45;point DCT4/IDCT4. ">
<polygon fill="white" stroke="black" points="280,-0.5 280,-19.5 374,-19.5 374,-0.5 280,-0.5"/>
<text text-anchor="middle" x="327" y="-7.5" font-family="Helvetica,sans-Serif" font-size="10.00">arm_dct4_init_f32</text>
</a>
</g>
</g>
<!-- Node2&#45;&gt;Node3 -->
<g id="edge2" class="edge"><title>Node2&#45;&gt;Node3</title>
<path fill="none" stroke="midnightblue" d="M254.427,-10C262.82,-10 271.444,-10 279.671,-10"/>
<polygon fill="midnightblue" stroke="midnightblue" points="254.346,-6.5001 244.346,-10 254.346,-13.5001 254.346,-6.5001"/>
</g>
</g>
</svg>
