<?xml version="1.0" encoding="UTF-8" standalone="no"?>
<!DOCTYPE svg PUBLIC "-//W3C//DTD SVG 1.1//EN"
 "http://www.w3.org/Graphics/SVG/1.1/DTD/svg11.dtd">
<!-- Generated by graphviz version 2.38.0 (20140413.2041)
 -->
<!-- Title: TIM_ICInit Pages: 1 -->
<svg width="218pt" height="294pt"
 viewBox="0.00 0.00 218.00 294.00" xmlns="http://www.w3.org/2000/svg" xmlns:xlink="http://www.w3.org/1999/xlink">
<g id="graph0" class="graph" transform="scale(1 1) rotate(0) translate(4 290)">
<title>TIM_ICInit</title>
<polygon fill="white" stroke="none" points="-4,4 -4,-290 214,-290 214,4 -4,4"/>
<!-- Node1 -->
<g id="node1" class="node"><title>Node1</title>
<polygon fill="#bfbfbf" stroke="black" points="0,-133.5 0,-152.5 63,-152.5 63,-133.5 0,-133.5"/>
<text text-anchor="middle" x="31.5" y="-140.5" font-family="Helvetica,sans-Serif" font-size="10.00">TIM_ICInit</text>
</g>
<!-- Node2 -->
<g id="node2" class="node"><title>Node2</title>
<g id="a_node2"><a xlink:href="a00676.html#gac8dbcb0d903cc0a3491155b5b4fbee65" target="_top" xlink:title="Configure the TI1 as Input. ">
<polygon fill="white" stroke="black" points="122,-266.5 122,-285.5 187,-285.5 187,-266.5 122,-266.5"/>
<text text-anchor="middle" x="154.5" y="-273.5" font-family="Helvetica,sans-Serif" font-size="10.00">TI1_Config</text>
</a>
</g>
</g>
<!-- Node1&#45;&gt;Node2 -->
<g id="edge1" class="edge"><title>Node1&#45;&gt;Node2</title>
<path fill="none" stroke="midnightblue" d="M35.5767,-152.796C42.9374,-174.672 63.6304,-227.863 99,-257 103.006,-260.3 107.622,-263.043 112.437,-265.318"/>
<polygon fill="midnightblue" stroke="midnightblue" points="111.253,-268.615 121.835,-269.142 113.891,-262.131 111.253,-268.615"/>
</g>
<!-- Node3 -->
<g id="node3" class="node"><title>Node3</title>
<g id="a_node3"><a xlink:href="a00679.html#gaf0f684dea88e222de9689d8ed0ca8805" target="_top" xlink:title="Sets the TIMx Input Capture 1 prescaler. ">
<polygon fill="white" stroke="black" points="99,-228.5 99,-247.5 210,-247.5 210,-228.5 99,-228.5"/>
<text text-anchor="middle" x="154.5" y="-235.5" font-family="Helvetica,sans-Serif" font-size="10.00">TIM_SetIC1Prescaler</text>
</a>
</g>
</g>
<!-- Node1&#45;&gt;Node3 -->
<g id="edge2" class="edge"><title>Node1&#45;&gt;Node3</title>
<path fill="none" stroke="midnightblue" d="M38.4663,-152.59C48.8676,-168.56 71.825,-200.659 99,-219 101.912,-220.966 105.049,-222.749 108.294,-224.364"/>
<polygon fill="midnightblue" stroke="midnightblue" points="107.068,-227.648 117.631,-228.477 109.891,-221.242 107.068,-227.648"/>
</g>
<!-- Node4 -->
<g id="node4" class="node"><title>Node4</title>
<g id="a_node4"><a xlink:href="a00676.html#gafed528b30af910d7e55ebd1d22a9a58f" target="_top" xlink:title="Configure the TI2 as Input. ">
<polygon fill="white" stroke="black" points="122,-190.5 122,-209.5 187,-209.5 187,-190.5 122,-190.5"/>
<text text-anchor="middle" x="154.5" y="-197.5" font-family="Helvetica,sans-Serif" font-size="10.00">TI2_Config</text>
</a>
</g>
</g>
<!-- Node1&#45;&gt;Node4 -->
<g id="edge3" class="edge"><title>Node1&#45;&gt;Node4</title>
<path fill="none" stroke="midnightblue" d="M47.4006,-152.572C60.6107,-160.798 80.6056,-172.624 99,-181 103.494,-183.046 108.278,-185.009 113.073,-186.844"/>
<polygon fill="midnightblue" stroke="midnightblue" points="112.248,-190.27 122.842,-190.419 114.653,-183.696 112.248,-190.27"/>
</g>
<!-- Node5 -->
<g id="node5" class="node"><title>Node5</title>
<g id="a_node5"><a xlink:href="a00679.html#ga3cc4869b5fe73271808512c89322a325" target="_top" xlink:title="Sets the TIMx Input Capture 2 prescaler. ">
<polygon fill="white" stroke="black" points="99,-152.5 99,-171.5 210,-171.5 210,-152.5 99,-152.5"/>
<text text-anchor="middle" x="154.5" y="-159.5" font-family="Helvetica,sans-Serif" font-size="10.00">TIM_SetIC2Prescaler</text>
</a>
</g>
</g>
<!-- Node1&#45;&gt;Node5 -->
<g id="edge4" class="edge"><title>Node1&#45;&gt;Node5</title>
<path fill="none" stroke="midnightblue" d="M63.0334,-147.795C70.9686,-149.041 79.824,-150.431 88.8033,-151.841"/>
<polygon fill="midnightblue" stroke="midnightblue" points="88.5294,-155.341 98.9513,-153.435 89.6153,-148.426 88.5294,-155.341"/>
</g>
<!-- Node6 -->
<g id="node6" class="node"><title>Node6</title>
<g id="a_node6"><a xlink:href="a00676.html#gae0776241db23f0f31950476804dad588" target="_top" xlink:title="Configure the TI3 as Input. ">
<polygon fill="white" stroke="black" points="122,-114.5 122,-133.5 187,-133.5 187,-114.5 122,-114.5"/>
<text text-anchor="middle" x="154.5" y="-121.5" font-family="Helvetica,sans-Serif" font-size="10.00">TI3_Config</text>
</a>
</g>
</g>
<!-- Node1&#45;&gt;Node6 -->
<g id="edge5" class="edge"><title>Node1&#45;&gt;Node6</title>
<path fill="none" stroke="midnightblue" d="M63.0334,-138.205C77.7356,-135.897 95.5964,-133.092 111.551,-130.587"/>
<polygon fill="midnightblue" stroke="midnightblue" points="112.373,-134.001 121.709,-128.992 111.287,-127.086 112.373,-134.001"/>
</g>
<!-- Node7 -->
<g id="node7" class="node"><title>Node7</title>
<g id="a_node7"><a xlink:href="a00679.html#ga76f906383b8132ebe00dffadb70cf7f9" target="_top" xlink:title="Sets the TIMx Input Capture 3 prescaler. ">
<polygon fill="white" stroke="black" points="99,-76.5 99,-95.5 210,-95.5 210,-76.5 99,-76.5"/>
<text text-anchor="middle" x="154.5" y="-83.5" font-family="Helvetica,sans-Serif" font-size="10.00">TIM_SetIC3Prescaler</text>
</a>
</g>
</g>
<!-- Node1&#45;&gt;Node7 -->
<g id="edge6" class="edge"><title>Node1&#45;&gt;Node7</title>
<path fill="none" stroke="midnightblue" d="M47.4006,-133.428C60.6107,-125.202 80.6056,-113.376 99,-105 103.494,-102.954 108.278,-100.991 113.073,-99.1557"/>
<polygon fill="midnightblue" stroke="midnightblue" points="114.653,-102.304 122.842,-95.5814 112.248,-95.7305 114.653,-102.304"/>
</g>
<!-- Node8 -->
<g id="node8" class="node"><title>Node8</title>
<g id="a_node8"><a xlink:href="a00676.html#gaee26c0ada47174264fcd624cad3a91aa" target="_top" xlink:title="Configure the TI4 as Input. ">
<polygon fill="white" stroke="black" points="122,-38.5 122,-57.5 187,-57.5 187,-38.5 122,-38.5"/>
<text text-anchor="middle" x="154.5" y="-45.5" font-family="Helvetica,sans-Serif" font-size="10.00">TI4_Config</text>
</a>
</g>
</g>
<!-- Node1&#45;&gt;Node8 -->
<g id="edge7" class="edge"><title>Node1&#45;&gt;Node8</title>
<path fill="none" stroke="midnightblue" d="M38.4663,-133.41C48.8676,-117.44 71.825,-85.3415 99,-67 103.093,-64.2374 107.63,-61.8344 112.288,-59.7548"/>
<polygon fill="midnightblue" stroke="midnightblue" points="113.916,-62.8743 121.916,-55.9289 111.331,-56.369 113.916,-62.8743"/>
</g>
<!-- Node9 -->
<g id="node9" class="node"><title>Node9</title>
<g id="a_node9"><a xlink:href="a00679.html#ga0f2c784271356d6b64b8c0da64dbdbc2" target="_top" xlink:title="Sets the TIMx Input Capture 4 prescaler. ">
<polygon fill="white" stroke="black" points="99,-0.5 99,-19.5 210,-19.5 210,-0.5 99,-0.5"/>
<text text-anchor="middle" x="154.5" y="-7.5" font-family="Helvetica,sans-Serif" font-size="10.00">TIM_SetIC4Prescaler</text>
</a>
</g>
</g>
<!-- Node1&#45;&gt;Node9 -->
<g id="edge8" class="edge"><title>Node1&#45;&gt;Node9</title>
<path fill="none" stroke="midnightblue" d="M35.5767,-133.204C42.9374,-111.328 63.6304,-58.1375 99,-29 101.138,-27.239 103.449,-25.6367 105.872,-24.1795"/>
<polygon fill="midnightblue" stroke="midnightblue" points="107.703,-27.1746 115.02,-19.5128 104.522,-20.939 107.703,-27.1746"/>
</g>
</g>
</svg>
