<?xml version="1.0" encoding="UTF-8" standalone="no"?>
<!DOCTYPE svg PUBLIC "-//W3C//DTD SVG 1.1//EN"
 "http://www.w3.org/Graphics/SVG/1.1/DTD/svg11.dtd">
<!-- Generated by graphviz version 2.38.0 (20140413.2041)
 -->
<!-- Title: SysTick_Config Pages: 1 -->
<svg width="276pt" height="116pt"
 viewBox="0.00 0.00 276.00 116.00" xmlns="http://www.w3.org/2000/svg" xmlns:xlink="http://www.w3.org/1999/xlink">
<g id="graph0" class="graph" transform="scale(1 1) rotate(0) translate(4 112)">
<title>SysTick_Config</title>
<polygon fill="white" stroke="none" points="-4,4 -4,-112 272,-112 272,4 -4,4"/>
<!-- Node1 -->
<g id="node1" class="node"><title>Node1</title>
<polygon fill="#bfbfbf" stroke="black" points="0,-44.5 0,-63.5 86,-63.5 86,-44.5 0,-44.5"/>
<text text-anchor="middle" x="43" y="-51.5" font-family="Helvetica,sans-Serif" font-size="10.00">SysTick_Config</text>
</g>
<!-- Node2 -->
<g id="node2" class="node"><title>Node2</title>
<g id="a_node2"><a xlink:href="a00615.html#ga3387607fd8a1a32cccd77d2ac672dd96" target="_top" xlink:title="Decode Priority. ">
<polygon fill="white" stroke="black" points="139.5,-88.5 139.5,-107.5 250.5,-107.5 250.5,-88.5 139.5,-88.5"/>
<text text-anchor="middle" x="195" y="-95.5" font-family="Helvetica,sans-Serif" font-size="10.00">NVIC_DecodePriority</text>
</a>
</g>
</g>
<!-- Node1&#45;&gt;Node2 -->
<g id="edge1" class="edge"><title>Node1&#45;&gt;Node2</title>
<path fill="none" stroke="midnightblue" d="M82.1715,-66.673C94.8063,-70.7503 108.967,-75.1946 122,-79 133.045,-82.2249 145.112,-85.5039 156.156,-88.4096"/>
<polygon fill="midnightblue" stroke="midnightblue" points="83.0087,-63.2649 72.4165,-63.5009 80.844,-69.9218 83.0087,-63.2649"/>
</g>
<!-- Node3 -->
<g id="node3" class="node"><title>Node3</title>
<g id="a_node3"><a xlink:href="a00619.html#ga630131b2572eaa16b569ed364dfc895e" target="_top" xlink:title="D&#45;Cache Clean and Invalidate by address. ">
<polygon fill="white" stroke="black" points="122,-39 122,-69 268,-69 268,-39 122,-39"/>
<text text-anchor="start" x="130" y="-57" font-family="Helvetica,sans-Serif" font-size="10.00">SCB_CleanInvalidateDCache</text>
<text text-anchor="middle" x="195" y="-46" font-family="Helvetica,sans-Serif" font-size="10.00">_by_Addr</text>
</a>
</g>
</g>
<!-- Node1&#45;&gt;Node3 -->
<g id="edge2" class="edge"><title>Node1&#45;&gt;Node3</title>
<path fill="none" stroke="midnightblue" d="M96.3426,-54C104.559,-54 113.177,-54 121.746,-54"/>
<polygon fill="midnightblue" stroke="midnightblue" points="96.1826,-50.5001 86.1825,-54 96.1825,-57.5001 96.1826,-50.5001"/>
</g>
<!-- Node4 -->
<g id="node4" class="node"><title>Node4</title>
<g id="a_node4"><a xlink:href="a00460.html#a6fedd7fae01484a6b99876a58703b27e" target="_top" xlink:title="MD_DELAY_Init">
<polygon fill="white" stroke="black" points="150.5,-0.5 150.5,-19.5 239.5,-19.5 239.5,-0.5 150.5,-0.5"/>
<text text-anchor="middle" x="195" y="-7.5" font-family="Helvetica,sans-Serif" font-size="10.00">MD_DELAY_Init</text>
</a>
</g>
</g>
<!-- Node1&#45;&gt;Node4 -->
<g id="edge3" class="edge"><title>Node1&#45;&gt;Node4</title>
<path fill="none" stroke="midnightblue" d="M84.1685,-41.4088C96.3039,-37.6674 109.677,-33.6066 122,-30 133.953,-26.5017 147.066,-22.8146 158.789,-19.5723"/>
<polygon fill="midnightblue" stroke="midnightblue" points="82.8334,-38.1581 74.3161,-44.4594 84.9039,-44.8449 82.8334,-38.1581"/>
</g>
</g>
</svg>
