<?xml version="1.0" encoding="UTF-8" standalone="no"?>
<!DOCTYPE svg PUBLIC "-//W3C//DTD SVG 1.1//EN"
 "http://www.w3.org/Graphics/SVG/1.1/DTD/svg11.dtd">
<!-- Generated by graphviz version 2.38.0 (20140413.2041)
 -->
<!-- Title: arm_power_q31 Pages: 1 -->
<svg width="347pt" height="104pt"
 viewBox="0.00 0.00 347.00 104.00" xmlns="http://www.w3.org/2000/svg" xmlns:xlink="http://www.w3.org/1999/xlink">
<g id="graph0" class="graph" transform="scale(1 1) rotate(0) translate(4 100)">
<title>arm_power_q31</title>
<polygon fill="white" stroke="none" points="-4,4 -4,-100 343,-100 343,4 -4,4"/>
<!-- Node1 -->
<g id="node1" class="node"><title>Node1</title>
<polygon fill="#bfbfbf" stroke="black" points="0,-38.5 0,-57.5 86,-57.5 86,-38.5 0,-38.5"/>
<text text-anchor="middle" x="43" y="-45.5" font-family="Helvetica,sans-Serif" font-size="10.00">arm_power_q31</text>
</g>
<!-- Node2 -->
<g id="node2" class="node"><title>Node2</title>
<g id="a_node2"><a xlink:href="a00605.html#ga56a40d1cf842b0b45267df6761975da0" target="_top" xlink:title="Floating&#45;point square root function. ">
<polygon fill="white" stroke="black" points="122,-38.5 122,-57.5 196,-57.5 196,-38.5 122,-38.5"/>
<text text-anchor="middle" x="159" y="-45.5" font-family="Helvetica,sans-Serif" font-size="10.00">arm_sqrt_f32</text>
</a>
</g>
</g>
<!-- Node1&#45;&gt;Node2 -->
<g id="edge1" class="edge"><title>Node1&#45;&gt;Node2</title>
<path fill="none" stroke="midnightblue" d="M96.1369,-48C104.764,-48 113.542,-48 121.67,-48"/>
<polygon fill="midnightblue" stroke="midnightblue" points="96.1255,-44.5001 86.1255,-48 96.1255,-51.5001 96.1255,-44.5001"/>
</g>
<!-- Node3 -->
<g id="node3" class="node"><title>Node3</title>
<g id="a_node3"><a xlink:href="a00642.html#gae45024c497392cde2ae358a76d435213" target="_top" xlink:title="Floating&#45;point complex magnitude. ">
<polygon fill="white" stroke="black" points="232,-76.5 232,-95.5 339,-95.5 339,-76.5 232,-76.5"/>
<text text-anchor="middle" x="285.5" y="-83.5" font-family="Helvetica,sans-Serif" font-size="10.00">arm_cmplx_mag_f32</text>
</a>
</g>
</g>
<!-- Node2&#45;&gt;Node3 -->
<g id="edge2" class="edge"><title>Node2&#45;&gt;Node3</title>
<path fill="none" stroke="midnightblue" d="M205.861,-55.4601C227.844,-61.5877 252.763,-69.8079 268.548,-76.4368"/>
<polygon fill="midnightblue" stroke="midnightblue" points="206.577,-52.0282 196.011,-52.8052 204.755,-58.787 206.577,-52.0282"/>
</g>
<!-- Node4 -->
<g id="node4" class="node"><title>Node4</title>
<g id="a_node4"><a xlink:href="a00675.html#ga0e3ab1b57da32d45388d1fa90d7fd88c" target="_top" xlink:title="Root Mean Square of the elements of a floating&#45;point vector. ">
<polygon fill="white" stroke="black" points="248.5,-38.5 248.5,-57.5 322.5,-57.5 322.5,-38.5 248.5,-38.5"/>
<text text-anchor="middle" x="285.5" y="-45.5" font-family="Helvetica,sans-Serif" font-size="10.00">arm_rms_f32</text>
</a>
</g>
</g>
<!-- Node2&#45;&gt;Node4 -->
<g id="edge4" class="edge"><title>Node2&#45;&gt;Node4</title>
<path fill="none" stroke="midnightblue" d="M206.306,-41.4508C220.12,-41.0958 235.058,-41.2116 248.139,-41.7982"/>
<polygon fill="midnightblue" stroke="midnightblue" points="205.881,-37.9635 196.011,-41.814 206.128,-44.9591 205.881,-37.9635"/>
</g>
<!-- Node5 -->
<g id="node5" class="node"><title>Node5</title>
<g id="a_node5"><a xlink:href="a00676.html#ga4969b5b5f3d001377bc401a3ee99dfc2" target="_top" xlink:title="Standard deviation of the elements of a floating&#45;point vector. ">
<polygon fill="white" stroke="black" points="250,-0.5 250,-19.5 321,-19.5 321,-0.5 250,-0.5"/>
<text text-anchor="middle" x="285.5" y="-7.5" font-family="Helvetica,sans-Serif" font-size="10.00">arm_std_f32</text>
</a>
</g>
</g>
<!-- Node2&#45;&gt;Node5 -->
<g id="edge6" class="edge"><title>Node2&#45;&gt;Node5</title>
<path fill="none" stroke="midnightblue" d="M185.323,-34.7126C203.945,-27.6549 229.472,-19.6776 249.964,-14.4248"/>
<polygon fill="midnightblue" stroke="midnightblue" points="184.023,-31.4631 176.021,-38.4076 186.607,-37.9686 184.023,-31.4631"/>
</g>
<!-- Node3&#45;&gt;Node2 -->
<g id="edge3" class="edge"><title>Node3&#45;&gt;Node2</title>
<path fill="none" stroke="midnightblue" d="M221.888,-73.6393C204.866,-68.4343 187.88,-62.5673 176.021,-57.5924"/>
<polygon fill="midnightblue" stroke="midnightblue" points="221.292,-77.114 231.876,-76.6157 223.292,-70.4055 221.292,-77.114"/>
</g>
<!-- Node4&#45;&gt;Node2 -->
<g id="edge5" class="edge"><title>Node4&#45;&gt;Node2</title>
<path fill="none" stroke="midnightblue" d="M237.823,-54.5586C223.989,-54.9052 209.059,-54.781 196.011,-54.186"/>
<polygon fill="midnightblue" stroke="midnightblue" points="238.266,-58.0455 248.139,-54.2018 238.024,-51.0497 238.266,-58.0455"/>
</g>
<!-- Node5&#45;&gt;Node2 -->
<g id="edge7" class="edge"><title>Node5&#45;&gt;Node2</title>
<path fill="none" stroke="midnightblue" d="M259.197,-23.2798C241.017,-30.1711 216.249,-37.9405 196.011,-43.1948"/>
<polygon fill="midnightblue" stroke="midnightblue" points="260.548,-26.5092 268.548,-19.5632 257.962,-20.0041 260.548,-26.5092"/>
</g>
</g>
</svg>
