<?xml version="1.0" encoding="UTF-8" standalone="no"?>
<!DOCTYPE svg PUBLIC "-//W3C//DTD SVG 1.1//EN"
 "http://www.w3.org/Graphics/SVG/1.1/DTD/svg11.dtd">
<!-- Generated by graphviz version 2.38.0 (20140413.2041)
 -->
<!-- Title: arm_cmplx_mag_f32 Pages: 1 -->
<svg width="335pt" height="66pt"
 viewBox="0.00 0.00 335.00 66.00" xmlns="http://www.w3.org/2000/svg" xmlns:xlink="http://www.w3.org/1999/xlink">
<g id="graph0" class="graph" transform="scale(1 1) rotate(0) translate(4 62)">
<title>arm_cmplx_mag_f32</title>
<polygon fill="white" stroke="none" points="-4,4 -4,-62 331,-62 331,4 -4,4"/>
<!-- Node1 -->
<g id="node1" class="node"><title>Node1</title>
<polygon fill="#bfbfbf" stroke="black" points="0,-19.5 0,-38.5 107,-38.5 107,-19.5 0,-19.5"/>
<text text-anchor="middle" x="53.5" y="-26.5" font-family="Helvetica,sans-Serif" font-size="10.00">arm_cmplx_mag_f32</text>
</g>
<!-- Node2 -->
<g id="node2" class="node"><title>Node2</title>
<g id="a_node2"><a xlink:href="a00605.html#ga56a40d1cf842b0b45267df6761975da0" target="_top" xlink:title="Floating&#45;point square root function. ">
<polygon fill="white" stroke="black" points="143,-19.5 143,-38.5 217,-38.5 217,-19.5 143,-19.5"/>
<text text-anchor="middle" x="180" y="-26.5" font-family="Helvetica,sans-Serif" font-size="10.00">arm_sqrt_f32</text>
</a>
</g>
</g>
<!-- Node1&#45;&gt;Node2 -->
<g id="edge1" class="edge"><title>Node1&#45;&gt;Node2</title>
<path fill="none" stroke="midnightblue" d="M117.437,-22.2504C126.1,-22.2596 134.745,-22.4431 142.702,-22.801"/>
<polygon fill="midnightblue" stroke="midnightblue" points="117.275,-18.7513 107.299,-22.3196 117.323,-25.7511 117.275,-18.7513"/>
</g>
<!-- Node2&#45;&gt;Node1 -->
<g id="edge2" class="edge"><title>Node2&#45;&gt;Node1</title>
<path fill="none" stroke="midnightblue" d="M132.538,-35.5532C124.309,-35.7624 115.687,-35.8048 107.299,-35.6804"/>
<polygon fill="midnightblue" stroke="midnightblue" points="132.83,-39.0453 142.702,-35.199 132.586,-32.0495 132.83,-39.0453"/>
</g>
<!-- Node3 -->
<g id="node3" class="node"><title>Node3</title>
<g id="a_node3"><a xlink:href="a00675.html#ga0e3ab1b57da32d45388d1fa90d7fd88c" target="_top" xlink:title="Root Mean Square of the elements of a floating&#45;point vector. ">
<polygon fill="white" stroke="black" points="253,-38.5 253,-57.5 327,-57.5 327,-38.5 253,-38.5"/>
<text text-anchor="middle" x="290" y="-45.5" font-family="Helvetica,sans-Serif" font-size="10.00">arm_rms_f32</text>
</a>
</g>
</g>
<!-- Node2&#45;&gt;Node3 -->
<g id="edge3" class="edge"><title>Node2&#45;&gt;Node3</title>
<path fill="none" stroke="midnightblue" d="M227.438,-30.4789C240.985,-32.6489 255.18,-35.5093 266.521,-38.4442"/>
<polygon fill="midnightblue" stroke="midnightblue" points="227.669,-26.9748 217.263,-28.9642 226.639,-33.8985 227.669,-26.9748"/>
</g>
<!-- Node4 -->
<g id="node4" class="node"><title>Node4</title>
<g id="a_node4"><a xlink:href="a00676.html#ga4969b5b5f3d001377bc401a3ee99dfc2" target="_top" xlink:title="Standard deviation of the elements of a floating&#45;point vector. ">
<polygon fill="white" stroke="black" points="254.5,-0.5 254.5,-19.5 325.5,-19.5 325.5,-0.5 254.5,-0.5"/>
<text text-anchor="middle" x="290" y="-7.5" font-family="Helvetica,sans-Serif" font-size="10.00">arm_std_f32</text>
</a>
</g>
</g>
<!-- Node2&#45;&gt;Node4 -->
<g id="edge5" class="edge"><title>Node2&#45;&gt;Node4</title>
<path fill="none" stroke="midnightblue" d="M213.256,-17.0873C226.198,-14.1678 241.14,-11.5015 254.315,-9.7514"/>
<polygon fill="midnightblue" stroke="midnightblue" points="212.278,-13.7228 203.378,-19.4705 213.92,-20.5276 212.278,-13.7228"/>
</g>
<!-- Node3&#45;&gt;Node2 -->
<g id="edge4" class="edge"><title>Node3&#45;&gt;Node2</title>
<path fill="none" stroke="midnightblue" d="M242.442,-46.5019C228.89,-44.3277 214.702,-41.4649 203.378,-38.5295"/>
<polygon fill="midnightblue" stroke="midnightblue" points="242.215,-50.0067 252.622,-48.02 243.248,-43.0833 242.215,-50.0067"/>
</g>
<!-- Node4&#45;&gt;Node2 -->
<g id="edge6" class="edge"><title>Node4&#45;&gt;Node2</title>
<path fill="none" stroke="midnightblue" d="M256.609,-21.9432C244.213,-24.735 229.998,-27.2927 217.263,-29.0358"/>
<polygon fill="midnightblue" stroke="midnightblue" points="257.618,-25.3001 266.521,-19.5558 255.979,-18.4948 257.618,-25.3001"/>
</g>
</g>
</svg>
