<?xml version="1.0" encoding="UTF-8" standalone="no"?>
<!DOCTYPE svg PUBLIC "-//W3C//DTD SVG 1.1//EN"
 "http://www.w3.org/Graphics/SVG/1.1/DTD/svg11.dtd">
<!-- Generated by graphviz version 2.38.0 (20140413.2041)
 -->
<!-- Title: arm_q31_to_q15 Pages: 1 -->
<svg width="350pt" height="104pt"
 viewBox="0.00 0.00 350.00 104.00" xmlns="http://www.w3.org/2000/svg" xmlns:xlink="http://www.w3.org/1999/xlink">
<g id="graph0" class="graph" transform="scale(1 1) rotate(0) translate(4 100)">
<title>arm_q31_to_q15</title>
<polygon fill="white" stroke="none" points="-4,4 -4,-100 346,-100 346,4 -4,4"/>
<!-- Node1 -->
<g id="node1" class="node"><title>Node1</title>
<polygon fill="#bfbfbf" stroke="black" points="0,-38.5 0,-57.5 89,-57.5 89,-38.5 0,-38.5"/>
<text text-anchor="middle" x="44.5" y="-45.5" font-family="Helvetica,sans-Serif" font-size="10.00">arm_q31_to_q15</text>
</g>
<!-- Node2 -->
<g id="node2" class="node"><title>Node2</title>
<g id="a_node2"><a xlink:href="a00605.html#ga56a40d1cf842b0b45267df6761975da0" target="_top" xlink:title="Floating&#45;point square root function. ">
<polygon fill="white" stroke="black" points="125,-38.5 125,-57.5 199,-57.5 199,-38.5 125,-38.5"/>
<text text-anchor="middle" x="162" y="-45.5" font-family="Helvetica,sans-Serif" font-size="10.00">arm_sqrt_f32</text>
</a>
</g>
</g>
<!-- Node1&#45;&gt;Node2 -->
<g id="edge1" class="edge"><title>Node1&#45;&gt;Node2</title>
<path fill="none" stroke="midnightblue" d="M99.233,-48C107.896,-48 116.681,-48 124.802,-48"/>
<polygon fill="midnightblue" stroke="midnightblue" points="99.1656,-44.5001 89.1656,-48 99.1656,-51.5001 99.1656,-44.5001"/>
</g>
<!-- Node3 -->
<g id="node3" class="node"><title>Node3</title>
<g id="a_node3"><a xlink:href="a00642.html#gae45024c497392cde2ae358a76d435213" target="_top" xlink:title="Floating&#45;point complex magnitude. ">
<polygon fill="white" stroke="black" points="235,-76.5 235,-95.5 342,-95.5 342,-76.5 235,-76.5"/>
<text text-anchor="middle" x="288.5" y="-83.5" font-family="Helvetica,sans-Serif" font-size="10.00">arm_cmplx_mag_f32</text>
</a>
</g>
</g>
<!-- Node2&#45;&gt;Node3 -->
<g id="edge2" class="edge"><title>Node2&#45;&gt;Node3</title>
<path fill="none" stroke="midnightblue" d="M208.861,-55.4601C230.844,-61.5877 255.763,-69.8079 271.548,-76.4368"/>
<polygon fill="midnightblue" stroke="midnightblue" points="209.577,-52.0282 199.011,-52.8052 207.755,-58.787 209.577,-52.0282"/>
</g>
<!-- Node4 -->
<g id="node4" class="node"><title>Node4</title>
<g id="a_node4"><a xlink:href="a00675.html#ga0e3ab1b57da32d45388d1fa90d7fd88c" target="_top" xlink:title="Root Mean Square of the elements of a floating&#45;point vector. ">
<polygon fill="white" stroke="black" points="251.5,-38.5 251.5,-57.5 325.5,-57.5 325.5,-38.5 251.5,-38.5"/>
<text text-anchor="middle" x="288.5" y="-45.5" font-family="Helvetica,sans-Serif" font-size="10.00">arm_rms_f32</text>
</a>
</g>
</g>
<!-- Node2&#45;&gt;Node4 -->
<g id="edge4" class="edge"><title>Node2&#45;&gt;Node4</title>
<path fill="none" stroke="midnightblue" d="M209.306,-41.4508C223.12,-41.0958 238.058,-41.2116 251.139,-41.7982"/>
<polygon fill="midnightblue" stroke="midnightblue" points="208.881,-37.9635 199.011,-41.814 209.128,-44.9591 208.881,-37.9635"/>
</g>
<!-- Node5 -->
<g id="node5" class="node"><title>Node5</title>
<g id="a_node5"><a xlink:href="a00676.html#ga4969b5b5f3d001377bc401a3ee99dfc2" target="_top" xlink:title="Standard deviation of the elements of a floating&#45;point vector. ">
<polygon fill="white" stroke="black" points="253,-0.5 253,-19.5 324,-19.5 324,-0.5 253,-0.5"/>
<text text-anchor="middle" x="288.5" y="-7.5" font-family="Helvetica,sans-Serif" font-size="10.00">arm_std_f32</text>
</a>
</g>
</g>
<!-- Node2&#45;&gt;Node5 -->
<g id="edge6" class="edge"><title>Node2&#45;&gt;Node5</title>
<path fill="none" stroke="midnightblue" d="M188.323,-34.7126C206.945,-27.6549 232.472,-19.6776 252.964,-14.4248"/>
<polygon fill="midnightblue" stroke="midnightblue" points="187.023,-31.4631 179.021,-38.4076 189.607,-37.9686 187.023,-31.4631"/>
</g>
<!-- Node3&#45;&gt;Node2 -->
<g id="edge3" class="edge"><title>Node3&#45;&gt;Node2</title>
<path fill="none" stroke="midnightblue" d="M224.888,-73.6393C207.866,-68.4343 190.88,-62.5673 179.021,-57.5924"/>
<polygon fill="midnightblue" stroke="midnightblue" points="224.292,-77.114 234.876,-76.6157 226.292,-70.4055 224.292,-77.114"/>
</g>
<!-- Node4&#45;&gt;Node2 -->
<g id="edge5" class="edge"><title>Node4&#45;&gt;Node2</title>
<path fill="none" stroke="midnightblue" d="M240.823,-54.5586C226.989,-54.9052 212.059,-54.781 199.011,-54.186"/>
<polygon fill="midnightblue" stroke="midnightblue" points="241.266,-58.0455 251.139,-54.2018 241.024,-51.0497 241.266,-58.0455"/>
</g>
<!-- Node5&#45;&gt;Node2 -->
<g id="edge7" class="edge"><title>Node5&#45;&gt;Node2</title>
<path fill="none" stroke="midnightblue" d="M262.197,-23.2798C244.017,-30.1711 219.249,-37.9405 199.011,-43.1948"/>
<polygon fill="midnightblue" stroke="midnightblue" points="263.548,-26.5092 271.548,-19.5632 260.962,-20.0041 263.548,-26.5092"/>
</g>
</g>
</svg>
