<?xml version="1.0" encoding="UTF-8" standalone="no"?>
<!DOCTYPE svg PUBLIC "-//W3C//DTD SVG 1.1//EN"
 "http://www.w3.org/Graphics/SVG/1.1/DTD/svg11.dtd">
<!-- Generated by graphviz version 2.38.0 (20140413.2041)
 -->
<!-- Title: NVIC_DecodePriority Pages: 1 -->
<svg width="390pt" height="85pt"
 viewBox="0.00 0.00 390.00 85.00" xmlns="http://www.w3.org/2000/svg" xmlns:xlink="http://www.w3.org/1999/xlink">
<g id="graph0" class="graph" transform="scale(1 1) rotate(0) translate(4 81)">
<title>NVIC_DecodePriority</title>
<polygon fill="white" stroke="none" points="-4,4 -4,-81 386,-81 386,4 -4,4"/>
<!-- Node1 -->
<g id="node1" class="node"><title>Node1</title>
<polygon fill="#bfbfbf" stroke="black" points="0,-19.5 0,-38.5 111,-38.5 111,-19.5 0,-19.5"/>
<text text-anchor="middle" x="55.5" y="-26.5" font-family="Helvetica,sans-Serif" font-size="10.00">NVIC_DecodePriority</text>
</g>
<!-- Node2 -->
<g id="node2" class="node"><title>Node2</title>
<g id="a_node2"><a xlink:href="a00615.html#ga1143dec48d60a3d6f238c4798a87759c" target="_top" xlink:title="System Reset. ">
<polygon fill="white" stroke="black" points="147,-57.5 147,-76.5 254,-76.5 254,-57.5 147,-57.5"/>
<text text-anchor="middle" x="200.5" y="-64.5" font-family="Helvetica,sans-Serif" font-size="10.00">NVIC_SystemReset</text>
</a>
</g>
</g>
<!-- Node1&#45;&gt;Node2 -->
<g id="edge1" class="edge"><title>Node1&#45;&gt;Node2</title>
<path fill="none" stroke="midnightblue" d="M92.5849,-38.589C111.13,-43.5169 133.926,-49.5749 153.699,-54.8291"/>
<polygon fill="midnightblue" stroke="midnightblue" points="152.863,-58.2284 163.427,-57.4141 154.661,-51.4632 152.863,-58.2284"/>
</g>
<!-- Node3 -->
<g id="node3" class="node"><title>Node3</title>
<g id="a_node3"><a xlink:href="a00616.html#gae4e8f0238527c69f522029b93c8e5b78" target="_top" xlink:title="System Tick Configuration. ">
<polygon fill="white" stroke="black" points="157.5,-19.5 157.5,-38.5 243.5,-38.5 243.5,-19.5 157.5,-19.5"/>
<text text-anchor="middle" x="200.5" y="-26.5" font-family="Helvetica,sans-Serif" font-size="10.00">SysTick_Config</text>
</a>
</g>
</g>
<!-- Node1&#45;&gt;Node3 -->
<g id="edge2" class="edge"><title>Node1&#45;&gt;Node3</title>
<path fill="none" stroke="midnightblue" d="M111.379,-29C123.197,-29 135.656,-29 147.366,-29"/>
<polygon fill="midnightblue" stroke="midnightblue" points="147.429,-32.5001 157.429,-29 147.429,-25.5001 147.429,-32.5001"/>
</g>
<!-- Node4 -->
<g id="node4" class="node"><title>Node4</title>
<g id="a_node4"><a xlink:href="a00615.html#ga2305cbd44aaad792e3a4e538bdaf14f9" target="_top" xlink:title="Set Interrupt Priority. ">
<polygon fill="white" stroke="black" points="290,-0.5 290,-19.5 382,-19.5 382,-0.5 290,-0.5"/>
<text text-anchor="middle" x="336" y="-7.5" font-family="Helvetica,sans-Serif" font-size="10.00">NVIC_SetPriority</text>
</a>
</g>
</g>
<!-- Node1&#45;&gt;Node4 -->
<g id="edge4" class="edge"><title>Node1&#45;&gt;Node4</title>
<path fill="none" stroke="midnightblue" d="M93.2137,-19.4909C109.557,-15.726 129.115,-11.8572 147,-10 191.363,-5.3933 241.933,-5.70469 279.443,-6.99628"/>
<polygon fill="midnightblue" stroke="midnightblue" points="279.535,-10.5022 289.66,-7.38329 279.8,-3.5072 279.535,-10.5022"/>
</g>
<!-- Node3&#45;&gt;Node4 -->
<g id="edge3" class="edge"><title>Node3&#45;&gt;Node4</title>
<path fill="none" stroke="midnightblue" d="M243.74,-22.9883C255.199,-21.3575 267.776,-19.5675 279.833,-17.8514"/>
<polygon fill="midnightblue" stroke="midnightblue" points="280.396,-21.3067 289.803,-16.4325 279.41,-14.3766 280.396,-21.3067"/>
</g>
</g>
</svg>
