<?xml version="1.0" encoding="UTF-8" standalone="no"?>
<!DOCTYPE svg PUBLIC "-//W3C//DTD SVG 1.1//EN"
 "http://www.w3.org/Graphics/SVG/1.1/DTD/svg11.dtd">
<!-- Generated by graphviz version 2.38.0 (20140413.2041)
 -->
<!-- Title: arm_cmplx_mult_cmplx_q15 Pages: 1 -->
<svg width="402pt" height="104pt"
 viewBox="0.00 0.00 402.00 104.00" xmlns="http://www.w3.org/2000/svg" xmlns:xlink="http://www.w3.org/1999/xlink">
<g id="graph0" class="graph" transform="scale(1 1) rotate(0) translate(4 100)">
<title>arm_cmplx_mult_cmplx_q15</title>
<polygon fill="white" stroke="none" points="-4,4 -4,-100 398,-100 398,4 -4,4"/>
<!-- Node1 -->
<g id="node1" class="node"><title>Node1</title>
<polygon fill="#bfbfbf" stroke="black" points="0,-38.5 0,-57.5 141,-57.5 141,-38.5 0,-38.5"/>
<text text-anchor="middle" x="70.5" y="-45.5" font-family="Helvetica,sans-Serif" font-size="10.00">arm_cmplx_mult_cmplx_q15</text>
</g>
<!-- Node2 -->
<g id="node2" class="node"><title>Node2</title>
<g id="a_node2"><a xlink:href="a00605.html#ga56a40d1cf842b0b45267df6761975da0" target="_top" xlink:title="Floating&#45;point square root function. ">
<polygon fill="white" stroke="black" points="177,-38.5 177,-57.5 251,-57.5 251,-38.5 177,-38.5"/>
<text text-anchor="middle" x="214" y="-45.5" font-family="Helvetica,sans-Serif" font-size="10.00">arm_sqrt_f32</text>
</a>
</g>
</g>
<!-- Node1&#45;&gt;Node2 -->
<g id="edge1" class="edge"><title>Node1&#45;&gt;Node2</title>
<path fill="none" stroke="midnightblue" d="M151.192,-48C160.167,-48 168.948,-48 176.943,-48"/>
<polygon fill="midnightblue" stroke="midnightblue" points="151.006,-44.5001 141.006,-48 151.006,-51.5001 151.006,-44.5001"/>
</g>
<!-- Node3 -->
<g id="node3" class="node"><title>Node3</title>
<g id="a_node3"><a xlink:href="a00642.html#gae45024c497392cde2ae358a76d435213" target="_top" xlink:title="Floating&#45;point complex magnitude. ">
<polygon fill="white" stroke="black" points="287,-76.5 287,-95.5 394,-95.5 394,-76.5 287,-76.5"/>
<text text-anchor="middle" x="340.5" y="-83.5" font-family="Helvetica,sans-Serif" font-size="10.00">arm_cmplx_mag_f32</text>
</a>
</g>
</g>
<!-- Node2&#45;&gt;Node3 -->
<g id="edge2" class="edge"><title>Node2&#45;&gt;Node3</title>
<path fill="none" stroke="midnightblue" d="M260.861,-55.4601C282.844,-61.5877 307.763,-69.8079 323.548,-76.4368"/>
<polygon fill="midnightblue" stroke="midnightblue" points="261.577,-52.0282 251.011,-52.8052 259.755,-58.787 261.577,-52.0282"/>
</g>
<!-- Node4 -->
<g id="node4" class="node"><title>Node4</title>
<g id="a_node4"><a xlink:href="a00675.html#ga0e3ab1b57da32d45388d1fa90d7fd88c" target="_top" xlink:title="Root Mean Square of the elements of a floating&#45;point vector. ">
<polygon fill="white" stroke="black" points="303.5,-38.5 303.5,-57.5 377.5,-57.5 377.5,-38.5 303.5,-38.5"/>
<text text-anchor="middle" x="340.5" y="-45.5" font-family="Helvetica,sans-Serif" font-size="10.00">arm_rms_f32</text>
</a>
</g>
</g>
<!-- Node2&#45;&gt;Node4 -->
<g id="edge4" class="edge"><title>Node2&#45;&gt;Node4</title>
<path fill="none" stroke="midnightblue" d="M261.306,-41.4508C275.12,-41.0958 290.058,-41.2116 303.139,-41.7982"/>
<polygon fill="midnightblue" stroke="midnightblue" points="260.881,-37.9635 251.011,-41.814 261.128,-44.9591 260.881,-37.9635"/>
</g>
<!-- Node5 -->
<g id="node5" class="node"><title>Node5</title>
<g id="a_node5"><a xlink:href="a00676.html#ga4969b5b5f3d001377bc401a3ee99dfc2" target="_top" xlink:title="Standard deviation of the elements of a floating&#45;point vector. ">
<polygon fill="white" stroke="black" points="305,-0.5 305,-19.5 376,-19.5 376,-0.5 305,-0.5"/>
<text text-anchor="middle" x="340.5" y="-7.5" font-family="Helvetica,sans-Serif" font-size="10.00">arm_std_f32</text>
</a>
</g>
</g>
<!-- Node2&#45;&gt;Node5 -->
<g id="edge6" class="edge"><title>Node2&#45;&gt;Node5</title>
<path fill="none" stroke="midnightblue" d="M240.323,-34.7126C258.945,-27.6549 284.472,-19.6776 304.964,-14.4248"/>
<polygon fill="midnightblue" stroke="midnightblue" points="239.023,-31.4631 231.021,-38.4076 241.607,-37.9686 239.023,-31.4631"/>
</g>
<!-- Node3&#45;&gt;Node2 -->
<g id="edge3" class="edge"><title>Node3&#45;&gt;Node2</title>
<path fill="none" stroke="midnightblue" d="M276.888,-73.6393C259.866,-68.4343 242.88,-62.5673 231.021,-57.5924"/>
<polygon fill="midnightblue" stroke="midnightblue" points="276.292,-77.114 286.876,-76.6157 278.292,-70.4055 276.292,-77.114"/>
</g>
<!-- Node4&#45;&gt;Node2 -->
<g id="edge5" class="edge"><title>Node4&#45;&gt;Node2</title>
<path fill="none" stroke="midnightblue" d="M292.823,-54.5586C278.989,-54.9052 264.059,-54.781 251.011,-54.186"/>
<polygon fill="midnightblue" stroke="midnightblue" points="293.266,-58.0455 303.139,-54.2018 293.024,-51.0497 293.266,-58.0455"/>
</g>
<!-- Node5&#45;&gt;Node2 -->
<g id="edge7" class="edge"><title>Node5&#45;&gt;Node2</title>
<path fill="none" stroke="midnightblue" d="M314.197,-23.2798C296.017,-30.1711 271.249,-37.9405 251.011,-43.1948"/>
<polygon fill="midnightblue" stroke="midnightblue" points="315.548,-26.5092 323.548,-19.5632 312.962,-20.0041 315.548,-26.5092"/>
</g>
</g>
</svg>
