<?xml version="1.0" encoding="UTF-8" standalone="no"?>
<!DOCTYPE svg PUBLIC "-//W3C//DTD SVG 1.1//EN"
 "http://www.w3.org/Graphics/SVG/1.1/DTD/svg11.dtd">
<!-- Generated by graphviz version 2.38.0 (20140413.2041)
 -->
<!-- Title: arm_dct4_q15 Pages: 1 -->
<svg width="200pt" height="66pt"
 viewBox="0.00 0.00 200.00 66.00" xmlns="http://www.w3.org/2000/svg" xmlns:xlink="http://www.w3.org/1999/xlink">
<g id="graph0" class="graph" transform="scale(1 1) rotate(0) translate(4 62)">
<title>arm_dct4_q15</title>
<polygon fill="white" stroke="none" points="-4,4 -4,-62 196,-62 196,4 -4,4"/>
<!-- Node1 -->
<g id="node1" class="node"><title>Node1</title>
<polygon fill="#bfbfbf" stroke="black" points="0,-19.5 0,-38.5 78,-38.5 78,-19.5 0,-19.5"/>
<text text-anchor="middle" x="39" y="-26.5" font-family="Helvetica,sans-Serif" font-size="10.00">arm_dct4_q15</text>
</g>
<!-- Node2 -->
<g id="node2" class="node"><title>Node2</title>
<g id="a_node2"><a xlink:href="a00634.html#gafb0778d27ed98a2a6f2ecb7d48cc8c75" target="_top" xlink:title="Q15 vector multiplication. ">
<polygon fill="white" stroke="black" points="114,-38.5 114,-57.5 192,-57.5 192,-38.5 114,-38.5"/>
<text text-anchor="middle" x="153" y="-45.5" font-family="Helvetica,sans-Serif" font-size="10.00">arm_mult_q15</text>
</a>
</g>
</g>
<!-- Node1&#45;&gt;Node2 -->
<g id="edge1" class="edge"><title>Node1&#45;&gt;Node2</title>
<path fill="none" stroke="midnightblue" d="M78.2308,-35.4856C86.5204,-36.8919 95.3896,-38.3964 104.001,-39.8573"/>
<polygon fill="midnightblue" stroke="midnightblue" points="103.497,-43.3217 113.942,-41.5436 104.668,-36.4203 103.497,-43.3217"/>
</g>
<!-- Node3 -->
<g id="node3" class="node"><title>Node3</title>
<g id="a_node3"><a xlink:href="a00638.html#gaa1757e53279780107acc92cf100adb61" target="_top" xlink:title="Shifts the elements of a Q15 vector a specified number of bits. ">
<polygon fill="white" stroke="black" points="114,-0.5 114,-19.5 192,-19.5 192,-0.5 114,-0.5"/>
<text text-anchor="middle" x="153" y="-7.5" font-family="Helvetica,sans-Serif" font-size="10.00">arm_shift_q15</text>
</a>
</g>
</g>
<!-- Node1&#45;&gt;Node3 -->
<g id="edge2" class="edge"><title>Node1&#45;&gt;Node3</title>
<path fill="none" stroke="midnightblue" d="M78.2308,-22.5144C86.5204,-21.1081 95.3896,-19.6036 104.001,-18.1427"/>
<polygon fill="midnightblue" stroke="midnightblue" points="104.668,-21.5797 113.942,-16.4564 103.497,-14.6783 104.668,-21.5797"/>
</g>
</g>
</svg>
