<?xml version="1.0" encoding="UTF-8" standalone="no"?>
<!DOCTYPE svg PUBLIC "-//W3C//DTD SVG 1.1//EN"
 "http://www.w3.org/Graphics/SVG/1.1/DTD/svg11.dtd">
<!-- Generated by graphviz version 2.38.0 (20140413.2041)
 -->
<!-- Title: arm_mean_q7 Pages: 1 -->
<svg width="339pt" height="104pt"
 viewBox="0.00 0.00 339.00 104.00" xmlns="http://www.w3.org/2000/svg" xmlns:xlink="http://www.w3.org/1999/xlink">
<g id="graph0" class="graph" transform="scale(1 1) rotate(0) translate(4 100)">
<title>arm_mean_q7</title>
<polygon fill="white" stroke="none" points="-4,4 -4,-100 335,-100 335,4 -4,4"/>
<!-- Node1 -->
<g id="node1" class="node"><title>Node1</title>
<polygon fill="#bfbfbf" stroke="black" points="0,-38.5 0,-57.5 78,-57.5 78,-38.5 0,-38.5"/>
<text text-anchor="middle" x="39" y="-45.5" font-family="Helvetica,sans-Serif" font-size="10.00">arm_mean_q7</text>
</g>
<!-- Node2 -->
<g id="node2" class="node"><title>Node2</title>
<g id="a_node2"><a xlink:href="a00605.html#ga56a40d1cf842b0b45267df6761975da0" target="_top" xlink:title="Floating&#45;point square root function. ">
<polygon fill="white" stroke="black" points="114,-38.5 114,-57.5 188,-57.5 188,-38.5 114,-38.5"/>
<text text-anchor="middle" x="151" y="-45.5" font-family="Helvetica,sans-Serif" font-size="10.00">arm_sqrt_f32</text>
</a>
</g>
</g>
<!-- Node1&#45;&gt;Node2 -->
<g id="edge1" class="edge"><title>Node1&#45;&gt;Node2</title>
<path fill="none" stroke="midnightblue" d="M88.3912,-48C96.9088,-48 105.641,-48 113.754,-48"/>
<polygon fill="midnightblue" stroke="midnightblue" points="88.164,-44.5001 78.164,-48 88.1639,-51.5001 88.164,-44.5001"/>
</g>
<!-- Node3 -->
<g id="node3" class="node"><title>Node3</title>
<g id="a_node3"><a xlink:href="a00642.html#gae45024c497392cde2ae358a76d435213" target="_top" xlink:title="Floating&#45;point complex magnitude. ">
<polygon fill="white" stroke="black" points="224,-76.5 224,-95.5 331,-95.5 331,-76.5 224,-76.5"/>
<text text-anchor="middle" x="277.5" y="-83.5" font-family="Helvetica,sans-Serif" font-size="10.00">arm_cmplx_mag_f32</text>
</a>
</g>
</g>
<!-- Node2&#45;&gt;Node3 -->
<g id="edge2" class="edge"><title>Node2&#45;&gt;Node3</title>
<path fill="none" stroke="midnightblue" d="M197.861,-55.4601C219.844,-61.5877 244.763,-69.8079 260.548,-76.4368"/>
<polygon fill="midnightblue" stroke="midnightblue" points="198.577,-52.0282 188.011,-52.8052 196.755,-58.787 198.577,-52.0282"/>
</g>
<!-- Node4 -->
<g id="node4" class="node"><title>Node4</title>
<g id="a_node4"><a xlink:href="a00675.html#ga0e3ab1b57da32d45388d1fa90d7fd88c" target="_top" xlink:title="Root Mean Square of the elements of a floating&#45;point vector. ">
<polygon fill="white" stroke="black" points="240.5,-38.5 240.5,-57.5 314.5,-57.5 314.5,-38.5 240.5,-38.5"/>
<text text-anchor="middle" x="277.5" y="-45.5" font-family="Helvetica,sans-Serif" font-size="10.00">arm_rms_f32</text>
</a>
</g>
</g>
<!-- Node2&#45;&gt;Node4 -->
<g id="edge4" class="edge"><title>Node2&#45;&gt;Node4</title>
<path fill="none" stroke="midnightblue" d="M198.306,-41.4508C212.12,-41.0958 227.058,-41.2116 240.139,-41.7982"/>
<polygon fill="midnightblue" stroke="midnightblue" points="197.881,-37.9635 188.011,-41.814 198.128,-44.9591 197.881,-37.9635"/>
</g>
<!-- Node5 -->
<g id="node5" class="node"><title>Node5</title>
<g id="a_node5"><a xlink:href="a00676.html#ga4969b5b5f3d001377bc401a3ee99dfc2" target="_top" xlink:title="Standard deviation of the elements of a floating&#45;point vector. ">
<polygon fill="white" stroke="black" points="242,-0.5 242,-19.5 313,-19.5 313,-0.5 242,-0.5"/>
<text text-anchor="middle" x="277.5" y="-7.5" font-family="Helvetica,sans-Serif" font-size="10.00">arm_std_f32</text>
</a>
</g>
</g>
<!-- Node2&#45;&gt;Node5 -->
<g id="edge6" class="edge"><title>Node2&#45;&gt;Node5</title>
<path fill="none" stroke="midnightblue" d="M177.323,-34.7126C195.945,-27.6549 221.472,-19.6776 241.964,-14.4248"/>
<polygon fill="midnightblue" stroke="midnightblue" points="176.023,-31.4631 168.021,-38.4076 178.607,-37.9686 176.023,-31.4631"/>
</g>
<!-- Node3&#45;&gt;Node2 -->
<g id="edge3" class="edge"><title>Node3&#45;&gt;Node2</title>
<path fill="none" stroke="midnightblue" d="M213.888,-73.6393C196.866,-68.4343 179.88,-62.5673 168.021,-57.5924"/>
<polygon fill="midnightblue" stroke="midnightblue" points="213.292,-77.114 223.876,-76.6157 215.292,-70.4055 213.292,-77.114"/>
</g>
<!-- Node4&#45;&gt;Node2 -->
<g id="edge5" class="edge"><title>Node4&#45;&gt;Node2</title>
<path fill="none" stroke="midnightblue" d="M229.823,-54.5586C215.989,-54.9052 201.059,-54.781 188.011,-54.186"/>
<polygon fill="midnightblue" stroke="midnightblue" points="230.266,-58.0455 240.139,-54.2018 230.024,-51.0497 230.266,-58.0455"/>
</g>
<!-- Node5&#45;&gt;Node2 -->
<g id="edge7" class="edge"><title>Node5&#45;&gt;Node2</title>
<path fill="none" stroke="midnightblue" d="M251.197,-23.2798C233.017,-30.1711 208.249,-37.9405 188.011,-43.1948"/>
<polygon fill="midnightblue" stroke="midnightblue" points="252.548,-26.5092 260.548,-19.5632 249.962,-20.0041 252.548,-26.5092"/>
</g>
</g>
</svg>
