<?xml version="1.0" encoding="UTF-8" standalone="no"?>
<!DOCTYPE svg PUBLIC "-//W3C//DTD SVG 1.1//EN"
 "http://www.w3.org/Graphics/SVG/1.1/DTD/svg11.dtd">
<!-- Generated by graphviz version 2.38.0 (20140413.2041)
 -->
<!-- Title: arm_sqrt_q31 Pages: 1 -->
<svg width="483pt" height="142pt"
 viewBox="0.00 0.00 483.00 142.00" xmlns="http://www.w3.org/2000/svg" xmlns:xlink="http://www.w3.org/1999/xlink">
<g id="graph0" class="graph" transform="scale(1 1) rotate(0) translate(4 138)">
<title>arm_sqrt_q31</title>
<polygon fill="white" stroke="none" points="-4,4 -4,-138 479,-138 479,4 -4,4"/>
<!-- Node1 -->
<g id="node1" class="node"><title>Node1</title>
<polygon fill="#bfbfbf" stroke="black" points="0,-57.5 0,-76.5 76,-76.5 76,-57.5 0,-57.5"/>
<text text-anchor="middle" x="38" y="-64.5" font-family="Helvetica,sans-Serif" font-size="10.00">arm_sqrt_q31</text>
</g>
<!-- Node2 -->
<g id="node2" class="node"><title>Node2</title>
<g id="a_node2"><a xlink:href="a00642.html#ga14f82f9230e9d96d5b9774e2fefcb7be" target="_top" xlink:title="Q31 complex magnitude. ">
<polygon fill="white" stroke="black" points="112,-114.5 112,-133.5 222,-133.5 222,-114.5 112,-114.5"/>
<text text-anchor="middle" x="167" y="-121.5" font-family="Helvetica,sans-Serif" font-size="10.00">arm_cmplx_mag_q31</text>
</a>
</g>
</g>
<!-- Node1&#45;&gt;Node2 -->
<g id="edge1" class="edge"><title>Node1&#45;&gt;Node2</title>
<path fill="none" stroke="midnightblue" d="M69.537,-80.8563C82.6066,-86.7732 98.0431,-93.7439 112,-100 122.672,-104.784 134.548,-110.066 144.439,-114.455"/>
<polygon fill="midnightblue" stroke="midnightblue" points="70.6209,-77.505 60.0678,-76.5663 67.7322,-83.8812 70.6209,-77.505"/>
</g>
<!-- Node3 -->
<g id="node3" class="node"><title>Node3</title>
<g id="a_node3"><a xlink:href="a00605.html#ga56a40d1cf842b0b45267df6761975da0" target="_top" xlink:title="Floating&#45;point square root function. ">
<polygon fill="white" stroke="black" points="258,-57.5 258,-76.5 332,-76.5 332,-57.5 258,-57.5"/>
<text text-anchor="middle" x="295" y="-64.5" font-family="Helvetica,sans-Serif" font-size="10.00">arm_sqrt_f32</text>
</a>
</g>
</g>
<!-- Node1&#45;&gt;Node3 -->
<g id="edge9" class="edge"><title>Node1&#45;&gt;Node3</title>
<path fill="none" stroke="midnightblue" d="M86.2226,-67C135.799,-67 212.673,-67 257.702,-67"/>
<polygon fill="midnightblue" stroke="midnightblue" points="86.0792,-63.5001 76.0792,-67 86.0792,-70.5001 86.0792,-63.5001"/>
</g>
<!-- Node7 -->
<g id="node7" class="node"><title>Node7</title>
<g id="a_node7"><a xlink:href="a00675.html#gae33015fda23fc44e7ead5e5ed7e8d314" target="_top" xlink:title="Root Mean Square of the elements of a Q31 vector. ">
<polygon fill="white" stroke="black" points="129,-38.5 129,-57.5 205,-57.5 205,-38.5 129,-38.5"/>
<text text-anchor="middle" x="167" y="-45.5" font-family="Helvetica,sans-Serif" font-size="10.00">arm_rms_q31</text>
</a>
</g>
</g>
<!-- Node1&#45;&gt;Node7 -->
<g id="edge10" class="edge"><title>Node1&#45;&gt;Node7</title>
<path fill="none" stroke="midnightblue" d="M86.0605,-59.9595C100.113,-57.8571 115.319,-55.5822 128.659,-53.5865"/>
<polygon fill="midnightblue" stroke="midnightblue" points="85.4471,-56.5122 76.0751,-61.4533 86.4829,-63.4351 85.4471,-56.5122"/>
</g>
<!-- Node8 -->
<g id="node8" class="node"><title>Node8</title>
<g id="a_node8"><a xlink:href="a00676.html#ga39495e74f96116178be085c9dc7742f5" target="_top" xlink:title="Standard deviation of the elements of a Q31 vector. ">
<polygon fill="white" stroke="black" points="130.5,-0.5 130.5,-19.5 203.5,-19.5 203.5,-0.5 130.5,-0.5"/>
<text text-anchor="middle" x="167" y="-7.5" font-family="Helvetica,sans-Serif" font-size="10.00">arm_std_q31</text>
</a>
</g>
</g>
<!-- Node1&#45;&gt;Node8 -->
<g id="edge12" class="edge"><title>Node1&#45;&gt;Node8</title>
<path fill="none" stroke="midnightblue" d="M64.687,-52.4911C78.4833,-44.9907 95.9173,-35.9735 112,-29 119.842,-25.5998 128.509,-22.3399 136.562,-19.5098"/>
<polygon fill="midnightblue" stroke="midnightblue" points="62.8492,-49.5075 55.7783,-57.3976 66.2262,-55.6391 62.8492,-49.5075"/>
</g>
<!-- Node2&#45;&gt;Node3 -->
<g id="edge2" class="edge"><title>Node2&#45;&gt;Node3</title>
<path fill="none" stroke="midnightblue" d="M198.824,-110.374C206.409,-107.001 214.505,-103.383 222,-100 239.295,-92.1934 258.866,-83.2139 273.234,-76.5945"/>
<polygon fill="midnightblue" stroke="midnightblue" points="197.293,-107.224 189.573,-114.48 200.133,-113.622 197.293,-107.224"/>
</g>
<!-- Node4 -->
<g id="node4" class="node"><title>Node4</title>
<g id="a_node4"><a xlink:href="a00642.html#gae45024c497392cde2ae358a76d435213" target="_top" xlink:title="Floating&#45;point complex magnitude. ">
<polygon fill="white" stroke="black" points="368,-95.5 368,-114.5 475,-114.5 475,-95.5 368,-95.5"/>
<text text-anchor="middle" x="421.5" y="-102.5" font-family="Helvetica,sans-Serif" font-size="10.00">arm_cmplx_mag_f32</text>
</a>
</g>
</g>
<!-- Node3&#45;&gt;Node4 -->
<g id="edge3" class="edge"><title>Node3&#45;&gt;Node4</title>
<path fill="none" stroke="midnightblue" d="M341.861,-74.4601C363.844,-80.5877 388.763,-88.8079 404.548,-95.4368"/>
<polygon fill="midnightblue" stroke="midnightblue" points="342.577,-71.0282 332.011,-71.8052 340.755,-77.787 342.577,-71.0282"/>
</g>
<!-- Node5 -->
<g id="node5" class="node"><title>Node5</title>
<g id="a_node5"><a xlink:href="a00675.html#ga0e3ab1b57da32d45388d1fa90d7fd88c" target="_top" xlink:title="Root Mean Square of the elements of a floating&#45;point vector. ">
<polygon fill="white" stroke="black" points="384.5,-57.5 384.5,-76.5 458.5,-76.5 458.5,-57.5 384.5,-57.5"/>
<text text-anchor="middle" x="421.5" y="-64.5" font-family="Helvetica,sans-Serif" font-size="10.00">arm_rms_f32</text>
</a>
</g>
</g>
<!-- Node3&#45;&gt;Node5 -->
<g id="edge5" class="edge"><title>Node3&#45;&gt;Node5</title>
<path fill="none" stroke="midnightblue" d="M342.306,-60.4508C356.12,-60.0958 371.058,-60.2116 384.139,-60.7982"/>
<polygon fill="midnightblue" stroke="midnightblue" points="341.881,-56.9635 332.011,-60.814 342.128,-63.9591 341.881,-56.9635"/>
</g>
<!-- Node6 -->
<g id="node6" class="node"><title>Node6</title>
<g id="a_node6"><a xlink:href="a00676.html#ga4969b5b5f3d001377bc401a3ee99dfc2" target="_top" xlink:title="Standard deviation of the elements of a floating&#45;point vector. ">
<polygon fill="white" stroke="black" points="386,-19.5 386,-38.5 457,-38.5 457,-19.5 386,-19.5"/>
<text text-anchor="middle" x="421.5" y="-26.5" font-family="Helvetica,sans-Serif" font-size="10.00">arm_std_f32</text>
</a>
</g>
</g>
<!-- Node3&#45;&gt;Node6 -->
<g id="edge7" class="edge"><title>Node3&#45;&gt;Node6</title>
<path fill="none" stroke="midnightblue" d="M321.323,-53.7126C339.945,-46.6549 365.472,-38.6776 385.964,-33.4248"/>
<polygon fill="midnightblue" stroke="midnightblue" points="320.023,-50.4631 312.021,-57.4076 322.607,-56.9686 320.023,-50.4631"/>
</g>
<!-- Node4&#45;&gt;Node3 -->
<g id="edge4" class="edge"><title>Node4&#45;&gt;Node3</title>
<path fill="none" stroke="midnightblue" d="M357.888,-92.6393C340.866,-87.4343 323.88,-81.5673 312.021,-76.5924"/>
<polygon fill="midnightblue" stroke="midnightblue" points="357.292,-96.114 367.876,-95.6157 359.292,-89.4055 357.292,-96.114"/>
</g>
<!-- Node5&#45;&gt;Node3 -->
<g id="edge6" class="edge"><title>Node5&#45;&gt;Node3</title>
<path fill="none" stroke="midnightblue" d="M373.823,-73.5586C359.989,-73.9052 345.059,-73.781 332.011,-73.186"/>
<polygon fill="midnightblue" stroke="midnightblue" points="374.266,-77.0455 384.139,-73.2018 374.024,-70.0497 374.266,-77.0455"/>
</g>
<!-- Node6&#45;&gt;Node3 -->
<g id="edge8" class="edge"><title>Node6&#45;&gt;Node3</title>
<path fill="none" stroke="midnightblue" d="M395.197,-42.2798C377.017,-49.1711 352.249,-56.9405 332.011,-62.1948"/>
<polygon fill="midnightblue" stroke="midnightblue" points="396.548,-45.5092 404.548,-38.5632 393.962,-39.0041 396.548,-45.5092"/>
</g>
<!-- Node7&#45;&gt;Node3 -->
<g id="edge11" class="edge"><title>Node7&#45;&gt;Node3</title>
<path fill="none" stroke="midnightblue" d="M215.107,-55.1034C229.152,-57.2214 244.325,-59.5093 257.577,-61.5076"/>
<polygon fill="midnightblue" stroke="midnightblue" points="215.533,-51.6282 205.123,-53.5979 214.489,-58.5499 215.533,-51.6282"/>
</g>
<!-- Node8&#45;&gt;Node3 -->
<g id="edge13" class="edge"><title>Node8&#45;&gt;Node3</title>
<path fill="none" stroke="midnightblue" d="M207.259,-23.0467C212.264,-24.9338 217.283,-26.9387 222,-29 241.557,-37.5459 263.093,-49.2311 277.469,-57.379"/>
<polygon fill="midnightblue" stroke="midnightblue" points="208.326,-19.7107 197.732,-19.5793 205.932,-26.2886 208.326,-19.7107"/>
</g>
</g>
</svg>
