<?xml version="1.0" encoding="UTF-8" standalone="no"?>
<!DOCTYPE svg PUBLIC "-//W3C//DTD SVG 1.1//EN"
 "http://www.w3.org/Graphics/SVG/1.1/DTD/svg11.dtd">
<!-- Generated by graphviz version 2.38.0 (20140413.2041)
 -->
<!-- Title: arm_mean_q31 Pages: 1 -->
<svg width="344pt" height="104pt"
 viewBox="0.00 0.00 344.00 104.00" xmlns="http://www.w3.org/2000/svg" xmlns:xlink="http://www.w3.org/1999/xlink">
<g id="graph0" class="graph" transform="scale(1 1) rotate(0) translate(4 100)">
<title>arm_mean_q31</title>
<polygon fill="white" stroke="none" points="-4,4 -4,-100 340,-100 340,4 -4,4"/>
<!-- Node1 -->
<g id="node1" class="node"><title>Node1</title>
<polygon fill="#bfbfbf" stroke="black" points="0,-38.5 0,-57.5 83,-57.5 83,-38.5 0,-38.5"/>
<text text-anchor="middle" x="41.5" y="-45.5" font-family="Helvetica,sans-Serif" font-size="10.00">arm_mean_q31</text>
</g>
<!-- Node2 -->
<g id="node2" class="node"><title>Node2</title>
<g id="a_node2"><a xlink:href="a00605.html#ga56a40d1cf842b0b45267df6761975da0" target="_top" xlink:title="Floating&#45;point square root function. ">
<polygon fill="white" stroke="black" points="119,-38.5 119,-57.5 193,-57.5 193,-38.5 119,-38.5"/>
<text text-anchor="middle" x="156" y="-45.5" font-family="Helvetica,sans-Serif" font-size="10.00">arm_sqrt_f32</text>
</a>
</g>
</g>
<!-- Node1&#45;&gt;Node2 -->
<g id="edge1" class="edge"><title>Node1&#45;&gt;Node2</title>
<path fill="none" stroke="midnightblue" d="M93.1751,-48C101.858,-48 110.719,-48 118.921,-48"/>
<polygon fill="midnightblue" stroke="midnightblue" points="93.1151,-44.5001 83.1151,-48 93.115,-51.5001 93.1151,-44.5001"/>
</g>
<!-- Node3 -->
<g id="node3" class="node"><title>Node3</title>
<g id="a_node3"><a xlink:href="a00642.html#gae45024c497392cde2ae358a76d435213" target="_top" xlink:title="Floating&#45;point complex magnitude. ">
<polygon fill="white" stroke="black" points="229,-76.5 229,-95.5 336,-95.5 336,-76.5 229,-76.5"/>
<text text-anchor="middle" x="282.5" y="-83.5" font-family="Helvetica,sans-Serif" font-size="10.00">arm_cmplx_mag_f32</text>
</a>
</g>
</g>
<!-- Node2&#45;&gt;Node3 -->
<g id="edge2" class="edge"><title>Node2&#45;&gt;Node3</title>
<path fill="none" stroke="midnightblue" d="M202.861,-55.4601C224.844,-61.5877 249.763,-69.8079 265.548,-76.4368"/>
<polygon fill="midnightblue" stroke="midnightblue" points="203.577,-52.0282 193.011,-52.8052 201.755,-58.787 203.577,-52.0282"/>
</g>
<!-- Node4 -->
<g id="node4" class="node"><title>Node4</title>
<g id="a_node4"><a xlink:href="a00675.html#ga0e3ab1b57da32d45388d1fa90d7fd88c" target="_top" xlink:title="Root Mean Square of the elements of a floating&#45;point vector. ">
<polygon fill="white" stroke="black" points="245.5,-38.5 245.5,-57.5 319.5,-57.5 319.5,-38.5 245.5,-38.5"/>
<text text-anchor="middle" x="282.5" y="-45.5" font-family="Helvetica,sans-Serif" font-size="10.00">arm_rms_f32</text>
</a>
</g>
</g>
<!-- Node2&#45;&gt;Node4 -->
<g id="edge4" class="edge"><title>Node2&#45;&gt;Node4</title>
<path fill="none" stroke="midnightblue" d="M203.306,-41.4508C217.12,-41.0958 232.058,-41.2116 245.139,-41.7982"/>
<polygon fill="midnightblue" stroke="midnightblue" points="202.881,-37.9635 193.011,-41.814 203.128,-44.9591 202.881,-37.9635"/>
</g>
<!-- Node5 -->
<g id="node5" class="node"><title>Node5</title>
<g id="a_node5"><a xlink:href="a00676.html#ga4969b5b5f3d001377bc401a3ee99dfc2" target="_top" xlink:title="Standard deviation of the elements of a floating&#45;point vector. ">
<polygon fill="white" stroke="black" points="247,-0.5 247,-19.5 318,-19.5 318,-0.5 247,-0.5"/>
<text text-anchor="middle" x="282.5" y="-7.5" font-family="Helvetica,sans-Serif" font-size="10.00">arm_std_f32</text>
</a>
</g>
</g>
<!-- Node2&#45;&gt;Node5 -->
<g id="edge6" class="edge"><title>Node2&#45;&gt;Node5</title>
<path fill="none" stroke="midnightblue" d="M182.323,-34.7126C200.945,-27.6549 226.472,-19.6776 246.964,-14.4248"/>
<polygon fill="midnightblue" stroke="midnightblue" points="181.023,-31.4631 173.021,-38.4076 183.607,-37.9686 181.023,-31.4631"/>
</g>
<!-- Node3&#45;&gt;Node2 -->
<g id="edge3" class="edge"><title>Node3&#45;&gt;Node2</title>
<path fill="none" stroke="midnightblue" d="M218.888,-73.6393C201.866,-68.4343 184.88,-62.5673 173.021,-57.5924"/>
<polygon fill="midnightblue" stroke="midnightblue" points="218.292,-77.114 228.876,-76.6157 220.292,-70.4055 218.292,-77.114"/>
</g>
<!-- Node4&#45;&gt;Node2 -->
<g id="edge5" class="edge"><title>Node4&#45;&gt;Node2</title>
<path fill="none" stroke="midnightblue" d="M234.823,-54.5586C220.989,-54.9052 206.059,-54.781 193.011,-54.186"/>
<polygon fill="midnightblue" stroke="midnightblue" points="235.266,-58.0455 245.139,-54.2018 235.024,-51.0497 235.266,-58.0455"/>
</g>
<!-- Node5&#45;&gt;Node2 -->
<g id="edge7" class="edge"><title>Node5&#45;&gt;Node2</title>
<path fill="none" stroke="midnightblue" d="M256.197,-23.2798C238.017,-30.1711 213.249,-37.9405 193.011,-43.1948"/>
<polygon fill="midnightblue" stroke="midnightblue" points="257.548,-26.5092 265.548,-19.5632 254.962,-20.0041 257.548,-26.5092"/>
</g>
</g>
</svg>
