<?xml version="1.0" encoding="UTF-8" standalone="no"?>
<!DOCTYPE svg PUBLIC "-//W3C//DTD SVG 1.1//EN"
 "http://www.w3.org/Graphics/SVG/1.1/DTD/svg11.dtd">
<!-- Generated by graphviz version 2.38.0 (20140413.2041)
 -->
<!-- Title: arm_cfft_q31 Pages: 1 -->
<svg width="303pt" height="28pt"
 viewBox="0.00 0.00 303.00 28.00" xmlns="http://www.w3.org/2000/svg" xmlns:xlink="http://www.w3.org/1999/xlink">
<g id="graph0" class="graph" transform="scale(1 1) rotate(0) translate(4 24)">
<title>arm_cfft_q31</title>
<polygon fill="white" stroke="none" points="-4,4 -4,-24 299,-24 299,4 -4,4"/>
<!-- Node1 -->
<g id="node1" class="node"><title>Node1</title>
<polygon fill="#bfbfbf" stroke="black" points="0,-0.5 0,-19.5 74,-19.5 74,-0.5 0,-0.5"/>
<text text-anchor="middle" x="37" y="-7.5" font-family="Helvetica,sans-Serif" font-size="10.00">arm_cfft_q31</text>
</g>
<!-- Node2 -->
<g id="node2" class="node"><title>Node2</title>
<g id="a_node2"><a xlink:href="a01303.html#gabaeab5646aeea9844e6d42ca8c73fe3a" target="_top" xlink:title="Processing function for the Q31 RFFT/RIFFT. ">
<polygon fill="white" stroke="black" points="110,-0.5 110,-19.5 181,-19.5 181,-0.5 110,-0.5"/>
<text text-anchor="middle" x="145.5" y="-7.5" font-family="Helvetica,sans-Serif" font-size="10.00">arm_rfft_q31</text>
</a>
</g>
</g>
<!-- Node1&#45;&gt;Node2 -->
<g id="edge1" class="edge"><title>Node1&#45;&gt;Node2</title>
<path fill="none" stroke="midnightblue" d="M84.064,-10C92.7389,-10 101.673,-10 109.923,-10"/>
<polygon fill="midnightblue" stroke="midnightblue" points="84.0561,-6.5001 74.056,-10 84.056,-13.5001 84.0561,-6.5001"/>
</g>
<!-- Node3 -->
<g id="node3" class="node"><title>Node3</title>
<g id="a_node3"><a xlink:href="a00686.html#gad04d0baab6ed081d8e8afe02538eb80b" target="_top" xlink:title="Processing function for the Q31 DCT4/IDCT4. ">
<polygon fill="white" stroke="black" points="217,-0.5 217,-19.5 295,-19.5 295,-0.5 217,-0.5"/>
<text text-anchor="middle" x="256" y="-7.5" font-family="Helvetica,sans-Serif" font-size="10.00">arm_dct4_q31</text>
</a>
</g>
</g>
<!-- Node2&#45;&gt;Node3 -->
<g id="edge2" class="edge"><title>Node2&#45;&gt;Node3</title>
<path fill="none" stroke="midnightblue" d="M191.301,-10C199.819,-10 208.658,-10 216.942,-10"/>
<polygon fill="midnightblue" stroke="midnightblue" points="191.128,-6.5001 181.128,-10 191.128,-13.5001 191.128,-6.5001"/>
</g>
</g>
</svg>
