<?xml version="1.0" encoding="UTF-8" standalone="no"?>
<!DOCTYPE svg PUBLIC "-//W3C//DTD SVG 1.1//EN"
 "http://www.w3.org/Graphics/SVG/1.1/DTD/svg11.dtd">
<!-- Generated by graphviz version 2.38.0 (20140413.2041)
 -->
<!-- Title: PID Compensator Pages: 1 -->
<svg width="340pt" height="142pt"
 viewBox="0.00 0.00 340.00 142.00" xmlns="http://www.w3.org/2000/svg" xmlns:xlink="http://www.w3.org/1999/xlink">
<g id="graph0" class="graph" transform="scale(1 1) rotate(0) translate(4 138)">
<title>PID Compensator</title>
<polygon fill="white" stroke="none" points="-4,4 -4,-138 336,-138 336,4 -4,4"/>
<!-- Node0 -->
<g id="node1" class="node"><title>Node0</title>
<polygon fill="#bfbfbf" stroke="black" points="122,-57.5 122,-76.5 217,-76.5 217,-57.5 122,-57.5"/>
<text text-anchor="middle" x="169.5" y="-64.5" font-family="Helvetica,sans-Serif" font-size="10.00">PID Compensator</text>
</g>
<!-- Node5 -->
<g id="node3" class="node"><title>Node5</title>
<g id="a_node3"><a xlink:href="a00649.html" target="_top" xlink:title="PID methods related macro definitions. ">
<polygon fill="white" stroke="black" points="253,-114.5 253,-133.5 332,-133.5 332,-114.5 253,-114.5"/>
<text text-anchor="middle" x="292.5" y="-121.5" font-family="Helvetica,sans-Serif" font-size="10.00">Pid_Functions</text>
</a>
</g>
</g>
<!-- Node0&#45;&gt;Node5 -->
<g id="edge5" class="edge"><title>Node0&#45;&gt;Node5</title>
<path fill="none" stroke="black" d="M200.001,-80.8971C222.078,-91.2972 251.702,-105.252 271.181,-114.428"/>
<polygon fill="black" stroke="black" points="201.291,-77.6359 190.753,-76.5405 198.308,-83.9684 201.291,-77.6359"/>
</g>
<!-- Node4 -->
<g id="node4" class="node"><title>Node4</title>
<g id="a_node4"><a xlink:href="a00093.html" target="_top" xlink:title="PID method type definitions. ">
<polygon fill="white" stroke="black" points="254,-76.5 254,-95.5 331,-95.5 331,-76.5 254,-76.5"/>
<text text-anchor="middle" x="292.5" y="-83.5" font-family="Helvetica,sans-Serif" font-size="10.00">Pid_Typedefs</text>
</a>
</g>
</g>
<!-- Node0&#45;&gt;Node4 -->
<g id="edge4" class="edge"><title>Node0&#45;&gt;Node4</title>
<path fill="none" stroke="black" d="M227.341,-75.9255C236.33,-77.3369 245.426,-78.7652 253.833,-80.0853"/>
<polygon fill="black" stroke="black" points="227.704,-72.4396 217.282,-74.3459 226.618,-79.3549 227.704,-72.4396"/>
</g>
<!-- Node3 -->
<g id="node5" class="node"><title>Node3</title>
<g id="a_node5"><a xlink:href="a00648.html" target="_top" xlink:title="PID compensator variables. ">
<polygon fill="white" stroke="black" points="254,-38.5 254,-57.5 331,-57.5 331,-38.5 254,-38.5"/>
<text text-anchor="middle" x="292.5" y="-45.5" font-family="Helvetica,sans-Serif" font-size="10.00">Pid_Variables</text>
</a>
</g>
</g>
<!-- Node0&#45;&gt;Node3 -->
<g id="edge3" class="edge"><title>Node0&#45;&gt;Node3</title>
<path fill="none" stroke="black" d="M227.341,-58.0745C236.33,-56.6631 245.426,-55.2348 253.833,-53.9147"/>
<polygon fill="black" stroke="black" points="226.618,-54.6451 217.282,-59.6541 227.704,-61.5604 226.618,-54.6451"/>
</g>
<!-- Node2 -->
<g id="node6" class="node"><title>Node2</title>
<g id="a_node6"><a xlink:href="a00625.html" target="_top" xlink:title="PID methods related macro definitions. ">
<polygon fill="white" stroke="black" points="258.5,-0.5 258.5,-19.5 326.5,-19.5 326.5,-0.5 258.5,-0.5"/>
<text text-anchor="middle" x="292.5" y="-7.5" font-family="Helvetica,sans-Serif" font-size="10.00">Pid_Macros</text>
</a>
</g>
</g>
<!-- Node0&#45;&gt;Node2 -->
<g id="edge2" class="edge"><title>Node0&#45;&gt;Node2</title>
<path fill="none" stroke="black" d="M200.001,-53.1029C222.078,-42.7028 251.702,-28.748 271.181,-19.5716"/>
<polygon fill="black" stroke="black" points="198.308,-50.0316 190.753,-57.4595 201.291,-56.3641 198.308,-50.0316"/>
</g>
<!-- Node1 -->
<g id="node2" class="node"><title>Node1</title>
<g id="a_node2"><a xlink:href="a00606.html" target="_top" xlink:title="MD_Application">
<polygon fill="white" stroke="black" points="0,-57.5 0,-76.5 86,-76.5 86,-57.5 0,-57.5"/>
<text text-anchor="middle" x="43" y="-64.5" font-family="Helvetica,sans-Serif" font-size="10.00">MD_Application</text>
</a>
</g>
</g>
<!-- Node1&#45;&gt;Node0 -->
<g id="edge1" class="edge"><title>Node1&#45;&gt;Node0</title>
<path fill="none" stroke="black" d="M96.271,-67C104.706,-67 113.392,-67 121.687,-67"/>
<polygon fill="black" stroke="black" points="96.1501,-63.5001 86.15,-67 96.15,-70.5001 96.1501,-63.5001"/>
</g>
</g>
</svg>
