<?xml version="1.0" encoding="UTF-8" standalone="no"?>
<!DOCTYPE svg PUBLIC "-//W3C//DTD SVG 1.1//EN"
 "http://www.w3.org/Graphics/SVG/1.1/DTD/svg11.dtd">
<!-- Generated by graphviz version 2.38.0 (20140413.2041)
 -->
<!-- Title: Actuators_Functions Pages: 1 -->
<svg width="349pt" height="28pt"
 viewBox="0.00 0.00 349.00 28.00" xmlns="http://www.w3.org/2000/svg" xmlns:xlink="http://www.w3.org/1999/xlink">
<g id="graph0" class="graph" transform="scale(1 1) rotate(0) translate(4 24)">
<title>Actuators_Functions</title>
<polygon fill="white" stroke="none" points="-4,4 -4,-24 345,-24 345,4 -4,4"/>
<!-- Node2 -->
<g id="node1" class="node"><title>Node2</title>
<g id="a_node1"><a xlink:href="a00614.html" target="_top" xlink:title="This group includes all functions related to safety and guarding. ">
<polygon fill="white" stroke="black" points="238,-0.5 238,-19.5 341,-19.5 341,-0.5 238,-0.5"/>
<text text-anchor="middle" x="289.5" y="-7.5" font-family="Helvetica,sans-Serif" font-size="10.00">Actuators_Guarding</text>
</a>
</g>
</g>
<!-- Node1 -->
<g id="node2" class="node"><title>Node1</title>
<g id="a_node2"><a xlink:href="a00612.html" target="_top" xlink:title="Provides actuator related update and configuration methods. ">
<polygon fill="white" stroke="black" points="0,-0.5 0,-19.5 59,-19.5 59,-0.5 0,-0.5"/>
<text text-anchor="middle" x="29.5" y="-7.5" font-family="Helvetica,sans-Serif" font-size="10.00">Actuators</text>
</a>
</g>
</g>
<!-- Node0 -->
<g id="node3" class="node"><title>Node0</title>
<polygon fill="#bfbfbf" stroke="black" points="95,-0.5 95,-19.5 202,-19.5 202,-0.5 95,-0.5"/>
<text text-anchor="middle" x="148.5" y="-7.5" font-family="Helvetica,sans-Serif" font-size="10.00">Actuators_Functions</text>
</g>
<!-- Node1&#45;&gt;Node0 -->
<g id="edge1" class="edge"><title>Node1&#45;&gt;Node0</title>
<path fill="none" stroke="black" d="M69.1969,-10C77.4488,-10 86.2967,-10 94.9679,-10"/>
<polygon fill="black" stroke="black" points="69.1215,-6.5001 59.1214,-10 69.1214,-13.5001 69.1215,-6.5001"/>
</g>
<!-- Node0&#45;&gt;Node2 -->
<g id="edge2" class="edge"><title>Node0&#45;&gt;Node2</title>
<path fill="none" stroke="black" d="M212.32,-10C220.822,-10 229.459,-10 237.715,-10"/>
<polygon fill="black" stroke="black" points="212.05,-6.5001 202.05,-10 212.05,-13.5001 212.05,-6.5001"/>
</g>
</g>
</svg>
