<?xml version="1.0" encoding="UTF-8" standalone="no"?>
<!DOCTYPE svg PUBLIC "-//W3C//DTD SVG 1.1//EN"
 "http://www.w3.org/Graphics/SVG/1.1/DTD/svg11.dtd">
<!-- Generated by graphviz version 2.38.0 (20140413.2041)
 -->
<!-- Title: CMSIS Pages: 1 -->
<svg width="194pt" height="66pt"
 viewBox="0.00 0.00 194.00 66.00" xmlns="http://www.w3.org/2000/svg" xmlns:xlink="http://www.w3.org/1999/xlink">
<g id="graph0" class="graph" transform="scale(1 1) rotate(0) translate(4 62)">
<title>CMSIS</title>
<polygon fill="white" stroke="none" points="-4,4 -4,-62 190,-62 190,4 -4,4"/>
<!-- Node2 -->
<g id="node1" class="node"><title>Node2</title>
<g id="a_node1"><a xlink:href="a00671.html" target="_top" xlink:title="Stm32f4xx">
<polygon fill="white" stroke="black" points="103.5,-38.5 103.5,-57.5 167.5,-57.5 167.5,-38.5 103.5,-38.5"/>
<text text-anchor="middle" x="135.5" y="-45.5" font-family="Helvetica,sans-Serif" font-size="10.00">Stm32f4xx</text>
</a>
</g>
</g>
<!-- Node1 -->
<g id="node2" class="node"><title>Node1</title>
<g id="a_node2"><a xlink:href="a00656.html" target="_top" xlink:title="Stm32f4xx_system">
<polygon fill="white" stroke="black" points="85,-0.5 85,-19.5 186,-19.5 186,-0.5 85,-0.5"/>
<text text-anchor="middle" x="135.5" y="-7.5" font-family="Helvetica,sans-Serif" font-size="10.00">Stm32f4xx_system</text>
</a>
</g>
</g>
<!-- Node0 -->
<g id="node3" class="node"><title>Node0</title>
<polygon fill="#bfbfbf" stroke="black" points="0,-19.5 0,-38.5 49,-38.5 49,-19.5 0,-19.5"/>
<text text-anchor="middle" x="24.5" y="-26.5" font-family="Helvetica,sans-Serif" font-size="10.00">CMSIS</text>
</g>
<!-- Node0&#45;&gt;Node2 -->
<g id="edge2" class="edge"><title>Node0&#45;&gt;Node2</title>
<path fill="none" stroke="black" d="M59.4132,-34.9115C73.479,-37.3633 89.6895,-40.189 103.44,-42.586"/>
<polygon fill="black" stroke="black" points="59.6039,-31.392 49.1514,-33.1227 58.4018,-38.288 59.6039,-31.392"/>
</g>
<!-- Node0&#45;&gt;Node1 -->
<g id="edge1" class="edge"><title>Node0&#45;&gt;Node1</title>
<path fill="none" stroke="black" d="M59.0554,-23.1509C67.2428,-21.7237 76.1739,-20.1669 84.9337,-18.64"/>
<polygon fill="black" stroke="black" points="58.4018,-19.712 49.1514,-24.8773 59.6039,-26.608 58.4018,-19.712"/>
</g>
</g>
</svg>
