<?xml version="1.0" encoding="UTF-8" standalone="no"?>
<!DOCTYPE svg PUBLIC "-//W3C//DTD SVG 1.1//EN"
 "http://www.w3.org/Graphics/SVG/1.1/DTD/svg11.dtd">
<!-- Generated by graphviz version 2.38.0 (20140413.2041)
 -->
<!-- Title: NVIC_GetActive Pages: 1 -->
<svg width="227pt" height="66pt"
 viewBox="0.00 0.00 227.00 66.00" xmlns="http://www.w3.org/2000/svg" xmlns:xlink="http://www.w3.org/1999/xlink">
<g id="graph0" class="graph" transform="scale(1 1) rotate(0) translate(4 62)">
<title>NVIC_GetActive</title>
<polygon fill="white" stroke="none" points="-4,4 -4,-62 223,-62 223,4 -4,4"/>
<!-- Node1 -->
<g id="node1" class="node"><title>Node1</title>
<polygon fill="#bfbfbf" stroke="black" points="0,-19.5 0,-38.5 90,-38.5 90,-19.5 0,-19.5"/>
<text text-anchor="middle" x="45" y="-26.5" font-family="Helvetica,sans-Serif" font-size="10.00">NVIC_GetActive</text>
</g>
<!-- Node2 -->
<g id="node2" class="node"><title>Node2</title>
<g id="a_node2"><a xlink:href="a00615.html#ga2305cbd44aaad792e3a4e538bdaf14f9" target="_top" xlink:title="Set Interrupt Priority. ">
<polygon fill="white" stroke="black" points="126.5,-38.5 126.5,-57.5 218.5,-57.5 218.5,-38.5 126.5,-38.5"/>
<text text-anchor="middle" x="172.5" y="-45.5" font-family="Helvetica,sans-Serif" font-size="10.00">NVIC_SetPriority</text>
</a>
</g>
</g>
<!-- Node1&#45;&gt;Node2 -->
<g id="edge1" class="edge"><title>Node1&#45;&gt;Node2</title>
<path fill="none" stroke="midnightblue" d="M90.2466,-35.6987C98.6666,-36.9734 107.575,-38.3221 116.286,-39.6409"/>
<polygon fill="midnightblue" stroke="midnightblue" points="115.97,-43.1329 126.381,-41.1693 117.018,-36.2118 115.97,-43.1329"/>
</g>
<!-- Node3 -->
<g id="node3" class="node"><title>Node3</title>
<g id="a_node3"><a xlink:href="a00615.html#ga1cbaf8e6abd4aa4885828e7f24fcfeb4" target="_top" xlink:title="Get Interrupt Priority. ">
<polygon fill="white" stroke="black" points="126,-0.5 126,-19.5 219,-19.5 219,-0.5 126,-0.5"/>
<text text-anchor="middle" x="172.5" y="-7.5" font-family="Helvetica,sans-Serif" font-size="10.00">NVIC_GetPriority</text>
</a>
</g>
</g>
<!-- Node1&#45;&gt;Node3 -->
<g id="edge2" class="edge"><title>Node1&#45;&gt;Node3</title>
<path fill="none" stroke="midnightblue" d="M90.2466,-22.3013C98.5651,-21.0419 107.36,-19.7104 115.971,-18.4067"/>
<polygon fill="midnightblue" stroke="midnightblue" points="116.593,-21.8527 125.956,-16.8951 115.545,-14.9315 116.593,-21.8527"/>
</g>
</g>
</svg>
