<?xml version="1.0" encoding="UTF-8" standalone="no"?>
<!DOCTYPE svg PUBLIC "-//W3C//DTD SVG 1.1//EN"
 "http://www.w3.org/Graphics/SVG/1.1/DTD/svg11.dtd">
<!-- Generated by graphviz version 2.38.0 (20140413.2041)
 -->
<!-- Title: NVIC_SetPriority Pages: 1 -->
<svg width="408pt" height="142pt"
 viewBox="0.00 0.00 408.00 142.00" xmlns="http://www.w3.org/2000/svg" xmlns:xlink="http://www.w3.org/1999/xlink">
<g id="graph0" class="graph" transform="scale(1 1) rotate(0) translate(4 138)">
<title>NVIC_SetPriority</title>
<polygon fill="white" stroke="none" points="-4,4 -4,-138 404,-138 404,4 -4,4"/>
<!-- Node1 -->
<g id="node1" class="node"><title>Node1</title>
<polygon fill="#bfbfbf" stroke="black" points="0,-57.5 0,-76.5 92,-76.5 92,-57.5 0,-57.5"/>
<text text-anchor="middle" x="46" y="-64.5" font-family="Helvetica,sans-Serif" font-size="10.00">NVIC_SetPriority</text>
</g>
<!-- Node2 -->
<g id="node2" class="node"><title>Node2</title>
<g id="a_node2"><a xlink:href="a00616.html#gae4e8f0238527c69f522029b93c8e5b78" target="_top" xlink:title="System Tick Configuration. ">
<polygon fill="white" stroke="black" points="130,-76.5 130,-95.5 216,-95.5 216,-76.5 130,-76.5"/>
<text text-anchor="middle" x="173" y="-83.5" font-family="Helvetica,sans-Serif" font-size="10.00">SysTick_Config</text>
</a>
</g>
</g>
<!-- Node1&#45;&gt;Node2 -->
<g id="edge1" class="edge"><title>Node1&#45;&gt;Node2</title>
<path fill="none" stroke="midnightblue" d="M102.103,-75.3756C111.412,-76.7906 120.943,-78.2394 129.855,-79.594"/>
<polygon fill="midnightblue" stroke="midnightblue" points="102.54,-71.902 92.1279,-73.8594 101.488,-78.8225 102.54,-71.902"/>
</g>
<!-- Node3 -->
<g id="node3" class="node"><title>Node3</title>
<g id="a_node3"><a xlink:href="a00615.html#ga3387607fd8a1a32cccd77d2ac672dd96" target="_top" xlink:title="Decode Priority. ">
<polygon fill="white" stroke="black" points="271.5,-114.5 271.5,-133.5 382.5,-133.5 382.5,-114.5 271.5,-114.5"/>
<text text-anchor="middle" x="327" y="-121.5" font-family="Helvetica,sans-Serif" font-size="10.00">NVIC_DecodePriority</text>
</a>
</g>
</g>
<!-- Node1&#45;&gt;Node3 -->
<g id="edge6" class="edge"><title>Node1&#45;&gt;Node3</title>
<path fill="none" stroke="midnightblue" d="M72.0943,-81.5197C87.6727,-89.827 108.397,-99.6346 128,-105 175.297,-117.945 231.044,-122.375 271.315,-123.754"/>
<polygon fill="midnightblue" stroke="midnightblue" points="73.5663,-78.3352 63.1155,-76.5942 70.1996,-84.4724 73.5663,-78.3352"/>
</g>
<!-- Node4 -->
<g id="node4" class="node"><title>Node4</title>
<g id="a_node4"><a xlink:href="a00619.html#ga630131b2572eaa16b569ed364dfc895e" target="_top" xlink:title="D&#45;Cache Clean and Invalidate by address. ">
<polygon fill="white" stroke="black" points="254,-27 254,-57 400,-57 400,-27 254,-27"/>
<text text-anchor="start" x="262" y="-45" font-family="Helvetica,sans-Serif" font-size="10.00">SCB_CleanInvalidateDCache</text>
<text text-anchor="middle" x="327" y="-34" font-family="Helvetica,sans-Serif" font-size="10.00">_by_Addr</text>
</a>
</g>
</g>
<!-- Node1&#45;&gt;Node4 -->
<g id="edge7" class="edge"><title>Node1&#45;&gt;Node4</title>
<path fill="none" stroke="midnightblue" d="M102.24,-62.0502C145.717,-58.1544 206.656,-52.6939 253.962,-48.455"/>
<polygon fill="midnightblue" stroke="midnightblue" points="101.784,-58.5769 92.1363,-62.9555 102.409,-65.549 101.784,-58.5769"/>
</g>
<!-- Node6 -->
<g id="node6" class="node"><title>Node6</title>
<g id="a_node6"><a xlink:href="a00615.html#ga47a0f52794068d076c9147aa3cb8d8a6" target="_top" xlink:title="Get Active Interrupt. ">
<polygon fill="white" stroke="black" points="128,-0.5 128,-19.5 218,-19.5 218,-0.5 128,-0.5"/>
<text text-anchor="middle" x="173" y="-7.5" font-family="Helvetica,sans-Serif" font-size="10.00">NVIC_GetActive</text>
</a>
</g>
</g>
<!-- Node1&#45;&gt;Node6 -->
<g id="edge5" class="edge"><title>Node1&#45;&gt;Node6</title>
<path fill="none" stroke="midnightblue" d="M77.1697,-53.2426C100.009,-42.8281 130.796,-28.7892 151.01,-19.5716"/>
<polygon fill="midnightblue" stroke="midnightblue" points="75.5687,-50.1259 67.9222,-57.4595 78.473,-56.495 75.5687,-50.1259"/>
</g>
<!-- Node2&#45;&gt;Node3 -->
<g id="edge2" class="edge"><title>Node2&#45;&gt;Node3</title>
<path fill="none" stroke="midnightblue" d="M222.16,-98.04C243.395,-103.349 267.995,-109.499 287.92,-114.48"/>
<polygon fill="midnightblue" stroke="midnightblue" points="222.906,-94.6189 212.356,-95.589 221.209,-101.41 222.906,-94.6189"/>
</g>
<!-- Node2&#45;&gt;Node4 -->
<g id="edge3" class="edge"><title>Node2&#45;&gt;Node4</title>
<path fill="none" stroke="midnightblue" d="M217.027,-73.5447C234.735,-68.4187 255.406,-62.4351 273.956,-57.0654"/>
<polygon fill="midnightblue" stroke="midnightblue" points="215.614,-70.31 206.982,-76.4527 217.561,-77.034 215.614,-70.31"/>
</g>
<!-- Node5 -->
<g id="node5" class="node"><title>Node5</title>
<g id="a_node5"><a xlink:href="a00460.html#a6fedd7fae01484a6b99876a58703b27e" target="_top" xlink:title="MD_DELAY_Init">
<polygon fill="white" stroke="black" points="282.5,-76.5 282.5,-95.5 371.5,-95.5 371.5,-76.5 282.5,-76.5"/>
<text text-anchor="middle" x="327" y="-83.5" font-family="Helvetica,sans-Serif" font-size="10.00">MD_DELAY_Init</text>
</a>
</g>
</g>
<!-- Node2&#45;&gt;Node5 -->
<g id="edge4" class="edge"><title>Node2&#45;&gt;Node5</title>
<path fill="none" stroke="midnightblue" d="M226.5,-86C244.697,-86 264.888,-86 282.3,-86"/>
<polygon fill="midnightblue" stroke="midnightblue" points="226.341,-82.5001 216.34,-86 226.34,-89.5001 226.341,-82.5001"/>
</g>
</g>
</svg>
