<?xml version="1.0" encoding="UTF-8" standalone="no"?>
<!DOCTYPE svg PUBLIC "-//W3C//DTD SVG 1.1//EN"
 "http://www.w3.org/Graphics/SVG/1.1/DTD/svg11.dtd">
<!-- Generated by graphviz version 2.38.0 (20140413.2041)
 -->
<!-- Title: CAN_Exported_Constants Pages: 1 -->
<svg width="392pt" height="907pt"
 viewBox="0.00 0.00 392.00 907.00" xmlns="http://www.w3.org/2000/svg" xmlns:xlink="http://www.w3.org/1999/xlink">
<g id="graph0" class="graph" transform="scale(1 1) rotate(0) translate(4 903)">
<title>CAN_Exported_Constants</title>
<polygon fill="white" stroke="none" points="-4,4 -4,-903 388,-903 388,4 -4,4"/>
<!-- Node10 -->
<g id="node1" class="node"><title>Node10</title>
<g id="a_node1"><a xlink:href="a00726.html" target="_top" xlink:title="CAN_filter_mode">
<polygon fill="white" stroke="black" points="267.5,-879.5 267.5,-898.5 359.5,-898.5 359.5,-879.5 267.5,-879.5"/>
<text text-anchor="middle" x="313.5" y="-886.5" font-family="Helvetica,sans-Serif" font-size="10.00">CAN_filter_mode</text>
</a>
</g>
</g>
<!-- Node9 -->
<g id="node2" class="node"><title>Node9</title>
<g id="a_node2"><a xlink:href="a00725.html" target="_top" xlink:title="CAN_filter_number">
<polygon fill="white" stroke="black" points="263.5,-841.5 263.5,-860.5 363.5,-860.5 363.5,-841.5 263.5,-841.5"/>
<text text-anchor="middle" x="313.5" y="-848.5" font-family="Helvetica,sans-Serif" font-size="10.00">CAN_filter_number</text>
</a>
</g>
</g>
<!-- Node8 -->
<g id="node3" class="node"><title>Node8</title>
<g id="a_node3"><a xlink:href="a00724.html" target="_top" xlink:title="CAN_clock_prescaler">
<polygon fill="white" stroke="black" points="257.5,-803.5 257.5,-822.5 369.5,-822.5 369.5,-803.5 257.5,-803.5"/>
<text text-anchor="middle" x="313.5" y="-810.5" font-family="Helvetica,sans-Serif" font-size="10.00">CAN_clock_prescaler</text>
</a>
</g>
</g>
<!-- Node1 -->
<g id="node4" class="node"><title>Node1</title>
<g id="a_node4"><a xlink:href="a00091.html" target="_top" xlink:title="CAN driver modules. ">
<polygon fill="white" stroke="black" points="0,-456.5 0,-475.5 38,-475.5 38,-456.5 0,-456.5"/>
<text text-anchor="middle" x="19" y="-463.5" font-family="Helvetica,sans-Serif" font-size="10.00">CAN</text>
</a>
</g>
</g>
<!-- Node0 -->
<g id="node16" class="node"><title>Node0</title>
<polygon fill="#bfbfbf" stroke="black" points="74,-456.5 74,-475.5 207,-475.5 207,-456.5 74,-456.5"/>
<text text-anchor="middle" x="140.5" y="-463.5" font-family="Helvetica,sans-Serif" font-size="10.00">CAN_Exported_Constants</text>
</g>
<!-- Node1&#45;&gt;Node0 -->
<g id="edge1" class="edge"><title>Node1&#45;&gt;Node0</title>
<path fill="none" stroke="black" d="M48.3874,-466C56.1536,-466 64.9063,-466 73.837,-466"/>
<polygon fill="black" stroke="black" points="48.1495,-462.5 38.1495,-466 48.1494,-469.5 48.1495,-462.5"/>
</g>
<!-- Node2 -->
<g id="node5" class="node"><title>Node2</title>
<g id="a_node5"><a xlink:href="a00718.html" target="_top" xlink:title="CAN_InitStatus">
<polygon fill="white" stroke="black" points="270.5,-765.5 270.5,-784.5 356.5,-784.5 356.5,-765.5 270.5,-765.5"/>
<text text-anchor="middle" x="313.5" y="-772.5" font-family="Helvetica,sans-Serif" font-size="10.00">CAN_InitStatus</text>
</a>
</g>
</g>
<!-- Node18 -->
<g id="node6" class="node"><title>Node18</title>
<g id="a_node6"><a xlink:href="a00734.html" target="_top" xlink:title="CAN_receive_FIFO_number\l_constants">
<polygon fill="white" stroke="black" points="243.5,-716 243.5,-746 383.5,-746 383.5,-716 243.5,-716"/>
<text text-anchor="start" x="251.5" y="-734" font-family="Helvetica,sans-Serif" font-size="10.00">CAN_receive_FIFO_number</text>
<text text-anchor="middle" x="313.5" y="-723" font-family="Helvetica,sans-Serif" font-size="10.00">_constants</text>
</a>
</g>
</g>
<!-- Node23 -->
<g id="node7" class="node"><title>Node23</title>
<g id="a_node7"><a xlink:href="a00739.html" target="_top" xlink:title="CAN_interrupts">
<polygon fill="white" stroke="black" points="271.5,-677.5 271.5,-696.5 355.5,-696.5 355.5,-677.5 271.5,-677.5"/>
<text text-anchor="middle" x="313.5" y="-684.5" font-family="Helvetica,sans-Serif" font-size="10.00">CAN_interrupts</text>
</a>
</g>
</g>
<!-- Node12 -->
<g id="node8" class="node"><title>Node12</title>
<g id="a_node8"><a xlink:href="a00728.html" target="_top" xlink:title="CAN_filter_FIFO">
<polygon fill="white" stroke="black" points="268.5,-639.5 268.5,-658.5 358.5,-658.5 358.5,-639.5 268.5,-639.5"/>
<text text-anchor="middle" x="313.5" y="-646.5" font-family="Helvetica,sans-Serif" font-size="10.00">CAN_filter_FIFO</text>
</a>
</g>
</g>
<!-- Node22 -->
<g id="node9" class="node"><title>Node22</title>
<g id="a_node9"><a xlink:href="a00738.html" target="_top" xlink:title="CAN_flags">
<polygon fill="white" stroke="black" points="281,-601.5 281,-620.5 346,-620.5 346,-601.5 281,-601.5"/>
<text text-anchor="middle" x="313.5" y="-608.5" font-family="Helvetica,sans-Serif" font-size="10.00">CAN_flags</text>
</a>
</g>
</g>
<!-- Node17 -->
<g id="node10" class="node"><title>Node17</title>
<g id="a_node10"><a xlink:href="a00733.html" target="_top" xlink:title="CAN_transmit_constants">
<polygon fill="white" stroke="black" points="250,-563.5 250,-582.5 377,-582.5 377,-563.5 250,-563.5"/>
<text text-anchor="middle" x="313.5" y="-570.5" font-family="Helvetica,sans-Serif" font-size="10.00">CAN_transmit_constants</text>
</a>
</g>
</g>
<!-- Node16 -->
<g id="node11" class="node"><title>Node16</title>
<g id="a_node11"><a xlink:href="a00732.html" target="_top" xlink:title="CAN_remote_transmission\l_request">
<polygon fill="white" stroke="black" points="246.5,-514 246.5,-544 380.5,-544 380.5,-514 246.5,-514"/>
<text text-anchor="start" x="254.5" y="-532" font-family="Helvetica,sans-Serif" font-size="10.00">CAN_remote_transmission</text>
<text text-anchor="middle" x="313.5" y="-521" font-family="Helvetica,sans-Serif" font-size="10.00">_request</text>
</a>
</g>
</g>
<!-- Node15 -->
<g id="node12" class="node"><title>Node15</title>
<g id="a_node12"><a xlink:href="a00731.html" target="_top" xlink:title="CAN_identifier_type">
<polygon fill="white" stroke="black" points="261.5,-475.5 261.5,-494.5 365.5,-494.5 365.5,-475.5 261.5,-475.5"/>
<text text-anchor="middle" x="313.5" y="-482.5" font-family="Helvetica,sans-Serif" font-size="10.00">CAN_identifier_type</text>
</a>
</g>
</g>
<!-- Node21 -->
<g id="node13" class="node"><title>Node21</title>
<g id="a_node13"><a xlink:href="a00737.html" target="_top" xlink:title="CAN_Error_Code_constants">
<polygon fill="white" stroke="black" points="243,-437.5 243,-456.5 384,-456.5 384,-437.5 243,-437.5"/>
<text text-anchor="middle" x="313.5" y="-444.5" font-family="Helvetica,sans-Serif" font-size="10.00">CAN_Error_Code_constants</text>
</a>
</g>
</g>
<!-- Node20 -->
<g id="node14" class="node"><title>Node20</title>
<g id="a_node14"><a xlink:href="a00736.html" target="_top" xlink:title="CAN_wake_up_constants">
<polygon fill="white" stroke="black" points="248,-399.5 248,-418.5 379,-418.5 379,-399.5 248,-399.5"/>
<text text-anchor="middle" x="313.5" y="-406.5" font-family="Helvetica,sans-Serif" font-size="10.00">CAN_wake_up_constants</text>
</a>
</g>
</g>
<!-- Node19 -->
<g id="node15" class="node"><title>Node19</title>
<g id="a_node15"><a xlink:href="a00735.html" target="_top" xlink:title="CAN_sleep_constants">
<polygon fill="white" stroke="black" points="256,-361.5 256,-380.5 371,-380.5 371,-361.5 256,-361.5"/>
<text text-anchor="middle" x="313.5" y="-368.5" font-family="Helvetica,sans-Serif" font-size="10.00">CAN_sleep_constants</text>
</a>
</g>
</g>
<!-- Node0&#45;&gt;Node10 -->
<g id="edge10" class="edge"><title>Node0&#45;&gt;Node10</title>
<path fill="none" stroke="black" d="M143.859,-486.015C152.919,-559.573 187.76,-813.604 243,-870 249.565,-876.702 258.248,-881.108 267.245,-883.988"/>
<polygon fill="black" stroke="black" points="147.301,-485.325 142.627,-475.817 140.352,-486.164 147.301,-485.325"/>
</g>
<!-- Node0&#45;&gt;Node9 -->
<g id="edge9" class="edge"><title>Node0&#45;&gt;Node9</title>
<path fill="none" stroke="black" d="M140.694,-485.702C139.337,-546.528 143.823,-733.186 243,-832 248.671,-837.65 255.851,-841.663 263.429,-844.504"/>
<polygon fill="black" stroke="black" points="144.197,-485.67 141.006,-475.567 137.2,-485.455 144.197,-485.67"/>
</g>
<!-- Node0&#45;&gt;Node8 -->
<g id="edge8" class="edge"><title>Node0&#45;&gt;Node8</title>
<path fill="none" stroke="black" d="M141.445,-485.889C142.41,-542.695 153.214,-707.15 243,-794 247.136,-798.001 252.029,-801.177 257.275,-803.696"/>
<polygon fill="black" stroke="black" points="144.943,-485.714 141.363,-475.742 137.944,-485.77 144.943,-485.714"/>
</g>
<!-- Node0&#45;&gt;Node2 -->
<g id="edge2" class="edge"><title>Node0&#45;&gt;Node2</title>
<path fill="none" stroke="black" d="M142.387,-485.992C145.821,-538.406 162.483,-680.917 243,-756 250.502,-762.995 260.328,-767.459 270.221,-770.294"/>
<polygon fill="black" stroke="black" points="145.865,-485.503 141.813,-475.714 138.876,-485.893 145.865,-485.503"/>
</g>
<!-- Node0&#45;&gt;Node18 -->
<g id="edge18" class="edge"><title>Node0&#45;&gt;Node18</title>
<path fill="none" stroke="black" d="M144.401,-485.838C152.061,-531.221 176.974,-643.497 243,-706 247.097,-709.879 251.839,-713.163 256.883,-715.942"/>
<polygon fill="black" stroke="black" points="147.835,-485.141 142.811,-475.813 140.921,-486.238 147.835,-485.141"/>
</g>
<!-- Node0&#45;&gt;Node23 -->
<g id="edge23" class="edge"><title>Node0&#45;&gt;Node23</title>
<path fill="none" stroke="black" d="M145.726,-485.732C155.452,-526.255 183.318,-619.141 243,-668 251.034,-674.577 261.164,-678.886 271.186,-681.707"/>
<polygon fill="black" stroke="black" points="149.09,-484.741 143.452,-475.771 142.265,-486.299 149.09,-484.741"/>
</g>
<!-- Node0&#45;&gt;Node12 -->
<g id="edge12" class="edge"><title>Node0&#45;&gt;Node12</title>
<path fill="none" stroke="black" d="M148.019,-485.273C160.682,-519.727 191.931,-591.839 243,-630 250.415,-635.541 259.35,-639.466 268.308,-642.246"/>
<polygon fill="black" stroke="black" points="151.197,-483.759 144.56,-475.501 144.598,-486.095 151.197,-483.759"/>
</g>
<!-- Node0&#45;&gt;Node22 -->
<g id="edge22" class="edge"><title>Node0&#45;&gt;Node22</title>
<path fill="none" stroke="black" d="M151.4,-484.62C167.087,-512.302 200.304,-564.041 243,-592 254.197,-599.332 268.176,-603.855 280.654,-606.635"/>
<polygon fill="black" stroke="black" points="154.32,-482.668 146.428,-475.598 148.189,-486.046 154.32,-482.668"/>
</g>
<!-- Node0&#45;&gt;Node17 -->
<g id="edge17" class="edge"><title>Node0&#45;&gt;Node17</title>
<path fill="none" stroke="black" d="M156.449,-482.927C174.889,-502.786 208.104,-535.362 243,-554 250.172,-557.831 258.182,-560.941 266.143,-563.45"/>
<polygon fill="black" stroke="black" points="159.021,-480.553 149.702,-475.512 153.843,-485.264 159.021,-480.553"/>
</g>
<!-- Node0&#45;&gt;Node16 -->
<g id="edge16" class="edge"><title>Node0&#45;&gt;Node16</title>
<path fill="none" stroke="black" d="M176.336,-479.169C195.905,-486.535 220.787,-495.847 243,-504 251.787,-507.225 261.215,-510.644 270.202,-513.884"/>
<polygon fill="black" stroke="black" points="177.503,-475.868 166.911,-475.617 175.035,-482.419 177.503,-475.868"/>
</g>
<!-- Node0&#45;&gt;Node15 -->
<g id="edge15" class="edge"><title>Node0&#45;&gt;Node15</title>
<path fill="none" stroke="black" d="M217.352,-474.428C232.249,-476.083 247.541,-477.782 261.39,-479.321"/>
<polygon fill="black" stroke="black" points="217.449,-470.917 207.124,-473.292 216.676,-477.875 217.449,-470.917"/>
</g>
<!-- Node0&#45;&gt;Node21 -->
<g id="edge21" class="edge"><title>Node0&#45;&gt;Node21</title>
<path fill="none" stroke="black" d="M217.082,-457.602C225.634,-456.652 234.321,-455.687 242.794,-454.745"/>
<polygon fill="black" stroke="black" points="216.676,-454.125 207.124,-458.708 217.449,-461.083 216.676,-454.125"/>
</g>
<!-- Node0&#45;&gt;Node20 -->
<g id="edge20" class="edge"><title>Node0&#45;&gt;Node20</title>
<path fill="none" stroke="black" d="M174.522,-452.764C194.241,-445.08 219.872,-435.474 243,-428 253.355,-424.654 264.699,-421.388 275.164,-418.533"/>
<polygon fill="black" stroke="black" points="173.102,-449.562 165.074,-456.475 175.661,-456.077 173.102,-449.562"/>
</g>
<!-- Node0&#45;&gt;Node19 -->
<g id="edge19" class="edge"><title>Node0&#45;&gt;Node19</title>
<path fill="none" stroke="black" d="M159.228,-449.405C178.472,-432.229 210.786,-405.752 243,-390 250.754,-386.209 259.377,-383.081 267.837,-380.534"/>
<polygon fill="black" stroke="black" points="156.63,-447.036 151.586,-456.354 161.34,-452.215 156.63,-447.036"/>
</g>
<!-- Node5 -->
<g id="node17" class="node"><title>Node5</title>
<g id="a_node17"><a xlink:href="a00721.html" target="_top" xlink:title="CAN_synchronisation\l_jump_width">
<polygon fill="white" stroke="black" points="257.5,-312 257.5,-342 369.5,-342 369.5,-312 257.5,-312"/>
<text text-anchor="start" x="265.5" y="-330" font-family="Helvetica,sans-Serif" font-size="10.00">CAN_synchronisation</text>
<text text-anchor="middle" x="313.5" y="-319" font-family="Helvetica,sans-Serif" font-size="10.00">_jump_width</text>
</a>
</g>
</g>
<!-- Node0&#45;&gt;Node5 -->
<g id="edge5" class="edge"><title>Node0&#45;&gt;Node5</title>
<path fill="none" stroke="black" d="M153.33,-447.78C170.363,-422.879 204.063,-378.315 243,-352 248.631,-348.195 254.909,-344.893 261.325,-342.05"/>
<polygon fill="black" stroke="black" points="150.294,-446.024 147.642,-456.282 156.112,-449.917 150.294,-446.024"/>
</g>
<!-- Node13 -->
<g id="node18" class="node"><title>Node13</title>
<g id="a_node18"><a xlink:href="a00729.html" target="_top" xlink:title="CAN_Start_bank_filter\l_for_slave_CAN">
<polygon fill="white" stroke="black" points="256,-263 256,-293 371,-293 371,-263 256,-263"/>
<text text-anchor="start" x="264" y="-281" font-family="Helvetica,sans-Serif" font-size="10.00">CAN_Start_bank_filter</text>
<text text-anchor="middle" x="313.5" y="-270" font-family="Helvetica,sans-Serif" font-size="10.00">_for_slave_CAN</text>
</a>
</g>
</g>
<!-- Node0&#45;&gt;Node13 -->
<g id="edge13" class="edge"><title>Node0&#45;&gt;Node13</title>
<path fill="none" stroke="black" d="M148.459,-446.568C161.64,-412.446 193.446,-341.627 243,-302 247.287,-298.572 252.094,-295.618 257.127,-293.076"/>
<polygon fill="black" stroke="black" points="145.055,-445.679 144.834,-456.271 151.612,-448.128 145.055,-445.679"/>
</g>
<!-- Node11 -->
<g id="node19" class="node"><title>Node11</title>
<g id="a_node19"><a xlink:href="a00727.html" target="_top" xlink:title="CAN_filter_scale">
<polygon fill="white" stroke="black" points="268,-224.5 268,-243.5 359,-243.5 359,-224.5 268,-224.5"/>
<text text-anchor="middle" x="313.5" y="-231.5" font-family="Helvetica,sans-Serif" font-size="10.00">CAN_filter_scale</text>
</a>
</g>
</g>
<!-- Node0&#45;&gt;Node11 -->
<g id="edge11" class="edge"><title>Node0&#45;&gt;Node11</title>
<path fill="none" stroke="black" d="M145.151,-446.346C154.014,-404.276 180.694,-305.106 243,-253 250.101,-247.062 258.903,-242.969 267.831,-240.151"/>
<polygon fill="black" stroke="black" points="141.712,-445.69 143.188,-456.182 148.577,-447.06 141.712,-445.69"/>
</g>
<!-- Node3 -->
<g id="node20" class="node"><title>Node3</title>
<g id="a_node20"><a xlink:href="a00719.html" target="_top" xlink:title="CAN_operating_mode">
<polygon fill="white" stroke="black" points="257,-186.5 257,-205.5 370,-205.5 370,-186.5 257,-186.5"/>
<text text-anchor="middle" x="313.5" y="-193.5" font-family="Helvetica,sans-Serif" font-size="10.00">CAN_operating_mode</text>
</a>
</g>
</g>
<!-- Node0&#45;&gt;Node3 -->
<g id="edge3" class="edge"><title>Node0&#45;&gt;Node3</title>
<path fill="none" stroke="black" d="M143.6,-446.178C149.696,-398.818 171.763,-278.328 243,-215 247.394,-211.094 252.517,-207.982 257.954,-205.503"/>
<polygon fill="black" stroke="black" points="140.098,-445.986 142.399,-456.328 147.05,-446.809 140.098,-445.986"/>
</g>
<!-- Node4 -->
<g id="node21" class="node"><title>Node4</title>
<g id="a_node21"><a xlink:href="a00720.html" target="_top" xlink:title="CAN_operating_mode\l_status">
<polygon fill="white" stroke="black" points="257,-137 257,-167 370,-167 370,-137 257,-137"/>
<text text-anchor="start" x="265" y="-155" font-family="Helvetica,sans-Serif" font-size="10.00">CAN_operating_mode</text>
<text text-anchor="middle" x="313.5" y="-144" font-family="Helvetica,sans-Serif" font-size="10.00">_status</text>
</a>
</g>
</g>
<!-- Node0&#45;&gt;Node4 -->
<g id="edge4" class="edge"><title>Node0&#45;&gt;Node4</title>
<path fill="none" stroke="black" d="M142.747,-446.424C147.062,-395.036 165.685,-254.901 243,-177 247.065,-172.904 251.848,-169.476 256.972,-166.607"/>
<polygon fill="black" stroke="black" points="139.25,-446.262 141.995,-456.495 146.23,-446.784 139.25,-446.262"/>
</g>
<!-- Node6 -->
<g id="node22" class="node"><title>Node6</title>
<g id="a_node22"><a xlink:href="a00722.html" target="_top" xlink:title="CAN_time_quantum_in\l_bit_segment_1">
<polygon fill="white" stroke="black" points="254.5,-88 254.5,-118 372.5,-118 372.5,-88 254.5,-88"/>
<text text-anchor="start" x="262.5" y="-106" font-family="Helvetica,sans-Serif" font-size="10.00">CAN_time_quantum_in</text>
<text text-anchor="middle" x="313.5" y="-95" font-family="Helvetica,sans-Serif" font-size="10.00">_bit_segment_1</text>
</a>
</g>
</g>
<!-- Node0&#45;&gt;Node6 -->
<g id="edge6" class="edge"><title>Node0&#45;&gt;Node6</title>
<path fill="none" stroke="black" d="M141.502,-446.14C142.6,-388.625 153.676,-220.118 243,-127 246.358,-123.499 250.25,-120.509 254.445,-117.955"/>
<polygon fill="black" stroke="black" points="138,-446.35 141.395,-456.386 145,-446.423 138,-446.35"/>
</g>
<!-- Node7 -->
<g id="node23" class="node"><title>Node7</title>
<g id="a_node23"><a xlink:href="a00723.html" target="_top" xlink:title="CAN_time_quantum_in\l_bit_segment_2">
<polygon fill="white" stroke="black" points="254.5,-39 254.5,-69 372.5,-69 372.5,-39 254.5,-39"/>
<text text-anchor="start" x="262.5" y="-57" font-family="Helvetica,sans-Serif" font-size="10.00">CAN_time_quantum_in</text>
<text text-anchor="middle" x="313.5" y="-46" font-family="Helvetica,sans-Serif" font-size="10.00">_bit_segment_2</text>
</a>
</g>
</g>
<!-- Node0&#45;&gt;Node7 -->
<g id="edge7" class="edge"><title>Node0&#45;&gt;Node7</title>
<path fill="none" stroke="black" d="M144.22,-445.981C154.293,-374.555 191.572,-133.528 243,-78 246.296,-74.4411 250.145,-71.41 254.31,-68.8283"/>
<polygon fill="black" stroke="black" points="140.699,-445.886 142.792,-456.272 147.633,-446.848 140.699,-445.886"/>
</g>
<!-- Node14 -->
<g id="node24" class="node"><title>Node14</title>
<g id="a_node24"><a xlink:href="a00730.html" target="_top" xlink:title="CAN_Tx">
<polygon fill="white" stroke="black" points="286,-0.5 286,-19.5 341,-19.5 341,-0.5 286,-0.5"/>
<text text-anchor="middle" x="313.5" y="-7.5" font-family="Helvetica,sans-Serif" font-size="10.00">CAN_Tx</text>
</a>
</g>
</g>
<!-- Node0&#45;&gt;Node14 -->
<g id="edge14" class="edge"><title>Node0&#45;&gt;Node14</title>
<path fill="none" stroke="black" d="M143.463,-445.873C151.415,-368.394 183.675,-90.6631 243,-29 254.014,-17.5519 271.205,-12.7864 285.733,-10.8906"/>
<polygon fill="black" stroke="black" points="139.946,-445.867 142.43,-456.166 146.911,-446.566 139.946,-445.867"/>
</g>
</g>
</svg>
