<?xml version="1.0" encoding="UTF-8" standalone="no"?>
<!DOCTYPE svg PUBLIC "-//W3C//DTD SVG 1.1//EN"
 "http://www.w3.org/Graphics/SVG/1.1/DTD/svg11.dtd">
<!-- Generated by graphviz version 2.38.0 (20140413.2041)
 -->
<!-- Title: DAC_CHx_EscalatorConfig Pages: 1 -->
<svg width="304pt" height="180pt"
 viewBox="0.00 0.00 304.00 180.00" xmlns="http://www.w3.org/2000/svg" xmlns:xlink="http://www.w3.org/1999/xlink">
<g id="graph0" class="graph" transform="scale(1 1) rotate(0) translate(4 176)">
<title>DAC_CHx_EscalatorConfig</title>
<polygon fill="white" stroke="none" points="-4,4 -4,-176 300,-176 300,4 -4,4"/>
<!-- Node1 -->
<g id="node1" class="node"><title>Node1</title>
<polygon fill="#bfbfbf" stroke="black" points="0,-76.5 0,-95.5 139,-95.5 139,-76.5 0,-76.5"/>
<text text-anchor="middle" x="69.5" y="-83.5" font-family="Helvetica,sans-Serif" font-size="10.00">DAC_CHx_EscalatorConfig</text>
</g>
<!-- Node2 -->
<g id="node2" class="node"><title>Node2</title>
<g id="a_node2"><a xlink:href="a00006.html#ga7c59850468ed4bf0659663fe495441da" target="_top" xlink:title="Initializes the DAC peripheral according to the specified parameters in the DAC_InitStruct. ">
<polygon fill="white" stroke="black" points="207,-152.5 207,-171.5 264,-171.5 264,-152.5 207,-152.5"/>
<text text-anchor="middle" x="235.5" y="-159.5" font-family="Helvetica,sans-Serif" font-size="10.00">DAC_Init</text>
</a>
</g>
</g>
<!-- Node1&#45;&gt;Node2 -->
<g id="edge1" class="edge"><title>Node1&#45;&gt;Node2</title>
<path fill="none" stroke="midnightblue" d="M85.9656,-95.6556C105.962,-107.851 142.13,-128.939 175,-143 182.071,-146.025 189.79,-148.832 197.257,-151.31"/>
<polygon fill="midnightblue" stroke="midnightblue" points="196.26,-154.665 206.85,-154.368 198.386,-147.996 196.26,-154.665"/>
</g>
<!-- Node3 -->
<g id="node3" class="node"><title>Node3</title>
<g id="a_node3"><a xlink:href="a00010.html#ga38d4a4ab8990299f8a6cf064e1e811d0" target="_top" xlink:title="Deinitialize the DMAy Streamx registers to their default reset values. ">
<polygon fill="white" stroke="black" points="200,-114.5 200,-133.5 271,-133.5 271,-114.5 200,-114.5"/>
<text text-anchor="middle" x="235.5" y="-121.5" font-family="Helvetica,sans-Serif" font-size="10.00">DMA_DeInit</text>
</a>
</g>
</g>
<!-- Node1&#45;&gt;Node3 -->
<g id="edge2" class="edge"><title>Node1&#45;&gt;Node3</title>
<path fill="none" stroke="midnightblue" d="M111.884,-95.589C135.63,-101.091 165.456,-108.002 189.746,-113.63"/>
<polygon fill="midnightblue" stroke="midnightblue" points="189.251,-117.108 199.782,-115.956 190.831,-110.289 189.251,-117.108"/>
</g>
<!-- Node4 -->
<g id="node4" class="node"><title>Node4</title>
<g id="a_node4"><a xlink:href="a00010.html#gaced8a4149acfb0a50b50e63273a87148" target="_top" xlink:title="Initializes the DMAy Streamx according to the specified parameters in the DMA_InitStruct structure...">
<polygon fill="white" stroke="black" points="206.5,-76.5 206.5,-95.5 264.5,-95.5 264.5,-76.5 206.5,-76.5"/>
<text text-anchor="middle" x="235.5" y="-83.5" font-family="Helvetica,sans-Serif" font-size="10.00">DMA_Init</text>
</a>
</g>
</g>
<!-- Node1&#45;&gt;Node4 -->
<g id="edge3" class="edge"><title>Node1&#45;&gt;Node4</title>
<path fill="none" stroke="midnightblue" d="M139.101,-86C158.581,-86 179.098,-86 196.093,-86"/>
<polygon fill="midnightblue" stroke="midnightblue" points="196.179,-89.5001 206.179,-86 196.179,-82.5001 196.179,-89.5001"/>
</g>
<!-- Node5 -->
<g id="node5" class="node"><title>Node5</title>
<g id="a_node5"><a xlink:href="a00006.html#ga323e61530d7fa9396c3bce9edb61f733" target="_top" xlink:title="Enables or disables the specified DAC channel. ">
<polygon fill="white" stroke="black" points="203,-38.5 203,-57.5 268,-57.5 268,-38.5 203,-38.5"/>
<text text-anchor="middle" x="235.5" y="-45.5" font-family="Helvetica,sans-Serif" font-size="10.00">DAC_Cmd</text>
</a>
</g>
</g>
<!-- Node1&#45;&gt;Node5 -->
<g id="edge4" class="edge"><title>Node1&#45;&gt;Node5</title>
<path fill="none" stroke="midnightblue" d="M111.884,-76.411C136.737,-70.6524 168.25,-63.3507 193.105,-57.5916"/>
<polygon fill="midnightblue" stroke="midnightblue" points="194.012,-60.9741 202.964,-55.3071 192.432,-54.1548 194.012,-60.9741"/>
</g>
<!-- Node6 -->
<g id="node6" class="node"><title>Node6</title>
<g id="a_node6"><a xlink:href="a00006.html#ga44e12006ec186791378d132da8541552" target="_top" xlink:title="Set the specified data holding register value for DAC channel2. ">
<polygon fill="white" stroke="black" points="175,-0.5 175,-19.5 296,-19.5 296,-0.5 175,-0.5"/>
<text text-anchor="middle" x="235.5" y="-7.5" font-family="Helvetica,sans-Serif" font-size="10.00">DAC_SetChannel2Data</text>
</a>
</g>
</g>
<!-- Node1&#45;&gt;Node6 -->
<g id="edge5" class="edge"><title>Node1&#45;&gt;Node6</title>
<path fill="none" stroke="midnightblue" d="M85.9656,-76.3444C105.962,-64.1486 142.13,-43.0612 175,-29 180.11,-26.8143 185.558,-24.7422 191.005,-22.8259"/>
<polygon fill="midnightblue" stroke="midnightblue" points="192.371,-26.059 200.734,-19.5538 190.14,-19.4242 192.371,-26.059"/>
</g>
</g>
</svg>
