<?xml version="1.0" encoding="UTF-8" standalone="no"?>
<!DOCTYPE svg PUBLIC "-//W3C//DTD SVG 1.1//EN"
 "http://www.w3.org/Graphics/SVG/1.1/DTD/svg11.dtd">
<!-- Generated by graphviz version 2.38.0 (20140413.2041)
 -->
<!-- Title: HASH_Exported_Constants Pages: 1 -->
<svg width="434pt" height="289pt"
 viewBox="0.00 0.00 434.00 289.00" xmlns="http://www.w3.org/2000/svg" xmlns:xlink="http://www.w3.org/1999/xlink">
<g id="graph0" class="graph" transform="scale(1 1) rotate(0) translate(4 285)">
<title>HASH_Exported_Constants</title>
<polygon fill="white" stroke="none" points="-4,4 -4,-285 430,-285 430,4 -4,4"/>
<!-- Node2 -->
<g id="node1" class="node"><title>Node2</title>
<g id="a_node1"><a xlink:href="a00734.html" target="_top" xlink:title="HASH_Algo_Selection">
<polygon fill="white" stroke="black" points="283.5,-261.5 283.5,-280.5 399.5,-280.5 399.5,-261.5 283.5,-261.5"/>
<text text-anchor="middle" x="341.5" y="-268.5" font-family="Helvetica,sans-Serif" font-size="10.00">HASH_Algo_Selection</text>
</a>
</g>
</g>
<!-- Node1 -->
<g id="node2" class="node"><title>Node1</title>
<g id="a_node2"><a xlink:href="a00103.html" target="_top" xlink:title="HASH driver modules. ">
<polygon fill="white" stroke="black" points="0,-147.5 0,-166.5 45,-166.5 45,-147.5 0,-147.5"/>
<text text-anchor="middle" x="22.5" y="-154.5" font-family="Helvetica,sans-Serif" font-size="10.00">HASH</text>
</a>
</g>
</g>
<!-- Node0 -->
<g id="node3" class="node"><title>Node0</title>
<polygon fill="#bfbfbf" stroke="black" points="81,-147.5 81,-166.5 221,-166.5 221,-147.5 81,-147.5"/>
<text text-anchor="middle" x="151" y="-154.5" font-family="Helvetica,sans-Serif" font-size="10.00">HASH_Exported_Constants</text>
</g>
<!-- Node1&#45;&gt;Node0 -->
<g id="edge1" class="edge"><title>Node1&#45;&gt;Node0</title>
<path fill="none" stroke="black" d="M55.3901,-157C63.2739,-157 72.0278,-157 80.9369,-157"/>
<polygon fill="black" stroke="black" points="55.2462,-153.5 45.2461,-157 55.2461,-160.5 55.2462,-153.5"/>
</g>
<!-- Node0&#45;&gt;Node2 -->
<g id="edge2" class="edge"><title>Node0&#45;&gt;Node2</title>
<path fill="none" stroke="black" d="M166.047,-174.283C184.57,-195.878 219.262,-232.373 257,-252 265.178,-256.253 274.292,-259.561 283.41,-262.131"/>
<polygon fill="black" stroke="black" points="168.664,-171.957 159.555,-166.546 163.301,-176.456 168.664,-171.957"/>
</g>
<!-- Node8 -->
<g id="node4" class="node"><title>Node8</title>
<g id="a_node4"><a xlink:href="a00740.html" target="_top" xlink:title="HASH_flags_definition">
<polygon fill="white" stroke="black" points="283.5,-223.5 283.5,-242.5 399.5,-242.5 399.5,-223.5 283.5,-223.5"/>
<text text-anchor="middle" x="341.5" y="-230.5" font-family="Helvetica,sans-Serif" font-size="10.00">HASH_flags_definition</text>
</a>
</g>
</g>
<!-- Node0&#45;&gt;Node8 -->
<g id="edge8" class="edge"><title>Node0&#45;&gt;Node8</title>
<path fill="none" stroke="black" d="M175.4,-172.133C196.114,-184.926 227.546,-202.895 257,-214 266.877,-217.724 277.698,-220.844 288.18,-223.408"/>
<polygon fill="black" stroke="black" points="177.013,-169.013 166.683,-166.662 173.293,-174.942 177.013,-169.013"/>
</g>
<!-- Node7 -->
<g id="node5" class="node"><title>Node7</title>
<g id="a_node5"><a xlink:href="a00739.html" target="_top" xlink:title="HASH_interrupts_definition">
<polygon fill="white" stroke="black" points="274,-185.5 274,-204.5 409,-204.5 409,-185.5 274,-185.5"/>
<text text-anchor="middle" x="341.5" y="-192.5" font-family="Helvetica,sans-Serif" font-size="10.00">HASH_interrupts_definition</text>
</a>
</g>
</g>
<!-- Node0&#45;&gt;Node7 -->
<g id="edge7" class="edge"><title>Node0&#45;&gt;Node7</title>
<path fill="none" stroke="black" d="M209.589,-168.61C236.398,-174.014 267.895,-180.364 293.276,-185.48"/>
<polygon fill="black" stroke="black" points="210.061,-165.134 199.567,-166.589 208.678,-171.996 210.061,-165.134"/>
</g>
<!-- Node3 -->
<g id="node6" class="node"><title>Node3</title>
<g id="a_node6"><a xlink:href="a00735.html" target="_top" xlink:title="HASH_processor_Algorithm_Mode">
<polygon fill="white" stroke="black" points="257,-147.5 257,-166.5 426,-166.5 426,-147.5 257,-147.5"/>
<text text-anchor="middle" x="341.5" y="-154.5" font-family="Helvetica,sans-Serif" font-size="10.00">HASH_processor_Algorithm_Mode</text>
</a>
</g>
</g>
<!-- Node0&#45;&gt;Node3 -->
<g id="edge3" class="edge"><title>Node0&#45;&gt;Node3</title>
<path fill="none" stroke="black" d="M231.354,-157C239.827,-157 248.464,-157 256.983,-157"/>
<polygon fill="black" stroke="black" points="231.12,-153.5 221.12,-157 231.12,-160.5 231.12,-153.5"/>
</g>
<!-- Node5 -->
<g id="node7" class="node"><title>Node5</title>
<g id="a_node7"><a xlink:href="a00737.html" target="_top" xlink:title="HASH_HMAC_Long_key\l_only_for_HMAC_mode">
<polygon fill="white" stroke="black" points="277.5,-98 277.5,-128 405.5,-128 405.5,-98 277.5,-98"/>
<text text-anchor="start" x="285.5" y="-116" font-family="Helvetica,sans-Serif" font-size="10.00">HASH_HMAC_Long_key</text>
<text text-anchor="middle" x="341.5" y="-105" font-family="Helvetica,sans-Serif" font-size="10.00">_only_for_HMAC_mode</text>
</a>
</g>
</g>
<!-- Node0&#45;&gt;Node5 -->
<g id="edge5" class="edge"><title>Node0&#45;&gt;Node5</title>
<path fill="none" stroke="black" d="M202.788,-145.145C225.764,-139.782 253.152,-133.389 277.429,-127.722"/>
<polygon fill="black" stroke="black" points="201.844,-141.771 192.902,-147.453 203.436,-148.588 201.844,-141.771"/>
</g>
<!-- Node6 -->
<g id="node8" class="node"><title>Node6</title>
<g id="a_node8"><a xlink:href="a00738.html" target="_top" xlink:title="Number_of_valid_bits\l_in_last_word_of_the\l_message">
<polygon fill="white" stroke="black" points="286,-38.5 286,-79.5 397,-79.5 397,-38.5 286,-38.5"/>
<text text-anchor="start" x="294" y="-67.5" font-family="Helvetica,sans-Serif" font-size="10.00">Number_of_valid_bits</text>
<text text-anchor="start" x="294" y="-56.5" font-family="Helvetica,sans-Serif" font-size="10.00">_in_last_word_of_the</text>
<text text-anchor="middle" x="341.5" y="-45.5" font-family="Helvetica,sans-Serif" font-size="10.00">_message</text>
</a>
</g>
</g>
<!-- Node0&#45;&gt;Node6 -->
<g id="edge6" class="edge"><title>Node0&#45;&gt;Node6</title>
<path fill="none" stroke="black" d="M172.58,-141.259C193.11,-126.102 225.979,-103.285 257,-88 266.085,-83.5233 276.036,-79.4273 285.802,-75.8134"/>
<polygon fill="black" stroke="black" points="170.233,-138.643 164.322,-147.435 174.426,-144.249 170.233,-138.643"/>
</g>
<!-- Node4 -->
<g id="node9" class="node"><title>Node4</title>
<g id="a_node9"><a xlink:href="a00736.html" target="_top" xlink:title="HASH_Data_Type">
<polygon fill="white" stroke="black" points="292.5,-0.5 292.5,-19.5 390.5,-19.5 390.5,-0.5 292.5,-0.5"/>
<text text-anchor="middle" x="341.5" y="-7.5" font-family="Helvetica,sans-Serif" font-size="10.00">HASH_Data_Type</text>
</a>
</g>
</g>
<!-- Node0&#45;&gt;Node4 -->
<g id="edge4" class="edge"><title>Node0&#45;&gt;Node4</title>
<path fill="none" stroke="black" d="M161.732,-138.634C177.688,-110.406 212.169,-56.7185 257,-29 267.622,-22.4325 280.263,-18.1292 292.455,-15.3114"/>
<polygon fill="black" stroke="black" points="158.623,-137.024 156.874,-147.473 164.758,-140.395 158.623,-137.024"/>
</g>
</g>
</svg>
