<?xml version="1.0" encoding="UTF-8" standalone="no"?>
<!DOCTYPE svg PUBLIC "-//W3C//DTD SVG 1.1//EN"
 "http://www.w3.org/Graphics/SVG/1.1/DTD/svg11.dtd">
<!-- Generated by graphviz version 2.38.0 (20140413.2041)
 -->
<!-- Title: FLASH_Exported_Constants Pages: 1 -->
<!--zoomable 668 -->
<svg id="main" version="1.1" xmlns="http://www.w3.org/2000/svg" xmlns:xlink="http://www.w3.org/1999/xlink" xml:space="preserve" onload="init(evt)">
<style type="text/css"><![CDATA[
.edge:hover path { stroke: red; }
.edge:hover polygon { stroke: red; fill: red; }
]]></style>
<script type="text/javascript"><![CDATA[
var edges = document.getElementsByTagName('g');
if (edges && edges.length) {
  for (var i=0;i<edges.length;i++) {
    if (edges[i].id.substr(0,4)=='edge') {
      edges[i].setAttribute('class','edge');
    }
  }
}
]]></script>
        <defs>
                <circle id="rim" cx="0" cy="0" r="7"/>
                <circle id="rim2" cx="0" cy="0" r="3.5"/>
                <g id="zoomPlus">
                        <use xlink:href="#rim" fill="#404040">
                                <set attributeName="fill" to="#808080" begin="zoomplus.mouseover" end="zoomplus.mouseout"/>
                        </use>
                        <path d="M-4,0h8M0,-4v8" fill="none" stroke="white" stroke-width="1.5" pointer-events="none"/>
                </g>
                <g id="zoomMin">
                        <use xlink:href="#rim" fill="#404040">
                                <set attributeName="fill" to="#808080" begin="zoomminus.mouseover" end="zoomminus.mouseout"/>
                        </use>
                        <path d="M-4,0h8" fill="none" stroke="white" stroke-width="1.5" pointer-events="none"/>
                </g>
                <g id="dirArrow">
                        <path fill="none" stroke="white" stroke-width="1.5" d="M0,-3.0v7 M-2.5,-0.5L0,-3.0L2.5,-0.5"/>
                </g>
               <g id="resetDef">
                       <use xlink:href="#rim2" fill="#404040">
                               <set attributeName="fill" to="#808080" begin="reset.mouseover" end="reset.mouseout"/>
                       </use>
               </g>
        </defs>

<script type="text/javascript">
var viewWidth = 438;
var viewHeight = 668;
var sectionId = 'dynsection-0';
</script>
<script xlink:href="svgpan.js"/>
<svg id="graph" class="graph">
<g id="viewport">
<title>FLASH_Exported_Constants</title>
<polygon fill="white" stroke="none" points="-4,4 -4,-664 434,-664 434,4 -4,4"/>
<!-- Node8 -->
<g id="node1" class="node"><title>Node8</title>
<g id="a_node1"><a xlink:href="a00718.html" target="_top" xlink:title="FLASH_Option_Bytes\l_Read_Protection">
<polygon fill="white" stroke="black" points="300,-629.5 300,-659.5 413,-659.5 413,-629.5 300,-629.5"/>
<text text-anchor="start" x="308" y="-647.5" font-family="Helvetica,sans-Serif" font-size="10.00">FLASH_Option_Bytes</text>
<text text-anchor="middle" x="356.5" y="-636.5" font-family="Helvetica,sans-Serif" font-size="10.00">_Read_Protection</text>
</a>
</g>
</g>
<!-- Node4 -->
<g id="node2" class="node"><title>Node4</title>
<g id="a_node2"><a xlink:href="a00714.html" target="_top" xlink:title="FLASH_Sectors">
<polygon fill="white" stroke="black" points="312.5,-591 312.5,-610 400.5,-610 400.5,-591 312.5,-591"/>
<text text-anchor="middle" x="356.5" y="-598" font-family="Helvetica,sans-Serif" font-size="10.00">FLASH_Sectors</text>
</a>
</g>
</g>
<!-- Node12 -->
<g id="node3" class="node"><title>Node12</title>
<g id="a_node3"><a xlink:href="a00722.html" target="_top" xlink:title="FLASH_BOR_Reset_Level">
<polygon fill="white" stroke="black" points="288.5,-553 288.5,-572 424.5,-572 424.5,-553 288.5,-553"/>
<text text-anchor="middle" x="356.5" y="-560" font-family="Helvetica,sans-Serif" font-size="10.00">FLASH_BOR_Reset_Level</text>
</a>
</g>
</g>
<!-- Node5 -->
<g id="node4" class="node"><title>Node5</title>
<g id="a_node4"><a xlink:href="a00715.html" target="_top" xlink:title="Option_Bytes_Write\l_Protection">
<polygon fill="white" stroke="black" points="304.5,-503.5 304.5,-533.5 408.5,-533.5 408.5,-503.5 304.5,-503.5"/>
<text text-anchor="start" x="312.5" y="-521.5" font-family="Helvetica,sans-Serif" font-size="10.00">Option_Bytes_Write</text>
<text text-anchor="middle" x="356.5" y="-510.5" font-family="Helvetica,sans-Serif" font-size="10.00">_Protection</text>
</a>
</g>
</g>
<!-- Node6 -->
<g id="node5" class="node"><title>Node6</title>
<g id="a_node5"><a xlink:href="a00716.html" target="_top" xlink:title="Selection_Protection_Mode">
<polygon fill="white" stroke="black" points="288.5,-465 288.5,-484 424.5,-484 424.5,-465 288.5,-465"/>
<text text-anchor="middle" x="356.5" y="-472" font-family="Helvetica,sans-Serif" font-size="10.00">Selection_Protection_Mode</text>
</a>
</g>
</g>
<!-- Node10 -->
<g id="node6" class="node"><title>Node10</title>
<g id="a_node6"><a xlink:href="a00720.html" target="_top" xlink:title="FLASH_Option_Bytes\l_nRST_STOP">
<polygon fill="white" stroke="black" points="300,-415.5 300,-445.5 413,-445.5 413,-415.5 300,-415.5"/>
<text text-anchor="start" x="308" y="-433.5" font-family="Helvetica,sans-Serif" font-size="10.00">FLASH_Option_Bytes</text>
<text text-anchor="middle" x="356.5" y="-422.5" font-family="Helvetica,sans-Serif" font-size="10.00">_nRST_STOP</text>
</a>
</g>
</g>
<!-- Node9 -->
<g id="node7" class="node"><title>Node9</title>
<g id="a_node7"><a xlink:href="a00719.html" target="_top" xlink:title="FLASH_Option_Bytes\l_IWatchdog">
<polygon fill="white" stroke="black" points="300,-366.5 300,-396.5 413,-396.5 413,-366.5 300,-366.5"/>
<text text-anchor="start" x="308" y="-384.5" font-family="Helvetica,sans-Serif" font-size="10.00">FLASH_Option_Bytes</text>
<text text-anchor="middle" x="356.5" y="-373.5" font-family="Helvetica,sans-Serif" font-size="10.00">_IWatchdog</text>
</a>
</g>
</g>
<!-- Node14 -->
<g id="node8" class="node"><title>Node14</title>
<g id="a_node8"><a xlink:href="a00724.html" target="_top" xlink:title="FLASH_Interrupts">
<polygon fill="white" stroke="black" points="309,-328 309,-347 404,-347 404,-328 309,-328"/>
<text text-anchor="middle" x="356.5" y="-335" font-family="Helvetica,sans-Serif" font-size="10.00">FLASH_Interrupts</text>
</a>
</g>
</g>
<!-- Node7 -->
<g id="node9" class="node"><title>Node7</title>
<g id="a_node9"><a xlink:href="a00717.html" target="_top" xlink:title="Option_Bytes_PC_ReadWrite\l_Protection">
<polygon fill="white" stroke="black" points="283,-278.5 283,-308.5 430,-308.5 430,-278.5 283,-278.5"/>
<text text-anchor="start" x="291" y="-296.5" font-family="Helvetica,sans-Serif" font-size="10.00">Option_Bytes_PC_ReadWrite</text>
<text text-anchor="middle" x="356.5" y="-285.5" font-family="Helvetica,sans-Serif" font-size="10.00">_Protection</text>
</a>
</g>
</g>
<!-- Node2 -->
<g id="node10" class="node"><title>Node2</title>
<g id="a_node10"><a xlink:href="a00712.html" target="_top" xlink:title="Flash_Latency">
<polygon fill="white" stroke="black" points="316.5,-240 316.5,-259 396.5,-259 396.5,-240 316.5,-240"/>
<text text-anchor="middle" x="356.5" y="-247" font-family="Helvetica,sans-Serif" font-size="10.00">Flash_Latency</text>
</a>
</g>
</g>
<!-- Node3 -->
<g id="node11" class="node"><title>Node3</title>
<g id="a_node11"><a xlink:href="a00713.html" target="_top" xlink:title="FLASH_Voltage_Range">
<polygon fill="white" stroke="black" points="296,-202 296,-221 417,-221 417,-202 296,-202"/>
<text text-anchor="middle" x="356.5" y="-209" font-family="Helvetica,sans-Serif" font-size="10.00">FLASH_Voltage_Range</text>
</a>
</g>
</g>
<!-- Node15 -->
<g id="node12" class="node"><title>Node15</title>
<g id="a_node12"><a xlink:href="a00725.html" target="_top" xlink:title="FLASH_Flags">
<polygon fill="white" stroke="black" points="317.5,-164 317.5,-183 395.5,-183 395.5,-164 317.5,-164"/>
<text text-anchor="middle" x="356.5" y="-171" font-family="Helvetica,sans-Serif" font-size="10.00">FLASH_Flags</text>
</a>
</g>
</g>
<!-- Node17 -->
<g id="node13" class="node"><title>Node17</title>
<g id="a_node13"><a xlink:href="a00727.html" target="_top" xlink:title="FLASH_Keys">
<polygon fill="white" stroke="black" points="318,-126 318,-145 395,-145 395,-126 318,-126"/>
<text text-anchor="middle" x="356.5" y="-133" font-family="Helvetica,sans-Serif" font-size="10.00">FLASH_Keys</text>
</a>
</g>
</g>
<!-- Node13 -->
<g id="node14" class="node"><title>Node13</title>
<g id="a_node14"><a xlink:href="a00723.html" target="_top" xlink:title="FLASH_Dual_Boot">
<polygon fill="white" stroke="black" points="306.5,-88 306.5,-107 406.5,-107 406.5,-88 306.5,-88"/>
<text text-anchor="middle" x="356.5" y="-95" font-family="Helvetica,sans-Serif" font-size="10.00">FLASH_Dual_Boot</text>
</a>
</g>
</g>
<!-- Node16 -->
<g id="node15" class="node"><title>Node16</title>
<g id="a_node15"><a xlink:href="a00726.html" target="_top" xlink:title="FLASH_Program_Parallelism">
<polygon fill="white" stroke="black" points="284.5,-50 284.5,-69 428.5,-69 428.5,-50 284.5,-50"/>
<text text-anchor="middle" x="356.5" y="-57" font-family="Helvetica,sans-Serif" font-size="10.00">FLASH_Program_Parallelism</text>
</a>
</g>
</g>
<!-- Node0 -->
<g id="node16" class="node"><title>Node0</title>
<polygon fill="#bfbfbf" stroke="black" points="104,-306 104,-325 247,-325 247,-306 104,-306"/>
<text text-anchor="middle" x="175.5" y="-313" font-family="Helvetica,sans-Serif" font-size="10.00">FLASH_Exported_Constants</text>
</g>
<!-- Node0&#45;&gt;Node8 -->
<g id="edge8" class="edge"><title>Node0&#45;&gt;Node8</title>
<path fill="none" stroke="black" d="M177.675,-335.449C181.903,-389.064 200.83,-537.732 283,-619.5 287.813,-624.29 293.586,-628.163 299.745,-631.295"/>
<polygon fill="black" stroke="black" points="181.151,-334.978 176.963,-325.246 174.168,-335.465 181.151,-334.978"/>
</g>
<!-- Node0&#45;&gt;Node4 -->
<g id="edge4" class="edge"><title>Node0&#45;&gt;Node4</title>
<path fill="none" stroke="black" d="M178.431,-335.244C184.339,-384.591 206.707,-514.162 283,-581.5 291.195,-588.733 301.817,-593.265 312.392,-596.089"/>
<polygon fill="black" stroke="black" points="181.903,-334.798 177.332,-325.239 174.945,-335.562 181.903,-334.798"/>
</g>
<!-- Node0&#45;&gt;Node12 -->
<g id="edge12" class="edge"><title>Node0&#45;&gt;Node12</title>
<path fill="none" stroke="black" d="M179.855,-335.064C188.49,-379.273 215.71,-487.389 283,-543.5 287.597,-547.333 292.883,-550.402 298.461,-552.858"/>
<polygon fill="black" stroke="black" points="183.263,-334.247 178.008,-325.048 176.379,-335.517 183.263,-334.247"/>
</g>
<!-- Node0&#45;&gt;Node5 -->
<g id="edge5" class="edge"><title>Node0&#45;&gt;Node5</title>
<path fill="none" stroke="black" d="M183.049,-335.071C196.209,-371.485 229.282,-449.897 283,-493.5 289.306,-498.618 296.723,-502.717 304.364,-505.991"/>
<polygon fill="black" stroke="black" points="186.205,-333.491 179.604,-325.203 179.596,-335.798 186.205,-333.491"/>
</g>
<!-- Node0&#45;&gt;Node6 -->
<g id="edge6" class="edge"><title>Node0&#45;&gt;Node6</title>
<path fill="none" stroke="black" d="M185.441,-334.118C200.948,-364.369 235.756,-423.977 283,-455.5 288.845,-459.4 295.45,-462.5 302.234,-464.964"/>
<polygon fill="black" stroke="black" points="188.524,-332.457 180.932,-325.068 182.259,-335.579 188.524,-332.457"/>
</g>
<!-- Node0&#45;&gt;Node10 -->
<g id="edge10" class="edge"><title>Node0&#45;&gt;Node10</title>
<path fill="none" stroke="black" d="M192.157,-332.398C211.68,-352.578 246.905,-386.149 283,-406.5 288.89,-409.821 295.311,-412.771 301.817,-415.367"/>
<polygon fill="black" stroke="black" points="194.674,-329.967 185.246,-325.133 189.602,-334.791 194.674,-329.967"/>
</g>
<!-- Node0&#45;&gt;Node9 -->
<g id="edge9" class="edge"><title>Node0&#45;&gt;Node9</title>
<path fill="none" stroke="black" d="M209.923,-328.716C230.85,-336.904 258.416,-347.532 283,-356.5 292.006,-359.785 301.681,-363.2 310.936,-366.411"/>
<polygon fill="black" stroke="black" points="211.105,-325.42 200.518,-325.026 208.548,-331.937 211.105,-325.42"/>
</g>
<!-- Node0&#45;&gt;Node14 -->
<g id="edge14" class="edge"><title>Node0&#45;&gt;Node14</title>
<path fill="none" stroke="black" d="M257.535,-325.46C275.132,-327.622 293.169,-329.839 308.893,-331.772"/>
<polygon fill="black" stroke="black" points="257.598,-321.941 247.246,-324.195 256.744,-328.889 257.598,-321.941"/>
</g>
<!-- Node0&#45;&gt;Node7 -->
<g id="edge7" class="edge"><title>Node0&#45;&gt;Node7</title>
<path fill="none" stroke="black" d="M257.228,-305.578C265.789,-304.526 274.459,-303.46 282.92,-302.42"/>
<polygon fill="black" stroke="black" points="256.744,-302.111 247.246,-306.805 257.598,-309.059 256.744,-302.111"/>
</g>
<!-- Node0&#45;&gt;Node2 -->
<g id="edge2" class="edge"><title>Node0&#45;&gt;Node2</title>
<path fill="none" stroke="black" d="M204.832,-301.515C226.01,-291.428 255.864,-277.976 283,-268.5 293.687,-264.768 305.484,-261.378 316.402,-258.529"/>
<polygon fill="black" stroke="black" points="203.245,-298.395 195.754,-305.886 206.282,-304.702 203.245,-298.395"/>
</g>
<!-- Node0&#45;&gt;Node3 -->
<g id="edge3" class="edge"><title>Node0&#45;&gt;Node3</title>
<path fill="none" stroke="black" d="M193.054,-298.546C212.765,-279.31 247.503,-248.306 283,-230.5 290.56,-226.708 298.955,-223.616 307.273,-221.114"/>
<polygon fill="black" stroke="black" points="190.422,-296.228 185.8,-305.762 195.358,-301.191 190.422,-296.228"/>
</g>
<!-- Node0&#45;&gt;Node15 -->
<g id="edge15" class="edge"><title>Node0&#45;&gt;Node15</title>
<path fill="none" stroke="black" d="M187.447,-296.879C204.408,-269.704 239.643,-219.486 283,-192.5 293.274,-186.106 305.651,-181.85 317.247,-179.022"/>
<polygon fill="black" stroke="black" points="184.25,-295.4 182.045,-305.763 190.231,-299.038 184.25,-295.4"/>
</g>
<!-- Node0&#45;&gt;Node17 -->
<g id="edge17" class="edge"><title>Node0&#45;&gt;Node17</title>
<path fill="none" stroke="black" d="M183.874,-296.032C197.819,-261.921 231.364,-191.468 283,-154.5 293.157,-147.228 305.891,-142.739 317.842,-139.967"/>
<polygon fill="black" stroke="black" points="180.457,-295.155 180.037,-305.742 186.967,-297.728 180.457,-295.155"/>
</g>
<!-- Node0&#45;&gt;Node13 -->
<g id="edge13" class="edge"><title>Node0&#45;&gt;Node13</title>
<path fill="none" stroke="black" d="M181.284,-295.989C192.143,-255.934 222.537,-164.191 283,-116.5 289.845,-111.101 298.073,-107.227 306.491,-104.448"/>
<polygon fill="black" stroke="black" points="177.852,-295.278 178.73,-305.837 184.628,-297.036 177.852,-295.278"/>
</g>
<!-- Node0&#45;&gt;Node16 -->
<g id="edge16" class="edge"><title>Node0&#45;&gt;Node16</title>
<path fill="none" stroke="black" d="M179.555,-295.472C187.616,-249.738 213.802,-137.067 283,-78.5 287.569,-74.6331 292.836,-71.5425 298.404,-69.0739"/>
<polygon fill="black" stroke="black" points="176.062,-295.146 177.881,-305.584 182.968,-296.29 176.062,-295.146"/>
</g>
<!-- Node11 -->
<g id="node17" class="node"><title>Node11</title>
<g id="a_node17"><a xlink:href="a00721.html" target="_top" xlink:title="FLASH_Option_Bytes\l_nRST_STDBY">
<polygon fill="white" stroke="black" points="300,-0.5 300,-30.5 413,-30.5 413,-0.5 300,-0.5"/>
<text text-anchor="start" x="308" y="-18.5" font-family="Helvetica,sans-Serif" font-size="10.00">FLASH_Option_Bytes</text>
<text text-anchor="middle" x="356.5" y="-7.5" font-family="Helvetica,sans-Serif" font-size="10.00">_nRST_STDBY</text>
</a>
</g>
</g>
<!-- Node0&#45;&gt;Node11 -->
<g id="edge11" class="edge"><title>Node0&#45;&gt;Node11</title>
<path fill="none" stroke="black" d="M178.493,-295.797C184.582,-245.894 207.398,-113.324 283,-40.5 287.89,-35.7893 293.71,-31.9633 299.894,-28.8565"/>
<polygon fill="black" stroke="black" points="174.998,-295.558 177.358,-305.886 181.954,-296.341 174.998,-295.558"/>
</g>
<!-- Node1 -->
<g id="node18" class="node"><title>Node1</title>
<g id="a_node18"><a xlink:href="a01009.html" target="_top" xlink:title="FLASH driver modules. ">
<polygon fill="white" stroke="black" points="0,-306 0,-325 68,-325 68,-306 0,-306"/>
<text text-anchor="middle" x="34" y="-313" font-family="Helvetica,sans-Serif" font-size="10.00">RAMFUNC</text>
</a>
</g>
</g>
<!-- Node1&#45;&gt;Node0 -->
<g id="edge1" class="edge"><title>Node1&#45;&gt;Node0</title>
<path fill="none" stroke="black" d="M78.0668,-315.5C86.2435,-315.5 94.9963,-315.5 103.77,-315.5"/>
<polygon fill="black" stroke="black" points="78.0596,-312 68.0596,-315.5 78.0595,-319 78.0596,-312"/>
</g>
</g>
</svg>
        <g id="navigator" transform="translate(0 0)" fill="#404254">
                <rect fill="#f2f5e9" fill-opacity="0.5" stroke="#606060" stroke-width=".5" x="0" y="0" width="60" height="60"/>
                <use id="zoomplus" xlink:href="#zoomPlus" x="17" y="9" onmousedown="handleZoom(evt,'in')"/>
                <use id="zoomminus" xlink:href="#zoomMin" x="42" y="9" onmousedown="handleZoom(evt,'out')"/>
                <use id="reset" xlink:href="#resetDef" x="30" y="36" onmousedown="handleReset()"/>
                <g id="arrowUp" xlink:href="#dirArrow" transform="translate(30 24)" onmousedown="handlePan(0,-1)">
                  <use xlink:href="#rim" fill="#404040">
                        <set attributeName="fill" to="#808080" begin="arrowUp.mouseover" end="arrowUp.mouseout"/>
                  </use>
                  <path fill="none" stroke="white" stroke-width="1.5" d="M0,-3.0v7 M-2.5,-0.5L0,-3.0L2.5,-0.5"/>
                </g>
                <g id="arrowRight" xlink:href="#dirArrow" transform="rotate(90) translate(36 -43)" onmousedown="handlePan(1,0)">
                  <use xlink:href="#rim" fill="#404040">
                        <set attributeName="fill" to="#808080" begin="arrowRight.mouseover" end="arrowRight.mouseout"/>
                  </use>
                  <path fill="none" stroke="white" stroke-width="1.5" d="M0,-3.0v7 M-2.5,-0.5L0,-3.0L2.5,-0.5"/>
                </g>
                <g id="arrowDown" xlink:href="#dirArrow" transform="rotate(180) translate(-30 -48)" onmousedown="handlePan(0,1)">
                  <use xlink:href="#rim" fill="#404040">
                        <set attributeName="fill" to="#808080" begin="arrowDown.mouseover" end="arrowDown.mouseout"/>
                  </use>
                  <path fill="none" stroke="white" stroke-width="1.5" d="M0,-3.0v7 M-2.5,-0.5L0,-3.0L2.5,-0.5"/>
                </g>
                <g id="arrowLeft" xlink:href="#dirArrow" transform="rotate(270) translate(-36 17)" onmousedown="handlePan(-1,0)">
                  <use xlink:href="#rim" fill="#404040">
                        <set attributeName="fill" to="#808080" begin="arrowLeft.mouseover" end="arrowLeft.mouseout"/>
                  </use>
                  <path fill="none" stroke="white" stroke-width="1.5" d="M0,-3.0v7 M-2.5,-0.5L0,-3.0L2.5,-0.5"/>
                </g>
        </g>
        <svg viewBox="0 0 15 15" width="100%" height="30px" preserveAspectRatio="xMaxYMin meet">
         <g id="arrow_out" transform="scale(0.3 0.3)">
          <a xlink:href="a00711_org.svg" target="_base">
           <rect id="button" ry="5" rx="5" y="6" x="6" height="38" width="38"
                fill="#f2f5e9" fill-opacity="0.5" stroke="#606060" stroke-width="1.0"/>
           <path id="arrow"
             d="M 11.500037,31.436501 C 11.940474,20.09759 22.043105,11.32322 32.158766,21.979434 L 37.068811,17.246167 C 37.068811,17.246167 37.088388,32 37.088388,32 L 22.160133,31.978069 C 22.160133,31.978069 26.997745,27.140456 26.997745,27.140456 C 18.528582,18.264221 13.291696,25.230495 11.500037,31.436501 z"
             style="fill:#404040;"/>
          </a>
         </g>
        </svg>
</svg>
