<?xml version="1.0" encoding="UTF-8" standalone="no"?>
<!DOCTYPE svg PUBLIC "-//W3C//DTD SVG 1.1//EN"
 "http://www.w3.org/Graphics/SVG/1.1/DTD/svg11.dtd">
<!-- Generated by graphviz version 2.38.0 (20140413.2041)
 -->
<!-- Title: console.c Pages: 1 -->
<svg width="174pt" height="196pt"
 viewBox="0.00 0.00 173.50 196.00" xmlns="http://www.w3.org/2000/svg" xmlns:xlink="http://www.w3.org/1999/xlink">
<g id="graph0" class="graph" transform="scale(1 1) rotate(0) translate(4 192)">
<title>console.c</title>
<polygon fill="white" stroke="none" points="-4,4 -4,-192 169.5,-192 169.5,4 -4,4"/>
<!-- Node1 -->
<g id="node1" class="node"><title>Node1</title>
<polygon fill="#bfbfbf" stroke="black" points="68,-168.5 68,-187.5 127,-187.5 127,-168.5 68,-168.5"/>
<text text-anchor="middle" x="97.5" y="-175.5" font-family="Helvetica,sans-Serif" font-size="10.00">console.c</text>
</g>
<!-- Node2 -->
<g id="node2" class="node"><title>Node2</title>
<g id="a_node2"><a xlink:href="a00404.html" target="_top" xlink:title="TODO. ">
<polygon fill="white" stroke="black" points="68,-112.5 68,-131.5 127,-131.5 127,-112.5 68,-112.5"/>
<text text-anchor="middle" x="97.5" y="-119.5" font-family="Helvetica,sans-Serif" font-size="10.00">console.h</text>
</a>
</g>
</g>
<!-- Node1&#45;&gt;Node2 -->
<g id="edge1" class="edge"><title>Node1&#45;&gt;Node2</title>
<path fill="none" stroke="midnightblue" d="M97.5,-168.083C97.5,-161.006 97.5,-150.861 97.5,-141.986"/>
<polygon fill="midnightblue" stroke="midnightblue" points="101,-141.751 97.5,-131.751 94.0001,-141.751 101,-141.751"/>
</g>
<!-- Node3 -->
<g id="node3" class="node"><title>Node3</title>
<g id="a_node3"><a xlink:href="a00319_source.html" target="_top" xlink:title="arm_math.h">
<polygon fill="white" stroke="black" points="23.5,-56.5 23.5,-75.5 91.5,-75.5 91.5,-56.5 23.5,-56.5"/>
<text text-anchor="middle" x="57.5" y="-63.5" font-family="Helvetica,sans-Serif" font-size="10.00">arm_math.h</text>
</a>
</g>
</g>
<!-- Node2&#45;&gt;Node3 -->
<g id="edge2" class="edge"><title>Node2&#45;&gt;Node3</title>
<path fill="none" stroke="midnightblue" d="M90.8948,-112.083C85.2448,-104.455 76.9552,-93.2645 70.0488,-83.9408"/>
<polygon fill="midnightblue" stroke="midnightblue" points="72.7471,-81.7034 63.9823,-75.7511 67.1221,-85.87 72.7471,-81.7034"/>
</g>
<!-- Node6 -->
<g id="node6" class="node"><title>Node6</title>
<g id="a_node6"><a xlink:href="a00415.html" target="_top" xlink:title="Global defines include file. ">
<polygon fill="white" stroke="black" points="109.5,-56.5 109.5,-75.5 165.5,-75.5 165.5,-56.5 109.5,-56.5"/>
<text text-anchor="middle" x="137.5" y="-63.5" font-family="Helvetica,sans-Serif" font-size="10.00">globals.h</text>
</a>
</g>
</g>
<!-- Node2&#45;&gt;Node6 -->
<g id="edge5" class="edge"><title>Node2&#45;&gt;Node6</title>
<path fill="none" stroke="midnightblue" d="M104.105,-112.083C109.755,-104.455 118.045,-93.2645 124.951,-83.9408"/>
<polygon fill="midnightblue" stroke="midnightblue" points="127.878,-85.87 131.018,-75.7511 122.253,-81.7034 127.878,-85.87"/>
</g>
<!-- Node4 -->
<g id="node4" class="node"><title>Node4</title>
<polygon fill="white" stroke="#bfbfbf" points="0,-0.5 0,-19.5 49,-19.5 49,-0.5 0,-0.5"/>
<text text-anchor="middle" x="24.5" y="-7.5" font-family="Helvetica,sans-Serif" font-size="10.00">string.h</text>
</g>
<!-- Node3&#45;&gt;Node4 -->
<g id="edge3" class="edge"><title>Node3&#45;&gt;Node4</title>
<path fill="none" stroke="midnightblue" d="M52.0507,-56.083C47.4855,-48.6127 40.8316,-37.7244 35.2066,-28.5199"/>
<polygon fill="midnightblue" stroke="midnightblue" points="38.0489,-26.4588 29.8479,-19.7511 32.0759,-30.109 38.0489,-26.4588"/>
</g>
<!-- Node5 -->
<g id="node5" class="node"><title>Node5</title>
<polygon fill="white" stroke="#bfbfbf" points="67,-0.5 67,-19.5 114,-19.5 114,-0.5 67,-0.5"/>
<text text-anchor="middle" x="90.5" y="-7.5" font-family="Helvetica,sans-Serif" font-size="10.00">math.h</text>
</g>
<!-- Node3&#45;&gt;Node5 -->
<g id="edge4" class="edge"><title>Node3&#45;&gt;Node5</title>
<path fill="none" stroke="midnightblue" d="M62.9493,-56.083C67.5145,-48.6127 74.1684,-37.7244 79.7934,-28.5199"/>
<polygon fill="midnightblue" stroke="midnightblue" points="82.9241,-30.109 85.1521,-19.7511 76.9511,-26.4588 82.9241,-30.109"/>
</g>
</g>
</svg>
