<?xml version="1.0" encoding="UTF-8" standalone="no"?>
<!DOCTYPE svg PUBLIC "-//W3C//DTD SVG 1.1//EN"
 "http://www.w3.org/Graphics/SVG/1.1/DTD/svg11.dtd">
<!-- Generated by graphviz version 2.38.0 (20140413.2041)
 -->
<!-- Title: attributes.h Pages: 1 -->
<!--zoomable 364 -->
<svg id="main" version="1.1" xmlns="http://www.w3.org/2000/svg" xmlns:xlink="http://www.w3.org/1999/xlink" xml:space="preserve" onload="init(evt)">
<style type="text/css"><![CDATA[
.edge:hover path { stroke: red; }
.edge:hover polygon { stroke: red; fill: red; }
]]></style>
<script type="text/javascript"><![CDATA[
var edges = document.getElementsByTagName('g');
if (edges && edges.length) {
  for (var i=0;i<edges.length;i++) {
    if (edges[i].id.substr(0,4)=='edge') {
      edges[i].setAttribute('class','edge');
    }
  }
}
]]></script>
        <defs>
                <circle id="rim" cx="0" cy="0" r="7"/>
                <circle id="rim2" cx="0" cy="0" r="3.5"/>
                <g id="zoomPlus">
                        <use xlink:href="#rim" fill="#404040">
                                <set attributeName="fill" to="#808080" begin="zoomplus.mouseover" end="zoomplus.mouseout"/>
                        </use>
                        <path d="M-4,0h8M0,-4v8" fill="none" stroke="white" stroke-width="1.5" pointer-events="none"/>
                </g>
                <g id="zoomMin">
                        <use xlink:href="#rim" fill="#404040">
                                <set attributeName="fill" to="#808080" begin="zoomminus.mouseover" end="zoomminus.mouseout"/>
                        </use>
                        <path d="M-4,0h8" fill="none" stroke="white" stroke-width="1.5" pointer-events="none"/>
                </g>
                <g id="dirArrow">
                        <path fill="none" stroke="white" stroke-width="1.5" d="M0,-3.0v7 M-2.5,-0.5L0,-3.0L2.5,-0.5"/>
                </g>
               <g id="resetDef">
                       <use xlink:href="#rim2" fill="#404040">
                               <set attributeName="fill" to="#808080" begin="reset.mouseover" end="reset.mouseout"/>
                       </use>
               </g>
        </defs>

<script type="text/javascript">
var viewWidth = 536;
var viewHeight = 364;
var sectionId = 'dynsection-0';
</script>
<script xlink:href="svgpan.js"/>
<svg id="graph" class="graph">
<g id="viewport">
<title>attributes.h</title>
<polygon fill="white" stroke="none" points="-4,4 -4,-360 532.497,-360 532.497,4 -4,4"/>
<!-- Node1 -->
<g id="node1" class="node"><title>Node1</title>
<polygon fill="#bfbfbf" stroke="black" points="211.5,-336.5 211.5,-355.5 276.5,-355.5 276.5,-336.5 211.5,-336.5"/>
<text text-anchor="middle" x="244" y="-343.5" font-family="Helvetica,sans-Serif" font-size="10.00">attributes.h</text>
</g>
<!-- Node2 -->
<g id="node2" class="node"><title>Node2</title>
<g id="a_node2"><a xlink:href="a00477_source.html" target="_top" xlink:title="tm_stm32f4_usart.h">
<polygon fill="white" stroke="black" points="149,-280.5 149,-299.5 253,-299.5 253,-280.5 149,-280.5"/>
<text text-anchor="middle" x="201" y="-287.5" font-family="Helvetica,sans-Serif" font-size="10.00">tm_stm32f4_usart.h</text>
</a>
</g>
</g>
<!-- Node1&#45;&gt;Node2 -->
<g id="edge1" class="edge"><title>Node1&#45;&gt;Node2</title>
<path fill="none" stroke="midnightblue" d="M230.578,-328.144C223.086,-318.736 214.063,-307.405 207.968,-299.751"/>
<polygon fill="midnightblue" stroke="midnightblue" points="227.932,-330.44 236.899,-336.083 233.408,-326.08 227.932,-330.44"/>
</g>
<!-- Node6 -->
<g id="node6" class="node"><title>Node6</title>
<g id="a_node6"><a xlink:href="a00421.html" target="_top" xlink:title="Main header definition. ">
<polygon fill="white" stroke="black" points="268,-224.5 268,-243.5 314,-243.5 314,-224.5 268,-224.5"/>
<text text-anchor="middle" x="291" y="-231.5" font-family="Helvetica,sans-Serif" font-size="10.00">main.h</text>
</a>
</g>
</g>
<!-- Node1&#45;&gt;Node6 -->
<g id="edge22" class="edge"><title>Node1&#45;&gt;Node6</title>
<path fill="none" stroke="midnightblue" d="M251.692,-326.998C261.947,-302.997 279.691,-261.468 287.329,-243.591"/>
<polygon fill="midnightblue" stroke="midnightblue" points="248.399,-325.798 247.688,-336.368 254.836,-328.548 248.399,-325.798"/>
</g>
<!-- Node3 -->
<g id="node3" class="node"><title>Node3</title>
<g id="a_node3"><a xlink:href="a00476_source.html" target="_top" xlink:title="tm_stm32f4_usart.c">
<polygon fill="white" stroke="black" points="146,-224.5 146,-243.5 250,-243.5 250,-224.5 146,-224.5"/>
<text text-anchor="middle" x="198" y="-231.5" font-family="Helvetica,sans-Serif" font-size="10.00">tm_stm32f4_usart.c</text>
</a>
</g>
</g>
<!-- Node2&#45;&gt;Node3 -->
<g id="edge2" class="edge"><title>Node2&#45;&gt;Node3</title>
<path fill="none" stroke="midnightblue" d="M199.934,-269.805C199.439,-260.91 198.877,-250.78 198.486,-243.751"/>
<polygon fill="midnightblue" stroke="midnightblue" points="196.455,-270.293 200.505,-280.083 203.444,-269.904 196.455,-270.293"/>
</g>
<!-- Node4 -->
<g id="node4" class="node"><title>Node4</title>
<g id="a_node4"><a xlink:href="a00479_source.html" target="_top" xlink:title="tm_stm32f4_usart_dma.h">
<polygon fill="white" stroke="black" points="0,-224.5 0,-243.5 128,-243.5 128,-224.5 0,-224.5"/>
<text text-anchor="middle" x="64" y="-231.5" font-family="Helvetica,sans-Serif" font-size="10.00">tm_stm32f4_usart_dma.h</text>
</a>
</g>
</g>
<!-- Node2&#45;&gt;Node4 -->
<g id="edge3" class="edge"><title>Node2&#45;&gt;Node4</title>
<path fill="none" stroke="midnightblue" d="M169.977,-276.772C144.243,-266.629 108.314,-252.467 85.6065,-243.516"/>
<polygon fill="midnightblue" stroke="midnightblue" points="168.705,-280.033 179.292,-280.444 171.272,-273.52 168.705,-280.033"/>
</g>
<!-- Node2&#45;&gt;Node6 -->
<g id="edge5" class="edge"><title>Node2&#45;&gt;Node6</title>
<path fill="none" stroke="midnightblue" d="M224.038,-275.177C240.599,-265.241 262.418,-252.149 276.576,-243.655"/>
<polygon fill="midnightblue" stroke="midnightblue" points="222.234,-272.178 215.46,-280.324 225.836,-278.18 222.234,-272.178"/>
</g>
<!-- Node5 -->
<g id="node5" class="node"><title>Node5</title>
<g id="a_node5"><a xlink:href="a00478_source.html" target="_top" xlink:title="tm_stm32f4_usart_dma.c">
<polygon fill="white" stroke="black" points="0,-168.5 0,-187.5 128,-187.5 128,-168.5 0,-168.5"/>
<text text-anchor="middle" x="64" y="-175.5" font-family="Helvetica,sans-Serif" font-size="10.00">tm_stm32f4_usart_dma.c</text>
</a>
</g>
</g>
<!-- Node4&#45;&gt;Node5 -->
<g id="edge4" class="edge"><title>Node4&#45;&gt;Node5</title>
<path fill="none" stroke="midnightblue" d="M64,-213.805C64,-204.91 64,-194.78 64,-187.751"/>
<polygon fill="midnightblue" stroke="midnightblue" points="60.5001,-214.083 64,-224.083 67.5001,-214.083 60.5001,-214.083"/>
</g>
<!-- Node7 -->
<g id="node7" class="node"><title>Node7</title>
<g id="a_node7"><a xlink:href="a00109.html" target="_top" xlink:title="Provides DMA related configuration and access functions for ADC and DAC. ">
<polygon fill="white" stroke="black" points="418,-168.5 418,-187.5 504,-187.5 504,-168.5 418,-168.5"/>
<text text-anchor="middle" x="461" y="-175.5" font-family="Helvetica,sans-Serif" font-size="10.00">adc_dac_dma.h</text>
</a>
</g>
</g>
<!-- Node6&#45;&gt;Node7 -->
<g id="edge6" class="edge"><title>Node6&#45;&gt;Node7</title>
<path fill="none" stroke="midnightblue" d="M322.54,-221.172C352.964,-211.004 398.561,-196.585 429.109,-187.516"/>
<polygon fill="midnightblue" stroke="midnightblue" points="321.204,-217.929 312.848,-224.444 323.442,-224.562 321.204,-217.929"/>
</g>
<!-- Node10 -->
<g id="node10" class="node"><title>Node10</title>
<g id="a_node10"><a xlink:href="a00418.html" target="_top" xlink:title="Callback handler implementations. ">
<polygon fill="white" stroke="black" points="223,-0.5 223,-19.5 305,-19.5 305,-0.5 223,-0.5"/>
<text text-anchor="middle" x="264" y="-7.5" font-family="Helvetica,sans-Serif" font-size="10.00">irq_callbacks.c</text>
</a>
</g>
</g>
<!-- Node6&#45;&gt;Node10 -->
<g id="edge19" class="edge"><title>Node6&#45;&gt;Node10</title>
<path fill="none" stroke="midnightblue" d="M269.877,-218.195C259.562,-210.165 247.563,-199.533 239,-188 222.752,-166.116 219.68,-158.658 214,-132 204.574,-87.7608 240.015,-39.1839 256.265,-19.7452"/>
<polygon fill="midnightblue" stroke="midnightblue" points="267.928,-221.108 278.033,-224.292 272.119,-215.501 267.928,-221.108"/>
</g>
<!-- Node11 -->
<g id="node11" class="node"><title>Node11</title>
<g id="a_node11"><a xlink:href="a00419.html" target="_top" xlink:title="Analog processing related callback handler definition. ">
<polygon fill="white" stroke="black" points="223,-112.5 223,-131.5 305,-131.5 305,-112.5 223,-112.5"/>
<text text-anchor="middle" x="264" y="-119.5" font-family="Helvetica,sans-Serif" font-size="10.00">irq_callbacks.h</text>
</a>
</g>
</g>
<!-- Node6&#45;&gt;Node11 -->
<g id="edge18" class="edge"><title>Node6&#45;&gt;Node11</title>
<path fill="none" stroke="midnightblue" d="M261.95,-218.689C251.483,-210.866 241.161,-200.27 236,-188 227.794,-168.493 240.521,-144.283 251.929,-131.627"/>
<polygon fill="midnightblue" stroke="midnightblue" points="260.042,-221.624 270.281,-224.347 263.975,-215.833 260.042,-221.624"/>
</g>
<!-- Node13 -->
<g id="node13" class="node"><title>Node13</title>
<g id="a_node13"><a xlink:href="a00420.html" target="_top" xlink:title="Main source implementation (29&#45;04&#45;2015) ">
<polygon fill="white" stroke="black" points="254,-168.5 254,-187.5 300,-187.5 300,-168.5 254,-168.5"/>
<text text-anchor="middle" x="277" y="-175.5" font-family="Helvetica,sans-Serif" font-size="10.00">main.c</text>
</a>
</g>
</g>
<!-- Node6&#45;&gt;Node13 -->
<g id="edge20" class="edge"><title>Node6&#45;&gt;Node13</title>
<path fill="none" stroke="midnightblue" d="M286.177,-214.396C283.835,-205.362 281.132,-194.936 279.269,-187.751"/>
<polygon fill="midnightblue" stroke="midnightblue" points="282.79,-215.281 288.688,-224.083 289.566,-213.525 282.79,-215.281"/>
</g>
<!-- Node14 -->
<g id="node14" class="node"><title>Node14</title>
<g id="a_node14"><a xlink:href="a00464.html" target="_top" xlink:title="stm32f4xx_it.c">
<polygon fill="white" stroke="black" points="318.5,-168.5 318.5,-187.5 399.5,-187.5 399.5,-168.5 318.5,-168.5"/>
<text text-anchor="middle" x="359" y="-175.5" font-family="Helvetica,sans-Serif" font-size="10.00">stm32f4xx_it.c</text>
</a>
</g>
</g>
<!-- Node6&#45;&gt;Node14 -->
<g id="edge21" class="edge"><title>Node6&#45;&gt;Node14</title>
<path fill="none" stroke="midnightblue" d="M309.762,-218.101C322,-208.382 337.559,-196.027 347.876,-187.834"/>
<polygon fill="midnightblue" stroke="midnightblue" points="307.58,-215.364 301.925,-224.324 311.933,-220.846 307.58,-215.364"/>
</g>
<!-- Node7&#45;&gt;Node6 -->
<g id="edge12" class="edge"><title>Node7&#45;&gt;Node6</title>
<path fill="none" stroke="midnightblue" d="M429.313,-190.877C395.867,-202.052 344.2,-218.33 314.275,-227.015"/>
<polygon fill="midnightblue" stroke="midnightblue" points="430.707,-194.101 439.063,-187.587 428.469,-187.468 430.707,-194.101"/>
</g>
<!-- Node8 -->
<g id="node8" class="node"><title>Node8</title>
<g id="a_node8"><a xlink:href="a00107.html" target="_top" xlink:title="Controlling beam and primary actuators. ">
<polygon fill="white" stroke="black" points="348.5,-56.5 348.5,-75.5 413.5,-75.5 413.5,-56.5 348.5,-56.5"/>
<text text-anchor="middle" x="381" y="-63.5" font-family="Helvetica,sans-Serif" font-size="10.00">actuators.h</text>
</a>
</g>
</g>
<!-- Node7&#45;&gt;Node8 -->
<g id="edge7" class="edge"><title>Node7&#45;&gt;Node8</title>
<path fill="none" stroke="midnightblue" d="M432.645,-162.877C421.123,-154.79 408.713,-143.897 400,-132 386.787,-113.958 378.209,-88.7163 377.588,-75.6311"/>
<polygon fill="midnightblue" stroke="midnightblue" points="430.925,-165.934 441.208,-168.485 434.76,-160.078 430.925,-165.934"/>
</g>
<!-- Node7&#45;&gt;Node11 -->
<g id="edge13" class="edge"><title>Node7&#45;&gt;Node11</title>
<path fill="none" stroke="midnightblue" d="M419.771,-165.699C382.591,-155.507 328.729,-140.743 295.069,-131.516"/>
<polygon fill="midnightblue" stroke="midnightblue" points="419.215,-169.175 429.785,-168.444 421.066,-162.424 419.215,-169.175"/>
</g>
<!-- Node12 -->
<g id="node12" class="node"><title>Node12</title>
<g id="a_node12"><a xlink:href="a00108.html" target="_top" xlink:title="adc_dac_dma.c">
<polygon fill="white" stroke="black" points="418,-112.5 418,-131.5 504,-131.5 504,-112.5 418,-112.5"/>
<text text-anchor="middle" x="461" y="-119.5" font-family="Helvetica,sans-Serif" font-size="10.00">adc_dac_dma.c</text>
</a>
</g>
</g>
<!-- Node7&#45;&gt;Node12 -->
<g id="edge17" class="edge"><title>Node7&#45;&gt;Node12</title>
<path fill="none" stroke="midnightblue" d="M461,-157.805C461,-148.91 461,-138.78 461,-131.751"/>
<polygon fill="midnightblue" stroke="midnightblue" points="457.5,-158.083 461,-168.083 464.5,-158.083 457.5,-158.083"/>
</g>
<!-- Node8&#45;&gt;Node6 -->
<g id="edge8" class="edge"><title>Node8&#45;&gt;Node6</title>
<path fill="none" stroke="midnightblue" d="M423.88,-69.1324C454.2,-73.1507 492.897,-83.9073 513,-112 532.657,-139.469 534.381,-161.85 513,-188 488.045,-218.521 366.003,-228.837 314.26,-231.875"/>
<polygon fill="midnightblue" stroke="midnightblue" points="423.876,-65.6101 413.549,-67.9747 423.097,-72.5666 423.876,-65.6101"/>
</g>
<!-- Node8&#45;&gt;Node7 -->
<g id="edge9" class="edge"><title>Node8&#45;&gt;Node7</title>
<path fill="none" stroke="midnightblue" d="M393.651,-84.9474C399.885,-98.6737 407.471,-117.623 418,-132 428.863,-146.834 445.474,-160.105 455.027,-168.326"/>
<polygon fill="midnightblue" stroke="midnightblue" points="396.641,-83.0934 389.12,-75.6311 390.346,-86.1548 396.641,-83.0934"/>
</g>
<!-- Node9 -->
<g id="node9" class="node"><title>Node9</title>
<g id="a_node9"><a xlink:href="a00106.html" target="_top" xlink:title="Controlling beam and primary actuators. ">
<polygon fill="white" stroke="black" points="348.5,-0.5 348.5,-19.5 413.5,-19.5 413.5,-0.5 348.5,-0.5"/>
<text text-anchor="middle" x="381" y="-7.5" font-family="Helvetica,sans-Serif" font-size="10.00">actuators.c</text>
</a>
</g>
</g>
<!-- Node8&#45;&gt;Node9 -->
<g id="edge10" class="edge"><title>Node8&#45;&gt;Node9</title>
<path fill="none" stroke="midnightblue" d="M381,-45.8045C381,-36.9102 381,-26.7798 381,-19.7511"/>
<polygon fill="midnightblue" stroke="midnightblue" points="377.5,-46.083 381,-56.083 384.5,-46.083 377.5,-46.083"/>
</g>
<!-- Node8&#45;&gt;Node10 -->
<g id="edge11" class="edge"><title>Node8&#45;&gt;Node10</title>
<path fill="none" stroke="midnightblue" d="M353.336,-52.2321C331.451,-42.1312 301.503,-28.3091 282.452,-19.5164"/>
<polygon fill="midnightblue" stroke="midnightblue" points="351.915,-55.4308 362.461,-56.4435 354.848,-49.075 351.915,-55.4308"/>
</g>
<!-- Node11&#45;&gt;Node6 -->
<g id="edge14" class="edge"><title>Node11&#45;&gt;Node6</title>
<path fill="none" stroke="midnightblue" d="M259.669,-141.026C254.083,-154.287 247.525,-172.608 254,-188 260.498,-203.447 275.174,-216.241 284.403,-224.189"/>
<polygon fill="midnightblue" stroke="midnightblue" points="262.973,-142.199 263.672,-131.627 256.533,-139.456 262.973,-142.199"/>
</g>
<!-- Node11&#45;&gt;Node8 -->
<g id="edge15" class="edge"><title>Node11&#45;&gt;Node8</title>
<path fill="none" stroke="midnightblue" d="M291.664,-108.232C313.549,-98.1312 343.497,-84.3091 362.548,-75.5164"/>
<polygon fill="midnightblue" stroke="midnightblue" points="290.152,-105.075 282.539,-112.444 293.085,-111.431 290.152,-105.075"/>
</g>
<!-- Node11&#45;&gt;Node10 -->
<g id="edge16" class="edge"><title>Node11&#45;&gt;Node10</title>
<path fill="none" stroke="midnightblue" d="M264,-102.348C264,-78.2538 264,-37.3079 264,-19.5914"/>
<polygon fill="midnightblue" stroke="midnightblue" points="260.5,-102.368 264,-112.368 267.5,-102.369 260.5,-102.368"/>
</g>
</g>
</svg>
        <g id="navigator" transform="translate(0 0)" fill="#404254">
                <rect fill="#f2f5e9" fill-opacity="0.5" stroke="#606060" stroke-width=".5" x="0" y="0" width="60" height="60"/>
                <use id="zoomplus" xlink:href="#zoomPlus" x="17" y="9" onmousedown="handleZoom(evt,'in')"/>
                <use id="zoomminus" xlink:href="#zoomMin" x="42" y="9" onmousedown="handleZoom(evt,'out')"/>
                <use id="reset" xlink:href="#resetDef" x="30" y="36" onmousedown="handleReset()"/>
                <g id="arrowUp" xlink:href="#dirArrow" transform="translate(30 24)" onmousedown="handlePan(0,-1)">
                  <use xlink:href="#rim" fill="#404040">
                        <set attributeName="fill" to="#808080" begin="arrowUp.mouseover" end="arrowUp.mouseout"/>
                  </use>
                  <path fill="none" stroke="white" stroke-width="1.5" d="M0,-3.0v7 M-2.5,-0.5L0,-3.0L2.5,-0.5"/>
                </g>
                <g id="arrowRight" xlink:href="#dirArrow" transform="rotate(90) translate(36 -43)" onmousedown="handlePan(1,0)">
                  <use xlink:href="#rim" fill="#404040">
                        <set attributeName="fill" to="#808080" begin="arrowRight.mouseover" end="arrowRight.mouseout"/>
                  </use>
                  <path fill="none" stroke="white" stroke-width="1.5" d="M0,-3.0v7 M-2.5,-0.5L0,-3.0L2.5,-0.5"/>
                </g>
                <g id="arrowDown" xlink:href="#dirArrow" transform="rotate(180) translate(-30 -48)" onmousedown="handlePan(0,1)">
                  <use xlink:href="#rim" fill="#404040">
                        <set attributeName="fill" to="#808080" begin="arrowDown.mouseover" end="arrowDown.mouseout"/>
                  </use>
                  <path fill="none" stroke="white" stroke-width="1.5" d="M0,-3.0v7 M-2.5,-0.5L0,-3.0L2.5,-0.5"/>
                </g>
                <g id="arrowLeft" xlink:href="#dirArrow" transform="rotate(270) translate(-36 17)" onmousedown="handlePan(-1,0)">
                  <use xlink:href="#rim" fill="#404040">
                        <set attributeName="fill" to="#808080" begin="arrowLeft.mouseover" end="arrowLeft.mouseout"/>
                  </use>
                  <path fill="none" stroke="white" stroke-width="1.5" d="M0,-3.0v7 M-2.5,-0.5L0,-3.0L2.5,-0.5"/>
                </g>
        </g>
        <svg viewBox="0 0 15 15" width="100%" height="30px" preserveAspectRatio="xMaxYMin meet">
         <g id="arrow_out" transform="scale(0.3 0.3)">
          <a xlink:href="a00754_org.svg" target="_base">
           <rect id="button" ry="5" rx="5" y="6" x="6" height="38" width="38"
                fill="#f2f5e9" fill-opacity="0.5" stroke="#606060" stroke-width="1.0"/>
           <path id="arrow"
             d="M 11.500037,31.436501 C 11.940474,20.09759 22.043105,11.32322 32.158766,21.979434 L 37.068811,17.246167 C 37.068811,17.246167 37.088388,32 37.088388,32 L 22.160133,31.978069 C 22.160133,31.978069 26.997745,27.140456 26.997745,27.140456 C 18.528582,18.264221 13.291696,25.230495 11.500037,31.436501 z"
             style="fill:#404040;"/>
          </a>
         </g>
        </svg>
</svg>
