<?xml version="1.0" encoding="UTF-8" standalone="no"?>
<!DOCTYPE svg PUBLIC "-//W3C//DTD SVG 1.1//EN"
 "http://www.w3.org/Graphics/SVG/1.1/DTD/svg11.dtd">
<!-- Generated by graphviz version 2.38.0 (20140413.2041)
 -->
<!-- Title: beamCtrl Pages: 1 -->
<svg width="385pt" height="142pt"
 viewBox="0.00 0.00 385.00 142.00" xmlns="http://www.w3.org/2000/svg" xmlns:xlink="http://www.w3.org/1999/xlink">
<g id="graph0" class="graph" transform="scale(1 1) rotate(0) translate(4 138)">
<title>beamCtrl</title>
<polygon fill="white" stroke="none" points="-4,4 -4,-138 381,-138 381,4 -4,4"/>
<!-- Node1 -->
<g id="node1" class="node"><title>Node1</title>
<polygon fill="#bfbfbf" stroke="black" points="0,-57.5 0,-76.5 56,-76.5 56,-57.5 0,-57.5"/>
<text text-anchor="middle" x="28" y="-64.5" font-family="Helvetica,sans-Serif" font-size="10.00">beamCtrl</text>
</g>
<!-- Node2 -->
<g id="node2" class="node"><title>Node2</title>
<g id="a_node2"><a xlink:href="a00749.html#ga23127fb33a96a81838d3c4b368b0e915" target="_top" xlink:title="Provides GPIO on/off functionality. ">
<polygon fill="white" stroke="black" points="92,-57.5 92,-76.5 196,-76.5 196,-57.5 92,-57.5"/>
<text text-anchor="middle" x="144" y="-64.5" font-family="Helvetica,sans-Serif" font-size="10.00">MDB_GPIO_Switch</text>
</a>
</g>
</g>
<!-- Node1&#45;&gt;Node2 -->
<g id="edge1" class="edge"><title>Node1&#45;&gt;Node2</title>
<path fill="none" stroke="midnightblue" d="M56.0164,-67C63.7663,-67 72.5499,-67 81.4824,-67"/>
<polygon fill="midnightblue" stroke="midnightblue" points="81.5837,-70.5001 91.5837,-67 81.5836,-63.5001 81.5837,-70.5001"/>
</g>
<!-- Node3 -->
<g id="node3" class="node"><title>Node3</title>
<g id="a_node3"><a xlink:href="a00749.html#ga1de48ba66939a9726f7930fc6a1e653a" target="_top" xlink:title="MDB_GPIO_Off">
<polygon fill="white" stroke="black" points="260.5,-114.5 260.5,-133.5 348.5,-133.5 348.5,-114.5 260.5,-114.5"/>
<text text-anchor="middle" x="304.5" y="-121.5" font-family="Helvetica,sans-Serif" font-size="10.00">MDB_GPIO_Off</text>
</a>
</g>
</g>
<!-- Node2&#45;&gt;Node3 -->
<g id="edge2" class="edge"><title>Node2&#45;&gt;Node3</title>
<path fill="none" stroke="midnightblue" d="M164.698,-76.6318C182.11,-84.8965 208.346,-96.7452 232,-105 238.836,-107.386 246.129,-109.642 253.346,-111.711"/>
<polygon fill="midnightblue" stroke="midnightblue" points="252.518,-115.113 263.09,-114.409 254.387,-108.367 252.518,-115.113"/>
</g>
<!-- Node4 -->
<g id="node4" class="node"><title>Node4</title>
<g id="a_node4"><a xlink:href="a00749.html#ga9915de13874ce89948d7d860af7e28c8" target="_top" xlink:title="{ function_description } ">
<polygon fill="white" stroke="black" points="261,-76.5 261,-95.5 348,-95.5 348,-76.5 261,-76.5"/>
<text text-anchor="middle" x="304.5" y="-83.5" font-family="Helvetica,sans-Serif" font-size="10.00">MDB_GPIO_On</text>
</a>
</g>
</g>
<!-- Node2&#45;&gt;Node4 -->
<g id="edge3" class="edge"><title>Node2&#45;&gt;Node4</title>
<path fill="none" stroke="midnightblue" d="M196.023,-73.1163C213.498,-75.2111 233.08,-77.5584 250.693,-79.6698"/>
<polygon fill="midnightblue" stroke="midnightblue" points="250.459,-83.1668 260.805,-80.882 251.293,-76.2166 250.459,-83.1668"/>
</g>
<!-- Node5 -->
<g id="node5" class="node"><title>Node5</title>
<g id="a_node5"><a xlink:href="a00020.html#ga80c89116820d48bb38db2e7d5e5a49b9" target="_top" xlink:title="Enables or disables the AHB1 peripheral clock. ">
<polygon fill="white" stroke="black" points="232,-38.5 232,-57.5 377,-57.5 377,-38.5 232,-38.5"/>
<text text-anchor="middle" x="304.5" y="-45.5" font-family="Helvetica,sans-Serif" font-size="10.00">RCC_AHB1PeriphClockCmd</text>
</a>
</g>
</g>
<!-- Node2&#45;&gt;Node5 -->
<g id="edge4" class="edge"><title>Node2&#45;&gt;Node5</title>
<path fill="none" stroke="midnightblue" d="M196.023,-60.8837C204.219,-59.9013 212.877,-58.8633 221.579,-57.8201"/>
<polygon fill="midnightblue" stroke="midnightblue" points="222.277,-61.2617 231.789,-56.5962 221.444,-54.3114 222.277,-61.2617"/>
</g>
<!-- Node6 -->
<g id="node6" class="node"><title>Node6</title>
<g id="a_node6"><a xlink:href="a00013.html#ga71abf9404261370d03cca449b88d3a65" target="_top" xlink:title="Initializes the GPIOx peripheral according to the specified parameters in the GPIO_InitStruct. ">
<polygon fill="white" stroke="black" points="274.5,-0.5 274.5,-19.5 334.5,-19.5 334.5,-0.5 274.5,-0.5"/>
<text text-anchor="middle" x="304.5" y="-7.5" font-family="Helvetica,sans-Serif" font-size="10.00">GPIO_Init</text>
</a>
</g>
</g>
<!-- Node2&#45;&gt;Node6 -->
<g id="edge5" class="edge"><title>Node2&#45;&gt;Node6</title>
<path fill="none" stroke="midnightblue" d="M164.698,-57.3682C182.11,-49.1035 208.346,-37.2548 232,-29 242.384,-25.376 253.822,-22.0505 264.446,-19.2293"/>
<polygon fill="midnightblue" stroke="midnightblue" points="265.511,-22.5694 274.322,-16.6857 263.765,-15.7906 265.511,-22.5694"/>
</g>
</g>
</svg>
