<?xml version="1.0" encoding="UTF-8" standalone="no"?>
<!DOCTYPE svg PUBLIC "-//W3C//DTD SVG 1.1//EN"
 "http://www.w3.org/Graphics/SVG/1.1/DTD/svg11.dtd">
<!-- Generated by graphviz version 2.38.0 (20140413.2041)
 -->
<!-- Title: globals.h Pages: 1 -->
<svg width="1792pt" height="420pt"
 viewBox="0.00 0.00 1791.50 420.00" xmlns="http://www.w3.org/2000/svg" xmlns:xlink="http://www.w3.org/1999/xlink">
<g id="graph0" class="graph" transform="scale(1 1) rotate(0) translate(4 416)">
<title>globals.h</title>
<polygon fill="white" stroke="none" points="-4,4 -4,-416 1787.5,-416 1787.5,4 -4,4"/>
<!-- Node1 -->
<g id="node1" class="node"><title>Node1</title>
<polygon fill="#bfbfbf" stroke="black" points="757,-392.5 757,-411.5 813,-411.5 813,-392.5 757,-392.5"/>
<text text-anchor="middle" x="785" y="-399.5" font-family="Helvetica,sans-Serif" font-size="10.00">globals.h</text>
</g>
<!-- Node2 -->
<g id="node2" class="node"><title>Node2</title>
<g id="a_node2"><a xlink:href="a00046.html" target="_top" xlink:title="Project XA&#45;Galvo scanner specific digital to analog converter methods. ">
<polygon fill="white" stroke="black" points="253,-336.5 253,-355.5 353,-355.5 353,-336.5 253,-336.5"/>
<text text-anchor="middle" x="303" y="-343.5" font-family="Helvetica,sans-Serif" font-size="10.00">md_stm32f4_dac.h</text>
</a>
</g>
</g>
<!-- Node1&#45;&gt;Node2 -->
<g id="edge1" class="edge"><title>Node1&#45;&gt;Node2</title>
<path fill="none" stroke="midnightblue" d="M746.467,-396.683C659.813,-386.975 449.62,-363.426 353.042,-352.606"/>
<polygon fill="midnightblue" stroke="midnightblue" points="746.321,-400.188 756.648,-397.824 747.1,-393.232 746.321,-400.188"/>
</g>
<!-- Node4 -->
<g id="node4" class="node"><title>Node4</title>
<g id="a_node4"><a xlink:href="a00048.html" target="_top" xlink:title="Waveform generation extension for DAC library. ">
<polygon fill="white" stroke="black" points="28,-280.5 28,-299.5 176,-299.5 176,-280.5 28,-280.5"/>
<text text-anchor="middle" x="102" y="-287.5" font-family="Helvetica,sans-Serif" font-size="10.00">md_stm32f4_dac_waveform.h</text>
</a>
</g>
</g>
<!-- Node1&#45;&gt;Node4 -->
<g id="edge24" class="edge"><title>Node1&#45;&gt;Node4</title>
<path fill="none" stroke="midnightblue" d="M746.684,-399.532C639.683,-395.161 339.294,-380.956 244,-356 194.691,-343.087 141.223,-314.085 116.297,-299.589"/>
<polygon fill="midnightblue" stroke="midnightblue" points="746.583,-403.031 756.715,-399.936 746.864,-396.036 746.583,-403.031"/>
</g>
<!-- Node7 -->
<g id="node7" class="node"><title>Node7</title>
<g id="a_node7"><a xlink:href="a00044.html" target="_top" xlink:title="Main header definition. ">
<polygon fill="white" stroke="black" points="850,-224.5 850,-243.5 896,-243.5 896,-224.5 850,-224.5"/>
<text text-anchor="middle" x="873" y="-231.5" font-family="Helvetica,sans-Serif" font-size="10.00">main.h</text>
</a>
</g>
</g>
<!-- Node1&#45;&gt;Node7 -->
<g id="edge47" class="edge"><title>Node1&#45;&gt;Node7</title>
<path fill="none" stroke="midnightblue" d="M755.998,-387.33C743.768,-379.917 730.807,-369.48 724,-356 708.775,-325.848 703.862,-307.118 724,-280 731.652,-269.695 810.021,-249.899 849.922,-240.376"/>
<polygon fill="midnightblue" stroke="midnightblue" points="754.657,-390.59 765.094,-392.41 758.07,-384.479 754.657,-390.59"/>
</g>
<!-- Node8 -->
<g id="node8" class="node"><title>Node8</title>
<g id="a_node8"><a xlink:href="a00033.html" target="_top" xlink:title="Provides DMA related configuration and access functions for ADC and DAC. ">
<polygon fill="white" stroke="black" points="746,-168.5 746,-187.5 832,-187.5 832,-168.5 746,-168.5"/>
<text text-anchor="middle" x="789" y="-175.5" font-family="Helvetica,sans-Serif" font-size="10.00">adc_dac_dma.h</text>
</a>
</g>
</g>
<!-- Node1&#45;&gt;Node8 -->
<g id="edge46" class="edge"><title>Node1&#45;&gt;Node8</title>
<path fill="none" stroke="midnightblue" d="M746.963,-400.934C664.236,-398.881 477.406,-382.951 504,-280 511.115,-252.456 511.851,-240.536 535,-224 568.162,-200.312 682.551,-187.561 745.912,-182.168"/>
<polygon fill="midnightblue" stroke="midnightblue" points="746.916,-404.434 756.982,-401.127 747.051,-397.435 746.916,-404.434"/>
</g>
<!-- Node9 -->
<g id="node9" class="node"><title>Node9</title>
<g id="a_node9"><a xlink:href="a00031.html" target="_top" xlink:title="Controlling beam and primary actuators. ">
<polygon fill="white" stroke="black" points="744.5,-56.5 744.5,-75.5 809.5,-75.5 809.5,-56.5 744.5,-56.5"/>
<text text-anchor="middle" x="777" y="-63.5" font-family="Helvetica,sans-Serif" font-size="10.00">actuators.h</text>
</a>
</g>
</g>
<!-- Node1&#45;&gt;Node9 -->
<g id="edge55" class="edge"><title>Node1&#45;&gt;Node9</title>
<path fill="none" stroke="midnightblue" d="M746.415,-401.356C691.607,-400.413 589.29,-393.227 512,-356 473.159,-337.293 440,-334.111 440,-291 440,-291 440,-291 440,-177 440,-113.378 659.807,-80.7734 744.381,-70.583"/>
<polygon fill="midnightblue" stroke="midnightblue" points="746.684,-404.859 756.721,-401.468 746.76,-397.859 746.684,-404.859"/>
</g>
<!-- Node10 -->
<g id="node10" class="node"><title>Node10</title>
<g id="a_node10"><a xlink:href="a00030.html" target="_top" xlink:title="Controlling beam and primary actuators. ">
<polygon fill="white" stroke="black" points="310.5,-0.5 310.5,-19.5 375.5,-19.5 375.5,-0.5 310.5,-0.5"/>
<text text-anchor="middle" x="343" y="-7.5" font-family="Helvetica,sans-Serif" font-size="10.00">actuators.c</text>
</a>
</g>
</g>
<!-- Node1&#45;&gt;Node10 -->
<g id="edge58" class="edge"><title>Node1&#45;&gt;Node10</title>
<path fill="none" stroke="midnightblue" d="M746.408,-399.709C588.508,-393.927 0,-367.259 0,-291 0,-291 0,-291 0,-121 0,-56.1972 224.804,-24.2248 310.422,-14.3978"/>
<polygon fill="midnightblue" stroke="midnightblue" points="746.478,-403.214 756.598,-400.075 746.73,-396.219 746.478,-403.214"/>
</g>
<!-- Node12 -->
<g id="node12" class="node"><title>Node12</title>
<g id="a_node12"><a xlink:href="a00042.html" target="_top" xlink:title="Analog processing related callback handler definition. ">
<polygon fill="white" stroke="black" points="1090,-112.5 1090,-131.5 1172,-131.5 1172,-112.5 1090,-112.5"/>
<text text-anchor="middle" x="1131" y="-119.5" font-family="Helvetica,sans-Serif" font-size="10.00">irq_callbacks.h</text>
</a>
</g>
</g>
<!-- Node1&#45;&gt;Node12 -->
<g id="edge48" class="edge"><title>Node1&#45;&gt;Node12</title>
<path fill="none" stroke="midnightblue" d="M823.51,-400.525C952.093,-398.633 1365.71,-389.987 1494,-356 1557.6,-339.151 1627,-356.793 1627,-291 1627,-291 1627,-291 1627,-233 1627,-140.056 1290.85,-125.593 1172.01,-123.384"/>
<polygon fill="midnightblue" stroke="midnightblue" points="823.304,-397.028 813.355,-400.669 823.403,-404.027 823.304,-397.028"/>
</g>
<!-- Node17 -->
<g id="node17" class="node"><title>Node17</title>
<g id="a_node17"><a xlink:href="a00050.html" target="_top" xlink:title="Provides SysTick&#45;Timer driven delay functions. ">
<polygon fill="white" stroke="black" points="855.5,-336.5 855.5,-355.5 962.5,-355.5 962.5,-336.5 855.5,-336.5"/>
<text text-anchor="middle" x="909" y="-343.5" font-family="Helvetica,sans-Serif" font-size="10.00">md_stm32f4_delay.h</text>
</a>
</g>
</g>
<!-- Node1&#45;&gt;Node17 -->
<g id="edge25" class="edge"><title>Node1&#45;&gt;Node17</title>
<path fill="none" stroke="midnightblue" d="M814.007,-388.368C837.229,-378.255 869.163,-364.349 889.444,-355.516"/>
<polygon fill="midnightblue" stroke="midnightblue" points="812.419,-385.242 804.648,-392.444 815.214,-391.66 812.419,-385.242"/>
</g>
<!-- Node19 -->
<g id="node19" class="node"><title>Node19</title>
<g id="a_node19"><a xlink:href="a00052.html" target="_top" xlink:title="Definitions to extend board support for STM32F429i&#45;DISCO and equivalent boards. ">
<polygon fill="white" stroke="black" points="513.5,-280.5 513.5,-299.5 620.5,-299.5 620.5,-280.5 513.5,-280.5"/>
<text text-anchor="middle" x="567" y="-287.5" font-family="Helvetica,sans-Serif" font-size="10.00">md_stm32f4_disco.h</text>
</a>
</g>
</g>
<!-- Node1&#45;&gt;Node19 -->
<g id="edge28" class="edge"><title>Node1&#45;&gt;Node19</title>
<path fill="none" stroke="midnightblue" d="M750.971,-389.028C728.429,-380.687 698.439,-368.796 673,-356 637.709,-338.248 598.707,-312.661 579.333,-299.511"/>
<polygon fill="midnightblue" stroke="midnightblue" points="749.856,-392.347 760.45,-392.49 752.257,-385.772 749.856,-392.347"/>
</g>
<!-- Node21 -->
<g id="node21" class="node"><title>Node21</title>
<g id="a_node21"><a xlink:href="a00160_source.html" target="_top" xlink:title="tm_stm32f4_timer_properties.h">
<polygon fill="white" stroke="black" points="1019,-336.5 1019,-355.5 1171,-355.5 1171,-336.5 1019,-336.5"/>
<text text-anchor="middle" x="1095" y="-343.5" font-family="Helvetica,sans-Serif" font-size="10.00">tm_stm32f4_timer_properties.h</text>
</a>
</g>
</g>
<!-- Node1&#45;&gt;Node21 -->
<g id="edge32" class="edge"><title>Node1&#45;&gt;Node21</title>
<path fill="none" stroke="midnightblue" d="M822.946,-394.39C879.078,-384.612 984.25,-366.292 1046.1,-355.519"/>
<polygon fill="midnightblue" stroke="midnightblue" points="822.308,-390.948 813.057,-396.113 823.509,-397.845 822.308,-390.948"/>
</g>
<!-- Node22 -->
<g id="node22" class="node"><title>Node22</title>
<g id="a_node22"><a xlink:href="a00156_source.html" target="_top" xlink:title="tm_stm32f4_pwm.h">
<polygon fill="white" stroke="black" points="1189.5,-280.5 1189.5,-299.5 1292.5,-299.5 1292.5,-280.5 1189.5,-280.5"/>
<text text-anchor="middle" x="1241" y="-287.5" font-family="Helvetica,sans-Serif" font-size="10.00">tm_stm32f4_pwm.h</text>
</a>
</g>
</g>
<!-- Node1&#45;&gt;Node22 -->
<g id="edge37" class="edge"><title>Node1&#45;&gt;Node22</title>
<path fill="none" stroke="midnightblue" d="M823.444,-399.965C910.123,-397.101 1118.05,-387.103 1180,-356 1206,-342.946 1226.71,-314.01 1235.88,-299.559"/>
<polygon fill="midnightblue" stroke="midnightblue" points="823.135,-396.473 813.251,-400.288 823.356,-403.47 823.135,-396.473"/>
</g>
<!-- Node25 -->
<g id="node25" class="node"><title>Node25</title>
<g id="a_node25"><a xlink:href="a00158_source.html" target="_top" xlink:title="tm_stm32f4_timer.h">
<polygon fill="white" stroke="black" points="733,-336.5 733,-355.5 837,-355.5 837,-336.5 733,-336.5"/>
<text text-anchor="middle" x="785" y="-343.5" font-family="Helvetica,sans-Serif" font-size="10.00">tm_stm32f4_timer.h</text>
</a>
</g>
</g>
<!-- Node1&#45;&gt;Node25 -->
<g id="edge38" class="edge"><title>Node1&#45;&gt;Node25</title>
<path fill="none" stroke="midnightblue" d="M785,-381.805C785,-372.91 785,-362.78 785,-355.751"/>
<polygon fill="midnightblue" stroke="midnightblue" points="781.5,-382.083 785,-392.083 788.5,-382.083 781.5,-382.083"/>
</g>
<!-- Node27 -->
<g id="node27" class="node"><title>Node27</title>
<g id="a_node27"><a xlink:href="a00162_source.html" target="_top" xlink:title="tm_stm32f4_usart.h">
<polygon fill="white" stroke="black" points="1351,-336.5 1351,-355.5 1455,-355.5 1455,-336.5 1351,-336.5"/>
<text text-anchor="middle" x="1403" y="-343.5" font-family="Helvetica,sans-Serif" font-size="10.00">tm_stm32f4_usart.h</text>
</a>
</g>
</g>
<!-- Node1&#45;&gt;Node27 -->
<g id="edge40" class="edge"><title>Node1&#45;&gt;Node27</title>
<path fill="none" stroke="midnightblue" d="M823.123,-397.669C929.437,-388.379 1229.35,-362.174 1350.88,-351.554"/>
<polygon fill="midnightblue" stroke="midnightblue" points="822.817,-394.182 813.16,-398.539 823.427,-401.156 822.817,-394.182"/>
</g>
<!-- Node29 -->
<g id="node29" class="node"><title>Node29</title>
<g id="a_node29"><a xlink:href="a00164_source.html" target="_top" xlink:title="tm_stm32f4_usart_dma.h">
<polygon fill="white" stroke="black" points="1471,-280.5 1471,-299.5 1599,-299.5 1599,-280.5 1471,-280.5"/>
<text text-anchor="middle" x="1535" y="-287.5" font-family="Helvetica,sans-Serif" font-size="10.00">tm_stm32f4_usart_dma.h</text>
</a>
</g>
</g>
<!-- Node1&#45;&gt;Node29 -->
<g id="edge45" class="edge"><title>Node1&#45;&gt;Node29</title>
<path fill="none" stroke="midnightblue" d="M823.601,-399.931C958.674,-395.988 1405.1,-381.165 1464,-356 1492.89,-343.657 1517.64,-314.388 1528.75,-299.709"/>
<polygon fill="midnightblue" stroke="midnightblue" points="823.221,-396.441 813.326,-400.228 823.423,-403.438 823.221,-396.441"/>
</g>
<!-- Node31 -->
<g id="node31" class="node"><title>Node31</title>
<g id="a_node31"><a xlink:href="a00067.html" target="_top" xlink:title="PID compensator implementation. ">
<polygon fill="white" stroke="black" points="639,-280.5 639,-299.5 677,-299.5 677,-280.5 639,-280.5"/>
<text text-anchor="middle" x="658" y="-287.5" font-family="Helvetica,sans-Serif" font-size="10.00">pid.h</text>
</a>
</g>
</g>
<!-- Node1&#45;&gt;Node31 -->
<g id="edge49" class="edge"><title>Node1&#45;&gt;Node31</title>
<path fill="none" stroke="midnightblue" d="M747.177,-389.406C728.488,-382.175 706.65,-371.289 691,-356 674.343,-339.727 664.583,-313.267 660.41,-299.671"/>
<polygon fill="midnightblue" stroke="midnightblue" points="746.019,-392.709 756.613,-392.858 748.424,-386.135 746.019,-392.709"/>
</g>
<!-- Node33 -->
<g id="node33" class="node"><title>Node33</title>
<g id="a_node33"><a xlink:href="a00037.html" target="_top" xlink:title="TODO. ">
<polygon fill="white" stroke="black" points="1655.5,-336.5 1655.5,-355.5 1714.5,-355.5 1714.5,-336.5 1655.5,-336.5"/>
<text text-anchor="middle" x="1685" y="-343.5" font-family="Helvetica,sans-Serif" font-size="10.00">console.h</text>
</a>
</g>
</g>
<!-- Node1&#45;&gt;Node33 -->
<g id="edge56" class="edge"><title>Node1&#45;&gt;Node33</title>
<path fill="none" stroke="midnightblue" d="M823.433,-401.017C944.285,-400.637 1327.19,-396.114 1641,-356 1645.64,-355.407 1650.52,-354.597 1655.28,-353.705"/>
<polygon fill="midnightblue" stroke="midnightblue" points="823.208,-397.518 813.216,-401.041 823.224,-404.518 823.208,-397.518"/>
</g>
<!-- Node35 -->
<g id="node35" class="node"><title>Node35</title>
<g id="a_node35"><a xlink:href="a00039.html" target="_top" xlink:title="helper.c">
<polygon fill="white" stroke="black" points="1732.5,-336.5 1732.5,-355.5 1783.5,-355.5 1783.5,-336.5 1732.5,-336.5"/>
<text text-anchor="middle" x="1758" y="-343.5" font-family="Helvetica,sans-Serif" font-size="10.00">helper.c</text>
</a>
</g>
</g>
<!-- Node1&#45;&gt;Node35 -->
<g id="edge59" class="edge"><title>Node1&#45;&gt;Node35</title>
<path fill="none" stroke="midnightblue" d="M823.479,-400.238C977.003,-397.032 1546.01,-383.507 1724,-356 1726.66,-355.59 1729.4,-355.055 1732.13,-354.45"/>
<polygon fill="midnightblue" stroke="midnightblue" points="823.08,-396.746 813.154,-400.451 823.224,-403.744 823.08,-396.746"/>
</g>
<!-- Node3 -->
<g id="node3" class="node"><title>Node3</title>
<g id="a_node3"><a xlink:href="a00045.html" target="_top" xlink:title="md_stm32f4_dac.c">
<polygon fill="white" stroke="black" points="194,-280.5 194,-299.5 294,-299.5 294,-280.5 194,-280.5"/>
<text text-anchor="middle" x="244" y="-287.5" font-family="Helvetica,sans-Serif" font-size="10.00">md_stm32f4_dac.c</text>
</a>
</g>
</g>
<!-- Node2&#45;&gt;Node3 -->
<g id="edge2" class="edge"><title>Node2&#45;&gt;Node3</title>
<path fill="none" stroke="midnightblue" d="M286.105,-329.537C275.585,-319.909 262.431,-307.869 253.652,-299.834"/>
<polygon fill="midnightblue" stroke="midnightblue" points="283.781,-332.154 293.521,-336.324 288.507,-326.99 283.781,-332.154"/>
</g>
<!-- Node2&#45;&gt;Node4 -->
<g id="edge3" class="edge"><title>Node2&#45;&gt;Node4</title>
<path fill="none" stroke="midnightblue" d="M261.419,-333.829C223.469,-323.633 168.19,-308.782 133.7,-299.516"/>
<polygon fill="midnightblue" stroke="midnightblue" points="260.585,-337.229 271.151,-336.444 262.402,-330.469 260.585,-337.229"/>
</g>
<!-- Node6 -->
<g id="node6" class="node"><title>Node6</title>
<g id="a_node6"><a xlink:href="a00065.html" target="_top" xlink:title="Provides initialization methods to configure analog subsystems and DMA controller. ">
<polygon fill="white" stroke="black" points="312.5,-280.5 312.5,-299.5 411.5,-299.5 411.5,-280.5 312.5,-280.5"/>
<text text-anchor="middle" x="362" y="-287.5" font-family="Helvetica,sans-Serif" font-size="10.00">periph2dma_conf.h</text>
</a>
</g>
</g>
<!-- Node2&#45;&gt;Node6 -->
<g id="edge5" class="edge"><title>Node2&#45;&gt;Node6</title>
<path fill="none" stroke="midnightblue" d="M319.895,-329.537C330.415,-319.909 343.569,-307.869 352.348,-299.834"/>
<polygon fill="midnightblue" stroke="midnightblue" points="317.493,-326.99 312.479,-336.324 322.219,-332.154 317.493,-326.99"/>
</g>
<!-- Node5 -->
<g id="node5" class="node"><title>Node5</title>
<g id="a_node5"><a xlink:href="a00047_source.html" target="_top" xlink:title="md_stm32f4_dac_waveform.c">
<polygon fill="white" stroke="black" points="28,-224.5 28,-243.5 176,-243.5 176,-224.5 28,-224.5"/>
<text text-anchor="middle" x="102" y="-231.5" font-family="Helvetica,sans-Serif" font-size="10.00">md_stm32f4_dac_waveform.c</text>
</a>
</g>
</g>
<!-- Node4&#45;&gt;Node5 -->
<g id="edge4" class="edge"><title>Node4&#45;&gt;Node5</title>
<path fill="none" stroke="midnightblue" d="M102,-269.805C102,-260.91 102,-250.78 102,-243.751"/>
<polygon fill="midnightblue" stroke="midnightblue" points="98.5001,-270.083 102,-280.083 105.5,-270.083 98.5001,-270.083"/>
</g>
<!-- Node6&#45;&gt;Node7 -->
<g id="edge6" class="edge"><title>Node6&#45;&gt;Node7</title>
<path fill="none" stroke="midnightblue" d="M421.739,-285.485C511.126,-279.725 684.814,-266.599 831,-244 837.191,-243.043 843.84,-241.745 849.982,-240.433"/>
<polygon fill="midnightblue" stroke="midnightblue" points="421.283,-282.007 411.525,-286.134 421.727,-288.993 421.283,-282.007"/>
</g>
<!-- Node16 -->
<g id="node16" class="node"><title>Node16</title>
<g id="a_node16"><a xlink:href="a00064.html" target="_top" xlink:title="periph2dma_conf.c">
<polygon fill="white" stroke="black" points="312.5,-224.5 312.5,-243.5 411.5,-243.5 411.5,-224.5 312.5,-224.5"/>
<text text-anchor="middle" x="362" y="-231.5" font-family="Helvetica,sans-Serif" font-size="10.00">periph2dma_conf.c</text>
</a>
</g>
</g>
<!-- Node6&#45;&gt;Node16 -->
<g id="edge23" class="edge"><title>Node6&#45;&gt;Node16</title>
<path fill="none" stroke="midnightblue" d="M362,-269.805C362,-260.91 362,-250.78 362,-243.751"/>
<polygon fill="midnightblue" stroke="midnightblue" points="358.5,-270.083 362,-280.083 365.5,-270.083 358.5,-270.083"/>
</g>
<!-- Node7&#45;&gt;Node8 -->
<g id="edge7" class="edge"><title>Node7&#45;&gt;Node8</title>
<path fill="none" stroke="midnightblue" d="M845.575,-219.21C828.959,-209.339 809.017,-196.342 797.593,-187.834"/>
<polygon fill="midnightblue" stroke="midnightblue" points="843.983,-222.333 854.389,-224.324 847.496,-216.278 843.983,-222.333"/>
</g>
<!-- Node11 -->
<g id="node11" class="node"><title>Node11</title>
<g id="a_node11"><a xlink:href="a00041.html" target="_top" xlink:title="Callback handler implementations. ">
<polygon fill="white" stroke="black" points="736,-0.5 736,-19.5 818,-19.5 818,-0.5 736,-0.5"/>
<text text-anchor="middle" x="777" y="-7.5" font-family="Helvetica,sans-Serif" font-size="10.00">irq_callbacks.c</text>
</a>
</g>
</g>
<!-- Node7&#45;&gt;Node11 -->
<g id="edge20" class="edge"><title>Node7&#45;&gt;Node11</title>
<path fill="none" stroke="midnightblue" d="M906.056,-229.959C951.471,-224.244 1025.27,-208.575 1004,-168 960.727,-85.456 852.174,-37.7129 802.516,-19.5377"/>
<polygon fill="midnightblue" stroke="midnightblue" points="905.55,-226.495 896.018,-231.121 906.354,-233.448 905.55,-226.495"/>
</g>
<!-- Node7&#45;&gt;Node12 -->
<g id="edge19" class="edge"><title>Node7&#45;&gt;Node12</title>
<path fill="none" stroke="midnightblue" d="M906.305,-231.619C946.999,-228.505 1016.23,-218.666 1067,-188 1090.54,-173.785 1108.91,-145.913 1120.64,-131.733"/>
<polygon fill="midnightblue" stroke="midnightblue" points="905.856,-228.141 896.113,-232.303 906.325,-235.125 905.856,-228.141"/>
</g>
<!-- Node14 -->
<g id="node14" class="node"><title>Node14</title>
<g id="a_node14"><a xlink:href="a00043.html" target="_top" xlink:title="Main source implementation (29&#45;04&#45;2015) ">
<polygon fill="white" stroke="black" points="850,-168.5 850,-187.5 896,-187.5 896,-168.5 850,-168.5"/>
<text text-anchor="middle" x="873" y="-175.5" font-family="Helvetica,sans-Serif" font-size="10.00">main.c</text>
</a>
</g>
</g>
<!-- Node7&#45;&gt;Node14 -->
<g id="edge21" class="edge"><title>Node7&#45;&gt;Node14</title>
<path fill="none" stroke="midnightblue" d="M873,-213.805C873,-204.91 873,-194.78 873,-187.751"/>
<polygon fill="midnightblue" stroke="midnightblue" points="869.5,-214.083 873,-224.083 876.5,-214.083 869.5,-214.083"/>
</g>
<!-- Node15 -->
<g id="node15" class="node"><title>Node15</title>
<g id="a_node15"><a xlink:href="a00118.html" target="_top" xlink:title="stm32f4xx_it.c">
<polygon fill="white" stroke="black" points="914.5,-168.5 914.5,-187.5 995.5,-187.5 995.5,-168.5 914.5,-168.5"/>
<text text-anchor="middle" x="955" y="-175.5" font-family="Helvetica,sans-Serif" font-size="10.00">stm32f4xx_it.c</text>
</a>
</g>
</g>
<!-- Node7&#45;&gt;Node15 -->
<g id="edge22" class="edge"><title>Node7&#45;&gt;Node15</title>
<path fill="none" stroke="midnightblue" d="M894.833,-218.622C909.813,-208.757 929.197,-195.992 941.858,-187.655"/>
<polygon fill="midnightblue" stroke="midnightblue" points="892.601,-215.901 886.175,-224.324 896.451,-221.747 892.601,-215.901"/>
</g>
<!-- Node8&#45;&gt;Node7 -->
<g id="edge13" class="edge"><title>Node8&#45;&gt;Node7</title>
<path fill="none" stroke="midnightblue" d="M816.437,-192.797C833.154,-202.729 853.234,-215.822 864.619,-224.324"/>
<polygon fill="midnightblue" stroke="midnightblue" points="817.979,-189.646 807.573,-187.655 814.466,-195.7 817.979,-189.646"/>
</g>
<!-- Node8&#45;&gt;Node9 -->
<g id="edge8" class="edge"><title>Node8&#45;&gt;Node9</title>
<path fill="none" stroke="midnightblue" d="M781.749,-158.348C776.688,-134.254 772.682,-93.3079 774.102,-75.5914"/>
<polygon fill="midnightblue" stroke="midnightblue" points="778.427,-159.495 784.215,-168.368 785.224,-157.822 778.427,-159.495"/>
</g>
<!-- Node8&#45;&gt;Node12 -->
<g id="edge14" class="edge"><title>Node8&#45;&gt;Node12</title>
<path fill="none" stroke="midnightblue" d="M842.125,-167.838C936.534,-152.405 1035.3,-137.365 1089.66,-129.183"/>
<polygon fill="midnightblue" stroke="midnightblue" points="841.423,-164.406 832.12,-169.477 842.555,-171.314 841.423,-164.406"/>
</g>
<!-- Node13 -->
<g id="node13" class="node"><title>Node13</title>
<g id="a_node13"><a xlink:href="a00032.html" target="_top" xlink:title="adc_dac_dma.c">
<polygon fill="white" stroke="black" points="814,-112.5 814,-131.5 900,-131.5 900,-112.5 814,-112.5"/>
<text text-anchor="middle" x="857" y="-119.5" font-family="Helvetica,sans-Serif" font-size="10.00">adc_dac_dma.c</text>
</a>
</g>
</g>
<!-- Node8&#45;&gt;Node13 -->
<g id="edge18" class="edge"><title>Node8&#45;&gt;Node13</title>
<path fill="none" stroke="midnightblue" d="M807.762,-162.101C820,-152.382 835.559,-140.027 845.876,-131.834"/>
<polygon fill="midnightblue" stroke="midnightblue" points="805.58,-159.364 799.925,-168.324 809.933,-164.846 805.58,-159.364"/>
</g>
<!-- Node9&#45;&gt;Node7 -->
<g id="edge9" class="edge"><title>Node9&#45;&gt;Node7</title>
<path fill="none" stroke="midnightblue" d="M819.795,-71.287C874.502,-79.3959 966.609,-102.556 1004,-168 1028.5,-210.877 940.151,-226.122 896.29,-230.972"/>
<polygon fill="midnightblue" stroke="midnightblue" points="820.092,-67.795 809.708,-69.8994 819.138,-74.7297 820.092,-67.795"/>
</g>
<!-- Node9&#45;&gt;Node8 -->
<g id="edge10" class="edge"><title>Node9&#45;&gt;Node8</title>
<path fill="none" stroke="midnightblue" d="M784.239,-85.5974C789.302,-109.666 793.313,-150.617 791.901,-168.368"/>
<polygon fill="midnightblue" stroke="midnightblue" points="787.565,-84.4629 781.773,-75.5914 780.768,-86.1385 787.565,-84.4629"/>
</g>
<!-- Node9&#45;&gt;Node10 -->
<g id="edge11" class="edge"><title>Node9&#45;&gt;Node10</title>
<path fill="none" stroke="midnightblue" d="M734.376,-59.6966C647.831,-48.9283 453.168,-24.7075 375.702,-15.069"/>
<polygon fill="midnightblue" stroke="midnightblue" points="734.024,-63.1796 744.379,-60.9412 734.888,-56.2332 734.024,-63.1796"/>
</g>
<!-- Node9&#45;&gt;Node11 -->
<g id="edge12" class="edge"><title>Node9&#45;&gt;Node11</title>
<path fill="none" stroke="midnightblue" d="M777,-45.8045C777,-36.9102 777,-26.7798 777,-19.7511"/>
<polygon fill="midnightblue" stroke="midnightblue" points="773.5,-46.083 777,-56.083 780.5,-46.083 773.5,-46.083"/>
</g>
<!-- Node12&#45;&gt;Node7 -->
<g id="edge15" class="edge"><title>Node12&#45;&gt;Node7</title>
<path fill="none" stroke="midnightblue" d="M1127.65,-140.973C1119.83,-155.885 1104.12,-176.45 1085,-188 1024.44,-224.579 937.616,-231.525 896.207,-232.771"/>
<polygon fill="midnightblue" stroke="midnightblue" points="1130.89,-142.294 1131.74,-131.733 1124.49,-139.46 1130.89,-142.294"/>
</g>
<!-- Node12&#45;&gt;Node9 -->
<g id="edge16" class="edge"><title>Node12&#45;&gt;Node9</title>
<path fill="none" stroke="midnightblue" d="M1079.83,-112.605C1078.54,-112.4 1077.26,-112.198 1076,-112 979.284,-96.8095 864.796,-79.869 809.762,-71.7904"/>
<polygon fill="midnightblue" stroke="midnightblue" points="1079.44,-116.086 1089.86,-114.21 1080.54,-109.174 1079.44,-116.086"/>
</g>
<!-- Node12&#45;&gt;Node11 -->
<g id="edge17" class="edge"><title>Node12&#45;&gt;Node11</title>
<path fill="none" stroke="midnightblue" d="M1114.1,-105.692C1096.44,-90.5827 1067.27,-68.0461 1038,-56 964.437,-25.7299 871.106,-15.8211 818.319,-12.5778"/>
<polygon fill="midnightblue" stroke="midnightblue" points="1111.97,-108.477 1121.8,-112.434 1116.58,-103.212 1111.97,-108.477"/>
</g>
<!-- Node17&#45;&gt;Node7 -->
<g id="edge27" class="edge"><title>Node17&#45;&gt;Node7</title>
<path fill="none" stroke="midnightblue" d="M897.698,-327.91C892.792,-319.764 887.402,-309.698 884,-300 877.181,-280.56 874.513,-256.323 873.53,-243.645"/>
<polygon fill="midnightblue" stroke="midnightblue" points="894.792,-329.863 903.087,-336.454 900.713,-326.129 894.792,-329.863"/>
</g>
<!-- Node18 -->
<g id="node18" class="node"><title>Node18</title>
<g id="a_node18"><a xlink:href="a00049.html" target="_top" xlink:title="md_stm32f4_delay.c">
<polygon fill="white" stroke="black" points="893.5,-280.5 893.5,-299.5 1000.5,-299.5 1000.5,-280.5 893.5,-280.5"/>
<text text-anchor="middle" x="947" y="-287.5" font-family="Helvetica,sans-Serif" font-size="10.00">md_stm32f4_delay.c</text>
</a>
</g>
</g>
<!-- Node17&#45;&gt;Node18 -->
<g id="edge26" class="edge"><title>Node17&#45;&gt;Node18</title>
<path fill="none" stroke="midnightblue" d="M921.065,-327.855C927.645,-318.505 935.511,-307.327 940.842,-299.751"/>
<polygon fill="midnightblue" stroke="midnightblue" points="918.168,-325.891 915.275,-336.083 923.892,-329.919 918.168,-325.891"/>
</g>
<!-- Node19&#45;&gt;Node7 -->
<g id="edge30" class="edge"><title>Node19&#45;&gt;Node7</title>
<path fill="none" stroke="midnightblue" d="M630.751,-278.908C684.306,-270.245 762.799,-257.114 831,-244 837.151,-242.817 843.788,-241.442 849.929,-240.127"/>
<polygon fill="midnightblue" stroke="midnightblue" points="630.032,-275.479 620.717,-280.526 631.146,-282.389 630.032,-275.479"/>
</g>
<!-- Node19&#45;&gt;Node11 -->
<g id="edge31" class="edge"><title>Node19&#45;&gt;Node11</title>
<path fill="none" stroke="midnightblue" d="M553.113,-272.33C546.878,-264.19 539.851,-254.01 535,-244 521.874,-216.915 516,-209.098 516,-179 516,-179 516,-179 516,-121 516,-26.7119 662.43,-11.9578 735.932,-10.4911"/>
<polygon fill="midnightblue" stroke="midnightblue" points="550.458,-274.616 559.426,-280.258 555.934,-270.255 550.458,-274.616"/>
</g>
<!-- Node20 -->
<g id="node20" class="node"><title>Node20</title>
<g id="a_node20"><a xlink:href="a00051.html" target="_top" xlink:title="DESCRIPTION. ">
<polygon fill="white" stroke="black" points="544.5,-224.5 544.5,-243.5 651.5,-243.5 651.5,-224.5 544.5,-224.5"/>
<text text-anchor="middle" x="598" y="-231.5" font-family="Helvetica,sans-Serif" font-size="10.00">md_stm32f4_disco.c</text>
</a>
</g>
</g>
<!-- Node19&#45;&gt;Node20 -->
<g id="edge29" class="edge"><title>Node19&#45;&gt;Node20</title>
<path fill="none" stroke="midnightblue" d="M577.176,-271.275C582.474,-262.045 588.717,-251.17 592.976,-243.751"/>
<polygon fill="midnightblue" stroke="midnightblue" points="574.062,-269.668 572.119,-280.083 580.133,-273.153 574.062,-269.668"/>
</g>
<!-- Node21&#45;&gt;Node22 -->
<g id="edge33" class="edge"><title>Node21&#45;&gt;Node22</title>
<path fill="none" stroke="midnightblue" d="M1127.7,-332.906C1155.15,-322.754 1193.67,-308.506 1217.97,-299.516"/>
<polygon fill="midnightblue" stroke="midnightblue" points="1126.3,-329.692 1118.13,-336.444 1128.73,-336.257 1126.3,-329.692"/>
</g>
<!-- Node24 -->
<g id="node24" class="node"><title>Node24</title>
<g id="a_node24"><a xlink:href="a00159_source.html" target="_top" xlink:title="tm_stm32f4_timer_properties.c">
<polygon fill="white" stroke="black" points="1019,-280.5 1019,-299.5 1171,-299.5 1171,-280.5 1019,-280.5"/>
<text text-anchor="middle" x="1095" y="-287.5" font-family="Helvetica,sans-Serif" font-size="10.00">tm_stm32f4_timer_properties.c</text>
</a>
</g>
</g>
<!-- Node21&#45;&gt;Node24 -->
<g id="edge36" class="edge"><title>Node21&#45;&gt;Node24</title>
<path fill="none" stroke="midnightblue" d="M1095,-325.805C1095,-316.91 1095,-306.78 1095,-299.751"/>
<polygon fill="midnightblue" stroke="midnightblue" points="1091.5,-326.083 1095,-336.083 1098.5,-326.083 1091.5,-326.083"/>
</g>
<!-- Node22&#45;&gt;Node7 -->
<g id="edge35" class="edge"><title>Node22&#45;&gt;Node7</title>
<path fill="none" stroke="midnightblue" d="M1179.24,-279.889C1066.59,-263.326 945.764,-245.643 896.108,-238.38"/>
<polygon fill="midnightblue" stroke="midnightblue" points="1179.01,-283.394 1189.42,-281.386 1180.03,-276.468 1179.01,-283.394"/>
</g>
<!-- Node23 -->
<g id="node23" class="node"><title>Node23</title>
<g id="a_node23"><a xlink:href="a00155_source.html" target="_top" xlink:title="tm_stm32f4_pwm.c">
<polygon fill="white" stroke="black" points="1189.5,-224.5 1189.5,-243.5 1292.5,-243.5 1292.5,-224.5 1189.5,-224.5"/>
<text text-anchor="middle" x="1241" y="-231.5" font-family="Helvetica,sans-Serif" font-size="10.00">tm_stm32f4_pwm.c</text>
</a>
</g>
</g>
<!-- Node22&#45;&gt;Node23 -->
<g id="edge34" class="edge"><title>Node22&#45;&gt;Node23</title>
<path fill="none" stroke="midnightblue" d="M1241,-269.805C1241,-260.91 1241,-250.78 1241,-243.751"/>
<polygon fill="midnightblue" stroke="midnightblue" points="1237.5,-270.083 1241,-280.083 1244.5,-270.083 1237.5,-270.083"/>
</g>
<!-- Node26 -->
<g id="node26" class="node"><title>Node26</title>
<g id="a_node26"><a xlink:href="a00157_source.html" target="_top" xlink:title="tm_stm32f4_timer.c">
<polygon fill="white" stroke="black" points="733,-280.5 733,-299.5 837,-299.5 837,-280.5 733,-280.5"/>
<text text-anchor="middle" x="785" y="-287.5" font-family="Helvetica,sans-Serif" font-size="10.00">tm_stm32f4_timer.c</text>
</a>
</g>
</g>
<!-- Node25&#45;&gt;Node26 -->
<g id="edge39" class="edge"><title>Node25&#45;&gt;Node26</title>
<path fill="none" stroke="midnightblue" d="M785,-325.805C785,-316.91 785,-306.78 785,-299.751"/>
<polygon fill="midnightblue" stroke="midnightblue" points="781.5,-326.083 785,-336.083 788.5,-326.083 781.5,-326.083"/>
</g>
<!-- Node27&#45;&gt;Node7 -->
<g id="edge44" class="edge"><title>Node27&#45;&gt;Node7</title>
<path fill="none" stroke="midnightblue" d="M1416.56,-328.203C1426.47,-313.785 1436.25,-293.287 1424,-280 1405.81,-260.261 998.498,-240.65 896.164,-236.023"/>
<polygon fill="midnightblue" stroke="midnightblue" points="1413.71,-326.161 1410.56,-336.275 1419.33,-330.336 1413.71,-326.161"/>
</g>
<!-- Node28 -->
<g id="node28" class="node"><title>Node28</title>
<g id="a_node28"><a xlink:href="a00161_source.html" target="_top" xlink:title="tm_stm32f4_usart.c">
<polygon fill="white" stroke="black" points="1311,-280.5 1311,-299.5 1415,-299.5 1415,-280.5 1311,-280.5"/>
<text text-anchor="middle" x="1363" y="-287.5" font-family="Helvetica,sans-Serif" font-size="10.00">tm_stm32f4_usart.c</text>
</a>
</g>
</g>
<!-- Node27&#45;&gt;Node28 -->
<g id="edge41" class="edge"><title>Node27&#45;&gt;Node28</title>
<path fill="none" stroke="midnightblue" d="M1390.3,-327.855C1383.37,-318.505 1375.09,-307.327 1369.48,-299.751"/>
<polygon fill="midnightblue" stroke="midnightblue" points="1387.63,-330.131 1396.39,-336.083 1393.25,-325.964 1387.63,-330.131"/>
</g>
<!-- Node27&#45;&gt;Node29 -->
<g id="edge42" class="edge"><title>Node27&#45;&gt;Node29</title>
<path fill="none" stroke="midnightblue" d="M1433.22,-332.638C1457.99,-322.504 1492.4,-308.427 1514.18,-299.516"/>
<polygon fill="midnightblue" stroke="midnightblue" points="1431.85,-329.418 1423.92,-336.444 1434.5,-335.897 1431.85,-329.418"/>
</g>
<!-- Node30 -->
<g id="node30" class="node"><title>Node30</title>
<g id="a_node30"><a xlink:href="a00163_source.html" target="_top" xlink:title="tm_stm32f4_usart_dma.c">
<polygon fill="white" stroke="black" points="1471,-224.5 1471,-243.5 1599,-243.5 1599,-224.5 1471,-224.5"/>
<text text-anchor="middle" x="1535" y="-231.5" font-family="Helvetica,sans-Serif" font-size="10.00">tm_stm32f4_usart_dma.c</text>
</a>
</g>
</g>
<!-- Node29&#45;&gt;Node30 -->
<g id="edge43" class="edge"><title>Node29&#45;&gt;Node30</title>
<path fill="none" stroke="midnightblue" d="M1535,-269.805C1535,-260.91 1535,-250.78 1535,-243.751"/>
<polygon fill="midnightblue" stroke="midnightblue" points="1531.5,-270.083 1535,-280.083 1538.5,-270.083 1531.5,-270.083"/>
</g>
<!-- Node31&#45;&gt;Node7 -->
<g id="edge50" class="edge"><title>Node31&#45;&gt;Node7</title>
<path fill="none" stroke="midnightblue" d="M687.153,-281.009C688.452,-280.665 689.739,-280.328 691,-280 748.018,-265.178 815.39,-248.82 849.971,-240.508"/>
<polygon fill="midnightblue" stroke="midnightblue" points="685.925,-277.714 677.174,-283.688 687.74,-284.475 685.925,-277.714"/>
</g>
<!-- Node31&#45;&gt;Node8 -->
<g id="edge51" class="edge"><title>Node31&#45;&gt;Node8</title>
<path fill="none" stroke="midnightblue" d="M684.529,-275.463C699.245,-267.334 717.455,-256.217 732,-244 752.917,-226.431 772.902,-200.99 782.709,-187.75"/>
<polygon fill="midnightblue" stroke="midnightblue" points="682.585,-272.534 675.437,-280.354 685.902,-278.699 682.585,-272.534"/>
</g>
<!-- Node31&#45;&gt;Node9 -->
<g id="edge52" class="edge"><title>Node31&#45;&gt;Node9</title>
<path fill="none" stroke="midnightblue" d="M672.535,-272.764C679.523,-264.499 687.723,-254.087 694,-244 731.834,-183.197 763.686,-102.381 773.715,-75.8484"/>
<polygon fill="midnightblue" stroke="midnightblue" points="669.736,-270.65 665.823,-280.496 675.022,-275.239 669.736,-270.65"/>
</g>
<!-- Node31&#45;&gt;Node11 -->
<g id="edge53" class="edge"><title>Node31&#45;&gt;Node11</title>
<path fill="none" stroke="midnightblue" d="M664.04,-270.447C670.553,-248.76 680,-211.672 680,-179 680,-179 680,-179 680,-121 680,-72.6227 733.432,-35.4628 760.982,-19.5177"/>
<polygon fill="midnightblue" stroke="midnightblue" points="660.609,-269.69 660.967,-280.279 667.291,-271.778 660.609,-269.69"/>
</g>
<!-- Node32 -->
<g id="node32" class="node"><title>Node32</title>
<g id="a_node32"><a xlink:href="a00066.html" target="_top" xlink:title="pid.c">
<polygon fill="white" stroke="black" points="784,-224.5 784,-243.5 822,-243.5 822,-224.5 784,-224.5"/>
<text text-anchor="middle" x="803" y="-231.5" font-family="Helvetica,sans-Serif" font-size="10.00">pid.c</text>
</a>
</g>
</g>
<!-- Node31&#45;&gt;Node32 -->
<g id="edge54" class="edge"><title>Node31&#45;&gt;Node32</title>
<path fill="none" stroke="midnightblue" d="M686.749,-278.294C715.468,-267.598 758.818,-251.454 783.665,-242.2"/>
<polygon fill="midnightblue" stroke="midnightblue" points="685.405,-275.059 677.255,-281.829 687.848,-281.619 685.405,-275.059"/>
</g>
<!-- Node34 -->
<g id="node34" class="node"><title>Node34</title>
<g id="a_node34"><a xlink:href="a00036.html" target="_top" xlink:title="console.c">
<polygon fill="white" stroke="black" points="1655.5,-280.5 1655.5,-299.5 1714.5,-299.5 1714.5,-280.5 1655.5,-280.5"/>
<text text-anchor="middle" x="1685" y="-287.5" font-family="Helvetica,sans-Serif" font-size="10.00">console.c</text>
</a>
</g>
</g>
<!-- Node33&#45;&gt;Node34 -->
<g id="edge57" class="edge"><title>Node33&#45;&gt;Node34</title>
<path fill="none" stroke="midnightblue" d="M1685,-325.805C1685,-316.91 1685,-306.78 1685,-299.751"/>
<polygon fill="midnightblue" stroke="midnightblue" points="1681.5,-326.083 1685,-336.083 1688.5,-326.083 1681.5,-326.083"/>
</g>
</g>
</svg>
