<?xml version="1.0" encoding="UTF-8" standalone="no"?>
<!DOCTYPE svg PUBLIC "-//W3C//DTD SVG 1.1//EN"
 "http://www.w3.org/Graphics/SVG/1.1/DTD/svg11.dtd">
<!-- Generated by graphviz version 2.38.0 (20140413.2041)
 -->
<!-- Title: SDIO_Exported_Constants Pages: 1 -->
<svg width="395pt" height="736pt"
 viewBox="0.00 0.00 395.00 736.00" xmlns="http://www.w3.org/2000/svg" xmlns:xlink="http://www.w3.org/1999/xlink">
<g id="graph0" class="graph" transform="scale(1 1) rotate(0) translate(4 732)">
<title>SDIO_Exported_Constants</title>
<polygon fill="white" stroke="none" points="-4,4 -4,-732 391,-732 391,4 -4,4"/>
<!-- Node20 -->
<g id="node1" class="node"><title>Node20</title>
<g id="a_node1"><a xlink:href="a00866.html" target="_top" xlink:title="SDIO_Read_Wait_Mode">
<polygon fill="white" stroke="black" points="255.5,-708.5 255.5,-727.5 380.5,-727.5 380.5,-708.5 255.5,-708.5"/>
<text text-anchor="middle" x="318" y="-715.5" font-family="Helvetica,sans-Serif" font-size="10.00">SDIO_Read_Wait_Mode</text>
</a>
</g>
</g>
<!-- Node4 -->
<g id="node2" class="node"><title>Node4</title>
<g id="a_node2"><a xlink:href="a00850.html" target="_top" xlink:title="SDIO_Clock_Power_Save">
<polygon fill="white" stroke="black" points="251.5,-670.5 251.5,-689.5 384.5,-689.5 384.5,-670.5 251.5,-670.5"/>
<text text-anchor="middle" x="318" y="-677.5" font-family="Helvetica,sans-Serif" font-size="10.00">SDIO_Clock_Power_Save</text>
</a>
</g>
</g>
<!-- Node7 -->
<g id="node3" class="node"><title>Node7</title>
<g id="a_node3"><a xlink:href="a00853.html" target="_top" xlink:title="SDIO_Power_State">
<polygon fill="white" stroke="black" points="266.5,-632.5 266.5,-651.5 369.5,-651.5 369.5,-632.5 266.5,-632.5"/>
<text text-anchor="middle" x="318" y="-639.5" font-family="Helvetica,sans-Serif" font-size="10.00">SDIO_Power_State</text>
</a>
</g>
</g>
<!-- Node19 -->
<g id="node4" class="node"><title>Node19</title>
<g id="a_node4"><a xlink:href="a00865.html" target="_top" xlink:title="SDIO_Flags">
<polygon fill="white" stroke="black" points="282.5,-594.5 282.5,-613.5 353.5,-613.5 353.5,-594.5 282.5,-594.5"/>
<text text-anchor="middle" x="318" y="-601.5" font-family="Helvetica,sans-Serif" font-size="10.00">SDIO_Flags</text>
</a>
</g>
</g>
<!-- Node15 -->
<g id="node5" class="node"><title>Node15</title>
<g id="a_node5"><a xlink:href="a00861.html" target="_top" xlink:title="SDIO_Data_Block_Size">
<polygon fill="white" stroke="black" points="257,-556.5 257,-575.5 379,-575.5 379,-556.5 257,-556.5"/>
<text text-anchor="middle" x="318" y="-563.5" font-family="Helvetica,sans-Serif" font-size="10.00">SDIO_Data_Block_Size</text>
</a>
</g>
</g>
<!-- Node2 -->
<g id="node6" class="node"><title>Node2</title>
<g id="a_node6"><a xlink:href="a00848.html" target="_top" xlink:title="SDIO_Clock_Edge">
<polygon fill="white" stroke="black" points="268,-518.5 268,-537.5 368,-537.5 368,-518.5 268,-518.5"/>
<text text-anchor="middle" x="318" y="-525.5" font-family="Helvetica,sans-Serif" font-size="10.00">SDIO_Clock_Edge</text>
</a>
</g>
</g>
<!-- Node1 -->
<g id="node7" class="node"><title>Node1</title>
<g id="a_node7"><a xlink:href="a00115.html" target="_top" xlink:title="SDIO driver modules. ">
<polygon fill="white" stroke="black" points="0,-354.5 0,-373.5 41,-373.5 41,-354.5 0,-354.5"/>
<text text-anchor="middle" x="20.5" y="-361.5" font-family="Helvetica,sans-Serif" font-size="10.00">SDIO</text>
</a>
</g>
</g>
<!-- Node0 -->
<g id="node16" class="node"><title>Node0</title>
<polygon fill="#bfbfbf" stroke="black" points="77,-354.5 77,-373.5 213,-373.5 213,-354.5 77,-354.5"/>
<text text-anchor="middle" x="145" y="-361.5" font-family="Helvetica,sans-Serif" font-size="10.00">SDIO_Exported_Constants</text>
</g>
<!-- Node1&#45;&gt;Node0 -->
<g id="edge1" class="edge"><title>Node1&#45;&gt;Node0</title>
<path fill="none" stroke="black" d="M51.2394,-364C59.1016,-364 67.9158,-364 76.8994,-364"/>
<polygon fill="black" stroke="black" points="51.1818,-360.5 41.1817,-364 51.1817,-367.5 51.1818,-360.5"/>
</g>
<!-- Node18 -->
<g id="node8" class="node"><title>Node18</title>
<g id="a_node8"><a xlink:href="a00864.html" target="_top" xlink:title="SDIO_DPSM_State">
<polygon fill="white" stroke="black" points="266,-480.5 266,-499.5 370,-499.5 370,-480.5 266,-480.5"/>
<text text-anchor="middle" x="318" y="-487.5" font-family="Helvetica,sans-Serif" font-size="10.00">SDIO_DPSM_State</text>
</a>
</g>
</g>
<!-- Node11 -->
<g id="node9" class="node"><title>Node11</title>
<g id="a_node9"><a xlink:href="a00857.html" target="_top" xlink:title="SDIO_Wait_Interrupt\l_State">
<polygon fill="white" stroke="black" points="264,-431 264,-461 372,-461 372,-431 264,-431"/>
<text text-anchor="start" x="272" y="-449" font-family="Helvetica,sans-Serif" font-size="10.00">SDIO_Wait_Interrupt</text>
<text text-anchor="middle" x="318" y="-438" font-family="Helvetica,sans-Serif" font-size="10.00">_State</text>
</a>
</g>
</g>
<!-- Node12 -->
<g id="node10" class="node"><title>Node12</title>
<g id="a_node10"><a xlink:href="a00858.html" target="_top" xlink:title="SDIO_CPSM_State">
<polygon fill="white" stroke="black" points="266,-392.5 266,-411.5 370,-411.5 370,-392.5 266,-392.5"/>
<text text-anchor="middle" x="318" y="-399.5" font-family="Helvetica,sans-Serif" font-size="10.00">SDIO_CPSM_State</text>
</a>
</g>
</g>
<!-- Node5 -->
<g id="node11" class="node"><title>Node5</title>
<g id="a_node11"><a xlink:href="a00851.html" target="_top" xlink:title="SDIO_Bus_Wide">
<polygon fill="white" stroke="black" points="272,-354.5 272,-373.5 364,-373.5 364,-354.5 272,-354.5"/>
<text text-anchor="middle" x="318" y="-361.5" font-family="Helvetica,sans-Serif" font-size="10.00">SDIO_Bus_Wide</text>
</a>
</g>
</g>
<!-- Node17 -->
<g id="node12" class="node"><title>Node17</title>
<g id="a_node12"><a xlink:href="a00863.html" target="_top" xlink:title="SDIO_Transfer_Type">
<polygon fill="white" stroke="black" points="263,-316.5 263,-335.5 373,-335.5 373,-316.5 263,-316.5"/>
<text text-anchor="middle" x="318" y="-323.5" font-family="Helvetica,sans-Serif" font-size="10.00">SDIO_Transfer_Type</text>
</a>
</g>
</g>
<!-- Node9 -->
<g id="node13" class="node"><title>Node9</title>
<g id="a_node13"><a xlink:href="a00855.html" target="_top" xlink:title="SDIO_Command_Index">
<polygon fill="white" stroke="black" points="257.5,-278.5 257.5,-297.5 378.5,-297.5 378.5,-278.5 257.5,-278.5"/>
<text text-anchor="middle" x="318" y="-285.5" font-family="Helvetica,sans-Serif" font-size="10.00">SDIO_Command_Index</text>
</a>
</g>
</g>
<!-- Node3 -->
<g id="node14" class="node"><title>Node3</title>
<g id="a_node14"><a xlink:href="a00849.html" target="_top" xlink:title="SDIO_Clock_Bypass">
<polygon fill="white" stroke="black" points="263,-240.5 263,-259.5 373,-259.5 373,-240.5 263,-240.5"/>
<text text-anchor="middle" x="318" y="-247.5" font-family="Helvetica,sans-Serif" font-size="10.00">SDIO_Clock_Bypass</text>
</a>
</g>
</g>
<!-- Node14 -->
<g id="node15" class="node"><title>Node14</title>
<g id="a_node15"><a xlink:href="a00860.html" target="_top" xlink:title="SDIO_Data_Length">
<polygon fill="white" stroke="black" points="267,-202.5 267,-221.5 369,-221.5 369,-202.5 267,-202.5"/>
<text text-anchor="middle" x="318" y="-209.5" font-family="Helvetica,sans-Serif" font-size="10.00">SDIO_Data_Length</text>
</a>
</g>
</g>
<!-- Node0&#45;&gt;Node20 -->
<g id="edge20" class="edge"><title>Node0&#45;&gt;Node20</title>
<path fill="none" stroke="black" d="M145.917,-383.899C146.8,-441.477 157.475,-609.809 249,-699 252.95,-702.85 257.613,-705.933 262.616,-708.401"/>
<polygon fill="black" stroke="black" points="149.416,-383.615 145.851,-373.638 142.416,-383.66 149.416,-383.615"/>
</g>
<!-- Node0&#45;&gt;Node4 -->
<g id="edge4" class="edge"><title>Node0&#45;&gt;Node4</title>
<path fill="none" stroke="black" d="M146.817,-383.748C150.106,-436.776 166.59,-583.497 249,-661 253.107,-664.863 257.934,-667.951 263.09,-670.418"/>
<polygon fill="black" stroke="black" points="150.307,-383.455 146.285,-373.653 143.316,-383.823 150.307,-383.455"/>
</g>
<!-- Node0&#45;&gt;Node7 -->
<g id="edge7" class="edge"><title>Node0&#45;&gt;Node7</title>
<path fill="none" stroke="black" d="M147.965,-383.78C153.844,-432.121 175.714,-557.1 249,-623 254.013,-627.508 260.011,-630.956 266.339,-633.591"/>
<polygon fill="black" stroke="black" points="151.428,-383.252 146.841,-373.702 144.471,-384.028 151.428,-383.252"/>
</g>
<!-- Node0&#45;&gt;Node19 -->
<g id="edge19" class="edge"><title>Node0&#45;&gt;Node19</title>
<path fill="none" stroke="black" d="M149.466,-383.755C158.103,-426.983 184.701,-530.449 249,-585 258.347,-592.93 270.768,-597.564 282.434,-600.267"/>
<polygon fill="black" stroke="black" points="152.859,-382.865 147.566,-373.687 145.981,-384.162 152.859,-382.865"/>
</g>
<!-- Node0&#45;&gt;Node15 -->
<g id="edge15" class="edge"><title>Node0&#45;&gt;Node15</title>
<path fill="none" stroke="black" d="M151.431,-383.399C162.94,-420.875 193.396,-503.371 249,-547 253.918,-550.859 259.576,-553.935 265.482,-556.386"/>
<polygon fill="black" stroke="black" points="154.756,-382.299 148.571,-373.697 148.042,-384.279 154.756,-382.299"/>
</g>
<!-- Node0&#45;&gt;Node2 -->
<g id="edge2" class="edge"><title>Node0&#45;&gt;Node2</title>
<path fill="none" stroke="black" d="M154.359,-383.197C168.942,-414.405 202.023,-475.97 249,-509 254.716,-513.019 261.257,-516.19 267.973,-518.691"/>
<polygon fill="black" stroke="black" points="157.444,-381.527 150.129,-373.863 151.068,-384.416 157.444,-381.527"/>
</g>
<!-- Node0&#45;&gt;Node18 -->
<g id="edge18" class="edge"><title>Node0&#45;&gt;Node18</title>
<path fill="none" stroke="black" d="M158.339,-381.813C175.79,-405.663 209.939,-447.668 249,-471 255.419,-474.834 262.64,-477.92 269.916,-480.397"/>
<polygon fill="black" stroke="black" points="161.157,-379.737 152.493,-373.638 155.463,-383.808 161.157,-379.737"/>
</g>
<!-- Node0&#45;&gt;Node11 -->
<g id="edge11" class="edge"><title>Node0&#45;&gt;Node11</title>
<path fill="none" stroke="black" d="M170.361,-378.874C190.894,-391.069 221.277,-408.323 249,-421 256.664,-424.505 264.974,-427.887 273.067,-430.971"/>
<polygon fill="black" stroke="black" points="172.042,-375.801 161.665,-373.662 168.443,-381.805 172.042,-375.801"/>
</g>
<!-- Node0&#45;&gt;Node12 -->
<g id="edge12" class="edge"><title>Node0&#45;&gt;Node12</title>
<path fill="none" stroke="black" d="M199.209,-375.824C223.317,-381.182 251.44,-387.431 274.16,-392.48"/>
<polygon fill="black" stroke="black" points="199.672,-372.342 189.151,-373.589 198.153,-379.175 199.672,-372.342"/>
</g>
<!-- Node0&#45;&gt;Node5 -->
<g id="edge5" class="edge"><title>Node0&#45;&gt;Node5</title>
<path fill="none" stroke="black" d="M223.372,-364C240.003,-364 257.048,-364 271.959,-364"/>
<polygon fill="black" stroke="black" points="223.093,-360.5 213.093,-364 223.093,-367.5 223.093,-360.5"/>
</g>
<!-- Node0&#45;&gt;Node17 -->
<g id="edge17" class="edge"><title>Node0&#45;&gt;Node17</title>
<path fill="none" stroke="black" d="M199.209,-352.176C223.317,-346.818 251.44,-340.569 274.16,-335.52"/>
<polygon fill="black" stroke="black" points="198.153,-348.825 189.151,-354.411 199.672,-355.658 198.153,-348.825"/>
</g>
<!-- Node0&#45;&gt;Node9 -->
<g id="edge9" class="edge"><title>Node0&#45;&gt;Node9</title>
<path fill="none" stroke="black" d="M169.401,-348.978C189.785,-336.406 220.465,-318.695 249,-307 257.847,-303.374 267.615,-300.194 276.923,-297.525"/>
<polygon fill="black" stroke="black" points="167.429,-346.083 160.805,-354.353 171.14,-352.019 167.429,-346.083"/>
</g>
<!-- Node0&#45;&gt;Node3 -->
<g id="edge3" class="edge"><title>Node0&#45;&gt;Node3</title>
<path fill="none" stroke="black" d="M160.141,-346.665C178.464,-325.321 212.426,-289.398 249,-269 255.851,-265.179 263.527,-262.081 271.187,-259.583"/>
<polygon fill="black" stroke="black" points="157.457,-344.418 153.701,-354.324 162.815,-348.923 157.457,-344.418"/>
</g>
<!-- Node0&#45;&gt;Node14 -->
<g id="edge14" class="edge"><title>Node0&#45;&gt;Node14</title>
<path fill="none" stroke="black" d="M155.435,-345.18C170.937,-316.204 204.563,-260.892 249,-231 254.797,-227.1 261.384,-223.995 268.122,-221.524"/>
<polygon fill="black" stroke="black" points="152.229,-343.759 150.72,-354.246 158.44,-346.989 152.229,-343.759"/>
</g>
<!-- Node8 -->
<g id="node17" class="node"><title>Node8</title>
<g id="a_node17"><a xlink:href="a00854.html" target="_top" xlink:title="SDIO_Interrupt_sources">
<polygon fill="white" stroke="black" points="257,-164.5 257,-183.5 379,-183.5 379,-164.5 257,-164.5"/>
<text text-anchor="middle" x="318" y="-171.5" font-family="Helvetica,sans-Serif" font-size="10.00">SDIO_Interrupt_sources</text>
</a>
</g>
</g>
<!-- Node0&#45;&gt;Node8 -->
<g id="edge8" class="edge"><title>Node0&#45;&gt;Node8</title>
<path fill="none" stroke="black" d="M152.318,-344.402C164.844,-308.719 196.265,-233.136 249,-193 254.072,-189.14 259.889,-186.064 265.94,-183.613"/>
<polygon fill="black" stroke="black" points="148.923,-343.517 149.035,-354.112 155.554,-345.76 148.923,-343.517"/>
</g>
<!-- Node6 -->
<g id="node18" class="node"><title>Node6</title>
<g id="a_node18"><a xlink:href="a00852.html" target="_top" xlink:title="SDIO_Hardware_Flow\l_Control">
<polygon fill="white" stroke="black" points="260.5,-115 260.5,-145 375.5,-145 375.5,-115 260.5,-115"/>
<text text-anchor="start" x="268.5" y="-133" font-family="Helvetica,sans-Serif" font-size="10.00">SDIO_Hardware_Flow</text>
<text text-anchor="middle" x="318" y="-122" font-family="Helvetica,sans-Serif" font-size="10.00">_Control</text>
</a>
</g>
</g>
<!-- Node0&#45;&gt;Node6 -->
<g id="edge6" class="edge"><title>Node0&#45;&gt;Node6</title>
<path fill="none" stroke="black" d="M150.459,-344.271C160.714,-303.277 189.773,-208.282 249,-155 253.301,-151.13 258.253,-147.844 263.481,-145.057"/>
<polygon fill="black" stroke="black" points="147.028,-343.571 148.104,-354.111 153.836,-345.2 147.028,-343.571"/>
</g>
<!-- Node16 -->
<g id="node19" class="node"><title>Node16</title>
<g id="a_node19"><a xlink:href="a00862.html" target="_top" xlink:title="SDIO_Transfer_Direction">
<polygon fill="white" stroke="black" points="254.5,-76.5 254.5,-95.5 381.5,-95.5 381.5,-76.5 254.5,-76.5"/>
<text text-anchor="middle" x="318" y="-83.5" font-family="Helvetica,sans-Serif" font-size="10.00">SDIO_Transfer_Direction</text>
</a>
</g>
</g>
<!-- Node0&#45;&gt;Node16 -->
<g id="edge16" class="edge"><title>Node0&#45;&gt;Node16</title>
<path fill="none" stroke="black" d="M147.965,-344.22C153.844,-295.879 175.714,-170.9 249,-105 253.284,-101.148 258.287,-98.0698 263.6,-95.6114"/>
<polygon fill="black" stroke="black" points="144.471,-343.972 146.841,-354.298 151.428,-344.748 144.471,-343.972"/>
</g>
<!-- Node13 -->
<g id="node20" class="node"><title>Node13</title>
<g id="a_node20"><a xlink:href="a00859.html" target="_top" xlink:title="SDIO_Response_Registers">
<polygon fill="white" stroke="black" points="249,-38.5 249,-57.5 387,-57.5 387,-38.5 249,-38.5"/>
<text text-anchor="middle" x="318" y="-45.5" font-family="Helvetica,sans-Serif" font-size="10.00">SDIO_Response_Registers</text>
</a>
</g>
</g>
<!-- Node0&#45;&gt;Node13 -->
<g id="edge13" class="edge"><title>Node0&#45;&gt;Node13</title>
<path fill="none" stroke="black" d="M146.817,-344.252C150.106,-291.224 166.59,-144.503 249,-67 253.107,-63.1371 257.934,-60.049 263.09,-57.5819"/>
<polygon fill="black" stroke="black" points="143.316,-344.177 146.285,-354.347 150.307,-344.545 143.316,-344.177"/>
</g>
<!-- Node10 -->
<g id="node21" class="node"><title>Node10</title>
<g id="a_node21"><a xlink:href="a00856.html" target="_top" xlink:title="SDIO_Response_Type">
<polygon fill="white" stroke="black" points="259,-0.5 259,-19.5 377,-19.5 377,-0.5 259,-0.5"/>
<text text-anchor="middle" x="318" y="-7.5" font-family="Helvetica,sans-Serif" font-size="10.00">SDIO_Response_Type</text>
</a>
</g>
</g>
<!-- Node0&#45;&gt;Node10 -->
<g id="edge10" class="edge"><title>Node0&#45;&gt;Node10</title>
<path fill="none" stroke="black" d="M145.917,-344.101C146.8,-286.523 157.475,-118.191 249,-29 252.95,-25.1503 257.613,-22.0669 262.616,-19.5994"/>
<polygon fill="black" stroke="black" points="142.416,-344.34 145.851,-354.362 149.416,-344.385 142.416,-344.34"/>
</g>
</g>
</svg>
