<?xml version="1.0" encoding="UTF-8" standalone="no"?>
<!DOCTYPE svg PUBLIC "-//W3C//DTD SVG 1.1//EN"
 "http://www.w3.org/Graphics/SVG/1.1/DTD/svg11.dtd">
<!-- Generated by graphviz version 2.38.0 (20140413.2041)
 -->
<!-- Title: stm32f4xx.h Pages: 1 -->
<!--zoomable 476 -->
<svg id="main" version="1.1" xmlns="http://www.w3.org/2000/svg" xmlns:xlink="http://www.w3.org/1999/xlink" xml:space="preserve" onload="init(evt)">
<style type="text/css"><![CDATA[
.edge:hover path { stroke: red; }
.edge:hover polygon { stroke: red; fill: red; }
]]></style>
<script type="text/javascript"><![CDATA[
var edges = document.getElementsByTagName('g');
if (edges && edges.length) {
  for (var i=0;i<edges.length;i++) {
    if (edges[i].id.substr(0,4)=='edge') {
      edges[i].setAttribute('class','edge');
    }
  }
}
]]></script>
        <defs>
                <circle id="rim" cx="0" cy="0" r="7"/>
                <circle id="rim2" cx="0" cy="0" r="3.5"/>
                <g id="zoomPlus">
                        <use xlink:href="#rim" fill="#404040">
                                <set attributeName="fill" to="#808080" begin="zoomplus.mouseover" end="zoomplus.mouseout"/>
                        </use>
                        <path d="M-4,0h8M0,-4v8" fill="none" stroke="white" stroke-width="1.5" pointer-events="none"/>
                </g>
                <g id="zoomMin">
                        <use xlink:href="#rim" fill="#404040">
                                <set attributeName="fill" to="#808080" begin="zoomminus.mouseover" end="zoomminus.mouseout"/>
                        </use>
                        <path d="M-4,0h8" fill="none" stroke="white" stroke-width="1.5" pointer-events="none"/>
                </g>
                <g id="dirArrow">
                        <path fill="none" stroke="white" stroke-width="1.5" d="M0,-3.0v7 M-2.5,-0.5L0,-3.0L2.5,-0.5"/>
                </g>
               <g id="resetDef">
                       <use xlink:href="#rim2" fill="#404040">
                               <set attributeName="fill" to="#808080" begin="reset.mouseover" end="reset.mouseout"/>
                       </use>
               </g>
        </defs>

<script type="text/javascript">
var viewWidth = 1846;
var viewHeight = 476;
var sectionId = 'dynsection-1';
</script>
<script xlink:href="svgpan.js"/>
<svg id="graph" class="graph">
<g id="viewport">
<title>stm32f4xx.h</title>
<polygon fill="white" stroke="none" points="-4,4 -4,-472 1842,-472 1842,4 -4,4"/>
<!-- Node1 -->
<g id="node1" class="node"><title>Node1</title>
<polygon fill="#bfbfbf" stroke="black" points="1061.5,-448.5 1061.5,-467.5 1132.5,-467.5 1132.5,-448.5 1061.5,-448.5"/>
<text text-anchor="middle" x="1097" y="-455.5" font-family="Helvetica,sans-Serif" font-size="10.00">stm32f4xx.h</text>
</g>
<!-- Node2 -->
<g id="node2" class="node"><title>Node2</title>
<g id="a_node2"><a xlink:href="a00437.html" target="_top" xlink:title="Project XA&#45;Galvo scanner specific digital to analog converter methods. ">
<polygon fill="white" stroke="black" points="228,-336.5 228,-355.5 328,-355.5 328,-336.5 228,-336.5"/>
<text text-anchor="middle" x="278" y="-343.5" font-family="Helvetica,sans-Serif" font-size="10.00">md_stm32f4_dac.h</text>
</a>
</g>
</g>
<!-- Node1&#45;&gt;Node2 -->
<g id="edge1" class="edge"><title>Node1&#45;&gt;Node2</title>
<path fill="none" stroke="midnightblue" d="M1051.12,-456.967C949.737,-456.155 699.362,-450.091 494,-412 421.804,-398.609 339.493,-369.965 300.612,-355.595"/>
<polygon fill="midnightblue" stroke="midnightblue" points="1051.29,-460.468 1061.31,-457.034 1051.33,-453.468 1051.29,-460.468"/>
</g>
<!-- Node4 -->
<g id="node4" class="node"><title>Node4</title>
<g id="a_node4"><a xlink:href="a00439.html" target="_top" xlink:title="Waveform generation extension for DAC library. ">
<polygon fill="white" stroke="black" points="0,-280.5 0,-299.5 148,-299.5 148,-280.5 0,-280.5"/>
<text text-anchor="middle" x="74" y="-287.5" font-family="Helvetica,sans-Serif" font-size="10.00">md_stm32f4_dac_waveform.h</text>
</a>
</g>
</g>
<!-- Node1&#45;&gt;Node4 -->
<g id="edge41" class="edge"><title>Node1&#45;&gt;Node4</title>
<path fill="none" stroke="midnightblue" d="M1051.11,-455.939C886.779,-451.947 333.382,-436.784 258,-412 182.454,-387.162 108.202,-322.807 83.0128,-299.547"/>
<polygon fill="midnightblue" stroke="midnightblue" points="1051.28,-459.444 1061.37,-456.186 1051.45,-452.446 1051.28,-459.444"/>
</g>
<!-- Node6 -->
<g id="node6" class="node"><title>Node6</title>
<g id="a_node6"><a xlink:href="a00456.html" target="_top" xlink:title="Provides initialization methods to configure analog subsystems and DMA controller. ">
<polygon fill="white" stroke="black" points="166.5,-280.5 166.5,-299.5 265.5,-299.5 265.5,-280.5 166.5,-280.5"/>
<text text-anchor="middle" x="216" y="-287.5" font-family="Helvetica,sans-Serif" font-size="10.00">periph2dma_conf.h</text>
</a>
</g>
</g>
<!-- Node1&#45;&gt;Node6 -->
<g id="edge58" class="edge"><title>Node1&#45;&gt;Node6</title>
<path fill="none" stroke="midnightblue" d="M1051.24,-457.399C940.562,-457.628 649.943,-453.825 412,-412 324.033,-396.537 274.272,-426.159 219,-356 206.137,-339.672 210.215,-313.236 213.526,-299.658"/>
<polygon fill="midnightblue" stroke="midnightblue" points="1051.4,-460.899 1061.38,-457.365 1051.37,-453.899 1051.4,-460.899"/>
</g>
<!-- Node8 -->
<g id="node8" class="node"><title>Node8</title>
<g id="a_node8"><a xlink:href="a00109.html" target="_top" xlink:title="Provides DMA related configuration and access functions for ADC and DAC. ">
<polygon fill="white" stroke="black" points="1250,-168.5 1250,-187.5 1336,-187.5 1336,-168.5 1250,-168.5"/>
<text text-anchor="middle" x="1293" y="-175.5" font-family="Helvetica,sans-Serif" font-size="10.00">adc_dac_dma.h</text>
</a>
</g>
</g>
<!-- Node1&#45;&gt;Node8 -->
<g id="edge69" class="edge"><title>Node1&#45;&gt;Node8</title>
<path fill="none" stroke="midnightblue" d="M1142.61,-455.694C1225.13,-452.59 1395.31,-442.577 1445,-412 1470.62,-396.238 1474.17,-384.752 1483,-356 1485.61,-347.503 1487.01,-343.932 1483,-336 1475.22,-320.61 1371.08,-255.24 1358,-244 1336.21,-225.277 1312.93,-200.748 1301.02,-187.834"/>
<polygon fill="midnightblue" stroke="midnightblue" points="1142.38,-452.199 1132.52,-456.055 1142.63,-459.195 1142.38,-452.199"/>
</g>
<!-- Node17 -->
<g id="node17" class="node"><title>Node17</title>
<g id="a_node17"><a xlink:href="a00445.html" target="_top" xlink:title="Provides generic methods for GPIO module initialization and manipulation. ">
<polygon fill="white" stroke="black" points="594,-392.5 594,-411.5 696,-411.5 696,-392.5 594,-392.5"/>
<text text-anchor="middle" x="645" y="-399.5" font-family="Helvetica,sans-Serif" font-size="10.00">md_stm32f4_gpio.h</text>
</a>
</g>
</g>
<!-- Node1&#45;&gt;Node17 -->
<g id="edge24" class="edge"><title>Node1&#45;&gt;Node17</title>
<path fill="none" stroke="midnightblue" d="M1051.03,-451.508C966.009,-441.351 784.791,-419.701 696.073,-409.102"/>
<polygon fill="midnightblue" stroke="midnightblue" points="1050.81,-455.007 1061.15,-452.718 1051.64,-448.056 1050.81,-455.007"/>
</g>
<!-- Node18 -->
<g id="node18" class="node"><title>Node18</title>
<g id="a_node18"><a xlink:href="a00443.html" target="_top" xlink:title="Definitions to extend board support for STM32F429i&#45;DISCO and equivalent boards. ">
<polygon fill="white" stroke="black" points="346.5,-336.5 346.5,-355.5 453.5,-355.5 453.5,-336.5 346.5,-336.5"/>
<text text-anchor="middle" x="400" y="-343.5" font-family="Helvetica,sans-Serif" font-size="10.00">md_stm32f4_disco.h</text>
</a>
</g>
</g>
<!-- Node1&#45;&gt;Node18 -->
<g id="edge45" class="edge"><title>Node1&#45;&gt;Node18</title>
<path fill="none" stroke="midnightblue" d="M1051.1,-455.063C937.924,-449.986 647.866,-435.074 554,-412 501.019,-398.976 442.801,-370.026 415.61,-355.565"/>
<polygon fill="midnightblue" stroke="midnightblue" points="1051.03,-458.563 1061.17,-455.509 1051.34,-451.57 1051.03,-458.563"/>
</g>
<!-- Node21 -->
<g id="node21" class="node"><title>Node21</title>
<g id="a_node21"><a xlink:href="a00471_source.html" target="_top" xlink:title="tm_stm32f4_pwm.h">
<polygon fill="white" stroke="black" points="836.5,-336.5 836.5,-355.5 939.5,-355.5 939.5,-336.5 836.5,-336.5"/>
<text text-anchor="middle" x="888" y="-343.5" font-family="Helvetica,sans-Serif" font-size="10.00">tm_stm32f4_pwm.h</text>
</a>
</g>
</g>
<!-- Node1&#45;&gt;Node21 -->
<g id="edge51" class="edge"><title>Node1&#45;&gt;Node21</title>
<path fill="none" stroke="midnightblue" d="M1051.4,-451.908C1017.72,-446.384 972.008,-435.04 938,-412 916.076,-397.147 899.616,-369.564 892.253,-355.59"/>
<polygon fill="midnightblue" stroke="midnightblue" points="1051.02,-455.392 1061.44,-453.442 1052.08,-448.472 1051.02,-455.392"/>
</g>
<!-- Node23 -->
<g id="node23" class="node"><title>Node23</title>
<g id="a_node23"><a xlink:href="a00473_source.html" target="_top" xlink:title="tm_stm32f4_timer.h">
<polygon fill="white" stroke="black" points="472,-336.5 472,-355.5 576,-355.5 576,-336.5 472,-336.5"/>
<text text-anchor="middle" x="524" y="-343.5" font-family="Helvetica,sans-Serif" font-size="10.00">tm_stm32f4_timer.h</text>
</a>
</g>
</g>
<!-- Node1&#45;&gt;Node23 -->
<g id="edge55" class="edge"><title>Node1&#45;&gt;Node23</title>
<path fill="none" stroke="midnightblue" d="M1051.04,-457.104C941.202,-456.699 666.537,-451.628 585,-412 558.832,-399.282 538.201,-370.189 529.087,-355.63"/>
<polygon fill="midnightblue" stroke="midnightblue" points="1051.14,-460.604 1061.15,-457.13 1051.15,-453.604 1051.14,-460.604"/>
</g>
<!-- Node25 -->
<g id="node25" class="node"><title>Node25</title>
<g id="a_node25"><a xlink:href="a00477_source.html" target="_top" xlink:title="tm_stm32f4_usart.h">
<polygon fill="white" stroke="black" points="714,-336.5 714,-355.5 818,-355.5 818,-336.5 714,-336.5"/>
<text text-anchor="middle" x="766" y="-343.5" font-family="Helvetica,sans-Serif" font-size="10.00">tm_stm32f4_usart.h</text>
</a>
</g>
</g>
<!-- Node1&#45;&gt;Node25 -->
<g id="edge56" class="edge"><title>Node1&#45;&gt;Node25</title>
<path fill="none" stroke="midnightblue" d="M1051.05,-448.117C1013.43,-440.287 959.099,-427.692 913,-412 864.395,-395.455 809.719,-369.114 782.809,-355.606"/>
<polygon fill="midnightblue" stroke="midnightblue" points="1050.69,-451.617 1061.19,-450.198 1052.1,-444.76 1050.69,-451.617"/>
</g>
<!-- Node27 -->
<g id="node27" class="node"><title>Node27</title>
<g id="a_node27"><a xlink:href="a00479_source.html" target="_top" xlink:title="tm_stm32f4_usart_dma.h">
<polygon fill="white" stroke="black" points="1183,-280.5 1183,-299.5 1311,-299.5 1311,-280.5 1183,-280.5"/>
<text text-anchor="middle" x="1247" y="-287.5" font-family="Helvetica,sans-Serif" font-size="10.00">tm_stm32f4_usart_dma.h</text>
</a>
</g>
</g>
<!-- Node1&#45;&gt;Node27 -->
<g id="edge57" class="edge"><title>Node1&#45;&gt;Node27</title>
<path fill="none" stroke="midnightblue" d="M1142.4,-448.368C1170.2,-441.59 1205.59,-430.184 1233,-412 1260.56,-393.717 1270.37,-386.958 1282,-356 1289.93,-334.884 1270.42,-312.08 1257.44,-299.889"/>
<polygon fill="midnightblue" stroke="midnightblue" points="1141.47,-444.989 1132.52,-450.66 1143.06,-451.808 1141.47,-444.989"/>
</g>
<!-- Node29 -->
<g id="node29" class="node"><title>Node29</title>
<g id="a_node29"><a xlink:href="a00441.html" target="_top" xlink:title="Provides SysTick&#45;Timer driven delay functions. ">
<polygon fill="white" stroke="black" points="1117.5,-392.5 1117.5,-411.5 1224.5,-411.5 1224.5,-392.5 1117.5,-392.5"/>
<text text-anchor="middle" x="1171" y="-399.5" font-family="Helvetica,sans-Serif" font-size="10.00">md_stm32f4_delay.h</text>
</a>
</g>
</g>
<!-- Node1&#45;&gt;Node29 -->
<g id="edge42" class="edge"><title>Node1&#45;&gt;Node29</title>
<path fill="none" stroke="midnightblue" d="M1117.03,-442.38C1130.41,-432.62 1147.56,-420.106 1158.89,-411.834"/>
<polygon fill="midnightblue" stroke="midnightblue" points="1114.9,-439.602 1108.89,-448.324 1119.03,-445.257 1114.9,-439.602"/>
</g>
<!-- Node31 -->
<g id="node31" class="node"><title>Node31</title>
<g id="a_node31"><a xlink:href="a00447_source.html" target="_top" xlink:title="md_stm32f4_timer.h">
<polygon fill="white" stroke="black" points="1330,-392.5 1330,-411.5 1436,-411.5 1436,-392.5 1330,-392.5"/>
<text text-anchor="middle" x="1383" y="-399.5" font-family="Helvetica,sans-Serif" font-size="10.00">md_stm32f4_timer.h</text>
</a>
</g>
</g>
<!-- Node1&#45;&gt;Node31 -->
<g id="edge46" class="edge"><title>Node1&#45;&gt;Node31</title>
<path fill="none" stroke="midnightblue" d="M1142.55,-448.399C1196.15,-438.28 1284.57,-421.585 1337.94,-411.507"/>
<polygon fill="midnightblue" stroke="midnightblue" points="1141.82,-444.975 1132.64,-450.27 1143.12,-451.854 1141.82,-444.975"/>
</g>
<!-- Node33 -->
<g id="node33" class="node"><title>Node33</title>
<g id="a_node33"><a xlink:href="a00451_source.html" target="_top" xlink:title="mdb_gpio.h">
<polygon fill="white" stroke="black" points="1530.5,-392.5 1530.5,-411.5 1597.5,-411.5 1597.5,-392.5 1530.5,-392.5"/>
<text text-anchor="middle" x="1564" y="-399.5" font-family="Helvetica,sans-Serif" font-size="10.00">mdb_gpio.h</text>
</a>
</g>
</g>
<!-- Node1&#45;&gt;Node33 -->
<g id="edge49" class="edge"><title>Node1&#45;&gt;Node33</title>
<path fill="none" stroke="midnightblue" d="M1143.06,-453.243C1220.36,-446.67 1381.02,-431.871 1516,-412 1520.7,-411.308 1525.64,-410.489 1530.49,-409.63"/>
<polygon fill="midnightblue" stroke="midnightblue" points="1142.38,-449.787 1132.71,-454.115 1142.97,-456.762 1142.38,-449.787"/>
</g>
<!-- Node35 -->
<g id="node35" class="node"><title>Node35</title>
<g id="a_node35"><a xlink:href="a00475_source.html" target="_top" xlink:title="tm_stm32f4_timer_properties.h">
<polygon fill="white" stroke="black" points="947,-392.5 947,-411.5 1099,-411.5 1099,-392.5 947,-392.5"/>
<text text-anchor="middle" x="1023" y="-399.5" font-family="Helvetica,sans-Serif" font-size="10.00">tm_stm32f4_timer_properties.h</text>
</a>
</g>
</g>
<!-- Node1&#45;&gt;Node35 -->
<g id="edge52" class="edge"><title>Node1&#45;&gt;Node35</title>
<path fill="none" stroke="midnightblue" d="M1076.97,-442.38C1063.59,-432.62 1046.44,-420.106 1035.11,-411.834"/>
<polygon fill="midnightblue" stroke="midnightblue" points="1074.97,-445.257 1085.11,-448.324 1079.1,-439.602 1074.97,-445.257"/>
</g>
<!-- Node37 -->
<g id="node37" class="node"><title>Node37</title>
<g id="a_node37"><a xlink:href="a00452_source.html" target="_top" xlink:title="mdb_gpio.h">
<polygon fill="white" stroke="black" points="1452.5,-280.5 1452.5,-299.5 1519.5,-299.5 1519.5,-280.5 1452.5,-280.5"/>
<text text-anchor="middle" x="1486" y="-287.5" font-family="Helvetica,sans-Serif" font-size="10.00">mdb_gpio.h</text>
</a>
</g>
</g>
<!-- Node1&#45;&gt;Node37 -->
<g id="edge59" class="edge"><title>Node1&#45;&gt;Node37</title>
<path fill="none" stroke="midnightblue" d="M1142.81,-456.4C1262.06,-454.365 1575.04,-445.822 1606,-412 1628.81,-387.086 1625.24,-363.763 1606,-336 1586.67,-308.111 1547.79,-297.48 1519.51,-293.443"/>
<polygon fill="midnightblue" stroke="midnightblue" points="1142.5,-452.904 1132.56,-456.567 1142.61,-459.903 1142.5,-452.904"/>
</g>
<!-- Node39 -->
<g id="node39" class="node"><title>Node39</title>
<g id="a_node39"><a xlink:href="a00458.html" target="_top" xlink:title="PID compensator implementation. ">
<polygon fill="white" stroke="black" points="1560,-280.5 1560,-299.5 1598,-299.5 1598,-280.5 1560,-280.5"/>
<text text-anchor="middle" x="1579" y="-287.5" font-family="Helvetica,sans-Serif" font-size="10.00">pid.h</text>
</a>
</g>
</g>
<!-- Node1&#45;&gt;Node39 -->
<g id="edge63" class="edge"><title>Node1&#45;&gt;Node39</title>
<path fill="none" stroke="midnightblue" d="M1143.02,-456.57C1265.9,-454.946 1594.56,-447.31 1627,-412 1633.8,-404.598 1643.55,-376.107 1626,-336 1619.21,-320.476 1604.24,-307.695 1593.01,-299.772"/>
<polygon fill="midnightblue" stroke="midnightblue" points="1142.77,-453.072 1132.82,-456.697 1142.86,-460.072 1142.77,-453.072"/>
</g>
<!-- Node41 -->
<g id="node41" class="node"><title>Node41</title>
<g id="a_node41"><a xlink:href="a00465_source.html" target="_top" xlink:title="stm32f4xx_it.h">
<polygon fill="white" stroke="black" points="1661.5,-224.5 1661.5,-243.5 1742.5,-243.5 1742.5,-224.5 1661.5,-224.5"/>
<text text-anchor="middle" x="1702" y="-231.5" font-family="Helvetica,sans-Serif" font-size="10.00">stm32f4xx_it.h</text>
</a>
</g>
</g>
<!-- Node1&#45;&gt;Node41 -->
<g id="edge70" class="edge"><title>Node1&#45;&gt;Node41</title>
<path fill="none" stroke="midnightblue" d="M1143.14,-456.108C1268.06,-453.293 1606.08,-442.875 1645,-412 1699.38,-368.866 1702.62,-273.339 1702.27,-243.847"/>
<polygon fill="midnightblue" stroke="midnightblue" points="1142.7,-452.617 1132.78,-456.335 1142.85,-459.615 1142.7,-452.617"/>
</g>
<!-- Node42 -->
<g id="node42" class="node"><title>Node42</title>
<g id="a_node42"><a xlink:href="a00467.html" target="_top" xlink:title="CMSIS Cortex&#45;M4 Device Peripheral Access Layer System Source File. This file contains the system cloc...">
<polygon fill="white" stroke="black" points="1730,-392.5 1730,-411.5 1838,-411.5 1838,-392.5 1730,-392.5"/>
<text text-anchor="middle" x="1784" y="-399.5" font-family="Helvetica,sans-Serif" font-size="10.00">system_stm32f4xx.c</text>
</a>
</g>
</g>
<!-- Node1&#45;&gt;Node42 -->
<g id="edge72" class="edge"><title>Node1&#45;&gt;Node42</title>
<path fill="none" stroke="midnightblue" d="M1142.68,-454.605C1245.32,-449.019 1502.01,-433.921 1716,-412 1720.5,-411.539 1725.17,-411.016 1729.84,-410.461"/>
<polygon fill="midnightblue" stroke="midnightblue" points="1142.45,-451.112 1132.65,-455.146 1142.83,-458.102 1142.45,-451.112"/>
</g>
<!-- Node3 -->
<g id="node3" class="node"><title>Node3</title>
<g id="a_node3"><a xlink:href="a00436.html" target="_top" xlink:title="md_stm32f4_dac.c">
<polygon fill="white" stroke="black" points="284,-280.5 284,-299.5 384,-299.5 384,-280.5 284,-280.5"/>
<text text-anchor="middle" x="334" y="-287.5" font-family="Helvetica,sans-Serif" font-size="10.00">md_stm32f4_dac.c</text>
</a>
</g>
</g>
<!-- Node2&#45;&gt;Node3 -->
<g id="edge2" class="edge"><title>Node2&#45;&gt;Node3</title>
<path fill="none" stroke="midnightblue" d="M294.33,-329.253C304.265,-319.673 316.588,-307.791 324.839,-299.834"/>
<polygon fill="midnightblue" stroke="midnightblue" points="291.766,-326.863 286.997,-336.324 296.625,-331.902 291.766,-326.863"/>
</g>
<!-- Node2&#45;&gt;Node4 -->
<g id="edge3" class="edge"><title>Node2&#45;&gt;Node4</title>
<path fill="none" stroke="midnightblue" d="M235.799,-333.829C197.282,-323.633 141.178,-308.782 106.173,-299.516"/>
<polygon fill="midnightblue" stroke="midnightblue" points="235.113,-337.268 245.676,-336.444 236.904,-330.501 235.113,-337.268"/>
</g>
<!-- Node2&#45;&gt;Node6 -->
<g id="edge5" class="edge"><title>Node2&#45;&gt;Node6</title>
<path fill="none" stroke="midnightblue" d="M260.246,-329.537C249.192,-319.909 235.369,-307.869 226.143,-299.834"/>
<polygon fill="midnightblue" stroke="midnightblue" points="258.199,-332.395 268.039,-336.324 262.797,-327.117 258.199,-332.395"/>
</g>
<!-- Node5 -->
<g id="node5" class="node"><title>Node5</title>
<g id="a_node5"><a xlink:href="a00438_source.html" target="_top" xlink:title="md_stm32f4_dac_waveform.c">
<polygon fill="white" stroke="black" points="0,-224.5 0,-243.5 148,-243.5 148,-224.5 0,-224.5"/>
<text text-anchor="middle" x="74" y="-231.5" font-family="Helvetica,sans-Serif" font-size="10.00">md_stm32f4_dac_waveform.c</text>
</a>
</g>
</g>
<!-- Node4&#45;&gt;Node5 -->
<g id="edge4" class="edge"><title>Node4&#45;&gt;Node5</title>
<path fill="none" stroke="midnightblue" d="M74,-269.805C74,-260.91 74,-250.78 74,-243.751"/>
<polygon fill="midnightblue" stroke="midnightblue" points="70.5001,-270.083 74,-280.083 77.5001,-270.083 70.5001,-270.083"/>
</g>
<!-- Node7 -->
<g id="node7" class="node"><title>Node7</title>
<g id="a_node7"><a xlink:href="a00421.html" target="_top" xlink:title="Main header definition. ">
<polygon fill="white" stroke="black" points="1119,-224.5 1119,-243.5 1165,-243.5 1165,-224.5 1119,-224.5"/>
<text text-anchor="middle" x="1142" y="-231.5" font-family="Helvetica,sans-Serif" font-size="10.00">main.h</text>
</a>
</g>
</g>
<!-- Node6&#45;&gt;Node7 -->
<g id="edge6" class="edge"><title>Node6&#45;&gt;Node7</title>
<path fill="none" stroke="midnightblue" d="M275.61,-280.057C616.967,-245.77 1019.15,-237.066 1118.83,-235.357"/>
<polygon fill="midnightblue" stroke="midnightblue" points="275.125,-276.588 265.529,-281.079 275.831,-283.553 275.125,-276.588"/>
</g>
<!-- Node16 -->
<g id="node16" class="node"><title>Node16</title>
<g id="a_node16"><a xlink:href="a00455.html" target="_top" xlink:title="periph2dma_conf.c">
<polygon fill="white" stroke="black" points="166.5,-224.5 166.5,-243.5 265.5,-243.5 265.5,-224.5 166.5,-224.5"/>
<text text-anchor="middle" x="216" y="-231.5" font-family="Helvetica,sans-Serif" font-size="10.00">periph2dma_conf.c</text>
</a>
</g>
</g>
<!-- Node6&#45;&gt;Node16 -->
<g id="edge23" class="edge"><title>Node6&#45;&gt;Node16</title>
<path fill="none" stroke="midnightblue" d="M216,-269.805C216,-260.91 216,-250.78 216,-243.751"/>
<polygon fill="midnightblue" stroke="midnightblue" points="212.5,-270.083 216,-280.083 219.5,-270.083 212.5,-270.083"/>
</g>
<!-- Node7&#45;&gt;Node8 -->
<g id="edge7" class="edge"><title>Node7&#45;&gt;Node8</title>
<path fill="none" stroke="midnightblue" d="M1170.44,-220.772C1197.28,-210.629 1237.11,-196.467 1264.11,-187.516"/>
<polygon fill="midnightblue" stroke="midnightblue" points="1168.93,-217.602 1160.84,-224.444 1171.43,-224.14 1168.93,-217.602"/>
</g>
<!-- Node11 -->
<g id="node11" class="node"><title>Node11</title>
<g id="a_node11"><a xlink:href="a00418.html" target="_top" xlink:title="Callback handler implementations. ">
<polygon fill="white" stroke="black" points="1112,-0.5 1112,-19.5 1194,-19.5 1194,-0.5 1112,-0.5"/>
<text text-anchor="middle" x="1153" y="-7.5" font-family="Helvetica,sans-Serif" font-size="10.00">irq_callbacks.c</text>
</a>
</g>
</g>
<!-- Node7&#45;&gt;Node11 -->
<g id="edge20" class="edge"><title>Node7&#45;&gt;Node11</title>
<path fill="none" stroke="midnightblue" d="M1130.31,-215.931C1115.85,-192.724 1094.16,-149.777 1103,-112 1111.6,-75.2311 1135.65,-36.497 1146.97,-19.6593"/>
<polygon fill="midnightblue" stroke="midnightblue" points="1127.39,-217.859 1135.77,-224.333 1133.25,-214.042 1127.39,-217.859"/>
</g>
<!-- Node12 -->
<g id="node12" class="node"><title>Node12</title>
<g id="a_node12"><a xlink:href="a00419.html" target="_top" xlink:title="Analog processing related callback handler definition. ">
<polygon fill="white" stroke="black" points="1112,-112.5 1112,-131.5 1194,-131.5 1194,-112.5 1112,-112.5"/>
<text text-anchor="middle" x="1153" y="-119.5" font-family="Helvetica,sans-Serif" font-size="10.00">irq_callbacks.h</text>
</a>
</g>
</g>
<!-- Node7&#45;&gt;Node12 -->
<g id="edge19" class="edge"><title>Node7&#45;&gt;Node12</title>
<path fill="none" stroke="midnightblue" d="M1138.65,-214.348C1138.63,-190.254 1143.18,-149.308 1148.31,-131.591"/>
<polygon fill="midnightblue" stroke="midnightblue" points="1135.15,-214.505 1139.02,-224.368 1142.15,-214.246 1135.15,-214.505"/>
</g>
<!-- Node14 -->
<g id="node14" class="node"><title>Node14</title>
<g id="a_node14"><a xlink:href="a00420.html" target="_top" xlink:title="Main source implementation (29&#45;04&#45;2015) ">
<polygon fill="white" stroke="black" points="1179,-168.5 1179,-187.5 1225,-187.5 1225,-168.5 1179,-168.5"/>
<text text-anchor="middle" x="1202" y="-175.5" font-family="Helvetica,sans-Serif" font-size="10.00">main.c</text>
</a>
</g>
</g>
<!-- Node7&#45;&gt;Node14 -->
<g id="edge21" class="edge"><title>Node7&#45;&gt;Node14</title>
<path fill="none" stroke="midnightblue" d="M1159.18,-217.537C1169.88,-207.909 1183.26,-195.869 1192.18,-187.834"/>
<polygon fill="midnightblue" stroke="midnightblue" points="1156.73,-215.033 1151.64,-224.324 1161.41,-220.236 1156.73,-215.033"/>
</g>
<!-- Node15 -->
<g id="node15" class="node"><title>Node15</title>
<g id="a_node15"><a xlink:href="a00464.html" target="_top" xlink:title="stm32f4xx_it.c">
<polygon fill="white" stroke="black" points="1661.5,-168.5 1661.5,-187.5 1742.5,-187.5 1742.5,-168.5 1661.5,-168.5"/>
<text text-anchor="middle" x="1702" y="-175.5" font-family="Helvetica,sans-Serif" font-size="10.00">stm32f4xx_it.c</text>
</a>
</g>
</g>
<!-- Node7&#45;&gt;Node15 -->
<g id="edge22" class="edge"><title>Node7&#45;&gt;Node15</title>
<path fill="none" stroke="midnightblue" d="M1175.26,-224.1C1361.32,-191.061 1573.73,-182.248 1661.25,-179.854"/>
<polygon fill="midnightblue" stroke="midnightblue" points="1174.52,-220.677 1165.3,-225.897 1175.76,-227.566 1174.52,-220.677"/>
</g>
<!-- Node8&#45;&gt;Node7 -->
<g id="edge13" class="edge"><title>Node8&#45;&gt;Node7</title>
<path fill="none" stroke="midnightblue" d="M1264.43,-191.28C1235.6,-202.17 1191.9,-217.662 1165.13,-226.379"/>
<polygon fill="midnightblue" stroke="midnightblue" points="1265.86,-194.479 1273.95,-187.639 1263.36,-187.941 1265.86,-194.479"/>
</g>
<!-- Node9 -->
<g id="node9" class="node"><title>Node9</title>
<g id="a_node9"><a xlink:href="a00107.html" target="_top" xlink:title="Controlling beam and primary actuators. ">
<polygon fill="white" stroke="black" points="1302.5,-56.5 1302.5,-75.5 1367.5,-75.5 1367.5,-56.5 1302.5,-56.5"/>
<text text-anchor="middle" x="1335" y="-63.5" font-family="Helvetica,sans-Serif" font-size="10.00">actuators.h</text>
</a>
</g>
</g>
<!-- Node8&#45;&gt;Node9 -->
<g id="edge8" class="edge"><title>Node8&#45;&gt;Node9</title>
<path fill="none" stroke="midnightblue" d="M1294.91,-158.348C1301.67,-134.254 1317.77,-93.3079 1327.88,-75.5914"/>
<polygon fill="midnightblue" stroke="midnightblue" points="1291.43,-157.823 1292.45,-168.368 1298.23,-159.487 1291.43,-157.823"/>
</g>
<!-- Node8&#45;&gt;Node12 -->
<g id="edge14" class="edge"><title>Node8&#45;&gt;Node12</title>
<path fill="none" stroke="midnightblue" d="M1261.3,-164.772C1235,-154.629 1198.28,-140.467 1175.08,-131.516"/>
<polygon fill="midnightblue" stroke="midnightblue" points="1260.23,-168.11 1270.82,-168.444 1262.75,-161.579 1260.23,-168.11"/>
</g>
<!-- Node13 -->
<g id="node13" class="node"><title>Node13</title>
<g id="a_node13"><a xlink:href="a00108.html" target="_top" xlink:title="adc_dac_dma.c">
<polygon fill="white" stroke="black" points="1212,-112.5 1212,-131.5 1298,-131.5 1298,-112.5 1212,-112.5"/>
<text text-anchor="middle" x="1255" y="-119.5" font-family="Helvetica,sans-Serif" font-size="10.00">adc_dac_dma.c</text>
</a>
</g>
</g>
<!-- Node8&#45;&gt;Node13 -->
<g id="edge18" class="edge"><title>Node8&#45;&gt;Node13</title>
<path fill="none" stroke="midnightblue" d="M1280.94,-159.855C1274.36,-150.505 1266.49,-139.327 1261.16,-131.751"/>
<polygon fill="midnightblue" stroke="midnightblue" points="1278.11,-161.919 1286.73,-168.083 1283.83,-157.891 1278.11,-161.919"/>
</g>
<!-- Node9&#45;&gt;Node7 -->
<g id="edge9" class="edge"><title>Node9&#45;&gt;Node7</title>
<path fill="none" stroke="midnightblue" d="M1343.57,-85.1744C1354.36,-111.059 1368.81,-158.652 1345,-188 1296.06,-248.31 1249.42,-205.476 1174,-224 1171.09,-224.716 1168.03,-225.512 1165.02,-226.327"/>
<polygon fill="midnightblue" stroke="midnightblue" points="1346.67,-83.5421 1339.42,-75.816 1340.27,-86.3767 1346.67,-83.5421"/>
</g>
<!-- Node9&#45;&gt;Node8 -->
<g id="edge10" class="edge"><title>Node9&#45;&gt;Node8</title>
<path fill="none" stroke="midnightblue" d="M1333.11,-85.5974C1326.36,-109.666 1310.26,-150.617 1300.14,-168.368"/>
<polygon fill="midnightblue" stroke="midnightblue" points="1336.58,-86.1365 1335.56,-75.5914 1329.78,-84.4747 1336.58,-86.1365"/>
</g>
<!-- Node10 -->
<g id="node10" class="node"><title>Node10</title>
<g id="a_node10"><a xlink:href="a00106.html" target="_top" xlink:title="Controlling beam and primary actuators. ">
<polygon fill="white" stroke="black" points="1302.5,-0.5 1302.5,-19.5 1367.5,-19.5 1367.5,-0.5 1302.5,-0.5"/>
<text text-anchor="middle" x="1335" y="-7.5" font-family="Helvetica,sans-Serif" font-size="10.00">actuators.c</text>
</a>
</g>
</g>
<!-- Node9&#45;&gt;Node10 -->
<g id="edge11" class="edge"><title>Node9&#45;&gt;Node10</title>
<path fill="none" stroke="midnightblue" d="M1335,-45.8045C1335,-36.9102 1335,-26.7798 1335,-19.7511"/>
<polygon fill="midnightblue" stroke="midnightblue" points="1331.5,-46.083 1335,-56.083 1338.5,-46.083 1331.5,-46.083"/>
</g>
<!-- Node9&#45;&gt;Node11 -->
<g id="edge12" class="edge"><title>Node9&#45;&gt;Node11</title>
<path fill="none" stroke="midnightblue" d="M1296.47,-53.5677C1262.14,-43.381 1212.67,-28.7034 1181.7,-19.5164"/>
<polygon fill="midnightblue" stroke="midnightblue" points="1295.58,-56.9544 1306.16,-56.4435 1297.57,-50.2436 1295.58,-56.9544"/>
</g>
<!-- Node12&#45;&gt;Node7 -->
<g id="edge15" class="edge"><title>Node12&#45;&gt;Node7</title>
<path fill="none" stroke="midnightblue" d="M1156.35,-141.597C1156.38,-165.666 1151.83,-206.617 1146.71,-224.368"/>
<polygon fill="midnightblue" stroke="midnightblue" points="1159.85,-141.453 1155.98,-131.591 1152.85,-141.715 1159.85,-141.453"/>
</g>
<!-- Node12&#45;&gt;Node9 -->
<g id="edge16" class="edge"><title>Node12&#45;&gt;Node9</title>
<path fill="none" stroke="midnightblue" d="M1191.53,-109.568C1225.86,-99.381 1275.33,-84.7034 1306.3,-75.5164"/>
<polygon fill="midnightblue" stroke="midnightblue" points="1190.43,-106.244 1181.84,-112.444 1192.42,-112.954 1190.43,-106.244"/>
</g>
<!-- Node12&#45;&gt;Node11 -->
<g id="edge17" class="edge"><title>Node12&#45;&gt;Node11</title>
<path fill="none" stroke="midnightblue" d="M1153,-102.348C1153,-78.2538 1153,-37.3079 1153,-19.5914"/>
<polygon fill="midnightblue" stroke="midnightblue" points="1149.5,-102.368 1153,-112.368 1156.5,-102.369 1149.5,-102.368"/>
</g>
<!-- Node17&#45;&gt;Node2 -->
<g id="edge25" class="edge"><title>Node17&#45;&gt;Node2</title>
<path fill="none" stroke="midnightblue" d="M583.726,-392.164C521.558,-383.171 422.563,-368.776 337,-356 334.131,-355.572 331.183,-355.129 328.209,-354.681"/>
<polygon fill="midnightblue" stroke="midnightblue" points="583.36,-395.647 593.758,-393.614 584.362,-388.719 583.36,-395.647"/>
</g>
<!-- Node17&#45;&gt;Node18 -->
<g id="edge26" class="edge"><title>Node17&#45;&gt;Node18</title>
<path fill="none" stroke="midnightblue" d="M596.37,-390.281C550.071,-380.077 481.305,-364.92 438.639,-355.516"/>
<polygon fill="midnightblue" stroke="midnightblue" points="595.66,-393.709 606.179,-392.444 597.167,-386.873 595.66,-393.709"/>
</g>
<!-- Node20 -->
<g id="node20" class="node"><title>Node20</title>
<g id="a_node20"><a xlink:href="a00444.html" target="_top" xlink:title="md_stm32f4_gpio.c">
<polygon fill="white" stroke="black" points="594,-336.5 594,-355.5 696,-355.5 696,-336.5 594,-336.5"/>
<text text-anchor="middle" x="645" y="-343.5" font-family="Helvetica,sans-Serif" font-size="10.00">md_stm32f4_gpio.c</text>
</a>
</g>
</g>
<!-- Node17&#45;&gt;Node20 -->
<g id="edge30" class="edge"><title>Node17&#45;&gt;Node20</title>
<path fill="none" stroke="midnightblue" d="M645,-381.805C645,-372.91 645,-362.78 645,-355.751"/>
<polygon fill="midnightblue" stroke="midnightblue" points="641.5,-382.083 645,-392.083 648.5,-382.083 641.5,-382.083"/>
</g>
<!-- Node17&#45;&gt;Node21 -->
<g id="edge31" class="edge"><title>Node17&#45;&gt;Node21</title>
<path fill="none" stroke="midnightblue" d="M693.522,-390.217C739.44,-380.013 807.447,-364.901 849.676,-355.516"/>
<polygon fill="midnightblue" stroke="midnightblue" points="692.507,-386.858 683.504,-392.444 694.025,-393.691 692.507,-386.858"/>
</g>
<!-- Node17&#45;&gt;Node23 -->
<g id="edge34" class="edge"><title>Node17&#45;&gt;Node23</title>
<path fill="none" stroke="midnightblue" d="M616.694,-388.368C594.035,-378.255 562.874,-364.349 543.083,-355.516"/>
<polygon fill="midnightblue" stroke="midnightblue" points="615.269,-391.564 625.827,-392.444 618.122,-385.172 615.269,-391.564"/>
</g>
<!-- Node17&#45;&gt;Node25 -->
<g id="edge36" class="edge"><title>Node17&#45;&gt;Node25</title>
<path fill="none" stroke="midnightblue" d="M673.306,-388.368C695.965,-378.255 727.126,-364.349 746.917,-355.516"/>
<polygon fill="midnightblue" stroke="midnightblue" points="671.878,-385.172 664.173,-392.444 674.731,-391.564 671.878,-385.172"/>
</g>
<!-- Node18&#45;&gt;Node7 -->
<g id="edge28" class="edge"><title>Node18&#45;&gt;Node7</title>
<path fill="none" stroke="midnightblue" d="M412.313,-328.036C424.689,-312.479 445.292,-290.337 469,-280 529.648,-253.557 1007.72,-238.731 1118.94,-235.62"/>
<polygon fill="midnightblue" stroke="midnightblue" points="409.295,-326.221 406.016,-336.295 414.862,-330.465 409.295,-326.221"/>
</g>
<!-- Node18&#45;&gt;Node11 -->
<g id="edge29" class="edge"><title>Node18&#45;&gt;Node11</title>
<path fill="none" stroke="midnightblue" d="M403.289,-326.319C406.842,-304.488 412,-267.242 412,-235 412,-235 412,-235 412,-121 412,-49.6726 956.142,-19.814 1111.84,-12.7304"/>
<polygon fill="midnightblue" stroke="midnightblue" points="399.788,-326.033 401.569,-336.477 406.69,-327.202 399.788,-326.033"/>
</g>
<!-- Node19 -->
<g id="node19" class="node"><title>Node19</title>
<g id="a_node19"><a xlink:href="a00442.html" target="_top" xlink:title="DESCRIPTION. ">
<polygon fill="white" stroke="black" points="478.5,-280.5 478.5,-299.5 585.5,-299.5 585.5,-280.5 478.5,-280.5"/>
<text text-anchor="middle" x="532" y="-287.5" font-family="Helvetica,sans-Serif" font-size="10.00">md_stm32f4_disco.c</text>
</a>
</g>
</g>
<!-- Node18&#45;&gt;Node19 -->
<g id="edge27" class="edge"><title>Node18&#45;&gt;Node19</title>
<path fill="none" stroke="midnightblue" d="M430.219,-332.638C454.99,-322.504 489.4,-308.427 511.182,-299.516"/>
<polygon fill="midnightblue" stroke="midnightblue" points="428.846,-329.418 420.916,-336.444 431.497,-335.897 428.846,-329.418"/>
</g>
<!-- Node21&#45;&gt;Node7 -->
<g id="edge33" class="edge"><title>Node21&#45;&gt;Node7</title>
<path fill="none" stroke="midnightblue" d="M894.001,-326.588C899.817,-311.709 910.118,-291.425 926,-280 956.863,-257.8 1069.73,-242.972 1118.87,-237.431"/>
<polygon fill="midnightblue" stroke="midnightblue" points="890.613,-325.668 890.543,-336.263 897.205,-328.024 890.613,-325.668"/>
</g>
<!-- Node22 -->
<g id="node22" class="node"><title>Node22</title>
<g id="a_node22"><a xlink:href="a00470_source.html" target="_top" xlink:title="tm_stm32f4_pwm.c">
<polygon fill="white" stroke="black" points="935.5,-280.5 935.5,-299.5 1038.5,-299.5 1038.5,-280.5 935.5,-280.5"/>
<text text-anchor="middle" x="987" y="-287.5" font-family="Helvetica,sans-Serif" font-size="10.00">tm_stm32f4_pwm.c</text>
</a>
</g>
</g>
<!-- Node21&#45;&gt;Node22 -->
<g id="edge32" class="edge"><title>Node21&#45;&gt;Node22</title>
<path fill="none" stroke="midnightblue" d="M912.837,-331.453C931.114,-321.483 955.416,-308.228 971.133,-299.655"/>
<polygon fill="midnightblue" stroke="midnightblue" points="911.009,-328.463 903.906,-336.324 914.361,-334.608 911.009,-328.463"/>
</g>
<!-- Node24 -->
<g id="node24" class="node"><title>Node24</title>
<g id="a_node24"><a xlink:href="a00472_source.html" target="_top" xlink:title="tm_stm32f4_timer.c">
<polygon fill="white" stroke="black" points="604,-280.5 604,-299.5 708,-299.5 708,-280.5 604,-280.5"/>
<text text-anchor="middle" x="656" y="-287.5" font-family="Helvetica,sans-Serif" font-size="10.00">tm_stm32f4_timer.c</text>
</a>
</g>
</g>
<!-- Node23&#45;&gt;Node24 -->
<g id="edge35" class="edge"><title>Node23&#45;&gt;Node24</title>
<path fill="none" stroke="midnightblue" d="M554.219,-332.638C578.99,-322.504 613.4,-308.427 635.182,-299.516"/>
<polygon fill="midnightblue" stroke="midnightblue" points="552.846,-329.418 544.916,-336.444 555.497,-335.897 552.846,-329.418"/>
</g>
<!-- Node25&#45;&gt;Node7 -->
<g id="edge40" class="edge"><title>Node25&#45;&gt;Node7</title>
<path fill="none" stroke="midnightblue" d="M759.986,-326.321C756.615,-311.898 755.017,-292.376 766,-280 789.537,-253.478 1040.46,-239.698 1118.78,-236.021"/>
<polygon fill="midnightblue" stroke="midnightblue" points="756.67,-327.462 762.729,-336.153 763.413,-325.58 756.67,-327.462"/>
</g>
<!-- Node26 -->
<g id="node26" class="node"><title>Node26</title>
<g id="a_node26"><a xlink:href="a00476_source.html" target="_top" xlink:title="tm_stm32f4_usart.c">
<polygon fill="white" stroke="black" points="775,-280.5 775,-299.5 879,-299.5 879,-280.5 775,-280.5"/>
<text text-anchor="middle" x="827" y="-287.5" font-family="Helvetica,sans-Serif" font-size="10.00">tm_stm32f4_usart.c</text>
</a>
</g>
</g>
<!-- Node25&#45;&gt;Node26 -->
<g id="edge37" class="edge"><title>Node25&#45;&gt;Node26</title>
<path fill="none" stroke="midnightblue" d="M783.467,-329.537C794.344,-319.909 807.944,-307.869 817.021,-299.834"/>
<polygon fill="midnightblue" stroke="midnightblue" points="780.968,-327.075 775.801,-336.324 785.608,-332.316 780.968,-327.075"/>
</g>
<!-- Node25&#45;&gt;Node27 -->
<g id="edge38" class="edge"><title>Node25&#45;&gt;Node27</title>
<path fill="none" stroke="midnightblue" d="M828.503,-335.852C960.304,-319.227 1102.51,-304.859 1182.87,-297.072"/>
<polygon fill="midnightblue" stroke="midnightblue" points="827.705,-332.425 818.225,-337.155 828.586,-339.369 827.705,-332.425"/>
</g>
<!-- Node28 -->
<g id="node28" class="node"><title>Node28</title>
<g id="a_node28"><a xlink:href="a00478_source.html" target="_top" xlink:title="tm_stm32f4_usart_dma.c">
<polygon fill="white" stroke="black" points="1183,-224.5 1183,-243.5 1311,-243.5 1311,-224.5 1183,-224.5"/>
<text text-anchor="middle" x="1247" y="-231.5" font-family="Helvetica,sans-Serif" font-size="10.00">tm_stm32f4_usart_dma.c</text>
</a>
</g>
</g>
<!-- Node27&#45;&gt;Node28 -->
<g id="edge39" class="edge"><title>Node27&#45;&gt;Node28</title>
<path fill="none" stroke="midnightblue" d="M1247,-269.805C1247,-260.91 1247,-250.78 1247,-243.751"/>
<polygon fill="midnightblue" stroke="midnightblue" points="1243.5,-270.083 1247,-280.083 1250.5,-270.083 1243.5,-270.083"/>
</g>
<!-- Node29&#45;&gt;Node7 -->
<g id="edge44" class="edge"><title>Node29&#45;&gt;Node7</title>
<path fill="none" stroke="midnightblue" d="M1164.57,-382.945C1161.89,-374.802 1158.94,-365.009 1157,-356 1148.03,-314.41 1143.9,-263.536 1142.54,-243.596"/>
<polygon fill="midnightblue" stroke="midnightblue" points="1161.3,-384.174 1167.85,-392.495 1167.92,-381.9 1161.3,-384.174"/>
</g>
<!-- Node30 -->
<g id="node30" class="node"><title>Node30</title>
<g id="a_node30"><a xlink:href="a00440.html" target="_top" xlink:title="md_stm32f4_delay.c">
<polygon fill="white" stroke="black" points="1166.5,-336.5 1166.5,-355.5 1273.5,-355.5 1273.5,-336.5 1166.5,-336.5"/>
<text text-anchor="middle" x="1220" y="-343.5" font-family="Helvetica,sans-Serif" font-size="10.00">md_stm32f4_delay.c</text>
</a>
</g>
</g>
<!-- Node29&#45;&gt;Node30 -->
<g id="edge43" class="edge"><title>Node29&#45;&gt;Node30</title>
<path fill="none" stroke="midnightblue" d="M1186.03,-384.431C1194.62,-374.967 1205.04,-363.483 1212.06,-355.751"/>
<polygon fill="midnightblue" stroke="midnightblue" points="1183.22,-382.325 1179.09,-392.083 1188.4,-387.029 1183.22,-382.325"/>
</g>
<!-- Node31&#45;&gt;Node7 -->
<g id="edge48" class="edge"><title>Node31&#45;&gt;Node7</title>
<path fill="none" stroke="midnightblue" d="M1373.49,-383.332C1369.06,-375.049 1363.73,-365.036 1359,-356 1341.4,-322.361 1349.78,-303.553 1320,-280 1267.58,-238.539 1238.62,-261.05 1174,-244 1171.1,-243.234 1168.06,-242.409 1165.05,-241.578"/>
<polygon fill="midnightblue" stroke="midnightblue" points="1370.55,-385.239 1378.36,-392.395 1376.71,-381.928 1370.55,-385.239"/>
</g>
<!-- Node32 -->
<g id="node32" class="node"><title>Node32</title>
<g id="a_node32"><a xlink:href="a00446_source.html" target="_top" xlink:title="md_stm32f4_timer.c">
<polygon fill="white" stroke="black" points="1368,-336.5 1368,-355.5 1474,-355.5 1474,-336.5 1368,-336.5"/>
<text text-anchor="middle" x="1421" y="-343.5" font-family="Helvetica,sans-Serif" font-size="10.00">md_stm32f4_timer.c</text>
</a>
</g>
</g>
<!-- Node31&#45;&gt;Node32 -->
<g id="edge47" class="edge"><title>Node31&#45;&gt;Node32</title>
<path fill="none" stroke="midnightblue" d="M1395.06,-383.855C1401.64,-374.505 1409.51,-363.327 1414.84,-355.751"/>
<polygon fill="midnightblue" stroke="midnightblue" points="1392.17,-381.891 1389.27,-392.083 1397.89,-385.919 1392.17,-381.891"/>
</g>
<!-- Node34 -->
<g id="node34" class="node"><title>Node34</title>
<g id="a_node34"><a xlink:href="a00449_source.html" target="_top" xlink:title="mdb_gpio.c">
<polygon fill="white" stroke="black" points="1530.5,-336.5 1530.5,-355.5 1597.5,-355.5 1597.5,-336.5 1530.5,-336.5"/>
<text text-anchor="middle" x="1564" y="-343.5" font-family="Helvetica,sans-Serif" font-size="10.00">mdb_gpio.c</text>
</a>
</g>
</g>
<!-- Node33&#45;&gt;Node34 -->
<g id="edge50" class="edge"><title>Node33&#45;&gt;Node34</title>
<path fill="none" stroke="midnightblue" d="M1564,-381.805C1564,-372.91 1564,-362.78 1564,-355.751"/>
<polygon fill="midnightblue" stroke="midnightblue" points="1560.5,-382.083 1564,-392.083 1567.5,-382.083 1560.5,-382.083"/>
</g>
<!-- Node35&#45;&gt;Node21 -->
<g id="edge53" class="edge"><title>Node35&#45;&gt;Node21</title>
<path fill="none" stroke="midnightblue" d="M992.094,-388.638C966.76,-378.504 931.569,-364.427 909.291,-355.516"/>
<polygon fill="midnightblue" stroke="midnightblue" points="991.024,-391.979 1001.61,-392.444 993.624,-385.48 991.024,-391.979"/>
</g>
<!-- Node36 -->
<g id="node36" class="node"><title>Node36</title>
<g id="a_node36"><a xlink:href="a00474_source.html" target="_top" xlink:title="tm_stm32f4_timer_properties.c">
<polygon fill="white" stroke="black" points="958,-336.5 958,-355.5 1110,-355.5 1110,-336.5 958,-336.5"/>
<text text-anchor="middle" x="1034" y="-343.5" font-family="Helvetica,sans-Serif" font-size="10.00">tm_stm32f4_timer_properties.c</text>
</a>
</g>
</g>
<!-- Node35&#45;&gt;Node36 -->
<g id="edge54" class="edge"><title>Node35&#45;&gt;Node36</title>
<path fill="none" stroke="midnightblue" d="M1026.85,-382.101C1028.68,-373.136 1030.77,-362.858 1032.22,-355.751"/>
<polygon fill="midnightblue" stroke="midnightblue" points="1023.38,-381.586 1024.82,-392.083 1030.24,-382.983 1023.38,-381.586"/>
</g>
<!-- Node37&#45;&gt;Node7 -->
<g id="edge60" class="edge"><title>Node37&#45;&gt;Node7</title>
<path fill="none" stroke="midnightblue" d="M1442.04,-284.497C1381.35,-277.864 1268.64,-264.045 1174,-244 1171.18,-243.402 1168.24,-242.694 1165.33,-241.943"/>
<polygon fill="midnightblue" stroke="midnightblue" points="1441.72,-287.983 1452.04,-285.576 1442.47,-281.023 1441.72,-287.983"/>
</g>
<!-- Node37&#45;&gt;Node9 -->
<g id="edge61" class="edge"><title>Node37&#45;&gt;Node9</title>
<path fill="none" stroke="midnightblue" d="M1475.32,-271.713C1455.4,-239.68 1410.85,-169.155 1370,-112 1360.79,-99.117 1349.42,-84.7597 1342.19,-75.8033"/>
<polygon fill="midnightblue" stroke="midnightblue" points="1472.44,-273.707 1480.69,-280.361 1478.39,-270.018 1472.44,-273.707"/>
</g>
<!-- Node38 -->
<g id="node38" class="node"><title>Node38</title>
<g id="a_node38"><a xlink:href="a00450_source.html" target="_top" xlink:title="mdb_gpio.c">
<polygon fill="white" stroke="black" points="1367.5,-224.5 1367.5,-243.5 1434.5,-243.5 1434.5,-224.5 1367.5,-224.5"/>
<text text-anchor="middle" x="1401" y="-231.5" font-family="Helvetica,sans-Serif" font-size="10.00">mdb_gpio.c</text>
</a>
</g>
</g>
<!-- Node37&#45;&gt;Node38 -->
<g id="edge62" class="edge"><title>Node37&#45;&gt;Node38</title>
<path fill="none" stroke="midnightblue" d="M1463.81,-274.901C1448.22,-264.999 1427.87,-252.071 1414.62,-243.655"/>
<polygon fill="midnightblue" stroke="midnightblue" points="1462.03,-277.916 1472.34,-280.324 1465.78,-272.007 1462.03,-277.916"/>
</g>
<!-- Node39&#45;&gt;Node7 -->
<g id="edge64" class="edge"><title>Node39&#45;&gt;Node7</title>
<path fill="none" stroke="midnightblue" d="M1549.74,-283.457C1542.64,-282.217 1535.06,-280.981 1528,-280 1371.36,-258.244 1329.37,-273.519 1174,-244 1171.17,-243.461 1168.22,-242.79 1165.31,-242.058"/>
<polygon fill="midnightblue" stroke="midnightblue" points="1549.22,-286.919 1559.68,-285.246 1550.46,-280.03 1549.22,-286.919"/>
</g>
<!-- Node39&#45;&gt;Node8 -->
<g id="edge65" class="edge"><title>Node39&#45;&gt;Node8</title>
<path fill="none" stroke="midnightblue" d="M1553.94,-275.58C1527.04,-261.516 1482.79,-239.37 1443,-224 1403.94,-208.912 1357.59,-195.692 1326.86,-187.553"/>
<polygon fill="midnightblue" stroke="midnightblue" points="1552.55,-278.802 1563.03,-280.368 1555.81,-272.61 1552.55,-278.802"/>
</g>
<!-- Node39&#45;&gt;Node9 -->
<g id="edge66" class="edge"><title>Node39&#45;&gt;Node9</title>
<path fill="none" stroke="midnightblue" d="M1596.9,-273.457C1609.93,-260.181 1623.73,-240.648 1614,-224 1559.85,-131.399 1428.77,-89.1884 1367.54,-74.0207"/>
<polygon fill="midnightblue" stroke="midnightblue" points="1594.35,-271.058 1589.5,-280.481 1599.16,-276.135 1594.35,-271.058"/>
</g>
<!-- Node39&#45;&gt;Node11 -->
<g id="edge67" class="edge"><title>Node39&#45;&gt;Node11</title>
<path fill="none" stroke="midnightblue" d="M1568.32,-271.497C1556.47,-250.369 1539,-213.383 1539,-179 1539,-179 1539,-179 1539,-121 1539,-49.9245 1293.89,-22.2745 1194.31,-13.9742"/>
<polygon fill="midnightblue" stroke="midnightblue" points="1565.38,-273.393 1573.44,-280.269 1571.42,-269.867 1565.38,-273.393"/>
</g>
<!-- Node40 -->
<g id="node40" class="node"><title>Node40</title>
<g id="a_node40"><a xlink:href="a00457.html" target="_top" xlink:title="pid.c">
<polygon fill="white" stroke="black" points="1567,-224.5 1567,-243.5 1605,-243.5 1605,-224.5 1567,-224.5"/>
<text text-anchor="middle" x="1586" y="-231.5" font-family="Helvetica,sans-Serif" font-size="10.00">pid.c</text>
</a>
</g>
</g>
<!-- Node39&#45;&gt;Node40 -->
<g id="edge68" class="edge"><title>Node39&#45;&gt;Node40</title>
<path fill="none" stroke="midnightblue" d="M1581.45,-270.101C1582.61,-261.136 1583.94,-250.858 1584.87,-243.751"/>
<polygon fill="midnightblue" stroke="midnightblue" points="1577.97,-269.716 1580.16,-280.083 1584.91,-270.616 1577.97,-269.716"/>
</g>
<!-- Node41&#45;&gt;Node15 -->
<g id="edge71" class="edge"><title>Node41&#45;&gt;Node15</title>
<path fill="none" stroke="midnightblue" d="M1702,-213.805C1702,-204.91 1702,-194.78 1702,-187.751"/>
<polygon fill="midnightblue" stroke="midnightblue" points="1698.5,-214.083 1702,-224.083 1705.5,-214.083 1698.5,-214.083"/>
</g>
</g>
</svg>
        <g id="navigator" transform="translate(0 0)" fill="#404254">
                <rect fill="#f2f5e9" fill-opacity="0.5" stroke="#606060" stroke-width=".5" x="0" y="0" width="60" height="60"/>
                <use id="zoomplus" xlink:href="#zoomPlus" x="17" y="9" onmousedown="handleZoom(evt,'in')"/>
                <use id="zoomminus" xlink:href="#zoomMin" x="42" y="9" onmousedown="handleZoom(evt,'out')"/>
                <use id="reset" xlink:href="#resetDef" x="30" y="36" onmousedown="handleReset()"/>
                <g id="arrowUp" xlink:href="#dirArrow" transform="translate(30 24)" onmousedown="handlePan(0,-1)">
                  <use xlink:href="#rim" fill="#404040">
                        <set attributeName="fill" to="#808080" begin="arrowUp.mouseover" end="arrowUp.mouseout"/>
                  </use>
                  <path fill="none" stroke="white" stroke-width="1.5" d="M0,-3.0v7 M-2.5,-0.5L0,-3.0L2.5,-0.5"/>
                </g>
                <g id="arrowRight" xlink:href="#dirArrow" transform="rotate(90) translate(36 -43)" onmousedown="handlePan(1,0)">
                  <use xlink:href="#rim" fill="#404040">
                        <set attributeName="fill" to="#808080" begin="arrowRight.mouseover" end="arrowRight.mouseout"/>
                  </use>
                  <path fill="none" stroke="white" stroke-width="1.5" d="M0,-3.0v7 M-2.5,-0.5L0,-3.0L2.5,-0.5"/>
                </g>
                <g id="arrowDown" xlink:href="#dirArrow" transform="rotate(180) translate(-30 -48)" onmousedown="handlePan(0,1)">
                  <use xlink:href="#rim" fill="#404040">
                        <set attributeName="fill" to="#808080" begin="arrowDown.mouseover" end="arrowDown.mouseout"/>
                  </use>
                  <path fill="none" stroke="white" stroke-width="1.5" d="M0,-3.0v7 M-2.5,-0.5L0,-3.0L2.5,-0.5"/>
                </g>
                <g id="arrowLeft" xlink:href="#dirArrow" transform="rotate(270) translate(-36 17)" onmousedown="handlePan(-1,0)">
                  <use xlink:href="#rim" fill="#404040">
                        <set attributeName="fill" to="#808080" begin="arrowLeft.mouseover" end="arrowLeft.mouseout"/>
                  </use>
                  <path fill="none" stroke="white" stroke-width="1.5" d="M0,-3.0v7 M-2.5,-0.5L0,-3.0L2.5,-0.5"/>
                </g>
        </g>
        <svg viewBox="0 0 15 15" width="100%" height="30px" preserveAspectRatio="xMaxYMin meet">
         <g id="arrow_out" transform="scale(0.3 0.3)">
          <a xlink:href="a00806_org.svg" target="_base">
           <rect id="button" ry="5" rx="5" y="6" x="6" height="38" width="38"
                fill="#f2f5e9" fill-opacity="0.5" stroke="#606060" stroke-width="1.0"/>
           <path id="arrow"
             d="M 11.500037,31.436501 C 11.940474,20.09759 22.043105,11.32322 32.158766,21.979434 L 37.068811,17.246167 C 37.068811,17.246167 37.088388,32 37.088388,32 L 22.160133,31.978069 C 22.160133,31.978069 26.997745,27.140456 26.997745,27.140456 C 18.528582,18.264221 13.291696,25.230495 11.500037,31.436501 z"
             style="fill:#404040;"/>
          </a>
         </g>
        </svg>
</svg>
