<?xml version="1.0" encoding="UTF-8" standalone="no"?>
<!DOCTYPE svg PUBLIC "-//W3C//DTD SVG 1.1//EN"
 "http://www.w3.org/Graphics/SVG/1.1/DTD/svg11.dtd">
<!-- Generated by graphviz version 2.38.0 (20140413.2041)
 -->
<!-- Title: SPI_Exported_Constants Pages: 1 -->
<svg width="399pt" height="873pt"
 viewBox="0.00 0.00 399.00 873.00" xmlns="http://www.w3.org/2000/svg" xmlns:xlink="http://www.w3.org/1999/xlink">
<g id="graph0" class="graph" transform="scale(1 1) rotate(0) translate(4 869)">
<title>SPI_Exported_Constants</title>
<polygon fill="white" stroke="none" points="-4,4 -4,-869 395,-869 395,4 -4,4"/>
<!-- Node14 -->
<g id="node1" class="node"><title>Node14</title>
<g id="a_node1"><a xlink:href="a00880.html" target="_top" xlink:title="SPI_I2S_Audio_Frequency">
<polygon fill="white" stroke="black" points="245,-845.5 245,-864.5 379,-864.5 379,-845.5 245,-845.5"/>
<text text-anchor="middle" x="312" y="-852.5" font-family="Helvetica,sans-Serif" font-size="10.00">SPI_I2S_Audio_Frequency</text>
</a>
</g>
</g>
<!-- Node22 -->
<g id="node2" class="node"><title>Node22</title>
<g id="a_node2"><a xlink:href="a00888.html" target="_top" xlink:title="SPI_CRC_polynomial">
<polygon fill="white" stroke="black" points="255.5,-807.5 255.5,-826.5 368.5,-826.5 368.5,-807.5 255.5,-807.5"/>
<text text-anchor="middle" x="312" y="-814.5" font-family="Helvetica,sans-Serif" font-size="10.00">SPI_CRC_polynomial</text>
</a>
</g>
</g>
<!-- Node20 -->
<g id="node3" class="node"><title>Node20</title>
<g id="a_node3"><a xlink:href="a00886.html" target="_top" xlink:title="SPI_I2S_interrupts\l_definition">
<polygon fill="white" stroke="black" points="262.5,-758 262.5,-788 361.5,-788 361.5,-758 262.5,-758"/>
<text text-anchor="start" x="270.5" y="-776" font-family="Helvetica,sans-Serif" font-size="10.00">SPI_I2S_interrupts</text>
<text text-anchor="middle" x="312" y="-765" font-family="Helvetica,sans-Serif" font-size="10.00">_definition</text>
</a>
</g>
</g>
<!-- Node19 -->
<g id="node4" class="node"><title>Node19</title>
<g id="a_node4"><a xlink:href="a00885.html" target="_top" xlink:title="SPI_direction_transmit\l_receive">
<polygon fill="white" stroke="black" points="254,-709 254,-739 370,-739 370,-709 254,-709"/>
<text text-anchor="start" x="262" y="-727" font-family="Helvetica,sans-Serif" font-size="10.00">SPI_direction_transmit</text>
<text text-anchor="middle" x="312" y="-716" font-family="Helvetica,sans-Serif" font-size="10.00">_receive</text>
</a>
</g>
</g>
<!-- Node4 -->
<g id="node5" class="node"><title>Node4</title>
<g id="a_node5"><a xlink:href="a00870.html" target="_top" xlink:title="SPI_data_size">
<polygon fill="white" stroke="black" points="272,-670.5 272,-689.5 352,-689.5 352,-670.5 272,-670.5"/>
<text text-anchor="middle" x="312" y="-677.5" font-family="Helvetica,sans-Serif" font-size="10.00">SPI_data_size</text>
</a>
</g>
</g>
<!-- Node21 -->
<g id="node6" class="node"><title>Node21</title>
<g id="a_node6"><a xlink:href="a00887.html" target="_top" xlink:title="SPI_I2S_flags_definition">
<polygon fill="white" stroke="black" points="250,-632.5 250,-651.5 374,-651.5 374,-632.5 250,-632.5"/>
<text text-anchor="middle" x="312" y="-639.5" font-family="Helvetica,sans-Serif" font-size="10.00">SPI_I2S_flags_definition</text>
</a>
</g>
</g>
<!-- Node0 -->
<g id="node7" class="node"><title>Node0</title>
<polygon fill="#bfbfbf" stroke="black" points="69,-423.5 69,-442.5 197,-442.5 197,-423.5 69,-423.5"/>
<text text-anchor="middle" x="133" y="-430.5" font-family="Helvetica,sans-Serif" font-size="10.00">SPI_Exported_Constants</text>
</g>
<!-- Node0&#45;&gt;Node14 -->
<g id="edge14" class="edge"><title>Node0&#45;&gt;Node14</title>
<path fill="none" stroke="black" d="M136.185,-453.011C144.612,-526.547 177.335,-780.444 233,-836 236.847,-839.84 241.333,-842.951 246.172,-845.466"/>
<polygon fill="black" stroke="black" points="139.634,-452.363 135.041,-442.815 132.678,-453.143 139.634,-452.363"/>
</g>
<!-- Node0&#45;&gt;Node22 -->
<g id="edge22" class="edge"><title>Node0&#45;&gt;Node22</title>
<path fill="none" stroke="black" d="M136.711,-452.867C146.493,-521.689 182.101,-748.404 233,-798 239.189,-804.031 246.955,-808.255 255.172,-811.193"/>
<polygon fill="black" stroke="black" points="140.123,-451.994 135.275,-442.573 133.19,-452.961 140.123,-451.994"/>
</g>
<!-- Node0&#45;&gt;Node20 -->
<g id="edge20" class="edge"><title>Node0&#45;&gt;Node20</title>
<path fill="none" stroke="black" d="M134.18,-452.743C135.778,-507.776 147.96,-664.393 233,-749 241.035,-756.994 251.666,-762.336 262.484,-765.902"/>
<polygon fill="black" stroke="black" points="137.677,-452.532 133.977,-442.604 130.678,-452.672 137.677,-452.532"/>
</g>
<!-- Node0&#45;&gt;Node19 -->
<g id="edge19" class="edge"><title>Node0&#45;&gt;Node19</title>
<path fill="none" stroke="black" d="M135.586,-452.777C140.574,-501.716 160.252,-629.533 233,-699 238.965,-704.696 246.231,-709.094 253.902,-712.49"/>
<polygon fill="black" stroke="black" points="139.051,-452.235 134.65,-442.598 132.081,-452.877 139.051,-452.235"/>
</g>
<!-- Node0&#45;&gt;Node4 -->
<g id="edge4" class="edge"><title>Node0&#45;&gt;Node4</title>
<path fill="none" stroke="black" d="M136.606,-452.614C143.57,-496.927 166.812,-605.245 233,-661 243.766,-670.069 258.178,-674.94 271.684,-677.513"/>
<polygon fill="black" stroke="black" points="140.049,-451.963 135.14,-442.573 133.122,-452.974 140.049,-451.963"/>
</g>
<!-- Node0&#45;&gt;Node21 -->
<g id="edge21" class="edge"><title>Node0&#45;&gt;Node21</title>
<path fill="none" stroke="black" d="M138.495,-452.737C148.416,-491.64 175.977,-578.314 233,-623 238.046,-626.955 243.798,-630.101 249.838,-632.603"/>
<polygon fill="black" stroke="black" points="141.819,-451.593 136.061,-442.7 135.016,-453.243 141.819,-451.593"/>
</g>
<!-- Node13 -->
<g id="node8" class="node"><title>Node13</title>
<g id="a_node8"><a xlink:href="a00879.html" target="_top" xlink:title="SPI_I2S_MCLK_Output">
<polygon fill="white" stroke="black" points="251.5,-594.5 251.5,-613.5 372.5,-613.5 372.5,-594.5 251.5,-594.5"/>
<text text-anchor="middle" x="312" y="-601.5" font-family="Helvetica,sans-Serif" font-size="10.00">SPI_I2S_MCLK_Output</text>
</a>
</g>
</g>
<!-- Node0&#45;&gt;Node13 -->
<g id="edge13" class="edge"><title>Node0&#45;&gt;Node13</title>
<path fill="none" stroke="black" d="M141.064,-452.351C154.015,-485.006 184.742,-550.823 233,-585 238.573,-588.947 244.871,-592.079 251.411,-594.564"/>
<polygon fill="black" stroke="black" points="144.193,-450.734 137.354,-442.642 137.654,-453.233 144.193,-450.734"/>
</g>
<!-- Node10 -->
<g id="node9" class="node"><title>Node10</title>
<g id="a_node9"><a xlink:href="a00876.html" target="_top" xlink:title="SPI_I2S_Mode">
<polygon fill="white" stroke="black" points="270.5,-556.5 270.5,-575.5 353.5,-575.5 353.5,-556.5 270.5,-556.5"/>
<text text-anchor="middle" x="312" y="-563.5" font-family="Helvetica,sans-Serif" font-size="10.00">SPI_I2S_Mode</text>
</a>
</g>
</g>
<!-- Node0&#45;&gt;Node10 -->
<g id="edge10" class="edge"><title>Node0&#45;&gt;Node10</title>
<path fill="none" stroke="black" d="M144.813,-451.439C160.774,-476.971 193.105,-522.687 233,-547 244.188,-553.818 257.676,-558.191 270.267,-560.995"/>
<polygon fill="black" stroke="black" points="147.702,-449.453 139.515,-442.728 141.721,-453.091 147.702,-449.453"/>
</g>
<!-- Node15 -->
<g id="node10" class="node"><title>Node15</title>
<g id="a_node10"><a xlink:href="a00881.html" target="_top" xlink:title="SPI_I2S_Clock_Polarity">
<polygon fill="white" stroke="black" points="251,-518.5 251,-537.5 373,-537.5 373,-518.5 251,-518.5"/>
<text text-anchor="middle" x="312" y="-525.5" font-family="Helvetica,sans-Serif" font-size="10.00">SPI_I2S_Clock_Polarity</text>
</a>
</g>
</g>
<!-- Node0&#45;&gt;Node15 -->
<g id="edge15" class="edge"><title>Node0&#45;&gt;Node15</title>
<path fill="none" stroke="black" d="M150.831,-449.516C169.427,-466.85 200.999,-493.667 233,-509 241.044,-512.854 249.941,-515.969 258.762,-518.473"/>
<polygon fill="black" stroke="black" points="153.126,-446.869 143.468,-442.512 148.301,-451.941 153.126,-446.869"/>
</g>
<!-- Node18 -->
<g id="node11" class="node"><title>Node18</title>
<g id="a_node11"><a xlink:href="a00884.html" target="_top" xlink:title="SPI_CRC_Transmit_Receive">
<polygon fill="white" stroke="black" points="239,-480.5 239,-499.5 385,-499.5 385,-480.5 239,-480.5"/>
<text text-anchor="middle" x="312" y="-487.5" font-family="Helvetica,sans-Serif" font-size="10.00">SPI_CRC_Transmit_Receive</text>
</a>
</g>
</g>
<!-- Node0&#45;&gt;Node18 -->
<g id="edge18" class="edge"><title>Node0&#45;&gt;Node18</title>
<path fill="none" stroke="black" d="M165.988,-446.471C185.2,-454.261 210.254,-463.896 233,-471 244.042,-474.449 256.123,-477.658 267.409,-480.421"/>
<polygon fill="black" stroke="black" points="167.097,-443.143 156.516,-442.588 164.441,-449.62 167.097,-443.143"/>
</g>
<!-- Node5 -->
<g id="node12" class="node"><title>Node5</title>
<g id="a_node12"><a xlink:href="a00871.html" target="_top" xlink:title="SPI_Clock_Polarity">
<polygon fill="white" stroke="black" points="261,-442.5 261,-461.5 363,-461.5 363,-442.5 261,-442.5"/>
<text text-anchor="middle" x="312" y="-449.5" font-family="Helvetica,sans-Serif" font-size="10.00">SPI_Clock_Polarity</text>
</a>
</g>
</g>
<!-- Node0&#45;&gt;Node5 -->
<g id="edge5" class="edge"><title>Node0&#45;&gt;Node5</title>
<path fill="none" stroke="black" d="M207.544,-440.895C225.472,-442.819 244.243,-444.834 260.799,-446.611"/>
<polygon fill="black" stroke="black" points="207.718,-437.393 197.401,-439.806 206.97,-444.353 207.718,-437.393"/>
</g>
<!-- Node12 -->
<g id="node13" class="node"><title>Node12</title>
<g id="a_node13"><a xlink:href="a00878.html" target="_top" xlink:title="SPI_I2S_Data_Format">
<polygon fill="white" stroke="black" points="254,-404.5 254,-423.5 370,-423.5 370,-404.5 254,-404.5"/>
<text text-anchor="middle" x="312" y="-411.5" font-family="Helvetica,sans-Serif" font-size="10.00">SPI_I2S_Data_Format</text>
</a>
</g>
</g>
<!-- Node0&#45;&gt;Node12 -->
<g id="edge12" class="edge"><title>Node0&#45;&gt;Node12</title>
<path fill="none" stroke="black" d="M207.48,-425.112C222.988,-423.448 239.129,-421.715 253.925,-420.127"/>
<polygon fill="black" stroke="black" points="206.97,-421.647 197.401,-426.194 207.718,-428.607 206.97,-421.647"/>
</g>
<!-- Node11 -->
<g id="node14" class="node"><title>Node11</title>
<g id="a_node14"><a xlink:href="a00877.html" target="_top" xlink:title="SPI_I2S_Standard">
<polygon fill="white" stroke="black" points="263,-366.5 263,-385.5 361,-385.5 361,-366.5 263,-366.5"/>
<text text-anchor="middle" x="312" y="-373.5" font-family="Helvetica,sans-Serif" font-size="10.00">SPI_I2S_Standard</text>
</a>
</g>
</g>
<!-- Node0&#45;&gt;Node11 -->
<g id="edge11" class="edge"><title>Node0&#45;&gt;Node11</title>
<path fill="none" stroke="black" d="M165.988,-419.529C185.2,-411.739 210.254,-402.104 233,-395 244.042,-391.551 256.123,-388.342 267.409,-385.579"/>
<polygon fill="black" stroke="black" points="164.441,-416.38 156.516,-423.412 167.097,-422.857 164.441,-416.38"/>
</g>
<!-- Node17 -->
<g id="node16" class="node"><title>Node17</title>
<g id="a_node16"><a xlink:href="a00883.html" target="_top" xlink:title="SPI_NSS_internal_software\l_management">
<polygon fill="white" stroke="black" points="242.5,-317 242.5,-347 381.5,-347 381.5,-317 242.5,-317"/>
<text text-anchor="start" x="250.5" y="-335" font-family="Helvetica,sans-Serif" font-size="10.00">SPI_NSS_internal_software</text>
<text text-anchor="middle" x="312" y="-324" font-family="Helvetica,sans-Serif" font-size="10.00">_management</text>
</a>
</g>
</g>
<!-- Node0&#45;&gt;Node17 -->
<g id="edge17" class="edge"><title>Node0&#45;&gt;Node17</title>
<path fill="none" stroke="black" d="M151.655,-416.379C170.51,-399.402 201.9,-373.288 233,-357 240.18,-353.239 248.03,-349.914 255.895,-347.017"/>
<polygon fill="black" stroke="black" points="149.16,-413.919 144.15,-423.255 153.888,-419.081 149.16,-413.919"/>
</g>
<!-- Node9 -->
<g id="node17" class="node"><title>Node9</title>
<g id="a_node17"><a xlink:href="a00875.html" target="_top" xlink:title="SPI_MSB_LSB_transmission">
<polygon fill="white" stroke="black" points="239.5,-278.5 239.5,-297.5 384.5,-297.5 384.5,-278.5 239.5,-278.5"/>
<text text-anchor="middle" x="312" y="-285.5" font-family="Helvetica,sans-Serif" font-size="10.00">SPI_MSB_LSB_transmission</text>
</a>
</g>
</g>
<!-- Node0&#45;&gt;Node9 -->
<g id="edge9" class="edge"><title>Node0&#45;&gt;Node9</title>
<path fill="none" stroke="black" d="M143.439,-414.227C158.459,-386.348 190.498,-334.356 233,-307 238.977,-303.153 245.668,-300.085 252.552,-297.637"/>
<polygon fill="black" stroke="black" points="140.218,-412.834 138.688,-423.318 146.422,-416.077 140.218,-412.834"/>
</g>
<!-- Node8 -->
<g id="node18" class="node"><title>Node8</title>
<g id="a_node18"><a xlink:href="a00874.html" target="_top" xlink:title="SPI_BaudRate_Prescaler">
<polygon fill="white" stroke="black" points="248,-240.5 248,-259.5 376,-259.5 376,-240.5 248,-240.5"/>
<text text-anchor="middle" x="312" y="-247.5" font-family="Helvetica,sans-Serif" font-size="10.00">SPI_BaudRate_Prescaler</text>
</a>
</g>
</g>
<!-- Node0&#45;&gt;Node8 -->
<g id="edge8" class="edge"><title>Node0&#45;&gt;Node8</title>
<path fill="none" stroke="black" d="M140.117,-413.592C152.079,-378.921 181.959,-306.475 233,-269 238.28,-265.123 244.251,-262.029 250.48,-259.562"/>
<polygon fill="black" stroke="black" points="136.68,-412.836 136.858,-423.429 143.325,-415.037 136.68,-412.836"/>
</g>
<!-- Node7 -->
<g id="node19" class="node"><title>Node7</title>
<g id="a_node19"><a xlink:href="a00873.html" target="_top" xlink:title="SPI_Slave_Select_management">
<polygon fill="white" stroke="black" points="233,-202.5 233,-221.5 391,-221.5 391,-202.5 233,-202.5"/>
<text text-anchor="middle" x="312" y="-209.5" font-family="Helvetica,sans-Serif" font-size="10.00">SPI_Slave_Select_management</text>
</a>
</g>
</g>
<!-- Node0&#45;&gt;Node7 -->
<g id="edge7" class="edge"><title>Node0&#45;&gt;Node7</title>
<path fill="none" stroke="black" d="M137.861,-413.142C146.86,-372.384 173.176,-279.083 233,-231 237.78,-227.158 243.221,-224.076 248.955,-221.605"/>
<polygon fill="black" stroke="black" points="134.386,-412.659 135.768,-423.164 141.239,-414.09 134.386,-412.659"/>
</g>
<!-- Node23 -->
<g id="node20" class="node"><title>Node23</title>
<g id="a_node20"><a xlink:href="a00889.html" target="_top" xlink:title="SPI_I2S_Legacy">
<polygon fill="white" stroke="black" points="267,-164.5 267,-183.5 357,-183.5 357,-164.5 267,-164.5"/>
<text text-anchor="middle" x="312" y="-171.5" font-family="Helvetica,sans-Serif" font-size="10.00">SPI_I2S_Legacy</text>
</a>
</g>
</g>
<!-- Node0&#45;&gt;Node23 -->
<g id="edge23" class="edge"><title>Node0&#45;&gt;Node23</title>
<path fill="none" stroke="black" d="M136.144,-413.309C142.237,-367.319 163.947,-252.263 233,-193 242.413,-184.921 254.709,-180.164 266.745,-177.394"/>
<polygon fill="black" stroke="black" points="132.645,-413.088 134.912,-423.438 139.594,-413.933 132.645,-413.088"/>
</g>
<!-- Node3 -->
<g id="node21" class="node"><title>Node3</title>
<g id="a_node21"><a xlink:href="a00869.html" target="_top" xlink:title="SPI_mode">
<polygon fill="white" stroke="black" points="281,-126.5 281,-145.5 343,-145.5 343,-126.5 281,-126.5"/>
<text text-anchor="middle" x="312" y="-133.5" font-family="Helvetica,sans-Serif" font-size="10.00">SPI_mode</text>
</a>
</g>
</g>
<!-- Node0&#45;&gt;Node3 -->
<g id="edge3" class="edge"><title>Node0&#45;&gt;Node3</title>
<path fill="none" stroke="black" d="M134.889,-413.362C138.291,-362.522 154.651,-225.655 233,-155 245.938,-143.332 264.838,-138.529 280.793,-136.668"/>
<polygon fill="black" stroke="black" points="131.394,-413.171 134.318,-423.355 138.382,-413.571 131.394,-413.171"/>
</g>
<!-- Node6 -->
<g id="node22" class="node"><title>Node6</title>
<g id="a_node22"><a xlink:href="a00872.html" target="_top" xlink:title="SPI_Clock_Phase">
<polygon fill="white" stroke="black" points="263.5,-88.5 263.5,-107.5 360.5,-107.5 360.5,-88.5 263.5,-88.5"/>
<text text-anchor="middle" x="312" y="-95.5" font-family="Helvetica,sans-Serif" font-size="10.00">SPI_Clock_Phase</text>
</a>
</g>
</g>
<!-- Node0&#45;&gt;Node6 -->
<g id="edge6" class="edge"><title>Node0&#45;&gt;Node6</title>
<path fill="none" stroke="black" d="M133.925,-412.993C134.86,-357.274 145.479,-199.037 233,-117 241.338,-109.184 252.338,-104.426 263.438,-101.568"/>
<polygon fill="black" stroke="black" points="130.424,-413.237 133.849,-423.263 137.423,-413.289 130.424,-413.237"/>
</g>
<!-- Node16 -->
<g id="node23" class="node"><title>Node16</title>
<g id="a_node23"><a xlink:href="a00882.html" target="_top" xlink:title="SPI_I2S_DMA_transfer\l_requests">
<polygon fill="white" stroke="black" points="252.5,-39 252.5,-69 371.5,-69 371.5,-39 252.5,-39"/>
<text text-anchor="start" x="260.5" y="-57" font-family="Helvetica,sans-Serif" font-size="10.00">SPI_I2S_DMA_transfer</text>
<text text-anchor="middle" x="312" y="-46" font-family="Helvetica,sans-Serif" font-size="10.00">_requests</text>
</a>
</g>
</g>
<!-- Node0&#45;&gt;Node16 -->
<g id="edge16" class="edge"><title>Node0&#45;&gt;Node16</title>
<path fill="none" stroke="black" d="M133.442,-412.968C132.909,-353.475 139.614,-175.952 233,-79 238.426,-73.367 245.12,-69.0005 252.288,-65.6162"/>
<polygon fill="black" stroke="black" points="129.947,-413.296 133.622,-423.234 136.946,-413.174 129.947,-413.296"/>
</g>
<!-- Node2 -->
<g id="node24" class="node"><title>Node2</title>
<g id="a_node24"><a xlink:href="a00868.html" target="_top" xlink:title="SPI_data_direction">
<polygon fill="white" stroke="black" points="262.5,-0.5 262.5,-19.5 361.5,-19.5 361.5,-0.5 262.5,-0.5"/>
<text text-anchor="middle" x="312" y="-7.5" font-family="Helvetica,sans-Serif" font-size="10.00">SPI_data_direction</text>
</a>
</g>
</g>
<!-- Node0&#45;&gt;Node2 -->
<g id="edge2" class="edge"><title>Node0&#45;&gt;Node2</title>
<path fill="none" stroke="black" d="M136.178,-412.94C144.578,-339.223 177.221,-84.7021 233,-29 240.89,-21.1211 251.466,-16.3111 262.278,-13.4213"/>
<polygon fill="black" stroke="black" points="132.668,-412.834 135.038,-423.161 139.625,-413.61 132.668,-412.834"/>
</g>
<!-- Node1 -->
<g id="node15" class="node"><title>Node1</title>
<g id="a_node15"><a xlink:href="a00105.html" target="_top" xlink:title="SPI driver modules. ">
<polygon fill="white" stroke="black" points="0,-423.5 0,-442.5 33,-442.5 33,-423.5 0,-423.5"/>
<text text-anchor="middle" x="16.5" y="-430.5" font-family="Helvetica,sans-Serif" font-size="10.00">SPI</text>
</a>
</g>
</g>
<!-- Node1&#45;&gt;Node0 -->
<g id="edge1" class="edge"><title>Node1&#45;&gt;Node0</title>
<path fill="none" stroke="black" d="M43.4853,-433C51.183,-433 59.9684,-433 68.9462,-433"/>
<polygon fill="black" stroke="black" points="43.4208,-429.5 33.4207,-433 43.4207,-436.5 43.4208,-429.5"/>
</g>
</g>
</svg>
