<?xml version="1.0" encoding="UTF-8" standalone="no"?>
<!DOCTYPE svg PUBLIC "-//W3C//DTD SVG 1.1//EN"
 "http://www.w3.org/Graphics/SVG/1.1/DTD/svg11.dtd">
<!-- Generated by graphviz version 2.38.0 (20140413.2041)
 -->
<!-- Title: adc_dac_dma.h Pages: 1 -->
<svg width="1918pt" height="308pt"
 viewBox="0.00 0.00 1918.00 308.00" xmlns="http://www.w3.org/2000/svg" xmlns:xlink="http://www.w3.org/1999/xlink">
<g id="graph0" class="graph" transform="scale(1 1) rotate(0) translate(4 304)">
<title>adc_dac_dma.h</title>
<polygon fill="white" stroke="none" points="-4,4 -4,-304 1914,-304 1914,4 -4,4"/>
<!-- Node1 -->
<g id="node1" class="node"><title>Node1</title>
<polygon fill="#bfbfbf" stroke="black" points="1202,-280.5 1202,-299.5 1288,-299.5 1288,-280.5 1202,-280.5"/>
<text text-anchor="middle" x="1245" y="-287.5" font-family="Helvetica,sans-Serif" font-size="10.00">adc_dac_dma.h</text>
</g>
<!-- Node2 -->
<g id="node2" class="node"><title>Node2</title>
<g id="a_node2"><a xlink:href="a00038.html" target="_top" xlink:title="Global defines include file. ">
<polygon fill="white" stroke="black" points="906,-56.5 906,-75.5 962,-75.5 962,-56.5 906,-56.5"/>
<text text-anchor="middle" x="934" y="-63.5" font-family="Helvetica,sans-Serif" font-size="10.00">globals.h</text>
</a>
</g>
</g>
<!-- Node1&#45;&gt;Node2 -->
<g id="edge1" class="edge"><title>Node1&#45;&gt;Node2</title>
<path fill="none" stroke="midnightblue" d="M1201.91,-285.973C1126.93,-280.196 975.852,-266.168 928,-244 888.19,-225.558 857.856,-211.289 865,-168 869.279,-142.068 869.541,-133.948 884,-112 891.653,-100.384 903.008,-89.8358 912.964,-81.8762"/>
<polygon fill="midnightblue" stroke="midnightblue" points="915.389,-84.4289 921.225,-75.5861 911.148,-78.8597 915.389,-84.4289"/>
</g>
<!-- Node3 -->
<g id="node3" class="node"><title>Node3</title>
<g id="a_node3"><a xlink:href="a00063.html" target="_top" xlink:title="Provides nested vector interrupt controller configuration methods. ">
<polygon fill="white" stroke="black" points="600,-224.5 600,-243.5 674,-243.5 674,-224.5 600,-224.5"/>
<text text-anchor="middle" x="637" y="-231.5" font-family="Helvetica,sans-Serif" font-size="10.00">nvic_config.h</text>
</a>
</g>
</g>
<!-- Node1&#45;&gt;Node3 -->
<g id="edge2" class="edge"><title>Node1&#45;&gt;Node3</title>
<path fill="none" stroke="midnightblue" d="M1201.76,-285.16C1091.27,-275.346 799.191,-249.405 684.342,-239.205"/>
<polygon fill="midnightblue" stroke="midnightblue" points="684.385,-235.695 674.114,-238.296 683.765,-242.667 684.385,-235.695"/>
</g>
<!-- Node5 -->
<g id="node5" class="node"><title>Node5</title>
<polygon fill="white" stroke="#bfbfbf" points="693.5,-0.5 693.5,-19.5 764.5,-19.5 764.5,-0.5 693.5,-0.5"/>
<text text-anchor="middle" x="729" y="-7.5" font-family="Helvetica,sans-Serif" font-size="10.00">stm32f4xx.h</text>
</g>
<!-- Node1&#45;&gt;Node5 -->
<g id="edge92" class="edge"><title>Node1&#45;&gt;Node5</title>
<path fill="none" stroke="midnightblue" d="M1201.72,-289.369C1035.25,-290.429 436.433,-290.83 253,-244 189.252,-227.725 120,-244.793 120,-179 120,-179 120,-179 120,-121 120,-86.6051 132.467,-73.6295 162,-56 206.277,-29.5697 555.775,-16.3116 682.94,-12.3262"/>
<polygon fill="midnightblue" stroke="midnightblue" points="683.238,-15.8188 693.126,-12.012 683.022,-8.82211 683.238,-15.8188"/>
</g>
<!-- Node6 -->
<g id="node6" class="node"><title>Node6</title>
<g id="a_node6"><a xlink:href="a00044.html" target="_top" xlink:title="Main header definition. ">
<polygon fill="white" stroke="black" points="1222,-224.5 1222,-243.5 1268,-243.5 1268,-224.5 1222,-224.5"/>
<text text-anchor="middle" x="1245" y="-231.5" font-family="Helvetica,sans-Serif" font-size="10.00">main.h</text>
</a>
</g>
</g>
<!-- Node1&#45;&gt;Node6 -->
<g id="edge5" class="edge"><title>Node1&#45;&gt;Node6</title>
<path fill="none" stroke="midnightblue" d="M1239.83,-280.083C1238.32,-272.927 1237.89,-262.635 1238.54,-253.691"/>
<polygon fill="midnightblue" stroke="midnightblue" points="1242.02,-254.126 1239.87,-243.751 1235.08,-253.2 1242.02,-254.126"/>
</g>
<!-- Node13 -->
<g id="node13" class="node"><title>Node13</title>
<g id="a_node13"><a xlink:href="a00131.html" target="_top" xlink:title="This file contains all the functions prototypes for the RCC firmware library. ">
<polygon fill="white" stroke="black" points="1199.5,-56.5 1199.5,-75.5 1288.5,-75.5 1288.5,-56.5 1199.5,-56.5"/>
<text text-anchor="middle" x="1244" y="-63.5" font-family="Helvetica,sans-Serif" font-size="10.00">stm32f4xx_rcc.h</text>
</a>
</g>
</g>
<!-- Node1&#45;&gt;Node13 -->
<g id="edge91" class="edge"><title>Node1&#45;&gt;Node13</title>
<path fill="none" stroke="midnightblue" d="M1266.76,-280.433C1298.68,-266.524 1357.02,-235.687 1381,-188 1384.99,-180.059 1381.16,-176.887 1381,-168 1380.56,-143.099 1393.92,-131.941 1379,-112 1360.33,-87.0505 1327.29,-75.7623 1298.57,-70.7301"/>
<polygon fill="midnightblue" stroke="midnightblue" points="1299.03,-67.261 1288.62,-69.199 1297.97,-74.1795 1299.03,-67.261"/>
</g>
<!-- Node24 -->
<g id="node24" class="node"><title>Node24</title>
<g id="a_node24"><a xlink:href="a00031.html" target="_top" xlink:title="Controlling beam and primary actuators. ">
<polygon fill="white" stroke="black" points="1618.5,-168.5 1618.5,-187.5 1683.5,-187.5 1683.5,-168.5 1618.5,-168.5"/>
<text text-anchor="middle" x="1651" y="-175.5" font-family="Helvetica,sans-Serif" font-size="10.00">actuators.h</text>
</a>
</g>
</g>
<!-- Node1&#45;&gt;Node24 -->
<g id="edge94" class="edge"><title>Node1&#45;&gt;Node24</title>
<path fill="none" stroke="midnightblue" d="M1283.54,-280.482C1323.7,-272.272 1387.98,-258.924 1443,-244 1502.43,-227.88 1570.35,-204.628 1612.11,-190.744"/>
<polygon fill="midnightblue" stroke="midnightblue" points="1613.24,-194.058 1621.63,-187.594 1611.04,-187.413 1613.24,-194.058"/>
</g>
<!-- Node28 -->
<g id="node28" class="node"><title>Node28</title>
<g id="a_node28"><a xlink:href="a00067.html" target="_top" xlink:title="PID compensator implementation. ">
<polygon fill="white" stroke="black" points="1675,-112.5 1675,-131.5 1713,-131.5 1713,-112.5 1675,-112.5"/>
<text text-anchor="middle" x="1694" y="-119.5" font-family="Helvetica,sans-Serif" font-size="10.00">pid.h</text>
</a>
</g>
</g>
<!-- Node1&#45;&gt;Node28 -->
<g id="edge86" class="edge"><title>Node1&#45;&gt;Node28</title>
<path fill="none" stroke="midnightblue" d="M1288.24,-286.057C1390.63,-278.081 1642.98,-252.174 1692,-188 1701.95,-174.974 1701.26,-155.816 1698.79,-141.671"/>
<polygon fill="midnightblue" stroke="midnightblue" points="1702.15,-140.643 1696.61,-131.615 1695.31,-142.13 1702.15,-140.643"/>
</g>
<!-- Node30 -->
<g id="node30" class="node"><title>Node30</title>
<g id="a_node30"><a xlink:href="a00040.html" target="_top" xlink:title="Provides tools and helper functions. ">
<polygon fill="white" stroke="black" points="1769.5,-112.5 1769.5,-131.5 1820.5,-131.5 1820.5,-112.5 1769.5,-112.5"/>
<text text-anchor="middle" x="1795" y="-119.5" font-family="Helvetica,sans-Serif" font-size="10.00">helper.h</text>
</a>
</g>
</g>
<!-- Node1&#45;&gt;Node30 -->
<g id="edge93" class="edge"><title>Node1&#45;&gt;Node30</title>
<path fill="none" stroke="midnightblue" d="M1288.41,-288.973C1415.93,-287.859 1784.81,-276.877 1855,-188 1869.81,-169.25 1844.46,-149.285 1822.3,-136.506"/>
<polygon fill="midnightblue" stroke="midnightblue" points="1823.88,-133.384 1813.43,-131.655 1820.52,-139.525 1823.88,-133.384"/>
</g>
<!-- Node35 -->
<g id="node35" class="node"><title>Node35</title>
<g id="a_node35"><a xlink:href="a00073.html" target="_top" xlink:title="This file contains all the functions prototypes for the ADC firmware library. ">
<polygon fill="white" stroke="black" points="262,-224.5 262,-243.5 354,-243.5 354,-224.5 262,-224.5"/>
<text text-anchor="middle" x="308" y="-231.5" font-family="Helvetica,sans-Serif" font-size="10.00">stm32f4xx_adc.h</text>
</a>
</g>
</g>
<!-- Node1&#45;&gt;Node35 -->
<g id="edge87" class="edge"><title>Node1&#45;&gt;Node35</title>
<path fill="none" stroke="midnightblue" d="M1202,-286.522C1049.67,-277.743 535.779,-248.127 364.259,-238.242"/>
<polygon fill="midnightblue" stroke="midnightblue" points="364.367,-234.743 354.182,-237.661 363.964,-241.731 364.367,-234.743"/>
</g>
<!-- Node36 -->
<g id="node36" class="node"><title>Node36</title>
<g id="a_node36"><a xlink:href="a00087.html" target="_top" xlink:title="This file contains all the functions prototypes for the DAC firmware library. ">
<polygon fill="white" stroke="black" points="0,-224.5 0,-243.5 92,-243.5 92,-224.5 0,-224.5"/>
<text text-anchor="middle" x="46" y="-231.5" font-family="Helvetica,sans-Serif" font-size="10.00">stm32f4xx_dac.h</text>
</a>
</g>
</g>
<!-- Node1&#45;&gt;Node36 -->
<g id="edge89" class="edge"><title>Node1&#45;&gt;Node36</title>
<path fill="none" stroke="midnightblue" d="M1201.96,-288.993C1051.06,-288.609 532.056,-284.249 106,-244 104.732,-243.88 103.449,-243.752 102.157,-243.615"/>
<polygon fill="midnightblue" stroke="midnightblue" points="102.465,-240.128 92.1254,-242.439 101.65,-247.08 102.465,-240.128"/>
</g>
<!-- Node4 -->
<g id="node4" class="node"><title>Node4</title>
<g id="a_node4"><a xlink:href="a00061.html" target="_top" xlink:title="This file contains all the functions prototypes for the miscellaneous firmware library functions (add...">
<polygon fill="white" stroke="black" points="186,-56.5 186,-75.5 232,-75.5 232,-56.5 186,-56.5"/>
<text text-anchor="middle" x="209" y="-63.5" font-family="Helvetica,sans-Serif" font-size="10.00">misc.h</text>
</a>
</g>
</g>
<!-- Node3&#45;&gt;Node4 -->
<g id="edge3" class="edge"><title>Node3&#45;&gt;Node4</title>
<path fill="none" stroke="midnightblue" d="M599.734,-232.14C541.12,-229.772 424.533,-220.929 332,-188 286.185,-171.696 270.306,-168.348 238,-132 226.211,-118.736 218.523,-99.8985 214.044,-85.9148"/>
<polygon fill="midnightblue" stroke="midnightblue" points="217.293,-84.5535 211.123,-75.94 210.575,-86.5206 217.293,-84.5535"/>
</g>
<!-- Node4&#45;&gt;Node5 -->
<g id="edge4" class="edge"><title>Node4&#45;&gt;Node5</title>
<path fill="none" stroke="midnightblue" d="M232.303,-57.9163C235.213,-57.1887 238.163,-56.5253 241,-56 401.985,-26.1964 596.679,-15.7724 683.448,-12.4331"/>
<polygon fill="midnightblue" stroke="midnightblue" points="683.622,-15.9292 693.485,-12.0602 683.362,-8.93399 683.622,-15.9292"/>
</g>
<!-- Node6&#45;&gt;Node1 -->
<g id="edge73" class="edge"><title>Node6&#45;&gt;Node1</title>
<path fill="none" stroke="midnightblue" d="M1250.13,-243.751C1251.66,-250.858 1252.1,-261.136 1251.47,-270.101"/>
<polygon fill="midnightblue" stroke="midnightblue" points="1247.99,-269.713 1250.17,-280.083 1254.93,-270.622 1247.99,-269.713"/>
</g>
<!-- Node6&#45;&gt;Node2 -->
<g id="edge11" class="edge"><title>Node6&#45;&gt;Node2</title>
<path fill="none" stroke="midnightblue" d="M1221.79,-231.97C1183.96,-229.369 1107.73,-220.211 1053,-188 1013.68,-164.861 1016.33,-144.19 984,-112 973.759,-101.803 961.735,-90.9491 952.045,-82.4562"/>
<polygon fill="midnightblue" stroke="midnightblue" points="954.08,-79.5882 944.234,-75.6763 949.492,-84.8745 954.08,-79.5882"/>
</g>
<!-- Node7 -->
<g id="node7" class="node"><title>Node7</title>
<polygon fill="white" stroke="#bfbfbf" points="1864,-56.5 1864,-75.5 1910,-75.5 1910,-56.5 1864,-56.5"/>
<text text-anchor="middle" x="1887" y="-63.5" font-family="Helvetica,sans-Serif" font-size="10.00">stdio.h</text>
</g>
<!-- Node6&#45;&gt;Node7 -->
<g id="edge6" class="edge"><title>Node6&#45;&gt;Node7</title>
<path fill="none" stroke="midnightblue" d="M1268.19,-232.631C1373.7,-230.772 1805.49,-221.178 1855,-188 1888,-165.886 1890.19,-113.651 1888.74,-85.592"/>
<polygon fill="midnightblue" stroke="midnightblue" points="1892.22,-85.2323 1888.01,-75.5129 1885.24,-85.7406 1892.22,-85.2323"/>
</g>
<!-- Node8 -->
<g id="node8" class="node"><title>Node8</title>
<polygon fill="white" stroke="#bfbfbf" points="1720,-56.5 1720,-75.5 1768,-75.5 1768,-56.5 1720,-56.5"/>
<text text-anchor="middle" x="1744" y="-63.5" font-family="Helvetica,sans-Serif" font-size="10.00">stdlib.h</text>
</g>
<!-- Node6&#45;&gt;Node8 -->
<g id="edge7" class="edge"><title>Node6&#45;&gt;Node8</title>
<path fill="none" stroke="midnightblue" d="M1268.06,-232.1C1321.5,-229.514 1457.53,-220.053 1566,-188 1586.21,-182.027 1589.36,-175.659 1609,-168 1658.11,-148.847 1684.4,-168.935 1722,-132 1734.34,-119.879 1739.76,-100.6 1742.14,-86.1802"/>
<polygon fill="midnightblue" stroke="midnightblue" points="1745.66,-86.2537 1743.47,-75.8875 1738.72,-85.3561 1745.66,-86.2537"/>
</g>
<!-- Node9 -->
<g id="node9" class="node"><title>Node9</title>
<polygon fill="white" stroke="#bfbfbf" points="1585.5,-56.5 1585.5,-75.5 1634.5,-75.5 1634.5,-56.5 1585.5,-56.5"/>
<text text-anchor="middle" x="1610" y="-63.5" font-family="Helvetica,sans-Serif" font-size="10.00">string.h</text>
</g>
<!-- Node6&#45;&gt;Node9 -->
<g id="edge8" class="edge"><title>Node6&#45;&gt;Node9</title>
<path fill="none" stroke="midnightblue" d="M1268.03,-228.684C1306.28,-221.355 1385.21,-205.553 1451,-188 1460.97,-185.341 1621.91,-140.32 1628,-132 1638.23,-118.031 1630.64,-98.5119 1622.4,-84.5155"/>
<polygon fill="midnightblue" stroke="midnightblue" points="1625.16,-82.3477 1616.8,-75.8441 1619.28,-86.144 1625.16,-82.3477"/>
</g>
<!-- Node10 -->
<g id="node10" class="node"><title>Node10</title>
<polygon fill="white" stroke="#bfbfbf" points="882,-168.5 882,-187.5 950,-187.5 950,-168.5 882,-168.5"/>
<text text-anchor="middle" x="916" y="-175.5" font-family="Helvetica,sans-Serif" font-size="10.00">stdint&#45;gcc.h</text>
</g>
<!-- Node6&#45;&gt;Node10 -->
<g id="edge9" class="edge"><title>Node6&#45;&gt;Node10</title>
<path fill="none" stroke="midnightblue" d="M1221.65,-229.475C1173.44,-222.15 1059.41,-204.581 964,-188 962.731,-187.78 961.444,-187.554 960.145,-187.323"/>
<polygon fill="midnightblue" stroke="midnightblue" points="960.531,-183.837 950.068,-185.503 959.287,-190.725 960.531,-183.837"/>
</g>
<!-- Node11 -->
<g id="node11" class="node"><title>Node11</title>
<g id="a_node11"><a xlink:href="a00035.html" target="_top" xlink:title="Platform/Compiler dependent definitions. ">
<polygon fill="white" stroke="black" points="404.5,-56.5 404.5,-75.5 469.5,-75.5 469.5,-56.5 404.5,-56.5"/>
<text text-anchor="middle" x="437" y="-63.5" font-family="Helvetica,sans-Serif" font-size="10.00">attributes.h</text>
</a>
</g>
</g>
<!-- Node6&#45;&gt;Node11 -->
<g id="edge10" class="edge"><title>Node6&#45;&gt;Node11</title>
<path fill="none" stroke="midnightblue" d="M1221.97,-233.275C1136.74,-233.904 831.348,-232.706 585,-188 499.636,-172.509 449.805,-201.592 398,-132 385.999,-115.878 402.196,-95.8595 417.218,-82.3306"/>
<polygon fill="midnightblue" stroke="midnightblue" points="419.871,-84.6719 425.257,-75.5481 415.357,-79.3219 419.871,-84.6719"/>
</g>
<!-- Node12 -->
<g id="node12" class="node"><title>Node12</title>
<g id="a_node12"><a xlink:href="a00050.html" target="_top" xlink:title="Provides SysTick&#45;Timer driven delay functions. ">
<polygon fill="white" stroke="black" points="1263.5,-112.5 1263.5,-131.5 1370.5,-131.5 1370.5,-112.5 1263.5,-112.5"/>
<text text-anchor="middle" x="1317" y="-119.5" font-family="Helvetica,sans-Serif" font-size="10.00">md_stm32f4_delay.h</text>
</a>
</g>
</g>
<!-- Node6&#45;&gt;Node12 -->
<g id="edge12" class="edge"><title>Node6&#45;&gt;Node12</title>
<path fill="none" stroke="midnightblue" d="M1250.65,-224.368C1262.53,-206.215 1290.29,-163.802 1305.88,-139.99"/>
<polygon fill="midnightblue" stroke="midnightblue" points="1308.83,-141.875 1311.38,-131.591 1302.97,-138.042 1308.83,-141.875"/>
</g>
<!-- Node14 -->
<g id="node14" class="node"><title>Node14</title>
<g id="a_node14"><a xlink:href="a00052.html" target="_top" xlink:title="Definitions to extend board support for STM32F429i&#45;DISCO and equivalent boards. ">
<polygon fill="white" stroke="black" points="407.5,-112.5 407.5,-131.5 514.5,-131.5 514.5,-112.5 407.5,-112.5"/>
<text text-anchor="middle" x="461" y="-119.5" font-family="Helvetica,sans-Serif" font-size="10.00">md_stm32f4_disco.h</text>
</a>
</g>
</g>
<!-- Node6&#45;&gt;Node14 -->
<g id="edge17" class="edge"><title>Node6&#45;&gt;Node14</title>
<path fill="none" stroke="midnightblue" d="M1221.96,-233.159C1143.04,-233.294 876.626,-230.369 662,-188 600.07,-175.775 530.556,-150.606 491.651,-135.425"/>
<polygon fill="midnightblue" stroke="midnightblue" points="492.568,-132.024 481.981,-131.61 489.999,-138.536 492.568,-132.024"/>
</g>
<!-- Node16 -->
<g id="node16" class="node"><title>Node16</title>
<g id="a_node16"><a xlink:href="a00056_source.html" target="_top" xlink:title="md_stm32f4_timer.h">
<polygon fill="white" stroke="black" points="1513,-112.5 1513,-131.5 1619,-131.5 1619,-112.5 1513,-112.5"/>
<text text-anchor="middle" x="1566" y="-119.5" font-family="Helvetica,sans-Serif" font-size="10.00">md_stm32f4_timer.h</text>
</a>
</g>
</g>
<!-- Node6&#45;&gt;Node16 -->
<g id="edge22" class="edge"><title>Node6&#45;&gt;Node16</title>
<path fill="none" stroke="midnightblue" d="M1268.24,-227.662C1300.44,-220.039 1360.29,-205.056 1410,-188 1455.83,-172.276 1507.44,-149.793 1538.31,-135.812"/>
<polygon fill="midnightblue" stroke="midnightblue" points="1539.92,-138.924 1547.57,-131.591 1537.02,-132.554 1539.92,-138.924"/>
</g>
<!-- Node17 -->
<g id="node17" class="node"><title>Node17</title>
<g id="a_node17"><a xlink:href="a00156_source.html" target="_top" xlink:title="tm_stm32f4_pwm.h">
<polygon fill="white" stroke="black" points="671.5,-168.5 671.5,-187.5 774.5,-187.5 774.5,-168.5 671.5,-168.5"/>
<text text-anchor="middle" x="723" y="-175.5" font-family="Helvetica,sans-Serif" font-size="10.00">tm_stm32f4_pwm.h</text>
</a>
</g>
</g>
<!-- Node6&#45;&gt;Node17 -->
<g id="edge25" class="edge"><title>Node6&#45;&gt;Node17</title>
<path fill="none" stroke="midnightblue" d="M1221.9,-230.61C1145.67,-222.724 900.419,-197.354 784.628,-185.375"/>
<polygon fill="midnightblue" stroke="midnightblue" points="784.813,-181.876 774.506,-184.328 784.093,-188.839 784.813,-181.876"/>
</g>
<!-- Node20 -->
<g id="node20" class="node"><title>Node20</title>
<g id="a_node20"><a xlink:href="a00162_source.html" target="_top" xlink:title="tm_stm32f4_usart.h">
<polygon fill="white" stroke="black" points="247,-112.5 247,-131.5 351,-131.5 351,-112.5 247,-112.5"/>
<text text-anchor="middle" x="299" y="-119.5" font-family="Helvetica,sans-Serif" font-size="10.00">tm_stm32f4_usart.h</text>
</a>
</g>
</g>
<!-- Node6&#45;&gt;Node20 -->
<g id="edge37" class="edge"><title>Node6&#45;&gt;Node20</title>
<path fill="none" stroke="midnightblue" d="M1221.68,-232.794C1090.28,-231.5 445.428,-223.381 365,-188 341.865,-177.823 322.262,-155.645 310.573,-140.036"/>
<polygon fill="midnightblue" stroke="midnightblue" points="313.305,-137.839 304.638,-131.745 307.613,-141.914 313.305,-137.839"/>
</g>
<!-- Node22 -->
<g id="node22" class="node"><title>Node22</title>
<polygon fill="white" stroke="#bfbfbf" points="1180,-168.5 1180,-187.5 1248,-187.5 1248,-168.5 1180,-168.5"/>
<text text-anchor="middle" x="1214" y="-175.5" font-family="Helvetica,sans-Serif" font-size="10.00">core_cm4.h</text>
</g>
<!-- Node6&#45;&gt;Node22 -->
<g id="edge46" class="edge"><title>Node6&#45;&gt;Node22</title>
<path fill="none" stroke="midnightblue" d="M1239.88,-224.083C1235.59,-216.613 1229.34,-205.724 1224.06,-196.52"/>
<polygon fill="midnightblue" stroke="midnightblue" points="1227.04,-194.681 1219.02,-187.751 1220.97,-198.166 1227.04,-194.681"/>
</g>
<!-- Node23 -->
<g id="node23" class="node"><title>Node23</title>
<polygon fill="white" stroke="#bfbfbf" points="1304,-168.5 1304,-187.5 1372,-187.5 1372,-168.5 1304,-168.5"/>
<text text-anchor="middle" x="1338" y="-175.5" font-family="Helvetica,sans-Serif" font-size="10.00">arm_math.h</text>
</g>
<!-- Node6&#45;&gt;Node23 -->
<g id="edge47" class="edge"><title>Node6&#45;&gt;Node23</title>
<path fill="none" stroke="midnightblue" d="M1259.94,-224.324C1274.59,-215.822 1297.13,-202.729 1314.24,-192.797"/>
<polygon fill="midnightblue" stroke="midnightblue" points="1316.2,-195.703 1323.1,-187.655 1312.69,-189.649 1316.2,-195.703"/>
</g>
<!-- Node6&#45;&gt;Node24 -->
<g id="edge48" class="edge"><title>Node6&#45;&gt;Node24</title>
<path fill="none" stroke="midnightblue" d="M1268.17,-230.619C1325.36,-224.63 1477.74,-207.98 1604,-188 1605.46,-187.769 1606.95,-187.526 1608.45,-187.275"/>
<polygon fill="midnightblue" stroke="midnightblue" points="1609.19,-190.698 1618.43,-185.518 1607.98,-183.804 1609.19,-190.698"/>
</g>
<!-- Node25 -->
<g id="node25" class="node"><title>Node25</title>
<g id="a_node25"><a xlink:href="a00042.html" target="_top" xlink:title="Analog processing related callback handler definition. ">
<polygon fill="white" stroke="black" points="893,-112.5 893,-131.5 975,-131.5 975,-112.5 893,-112.5"/>
<text text-anchor="middle" x="934" y="-119.5" font-family="Helvetica,sans-Serif" font-size="10.00">irq_callbacks.h</text>
</a>
</g>
</g>
<!-- Node6&#45;&gt;Node25 -->
<g id="edge80" class="edge"><title>Node6&#45;&gt;Node25</title>
<path fill="none" stroke="midnightblue" d="M1221.83,-232.095C1178.2,-229.568 1082.95,-220.328 1011,-188 984.209,-175.962 957.946,-154.255 943.705,-139.259"/>
<polygon fill="midnightblue" stroke="midnightblue" points="946.325,-136.938 937.103,-131.722 941.059,-141.55 946.325,-136.938"/>
</g>
<!-- Node26 -->
<g id="node26" class="node"><title>Node26</title>
<g id="a_node26"><a xlink:href="a00059.html" target="_top" xlink:title="Project MD_APP scanner specific pin mappings. ">
<polygon fill="white" stroke="black" points="1427.5,-112.5 1427.5,-131.5 1494.5,-131.5 1494.5,-112.5 1427.5,-112.5"/>
<text text-anchor="middle" x="1461" y="-119.5" font-family="Helvetica,sans-Serif" font-size="10.00">mdb_gpio.h</text>
</a>
</g>
</g>
<!-- Node6&#45;&gt;Node26 -->
<g id="edge81" class="edge"><title>Node6&#45;&gt;Node26</title>
<path fill="none" stroke="midnightblue" d="M1268.18,-228.051C1296.11,-221.486 1343.92,-208.304 1381,-188 1405.37,-174.658 1429.6,-153.593 1444.9,-139.079"/>
<polygon fill="midnightblue" stroke="midnightblue" points="1447.69,-141.255 1452.43,-131.78 1442.81,-136.23 1447.69,-141.255"/>
</g>
<!-- Node6&#45;&gt;Node28 -->
<g id="edge82" class="edge"><title>Node6&#45;&gt;Node28</title>
<path fill="none" stroke="midnightblue" d="M1268.14,-231.19C1316.95,-226.969 1433.71,-214.73 1528,-188 1550.23,-181.697 1554.53,-176.563 1576,-168 1606.29,-155.916 1641.22,-142.682 1665.17,-133.714"/>
<polygon fill="midnightblue" stroke="midnightblue" points="1666.58,-136.926 1674.72,-130.148 1664.13,-130.369 1666.58,-136.926"/>
</g>
<!-- Node6&#45;&gt;Node30 -->
<g id="edge85" class="edge"><title>Node6&#45;&gt;Node30</title>
<path fill="none" stroke="midnightblue" d="M1268.22,-232.068C1348.27,-228.638 1612.26,-215.459 1692,-188 1724.59,-176.776 1757.45,-153.486 1777.01,-138.05"/>
<polygon fill="midnightblue" stroke="midnightblue" points="1779.44,-140.59 1785.01,-131.582 1775.04,-135.145 1779.44,-140.59"/>
</g>
<!-- Node32 -->
<g id="node32" class="node"><title>Node32</title>
<g id="a_node32"><a xlink:href="a00065.html" target="_top" xlink:title="Provides initialization methods to configure analog subsystems and DMA controller. ">
<polygon fill="white" stroke="black" points="1062.5,-168.5 1062.5,-187.5 1161.5,-187.5 1161.5,-168.5 1062.5,-168.5"/>
<text text-anchor="middle" x="1112" y="-175.5" font-family="Helvetica,sans-Serif" font-size="10.00">periph2dma_conf.h</text>
</a>
</g>
</g>
<!-- Node6&#45;&gt;Node32 -->
<g id="edge74" class="edge"><title>Node6&#45;&gt;Node32</title>
<path fill="none" stroke="midnightblue" d="M1223.93,-224.444C1201.94,-215.517 1167.27,-201.439 1142.34,-191.317"/>
<polygon fill="midnightblue" stroke="midnightblue" points="1143.56,-188.035 1132.98,-187.516 1140.92,-194.521 1143.56,-188.035"/>
</g>
<!-- Node34 -->
<g id="node34" class="node"><title>Node34</title>
<g id="a_node34"><a xlink:href="a00070.html" target="_top" xlink:title="Provides DAC driven signal generator functions. ">
<polygon fill="white" stroke="black" points="1778,-168.5 1778,-187.5 1846,-187.5 1846,-168.5 1778,-168.5"/>
<text text-anchor="middle" x="1812" y="-175.5" font-family="Helvetica,sans-Serif" font-size="10.00">signalGen.h</text>
</a>
</g>
</g>
<!-- Node6&#45;&gt;Node34 -->
<g id="edge83" class="edge"><title>Node6&#45;&gt;Node34</title>
<path fill="none" stroke="midnightblue" d="M1268.11,-231.813C1341.14,-227.889 1573.36,-214.072 1764,-188 1765.28,-187.826 1766.57,-187.64 1767.87,-187.446"/>
<polygon fill="midnightblue" stroke="midnightblue" points="1768.67,-190.863 1777.98,-185.809 1767.55,-183.953 1768.67,-190.863"/>
</g>
<!-- Node12&#45;&gt;Node2 -->
<g id="edge16" class="edge"><title>Node12&#45;&gt;Node2</title>
<path fill="none" stroke="midnightblue" d="M1263.34,-113.435C1184.82,-102.363 1040.51,-82.0178 972.016,-72.36"/>
<polygon fill="midnightblue" stroke="midnightblue" points="972.477,-68.8904 962.086,-70.9599 971.499,-75.8218 972.477,-68.8904"/>
</g>
<!-- Node12&#45;&gt;Node5 -->
<g id="edge13" class="edge"><title>Node12&#45;&gt;Node5</title>
<path fill="none" stroke="midnightblue" d="M1317.18,-112.159C1316.93,-97.8243 1314.14,-69.7348 1297,-56 1256.65,-23.6556 903.199,-14.126 775.105,-11.7205"/>
<polygon fill="midnightblue" stroke="midnightblue" points="774.91,-8.21647 764.848,-11.5342 774.783,-15.2153 774.91,-8.21647"/>
</g>
<!-- Node12&#45;&gt;Node13 -->
<g id="edge14" class="edge"><title>Node12&#45;&gt;Node13</title>
<path fill="none" stroke="midnightblue" d="M1305.27,-112.324C1294.16,-104.107 1277.26,-91.6017 1264.02,-81.8069"/>
<polygon fill="midnightblue" stroke="midnightblue" points="1266.06,-78.9671 1255.94,-75.8339 1261.9,-84.5948 1266.06,-78.9671"/>
</g>
<!-- Node13&#45;&gt;Node5 -->
<g id="edge15" class="edge"><title>Node13&#45;&gt;Node5</title>
<path fill="none" stroke="midnightblue" d="M1199.26,-57.92C1194.45,-57.2354 1189.63,-56.5807 1185,-56 1035.13,-37.1872 856.715,-21.5255 774.552,-14.6902"/>
<polygon fill="midnightblue" stroke="midnightblue" points="774.802,-11.199 764.547,-13.862 774.225,-18.1752 774.802,-11.199"/>
</g>
<!-- Node14&#45;&gt;Node2 -->
<g id="edge18" class="edge"><title>Node14&#45;&gt;Node2</title>
<path fill="none" stroke="midnightblue" d="M514.799,-114.858C611.395,-103.83 811.963,-80.9323 895.834,-71.3572"/>
<polygon fill="midnightblue" stroke="midnightblue" points="896.399,-74.8155 905.938,-70.2037 895.605,-67.8607 896.399,-74.8155"/>
</g>
<!-- Node14&#45;&gt;Node5 -->
<g id="edge19" class="edge"><title>Node14&#45;&gt;Node5</title>
<path fill="none" stroke="midnightblue" d="M465.923,-112.243C474.399,-98.0299 493.158,-70.1109 517,-56 568.668,-25.4205 638.293,-15.4789 683.414,-12.3281"/>
<polygon fill="midnightblue" stroke="midnightblue" points="683.726,-15.8157 693.492,-11.7089 683.296,-8.82885 683.726,-15.8157"/>
</g>
<!-- Node15 -->
<g id="node15" class="node"><title>Node15</title>
<g id="a_node15"><a xlink:href="a00054.html" target="_top" xlink:title="Provides generic methods for GPIO module initialization and manipulation. ">
<polygon fill="white" stroke="black" points="526,-56.5 526,-75.5 628,-75.5 628,-56.5 526,-56.5"/>
<text text-anchor="middle" x="577" y="-63.5" font-family="Helvetica,sans-Serif" font-size="10.00">md_stm32f4_gpio.h</text>
</a>
</g>
</g>
<!-- Node14&#45;&gt;Node15 -->
<g id="edge20" class="edge"><title>Node14&#45;&gt;Node15</title>
<path fill="none" stroke="midnightblue" d="M479.381,-112.444C498.216,-103.675 527.731,-89.9355 549.379,-79.8579"/>
<polygon fill="midnightblue" stroke="midnightblue" points="551.117,-82.9098 558.705,-75.5164 548.162,-76.5637 551.117,-82.9098"/>
</g>
<!-- Node15&#45;&gt;Node5 -->
<g id="edge21" class="edge"><title>Node15&#45;&gt;Node5</title>
<path fill="none" stroke="midnightblue" d="M601.085,-56.4435C626.545,-47.3986 666.894,-33.064 695.459,-22.9158"/>
<polygon fill="midnightblue" stroke="midnightblue" points="696.777,-26.1622 705.028,-19.5164 694.433,-19.5661 696.777,-26.1622"/>
</g>
<!-- Node16&#45;&gt;Node5 -->
<g id="edge23" class="edge"><title>Node16&#45;&gt;Node5</title>
<path fill="none" stroke="midnightblue" d="M1556.89,-112.492C1540.57,-97.8442 1504.59,-68.2563 1468,-56 1338.67,-12.678 915.91,-10.2579 775.097,-10.6971"/>
<polygon fill="midnightblue" stroke="midnightblue" points="774.663,-7.19864 764.676,-10.7366 774.69,-14.1986 774.663,-7.19864"/>
</g>
<!-- Node16&#45;&gt;Node13 -->
<g id="edge24" class="edge"><title>Node16&#45;&gt;Node13</title>
<path fill="none" stroke="midnightblue" d="M1514.98,-112.444C1455.97,-102.548 1359.21,-86.3204 1298.69,-76.1711"/>
<polygon fill="midnightblue" stroke="midnightblue" points="1299,-72.6752 1288.56,-74.473 1297.84,-79.5788 1299,-72.6752"/>
</g>
<!-- Node17&#45;&gt;Node2 -->
<g id="edge36" class="edge"><title>Node17&#45;&gt;Node2</title>
<path fill="none" stroke="midnightblue" d="M739.557,-168.368C776.304,-149.211 864.877,-103.036 908.647,-80.2172"/>
<polygon fill="midnightblue" stroke="midnightblue" points="910.271,-83.3178 917.52,-75.5914 907.035,-77.1107 910.271,-83.3178"/>
</g>
<!-- Node17&#45;&gt;Node5 -->
<g id="edge26" class="edge"><title>Node17&#45;&gt;Node5</title>
<path fill="none" stroke="midnightblue" d="M684.155,-168.364C664.623,-161.847 642.673,-150.704 631,-132 626.294,-124.459 628.095,-120.401 631,-112 644.301,-73.5438 681.773,-42.377 706.337,-25.2913"/>
<polygon fill="midnightblue" stroke="midnightblue" points="708.388,-28.1301 714.734,-19.6463 704.483,-22.3208 708.388,-28.1301"/>
</g>
<!-- Node17&#45;&gt;Node13 -->
<g id="edge27" class="edge"><title>Node17&#45;&gt;Node13</title>
<path fill="none" stroke="midnightblue" d="M774.642,-174.318C870.83,-168.847 1073.68,-154.943 1140,-132 1172.95,-120.6 1206.3,-97.1859 1226.06,-81.7935"/>
<polygon fill="midnightblue" stroke="midnightblue" points="1228.25,-84.5217 1233.89,-75.5521 1223.89,-79.0474 1228.25,-84.5217"/>
</g>
<!-- Node17&#45;&gt;Node15 -->
<g id="edge28" class="edge"><title>Node17&#45;&gt;Node15</title>
<path fill="none" stroke="midnightblue" d="M671.448,-168.933C631.083,-161.44 579.709,-148.894 567,-132 556.837,-118.491 561.775,-98.8652 567.746,-84.717"/>
<polygon fill="midnightblue" stroke="midnightblue" points="570.97,-86.0859 572.075,-75.5488 564.64,-83.097 570.97,-86.0859"/>
</g>
<!-- Node18 -->
<g id="node18" class="node"><title>Node18</title>
<g id="a_node18"><a xlink:href="a00147.html" target="_top" xlink:title="This file contains all the functions prototypes for the TIM firmware library. ">
<polygon fill="white" stroke="black" points="684.5,-56.5 684.5,-75.5 773.5,-75.5 773.5,-56.5 684.5,-56.5"/>
<text text-anchor="middle" x="729" y="-63.5" font-family="Helvetica,sans-Serif" font-size="10.00">stm32f4xx_tim.h</text>
</a>
</g>
</g>
<!-- Node17&#45;&gt;Node18 -->
<g id="edge29" class="edge"><title>Node17&#45;&gt;Node18</title>
<path fill="none" stroke="midnightblue" d="M693.388,-168.45C662.791,-157.986 621.632,-138.355 638,-112 647.717,-96.3554 664.662,-85.9849 681.316,-79.1896"/>
<polygon fill="midnightblue" stroke="midnightblue" points="682.871,-82.346 691.032,-75.5889 680.439,-75.7823 682.871,-82.346"/>
</g>
<!-- Node19 -->
<g id="node19" class="node"><title>Node19</title>
<g id="a_node19"><a xlink:href="a00160_source.html" target="_top" xlink:title="tm_stm32f4_timer_properties.h">
<polygon fill="white" stroke="black" points="647,-112.5 647,-131.5 799,-131.5 799,-112.5 647,-112.5"/>
<text text-anchor="middle" x="723" y="-119.5" font-family="Helvetica,sans-Serif" font-size="10.00">tm_stm32f4_timer_properties.h</text>
</a>
</g>
</g>
<!-- Node17&#45;&gt;Node19 -->
<g id="edge31" class="edge"><title>Node17&#45;&gt;Node19</title>
<path fill="none" stroke="midnightblue" d="M723,-168.083C723,-161.006 723,-150.861 723,-141.986"/>
<polygon fill="midnightblue" stroke="midnightblue" points="726.5,-141.751 723,-131.751 719.5,-141.751 726.5,-141.751"/>
</g>
<!-- Node18&#45;&gt;Node5 -->
<g id="edge30" class="edge"><title>Node18&#45;&gt;Node5</title>
<path fill="none" stroke="midnightblue" d="M729,-56.083C729,-49.0059 729,-38.8611 729,-29.9865"/>
<polygon fill="midnightblue" stroke="midnightblue" points="732.5,-29.751 729,-19.7511 725.5,-29.7511 732.5,-29.751"/>
</g>
<!-- Node19&#45;&gt;Node2 -->
<g id="edge35" class="edge"><title>Node19&#45;&gt;Node2</title>
<path fill="none" stroke="midnightblue" d="M756.434,-112.444C794.382,-102.731 856.161,-86.9208 895.932,-76.7426"/>
<polygon fill="midnightblue" stroke="midnightblue" points="896.967,-80.0904 905.787,-74.2203 895.232,-73.309 896.967,-80.0904"/>
</g>
<!-- Node19&#45;&gt;Node5 -->
<g id="edge32" class="edge"><title>Node19&#45;&gt;Node5</title>
<path fill="none" stroke="midnightblue" d="M741.984,-112.398C755.886,-104.954 773.714,-92.741 782,-76 791.714,-56.3746 771.724,-37.3753 753.577,-25.0394"/>
<polygon fill="midnightblue" stroke="midnightblue" points="755.269,-21.9676 744.955,-19.5453 751.508,-27.8709 755.269,-21.9676"/>
</g>
<!-- Node19&#45;&gt;Node13 -->
<g id="edge33" class="edge"><title>Node19&#45;&gt;Node13</title>
<path fill="none" stroke="midnightblue" d="M799.037,-113.119C905.342,-102.101 1095.82,-82.3585 1189.26,-72.6734"/>
<polygon fill="midnightblue" stroke="midnightblue" points="1189.77,-76.1399 1199.35,-71.6276 1189.05,-69.1772 1189.77,-76.1399"/>
</g>
<!-- Node19&#45;&gt;Node18 -->
<g id="edge34" class="edge"><title>Node19&#45;&gt;Node18</title>
<path fill="none" stroke="midnightblue" d="M723.991,-112.083C724.786,-104.927 725.929,-94.6353 726.923,-85.6911"/>
<polygon fill="midnightblue" stroke="midnightblue" points="730.402,-86.0765 728.028,-75.7511 723.445,-85.3034 730.402,-86.0765"/>
</g>
<!-- Node20&#45;&gt;Node2 -->
<g id="edge45" class="edge"><title>Node20&#45;&gt;Node2</title>
<path fill="none" stroke="midnightblue" d="M351.144,-116.192C366.257,-114.816 382.784,-113.33 398,-112 584.61,-95.6845 807.874,-77.3082 895.772,-70.1183"/>
<polygon fill="midnightblue" stroke="midnightblue" points="896.127,-73.6011 905.808,-69.2978 895.556,-66.6243 896.127,-73.6011"/>
</g>
<!-- Node20&#45;&gt;Node4 -->
<g id="edge38" class="edge"><title>Node20&#45;&gt;Node4</title>
<path fill="none" stroke="midnightblue" d="M284.54,-112.324C270.5,-103.9 248.952,-90.9709 232.457,-81.0741"/>
<polygon fill="midnightblue" stroke="midnightblue" points="233.8,-77.7983 223.424,-75.6545 230.198,-83.8007 233.8,-77.7983"/>
</g>
<!-- Node20&#45;&gt;Node5 -->
<g id="edge39" class="edge"><title>Node20&#45;&gt;Node5</title>
<path fill="none" stroke="midnightblue" d="M310.283,-112.386C331.504,-96.3527 376.853,-62.925 395,-56 492.811,-18.6746 617.058,-11.5423 683.004,-10.6309"/>
<polygon fill="midnightblue" stroke="midnightblue" points="683.109,-14.1302 693.075,-10.5344 683.042,-7.1305 683.109,-14.1302"/>
</g>
<!-- Node20&#45;&gt;Node11 -->
<g id="edge44" class="edge"><title>Node20&#45;&gt;Node11</title>
<path fill="none" stroke="midnightblue" d="M320.867,-112.444C343.779,-103.478 379.975,-89.314 405.866,-79.1827"/>
<polygon fill="midnightblue" stroke="midnightblue" points="407.199,-82.4198 415.236,-75.5164 404.648,-75.9011 407.199,-82.4198"/>
</g>
<!-- Node20&#45;&gt;Node13 -->
<g id="edge40" class="edge"><title>Node20&#45;&gt;Node13</title>
<path fill="none" stroke="midnightblue" d="M351.12,-115.892C366.233,-114.511 382.766,-113.097 398,-112 696.466,-90.503 1054.86,-74.753 1189.42,-69.1926"/>
<polygon fill="midnightblue" stroke="midnightblue" points="1189.63,-72.6871 1199.48,-68.7789 1189.34,-65.693 1189.63,-72.6871"/>
</g>
<!-- Node20&#45;&gt;Node15 -->
<g id="edge41" class="edge"><title>Node20&#45;&gt;Node15</title>
<path fill="none" stroke="midnightblue" d="M343.05,-112.444C391.851,-102.964 470.563,-87.6747 523.03,-77.4835"/>
<polygon fill="midnightblue" stroke="midnightblue" points="524.007,-80.8591 533.156,-75.5164 522.672,-73.9875 524.007,-80.8591"/>
</g>
<!-- Node21 -->
<g id="node21" class="node"><title>Node21</title>
<g id="a_node21"><a xlink:href="a00149.html" target="_top" xlink:title="This file contains all the functions prototypes for the USART firmware library. ">
<polygon fill="white" stroke="black" points="250,-56.5 250,-75.5 348,-75.5 348,-56.5 250,-56.5"/>
<text text-anchor="middle" x="299" y="-63.5" font-family="Helvetica,sans-Serif" font-size="10.00">stm32f4xx_usart.h</text>
</a>
</g>
</g>
<!-- Node20&#45;&gt;Node21 -->
<g id="edge42" class="edge"><title>Node20&#45;&gt;Node21</title>
<path fill="none" stroke="midnightblue" d="M299,-112.083C299,-105.006 299,-94.8611 299,-85.9865"/>
<polygon fill="midnightblue" stroke="midnightblue" points="302.5,-85.751 299,-75.7511 295.5,-85.7511 302.5,-85.751"/>
</g>
<!-- Node21&#45;&gt;Node5 -->
<g id="edge43" class="edge"><title>Node21&#45;&gt;Node5</title>
<path fill="none" stroke="midnightblue" d="M348.168,-57.8797C352.841,-57.2319 357.509,-56.596 362,-56 477.456,-40.6763 613.602,-24.4698 683.117,-16.329"/>
<polygon fill="midnightblue" stroke="midnightblue" points="683.758,-19.7779 693.284,-15.1402 682.945,-12.8253 683.758,-19.7779"/>
</g>
<!-- Node24&#45;&gt;Node1 -->
<g id="edge50" class="edge"><title>Node24&#45;&gt;Node1</title>
<path fill="none" stroke="midnightblue" d="M1633.06,-187.594C1599.3,-200.854 1525.19,-226.588 1461,-244 1406.17,-258.872 1342.15,-272.181 1298.01,-280.398"/>
<polygon fill="midnightblue" stroke="midnightblue" points="1297.27,-276.974 1288.07,-282.223 1298.53,-283.859 1297.27,-276.974"/>
</g>
<!-- Node24&#45;&gt;Node2 -->
<g id="edge51" class="edge"><title>Node24&#45;&gt;Node2</title>
<path fill="none" stroke="midnightblue" d="M1618.45,-174.283C1550.49,-168.397 1388.63,-153.262 1254,-132 1151.52,-115.816 1032.02,-89.552 972.213,-75.8915"/>
<polygon fill="midnightblue" stroke="midnightblue" points="972.631,-72.3966 962.102,-73.5721 971.066,-79.2194 972.631,-72.3966"/>
</g>
<!-- Node24&#45;&gt;Node7 -->
<g id="edge49" class="edge"><title>Node24&#45;&gt;Node7</title>
<path fill="none" stroke="midnightblue" d="M1683.74,-174.507C1721.23,-170.4 1783.34,-159.676 1829,-132 1848.92,-119.924 1865.87,-98.8486 1876.21,-83.9748"/>
<polygon fill="midnightblue" stroke="midnightblue" points="1879.12,-85.9127 1881.76,-75.6512 1873.3,-82.0288 1879.12,-85.9127"/>
</g>
<!-- Node24&#45;&gt;Node25 -->
<g id="edge52" class="edge"><title>Node24&#45;&gt;Node25</title>
<path fill="none" stroke="midnightblue" d="M1618.23,-175.009C1524.94,-169.266 1249.96,-151.806 1022,-132 1010.17,-130.972 997.451,-129.743 985.466,-128.53"/>
<polygon fill="midnightblue" stroke="midnightblue" points="985.468,-125.011 975.163,-127.472 984.753,-131.975 985.468,-125.011"/>
</g>
<!-- Node24&#45;&gt;Node26 -->
<g id="edge56" class="edge"><title>Node24&#45;&gt;Node26</title>
<path fill="none" stroke="midnightblue" d="M1620.89,-168.444C1588.37,-159.201 1536.42,-144.436 1500.61,-134.257"/>
<polygon fill="midnightblue" stroke="midnightblue" points="1501.54,-130.884 1490.97,-131.516 1499.63,-137.617 1501.54,-130.884"/>
</g>
<!-- Node24&#45;&gt;Node28 -->
<g id="edge61" class="edge"><title>Node24&#45;&gt;Node28</title>
<path fill="none" stroke="midnightblue" d="M1658.1,-168.083C1664.24,-160.377 1673.27,-149.033 1680.74,-139.653"/>
<polygon fill="midnightblue" stroke="midnightblue" points="1683.54,-141.754 1687.03,-131.751 1678.06,-137.394 1683.54,-141.754"/>
</g>
<!-- Node24&#45;&gt;Node30 -->
<g id="edge68" class="edge"><title>Node24&#45;&gt;Node30</title>
<path fill="none" stroke="midnightblue" d="M1673.82,-168.444C1697.83,-159.438 1735.83,-145.189 1762.87,-135.049"/>
<polygon fill="midnightblue" stroke="midnightblue" points="1764.16,-138.305 1772.29,-131.516 1761.7,-131.751 1764.16,-138.305"/>
</g>
<!-- Node25&#45;&gt;Node1 -->
<g id="edge55" class="edge"><title>Node25&#45;&gt;Node1</title>
<path fill="none" stroke="midnightblue" d="M915.404,-131.533C891.891,-143.498 856.361,-166.241 873,-188 911.692,-238.598 1098.54,-269.794 1191.81,-282.465"/>
<polygon fill="midnightblue" stroke="midnightblue" points="1191.51,-285.957 1201.89,-283.812 1192.44,-279.018 1191.51,-285.957"/>
</g>
<!-- Node25&#45;&gt;Node2 -->
<g id="edge54" class="edge"><title>Node25&#45;&gt;Node2</title>
<path fill="none" stroke="midnightblue" d="M934,-112.083C934,-105.006 934,-94.8611 934,-85.9865"/>
<polygon fill="midnightblue" stroke="midnightblue" points="937.5,-85.751 934,-75.7511 930.5,-85.7511 937.5,-85.751"/>
</g>
<!-- Node25&#45;&gt;Node6 -->
<g id="edge53" class="edge"><title>Node25&#45;&gt;Node6</title>
<path fill="none" stroke="midnightblue" d="M948.2,-131.722C966.237,-145.884 997.248,-173.732 1029,-188 1090.09,-215.452 1167.99,-226.256 1211.72,-230.437"/>
<polygon fill="midnightblue" stroke="midnightblue" points="1211.54,-233.935 1221.81,-231.342 1212.16,-226.963 1211.54,-233.935"/>
</g>
<!-- Node26&#45;&gt;Node5 -->
<g id="edge57" class="edge"><title>Node26&#45;&gt;Node5</title>
<path fill="none" stroke="midnightblue" d="M1462.23,-112.236C1463.68,-98.0138 1464.12,-70.0813 1448,-56 1397.41,-11.8082 925.331,-10.0968 774.852,-10.6887"/>
<polygon fill="midnightblue" stroke="midnightblue" points="774.567,-7.18985 764.583,-10.7347 774.599,-14.1898 774.567,-7.18985"/>
</g>
<!-- Node26&#45;&gt;Node13 -->
<g id="edge60" class="edge"><title>Node26&#45;&gt;Node13</title>
<path fill="none" stroke="midnightblue" d="M1427.09,-112.562C1389.65,-103.245 1329.24,-88.2121 1288.13,-77.9829"/>
<polygon fill="midnightblue" stroke="midnightblue" points="1288.93,-74.575 1278.38,-75.5565 1287.24,-81.3678 1288.93,-74.575"/>
</g>
<!-- Node27 -->
<g id="node27" class="node"><title>Node27</title>
<g id="a_node27"><a xlink:href="a00111.html" target="_top" xlink:title="This file contains all the functions prototypes for the GPIO firmware library. ">
<polygon fill="white" stroke="black" points="1345,-56.5 1345,-75.5 1439,-75.5 1439,-56.5 1345,-56.5"/>
<text text-anchor="middle" x="1392" y="-63.5" font-family="Helvetica,sans-Serif" font-size="10.00">stm32f4xx_gpio.h</text>
</a>
</g>
</g>
<!-- Node26&#45;&gt;Node27 -->
<g id="edge58" class="edge"><title>Node26&#45;&gt;Node27</title>
<path fill="none" stroke="midnightblue" d="M1449.91,-112.324C1439.51,-104.185 1423.74,-91.8395 1411.28,-82.0874"/>
<polygon fill="midnightblue" stroke="midnightblue" points="1413.32,-79.2407 1403.29,-75.8339 1409.01,-84.7533 1413.32,-79.2407"/>
</g>
<!-- Node27&#45;&gt;Node5 -->
<g id="edge59" class="edge"><title>Node27&#45;&gt;Node5</title>
<path fill="none" stroke="midnightblue" d="M1344.75,-57.6871C1340.11,-57.0715 1335.47,-56.496 1331,-56 1124,-33.0234 875.631,-18.6028 774.843,-13.2997"/>
<polygon fill="midnightblue" stroke="midnightblue" points="774.874,-9.79669 764.705,-12.771 774.509,-16.7872 774.874,-9.79669"/>
</g>
<!-- Node28&#45;&gt;Node2 -->
<g id="edge67" class="edge"><title>Node28&#45;&gt;Node2</title>
<path fill="none" stroke="midnightblue" d="M1674.98,-118.043C1661.82,-116.086 1643.88,-113.595 1628,-112 1378.58,-86.9392 1077.25,-72.9293 972.266,-68.5289"/>
<polygon fill="midnightblue" stroke="midnightblue" points="972.291,-65.0271 962.155,-68.1095 972.001,-72.021 972.291,-65.0271"/>
</g>
<!-- Node28&#45;&gt;Node5 -->
<g id="edge66" class="edge"><title>Node28&#45;&gt;Node5</title>
<path fill="none" stroke="midnightblue" d="M1674.9,-113.762C1633.65,-98.2547 1537.2,-62.6864 1503,-56 1362.2,-28.4767 919.228,-15.5886 774.931,-12.0463"/>
<polygon fill="midnightblue" stroke="midnightblue" points="774.75,-8.54096 764.669,-11.7978 774.581,-15.5389 774.75,-8.54096"/>
</g>
<!-- Node28&#45;&gt;Node7 -->
<g id="edge63" class="edge"><title>Node28&#45;&gt;Node7</title>
<path fill="none" stroke="midnightblue" d="M1713.21,-115.625C1746.08,-106.427 1813.49,-87.567 1854.02,-76.2288"/>
<polygon fill="midnightblue" stroke="midnightblue" points="1855.01,-79.5838 1863.7,-73.5187 1853.13,-72.8427 1855.01,-79.5838"/>
</g>
<!-- Node28&#45;&gt;Node8 -->
<g id="edge62" class="edge"><title>Node28&#45;&gt;Node8</title>
<path fill="none" stroke="midnightblue" d="M1702.26,-112.083C1709.46,-104.298 1720.11,-92.8015 1728.85,-83.3665"/>
<polygon fill="midnightblue" stroke="midnightblue" points="1731.67,-85.4666 1735.9,-75.7511 1726.53,-80.7108 1731.67,-85.4666"/>
</g>
<!-- Node28&#45;&gt;Node9 -->
<g id="edge64" class="edge"><title>Node28&#45;&gt;Node9</title>
<path fill="none" stroke="midnightblue" d="M1680.5,-112.324C1667.4,-103.9 1647.29,-90.9709 1631.89,-81.0741"/>
<polygon fill="midnightblue" stroke="midnightblue" points="1633.77,-78.118 1623.46,-75.6545 1629.98,-84.0063 1633.77,-78.118"/>
</g>
<!-- Node29 -->
<g id="node29" class="node"><title>Node29</title>
<polygon fill="white" stroke="#bfbfbf" points="1652.5,-56.5 1652.5,-75.5 1701.5,-75.5 1701.5,-56.5 1652.5,-56.5"/>
<text text-anchor="middle" x="1677" y="-63.5" font-family="Helvetica,sans-Serif" font-size="10.00">stdint.h</text>
</g>
<!-- Node28&#45;&gt;Node29 -->
<g id="edge65" class="edge"><title>Node28&#45;&gt;Node29</title>
<path fill="none" stroke="midnightblue" d="M1691.19,-112.083C1688.92,-104.849 1685.63,-94.4087 1682.79,-85.3968"/>
<polygon fill="midnightblue" stroke="midnightblue" points="1686.1,-84.2385 1679.75,-75.7511 1679.42,-86.3406 1686.1,-84.2385"/>
</g>
<!-- Node30&#45;&gt;Node7 -->
<g id="edge69" class="edge"><title>Node30&#45;&gt;Node7</title>
<path fill="none" stroke="midnightblue" d="M1809.78,-112.324C1824.27,-103.822 1846.57,-90.7288 1863.49,-80.7975"/>
<polygon fill="midnightblue" stroke="midnightblue" points="1865.4,-83.735 1872.26,-75.6545 1861.86,-77.6981 1865.4,-83.735"/>
</g>
<!-- Node30&#45;&gt;Node8 -->
<g id="edge71" class="edge"><title>Node30&#45;&gt;Node8</title>
<path fill="none" stroke="midnightblue" d="M1786.58,-112.083C1779.15,-104.22 1768.15,-92.5688 1759.19,-83.0813"/>
<polygon fill="midnightblue" stroke="midnightblue" points="1761.68,-80.618 1752.26,-75.7511 1756.59,-85.4244 1761.68,-80.618"/>
</g>
<!-- Node30&#45;&gt;Node9 -->
<g id="edge70" class="edge"><title>Node30&#45;&gt;Node9</title>
<path fill="none" stroke="midnightblue" d="M1769.28,-113.492C1736.7,-103.982 1680.45,-87.5645 1644.26,-77.0003"/>
<polygon fill="midnightblue" stroke="midnightblue" points="1645.2,-73.6287 1634.62,-74.1865 1643.24,-80.3483 1645.2,-73.6287"/>
</g>
<!-- Node31 -->
<g id="node31" class="node"><title>Node31</title>
<polygon fill="white" stroke="#bfbfbf" points="1786.5,-56.5 1786.5,-75.5 1845.5,-75.5 1845.5,-56.5 1786.5,-56.5"/>
<text text-anchor="middle" x="1816" y="-63.5" font-family="Helvetica,sans-Serif" font-size="10.00">inttypes.h</text>
</g>
<!-- Node30&#45;&gt;Node31 -->
<g id="edge72" class="edge"><title>Node30&#45;&gt;Node31</title>
<path fill="none" stroke="midnightblue" d="M1798.47,-112.083C1801.31,-104.77 1805.43,-94.1814 1808.96,-85.1034"/>
<polygon fill="midnightblue" stroke="midnightblue" points="1812.23,-86.3397 1812.6,-75.7511 1805.71,-83.8025 1812.23,-86.3397"/>
</g>
<!-- Node32&#45;&gt;Node5 -->
<g id="edge75" class="edge"><title>Node32&#45;&gt;Node5</title>
<path fill="none" stroke="midnightblue" d="M1121.18,-168.083C1133.44,-155.065 1152.26,-130.409 1140,-112 1099.48,-51.1479 873.605,-23.8713 775.028,-14.7414"/>
<polygon fill="midnightblue" stroke="midnightblue" points="775.049,-11.2291 764.775,-13.815 774.419,-18.2007 775.049,-11.2291"/>
</g>
<!-- Node33 -->
<g id="node33" class="node"><title>Node33</title>
<g id="a_node33"><a xlink:href="a00046.html" target="_top" xlink:title="Project XA&#45;Galvo scanner specific digital to analog converter methods. ">
<polygon fill="white" stroke="black" points="1031,-112.5 1031,-131.5 1131,-131.5 1131,-112.5 1031,-112.5"/>
<text text-anchor="middle" x="1081" y="-119.5" font-family="Helvetica,sans-Serif" font-size="10.00">md_stm32f4_dac.h</text>
</a>
</g>
</g>
<!-- Node32&#45;&gt;Node33 -->
<g id="edge76" class="edge"><title>Node32&#45;&gt;Node33</title>
<path fill="none" stroke="midnightblue" d="M1106.88,-168.083C1102.59,-160.613 1096.34,-149.724 1091.06,-140.52"/>
<polygon fill="midnightblue" stroke="midnightblue" points="1094.04,-138.681 1086.02,-131.751 1087.97,-142.166 1094.04,-138.681"/>
</g>
<!-- Node33&#45;&gt;Node2 -->
<g id="edge78" class="edge"><title>Node33&#45;&gt;Node2</title>
<path fill="none" stroke="midnightblue" d="M1057.71,-112.444C1033.19,-103.438 994.404,-89.1891 966.8,-79.049"/>
<polygon fill="midnightblue" stroke="midnightblue" points="967.777,-75.6793 957.184,-75.5164 965.363,-82.25 967.777,-75.6793"/>
</g>
<!-- Node33&#45;&gt;Node5 -->
<g id="edge77" class="edge"><title>Node33&#45;&gt;Node5</title>
<path fill="none" stroke="midnightblue" d="M1069.49,-112.328C1050.19,-98.2358 1009.63,-70.4873 971,-56 905.44,-31.4145 824.67,-19.8662 775.014,-14.7379"/>
<polygon fill="midnightblue" stroke="midnightblue" points="775.203,-11.2396 764.907,-13.7386 774.514,-18.2056 775.203,-11.2396"/>
</g>
<!-- Node33&#45;&gt;Node15 -->
<g id="edge79" class="edge"><title>Node33&#45;&gt;Node15</title>
<path fill="none" stroke="midnightblue" d="M1030.83,-115.625C937.794,-105.657 738.831,-84.339 638.11,-73.5475"/>
<polygon fill="midnightblue" stroke="midnightblue" points="638.405,-70.0591 628.089,-72.4738 637.659,-77.0193 638.405,-70.0591"/>
</g>
<!-- Node34&#45;&gt;Node7 -->
<g id="edge84" class="edge"><title>Node34&#45;&gt;Node7</title>
<path fill="none" stroke="midnightblue" d="M1824.94,-168.405C1836.35,-160.238 1852.72,-147 1863,-132 1872.77,-117.749 1879.13,-99.0323 1882.83,-85.3444"/>
<polygon fill="midnightblue" stroke="midnightblue" points="1886.23,-86.1755 1885.25,-75.6266 1879.44,-84.4874 1886.23,-86.1755"/>
</g>
<!-- Node35&#45;&gt;Node5 -->
<g id="edge88" class="edge"><title>Node35&#45;&gt;Node5</title>
<path fill="none" stroke="midnightblue" d="M292.852,-224.392C247.956,-197.87 122.068,-115.592 177,-56 211.031,-19.0822 557.017,-12.4507 683.236,-11.2602"/>
<polygon fill="midnightblue" stroke="midnightblue" points="683.379,-14.7592 693.348,-11.1722 683.318,-7.75947 683.379,-14.7592"/>
</g>
<!-- Node36&#45;&gt;Node5 -->
<g id="edge90" class="edge"><title>Node36&#45;&gt;Node5</title>
<path fill="none" stroke="midnightblue" d="M45.8769,-224.117C46.0004,-194.51 50.806,-98.6631 106,-56 151.364,-20.9354 546.97,-13.0945 683.164,-11.428"/>
<polygon fill="midnightblue" stroke="midnightblue" points="683.311,-14.9266 693.269,-11.3099 683.229,-7.92709 683.311,-14.9266"/>
</g>
</g>
</svg>
