<?xml version="1.0" encoding="UTF-8" standalone="no"?>
<!DOCTYPE svg PUBLIC "-//W3C//DTD SVG 1.1//EN"
 "http://www.w3.org/Graphics/SVG/1.1/DTD/svg11.dtd">
<!-- Generated by graphviz version 2.38.0 (20140413.2041)
 -->
<!-- Title: CAN_Private_Functions Pages: 1 -->
<svg width="382pt" height="284pt"
 viewBox="0.00 0.00 382.00 284.00" xmlns="http://www.w3.org/2000/svg" xmlns:xlink="http://www.w3.org/1999/xlink">
<g id="graph0" class="graph" transform="scale(1 1) rotate(0) translate(4 280)">
<title>CAN_Private_Functions</title>
<polygon fill="white" stroke="none" points="-4,4 -4,-280 378,-280 378,4 -4,4"/>
<!-- Node1 -->
<g id="node1" class="node"><title>Node1</title>
<g id="a_node1"><a xlink:href="a00091.html" target="_top" xlink:title="CAN driver modules. ">
<polygon fill="white" stroke="black" points="0,-128 0,-147 38,-147 38,-128 0,-128"/>
<text text-anchor="middle" x="19" y="-135" font-family="Helvetica,sans-Serif" font-size="10.00">CAN</text>
</a>
</g>
</g>
<!-- Node0 -->
<g id="node2" class="node"><title>Node0</title>
<polygon fill="#bfbfbf" stroke="black" points="74,-128 74,-147 196,-147 196,-128 74,-128"/>
<text text-anchor="middle" x="135" y="-135" font-family="Helvetica,sans-Serif" font-size="10.00">CAN_Private_Functions</text>
</g>
<!-- Node1&#45;&gt;Node0 -->
<g id="edge1" class="edge"><title>Node1&#45;&gt;Node0</title>
<path fill="none" stroke="black" d="M48.2908,-137.5C56.0387,-137.5 64.7444,-137.5 73.5603,-137.5"/>
<polygon fill="black" stroke="black" points="48.0637,-134 38.0636,-137.5 48.0636,-141 48.0637,-134"/>
</g>
<!-- Node2 -->
<g id="node3" class="node"><title>Node2</title>
<g id="a_node3"><a xlink:href="a00971.html" target="_top" xlink:title="Initialization and Configuration functions. ">
<polygon fill="white" stroke="black" points="243,-245.5 243,-275.5 363,-275.5 363,-245.5 243,-245.5"/>
<text text-anchor="start" x="251" y="-263.5" font-family="Helvetica,sans-Serif" font-size="10.00">Initialization and</text>
<text text-anchor="middle" x="303" y="-252.5" font-family="Helvetica,sans-Serif" font-size="10.00"> Configuration functions</text>
</a>
</g>
</g>
<!-- Node0&#45;&gt;Node2 -->
<g id="edge2" class="edge"><title>Node0&#45;&gt;Node2</title>
<path fill="none" stroke="black" d="M148.917,-155.253C165.751,-177.214 197.179,-214.399 232,-236.5 237.315,-239.873 243.16,-242.835 249.137,-245.418"/>
<polygon fill="black" stroke="black" points="151.619,-153.022 142.819,-147.122 146.019,-157.222 151.619,-153.022"/>
</g>
<!-- Node3 -->
<g id="node4" class="node"><title>Node3</title>
<g id="a_node4"><a xlink:href="a00972.html" target="_top" xlink:title="CAN Frames Transmission functions. ">
<polygon fill="white" stroke="black" points="235,-196.5 235,-226.5 371,-226.5 371,-196.5 235,-196.5"/>
<text text-anchor="start" x="243" y="-214.5" font-family="Helvetica,sans-Serif" font-size="10.00">CAN Frames Transmission</text>
<text text-anchor="middle" x="303" y="-203.5" font-family="Helvetica,sans-Serif" font-size="10.00"> functions</text>
</a>
</g>
</g>
<!-- Node0&#45;&gt;Node3 -->
<g id="edge3" class="edge"><title>Node0&#45;&gt;Node3</title>
<path fill="none" stroke="black" d="M161.564,-152.155C180.619,-162.745 207.476,-176.98 232,-187.5 239.32,-190.64 247.2,-193.667 254.94,-196.451"/>
<polygon fill="black" stroke="black" points="163.056,-148.979 152.623,-147.134 159.629,-155.082 163.056,-148.979"/>
</g>
<!-- Node4 -->
<g id="node5" class="node"><title>Node4</title>
<g id="a_node5"><a xlink:href="a00973.html" target="_top" xlink:title="CAN Frames Reception functions. ">
<polygon fill="white" stroke="black" points="242,-147.5 242,-177.5 364,-177.5 364,-147.5 242,-147.5"/>
<text text-anchor="start" x="250" y="-165.5" font-family="Helvetica,sans-Serif" font-size="10.00">CAN Frames Reception</text>
<text text-anchor="middle" x="303" y="-154.5" font-family="Helvetica,sans-Serif" font-size="10.00"> functions</text>
</a>
</g>
</g>
<!-- Node0&#45;&gt;Node4 -->
<g id="edge4" class="edge"><title>Node0&#45;&gt;Node4</title>
<path fill="none" stroke="black" d="M206.617,-148.135C218.371,-149.905 230.463,-151.726 241.924,-153.452"/>
<polygon fill="black" stroke="black" points="206.809,-144.625 196.399,-146.596 205.767,-151.547 206.809,-144.625"/>
</g>
<!-- Node5 -->
<g id="node6" class="node"><title>Node5</title>
<g id="a_node6"><a xlink:href="a00974.html" target="_top" xlink:title="CAN Operation modes functions. ">
<polygon fill="white" stroke="black" points="245,-98.5 245,-128.5 361,-128.5 361,-98.5 245,-98.5"/>
<text text-anchor="start" x="253" y="-116.5" font-family="Helvetica,sans-Serif" font-size="10.00">CAN Operation modes</text>
<text text-anchor="middle" x="303" y="-105.5" font-family="Helvetica,sans-Serif" font-size="10.00"> functions</text>
</a>
</g>
</g>
<!-- Node0&#45;&gt;Node5 -->
<g id="edge5" class="edge"><title>Node0&#45;&gt;Node5</title>
<path fill="none" stroke="black" d="M206.566,-127.298C219.38,-125.445 232.599,-123.534 244.964,-121.746"/>
<polygon fill="black" stroke="black" points="205.796,-123.873 196.399,-128.768 206.797,-130.801 205.796,-123.873"/>
</g>
<!-- Node6 -->
<g id="node7" class="node"><title>Node6</title>
<g id="a_node7"><a xlink:href="a00975.html" target="_top" xlink:title="CAN Bus Error management functions. ">
<polygon fill="white" stroke="black" points="232,-49.5 232,-79.5 374,-79.5 374,-49.5 232,-49.5"/>
<text text-anchor="start" x="240" y="-67.5" font-family="Helvetica,sans-Serif" font-size="10.00">CAN Bus Error management</text>
<text text-anchor="middle" x="303" y="-56.5" font-family="Helvetica,sans-Serif" font-size="10.00"> functions</text>
</a>
</g>
</g>
<!-- Node0&#45;&gt;Node6 -->
<g id="edge6" class="edge"><title>Node0&#45;&gt;Node6</title>
<path fill="none" stroke="black" d="M162.719,-123.052C181.756,-113.028 208.102,-99.6982 232,-89.5 240.071,-86.0559 248.793,-82.6775 257.251,-79.573"/>
<polygon fill="black" stroke="black" points="160.933,-120.037 153.743,-127.818 164.216,-126.219 160.933,-120.037"/>
</g>
<!-- Node7 -->
<g id="node8" class="node"><title>Node7</title>
<g id="a_node8"><a xlink:href="a00976.html" target="_top" xlink:title="Interrupts and flags management functions. ">
<polygon fill="white" stroke="black" points="243.5,-0.5 243.5,-30.5 362.5,-30.5 362.5,-0.5 243.5,-0.5"/>
<text text-anchor="start" x="251.5" y="-18.5" font-family="Helvetica,sans-Serif" font-size="10.00">Interrupts and flags</text>
<text text-anchor="middle" x="303" y="-7.5" font-family="Helvetica,sans-Serif" font-size="10.00"> management functions</text>
</a>
</g>
</g>
<!-- Node0&#45;&gt;Node7 -->
<g id="edge7" class="edge"><title>Node0&#45;&gt;Node7</title>
<path fill="none" stroke="black" d="M149.302,-119.861C166.327,-98.3887 197.743,-62.3035 232,-40.5 237.879,-36.7584 244.392,-33.4829 251.011,-30.6434"/>
<polygon fill="black" stroke="black" points="146.484,-117.783 143.115,-127.828 152.013,-122.076 146.484,-117.783"/>
</g>
</g>
</svg>
