<?xml version="1.0" encoding="UTF-8" standalone="no"?>
<!DOCTYPE svg PUBLIC "-//W3C//DTD SVG 1.1//EN"
 "http://www.w3.org/Graphics/SVG/1.1/DTD/svg11.dtd">
<!-- Generated by graphviz version 2.38.0 (20140413.2041)
 -->
<!-- Title: ADC_Private_Functions Pages: 1 -->
<svg width="395pt" height="343pt"
 viewBox="0.00 0.00 395.00 343.00" xmlns="http://www.w3.org/2000/svg" xmlns:xlink="http://www.w3.org/1999/xlink">
<g id="graph0" class="graph" transform="scale(1 1) rotate(0) translate(4 339)">
<title>ADC_Private_Functions</title>
<polygon fill="white" stroke="none" points="-4,4 -4,-339 391,-339 391,4 -4,4"/>
<!-- Node0 -->
<g id="node1" class="node"><title>Node0</title>
<polygon fill="#bfbfbf" stroke="black" points="74,-153 74,-172 196,-172 196,-153 74,-153"/>
<text text-anchor="middle" x="135" y="-160" font-family="Helvetica,sans-Serif" font-size="10.00">ADC_Private_Functions</text>
</g>
<!-- Node2 -->
<g id="node2" class="node"><title>Node2</title>
<g id="a_node2"><a xlink:href="a00963.html" target="_top" xlink:title="Initialization and Configuration functions. ">
<polygon fill="white" stroke="black" points="249.5,-304.5 249.5,-334.5 369.5,-334.5 369.5,-304.5 249.5,-304.5"/>
<text text-anchor="start" x="257.5" y="-322.5" font-family="Helvetica,sans-Serif" font-size="10.00">Initialization and</text>
<text text-anchor="middle" x="309.5" y="-311.5" font-family="Helvetica,sans-Serif" font-size="10.00"> Configuration functions</text>
</a>
</g>
</g>
<!-- Node0&#45;&gt;Node2 -->
<g id="edge2" class="edge"><title>Node0&#45;&gt;Node2</title>
<path fill="none" stroke="black" d="M144.754,-181.54C158.98,-210.405 189.83,-265.088 232,-295.5 237.306,-299.327 243.243,-302.557 249.399,-305.282"/>
<polygon fill="black" stroke="black" points="147.744,-179.68 140.274,-172.167 141.428,-182.699 147.744,-179.68"/>
</g>
<!-- Node3 -->
<g id="node3" class="node"><title>Node3</title>
<g id="a_node3"><a xlink:href="a00964.html" target="_top" xlink:title="Analog Watchdog configuration functions. ">
<polygon fill="white" stroke="black" points="233.5,-255.5 233.5,-285.5 385.5,-285.5 385.5,-255.5 233.5,-255.5"/>
<text text-anchor="start" x="241.5" y="-273.5" font-family="Helvetica,sans-Serif" font-size="10.00">Analog Watchdog configuration</text>
<text text-anchor="middle" x="309.5" y="-262.5" font-family="Helvetica,sans-Serif" font-size="10.00"> functions</text>
</a>
</g>
</g>
<!-- Node0&#45;&gt;Node3 -->
<g id="edge3" class="edge"><title>Node0&#45;&gt;Node3</title>
<path fill="none" stroke="black" d="M151.524,-179.843C169.276,-198.707 200.036,-228.561 232,-246.5 237.948,-249.838 244.422,-252.778 251.002,-255.349"/>
<polygon fill="black" stroke="black" points="153.888,-177.243 144.536,-172.265 148.742,-181.989 153.888,-177.243"/>
</g>
<!-- Node4 -->
<g id="node4" class="node"><title>Node4</title>
<g id="a_node4"><a xlink:href="a00965.html" target="_top" xlink:title="Temperature Sensor, Vrefint and VBAT management functions. ">
<polygon fill="white" stroke="black" points="242,-196 242,-237 377,-237 377,-196 242,-196"/>
<text text-anchor="start" x="250" y="-225" font-family="Helvetica,sans-Serif" font-size="10.00">Temperature Sensor,</text>
<text text-anchor="start" x="250" y="-214" font-family="Helvetica,sans-Serif" font-size="10.00"> Vrefint (Voltage Reference</text>
<text text-anchor="middle" x="309.5" y="-203" font-family="Helvetica,sans-Serif" font-size="10.00"> internal)</text>
</a>
</g>
</g>
<!-- Node0&#45;&gt;Node4 -->
<g id="edge4" class="edge"><title>Node0&#45;&gt;Node4</title>
<path fill="none" stroke="black" d="M176.088,-175.049C195.965,-181.272 220.479,-188.946 242.99,-195.993"/>
<polygon fill="black" stroke="black" points="177.031,-171.677 166.442,-172.03 174.94,-178.358 177.031,-171.677"/>
</g>
<!-- Node5 -->
<g id="node5" class="node"><title>Node5</title>
<g id="a_node5"><a xlink:href="a00966.html" target="_top" xlink:title="Regular Channels Configuration functions. ">
<polygon fill="white" stroke="black" points="232,-147.5 232,-177.5 387,-177.5 387,-147.5 232,-147.5"/>
<text text-anchor="start" x="240" y="-165.5" font-family="Helvetica,sans-Serif" font-size="10.00">Regular Channels Configuration</text>
<text text-anchor="middle" x="309.5" y="-154.5" font-family="Helvetica,sans-Serif" font-size="10.00"> functions</text>
</a>
</g>
</g>
<!-- Node0&#45;&gt;Node5 -->
<g id="edge5" class="edge"><title>Node0&#45;&gt;Node5</title>
<path fill="none" stroke="black" d="M206.421,-162.5C214.793,-162.5 223.372,-162.5 231.827,-162.5"/>
<polygon fill="black" stroke="black" points="206.332,-159 196.332,-162.5 206.332,-166 206.332,-159"/>
</g>
<!-- Node6 -->
<g id="node6" class="node"><title>Node6</title>
<g id="a_node6"><a xlink:href="a00967.html" target="_top" xlink:title="Regular Channels DMA Configuration functions. ">
<polygon fill="white" stroke="black" points="249.5,-98.5 249.5,-128.5 369.5,-128.5 369.5,-98.5 249.5,-98.5"/>
<text text-anchor="start" x="257.5" y="-116.5" font-family="Helvetica,sans-Serif" font-size="10.00">Regular Channels DMA</text>
<text text-anchor="middle" x="309.5" y="-105.5" font-family="Helvetica,sans-Serif" font-size="10.00"> Configuration functions</text>
</a>
</g>
</g>
<!-- Node0&#45;&gt;Node6 -->
<g id="edge6" class="edge"><title>Node0&#45;&gt;Node6</title>
<path fill="none" stroke="black" d="M179.532,-150.134C202.629,-143.574 231.193,-135.46 255.564,-128.537"/>
<polygon fill="black" stroke="black" points="178.332,-146.837 169.669,-152.936 180.245,-153.57 178.332,-146.837"/>
</g>
<!-- Node7 -->
<g id="node7" class="node"><title>Node7</title>
<g id="a_node7"><a xlink:href="a00968.html" target="_top" xlink:title="Injected channels Configuration functions. ">
<polygon fill="white" stroke="black" points="232.5,-49.5 232.5,-79.5 386.5,-79.5 386.5,-49.5 232.5,-49.5"/>
<text text-anchor="start" x="240.5" y="-67.5" font-family="Helvetica,sans-Serif" font-size="10.00">Injected channels Configuration</text>
<text text-anchor="middle" x="309.5" y="-56.5" font-family="Helvetica,sans-Serif" font-size="10.00"> functions</text>
</a>
</g>
</g>
<!-- Node0&#45;&gt;Node7 -->
<g id="edge7" class="edge"><title>Node0&#45;&gt;Node7</title>
<path fill="none" stroke="black" d="M153.335,-146.051C171.619,-129.481 201.899,-104.185 232,-88.5 238.419,-85.1553 245.387,-82.1792 252.415,-79.5599"/>
<polygon fill="black" stroke="black" points="150.797,-143.63 145.822,-152.984 155.545,-148.774 150.797,-143.63"/>
</g>
<!-- Node8 -->
<g id="node8" class="node"><title>Node8</title>
<g id="a_node8"><a xlink:href="a00969.html" target="_top" xlink:title="Interrupts and flags management functions. ">
<polygon fill="white" stroke="black" points="250,-0.5 250,-30.5 369,-30.5 369,-0.5 250,-0.5"/>
<text text-anchor="start" x="258" y="-18.5" font-family="Helvetica,sans-Serif" font-size="10.00">Interrupts and flags</text>
<text text-anchor="middle" x="309.5" y="-7.5" font-family="Helvetica,sans-Serif" font-size="10.00"> management functions</text>
</a>
</g>
</g>
<!-- Node0&#45;&gt;Node8 -->
<g id="edge8" class="edge"><title>Node0&#45;&gt;Node8</title>
<path fill="none" stroke="black" d="M145.762,-143.76C160.743,-116.802 191.923,-67.2743 232,-39.5 237.492,-35.6942 243.613,-32.4718 249.936,-29.7479"/>
<polygon fill="black" stroke="black" points="142.501,-142.433 140.829,-152.895 148.66,-145.759 142.501,-142.433"/>
</g>
<!-- Node1 -->
<g id="node9" class="node"><title>Node1</title>
<g id="a_node9"><a xlink:href="a00028.html" target="_top" xlink:title="ADC driver modules. ">
<polygon fill="white" stroke="black" points="0,-153 0,-172 38,-172 38,-153 0,-153"/>
<text text-anchor="middle" x="19" y="-160" font-family="Helvetica,sans-Serif" font-size="10.00">ADC</text>
</a>
</g>
</g>
<!-- Node1&#45;&gt;Node0 -->
<g id="edge1" class="edge"><title>Node1&#45;&gt;Node0</title>
<path fill="none" stroke="black" d="M48.2908,-162.5C56.0387,-162.5 64.7444,-162.5 73.5603,-162.5"/>
<polygon fill="black" stroke="black" points="48.0637,-159 38.0636,-162.5 48.0636,-166 48.0637,-159"/>
</g>
</g>
</svg>
