<?xml version="1.0" encoding="UTF-8" standalone="no"?>
<!DOCTYPE svg PUBLIC "-//W3C//DTD SVG 1.1//EN"
 "http://www.w3.org/Graphics/SVG/1.1/DTD/svg11.dtd">
<!-- Generated by graphviz version 2.38.0 (20140413.2041)
 -->
<!-- Title: stm32f4xx_cryp.h Pages: 1 -->
<svg width="509pt" height="84pt"
 viewBox="0.00 0.00 509.00 84.00" xmlns="http://www.w3.org/2000/svg" xmlns:xlink="http://www.w3.org/1999/xlink">
<g id="graph0" class="graph" transform="scale(1 1) rotate(0) translate(4 80)">
<title>stm32f4xx_cryp.h</title>
<polygon fill="white" stroke="none" points="-4,4 -4,-80 505,-80 505,4 -4,4"/>
<!-- Node1 -->
<g id="node1" class="node"><title>Node1</title>
<polygon fill="#bfbfbf" stroke="black" points="191,-56.5 191,-75.5 286,-75.5 286,-56.5 191,-56.5"/>
<text text-anchor="middle" x="238.5" y="-63.5" font-family="Helvetica,sans-Serif" font-size="10.00">stm32f4xx_cryp.h</text>
</g>
<!-- Node2 -->
<g id="node2" class="node"><title>Node2</title>
<g id="a_node2"><a xlink:href="a00081.html" target="_top" xlink:title="This file provides firmware functions to manage the following functionalities of the Cryptographic pr...">
<polygon fill="white" stroke="black" points="0,-0.5 0,-19.5 95,-19.5 95,-0.5 0,-0.5"/>
<text text-anchor="middle" x="47.5" y="-7.5" font-family="Helvetica,sans-Serif" font-size="10.00">stm32f4xx_cryp.c</text>
</a>
</g>
</g>
<!-- Node1&#45;&gt;Node2 -->
<g id="edge1" class="edge"><title>Node1&#45;&gt;Node2</title>
<path fill="none" stroke="midnightblue" d="M198.527,-53.6986C162.479,-43.507 110.257,-28.7429 77.6229,-19.5164"/>
<polygon fill="midnightblue" stroke="midnightblue" points="197.66,-57.0909 208.235,-56.4435 199.565,-50.3549 197.66,-57.0909"/>
</g>
<!-- Node3 -->
<g id="node3" class="node"><title>Node3</title>
<g id="a_node3"><a xlink:href="a00083.html" target="_top" xlink:title="This file provides high level functions to encrypt and decrypt an input message using AES in ECB/CBC/...">
<polygon fill="white" stroke="black" points="113.5,-0.5 113.5,-19.5 229.5,-19.5 229.5,-0.5 113.5,-0.5"/>
<text text-anchor="middle" x="171.5" y="-7.5" font-family="Helvetica,sans-Serif" font-size="10.00">stm32f4xx_cryp_aes.c</text>
</a>
</g>
</g>
<!-- Node1&#45;&gt;Node3 -->
<g id="edge2" class="edge"><title>Node1&#45;&gt;Node3</title>
<path fill="none" stroke="midnightblue" d="M219.665,-49.8197C207.662,-40.1452 192.528,-27.9481 182.461,-19.8339"/>
<polygon fill="midnightblue" stroke="midnightblue" points="217.753,-52.7738 227.735,-56.324 222.146,-47.3236 217.753,-52.7738"/>
</g>
<!-- Node4 -->
<g id="node4" class="node"><title>Node4</title>
<g id="a_node4"><a xlink:href="a00084.html" target="_top" xlink:title="This file provides high level functions to encrypt and decrypt an input message using DES in ECB/CBC ...">
<polygon fill="white" stroke="black" points="247.5,-0.5 247.5,-19.5 363.5,-19.5 363.5,-0.5 247.5,-0.5"/>
<text text-anchor="middle" x="305.5" y="-7.5" font-family="Helvetica,sans-Serif" font-size="10.00">stm32f4xx_cryp_des.c</text>
</a>
</g>
</g>
<!-- Node1&#45;&gt;Node4 -->
<g id="edge3" class="edge"><title>Node1&#45;&gt;Node4</title>
<path fill="none" stroke="midnightblue" d="M257.335,-49.8197C269.338,-40.1452 284.472,-27.9481 294.539,-19.8339"/>
<polygon fill="midnightblue" stroke="midnightblue" points="254.854,-47.3236 249.265,-56.324 259.247,-52.7738 254.854,-47.3236"/>
</g>
<!-- Node5 -->
<g id="node5" class="node"><title>Node5</title>
<g id="a_node5"><a xlink:href="a00085.html" target="_top" xlink:title="This file provides high level functions to encrypt and decrypt an input message using TDES in ECB/CBC...">
<polygon fill="white" stroke="black" points="382,-0.5 382,-19.5 501,-19.5 501,-0.5 382,-0.5"/>
<text text-anchor="middle" x="441.5" y="-7.5" font-family="Helvetica,sans-Serif" font-size="10.00">stm32f4xx_cryp_tdes.c</text>
</a>
</g>
</g>
<!-- Node1&#45;&gt;Node5 -->
<g id="edge4" class="edge"><title>Node1&#45;&gt;Node5</title>
<path fill="none" stroke="midnightblue" d="M280.494,-53.8291C318.823,-43.6333 374.652,-28.7823 409.485,-19.5164"/>
<polygon fill="midnightblue" stroke="midnightblue" points="279.43,-50.4904 270.666,-56.4435 281.23,-57.2551 279.43,-50.4904"/>
</g>
</g>
</svg>
