<?xml version="1.0" encoding="UTF-8" standalone="no"?>
<!DOCTYPE svg PUBLIC "-//W3C//DTD SVG 1.1//EN"
 "http://www.w3.org/Graphics/SVG/1.1/DTD/svg11.dtd">
<!-- Generated by graphviz version 2.38.0 (20140413.2041)
 -->
<!-- Title: DMA_Private_Functions Pages: 1 -->
<svg width="362pt" height="176pt"
 viewBox="0.00 0.00 362.00 176.00" xmlns="http://www.w3.org/2000/svg" xmlns:xlink="http://www.w3.org/1999/xlink">
<g id="graph0" class="graph" transform="scale(1 1) rotate(0) translate(4 172)">
<title>DMA_Private_Functions</title>
<polygon fill="white" stroke="none" points="-4,4 -4,-172 358,-172 358,4 -4,4"/>
<!-- Node2 -->
<g id="node1" class="node"><title>Node2</title>
<g id="a_node1"><a xlink:href="a00999.html" target="_top" xlink:title="Initialization and Configuration functions. ">
<polygon fill="white" stroke="black" points="234,-137.5 234,-167.5 354,-167.5 354,-137.5 234,-137.5"/>
<text text-anchor="start" x="242" y="-155.5" font-family="Helvetica,sans-Serif" font-size="10.00">Initialization and</text>
<text text-anchor="middle" x="294" y="-144.5" font-family="Helvetica,sans-Serif" font-size="10.00"> Configuration functions</text>
</a>
</g>
</g>
<!-- Node3 -->
<g id="node2" class="node"><title>Node3</title>
<g id="a_node2"><a xlink:href="a01000.html" target="_top" xlink:title="Data Counter functions. ">
<polygon fill="white" stroke="black" points="235,-99 235,-118 353,-118 353,-99 235,-99"/>
<text text-anchor="middle" x="294" y="-106" font-family="Helvetica,sans-Serif" font-size="10.00">Data Counter functions</text>
</a>
</g>
</g>
<!-- Node4 -->
<g id="node3" class="node"><title>Node4</title>
<g id="a_node3"><a xlink:href="a01001.html" target="_top" xlink:title="Double Buffer mode functions. ">
<polygon fill="white" stroke="black" points="242,-49.5 242,-79.5 346,-79.5 346,-49.5 242,-49.5"/>
<text text-anchor="start" x="250" y="-67.5" font-family="Helvetica,sans-Serif" font-size="10.00">Double Buffer mode</text>
<text text-anchor="middle" x="294" y="-56.5" font-family="Helvetica,sans-Serif" font-size="10.00"> functions</text>
</a>
</g>
</g>
<!-- Node5 -->
<g id="node4" class="node"><title>Node5</title>
<g id="a_node4"><a xlink:href="a01002.html" target="_top" xlink:title="Interrupts and flags management functions. ">
<polygon fill="white" stroke="black" points="234.5,-0.5 234.5,-30.5 353.5,-30.5 353.5,-0.5 234.5,-0.5"/>
<text text-anchor="start" x="242.5" y="-18.5" font-family="Helvetica,sans-Serif" font-size="10.00">Interrupts and flags</text>
<text text-anchor="middle" x="294" y="-7.5" font-family="Helvetica,sans-Serif" font-size="10.00"> management functions</text>
</a>
</g>
</g>
<!-- Node1 -->
<g id="node5" class="node"><title>Node1</title>
<g id="a_node5"><a xlink:href="a00098.html" target="_top" xlink:title="DMA driver modules. ">
<polygon fill="white" stroke="black" points="0,-77 0,-96 39,-96 39,-77 0,-77"/>
<text text-anchor="middle" x="19.5" y="-84" font-family="Helvetica,sans-Serif" font-size="10.00">DMA</text>
</a>
</g>
</g>
<!-- Node0 -->
<g id="node6" class="node"><title>Node0</title>
<polygon fill="#bfbfbf" stroke="black" points="75,-77 75,-96 198,-96 198,-77 75,-77"/>
<text text-anchor="middle" x="136.5" y="-84" font-family="Helvetica,sans-Serif" font-size="10.00">DMA_Private_Functions</text>
</g>
<!-- Node1&#45;&gt;Node0 -->
<g id="edge1" class="edge"><title>Node1&#45;&gt;Node0</title>
<path fill="none" stroke="black" d="M49.3047,-86.5C57.1911,-86.5 66.0459,-86.5 74.9979,-86.5"/>
<polygon fill="black" stroke="black" points="49.2327,-83.0001 39.2327,-86.5 49.2326,-90.0001 49.2327,-83.0001"/>
</g>
<!-- Node0&#45;&gt;Node2 -->
<g id="edge2" class="edge"><title>Node0&#45;&gt;Node2</title>
<path fill="none" stroke="black" d="M169.406,-100.065C188.205,-108.055 212.453,-118.358 234,-127.5 241.578,-130.715 249.705,-134.161 257.43,-137.435"/>
<polygon fill="black" stroke="black" points="170.687,-96.8067 160.115,-96.1158 167.949,-103.249 170.687,-96.8067"/>
</g>
<!-- Node0&#45;&gt;Node3 -->
<g id="edge3" class="edge"><title>Node0&#45;&gt;Node3</title>
<path fill="none" stroke="black" d="M208.105,-96.4891C217.067,-97.7571 226.158,-99.0432 234.894,-100.279"/>
<polygon fill="black" stroke="black" points="208.457,-93.0042 198.066,-95.0688 207.477,-99.9352 208.457,-93.0042"/>
</g>
<!-- Node0&#45;&gt;Node4 -->
<g id="edge4" class="edge"><title>Node0&#45;&gt;Node4</title>
<path fill="none" stroke="black" d="M208.023,-76.5224C219.444,-74.9066 231.075,-73.2611 241.919,-71.7269"/>
<polygon fill="black" stroke="black" points="207.477,-73.0648 198.066,-77.9312 208.457,-79.9958 207.477,-73.0648"/>
</g>
<!-- Node0&#45;&gt;Node5 -->
<g id="edge5" class="edge"><title>Node0&#45;&gt;Node5</title>
<path fill="none" stroke="black" d="M165.252,-72.3724C184.412,-62.7697 210.562,-49.9605 234,-39.5 240.665,-36.5255 247.814,-33.4895 254.756,-30.6214"/>
<polygon fill="black" stroke="black" points="163.543,-69.3142 156.186,-76.9382 166.691,-75.5662 163.543,-69.3142"/>
</g>
</g>
</svg>
