<?xml version="1.0" encoding="UTF-8" standalone="no"?>
<!DOCTYPE svg PUBLIC "-//W3C//DTD SVG 1.1//EN"
 "http://www.w3.org/Graphics/SVG/1.1/DTD/svg11.dtd">
<!-- Generated by graphviz version 2.38.0 (20140413.2041)
 -->
<!-- Title: WWDG_Exported_Constants Pages: 1 -->
<svg width="375pt" height="28pt"
 viewBox="0.00 0.00 375.00 28.00" xmlns="http://www.w3.org/2000/svg" xmlns:xlink="http://www.w3.org/1999/xlink">
<g id="graph0" class="graph" transform="scale(1 1) rotate(0) translate(4 24)">
<title>WWDG_Exported_Constants</title>
<polygon fill="white" stroke="none" points="-4,4 -4,-24 371,-24 371,4 -4,4"/>
<!-- Node2 -->
<g id="node1" class="node"><title>Node2</title>
<g id="a_node1"><a xlink:href="a00960.html" target="_top" xlink:title="WWDG_Prescaler">
<polygon fill="white" stroke="black" points="269,-0.5 269,-19.5 367,-19.5 367,-0.5 269,-0.5"/>
<text text-anchor="middle" x="318" y="-7.5" font-family="Helvetica,sans-Serif" font-size="10.00">WWDG_Prescaler</text>
</a>
</g>
</g>
<!-- Node1 -->
<g id="node2" class="node"><title>Node1</title>
<g id="a_node2"><a xlink:href="a01110.html" target="_top" xlink:title="WWDG driver modules. ">
<polygon fill="white" stroke="black" points="0,-0.5 0,-19.5 51,-19.5 51,-0.5 0,-0.5"/>
<text text-anchor="middle" x="25.5" y="-7.5" font-family="Helvetica,sans-Serif" font-size="10.00">WWDG</text>
</a>
</g>
</g>
<!-- Node0 -->
<g id="node3" class="node"><title>Node0</title>
<polygon fill="#bfbfbf" stroke="black" points="87,-0.5 87,-19.5 233,-19.5 233,-0.5 87,-0.5"/>
<text text-anchor="middle" x="160" y="-7.5" font-family="Helvetica,sans-Serif" font-size="10.00">WWDG_Exported_Constants</text>
</g>
<!-- Node1&#45;&gt;Node0 -->
<g id="edge1" class="edge"><title>Node1&#45;&gt;Node0</title>
<path fill="none" stroke="black" d="M61.1285,-10C69.1442,-10 77.9667,-10 86.9324,-10"/>
<polygon fill="black" stroke="black" points="61.1117,-6.5001 51.1117,-10 61.1117,-13.5001 61.1117,-6.5001"/>
</g>
<!-- Node0&#45;&gt;Node2 -->
<g id="edge2" class="edge"><title>Node0&#45;&gt;Node2</title>
<path fill="none" stroke="black" d="M243.322,-10C252.054,-10 260.714,-10 268.862,-10"/>
<polygon fill="black" stroke="black" points="243.064,-6.5001 233.064,-10 243.064,-13.5001 243.064,-6.5001"/>
</g>
</g>
</svg>
