<?xml version="1.0" encoding="UTF-8" standalone="no"?>
<!DOCTYPE svg PUBLIC "-//W3C//DTD SVG 1.1//EN"
 "http://www.w3.org/Graphics/SVG/1.1/DTD/svg11.dtd">
<!-- Generated by graphviz version 2.38.0 (20140413.2041)
 -->
<!-- Title: arm_rfft_fast_instance_f32 Pages: 1 -->
<svg width="141pt" height="215pt"
 viewBox="0.00 0.00 141.00 215.00" xmlns="http://www.w3.org/2000/svg" xmlns:xlink="http://www.w3.org/1999/xlink">
<g id="graph0" class="graph" transform="scale(1 1) rotate(0) translate(4 211)">
<title>arm_rfft_fast_instance_f32</title>
<polygon fill="white" stroke="none" points="-4,4 -4,-211 137,-211 137,4 -4,4"/>
<!-- Node1 -->
<g id="node1" class="node"><title>Node1</title>
<polygon fill="#bfbfbf" stroke="black" points="0,-0.5 0,-68.5 133,-68.5 133,-0.5 0,-0.5"/>
<text text-anchor="middle" x="66.5" y="-56.5" font-family="Helvetica,sans-Serif" font-size="10.00">arm_rfft_fast_instance_f32</text>
<polyline fill="none" stroke="black" points="0,-49.5 133,-49.5 "/>
<text text-anchor="start" x="8" y="-37.5" font-family="Helvetica,sans-Serif" font-size="10.00">+ fftLenRFFT</text>
<text text-anchor="start" x="8" y="-26.5" font-family="Helvetica,sans-Serif" font-size="10.00">+ pTwiddleRFFT</text>
<polyline fill="none" stroke="black" points="0,-19.5 133,-19.5 "/>
<text text-anchor="middle" x="66.5" y="-7.5" font-family="Helvetica,sans-Serif" font-size="10.00"> </text>
</g>
<!-- Node2 -->
<g id="node2" class="node"><title>Node2</title>
<g id="a_node2"><a xlink:href="a00040.html" target="_top" xlink:title="Instance structure for the floating&#45;point CFFT/CIFFT function. ">
<polygon fill="white" stroke="black" points="10,-116.5 10,-206.5 123,-206.5 123,-116.5 10,-116.5"/>
<text text-anchor="middle" x="66.5" y="-194.5" font-family="Helvetica,sans-Serif" font-size="10.00">arm_cfft_instance_f32</text>
<polyline fill="none" stroke="black" points="10,-187.5 123,-187.5 "/>
<text text-anchor="start" x="18" y="-175.5" font-family="Helvetica,sans-Serif" font-size="10.00">+ fftLen</text>
<text text-anchor="start" x="18" y="-164.5" font-family="Helvetica,sans-Serif" font-size="10.00">+ pTwiddle</text>
<text text-anchor="start" x="18" y="-153.5" font-family="Helvetica,sans-Serif" font-size="10.00">+ pBitRevTable</text>
<text text-anchor="start" x="18" y="-142.5" font-family="Helvetica,sans-Serif" font-size="10.00">+ bitRevLength</text>
<polyline fill="none" stroke="black" points="10,-135.5 123,-135.5 "/>
<text text-anchor="middle" x="66.5" y="-123.5" font-family="Helvetica,sans-Serif" font-size="10.00"> </text>
</a>
</g>
</g>
<!-- Node2&#45;&gt;Node1 -->
<g id="edge1" class="edge"><title>Node2&#45;&gt;Node1</title>
<path fill="none" stroke="#404040" d="M66.5,-116.43C66.5,-104.867 66.5,-92.3802 66.5,-80.7566"/>
<polygon fill="none" stroke="#404040" points="66.5001,-80.5672 62.5,-74.5672 66.5,-68.5672 70.5,-74.5671 66.5001,-80.5672"/>
<text text-anchor="middle" x="80" y="-90" font-family="Helvetica,sans-Serif" font-size="10.00"> +Sint</text>
</g>
</g>
</svg>
