<?xml version="1.0" encoding="UTF-8" standalone="no"?>
<!DOCTYPE svg PUBLIC "-//W3C//DTD SVG 1.1//EN"
 "http://www.w3.org/Graphics/SVG/1.1/DTD/svg11.dtd">
<!-- Generated by graphviz version 2.38.0 (20140413.2041)
 -->
<!-- Title: ADC_DMACmd Pages: 1 -->
<svg width="341pt" height="82pt"
 viewBox="0.00 0.00 341.00 81.69" xmlns="http://www.w3.org/2000/svg" xmlns:xlink="http://www.w3.org/1999/xlink">
<g id="graph0" class="graph" transform="scale(1 1) rotate(0) translate(4 77.6896)">
<title>ADC_DMACmd</title>
<polygon fill="white" stroke="none" points="-4,4 -4,-77.6896 337,-77.6896 337,4 -4,4"/>
<!-- Node1 -->
<g id="node1" class="node"><title>Node1</title>
<polygon fill="#bfbfbf" stroke="black" points="0,-38.5 0,-57.5 87,-57.5 87,-38.5 0,-38.5"/>
<text text-anchor="middle" x="43.5" y="-45.5" font-family="Helvetica,sans-Serif" font-size="10.00">ADC_DMACmd</text>
</g>
<!-- Node2 -->
<g id="node2" class="node"><title>Node2</title>
<g id="a_node2"><a xlink:href="a01287.html#ga840291bc02cba5474a4cb46a9b9566fe" target="_top" xlink:title="Main function entry. ">
<polygon fill="white" stroke="black" points="295,-38.5 295,-57.5 333,-57.5 333,-38.5 295,-38.5"/>
<text text-anchor="middle" x="314" y="-45.5" font-family="Helvetica,sans-Serif" font-size="10.00">main</text>
</a>
</g>
</g>
<!-- Node1&#45;&gt;Node2 -->
<g id="edge1" class="edge"><title>Node1&#45;&gt;Node2</title>
<path fill="none" stroke="midnightblue" d="M86.2792,-60.0562C98.0521,-62.9206 110.939,-65.5612 123,-67 183.019,-74.1601 199.418,-77.1762 259,-67 271.344,-64.8918 284.618,-60.2561 294.917,-56.0917"/>
<polygon fill="midnightblue" stroke="midnightblue" points="86.8234,-56.5832 76.2689,-57.5061 85.0953,-63.3665 86.8234,-56.5832"/>
</g>
<!-- Node3 -->
<g id="node3" class="node"><title>Node3</title>
<g id="a_node3"><a xlink:href="a01271.html#ga85f5a2827c06dbdba076d4e9125a11f8" target="_top" xlink:title="ADC common and regular scan group init. ">
<polygon fill="white" stroke="black" points="125.5,-38.5 125.5,-57.5 256.5,-57.5 256.5,-38.5 125.5,-38.5"/>
<text text-anchor="middle" x="191" y="-45.5" font-family="Helvetica,sans-Serif" font-size="10.00">ADC_Scan_Group_Config</text>
</a>
</g>
</g>
<!-- Node1&#45;&gt;Node3 -->
<g id="edge2" class="edge"><title>Node1&#45;&gt;Node3</title>
<path fill="none" stroke="midnightblue" d="M97.3886,-48C106.462,-48 115.981,-48 125.321,-48"/>
<polygon fill="midnightblue" stroke="midnightblue" points="97.3679,-44.5001 87.3678,-48 97.3678,-51.5001 97.3679,-44.5001"/>
</g>
<!-- Node4 -->
<g id="node4" class="node"><title>Node4</title>
<g id="a_node4"><a xlink:href="a01271.html#gad273dc4b4b26574e92666e4020e1ef5a" target="_top" xlink:title="Timer&#45;triggered ADC&#45;scan mode with DMA to memory. ">
<polygon fill="white" stroke="black" points="123,-0.5 123,-19.5 259,-19.5 259,-0.5 123,-0.5"/>
<text text-anchor="middle" x="191" y="-7.5" font-family="Helvetica,sans-Serif" font-size="10.00">TIM2_DMA_Trigger_Config</text>
</a>
</g>
</g>
<!-- Node1&#45;&gt;Node4 -->
<g id="edge4" class="edge"><title>Node1&#45;&gt;Node4</title>
<path fill="none" stroke="midnightblue" d="M91.1532,-35.8157C111.353,-30.54 134.648,-24.4562 153.548,-19.5201"/>
<polygon fill="midnightblue" stroke="midnightblue" points="90.0068,-32.4976 81.2158,-38.411 91.7757,-39.2704 90.0068,-32.4976"/>
</g>
<!-- Node3&#45;&gt;Node2 -->
<g id="edge3" class="edge"><title>Node3&#45;&gt;Node2</title>
<path fill="none" stroke="midnightblue" d="M266.78,-48C277.097,-48 286.826,-48 294.672,-48"/>
<polygon fill="midnightblue" stroke="midnightblue" points="266.751,-44.5001 256.751,-48 266.751,-51.5001 266.751,-44.5001"/>
</g>
<!-- Node4&#45;&gt;Node2 -->
<g id="edge5" class="edge"><title>Node4&#45;&gt;Node2</title>
<path fill="none" stroke="midnightblue" d="M237.097,-22.3746C244.441,-24.5085 251.949,-26.762 259,-29 270.936,-32.7881 284.204,-37.4501 294.601,-41.2079"/>
<polygon fill="midnightblue" stroke="midnightblue" points="237.82,-18.941 227.243,-19.5517 235.892,-25.6704 237.82,-18.941"/>
</g>
</g>
</svg>
