<?xml version="1.0" encoding="UTF-8" standalone="no"?>
<!DOCTYPE svg PUBLIC "-//W3C//DTD SVG 1.1//EN"
 "http://www.w3.org/Graphics/SVG/1.1/DTD/svg11.dtd">
<!-- Generated by graphviz version 2.38.0 (20140413.2041)
 -->
<!-- Title: arm_rfft_instance_f32 Pages: 1 -->
<svg width="153pt" height="314pt"
 viewBox="0.00 0.00 153.00 314.00" xmlns="http://www.w3.org/2000/svg" xmlns:xlink="http://www.w3.org/1999/xlink">
<g id="graph0" class="graph" transform="scale(1 1) rotate(0) translate(4 310)">
<title>arm_rfft_instance_f32</title>
<polygon fill="white" stroke="none" points="-4,4 -4,-310 149,-310 149,4 -4,4"/>
<!-- Node1 -->
<g id="node1" class="node"><title>Node1</title>
<polygon fill="#bfbfbf" stroke="black" points="17,-0.5 17,-123.5 128,-123.5 128,-0.5 17,-0.5"/>
<text text-anchor="middle" x="72.5" y="-111.5" font-family="Helvetica,sans-Serif" font-size="10.00">arm_rfft_instance_f32</text>
<polyline fill="none" stroke="black" points="17,-104.5 128,-104.5 "/>
<text text-anchor="start" x="25" y="-92.5" font-family="Helvetica,sans-Serif" font-size="10.00">+ fftLenReal</text>
<text text-anchor="start" x="25" y="-81.5" font-family="Helvetica,sans-Serif" font-size="10.00">+ fftLenBy2</text>
<text text-anchor="start" x="25" y="-70.5" font-family="Helvetica,sans-Serif" font-size="10.00">+ ifftFlagR</text>
<text text-anchor="start" x="25" y="-59.5" font-family="Helvetica,sans-Serif" font-size="10.00">+ bitReverseFlagR</text>
<text text-anchor="start" x="25" y="-48.5" font-family="Helvetica,sans-Serif" font-size="10.00">+ twidCoefRModifier</text>
<text text-anchor="start" x="25" y="-37.5" font-family="Helvetica,sans-Serif" font-size="10.00">+ pTwiddleAReal</text>
<text text-anchor="start" x="25" y="-26.5" font-family="Helvetica,sans-Serif" font-size="10.00">+ pTwiddleBReal</text>
<polyline fill="none" stroke="black" points="17,-19.5 128,-19.5 "/>
<text text-anchor="middle" x="72.5" y="-7.5" font-family="Helvetica,sans-Serif" font-size="10.00"> </text>
</g>
<!-- Node2 -->
<g id="node2" class="node"><title>Node2</title>
<g id="a_node2"><a xlink:href="a00046.html" target="_top" xlink:title="Instance structure for the floating&#45;point CFFT/CIFFT function. ">
<polygon fill="white" stroke="black" points="0,-171.5 0,-305.5 145,-305.5 145,-171.5 0,-171.5"/>
<text text-anchor="middle" x="72.5" y="-293.5" font-family="Helvetica,sans-Serif" font-size="10.00">arm_cfft_radix4_instance_f32</text>
<polyline fill="none" stroke="black" points="0,-286.5 145,-286.5 "/>
<text text-anchor="start" x="8" y="-274.5" font-family="Helvetica,sans-Serif" font-size="10.00">+ fftLen</text>
<text text-anchor="start" x="8" y="-263.5" font-family="Helvetica,sans-Serif" font-size="10.00">+ ifftFlag</text>
<text text-anchor="start" x="8" y="-252.5" font-family="Helvetica,sans-Serif" font-size="10.00">+ bitReverseFlag</text>
<text text-anchor="start" x="8" y="-241.5" font-family="Helvetica,sans-Serif" font-size="10.00">+ pTwiddle</text>
<text text-anchor="start" x="8" y="-230.5" font-family="Helvetica,sans-Serif" font-size="10.00">+ pBitRevTable</text>
<text text-anchor="start" x="8" y="-219.5" font-family="Helvetica,sans-Serif" font-size="10.00">+ twidCoefModifier</text>
<text text-anchor="start" x="8" y="-208.5" font-family="Helvetica,sans-Serif" font-size="10.00">+ bitRevFactor</text>
<text text-anchor="start" x="8" y="-197.5" font-family="Helvetica,sans-Serif" font-size="10.00">+ onebyfftLen</text>
<polyline fill="none" stroke="black" points="0,-190.5 145,-190.5 "/>
<text text-anchor="middle" x="72.5" y="-178.5" font-family="Helvetica,sans-Serif" font-size="10.00"> </text>
</a>
</g>
</g>
<!-- Node2&#45;&gt;Node1 -->
<g id="edge1" class="edge"><title>Node2&#45;&gt;Node1</title>
<path fill="none" stroke="#404040" d="M72.5,-171.031C72.5,-159.451 72.5,-147.352 72.5,-135.616"/>
<polygon fill="none" stroke="#404040" points="72.5001,-135.555 68.5,-129.555 72.5,-123.555 76.5,-129.555 72.5001,-135.555"/>
<text text-anchor="middle" x="88" y="-145" font-family="Helvetica,sans-Serif" font-size="10.00"> +pCfft</text>
</g>
</g>
</svg>
