<?xml version="1.0" encoding="UTF-8" standalone="no"?>
<!DOCTYPE svg PUBLIC "-//W3C//DTD SVG 1.1//EN"
 "http://www.w3.org/Graphics/SVG/1.1/DTD/svg11.dtd">
<!-- Generated by graphviz version 2.38.0 (20140413.2041)
 -->
<!-- Title: USART_Interrupt_definition Pages: 1 -->
<svg width="451pt" height="28pt"
 viewBox="0.00 0.00 451.00 28.00" xmlns="http://www.w3.org/2000/svg" xmlns:xlink="http://www.w3.org/1999/xlink">
<g id="graph0" class="graph" transform="scale(1 1) rotate(0) translate(4 24)">
<title>USART_Interrupt_definition</title>
<polygon fill="white" stroke="none" points="-4,4 -4,-24 447,-24 447,4 -4,4"/>
<!-- Node0 -->
<g id="node1" class="node"><title>Node0</title>
<polygon fill="#bfbfbf" stroke="black" points="182,-0.5 182,-19.5 319,-19.5 319,-0.5 182,-0.5"/>
<text text-anchor="middle" x="250.5" y="-7.5" font-family="Helvetica,sans-Serif" font-size="10.00">USART_Interrupt_definition</text>
</g>
<!-- Node2 -->
<g id="node2" class="node"><title>Node2</title>
<g id="a_node2"><a xlink:href="a00953.html" target="_top" xlink:title="USART_Legacy">
<polygon fill="white" stroke="black" points="355,-0.5 355,-19.5 443,-19.5 443,-0.5 355,-0.5"/>
<text text-anchor="middle" x="399" y="-7.5" font-family="Helvetica,sans-Serif" font-size="10.00">USART_Legacy</text>
</a>
</g>
</g>
<!-- Node0&#45;&gt;Node2 -->
<g id="edge2" class="edge"><title>Node0&#45;&gt;Node2</title>
<path fill="none" stroke="black" d="M329.442,-10C338.178,-10 346.825,-10 354.882,-10"/>
<polygon fill="black" stroke="black" points="329.175,-6.5001 319.175,-10 329.175,-13.5001 329.175,-6.5001"/>
</g>
<!-- Node1 -->
<g id="node3" class="node"><title>Node1</title>
<g id="a_node3"><a xlink:href="a00942.html" target="_top" xlink:title="USART_Exported_Constants">
<polygon fill="white" stroke="black" points="0,-0.5 0,-19.5 146,-19.5 146,-0.5 0,-0.5"/>
<text text-anchor="middle" x="73" y="-7.5" font-family="Helvetica,sans-Serif" font-size="10.00">USART_Exported_Constants</text>
</a>
</g>
</g>
<!-- Node1&#45;&gt;Node0 -->
<g id="edge1" class="edge"><title>Node1&#45;&gt;Node0</title>
<path fill="none" stroke="black" d="M156.186,-10C164.787,-10 173.459,-10 181.871,-10"/>
<polygon fill="black" stroke="black" points="156.142,-6.5001 146.142,-10 156.142,-13.5001 156.142,-6.5001"/>
</g>
</g>
</svg>
