<?xml version="1.0" encoding="UTF-8" standalone="no"?>
<!DOCTYPE svg PUBLIC "-//W3C//DTD SVG 1.1//EN"
 "http://www.w3.org/Graphics/SVG/1.1/DTD/svg11.dtd">
<!-- Generated by graphviz version 2.38.0 (20140413.2041)
 -->
<!-- Title: CRYP_TDES_CBC Pages: 1 -->
<svg width="264pt" height="370pt"
 viewBox="0.00 0.00 264.00 370.00" xmlns="http://www.w3.org/2000/svg" xmlns:xlink="http://www.w3.org/1999/xlink">
<g id="graph0" class="graph" transform="scale(1 1) rotate(0) translate(4 366)">
<title>CRYP_TDES_CBC</title>
<polygon fill="white" stroke="none" points="-4,4 -4,-366 260,-366 260,4 -4,4"/>
<!-- Node1 -->
<g id="node1" class="node"><title>Node1</title>
<polygon fill="#bfbfbf" stroke="black" points="0,-171.5 0,-190.5 104,-190.5 104,-171.5 0,-171.5"/>
<text text-anchor="middle" x="52" y="-178.5" font-family="Helvetica,sans-Serif" font-size="10.00">CRYP_TDES_CBC</text>
</g>
<!-- Node2 -->
<g id="node2" class="node"><title>Node2</title>
<g id="a_node2"><a xlink:href="a00093.html#gaeecd86b00d0d0137d97b06108789bcb2" target="_top" xlink:title="Fills each CRYP_KeyInitStruct member with its default value. ">
<polygon fill="white" stroke="black" points="144.5,-342.5 144.5,-361.5 251.5,-361.5 251.5,-342.5 144.5,-342.5"/>
<text text-anchor="middle" x="198" y="-349.5" font-family="Helvetica,sans-Serif" font-size="10.00">CRYP_KeyStructInit</text>
</a>
</g>
</g>
<!-- Node1&#45;&gt;Node2 -->
<g id="edge1" class="edge"><title>Node1&#45;&gt;Node2</title>
<path fill="none" stroke="midnightblue" d="M55.8689,-190.8C64.2201,-217.627 91.0766,-292.921 140,-333 142.232,-334.828 144.646,-336.483 147.178,-337.981"/>
<polygon fill="midnightblue" stroke="midnightblue" points="145.639,-341.124 156.145,-342.491 148.784,-334.871 145.639,-341.124"/>
</g>
<!-- Node3 -->
<g id="node3" class="node"><title>Node3</title>
<g id="a_node3"><a xlink:href="a00093.html#ga7b72c458d95581ab0a36be3e017fcf02" target="_top" xlink:title="Initializes the CRYP peripheral according to the specified parameters in the CRYP_InitStruct. ">
<polygon fill="white" stroke="black" points="166,-304.5 166,-323.5 230,-323.5 230,-304.5 166,-304.5"/>
<text text-anchor="middle" x="198" y="-311.5" font-family="Helvetica,sans-Serif" font-size="10.00">CRYP_Init</text>
</a>
</g>
</g>
<!-- Node1&#45;&gt;Node3 -->
<g id="edge2" class="edge"><title>Node1&#45;&gt;Node3</title>
<path fill="none" stroke="midnightblue" d="M57.8516,-190.823C69.1737,-212.756 99.484,-266.055 140,-295 144.894,-298.496 150.474,-301.381 156.184,-303.753"/>
<polygon fill="midnightblue" stroke="midnightblue" points="155.223,-307.128 165.817,-307.278 157.629,-300.555 155.223,-307.128"/>
</g>
<!-- Node4 -->
<g id="node4" class="node"><title>Node4</title>
<g id="a_node4"><a xlink:href="a00093.html#gad4baa3865415215cae07c9fbfa131cb9" target="_top" xlink:title="Initializes the CRYP Keys according to the specified parameters in the CRYP_KeyInitStruct. ">
<polygon fill="white" stroke="black" points="157.5,-266.5 157.5,-285.5 238.5,-285.5 238.5,-266.5 157.5,-266.5"/>
<text text-anchor="middle" x="198" y="-273.5" font-family="Helvetica,sans-Serif" font-size="10.00">CRYP_KeyInit</text>
</a>
</g>
</g>
<!-- Node1&#45;&gt;Node4 -->
<g id="edge3" class="edge"><title>Node1&#45;&gt;Node4</title>
<path fill="none" stroke="midnightblue" d="M61.4601,-190.527C76.0322,-206.404 107.451,-238.369 140,-257 143.666,-259.099 147.599,-261.009 151.623,-262.738"/>
<polygon fill="midnightblue" stroke="midnightblue" points="150.504,-266.058 161.092,-266.446 153.057,-259.54 150.504,-266.058"/>
</g>
<!-- Node5 -->
<g id="node5" class="node"><title>Node5</title>
<g id="a_node5"><a xlink:href="a00093.html#ga133964b50a07db3a32864308f6355a8b" target="_top" xlink:title="Initializes the CRYP Initialization Vectors(IV) according to the specified parameters in the CRYP_IVI...">
<polygon fill="white" stroke="black" points="161,-228.5 161,-247.5 235,-247.5 235,-228.5 161,-228.5"/>
<text text-anchor="middle" x="198" y="-235.5" font-family="Helvetica,sans-Serif" font-size="10.00">CRYP_IVInit</text>
</a>
</g>
</g>
<!-- Node1&#45;&gt;Node5 -->
<g id="edge4" class="edge"><title>Node1&#45;&gt;Node5</title>
<path fill="none" stroke="midnightblue" d="M73.5252,-190.59C91.0188,-198.612 116.921,-210.134 140,-219 145.489,-221.109 151.325,-223.21 157.089,-225.205"/>
<polygon fill="midnightblue" stroke="midnightblue" points="156.052,-228.549 166.646,-228.445 158.299,-221.92 156.052,-228.549"/>
</g>
<!-- Node6 -->
<g id="node6" class="node"><title>Node6</title>
<g id="a_node6"><a xlink:href="a00093.html#ga23ada9d9464e1362299d7612a1409a57" target="_top" xlink:title="Flushes the IN and OUT FIFOs (that is read and write pointers of the FIFOs are reset) ...">
<polygon fill="white" stroke="black" points="149.5,-190.5 149.5,-209.5 246.5,-209.5 246.5,-190.5 149.5,-190.5"/>
<text text-anchor="middle" x="198" y="-197.5" font-family="Helvetica,sans-Serif" font-size="10.00">CRYP_FIFOFlush</text>
</a>
</g>
</g>
<!-- Node1&#45;&gt;Node6 -->
<g id="edge5" class="edge"><title>Node1&#45;&gt;Node6</title>
<path fill="none" stroke="midnightblue" d="M104.174,-187.752C115.554,-189.254 127.693,-190.855 139.313,-192.389"/>
<polygon fill="midnightblue" stroke="midnightblue" points="138.987,-195.876 149.359,-193.714 139.903,-188.936 138.987,-195.876"/>
</g>
<!-- Node7 -->
<g id="node7" class="node"><title>Node7</title>
<g id="a_node7"><a xlink:href="a00093.html#gad39ccd9b1f2e088e3a227d7a1c410d7c" target="_top" xlink:title="Enables or disables the CRYP peripheral. ">
<polygon fill="white" stroke="black" points="162.5,-152.5 162.5,-171.5 233.5,-171.5 233.5,-152.5 162.5,-152.5"/>
<text text-anchor="middle" x="198" y="-159.5" font-family="Helvetica,sans-Serif" font-size="10.00">CRYP_Cmd</text>
</a>
</g>
</g>
<!-- Node1&#45;&gt;Node7 -->
<g id="edge6" class="edge"><title>Node1&#45;&gt;Node7</title>
<path fill="none" stroke="midnightblue" d="M104.174,-174.248C119.807,-172.185 136.872,-169.934 152.058,-167.93"/>
<polygon fill="midnightblue" stroke="midnightblue" points="152.774,-171.366 162.231,-166.588 151.859,-164.426 152.774,-171.366"/>
</g>
<!-- Node8 -->
<g id="node8" class="node"><title>Node8</title>
<g id="a_node8"><a xlink:href="a00093.html#gabe26186adf64660a4a573bd6a4368fee" target="_top" xlink:title="Returns whether CRYP peripheral is enabled or disabled. ">
<polygon fill="white" stroke="black" points="140,-114.5 140,-133.5 256,-133.5 256,-114.5 140,-114.5"/>
<text text-anchor="middle" x="198" y="-121.5" font-family="Helvetica,sans-Serif" font-size="10.00">CRYP_GetCmdStatus</text>
</a>
</g>
</g>
<!-- Node1&#45;&gt;Node8 -->
<g id="edge7" class="edge"><title>Node1&#45;&gt;Node8</title>
<path fill="none" stroke="midnightblue" d="M73.5252,-171.41C91.0188,-163.388 116.921,-151.866 140,-143 145.489,-140.891 151.325,-138.79 157.089,-136.795"/>
<polygon fill="midnightblue" stroke="midnightblue" points="158.299,-140.08 166.646,-133.555 156.052,-133.451 158.299,-140.08"/>
</g>
<!-- Node9 -->
<g id="node9" class="node"><title>Node9</title>
<g id="a_node9"><a xlink:href="a00093.html#ga16dc76244318d464357ee6ff208bf9a4" target="_top" xlink:title="Writes data in the Data Input register (DIN). ">
<polygon fill="white" stroke="black" points="158,-76.5 158,-95.5 238,-95.5 238,-76.5 158,-76.5"/>
<text text-anchor="middle" x="198" y="-83.5" font-family="Helvetica,sans-Serif" font-size="10.00">CRYP_DataIn</text>
</a>
</g>
</g>
<!-- Node1&#45;&gt;Node9 -->
<g id="edge8" class="edge"><title>Node1&#45;&gt;Node9</title>
<path fill="none" stroke="midnightblue" d="M61.4601,-171.473C76.0322,-155.596 107.451,-123.631 140,-105 143.666,-102.901 147.599,-100.991 151.623,-99.2623"/>
<polygon fill="midnightblue" stroke="midnightblue" points="153.057,-102.46 161.092,-95.5543 150.504,-95.9416 153.057,-102.46"/>
</g>
<!-- Node10 -->
<g id="node10" class="node"><title>Node10</title>
<g id="a_node10"><a xlink:href="a00093.html#ga993d568b626a74b2973d4a6848a681f6" target="_top" xlink:title="Checks whether the specified CRYP flag is set or not. ">
<polygon fill="white" stroke="black" points="141.5,-38.5 141.5,-57.5 254.5,-57.5 254.5,-38.5 141.5,-38.5"/>
<text text-anchor="middle" x="198" y="-45.5" font-family="Helvetica,sans-Serif" font-size="10.00">CRYP_GetFlagStatus</text>
</a>
</g>
</g>
<!-- Node1&#45;&gt;Node10 -->
<g id="edge9" class="edge"><title>Node1&#45;&gt;Node10</title>
<path fill="none" stroke="midnightblue" d="M57.8516,-171.177C69.1737,-149.244 99.484,-95.9455 140,-67 142.674,-65.0899 145.552,-63.3622 148.545,-61.801"/>
<polygon fill="midnightblue" stroke="midnightblue" points="150.123,-64.9284 157.775,-57.6005 147.223,-58.5572 150.123,-64.9284"/>
</g>
<!-- Node11 -->
<g id="node11" class="node"><title>Node11</title>
<g id="a_node11"><a xlink:href="a00093.html#gacbe5fcf4c7e4919192376fa615588b54" target="_top" xlink:title="Returns the last data entered into the output FIFO. ">
<polygon fill="white" stroke="black" points="154.5,-0.5 154.5,-19.5 241.5,-19.5 241.5,-0.5 154.5,-0.5"/>
<text text-anchor="middle" x="198" y="-7.5" font-family="Helvetica,sans-Serif" font-size="10.00">CRYP_DataOut</text>
</a>
</g>
</g>
<!-- Node1&#45;&gt;Node11 -->
<g id="edge10" class="edge"><title>Node1&#45;&gt;Node11</title>
<path fill="none" stroke="midnightblue" d="M55.8689,-171.2C64.2201,-144.373 91.0766,-69.0786 140,-29 142.232,-27.1718 144.646,-25.5169 147.178,-24.0191"/>
<polygon fill="midnightblue" stroke="midnightblue" points="148.784,-27.1293 156.145,-19.5089 145.639,-20.8759 148.784,-27.1293"/>
</g>
</g>
</svg>
