<?xml version="1.0" encoding="UTF-8" standalone="no"?>
<!DOCTYPE svg PUBLIC "-//W3C//DTD SVG 1.1//EN"
 "http://www.w3.org/Graphics/SVG/1.1/DTD/svg11.dtd">
<!-- Generated by graphviz version 2.38.0 (20140413.2041)
 -->
<!-- Title: DCMI_Private_Functions Pages: 1 -->
<svg width="372pt" height="127pt"
 viewBox="0.00 0.00 372.00 127.00" xmlns="http://www.w3.org/2000/svg" xmlns:xlink="http://www.w3.org/1999/xlink">
<g id="graph0" class="graph" transform="scale(1 1) rotate(0) translate(4 123)">
<title>DCMI_Private_Functions</title>
<polygon fill="white" stroke="none" points="-4,4 -4,-123 368,-123 368,4 -4,4"/>
<!-- Node2 -->
<g id="node1" class="node"><title>Node2</title>
<g id="a_node1"><a xlink:href="a00995.html" target="_top" xlink:title="Initialization and Configuration functions. ">
<polygon fill="white" stroke="black" points="243,-88.5 243,-118.5 363,-118.5 363,-88.5 243,-88.5"/>
<text text-anchor="start" x="251" y="-106.5" font-family="Helvetica,sans-Serif" font-size="10.00">Initialization and</text>
<text text-anchor="middle" x="303" y="-95.5" font-family="Helvetica,sans-Serif" font-size="10.00"> Configuration functions</text>
</a>
</g>
</g>
<!-- Node3 -->
<g id="node2" class="node"><title>Node3</title>
<g id="a_node2"><a xlink:href="a00996.html" target="_top" xlink:title="Image capture functions. ">
<polygon fill="white" stroke="black" points="242,-50 242,-69 364,-69 364,-50 242,-50"/>
<text text-anchor="middle" x="303" y="-57" font-family="Helvetica,sans-Serif" font-size="10.00">Image capture functions</text>
</a>
</g>
</g>
<!-- Node4 -->
<g id="node3" class="node"><title>Node4</title>
<g id="a_node3"><a xlink:href="a00997.html" target="_top" xlink:title="Interrupts and flags management functions. ">
<polygon fill="white" stroke="black" points="243.5,-0.5 243.5,-30.5 362.5,-30.5 362.5,-0.5 243.5,-0.5"/>
<text text-anchor="start" x="251.5" y="-18.5" font-family="Helvetica,sans-Serif" font-size="10.00">Interrupts and flags</text>
<text text-anchor="middle" x="303" y="-7.5" font-family="Helvetica,sans-Serif" font-size="10.00"> management functions</text>
</a>
</g>
</g>
<!-- Node1 -->
<g id="node4" class="node"><title>Node1</title>
<g id="a_node4"><a xlink:href="a00096.html" target="_top" xlink:title="DCMI driver modules. ">
<polygon fill="white" stroke="black" points="0,-50 0,-69 43,-69 43,-50 0,-50"/>
<text text-anchor="middle" x="21.5" y="-57" font-family="Helvetica,sans-Serif" font-size="10.00">DCMI</text>
</a>
</g>
</g>
<!-- Node0 -->
<g id="node5" class="node"><title>Node0</title>
<polygon fill="#bfbfbf" stroke="black" points="79,-50 79,-69 206,-69 206,-50 79,-50"/>
<text text-anchor="middle" x="142.5" y="-57" font-family="Helvetica,sans-Serif" font-size="10.00">DCMI_Private_Functions</text>
</g>
<!-- Node1&#45;&gt;Node0 -->
<g id="edge1" class="edge"><title>Node1&#45;&gt;Node0</title>
<path fill="none" stroke="black" d="M53.3477,-59.5C61.2226,-59.5 69.9771,-59.5 78.8255,-59.5"/>
<polygon fill="black" stroke="black" points="53.2283,-56.0001 43.2282,-59.5 53.2282,-63.0001 53.2283,-56.0001"/>
</g>
<!-- Node0&#45;&gt;Node2 -->
<g id="edge2" class="edge"><title>Node0&#45;&gt;Node2</title>
<path fill="none" stroke="black" d="M187.592,-71.7402C206.228,-76.9134 228.116,-82.9897 247.73,-88.4346"/>
<polygon fill="black" stroke="black" points="188.464,-68.3498 177.892,-69.0473 186.592,-75.0948 188.464,-68.3498"/>
</g>
<!-- Node0&#45;&gt;Node3 -->
<g id="edge3" class="edge"><title>Node0&#45;&gt;Node3</title>
<path fill="none" stroke="black" d="M216.17,-59.5C224.772,-59.5 233.479,-59.5 241.88,-59.5"/>
<polygon fill="black" stroke="black" points="216.143,-56.0001 206.143,-59.5 216.143,-63.0001 216.143,-56.0001"/>
</g>
<!-- Node0&#45;&gt;Node4 -->
<g id="edge4" class="edge"><title>Node0&#45;&gt;Node4</title>
<path fill="none" stroke="black" d="M187.592,-47.2598C206.228,-42.0866 228.116,-36.0103 247.73,-30.5654"/>
<polygon fill="black" stroke="black" points="186.592,-43.9052 177.892,-49.9527 188.464,-50.6502 186.592,-43.9052"/>
</g>
</g>
</svg>
