<?xml version="1.0" encoding="UTF-8" standalone="no"?>
<!DOCTYPE svg PUBLIC "-//W3C//DTD SVG 1.1//EN"
 "http://www.w3.org/Graphics/SVG/1.1/DTD/svg11.dtd">
<!-- Generated by graphviz version 2.38.0 (20140413.2041)
 -->
<!-- Title: TIM_Exported_constants Pages: 1 -->
<svg width="398pt" height="2002pt"
 viewBox="0.00 0.00 398.00 2001.50" xmlns="http://www.w3.org/2000/svg" xmlns:xlink="http://www.w3.org/1999/xlink">
<g id="graph0" class="graph" transform="scale(1 1) rotate(0) translate(4 1997.5)">
<title>TIM_Exported_constants</title>
<polygon fill="white" stroke="none" points="-4,4 -4,-1997.5 394,-1997.5 394,4 -4,4"/>
<!-- Node21 -->
<g id="node1" class="node"><title>Node21</title>
<g id="a_node1"><a xlink:href="a01013.html" target="_top" xlink:title="TIM_Input_Capture_Polarity">
<polygon fill="white" stroke="black" points="241.5,-1974 241.5,-1993 380.5,-1993 380.5,-1974 241.5,-1974"/>
<text text-anchor="middle" x="311" y="-1981" font-family="Helvetica,sans-Serif" font-size="10.00">TIM_Input_Capture_Polarity</text>
</a>
</g>
</g>
<!-- Node25 -->
<g id="node2" class="node"><title>Node25</title>
<g id="a_node2"><a xlink:href="a01017.html" target="_top" xlink:title="TIM_DMA_Base_address">
<polygon fill="white" stroke="black" points="246.5,-1936 246.5,-1955 375.5,-1955 375.5,-1936 246.5,-1936"/>
<text text-anchor="middle" x="311" y="-1943" font-family="Helvetica,sans-Serif" font-size="10.00">TIM_DMA_Base_address</text>
</a>
</g>
</g>
<!-- Node17 -->
<g id="node3" class="node"><title>Node17</title>
<g id="a_node3"><a xlink:href="a01009.html" target="_top" xlink:title="TIM_OSSI_Off_State\l_Selection_for_Idle\l_mode_state">
<polygon fill="white" stroke="black" points="256,-1876 256,-1917 366,-1917 366,-1876 256,-1876"/>
<text text-anchor="start" x="264" y="-1905" font-family="Helvetica,sans-Serif" font-size="10.00">TIM_OSSI_Off_State</text>
<text text-anchor="start" x="264" y="-1894" font-family="Helvetica,sans-Serif" font-size="10.00">_Selection_for_Idle</text>
<text text-anchor="middle" x="311" y="-1883" font-family="Helvetica,sans-Serif" font-size="10.00">_mode_state</text>
</a>
</g>
</g>
<!-- Node23 -->
<g id="node4" class="node"><title>Node23</title>
<g id="a_node4"><a xlink:href="a01015.html" target="_top" xlink:title="TIM_Input_Capture_Prescaler">
<polygon fill="white" stroke="black" points="237.5,-1838 237.5,-1857 384.5,-1857 384.5,-1838 237.5,-1838"/>
<text text-anchor="middle" x="311" y="-1845" font-family="Helvetica,sans-Serif" font-size="10.00">TIM_Input_Capture_Prescaler</text>
</a>
</g>
</g>
<!-- Node18 -->
<g id="node5" class="node"><title>Node18</title>
<g id="a_node5"><a xlink:href="a01010.html" target="_top" xlink:title="TIM_OSSR_Off_State\l_Selection_for_Run_mode_state">
<polygon fill="white" stroke="black" points="232,-1788.5 232,-1818.5 390,-1818.5 390,-1788.5 232,-1788.5"/>
<text text-anchor="start" x="240" y="-1806.5" font-family="Helvetica,sans-Serif" font-size="10.00">TIM_OSSR_Off_State</text>
<text text-anchor="middle" x="311" y="-1795.5" font-family="Helvetica,sans-Serif" font-size="10.00">_Selection_for_Run_mode_state</text>
</a>
</g>
</g>
<!-- Node12 -->
<g id="node6" class="node"><title>Node12</title>
<g id="a_node6"><a xlink:href="a01004.html" target="_top" xlink:title="TIM_Capture_Compare\l_N_State">
<polygon fill="white" stroke="black" points="251.5,-1739.5 251.5,-1769.5 370.5,-1769.5 370.5,-1739.5 251.5,-1739.5"/>
<text text-anchor="start" x="259.5" y="-1757.5" font-family="Helvetica,sans-Serif" font-size="10.00">TIM_Capture_Compare</text>
<text text-anchor="middle" x="311" y="-1746.5" font-family="Helvetica,sans-Serif" font-size="10.00">_N_State</text>
</a>
</g>
</g>
<!-- Node7 -->
<g id="node7" class="node"><title>Node7</title>
<g id="a_node7"><a xlink:href="a00999.html" target="_top" xlink:title="TIM_Output_Compare\l_Polarity">
<polygon fill="white" stroke="black" points="254.5,-1690.5 254.5,-1720.5 367.5,-1720.5 367.5,-1690.5 254.5,-1690.5"/>
<text text-anchor="start" x="262.5" y="-1708.5" font-family="Helvetica,sans-Serif" font-size="10.00">TIM_Output_Compare</text>
<text text-anchor="middle" x="311" y="-1697.5" font-family="Helvetica,sans-Serif" font-size="10.00">_Polarity</text>
</a>
</g>
</g>
<!-- Node3 -->
<g id="node8" class="node"><title>Node3</title>
<g id="a_node8"><a xlink:href="a00995.html" target="_top" xlink:title="TIM_One_Pulse_Mode">
<polygon fill="white" stroke="black" points="253,-1652 253,-1671 369,-1671 369,-1652 253,-1652"/>
<text text-anchor="middle" x="311" y="-1659" font-family="Helvetica,sans-Serif" font-size="10.00">TIM_One_Pulse_Mode</text>
</a>
</g>
</g>
<!-- Node37 -->
<g id="node9" class="node"><title>Node37</title>
<g id="a_node9"><a xlink:href="a01029.html" target="_top" xlink:title="TIM_Output_Compare\l_Preload_State">
<polygon fill="white" stroke="black" points="254.5,-1602.5 254.5,-1632.5 367.5,-1632.5 367.5,-1602.5 254.5,-1602.5"/>
<text text-anchor="start" x="262.5" y="-1620.5" font-family="Helvetica,sans-Serif" font-size="10.00">TIM_Output_Compare</text>
<text text-anchor="middle" x="311" y="-1609.5" font-family="Helvetica,sans-Serif" font-size="10.00">_Preload_State</text>
</a>
</g>
</g>
<!-- Node14 -->
<g id="node10" class="node"><title>Node14</title>
<g id="a_node10"><a xlink:href="a01006.html" target="_top" xlink:title="TIM_Break_Polarity">
<polygon fill="white" stroke="black" points="259.5,-1564 259.5,-1583 362.5,-1583 362.5,-1564 259.5,-1564"/>
<text text-anchor="middle" x="311" y="-1571" font-family="Helvetica,sans-Serif" font-size="10.00">TIM_Break_Polarity</text>
</a>
</g>
</g>
<!-- Node41 -->
<g id="node11" class="node"><title>Node41</title>
<g id="a_node11"><a xlink:href="a01033.html" target="_top" xlink:title="TIM_Slave_Mode">
<polygon fill="white" stroke="black" points="264.5,-1526 264.5,-1545 357.5,-1545 357.5,-1526 264.5,-1526"/>
<text text-anchor="middle" x="311" y="-1533" font-family="Helvetica,sans-Serif" font-size="10.00">TIM_Slave_Mode</text>
</a>
</g>
</g>
<!-- Node30 -->
<g id="node12" class="node"><title>Node30</title>
<g id="a_node12"><a xlink:href="a01022.html" target="_top" xlink:title="TIM_TIx_External_Clock\l_Source">
<polygon fill="white" stroke="black" points="248.5,-1476.5 248.5,-1506.5 373.5,-1506.5 373.5,-1476.5 248.5,-1476.5"/>
<text text-anchor="start" x="256.5" y="-1494.5" font-family="Helvetica,sans-Serif" font-size="10.00">TIM_TIx_External_Clock</text>
<text text-anchor="middle" x="311" y="-1483.5" font-family="Helvetica,sans-Serif" font-size="10.00">_Source</text>
</a>
</g>
</g>
<!-- Node46 -->
<g id="node13" class="node"><title>Node46</title>
<g id="a_node13"><a xlink:href="a01038.html" target="_top" xlink:title="TIM_External_Trigger\l_Filter">
<polygon fill="white" stroke="black" points="256,-1427.5 256,-1457.5 366,-1457.5 366,-1427.5 256,-1427.5"/>
<text text-anchor="start" x="264" y="-1445.5" font-family="Helvetica,sans-Serif" font-size="10.00">TIM_External_Trigger</text>
<text text-anchor="middle" x="311" y="-1434.5" font-family="Helvetica,sans-Serif" font-size="10.00">_Filter</text>
</a>
</g>
</g>
<!-- Node22 -->
<g id="node14" class="node"><title>Node22</title>
<g id="a_node14"><a xlink:href="a01014.html" target="_top" xlink:title="TIM_Input_Capture_Selection">
<polygon fill="white" stroke="black" points="238,-1389 238,-1408 384,-1408 384,-1389 238,-1389"/>
<text text-anchor="middle" x="311" y="-1396" font-family="Helvetica,sans-Serif" font-size="10.00">TIM_Input_Capture_Selection</text>
</a>
</g>
</g>
<!-- Node4 -->
<g id="node15" class="node"><title>Node4</title>
<g id="a_node15"><a xlink:href="a00996.html" target="_top" xlink:title="TIM_Channel">
<polygon fill="white" stroke="black" points="273.5,-1351 273.5,-1370 348.5,-1370 348.5,-1351 273.5,-1351"/>
<text text-anchor="middle" x="311" y="-1358" font-family="Helvetica,sans-Serif" font-size="10.00">TIM_Channel</text>
</a>
</g>
</g>
<!-- Node19 -->
<g id="node16" class="node"><title>Node19</title>
<g id="a_node16"><a xlink:href="a01011.html" target="_top" xlink:title="TIM_Output_Compare\l_Idle_State">
<polygon fill="white" stroke="black" points="254.5,-1301.5 254.5,-1331.5 367.5,-1331.5 367.5,-1301.5 254.5,-1301.5"/>
<text text-anchor="start" x="262.5" y="-1319.5" font-family="Helvetica,sans-Serif" font-size="10.00">TIM_Output_Compare</text>
<text text-anchor="middle" x="311" y="-1308.5" font-family="Helvetica,sans-Serif" font-size="10.00">_Idle_State</text>
</a>
</g>
</g>
<!-- Node13 -->
<g id="node17" class="node"><title>Node13</title>
<g id="a_node17"><a xlink:href="a01005.html" target="_top" xlink:title="TIM_Break_Input_enable\l_disable">
<polygon fill="white" stroke="black" points="248.5,-1252.5 248.5,-1282.5 373.5,-1282.5 373.5,-1252.5 248.5,-1252.5"/>
<text text-anchor="start" x="256.5" y="-1270.5" font-family="Helvetica,sans-Serif" font-size="10.00">TIM_Break_Input_enable</text>
<text text-anchor="middle" x="311" y="-1259.5" font-family="Helvetica,sans-Serif" font-size="10.00">_disable</text>
</a>
</g>
</g>
<!-- Node33 -->
<g id="node18" class="node"><title>Node33</title>
<g id="a_node18"><a xlink:href="a01025.html" target="_top" xlink:title="TIM_Forced_Action">
<polygon fill="white" stroke="black" points="260,-1214 260,-1233 362,-1233 362,-1214 260,-1214"/>
<text text-anchor="middle" x="311" y="-1221" font-family="Helvetica,sans-Serif" font-size="10.00">TIM_Forced_Action</text>
</a>
</g>
</g>
<!-- Node5 -->
<g id="node19" class="node"><title>Node5</title>
<g id="a_node19"><a xlink:href="a00997.html" target="_top" xlink:title="TIM_Clock_Division_CKD">
<polygon fill="white" stroke="black" points="245,-1176 245,-1195 377,-1195 377,-1176 245,-1176"/>
<text text-anchor="middle" x="311" y="-1183" font-family="Helvetica,sans-Serif" font-size="10.00">TIM_Clock_Division_CKD</text>
</a>
</g>
</g>
<!-- Node27 -->
<g id="node20" class="node"><title>Node27</title>
<g id="a_node20"><a xlink:href="a01019.html" target="_top" xlink:title="TIM_DMA_sources">
<polygon fill="white" stroke="black" points="260.5,-1138 260.5,-1157 361.5,-1157 361.5,-1138 260.5,-1138"/>
<text text-anchor="middle" x="311" y="-1145" font-family="Helvetica,sans-Serif" font-size="10.00">TIM_DMA_sources</text>
</a>
</g>
</g>
<!-- Node10 -->
<g id="node21" class="node"><title>Node10</title>
<g id="a_node21"><a xlink:href="a01002.html" target="_top" xlink:title="TIM_Output_Compare\l_N_State">
<polygon fill="white" stroke="black" points="254.5,-1088.5 254.5,-1118.5 367.5,-1118.5 367.5,-1088.5 254.5,-1088.5"/>
<text text-anchor="start" x="262.5" y="-1106.5" font-family="Helvetica,sans-Serif" font-size="10.00">TIM_Output_Compare</text>
<text text-anchor="middle" x="311" y="-1095.5" font-family="Helvetica,sans-Serif" font-size="10.00">_N_State</text>
</a>
</g>
</g>
<!-- Node26 -->
<g id="node22" class="node"><title>Node26</title>
<g id="a_node22"><a xlink:href="a01018.html" target="_top" xlink:title="TIM_DMA_Burst_Length">
<polygon fill="white" stroke="black" points="248.5,-1050 248.5,-1069 373.5,-1069 373.5,-1050 248.5,-1050"/>
<text text-anchor="middle" x="311" y="-1057" font-family="Helvetica,sans-Serif" font-size="10.00">TIM_DMA_Burst_Length</text>
</a>
</g>
</g>
<!-- Node8 -->
<g id="node23" class="node"><title>Node8</title>
<g id="a_node23"><a xlink:href="a01000.html" target="_top" xlink:title="TIM_Output_Compare\l_N_Polarity">
<polygon fill="white" stroke="black" points="254.5,-1000.5 254.5,-1030.5 367.5,-1030.5 367.5,-1000.5 254.5,-1000.5"/>
<text text-anchor="start" x="262.5" y="-1018.5" font-family="Helvetica,sans-Serif" font-size="10.00">TIM_Output_Compare</text>
<text text-anchor="middle" x="311" y="-1007.5" font-family="Helvetica,sans-Serif" font-size="10.00">_N_Polarity</text>
</a>
</g>
</g>
<!-- Node1 -->
<g id="node24" class="node"><title>Node1</title>
<g id="a_node24"><a xlink:href="a00117.html" target="_top" xlink:title="TIM driver modules. ">
<polygon fill="white" stroke="black" points="0,-984 0,-1003 34,-1003 34,-984 0,-984"/>
<text text-anchor="middle" x="17" y="-991" font-family="Helvetica,sans-Serif" font-size="10.00">TIM</text>
</a>
</g>
</g>
<!-- Node0 -->
<g id="node25" class="node"><title>Node0</title>
<polygon fill="#bfbfbf" stroke="black" points="70,-984 70,-1003 196,-1003 196,-984 70,-984"/>
<text text-anchor="middle" x="133" y="-991" font-family="Helvetica,sans-Serif" font-size="10.00">TIM_Exported_constants</text>
</g>
<!-- Node1&#45;&gt;Node0 -->
<g id="edge1" class="edge"><title>Node1&#45;&gt;Node0</title>
<path fill="none" stroke="black" d="M44.4583,-993.5C52.187,-993.5 60.9788,-993.5 69.9388,-993.5"/>
<polygon fill="black" stroke="black" points="44.3335,-990 34.3334,-993.5 44.3334,-997 44.3335,-990"/>
</g>
<!-- Node0&#45;&gt;Node21 -->
<g id="edge21" class="edge"><title>Node0&#45;&gt;Node21</title>
<path fill="none" stroke="black" d="M134.65,-1013.44C139.124,-1145.41 167.144,-1889.99 232,-1964.5 235.294,-1968.28 239.204,-1971.38 243.492,-1973.91"/>
<polygon fill="black" stroke="black" points="138.14,-1013.08 134.308,-1003.2 131.144,-1013.31 138.14,-1013.08"/>
</g>
<!-- Node0&#45;&gt;Node25 -->
<g id="edge25" class="edge"><title>Node0&#45;&gt;Node25</title>
<path fill="none" stroke="black" d="M134.736,-1013.45C139.668,-1142.41 169.639,-1855.15 232,-1926.5 236.036,-1931.12 240.988,-1934.71 246.423,-1937.49"/>
<polygon fill="black" stroke="black" points="138.221,-1012.98 134.347,-1003.12 131.226,-1013.24 138.221,-1012.98"/>
</g>
<!-- Node0&#45;&gt;Node17 -->
<g id="edge17" class="edge"><title>Node0&#45;&gt;Node17</title>
<path fill="none" stroke="black" d="M134.995,-1013.21C141.37,-1136.3 177.922,-1796.49 232,-1866.5 238.12,-1874.42 246.607,-1880.25 255.741,-1884.55"/>
<polygon fill="black" stroke="black" points="138.48,-1012.82 134.473,-1003.01 131.489,-1013.18 138.48,-1012.82"/>
</g>
<!-- Node0&#45;&gt;Node23 -->
<g id="edge23" class="edge"><title>Node0&#45;&gt;Node23</title>
<path fill="none" stroke="black" d="M134.98,-1013.19C141.137,-1133.4 176.016,-1765.23 232,-1828.5 235.325,-1832.26 239.257,-1835.33 243.56,-1837.85"/>
<polygon fill="black" stroke="black" points="138.475,-1013 134.475,-1003.19 131.484,-1013.36 138.475,-1013"/>
</g>
<!-- Node0&#45;&gt;Node18 -->
<g id="edge18" class="edge"><title>Node0&#45;&gt;Node18</title>
<path fill="none" stroke="black" d="M133.67,-1013.29C132.237,-1123.29 130.613,-1658.68 232,-1779.5 234.823,-1782.86 238.107,-1785.77 241.697,-1788.27"/>
<polygon fill="black" stroke="black" points="137.174,-1013.06 133.821,-1003 130.175,-1012.95 137.174,-1013.06"/>
</g>
<!-- Node0&#45;&gt;Node12 -->
<g id="edge12" class="edge"><title>Node0&#45;&gt;Node12</title>
<path fill="none" stroke="black" d="M133.852,-1013.38C133.46,-1119.43 136.77,-1617.95 232,-1730.5 237.216,-1736.67 243.977,-1741.27 251.335,-1744.72"/>
<polygon fill="black" stroke="black" points="137.353,-1013.17 133.907,-1003.15 130.353,-1013.13 137.353,-1013.17"/>
</g>
<!-- Node0&#45;&gt;Node7 -->
<g id="edge7" class="edge"><title>Node0&#45;&gt;Node7</title>
<path fill="none" stroke="black" d="M134.089,-1013.6C134.941,-1115.68 143.692,-1575.9 232,-1680.5 237.963,-1687.56 245.926,-1692.65 254.49,-1696.31"/>
<polygon fill="black" stroke="black" points="137.588,-1013.41 134.022,-1003.44 130.588,-1013.46 137.588,-1013.41"/>
</g>
<!-- Node0&#45;&gt;Node3 -->
<g id="edge3" class="edge"><title>Node0&#45;&gt;Node3</title>
<path fill="none" stroke="black" d="M134.134,-1013.53C135.208,-1112.39 144.889,-1547.26 232,-1642.5 237.644,-1648.67 244.927,-1652.99 252.771,-1655.99"/>
<polygon fill="black" stroke="black" points="137.633,-1013.38 134.042,-1003.41 130.633,-1013.45 137.633,-1013.38"/>
</g>
<!-- Node0&#45;&gt;Node37 -->
<g id="edge37" class="edge"><title>Node0&#45;&gt;Node37</title>
<path fill="none" stroke="black" d="M134.535,-1013.04C137.463,-1105.97 154.398,-1502.47 232,-1592.5 237.942,-1599.39 245.788,-1604.4 254.215,-1608.04"/>
<polygon fill="black" stroke="black" points="138.033,-1012.93 134.238,-1003.04 131.036,-1013.14 138.033,-1012.93"/>
</g>
<!-- Node0&#45;&gt;Node14 -->
<g id="edge14" class="edge"><title>Node0&#45;&gt;Node14</title>
<path fill="none" stroke="black" d="M134.656,-1013.6C138.021,-1104.2 156.266,-1473.6 232,-1554.5 239.239,-1562.23 249.054,-1567.05 259.278,-1570"/>
<polygon fill="black" stroke="black" points="138.144,-1013.22 134.295,-1003.35 131.149,-1013.46 138.144,-1013.22"/>
</g>
<!-- Node0&#45;&gt;Node41 -->
<g id="edge41" class="edge"><title>Node0&#45;&gt;Node41</title>
<path fill="none" stroke="black" d="M134.919,-1013.33C139.324,-1099.64 161.072,-1441.66 232,-1516.5 240.437,-1525.4 252.29,-1530.43 264.214,-1533.19"/>
<polygon fill="black" stroke="black" points="138.403,-1012.91 134.419,-1003.1 131.412,-1013.25 138.403,-1012.91"/>
</g>
<!-- Node0&#45;&gt;Node30 -->
<g id="edge30" class="edge"><title>Node0&#45;&gt;Node30</title>
<path fill="none" stroke="black" d="M135.48,-1013.67C141.849,-1095.12 169.485,-1398.77 232,-1467.5 236.576,-1472.53 242.178,-1476.52 248.261,-1479.68"/>
<polygon fill="black" stroke="black" points="138.941,-1013.02 134.693,-1003.32 131.961,-1013.55 138.941,-1013.02"/>
</g>
<!-- Node0&#45;&gt;Node46 -->
<g id="edge46" class="edge"><title>Node0&#45;&gt;Node46</title>
<path fill="none" stroke="black" d="M135.96,-1012.95C143.878,-1087.85 175.795,-1356.42 232,-1417.5 238.452,-1424.51 246.869,-1429.56 255.781,-1433.2"/>
<polygon fill="black" stroke="black" points="139.442,-1012.59 134.931,-1003 132.479,-1013.31 139.442,-1012.59"/>
</g>
<!-- Node0&#45;&gt;Node22 -->
<g id="edge22" class="edge"><title>Node0&#45;&gt;Node22</title>
<path fill="none" stroke="black" d="M136.37,-1013.58C145.223,-1085.19 178.601,-1326.62 232,-1379.5 235.862,-1383.32 240.358,-1386.43 245.204,-1388.93"/>
<polygon fill="black" stroke="black" points="139.798,-1012.76 135.121,-1003.26 132.848,-1013.61 139.798,-1012.76"/>
</g>
<!-- Node0&#45;&gt;Node4 -->
<g id="edge4" class="edge"><title>Node0&#45;&gt;Node4</title>
<path fill="none" stroke="black" d="M133.185,-1013.51C131.925,-1072.86 136.73,-1249.56 232,-1341.5 242.932,-1352.05 258.695,-1357.06 273.194,-1359.34"/>
<polygon fill="black" stroke="black" points="136.691,-1013.36 133.493,-1003.26 129.694,-1013.15 136.691,-1013.36"/>
</g>
<!-- Node0&#45;&gt;Node19 -->
<g id="edge19" class="edge"><title>Node0&#45;&gt;Node19</title>
<path fill="none" stroke="black" d="M134.518,-1013.24C136.999,-1066.27 151.204,-1213.16 232,-1292.5 238.268,-1298.65 246.075,-1303.24 254.308,-1306.64"/>
<polygon fill="black" stroke="black" points="138.012,-1013.01 134.14,-1003.15 131.017,-1013.27 138.012,-1013.01"/>
</g>
<!-- Node0&#45;&gt;Node13 -->
<g id="edge13" class="edge"><title>Node0&#45;&gt;Node13</title>
<path fill="none" stroke="black" d="M136.074,-1013.28C142.03,-1060.02 163.421,-1178.23 232,-1242.5 236.773,-1246.97 242.349,-1250.65 248.285,-1253.66"/>
<polygon fill="black" stroke="black" points="139.538,-1012.77 134.898,-1003.24 132.586,-1013.58 139.538,-1012.77"/>
</g>
<!-- Node0&#45;&gt;Node33 -->
<g id="edge33" class="edge"><title>Node0&#45;&gt;Node33</title>
<path fill="none" stroke="black" d="M137.311,-1013.36C145.405,-1055.42 170.236,-1153.79 232,-1204.5 239.971,-1211.04 249.851,-1215.39 259.871,-1218.27"/>
<polygon fill="black" stroke="black" points="140.714,-1012.51 135.492,-1003.29 133.826,-1013.75 140.714,-1012.51"/>
</g>
<!-- Node0&#45;&gt;Node5 -->
<g id="edge5" class="edge"><title>Node0&#45;&gt;Node5</title>
<path fill="none" stroke="black" d="M139.377,-1012.97C150.4,-1049.11 179.091,-1126.51 232,-1166.5 237.115,-1170.37 242.91,-1173.46 248.976,-1175.92"/>
<polygon fill="black" stroke="black" points="142.677,-1011.78 136.516,-1003.16 135.958,-1013.74 142.677,-1011.78"/>
</g>
<!-- Node0&#45;&gt;Node27 -->
<g id="edge27" class="edge"><title>Node0&#45;&gt;Node27</title>
<path fill="none" stroke="black" d="M142.331,-1012.35C156.387,-1041.89 187.681,-1098.77 232,-1128.5 240.449,-1134.17 250.422,-1138.15 260.363,-1140.94"/>
<polygon fill="black" stroke="black" points="145.448,-1010.75 138.085,-1003.13 139.09,-1013.68 145.448,-1010.75"/>
</g>
<!-- Node0&#45;&gt;Node10 -->
<g id="edge10" class="edge"><title>Node0&#45;&gt;Node10</title>
<path fill="none" stroke="black" d="M149.371,-1010.45C167.454,-1029.46 199.193,-1060.05 232,-1078.5 238.941,-1082.4 246.578,-1085.8 254.273,-1088.71"/>
<polygon fill="black" stroke="black" points="151.875,-1008 142.494,-1003.08 146.757,-1012.78 151.875,-1008"/>
</g>
<!-- Node0&#45;&gt;Node26 -->
<g id="edge26" class="edge"><title>Node0&#45;&gt;Node26</title>
<path fill="none" stroke="black" d="M160.065,-1007.84C179.453,-1018.05 206.803,-1031.5 232,-1040.5 242.107,-1044.11 253.19,-1047.27 263.748,-1049.92"/>
<polygon fill="black" stroke="black" points="161.701,-1004.75 151.231,-1003.12 158.403,-1010.92 161.701,-1004.75"/>
</g>
<!-- Node0&#45;&gt;Node8 -->
<g id="edge8" class="edge"><title>Node0&#45;&gt;Node8</title>
<path fill="none" stroke="black" d="M205.986,-1002.5C222.128,-1004.52 239.015,-1006.63 254.373,-1008.55"/>
<polygon fill="black" stroke="black" points="206.408,-999.024 196.051,-1001.26 205.54,-1005.97 206.408,-999.024"/>
</g>
<!-- Node24 -->
<g id="node26" class="node"><title>Node24</title>
<g id="a_node26"><a xlink:href="a01016.html" target="_top" xlink:title="TIM_interrupt_sources">
<polygon fill="white" stroke="black" points="254,-962 254,-981 368,-981 368,-962 254,-962"/>
<text text-anchor="middle" x="311" y="-969" font-family="Helvetica,sans-Serif" font-size="10.00">TIM_interrupt_sources</text>
</a>
</g>
</g>
<!-- Node0&#45;&gt;Node24 -->
<g id="edge24" class="edge"><title>Node0&#45;&gt;Node24</title>
<path fill="none" stroke="black" d="M206.333,-984.458C222.167,-982.479 238.701,-980.412 253.793,-978.526"/>
<polygon fill="black" stroke="black" points="205.54,-981.03 196.051,-985.744 206.408,-987.976 205.54,-981.03"/>
</g>
<!-- Node42 -->
<g id="node27" class="node"><title>Node42</title>
<g id="a_node27"><a xlink:href="a01034.html" target="_top" xlink:title="TIM_Master_Slave_Mode">
<polygon fill="white" stroke="black" points="247,-924 247,-943 375,-943 375,-924 247,-924"/>
<text text-anchor="middle" x="311" y="-931" font-family="Helvetica,sans-Serif" font-size="10.00">TIM_Master_Slave_Mode</text>
</a>
</g>
</g>
<!-- Node0&#45;&gt;Node42 -->
<g id="edge42" class="edge"><title>Node0&#45;&gt;Node42</title>
<path fill="none" stroke="black" d="M163.429,-979.758C182.654,-971.139 208.468,-960.235 232,-952.5 242.725,-948.975 254.472,-945.778 265.52,-943.055"/>
<polygon fill="black" stroke="black" points="161.951,-976.585 154.291,-983.904 164.844,-982.959 161.951,-976.585"/>
</g>
<!-- Node28 -->
<g id="node28" class="node"><title>Node28</title>
<g id="a_node28"><a xlink:href="a01020.html" target="_top" xlink:title="TIM_External_Trigger\l_Prescaler">
<polygon fill="white" stroke="black" points="256,-874.5 256,-904.5 366,-904.5 366,-874.5 256,-874.5"/>
<text text-anchor="start" x="264" y="-892.5" font-family="Helvetica,sans-Serif" font-size="10.00">TIM_External_Trigger</text>
<text text-anchor="middle" x="311" y="-881.5" font-family="Helvetica,sans-Serif" font-size="10.00">_Prescaler</text>
</a>
</g>
</g>
<!-- Node0&#45;&gt;Node28 -->
<g id="edge28" class="edge"><title>Node0&#45;&gt;Node28</title>
<path fill="none" stroke="black" d="M150.728,-976.737C169.194,-959.064 200.495,-931.479 232,-914.5 239.386,-910.52 247.51,-907.046 255.64,-904.057"/>
<polygon fill="black" stroke="black" points="148.133,-974.379 143.415,-983.865 153.019,-979.392 148.133,-974.379"/>
</g>
<!-- Node11 -->
<g id="node29" class="node"><title>Node11</title>
<g id="a_node29"><a xlink:href="a01003.html" target="_top" xlink:title="TIM_Capture_Compare\l_State">
<polygon fill="white" stroke="black" points="251.5,-825.5 251.5,-855.5 370.5,-855.5 370.5,-825.5 251.5,-825.5"/>
<text text-anchor="start" x="259.5" y="-843.5" font-family="Helvetica,sans-Serif" font-size="10.00">TIM_Capture_Compare</text>
<text text-anchor="middle" x="311" y="-832.5" font-family="Helvetica,sans-Serif" font-size="10.00">_State</text>
</a>
</g>
</g>
<!-- Node0&#45;&gt;Node11 -->
<g id="edge11" class="edge"><title>Node0&#45;&gt;Node11</title>
<path fill="none" stroke="black" d="M143.39,-974.599C158.318,-946.468 190.11,-893.766 232,-864.5 237.923,-860.362 244.582,-856.92 251.449,-854.061"/>
<polygon fill="black" stroke="black" points="140.137,-973.27 138.666,-983.762 146.359,-976.478 140.137,-973.27"/>
</g>
<!-- Node39 -->
<g id="node30" class="node"><title>Node39</title>
<g id="a_node30"><a xlink:href="a01031.html" target="_top" xlink:title="TIM_Output_Compare\l_Clear_State">
<polygon fill="white" stroke="black" points="254.5,-776.5 254.5,-806.5 367.5,-806.5 367.5,-776.5 254.5,-776.5"/>
<text text-anchor="start" x="262.5" y="-794.5" font-family="Helvetica,sans-Serif" font-size="10.00">TIM_Output_Compare</text>
<text text-anchor="middle" x="311" y="-783.5" font-family="Helvetica,sans-Serif" font-size="10.00">_Clear_State</text>
</a>
</g>
</g>
<!-- Node0&#45;&gt;Node39 -->
<g id="edge39" class="edge"><title>Node0&#45;&gt;Node39</title>
<path fill="none" stroke="black" d="M139.44,-973.774C150.569,-937.101 179.428,-858.275 232,-815.5 238.594,-810.135 246.382,-805.966 254.441,-802.728"/>
<polygon fill="black" stroke="black" points="135.981,-973.136 136.549,-983.716 142.702,-975.091 135.981,-973.136"/>
</g>
<!-- Node29 -->
<g id="node31" class="node"><title>Node29</title>
<g id="a_node31"><a xlink:href="a01021.html" target="_top" xlink:title="TIM_Internal_Trigger\l_Selection">
<polygon fill="white" stroke="black" points="257.5,-727.5 257.5,-757.5 364.5,-757.5 364.5,-727.5 257.5,-727.5"/>
<text text-anchor="start" x="265.5" y="-745.5" font-family="Helvetica,sans-Serif" font-size="10.00">TIM_Internal_Trigger</text>
<text text-anchor="middle" x="311" y="-734.5" font-family="Helvetica,sans-Serif" font-size="10.00">_Selection</text>
</a>
</g>
</g>
<!-- Node0&#45;&gt;Node29 -->
<g id="edge29" class="edge"><title>Node0&#45;&gt;Node29</title>
<path fill="none" stroke="black" d="M136.882,-973.644C144.309,-929.721 168.197,-823.699 232,-766.5 239.174,-760.069 248.04,-755.361 257.193,-751.914"/>
<polygon fill="black" stroke="black" points="133.408,-973.205 135.301,-983.629 140.322,-974.3 133.408,-973.205"/>
</g>
<!-- Node6 -->
<g id="node32" class="node"><title>Node6</title>
<g id="a_node32"><a xlink:href="a00998.html" target="_top" xlink:title="TIM_Counter_Mode">
<polygon fill="white" stroke="black" points="259.5,-689 259.5,-708 362.5,-708 362.5,-689 259.5,-689"/>
<text text-anchor="middle" x="311" y="-696" font-family="Helvetica,sans-Serif" font-size="10.00">TIM_Counter_Mode</text>
</a>
</g>
</g>
<!-- Node0&#45;&gt;Node6 -->
<g id="edge6" class="edge"><title>Node0&#45;&gt;Node6</title>
<path fill="none" stroke="black" d="M134.881,-973.685C138.249,-922.963 154.436,-787.512 232,-717.5 239.656,-710.589 249.404,-706.086 259.393,-703.176"/>
<polygon fill="black" stroke="black" points="131.372,-973.744 134.305,-983.925 138.361,-974.138 131.372,-973.744"/>
</g>
<!-- Node20 -->
<g id="node33" class="node"><title>Node20</title>
<g id="a_node33"><a xlink:href="a01012.html" target="_top" xlink:title="TIM_Output_Compare\l_N_Idle_State">
<polygon fill="white" stroke="black" points="254.5,-639.5 254.5,-669.5 367.5,-669.5 367.5,-639.5 254.5,-639.5"/>
<text text-anchor="start" x="262.5" y="-657.5" font-family="Helvetica,sans-Serif" font-size="10.00">TIM_Output_Compare</text>
<text text-anchor="middle" x="311" y="-646.5" font-family="Helvetica,sans-Serif" font-size="10.00">_N_Idle_State</text>
</a>
</g>
</g>
<!-- Node0&#45;&gt;Node20 -->
<g id="edge20" class="edge"><title>Node0&#45;&gt;Node20</title>
<path fill="none" stroke="black" d="M134.203,-973.934C135.85,-919.385 148.065,-764.08 232,-679.5 238.21,-673.242 245.988,-668.549 254.209,-665.03"/>
<polygon fill="black" stroke="black" points="130.703,-973.911 133.99,-983.983 137.702,-974.06 130.703,-973.911"/>
</g>
<!-- Node2 -->
<g id="node34" class="node"><title>Node2</title>
<g id="a_node34"><a xlink:href="a00994.html" target="_top" xlink:title="TIM_Output_Compare\l_and_PWM_modes">
<polygon fill="white" stroke="black" points="254.5,-590.5 254.5,-620.5 367.5,-620.5 367.5,-590.5 254.5,-590.5"/>
<text text-anchor="start" x="262.5" y="-608.5" font-family="Helvetica,sans-Serif" font-size="10.00">TIM_Output_Compare</text>
<text text-anchor="middle" x="311" y="-597.5" font-family="Helvetica,sans-Serif" font-size="10.00">_and_PWM_modes</text>
</a>
</g>
</g>
<!-- Node0&#45;&gt;Node2 -->
<g id="edge2" class="edge"><title>Node0&#45;&gt;Node2</title>
<path fill="none" stroke="black" d="M136.835,-973.346C146.893,-904.538 182.916,-680.359 232,-629.5 238.199,-623.077 246.07,-618.362 254.416,-614.903"/>
<polygon fill="black" stroke="black" points="133.31,-973.268 135.352,-983.664 140.239,-974.263 133.31,-973.268"/>
</g>
<!-- Node36 -->
<g id="node35" class="node"><title>Node36</title>
<g id="a_node35"><a xlink:href="a01028.html" target="_top" xlink:title="TIM_Update_Source">
<polygon fill="white" stroke="black" points="257.5,-552 257.5,-571 364.5,-571 364.5,-552 257.5,-552"/>
<text text-anchor="middle" x="311" y="-559" font-family="Helvetica,sans-Serif" font-size="10.00">TIM_Update_Source</text>
</a>
</g>
</g>
<!-- Node0&#45;&gt;Node36 -->
<g id="edge36" class="edge"><title>Node0&#45;&gt;Node36</title>
<path fill="none" stroke="black" d="M136.007,-973.489C143.895,-898.797 175.165,-637.675 232,-580.5 238.878,-573.581 247.827,-569.025 257.199,-566.057"/>
<polygon fill="black" stroke="black" points="132.486,-973.509 134.941,-983.816 139.449,-974.228 132.486,-973.509"/>
</g>
<!-- Node47 -->
<g id="node36" class="node"><title>Node47</title>
<g id="a_node36"><a xlink:href="a01039.html" target="_top" xlink:title="TIM_Legacy">
<polygon fill="white" stroke="black" points="275.5,-514 275.5,-533 346.5,-533 346.5,-514 275.5,-514"/>
<text text-anchor="middle" x="311" y="-521" font-family="Helvetica,sans-Serif" font-size="10.00">TIM_Legacy</text>
</a>
</g>
</g>
<!-- Node0&#45;&gt;Node47 -->
<g id="edge47" class="edge"><title>Node0&#45;&gt;Node47</title>
<path fill="none" stroke="black" d="M135.559,-973.695C142.151,-895.019 170.278,-605.782 232,-542.5 243.191,-531.026 260.068,-526.026 275.264,-524"/>
<polygon fill="black" stroke="black" points="132.066,-973.471 134.742,-983.723 139.043,-974.04 132.066,-973.471"/>
</g>
<!-- Node34 -->
<g id="node37" class="node"><title>Node34</title>
<g id="a_node37"><a xlink:href="a01026.html" target="_top" xlink:title="TIM_Encoder_Mode">
<polygon fill="white" stroke="black" points="259,-476 259,-495 363,-495 363,-476 259,-476"/>
<text text-anchor="middle" x="311" y="-483" font-family="Helvetica,sans-Serif" font-size="10.00">TIM_Encoder_Mode</text>
</a>
</g>
</g>
<!-- Node0&#45;&gt;Node34 -->
<g id="edge34" class="edge"><title>Node0&#45;&gt;Node34</title>
<path fill="none" stroke="black" d="M135.201,-973.646C140.614,-890.813 165.437,-573.86 232,-504.5 239.141,-497.059 248.672,-492.332 258.613,-489.372"/>
<polygon fill="black" stroke="black" points="131.702,-973.53 134.564,-983.73 138.688,-973.971 131.702,-973.53"/>
</g>
<!-- Node15 -->
<g id="node38" class="node"><title>Node15</title>
<g id="a_node38"><a xlink:href="a01007.html" target="_top" xlink:title="TIM_AOE_Bit_Set_Reset">
<polygon fill="white" stroke="black" points="246.5,-438 246.5,-457 375.5,-457 375.5,-438 246.5,-438"/>
<text text-anchor="middle" x="311" y="-445" font-family="Helvetica,sans-Serif" font-size="10.00">TIM_AOE_Bit_Set_Reset</text>
</a>
</g>
</g>
<!-- Node0&#45;&gt;Node15 -->
<g id="edge15" class="edge"><title>Node0&#45;&gt;Node15</title>
<path fill="none" stroke="black" d="M134.883,-973.789C139.16,-887.261 160.527,-542.022 232,-466.5 236.12,-462.147 241.056,-458.72 246.418,-456.032"/>
<polygon fill="black" stroke="black" points="131.384,-973.677 134.407,-983.832 138.377,-974.008 131.384,-973.677"/>
</g>
<!-- Node35 -->
<g id="node39" class="node"><title>Node35</title>
<g id="a_node39"><a xlink:href="a01027.html" target="_top" xlink:title="TIM_Event_Source">
<polygon fill="white" stroke="black" points="260.5,-400 260.5,-419 361.5,-419 361.5,-400 260.5,-400"/>
<text text-anchor="middle" x="311" y="-407" font-family="Helvetica,sans-Serif" font-size="10.00">TIM_Event_Source</text>
</a>
</g>
</g>
<!-- Node0&#45;&gt;Node35 -->
<g id="edge35" class="edge"><title>Node0&#45;&gt;Node35</title>
<path fill="none" stroke="black" d="M134.624,-973.531C137.867,-882.775 155.713,-510.094 232,-428.5 239.52,-420.457 249.826,-415.569 260.484,-412.654"/>
<polygon fill="black" stroke="black" points="131.124,-973.472 134.284,-983.584 138.12,-973.708 131.124,-973.472"/>
</g>
<!-- Node32 -->
<g id="node40" class="node"><title>Node32</title>
<g id="a_node40"><a xlink:href="a01024.html" target="_top" xlink:title="TIM_Prescaler_Reload_Mode">
<polygon fill="white" stroke="black" points="238,-362 238,-381 384,-381 384,-362 238,-362"/>
<text text-anchor="middle" x="311" y="-369" font-family="Helvetica,sans-Serif" font-size="10.00">TIM_Prescaler_Reload_Mode</text>
</a>
</g>
</g>
<!-- Node0&#45;&gt;Node32 -->
<g id="edge32" class="edge"><title>Node0&#45;&gt;Node32</title>
<path fill="none" stroke="black" d="M134.381,-973.714C136.599,-879.616 150.762,-478.319 232,-390.5 235.502,-386.714 239.621,-383.626 244.105,-381.113"/>
<polygon fill="black" stroke="black" points="130.879,-973.766 134.162,-983.84 137.878,-973.918 130.879,-973.766"/>
</g>
<!-- Node16 -->
<g id="node41" class="node"><title>Node16</title>
<g id="a_node41"><a xlink:href="a01008.html" target="_top" xlink:title="TIM_Lock_level">
<polygon fill="white" stroke="black" points="268,-324 268,-343 354,-343 354,-324 268,-324"/>
<text text-anchor="middle" x="311" y="-331" font-family="Helvetica,sans-Serif" font-size="10.00">TIM_Lock_level</text>
</a>
</g>
</g>
<!-- Node0&#45;&gt;Node16 -->
<g id="edge16" class="edge"><title>Node0&#45;&gt;Node16</title>
<path fill="none" stroke="black" d="M134.176,-973.412C135.451,-875.19 145.94,-446.414 232,-352.5 241.134,-342.533 254.544,-337.391 267.679,-334.849"/>
<polygon fill="black" stroke="black" points="130.673,-973.669 134.062,-983.707 137.673,-973.747 130.673,-973.669"/>
</g>
<!-- Node45 -->
<g id="node42" class="node"><title>Node45</title>
<g id="a_node42"><a xlink:href="a01037.html" target="_top" xlink:title="TIM_Input_Capture_Filer\l_Value">
<polygon fill="white" stroke="black" points="248.5,-274.5 248.5,-304.5 373.5,-304.5 373.5,-274.5 248.5,-274.5"/>
<text text-anchor="start" x="256.5" y="-292.5" font-family="Helvetica,sans-Serif" font-size="10.00">TIM_Input_Capture_Filer</text>
<text text-anchor="middle" x="311" y="-281.5" font-family="Helvetica,sans-Serif" font-size="10.00">_Value</text>
</a>
</g>
</g>
<!-- Node0&#45;&gt;Node45 -->
<g id="edge45" class="edge"><title>Node0&#45;&gt;Node45</title>
<path fill="none" stroke="black" d="M134.124,-973.632C135.148,-872.732 144.615,-417.83 232,-314.5 236.499,-309.18 242.134,-304.98 248.304,-301.667"/>
<polygon fill="black" stroke="black" points="130.624,-973.65 134.039,-983.68 137.624,-973.71 130.624,-973.65"/>
</g>
<!-- Node40 -->
<g id="node43" class="node"><title>Node40</title>
<g id="a_node43"><a xlink:href="a01032.html" target="_top" xlink:title="TIM_Trigger_Output\l_Source">
<polygon fill="white" stroke="black" points="259,-225.5 259,-255.5 363,-255.5 363,-225.5 259,-225.5"/>
<text text-anchor="start" x="267" y="-243.5" font-family="Helvetica,sans-Serif" font-size="10.00">TIM_Trigger_Output</text>
<text text-anchor="middle" x="311" y="-232.5" font-family="Helvetica,sans-Serif" font-size="10.00">_Source</text>
</a>
</g>
</g>
<!-- Node0&#45;&gt;Node40 -->
<g id="edge40" class="edge"><title>Node0&#45;&gt;Node40</title>
<path fill="none" stroke="black" d="M133.884,-973.837C133.662,-868.931 137.706,-375.779 232,-264.5 238.961,-256.285 248.664,-250.832 258.866,-247.226"/>
<polygon fill="black" stroke="black" points="130.385,-973.97 133.923,-983.957 137.385,-973.944 130.385,-973.97"/>
</g>
<!-- Node31 -->
<g id="node44" class="node"><title>Node31</title>
<g id="a_node44"><a xlink:href="a01023.html" target="_top" xlink:title="TIM_External_Trigger\l_Polarity">
<polygon fill="white" stroke="black" points="256,-176.5 256,-206.5 366,-206.5 366,-176.5 256,-176.5"/>
<text text-anchor="start" x="264" y="-194.5" font-family="Helvetica,sans-Serif" font-size="10.00">TIM_External_Trigger</text>
<text text-anchor="middle" x="311" y="-183.5" font-family="Helvetica,sans-Serif" font-size="10.00">_Polarity</text>
</a>
</g>
</g>
<!-- Node0&#45;&gt;Node31 -->
<g id="edge31" class="edge"><title>Node0&#45;&gt;Node31</title>
<path fill="none" stroke="black" d="M133.697,-973.562C132.431,-863.913 131.659,-334.92 232,-215.5 238.198,-208.124 246.606,-202.973 255.614,-199.385"/>
<polygon fill="black" stroke="black" points="130.2,-973.884 133.832,-983.837 137.2,-973.792 130.2,-973.884"/>
</g>
<!-- Node44 -->
<g id="node45" class="node"><title>Node44</title>
<g id="a_node45"><a xlink:href="a01036.html" target="_top" xlink:title="TIM_Flags">
<polygon fill="white" stroke="black" points="279.5,-138 279.5,-157 342.5,-157 342.5,-138 279.5,-138"/>
<text text-anchor="middle" x="311" y="-145" font-family="Helvetica,sans-Serif" font-size="10.00">TIM_Flags</text>
</a>
</g>
</g>
<!-- Node0&#45;&gt;Node44 -->
<g id="edge44" class="edge"><title>Node0&#45;&gt;Node44</title>
<path fill="none" stroke="black" d="M135.013,-973.634C141.302,-853.678 176.566,-229.082 232,-166.5 243.737,-153.25 263.025,-148.47 279.484,-147.018"/>
<polygon fill="black" stroke="black" points="131.503,-973.732 134.481,-983.899 138.494,-974.094 131.503,-973.732"/>
</g>
<!-- Node38 -->
<g id="node46" class="node"><title>Node38</title>
<g id="a_node46"><a xlink:href="a01030.html" target="_top" xlink:title="TIM_Output_Compare\l_Fast_State">
<polygon fill="white" stroke="black" points="254.5,-88.5 254.5,-118.5 367.5,-118.5 367.5,-88.5 254.5,-88.5"/>
<text text-anchor="start" x="262.5" y="-106.5" font-family="Helvetica,sans-Serif" font-size="10.00">TIM_Output_Compare</text>
<text text-anchor="middle" x="311" y="-95.5" font-family="Helvetica,sans-Serif" font-size="10.00">_Fast_State</text>
</a>
</g>
</g>
<!-- Node0&#45;&gt;Node38 -->
<g id="edge38" class="edge"><title>Node0&#45;&gt;Node38</title>
<path fill="none" stroke="black" d="M134.975,-973.545C141.162,-850.346 176.479,-196.222 232,-128.5 237.86,-121.352 245.773,-116.222 254.318,-112.546"/>
<polygon fill="black" stroke="black" points="131.468,-973.612 134.468,-983.773 138.459,-973.959 131.468,-973.612"/>
</g>
<!-- Node43 -->
<g id="node47" class="node"><title>Node43</title>
<g id="a_node47"><a xlink:href="a01035.html" target="_top" xlink:title="TIM_Remap">
<polygon fill="white" stroke="black" points="275.5,-50 275.5,-69 346.5,-69 346.5,-50 275.5,-50"/>
<text text-anchor="middle" x="311" y="-57" font-family="Helvetica,sans-Serif" font-size="10.00">TIM_Remap</text>
</a>
</g>
</g>
<!-- Node0&#45;&gt;Node43 -->
<g id="edge43" class="edge"><title>Node0&#45;&gt;Node43</title>
<path fill="none" stroke="black" d="M134.78,-973.537C139.936,-845.999 170.821,-148.356 232,-78.5 242.744,-66.2325 259.959,-61.2096 275.487,-59.3717"/>
<polygon fill="black" stroke="black" points="131.273,-973.647 134.372,-983.778 138.267,-973.926 131.273,-973.647"/>
</g>
<!-- Node9 -->
<g id="node48" class="node"><title>Node9</title>
<g id="a_node48"><a xlink:href="a01001.html" target="_top" xlink:title="TIM_Output_Compare\l_State">
<polygon fill="white" stroke="black" points="254.5,-0.5 254.5,-30.5 367.5,-30.5 367.5,-0.5 254.5,-0.5"/>
<text text-anchor="start" x="262.5" y="-18.5" font-family="Helvetica,sans-Serif" font-size="10.00">TIM_Output_Compare</text>
<text text-anchor="middle" x="311" y="-7.5" font-family="Helvetica,sans-Serif" font-size="10.00">_State</text>
</a>
</g>
</g>
<!-- Node0&#45;&gt;Node9 -->
<g id="edge9" class="edge"><title>Node0&#45;&gt;Node9</title>
<path fill="none" stroke="black" d="M134.755,-973.574C139.859,-843.275 170.972,-115.729 232,-40.5 237.823,-33.3218 245.718,-28.1771 254.257,-24.496"/>
<polygon fill="black" stroke="black" points="131.252,-973.578 134.364,-983.706 138.247,-973.848 131.252,-973.578"/>
</g>
</g>
</svg>
