<?xml version="1.0" encoding="UTF-8" standalone="no"?>
<!DOCTYPE svg PUBLIC "-//W3C//DTD SVG 1.1//EN"
 "http://www.w3.org/Graphics/SVG/1.1/DTD/svg11.dtd">
<!-- Generated by graphviz version 2.38.0 (20140413.2041)
 -->
<!-- Title: DAC_Private_Functions Pages: 1 -->
<svg width="381pt" height="116pt"
 viewBox="0.00 0.00 381.00 115.50" xmlns="http://www.w3.org/2000/svg" xmlns:xlink="http://www.w3.org/1999/xlink">
<g id="graph0" class="graph" transform="scale(1 1) rotate(0) translate(4 111.5)">
<title>DAC_Private_Functions</title>
<polygon fill="white" stroke="none" points="-4,4 -4,-111.5 377,-111.5 377,4 -4,4"/>
<!-- Node0 -->
<g id="node1" class="node"><title>Node0</title>
<polygon fill="#bfbfbf" stroke="black" points="74,-50 74,-69 196,-69 196,-50 74,-50"/>
<text text-anchor="middle" x="135" y="-57" font-family="Helvetica,sans-Serif" font-size="10.00">DAC_Private_Functions</text>
</g>
<!-- Node2 -->
<g id="node3" class="node"><title>Node2</title>
<g id="a_node3"><a xlink:href="a00989.html" target="_top" xlink:title="DAC channels configuration: trigger, output buffer, data format. ">
<polygon fill="white" stroke="black" points="233,-88 233,-107 372,-107 372,-88 233,-88"/>
<text text-anchor="middle" x="302.5" y="-95" font-family="Helvetica,sans-Serif" font-size="10.00">DAC channels configuration</text>
</a>
</g>
</g>
<!-- Node0&#45;&gt;Node2 -->
<g id="edge2" class="edge"><title>Node0&#45;&gt;Node2</title>
<path fill="none" stroke="black" d="M187.811,-71.3961C211.073,-76.7374 238.147,-82.9537 260.038,-87.9799"/>
<polygon fill="black" stroke="black" points="188.292,-67.9157 177.763,-69.089 186.726,-74.7382 188.292,-67.9157"/>
</g>
<!-- Node3 -->
<g id="node4" class="node"><title>Node3</title>
<g id="a_node4"><a xlink:href="a00990.html" target="_top" xlink:title="DMA management functions. ">
<polygon fill="white" stroke="black" points="232,-50 232,-69 373,-69 373,-50 232,-50"/>
<text text-anchor="middle" x="302.5" y="-57" font-family="Helvetica,sans-Serif" font-size="10.00">DMA management functions</text>
</a>
</g>
</g>
<!-- Node0&#45;&gt;Node3 -->
<g id="edge3" class="edge"><title>Node0&#45;&gt;Node3</title>
<path fill="none" stroke="black" d="M206.371,-59.5C214.786,-59.5 223.375,-59.5 231.781,-59.5"/>
<polygon fill="black" stroke="black" points="206.218,-56.0001 196.217,-59.5 206.217,-63.0001 206.218,-56.0001"/>
</g>
<!-- Node4 -->
<g id="node5" class="node"><title>Node4</title>
<g id="a_node5"><a xlink:href="a00991.html" target="_top" xlink:title="Interrupts and flags management functions. ">
<polygon fill="white" stroke="black" points="243,-0.5 243,-30.5 362,-30.5 362,-0.5 243,-0.5"/>
<text text-anchor="start" x="251" y="-18.5" font-family="Helvetica,sans-Serif" font-size="10.00">Interrupts and flags</text>
<text text-anchor="middle" x="302.5" y="-7.5" font-family="Helvetica,sans-Serif" font-size="10.00"> management functions</text>
</a>
</g>
</g>
<!-- Node0&#45;&gt;Node4 -->
<g id="edge4" class="edge"><title>Node0&#45;&gt;Node4</title>
<path fill="none" stroke="black" d="M181.771,-47.3313C201.287,-42.1426 224.259,-36.0354 244.834,-30.5654"/>
<polygon fill="black" stroke="black" points="180.676,-44.0007 171.911,-49.9527 182.475,-50.7657 180.676,-44.0007"/>
</g>
<!-- Node1 -->
<g id="node2" class="node"><title>Node1</title>
<g id="a_node2"><a xlink:href="a00094.html" target="_top" xlink:title="DAC driver modules. ">
<polygon fill="white" stroke="black" points="0,-50 0,-69 38,-69 38,-50 0,-50"/>
<text text-anchor="middle" x="19" y="-57" font-family="Helvetica,sans-Serif" font-size="10.00">DAC</text>
</a>
</g>
</g>
<!-- Node1&#45;&gt;Node0 -->
<g id="edge1" class="edge"><title>Node1&#45;&gt;Node0</title>
<path fill="none" stroke="black" d="M48.2908,-59.5C56.0387,-59.5 64.7444,-59.5 73.5603,-59.5"/>
<polygon fill="black" stroke="black" points="48.0637,-56.0001 38.0636,-59.5 48.0636,-63.0001 48.0637,-56.0001"/>
</g>
</g>
</svg>
