<?xml version="1.0" encoding="UTF-8" standalone="no"?>
<!DOCTYPE svg PUBLIC "-//W3C//DTD SVG 1.1//EN"
 "http://www.w3.org/Graphics/SVG/1.1/DTD/svg11.dtd">
<!-- Generated by graphviz version 2.38.0 (20140413.2041)
 -->
<!-- Title: USART_Exported_Constants Pages: 1 -->
<!--zoomable 584 -->
<svg id="main" version="1.1" xmlns="http://www.w3.org/2000/svg" xmlns:xlink="http://www.w3.org/1999/xlink" xml:space="preserve" onload="init(evt)">
<style type="text/css"><![CDATA[
.edge:hover path { stroke: red; }
.edge:hover polygon { stroke: red; fill: red; }
]]></style>
<script type="text/javascript"><![CDATA[
var edges = document.getElementsByTagName('g');
if (edges && edges.length) {
  for (var i=0;i<edges.length;i++) {
    if (edges[i].id.substr(0,4)=='edge') {
      edges[i].setAttribute('class','edge');
    }
  }
}
]]></script>
        <defs>
                <circle id="rim" cx="0" cy="0" r="7"/>
                <circle id="rim2" cx="0" cy="0" r="3.5"/>
                <g id="zoomPlus">
                        <use xlink:href="#rim" fill="#404040">
                                <set attributeName="fill" to="#808080" begin="zoomplus.mouseover" end="zoomplus.mouseout"/>
                        </use>
                        <path d="M-4,0h8M0,-4v8" fill="none" stroke="white" stroke-width="1.5" pointer-events="none"/>
                </g>
                <g id="zoomMin">
                        <use xlink:href="#rim" fill="#404040">
                                <set attributeName="fill" to="#808080" begin="zoomminus.mouseover" end="zoomminus.mouseout"/>
                        </use>
                        <path d="M-4,0h8" fill="none" stroke="white" stroke-width="1.5" pointer-events="none"/>
                </g>
                <g id="dirArrow">
                        <path fill="none" stroke="white" stroke-width="1.5" d="M0,-3.0v7 M-2.5,-0.5L0,-3.0L2.5,-0.5"/>
                </g>
               <g id="resetDef">
                       <use xlink:href="#rim2" fill="#404040">
                               <set attributeName="fill" to="#808080" begin="reset.mouseover" end="reset.mouseout"/>
                       </use>
               </g>
        </defs>

<script type="text/javascript">
var viewWidth = 427;
var viewHeight = 584;
var sectionId = 'dynsection-0';
</script>
<script xlink:href="svgpan.js"/>
<svg id="graph" class="graph">
<g id="viewport">
<title>USART_Exported_Constants</title>
<polygon fill="white" stroke="none" points="-4,4 -4,-580 423,-580 423,4 -4,4"/>
<!-- Node8 -->
<g id="node1" class="node"><title>Node8</title>
<g id="a_node1"><a xlink:href="a00949.html" target="_top" xlink:title="USART_Clock_Polarity">
<polygon fill="white" stroke="black" points="284,-556.5 284,-575.5 404,-575.5 404,-556.5 284,-556.5"/>
<text text-anchor="middle" x="344" y="-563.5" font-family="Helvetica,sans-Serif" font-size="10.00">USART_Clock_Polarity</text>
</a>
</g>
</g>
<!-- Node5 -->
<g id="node2" class="node"><title>Node5</title>
<g id="a_node2"><a xlink:href="a00946.html" target="_top" xlink:title="USART_Mode">
<polygon fill="white" stroke="black" points="304,-518.5 304,-537.5 384,-537.5 384,-518.5 304,-518.5"/>
<text text-anchor="middle" x="344" y="-525.5" font-family="Helvetica,sans-Serif" font-size="10.00">USART_Mode</text>
</a>
</g>
</g>
<!-- Node7 -->
<g id="node3" class="node"><title>Node7</title>
<g id="a_node3"><a xlink:href="a00948.html" target="_top" xlink:title="USART_Clock">
<polygon fill="white" stroke="black" points="303,-480.5 303,-499.5 385,-499.5 385,-480.5 303,-480.5"/>
<text text-anchor="middle" x="344" y="-487.5" font-family="Helvetica,sans-Serif" font-size="10.00">USART_Clock</text>
</a>
</g>
</g>
<!-- Node10 -->
<g id="node4" class="node"><title>Node10</title>
<g id="a_node4"><a xlink:href="a00951.html" target="_top" xlink:title="USART_Last_Bit">
<polygon fill="white" stroke="black" points="298,-442.5 298,-461.5 390,-461.5 390,-442.5 298,-442.5"/>
<text text-anchor="middle" x="344" y="-449.5" font-family="Helvetica,sans-Serif" font-size="10.00">USART_Last_Bit</text>
</a>
</g>
</g>
<!-- Node4 -->
<g id="node5" class="node"><title>Node4</title>
<g id="a_node5"><a xlink:href="a00945.html" target="_top" xlink:title="USART_Parity">
<polygon fill="white" stroke="black" points="303,-404.5 303,-423.5 385,-423.5 385,-404.5 303,-404.5"/>
<text text-anchor="middle" x="344" y="-411.5" font-family="Helvetica,sans-Serif" font-size="10.00">USART_Parity</text>
</a>
</g>
</g>
<!-- Node16 -->
<g id="node6" class="node"><title>Node16</title>
<g id="a_node6"><a xlink:href="a00958.html" target="_top" xlink:title="USART_Flags">
<polygon fill="white" stroke="black" points="304,-366.5 304,-385.5 384,-385.5 384,-366.5 304,-366.5"/>
<text text-anchor="middle" x="344" y="-373.5" font-family="Helvetica,sans-Serif" font-size="10.00">USART_Flags</text>
</a>
</g>
</g>
<!-- Node15 -->
<g id="node7" class="node"><title>Node15</title>
<g id="a_node7"><a xlink:href="a00957.html" target="_top" xlink:title="USART_IrDA_Low_Power">
<polygon fill="white" stroke="black" points="277.5,-328.5 277.5,-347.5 410.5,-347.5 410.5,-328.5 277.5,-328.5"/>
<text text-anchor="middle" x="344" y="-335.5" font-family="Helvetica,sans-Serif" font-size="10.00">USART_IrDA_Low_Power</text>
</a>
</g>
</g>
<!-- Node11 -->
<g id="node8" class="node"><title>Node11</title>
<g id="a_node8"><a xlink:href="a00952.html" target="_top" xlink:title="USART_Interrupt_definition">
<polygon fill="white" stroke="black" points="275.5,-290.5 275.5,-309.5 412.5,-309.5 412.5,-290.5 275.5,-290.5"/>
<text text-anchor="middle" x="344" y="-297.5" font-family="Helvetica,sans-Serif" font-size="10.00">USART_Interrupt_definition</text>
</a>
</g>
</g>
<!-- Node6 -->
<g id="node9" class="node"><title>Node6</title>
<g id="a_node9"><a xlink:href="a00947.html" target="_top" xlink:title="USART_Hardware_Flow\l_Control">
<polygon fill="white" stroke="black" points="281.5,-241 281.5,-271 406.5,-271 406.5,-241 281.5,-241"/>
<text text-anchor="start" x="289.5" y="-259" font-family="Helvetica,sans-Serif" font-size="10.00">USART_Hardware_Flow</text>
<text text-anchor="middle" x="344" y="-248" font-family="Helvetica,sans-Serif" font-size="10.00">_Control</text>
</a>
</g>
</g>
<!-- Node2 -->
<g id="node10" class="node"><title>Node2</title>
<g id="a_node10"><a xlink:href="a00943.html" target="_top" xlink:title="USART_Word_Length">
<polygon fill="white" stroke="black" points="287,-202.5 287,-221.5 401,-221.5 401,-202.5 287,-202.5"/>
<text text-anchor="middle" x="344" y="-209.5" font-family="Helvetica,sans-Serif" font-size="10.00">USART_Word_Length</text>
</a>
</g>
</g>
<!-- Node1 -->
<g id="node11" class="node"><title>Node1</title>
<g id="a_node11"><a xlink:href="a00124.html" target="_top" xlink:title="USART driver modules. ">
<polygon fill="white" stroke="black" points="0,-290.5 0,-309.5 51,-309.5 51,-290.5 0,-290.5"/>
<text text-anchor="middle" x="25.5" y="-297.5" font-family="Helvetica,sans-Serif" font-size="10.00">USART</text>
</a>
</g>
</g>
<!-- Node0 -->
<g id="node13" class="node"><title>Node0</title>
<polygon fill="#bfbfbf" stroke="black" points="87,-290.5 87,-309.5 233,-309.5 233,-290.5 87,-290.5"/>
<text text-anchor="middle" x="160" y="-297.5" font-family="Helvetica,sans-Serif" font-size="10.00">USART_Exported_Constants</text>
</g>
<!-- Node1&#45;&gt;Node0 -->
<g id="edge1" class="edge"><title>Node1&#45;&gt;Node0</title>
<path fill="none" stroke="black" d="M61.1285,-300C69.1442,-300 77.9667,-300 86.9324,-300"/>
<polygon fill="black" stroke="black" points="61.1117,-296.5 51.1117,-300 61.1117,-303.5 61.1117,-296.5"/>
</g>
<!-- Node12 -->
<g id="node12" class="node"><title>Node12</title>
<g id="a_node12"><a xlink:href="a00954.html" target="_top" xlink:title="USART_DMA_Requests">
<polygon fill="white" stroke="black" points="281,-164.5 281,-183.5 407,-183.5 407,-164.5 281,-164.5"/>
<text text-anchor="middle" x="344" y="-171.5" font-family="Helvetica,sans-Serif" font-size="10.00">USART_DMA_Requests</text>
</a>
</g>
</g>
<!-- Node0&#45;&gt;Node8 -->
<g id="edge8" class="edge"><title>Node0&#45;&gt;Node8</title>
<path fill="none" stroke="black" d="M163.69,-319.613C171.183,-366.453 196.717,-485.501 269,-547 273.546,-550.868 278.78,-553.963 284.321,-556.437"/>
<polygon fill="black" stroke="black" points="167.129,-318.944 162.189,-309.572 160.206,-319.98 167.129,-318.944"/>
</g>
<!-- Node0&#45;&gt;Node5 -->
<g id="edge5" class="edge"><title>Node0&#45;&gt;Node5</title>
<path fill="none" stroke="black" d="M165.4,-319.653C175.773,-361.284 205.788,-458.654 269,-509 278.856,-516.85 291.588,-521.491 303.704,-524.223"/>
<polygon fill="black" stroke="black" points="168.749,-318.607 163.032,-309.688 161.939,-320.226 168.749,-318.607"/>
</g>
<!-- Node0&#45;&gt;Node7 -->
<g id="edge7" class="edge"><title>Node0&#45;&gt;Node7</title>
<path fill="none" stroke="black" d="M167.631,-319.208C180.957,-354.87 214.466,-431.288 269,-471 278.864,-478.183 291.196,-482.658 302.947,-485.442"/>
<polygon fill="black" stroke="black" points="170.827,-317.754 164.142,-309.535 164.242,-320.129 170.827,-317.754"/>
</g>
<!-- Node0&#45;&gt;Node10 -->
<g id="edge10" class="edge"><title>Node0&#45;&gt;Node10</title>
<path fill="none" stroke="black" d="M171.056,-318.93C187.53,-348.054 223.08,-403.564 269,-433 277.598,-438.512 287.719,-442.427 297.668,-445.207"/>
<polygon fill="black" stroke="black" points="173.927,-316.887 166.039,-309.814 167.795,-320.263 173.927,-316.887"/>
</g>
<!-- Node0&#45;&gt;Node4 -->
<g id="edge4" class="edge"><title>Node0&#45;&gt;Node4</title>
<path fill="none" stroke="black" d="M175.939,-317.432C195.268,-338.878 230.997,-374.906 269,-395 279.436,-400.518 291.56,-404.496 302.936,-407.337"/>
<polygon fill="black" stroke="black" points="178.384,-314.914 169.141,-309.734 173.137,-319.547 178.384,-314.914"/>
</g>
<!-- Node0&#45;&gt;Node16 -->
<g id="edge16" class="edge"><title>Node0&#45;&gt;Node16</title>
<path fill="none" stroke="black" d="M185.288,-314.939C206.683,-327.575 239.022,-345.425 269,-357 280.013,-361.252 292.312,-364.844 303.672,-367.721"/>
<polygon fill="black" stroke="black" points="186.929,-311.842 176.551,-309.708 183.333,-317.848 186.929,-311.842"/>
</g>
<!-- Node0&#45;&gt;Node15 -->
<g id="edge15" class="edge"><title>Node0&#45;&gt;Node15</title>
<path fill="none" stroke="black" d="M216.946,-311.681C242.756,-317.07 273.007,-323.386 297.404,-328.48"/>
<polygon fill="black" stroke="black" points="217.431,-308.207 206.926,-309.589 216,-315.059 217.431,-308.207"/>
</g>
<!-- Node0&#45;&gt;Node11 -->
<g id="edge11" class="edge"><title>Node0&#45;&gt;Node11</title>
<path fill="none" stroke="black" d="M243.376,-300C254.069,-300 264.921,-300 275.337,-300"/>
<polygon fill="black" stroke="black" points="243.193,-296.5 233.193,-300 243.193,-303.5 243.193,-296.5"/>
</g>
<!-- Node0&#45;&gt;Node6 -->
<g id="edge6" class="edge"><title>Node0&#45;&gt;Node6</title>
<path fill="none" stroke="black" d="M210.246,-288.094C232.163,-282.796 258.205,-276.5 281.395,-270.894"/>
<polygon fill="black" stroke="black" points="209.389,-284.701 200.491,-290.453 211.034,-291.505 209.389,-284.701"/>
</g>
<!-- Node0&#45;&gt;Node2 -->
<g id="edge2" class="edge"><title>Node0&#45;&gt;Node2</title>
<path fill="none" stroke="black" d="M181.348,-284.19C202.271,-268.631 236.324,-245.199 269,-231 277.637,-227.247 287.175,-224.114 296.451,-221.546"/>
<polygon fill="black" stroke="black" points="179.096,-281.505 173.228,-290.326 183.316,-287.09 179.096,-281.505"/>
</g>
<!-- Node0&#45;&gt;Node12 -->
<g id="edge12" class="edge"><title>Node0&#45;&gt;Node12</title>
<path fill="none" stroke="black" d="M174.068,-282.085C192.514,-258.119 228.491,-215.981 269,-193 275.807,-189.138 283.406,-186.048 291.072,-183.577"/>
<polygon fill="black" stroke="black" points="171.1,-280.208 167.884,-290.303 176.693,-284.417 171.1,-280.208"/>
</g>
<!-- Node3 -->
<g id="node14" class="node"><title>Node3</title>
<g id="a_node14"><a xlink:href="a00944.html" target="_top" xlink:title="USART_Stop_Bits">
<polygon fill="white" stroke="black" points="294.5,-126.5 294.5,-145.5 393.5,-145.5 393.5,-126.5 294.5,-126.5"/>
<text text-anchor="middle" x="344" y="-133.5" font-family="Helvetica,sans-Serif" font-size="10.00">USART_Stop_Bits</text>
</a>
</g>
</g>
<!-- Node0&#45;&gt;Node3 -->
<g id="edge3" class="edge"><title>Node0&#45;&gt;Node3</title>
<path fill="none" stroke="black" d="M169.716,-281.142C185.145,-249.916 220.29,-187.682 269,-155 276.6,-149.901 285.479,-146.17 294.395,-143.441"/>
<polygon fill="black" stroke="black" points="166.418,-279.925 165.249,-290.455 172.729,-282.953 166.418,-279.925"/>
</g>
<!-- Node13 -->
<g id="node15" class="node"><title>Node13</title>
<g id="a_node15"><a xlink:href="a00955.html" target="_top" xlink:title="USART_WakeUp_methods">
<polygon fill="white" stroke="black" points="275.5,-88.5 275.5,-107.5 412.5,-107.5 412.5,-88.5 275.5,-88.5"/>
<text text-anchor="middle" x="344" y="-95.5" font-family="Helvetica,sans-Serif" font-size="10.00">USART_WakeUp_methods</text>
</a>
</g>
</g>
<!-- Node0&#45;&gt;Node13 -->
<g id="edge13" class="edge"><title>Node0&#45;&gt;Node13</title>
<path fill="none" stroke="black" d="M166.895,-280.484C179.311,-242.803 211.828,-159.967 269,-117 274.196,-113.095 280.113,-109.989 286.287,-107.519"/>
<polygon fill="black" stroke="black" points="163.487,-279.651 163.801,-290.241 170.16,-281.767 163.487,-279.651"/>
</g>
<!-- Node14 -->
<g id="node16" class="node"><title>Node14</title>
<g id="a_node16"><a xlink:href="a00956.html" target="_top" xlink:title="USART_LIN_Break_Detection\l_Length">
<polygon fill="white" stroke="black" points="269,-39 269,-69 419,-69 419,-39 269,-39"/>
<text text-anchor="start" x="277" y="-57" font-family="Helvetica,sans-Serif" font-size="10.00">USART_LIN_Break_Detection</text>
<text text-anchor="middle" x="344" y="-46" font-family="Helvetica,sans-Serif" font-size="10.00">_Length</text>
</a>
</g>
</g>
<!-- Node0&#45;&gt;Node14 -->
<g id="edge14" class="edge"><title>Node0&#45;&gt;Node14</title>
<path fill="none" stroke="black" d="M165.154,-280.482C175.254,-237.73 205.103,-135.157 269,-79 273.38,-75.1506 278.376,-71.8891 283.658,-69.1265"/>
<polygon fill="black" stroke="black" points="161.696,-279.91 162.909,-290.435 168.524,-281.45 161.696,-279.91"/>
</g>
<!-- Node9 -->
<g id="node17" class="node"><title>Node9</title>
<g id="a_node17"><a xlink:href="a00950.html" target="_top" xlink:title="USART_Clock_Phase">
<polygon fill="white" stroke="black" points="286.5,-0.5 286.5,-19.5 401.5,-19.5 401.5,-0.5 286.5,-0.5"/>
<text text-anchor="middle" x="344" y="-7.5" font-family="Helvetica,sans-Serif" font-size="10.00">USART_Clock_Phase</text>
</a>
</g>
</g>
<!-- Node0&#45;&gt;Node9 -->
<g id="edge9" class="edge"><title>Node0&#45;&gt;Node9</title>
<path fill="none" stroke="black" d="M162.867,-280.205C168.677,-230.139 191.03,-97.5843 269,-29 274.079,-24.5322 280.072,-21.0904 286.412,-18.4432"/>
<polygon fill="black" stroke="black" points="159.367,-280.02 161.791,-290.334 166.327,-280.759 159.367,-280.02"/>
</g>
</g>
</svg>
        <g id="navigator" transform="translate(0 0)" fill="#404254">
                <rect fill="#f2f5e9" fill-opacity="0.5" stroke="#606060" stroke-width=".5" x="0" y="0" width="60" height="60"/>
                <use id="zoomplus" xlink:href="#zoomPlus" x="17" y="9" onmousedown="handleZoom(evt,'in')"/>
                <use id="zoomminus" xlink:href="#zoomMin" x="42" y="9" onmousedown="handleZoom(evt,'out')"/>
                <use id="reset" xlink:href="#resetDef" x="30" y="36" onmousedown="handleReset()"/>
                <g id="arrowUp" xlink:href="#dirArrow" transform="translate(30 24)" onmousedown="handlePan(0,-1)">
                  <use xlink:href="#rim" fill="#404040">
                        <set attributeName="fill" to="#808080" begin="arrowUp.mouseover" end="arrowUp.mouseout"/>
                  </use>
                  <path fill="none" stroke="white" stroke-width="1.5" d="M0,-3.0v7 M-2.5,-0.5L0,-3.0L2.5,-0.5"/>
                </g>
                <g id="arrowRight" xlink:href="#dirArrow" transform="rotate(90) translate(36 -43)" onmousedown="handlePan(1,0)">
                  <use xlink:href="#rim" fill="#404040">
                        <set attributeName="fill" to="#808080" begin="arrowRight.mouseover" end="arrowRight.mouseout"/>
                  </use>
                  <path fill="none" stroke="white" stroke-width="1.5" d="M0,-3.0v7 M-2.5,-0.5L0,-3.0L2.5,-0.5"/>
                </g>
                <g id="arrowDown" xlink:href="#dirArrow" transform="rotate(180) translate(-30 -48)" onmousedown="handlePan(0,1)">
                  <use xlink:href="#rim" fill="#404040">
                        <set attributeName="fill" to="#808080" begin="arrowDown.mouseover" end="arrowDown.mouseout"/>
                  </use>
                  <path fill="none" stroke="white" stroke-width="1.5" d="M0,-3.0v7 M-2.5,-0.5L0,-3.0L2.5,-0.5"/>
                </g>
                <g id="arrowLeft" xlink:href="#dirArrow" transform="rotate(270) translate(-36 17)" onmousedown="handlePan(-1,0)">
                  <use xlink:href="#rim" fill="#404040">
                        <set attributeName="fill" to="#808080" begin="arrowLeft.mouseover" end="arrowLeft.mouseout"/>
                  </use>
                  <path fill="none" stroke="white" stroke-width="1.5" d="M0,-3.0v7 M-2.5,-0.5L0,-3.0L2.5,-0.5"/>
                </g>
        </g>
        <svg viewBox="0 0 15 15" width="100%" height="30px" preserveAspectRatio="xMaxYMin meet">
         <g id="arrow_out" transform="scale(0.3 0.3)">
          <a xlink:href="a00942_org.svg" target="_base">
           <rect id="button" ry="5" rx="5" y="6" x="6" height="38" width="38"
                fill="#f2f5e9" fill-opacity="0.5" stroke="#606060" stroke-width="1.0"/>
           <path id="arrow"
             d="M 11.500037,31.436501 C 11.940474,20.09759 22.043105,11.32322 32.158766,21.979434 L 37.068811,17.246167 C 37.068811,17.246167 37.088388,32 37.088388,32 L 22.160133,31.978069 C 22.160133,31.978069 26.997745,27.140456 26.997745,27.140456 C 18.528582,18.264221 13.291696,25.230495 11.500037,31.436501 z"
             style="fill:#404040;"/>
          </a>
         </g>
        </svg>
</svg>
