<?xml version="1.0" encoding="UTF-8" standalone="no"?>
<!DOCTYPE svg PUBLIC "-//W3C//DTD SVG 1.1//EN"
 "http://www.w3.org/Graphics/SVG/1.1/DTD/svg11.dtd">
<!-- Generated by graphviz version 2.38.0 (20140413.2041)
 -->
<!-- Title: PWR_Private_Functions Pages: 1 -->
<svg width="413pt" height="313pt"
 viewBox="0.00 0.00 413.00 312.50" xmlns="http://www.w3.org/2000/svg" xmlns:xlink="http://www.w3.org/1999/xlink">
<g id="graph0" class="graph" transform="scale(1 1) rotate(0) translate(4 308.5)">
<title>PWR_Private_Functions</title>
<polygon fill="white" stroke="none" points="-4,4 -4,-308.5 409,-308.5 409,4 -4,4"/>
<!-- Node2 -->
<g id="node1" class="node"><title>Node2</title>
<g id="a_node1"><a xlink:href="a01046.html" target="_top" xlink:title="Backup Domain Access function. ">
<polygon fill="white" stroke="black" points="260.5,-274 260.5,-304 382.5,-304 382.5,-274 260.5,-274"/>
<text text-anchor="start" x="268.5" y="-292" font-family="Helvetica,sans-Serif" font-size="10.00">Backup Domain Access</text>
<text text-anchor="middle" x="321.5" y="-281" font-family="Helvetica,sans-Serif" font-size="10.00"> function</text>
</a>
</g>
</g>
<!-- Node3 -->
<g id="node2" class="node"><title>Node3</title>
<g id="a_node2"><a xlink:href="a01047.html" target="_top" xlink:title="PVD configuration functions. ">
<polygon fill="white" stroke="black" points="252,-235.5 252,-254.5 391,-254.5 391,-235.5 252,-235.5"/>
<text text-anchor="middle" x="321.5" y="-242.5" font-family="Helvetica,sans-Serif" font-size="10.00">PVD configuration functions</text>
</a>
</g>
</g>
<!-- Node4 -->
<g id="node3" class="node"><title>Node4</title>
<g id="a_node3"><a xlink:href="a01048.html" target="_top" xlink:title="WakeUp pin configuration functions. ">
<polygon fill="white" stroke="black" points="257,-186 257,-216 386,-216 386,-186 257,-186"/>
<text text-anchor="start" x="265" y="-204" font-family="Helvetica,sans-Serif" font-size="10.00">WakeUp pin configuration</text>
<text text-anchor="middle" x="321.5" y="-193" font-family="Helvetica,sans-Serif" font-size="10.00"> functions</text>
</a>
</g>
</g>
<!-- Node5 -->
<g id="node4" class="node"><title>Node5</title>
<g id="a_node4"><a xlink:href="a01049.html" target="_top" xlink:title="Main and Backup Regulators configuration functions. ">
<polygon fill="white" stroke="black" points="250,-137 250,-167 393,-167 393,-137 250,-137"/>
<text text-anchor="start" x="258" y="-155" font-family="Helvetica,sans-Serif" font-size="10.00">Main and Backup Regulators</text>
<text text-anchor="middle" x="321.5" y="-144" font-family="Helvetica,sans-Serif" font-size="10.00"> configuration functions</text>
</a>
</g>
</g>
<!-- Node6 -->
<g id="node5" class="node"><title>Node6</title>
<g id="a_node5"><a xlink:href="a01050.html" target="_top" xlink:title="FLASH Power Down configuration functions. ">
<polygon fill="white" stroke="black" points="238,-88 238,-118 405,-118 405,-88 238,-88"/>
<text text-anchor="start" x="246" y="-106" font-family="Helvetica,sans-Serif" font-size="10.00">FLASH Power Down configuration</text>
<text text-anchor="middle" x="321.5" y="-95" font-family="Helvetica,sans-Serif" font-size="10.00"> functions</text>
</a>
</g>
</g>
<!-- Node7 -->
<g id="node6" class="node"><title>Node7</title>
<g id="a_node6"><a xlink:href="a01051.html" target="_top" xlink:title="Low Power modes configuration functions. ">
<polygon fill="white" stroke="black" points="243.5,-39 243.5,-69 399.5,-69 399.5,-39 243.5,-39"/>
<text text-anchor="start" x="251.5" y="-57" font-family="Helvetica,sans-Serif" font-size="10.00">Low Power modes configuration</text>
<text text-anchor="middle" x="321.5" y="-46" font-family="Helvetica,sans-Serif" font-size="10.00"> functions</text>
</a>
</g>
</g>
<!-- Node8 -->
<g id="node7" class="node"><title>Node8</title>
<g id="a_node7"><a xlink:href="a01052.html" target="_top" xlink:title="Flags management functions. ">
<polygon fill="white" stroke="black" points="250,-0.5 250,-19.5 393,-19.5 393,-0.5 250,-0.5"/>
<text text-anchor="middle" x="321.5" y="-7.5" font-family="Helvetica,sans-Serif" font-size="10.00">Flags management functions</text>
</a>
</g>
</g>
<!-- Node1 -->
<g id="node8" class="node"><title>Node1</title>
<g id="a_node8"><a xlink:href="a01044.html" target="_top" xlink:title="PWR driver modules. ">
<polygon fill="white" stroke="black" points="0,-142.5 0,-161.5 41,-161.5 41,-142.5 0,-142.5"/>
<text text-anchor="middle" x="20.5" y="-149.5" font-family="Helvetica,sans-Serif" font-size="10.00">PWR</text>
</a>
</g>
</g>
<!-- Node0 -->
<g id="node9" class="node"><title>Node0</title>
<polygon fill="#bfbfbf" stroke="black" points="77,-142.5 77,-161.5 202,-161.5 202,-142.5 77,-142.5"/>
<text text-anchor="middle" x="139.5" y="-149.5" font-family="Helvetica,sans-Serif" font-size="10.00">PWR_Private_Functions</text>
</g>
<!-- Node1&#45;&gt;Node0 -->
<g id="edge1" class="edge"><title>Node1&#45;&gt;Node0</title>
<path fill="none" stroke="black" d="M51.2128,-152C59.1242,-152 67.9714,-152 76.915,-152"/>
<polygon fill="black" stroke="black" points="51.0832,-148.5 41.0832,-152 51.0831,-155.5 51.0832,-148.5"/>
</g>
<!-- Node0&#45;&gt;Node2 -->
<g id="edge2" class="edge"><title>Node0&#45;&gt;Node2</title>
<path fill="none" stroke="black" d="M151.586,-170.187C167.623,-194.987 199.617,-239.16 238,-264 244.785,-268.391 252.378,-272.042 260.137,-275.069"/>
<polygon fill="black" stroke="black" points="154.536,-168.303 146.241,-161.712 148.615,-172.038 154.536,-168.303"/>
</g>
<!-- Node0&#45;&gt;Node3 -->
<g id="edge3" class="edge"><title>Node0&#45;&gt;Node3</title>
<path fill="none" stroke="black" d="M157.616,-168.65C175.997,-185.597 206.789,-211.391 238,-226 246.253,-229.863 255.348,-232.97 264.392,-235.459"/>
<polygon fill="black" stroke="black" points="159.766,-165.867 150.087,-161.558 154.967,-170.963 159.766,-165.867"/>
</g>
<!-- Node0&#45;&gt;Node4 -->
<g id="edge4" class="edge"><title>Node0&#45;&gt;Node4</title>
<path fill="none" stroke="black" d="M185.601,-164.278C209.758,-170.854 239.718,-179.009 265.262,-185.963"/>
<polygon fill="black" stroke="black" points="186.201,-160.814 175.633,-161.564 184.363,-167.568 186.201,-160.814"/>
</g>
<!-- Node0&#45;&gt;Node5 -->
<g id="edge5" class="edge"><title>Node0&#45;&gt;Node5</title>
<path fill="none" stroke="black" d="M212.433,-152C224.781,-152 237.602,-152 249.914,-152"/>
<polygon fill="black" stroke="black" points="212.194,-148.5 202.194,-152 212.194,-155.5 212.194,-148.5"/>
</g>
<!-- Node0&#45;&gt;Node6 -->
<g id="edge6" class="edge"><title>Node0&#45;&gt;Node6</title>
<path fill="none" stroke="black" d="M185.601,-139.722C209.758,-133.146 239.718,-124.991 265.262,-118.037"/>
<polygon fill="black" stroke="black" points="184.363,-136.432 175.633,-142.436 186.201,-143.186 184.363,-136.432"/>
</g>
<!-- Node0&#45;&gt;Node7 -->
<g id="edge7" class="edge"><title>Node0&#45;&gt;Node7</title>
<path fill="none" stroke="black" d="M158.086,-135.437C176.64,-118.775 207.381,-93.4057 238,-78 244.663,-74.6478 251.87,-71.6895 259.154,-69.0992"/>
<polygon fill="black" stroke="black" points="155.478,-133.079 150.463,-142.412 160.203,-138.243 155.478,-133.079"/>
</g>
<!-- Node0&#45;&gt;Node8 -->
<g id="edge8" class="edge"><title>Node0&#45;&gt;Node8</title>
<path fill="none" stroke="black" d="M150.015,-133.205C164.899,-105.808 196.35,-55.313 238,-29 244.089,-25.1534 250.869,-22.0833 257.853,-19.6333"/>
<polygon fill="black" stroke="black" points="146.859,-131.687 145.293,-142.166 153.052,-134.951 146.859,-131.687"/>
</g>
</g>
</svg>
