<?xml version="1.0" encoding="UTF-8" standalone="no"?>
<!DOCTYPE svg PUBLIC "-//W3C//DTD SVG 1.1//EN"
 "http://www.w3.org/Graphics/SVG/1.1/DTD/svg11.dtd">
<!-- Generated by graphviz version 2.38.0 (20140413.2041)
 -->
<!-- Title: CRYP_DataIn Pages: 1 -->
<svg width="228pt" height="332pt"
 viewBox="0.00 0.00 228.00 332.00" xmlns="http://www.w3.org/2000/svg" xmlns:xlink="http://www.w3.org/1999/xlink">
<g id="graph0" class="graph" transform="scale(1 1) rotate(0) translate(4 328)">
<title>CRYP_DataIn</title>
<polygon fill="white" stroke="none" points="-4,4 -4,-328 224,-328 224,4 -4,4"/>
<!-- Node1 -->
<g id="node1" class="node"><title>Node1</title>
<polygon fill="#bfbfbf" stroke="black" points="0,-152.5 0,-171.5 80,-171.5 80,-152.5 0,-152.5"/>
<text text-anchor="middle" x="40" y="-159.5" font-family="Helvetica,sans-Serif" font-size="10.00">CRYP_DataIn</text>
</g>
<!-- Node2 -->
<g id="node2" class="node"><title>Node2</title>
<g id="a_node2"><a xlink:href="a01083.html#ga79ff82ece0e9620dc86d6e57abe639e1" target="_top" xlink:title="Encrypt and decrypt using AES in ECB Mode. ">
<polygon fill="white" stroke="black" points="119.5,-304.5 119.5,-323.5 216.5,-323.5 216.5,-304.5 119.5,-304.5"/>
<text text-anchor="middle" x="168" y="-311.5" font-family="Helvetica,sans-Serif" font-size="10.00">CRYP_AES_ECB</text>
</a>
</g>
</g>
<!-- Node1&#45;&gt;Node2 -->
<g id="edge1" class="edge"><title>Node1&#45;&gt;Node2</title>
<path fill="none" stroke="midnightblue" d="M47.0185,-181.164C56.9405,-209.793 79.3624,-263.701 116,-295 120.526,-298.866 125.913,-301.981 131.463,-304.479"/>
<polygon fill="midnightblue" stroke="midnightblue" points="50.2935,-179.92 43.8243,-171.53 43.6491,-182.123 50.2935,-179.92"/>
</g>
<!-- Node3 -->
<g id="node3" class="node"><title>Node3</title>
<g id="a_node3"><a xlink:href="a01083.html#gaa43eadf707257710f6a53b3295b39d70" target="_top" xlink:title="Encrypt and decrypt using AES in CBC Mode. ">
<polygon fill="white" stroke="black" points="119,-266.5 119,-285.5 217,-285.5 217,-266.5 119,-266.5"/>
<text text-anchor="middle" x="168" y="-273.5" font-family="Helvetica,sans-Serif" font-size="10.00">CRYP_AES_CBC</text>
</a>
</g>
</g>
<!-- Node1&#45;&gt;Node3 -->
<g id="edge2" class="edge"><title>Node1&#45;&gt;Node3</title>
<path fill="none" stroke="midnightblue" d="M51.1303,-180.175C63.7763,-201.345 87.2784,-236.078 116,-257 121.193,-260.783 127.226,-263.897 133.286,-266.43"/>
<polygon fill="midnightblue" stroke="midnightblue" points="54.1463,-178.399 46.1042,-171.502 48.0897,-181.909 54.1463,-178.399"/>
</g>
<!-- Node4 -->
<g id="node4" class="node"><title>Node4</title>
<g id="a_node4"><a xlink:href="a01083.html#ga2f36aea6e94452e5e5e938547fb89d4c" target="_top" xlink:title="Encrypt and decrypt using AES in CTR Mode. ">
<polygon fill="white" stroke="black" points="119.5,-228.5 119.5,-247.5 216.5,-247.5 216.5,-228.5 119.5,-228.5"/>
<text text-anchor="middle" x="168" y="-235.5" font-family="Helvetica,sans-Serif" font-size="10.00">CRYP_AES_CTR</text>
</a>
</g>
</g>
<!-- Node1&#45;&gt;Node4 -->
<g id="edge3" class="edge"><title>Node1&#45;&gt;Node4</title>
<path fill="none" stroke="midnightblue" d="M59.2201,-178.289C73.7907,-190.691 95.1611,-207.528 116,-219 122.539,-222.6 129.899,-225.787 136.95,-228.474"/>
<polygon fill="midnightblue" stroke="midnightblue" points="61.3288,-175.485 51.4823,-171.574 56.7407,-180.772 61.3288,-175.485"/>
</g>
<!-- Node5 -->
<g id="node5" class="node"><title>Node5</title>
<g id="a_node5"><a xlink:href="a01083.html#ga74b48d820c5c360eb303fc2fb78af055" target="_top" xlink:title="Encrypt and decrypt using AES in GCM Mode. The GCM and CCM modes are available only on STM32F437x Dev...">
<polygon fill="white" stroke="black" points="118.5,-190.5 118.5,-209.5 217.5,-209.5 217.5,-190.5 118.5,-190.5"/>
<text text-anchor="middle" x="168" y="-197.5" font-family="Helvetica,sans-Serif" font-size="10.00">CRYP_AES_GCM</text>
</a>
</g>
</g>
<!-- Node1&#45;&gt;Node5 -->
<g id="edge4" class="edge"><title>Node1&#45;&gt;Node5</title>
<path fill="none" stroke="midnightblue" d="M82.5644,-174.535C99.7052,-179.705 119.25,-185.599 135.215,-190.414"/>
<polygon fill="midnightblue" stroke="midnightblue" points="83.3798,-171.126 72.7951,-171.589 81.3586,-177.827 83.3798,-171.126"/>
</g>
<!-- Node6 -->
<g id="node6" class="node"><title>Node6</title>
<g id="a_node6"><a xlink:href="a01083.html#ga9d9f5c74b634b85b7aa8c2a2ea0bcd51" target="_top" xlink:title="Encrypt and decrypt using AES in CCM Mode. The GCM and CCM modes are available only on STM32F437x Dev...">
<polygon fill="white" stroke="black" points="118.5,-152.5 118.5,-171.5 217.5,-171.5 217.5,-152.5 118.5,-152.5"/>
<text text-anchor="middle" x="168" y="-159.5" font-family="Helvetica,sans-Serif" font-size="10.00">CRYP_AES_CCM</text>
</a>
</g>
</g>
<!-- Node1&#45;&gt;Node6 -->
<g id="edge5" class="edge"><title>Node1&#45;&gt;Node6</title>
<path fill="none" stroke="midnightblue" d="M90.273,-162C99.4066,-162 108.945,-162 118.068,-162"/>
<polygon fill="midnightblue" stroke="midnightblue" points="90.1765,-158.5 80.1765,-162 90.1765,-165.5 90.1765,-158.5"/>
</g>
<!-- Node7 -->
<g id="node7" class="node"><title>Node7</title>
<g id="a_node7"><a xlink:href="a01084.html#ga3b96b7608b39197209abed5f5845f590" target="_top" xlink:title="Encrypt and decrypt using DES in ECB Mode. ">
<polygon fill="white" stroke="black" points="119,-114.5 119,-133.5 217,-133.5 217,-114.5 119,-114.5"/>
<text text-anchor="middle" x="168" y="-121.5" font-family="Helvetica,sans-Serif" font-size="10.00">CRYP_DES_ECB</text>
</a>
</g>
</g>
<!-- Node1&#45;&gt;Node7 -->
<g id="edge6" class="edge"><title>Node1&#45;&gt;Node7</title>
<path fill="none" stroke="midnightblue" d="M82.5644,-149.465C99.7052,-144.295 119.25,-138.401 135.215,-133.586"/>
<polygon fill="midnightblue" stroke="midnightblue" points="81.3586,-146.173 72.7951,-152.411 83.3798,-152.874 81.3586,-146.173"/>
</g>
<!-- Node8 -->
<g id="node8" class="node"><title>Node8</title>
<g id="a_node8"><a xlink:href="a01084.html#ga75724391a8560c557e1152b805f5cad1" target="_top" xlink:title="Encrypt and decrypt using DES in CBC Mode. ">
<polygon fill="white" stroke="black" points="119,-76.5 119,-95.5 217,-95.5 217,-76.5 119,-76.5"/>
<text text-anchor="middle" x="168" y="-83.5" font-family="Helvetica,sans-Serif" font-size="10.00">CRYP_DES_CBC</text>
</a>
</g>
</g>
<!-- Node1&#45;&gt;Node8 -->
<g id="edge7" class="edge"><title>Node1&#45;&gt;Node8</title>
<path fill="none" stroke="midnightblue" d="M59.2201,-145.711C73.7907,-133.309 95.1611,-116.472 116,-105 122.539,-101.4 129.899,-98.2127 136.95,-95.5259"/>
<polygon fill="midnightblue" stroke="midnightblue" points="56.7407,-143.228 51.4823,-152.426 61.3288,-148.515 56.7407,-143.228"/>
</g>
<!-- Node9 -->
<g id="node9" class="node"><title>Node9</title>
<g id="a_node9"><a xlink:href="a01085.html#ga17c03ab4f0566fcbc3dd8c052e6f9886" target="_top" xlink:title="Encrypt and decrypt using TDES in ECB Mode. ">
<polygon fill="white" stroke="black" points="116,-38.5 116,-57.5 220,-57.5 220,-38.5 116,-38.5"/>
<text text-anchor="middle" x="168" y="-45.5" font-family="Helvetica,sans-Serif" font-size="10.00">CRYP_TDES_ECB</text>
</a>
</g>
</g>
<!-- Node1&#45;&gt;Node9 -->
<g id="edge8" class="edge"><title>Node1&#45;&gt;Node9</title>
<path fill="none" stroke="midnightblue" d="M51.1303,-143.825C63.7763,-122.655 87.2784,-87.9221 116,-67 121.193,-63.217 127.226,-60.1031 133.286,-57.5698"/>
<polygon fill="midnightblue" stroke="midnightblue" points="48.0897,-142.091 46.1042,-152.498 54.1463,-145.601 48.0897,-142.091"/>
</g>
<!-- Node10 -->
<g id="node10" class="node"><title>Node10</title>
<g id="a_node10"><a xlink:href="a01085.html#gabe52a368c4882450c1e82f16bc1eb686" target="_top" xlink:title="Encrypt and decrypt using TDES in CBC Mode. ">
<polygon fill="white" stroke="black" points="116,-0.5 116,-19.5 220,-19.5 220,-0.5 116,-0.5"/>
<text text-anchor="middle" x="168" y="-7.5" font-family="Helvetica,sans-Serif" font-size="10.00">CRYP_TDES_CBC</text>
</a>
</g>
</g>
<!-- Node1&#45;&gt;Node10 -->
<g id="edge9" class="edge"><title>Node1&#45;&gt;Node10</title>
<path fill="none" stroke="midnightblue" d="M47.0185,-142.836C56.9405,-114.207 79.3624,-60.299 116,-29 120.526,-25.1335 125.913,-22.0194 131.463,-19.5215"/>
<polygon fill="midnightblue" stroke="midnightblue" points="43.6491,-141.877 43.8243,-152.47 50.2935,-144.08 43.6491,-141.877"/>
</g>
</g>
</svg>
