<?xml version="1.0" encoding="UTF-8" standalone="no"?>
<!DOCTYPE svg PUBLIC "-//W3C//DTD SVG 1.1//EN"
 "http://www.w3.org/Graphics/SVG/1.1/DTD/svg11.dtd">
<!-- Generated by graphviz version 2.38.0 (20140413.2041)
 -->
<!-- Title: RTC Tamper and TimeStamp Pins Selection and Output Type Config configuration functions Pages: 1 -->
<svg width="312pt" height="61pt"
 viewBox="0.00 0.00 312.00 61.00" xmlns="http://www.w3.org/2000/svg" xmlns:xlink="http://www.w3.org/1999/xlink">
<g id="graph0" class="graph" transform="scale(1 1) rotate(0) translate(4 57)">
<title>RTC Tamper and TimeStamp Pins Selection and Output Type Config configuration functions</title>
<polygon fill="white" stroke="none" points="-4,4 -4,-57 308,-57 308,4 -4,4"/>
<!-- Node1 -->
<g id="node1" class="node"><title>Node1</title>
<g id="a_node1"><a xlink:href="a01059.html" target="_top" xlink:title="RTC_Private_Functions">
<polygon fill="white" stroke="black" points="0,-17 0,-36 122,-36 122,-17 0,-17"/>
<text text-anchor="middle" x="61" y="-24" font-family="Helvetica,sans-Serif" font-size="10.00">RTC_Private_Functions</text>
</a>
</g>
</g>
<!-- Node0 -->
<g id="node2" class="node"><title>Node0</title>
<polygon fill="#bfbfbf" stroke="black" points="158,-0.5 158,-52.5 304,-52.5 304,-0.5 158,-0.5"/>
<text text-anchor="start" x="166" y="-40.5" font-family="Helvetica,sans-Serif" font-size="10.00">RTC Tamper and TimeStamp</text>
<text text-anchor="start" x="166" y="-29.5" font-family="Helvetica,sans-Serif" font-size="10.00"> Pins Selection and Output</text>
<text text-anchor="start" x="166" y="-18.5" font-family="Helvetica,sans-Serif" font-size="10.00"> Type Config configuration</text>
<text text-anchor="middle" x="231" y="-7.5" font-family="Helvetica,sans-Serif" font-size="10.00"> functions</text>
</g>
<!-- Node1&#45;&gt;Node0 -->
<g id="edge1" class="edge"><title>Node1&#45;&gt;Node0</title>
<path fill="none" stroke="black" d="M132.361,-26.5C140.807,-26.5 149.441,-26.5 157.91,-26.5"/>
<polygon fill="black" stroke="black" points="132.177,-23.0001 122.177,-26.5 132.177,-30.0001 132.177,-23.0001"/>
</g>
</g>
</svg>
