<?xml version="1.0" encoding="UTF-8" standalone="no"?>
<!DOCTYPE svg PUBLIC "-//W3C//DTD SVG 1.1//EN"
 "http://www.w3.org/Graphics/SVG/1.1/DTD/svg11.dtd">
<!-- Generated by graphviz version 2.38.0 (20140413.2041)
 -->
<!-- Title: CRYP_AES_ECB Pages: 1 -->
<svg width="257pt" height="332pt"
 viewBox="0.00 0.00 257.00 332.00" xmlns="http://www.w3.org/2000/svg" xmlns:xlink="http://www.w3.org/1999/xlink">
<g id="graph0" class="graph" transform="scale(1 1) rotate(0) translate(4 328)">
<title>CRYP_AES_ECB</title>
<polygon fill="white" stroke="none" points="-4,4 -4,-328 253,-328 253,4 -4,4"/>
<!-- Node1 -->
<g id="node1" class="node"><title>Node1</title>
<polygon fill="#bfbfbf" stroke="black" points="0,-152.5 0,-171.5 97,-171.5 97,-152.5 0,-152.5"/>
<text text-anchor="middle" x="48.5" y="-159.5" font-family="Helvetica,sans-Serif" font-size="10.00">CRYP_AES_ECB</text>
</g>
<!-- Node2 -->
<g id="node2" class="node"><title>Node2</title>
<g id="a_node2"><a xlink:href="a00093.html#gaeecd86b00d0d0137d97b06108789bcb2" target="_top" xlink:title="Fills each CRYP_KeyInitStruct member with its default value. ">
<polygon fill="white" stroke="black" points="137.5,-304.5 137.5,-323.5 244.5,-323.5 244.5,-304.5 137.5,-304.5"/>
<text text-anchor="middle" x="191" y="-311.5" font-family="Helvetica,sans-Serif" font-size="10.00">CRYP_KeyStructInit</text>
</a>
</g>
</g>
<!-- Node1&#45;&gt;Node2 -->
<g id="edge1" class="edge"><title>Node1&#45;&gt;Node2</title>
<path fill="none" stroke="midnightblue" d="M52.8888,-171.621C61.945,-195.956 89.0519,-260.47 133,-295 135.307,-296.813 137.795,-298.456 140.396,-299.946"/>
<polygon fill="midnightblue" stroke="midnightblue" points="139.06,-303.188 149.58,-304.442 142.137,-296.901 139.06,-303.188"/>
</g>
<!-- Node3 -->
<g id="node3" class="node"><title>Node3</title>
<g id="a_node3"><a xlink:href="a00093.html#ga23ada9d9464e1362299d7612a1409a57" target="_top" xlink:title="Flushes the IN and OUT FIFOs (that is read and write pointers of the FIFOs are reset) ...">
<polygon fill="white" stroke="black" points="142.5,-266.5 142.5,-285.5 239.5,-285.5 239.5,-266.5 142.5,-266.5"/>
<text text-anchor="middle" x="191" y="-273.5" font-family="Helvetica,sans-Serif" font-size="10.00">CRYP_FIFOFlush</text>
</a>
</g>
</g>
<!-- Node1&#45;&gt;Node3 -->
<g id="edge2" class="edge"><title>Node1&#45;&gt;Node3</title>
<path fill="none" stroke="midnightblue" d="M55.3858,-171.579C67.5478,-190.599 97.319,-233.329 133,-257 135.958,-258.962 139.137,-260.739 142.426,-262.344"/>
<polygon fill="midnightblue" stroke="midnightblue" points="141.324,-265.681 151.893,-266.427 144.096,-259.253 141.324,-265.681"/>
</g>
<!-- Node4 -->
<g id="node4" class="node"><title>Node4</title>
<g id="a_node4"><a xlink:href="a00093.html#ga7b72c458d95581ab0a36be3e017fcf02" target="_top" xlink:title="Initializes the CRYP peripheral according to the specified parameters in the CRYP_InitStruct. ">
<polygon fill="white" stroke="black" points="159,-228.5 159,-247.5 223,-247.5 223,-228.5 159,-228.5"/>
<text text-anchor="middle" x="191" y="-235.5" font-family="Helvetica,sans-Serif" font-size="10.00">CRYP_Init</text>
</a>
</g>
</g>
<!-- Node1&#45;&gt;Node4 -->
<g id="edge3" class="edge"><title>Node1&#45;&gt;Node4</title>
<path fill="none" stroke="midnightblue" d="M61.2913,-171.622C76.8969,-183.975 105.639,-205.432 133,-219 138.081,-221.52 143.576,-223.826 149.078,-225.897"/>
<polygon fill="midnightblue" stroke="midnightblue" points="148.31,-229.337 158.905,-229.363 150.638,-222.736 148.31,-229.337"/>
</g>
<!-- Node5 -->
<g id="node5" class="node"><title>Node5</title>
<g id="a_node5"><a xlink:href="a00093.html#gad4baa3865415215cae07c9fbfa131cb9" target="_top" xlink:title="Initializes the CRYP Keys according to the specified parameters in the CRYP_KeyInitStruct. ">
<polygon fill="white" stroke="black" points="150.5,-190.5 150.5,-209.5 231.5,-209.5 231.5,-190.5 150.5,-190.5"/>
<text text-anchor="middle" x="191" y="-197.5" font-family="Helvetica,sans-Serif" font-size="10.00">CRYP_KeyInit</text>
</a>
</g>
</g>
<!-- Node1&#45;&gt;Node5 -->
<g id="edge4" class="edge"><title>Node1&#45;&gt;Node5</title>
<path fill="none" stroke="midnightblue" d="M84.9541,-171.589C103.091,-176.494 125.368,-182.52 144.733,-187.757"/>
<polygon fill="midnightblue" stroke="midnightblue" points="143.99,-191.182 154.557,-190.414 145.818,-184.425 143.99,-191.182"/>
</g>
<!-- Node6 -->
<g id="node6" class="node"><title>Node6</title>
<g id="a_node6"><a xlink:href="a00093.html#gad39ccd9b1f2e088e3a227d7a1c410d7c" target="_top" xlink:title="Enables or disables the CRYP peripheral. ">
<polygon fill="white" stroke="black" points="155.5,-152.5 155.5,-171.5 226.5,-171.5 226.5,-152.5 155.5,-152.5"/>
<text text-anchor="middle" x="191" y="-159.5" font-family="Helvetica,sans-Serif" font-size="10.00">CRYP_Cmd</text>
</a>
</g>
</g>
<!-- Node1&#45;&gt;Node6 -->
<g id="edge5" class="edge"><title>Node1&#45;&gt;Node6</title>
<path fill="none" stroke="midnightblue" d="M97.0669,-162C112.591,-162 129.77,-162 145.092,-162"/>
<polygon fill="midnightblue" stroke="midnightblue" points="145.36,-165.5 155.36,-162 145.36,-158.5 145.36,-165.5"/>
</g>
<!-- Node7 -->
<g id="node7" class="node"><title>Node7</title>
<g id="a_node7"><a xlink:href="a00093.html#ga993d568b626a74b2973d4a6848a681f6" target="_top" xlink:title="Checks whether the specified CRYP flag is set or not. ">
<polygon fill="white" stroke="black" points="134.5,-114.5 134.5,-133.5 247.5,-133.5 247.5,-114.5 134.5,-114.5"/>
<text text-anchor="middle" x="191" y="-121.5" font-family="Helvetica,sans-Serif" font-size="10.00">CRYP_GetFlagStatus</text>
</a>
</g>
</g>
<!-- Node1&#45;&gt;Node7 -->
<g id="edge6" class="edge"><title>Node1&#45;&gt;Node7</title>
<path fill="none" stroke="midnightblue" d="M84.9541,-152.411C103.091,-147.506 125.368,-141.48 144.733,-136.243"/>
<polygon fill="midnightblue" stroke="midnightblue" points="145.818,-139.575 154.557,-133.586 143.99,-132.818 145.818,-139.575"/>
</g>
<!-- Node8 -->
<g id="node8" class="node"><title>Node8</title>
<g id="a_node8"><a xlink:href="a00093.html#gabe26186adf64660a4a573bd6a4368fee" target="_top" xlink:title="Returns whether CRYP peripheral is enabled or disabled. ">
<polygon fill="white" stroke="black" points="133,-76.5 133,-95.5 249,-95.5 249,-76.5 133,-76.5"/>
<text text-anchor="middle" x="191" y="-83.5" font-family="Helvetica,sans-Serif" font-size="10.00">CRYP_GetCmdStatus</text>
</a>
</g>
</g>
<!-- Node1&#45;&gt;Node8 -->
<g id="edge7" class="edge"><title>Node1&#45;&gt;Node8</title>
<path fill="none" stroke="midnightblue" d="M61.2913,-152.378C76.8969,-140.025 105.639,-118.568 133,-105 137.328,-102.854 141.955,-100.862 146.633,-99.0397"/>
<polygon fill="midnightblue" stroke="midnightblue" points="148.028,-102.256 156.222,-95.5406 145.628,-95.6804 148.028,-102.256"/>
</g>
<!-- Node9 -->
<g id="node9" class="node"><title>Node9</title>
<g id="a_node9"><a xlink:href="a00093.html#ga16dc76244318d464357ee6ff208bf9a4" target="_top" xlink:title="Writes data in the Data Input register (DIN). ">
<polygon fill="white" stroke="black" points="151,-38.5 151,-57.5 231,-57.5 231,-38.5 151,-38.5"/>
<text text-anchor="middle" x="191" y="-45.5" font-family="Helvetica,sans-Serif" font-size="10.00">CRYP_DataIn</text>
</a>
</g>
</g>
<!-- Node1&#45;&gt;Node9 -->
<g id="edge8" class="edge"><title>Node1&#45;&gt;Node9</title>
<path fill="none" stroke="midnightblue" d="M55.3858,-152.421C67.5478,-133.401 97.319,-90.671 133,-67 135.958,-65.0376 139.137,-63.2611 142.426,-61.6559"/>
<polygon fill="midnightblue" stroke="midnightblue" points="144.096,-64.7472 151.893,-57.5732 141.324,-58.3194 144.096,-64.7472"/>
</g>
<!-- Node10 -->
<g id="node10" class="node"><title>Node10</title>
<g id="a_node10"><a xlink:href="a00093.html#gacbe5fcf4c7e4919192376fa615588b54" target="_top" xlink:title="Returns the last data entered into the output FIFO. ">
<polygon fill="white" stroke="black" points="147.5,-0.5 147.5,-19.5 234.5,-19.5 234.5,-0.5 147.5,-0.5"/>
<text text-anchor="middle" x="191" y="-7.5" font-family="Helvetica,sans-Serif" font-size="10.00">CRYP_DataOut</text>
</a>
</g>
</g>
<!-- Node1&#45;&gt;Node10 -->
<g id="edge9" class="edge"><title>Node1&#45;&gt;Node10</title>
<path fill="none" stroke="midnightblue" d="M52.8888,-152.379C61.945,-128.044 89.0519,-63.5301 133,-29 135.307,-27.1875 137.795,-25.5439 140.396,-24.054"/>
<polygon fill="midnightblue" stroke="midnightblue" points="142.137,-27.0987 149.58,-19.5584 139.06,-20.8116 142.137,-27.0987"/>
</g>
</g>
</svg>
