<?xml version="1.0" encoding="UTF-8" standalone="no"?>
<!DOCTYPE svg PUBLIC "-//W3C//DTD SVG 1.1//EN"
 "http://www.w3.org/Graphics/SVG/1.1/DTD/svg11.dtd">
<!-- Generated by graphviz version 2.38.0 (20140413.2041)
 -->
<!-- Title: DMA_DeInit Pages: 1 -->
<svg width="414pt" height="142pt"
 viewBox="0.00 0.00 414.00 142.00" xmlns="http://www.w3.org/2000/svg" xmlns:xlink="http://www.w3.org/1999/xlink">
<g id="graph0" class="graph" transform="scale(1 1) rotate(0) translate(4 138)">
<title>DMA_DeInit</title>
<polygon fill="white" stroke="none" points="-4,4 -4,-138 410,-138 410,4 -4,4"/>
<!-- Node1 -->
<g id="node1" class="node"><title>Node1</title>
<polygon fill="#bfbfbf" stroke="black" points="0,-57.5 0,-76.5 71,-76.5 71,-57.5 0,-57.5"/>
<text text-anchor="middle" x="35.5" y="-64.5" font-family="Helvetica,sans-Serif" font-size="10.00">DMA_DeInit</text>
</g>
<!-- Node2 -->
<g id="node2" class="node"><title>Node2</title>
<g id="a_node2"><a xlink:href="a01221.html#gaf46f7f55713090d0d01917f8b4cf12d4" target="_top" xlink:title="DAC Channel Escalator Configuration. ">
<polygon fill="white" stroke="black" points="107,-114.5 107,-133.5 246,-133.5 246,-114.5 107,-114.5"/>
<text text-anchor="middle" x="176.5" y="-121.5" font-family="Helvetica,sans-Serif" font-size="10.00">DAC_CHx_EscalatorConfig</text>
</a>
</g>
</g>
<!-- Node1&#45;&gt;Node2 -->
<g id="edge1" class="edge"><title>Node1&#45;&gt;Node2</title>
<path fill="none" stroke="midnightblue" d="M60.9286,-81.9225C74.2064,-89.5784 91.1182,-98.6111 107,-105 115.931,-108.593 125.778,-111.76 135.155,-114.427"/>
<polygon fill="midnightblue" stroke="midnightblue" points="62.3626,-78.7052 51.9693,-76.6486 58.8116,-84.7377 62.3626,-78.7052"/>
</g>
<!-- Node3 -->
<g id="node3" class="node"><title>Node3</title>
<g id="a_node3"><a xlink:href="a01269.html#gad273dc4b4b26574e92666e4020e1ef5a" target="_top" xlink:title="Timer&#45;triggered ADC&#45;scan mode with DMA to memory. ">
<polygon fill="white" stroke="black" points="108.5,-76.5 108.5,-95.5 244.5,-95.5 244.5,-76.5 108.5,-76.5"/>
<text text-anchor="middle" x="176.5" y="-83.5" font-family="Helvetica,sans-Serif" font-size="10.00">TIM2_DMA_Trigger_Config</text>
</a>
</g>
</g>
<!-- Node1&#45;&gt;Node3 -->
<g id="edge2" class="edge"><title>Node1&#45;&gt;Node3</title>
<path fill="none" stroke="midnightblue" d="M81.1389,-73.1017C89.8599,-74.2938 99.1824,-75.5681 108.447,-76.8345"/>
<polygon fill="midnightblue" stroke="midnightblue" points="81.5989,-69.6321 71.217,-71.7455 80.6508,-76.5676 81.5989,-69.6321"/>
</g>
<!-- Node5 -->
<g id="node5" class="node"><title>Node5</title>
<g id="a_node5"><a xlink:href="a00584.html#gaa82fb17e228a5107ba4008a58333c646" target="_top" xlink:title="Deinitializes USART DMA TX functionality. ">
<polygon fill="white" stroke="black" points="112,-38.5 112,-57.5 241,-57.5 241,-38.5 112,-38.5"/>
<text text-anchor="middle" x="176.5" y="-45.5" font-family="Helvetica,sans-Serif" font-size="10.00">TM_USART_DMA_Deinit</text>
</a>
</g>
</g>
<!-- Node1&#45;&gt;Node5 -->
<g id="edge4" class="edge"><title>Node1&#45;&gt;Node5</title>
<path fill="none" stroke="midnightblue" d="M81.3932,-60.8635C91.075,-59.5401 101.488,-58.1167 111.734,-56.7162"/>
<polygon fill="midnightblue" stroke="midnightblue" points="80.6508,-57.4324 71.217,-62.2545 81.5989,-64.3679 80.6508,-57.4324"/>
</g>
<!-- Node6 -->
<g id="node6" class="node"><title>Node6</title>
<g id="a_node6"><a xlink:href="a00584.html#ga99719473dd4a8863caff947e0753aa53" target="_top" xlink:title="Sends data over USART with DMA TX functionality. ">
<polygon fill="white" stroke="black" points="113.5,-0.5 113.5,-19.5 239.5,-19.5 239.5,-0.5 113.5,-0.5"/>
<text text-anchor="middle" x="176.5" y="-7.5" font-family="Helvetica,sans-Serif" font-size="10.00">TM_USART_DMA_Send</text>
</a>
</g>
</g>
<!-- Node1&#45;&gt;Node6 -->
<g id="edge5" class="edge"><title>Node1&#45;&gt;Node6</title>
<path fill="none" stroke="midnightblue" d="M60.9286,-52.0775C74.2064,-44.4216 91.1182,-35.3889 107,-29 115.931,-25.4074 125.778,-22.2402 135.155,-19.5726"/>
<polygon fill="midnightblue" stroke="midnightblue" points="58.8116,-49.2623 51.9693,-57.3514 62.3626,-55.2948 58.8116,-49.2623"/>
</g>
<!-- Node4 -->
<g id="node4" class="node"><title>Node4</title>
<g id="a_node4"><a xlink:href="a01285.html#ga840291bc02cba5474a4cb46a9b9566fe" target="_top" xlink:title="Main function entry. ">
<polygon fill="white" stroke="black" points="325,-76.5 325,-95.5 363,-95.5 363,-76.5 325,-76.5"/>
<text text-anchor="middle" x="344" y="-83.5" font-family="Helvetica,sans-Serif" font-size="10.00">main</text>
</a>
</g>
</g>
<!-- Node3&#45;&gt;Node4 -->
<g id="edge3" class="edge"><title>Node3&#45;&gt;Node4</title>
<path fill="none" stroke="midnightblue" d="M255.093,-86C281.051,-86 307.69,-86 324.736,-86"/>
<polygon fill="midnightblue" stroke="midnightblue" points="254.815,-82.5001 244.815,-86 254.815,-89.5001 254.815,-82.5001"/>
</g>
<!-- Node7 -->
<g id="node7" class="node"><title>Node7</title>
<g id="a_node7"><a xlink:href="a00584.html#ga1b330f016fec0d9f315155e53dbb1c71" target="_top" xlink:title="Puts string to USART port with DMA. ">
<polygon fill="white" stroke="black" points="282,-0.5 282,-19.5 406,-19.5 406,-0.5 282,-0.5"/>
<text text-anchor="middle" x="344" y="-7.5" font-family="Helvetica,sans-Serif" font-size="10.00">TM_USART_DMA_Puts</text>
</a>
</g>
</g>
<!-- Node6&#45;&gt;Node7 -->
<g id="edge6" class="edge"><title>Node6&#45;&gt;Node7</title>
<path fill="none" stroke="midnightblue" d="M249.781,-10C260.504,-10 271.466,-10 281.929,-10"/>
<polygon fill="midnightblue" stroke="midnightblue" points="249.597,-6.5001 239.597,-10 249.597,-13.5001 249.597,-6.5001"/>
</g>
</g>
</svg>
