<?xml version="1.0" encoding="UTF-8" standalone="no"?>
<!DOCTYPE svg PUBLIC "-//W3C//DTD SVG 1.1//EN"
 "http://www.w3.org/Graphics/SVG/1.1/DTD/svg11.dtd">
<!-- Generated by graphviz version 2.38.0 (20140413.2041)
 -->
<!-- Title: ADC_DeInit Pages: 1 -->
<svg width="324pt" height="28pt"
 viewBox="0.00 0.00 324.00 28.00" xmlns="http://www.w3.org/2000/svg" xmlns:xlink="http://www.w3.org/1999/xlink">
<g id="graph0" class="graph" transform="scale(1 1) rotate(0) translate(4 24)">
<title>ADC_DeInit</title>
<polygon fill="white" stroke="none" points="-4,4 -4,-24 320,-24 320,4 -4,4"/>
<!-- Node1 -->
<g id="node1" class="node"><title>Node1</title>
<polygon fill="#bfbfbf" stroke="black" points="0,-0.5 0,-19.5 70,-19.5 70,-0.5 0,-0.5"/>
<text text-anchor="middle" x="35" y="-7.5" font-family="Helvetica,sans-Serif" font-size="10.00">ADC_DeInit</text>
</g>
<!-- Node2 -->
<g id="node2" class="node"><title>Node2</title>
<g id="a_node2"><a xlink:href="a01269.html#gad273dc4b4b26574e92666e4020e1ef5a" target="_top" xlink:title="Timer&#45;triggered ADC&#45;scan mode with DMA to memory. ">
<polygon fill="white" stroke="black" points="106,-0.5 106,-19.5 242,-19.5 242,-0.5 106,-0.5"/>
<text text-anchor="middle" x="174" y="-7.5" font-family="Helvetica,sans-Serif" font-size="10.00">TIM2_DMA_Trigger_Config</text>
</a>
</g>
</g>
<!-- Node1&#45;&gt;Node2 -->
<g id="edge1" class="edge"><title>Node1&#45;&gt;Node2</title>
<path fill="none" stroke="midnightblue" d="M80.2552,-10C88.4365,-10 97.1476,-10 105.83,-10"/>
<polygon fill="midnightblue" stroke="midnightblue" points="80.2175,-6.5001 70.2175,-10 80.2175,-13.5001 80.2175,-6.5001"/>
</g>
<!-- Node3 -->
<g id="node3" class="node"><title>Node3</title>
<g id="a_node3"><a xlink:href="a01285.html#ga840291bc02cba5474a4cb46a9b9566fe" target="_top" xlink:title="Main function entry. ">
<polygon fill="white" stroke="black" points="278,-0.5 278,-19.5 316,-19.5 316,-0.5 278,-0.5"/>
<text text-anchor="middle" x="297" y="-7.5" font-family="Helvetica,sans-Serif" font-size="10.00">main</text>
</a>
</g>
</g>
<!-- Node2&#45;&gt;Node3 -->
<g id="edge2" class="edge"><title>Node2&#45;&gt;Node3</title>
<path fill="none" stroke="midnightblue" d="M252.49,-10C261.785,-10 270.497,-10 277.647,-10"/>
<polygon fill="midnightblue" stroke="midnightblue" points="252.223,-6.5001 242.223,-10 252.223,-13.5001 252.223,-6.5001"/>
</g>
</g>
</svg>
