<?xml version="1.0" encoding="UTF-8" standalone="no"?>
<!DOCTYPE svg PUBLIC "-//W3C//DTD SVG 1.1//EN"
 "http://www.w3.org/Graphics/SVG/1.1/DTD/svg11.dtd">
<!-- Generated by graphviz version 2.38.0 (20140413.2041)
 -->
<!-- Title: ADC_SoftwareStartConv Pages: 1 -->
<svg width="381pt" height="47pt"
 viewBox="0.00 0.00 381.00 47.00" xmlns="http://www.w3.org/2000/svg" xmlns:xlink="http://www.w3.org/1999/xlink">
<g id="graph0" class="graph" transform="scale(1 1) rotate(0) translate(4 43)">
<title>ADC_SoftwareStartConv</title>
<polygon fill="white" stroke="none" points="-4,4 -4,-43 377,-43 377,4 -4,4"/>
<!-- Node1 -->
<g id="node1" class="node"><title>Node1</title>
<polygon fill="#bfbfbf" stroke="black" points="0,-19.5 0,-38.5 127,-38.5 127,-19.5 0,-19.5"/>
<text text-anchor="middle" x="63.5" y="-26.5" font-family="Helvetica,sans-Serif" font-size="10.00">ADC_SoftwareStartConv</text>
</g>
<!-- Node2 -->
<g id="node2" class="node"><title>Node2</title>
<g id="a_node2"><a xlink:href="a01285.html#ga840291bc02cba5474a4cb46a9b9566fe" target="_top" xlink:title="Main function entry. ">
<polygon fill="white" stroke="black" points="335,-19.5 335,-38.5 373,-38.5 373,-19.5 335,-19.5"/>
<text text-anchor="middle" x="354" y="-26.5" font-family="Helvetica,sans-Serif" font-size="10.00">main</text>
</a>
</g>
</g>
<!-- Node1&#45;&gt;Node2 -->
<g id="edge1" class="edge"><title>Node1&#45;&gt;Node2</title>
<path fill="none" stroke="midnightblue" d="M137.452,-29C203.452,-29 296.054,-29 334.816,-29"/>
<polygon fill="midnightblue" stroke="midnightblue" points="137.1,-25.5001 127.1,-29 137.1,-32.5001 137.1,-25.5001"/>
</g>
<!-- Node3 -->
<g id="node3" class="node"><title>Node3</title>
<g id="a_node3"><a xlink:href="a01269.html#gad273dc4b4b26574e92666e4020e1ef5a" target="_top" xlink:title="Timer&#45;triggered ADC&#45;scan mode with DMA to memory. ">
<polygon fill="white" stroke="black" points="163,-0.5 163,-19.5 299,-19.5 299,-0.5 163,-0.5"/>
<text text-anchor="middle" x="231" y="-7.5" font-family="Helvetica,sans-Serif" font-size="10.00">TIM2_DMA_Trigger_Config</text>
</a>
</g>
</g>
<!-- Node1&#45;&gt;Node3 -->
<g id="edge2" class="edge"><title>Node1&#45;&gt;Node3</title>
<path fill="none" stroke="midnightblue" d="M137.068,-20.6689C145.664,-19.6821 154.409,-18.6782 162.923,-17.7006"/>
<polygon fill="midnightblue" stroke="midnightblue" points="136.604,-17.1991 127.068,-21.8169 137.402,-24.1534 136.604,-17.1991"/>
</g>
<!-- Node3&#45;&gt;Node2 -->
<g id="edge3" class="edge"><title>Node3&#45;&gt;Node2</title>
<path fill="none" stroke="midnightblue" d="M302.851,-21.1253C314.648,-22.9778 325.904,-24.7452 334.752,-26.1346"/>
<polygon fill="midnightblue" stroke="midnightblue" points="303.276,-17.6494 292.854,-19.5557 302.19,-24.5646 303.276,-17.6494"/>
</g>
</g>
</svg>
