<?xml version="1.0" encoding="UTF-8" standalone="no"?>
<!DOCTYPE svg PUBLIC "-//W3C//DTD SVG 1.1//EN"
 "http://www.w3.org/Graphics/SVG/1.1/DTD/svg11.dtd">
<!-- Generated by graphviz version 2.38.0 (20140413.2041)
 -->
<!-- Title: EXTI_Private_Functions Pages: 1 -->
<svg width="362pt" height="88pt"
 viewBox="0.00 0.00 362.00 88.00" xmlns="http://www.w3.org/2000/svg" xmlns:xlink="http://www.w3.org/1999/xlink">
<g id="graph0" class="graph" transform="scale(1 1) rotate(0) translate(4 84)">
<title>EXTI_Private_Functions</title>
<polygon fill="white" stroke="none" points="-4,4 -4,-84 358,-84 358,4 -4,4"/>
<!-- Node2 -->
<g id="node1" class="node"><title>Node2</title>
<g id="a_node1"><a xlink:href="a01007.html" target="_top" xlink:title="Initialization and Configuration functions. ">
<polygon fill="white" stroke="black" points="234,-49.5 234,-79.5 354,-79.5 354,-49.5 234,-49.5"/>
<text text-anchor="start" x="242" y="-67.5" font-family="Helvetica,sans-Serif" font-size="10.00">Initialization and</text>
<text text-anchor="middle" x="294" y="-56.5" font-family="Helvetica,sans-Serif" font-size="10.00"> Configuration functions</text>
</a>
</g>
</g>
<!-- Node3 -->
<g id="node2" class="node"><title>Node3</title>
<g id="a_node2"><a xlink:href="a01008.html" target="_top" xlink:title="Interrupts and flags management functions. ">
<polygon fill="white" stroke="black" points="234.5,-0.5 234.5,-30.5 353.5,-30.5 353.5,-0.5 234.5,-0.5"/>
<text text-anchor="start" x="242.5" y="-18.5" font-family="Helvetica,sans-Serif" font-size="10.00">Interrupts and flags</text>
<text text-anchor="middle" x="294" y="-7.5" font-family="Helvetica,sans-Serif" font-size="10.00"> management functions</text>
</a>
</g>
</g>
<!-- Node1 -->
<g id="node3" class="node"><title>Node1</title>
<g id="a_node3"><a xlink:href="a00100.html" target="_top" xlink:title="EXTI driver modules. ">
<polygon fill="white" stroke="black" points="0,-30 0,-49 39,-49 39,-30 0,-30"/>
<text text-anchor="middle" x="19.5" y="-37" font-family="Helvetica,sans-Serif" font-size="10.00">EXTI</text>
</a>
</g>
</g>
<!-- Node0 -->
<g id="node4" class="node"><title>Node0</title>
<polygon fill="#bfbfbf" stroke="black" points="75,-30 75,-49 198,-49 198,-30 75,-30"/>
<text text-anchor="middle" x="136.5" y="-37" font-family="Helvetica,sans-Serif" font-size="10.00">EXTI_Private_Functions</text>
</g>
<!-- Node1&#45;&gt;Node0 -->
<g id="edge1" class="edge"><title>Node1&#45;&gt;Node0</title>
<path fill="none" stroke="black" d="M49.3047,-39.5C57.1911,-39.5 66.0459,-39.5 74.9979,-39.5"/>
<polygon fill="black" stroke="black" points="49.2327,-36.0001 39.2327,-39.5 49.2326,-43.0001 49.2327,-36.0001"/>
</g>
<!-- Node0&#45;&gt;Node2 -->
<g id="edge2" class="edge"><title>Node0&#45;&gt;Node2</title>
<path fill="none" stroke="black" d="M206.847,-50.6491C215.888,-52.1026 225.082,-53.5808 233.933,-55.0037"/>
<polygon fill="black" stroke="black" points="207.16,-47.1545 196.731,-49.0227 206.049,-54.0658 207.16,-47.1545"/>
</g>
<!-- Node0&#45;&gt;Node3 -->
<g id="edge3" class="edge"><title>Node0&#45;&gt;Node3</title>
<path fill="none" stroke="black" d="M207.962,-28.6248C216.797,-27.2612 225.759,-25.8781 234.385,-24.5467"/>
<polygon fill="black" stroke="black" points="207.415,-25.1678 198.066,-30.1523 208.483,-32.0859 207.415,-25.1678"/>
</g>
</g>
</svg>
