<?xml version="1.0" encoding="UTF-8" standalone="no"?>
<!DOCTYPE svg PUBLIC "-//W3C//DTD SVG 1.1//EN"
 "http://www.w3.org/Graphics/SVG/1.1/DTD/svg11.dtd">
<!-- Generated by graphviz version 2.38.0 (20140413.2041)
 -->
<!-- Title: ADC_ITConfig Pages: 1 -->
<svg width="335pt" height="66pt"
 viewBox="0.00 0.00 335.00 66.00" xmlns="http://www.w3.org/2000/svg" xmlns:xlink="http://www.w3.org/1999/xlink">
<g id="graph0" class="graph" transform="scale(1 1) rotate(0) translate(4 62)">
<title>ADC_ITConfig</title>
<polygon fill="white" stroke="none" points="-4,4 -4,-62 331,-62 331,4 -4,4"/>
<!-- Node1 -->
<g id="node1" class="node"><title>Node1</title>
<polygon fill="#bfbfbf" stroke="black" points="0,-19.5 0,-38.5 81,-38.5 81,-19.5 0,-19.5"/>
<text text-anchor="middle" x="40.5" y="-26.5" font-family="Helvetica,sans-Serif" font-size="10.00">ADC_ITConfig</text>
</g>
<!-- Node2 -->
<g id="node2" class="node"><title>Node2</title>
<g id="a_node2"><a xlink:href="a01266.html#ga5c12343e267ace8587309499bea6babe" target="_top" xlink:title="Provides the initial configuration method for the nested vector interrupt controller. ">
<polygon fill="white" stroke="black" points="133,-38.5 133,-57.5 237,-57.5 237,-38.5 133,-38.5"/>
<text text-anchor="middle" x="185" y="-45.5" font-family="Helvetica,sans-Serif" font-size="10.00">NVIC_Configuration</text>
</a>
</g>
</g>
<!-- Node1&#45;&gt;Node2 -->
<g id="edge1" class="edge"><title>Node1&#45;&gt;Node2</title>
<path fill="none" stroke="midnightblue" d="M91.2221,-35.6296C104.671,-37.4227 119.248,-39.3664 132.778,-41.1703"/>
<polygon fill="midnightblue" stroke="midnightblue" points="91.5691,-32.145 81.1942,-34.2926 90.6439,-39.0836 91.5691,-32.145"/>
</g>
<!-- Node4 -->
<g id="node4" class="node"><title>Node4</title>
<g id="a_node4"><a xlink:href="a01269.html#gad273dc4b4b26574e92666e4020e1ef5a" target="_top" xlink:title="Timer&#45;triggered ADC&#45;scan mode with DMA to memory. ">
<polygon fill="white" stroke="black" points="117,-0.5 117,-19.5 253,-19.5 253,-0.5 117,-0.5"/>
<text text-anchor="middle" x="185" y="-7.5" font-family="Helvetica,sans-Serif" font-size="10.00">TIM2_DMA_Trigger_Config</text>
</a>
</g>
</g>
<!-- Node1&#45;&gt;Node4 -->
<g id="edge3" class="edge"><title>Node1&#45;&gt;Node4</title>
<path fill="none" stroke="midnightblue" d="M91.1222,-22.3837C99.468,-21.2709 108.251,-20.0999 116.95,-18.94"/>
<polygon fill="midnightblue" stroke="midnightblue" points="90.6439,-18.9164 81.1942,-23.7074 91.5691,-25.855 90.6439,-18.9164"/>
</g>
<!-- Node3 -->
<g id="node3" class="node"><title>Node3</title>
<g id="a_node3"><a xlink:href="a01285.html#ga840291bc02cba5474a4cb46a9b9566fe" target="_top" xlink:title="Main function entry. ">
<polygon fill="white" stroke="black" points="289,-19.5 289,-38.5 327,-38.5 327,-19.5 289,-19.5"/>
<text text-anchor="middle" x="308" y="-26.5" font-family="Helvetica,sans-Serif" font-size="10.00">main</text>
</a>
</g>
</g>
<!-- Node2&#45;&gt;Node3 -->
<g id="edge2" class="edge"><title>Node2&#45;&gt;Node3</title>
<path fill="none" stroke="midnightblue" d="M247.247,-38.3827C262.408,-36.002 277.507,-33.6312 288.734,-31.8683"/>
<polygon fill="midnightblue" stroke="midnightblue" points="246.651,-34.9333 237.315,-39.9423 247.737,-41.8486 246.651,-34.9333"/>
</g>
<!-- Node4&#45;&gt;Node3 -->
<g id="edge4" class="edge"><title>Node4&#45;&gt;Node3</title>
<path fill="none" stroke="midnightblue" d="M256.851,-21.1253C268.648,-22.9778 279.904,-24.7452 288.752,-26.1346"/>
<polygon fill="midnightblue" stroke="midnightblue" points="257.276,-17.6494 246.854,-19.5557 256.19,-24.5646 257.276,-17.6494"/>
</g>
</g>
</svg>
