<?xml version="1.0" encoding="UTF-8" standalone="no"?>
<!DOCTYPE svg PUBLIC "-//W3C//DTD SVG 1.1//EN"
 "http://www.w3.org/Graphics/SVG/1.1/DTD/svg11.dtd">
<!-- Generated by graphviz version 2.38.0 (20140413.2041)
 -->
<!-- Title: I2C_Private_Functions Pages: 1 -->
<svg width="371pt" height="214pt"
 viewBox="0.00 0.00 371.00 214.00" xmlns="http://www.w3.org/2000/svg" xmlns:xlink="http://www.w3.org/1999/xlink">
<g id="graph0" class="graph" transform="scale(1 1) rotate(0) translate(4 210)">
<title>I2C_Private_Functions</title>
<polygon fill="white" stroke="none" points="-4,4 -4,-210 367,-210 367,4 -4,4"/>
<!-- Node0 -->
<g id="node1" class="node"><title>Node0</title>
<polygon fill="#bfbfbf" stroke="black" points="68,-99 68,-118 184,-118 184,-99 68,-99"/>
<text text-anchor="middle" x="126" y="-106" font-family="Helvetica,sans-Serif" font-size="10.00">I2C_Private_Functions</text>
</g>
<!-- Node2 -->
<g id="node3" class="node"><title>Node2</title>
<g id="a_node3"><a xlink:href="a01030.html" target="_top" xlink:title="Initialization and Configuration functions. ">
<polygon fill="white" stroke="black" points="231.5,-175.5 231.5,-205.5 351.5,-205.5 351.5,-175.5 231.5,-175.5"/>
<text text-anchor="start" x="239.5" y="-193.5" font-family="Helvetica,sans-Serif" font-size="10.00">Initialization and</text>
<text text-anchor="middle" x="291.5" y="-182.5" font-family="Helvetica,sans-Serif" font-size="10.00"> Configuration functions</text>
</a>
</g>
</g>
<!-- Node0&#45;&gt;Node2 -->
<g id="edge2" class="edge"><title>Node0&#45;&gt;Node2</title>
<path fill="none" stroke="black" d="M149.187,-123.93C167.577,-136.264 194.707,-153.428 220,-165.5 227.501,-169.08 235.657,-172.433 243.673,-175.448"/>
<polygon fill="black" stroke="black" points="150.903,-120.865 140.665,-118.14 146.969,-126.655 150.903,-120.865"/>
</g>
<!-- Node3 -->
<g id="node4" class="node"><title>Node3</title>
<g id="a_node4"><a xlink:href="a01031.html" target="_top" xlink:title="Data transfers functions. ">
<polygon fill="white" stroke="black" points="230.5,-137 230.5,-156 352.5,-156 352.5,-137 230.5,-137"/>
<text text-anchor="middle" x="291.5" y="-144" font-family="Helvetica,sans-Serif" font-size="10.00">Data transfers functions</text>
</a>
</g>
</g>
<!-- Node0&#45;&gt;Node3 -->
<g id="edge3" class="edge"><title>Node0&#45;&gt;Node3</title>
<path fill="none" stroke="black" d="M178.184,-120.396C201.166,-125.737 227.913,-131.954 249.539,-136.98"/>
<polygon fill="black" stroke="black" points="178.791,-116.944 168.258,-118.089 177.206,-123.762 178.791,-116.944"/>
</g>
<!-- Node4 -->
<g id="node5" class="node"><title>Node4</title>
<g id="a_node5"><a xlink:href="a01032.html" target="_top" xlink:title="PEC management functions. ">
<polygon fill="white" stroke="black" points="221.5,-99 221.5,-118 361.5,-118 361.5,-99 221.5,-99"/>
<text text-anchor="middle" x="291.5" y="-106" font-family="Helvetica,sans-Serif" font-size="10.00">PEC management functions</text>
</a>
</g>
</g>
<!-- Node0&#45;&gt;Node4 -->
<g id="edge4" class="edge"><title>Node0&#45;&gt;Node4</title>
<path fill="none" stroke="black" d="M194.443,-108.5C203.295,-108.5 212.377,-108.5 221.258,-108.5"/>
<polygon fill="black" stroke="black" points="194.184,-105 184.184,-108.5 194.184,-112 194.184,-105"/>
</g>
<!-- Node5 -->
<g id="node6" class="node"><title>Node5</title>
<g id="a_node6"><a xlink:href="a01033.html" target="_top" xlink:title="DMA transfers management functions. ">
<polygon fill="white" stroke="black" points="221.5,-49.5 221.5,-79.5 361.5,-79.5 361.5,-49.5 221.5,-49.5"/>
<text text-anchor="start" x="229.5" y="-67.5" font-family="Helvetica,sans-Serif" font-size="10.00">DMA transfers management</text>
<text text-anchor="middle" x="291.5" y="-56.5" font-family="Helvetica,sans-Serif" font-size="10.00"> functions</text>
</a>
</g>
</g>
<!-- Node0&#45;&gt;Node5 -->
<g id="edge5" class="edge"><title>Node0&#45;&gt;Node5</title>
<path fill="none" stroke="black" d="M172.218,-96.3313C191.498,-91.1426 214.192,-85.0354 234.518,-79.5654"/>
<polygon fill="black" stroke="black" points="171.224,-92.9742 162.477,-98.9527 173.043,-99.7337 171.224,-92.9742"/>
</g>
<!-- Node6 -->
<g id="node7" class="node"><title>Node6</title>
<g id="a_node7"><a xlink:href="a01034.html" target="_top" xlink:title="Interrupts, events and flags management functions. ">
<polygon fill="white" stroke="black" points="220,-0.5 220,-30.5 363,-30.5 363,-0.5 220,-0.5"/>
<text text-anchor="start" x="228" y="-18.5" font-family="Helvetica,sans-Serif" font-size="10.00">Interrupts events and</text>
<text text-anchor="middle" x="291.5" y="-7.5" font-family="Helvetica,sans-Serif" font-size="10.00"> flags management functions</text>
</a>
</g>
</g>
<!-- Node0&#45;&gt;Node6 -->
<g id="edge6" class="edge"><title>Node0&#45;&gt;Node6</title>
<path fill="none" stroke="black" d="M145.632,-91.9298C163.62,-76.6238 192.156,-54.1102 220,-39.5 226.297,-36.1959 233.142,-33.2038 240.01,-30.542"/>
<polygon fill="black" stroke="black" points="142.968,-89.6071 137.698,-98.7985 147.549,-94.8994 142.968,-89.6071"/>
</g>
<!-- Node1 -->
<g id="node2" class="node"><title>Node1</title>
<g id="a_node2"><a xlink:href="a00104.html" target="_top" xlink:title="I2C driver modules. ">
<polygon fill="white" stroke="black" points="0,-99 0,-118 32,-118 32,-99 0,-99"/>
<text text-anchor="middle" x="16" y="-106" font-family="Helvetica,sans-Serif" font-size="10.00">I2C</text>
</a>
</g>
</g>
<!-- Node1&#45;&gt;Node0 -->
<g id="edge1" class="edge"><title>Node1&#45;&gt;Node0</title>
<path fill="none" stroke="black" d="M42.1085,-108.5C49.8495,-108.5 58.7133,-108.5 67.6993,-108.5"/>
<polygon fill="black" stroke="black" points="42.017,-105 32.0169,-108.5 42.0169,-112 42.017,-105"/>
</g>
</g>
</svg>
