<?xml version="1.0" encoding="UTF-8" standalone="no"?>
<!DOCTYPE svg PUBLIC "-//W3C//DTD SVG 1.1//EN"
 "http://www.w3.org/Graphics/SVG/1.1/DTD/svg11.dtd">
<!-- Generated by graphviz version 2.38.0 (20140413.2041)
 -->
<!-- Title: SDIO_Private_Functions Pages: 1 -->
<svg width="403pt" height="343pt"
 viewBox="0.00 0.00 403.00 343.00" xmlns="http://www.w3.org/2000/svg" xmlns:xlink="http://www.w3.org/1999/xlink">
<g id="graph0" class="graph" transform="scale(1 1) rotate(0) translate(4 339)">
<title>SDIO_Private_Functions</title>
<polygon fill="white" stroke="none" points="-4,4 -4,-339 399,-339 399,4 -4,4"/>
<!-- Node0 -->
<g id="node1" class="node"><title>Node0</title>
<polygon fill="#bfbfbf" stroke="black" points="77,-153 77,-172 202,-172 202,-153 77,-153"/>
<text text-anchor="middle" x="139.5" y="-160" font-family="Helvetica,sans-Serif" font-size="10.00">SDIO_Private_Functions</text>
</g>
<!-- Node2 -->
<g id="node3" class="node"><title>Node2</title>
<g id="a_node3"><a xlink:href="a01075.html" target="_top" xlink:title="Initialization and Configuration functions. ">
<polygon fill="white" stroke="black" points="256.5,-304.5 256.5,-334.5 376.5,-334.5 376.5,-304.5 256.5,-304.5"/>
<text text-anchor="start" x="264.5" y="-322.5" font-family="Helvetica,sans-Serif" font-size="10.00">Initialization and</text>
<text text-anchor="middle" x="316.5" y="-311.5" font-family="Helvetica,sans-Serif" font-size="10.00"> Configuration functions</text>
</a>
</g>
</g>
<!-- Node0&#45;&gt;Node2 -->
<g id="edge2" class="edge"><title>Node0&#45;&gt;Node2</title>
<path fill="none" stroke="black" d="M149.265,-181.179C163.715,-209.966 195.247,-265.026 238,-295.5 243.62,-299.506 249.928,-302.858 256.455,-305.659"/>
<polygon fill="black" stroke="black" points="152.405,-179.631 144.877,-172.176 146.113,-182.699 152.405,-179.631"/>
</g>
<!-- Node3 -->
<g id="node4" class="node"><title>Node3</title>
<g id="a_node4"><a xlink:href="a01076.html" target="_top" xlink:title="Command path state machine (CPSM) management functions. ">
<polygon fill="white" stroke="black" points="239.5,-245 239.5,-286 393.5,-286 393.5,-245 239.5,-245"/>
<text text-anchor="start" x="247.5" y="-274" font-family="Helvetica,sans-Serif" font-size="10.00">Command path state</text>
<text text-anchor="start" x="247.5" y="-263" font-family="Helvetica,sans-Serif" font-size="10.00"> machine (CPSM) management</text>
<text text-anchor="middle" x="316.5" y="-252" font-family="Helvetica,sans-Serif" font-size="10.00"> functions</text>
</a>
</g>
</g>
<!-- Node0&#45;&gt;Node3 -->
<g id="edge3" class="edge"><title>Node0&#45;&gt;Node3</title>
<path fill="none" stroke="black" d="M158.636,-178.86C177.415,-195.153 208.141,-220.047 238,-236.5 243.41,-239.481 249.19,-242.279 255.061,-244.871"/>
<polygon fill="black" stroke="black" points="160.711,-176.024 150.894,-172.041 156.084,-181.277 160.711,-176.024"/>
</g>
<!-- Node4 -->
<g id="node5" class="node"><title>Node4</title>
<g id="a_node5"><a xlink:href="a01077.html" target="_top" xlink:title="Data path state machine (DPSM) management functions. ">
<polygon fill="white" stroke="black" points="238,-196.5 238,-226.5 395,-226.5 395,-196.5 238,-196.5"/>
<text text-anchor="start" x="246" y="-214.5" font-family="Helvetica,sans-Serif" font-size="10.00">Data path state machine</text>
<text text-anchor="middle" x="316.5" y="-203.5" font-family="Helvetica,sans-Serif" font-size="10.00"> (DPSM) management functions</text>
</a>
</g>
</g>
<!-- Node0&#45;&gt;Node4 -->
<g id="edge4" class="edge"><title>Node0&#45;&gt;Node4</title>
<path fill="none" stroke="black" d="M184.348,-174.778C207.835,-181.354 236.962,-189.509 261.797,-196.463"/>
<polygon fill="black" stroke="black" points="185.231,-171.39 174.657,-172.064 183.343,-178.131 185.231,-171.39"/>
</g>
<!-- Node5 -->
<g id="node6" class="node"><title>Node5</title>
<g id="a_node6"><a xlink:href="a01078.html" target="_top" xlink:title="SDIO IO Cards mode management functions. ">
<polygon fill="white" stroke="black" points="257,-147.5 257,-177.5 376,-177.5 376,-147.5 257,-147.5"/>
<text text-anchor="start" x="265" y="-165.5" font-family="Helvetica,sans-Serif" font-size="10.00">SDIO IO Cards mode</text>
<text text-anchor="middle" x="316.5" y="-154.5" font-family="Helvetica,sans-Serif" font-size="10.00"> management functions</text>
</a>
</g>
</g>
<!-- Node0&#45;&gt;Node5 -->
<g id="edge5" class="edge"><title>Node0&#45;&gt;Node5</title>
<path fill="none" stroke="black" d="M212.361,-162.5C227.214,-162.5 242.69,-162.5 256.998,-162.5"/>
<polygon fill="black" stroke="black" points="212.198,-159 202.198,-162.5 212.198,-166 212.198,-159"/>
</g>
<!-- Node6 -->
<g id="node7" class="node"><title>Node6</title>
<g id="a_node7"><a xlink:href="a01079.html" target="_top" xlink:title="CE&#45;ATA mode management functions. ">
<polygon fill="white" stroke="black" points="246.5,-98.5 246.5,-128.5 386.5,-128.5 386.5,-98.5 246.5,-98.5"/>
<text text-anchor="start" x="254.5" y="-116.5" font-family="Helvetica,sans-Serif" font-size="10.00">CE&#45;ATA mode management</text>
<text text-anchor="middle" x="316.5" y="-105.5" font-family="Helvetica,sans-Serif" font-size="10.00"> functions</text>
</a>
</g>
</g>
<!-- Node0&#45;&gt;Node6 -->
<g id="edge6" class="edge"><title>Node0&#45;&gt;Node6</title>
<path fill="none" stroke="black" d="M184.348,-150.222C207.835,-143.646 236.962,-135.491 261.797,-128.537"/>
<polygon fill="black" stroke="black" points="183.343,-146.869 174.657,-152.936 185.231,-153.61 183.343,-146.869"/>
</g>
<!-- Node7 -->
<g id="node8" class="node"><title>Node7</title>
<g id="a_node8"><a xlink:href="a01080.html" target="_top" xlink:title="DMA transfers management functions. ">
<polygon fill="white" stroke="black" points="246.5,-49.5 246.5,-79.5 386.5,-79.5 386.5,-49.5 246.5,-49.5"/>
<text text-anchor="start" x="254.5" y="-67.5" font-family="Helvetica,sans-Serif" font-size="10.00">DMA transfers management</text>
<text text-anchor="middle" x="316.5" y="-56.5" font-family="Helvetica,sans-Serif" font-size="10.00"> functions</text>
</a>
</g>
</g>
<!-- Node0&#45;&gt;Node7 -->
<g id="edge7" class="edge"><title>Node0&#45;&gt;Node7</title>
<path fill="none" stroke="black" d="M158.141,-146.044C176.739,-129.469 207.515,-104.169 238,-88.5 244.514,-85.1518 251.58,-82.1736 258.704,-79.5532"/>
<polygon fill="black" stroke="black" points="155.551,-143.668 150.498,-152.98 160.255,-148.852 155.551,-143.668"/>
</g>
<!-- Node8 -->
<g id="node9" class="node"><title>Node8</title>
<g id="a_node9"><a xlink:href="a01081.html" target="_top" xlink:title="Interrupts and flags management functions. ">
<polygon fill="white" stroke="black" points="257,-0.5 257,-30.5 376,-30.5 376,-0.5 257,-0.5"/>
<text text-anchor="start" x="265" y="-18.5" font-family="Helvetica,sans-Serif" font-size="10.00">Interrupts and flags</text>
<text text-anchor="middle" x="316.5" y="-7.5" font-family="Helvetica,sans-Serif" font-size="10.00"> management functions</text>
</a>
</g>
</g>
<!-- Node0&#45;&gt;Node8 -->
<g id="edge8" class="edge"><title>Node0&#45;&gt;Node8</title>
<path fill="none" stroke="black" d="M150.275,-144.099C165.487,-117.203 197.351,-67.3348 238,-39.5 243.695,-35.6006 250.049,-32.3146 256.601,-29.5501"/>
<polygon fill="black" stroke="black" points="147.194,-142.437 145.438,-152.886 153.326,-145.813 147.194,-142.437"/>
</g>
<!-- Node1 -->
<g id="node2" class="node"><title>Node1</title>
<g id="a_node2"><a xlink:href="a00115.html" target="_top" xlink:title="SDIO driver modules. ">
<polygon fill="white" stroke="black" points="0,-153 0,-172 41,-172 41,-153 0,-153"/>
<text text-anchor="middle" x="20.5" y="-160" font-family="Helvetica,sans-Serif" font-size="10.00">SDIO</text>
</a>
</g>
</g>
<!-- Node1&#45;&gt;Node0 -->
<g id="edge1" class="edge"><title>Node1&#45;&gt;Node0</title>
<path fill="none" stroke="black" d="M51.2128,-162.5C59.1242,-162.5 67.9714,-162.5 76.915,-162.5"/>
<polygon fill="black" stroke="black" points="51.0832,-159 41.0832,-162.5 51.0831,-166 51.0832,-159"/>
</g>
</g>
</svg>
