<?xml version="1.0" encoding="UTF-8" standalone="no"?>
<!DOCTYPE svg PUBLIC "-//W3C//DTD SVG 1.1//EN"
 "http://www.w3.org/Graphics/SVG/1.1/DTD/svg11.dtd">
<!-- Generated by graphviz version 2.38.0 (20140413.2041)
 -->
<!-- Title: LTDC_Private_Functions Pages: 1 -->
<svg width="370pt" height="88pt"
 viewBox="0.00 0.00 370.00 88.00" xmlns="http://www.w3.org/2000/svg" xmlns:xlink="http://www.w3.org/1999/xlink">
<g id="graph0" class="graph" transform="scale(1 1) rotate(0) translate(4 84)">
<title>LTDC_Private_Functions</title>
<polygon fill="white" stroke="none" points="-4,4 -4,-84 366,-84 366,4 -4,4"/>
<!-- Node0 -->
<g id="node1" class="node"><title>Node0</title>
<polygon fill="#bfbfbf" stroke="black" points="79,-30 79,-49 206,-49 206,-30 79,-30"/>
<text text-anchor="middle" x="142.5" y="-37" font-family="Helvetica,sans-Serif" font-size="10.00">LTDC_Private_Functions</text>
</g>
<!-- Node2 -->
<g id="node2" class="node"><title>Node2</title>
<g id="a_node2"><a xlink:href="a01042.html" target="_top" xlink:title="Initialization and Configuration functions. ">
<polygon fill="white" stroke="black" points="242,-49.5 242,-79.5 362,-79.5 362,-49.5 242,-49.5"/>
<text text-anchor="start" x="250" y="-67.5" font-family="Helvetica,sans-Serif" font-size="10.00">Initialization and</text>
<text text-anchor="middle" x="302" y="-56.5" font-family="Helvetica,sans-Serif" font-size="10.00"> Configuration functions</text>
</a>
</g>
</g>
<!-- Node0&#45;&gt;Node2 -->
<g id="edge2" class="edge"><title>Node0&#45;&gt;Node2</title>
<path fill="none" stroke="black" d="M213.656,-50.6359C223.106,-52.1359 232.723,-53.6624 241.955,-55.1277"/>
<polygon fill="black" stroke="black" points="213.918,-47.1338 203.493,-49.0227 212.821,-54.0472 213.918,-47.1338"/>
</g>
<!-- Node3 -->
<g id="node3" class="node"><title>Node3</title>
<g id="a_node3"><a xlink:href="a01043.html" target="_top" xlink:title="Interrupts and flags management functions. ">
<polygon fill="white" stroke="black" points="242.5,-0.5 242.5,-30.5 361.5,-30.5 361.5,-0.5 242.5,-0.5"/>
<text text-anchor="start" x="250.5" y="-18.5" font-family="Helvetica,sans-Serif" font-size="10.00">Interrupts and flags</text>
<text text-anchor="middle" x="302" y="-7.5" font-family="Helvetica,sans-Serif" font-size="10.00"> management functions</text>
</a>
</g>
</g>
<!-- Node0&#45;&gt;Node3 -->
<g id="edge3" class="edge"><title>Node0&#45;&gt;Node3</title>
<path fill="none" stroke="black" d="M216.358,-28.3979C225.069,-27.0704 233.878,-25.7281 242.354,-24.4366"/>
<polygon fill="black" stroke="black" points="215.559,-24.979 206.201,-29.9456 216.614,-31.8992 215.559,-24.979"/>
</g>
<!-- Node1 -->
<g id="node4" class="node"><title>Node1</title>
<g id="a_node4"><a xlink:href="a00107.html" target="_top" xlink:title="LTDC driver modules. ">
<polygon fill="white" stroke="black" points="0,-30 0,-49 43,-49 43,-30 0,-30"/>
<text text-anchor="middle" x="21.5" y="-37" font-family="Helvetica,sans-Serif" font-size="10.00">LTDC</text>
</a>
</g>
</g>
<!-- Node1&#45;&gt;Node0 -->
<g id="edge1" class="edge"><title>Node1&#45;&gt;Node0</title>
<path fill="none" stroke="black" d="M53.3477,-39.5C61.2226,-39.5 69.9771,-39.5 78.8255,-39.5"/>
<polygon fill="black" stroke="black" points="53.2283,-36.0001 43.2282,-39.5 53.2282,-43.0001 53.2283,-36.0001"/>
</g>
</g>
</svg>
