<?xml version="1.0" encoding="UTF-8" standalone="no"?>
<!DOCTYPE svg PUBLIC "-//W3C//DTD SVG 1.1//EN"
 "http://www.w3.org/Graphics/SVG/1.1/DTD/svg11.dtd">
<!-- Generated by graphviz version 2.38.0 (20140413.2041)
 -->
<!-- Title: CRYP_AES_CCM Pages: 1 -->
<svg width="259pt" height="408pt"
 viewBox="0.00 0.00 259.00 408.00" xmlns="http://www.w3.org/2000/svg" xmlns:xlink="http://www.w3.org/1999/xlink">
<g id="graph0" class="graph" transform="scale(1 1) rotate(0) translate(4 404)">
<title>CRYP_AES_CCM</title>
<polygon fill="white" stroke="none" points="-4,4 -4,-404 255,-404 255,4 -4,4"/>
<!-- Node1 -->
<g id="node1" class="node"><title>Node1</title>
<polygon fill="#bfbfbf" stroke="black" points="0,-190.5 0,-209.5 99,-209.5 99,-190.5 0,-190.5"/>
<text text-anchor="middle" x="49.5" y="-197.5" font-family="Helvetica,sans-Serif" font-size="10.00">CRYP_AES_CCM</text>
</g>
<!-- Node2 -->
<g id="node2" class="node"><title>Node2</title>
<g id="a_node2"><a xlink:href="a00093.html#gaeecd86b00d0d0137d97b06108789bcb2" target="_top" xlink:title="Fills each CRYP_KeyInitStruct member with its default value. ">
<polygon fill="white" stroke="black" points="139.5,-380.5 139.5,-399.5 246.5,-399.5 246.5,-380.5 139.5,-380.5"/>
<text text-anchor="middle" x="193" y="-387.5" font-family="Helvetica,sans-Serif" font-size="10.00">CRYP_KeyStructInit</text>
</a>
</g>
</g>
<!-- Node1&#45;&gt;Node2 -->
<g id="edge1" class="edge"><title>Node1&#45;&gt;Node2</title>
<path fill="none" stroke="midnightblue" d="M52.532,-209.739C59.0768,-238.696 82.3229,-325.097 135,-371 136.961,-372.709 139.081,-374.265 141.31,-375.682"/>
<polygon fill="midnightblue" stroke="midnightblue" points="139.873,-378.882 150.345,-380.487 143.16,-372.702 139.873,-378.882"/>
</g>
<!-- Node3 -->
<g id="node3" class="node"><title>Node3</title>
<g id="a_node3"><a xlink:href="a00093.html#ga23ada9d9464e1362299d7612a1409a57" target="_top" xlink:title="Flushes the IN and OUT FIFOs (that is read and write pointers of the FIFOs are reset) ...">
<polygon fill="white" stroke="black" points="144.5,-342.5 144.5,-361.5 241.5,-361.5 241.5,-342.5 144.5,-342.5"/>
<text text-anchor="middle" x="193" y="-349.5" font-family="Helvetica,sans-Serif" font-size="10.00">CRYP_FIFOFlush</text>
</a>
</g>
</g>
<!-- Node1&#45;&gt;Node3 -->
<g id="edge2" class="edge"><title>Node1&#45;&gt;Node3</title>
<path fill="none" stroke="midnightblue" d="M53.9632,-209.621C63.2072,-233.956 90.8095,-298.471 135,-333 137.312,-334.806 139.804,-336.445 142.408,-337.931"/>
<polygon fill="midnightblue" stroke="midnightblue" points="141.076,-341.176 151.598,-342.418 144.148,-334.886 141.076,-341.176"/>
</g>
<!-- Node4 -->
<g id="node4" class="node"><title>Node4</title>
<g id="a_node4"><a xlink:href="a00093.html#gad4baa3865415215cae07c9fbfa131cb9" target="_top" xlink:title="Initializes the CRYP Keys according to the specified parameters in the CRYP_KeyInitStruct. ">
<polygon fill="white" stroke="black" points="152.5,-304.5 152.5,-323.5 233.5,-323.5 233.5,-304.5 152.5,-304.5"/>
<text text-anchor="middle" x="193" y="-311.5" font-family="Helvetica,sans-Serif" font-size="10.00">CRYP_KeyInit</text>
</a>
</g>
</g>
<!-- Node1&#45;&gt;Node4 -->
<g id="edge3" class="edge"><title>Node1&#45;&gt;Node4</title>
<path fill="none" stroke="midnightblue" d="M56.4853,-209.576C68.8451,-228.59 99.062,-271.311 135,-295 137.964,-296.954 141.147,-298.724 144.439,-300.324"/>
<polygon fill="midnightblue" stroke="midnightblue" points="143.342,-303.663 153.911,-304.399 146.108,-297.232 143.342,-303.663"/>
</g>
<!-- Node5 -->
<g id="node5" class="node"><title>Node5</title>
<g id="a_node5"><a xlink:href="a00093.html#ga133964b50a07db3a32864308f6355a8b" target="_top" xlink:title="Initializes the CRYP Initialization Vectors(IV) according to the specified parameters in the CRYP_IVI...">
<polygon fill="white" stroke="black" points="156,-266.5 156,-285.5 230,-285.5 230,-266.5 156,-266.5"/>
<text text-anchor="middle" x="193" y="-273.5" font-family="Helvetica,sans-Serif" font-size="10.00">CRYP_IVInit</text>
</a>
</g>
</g>
<!-- Node1&#45;&gt;Node5 -->
<g id="edge4" class="edge"><title>Node1&#45;&gt;Node5</title>
<path fill="none" stroke="midnightblue" d="M62.4528,-209.611C78.2672,-221.953 107.377,-243.397 135,-257 139.334,-259.134 143.965,-261.118 148.644,-262.936"/>
<polygon fill="midnightblue" stroke="midnightblue" points="147.643,-266.296 158.237,-266.43 150.039,-259.719 147.643,-266.296"/>
</g>
<!-- Node6 -->
<g id="node6" class="node"><title>Node6</title>
<g id="a_node6"><a xlink:href="a00093.html#ga7b72c458d95581ab0a36be3e017fcf02" target="_top" xlink:title="Initializes the CRYP peripheral according to the specified parameters in the CRYP_InitStruct. ">
<polygon fill="white" stroke="black" points="161,-228.5 161,-247.5 225,-247.5 225,-228.5 161,-228.5"/>
<text text-anchor="middle" x="193" y="-235.5" font-family="Helvetica,sans-Serif" font-size="10.00">CRYP_Init</text>
</a>
</g>
</g>
<!-- Node1&#45;&gt;Node6 -->
<g id="edge5" class="edge"><title>Node1&#45;&gt;Node6</title>
<path fill="none" stroke="midnightblue" d="M86.2064,-209.589C105.907,-214.88 130.457,-221.473 150.947,-226.975"/>
<polygon fill="midnightblue" stroke="midnightblue" points="150.075,-230.365 160.64,-229.578 151.89,-223.604 150.075,-230.365"/>
</g>
<!-- Node7 -->
<g id="node7" class="node"><title>Node7</title>
<g id="a_node7"><a xlink:href="a00093.html#ga4370106a2baf2b8e6cb360865050a027" target="_top" xlink:title="Configures the AES&#45;CCM and AES&#45;GCM phases. ">
<polygon fill="white" stroke="black" points="139.5,-190.5 139.5,-209.5 246.5,-209.5 246.5,-190.5 139.5,-190.5"/>
<text text-anchor="middle" x="193" y="-197.5" font-family="Helvetica,sans-Serif" font-size="10.00">CRYP_PhaseConfig</text>
</a>
</g>
</g>
<!-- Node1&#45;&gt;Node7 -->
<g id="edge6" class="edge"><title>Node1&#45;&gt;Node7</title>
<path fill="none" stroke="midnightblue" d="M99.1963,-200C108.909,-200 119.239,-200 129.345,-200"/>
<polygon fill="midnightblue" stroke="midnightblue" points="129.345,-203.5 139.345,-200 129.345,-196.5 129.345,-203.5"/>
</g>
<!-- Node8 -->
<g id="node8" class="node"><title>Node8</title>
<g id="a_node8"><a xlink:href="a00093.html#ga16dc76244318d464357ee6ff208bf9a4" target="_top" xlink:title="Writes data in the Data Input register (DIN). ">
<polygon fill="white" stroke="black" points="153,-152.5 153,-171.5 233,-171.5 233,-152.5 153,-152.5"/>
<text text-anchor="middle" x="193" y="-159.5" font-family="Helvetica,sans-Serif" font-size="10.00">CRYP_DataIn</text>
</a>
</g>
</g>
<!-- Node1&#45;&gt;Node8 -->
<g id="edge7" class="edge"><title>Node1&#45;&gt;Node8</title>
<path fill="none" stroke="midnightblue" d="M86.2064,-190.411C104.473,-185.506 126.908,-179.48 146.411,-174.243"/>
<polygon fill="midnightblue" stroke="midnightblue" points="147.555,-177.56 156.305,-171.586 145.739,-170.799 147.555,-177.56"/>
</g>
<!-- Node9 -->
<g id="node9" class="node"><title>Node9</title>
<g id="a_node9"><a xlink:href="a00093.html#gad39ccd9b1f2e088e3a227d7a1c410d7c" target="_top" xlink:title="Enables or disables the CRYP peripheral. ">
<polygon fill="white" stroke="black" points="157.5,-114.5 157.5,-133.5 228.5,-133.5 228.5,-114.5 157.5,-114.5"/>
<text text-anchor="middle" x="193" y="-121.5" font-family="Helvetica,sans-Serif" font-size="10.00">CRYP_Cmd</text>
</a>
</g>
</g>
<!-- Node1&#45;&gt;Node9 -->
<g id="edge8" class="edge"><title>Node1&#45;&gt;Node9</title>
<path fill="none" stroke="midnightblue" d="M62.4528,-190.389C78.2672,-178.047 107.377,-156.603 135,-143 139.334,-140.866 143.965,-138.882 148.644,-137.064"/>
<polygon fill="midnightblue" stroke="midnightblue" points="150.039,-140.281 158.237,-133.57 147.643,-133.704 150.039,-140.281"/>
</g>
<!-- Node10 -->
<g id="node10" class="node"><title>Node10</title>
<g id="a_node10"><a xlink:href="a00093.html#gabe26186adf64660a4a573bd6a4368fee" target="_top" xlink:title="Returns whether CRYP peripheral is enabled or disabled. ">
<polygon fill="white" stroke="black" points="135,-76.5 135,-95.5 251,-95.5 251,-76.5 135,-76.5"/>
<text text-anchor="middle" x="193" y="-83.5" font-family="Helvetica,sans-Serif" font-size="10.00">CRYP_GetCmdStatus</text>
</a>
</g>
</g>
<!-- Node1&#45;&gt;Node10 -->
<g id="edge9" class="edge"><title>Node1&#45;&gt;Node10</title>
<path fill="none" stroke="midnightblue" d="M56.4853,-190.424C68.8451,-171.41 99.062,-128.689 135,-105 137.964,-103.046 141.147,-101.276 144.439,-99.6757"/>
<polygon fill="midnightblue" stroke="midnightblue" points="146.108,-102.768 153.911,-95.6012 143.342,-96.3374 146.108,-102.768"/>
</g>
<!-- Node11 -->
<g id="node11" class="node"><title>Node11</title>
<g id="a_node11"><a xlink:href="a00093.html#ga993d568b626a74b2973d4a6848a681f6" target="_top" xlink:title="Checks whether the specified CRYP flag is set or not. ">
<polygon fill="white" stroke="black" points="136.5,-38.5 136.5,-57.5 249.5,-57.5 249.5,-38.5 136.5,-38.5"/>
<text text-anchor="middle" x="193" y="-45.5" font-family="Helvetica,sans-Serif" font-size="10.00">CRYP_GetFlagStatus</text>
</a>
</g>
</g>
<!-- Node1&#45;&gt;Node11 -->
<g id="edge10" class="edge"><title>Node1&#45;&gt;Node11</title>
<path fill="none" stroke="midnightblue" d="M53.9632,-190.379C63.2072,-166.044 90.8095,-101.529 135,-67 137.312,-65.1937 139.804,-63.5549 142.408,-62.0687"/>
<polygon fill="midnightblue" stroke="midnightblue" points="144.148,-65.1142 151.598,-57.5816 141.076,-58.8239 144.148,-65.1142"/>
</g>
<!-- Node12 -->
<g id="node12" class="node"><title>Node12</title>
<g id="a_node12"><a xlink:href="a00093.html#gacbe5fcf4c7e4919192376fa615588b54" target="_top" xlink:title="Returns the last data entered into the output FIFO. ">
<polygon fill="white" stroke="black" points="149.5,-0.5 149.5,-19.5 236.5,-19.5 236.5,-0.5 149.5,-0.5"/>
<text text-anchor="middle" x="193" y="-7.5" font-family="Helvetica,sans-Serif" font-size="10.00">CRYP_DataOut</text>
</a>
</g>
</g>
<!-- Node1&#45;&gt;Node12 -->
<g id="edge11" class="edge"><title>Node1&#45;&gt;Node12</title>
<path fill="none" stroke="midnightblue" d="M52.532,-190.261C59.0768,-161.304 82.3229,-74.9034 135,-29 136.961,-27.291 139.081,-25.7347 141.31,-24.3176"/>
<polygon fill="midnightblue" stroke="midnightblue" points="143.16,-27.2983 150.345,-19.5126 139.873,-21.118 143.16,-27.2983"/>
</g>
</g>
</svg>
