<?xml version="1.0" encoding="UTF-8" standalone="no"?>
<!DOCTYPE svg PUBLIC "-//W3C//DTD SVG 1.1//EN"
 "http://www.w3.org/Graphics/SVG/1.1/DTD/svg11.dtd">
<!-- Generated by graphviz version 2.38.0 (20140413.2041)
 -->
<!-- Title: RCC_Private_Functions Pages: 1 -->
<svg width="392pt" height="208pt"
 viewBox="0.00 0.00 392.00 207.50" xmlns="http://www.w3.org/2000/svg" xmlns:xlink="http://www.w3.org/1999/xlink">
<g id="graph0" class="graph" transform="scale(1 1) rotate(0) translate(4 203.5)">
<title>RCC_Private_Functions</title>
<polygon fill="white" stroke="none" points="-4,4 -4,-203.5 388,-203.5 388,4 -4,4"/>
<!-- Node2 -->
<g id="node1" class="node"><title>Node2</title>
<g id="a_node1"><a xlink:href="a01054.html" target="_top" xlink:title="Internal and external clocks, PLL, CSS and MCO configuration functions. ">
<polygon fill="white" stroke="black" points="237,-158 237,-199 381,-199 381,-158 237,-158"/>
<text text-anchor="start" x="245" y="-187" font-family="Helvetica,sans-Serif" font-size="10.00">Internal and external</text>
<text text-anchor="start" x="245" y="-176" font-family="Helvetica,sans-Serif" font-size="10.00"> clocks, PLL, CSS and</text>
<text text-anchor="middle" x="309" y="-165" font-family="Helvetica,sans-Serif" font-size="10.00"> MCO configuration functions</text>
</a>
</g>
</g>
<!-- Node3 -->
<g id="node2" class="node"><title>Node3</title>
<g id="a_node2"><a xlink:href="a01055.html" target="_top" xlink:title="System, AHB and APB busses clocks configuration functions. ">
<polygon fill="white" stroke="black" points="238.5,-98 238.5,-139 379.5,-139 379.5,-98 238.5,-98"/>
<text text-anchor="start" x="246.5" y="-127" font-family="Helvetica,sans-Serif" font-size="10.00">System AHB and APB</text>
<text text-anchor="start" x="246.5" y="-116" font-family="Helvetica,sans-Serif" font-size="10.00"> busses clocks configuration</text>
<text text-anchor="middle" x="309" y="-105" font-family="Helvetica,sans-Serif" font-size="10.00"> functions</text>
</a>
</g>
</g>
<!-- Node4 -->
<g id="node3" class="node"><title>Node4</title>
<g id="a_node3"><a xlink:href="a01056.html" target="_top" xlink:title="Peripheral clocks configuration functions. ">
<polygon fill="white" stroke="black" points="234,-49.5 234,-79.5 384,-79.5 384,-49.5 234,-49.5"/>
<text text-anchor="start" x="242" y="-67.5" font-family="Helvetica,sans-Serif" font-size="10.00">Peripheral clocks configuration</text>
<text text-anchor="middle" x="309" y="-56.5" font-family="Helvetica,sans-Serif" font-size="10.00"> functions</text>
</a>
</g>
</g>
<!-- Node5 -->
<g id="node4" class="node"><title>Node5</title>
<g id="a_node4"><a xlink:href="a01057.html" target="_top" xlink:title="Interrupts and flags management functions. ">
<polygon fill="white" stroke="black" points="249.5,-0.5 249.5,-30.5 368.5,-30.5 368.5,-0.5 249.5,-0.5"/>
<text text-anchor="start" x="257.5" y="-18.5" font-family="Helvetica,sans-Serif" font-size="10.00">Interrupts and flags</text>
<text text-anchor="middle" x="309" y="-7.5" font-family="Helvetica,sans-Serif" font-size="10.00"> management functions</text>
</a>
</g>
</g>
<!-- Node0 -->
<g id="node5" class="node"><title>Node0</title>
<polygon fill="#bfbfbf" stroke="black" points="75,-82 75,-101 198,-101 198,-82 75,-82"/>
<text text-anchor="middle" x="136.5" y="-89" font-family="Helvetica,sans-Serif" font-size="10.00">RCC_Private_Functions</text>
</g>
<!-- Node0&#45;&gt;Node2 -->
<g id="edge2" class="edge"><title>Node0&#45;&gt;Node2</title>
<path fill="none" stroke="black" d="M160.824,-106.604C180.039,-118.719 208.22,-135.748 234,-148.5 240.586,-151.758 247.616,-154.952 254.625,-157.97"/>
<polygon fill="black" stroke="black" points="162.477,-103.507 152.162,-101.091 158.719,-109.413 162.477,-103.507"/>
</g>
<!-- Node0&#45;&gt;Node3 -->
<g id="edge3" class="edge"><title>Node0&#45;&gt;Node3</title>
<path fill="none" stroke="black" d="M207.605,-102.602C217.718,-104.203 228.125,-105.851 238.231,-107.452"/>
<polygon fill="black" stroke="black" points="208.036,-99.1264 197.612,-101.019 206.941,-106.04 208.036,-99.1264"/>
</g>
<!-- Node0&#45;&gt;Node4 -->
<g id="edge4" class="edge"><title>Node0&#45;&gt;Node4</title>
<path fill="none" stroke="black" d="M207.623,-80.3954C216.254,-79.0286 225.099,-77.628 233.788,-76.2521"/>
<polygon fill="black" stroke="black" points="206.941,-76.9597 197.612,-81.9808 208.036,-83.8736 206.941,-76.9597"/>
</g>
<!-- Node0&#45;&gt;Node5 -->
<g id="edge5" class="edge"><title>Node0&#45;&gt;Node5</title>
<path fill="none" stroke="black" d="M161.79,-76.8206C180.948,-65.6372 208.585,-50.3635 234,-39.5 241.451,-36.315 249.475,-33.3045 257.393,-30.5619"/>
<polygon fill="black" stroke="black" points="159.944,-73.846 153.113,-81.9449 163.504,-79.8734 159.944,-73.846"/>
</g>
<!-- Node1 -->
<g id="node6" class="node"><title>Node1</title>
<g id="a_node6"><a xlink:href="a00111.html" target="_top" xlink:title="RCC driver modules. ">
<polygon fill="white" stroke="black" points="0,-82 0,-101 39,-101 39,-82 0,-82"/>
<text text-anchor="middle" x="19.5" y="-89" font-family="Helvetica,sans-Serif" font-size="10.00">RCC</text>
</a>
</g>
</g>
<!-- Node1&#45;&gt;Node0 -->
<g id="edge1" class="edge"><title>Node1&#45;&gt;Node0</title>
<path fill="none" stroke="black" d="M49.3047,-91.5C57.1911,-91.5 66.0459,-91.5 74.9979,-91.5"/>
<polygon fill="black" stroke="black" points="49.2327,-88.0001 39.2327,-91.5 49.2326,-95.0001 49.2327,-88.0001"/>
</g>
</g>
</svg>
