<?xml version="1.0" encoding="UTF-8" standalone="no"?>
<!DOCTYPE svg PUBLIC "-//W3C//DTD SVG 1.1//EN"
 "http://www.w3.org/Graphics/SVG/1.1/DTD/svg11.dtd">
<!-- Generated by graphviz version 2.38.0 (20140413.2041)
 -->
<!-- Title: HASH_SHA1 Pages: 1 -->
<svg width="465pt" height="256pt"
 viewBox="0.00 0.00 465.00 256.00" xmlns="http://www.w3.org/2000/svg" xmlns:xlink="http://www.w3.org/1999/xlink">
<g id="graph0" class="graph" transform="scale(1 1) rotate(0) translate(4 252)">
<title>HASH_SHA1</title>
<polygon fill="white" stroke="none" points="-4,4 -4,-252 461,-252 461,4 -4,4"/>
<!-- Node1 -->
<g id="node1" class="node"><title>Node1</title>
<polygon fill="#bfbfbf" stroke="black" points="0,-114.5 0,-133.5 77,-133.5 77,-114.5 0,-114.5"/>
<text text-anchor="middle" x="38.5" y="-121.5" font-family="Helvetica,sans-Serif" font-size="10.00">HASH_SHA1</text>
</g>
<!-- Node2 -->
<g id="node2" class="node"><title>Node2</title>
<g id="a_node2"><a xlink:href="a00103.html#ga88717fe3a4f557182841a958e1dcd9c7" target="_top" xlink:title="De&#45;initializes the HASH peripheral registers to their default reset values. ">
<polygon fill="white" stroke="black" points="155.5,-228.5 155.5,-247.5 232.5,-247.5 232.5,-228.5 155.5,-228.5"/>
<text text-anchor="middle" x="194" y="-235.5" font-family="Helvetica,sans-Serif" font-size="10.00">HASH_DeInit</text>
</a>
</g>
</g>
<!-- Node1&#45;&gt;Node2 -->
<g id="edge1" class="edge"><title>Node1&#45;&gt;Node2</title>
<path fill="none" stroke="midnightblue" d="M44.0592,-133.559C53.8143,-152.93 78.6505,-196.85 113,-219 122.743,-225.283 134.355,-229.491 145.67,-232.31"/>
<polygon fill="midnightblue" stroke="midnightblue" points="144.967,-235.738 155.483,-234.446 146.456,-228.899 144.967,-235.738"/>
</g>
<!-- Node4 -->
<g id="node4" class="node"><title>Node4</title>
<g id="a_node4"><a xlink:href="a00103.html#ga4a7d33f0954ac0463a6cda81121635cf" target="_top" xlink:title="Initializes the HASH peripheral according to the specified parameters in the HASH_InitStruct structur...">
<polygon fill="white" stroke="black" points="162,-190.5 162,-209.5 226,-209.5 226,-190.5 162,-190.5"/>
<text text-anchor="middle" x="194" y="-197.5" font-family="Helvetica,sans-Serif" font-size="10.00">HASH_Init</text>
</a>
</g>
</g>
<!-- Node1&#45;&gt;Node4 -->
<g id="edge3" class="edge"><title>Node1&#45;&gt;Node4</title>
<path fill="none" stroke="midnightblue" d="M49.0368,-133.626C62.2377,-146.39 87.3647,-168.73 113,-181 125.091,-186.787 139.075,-190.885 151.937,-193.754"/>
<polygon fill="midnightblue" stroke="midnightblue" points="151.455,-197.228 161.953,-195.801 152.856,-190.37 151.455,-197.228"/>
</g>
<!-- Node5 -->
<g id="node5" class="node"><title>Node5</title>
<g id="a_node5"><a xlink:href="a00103.html#gac4d1fa51c9240ad0287b371564b5d2a6" target="_top" xlink:title="Configure the Number of valid bits in last word of the message. ">
<polygon fill="white" stroke="black" points="113,-152.5 113,-171.5 275,-171.5 275,-152.5 113,-152.5"/>
<text text-anchor="middle" x="194" y="-159.5" font-family="Helvetica,sans-Serif" font-size="10.00">HASH_SetLastWordValidBitsNbr</text>
</a>
</g>
</g>
<!-- Node1&#45;&gt;Node5 -->
<g id="edge4" class="edge"><title>Node1&#45;&gt;Node5</title>
<path fill="none" stroke="midnightblue" d="M75.7269,-133.517C87.5923,-136.593 100.847,-139.986 113,-143 122.461,-145.346 132.566,-147.792 142.299,-150.118"/>
<polygon fill="midnightblue" stroke="midnightblue" points="141.726,-153.58 152.264,-152.49 143.346,-146.77 141.726,-153.58"/>
</g>
<!-- Node6 -->
<g id="node6" class="node"><title>Node6</title>
<g id="a_node6"><a xlink:href="a00103.html#ga9c4c0cebdeb1ce2631dd2eeab82107ef" target="_top" xlink:title="Writes data in the Data Input FIFO. ">
<polygon fill="white" stroke="black" points="154,-114.5 154,-133.5 234,-133.5 234,-114.5 154,-114.5"/>
<text text-anchor="middle" x="194" y="-121.5" font-family="Helvetica,sans-Serif" font-size="10.00">HASH_DataIn</text>
</a>
</g>
</g>
<!-- Node1&#45;&gt;Node6 -->
<g id="edge5" class="edge"><title>Node1&#45;&gt;Node6</title>
<path fill="none" stroke="midnightblue" d="M77.0503,-124C97.2019,-124 122.282,-124 143.957,-124"/>
<polygon fill="midnightblue" stroke="midnightblue" points="143.965,-127.5 153.965,-124 143.965,-120.5 143.965,-127.5"/>
</g>
<!-- Node7 -->
<g id="node7" class="node"><title>Node7</title>
<g id="a_node7"><a xlink:href="a00103.html#ga84ac2b64179fd37b75c4d5f665126e93" target="_top" xlink:title="Starts the message padding and calculation of the final message. ">
<polygon fill="white" stroke="black" points="144,-76.5 144,-95.5 244,-95.5 244,-76.5 144,-76.5"/>
<text text-anchor="middle" x="194" y="-83.5" font-family="Helvetica,sans-Serif" font-size="10.00">HASH_StartDigest</text>
</a>
</g>
</g>
<!-- Node1&#45;&gt;Node7 -->
<g id="edge6" class="edge"><title>Node1&#45;&gt;Node7</title>
<path fill="none" stroke="midnightblue" d="M75.7269,-114.483C87.5923,-111.407 100.847,-108.014 113,-105 122.461,-102.654 132.566,-100.208 142.299,-97.8816"/>
<polygon fill="midnightblue" stroke="midnightblue" points="143.346,-101.23 152.264,-95.5103 141.726,-94.4204 143.346,-101.23"/>
</g>
<!-- Node8 -->
<g id="node8" class="node"><title>Node8</title>
<g id="a_node8"><a xlink:href="a00103.html#ga826f7bbe15d07c123446cc3d30959f72" target="_top" xlink:title="Checks whether the specified HASH flag is set or not. ">
<polygon fill="white" stroke="black" points="137.5,-38.5 137.5,-57.5 250.5,-57.5 250.5,-38.5 137.5,-38.5"/>
<text text-anchor="middle" x="194" y="-45.5" font-family="Helvetica,sans-Serif" font-size="10.00">HASH_GetFlagStatus</text>
</a>
</g>
</g>
<!-- Node1&#45;&gt;Node8 -->
<g id="edge7" class="edge"><title>Node1&#45;&gt;Node8</title>
<path fill="none" stroke="midnightblue" d="M49.0368,-114.374C62.2377,-101.61 87.3647,-79.2698 113,-67 117.99,-64.6118 123.302,-62.5113 128.724,-60.6661"/>
<polygon fill="midnightblue" stroke="midnightblue" points="130.045,-63.9208 138.558,-57.6134 127.97,-57.2355 130.045,-63.9208"/>
</g>
<!-- Node9 -->
<g id="node9" class="node"><title>Node9</title>
<g id="a_node9"><a xlink:href="a00103.html#ga23018d770837d6ab9f46941f105cc017" target="_top" xlink:title="Provides the message digest result. ">
<polygon fill="white" stroke="black" points="146.5,-0.5 146.5,-19.5 241.5,-19.5 241.5,-0.5 146.5,-0.5"/>
<text text-anchor="middle" x="194" y="-7.5" font-family="Helvetica,sans-Serif" font-size="10.00">HASH_GetDigest</text>
</a>
</g>
</g>
<!-- Node1&#45;&gt;Node9 -->
<g id="edge8" class="edge"><title>Node1&#45;&gt;Node9</title>
<path fill="none" stroke="midnightblue" d="M44.0592,-114.441C53.8143,-95.0701 78.6505,-51.1502 113,-29 120.157,-24.3848 128.323,-20.8888 136.638,-18.241"/>
<polygon fill="midnightblue" stroke="midnightblue" points="137.73,-21.5702 146.418,-15.5061 135.844,-14.8288 137.73,-21.5702"/>
</g>
<!-- Node3 -->
<g id="node3" class="node"><title>Node3</title>
<g id="a_node3"><a xlink:href="a00111.html#gafb119d6d1955d1b8c361e8140845ac5a" target="_top" xlink:title="Forces or releases AHB2 peripheral reset. ">
<polygon fill="white" stroke="black" points="311,-228.5 311,-247.5 457,-247.5 457,-228.5 311,-228.5"/>
<text text-anchor="middle" x="384" y="-235.5" font-family="Helvetica,sans-Serif" font-size="10.00">RCC_AHB2PeriphResetCmd</text>
</a>
</g>
</g>
<!-- Node2&#45;&gt;Node3 -->
<g id="edge2" class="edge"><title>Node2&#45;&gt;Node3</title>
<path fill="none" stroke="midnightblue" d="M232.593,-238C252.189,-238 276.974,-238 300.743,-238"/>
<polygon fill="midnightblue" stroke="midnightblue" points="300.849,-241.5 310.849,-238 300.849,-234.5 300.849,-241.5"/>
</g>
</g>
</svg>
