<?xml version="1.0" encoding="UTF-8" standalone="no"?>
<!DOCTYPE svg PUBLIC "-//W3C//DTD SVG 1.1//EN"
 "http://www.w3.org/Graphics/SVG/1.1/DTD/svg11.dtd">
<!-- Generated by graphviz version 2.38.0 (20140413.2041)
 -->
<!-- Title: DMA2D_Private_Functions Pages: 1 -->
<svg width="388pt" height="88pt"
 viewBox="0.00 0.00 388.00 88.00" xmlns="http://www.w3.org/2000/svg" xmlns:xlink="http://www.w3.org/1999/xlink">
<g id="graph0" class="graph" transform="scale(1 1) rotate(0) translate(4 84)">
<title>DMA2D_Private_Functions</title>
<polygon fill="white" stroke="none" points="-4,4 -4,-84 384,-84 384,4 -4,4"/>
<!-- Node0 -->
<g id="node1" class="node"><title>Node0</title>
<polygon fill="#bfbfbf" stroke="black" points="88,-30 88,-49 224,-49 224,-30 88,-30"/>
<text text-anchor="middle" x="156" y="-37" font-family="Helvetica,sans-Serif" font-size="10.00">DMA2D_Private_Functions</text>
</g>
<!-- Node2 -->
<g id="node3" class="node"><title>Node2</title>
<g id="a_node3"><a xlink:href="a01004.html" target="_top" xlink:title="Initialization and Configuration functions. ">
<polygon fill="white" stroke="black" points="260,-49.5 260,-79.5 380,-79.5 380,-49.5 260,-49.5"/>
<text text-anchor="start" x="268" y="-67.5" font-family="Helvetica,sans-Serif" font-size="10.00">Initialization and</text>
<text text-anchor="middle" x="320" y="-56.5" font-family="Helvetica,sans-Serif" font-size="10.00"> Configuration functions</text>
</a>
</g>
</g>
<!-- Node0&#45;&gt;Node2 -->
<g id="edge2" class="edge"><title>Node0&#45;&gt;Node2</title>
<path fill="none" stroke="black" d="M228.628,-50.5537C239.066,-52.1646 249.715,-53.8079 259.869,-55.3748"/>
<polygon fill="black" stroke="black" points="229.124,-47.0889 218.707,-49.0227 228.057,-54.007 229.124,-47.0889"/>
</g>
<!-- Node3 -->
<g id="node4" class="node"><title>Node3</title>
<g id="a_node4"><a xlink:href="a01005.html" target="_top" xlink:title="Interrupts and flags management functions. ">
<polygon fill="white" stroke="black" points="260.5,-0.5 260.5,-30.5 379.5,-30.5 379.5,-0.5 260.5,-0.5"/>
<text text-anchor="start" x="268.5" y="-18.5" font-family="Helvetica,sans-Serif" font-size="10.00">Interrupts and flags</text>
<text text-anchor="middle" x="320" y="-7.5" font-family="Helvetica,sans-Serif" font-size="10.00"> management functions</text>
</a>
</g>
</g>
<!-- Node0&#45;&gt;Node3 -->
<g id="edge3" class="edge"><title>Node0&#45;&gt;Node3</title>
<path fill="none" stroke="black" d="M231.479,-28.4661C241.128,-27.0367 250.9,-25.5888 260.245,-24.2045"/>
<polygon fill="black" stroke="black" points="230.871,-25.0178 221.492,-29.9456 231.897,-31.9422 230.871,-25.0178"/>
</g>
<!-- Node1 -->
<g id="node2" class="node"><title>Node1</title>
<g id="a_node2"><a xlink:href="a00097.html" target="_top" xlink:title="DMA2D driver modules. ">
<polygon fill="white" stroke="black" points="0,-30 0,-49 52,-49 52,-30 0,-30"/>
<text text-anchor="middle" x="26" y="-37" font-family="Helvetica,sans-Serif" font-size="10.00">DMA2D</text>
</a>
</g>
</g>
<!-- Node1&#45;&gt;Node0 -->
<g id="edge1" class="edge"><title>Node1&#45;&gt;Node0</title>
<path fill="none" stroke="black" d="M62.291,-39.5C70.2718,-39.5 79.0038,-39.5 87.8166,-39.5"/>
<polygon fill="black" stroke="black" points="62.2887,-36.0001 52.2887,-39.5 62.2886,-43.0001 62.2887,-36.0001"/>
</g>
</g>
</svg>
