<?xml version="1.0" encoding="UTF-8" standalone="no"?>
<!DOCTYPE svg PUBLIC "-//W3C//DTD SVG 1.1//EN"
 "http://www.w3.org/Graphics/SVG/1.1/DTD/svg11.dtd">
<!-- Generated by graphviz version 2.38.0 (20140413.2041)
 -->
<!-- Title: DMA_Cmd Pages: 1 -->
<svg width="319pt" height="66pt"
 viewBox="0.00 0.00 319.00 66.00" xmlns="http://www.w3.org/2000/svg" xmlns:xlink="http://www.w3.org/1999/xlink">
<g id="graph0" class="graph" transform="scale(1 1) rotate(0) translate(4 62)">
<title>DMA_Cmd</title>
<polygon fill="white" stroke="none" points="-4,4 -4,-62 315,-62 315,4 -4,4"/>
<!-- Node1 -->
<g id="node1" class="node"><title>Node1</title>
<polygon fill="#bfbfbf" stroke="black" points="0,-19.5 0,-38.5 65,-38.5 65,-19.5 0,-19.5"/>
<text text-anchor="middle" x="32.5" y="-26.5" font-family="Helvetica,sans-Serif" font-size="10.00">DMA_Cmd</text>
</g>
<!-- Node2 -->
<g id="node2" class="node"><title>Node2</title>
<g id="a_node2"><a xlink:href="a01269.html#ga85f5a2827c06dbdba076d4e9125a11f8" target="_top" xlink:title="ADC common and regular scan group init. ">
<polygon fill="white" stroke="black" points="103.5,-38.5 103.5,-57.5 234.5,-57.5 234.5,-38.5 103.5,-38.5"/>
<text text-anchor="middle" x="169" y="-45.5" font-family="Helvetica,sans-Serif" font-size="10.00">ADC_Scan_Group_Config</text>
</a>
</g>
</g>
<!-- Node1&#45;&gt;Node2 -->
<g id="edge1" class="edge"><title>Node1&#45;&gt;Node2</title>
<path fill="none" stroke="midnightblue" d="M75.1487,-34.8835C84.0816,-36.1454 93.7229,-37.5073 103.295,-38.8596"/>
<polygon fill="midnightblue" stroke="midnightblue" points="75.4256,-31.3879 65.0343,-33.4547 74.4464,-38.3191 75.4256,-31.3879"/>
</g>
<!-- Node4 -->
<g id="node4" class="node"><title>Node4</title>
<g id="a_node4"><a xlink:href="a01269.html#gad273dc4b4b26574e92666e4020e1ef5a" target="_top" xlink:title="Timer&#45;triggered ADC&#45;scan mode with DMA to memory. ">
<polygon fill="white" stroke="black" points="101,-0.5 101,-19.5 237,-19.5 237,-0.5 101,-0.5"/>
<text text-anchor="middle" x="169" y="-7.5" font-family="Helvetica,sans-Serif" font-size="10.00">TIM2_DMA_Trigger_Config</text>
</a>
</g>
</g>
<!-- Node1&#45;&gt;Node4 -->
<g id="edge3" class="edge"><title>Node1&#45;&gt;Node4</title>
<path fill="none" stroke="midnightblue" d="M75.0582,-23.1293C83.2611,-21.9706 92.0642,-20.727 100.865,-19.4838"/>
<polygon fill="midnightblue" stroke="midnightblue" points="74.4464,-19.6809 65.0343,-24.5453 75.4256,-26.6121 74.4464,-19.6809"/>
</g>
<!-- Node3 -->
<g id="node3" class="node"><title>Node3</title>
<g id="a_node3"><a xlink:href="a01285.html#ga840291bc02cba5474a4cb46a9b9566fe" target="_top" xlink:title="Main function entry. ">
<polygon fill="white" stroke="black" points="273,-19.5 273,-38.5 311,-38.5 311,-19.5 273,-19.5"/>
<text text-anchor="middle" x="292" y="-26.5" font-family="Helvetica,sans-Serif" font-size="10.00">main</text>
</a>
</g>
</g>
<!-- Node2&#45;&gt;Node3 -->
<g id="edge2" class="edge"><title>Node2&#45;&gt;Node3</title>
<path fill="none" stroke="midnightblue" d="M240.851,-36.8747C252.648,-35.0222 263.904,-33.2548 272.752,-31.8654"/>
<polygon fill="midnightblue" stroke="midnightblue" points="240.19,-33.4354 230.854,-38.4443 241.276,-40.3506 240.19,-33.4354"/>
</g>
<!-- Node4&#45;&gt;Node3 -->
<g id="edge4" class="edge"><title>Node4&#45;&gt;Node3</title>
<path fill="none" stroke="midnightblue" d="M240.851,-21.1253C252.648,-22.9778 263.904,-24.7452 272.752,-26.1346"/>
<polygon fill="midnightblue" stroke="midnightblue" points="241.276,-17.6494 230.854,-19.5557 240.19,-24.5646 241.276,-17.6494"/>
</g>
</g>
</svg>
