<?xml version="1.0" encoding="UTF-8" standalone="no"?>
<!DOCTYPE svg PUBLIC "-//W3C//DTD SVG 1.1//EN"
 "http://www.w3.org/Graphics/SVG/1.1/DTD/svg11.dtd">
<!-- Generated by graphviz version 2.38.0 (20140413.2041)
 -->
<!-- Title: GPIO_Private_Functions Pages: 1 -->
<svg width="372pt" height="127pt"
 viewBox="0.00 0.00 372.00 127.00" xmlns="http://www.w3.org/2000/svg" xmlns:xlink="http://www.w3.org/1999/xlink">
<g id="graph0" class="graph" transform="scale(1 1) rotate(0) translate(4 123)">
<title>GPIO_Private_Functions</title>
<polygon fill="white" stroke="none" points="-4,4 -4,-123 368,-123 368,4 -4,4"/>
<!-- Node0 -->
<g id="node1" class="node"><title>Node0</title>
<polygon fill="#bfbfbf" stroke="black" points="77,-50 77,-69 202,-69 202,-50 77,-50"/>
<text text-anchor="middle" x="139.5" y="-57" font-family="Helvetica,sans-Serif" font-size="10.00">GPIO_Private_Functions</text>
</g>
<!-- Node2 -->
<g id="node2" class="node"><title>Node2</title>
<g id="a_node2"><a xlink:href="a01018.html" target="_top" xlink:title="Initialization and Configuration. ">
<polygon fill="white" stroke="black" points="257.5,-88.5 257.5,-118.5 344.5,-118.5 344.5,-88.5 257.5,-88.5"/>
<text text-anchor="start" x="265.5" y="-106.5" font-family="Helvetica,sans-Serif" font-size="10.00">Initialization and</text>
<text text-anchor="middle" x="301" y="-95.5" font-family="Helvetica,sans-Serif" font-size="10.00"> Configuration</text>
</a>
</g>
</g>
<!-- Node0&#45;&gt;Node2 -->
<g id="edge2" class="edge"><title>Node0&#45;&gt;Node2</title>
<path fill="none" stroke="black" d="M184.805,-71.722C207.422,-77.9613 234.815,-85.5179 257.213,-91.6966"/>
<polygon fill="black" stroke="black" points="185.68,-68.3327 175.109,-69.0473 183.818,-75.0807 185.68,-68.3327"/>
</g>
<!-- Node3 -->
<g id="node3" class="node"><title>Node3</title>
<g id="a_node3"><a xlink:href="a01019.html" target="_top" xlink:title="GPIO Read and Write. ">
<polygon fill="white" stroke="black" points="244.5,-50 244.5,-69 357.5,-69 357.5,-50 244.5,-50"/>
<text text-anchor="middle" x="301" y="-57" font-family="Helvetica,sans-Serif" font-size="10.00">GPIO Read and Write</text>
</a>
</g>
</g>
<!-- Node0&#45;&gt;Node3 -->
<g id="edge3" class="edge"><title>Node0&#45;&gt;Node3</title>
<path fill="none" stroke="black" d="M212.405,-59.5C223.172,-59.5 234.131,-59.5 244.488,-59.5"/>
<polygon fill="black" stroke="black" points="212.167,-56.0001 202.167,-59.5 212.167,-63.0001 212.167,-56.0001"/>
</g>
<!-- Node4 -->
<g id="node4" class="node"><title>Node4</title>
<g id="a_node4"><a xlink:href="a01020.html" target="_top" xlink:title="GPIO Alternate functions configuration function. ">
<polygon fill="white" stroke="black" points="238,-0.5 238,-30.5 364,-30.5 364,-0.5 238,-0.5"/>
<text text-anchor="start" x="246" y="-18.5" font-family="Helvetica,sans-Serif" font-size="10.00">GPIO Alternate functions</text>
<text text-anchor="middle" x="301" y="-7.5" font-family="Helvetica,sans-Serif" font-size="10.00"> configuration function</text>
</a>
</g>
</g>
<!-- Node0&#45;&gt;Node4 -->
<g id="edge4" class="edge"><title>Node0&#45;&gt;Node4</title>
<path fill="none" stroke="black" d="M184.871,-47.2598C203.624,-42.0866 225.65,-36.0103 245.388,-30.5654"/>
<polygon fill="black" stroke="black" points="183.818,-43.9193 175.109,-49.9527 185.68,-50.6673 183.818,-43.9193"/>
</g>
<!-- Node1 -->
<g id="node5" class="node"><title>Node1</title>
<g id="a_node5"><a xlink:href="a00102.html" target="_top" xlink:title="GPIO driver modules. ">
<polygon fill="white" stroke="black" points="0,-50 0,-69 41,-69 41,-50 0,-50"/>
<text text-anchor="middle" x="20.5" y="-57" font-family="Helvetica,sans-Serif" font-size="10.00">GPIO</text>
</a>
</g>
</g>
<!-- Node1&#45;&gt;Node0 -->
<g id="edge1" class="edge"><title>Node1&#45;&gt;Node0</title>
<path fill="none" stroke="black" d="M51.2128,-59.5C59.1242,-59.5 67.9714,-59.5 76.915,-59.5"/>
<polygon fill="black" stroke="black" points="51.0832,-56.0001 41.0832,-59.5 51.0831,-63.0001 51.0832,-56.0001"/>
</g>
</g>
</svg>
