<?xml version="1.0" encoding="UTF-8" standalone="no"?>
<!DOCTYPE svg PUBLIC "-//W3C//DTD SVG 1.1//EN"
 "http://www.w3.org/Graphics/SVG/1.1/DTD/svg11.dtd">
<!-- Generated by graphviz version 2.38.0 (20140413.2041)
 -->
<!-- Title: TIM_Private_Functions Pages: 1 -->
<svg width="381pt" height="431pt"
 viewBox="0.00 0.00 381.00 431.00" xmlns="http://www.w3.org/2000/svg" xmlns:xlink="http://www.w3.org/1999/xlink">
<g id="graph0" class="graph" transform="scale(1 1) rotate(0) translate(4 427)">
<title>TIM_Private_Functions</title>
<polygon fill="white" stroke="none" points="-4,4 -4,-427 377,-427 377,4 -4,4"/>
<!-- Node2 -->
<g id="node1" class="node"><title>Node2</title>
<g id="a_node1"><a xlink:href="a01091.html" target="_top" xlink:title="TimeBase management functions. ">
<polygon fill="white" stroke="black" points="238.5,-392.5 238.5,-422.5 358.5,-422.5 358.5,-392.5 238.5,-392.5"/>
<text text-anchor="start" x="246.5" y="-410.5" font-family="Helvetica,sans-Serif" font-size="10.00">TimeBase management</text>
<text text-anchor="middle" x="298.5" y="-399.5" font-family="Helvetica,sans-Serif" font-size="10.00"> functions</text>
</a>
</g>
</g>
<!-- Node3 -->
<g id="node2" class="node"><title>Node3</title>
<g id="a_node2"><a xlink:href="a01092.html" target="_top" xlink:title="Output Compare management functions. ">
<polygon fill="white" stroke="black" points="224.5,-343.5 224.5,-373.5 372.5,-373.5 372.5,-343.5 224.5,-343.5"/>
<text text-anchor="start" x="232.5" y="-361.5" font-family="Helvetica,sans-Serif" font-size="10.00">Output Compare management</text>
<text text-anchor="middle" x="298.5" y="-350.5" font-family="Helvetica,sans-Serif" font-size="10.00"> functions</text>
</a>
</g>
</g>
<!-- Node4 -->
<g id="node3" class="node"><title>Node4</title>
<g id="a_node3"><a xlink:href="a01093.html" target="_top" xlink:title="Input Capture management functions. ">
<polygon fill="white" stroke="black" points="231,-294.5 231,-324.5 366,-324.5 366,-294.5 231,-294.5"/>
<text text-anchor="start" x="239" y="-312.5" font-family="Helvetica,sans-Serif" font-size="10.00">Input Capture management</text>
<text text-anchor="middle" x="298.5" y="-301.5" font-family="Helvetica,sans-Serif" font-size="10.00"> functions</text>
</a>
</g>
</g>
<!-- Node5 -->
<g id="node4" class="node"><title>Node5</title>
<g id="a_node4"><a xlink:href="a01094.html" target="_top" xlink:title="Advanced&#45;control timers (TIM1 and TIM8) specific features. ">
<polygon fill="white" stroke="black" points="234,-235 234,-276 363,-276 363,-235 234,-235"/>
<text text-anchor="start" x="242" y="-264" font-family="Helvetica,sans-Serif" font-size="10.00">Advanced&#45;control timers</text>
<text text-anchor="start" x="242" y="-253" font-family="Helvetica,sans-Serif" font-size="10.00"> (TIM1 and TIM8) specific</text>
<text text-anchor="middle" x="298.5" y="-242" font-family="Helvetica,sans-Serif" font-size="10.00"> features</text>
</a>
</g>
</g>
<!-- Node6 -->
<g id="node5" class="node"><title>Node6</title>
<g id="a_node5"><a xlink:href="a01095.html" target="_top" xlink:title="Interrupts, DMA and flags management functions. ">
<polygon fill="white" stroke="black" points="227,-186.5 227,-216.5 370,-216.5 370,-186.5 227,-186.5"/>
<text text-anchor="start" x="235" y="-204.5" font-family="Helvetica,sans-Serif" font-size="10.00">Interrupts DMA and</text>
<text text-anchor="middle" x="298.5" y="-193.5" font-family="Helvetica,sans-Serif" font-size="10.00"> flags management functions</text>
</a>
</g>
</g>
<!-- Node7 -->
<g id="node6" class="node"><title>Node7</title>
<g id="a_node6"><a xlink:href="a01096.html" target="_top" xlink:title="Clocks management functions. ">
<polygon fill="white" stroke="black" points="224,-148 224,-167 373,-167 373,-148 224,-148"/>
<text text-anchor="middle" x="298.5" y="-155" font-family="Helvetica,sans-Serif" font-size="10.00">Clocks management functions</text>
</a>
</g>
</g>
<!-- Node8 -->
<g id="node7" class="node"><title>Node8</title>
<g id="a_node7"><a xlink:href="a01097.html" target="_top" xlink:title="Synchronization management functions. ">
<polygon fill="white" stroke="black" points="225.5,-98.5 225.5,-128.5 371.5,-128.5 371.5,-98.5 225.5,-98.5"/>
<text text-anchor="start" x="233.5" y="-116.5" font-family="Helvetica,sans-Serif" font-size="10.00">Synchronization management</text>
<text text-anchor="middle" x="298.5" y="-105.5" font-family="Helvetica,sans-Serif" font-size="10.00"> functions</text>
</a>
</g>
</g>
<!-- Node9 -->
<g id="node8" class="node"><title>Node9</title>
<g id="a_node8"><a xlink:href="a01098.html" target="_top" xlink:title="Specific interface management functions. ">
<polygon fill="white" stroke="black" points="239,-49.5 239,-79.5 358,-79.5 358,-49.5 239,-49.5"/>
<text text-anchor="start" x="247" y="-67.5" font-family="Helvetica,sans-Serif" font-size="10.00">Specific interface</text>
<text text-anchor="middle" x="298.5" y="-56.5" font-family="Helvetica,sans-Serif" font-size="10.00"> management functions</text>
</a>
</g>
</g>
<!-- Node10 -->
<g id="node9" class="node"><title>Node10</title>
<g id="a_node9"><a xlink:href="a01099.html" target="_top" xlink:title="Specific remapping management function. ">
<polygon fill="white" stroke="black" points="242,-0.5 242,-30.5 355,-30.5 355,-0.5 242,-0.5"/>
<text text-anchor="start" x="250" y="-18.5" font-family="Helvetica,sans-Serif" font-size="10.00">Specific remapping</text>
<text text-anchor="middle" x="298.5" y="-7.5" font-family="Helvetica,sans-Serif" font-size="10.00"> management function</text>
</a>
</g>
</g>
<!-- Node1 -->
<g id="node10" class="node"><title>Node1</title>
<g id="a_node10"><a xlink:href="a00117.html" target="_top" xlink:title="TIM driver modules. ">
<polygon fill="white" stroke="black" points="0,-192 0,-211 34,-211 34,-192 0,-192"/>
<text text-anchor="middle" x="17" y="-199" font-family="Helvetica,sans-Serif" font-size="10.00">TIM</text>
</a>
</g>
</g>
<!-- Node0 -->
<g id="node11" class="node"><title>Node0</title>
<polygon fill="#bfbfbf" stroke="black" points="70,-192 70,-211 188,-211 188,-192 70,-192"/>
<text text-anchor="middle" x="129" y="-199" font-family="Helvetica,sans-Serif" font-size="10.00">TIM_Private_Functions</text>
</g>
<!-- Node1&#45;&gt;Node0 -->
<g id="edge1" class="edge"><title>Node1&#45;&gt;Node0</title>
<path fill="none" stroke="black" d="M44.3024,-201.5C51.9829,-201.5 60.7004,-201.5 69.5377,-201.5"/>
<polygon fill="black" stroke="black" points="44.2309,-198 34.2309,-201.5 44.2308,-205 44.2309,-198"/>
</g>
<!-- Node0&#45;&gt;Node2 -->
<g id="edge2" class="edge"><title>Node0&#45;&gt;Node2</title>
<path fill="none" stroke="black" d="M134.773,-221.044C144.832,-258.142 171.71,-339.023 224,-383.5 228.294,-387.153 233.158,-390.253 238.289,-392.884"/>
<polygon fill="black" stroke="black" points="138.074,-219.831 132.182,-211.026 131.297,-221.583 138.074,-219.831"/>
</g>
<!-- Node0&#45;&gt;Node3 -->
<g id="edge3" class="edge"><title>Node0&#45;&gt;Node3</title>
<path fill="none" stroke="black" d="M138.509,-220.482C152.357,-249.271 182.457,-303.854 224,-334.5 228.645,-337.927 233.803,-340.879 239.171,-343.42"/>
<polygon fill="black" stroke="black" points="141.55,-218.72 134.152,-211.135 135.205,-221.678 141.55,-218.72"/>
</g>
<!-- Node0&#45;&gt;Node4 -->
<g id="edge4" class="edge"><title>Node0&#45;&gt;Node4</title>
<path fill="none" stroke="black" d="M145.166,-218.792C162.517,-237.611 192.609,-267.425 224,-285.5 229.816,-288.849 236.165,-291.806 242.615,-294.395"/>
<polygon fill="black" stroke="black" points="147.638,-216.307 138.336,-211.233 142.443,-221 147.638,-216.307"/>
</g>
<!-- Node0&#45;&gt;Node5 -->
<g id="edge5" class="edge"><title>Node0&#45;&gt;Node5</title>
<path fill="none" stroke="black" d="M169.191,-214.135C188.444,-220.342 212.131,-227.978 233.889,-234.993"/>
<polygon fill="black" stroke="black" points="170.152,-210.767 159.56,-211.03 168.004,-217.429 170.152,-210.767"/>
</g>
<!-- Node0&#45;&gt;Node6 -->
<g id="edge6" class="edge"><title>Node0&#45;&gt;Node6</title>
<path fill="none" stroke="black" d="M198.206,-201.5C207.628,-201.5 217.322,-201.5 226.787,-201.5"/>
<polygon fill="black" stroke="black" points="198.113,-198 188.113,-201.5 198.113,-205 198.113,-198"/>
</g>
<!-- Node0&#45;&gt;Node7 -->
<g id="edge7" class="edge"><title>Node0&#45;&gt;Node7</title>
<path fill="none" stroke="black" d="M175.501,-189.33C190.895,-185.231 208.189,-180.646 224,-176.5 235.856,-173.391 248.798,-170.033 260.473,-167.018"/>
<polygon fill="black" stroke="black" points="174.455,-185.987 165.694,-191.944 176.258,-192.751 174.455,-185.987"/>
</g>
<!-- Node0&#45;&gt;Node8 -->
<g id="edge8" class="edge"><title>Node0&#45;&gt;Node8</title>
<path fill="none" stroke="black" d="M150.331,-185.572C168.753,-171.715 197.061,-151.819 224,-138.5 231.37,-134.856 239.401,-131.529 247.36,-128.575"/>
<polygon fill="black" stroke="black" points="147.954,-182.983 142.131,-191.835 152.203,-188.547 147.954,-182.983"/>
</g>
<!-- Node0&#45;&gt;Node9 -->
<g id="edge9" class="edge"><title>Node0&#45;&gt;Node9</title>
<path fill="none" stroke="black" d="M140.767,-182.92C156.149,-157.955 186.719,-113.802 224,-88.5 228.998,-85.1079 234.51,-82.1667 240.201,-79.6227"/>
<polygon fill="black" stroke="black" points="137.608,-181.383 135.464,-191.758 143.61,-184.984 137.608,-181.383"/>
</g>
<!-- Node0&#45;&gt;Node10 -->
<g id="edge10" class="edge"><title>Node0&#45;&gt;Node10</title>
<path fill="none" stroke="black" d="M136.038,-182.227C147.609,-148.399 176.101,-78.2596 224,-39.5 229.322,-35.1936 235.44,-31.6505 241.827,-28.7375"/>
<polygon fill="black" stroke="black" points="132.673,-181.256 132.873,-191.849 139.323,-183.443 132.673,-181.256"/>
</g>
</g>
</svg>
