<?xml version="1.0" encoding="UTF-8" standalone="no"?>
<!DOCTYPE svg PUBLIC "-//W3C//DTD SVG 1.1//EN"
 "http://www.w3.org/Graphics/SVG/1.1/DTD/svg11.dtd">
<!-- Generated by graphviz version 2.38.0 (20140413.2041)
 -->
<!-- Title: RTC_CoarseCalibCmd Pages: 1 -->
<svg width="266pt" height="66pt"
 viewBox="0.00 0.00 266.00 66.00" xmlns="http://www.w3.org/2000/svg" xmlns:xlink="http://www.w3.org/1999/xlink">
<g id="graph0" class="graph" transform="scale(1 1) rotate(0) translate(4 62)">
<title>RTC_CoarseCalibCmd</title>
<polygon fill="white" stroke="none" points="-4,4 -4,-62 262,-62 262,4 -4,4"/>
<!-- Node1 -->
<g id="node1" class="node"><title>Node1</title>
<polygon fill="#bfbfbf" stroke="black" points="0,-19.5 0,-38.5 118,-38.5 118,-19.5 0,-19.5"/>
<text text-anchor="middle" x="59" y="-26.5" font-family="Helvetica,sans-Serif" font-size="10.00">RTC_CoarseCalibCmd</text>
</g>
<!-- Node2 -->
<g id="node2" class="node"><title>Node2</title>
<g id="a_node2"><a xlink:href="a01058.html#ga679f8883cbfb267a53ffb1ab4cc5c8c5" target="_top" xlink:title="Enters the RTC Initialization mode. ">
<polygon fill="white" stroke="black" points="154,-38.5 154,-57.5 258,-57.5 258,-38.5 154,-38.5"/>
<text text-anchor="middle" x="206" y="-45.5" font-family="Helvetica,sans-Serif" font-size="10.00">RTC_EnterInitMode</text>
</a>
</g>
</g>
<!-- Node1&#45;&gt;Node2 -->
<g id="edge1" class="edge"><title>Node1&#45;&gt;Node2</title>
<path fill="none" stroke="midnightblue" d="M118.142,-36.6185C126.544,-37.7195 135.214,-38.8556 143.676,-39.9644"/>
<polygon fill="midnightblue" stroke="midnightblue" points="143.492,-43.4702 153.862,-41.2992 144.402,-36.5296 143.492,-43.4702"/>
</g>
<!-- Node3 -->
<g id="node3" class="node"><title>Node3</title>
<g id="a_node3"><a xlink:href="a01058.html#ga87f86f3b794205f09a1eac51738d900f" target="_top" xlink:title="Exits the RTC Initialization mode. ">
<polygon fill="white" stroke="black" points="157,-0.5 157,-19.5 255,-19.5 255,-0.5 157,-0.5"/>
<text text-anchor="middle" x="206" y="-7.5" font-family="Helvetica,sans-Serif" font-size="10.00">RTC_ExitInitMode</text>
</a>
</g>
</g>
<!-- Node1&#45;&gt;Node3 -->
<g id="edge2" class="edge"><title>Node1&#45;&gt;Node3</title>
<path fill="none" stroke="midnightblue" d="M118.142,-21.3815C127.515,-20.1532 137.222,-18.8812 146.602,-17.6522"/>
<polygon fill="midnightblue" stroke="midnightblue" points="147.159,-21.1092 156.619,-16.3395 146.249,-14.1685 147.159,-21.1092"/>
</g>
</g>
</svg>
