<?xml version="1.0" encoding="UTF-8" standalone="no"?>
<!DOCTYPE svg PUBLIC "-//W3C//DTD SVG 1.1//EN"
 "http://www.w3.org/Graphics/SVG/1.1/DTD/svg11.dtd">
<!-- Generated by graphviz version 2.38.0 (20140413.2041)
 -->
<!-- Title: CRYP_GetFlagStatus Pages: 1 -->
<svg width="261pt" height="332pt"
 viewBox="0.00 0.00 261.00 332.00" xmlns="http://www.w3.org/2000/svg" xmlns:xlink="http://www.w3.org/1999/xlink">
<g id="graph0" class="graph" transform="scale(1 1) rotate(0) translate(4 328)">
<title>CRYP_GetFlagStatus</title>
<polygon fill="white" stroke="none" points="-4,4 -4,-328 257,-328 257,4 -4,4"/>
<!-- Node1 -->
<g id="node1" class="node"><title>Node1</title>
<polygon fill="#bfbfbf" stroke="black" points="0,-152.5 0,-171.5 113,-171.5 113,-152.5 0,-152.5"/>
<text text-anchor="middle" x="56.5" y="-159.5" font-family="Helvetica,sans-Serif" font-size="10.00">CRYP_GetFlagStatus</text>
</g>
<!-- Node2 -->
<g id="node2" class="node"><title>Node2</title>
<g id="a_node2"><a xlink:href="a01083.html#ga79ff82ece0e9620dc86d6e57abe639e1" target="_top" xlink:title="Encrypt and decrypt using AES in ECB Mode. ">
<polygon fill="white" stroke="black" points="152.5,-304.5 152.5,-323.5 249.5,-323.5 249.5,-304.5 152.5,-304.5"/>
<text text-anchor="middle" x="201" y="-311.5" font-family="Helvetica,sans-Serif" font-size="10.00">CRYP_AES_ECB</text>
</a>
</g>
</g>
<!-- Node1&#45;&gt;Node2 -->
<g id="edge1" class="edge"><title>Node1&#45;&gt;Node2</title>
<path fill="none" stroke="midnightblue" d="M65.8052,-180.779C79.3141,-209.298 108.651,-263.529 149,-295 153.917,-298.835 159.689,-301.956 165.548,-304.475"/>
<polygon fill="midnightblue" stroke="midnightblue" points="68.9089,-179.151 61.5534,-171.525 62.5482,-182.073 68.9089,-179.151"/>
</g>
<!-- Node3 -->
<g id="node3" class="node"><title>Node3</title>
<g id="a_node3"><a xlink:href="a01083.html#gaa43eadf707257710f6a53b3295b39d70" target="_top" xlink:title="Encrypt and decrypt using AES in CBC Mode. ">
<polygon fill="white" stroke="black" points="152,-266.5 152,-285.5 250,-285.5 250,-266.5 152,-266.5"/>
<text text-anchor="middle" x="201" y="-273.5" font-family="Helvetica,sans-Serif" font-size="10.00">CRYP_AES_CBC</text>
</a>
</g>
</g>
<!-- Node1&#45;&gt;Node3 -->
<g id="edge2" class="edge"><title>Node1&#45;&gt;Node3</title>
<path fill="none" stroke="midnightblue" d="M70.5909,-179.826C86.8656,-200.867 116.494,-235.685 149,-257 154.689,-260.73 161.212,-263.865 167.65,-266.445"/>
<polygon fill="midnightblue" stroke="midnightblue" points="73.29,-177.592 64.4641,-171.731 67.7084,-181.817 73.29,-177.592"/>
</g>
<!-- Node4 -->
<g id="node4" class="node"><title>Node4</title>
<g id="a_node4"><a xlink:href="a01083.html#ga2f36aea6e94452e5e5e938547fb89d4c" target="_top" xlink:title="Encrypt and decrypt using AES in CTR Mode. ">
<polygon fill="white" stroke="black" points="152.5,-228.5 152.5,-247.5 249.5,-247.5 249.5,-228.5 152.5,-228.5"/>
<text text-anchor="middle" x="201" y="-235.5" font-family="Helvetica,sans-Serif" font-size="10.00">CRYP_AES_CTR</text>
</a>
</g>
</g>
<!-- Node1&#45;&gt;Node4 -->
<g id="edge3" class="edge"><title>Node1&#45;&gt;Node4</title>
<path fill="none" stroke="midnightblue" d="M79.5919,-177.52C97.6892,-189.796 124.256,-206.837 149,-219 156.038,-222.46 163.873,-225.673 171.249,-228.436"/>
<polygon fill="midnightblue" stroke="midnightblue" points="81.1788,-174.364 70.9547,-171.586 77.2147,-180.133 81.1788,-174.364"/>
</g>
<!-- Node5 -->
<g id="node5" class="node"><title>Node5</title>
<g id="a_node5"><a xlink:href="a01083.html#ga74b48d820c5c360eb303fc2fb78af055" target="_top" xlink:title="Encrypt and decrypt using AES in GCM Mode. The GCM and CCM modes are available only on STM32F437x Dev...">
<polygon fill="white" stroke="black" points="151.5,-190.5 151.5,-209.5 250.5,-209.5 250.5,-190.5 151.5,-190.5"/>
<text text-anchor="middle" x="201" y="-197.5" font-family="Helvetica,sans-Serif" font-size="10.00">CRYP_AES_GCM</text>
</a>
</g>
</g>
<!-- Node1&#45;&gt;Node5 -->
<g id="edge4" class="edge"><title>Node1&#45;&gt;Node5</title>
<path fill="none" stroke="midnightblue" d="M103.153,-174.174C122.858,-179.429 145.575,-185.487 164.053,-190.414"/>
<polygon fill="midnightblue" stroke="midnightblue" points="104.023,-170.784 93.4588,-171.589 102.219,-177.548 104.023,-170.784"/>
</g>
<!-- Node6 -->
<g id="node6" class="node"><title>Node6</title>
<g id="a_node6"><a xlink:href="a01083.html#ga9d9f5c74b634b85b7aa8c2a2ea0bcd51" target="_top" xlink:title="Encrypt and decrypt using AES in CCM Mode. The GCM and CCM modes are available only on STM32F437x Dev...">
<polygon fill="white" stroke="black" points="151.5,-152.5 151.5,-171.5 250.5,-171.5 250.5,-152.5 151.5,-152.5"/>
<text text-anchor="middle" x="201" y="-159.5" font-family="Helvetica,sans-Serif" font-size="10.00">CRYP_AES_CCM</text>
</a>
</g>
</g>
<!-- Node1&#45;&gt;Node6 -->
<g id="edge5" class="edge"><title>Node1&#45;&gt;Node6</title>
<path fill="none" stroke="midnightblue" d="M123.206,-162C132.687,-162 142.3,-162 151.367,-162"/>
<polygon fill="midnightblue" stroke="midnightblue" points="123.002,-158.5 113.002,-162 123.002,-165.5 123.002,-158.5"/>
</g>
<!-- Node7 -->
<g id="node7" class="node"><title>Node7</title>
<g id="a_node7"><a xlink:href="a01084.html#ga3b96b7608b39197209abed5f5845f590" target="_top" xlink:title="Encrypt and decrypt using DES in ECB Mode. ">
<polygon fill="white" stroke="black" points="152,-114.5 152,-133.5 250,-133.5 250,-114.5 152,-114.5"/>
<text text-anchor="middle" x="201" y="-121.5" font-family="Helvetica,sans-Serif" font-size="10.00">CRYP_DES_ECB</text>
</a>
</g>
</g>
<!-- Node1&#45;&gt;Node7 -->
<g id="edge6" class="edge"><title>Node1&#45;&gt;Node7</title>
<path fill="none" stroke="midnightblue" d="M103.153,-149.826C122.858,-144.571 145.575,-138.513 164.053,-133.586"/>
<polygon fill="midnightblue" stroke="midnightblue" points="102.219,-146.452 93.4588,-152.411 104.023,-153.216 102.219,-146.452"/>
</g>
<!-- Node8 -->
<g id="node8" class="node"><title>Node8</title>
<g id="a_node8"><a xlink:href="a01084.html#ga75724391a8560c557e1152b805f5cad1" target="_top" xlink:title="Encrypt and decrypt using DES in CBC Mode. ">
<polygon fill="white" stroke="black" points="152,-76.5 152,-95.5 250,-95.5 250,-76.5 152,-76.5"/>
<text text-anchor="middle" x="201" y="-83.5" font-family="Helvetica,sans-Serif" font-size="10.00">CRYP_DES_CBC</text>
</a>
</g>
</g>
<!-- Node1&#45;&gt;Node8 -->
<g id="edge7" class="edge"><title>Node1&#45;&gt;Node8</title>
<path fill="none" stroke="midnightblue" d="M79.5919,-146.48C97.6892,-134.204 124.256,-117.163 149,-105 156.038,-101.54 163.873,-98.3269 171.249,-95.5636"/>
<polygon fill="midnightblue" stroke="midnightblue" points="77.2147,-143.867 70.9547,-152.414 81.1788,-149.636 77.2147,-143.867"/>
</g>
<!-- Node9 -->
<g id="node9" class="node"><title>Node9</title>
<g id="a_node9"><a xlink:href="a01085.html#ga17c03ab4f0566fcbc3dd8c052e6f9886" target="_top" xlink:title="Encrypt and decrypt using TDES in ECB Mode. ">
<polygon fill="white" stroke="black" points="149,-38.5 149,-57.5 253,-57.5 253,-38.5 149,-38.5"/>
<text text-anchor="middle" x="201" y="-45.5" font-family="Helvetica,sans-Serif" font-size="10.00">CRYP_TDES_ECB</text>
</a>
</g>
</g>
<!-- Node1&#45;&gt;Node9 -->
<g id="edge8" class="edge"><title>Node1&#45;&gt;Node9</title>
<path fill="none" stroke="midnightblue" d="M70.5909,-144.174C86.8656,-123.133 116.494,-88.3151 149,-67 154.689,-63.2695 161.212,-60.1345 167.65,-57.5551"/>
<polygon fill="midnightblue" stroke="midnightblue" points="67.7084,-142.183 64.4641,-152.269 73.29,-146.408 67.7084,-142.183"/>
</g>
<!-- Node10 -->
<g id="node10" class="node"><title>Node10</title>
<g id="a_node10"><a xlink:href="a01085.html#gabe52a368c4882450c1e82f16bc1eb686" target="_top" xlink:title="Encrypt and decrypt using TDES in CBC Mode. ">
<polygon fill="white" stroke="black" points="149,-0.5 149,-19.5 253,-19.5 253,-0.5 149,-0.5"/>
<text text-anchor="middle" x="201" y="-7.5" font-family="Helvetica,sans-Serif" font-size="10.00">CRYP_TDES_CBC</text>
</a>
</g>
</g>
<!-- Node1&#45;&gt;Node10 -->
<g id="edge9" class="edge"><title>Node1&#45;&gt;Node10</title>
<path fill="none" stroke="midnightblue" d="M65.8052,-143.221C79.3141,-114.702 108.651,-60.4709 149,-29 153.917,-25.1647 159.689,-22.0441 165.548,-19.5246"/>
<polygon fill="midnightblue" stroke="midnightblue" points="62.5482,-141.927 61.5534,-152.475 68.9089,-144.849 62.5482,-141.927"/>
</g>
</g>
</svg>
