<?xml version="1.0" encoding="UTF-8" standalone="no"?>
<!DOCTYPE svg PUBLIC "-//W3C//DTD SVG 1.1//EN"
 "http://www.w3.org/Graphics/SVG/1.1/DTD/svg11.dtd">
<!-- Generated by graphviz version 2.38.0 (20140413.2041)
 -->
<!-- Title: CRYP_AES_CBC Pages: 1 -->
<svg width="258pt" height="370pt"
 viewBox="0.00 0.00 258.00 370.00" xmlns="http://www.w3.org/2000/svg" xmlns:xlink="http://www.w3.org/1999/xlink">
<g id="graph0" class="graph" transform="scale(1 1) rotate(0) translate(4 366)">
<title>CRYP_AES_CBC</title>
<polygon fill="white" stroke="none" points="-4,4 -4,-366 254,-366 254,4 -4,4"/>
<!-- Node1 -->
<g id="node1" class="node"><title>Node1</title>
<polygon fill="#bfbfbf" stroke="black" points="0,-171.5 0,-190.5 98,-190.5 98,-171.5 0,-171.5"/>
<text text-anchor="middle" x="49" y="-178.5" font-family="Helvetica,sans-Serif" font-size="10.00">CRYP_AES_CBC</text>
</g>
<!-- Node2 -->
<g id="node2" class="node"><title>Node2</title>
<g id="a_node2"><a xlink:href="a00093.html#gaeecd86b00d0d0137d97b06108789bcb2" target="_top" xlink:title="Fills each CRYP_KeyInitStruct member with its default value. ">
<polygon fill="white" stroke="black" points="138.5,-342.5 138.5,-361.5 245.5,-361.5 245.5,-342.5 138.5,-342.5"/>
<text text-anchor="middle" x="192" y="-349.5" font-family="Helvetica,sans-Serif" font-size="10.00">CRYP_KeyStructInit</text>
</a>
</g>
</g>
<!-- Node1&#45;&gt;Node2 -->
<g id="edge1" class="edge"><title>Node1&#45;&gt;Node2</title>
<path fill="none" stroke="midnightblue" d="M52.667,-190.798C60.4669,-217.617 85.7867,-292.895 134,-333 136.035,-334.693 138.226,-336.236 140.524,-337.644"/>
<polygon fill="midnightblue" stroke="midnightblue" points="139.307,-340.955 149.799,-342.427 142.515,-334.733 139.307,-340.955"/>
</g>
<!-- Node3 -->
<g id="node3" class="node"><title>Node3</title>
<g id="a_node3"><a xlink:href="a00093.html#ga23ada9d9464e1362299d7612a1409a57" target="_top" xlink:title="Flushes the IN and OUT FIFOs (that is read and write pointers of the FIFOs are reset) ...">
<polygon fill="white" stroke="black" points="143.5,-304.5 143.5,-323.5 240.5,-323.5 240.5,-304.5 143.5,-304.5"/>
<text text-anchor="middle" x="192" y="-311.5" font-family="Helvetica,sans-Serif" font-size="10.00">CRYP_FIFOFlush</text>
</a>
</g>
</g>
<!-- Node1&#45;&gt;Node3 -->
<g id="edge2" class="edge"><title>Node1&#45;&gt;Node3</title>
<path fill="none" stroke="midnightblue" d="M54.4318,-190.501C65.0444,-212.235 94.0358,-265.937 134,-295 136.657,-296.933 139.524,-298.677 142.508,-300.251"/>
<polygon fill="midnightblue" stroke="midnightblue" points="141.171,-303.488 151.72,-304.476 144.089,-297.126 141.171,-303.488"/>
</g>
<!-- Node4 -->
<g id="node4" class="node"><title>Node4</title>
<g id="a_node4"><a xlink:href="a00093.html#ga7b72c458d95581ab0a36be3e017fcf02" target="_top" xlink:title="Initializes the CRYP peripheral according to the specified parameters in the CRYP_InitStruct. ">
<polygon fill="white" stroke="black" points="160,-266.5 160,-285.5 224,-285.5 224,-266.5 160,-266.5"/>
<text text-anchor="middle" x="192" y="-273.5" font-family="Helvetica,sans-Serif" font-size="10.00">CRYP_Init</text>
</a>
</g>
</g>
<!-- Node1&#45;&gt;Node4 -->
<g id="edge3" class="edge"><title>Node1&#45;&gt;Node4</title>
<path fill="none" stroke="midnightblue" d="M58.0964,-190.545C72.06,-206.45 102.243,-238.453 134,-257 139.078,-259.966 144.684,-262.547 150.338,-264.768"/>
<polygon fill="midnightblue" stroke="midnightblue" points="149.222,-268.086 159.817,-268.173 151.588,-261.498 149.222,-268.086"/>
</g>
<!-- Node5 -->
<g id="node5" class="node"><title>Node5</title>
<g id="a_node5"><a xlink:href="a00093.html#gad4baa3865415215cae07c9fbfa131cb9" target="_top" xlink:title="Initializes the CRYP Keys according to the specified parameters in the CRYP_KeyInitStruct. ">
<polygon fill="white" stroke="black" points="151.5,-228.5 151.5,-247.5 232.5,-247.5 232.5,-228.5 151.5,-228.5"/>
<text text-anchor="middle" x="192" y="-235.5" font-family="Helvetica,sans-Serif" font-size="10.00">CRYP_KeyInit</text>
</a>
</g>
</g>
<!-- Node1&#45;&gt;Node5 -->
<g id="edge4" class="edge"><title>Node1&#45;&gt;Node5</title>
<path fill="none" stroke="midnightblue" d="M69.78,-190.646C86.6475,-198.703 111.644,-210.244 134,-219 139.281,-221.068 144.891,-223.115 150.45,-225.057"/>
<polygon fill="midnightblue" stroke="midnightblue" points="149.728,-228.508 160.323,-228.419 151.985,-221.882 149.728,-228.508"/>
</g>
<!-- Node6 -->
<g id="node6" class="node"><title>Node6</title>
<g id="a_node6"><a xlink:href="a00093.html#gad39ccd9b1f2e088e3a227d7a1c410d7c" target="_top" xlink:title="Enables or disables the CRYP peripheral. ">
<polygon fill="white" stroke="black" points="156.5,-190.5 156.5,-209.5 227.5,-209.5 227.5,-190.5 156.5,-190.5"/>
<text text-anchor="middle" x="192" y="-197.5" font-family="Helvetica,sans-Serif" font-size="10.00">CRYP_Cmd</text>
</a>
</g>
</g>
<!-- Node1&#45;&gt;Node6 -->
<g id="edge5" class="edge"><title>Node1&#45;&gt;Node6</title>
<path fill="none" stroke="midnightblue" d="M98.1298,-187.486C113.687,-189.582 130.865,-191.897 146.173,-193.959"/>
<polygon fill="midnightblue" stroke="midnightblue" points="146.051,-197.475 156.429,-195.341 146.986,-190.537 146.051,-197.475"/>
</g>
<!-- Node7 -->
<g id="node7" class="node"><title>Node7</title>
<g id="a_node7"><a xlink:href="a00093.html#ga993d568b626a74b2973d4a6848a681f6" target="_top" xlink:title="Checks whether the specified CRYP flag is set or not. ">
<polygon fill="white" stroke="black" points="135.5,-152.5 135.5,-171.5 248.5,-171.5 248.5,-152.5 135.5,-152.5"/>
<text text-anchor="middle" x="192" y="-159.5" font-family="Helvetica,sans-Serif" font-size="10.00">CRYP_GetFlagStatus</text>
</a>
</g>
</g>
<!-- Node1&#45;&gt;Node7 -->
<g id="edge6" class="edge"><title>Node1&#45;&gt;Node7</title>
<path fill="none" stroke="midnightblue" d="M98.1298,-174.514C106.824,-173.343 116.025,-172.103 125.123,-170.877"/>
<polygon fill="midnightblue" stroke="midnightblue" points="125.876,-174.307 135.319,-169.503 124.941,-167.37 125.876,-174.307"/>
</g>
<!-- Node8 -->
<g id="node8" class="node"><title>Node8</title>
<g id="a_node8"><a xlink:href="a00093.html#ga133964b50a07db3a32864308f6355a8b" target="_top" xlink:title="Initializes the CRYP Initialization Vectors(IV) according to the specified parameters in the CRYP_IVI...">
<polygon fill="white" stroke="black" points="155,-114.5 155,-133.5 229,-133.5 229,-114.5 155,-114.5"/>
<text text-anchor="middle" x="192" y="-121.5" font-family="Helvetica,sans-Serif" font-size="10.00">CRYP_IVInit</text>
</a>
</g>
</g>
<!-- Node1&#45;&gt;Node8 -->
<g id="edge7" class="edge"><title>Node1&#45;&gt;Node8</title>
<path fill="none" stroke="midnightblue" d="M69.78,-171.354C86.6475,-163.297 111.644,-151.756 134,-143 139.281,-140.932 144.891,-138.885 150.45,-136.943"/>
<polygon fill="midnightblue" stroke="midnightblue" points="151.985,-140.118 160.323,-133.581 149.728,-133.492 151.985,-140.118"/>
</g>
<!-- Node9 -->
<g id="node9" class="node"><title>Node9</title>
<g id="a_node9"><a xlink:href="a00093.html#gabe26186adf64660a4a573bd6a4368fee" target="_top" xlink:title="Returns whether CRYP peripheral is enabled or disabled. ">
<polygon fill="white" stroke="black" points="134,-76.5 134,-95.5 250,-95.5 250,-76.5 134,-76.5"/>
<text text-anchor="middle" x="192" y="-83.5" font-family="Helvetica,sans-Serif" font-size="10.00">CRYP_GetCmdStatus</text>
</a>
</g>
</g>
<!-- Node1&#45;&gt;Node9 -->
<g id="edge8" class="edge"><title>Node1&#45;&gt;Node9</title>
<path fill="none" stroke="midnightblue" d="M58.0964,-171.455C72.06,-155.55 102.243,-123.547 134,-105 137.597,-102.899 141.46,-100.991 145.416,-99.2673"/>
<polygon fill="midnightblue" stroke="midnightblue" points="146.732,-102.511 154.741,-95.5746 144.155,-96.0026 146.732,-102.511"/>
</g>
<!-- Node10 -->
<g id="node10" class="node"><title>Node10</title>
<g id="a_node10"><a xlink:href="a00093.html#ga16dc76244318d464357ee6ff208bf9a4" target="_top" xlink:title="Writes data in the Data Input register (DIN). ">
<polygon fill="white" stroke="black" points="152,-38.5 152,-57.5 232,-57.5 232,-38.5 152,-38.5"/>
<text text-anchor="middle" x="192" y="-45.5" font-family="Helvetica,sans-Serif" font-size="10.00">CRYP_DataIn</text>
</a>
</g>
</g>
<!-- Node1&#45;&gt;Node10 -->
<g id="edge9" class="edge"><title>Node1&#45;&gt;Node10</title>
<path fill="none" stroke="midnightblue" d="M54.4318,-171.499C65.0444,-149.765 94.0358,-96.0626 134,-67 136.657,-65.0675 139.524,-63.3229 142.508,-61.7492"/>
<polygon fill="midnightblue" stroke="midnightblue" points="144.089,-64.8744 151.72,-57.5239 141.171,-58.5118 144.089,-64.8744"/>
</g>
<!-- Node11 -->
<g id="node11" class="node"><title>Node11</title>
<g id="a_node11"><a xlink:href="a00093.html#gacbe5fcf4c7e4919192376fa615588b54" target="_top" xlink:title="Returns the last data entered into the output FIFO. ">
<polygon fill="white" stroke="black" points="148.5,-0.5 148.5,-19.5 235.5,-19.5 235.5,-0.5 148.5,-0.5"/>
<text text-anchor="middle" x="192" y="-7.5" font-family="Helvetica,sans-Serif" font-size="10.00">CRYP_DataOut</text>
</a>
</g>
</g>
<!-- Node1&#45;&gt;Node11 -->
<g id="edge10" class="edge"><title>Node1&#45;&gt;Node11</title>
<path fill="none" stroke="midnightblue" d="M52.667,-171.202C60.4669,-144.383 85.7867,-69.1046 134,-29 136.035,-27.3073 138.226,-25.7635 140.524,-24.3557"/>
<polygon fill="midnightblue" stroke="midnightblue" points="142.515,-27.2667 149.799,-19.5727 139.307,-21.0452 142.515,-27.2667"/>
</g>
</g>
</svg>
