<?xml version="1.0" encoding="UTF-8" standalone="no"?>
<!DOCTYPE svg PUBLIC "-//W3C//DTD SVG 1.1//EN"
 "http://www.w3.org/Graphics/SVG/1.1/DTD/svg11.dtd">
<!-- Generated by graphviz version 2.38.0 (20140413.2041)
 -->
<!-- Title: SPI_Private_Functions Pages: 1 -->
<svg width="370pt" height="225pt"
 viewBox="0.00 0.00 370.00 225.00" xmlns="http://www.w3.org/2000/svg" xmlns:xlink="http://www.w3.org/1999/xlink">
<g id="graph0" class="graph" transform="scale(1 1) rotate(0) translate(4 221)">
<title>SPI_Private_Functions</title>
<polygon fill="white" stroke="none" points="-4,4 -4,-221 366,-221 366,4 -4,4"/>
<!-- Node2 -->
<g id="node1" class="node"><title>Node2</title>
<g id="a_node1"><a xlink:href="a01083.html" target="_top" xlink:title="Initialization and Configuration functions. ">
<polygon fill="white" stroke="black" points="232,-186.5 232,-216.5 352,-216.5 352,-186.5 232,-186.5"/>
<text text-anchor="start" x="240" y="-204.5" font-family="Helvetica,sans-Serif" font-size="10.00">Initialization and</text>
<text text-anchor="middle" x="292" y="-193.5" font-family="Helvetica,sans-Serif" font-size="10.00"> Configuration functions</text>
</a>
</g>
</g>
<!-- Node3 -->
<g id="node2" class="node"><title>Node3</title>
<g id="a_node2"><a xlink:href="a01084.html" target="_top" xlink:title="Data transfers functions. ">
<polygon fill="white" stroke="black" points="231,-148 231,-167 353,-167 353,-148 231,-148"/>
<text text-anchor="middle" x="292" y="-155" font-family="Helvetica,sans-Serif" font-size="10.00">Data transfers functions</text>
</a>
</g>
</g>
<!-- Node4 -->
<g id="node3" class="node"><title>Node4</title>
<g id="a_node3"><a xlink:href="a01085.html" target="_top" xlink:title="Hardware CRC Calculation functions. ">
<polygon fill="white" stroke="black" points="224,-98.5 224,-128.5 360,-128.5 360,-98.5 224,-98.5"/>
<text text-anchor="start" x="232" y="-116.5" font-family="Helvetica,sans-Serif" font-size="10.00">Hardware CRC Calculation</text>
<text text-anchor="middle" x="292" y="-105.5" font-family="Helvetica,sans-Serif" font-size="10.00"> functions</text>
</a>
</g>
</g>
<!-- Node5 -->
<g id="node4" class="node"><title>Node5</title>
<g id="a_node4"><a xlink:href="a01086.html" target="_top" xlink:title="DMA transfers management functions. ">
<polygon fill="white" stroke="black" points="222,-49.5 222,-79.5 362,-79.5 362,-49.5 222,-49.5"/>
<text text-anchor="start" x="230" y="-67.5" font-family="Helvetica,sans-Serif" font-size="10.00">DMA transfers management</text>
<text text-anchor="middle" x="292" y="-56.5" font-family="Helvetica,sans-Serif" font-size="10.00"> functions</text>
</a>
</g>
</g>
<!-- Node6 -->
<g id="node5" class="node"><title>Node6</title>
<g id="a_node5"><a xlink:href="a01087.html" target="_top" xlink:title="Interrupts and flags management functions. ">
<polygon fill="white" stroke="black" points="232.5,-0.5 232.5,-30.5 351.5,-30.5 351.5,-0.5 232.5,-0.5"/>
<text text-anchor="start" x="240.5" y="-18.5" font-family="Helvetica,sans-Serif" font-size="10.00">Interrupts and flags</text>
<text text-anchor="middle" x="292" y="-7.5" font-family="Helvetica,sans-Serif" font-size="10.00"> management functions</text>
</a>
</g>
</g>
<!-- Node1 -->
<g id="node6" class="node"><title>Node1</title>
<g id="a_node6"><a xlink:href="a00105.html" target="_top" xlink:title="SPI driver modules. ">
<polygon fill="white" stroke="black" points="0,-104 0,-123 33,-123 33,-104 0,-104"/>
<text text-anchor="middle" x="16.5" y="-111" font-family="Helvetica,sans-Serif" font-size="10.00">SPI</text>
</a>
</g>
</g>
<!-- Node0 -->
<g id="node7" class="node"><title>Node0</title>
<polygon fill="#bfbfbf" stroke="black" points="69,-104 69,-123 186,-123 186,-104 69,-104"/>
<text text-anchor="middle" x="127.5" y="-111" font-family="Helvetica,sans-Serif" font-size="10.00">SPI_Private_Functions</text>
</g>
<!-- Node1&#45;&gt;Node0 -->
<g id="edge1" class="edge"><title>Node1&#45;&gt;Node0</title>
<path fill="none" stroke="black" d="M43.2006,-113.5C50.9126,-113.5 59.704,-113.5 68.6165,-113.5"/>
<polygon fill="black" stroke="black" points="43.1171,-110 33.117,-113.5 43.117,-117 43.1171,-110"/>
</g>
<!-- Node0&#45;&gt;Node2 -->
<g id="edge2" class="edge"><title>Node0&#45;&gt;Node2</title>
<path fill="none" stroke="black" d="M148.774,-129.307C167.131,-143.085 195.309,-162.933 222,-176.5 229.156,-180.137 236.968,-183.498 244.681,-186.499"/>
<polygon fill="black" stroke="black" points="150.677,-126.357 140.601,-123.085 146.437,-131.927 150.677,-126.357"/>
</g>
<!-- Node0&#45;&gt;Node3 -->
<g id="edge3" class="edge"><title>Node0&#45;&gt;Node3</title>
<path fill="none" stroke="black" d="M173.734,-125.748C199.677,-132.772 231.762,-141.46 255.809,-147.971"/>
<polygon fill="black" stroke="black" points="174.327,-122.283 163.76,-123.047 172.498,-129.039 174.327,-122.283"/>
</g>
<!-- Node0&#45;&gt;Node4 -->
<g id="edge4" class="edge"><title>Node0&#45;&gt;Node4</title>
<path fill="none" stroke="black" d="M196.348,-113.5C205.402,-113.5 214.683,-113.5 223.727,-113.5"/>
<polygon fill="black" stroke="black" points="196.249,-110 186.249,-113.5 196.249,-117 196.249,-110"/>
</g>
<!-- Node0&#45;&gt;Node5 -->
<g id="edge5" class="edge"><title>Node0&#45;&gt;Node5</title>
<path fill="none" stroke="black" d="M169.802,-101.046C191.508,-94.5008 218.277,-86.4287 241.133,-79.537"/>
<polygon fill="black" stroke="black" points="168.781,-97.698 160.217,-103.936 170.802,-104.4 168.781,-97.698"/>
</g>
<!-- Node0&#45;&gt;Node6 -->
<g id="edge6" class="edge"><title>Node0&#45;&gt;Node6</title>
<path fill="none" stroke="black" d="M145.692,-96.9435C163.544,-80.4961 192.888,-55.4841 222,-39.5 228.003,-36.2037 234.544,-33.2302 241.129,-30.5899"/>
<polygon fill="black" stroke="black" points="143.242,-94.4421 138.34,-103.835 148.03,-99.5493 143.242,-94.4421"/>
</g>
</g>
</svg>
