<?xml version="1.0" encoding="UTF-8" standalone="no"?>
<!DOCTYPE svg PUBLIC "-//W3C//DTD SVG 1.1//EN"
 "http://www.w3.org/Graphics/SVG/1.1/DTD/svg11.dtd">
<!-- Generated by graphviz version 2.38.0 (20140413.2041)
 -->
<!-- Title: __attribute__ Pages: 1 -->
<svg width="212pt" height="408pt"
 viewBox="0.00 0.00 212.00 408.00" xmlns="http://www.w3.org/2000/svg" xmlns:xlink="http://www.w3.org/1999/xlink">
<g id="graph0" class="graph" transform="scale(1 1) rotate(0) translate(4 404)">
<title>__attribute__</title>
<polygon fill="white" stroke="none" points="-4,4 -4,-404 208,-404 208,4 -4,4"/>
<!-- Node1 -->
<g id="node1" class="node"><title>Node1</title>
<polygon fill="#bfbfbf" stroke="black" points="0,-190.5 0,-209.5 73,-209.5 73,-190.5 0,-190.5"/>
<text text-anchor="middle" x="36.5" y="-197.5" font-family="Helvetica,sans-Serif" font-size="10.00">__attribute__</text>
</g>
<!-- Node2 -->
<g id="node2" class="node"><title>Node2</title>
<g id="a_node2"><a xlink:href="a01132.html#ga5fe64567d5bf0a81c118374e9a3a4598" target="_top" xlink:title="Get Control Register. ">
<polygon fill="white" stroke="black" points="109,-380.5 109,-399.5 204,-399.5 204,-380.5 109,-380.5"/>
<text text-anchor="middle" x="156.5" y="-387.5" font-family="Helvetica,sans-Serif" font-size="10.00">__get_CONTROL</text>
</a>
</g>
</g>
<!-- Node1&#45;&gt;Node2 -->
<g id="edge1" class="edge"><title>Node1&#45;&gt;Node2</title>
<path fill="none" stroke="midnightblue" d="M38.8827,-209.561C43.4805,-238.024 60.7954,-323.186 109,-371 110.44,-372.428 112.001,-373.753 113.651,-374.983"/>
<polygon fill="midnightblue" stroke="midnightblue" points="112.115,-378.145 122.475,-380.364 115.759,-372.169 112.115,-378.145"/>
</g>
<!-- Node3 -->
<g id="node3" class="node"><title>Node3</title>
<g id="a_node3"><a xlink:href="a01132.html#ga558df7eeb0a34765e0b54d9853d08484" target="_top" xlink:title="Set Control Register. ">
<polygon fill="white" stroke="black" points="109,-342.5 109,-361.5 204,-361.5 204,-342.5 109,-342.5"/>
<text text-anchor="middle" x="156.5" y="-349.5" font-family="Helvetica,sans-Serif" font-size="10.00">__set_CONTROL</text>
</a>
</g>
</g>
<!-- Node1&#45;&gt;Node3 -->
<g id="edge2" class="edge"><title>Node1&#45;&gt;Node3</title>
<path fill="none" stroke="midnightblue" d="M40.231,-209.806C47.4465,-234.011 69.2454,-297.228 109,-333 110.738,-334.564 112.622,-336.009 114.603,-337.342"/>
<polygon fill="midnightblue" stroke="midnightblue" points="113.319,-340.637 123.749,-342.5 116.757,-334.539 113.319,-340.637"/>
</g>
<!-- Node4 -->
<g id="node4" class="node"><title>Node4</title>
<g id="a_node4"><a xlink:href="a01132.html#ga2c18685a915eb9b7513a907c2b866636" target="_top" xlink:title="Get IPSR Register. ">
<polygon fill="white" stroke="black" points="121.5,-304.5 121.5,-323.5 191.5,-323.5 191.5,-304.5 121.5,-304.5"/>
<text text-anchor="middle" x="156.5" y="-311.5" font-family="Helvetica,sans-Serif" font-size="10.00">__get_IPSR</text>
</a>
</g>
</g>
<!-- Node1&#45;&gt;Node4 -->
<g id="edge3" class="edge"><title>Node1&#45;&gt;Node4</title>
<path fill="none" stroke="midnightblue" d="M42.4692,-209.715C52.5767,-228.6 77.2843,-270.55 109,-295 111.266,-296.747 113.715,-298.358 116.264,-299.84"/>
<polygon fill="midnightblue" stroke="midnightblue" points="114.687,-302.965 125.185,-304.388 117.865,-296.728 114.687,-302.965"/>
</g>
<!-- Node5 -->
<g id="node5" class="node"><title>Node5</title>
<g id="a_node5"><a xlink:href="a01132.html#gaf082254959c727c663f2334021f1a98a" target="_top" xlink:title="Get APSR Register. ">
<polygon fill="white" stroke="black" points="119.5,-266.5 119.5,-285.5 193.5,-285.5 193.5,-266.5 119.5,-266.5"/>
<text text-anchor="middle" x="156.5" y="-273.5" font-family="Helvetica,sans-Serif" font-size="10.00">__get_APSR</text>
</a>
</g>
</g>
<!-- Node1&#45;&gt;Node5 -->
<g id="edge4" class="edge"><title>Node1&#45;&gt;Node5</title>
<path fill="none" stroke="midnightblue" d="M47.9351,-209.921C61.2674,-222.203 85.4475,-243.185 109,-257 112.197,-258.875 115.614,-260.651 119.09,-262.31"/>
<polygon fill="midnightblue" stroke="midnightblue" points="117.758,-265.548 128.318,-266.412 120.602,-259.152 117.758,-265.548"/>
</g>
<!-- Node6 -->
<g id="node6" class="node"><title>Node6</title>
<g id="a_node6"><a xlink:href="a01132.html#ga94c675a736d4754a5f73d8748b24aa11" target="_top" xlink:title="Get xPSR Register. ">
<polygon fill="white" stroke="black" points="120.5,-228.5 120.5,-247.5 192.5,-247.5 192.5,-228.5 120.5,-228.5"/>
<text text-anchor="middle" x="156.5" y="-235.5" font-family="Helvetica,sans-Serif" font-size="10.00">__get_xPSR</text>
</a>
</g>
</g>
<!-- Node1&#45;&gt;Node6 -->
<g id="edge5" class="edge"><title>Node1&#45;&gt;Node6</title>
<path fill="none" stroke="midnightblue" d="M67.2764,-209.589C82.0898,-214.359 100.191,-220.189 116.134,-225.323"/>
<polygon fill="midnightblue" stroke="midnightblue" points="115.142,-228.68 125.733,-228.414 117.287,-222.017 115.142,-228.68"/>
</g>
<!-- Node7 -->
<g id="node7" class="node"><title>Node7</title>
<g id="a_node7"><a xlink:href="a01132.html#ga0c569cbb49336f8d638686f9103047aa" target="_top" xlink:title="Get Process Stack Pointer. ">
<polygon fill="white" stroke="black" points="123.5,-190.5 123.5,-209.5 189.5,-209.5 189.5,-190.5 123.5,-190.5"/>
<text text-anchor="middle" x="156.5" y="-197.5" font-family="Helvetica,sans-Serif" font-size="10.00">__get_PSP</text>
</a>
</g>
</g>
<!-- Node1&#45;&gt;Node7 -->
<g id="edge6" class="edge"><title>Node1&#45;&gt;Node7</title>
<path fill="none" stroke="midnightblue" d="M73.2241,-200C85.7488,-200 99.9401,-200 112.967,-200"/>
<polygon fill="midnightblue" stroke="midnightblue" points="113.111,-203.5 123.111,-200 113.111,-196.5 113.111,-203.5"/>
</g>
<!-- Node8 -->
<g id="node8" class="node"><title>Node8</title>
<g id="a_node8"><a xlink:href="a01132.html#gab145e35dbaf6868d3a17a8ad360fe379" target="_top" xlink:title="Set Process Stack Pointer. ">
<polygon fill="white" stroke="black" points="123.5,-152.5 123.5,-171.5 189.5,-171.5 189.5,-152.5 123.5,-152.5"/>
<text text-anchor="middle" x="156.5" y="-159.5" font-family="Helvetica,sans-Serif" font-size="10.00">__set_PSP</text>
</a>
</g>
</g>
<!-- Node1&#45;&gt;Node8 -->
<g id="edge7" class="edge"><title>Node1&#45;&gt;Node8</title>
<path fill="none" stroke="midnightblue" d="M67.2764,-190.411C82.0898,-185.641 100.191,-179.811 116.134,-174.677"/>
<polygon fill="midnightblue" stroke="midnightblue" points="117.287,-177.983 125.733,-171.586 115.142,-171.32 117.287,-177.983"/>
</g>
<!-- Node9 -->
<g id="node9" class="node"><title>Node9</title>
<g id="a_node9"><a xlink:href="a01132.html#gac5267c10c9b15b5349eea0a959ea014c" target="_top" xlink:title="Get Main Stack Pointer. ">
<polygon fill="white" stroke="black" points="122.5,-114.5 122.5,-133.5 190.5,-133.5 190.5,-114.5 122.5,-114.5"/>
<text text-anchor="middle" x="156.5" y="-121.5" font-family="Helvetica,sans-Serif" font-size="10.00">__get_MSP</text>
</a>
</g>
</g>
<!-- Node1&#45;&gt;Node9 -->
<g id="edge8" class="edge"><title>Node1&#45;&gt;Node9</title>
<path fill="none" stroke="midnightblue" d="M47.9351,-190.079C61.2674,-177.797 85.4475,-156.815 109,-143 112.197,-141.125 115.614,-139.349 119.09,-137.69"/>
<polygon fill="midnightblue" stroke="midnightblue" points="120.602,-140.848 128.318,-133.588 117.758,-134.452 120.602,-140.848"/>
</g>
<!-- Node10 -->
<g id="node10" class="node"><title>Node10</title>
<g id="a_node10"><a xlink:href="a01132.html#ga1ff33c0b5ed0e687dd7967a1dd283d5f" target="_top" xlink:title="Set Main Stack Pointer. ">
<polygon fill="white" stroke="black" points="122.5,-76.5 122.5,-95.5 190.5,-95.5 190.5,-76.5 122.5,-76.5"/>
<text text-anchor="middle" x="156.5" y="-83.5" font-family="Helvetica,sans-Serif" font-size="10.00">__set_MSP</text>
</a>
</g>
</g>
<!-- Node1&#45;&gt;Node10 -->
<g id="edge9" class="edge"><title>Node1&#45;&gt;Node10</title>
<path fill="none" stroke="midnightblue" d="M42.4692,-190.285C52.5767,-171.4 77.2843,-129.45 109,-105 111.266,-103.253 113.715,-101.642 116.264,-100.16"/>
<polygon fill="midnightblue" stroke="midnightblue" points="117.865,-103.272 125.185,-95.6125 114.687,-97.0352 117.865,-103.272"/>
</g>
<!-- Node11 -->
<g id="node11" class="node"><title>Node11</title>
<g id="a_node11"><a xlink:href="a01132.html#gac9e3a67ff722261b89c77ebe49b6f9a7" target="_top" xlink:title="Get Priority Mask. ">
<polygon fill="white" stroke="black" points="110.5,-38.5 110.5,-57.5 202.5,-57.5 202.5,-38.5 110.5,-38.5"/>
<text text-anchor="middle" x="156.5" y="-45.5" font-family="Helvetica,sans-Serif" font-size="10.00">__get_PRIMASK</text>
</a>
</g>
</g>
<!-- Node1&#45;&gt;Node11 -->
<g id="edge10" class="edge"><title>Node1&#45;&gt;Node11</title>
<path fill="none" stroke="midnightblue" d="M40.231,-190.194C47.4465,-165.989 69.2454,-102.772 109,-67 110.738,-65.436 112.622,-63.9911 114.603,-62.6577"/>
<polygon fill="midnightblue" stroke="midnightblue" points="116.757,-65.4608 123.749,-57.5004 113.319,-59.3634 116.757,-65.4608"/>
</g>
<!-- Node12 -->
<g id="node12" class="node"><title>Node12</title>
<g id="a_node12"><a xlink:href="a01132.html#ga42e74e3fffe1a2d93db1de04d9260929" target="_top" xlink:title="Set Priority Mask. ">
<polygon fill="white" stroke="black" points="110.5,-0.5 110.5,-19.5 202.5,-19.5 202.5,-0.5 110.5,-0.5"/>
<text text-anchor="middle" x="156.5" y="-7.5" font-family="Helvetica,sans-Serif" font-size="10.00">__set_PRIMASK</text>
</a>
</g>
</g>
<!-- Node1&#45;&gt;Node12 -->
<g id="edge11" class="edge"><title>Node1&#45;&gt;Node12</title>
<path fill="none" stroke="midnightblue" d="M38.8827,-190.439C43.4805,-161.976 60.7954,-76.814 109,-29 110.44,-27.5721 112.001,-26.2469 113.651,-25.0174"/>
<polygon fill="midnightblue" stroke="midnightblue" points="115.759,-27.8311 122.475,-19.6365 112.115,-21.8547 115.759,-27.8311"/>
</g>
</g>
</svg>
