<?xml version="1.0" encoding="UTF-8" standalone="no"?>
<!DOCTYPE svg PUBLIC "-//W3C//DTD SVG 1.1//EN"
 "http://www.w3.org/Graphics/SVG/1.1/DTD/svg11.dtd">
<!-- Generated by graphviz version 2.38.0 (20140413.2041)
 -->
<!-- Title: RTC_Bcd2ToByte Pages: 1 -->
<svg width="250pt" height="256pt"
 viewBox="0.00 0.00 250.00 256.00" xmlns="http://www.w3.org/2000/svg" xmlns:xlink="http://www.w3.org/1999/xlink">
<g id="graph0" class="graph" transform="scale(1 1) rotate(0) translate(4 252)">
<title>RTC_Bcd2ToByte</title>
<polygon fill="white" stroke="none" points="-4,4 -4,-252 246,-252 246,4 -4,4"/>
<!-- Node1 -->
<g id="node1" class="node"><title>Node1</title>
<polygon fill="#bfbfbf" stroke="black" points="0,-114.5 0,-133.5 97,-133.5 97,-114.5 0,-114.5"/>
<text text-anchor="middle" x="48.5" y="-121.5" font-family="Helvetica,sans-Serif" font-size="10.00">RTC_Bcd2ToByte</text>
</g>
<!-- Node2 -->
<g id="node2" class="node"><title>Node2</title>
<g id="a_node2"><a xlink:href="a01159.html#ga9f9df80cfa82f7a4dd9f4d0cf2ffb3a6" target="_top" xlink:title="Set the RTC current time. ">
<polygon fill="white" stroke="black" points="147.5,-228.5 147.5,-247.5 227.5,-247.5 227.5,-228.5 147.5,-228.5"/>
<text text-anchor="middle" x="187.5" y="-235.5" font-family="Helvetica,sans-Serif" font-size="10.00">RTC_SetTime</text>
</a>
</g>
</g>
<!-- Node1&#45;&gt;Node2 -->
<g id="edge1" class="edge"><title>Node1&#45;&gt;Node2</title>
<path fill="none" stroke="midnightblue" d="M61.0106,-141.922C75.4576,-163.095 102.121,-198.078 133,-219 138.549,-222.76 144.925,-225.862 151.296,-228.392"/>
<polygon fill="midnightblue" stroke="midnightblue" points="63.8761,-139.91 55.4254,-133.52 58.0466,-143.786 63.8761,-139.91"/>
</g>
<!-- Node3 -->
<g id="node3" class="node"><title>Node3</title>
<g id="a_node3"><a xlink:href="a01159.html#ga1fcc101339c77aebd25ec3621fd1b61a" target="_top" xlink:title="Get the RTC current Time. ">
<polygon fill="white" stroke="black" points="147.5,-190.5 147.5,-209.5 227.5,-209.5 227.5,-190.5 147.5,-190.5"/>
<text text-anchor="middle" x="187.5" y="-197.5" font-family="Helvetica,sans-Serif" font-size="10.00">RTC_GetTime</text>
</a>
</g>
</g>
<!-- Node1&#45;&gt;Node3 -->
<g id="edge2" class="edge"><title>Node1&#45;&gt;Node3</title>
<path fill="none" stroke="midnightblue" d="M69.5746,-139.892C85.9412,-152.296 110.027,-169.327 133,-181 140.03,-184.572 147.891,-187.767 155.377,-190.472"/>
<polygon fill="midnightblue" stroke="midnightblue" points="71.3897,-136.872 61.3324,-133.54 67.1167,-142.416 71.3897,-136.872"/>
</g>
<!-- Node4 -->
<g id="node4" class="node"><title>Node4</title>
<g id="a_node4"><a xlink:href="a01159.html#ga69d08538147f3d89c818dcfabf50e362" target="_top" xlink:title="Set the RTC current date. ">
<polygon fill="white" stroke="black" points="148,-152.5 148,-171.5 227,-171.5 227,-152.5 148,-152.5"/>
<text text-anchor="middle" x="187.5" y="-159.5" font-family="Helvetica,sans-Serif" font-size="10.00">RTC_SetDate</text>
</a>
</g>
</g>
<!-- Node1&#45;&gt;Node4 -->
<g id="edge3" class="edge"><title>Node1&#45;&gt;Node4</title>
<path fill="none" stroke="midnightblue" d="M93.9108,-136.318C112.734,-141.539 134.338,-147.532 151.94,-152.414"/>
<polygon fill="midnightblue" stroke="midnightblue" points="94.6426,-132.889 84.0709,-133.589 92.7716,-139.635 94.6426,-132.889"/>
</g>
<!-- Node5 -->
<g id="node5" class="node"><title>Node5</title>
<g id="a_node5"><a xlink:href="a01159.html#ga582645d554cdd4a316213e90f0b4c8ae" target="_top" xlink:title="Get the RTC current date. ">
<polygon fill="white" stroke="black" points="147.5,-114.5 147.5,-133.5 227.5,-133.5 227.5,-114.5 147.5,-114.5"/>
<text text-anchor="middle" x="187.5" y="-121.5" font-family="Helvetica,sans-Serif" font-size="10.00">RTC_GetDate</text>
</a>
</g>
</g>
<!-- Node1&#45;&gt;Node5 -->
<g id="edge4" class="edge"><title>Node1&#45;&gt;Node5</title>
<path fill="none" stroke="midnightblue" d="M107.199,-124C120.688,-124 134.75,-124 147.221,-124"/>
<polygon fill="midnightblue" stroke="midnightblue" points="107.031,-120.5 97.0315,-124 107.031,-127.5 107.031,-120.5"/>
</g>
<!-- Node6 -->
<g id="node6" class="node"><title>Node6</title>
<g id="a_node6"><a xlink:href="a01160.html#ga44e3334f8e882df9b8a59b47f0857395" target="_top" xlink:title="Set the specified RTC Alarm. ">
<polygon fill="white" stroke="black" points="146,-76.5 146,-95.5 229,-95.5 229,-76.5 146,-76.5"/>
<text text-anchor="middle" x="187.5" y="-83.5" font-family="Helvetica,sans-Serif" font-size="10.00">RTC_SetAlarm</text>
</a>
</g>
</g>
<!-- Node1&#45;&gt;Node6 -->
<g id="edge5" class="edge"><title>Node1&#45;&gt;Node6</title>
<path fill="none" stroke="midnightblue" d="M93.9108,-111.682C112.734,-106.461 134.338,-100.468 151.94,-95.5859"/>
<polygon fill="midnightblue" stroke="midnightblue" points="92.7716,-108.365 84.0709,-114.411 94.6426,-115.111 92.7716,-108.365"/>
</g>
<!-- Node7 -->
<g id="node7" class="node"><title>Node7</title>
<g id="a_node7"><a xlink:href="a01160.html#ga6e2888d2fd2e3ecb4ec50f5c955b362b" target="_top" xlink:title="Get the RTC Alarm value and masks. ">
<polygon fill="white" stroke="black" points="145.5,-38.5 145.5,-57.5 229.5,-57.5 229.5,-38.5 145.5,-38.5"/>
<text text-anchor="middle" x="187.5" y="-45.5" font-family="Helvetica,sans-Serif" font-size="10.00">RTC_GetAlarm</text>
</a>
</g>
</g>
<!-- Node1&#45;&gt;Node7 -->
<g id="edge6" class="edge"><title>Node1&#45;&gt;Node7</title>
<path fill="none" stroke="midnightblue" d="M69.5746,-108.108C85.9412,-95.7038 110.027,-78.6729 133,-67 140.03,-63.4281 147.891,-60.2332 155.377,-57.5284"/>
<polygon fill="midnightblue" stroke="midnightblue" points="67.1167,-105.584 61.3324,-114.46 71.3897,-111.128 67.1167,-105.584"/>
</g>
<!-- Node8 -->
<g id="node8" class="node"><title>Node8</title>
<g id="a_node8"><a xlink:href="a01165.html#ga44c38b0c74e9e960a4263b2905f44796" target="_top" xlink:title="Get the RTC TimeStamp value and masks. ">
<polygon fill="white" stroke="black" points="133,-0.5 133,-19.5 242,-19.5 242,-0.5 133,-0.5"/>
<text text-anchor="middle" x="187.5" y="-7.5" font-family="Helvetica,sans-Serif" font-size="10.00">RTC_GetTimeStamp</text>
</a>
</g>
</g>
<!-- Node1&#45;&gt;Node8 -->
<g id="edge7" class="edge"><title>Node1&#45;&gt;Node8</title>
<path fill="none" stroke="midnightblue" d="M61.0106,-106.078C75.4576,-84.9048 102.121,-49.9217 133,-29 138.549,-25.2405 144.925,-22.1377 151.296,-19.6079"/>
<polygon fill="midnightblue" stroke="midnightblue" points="58.0466,-104.214 55.4254,-114.48 63.8761,-108.09 58.0466,-104.214"/>
</g>
</g>
</svg>
