<?xml version="1.0" encoding="UTF-8" standalone="no"?>
<!DOCTYPE svg PUBLIC "-//W3C//DTD SVG 1.1//EN"
 "http://www.w3.org/Graphics/SVG/1.1/DTD/svg11.dtd">
<!-- Generated by graphviz version 2.38.0 (20140413.2041)
 -->
<!-- Title: USART_Private_Functions Pages: 1 -->
<svg width="419pt" height="378pt"
 viewBox="0.00 0.00 419.00 378.00" xmlns="http://www.w3.org/2000/svg" xmlns:xlink="http://www.w3.org/1999/xlink">
<g id="graph0" class="graph" transform="scale(1 1) rotate(0) translate(4 374)">
<title>USART_Private_Functions</title>
<polygon fill="white" stroke="none" points="-4,4 -4,-374 415,-374 415,4 -4,4"/>
<!-- Node2 -->
<g id="node1" class="node"><title>Node2</title>
<g id="a_node1"><a xlink:href="a01101.html" target="_top" xlink:title="Initialization and Configuration functions. ">
<polygon fill="white" stroke="black" points="274.5,-339.5 274.5,-369.5 394.5,-369.5 394.5,-339.5 274.5,-339.5"/>
<text text-anchor="start" x="282.5" y="-357.5" font-family="Helvetica,sans-Serif" font-size="10.00">Initialization and</text>
<text text-anchor="middle" x="334.5" y="-346.5" font-family="Helvetica,sans-Serif" font-size="10.00"> Configuration functions</text>
</a>
</g>
</g>
<!-- Node3 -->
<g id="node2" class="node"><title>Node3</title>
<g id="a_node2"><a xlink:href="a01102.html" target="_top" xlink:title="Data transfers functions. ">
<polygon fill="white" stroke="black" points="273.5,-301 273.5,-320 395.5,-320 395.5,-301 273.5,-301"/>
<text text-anchor="middle" x="334.5" y="-308" font-family="Helvetica,sans-Serif" font-size="10.00">Data transfers functions</text>
</a>
</g>
</g>
<!-- Node4 -->
<g id="node3" class="node"><title>Node4</title>
<g id="a_node3"><a xlink:href="a01103.html" target="_top" xlink:title="Multi&#45;Processor Communication functions. ">
<polygon fill="white" stroke="black" points="258,-251.5 258,-281.5 411,-281.5 411,-251.5 258,-251.5"/>
<text text-anchor="start" x="266" y="-269.5" font-family="Helvetica,sans-Serif" font-size="10.00">MultiProcessor Communication</text>
<text text-anchor="middle" x="334.5" y="-258.5" font-family="Helvetica,sans-Serif" font-size="10.00"> functions</text>
</a>
</g>
</g>
<!-- Node5 -->
<g id="node4" class="node"><title>Node5</title>
<g id="a_node4"><a xlink:href="a01104.html" target="_top" xlink:title="LIN mode functions. ">
<polygon fill="white" stroke="black" points="283.5,-213 283.5,-232 385.5,-232 385.5,-213 283.5,-213"/>
<text text-anchor="middle" x="334.5" y="-220" font-family="Helvetica,sans-Serif" font-size="10.00">LIN mode functions</text>
</a>
</g>
</g>
<!-- Node6 -->
<g id="node5" class="node"><title>Node6</title>
<g id="a_node5"><a xlink:href="a01105.html" target="_top" xlink:title="Half&#45;duplex mode function. ">
<polygon fill="white" stroke="black" points="270.5,-175 270.5,-194 398.5,-194 398.5,-175 270.5,-175"/>
<text text-anchor="middle" x="334.5" y="-182" font-family="Helvetica,sans-Serif" font-size="10.00">Halfduplex mode function</text>
</a>
</g>
</g>
<!-- Node7 -->
<g id="node6" class="node"><title>Node7</title>
<g id="a_node6"><a xlink:href="a01106.html" target="_top" xlink:title="Smartcard mode functions. ">
<polygon fill="white" stroke="black" points="269,-137 269,-156 400,-156 400,-137 269,-137"/>
<text text-anchor="middle" x="334.5" y="-144" font-family="Helvetica,sans-Serif" font-size="10.00">Smartcard mode functions</text>
</a>
</g>
</g>
<!-- Node8 -->
<g id="node7" class="node"><title>Node8</title>
<g id="a_node7"><a xlink:href="a01107.html" target="_top" xlink:title="IrDA mode functions. ">
<polygon fill="white" stroke="black" points="281,-99 281,-118 388,-118 388,-99 281,-99"/>
<text text-anchor="middle" x="334.5" y="-106" font-family="Helvetica,sans-Serif" font-size="10.00">IrDA mode functions</text>
</a>
</g>
</g>
<!-- Node9 -->
<g id="node8" class="node"><title>Node9</title>
<g id="a_node8"><a xlink:href="a01108.html" target="_top" xlink:title="DMA transfers management functions. ">
<polygon fill="white" stroke="black" points="264.5,-49.5 264.5,-79.5 404.5,-79.5 404.5,-49.5 264.5,-49.5"/>
<text text-anchor="start" x="272.5" y="-67.5" font-family="Helvetica,sans-Serif" font-size="10.00">DMA transfers management</text>
<text text-anchor="middle" x="334.5" y="-56.5" font-family="Helvetica,sans-Serif" font-size="10.00"> functions</text>
</a>
</g>
</g>
<!-- Node10 -->
<g id="node9" class="node"><title>Node10</title>
<g id="a_node9"><a xlink:href="a01109.html" target="_top" xlink:title="Interrupts and flags management functions. ">
<polygon fill="white" stroke="black" points="275,-0.5 275,-30.5 394,-30.5 394,-0.5 275,-0.5"/>
<text text-anchor="start" x="283" y="-18.5" font-family="Helvetica,sans-Serif" font-size="10.00">Interrupts and flags</text>
<text text-anchor="middle" x="334.5" y="-7.5" font-family="Helvetica,sans-Serif" font-size="10.00"> management functions</text>
</a>
</g>
</g>
<!-- Node0 -->
<g id="node10" class="node"><title>Node0</title>
<polygon fill="#bfbfbf" stroke="black" points="87,-175 87,-194 222,-194 222,-175 87,-175"/>
<text text-anchor="middle" x="154.5" y="-182" font-family="Helvetica,sans-Serif" font-size="10.00">USART_Private_Functions</text>
</g>
<!-- Node0&#45;&gt;Node2 -->
<g id="edge2" class="edge"><title>Node0&#45;&gt;Node2</title>
<path fill="none" stroke="black" d="M163.971,-203.451C178.702,-234.304 211.932,-295.371 258,-329.5 263.214,-333.363 269.059,-336.65 275.127,-339.443"/>
<polygon fill="black" stroke="black" points="167.076,-201.826 159.692,-194.228 160.726,-204.772 167.076,-201.826"/>
</g>
<!-- Node0&#45;&gt;Node3 -->
<g id="edge3" class="edge"><title>Node0&#45;&gt;Node3</title>
<path fill="none" stroke="black" d="M167.672,-202.462C184.916,-226.483 218.759,-268.682 258,-291.5 264.66,-295.373 272.097,-298.463 279.636,-300.927"/>
<polygon fill="black" stroke="black" points="170.505,-200.405 161.9,-194.224 164.772,-204.422 170.505,-200.405"/>
</g>
<!-- Node0&#45;&gt;Node4 -->
<g id="edge4" class="edge"><title>Node0&#45;&gt;Node4</title>
<path fill="none" stroke="black" d="M179.273,-199.405C199.64,-211.759 230.029,-229.222 258,-241.5 266.092,-245.052 274.856,-248.39 283.451,-251.4"/>
<polygon fill="black" stroke="black" points="181.02,-196.37 170.665,-194.125 177.36,-202.337 181.02,-196.37"/>
</g>
<!-- Node0&#45;&gt;Node5 -->
<g id="edge5" class="edge"><title>Node0&#45;&gt;Node5</title>
<path fill="none" stroke="black" d="M210.216,-196.181C235.459,-201.57 265.045,-207.886 288.906,-212.98"/>
<polygon fill="black" stroke="black" points="210.927,-192.754 200.417,-194.089 209.466,-199.6 210.927,-192.754"/>
</g>
<!-- Node0&#45;&gt;Node6 -->
<g id="edge6" class="edge"><title>Node0&#45;&gt;Node6</title>
<path fill="none" stroke="black" d="M232.146,-184.5C244.873,-184.5 257.944,-184.5 270.29,-184.5"/>
<polygon fill="black" stroke="black" points="232.034,-181 222.034,-184.5 232.034,-188 232.034,-181"/>
</g>
<!-- Node0&#45;&gt;Node7 -->
<g id="edge7" class="edge"><title>Node0&#45;&gt;Node7</title>
<path fill="none" stroke="black" d="M210.216,-172.819C235.459,-167.43 265.045,-161.114 288.906,-156.02"/>
<polygon fill="black" stroke="black" points="209.466,-169.4 200.417,-174.911 210.927,-176.246 209.466,-169.4"/>
</g>
<!-- Node0&#45;&gt;Node8 -->
<g id="edge8" class="edge"><title>Node0&#45;&gt;Node8</title>
<path fill="none" stroke="black" d="M178.354,-169.502C198.582,-156.795 229.27,-138.876 258,-127.5 267.3,-123.818 277.531,-120.677 287.379,-118.072"/>
<polygon fill="black" stroke="black" points="176.39,-166.604 169.841,-174.932 180.154,-172.506 176.39,-166.604"/>
</g>
<!-- Node0&#45;&gt;Node9 -->
<g id="edge9" class="edge"><title>Node0&#45;&gt;Node9</title>
<path fill="none" stroke="black" d="M169.957,-167.158C188.392,-146.061 222.198,-110.651 258,-89.5 264.42,-85.7076 271.49,-82.4027 278.652,-79.5484"/>
<polygon fill="black" stroke="black" points="167.096,-165.117 163.247,-174.988 172.412,-169.672 167.096,-165.117"/>
</g>
<!-- Node0&#45;&gt;Node10 -->
<g id="edge10" class="edge"><title>Node0&#45;&gt;Node10</title>
<path fill="none" stroke="black" d="M163.925,-165.487C178.591,-134.544 211.728,-73.3525 258,-39.5 263.106,-35.7643 268.815,-32.5962 274.745,-29.9124"/>
<polygon fill="black" stroke="black" points="160.669,-164.191 159.667,-174.738 167.028,-167.117 160.669,-164.191"/>
</g>
<!-- Node1 -->
<g id="node11" class="node"><title>Node1</title>
<g id="a_node11"><a xlink:href="a00124.html" target="_top" xlink:title="USART driver modules. ">
<polygon fill="white" stroke="black" points="0,-175 0,-194 51,-194 51,-175 0,-175"/>
<text text-anchor="middle" x="25.5" y="-182" font-family="Helvetica,sans-Serif" font-size="10.00">USART</text>
</a>
</g>
</g>
<!-- Node1&#45;&gt;Node0 -->
<g id="edge1" class="edge"><title>Node1&#45;&gt;Node0</title>
<path fill="none" stroke="black" d="M61.5502,-184.5C69.4585,-184.5 78.109,-184.5 86.8393,-184.5"/>
<polygon fill="black" stroke="black" points="61.2884,-181 51.2884,-184.5 61.2883,-188 61.2884,-181"/>
</g>
</g>
</svg>
