<?xml version="1.0" encoding="UTF-8" standalone="no"?>
<!DOCTYPE svg PUBLIC "-//W3C//DTD SVG 1.1//EN"
 "http://www.w3.org/Graphics/SVG/1.1/DTD/svg11.dtd">
<!-- Generated by graphviz version 2.38.0 (20140413.2041)
 -->
<!-- Title: RCC_GetClocksFreq Pages: 1 -->
<svg width="780pt" height="94pt"
 viewBox="0.00 0.00 780.00 94.00" xmlns="http://www.w3.org/2000/svg" xmlns:xlink="http://www.w3.org/1999/xlink">
<g id="graph0" class="graph" transform="scale(1 1) rotate(0) translate(4 90)">
<title>RCC_GetClocksFreq</title>
<polygon fill="white" stroke="none" points="-4,4 -4,-90 776,-90 776,4 -4,4"/>
<!-- Node1 -->
<g id="node1" class="node"><title>Node1</title>
<polygon fill="#bfbfbf" stroke="black" points="0,-47.5 0,-66.5 110,-66.5 110,-47.5 0,-47.5"/>
<text text-anchor="middle" x="55" y="-54.5" font-family="Helvetica,sans-Serif" font-size="10.00">RCC_GetClocksFreq</text>
</g>
<!-- Node2 -->
<g id="node2" class="node"><title>Node2</title>
<g id="a_node2"><a xlink:href="a01128.html#gaac29465bca70fbc91c2f922ab67bb88e" target="_top" xlink:title="Initializes the I2Cx peripheral according to the specified parameters in the I2C_InitStruct. ">
<polygon fill="white" stroke="black" points="155.5,-66.5 155.5,-85.5 206.5,-85.5 206.5,-66.5 155.5,-66.5"/>
<text text-anchor="middle" x="181" y="-73.5" font-family="Helvetica,sans-Serif" font-size="10.00">I2C_Init</text>
</a>
</g>
</g>
<!-- Node1&#45;&gt;Node2 -->
<g id="edge1" class="edge"><title>Node1&#45;&gt;Node2</title>
<path fill="none" stroke="midnightblue" d="M120.076,-66.8182C132.625,-68.741 145.061,-70.6464 155.323,-72.2189"/>
<polygon fill="midnightblue" stroke="midnightblue" points="120.442,-63.3334 110.027,-65.2784 119.382,-70.2527 120.442,-63.3334"/>
</g>
<!-- Node3 -->
<g id="node3" class="node"><title>Node3</title>
<g id="a_node3"><a xlink:href="a01199.html#ga98da340ea0324002ba1b4263e91ab2ff" target="_top" xlink:title="Initializes the USARTx peripheral according to the specified parameters in the USART_InitStruct ...">
<polygon fill="white" stroke="black" points="146,-28.5 146,-47.5 216,-47.5 216,-28.5 146,-28.5"/>
<text text-anchor="middle" x="181" y="-35.5" font-family="Helvetica,sans-Serif" font-size="10.00">USART_Init</text>
</a>
</g>
</g>
<!-- Node1&#45;&gt;Node3 -->
<g id="edge2" class="edge"><title>Node1&#45;&gt;Node3</title>
<path fill="none" stroke="midnightblue" d="M120.04,-47.1875C128.921,-45.8267 137.746,-44.4744 145.786,-43.2425"/>
<polygon fill="midnightblue" stroke="midnightblue" points="119.382,-43.7473 110.027,-48.7216 120.442,-50.6666 119.382,-43.7473"/>
</g>
<!-- Node4 -->
<g id="node4" class="node"><title>Node4</title>
<g id="a_node4"><a xlink:href="a00580.html#ga70bed9fb6612cb572a8c10e148404344" target="_top" xlink:title="Initializes USARTx peripheral and corresponding pins. ">
<polygon fill="white" stroke="black" points="605.5,-47.5 605.5,-66.5 694.5,-66.5 694.5,-47.5 605.5,-47.5"/>
<text text-anchor="middle" x="650" y="-54.5" font-family="Helvetica,sans-Serif" font-size="10.00">TM_USART_Init</text>
</a>
</g>
</g>
<!-- Node3&#45;&gt;Node4 -->
<g id="edge3" class="edge"><title>Node3&#45;&gt;Node4</title>
<path fill="none" stroke="midnightblue" d="M226.272,-44.3904C234.794,-45.4225 243.662,-46.3607 252,-47 380.207,-56.8305 532.314,-57.645 605.454,-57.3627"/>
<polygon fill="midnightblue" stroke="midnightblue" points="226.469,-40.8873 216.107,-43.0985 225.586,-47.8314 226.469,-40.8873"/>
</g>
<!-- Node6 -->
<g id="node6" class="node"><title>Node6</title>
<g id="a_node6"><a xlink:href="a00580.html#ga5cf7d7f613f4241fb77321ef9554f46b" target="_top" xlink:title="Callback for custom pins initialization for USARTx. ">
<polygon fill="white" stroke="black" points="252,-0.5 252,-19.5 434,-19.5 434,-0.5 252,-0.5"/>
<text text-anchor="middle" x="343" y="-7.5" font-family="Helvetica,sans-Serif" font-size="10.00">TM_USART_InitCustomPinsCallback</text>
</a>
</g>
</g>
<!-- Node3&#45;&gt;Node6 -->
<g id="edge5" class="edge"><title>Node3&#45;&gt;Node6</title>
<path fill="none" stroke="midnightblue" d="M226.204,-30.2643C245.201,-26.9399 267.589,-23.0218 287.592,-19.5213"/>
<polygon fill="midnightblue" stroke="midnightblue" points="225.571,-26.8218 216.324,-31.9933 226.778,-33.717 225.571,-26.8218"/>
</g>
<!-- Node5 -->
<g id="node5" class="node"><title>Node5</title>
<g id="a_node5"><a xlink:href="a01285.html#ga840291bc02cba5474a4cb46a9b9566fe" target="_top" xlink:title="Main function entry. ">
<polygon fill="white" stroke="black" points="734,-47.5 734,-66.5 772,-66.5 772,-47.5 734,-47.5"/>
<text text-anchor="middle" x="753" y="-54.5" font-family="Helvetica,sans-Serif" font-size="10.00">main</text>
</a>
</g>
</g>
<!-- Node4&#45;&gt;Node5 -->
<g id="edge4" class="edge"><title>Node4&#45;&gt;Node5</title>
<path fill="none" stroke="midnightblue" d="M704.767,-57C715.256,-57 725.556,-57 733.848,-57"/>
<polygon fill="midnightblue" stroke="midnightblue" points="704.713,-53.5001 694.713,-57 704.713,-60.5001 704.713,-53.5001"/>
</g>
<!-- Node6&#45;&gt;Node6 -->
<g id="edge6" class="edge"><title>Node6&#45;&gt;Node6</title>
<path fill="none" stroke="midnightblue" d="M312.686,-28.2746C313.55,-33.741 323.655,-38 343,-38 371.793,-38 380.116,-28.5653 367.969,-19.7571"/>
<polygon fill="midnightblue" stroke="midnightblue" points="315.68,-30.0877 318.031,-19.7571 309.751,-26.3667 315.68,-30.0877"/>
</g>
<!-- Node7 -->
<g id="node7" class="node"><title>Node7</title>
<g id="a_node7"><a xlink:href="a00580.html#gab807a241fae0eae0d5434bae20a3569f" target="_top" xlink:title="Puts character to USART port. ">
<polygon fill="white" stroke="black" points="470,-5.5 470,-24.5 566,-24.5 566,-5.5 470,-5.5"/>
<text text-anchor="middle" x="518" y="-12.5" font-family="Helvetica,sans-Serif" font-size="10.00">TM_USART_Putc</text>
</a>
</g>
</g>
<!-- Node6&#45;&gt;Node7 -->
<g id="edge7" class="edge"><title>Node6&#45;&gt;Node7</title>
<path fill="none" stroke="midnightblue" d="M444.107,-12.8933C452.963,-13.1492 461.623,-13.3995 469.704,-13.6331"/>
<polygon fill="midnightblue" stroke="midnightblue" points="444.144,-9.39297 434.047,-12.6025 443.942,-16.39 444.144,-9.39297"/>
</g>
<!-- Node7&#45;&gt;Node4 -->
<g id="edge8" class="edge"><title>Node7&#45;&gt;Node4</title>
<path fill="none" stroke="midnightblue" d="M558.068,-27.6219C577.668,-33.9543 601.031,-41.5023 619.168,-47.3619"/>
<polygon fill="midnightblue" stroke="midnightblue" points="559.091,-24.2743 548.499,-24.5305 556.939,-30.9353 559.091,-24.2743"/>
</g>
<!-- Node8 -->
<g id="node8" class="node"><title>Node8</title>
<g id="a_node8"><a xlink:href="a00580.html#ga453aeaa886278333403ff4937c01dcf3" target="_top" xlink:title="Puts string to USART port. ">
<polygon fill="white" stroke="black" points="602,-5.5 602,-24.5 698,-24.5 698,-5.5 602,-5.5"/>
<text text-anchor="middle" x="650" y="-12.5" font-family="Helvetica,sans-Serif" font-size="10.00">TM_USART_Puts</text>
</a>
</g>
</g>
<!-- Node7&#45;&gt;Node8 -->
<g id="edge9" class="edge"><title>Node7&#45;&gt;Node8</title>
<path fill="none" stroke="midnightblue" d="M576.539,-8.28969C585.034,-8.19895 593.703,-8.2638 601.952,-8.48422"/>
<polygon fill="midnightblue" stroke="midnightblue" points="576.235,-4.79457 566.301,-8.47752 576.363,-11.7934 576.235,-4.79457"/>
</g>
<!-- Node8&#45;&gt;Node7 -->
<g id="edge10" class="edge"><title>Node8&#45;&gt;Node7</title>
<path fill="none" stroke="midnightblue" d="M591.722,-21.7075C583.229,-21.8014 574.559,-21.7397 566.301,-21.5225"/>
<polygon fill="midnightblue" stroke="midnightblue" points="592.02,-25.2026 601.952,-21.5158 591.888,-18.2038 592.02,-25.2026"/>
</g>
</g>
</svg>
