<?xml version="1.0" encoding="UTF-8" standalone="no"?>
<!DOCTYPE svg PUBLIC "-//W3C//DTD SVG 1.1//EN"
 "http://www.w3.org/Graphics/SVG/1.1/DTD/svg11.dtd">
<!-- Generated by graphviz version 2.38.0 (20140413.2041)
 -->
<!-- Title: RTC_Private_Functions Pages: 1 -->
<svg width="386pt" height="649pt"
 viewBox="0.00 0.00 386.00 649.00" xmlns="http://www.w3.org/2000/svg" xmlns:xlink="http://www.w3.org/1999/xlink">
<g id="graph0" class="graph" transform="scale(1 1) rotate(0) translate(4 645)">
<title>RTC_Private_Functions</title>
<polygon fill="white" stroke="none" points="-4,4 -4,-645 382,-645 382,4 -4,4"/>
<!-- Node1 -->
<g id="node1" class="node"><title>Node1</title>
<g id="a_node1"><a xlink:href="a00112.html" target="_top" xlink:title="RTC driver modules. ">
<polygon fill="white" stroke="black" points="0,-322 0,-341 38,-341 38,-322 0,-322"/>
<text text-anchor="middle" x="19" y="-329" font-family="Helvetica,sans-Serif" font-size="10.00">RTC</text>
</a>
</g>
</g>
<!-- Node0 -->
<g id="node11" class="node"><title>Node0</title>
<polygon fill="#bfbfbf" stroke="black" points="74,-322 74,-341 196,-341 196,-322 74,-322"/>
<text text-anchor="middle" x="135" y="-329" font-family="Helvetica,sans-Serif" font-size="10.00">RTC_Private_Functions</text>
</g>
<!-- Node1&#45;&gt;Node0 -->
<g id="edge1" class="edge"><title>Node1&#45;&gt;Node0</title>
<path fill="none" stroke="black" d="M48.2908,-331.5C56.0387,-331.5 64.7444,-331.5 73.5603,-331.5"/>
<polygon fill="black" stroke="black" points="48.0637,-328 38.0636,-331.5 48.0636,-335 48.0637,-328"/>
</g>
<!-- Node2 -->
<g id="node2" class="node"><title>Node2</title>
<g id="a_node2"><a xlink:href="a01158.html" target="_top" xlink:title="Initialization and Configuration functions. ">
<polygon fill="white" stroke="black" points="245,-610.5 245,-640.5 365,-640.5 365,-610.5 245,-610.5"/>
<text text-anchor="start" x="253" y="-628.5" font-family="Helvetica,sans-Serif" font-size="10.00">Initialization and</text>
<text text-anchor="middle" x="305" y="-617.5" font-family="Helvetica,sans-Serif" font-size="10.00"> Configuration functions</text>
</a>
</g>
</g>
<!-- Node3 -->
<g id="node3" class="node"><title>Node3</title>
<g id="a_node3"><a xlink:href="a01159.html" target="_top" xlink:title="Time and Date configuration functions. ">
<polygon fill="white" stroke="black" points="235,-561.5 235,-591.5 375,-591.5 375,-561.5 235,-561.5"/>
<text text-anchor="start" x="243" y="-579.5" font-family="Helvetica,sans-Serif" font-size="10.00">Time and Date configuration</text>
<text text-anchor="middle" x="305" y="-568.5" font-family="Helvetica,sans-Serif" font-size="10.00"> functions</text>
</a>
</g>
</g>
<!-- Node4 -->
<g id="node4" class="node"><title>Node4</title>
<g id="a_node4"><a xlink:href="a01160.html" target="_top" xlink:title="Alarms (Alarm A and Alarm B) configuration functions. ">
<polygon fill="white" stroke="black" points="252,-512.5 252,-542.5 358,-542.5 358,-512.5 252,-512.5"/>
<text text-anchor="start" x="260" y="-530.5" font-family="Helvetica,sans-Serif" font-size="10.00">Alarms configuration</text>
<text text-anchor="middle" x="305" y="-519.5" font-family="Helvetica,sans-Serif" font-size="10.00"> functions</text>
</a>
</g>
</g>
<!-- Node5 -->
<g id="node5" class="node"><title>Node5</title>
<g id="a_node5"><a xlink:href="a01161.html" target="_top" xlink:title="WakeUp Timer configuration functions. ">
<polygon fill="white" stroke="black" points="234.5,-463.5 234.5,-493.5 375.5,-493.5 375.5,-463.5 234.5,-463.5"/>
<text text-anchor="start" x="242.5" y="-481.5" font-family="Helvetica,sans-Serif" font-size="10.00">WakeUp Timer configuration</text>
<text text-anchor="middle" x="305" y="-470.5" font-family="Helvetica,sans-Serif" font-size="10.00"> functions</text>
</a>
</g>
</g>
<!-- Node6 -->
<g id="node6" class="node"><title>Node6</title>
<g id="a_node6"><a xlink:href="a01162.html" target="_top" xlink:title="Daylight Saving configuration functions. ">
<polygon fill="white" stroke="black" points="233,-414.5 233,-444.5 377,-444.5 377,-414.5 233,-414.5"/>
<text text-anchor="start" x="241" y="-432.5" font-family="Helvetica,sans-Serif" font-size="10.00">Daylight Saving configuration</text>
<text text-anchor="middle" x="305" y="-421.5" font-family="Helvetica,sans-Serif" font-size="10.00"> functions</text>
</a>
</g>
</g>
<!-- Node7 -->
<g id="node7" class="node"><title>Node7</title>
<g id="a_node7"><a xlink:href="a01163.html" target="_top" xlink:title="Output pin Configuration function. ">
<polygon fill="white" stroke="black" points="244,-365.5 244,-395.5 366,-395.5 366,-365.5 244,-365.5"/>
<text text-anchor="start" x="252" y="-383.5" font-family="Helvetica,sans-Serif" font-size="10.00">Output pin Configuration</text>
<text text-anchor="middle" x="305" y="-372.5" font-family="Helvetica,sans-Serif" font-size="10.00"> function</text>
</a>
</g>
</g>
<!-- Node8 -->
<g id="node8" class="node"><title>Node8</title>
<g id="a_node8"><a xlink:href="a01164.html" target="_top" xlink:title="Coarse Calibration configuration functions. ">
<polygon fill="white" stroke="black" points="246,-316.5 246,-346.5 364,-346.5 364,-316.5 246,-316.5"/>
<text text-anchor="start" x="254" y="-334.5" font-family="Helvetica,sans-Serif" font-size="10.00">Digital Calibration</text>
<text text-anchor="middle" x="305" y="-323.5" font-family="Helvetica,sans-Serif" font-size="10.00"> configuration functions</text>
</a>
</g>
</g>
<!-- Node9 -->
<g id="node9" class="node"><title>Node9</title>
<g id="a_node9"><a xlink:href="a01165.html" target="_top" xlink:title="TimeStamp configuration functions. ">
<polygon fill="white" stroke="black" points="242.5,-267.5 242.5,-297.5 367.5,-297.5 367.5,-267.5 242.5,-267.5"/>
<text text-anchor="start" x="250.5" y="-285.5" font-family="Helvetica,sans-Serif" font-size="10.00">TimeStamp configuration</text>
<text text-anchor="middle" x="305" y="-274.5" font-family="Helvetica,sans-Serif" font-size="10.00"> functions</text>
</a>
</g>
</g>
<!-- Node10 -->
<g id="node10" class="node"><title>Node10</title>
<g id="a_node10"><a xlink:href="a01166.html" target="_top" xlink:title="Tampers configuration functions. ">
<polygon fill="white" stroke="black" points="248.5,-218.5 248.5,-248.5 361.5,-248.5 361.5,-218.5 248.5,-218.5"/>
<text text-anchor="start" x="256.5" y="-236.5" font-family="Helvetica,sans-Serif" font-size="10.00">Tampers configuration</text>
<text text-anchor="middle" x="305" y="-225.5" font-family="Helvetica,sans-Serif" font-size="10.00"> functions</text>
</a>
</g>
</g>
<!-- Node0&#45;&gt;Node2 -->
<g id="edge2" class="edge"><title>Node0&#45;&gt;Node2</title>
<path fill="none" stroke="black" d="M137.268,-351.19C141.498,-400.467 159.326,-530.255 232,-601.5 235.764,-605.19 240.109,-608.312 244.762,-610.955"/>
<polygon fill="black" stroke="black" points="140.757,-350.911 136.507,-341.206 133.777,-351.443 140.757,-350.911"/>
</g>
<!-- Node0&#45;&gt;Node3 -->
<g id="edge3" class="edge"><title>Node0&#45;&gt;Node3</title>
<path fill="none" stroke="black" d="M139.004,-351.001C146.602,-393.719 170.542,-496.228 232,-552.5 235.79,-555.97 240.096,-558.94 244.674,-561.481"/>
<polygon fill="black" stroke="black" points="142.443,-350.343 137.344,-341.056 135.539,-351.496 142.443,-350.343"/>
</g>
<!-- Node0&#45;&gt;Node4 -->
<g id="edge4" class="edge"><title>Node0&#45;&gt;Node4</title>
<path fill="none" stroke="black" d="M141.656,-350.955C152.951,-386.425 181.639,-461.788 232,-503.5 237.886,-508.375 244.8,-512.273 251.975,-515.386"/>
<polygon fill="black" stroke="black" points="144.978,-349.847 138.705,-341.309 138.284,-351.895 144.978,-349.847"/>
</g>
<!-- Node0&#45;&gt;Node5 -->
<g id="edge5" class="edge"><title>Node0&#45;&gt;Node5</title>
<path fill="none" stroke="black" d="M145.828,-350.146C160.89,-376.987 192.171,-426.371 232,-454.5 236.843,-457.921 242.208,-460.88 247.763,-463.435"/>
<polygon fill="black" stroke="black" points="148.728,-348.155 140.865,-341.054 142.584,-351.509 148.728,-348.155"/>
</g>
<!-- Node0&#45;&gt;Node6 -->
<g id="edge6" class="edge"><title>Node0&#45;&gt;Node6</title>
<path fill="none" stroke="black" d="M153.689,-348.106C172.048,-364.593 202.2,-389.635 232,-405.5 238.28,-408.844 245.115,-411.845 251.99,-414.499"/>
<polygon fill="black" stroke="black" points="155.871,-345.358 146.127,-341.197 151.149,-350.526 155.871,-345.358"/>
</g>
<!-- Node0&#45;&gt;Node7 -->
<g id="edge7" class="edge"><title>Node0&#45;&gt;Node7</title>
<path fill="none" stroke="black" d="M178.397,-343.866C200.891,-350.426 228.71,-358.54 252.445,-365.463"/>
<polygon fill="black" stroke="black" points="179.371,-340.504 168.791,-341.064 177.411,-347.224 179.371,-340.504"/>
</g>
<!-- Node0&#45;&gt;Node8 -->
<g id="edge8" class="edge"><title>Node0&#45;&gt;Node8</title>
<path fill="none" stroke="black" d="M206.182,-331.5C219.416,-331.5 233.119,-331.5 245.93,-331.5"/>
<polygon fill="black" stroke="black" points="206.177,-328 196.177,-331.5 206.177,-335 206.177,-328"/>
</g>
<!-- Node0&#45;&gt;Node9 -->
<g id="edge9" class="edge"><title>Node0&#45;&gt;Node9</title>
<path fill="none" stroke="black" d="M178.397,-319.134C200.891,-312.574 228.71,-304.46 252.445,-297.537"/>
<polygon fill="black" stroke="black" points="177.411,-315.776 168.791,-321.936 179.371,-322.496 177.411,-315.776"/>
</g>
<!-- Node0&#45;&gt;Node10 -->
<g id="edge10" class="edge"><title>Node0&#45;&gt;Node10</title>
<path fill="none" stroke="black" d="M153.771,-315.211C172.195,-299.02 202.396,-274.373 232,-258.5 238.88,-254.811 246.414,-251.494 253.933,-248.575"/>
<polygon fill="black" stroke="black" points="151.305,-312.721 146.179,-321.993 155.969,-317.941 151.305,-312.721"/>
</g>
<!-- Node11 -->
<g id="node12" class="node"><title>Node11</title>
<g id="a_node12"><a xlink:href="a01167.html" target="_top" xlink:title="Backup Data Registers configuration functions. ">
<polygon fill="white" stroke="black" points="245.5,-169.5 245.5,-199.5 364.5,-199.5 364.5,-169.5 245.5,-169.5"/>
<text text-anchor="start" x="253.5" y="-187.5" font-family="Helvetica,sans-Serif" font-size="10.00">Backup Data Registers</text>
<text text-anchor="middle" x="305" y="-176.5" font-family="Helvetica,sans-Serif" font-size="10.00"> configuration functions</text>
</a>
</g>
</g>
<!-- Node0&#45;&gt;Node11 -->
<g id="edge11" class="edge"><title>Node0&#45;&gt;Node11</title>
<path fill="none" stroke="black" d="M146.137,-312.679C161.39,-286.053 192.686,-237.516 232,-209.5 237.388,-205.66 243.418,-202.367 249.633,-199.553"/>
<polygon fill="black" stroke="black" points="142.908,-311.284 141.094,-321.723 149.022,-314.693 142.908,-311.284"/>
</g>
<!-- Node12 -->
<g id="node13" class="node"><title>Node12</title>
<g id="a_node13"><a xlink:href="a01168.html" target="_top" xlink:title="RTC Tamper and TimeStamp Pins Selection and Output Type Config configuration functions. ">
<polygon fill="white" stroke="black" points="232,-98.5 232,-150.5 378,-150.5 378,-98.5 232,-98.5"/>
<text text-anchor="start" x="240" y="-138.5" font-family="Helvetica,sans-Serif" font-size="10.00">RTC Tamper and TimeStamp</text>
<text text-anchor="start" x="240" y="-127.5" font-family="Helvetica,sans-Serif" font-size="10.00"> Pins Selection and Output</text>
<text text-anchor="start" x="240" y="-116.5" font-family="Helvetica,sans-Serif" font-size="10.00"> Type Config configuration</text>
<text text-anchor="middle" x="305" y="-105.5" font-family="Helvetica,sans-Serif" font-size="10.00"> functions</text>
</a>
</g>
</g>
<!-- Node0&#45;&gt;Node12 -->
<g id="edge12" class="edge"><title>Node0&#45;&gt;Node12</title>
<path fill="none" stroke="black" d="M142.616,-311.885C155.137,-277.32 185.302,-205.013 232,-160.5 235.743,-156.932 239.908,-153.644 244.295,-150.628"/>
<polygon fill="black" stroke="black" points="139.181,-311.104 139.172,-321.699 145.786,-313.422 139.181,-311.104"/>
</g>
<!-- Node13 -->
<g id="node14" class="node"><title>Node13</title>
<g id="a_node14"><a xlink:href="a01169.html" target="_top" xlink:title="Shift control synchronisation functions. ">
<polygon fill="white" stroke="black" points="235,-49.5 235,-79.5 375,-79.5 375,-49.5 235,-49.5"/>
<text text-anchor="start" x="243" y="-67.5" font-family="Helvetica,sans-Serif" font-size="10.00">Shift control synchronisation</text>
<text text-anchor="middle" x="305" y="-56.5" font-family="Helvetica,sans-Serif" font-size="10.00"> functions</text>
</a>
</g>
</g>
<!-- Node0&#45;&gt;Node13 -->
<g id="edge13" class="edge"><title>Node0&#45;&gt;Node13</title>
<path fill="none" stroke="black" d="M138.306,-311.468C144.629,-265.648 166.389,-152.32 232,-89.5 236.014,-85.6566 240.649,-82.4014 245.593,-79.6448"/>
<polygon fill="black" stroke="black" points="134.808,-311.228 137.013,-321.591 141.752,-312.115 134.808,-311.228"/>
</g>
<!-- Node14 -->
<g id="node15" class="node"><title>Node14</title>
<g id="a_node15"><a xlink:href="a01170.html" target="_top" xlink:title="Interrupts and flags management functions. ">
<polygon fill="white" stroke="black" points="245.5,-0.5 245.5,-30.5 364.5,-30.5 364.5,-0.5 245.5,-0.5"/>
<text text-anchor="start" x="253.5" y="-18.5" font-family="Helvetica,sans-Serif" font-size="10.00">Interrupts and flags</text>
<text text-anchor="middle" x="305" y="-7.5" font-family="Helvetica,sans-Serif" font-size="10.00"> management functions</text>
</a>
</g>
</g>
<!-- Node0&#45;&gt;Node14 -->
<g id="edge14" class="edge"><title>Node0&#45;&gt;Node14</title>
<path fill="none" stroke="black" d="M136.74,-311.766C139.746,-259.968 154.967,-118.74 232,-40.5 235.899,-36.5399 240.457,-33.2062 245.352,-30.4001"/>
<polygon fill="black" stroke="black" points="133.236,-311.76 136.246,-321.918 140.228,-312.1 133.236,-311.76"/>
</g>
</g>
</svg>
