<?xml version="1.0" encoding="UTF-8" standalone="no"?>
<!DOCTYPE svg PUBLIC "-//W3C//DTD SVG 1.1//EN"
 "http://www.w3.org/Graphics/SVG/1.1/DTD/svg11.dtd">
<!-- Generated by graphviz version 2.38.0 (20140413.2041)
 -->
<!-- Title: Biquad Cascade IIR Filters Using a Direct Form II Transposed Structure Pages: 1 -->
<svg width="289pt" height="50pt"
 viewBox="0.00 0.00 289.00 50.00" xmlns="http://www.w3.org/2000/svg" xmlns:xlink="http://www.w3.org/1999/xlink">
<g id="graph0" class="graph" transform="scale(1 1) rotate(0) translate(4 46)">
<title>Biquad Cascade IIR Filters Using a Direct Form II Transposed Structure</title>
<polygon fill="white" stroke="none" points="-4,4 -4,-46 285,-46 285,4 -4,4"/>
<!-- Node0 -->
<g id="node1" class="node"><title>Node0</title>
<polygon fill="#bfbfbf" stroke="black" points="133,-0.5 133,-41.5 281,-41.5 281,-0.5 133,-0.5"/>
<text text-anchor="start" x="141" y="-29.5" font-family="Helvetica,sans-Serif" font-size="10.00">Biquad Cascade IIR</text>
<text text-anchor="start" x="141" y="-18.5" font-family="Helvetica,sans-Serif" font-size="10.00"> Filters Using a Direct</text>
<text text-anchor="middle" x="207" y="-7.5" font-family="Helvetica,sans-Serif" font-size="10.00"> Form II Transposed Structure</text>
</g>
<!-- Node1 -->
<g id="node2" class="node"><title>Node1</title>
<g id="a_node2"><a xlink:href="a01118.html" target="_top" xlink:title="Filtering Functions">
<polygon fill="white" stroke="black" points="0,-11.5 0,-30.5 97,-30.5 97,-11.5 0,-11.5"/>
<text text-anchor="middle" x="48.5" y="-18.5" font-family="Helvetica,sans-Serif" font-size="10.00">Filtering Functions</text>
</a>
</g>
</g>
<!-- Node1&#45;&gt;Node0 -->
<g id="edge1" class="edge"><title>Node1&#45;&gt;Node0</title>
<path fill="none" stroke="black" d="M107.545,-21C115.788,-21 124.353,-21 132.837,-21"/>
<polygon fill="black" stroke="black" points="107.306,-17.5001 97.3055,-21 107.305,-24.5001 107.306,-17.5001"/>
</g>
</g>
</svg>
