<?xml version="1.0" encoding="UTF-8" standalone="no"?>
<!DOCTYPE svg PUBLIC "-//W3C//DTD SVG 1.1//EN"
 "http://www.w3.org/Graphics/SVG/1.1/DTD/svg11.dtd">
<!-- Generated by graphviz version 2.38.0 (20140413.2041)
 -->
<!-- Title: arm_conv_partial_fast_opt_q15 Pages: 1 -->
<svg width="237pt" height="66pt"
 viewBox="0.00 0.00 237.00 66.00" xmlns="http://www.w3.org/2000/svg" xmlns:xlink="http://www.w3.org/1999/xlink">
<g id="graph0" class="graph" transform="scale(1 1) rotate(0) translate(4 62)">
<title>arm_conv_partial_fast_opt_q15</title>
<polygon fill="white" stroke="none" points="-4,4 -4,-62 233,-62 233,4 -4,4"/>
<!-- Node1 -->
<g id="node1" class="node"><title>Node1</title>
<polygon fill="#bfbfbf" stroke="black" points="0,-14 0,-44 113,-44 113,-14 0,-14"/>
<text text-anchor="start" x="8" y="-32" font-family="Helvetica,sans-Serif" font-size="10.00">arm_conv_partial_fast</text>
<text text-anchor="middle" x="56.5" y="-21" font-family="Helvetica,sans-Serif" font-size="10.00">_opt_q15</text>
</g>
<!-- Node2 -->
<g id="node2" class="node"><title>Node2</title>
<g id="a_node2"><a xlink:href="a01204.html#ga76b21c32a3783a2b3334d930a646e5d8" target="_top" xlink:title="Fills a constant value into a Q15 vector. ">
<polygon fill="white" stroke="black" points="154.5,-38.5 154.5,-57.5 223.5,-57.5 223.5,-38.5 154.5,-38.5"/>
<text text-anchor="middle" x="189" y="-45.5" font-family="Helvetica,sans-Serif" font-size="10.00">arm_fill_q15</text>
</a>
</g>
</g>
<!-- Node1&#45;&gt;Node2 -->
<g id="edge1" class="edge"><title>Node1&#45;&gt;Node2</title>
<path fill="none" stroke="midnightblue" d="M113.222,-37.1128C123.608,-38.625 134.324,-40.185 144.285,-41.6353"/>
<polygon fill="midnightblue" stroke="midnightblue" points="143.947,-45.1229 154.347,-43.1003 144.955,-38.196 143.947,-45.1229"/>
</g>
<!-- Node3 -->
<g id="node3" class="node"><title>Node3</title>
<g id="a_node3"><a xlink:href="a01203.html#ga872ca4cfc18c680b8991ccd569a5fda0" target="_top" xlink:title="Copies the elements of a Q15 vector. ">
<polygon fill="white" stroke="black" points="149,-0.5 149,-19.5 229,-19.5 229,-0.5 149,-0.5"/>
<text text-anchor="middle" x="189" y="-7.5" font-family="Helvetica,sans-Serif" font-size="10.00">arm_copy_q15</text>
</a>
</g>
</g>
<!-- Node1&#45;&gt;Node3 -->
<g id="edge2" class="edge"><title>Node1&#45;&gt;Node3</title>
<path fill="none" stroke="midnightblue" d="M113.222,-20.8872C121.693,-19.6538 130.384,-18.3886 138.705,-17.1771"/>
<polygon fill="midnightblue" stroke="midnightblue" points="139.241,-20.6359 148.633,-15.7316 138.233,-13.709 139.241,-20.6359"/>
</g>
</g>
</svg>
