<?xml version="1.0" encoding="UTF-8" standalone="no"?>
<!DOCTYPE svg PUBLIC "-//W3C//DTD SVG 1.1//EN"
 "http://www.w3.org/Graphics/SVG/1.1/DTD/svg11.dtd">
<!-- Generated by graphviz version 2.38.0 (20140413.2041)
 -->
<!-- Title: FLASH_WaitForLastOperation Pages: 1 -->
<!--zoomable 560 -->
<svg id="main" version="1.1" xmlns="http://www.w3.org/2000/svg" xmlns:xlink="http://www.w3.org/1999/xlink" xml:space="preserve" onload="init(evt)">
<style type="text/css"><![CDATA[
.edge:hover path { stroke: red; }
.edge:hover polygon { stroke: red; fill: red; }
]]></style>
<script type="text/javascript"><![CDATA[
var edges = document.getElementsByTagName('g');
if (edges && edges.length) {
  for (var i=0;i<edges.length;i++) {
    if (edges[i].id.substr(0,4)=='edge') {
      edges[i].setAttribute('class','edge');
    }
  }
}
]]></script>
        <defs>
                <circle id="rim" cx="0" cy="0" r="7"/>
                <circle id="rim2" cx="0" cy="0" r="3.5"/>
                <g id="zoomPlus">
                        <use xlink:href="#rim" fill="#404040">
                                <set attributeName="fill" to="#808080" begin="zoomplus.mouseover" end="zoomplus.mouseout"/>
                        </use>
                        <path d="M-4,0h8M0,-4v8" fill="none" stroke="white" stroke-width="1.5" pointer-events="none"/>
                </g>
                <g id="zoomMin">
                        <use xlink:href="#rim" fill="#404040">
                                <set attributeName="fill" to="#808080" begin="zoomminus.mouseover" end="zoomminus.mouseout"/>
                        </use>
                        <path d="M-4,0h8" fill="none" stroke="white" stroke-width="1.5" pointer-events="none"/>
                </g>
                <g id="dirArrow">
                        <path fill="none" stroke="white" stroke-width="1.5" d="M0,-3.0v7 M-2.5,-0.5L0,-3.0L2.5,-0.5"/>
                </g>
               <g id="resetDef">
                       <use xlink:href="#rim2" fill="#404040">
                               <set attributeName="fill" to="#808080" begin="reset.mouseover" end="reset.mouseout"/>
                       </use>
               </g>
        </defs>

<script type="text/javascript">
var viewWidth = 345;
var viewHeight = 560;
var sectionId = 'dynsection-3';
</script>
<script xlink:href="svgpan.js"/>
<svg id="graph" class="graph">
<g id="viewport">
<title>FLASH_WaitForLastOperation</title>
<polygon fill="white" stroke="none" points="-4,4 -4,-556 341,-556 341,4 -4,4"/>
<!-- Node1 -->
<g id="node1" class="node"><title>Node1</title>
<polygon fill="#bfbfbf" stroke="black" points="0,-266.5 0,-285.5 149,-285.5 149,-266.5 0,-266.5"/>
<text text-anchor="middle" x="74.5" y="-273.5" font-family="Helvetica,sans-Serif" font-size="10.00">FLASH_WaitForLastOperation</text>
</g>
<!-- Node2 -->
<g id="node2" class="node"><title>Node2</title>
<g id="a_node2"><a xlink:href="a01110.html#ga48f408290b32a3aebbcad83a00fc447c" target="_top" xlink:title="Erases a specified FLASH Sector. ">
<polygon fill="white" stroke="black" points="207,-532.5 207,-551.5 315,-551.5 315,-532.5 207,-532.5"/>
<text text-anchor="middle" x="261" y="-539.5" font-family="Helvetica,sans-Serif" font-size="10.00">FLASH_EraseSector</text>
</a>
</g>
</g>
<!-- Node1&#45;&gt;Node2 -->
<g id="edge1" class="edge"><title>Node1&#45;&gt;Node2</title>
<path fill="none" stroke="midnightblue" d="M78.3036,-295.634C86.0681,-342.52 112.3,-461.664 185,-523 191.263,-528.284 198.799,-532.128 206.647,-534.919"/>
<polygon fill="midnightblue" stroke="midnightblue" points="81.736,-294.928 76.7439,-285.583 74.8188,-296.001 81.736,-294.928"/>
</g>
<!-- Node3 -->
<g id="node3" class="node"><title>Node3</title>
<g id="a_node3"><a xlink:href="a01110.html#ga2aee006e5f4db4280bdedd401dfa50f9" target="_top" xlink:title="Erases all FLASH Sectors. ">
<polygon fill="white" stroke="black" points="198.5,-494.5 198.5,-513.5 323.5,-513.5 323.5,-494.5 198.5,-494.5"/>
<text text-anchor="middle" x="261" y="-501.5" font-family="Helvetica,sans-Serif" font-size="10.00">FLASH_EraseAllSectors</text>
</a>
</g>
</g>
<!-- Node1&#45;&gt;Node3 -->
<g id="edge2" class="edge"><title>Node1&#45;&gt;Node3</title>
<path fill="none" stroke="midnightblue" d="M80.0338,-295.674C90.6913,-337.345 121.379,-434.787 185,-485 189.85,-488.828 195.379,-491.894 201.186,-494.348"/>
<polygon fill="midnightblue" stroke="midnightblue" points="83.3702,-294.582 77.5976,-285.698 76.57,-296.243 83.3702,-294.582"/>
</g>
<!-- Node4 -->
<g id="node4" class="node"><title>Node4</title>
<g id="a_node4"><a xlink:href="a01110.html#gac297cb140218ab3fd6afa9c53087473c" target="_top" xlink:title="Erases all FLASH Sectors in Bank 1. ">
<polygon fill="white" stroke="black" points="185,-456.5 185,-475.5 337,-475.5 337,-456.5 185,-456.5"/>
<text text-anchor="middle" x="261" y="-463.5" font-family="Helvetica,sans-Serif" font-size="10.00">FLASH_EraseAllBank1Sectors</text>
</a>
</g>
</g>
<!-- Node1&#45;&gt;Node4 -->
<g id="edge3" class="edge"><title>Node1&#45;&gt;Node4</title>
<path fill="none" stroke="midnightblue" d="M82.2885,-295.227C95.9104,-330.921 130.061,-407.39 185,-447 190.339,-450.849 196.382,-453.921 202.663,-456.372"/>
<polygon fill="midnightblue" stroke="midnightblue" points="85.4622,-293.717 78.7198,-285.545 78.8941,-296.138 85.4622,-293.717"/>
</g>
<!-- Node5 -->
<g id="node5" class="node"><title>Node5</title>
<g id="a_node5"><a xlink:href="a01110.html#ga0d841f874ee2cd6dcb3b5d08a39f28e2" target="_top" xlink:title="Erases all FLASH Sectors in Bank 2. ">
<polygon fill="white" stroke="black" points="185,-418.5 185,-437.5 337,-437.5 337,-418.5 185,-418.5"/>
<text text-anchor="middle" x="261" y="-425.5" font-family="Helvetica,sans-Serif" font-size="10.00">FLASH_EraseAllBank2Sectors</text>
</a>
</g>
</g>
<!-- Node1&#45;&gt;Node5 -->
<g id="edge4" class="edge"><title>Node1&#45;&gt;Node5</title>
<path fill="none" stroke="midnightblue" d="M85.5343,-294.566C102.217,-323.607 138.476,-379.503 185,-409 191.126,-412.884 198.005,-415.975 205.046,-418.434"/>
<polygon fill="midnightblue" stroke="midnightblue" points="88.5792,-292.84 80.6405,-285.823 82.471,-296.259 88.5792,-292.84"/>
</g>
<!-- Node6 -->
<g id="node6" class="node"><title>Node6</title>
<g id="a_node6"><a xlink:href="a01110.html#gab84b52121e58d0dbc8ff2a92145d20f2" target="_top" xlink:title="Programs a double word (64&#45;bit) at a specified address. ">
<polygon fill="white" stroke="black" points="188.5,-380.5 188.5,-399.5 333.5,-399.5 333.5,-380.5 188.5,-380.5"/>
<text text-anchor="middle" x="261" y="-387.5" font-family="Helvetica,sans-Serif" font-size="10.00">FLASH_ProgramDoubleWord</text>
</a>
</g>
</g>
<!-- Node1&#45;&gt;Node6 -->
<g id="edge5" class="edge"><title>Node1&#45;&gt;Node6</title>
<path fill="none" stroke="midnightblue" d="M90.6874,-293.443C110.327,-314.901 146.597,-350.941 185,-371 192.382,-374.856 200.587,-377.958 208.784,-380.446"/>
<polygon fill="midnightblue" stroke="midnightblue" points="93.0615,-290.848 83.7791,-285.741 87.8503,-295.522 93.0615,-290.848"/>
</g>
<!-- Node7 -->
<g id="node7" class="node"><title>Node7</title>
<g id="a_node7"><a xlink:href="a01110.html#gaac9a2f400b92537bd42a6bd7cc237b11" target="_top" xlink:title="Programs a word (32&#45;bit) at a specified address. ">
<polygon fill="white" stroke="black" points="204,-342.5 204,-361.5 318,-361.5 318,-342.5 204,-342.5"/>
<text text-anchor="middle" x="261" y="-349.5" font-family="Helvetica,sans-Serif" font-size="10.00">FLASH_ProgramWord</text>
</a>
</g>
</g>
<!-- Node1&#45;&gt;Node7 -->
<g id="edge6" class="edge"><title>Node1&#45;&gt;Node7</title>
<path fill="none" stroke="midnightblue" d="M100.144,-290.943C121.849,-303.583 154.644,-321.434 185,-333 194.539,-336.635 205.025,-339.786 215.054,-342.42"/>
<polygon fill="midnightblue" stroke="midnightblue" points="101.672,-287.78 91.2808,-285.711 98.1134,-293.809 101.672,-287.78"/>
</g>
<!-- Node8 -->
<g id="node8" class="node"><title>Node8</title>
<g id="a_node8"><a xlink:href="a01110.html#ga5c1336f667950a8765887228f1d0d501" target="_top" xlink:title="Programs a half word (16&#45;bit) at a specified address. ">
<polygon fill="white" stroke="black" points="195,-304.5 195,-323.5 327,-323.5 327,-304.5 195,-304.5"/>
<text text-anchor="middle" x="261" y="-311.5" font-family="Helvetica,sans-Serif" font-size="10.00">FLASH_ProgramHalfWord</text>
</a>
</g>
</g>
<!-- Node1&#45;&gt;Node8 -->
<g id="edge7" class="edge"><title>Node1&#45;&gt;Node8</title>
<path fill="none" stroke="midnightblue" d="M131.867,-287.61C158.107,-293.014 188.936,-299.364 213.778,-304.48"/>
<polygon fill="midnightblue" stroke="midnightblue" points="132.558,-284.178 122.057,-285.589 131.145,-291.034 132.558,-284.178"/>
</g>
<!-- Node9 -->
<g id="node9" class="node"><title>Node9</title>
<g id="a_node9"><a xlink:href="a01110.html#gac425adf52fe7f229ef6bb893fe386848" target="_top" xlink:title="Programs a byte (8&#45;bit) at a specified address. ">
<polygon fill="white" stroke="black" points="205.5,-266.5 205.5,-285.5 316.5,-285.5 316.5,-266.5 205.5,-266.5"/>
<text text-anchor="middle" x="261" y="-273.5" font-family="Helvetica,sans-Serif" font-size="10.00">FLASH_ProgramByte</text>
</a>
</g>
</g>
<!-- Node1&#45;&gt;Node9 -->
<g id="edge8" class="edge"><title>Node1&#45;&gt;Node9</title>
<path fill="none" stroke="midnightblue" d="M159.417,-276C175.042,-276 190.988,-276 205.443,-276"/>
<polygon fill="midnightblue" stroke="midnightblue" points="159.215,-272.5 149.215,-276 159.215,-279.5 159.215,-272.5"/>
</g>
<!-- Node10 -->
<g id="node10" class="node"><title>Node10</title>
<g id="a_node10"><a xlink:href="a01111.html#gaffe7e91bcce65ac079ae5afa1db568b5" target="_top" xlink:title="Enables or disables the write protection of the desired sectors, for the first 1 Mb of the Flash...">
<polygon fill="white" stroke="black" points="198,-228.5 198,-247.5 324,-247.5 324,-228.5 198,-228.5"/>
<text text-anchor="middle" x="261" y="-235.5" font-family="Helvetica,sans-Serif" font-size="10.00">FLASH_OB_WRPConfig</text>
</a>
</g>
</g>
<!-- Node1&#45;&gt;Node10 -->
<g id="edge9" class="edge"><title>Node1&#45;&gt;Node10</title>
<path fill="none" stroke="midnightblue" d="M131.867,-264.39C158.107,-258.986 188.936,-252.636 213.778,-247.52"/>
<polygon fill="midnightblue" stroke="midnightblue" points="131.145,-260.966 122.057,-266.411 132.558,-267.822 131.145,-260.966"/>
</g>
<!-- Node11 -->
<g id="node11" class="node"><title>Node11</title>
<g id="a_node11"><a xlink:href="a01111.html#gadf76da1410201befd9b6d0e6b045765d" target="_top" xlink:title="Enables or disables the write protection of the desired sectors, for the second 1 Mb of the Flash...">
<polygon fill="white" stroke="black" points="195.5,-190.5 195.5,-209.5 326.5,-209.5 326.5,-190.5 195.5,-190.5"/>
<text text-anchor="middle" x="261" y="-197.5" font-family="Helvetica,sans-Serif" font-size="10.00">FLASH_OB_WRP1Config</text>
</a>
</g>
</g>
<!-- Node1&#45;&gt;Node11 -->
<g id="edge10" class="edge"><title>Node1&#45;&gt;Node11</title>
<path fill="none" stroke="midnightblue" d="M100.144,-261.057C121.849,-248.417 154.644,-230.566 185,-219 194.539,-215.365 205.025,-212.214 215.054,-209.58"/>
<polygon fill="midnightblue" stroke="midnightblue" points="98.1134,-258.191 91.2808,-266.289 101.672,-264.22 98.1134,-258.191"/>
</g>
<!-- Node12 -->
<g id="node12" class="node"><title>Node12</title>
<g id="a_node12"><a xlink:href="a01111.html#gad2905f3985df53e8bc5115d34a544550" target="_top" xlink:title="Enables or disables the read/write protection (PCROP) of the desired sectors, for the first 1 MB of t...">
<polygon fill="white" stroke="black" points="192,-152.5 192,-171.5 330,-171.5 330,-152.5 192,-152.5"/>
<text text-anchor="middle" x="261" y="-159.5" font-family="Helvetica,sans-Serif" font-size="10.00">FLASH_OB_PCROPConfig</text>
</a>
</g>
</g>
<!-- Node1&#45;&gt;Node12 -->
<g id="edge11" class="edge"><title>Node1&#45;&gt;Node12</title>
<path fill="none" stroke="midnightblue" d="M90.6874,-258.557C110.327,-237.099 146.597,-201.059 185,-181 192.382,-177.144 200.587,-174.042 208.784,-171.554"/>
<polygon fill="midnightblue" stroke="midnightblue" points="87.8503,-256.478 83.7791,-266.259 93.0615,-261.152 87.8503,-256.478"/>
</g>
<!-- Node13 -->
<g id="node13" class="node"><title>Node13</title>
<g id="a_node13"><a xlink:href="a01111.html#ga81cc635921384a7475396118a7914436" target="_top" xlink:title="Enables or disables the read/write protection (PCROP) of the desired sectors. ">
<polygon fill="white" stroke="black" points="189.5,-114.5 189.5,-133.5 332.5,-133.5 332.5,-114.5 189.5,-114.5"/>
<text text-anchor="middle" x="261" y="-121.5" font-family="Helvetica,sans-Serif" font-size="10.00">FLASH_OB_PCROP1Config</text>
</a>
</g>
</g>
<!-- Node1&#45;&gt;Node13 -->
<g id="edge12" class="edge"><title>Node1&#45;&gt;Node13</title>
<path fill="none" stroke="midnightblue" d="M85.5343,-257.434C102.217,-228.393 138.476,-172.497 185,-143 191.126,-139.116 198.005,-136.025 205.046,-133.566"/>
<polygon fill="midnightblue" stroke="midnightblue" points="82.471,-255.741 80.6405,-266.177 88.5792,-259.16 82.471,-255.741"/>
</g>
<!-- Node14 -->
<g id="node14" class="node"><title>Node14</title>
<g id="a_node14"><a xlink:href="a01111.html#ga12cb6799f725a49cd151eef4d6d1789b" target="_top" xlink:title="Sets the read protection level. ">
<polygon fill="white" stroke="black" points="199,-76.5 199,-95.5 323,-95.5 323,-76.5 199,-76.5"/>
<text text-anchor="middle" x="261" y="-83.5" font-family="Helvetica,sans-Serif" font-size="10.00">FLASH_OB_RDPConfig</text>
</a>
</g>
</g>
<!-- Node1&#45;&gt;Node14 -->
<g id="edge13" class="edge"><title>Node1&#45;&gt;Node14</title>
<path fill="none" stroke="midnightblue" d="M82.2885,-256.773C95.9104,-221.079 130.061,-144.61 185,-105 190.339,-101.151 196.382,-98.079 202.663,-95.628"/>
<polygon fill="midnightblue" stroke="midnightblue" points="78.8941,-255.862 78.7198,-266.455 85.4622,-258.283 78.8941,-255.862"/>
</g>
<!-- Node15 -->
<g id="node15" class="node"><title>Node15</title>
<g id="a_node15"><a xlink:href="a01111.html#ga6b605409e4271b4cc6dfb56ed8108a1a" target="_top" xlink:title="Programs the FLASH User Option Byte: IWDG_SW / RST_STOP / RST_STDBY. ">
<polygon fill="white" stroke="black" points="199.5,-38.5 199.5,-57.5 322.5,-57.5 322.5,-38.5 199.5,-38.5"/>
<text text-anchor="middle" x="261" y="-45.5" font-family="Helvetica,sans-Serif" font-size="10.00">FLASH_OB_UserConfig</text>
</a>
</g>
</g>
<!-- Node1&#45;&gt;Node15 -->
<g id="edge14" class="edge"><title>Node1&#45;&gt;Node15</title>
<path fill="none" stroke="midnightblue" d="M80.0338,-256.326C90.6913,-214.655 121.379,-117.213 185,-67 189.85,-63.172 195.379,-60.1062 201.186,-57.6524"/>
<polygon fill="midnightblue" stroke="midnightblue" points="76.57,-255.757 77.5976,-266.302 83.3702,-257.418 76.57,-255.757"/>
</g>
<!-- Node16 -->
<g id="node16" class="node"><title>Node16</title>
<g id="a_node16"><a xlink:href="a01111.html#gabcbd44a62a2488d8b90aa8562a258ef1" target="_top" xlink:title="Launch the option byte loading. ">
<polygon fill="white" stroke="black" points="208.5,-0.5 208.5,-19.5 313.5,-19.5 313.5,-0.5 208.5,-0.5"/>
<text text-anchor="middle" x="261" y="-7.5" font-family="Helvetica,sans-Serif" font-size="10.00">FLASH_OB_Launch</text>
</a>
</g>
</g>
<!-- Node1&#45;&gt;Node16 -->
<g id="edge15" class="edge"><title>Node1&#45;&gt;Node16</title>
<path fill="none" stroke="midnightblue" d="M78.3036,-256.366C86.0681,-209.48 112.3,-90.3357 185,-29 191.673,-23.37 199.793,-19.374 208.194,-16.5454"/>
<polygon fill="midnightblue" stroke="midnightblue" points="74.8188,-255.999 76.7439,-266.417 81.736,-257.072 74.8188,-255.999"/>
</g>
</g>
</svg>
        <g id="navigator" transform="translate(0 0)" fill="#404254">
                <rect fill="#f2f5e9" fill-opacity="0.5" stroke="#606060" stroke-width=".5" x="0" y="0" width="60" height="60"/>
                <use id="zoomplus" xlink:href="#zoomPlus" x="17" y="9" onmousedown="handleZoom(evt,'in')"/>
                <use id="zoomminus" xlink:href="#zoomMin" x="42" y="9" onmousedown="handleZoom(evt,'out')"/>
                <use id="reset" xlink:href="#resetDef" x="30" y="36" onmousedown="handleReset()"/>
                <g id="arrowUp" xlink:href="#dirArrow" transform="translate(30 24)" onmousedown="handlePan(0,-1)">
                  <use xlink:href="#rim" fill="#404040">
                        <set attributeName="fill" to="#808080" begin="arrowUp.mouseover" end="arrowUp.mouseout"/>
                  </use>
                  <path fill="none" stroke="white" stroke-width="1.5" d="M0,-3.0v7 M-2.5,-0.5L0,-3.0L2.5,-0.5"/>
                </g>
                <g id="arrowRight" xlink:href="#dirArrow" transform="rotate(90) translate(36 -43)" onmousedown="handlePan(1,0)">
                  <use xlink:href="#rim" fill="#404040">
                        <set attributeName="fill" to="#808080" begin="arrowRight.mouseover" end="arrowRight.mouseout"/>
                  </use>
                  <path fill="none" stroke="white" stroke-width="1.5" d="M0,-3.0v7 M-2.5,-0.5L0,-3.0L2.5,-0.5"/>
                </g>
                <g id="arrowDown" xlink:href="#dirArrow" transform="rotate(180) translate(-30 -48)" onmousedown="handlePan(0,1)">
                  <use xlink:href="#rim" fill="#404040">
                        <set attributeName="fill" to="#808080" begin="arrowDown.mouseover" end="arrowDown.mouseout"/>
                  </use>
                  <path fill="none" stroke="white" stroke-width="1.5" d="M0,-3.0v7 M-2.5,-0.5L0,-3.0L2.5,-0.5"/>
                </g>
                <g id="arrowLeft" xlink:href="#dirArrow" transform="rotate(270) translate(-36 17)" onmousedown="handlePan(-1,0)">
                  <use xlink:href="#rim" fill="#404040">
                        <set attributeName="fill" to="#808080" begin="arrowLeft.mouseover" end="arrowLeft.mouseout"/>
                  </use>
                  <path fill="none" stroke="white" stroke-width="1.5" d="M0,-3.0v7 M-2.5,-0.5L0,-3.0L2.5,-0.5"/>
                </g>
        </g>
        <svg viewBox="0 0 15 15" width="100%" height="30px" preserveAspectRatio="xMaxYMin meet">
         <g id="arrow_out" transform="scale(0.3 0.3)">
          <a xlink:href="a01112_gaaf8ea3b00c9a5f5eca0df9a795b83f22_icgraph_org.svg" target="_base">
           <rect id="button" ry="5" rx="5" y="6" x="6" height="38" width="38"
                fill="#f2f5e9" fill-opacity="0.5" stroke="#606060" stroke-width="1.0"/>
           <path id="arrow"
             d="M 11.500037,31.436501 C 11.940474,20.09759 22.043105,11.32322 32.158766,21.979434 L 37.068811,17.246167 C 37.068811,17.246167 37.088388,32 37.088388,32 L 22.160133,31.978069 C 22.160133,31.978069 26.997745,27.140456 26.997745,27.140456 C 18.528582,18.264221 13.291696,25.230495 11.500037,31.436501 z"
             style="fill:#404040;"/>
          </a>
         </g>
        </svg>
</svg>
