<?xml version="1.0" encoding="UTF-8" standalone="no"?>
<!DOCTYPE svg PUBLIC "-//W3C//DTD SVG 1.1//EN"
 "http://www.w3.org/Graphics/SVG/1.1/DTD/svg11.dtd">
<!-- Generated by graphviz version 2.38.0 (20140413.2041)
 -->
<!-- Title: USART_DeInit Pages: 1 -->
<svg width="272pt" height="66pt"
 viewBox="0.00 0.00 272.00 66.00" xmlns="http://www.w3.org/2000/svg" xmlns:xlink="http://www.w3.org/1999/xlink">
<g id="graph0" class="graph" transform="scale(1 1) rotate(0) translate(4 62)">
<title>USART_DeInit</title>
<polygon fill="white" stroke="none" points="-4,4 -4,-62 268,-62 268,4 -4,4"/>
<!-- Node1 -->
<g id="node1" class="node"><title>Node1</title>
<polygon fill="#bfbfbf" stroke="black" points="0,-19.5 0,-38.5 83,-38.5 83,-19.5 0,-19.5"/>
<text text-anchor="middle" x="41.5" y="-26.5" font-family="Helvetica,sans-Serif" font-size="10.00">USART_DeInit</text>
</g>
<!-- Node2 -->
<g id="node2" class="node"><title>Node2</title>
<g id="a_node2"><a xlink:href="a00111.html#gad94553850ac07106a27ee85fec37efdf" target="_top" xlink:title="Forces or releases High Speed APB (APB2) peripheral reset. ">
<polygon fill="white" stroke="black" points="119,-38.5 119,-57.5 264,-57.5 264,-38.5 119,-38.5"/>
<text text-anchor="middle" x="191.5" y="-45.5" font-family="Helvetica,sans-Serif" font-size="10.00">RCC_APB2PeriphResetCmd</text>
</a>
</g>
</g>
<!-- Node1&#45;&gt;Node2 -->
<g id="edge1" class="edge"><title>Node1&#45;&gt;Node2</title>
<path fill="none" stroke="midnightblue" d="M83.3334,-34.2421C91.3527,-35.2716 100.027,-36.3853 108.848,-37.5177"/>
<polygon fill="midnightblue" stroke="midnightblue" points="108.479,-40.9989 118.843,-38.8008 109.37,-34.0558 108.479,-40.9989"/>
</g>
<!-- Node3 -->
<g id="node3" class="node"><title>Node3</title>
<g id="a_node3"><a xlink:href="a00111.html#gab197ae4369c10b92640a733b40ed2801" target="_top" xlink:title="Forces or releases Low Speed APB (APB1) peripheral reset. ">
<polygon fill="white" stroke="black" points="119,-0.5 119,-19.5 264,-19.5 264,-0.5 119,-0.5"/>
<text text-anchor="middle" x="191.5" y="-7.5" font-family="Helvetica,sans-Serif" font-size="10.00">RCC_APB1PeriphResetCmd</text>
</a>
</g>
</g>
<!-- Node1&#45;&gt;Node3 -->
<g id="edge2" class="edge"><title>Node1&#45;&gt;Node3</title>
<path fill="none" stroke="midnightblue" d="M83.3334,-23.7579C91.3527,-22.7284 100.027,-21.6147 108.848,-20.4823"/>
<polygon fill="midnightblue" stroke="midnightblue" points="109.37,-23.9442 118.843,-19.1992 108.479,-17.0011 109.37,-23.9442"/>
</g>
</g>
</svg>
