<?xml version="1.0" encoding="UTF-8" standalone="no"?>
<!DOCTYPE svg PUBLIC "-//W3C//DTD SVG 1.1//EN"
 "http://www.w3.org/Graphics/SVG/1.1/DTD/svg11.dtd">
<!-- Generated by graphviz version 2.38.0 (20140413.2041)
 -->
<!-- Title: FLASH_GetStatus Pages: 1 -->
<!--zoomable 560 -->
<svg id="main" version="1.1" xmlns="http://www.w3.org/2000/svg" xmlns:xlink="http://www.w3.org/1999/xlink" xml:space="preserve" onload="init(evt)">
<style type="text/css"><![CDATA[
.edge:hover path { stroke: red; }
.edge:hover polygon { stroke: red; fill: red; }
]]></style>
<script type="text/javascript"><![CDATA[
var edges = document.getElementsByTagName('g');
if (edges && edges.length) {
  for (var i=0;i<edges.length;i++) {
    if (edges[i].id.substr(0,4)=='edge') {
      edges[i].setAttribute('class','edge');
    }
  }
}
]]></script>
        <defs>
                <circle id="rim" cx="0" cy="0" r="7"/>
                <circle id="rim2" cx="0" cy="0" r="3.5"/>
                <g id="zoomPlus">
                        <use xlink:href="#rim" fill="#404040">
                                <set attributeName="fill" to="#808080" begin="zoomplus.mouseover" end="zoomplus.mouseout"/>
                        </use>
                        <path d="M-4,0h8M0,-4v8" fill="none" stroke="white" stroke-width="1.5" pointer-events="none"/>
                </g>
                <g id="zoomMin">
                        <use xlink:href="#rim" fill="#404040">
                                <set attributeName="fill" to="#808080" begin="zoomminus.mouseover" end="zoomminus.mouseout"/>
                        </use>
                        <path d="M-4,0h8" fill="none" stroke="white" stroke-width="1.5" pointer-events="none"/>
                </g>
                <g id="dirArrow">
                        <path fill="none" stroke="white" stroke-width="1.5" d="M0,-3.0v7 M-2.5,-0.5L0,-3.0L2.5,-0.5"/>
                </g>
               <g id="resetDef">
                       <use xlink:href="#rim2" fill="#404040">
                               <set attributeName="fill" to="#808080" begin="reset.mouseover" end="reset.mouseout"/>
                       </use>
               </g>
        </defs>

<script type="text/javascript">
var viewWidth = 479;
var viewHeight = 560;
var sectionId = 'dynsection-5';
</script>
<script xlink:href="svgpan.js"/>
<svg id="graph" class="graph">
<g id="viewport">
<title>FLASH_GetStatus</title>
<polygon fill="white" stroke="none" points="-4,4 -4,-556 475,-556 475,4 -4,4"/>
<!-- Node1 -->
<g id="node1" class="node"><title>Node1</title>
<polygon fill="#bfbfbf" stroke="black" points="0,-266.5 0,-285.5 98,-285.5 98,-266.5 0,-266.5"/>
<text text-anchor="middle" x="49" y="-273.5" font-family="Helvetica,sans-Serif" font-size="10.00">FLASH_GetStatus</text>
</g>
<!-- Node2 -->
<g id="node2" class="node"><title>Node2</title>
<g id="a_node2"><a xlink:href="a01112.html#gaaf8ea3b00c9a5f5eca0df9a795b83f22" target="_top" xlink:title="Waits for a FLASH operation to complete. ">
<polygon fill="white" stroke="black" points="134,-266.5 134,-285.5 283,-285.5 283,-266.5 134,-266.5"/>
<text text-anchor="middle" x="208.5" y="-273.5" font-family="Helvetica,sans-Serif" font-size="10.00">FLASH_WaitForLastOperation</text>
</a>
</g>
</g>
<!-- Node1&#45;&gt;Node2 -->
<g id="edge1" class="edge"><title>Node1&#45;&gt;Node2</title>
<path fill="none" stroke="midnightblue" d="M108.139,-276C116.52,-276 125.236,-276 133.869,-276"/>
<polygon fill="midnightblue" stroke="midnightblue" points="108.111,-272.5 98.111,-276 108.111,-279.5 108.111,-272.5"/>
</g>
<!-- Node3 -->
<g id="node3" class="node"><title>Node3</title>
<g id="a_node3"><a xlink:href="a01110.html#ga48f408290b32a3aebbcad83a00fc447c" target="_top" xlink:title="Erases a specified FLASH Sector. ">
<polygon fill="white" stroke="black" points="341,-532.5 341,-551.5 449,-551.5 449,-532.5 341,-532.5"/>
<text text-anchor="middle" x="395" y="-539.5" font-family="Helvetica,sans-Serif" font-size="10.00">FLASH_EraseSector</text>
</a>
</g>
</g>
<!-- Node2&#45;&gt;Node3 -->
<g id="edge2" class="edge"><title>Node2&#45;&gt;Node3</title>
<path fill="none" stroke="midnightblue" d="M212.304,-295.634C220.068,-342.52 246.3,-461.664 319,-523 325.263,-528.284 332.799,-532.128 340.647,-534.919"/>
<polygon fill="midnightblue" stroke="midnightblue" points="215.736,-294.928 210.744,-285.583 208.819,-296.001 215.736,-294.928"/>
</g>
<!-- Node4 -->
<g id="node4" class="node"><title>Node4</title>
<g id="a_node4"><a xlink:href="a01110.html#ga2aee006e5f4db4280bdedd401dfa50f9" target="_top" xlink:title="Erases all FLASH Sectors. ">
<polygon fill="white" stroke="black" points="332.5,-494.5 332.5,-513.5 457.5,-513.5 457.5,-494.5 332.5,-494.5"/>
<text text-anchor="middle" x="395" y="-501.5" font-family="Helvetica,sans-Serif" font-size="10.00">FLASH_EraseAllSectors</text>
</a>
</g>
</g>
<!-- Node2&#45;&gt;Node4 -->
<g id="edge3" class="edge"><title>Node2&#45;&gt;Node4</title>
<path fill="none" stroke="midnightblue" d="M214.034,-295.674C224.691,-337.345 255.379,-434.787 319,-485 323.85,-488.828 329.379,-491.894 335.186,-494.348"/>
<polygon fill="midnightblue" stroke="midnightblue" points="217.37,-294.582 211.598,-285.698 210.57,-296.243 217.37,-294.582"/>
</g>
<!-- Node5 -->
<g id="node5" class="node"><title>Node5</title>
<g id="a_node5"><a xlink:href="a01110.html#gac297cb140218ab3fd6afa9c53087473c" target="_top" xlink:title="Erases all FLASH Sectors in Bank 1. ">
<polygon fill="white" stroke="black" points="319,-456.5 319,-475.5 471,-475.5 471,-456.5 319,-456.5"/>
<text text-anchor="middle" x="395" y="-463.5" font-family="Helvetica,sans-Serif" font-size="10.00">FLASH_EraseAllBank1Sectors</text>
</a>
</g>
</g>
<!-- Node2&#45;&gt;Node5 -->
<g id="edge4" class="edge"><title>Node2&#45;&gt;Node5</title>
<path fill="none" stroke="midnightblue" d="M216.288,-295.227C229.91,-330.921 264.061,-407.39 319,-447 324.339,-450.849 330.382,-453.921 336.663,-456.372"/>
<polygon fill="midnightblue" stroke="midnightblue" points="219.462,-293.717 212.72,-285.545 212.894,-296.138 219.462,-293.717"/>
</g>
<!-- Node6 -->
<g id="node6" class="node"><title>Node6</title>
<g id="a_node6"><a xlink:href="a01110.html#ga0d841f874ee2cd6dcb3b5d08a39f28e2" target="_top" xlink:title="Erases all FLASH Sectors in Bank 2. ">
<polygon fill="white" stroke="black" points="319,-418.5 319,-437.5 471,-437.5 471,-418.5 319,-418.5"/>
<text text-anchor="middle" x="395" y="-425.5" font-family="Helvetica,sans-Serif" font-size="10.00">FLASH_EraseAllBank2Sectors</text>
</a>
</g>
</g>
<!-- Node2&#45;&gt;Node6 -->
<g id="edge5" class="edge"><title>Node2&#45;&gt;Node6</title>
<path fill="none" stroke="midnightblue" d="M219.534,-294.566C236.217,-323.607 272.476,-379.503 319,-409 325.126,-412.884 332.005,-415.975 339.046,-418.434"/>
<polygon fill="midnightblue" stroke="midnightblue" points="222.579,-292.84 214.64,-285.823 216.471,-296.259 222.579,-292.84"/>
</g>
<!-- Node7 -->
<g id="node7" class="node"><title>Node7</title>
<g id="a_node7"><a xlink:href="a01110.html#gab84b52121e58d0dbc8ff2a92145d20f2" target="_top" xlink:title="Programs a double word (64&#45;bit) at a specified address. ">
<polygon fill="white" stroke="black" points="322.5,-380.5 322.5,-399.5 467.5,-399.5 467.5,-380.5 322.5,-380.5"/>
<text text-anchor="middle" x="395" y="-387.5" font-family="Helvetica,sans-Serif" font-size="10.00">FLASH_ProgramDoubleWord</text>
</a>
</g>
</g>
<!-- Node2&#45;&gt;Node7 -->
<g id="edge6" class="edge"><title>Node2&#45;&gt;Node7</title>
<path fill="none" stroke="midnightblue" d="M224.687,-293.443C244.327,-314.901 280.597,-350.941 319,-371 326.382,-374.856 334.587,-377.958 342.784,-380.446"/>
<polygon fill="midnightblue" stroke="midnightblue" points="227.062,-290.848 217.779,-285.741 221.85,-295.522 227.062,-290.848"/>
</g>
<!-- Node8 -->
<g id="node8" class="node"><title>Node8</title>
<g id="a_node8"><a xlink:href="a01110.html#gaac9a2f400b92537bd42a6bd7cc237b11" target="_top" xlink:title="Programs a word (32&#45;bit) at a specified address. ">
<polygon fill="white" stroke="black" points="338,-342.5 338,-361.5 452,-361.5 452,-342.5 338,-342.5"/>
<text text-anchor="middle" x="395" y="-349.5" font-family="Helvetica,sans-Serif" font-size="10.00">FLASH_ProgramWord</text>
</a>
</g>
</g>
<!-- Node2&#45;&gt;Node8 -->
<g id="edge7" class="edge"><title>Node2&#45;&gt;Node8</title>
<path fill="none" stroke="midnightblue" d="M234.144,-290.943C255.849,-303.583 288.644,-321.434 319,-333 328.539,-336.635 339.025,-339.786 349.054,-342.42"/>
<polygon fill="midnightblue" stroke="midnightblue" points="235.672,-287.78 225.281,-285.711 232.113,-293.809 235.672,-287.78"/>
</g>
<!-- Node9 -->
<g id="node9" class="node"><title>Node9</title>
<g id="a_node9"><a xlink:href="a01110.html#ga5c1336f667950a8765887228f1d0d501" target="_top" xlink:title="Programs a half word (16&#45;bit) at a specified address. ">
<polygon fill="white" stroke="black" points="329,-304.5 329,-323.5 461,-323.5 461,-304.5 329,-304.5"/>
<text text-anchor="middle" x="395" y="-311.5" font-family="Helvetica,sans-Serif" font-size="10.00">FLASH_ProgramHalfWord</text>
</a>
</g>
</g>
<!-- Node2&#45;&gt;Node9 -->
<g id="edge8" class="edge"><title>Node2&#45;&gt;Node9</title>
<path fill="none" stroke="midnightblue" d="M265.867,-287.61C292.107,-293.014 322.936,-299.364 347.778,-304.48"/>
<polygon fill="midnightblue" stroke="midnightblue" points="266.558,-284.178 256.057,-285.589 265.145,-291.034 266.558,-284.178"/>
</g>
<!-- Node10 -->
<g id="node10" class="node"><title>Node10</title>
<g id="a_node10"><a xlink:href="a01110.html#gac425adf52fe7f229ef6bb893fe386848" target="_top" xlink:title="Programs a byte (8&#45;bit) at a specified address. ">
<polygon fill="white" stroke="black" points="339.5,-266.5 339.5,-285.5 450.5,-285.5 450.5,-266.5 339.5,-266.5"/>
<text text-anchor="middle" x="395" y="-273.5" font-family="Helvetica,sans-Serif" font-size="10.00">FLASH_ProgramByte</text>
</a>
</g>
</g>
<!-- Node2&#45;&gt;Node10 -->
<g id="edge9" class="edge"><title>Node2&#45;&gt;Node10</title>
<path fill="none" stroke="midnightblue" d="M293.417,-276C309.042,-276 324.988,-276 339.443,-276"/>
<polygon fill="midnightblue" stroke="midnightblue" points="293.215,-272.5 283.215,-276 293.215,-279.5 293.215,-272.5"/>
</g>
<!-- Node11 -->
<g id="node11" class="node"><title>Node11</title>
<g id="a_node11"><a xlink:href="a01111.html#gaffe7e91bcce65ac079ae5afa1db568b5" target="_top" xlink:title="Enables or disables the write protection of the desired sectors, for the first 1 Mb of the Flash...">
<polygon fill="white" stroke="black" points="332,-228.5 332,-247.5 458,-247.5 458,-228.5 332,-228.5"/>
<text text-anchor="middle" x="395" y="-235.5" font-family="Helvetica,sans-Serif" font-size="10.00">FLASH_OB_WRPConfig</text>
</a>
</g>
</g>
<!-- Node2&#45;&gt;Node11 -->
<g id="edge10" class="edge"><title>Node2&#45;&gt;Node11</title>
<path fill="none" stroke="midnightblue" d="M265.867,-264.39C292.107,-258.986 322.936,-252.636 347.778,-247.52"/>
<polygon fill="midnightblue" stroke="midnightblue" points="265.145,-260.966 256.057,-266.411 266.558,-267.822 265.145,-260.966"/>
</g>
<!-- Node12 -->
<g id="node12" class="node"><title>Node12</title>
<g id="a_node12"><a xlink:href="a01111.html#gadf76da1410201befd9b6d0e6b045765d" target="_top" xlink:title="Enables or disables the write protection of the desired sectors, for the second 1 Mb of the Flash...">
<polygon fill="white" stroke="black" points="329.5,-190.5 329.5,-209.5 460.5,-209.5 460.5,-190.5 329.5,-190.5"/>
<text text-anchor="middle" x="395" y="-197.5" font-family="Helvetica,sans-Serif" font-size="10.00">FLASH_OB_WRP1Config</text>
</a>
</g>
</g>
<!-- Node2&#45;&gt;Node12 -->
<g id="edge11" class="edge"><title>Node2&#45;&gt;Node12</title>
<path fill="none" stroke="midnightblue" d="M234.144,-261.057C255.849,-248.417 288.644,-230.566 319,-219 328.539,-215.365 339.025,-212.214 349.054,-209.58"/>
<polygon fill="midnightblue" stroke="midnightblue" points="232.113,-258.191 225.281,-266.289 235.672,-264.22 232.113,-258.191"/>
</g>
<!-- Node13 -->
<g id="node13" class="node"><title>Node13</title>
<g id="a_node13"><a xlink:href="a01111.html#gad2905f3985df53e8bc5115d34a544550" target="_top" xlink:title="Enables or disables the read/write protection (PCROP) of the desired sectors, for the first 1 MB of t...">
<polygon fill="white" stroke="black" points="326,-152.5 326,-171.5 464,-171.5 464,-152.5 326,-152.5"/>
<text text-anchor="middle" x="395" y="-159.5" font-family="Helvetica,sans-Serif" font-size="10.00">FLASH_OB_PCROPConfig</text>
</a>
</g>
</g>
<!-- Node2&#45;&gt;Node13 -->
<g id="edge12" class="edge"><title>Node2&#45;&gt;Node13</title>
<path fill="none" stroke="midnightblue" d="M224.687,-258.557C244.327,-237.099 280.597,-201.059 319,-181 326.382,-177.144 334.587,-174.042 342.784,-171.554"/>
<polygon fill="midnightblue" stroke="midnightblue" points="221.85,-256.478 217.779,-266.259 227.062,-261.152 221.85,-256.478"/>
</g>
<!-- Node14 -->
<g id="node14" class="node"><title>Node14</title>
<g id="a_node14"><a xlink:href="a01111.html#ga81cc635921384a7475396118a7914436" target="_top" xlink:title="Enables or disables the read/write protection (PCROP) of the desired sectors. ">
<polygon fill="white" stroke="black" points="323.5,-114.5 323.5,-133.5 466.5,-133.5 466.5,-114.5 323.5,-114.5"/>
<text text-anchor="middle" x="395" y="-121.5" font-family="Helvetica,sans-Serif" font-size="10.00">FLASH_OB_PCROP1Config</text>
</a>
</g>
</g>
<!-- Node2&#45;&gt;Node14 -->
<g id="edge13" class="edge"><title>Node2&#45;&gt;Node14</title>
<path fill="none" stroke="midnightblue" d="M219.534,-257.434C236.217,-228.393 272.476,-172.497 319,-143 325.126,-139.116 332.005,-136.025 339.046,-133.566"/>
<polygon fill="midnightblue" stroke="midnightblue" points="216.471,-255.741 214.64,-266.177 222.579,-259.16 216.471,-255.741"/>
</g>
<!-- Node15 -->
<g id="node15" class="node"><title>Node15</title>
<g id="a_node15"><a xlink:href="a01111.html#ga12cb6799f725a49cd151eef4d6d1789b" target="_top" xlink:title="Sets the read protection level. ">
<polygon fill="white" stroke="black" points="333,-76.5 333,-95.5 457,-95.5 457,-76.5 333,-76.5"/>
<text text-anchor="middle" x="395" y="-83.5" font-family="Helvetica,sans-Serif" font-size="10.00">FLASH_OB_RDPConfig</text>
</a>
</g>
</g>
<!-- Node2&#45;&gt;Node15 -->
<g id="edge14" class="edge"><title>Node2&#45;&gt;Node15</title>
<path fill="none" stroke="midnightblue" d="M216.288,-256.773C229.91,-221.079 264.061,-144.61 319,-105 324.339,-101.151 330.382,-98.079 336.663,-95.628"/>
<polygon fill="midnightblue" stroke="midnightblue" points="212.894,-255.862 212.72,-266.455 219.462,-258.283 212.894,-255.862"/>
</g>
<!-- Node16 -->
<g id="node16" class="node"><title>Node16</title>
<g id="a_node16"><a xlink:href="a01111.html#ga6b605409e4271b4cc6dfb56ed8108a1a" target="_top" xlink:title="Programs the FLASH User Option Byte: IWDG_SW / RST_STOP / RST_STDBY. ">
<polygon fill="white" stroke="black" points="333.5,-38.5 333.5,-57.5 456.5,-57.5 456.5,-38.5 333.5,-38.5"/>
<text text-anchor="middle" x="395" y="-45.5" font-family="Helvetica,sans-Serif" font-size="10.00">FLASH_OB_UserConfig</text>
</a>
</g>
</g>
<!-- Node2&#45;&gt;Node16 -->
<g id="edge15" class="edge"><title>Node2&#45;&gt;Node16</title>
<path fill="none" stroke="midnightblue" d="M214.034,-256.326C224.691,-214.655 255.379,-117.213 319,-67 323.85,-63.172 329.379,-60.1062 335.186,-57.6524"/>
<polygon fill="midnightblue" stroke="midnightblue" points="210.57,-255.757 211.598,-266.302 217.37,-257.418 210.57,-255.757"/>
</g>
<!-- Node17 -->
<g id="node17" class="node"><title>Node17</title>
<g id="a_node17"><a xlink:href="a01111.html#gabcbd44a62a2488d8b90aa8562a258ef1" target="_top" xlink:title="Launch the option byte loading. ">
<polygon fill="white" stroke="black" points="342.5,-0.5 342.5,-19.5 447.5,-19.5 447.5,-0.5 342.5,-0.5"/>
<text text-anchor="middle" x="395" y="-7.5" font-family="Helvetica,sans-Serif" font-size="10.00">FLASH_OB_Launch</text>
</a>
</g>
</g>
<!-- Node2&#45;&gt;Node17 -->
<g id="edge16" class="edge"><title>Node2&#45;&gt;Node17</title>
<path fill="none" stroke="midnightblue" d="M212.304,-256.366C220.068,-209.48 246.3,-90.3357 319,-29 325.673,-23.37 333.793,-19.374 342.194,-16.5454"/>
<polygon fill="midnightblue" stroke="midnightblue" points="208.819,-255.999 210.744,-266.417 215.736,-257.072 208.819,-255.999"/>
</g>
</g>
</svg>
        <g id="navigator" transform="translate(0 0)" fill="#404254">
                <rect fill="#f2f5e9" fill-opacity="0.5" stroke="#606060" stroke-width=".5" x="0" y="0" width="60" height="60"/>
                <use id="zoomplus" xlink:href="#zoomPlus" x="17" y="9" onmousedown="handleZoom(evt,'in')"/>
                <use id="zoomminus" xlink:href="#zoomMin" x="42" y="9" onmousedown="handleZoom(evt,'out')"/>
                <use id="reset" xlink:href="#resetDef" x="30" y="36" onmousedown="handleReset()"/>
                <g id="arrowUp" xlink:href="#dirArrow" transform="translate(30 24)" onmousedown="handlePan(0,-1)">
                  <use xlink:href="#rim" fill="#404040">
                        <set attributeName="fill" to="#808080" begin="arrowUp.mouseover" end="arrowUp.mouseout"/>
                  </use>
                  <path fill="none" stroke="white" stroke-width="1.5" d="M0,-3.0v7 M-2.5,-0.5L0,-3.0L2.5,-0.5"/>
                </g>
                <g id="arrowRight" xlink:href="#dirArrow" transform="rotate(90) translate(36 -43)" onmousedown="handlePan(1,0)">
                  <use xlink:href="#rim" fill="#404040">
                        <set attributeName="fill" to="#808080" begin="arrowRight.mouseover" end="arrowRight.mouseout"/>
                  </use>
                  <path fill="none" stroke="white" stroke-width="1.5" d="M0,-3.0v7 M-2.5,-0.5L0,-3.0L2.5,-0.5"/>
                </g>
                <g id="arrowDown" xlink:href="#dirArrow" transform="rotate(180) translate(-30 -48)" onmousedown="handlePan(0,1)">
                  <use xlink:href="#rim" fill="#404040">
                        <set attributeName="fill" to="#808080" begin="arrowDown.mouseover" end="arrowDown.mouseout"/>
                  </use>
                  <path fill="none" stroke="white" stroke-width="1.5" d="M0,-3.0v7 M-2.5,-0.5L0,-3.0L2.5,-0.5"/>
                </g>
                <g id="arrowLeft" xlink:href="#dirArrow" transform="rotate(270) translate(-36 17)" onmousedown="handlePan(-1,0)">
                  <use xlink:href="#rim" fill="#404040">
                        <set attributeName="fill" to="#808080" begin="arrowLeft.mouseover" end="arrowLeft.mouseout"/>
                  </use>
                  <path fill="none" stroke="white" stroke-width="1.5" d="M0,-3.0v7 M-2.5,-0.5L0,-3.0L2.5,-0.5"/>
                </g>
        </g>
        <svg viewBox="0 0 15 15" width="100%" height="30px" preserveAspectRatio="xMaxYMin meet">
         <g id="arrow_out" transform="scale(0.3 0.3)">
          <a xlink:href="a01107_gac265b8d1e7ea11e44ceee28797c3debb_icgraph_org.svg" target="_base">
           <rect id="button" ry="5" rx="5" y="6" x="6" height="38" width="38"
                fill="#f2f5e9" fill-opacity="0.5" stroke="#606060" stroke-width="1.0"/>
           <path id="arrow"
             d="M 11.500037,31.436501 C 11.940474,20.09759 22.043105,11.32322 32.158766,21.979434 L 37.068811,17.246167 C 37.068811,17.246167 37.088388,32 37.088388,32 L 22.160133,31.978069 C 22.160133,31.978069 26.997745,27.140456 26.997745,27.140456 C 18.528582,18.264221 13.291696,25.230495 11.500037,31.436501 z"
             style="fill:#404040;"/>
          </a>
         </g>
        </svg>
</svg>
