<?xml version="1.0" encoding="UTF-8" standalone="no"?>
<!DOCTYPE svg PUBLIC "-//W3C//DTD SVG 1.1//EN"
 "http://www.w3.org/Graphics/SVG/1.1/DTD/svg11.dtd">
<!-- Generated by graphviz version 2.38.0 (20140413.2041)
 -->
<!-- Title: RTC_WaitForSynchro Pages: 1 -->
<svg width="285pt" height="142pt"
 viewBox="0.00 0.00 285.00 142.00" xmlns="http://www.w3.org/2000/svg" xmlns:xlink="http://www.w3.org/1999/xlink">
<g id="graph0" class="graph" transform="scale(1 1) rotate(0) translate(4 138)">
<title>RTC_WaitForSynchro</title>
<polygon fill="white" stroke="none" points="-4,4 -4,-138 281,-138 281,4 -4,4"/>
<!-- Node1 -->
<g id="node1" class="node"><title>Node1</title>
<polygon fill="#bfbfbf" stroke="black" points="0,-57.5 0,-76.5 113,-76.5 113,-57.5 0,-57.5"/>
<text text-anchor="middle" x="56.5" y="-64.5" font-family="Helvetica,sans-Serif" font-size="10.00">RTC_WaitForSynchro</text>
</g>
<!-- Node2 -->
<g id="node2" class="node"><title>Node2</title>
<g id="a_node2"><a xlink:href="a01158.html#ga9777c6cc4a99c339ebc527a791b2ebe7" target="_top" xlink:title="Deinitializes the RTC registers to their default reset values. ">
<polygon fill="white" stroke="black" points="178.5,-114.5 178.5,-133.5 247.5,-133.5 247.5,-114.5 178.5,-114.5"/>
<text text-anchor="middle" x="213" y="-121.5" font-family="Helvetica,sans-Serif" font-size="10.00">RTC_DeInit</text>
</a>
</g>
</g>
<!-- Node1&#45;&gt;Node2 -->
<g id="edge1" class="edge"><title>Node1&#45;&gt;Node2</title>
<path fill="none" stroke="midnightblue" d="M87.9471,-80.5489C105.605,-88.1778 128.364,-97.6241 149,-105 158.467,-108.384 168.869,-111.686 178.446,-114.563"/>
<polygon fill="midnightblue" stroke="midnightblue" points="89.2737,-77.3091 78.7081,-76.5222 86.4769,-83.7261 89.2737,-77.3091"/>
</g>
<!-- Node3 -->
<g id="node3" class="node"><title>Node3</title>
<g id="a_node3"><a xlink:href="a01159.html#ga9f9df80cfa82f7a4dd9f4d0cf2ffb3a6" target="_top" xlink:title="Set the RTC current time. ">
<polygon fill="white" stroke="black" points="173,-76.5 173,-95.5 253,-95.5 253,-76.5 173,-76.5"/>
<text text-anchor="middle" x="213" y="-83.5" font-family="Helvetica,sans-Serif" font-size="10.00">RTC_SetTime</text>
</a>
</g>
</g>
<!-- Node1&#45;&gt;Node3 -->
<g id="edge2" class="edge"><title>Node1&#45;&gt;Node3</title>
<path fill="none" stroke="midnightblue" d="M123.59,-75.1276C140.347,-77.1883 157.819,-79.337 172.763,-81.1748"/>
<polygon fill="midnightblue" stroke="midnightblue" points="123.631,-71.6063 113.278,-73.8594 122.776,-78.5539 123.631,-71.6063"/>
</g>
<!-- Node4 -->
<g id="node4" class="node"><title>Node4</title>
<g id="a_node4"><a xlink:href="a01159.html#ga69d08538147f3d89c818dcfabf50e362" target="_top" xlink:title="Set the RTC current date. ">
<polygon fill="white" stroke="black" points="173.5,-38.5 173.5,-57.5 252.5,-57.5 252.5,-38.5 173.5,-38.5"/>
<text text-anchor="middle" x="213" y="-45.5" font-family="Helvetica,sans-Serif" font-size="10.00">RTC_SetDate</text>
</a>
</g>
</g>
<!-- Node1&#45;&gt;Node4 -->
<g id="edge3" class="edge"><title>Node1&#45;&gt;Node4</title>
<path fill="none" stroke="midnightblue" d="M123.682,-58.8612C140.588,-56.7821 158.217,-54.6141 173.237,-52.7669"/>
<polygon fill="midnightblue" stroke="midnightblue" points="122.776,-55.4461 113.278,-60.1406 123.631,-62.3937 122.776,-55.4461"/>
</g>
<!-- Node5 -->
<g id="node5" class="node"><title>Node5</title>
<g id="a_node5"><a xlink:href="a01169.html#gaad434ed2a268f05662f0613e8e9717f3" target="_top" xlink:title="Configures the Synchronization Shift Control Settings. ">
<polygon fill="white" stroke="black" points="149,-0.5 149,-19.5 277,-19.5 277,-0.5 149,-0.5"/>
<text text-anchor="middle" x="213" y="-7.5" font-family="Helvetica,sans-Serif" font-size="10.00">RTC_SynchroShiftConfig</text>
</a>
</g>
</g>
<!-- Node1&#45;&gt;Node5 -->
<g id="edge4" class="edge"><title>Node1&#45;&gt;Node5</title>
<path fill="none" stroke="midnightblue" d="M87.9471,-53.4511C105.605,-45.8222 128.364,-36.3759 149,-29 158.359,-25.6549 168.633,-22.389 178.119,-19.5349"/>
<polygon fill="midnightblue" stroke="midnightblue" points="86.4769,-50.2739 78.7081,-57.4778 89.2737,-56.6909 86.4769,-50.2739"/>
</g>
</g>
</svg>
