<?xml version="1.0" encoding="UTF-8" standalone="no"?>
<!DOCTYPE svg PUBLIC "-//W3C//DTD SVG 1.1//EN"
 "http://www.w3.org/Graphics/SVG/1.1/DTD/svg11.dtd">
<!-- Generated by graphviz version 2.38.0 (20140413.2041)
 -->
<!-- Title: TIM_ETRConfig Pages: 1 -->
<svg width="275pt" height="66pt"
 viewBox="0.00 0.00 275.00 66.00" xmlns="http://www.w3.org/2000/svg" xmlns:xlink="http://www.w3.org/1999/xlink">
<g id="graph0" class="graph" transform="scale(1 1) rotate(0) translate(4 62)">
<title>TIM_ETRConfig</title>
<polygon fill="white" stroke="none" points="-4,4 -4,-62 271,-62 271,4 -4,4"/>
<!-- Node1 -->
<g id="node1" class="node"><title>Node1</title>
<polygon fill="#bfbfbf" stroke="black" points="0,-19.5 0,-38.5 88,-38.5 88,-19.5 0,-19.5"/>
<text text-anchor="middle" x="44" y="-26.5" font-family="Helvetica,sans-Serif" font-size="10.00">TIM_ETRConfig</text>
</g>
<!-- Node2 -->
<g id="node2" class="node"><title>Node2</title>
<g id="a_node2"><a xlink:href="a01194.html#ga47c05638b93aabcd641dbc8859e1b2df" target="_top" xlink:title="Configures the External clock Mode1. ">
<polygon fill="white" stroke="black" points="124,-38.5 124,-57.5 267,-57.5 267,-38.5 124,-38.5"/>
<text text-anchor="middle" x="195.5" y="-45.5" font-family="Helvetica,sans-Serif" font-size="10.00">TIM_ETRClockMode1Config</text>
</a>
</g>
</g>
<!-- Node1&#45;&gt;Node2 -->
<g id="edge1" class="edge"><title>Node1&#45;&gt;Node2</title>
<path fill="none" stroke="midnightblue" d="M98.4172,-35.7888C106.635,-36.8333 115.229,-37.9255 123.753,-39.0088"/>
<polygon fill="midnightblue" stroke="midnightblue" points="98.6031,-32.2844 88.2416,-34.4956 97.7205,-39.2285 98.6031,-32.2844"/>
</g>
<!-- Node3 -->
<g id="node3" class="node"><title>Node3</title>
<g id="a_node3"><a xlink:href="a01194.html#ga0a9cbcbab32326cbbdaf4c111f59ec20" target="_top" xlink:title="Configures the External clock Mode2. ">
<polygon fill="white" stroke="black" points="124,-0.5 124,-19.5 267,-19.5 267,-0.5 124,-0.5"/>
<text text-anchor="middle" x="195.5" y="-7.5" font-family="Helvetica,sans-Serif" font-size="10.00">TIM_ETRClockMode2Config</text>
</a>
</g>
</g>
<!-- Node1&#45;&gt;Node3 -->
<g id="edge2" class="edge"><title>Node1&#45;&gt;Node3</title>
<path fill="none" stroke="midnightblue" d="M98.4172,-22.2112C106.635,-21.1667 115.229,-20.0745 123.753,-18.9912"/>
<polygon fill="midnightblue" stroke="midnightblue" points="97.7205,-18.7715 88.2416,-23.5044 98.6031,-25.7156 97.7205,-18.7715"/>
</g>
</g>
</svg>
