<?xml version="1.0" encoding="UTF-8" standalone="no"?>
<!DOCTYPE svg PUBLIC "-//W3C//DTD SVG 1.1//EN"
 "http://www.w3.org/Graphics/SVG/1.1/DTD/svg11.dtd">
<!-- Generated by graphviz version 2.38.0 (20140413.2041)
 -->
<!-- Title: FLASH_OB_PCROP1Config Pages: 1 -->
<svg width="470pt" height="28pt"
 viewBox="0.00 0.00 470.00 28.00" xmlns="http://www.w3.org/2000/svg" xmlns:xlink="http://www.w3.org/1999/xlink">
<g id="graph0" class="graph" transform="scale(1 1) rotate(0) translate(4 24)">
<title>FLASH_OB_PCROP1Config</title>
<polygon fill="white" stroke="none" points="-4,4 -4,-24 466,-24 466,4 -4,4"/>
<!-- Node1 -->
<g id="node1" class="node"><title>Node1</title>
<polygon fill="#bfbfbf" stroke="black" points="0,-0.5 0,-19.5 143,-19.5 143,-0.5 0,-0.5"/>
<text text-anchor="middle" x="71.5" y="-7.5" font-family="Helvetica,sans-Serif" font-size="10.00">FLASH_OB_PCROP1Config</text>
</g>
<!-- Node2 -->
<g id="node2" class="node"><title>Node2</title>
<g id="a_node2"><a xlink:href="a01112.html#gaaf8ea3b00c9a5f5eca0df9a795b83f22" target="_top" xlink:title="Waits for a FLASH operation to complete. ">
<polygon fill="white" stroke="black" points="179,-0.5 179,-19.5 328,-19.5 328,-0.5 179,-0.5"/>
<text text-anchor="middle" x="253.5" y="-7.5" font-family="Helvetica,sans-Serif" font-size="10.00">FLASH_WaitForLastOperation</text>
</a>
</g>
</g>
<!-- Node1&#45;&gt;Node2 -->
<g id="edge1" class="edge"><title>Node1&#45;&gt;Node2</title>
<path fill="none" stroke="midnightblue" d="M143.124,-10C151.548,-10 160.21,-10 168.795,-10"/>
<polygon fill="midnightblue" stroke="midnightblue" points="168.82,-13.5001 178.82,-10 168.819,-6.5001 168.82,-13.5001"/>
</g>
<!-- Node3 -->
<g id="node3" class="node"><title>Node3</title>
<g id="a_node3"><a xlink:href="a01112.html#gac265b8d1e7ea11e44ceee28797c3debb" target="_top" xlink:title="Returns the FLASH Status. ">
<polygon fill="white" stroke="black" points="364,-0.5 364,-19.5 462,-19.5 462,-0.5 364,-0.5"/>
<text text-anchor="middle" x="413" y="-7.5" font-family="Helvetica,sans-Serif" font-size="10.00">FLASH_GetStatus</text>
</a>
</g>
</g>
<!-- Node2&#45;&gt;Node3 -->
<g id="edge2" class="edge"><title>Node2&#45;&gt;Node3</title>
<path fill="none" stroke="midnightblue" d="M328.177,-10C336.621,-10 345.143,-10 353.353,-10"/>
<polygon fill="midnightblue" stroke="midnightblue" points="353.555,-13.5001 363.555,-10 353.555,-6.5001 353.555,-13.5001"/>
</g>
</g>
</svg>
