<?xml version="1.0" encoding="UTF-8" standalone="no"?>
<!DOCTYPE svg PUBLIC "-//W3C//DTD SVG 1.1//EN"
 "http://www.w3.org/Graphics/SVG/1.1/DTD/svg11.dtd">
<!-- Generated by graphviz version 2.38.0 (20140413.2041)
 -->
<!-- Title: WWDG_Private_Functions Pages: 1 -->
<svg width="405pt" height="138pt"
 viewBox="0.00 0.00 405.00 137.50" xmlns="http://www.w3.org/2000/svg" xmlns:xlink="http://www.w3.org/1999/xlink">
<g id="graph0" class="graph" transform="scale(1 1) rotate(0) translate(4 133.5)">
<title>WWDG_Private_Functions</title>
<polygon fill="white" stroke="none" points="-4,4 -4,-133.5 401,-133.5 401,4 -4,4"/>
<!-- Node1 -->
<g id="node1" class="node"><title>Node1</title>
<g id="a_node1"><a xlink:href="a01110.html" target="_top" xlink:title="WWDG driver modules. ">
<polygon fill="white" stroke="black" points="0,-50 0,-69 51,-69 51,-50 0,-50"/>
<text text-anchor="middle" x="25.5" y="-57" font-family="Helvetica,sans-Serif" font-size="10.00">WWDG</text>
</a>
</g>
</g>
<!-- Node0 -->
<g id="node2" class="node"><title>Node0</title>
<polygon fill="#bfbfbf" stroke="black" points="87,-50 87,-69 222,-69 222,-50 87,-50"/>
<text text-anchor="middle" x="154.5" y="-57" font-family="Helvetica,sans-Serif" font-size="10.00">WWDG_Private_Functions</text>
</g>
<!-- Node1&#45;&gt;Node0 -->
<g id="edge1" class="edge"><title>Node1&#45;&gt;Node0</title>
<path fill="none" stroke="black" d="M61.5502,-59.5C69.4585,-59.5 78.109,-59.5 86.8393,-59.5"/>
<polygon fill="black" stroke="black" points="61.2884,-56.0001 51.2884,-59.5 61.2883,-63.0001 61.2884,-56.0001"/>
</g>
<!-- Node2 -->
<g id="node3" class="node"><title>Node2</title>
<g id="a_node3"><a xlink:href="a01112.html" target="_top" xlink:title="Prescaler, Refresh window and Counter configuration functions. ">
<polygon fill="white" stroke="black" points="268.5,-88 268.5,-129 386.5,-129 386.5,-88 268.5,-88"/>
<text text-anchor="start" x="276.5" y="-117" font-family="Helvetica,sans-Serif" font-size="10.00">Prescaler, Refresh</text>
<text text-anchor="start" x="276.5" y="-106" font-family="Helvetica,sans-Serif" font-size="10.00"> window and Counter</text>
<text text-anchor="middle" x="327.5" y="-95" font-family="Helvetica,sans-Serif" font-size="10.00"> configuration functions</text>
</a>
</g>
</g>
<!-- Node0&#45;&gt;Node2 -->
<g id="edge2" class="edge"><title>Node0&#45;&gt;Node2</title>
<path fill="none" stroke="black" d="M198.534,-71.8313C219.658,-77.8843 245.417,-85.2656 268.272,-91.8147"/>
<polygon fill="black" stroke="black" points="199.454,-68.4541 188.876,-69.064 197.525,-75.1833 199.454,-68.4541"/>
</g>
<!-- Node3 -->
<g id="node4" class="node"><title>Node3</title>
<g id="a_node4"><a xlink:href="a01113.html" target="_top" xlink:title="WWDG activation functions. ">
<polygon fill="white" stroke="black" points="258,-50 258,-69 397,-69 397,-50 258,-50"/>
<text text-anchor="middle" x="327.5" y="-57" font-family="Helvetica,sans-Serif" font-size="10.00">WWDG activation functions</text>
</a>
</g>
</g>
<!-- Node0&#45;&gt;Node3 -->
<g id="edge3" class="edge"><title>Node0&#45;&gt;Node3</title>
<path fill="none" stroke="black" d="M232.37,-59.5C240.853,-59.5 249.45,-59.5 257.823,-59.5"/>
<polygon fill="black" stroke="black" points="232.103,-56.0001 222.103,-59.5 232.103,-63.0001 232.103,-56.0001"/>
</g>
<!-- Node4 -->
<g id="node5" class="node"><title>Node4</title>
<g id="a_node5"><a xlink:href="a01114.html" target="_top" xlink:title="Interrupts and flags management functions. ">
<polygon fill="white" stroke="black" points="268,-0.5 268,-30.5 387,-30.5 387,-0.5 268,-0.5"/>
<text text-anchor="start" x="276" y="-18.5" font-family="Helvetica,sans-Serif" font-size="10.00">Interrupts and flags</text>
<text text-anchor="middle" x="327.5" y="-7.5" font-family="Helvetica,sans-Serif" font-size="10.00"> management functions</text>
</a>
</g>
</g>
<!-- Node0&#45;&gt;Node4 -->
<g id="edge4" class="edge"><title>Node0&#45;&gt;Node4</title>
<path fill="none" stroke="black" d="M202.515,-47.4026C222.739,-42.1987 246.594,-36.0605 267.951,-30.5654"/>
<polygon fill="black" stroke="black" points="201.417,-44.0711 192.604,-49.9527 203.161,-50.8502 201.417,-44.0711"/>
</g>
</g>
</svg>
