<?xml version="1.0" encoding="UTF-8" standalone="no"?>
<!DOCTYPE svg PUBLIC "-//W3C//DTD SVG 1.1//EN"
 "http://www.w3.org/Graphics/SVG/1.1/DTD/svg11.dtd">
<!-- Generated by graphviz version 2.38.0 (20140413.2041)
 -->
<!-- Title: arm_min_f32 Pages: 1 -->
<svg width="334pt" height="104pt"
 viewBox="0.00 0.00 334.00 104.00" xmlns="http://www.w3.org/2000/svg" xmlns:xlink="http://www.w3.org/1999/xlink">
<g id="graph0" class="graph" transform="scale(1 1) rotate(0) translate(4 100)">
<title>arm_min_f32</title>
<polygon fill="white" stroke="none" points="-4,4 -4,-100 330,-100 330,4 -4,4"/>
<!-- Node1 -->
<g id="node1" class="node"><title>Node1</title>
<polygon fill="#bfbfbf" stroke="black" points="0,-38.5 0,-57.5 73,-57.5 73,-38.5 0,-38.5"/>
<text text-anchor="middle" x="36.5" y="-45.5" font-family="Helvetica,sans-Serif" font-size="10.00">arm_min_f32</text>
</g>
<!-- Node2 -->
<g id="node2" class="node"><title>Node2</title>
<g id="a_node2"><a xlink:href="a01130.html#ga56a40d1cf842b0b45267df6761975da0" target="_top" xlink:title="Floating&#45;point square root function. ">
<polygon fill="white" stroke="black" points="109,-38.5 109,-57.5 183,-57.5 183,-38.5 109,-38.5"/>
<text text-anchor="middle" x="146" y="-45.5" font-family="Helvetica,sans-Serif" font-size="10.00">arm_sqrt_f32</text>
</a>
</g>
</g>
<!-- Node1&#45;&gt;Node2 -->
<g id="edge1" class="edge"><title>Node1&#45;&gt;Node2</title>
<path fill="none" stroke="midnightblue" d="M83.5038,-48C92.029,-48 100.82,-48 108.994,-48"/>
<polygon fill="midnightblue" stroke="midnightblue" points="83.296,-44.5001 73.2959,-48 83.2959,-51.5001 83.296,-44.5001"/>
</g>
<!-- Node3 -->
<g id="node3" class="node"><title>Node3</title>
<g id="a_node3"><a xlink:href="a01167.html#gae45024c497392cde2ae358a76d435213" target="_top" xlink:title="Floating&#45;point complex magnitude. ">
<polygon fill="white" stroke="black" points="219,-76.5 219,-95.5 326,-95.5 326,-76.5 219,-76.5"/>
<text text-anchor="middle" x="272.5" y="-83.5" font-family="Helvetica,sans-Serif" font-size="10.00">arm_cmplx_mag_f32</text>
</a>
</g>
</g>
<!-- Node2&#45;&gt;Node3 -->
<g id="edge2" class="edge"><title>Node2&#45;&gt;Node3</title>
<path fill="none" stroke="midnightblue" d="M192.861,-55.4601C214.844,-61.5877 239.763,-69.8079 255.548,-76.4368"/>
<polygon fill="midnightblue" stroke="midnightblue" points="193.577,-52.0282 183.011,-52.8052 191.755,-58.787 193.577,-52.0282"/>
</g>
<!-- Node4 -->
<g id="node4" class="node"><title>Node4</title>
<g id="a_node4"><a xlink:href="a01200.html#ga0e3ab1b57da32d45388d1fa90d7fd88c" target="_top" xlink:title="Root Mean Square of the elements of a floating&#45;point vector. ">
<polygon fill="white" stroke="black" points="235.5,-38.5 235.5,-57.5 309.5,-57.5 309.5,-38.5 235.5,-38.5"/>
<text text-anchor="middle" x="272.5" y="-45.5" font-family="Helvetica,sans-Serif" font-size="10.00">arm_rms_f32</text>
</a>
</g>
</g>
<!-- Node2&#45;&gt;Node4 -->
<g id="edge4" class="edge"><title>Node2&#45;&gt;Node4</title>
<path fill="none" stroke="midnightblue" d="M193.306,-41.4508C207.12,-41.0958 222.058,-41.2116 235.139,-41.7982"/>
<polygon fill="midnightblue" stroke="midnightblue" points="192.881,-37.9635 183.011,-41.814 193.128,-44.9591 192.881,-37.9635"/>
</g>
<!-- Node5 -->
<g id="node5" class="node"><title>Node5</title>
<g id="a_node5"><a xlink:href="a01201.html#ga4969b5b5f3d001377bc401a3ee99dfc2" target="_top" xlink:title="Standard deviation of the elements of a floating&#45;point vector. ">
<polygon fill="white" stroke="black" points="237,-0.5 237,-19.5 308,-19.5 308,-0.5 237,-0.5"/>
<text text-anchor="middle" x="272.5" y="-7.5" font-family="Helvetica,sans-Serif" font-size="10.00">arm_std_f32</text>
</a>
</g>
</g>
<!-- Node2&#45;&gt;Node5 -->
<g id="edge6" class="edge"><title>Node2&#45;&gt;Node5</title>
<path fill="none" stroke="midnightblue" d="M172.323,-34.7126C190.945,-27.6549 216.472,-19.6776 236.964,-14.4248"/>
<polygon fill="midnightblue" stroke="midnightblue" points="171.023,-31.4631 163.021,-38.4076 173.607,-37.9686 171.023,-31.4631"/>
</g>
<!-- Node3&#45;&gt;Node2 -->
<g id="edge3" class="edge"><title>Node3&#45;&gt;Node2</title>
<path fill="none" stroke="midnightblue" d="M208.888,-73.6393C191.866,-68.4343 174.88,-62.5673 163.021,-57.5924"/>
<polygon fill="midnightblue" stroke="midnightblue" points="208.292,-77.114 218.876,-76.6157 210.292,-70.4055 208.292,-77.114"/>
</g>
<!-- Node4&#45;&gt;Node2 -->
<g id="edge5" class="edge"><title>Node4&#45;&gt;Node2</title>
<path fill="none" stroke="midnightblue" d="M224.823,-54.5586C210.989,-54.9052 196.059,-54.781 183.011,-54.186"/>
<polygon fill="midnightblue" stroke="midnightblue" points="225.266,-58.0455 235.139,-54.2018 225.024,-51.0497 225.266,-58.0455"/>
</g>
<!-- Node5&#45;&gt;Node2 -->
<g id="edge7" class="edge"><title>Node5&#45;&gt;Node2</title>
<path fill="none" stroke="midnightblue" d="M246.197,-23.2798C228.017,-30.1711 203.249,-37.9405 183.011,-43.1948"/>
<polygon fill="midnightblue" stroke="midnightblue" points="247.548,-26.5092 255.548,-19.5632 244.962,-20.0041 247.548,-26.5092"/>
</g>
</g>
</svg>
