<?xml version="1.0" encoding="UTF-8" standalone="no"?>
<!DOCTYPE svg PUBLIC "-//W3C//DTD SVG 1.1//EN"
 "http://www.w3.org/Graphics/SVG/1.1/DTD/svg11.dtd">
<!-- Generated by graphviz version 2.38.0 (20140413.2041)
 -->
<!-- Title: RTC_SetAlarm Pages: 1 -->
<svg width="224pt" height="66pt"
 viewBox="0.00 0.00 224.00 66.00" xmlns="http://www.w3.org/2000/svg" xmlns:xlink="http://www.w3.org/1999/xlink">
<g id="graph0" class="graph" transform="scale(1 1) rotate(0) translate(4 62)">
<title>RTC_SetAlarm</title>
<polygon fill="white" stroke="none" points="-4,4 -4,-62 220,-62 220,4 -4,4"/>
<!-- Node1 -->
<g id="node1" class="node"><title>Node1</title>
<polygon fill="#bfbfbf" stroke="black" points="0,-19.5 0,-38.5 83,-38.5 83,-19.5 0,-19.5"/>
<text text-anchor="middle" x="41.5" y="-26.5" font-family="Helvetica,sans-Serif" font-size="10.00">RTC_SetAlarm</text>
</g>
<!-- Node2 -->
<g id="node2" class="node"><title>Node2</title>
<g id="a_node2"><a xlink:href="a01157.html#ga39e7c20215c2f546a20cf5df25c72d72" target="_top" xlink:title="Convert from 2 digit BCD to Binary. ">
<polygon fill="white" stroke="black" points="119,-38.5 119,-57.5 216,-57.5 216,-38.5 119,-38.5"/>
<text text-anchor="middle" x="167.5" y="-45.5" font-family="Helvetica,sans-Serif" font-size="10.00">RTC_Bcd2ToByte</text>
</a>
</g>
</g>
<!-- Node1&#45;&gt;Node2 -->
<g id="edge1" class="edge"><title>Node1&#45;&gt;Node2</title>
<path fill="none" stroke="midnightblue" d="M83.1022,-35.2213C91.3265,-36.4815 100.123,-37.8294 108.807,-39.1599"/>
<polygon fill="midnightblue" stroke="midnightblue" points="108.493,-42.6526 118.907,-40.7076 109.553,-35.7333 108.493,-42.6526"/>
</g>
<!-- Node3 -->
<g id="node3" class="node"><title>Node3</title>
<g id="a_node3"><a xlink:href="a01157.html#ga020add50c73f0a08516fef0eeee8cca9" target="_top" xlink:title="Converts a 2 digit decimal to BCD format. ">
<polygon fill="white" stroke="black" points="119,-0.5 119,-19.5 216,-19.5 216,-0.5 119,-0.5"/>
<text text-anchor="middle" x="167.5" y="-7.5" font-family="Helvetica,sans-Serif" font-size="10.00">RTC_ByteToBcd2</text>
</a>
</g>
</g>
<!-- Node1&#45;&gt;Node3 -->
<g id="edge2" class="edge"><title>Node1&#45;&gt;Node3</title>
<path fill="none" stroke="midnightblue" d="M83.1022,-22.7787C91.3265,-21.5185 100.123,-20.1706 108.807,-18.8401"/>
<polygon fill="midnightblue" stroke="midnightblue" points="109.553,-22.2667 118.907,-17.2924 108.493,-15.3474 109.553,-22.2667"/>
</g>
</g>
</svg>
