<?xml version="1.0" encoding="UTF-8" standalone="no"?>
<!DOCTYPE svg PUBLIC "-//W3C//DTD SVG 1.1//EN"
 "http://www.w3.org/Graphics/SVG/1.1/DTD/svg11.dtd">
<!-- Generated by graphviz version 2.38.0 (20140413.2041)
 -->
<!-- Title: DMA_ITConfig Pages: 1 -->
<svg width="343pt" height="142pt"
 viewBox="0.00 0.00 343.00 142.00" xmlns="http://www.w3.org/2000/svg" xmlns:xlink="http://www.w3.org/1999/xlink">
<g id="graph0" class="graph" transform="scale(1 1) rotate(0) translate(4 138)">
<title>DMA_ITConfig</title>
<polygon fill="white" stroke="none" points="-4,4 -4,-138 339,-138 339,4 -4,4"/>
<!-- Node1 -->
<g id="node1" class="node"><title>Node1</title>
<polygon fill="#bfbfbf" stroke="black" points="0,-57.5 0,-76.5 82,-76.5 82,-57.5 0,-57.5"/>
<text text-anchor="middle" x="41" y="-64.5" font-family="Helvetica,sans-Serif" font-size="10.00">DMA_ITConfig</text>
</g>
<!-- Node2 -->
<g id="node2" class="node"><title>Node2</title>
<g id="a_node2"><a xlink:href="a01253.html#gaaf6ce196dde98712e1223b99766e06c0" target="_top" xlink:title="DMA2_Stream0 transmission&#45;complete. ">
<polygon fill="white" stroke="black" points="118,-114.5 118,-133.5 261,-133.5 261,-114.5 118,-114.5"/>
<text text-anchor="middle" x="189.5" y="-121.5" font-family="Helvetica,sans-Serif" font-size="10.00">DMA2_Stream0_IRQHandler</text>
</a>
</g>
</g>
<!-- Node1&#45;&gt;Node2 -->
<g id="edge1" class="edge"><title>Node1&#45;&gt;Node2</title>
<path fill="none" stroke="midnightblue" d="M67.6204,-81.4243C82.0905,-89.1562 100.695,-98.418 118,-105 127.36,-108.56 137.657,-111.732 147.421,-114.417"/>
<polygon fill="midnightblue" stroke="midnightblue" points="69.2208,-78.3105 58.7637,-76.6077 65.8765,-84.46 69.2208,-78.3105"/>
</g>
<!-- Node3 -->
<g id="node3" class="node"><title>Node3</title>
<g id="a_node3"><a xlink:href="a01253.html#ga7133f3f78767503641d307386e68bd28" target="_top" xlink:title="{ function_description } ">
<polygon fill="white" stroke="black" points="141.5,-76.5 141.5,-95.5 237.5,-95.5 237.5,-76.5 141.5,-76.5"/>
<text text-anchor="middle" x="189.5" y="-83.5" font-family="Helvetica,sans-Serif" font-size="10.00">TIM4_IRQHandler</text>
</a>
</g>
</g>
<!-- Node1&#45;&gt;Node3 -->
<g id="edge2" class="edge"><title>Node1&#45;&gt;Node3</title>
<path fill="none" stroke="midnightblue" d="M92.2,-73.5106C108.081,-75.5702 125.571,-77.8386 141.239,-79.8706"/>
<polygon fill="midnightblue" stroke="midnightblue" points="92.3989,-70.0071 82.0318,-72.1918 91.4985,-76.949 92.3989,-70.0071"/>
</g>
<!-- Node4 -->
<g id="node4" class="node"><title>Node4</title>
<g id="a_node4"><a xlink:href="a01269.html#ga85f5a2827c06dbdba076d4e9125a11f8" target="_top" xlink:title="ADC common and regular scan group init. ">
<polygon fill="white" stroke="black" points="124,-38.5 124,-57.5 255,-57.5 255,-38.5 124,-38.5"/>
<text text-anchor="middle" x="189.5" y="-45.5" font-family="Helvetica,sans-Serif" font-size="10.00">ADC_Scan_Group_Config</text>
</a>
</g>
</g>
<!-- Node1&#45;&gt;Node4 -->
<g id="edge3" class="edge"><title>Node1&#45;&gt;Node4</title>
<path fill="none" stroke="midnightblue" d="M92.0488,-60.509C102.327,-59.176 113.285,-57.7549 123.99,-56.3665"/>
<polygon fill="midnightblue" stroke="midnightblue" points="91.4985,-57.051 82.0318,-61.8082 92.3989,-63.9929 91.4985,-57.051"/>
</g>
<!-- Node6 -->
<g id="node6" class="node"><title>Node6</title>
<g id="a_node6"><a xlink:href="a01269.html#gad273dc4b4b26574e92666e4020e1ef5a" target="_top" xlink:title="Timer&#45;triggered ADC&#45;scan mode with DMA to memory. ">
<polygon fill="white" stroke="black" points="121.5,-0.5 121.5,-19.5 257.5,-19.5 257.5,-0.5 121.5,-0.5"/>
<text text-anchor="middle" x="189.5" y="-7.5" font-family="Helvetica,sans-Serif" font-size="10.00">TIM2_DMA_Trigger_Config</text>
</a>
</g>
</g>
<!-- Node1&#45;&gt;Node6 -->
<g id="edge5" class="edge"><title>Node1&#45;&gt;Node6</title>
<path fill="none" stroke="midnightblue" d="M67.6204,-52.5757C82.0905,-44.8438 100.695,-35.582 118,-29 127.36,-25.4399 137.657,-22.2677 147.421,-19.583"/>
<polygon fill="midnightblue" stroke="midnightblue" points="65.8765,-49.54 58.7637,-57.3923 69.2208,-55.6895 65.8765,-49.54"/>
</g>
<!-- Node5 -->
<g id="node5" class="node"><title>Node5</title>
<g id="a_node5"><a xlink:href="a01285.html#ga840291bc02cba5474a4cb46a9b9566fe" target="_top" xlink:title="Main function entry. ">
<polygon fill="white" stroke="black" points="297,-19.5 297,-38.5 335,-38.5 335,-19.5 297,-19.5"/>
<text text-anchor="middle" x="316" y="-26.5" font-family="Helvetica,sans-Serif" font-size="10.00">main</text>
</a>
</g>
</g>
<!-- Node4&#45;&gt;Node5 -->
<g id="edge4" class="edge"><title>Node4&#45;&gt;Node5</title>
<path fill="none" stroke="midnightblue" d="M263.187,-36.9072C275.642,-35.0064 287.523,-33.1932 296.759,-31.7837"/>
<polygon fill="midnightblue" stroke="midnightblue" points="262.472,-33.4757 253.115,-38.4443 263.528,-40.3956 262.472,-33.4757"/>
</g>
<!-- Node6&#45;&gt;Node5 -->
<g id="edge6" class="edge"><title>Node6&#45;&gt;Node5</title>
<path fill="none" stroke="midnightblue" d="M263.187,-21.0928C275.642,-22.9936 287.523,-24.8068 296.759,-26.2163"/>
<polygon fill="midnightblue" stroke="midnightblue" points="263.528,-17.6044 253.115,-19.5557 262.472,-24.5243 263.528,-17.6044"/>
</g>
</g>
</svg>
