<?xml version="1.0" encoding="UTF-8" standalone="no"?>
<!DOCTYPE svg PUBLIC "-//W3C//DTD SVG 1.1//EN"
 "http://www.w3.org/Graphics/SVG/1.1/DTD/svg11.dtd">
<!-- Generated by graphviz version 2.38.0 (20140413.2041)
 -->
<!-- Title: RCC_AHB2PeriphResetCmd Pages: 1 -->
<svg width="381pt" height="142pt"
 viewBox="0.00 0.00 381.00 142.00" xmlns="http://www.w3.org/2000/svg" xmlns:xlink="http://www.w3.org/1999/xlink">
<g id="graph0" class="graph" transform="scale(1 1) rotate(0) translate(4 138)">
<title>RCC_AHB2PeriphResetCmd</title>
<polygon fill="white" stroke="none" points="-4,4 -4,-138 377,-138 377,4 -4,4"/>
<!-- Node1 -->
<g id="node1" class="node"><title>Node1</title>
<polygon fill="#bfbfbf" stroke="black" points="0,-76.5 0,-95.5 146,-95.5 146,-76.5 0,-76.5"/>
<text text-anchor="middle" x="73" y="-83.5" font-family="Helvetica,sans-Serif" font-size="10.00">RCC_AHB2PeriphResetCmd</text>
</g>
<!-- Node2 -->
<g id="node2" class="node"><title>Node2</title>
<g id="a_node2"><a xlink:href="a01078.html#gae19e54c9910b697e38f6c7577704ffae" target="_top" xlink:title="Deinitializes the CRYP peripheral registers to their default reset values. ">
<polygon fill="white" stroke="black" points="182,-95.5 182,-114.5 259,-114.5 259,-95.5 182,-95.5"/>
<text text-anchor="middle" x="220.5" y="-102.5" font-family="Helvetica,sans-Serif" font-size="10.00">CRYP_DeInit</text>
</a>
</g>
</g>
<!-- Node1&#45;&gt;Node2 -->
<g id="edge1" class="edge"><title>Node1&#45;&gt;Node2</title>
<path fill="none" stroke="midnightblue" d="M156.362,-96.7552C165.205,-97.91 173.856,-99.0396 181.779,-100.074"/>
<polygon fill="midnightblue" stroke="midnightblue" points="156.693,-93.2687 146.324,-95.4443 155.786,-100.21 156.693,-93.2687"/>
</g>
<!-- Node3 -->
<g id="node3" class="node"><title>Node3</title>
<g id="a_node3"><a xlink:href="a01120.html#ga88717fe3a4f557182841a958e1dcd9c7" target="_top" xlink:title="De&#45;initializes the HASH peripheral registers to their default reset values. ">
<polygon fill="white" stroke="black" points="182,-57.5 182,-76.5 259,-76.5 259,-57.5 182,-57.5"/>
<text text-anchor="middle" x="220.5" y="-64.5" font-family="Helvetica,sans-Serif" font-size="10.00">HASH_DeInit</text>
</a>
</g>
</g>
<!-- Node1&#45;&gt;Node3 -->
<g id="edge2" class="edge"><title>Node1&#45;&gt;Node3</title>
<path fill="none" stroke="midnightblue" d="M156.362,-75.2448C165.205,-74.09 173.856,-72.9604 181.779,-71.9258"/>
<polygon fill="midnightblue" stroke="midnightblue" points="155.786,-71.7902 146.324,-76.5557 156.693,-78.7313 155.786,-71.7902"/>
</g>
<!-- Node4 -->
<g id="node4" class="node"><title>Node4</title>
<g id="a_node4"><a xlink:href="a01125.html#ga82a155884e458cc6b7c1a4565c1ac8e9" target="_top" xlink:title="Compute the HASH MD5 digest. ">
<polygon fill="white" stroke="black" points="298.5,-114.5 298.5,-133.5 369.5,-133.5 369.5,-114.5 298.5,-114.5"/>
<text text-anchor="middle" x="334" y="-121.5" font-family="Helvetica,sans-Serif" font-size="10.00">HASH_MD5</text>
</a>
</g>
</g>
<!-- Node3&#45;&gt;Node4 -->
<g id="edge3" class="edge"><title>Node3&#45;&gt;Node4</title>
<path fill="none" stroke="midnightblue" d="M249.783,-81.2667C252.897,-82.8563 256.018,-84.4578 259,-86 275.07,-94.3109 278.908,-96.7319 295,-105 301.036,-108.101 307.641,-111.427 313.627,-114.416"/>
<polygon fill="midnightblue" stroke="midnightblue" points="251.109,-78.0147 240.609,-76.6045 247.938,-84.2552 251.109,-78.0147"/>
</g>
<!-- Node5 -->
<g id="node5" class="node"><title>Node5</title>
<g id="a_node5"><a xlink:href="a01125.html#gac61733e7aa66bdd2f21be4b34165b5be" target="_top" xlink:title="Compute the HMAC MD5 digest. ">
<polygon fill="white" stroke="black" points="297.5,-76.5 297.5,-95.5 370.5,-95.5 370.5,-76.5 297.5,-76.5"/>
<text text-anchor="middle" x="334" y="-83.5" font-family="Helvetica,sans-Serif" font-size="10.00">HMAC_MD5</text>
</a>
</g>
</g>
<!-- Node3&#45;&gt;Node5 -->
<g id="edge4" class="edge"><title>Node3&#45;&gt;Node5</title>
<path fill="none" stroke="midnightblue" d="M269.239,-75.135C278.605,-76.731 288.279,-78.3794 297.174,-79.8952"/>
<polygon fill="midnightblue" stroke="midnightblue" points="269.695,-71.6622 259.249,-73.4325 268.519,-78.5627 269.695,-71.6622"/>
</g>
<!-- Node6 -->
<g id="node6" class="node"><title>Node6</title>
<g id="a_node6"><a xlink:href="a01126.html#ga2728c02c36de6d800e1ede56ea7789cb" target="_top" xlink:title="Compute the HASH SHA1 digest. ">
<polygon fill="white" stroke="black" points="295.5,-38.5 295.5,-57.5 372.5,-57.5 372.5,-38.5 295.5,-38.5"/>
<text text-anchor="middle" x="334" y="-45.5" font-family="Helvetica,sans-Serif" font-size="10.00">HASH_SHA1</text>
</a>
</g>
</g>
<!-- Node3&#45;&gt;Node6 -->
<g id="edge5" class="edge"><title>Node3&#45;&gt;Node6</title>
<path fill="none" stroke="midnightblue" d="M269.283,-58.8577C277.978,-57.376 286.937,-55.8494 295.29,-54.4259"/>
<polygon fill="midnightblue" stroke="midnightblue" points="268.519,-55.4373 259.249,-60.5675 269.695,-62.3378 268.519,-55.4373"/>
</g>
<!-- Node7 -->
<g id="node7" class="node"><title>Node7</title>
<g id="a_node7"><a xlink:href="a01126.html#ga2e38e900ca7838c1cea17cef19953a5e" target="_top" xlink:title="Compute the HMAC SHA1 digest. ">
<polygon fill="white" stroke="black" points="295,-0.5 295,-19.5 373,-19.5 373,-0.5 295,-0.5"/>
<text text-anchor="middle" x="334" y="-7.5" font-family="Helvetica,sans-Serif" font-size="10.00">HMAC_SHA1</text>
</a>
</g>
</g>
<!-- Node3&#45;&gt;Node7 -->
<g id="edge6" class="edge"><title>Node3&#45;&gt;Node7</title>
<path fill="none" stroke="midnightblue" d="M248.876,-52.7351C262.684,-45.5681 279.706,-36.7764 295,-29 301.049,-25.9243 307.658,-22.6055 313.643,-19.6154"/>
<polygon fill="midnightblue" stroke="midnightblue" points="247.15,-49.6877 239.89,-57.4047 250.378,-55.899 247.15,-49.6877"/>
</g>
</g>
</svg>
