<?xml version="1.0" encoding="UTF-8" standalone="no"?>
<!DOCTYPE svg PUBLIC "-//W3C//DTD SVG 1.1//EN"
 "http://www.w3.org/Graphics/SVG/1.1/DTD/svg11.dtd">
<!-- Generated by graphviz version 2.38.0 (20140413.2041)
 -->
<!-- Title: RCC_APB2PeriphClockCmd Pages: 1 -->
<svg width="398pt" height="104pt"
 viewBox="0.00 0.00 398.00 104.00" xmlns="http://www.w3.org/2000/svg" xmlns:xlink="http://www.w3.org/1999/xlink">
<g id="graph0" class="graph" transform="scale(1 1) rotate(0) translate(4 100)">
<title>RCC_APB2PeriphClockCmd</title>
<polygon fill="white" stroke="none" points="-4,4 -4,-100 394,-100 394,4 -4,4"/>
<!-- Node1 -->
<g id="node1" class="node"><title>Node1</title>
<polygon fill="#bfbfbf" stroke="black" points="0,-38.5 0,-57.5 144,-57.5 144,-38.5 0,-38.5"/>
<text text-anchor="middle" x="72" y="-45.5" font-family="Helvetica,sans-Serif" font-size="10.00">RCC_APB2PeriphClockCmd</text>
</g>
<!-- Node2 -->
<g id="node2" class="node"><title>Node2</title>
<g id="a_node2"><a xlink:href="a00580.html#ga70bed9fb6612cb572a8c10e148404344" target="_top" xlink:title="Initializes USARTx peripheral and corresponding pins. ">
<polygon fill="white" stroke="black" points="203.5,-76.5 203.5,-95.5 292.5,-95.5 292.5,-76.5 203.5,-76.5"/>
<text text-anchor="middle" x="248" y="-83.5" font-family="Helvetica,sans-Serif" font-size="10.00">TM_USART_Init</text>
</a>
</g>
</g>
<!-- Node1&#45;&gt;Node2 -->
<g id="edge1" class="edge"><title>Node1&#45;&gt;Node2</title>
<path fill="none" stroke="midnightblue" d="M126.814,-59.7526C151.418,-65.1258 180.187,-71.4086 203.408,-76.4799"/>
<polygon fill="midnightblue" stroke="midnightblue" points="127.424,-56.3033 116.908,-57.589 125.93,-63.1421 127.424,-56.3033"/>
</g>
<!-- Node4 -->
<g id="node4" class="node"><title>Node4</title>
<g id="a_node4"><a xlink:href="a01269.html#gae5d12b8da57e95abcca6e6d9ba8a50bb" target="_top" xlink:title="Enable AHBx peripheral clocks for DMA2, GPIOC, ADC1, TIM2. ">
<polygon fill="white" stroke="black" points="185,-38.5 185,-57.5 311,-57.5 311,-38.5 185,-38.5"/>
<text text-anchor="middle" x="248" y="-45.5" font-family="Helvetica,sans-Serif" font-size="10.00">RCC_Periph2DMA_Conf</text>
</a>
</g>
</g>
<!-- Node1&#45;&gt;Node4 -->
<g id="edge3" class="edge"><title>Node1&#45;&gt;Node4</title>
<path fill="none" stroke="midnightblue" d="M154.251,-48C164.536,-48 174.928,-48 184.85,-48"/>
<polygon fill="midnightblue" stroke="midnightblue" points="154.023,-44.5001 144.023,-48 154.023,-51.5001 154.023,-44.5001"/>
</g>
<!-- Node5 -->
<g id="node5" class="node"><title>Node5</title>
<g id="a_node5"><a xlink:href="a01269.html#gad273dc4b4b26574e92666e4020e1ef5a" target="_top" xlink:title="Timer&#45;triggered ADC&#45;scan mode with DMA to memory. ">
<polygon fill="white" stroke="black" points="180,-0.5 180,-19.5 316,-19.5 316,-0.5 180,-0.5"/>
<text text-anchor="middle" x="248" y="-7.5" font-family="Helvetica,sans-Serif" font-size="10.00">TIM2_DMA_Trigger_Config</text>
</a>
</g>
</g>
<!-- Node1&#45;&gt;Node5 -->
<g id="edge5" class="edge"><title>Node1&#45;&gt;Node5</title>
<path fill="none" stroke="midnightblue" d="M126.814,-36.2474C151.418,-30.8742 180.187,-24.5914 203.408,-19.5201"/>
<polygon fill="midnightblue" stroke="midnightblue" points="125.93,-32.8579 116.908,-38.411 127.424,-39.6967 125.93,-32.8579"/>
</g>
<!-- Node3 -->
<g id="node3" class="node"><title>Node3</title>
<g id="a_node3"><a xlink:href="a01285.html#ga840291bc02cba5474a4cb46a9b9566fe" target="_top" xlink:title="Main function entry. ">
<polygon fill="white" stroke="black" points="352,-38.5 352,-57.5 390,-57.5 390,-38.5 352,-38.5"/>
<text text-anchor="middle" x="371" y="-45.5" font-family="Helvetica,sans-Serif" font-size="10.00">main</text>
</a>
</g>
</g>
<!-- Node2&#45;&gt;Node3 -->
<g id="edge2" class="edge"><title>Node2&#45;&gt;Node3</title>
<path fill="none" stroke="midnightblue" d="M294.097,-73.6254C301.441,-71.4915 308.949,-69.238 316,-67 327.936,-63.2119 341.204,-58.5499 351.601,-54.7921"/>
<polygon fill="midnightblue" stroke="midnightblue" points="292.892,-70.3296 284.243,-76.4483 294.82,-77.059 292.892,-70.3296"/>
</g>
<!-- Node4&#45;&gt;Node3 -->
<g id="edge4" class="edge"><title>Node4&#45;&gt;Node3</title>
<path fill="none" stroke="midnightblue" d="M321.285,-48C332.559,-48 343.265,-48 351.754,-48"/>
<polygon fill="midnightblue" stroke="midnightblue" points="321.272,-44.5001 311.272,-48 321.272,-51.5001 321.272,-44.5001"/>
</g>
<!-- Node5&#45;&gt;Node3 -->
<g id="edge6" class="edge"><title>Node5&#45;&gt;Node3</title>
<path fill="none" stroke="midnightblue" d="M294.097,-22.3746C301.441,-24.5085 308.949,-26.762 316,-29 327.936,-32.7881 341.204,-37.4501 351.601,-41.2079"/>
<polygon fill="midnightblue" stroke="midnightblue" points="294.82,-18.941 284.243,-19.5517 292.892,-25.6704 294.82,-18.941"/>
</g>
</g>
</svg>
