<?xml version="1.0" encoding="UTF-8" standalone="no"?>
<!DOCTYPE svg PUBLIC "-//W3C//DTD SVG 1.1//EN"
 "http://www.w3.org/Graphics/SVG/1.1/DTD/svg11.dtd">
<!-- Generated by graphviz version 2.38.0 (20140413.2041)
 -->
<!-- Title: TIM_SetIC1Prescaler Pages: 1 -->
<svg width="250pt" height="66pt"
 viewBox="0.00 0.00 250.00 66.00" xmlns="http://www.w3.org/2000/svg" xmlns:xlink="http://www.w3.org/1999/xlink">
<g id="graph0" class="graph" transform="scale(1 1) rotate(0) translate(4 62)">
<title>TIM_SetIC1Prescaler</title>
<polygon fill="white" stroke="none" points="-4,4 -4,-62 246,-62 246,4 -4,4"/>
<!-- Node1 -->
<g id="node1" class="node"><title>Node1</title>
<polygon fill="#bfbfbf" stroke="black" points="0,-19.5 0,-38.5 111,-38.5 111,-19.5 0,-19.5"/>
<text text-anchor="middle" x="55.5" y="-26.5" font-family="Helvetica,sans-Serif" font-size="10.00">TIM_SetIC1Prescaler</text>
</g>
<!-- Node2 -->
<g id="node2" class="node"><title>Node2</title>
<g id="a_node2"><a xlink:href="a01191.html#ga9e6a153dd6552e4e1188eba227316f7f" target="_top" xlink:title="Initializes the TIM peripheral according to the specified parameters in the TIM_ICInitStruct. ">
<polygon fill="white" stroke="black" points="163,-38.5 163,-57.5 226,-57.5 226,-38.5 163,-38.5"/>
<text text-anchor="middle" x="194.5" y="-45.5" font-family="Helvetica,sans-Serif" font-size="10.00">TIM_ICInit</text>
</a>
</g>
</g>
<!-- Node1&#45;&gt;Node2 -->
<g id="edge1" class="edge"><title>Node1&#45;&gt;Node2</title>
<path fill="none" stroke="midnightblue" d="M121.048,-37.952C135.608,-39.9711 150.406,-42.0234 162.8,-43.7423"/>
<polygon fill="midnightblue" stroke="midnightblue" points="121.426,-34.4709 111.04,-36.5639 120.464,-41.4045 121.426,-34.4709"/>
</g>
<!-- Node3 -->
<g id="node3" class="node"><title>Node3</title>
<g id="a_node3"><a xlink:href="a01191.html#gaa71f9296556310f85628d6c748a06475" target="_top" xlink:title="Configures the TIM peripheral according to the specified parameters in the TIM_ICInitStruct to measur...">
<polygon fill="white" stroke="black" points="147,-0.5 147,-19.5 242,-19.5 242,-0.5 147,-0.5"/>
<text text-anchor="middle" x="194.5" y="-7.5" font-family="Helvetica,sans-Serif" font-size="10.00">TIM_PWMIConfig</text>
</a>
</g>
</g>
<!-- Node1&#45;&gt;Node3 -->
<g id="edge2" class="edge"><title>Node1&#45;&gt;Node3</title>
<path fill="none" stroke="midnightblue" d="M121.091,-20.0421C129.714,-18.8462 138.42,-17.6389 146.659,-16.4962"/>
<polygon fill="midnightblue" stroke="midnightblue" points="120.464,-16.5955 111.04,-21.4361 121.426,-23.5291 120.464,-16.5955"/>
</g>
</g>
</svg>
