<?xml version="1.0" encoding="UTF-8" standalone="no"?>
<!DOCTYPE svg PUBLIC "-//W3C//DTD SVG 1.1//EN"
 "http://www.w3.org/Graphics/SVG/1.1/DTD/svg11.dtd">
<!-- Generated by graphviz version 2.38.0 (20140413.2041)
 -->
<!-- Title: FLASH_EraseSector Pages: 1 -->
<svg width="435pt" height="28pt"
 viewBox="0.00 0.00 435.00 28.00" xmlns="http://www.w3.org/2000/svg" xmlns:xlink="http://www.w3.org/1999/xlink">
<g id="graph0" class="graph" transform="scale(1 1) rotate(0) translate(4 24)">
<title>FLASH_EraseSector</title>
<polygon fill="white" stroke="none" points="-4,4 -4,-24 431,-24 431,4 -4,4"/>
<!-- Node1 -->
<g id="node1" class="node"><title>Node1</title>
<polygon fill="#bfbfbf" stroke="black" points="0,-0.5 0,-19.5 108,-19.5 108,-0.5 0,-0.5"/>
<text text-anchor="middle" x="54" y="-7.5" font-family="Helvetica,sans-Serif" font-size="10.00">FLASH_EraseSector</text>
</g>
<!-- Node2 -->
<g id="node2" class="node"><title>Node2</title>
<g id="a_node2"><a xlink:href="a01112.html#gaaf8ea3b00c9a5f5eca0df9a795b83f22" target="_top" xlink:title="Waits for a FLASH operation to complete. ">
<polygon fill="white" stroke="black" points="144,-0.5 144,-19.5 293,-19.5 293,-0.5 144,-0.5"/>
<text text-anchor="middle" x="218.5" y="-7.5" font-family="Helvetica,sans-Serif" font-size="10.00">FLASH_WaitForLastOperation</text>
</a>
</g>
</g>
<!-- Node1&#45;&gt;Node2 -->
<g id="edge1" class="edge"><title>Node1&#45;&gt;Node2</title>
<path fill="none" stroke="midnightblue" d="M108.209,-10C116.392,-10 125.007,-10 133.662,-10"/>
<polygon fill="midnightblue" stroke="midnightblue" points="133.817,-13.5001 143.817,-10 133.816,-6.5001 133.817,-13.5001"/>
</g>
<!-- Node3 -->
<g id="node3" class="node"><title>Node3</title>
<g id="a_node3"><a xlink:href="a01112.html#gac265b8d1e7ea11e44ceee28797c3debb" target="_top" xlink:title="Returns the FLASH Status. ">
<polygon fill="white" stroke="black" points="329,-0.5 329,-19.5 427,-19.5 427,-0.5 329,-0.5"/>
<text text-anchor="middle" x="378" y="-7.5" font-family="Helvetica,sans-Serif" font-size="10.00">FLASH_GetStatus</text>
</a>
</g>
</g>
<!-- Node2&#45;&gt;Node3 -->
<g id="edge2" class="edge"><title>Node2&#45;&gt;Node3</title>
<path fill="none" stroke="midnightblue" d="M293.177,-10C301.621,-10 310.143,-10 318.353,-10"/>
<polygon fill="midnightblue" stroke="midnightblue" points="318.555,-13.5001 328.555,-10 318.555,-6.5001 318.555,-13.5001"/>
</g>
</g>
</svg>
