<?xml version="1.0" encoding="UTF-8" standalone="no"?>
<!DOCTYPE svg PUBLIC "-//W3C//DTD SVG 1.1//EN"
 "http://www.w3.org/Graphics/SVG/1.1/DTD/svg11.dtd">
<!-- Generated by graphviz version 2.38.0 (20140413.2041)
 -->
<!-- Title: FLASH_OB_WRPConfig Pages: 1 -->
<svg width="453pt" height="28pt"
 viewBox="0.00 0.00 453.00 28.00" xmlns="http://www.w3.org/2000/svg" xmlns:xlink="http://www.w3.org/1999/xlink">
<g id="graph0" class="graph" transform="scale(1 1) rotate(0) translate(4 24)">
<title>FLASH_OB_WRPConfig</title>
<polygon fill="white" stroke="none" points="-4,4 -4,-24 449,-24 449,4 -4,4"/>
<!-- Node1 -->
<g id="node1" class="node"><title>Node1</title>
<polygon fill="#bfbfbf" stroke="black" points="0,-0.5 0,-19.5 126,-19.5 126,-0.5 0,-0.5"/>
<text text-anchor="middle" x="63" y="-7.5" font-family="Helvetica,sans-Serif" font-size="10.00">FLASH_OB_WRPConfig</text>
</g>
<!-- Node2 -->
<g id="node2" class="node"><title>Node2</title>
<g id="a_node2"><a xlink:href="a01112.html#gaaf8ea3b00c9a5f5eca0df9a795b83f22" target="_top" xlink:title="Waits for a FLASH operation to complete. ">
<polygon fill="white" stroke="black" points="162,-0.5 162,-19.5 311,-19.5 311,-0.5 162,-0.5"/>
<text text-anchor="middle" x="236.5" y="-7.5" font-family="Helvetica,sans-Serif" font-size="10.00">FLASH_WaitForLastOperation</text>
</a>
</g>
</g>
<!-- Node1&#45;&gt;Node2 -->
<g id="edge1" class="edge"><title>Node1&#45;&gt;Node2</title>
<path fill="none" stroke="midnightblue" d="M126.401,-10C134.661,-10 143.234,-10 151.781,-10"/>
<polygon fill="midnightblue" stroke="midnightblue" points="151.781,-13.5001 161.781,-10 151.781,-6.5001 151.781,-13.5001"/>
</g>
<!-- Node3 -->
<g id="node3" class="node"><title>Node3</title>
<g id="a_node3"><a xlink:href="a01112.html#gac265b8d1e7ea11e44ceee28797c3debb" target="_top" xlink:title="Returns the FLASH Status. ">
<polygon fill="white" stroke="black" points="347,-0.5 347,-19.5 445,-19.5 445,-0.5 347,-0.5"/>
<text text-anchor="middle" x="396" y="-7.5" font-family="Helvetica,sans-Serif" font-size="10.00">FLASH_GetStatus</text>
</a>
</g>
</g>
<!-- Node2&#45;&gt;Node3 -->
<g id="edge2" class="edge"><title>Node2&#45;&gt;Node3</title>
<path fill="none" stroke="midnightblue" d="M311.177,-10C319.621,-10 328.143,-10 336.353,-10"/>
<polygon fill="midnightblue" stroke="midnightblue" points="336.555,-13.5001 346.555,-10 336.555,-6.5001 336.555,-13.5001"/>
</g>
</g>
</svg>
