<?xml version="1.0" encoding="UTF-8" standalone="no"?>
<!DOCTYPE svg PUBLIC "-//W3C//DTD SVG 1.1//EN"
 "http://www.w3.org/Graphics/SVG/1.1/DTD/svg11.dtd">
<!-- Generated by graphviz version 2.38.0 (20140413.2041)
 -->
<!-- Title: RCC_APB2PeriphResetCmd Pages: 1 -->
<svg width="874pt" height="256pt"
 viewBox="0.00 0.00 874.00 256.00" xmlns="http://www.w3.org/2000/svg" xmlns:xlink="http://www.w3.org/1999/xlink">
<g id="graph0" class="graph" transform="scale(1 1) rotate(0) translate(4 252)">
<title>RCC_APB2PeriphResetCmd</title>
<polygon fill="white" stroke="none" points="-4,4 -4,-252 870,-252 870,4 -4,4"/>
<!-- Node1 -->
<g id="node1" class="node"><title>Node1</title>
<polygon fill="#bfbfbf" stroke="black" points="0,-114.5 0,-133.5 145,-133.5 145,-114.5 0,-114.5"/>
<text text-anchor="middle" x="72.5" y="-121.5" font-family="Helvetica,sans-Serif" font-size="10.00">RCC_APB2PeriphResetCmd</text>
</g>
<!-- Node2 -->
<g id="node2" class="node"><title>Node2</title>
<g id="a_node2"><a xlink:href="a01061.html#ga1962afdd9eebe5c896bbba2e4f26fe09" target="_top" xlink:title="Deinitializes all ADCs peripherals registers to their default reset values. ">
<polygon fill="white" stroke="black" points="190.5,-228.5 190.5,-247.5 260.5,-247.5 260.5,-228.5 190.5,-228.5"/>
<text text-anchor="middle" x="225.5" y="-235.5" font-family="Helvetica,sans-Serif" font-size="10.00">ADC_DeInit</text>
</a>
</g>
</g>
<!-- Node1&#45;&gt;Node2 -->
<g id="edge1" class="edge"><title>Node1&#45;&gt;Node2</title>
<path fill="none" stroke="midnightblue" d="M89.5239,-141.113C109.45,-161.654 145.222,-196.179 181,-219 186.558,-222.545 192.891,-225.73 198.971,-228.434"/>
<polygon fill="midnightblue" stroke="midnightblue" points="91.9053,-138.539 82.4637,-133.732 86.8469,-143.377 91.9053,-138.539"/>
</g>
<!-- Node5 -->
<g id="node5" class="node"><title>Node5</title>
<g id="a_node5"><a xlink:href="a01140.html#gad3522837b5ef2b99653e230e649fc149" target="_top" xlink:title="Deinitializes the LTDC peripheral registers to their default reset values. ">
<polygon fill="white" stroke="black" points="188.5,-190.5 188.5,-209.5 262.5,-209.5 262.5,-190.5 188.5,-190.5"/>
<text text-anchor="middle" x="225.5" y="-197.5" font-family="Helvetica,sans-Serif" font-size="10.00">LTDC_DeInit</text>
</a>
</g>
</g>
<!-- Node1&#45;&gt;Node5 -->
<g id="edge4" class="edge"><title>Node1&#45;&gt;Node5</title>
<path fill="none" stroke="midnightblue" d="M99.6837,-138.598C121.277,-150.463 152.827,-167.402 181,-181 187.68,-184.224 195.039,-187.529 201.775,-190.461"/>
<polygon fill="midnightblue" stroke="midnightblue" points="101.241,-135.46 90.7947,-133.691 97.858,-141.588 101.241,-135.46"/>
</g>
<!-- Node6 -->
<g id="node6" class="node"><title>Node6</title>
<g id="a_node6"><a xlink:href="a01173.html#gac359d2c6c67a2590f8f9b720c0e4ff1b" target="_top" xlink:title="Deinitializes the SDIO peripheral registers to their default reset values. ">
<polygon fill="white" stroke="black" points="189,-152.5 189,-171.5 262,-171.5 262,-152.5 189,-152.5"/>
<text text-anchor="middle" x="225.5" y="-159.5" font-family="Helvetica,sans-Serif" font-size="10.00">SDIO_DeInit</text>
</a>
</g>
</g>
<!-- Node1&#45;&gt;Node6 -->
<g id="edge5" class="edge"><title>Node1&#45;&gt;Node6</title>
<path fill="none" stroke="midnightblue" d="M121.353,-136.042C143.189,-141.538 168.606,-147.934 188.745,-153.002"/>
<polygon fill="midnightblue" stroke="midnightblue" points="122.156,-132.635 111.604,-133.589 120.447,-139.424 122.156,-132.635"/>
</g>
<!-- Node7 -->
<g id="node7" class="node"><title>Node7</title>
<g id="a_node7"><a xlink:href="a01181.html#gabe36880945fa56785283a9c0092124cc" target="_top" xlink:title="De&#45;initialize the SPIx peripheral registers to their default reset values. ">
<polygon fill="white" stroke="black" points="183,-114.5 183,-133.5 268,-133.5 268,-114.5 183,-114.5"/>
<text text-anchor="middle" x="225.5" y="-121.5" font-family="Helvetica,sans-Serif" font-size="10.00">SPI_I2S_DeInit</text>
</a>
</g>
</g>
<!-- Node1&#45;&gt;Node7 -->
<g id="edge6" class="edge"><title>Node1&#45;&gt;Node7</title>
<path fill="none" stroke="midnightblue" d="M155.048,-124C164.65,-124 174.121,-124 182.834,-124"/>
<polygon fill="midnightblue" stroke="midnightblue" points="155.02,-120.5 145.02,-124 155.02,-127.5 155.02,-120.5"/>
</g>
<!-- Node8 -->
<g id="node8" class="node"><title>Node8</title>
<g id="a_node8"><a xlink:href="a01187.html#gaf2f9faa2df9a59a68ae17fae23bc478e" target="_top" xlink:title="Deinitializes the Alternate Functions (remap and EXTI configuration) registers to their default reset...">
<polygon fill="white" stroke="black" points="181,-76.5 181,-95.5 270,-95.5 270,-76.5 181,-76.5"/>
<text text-anchor="middle" x="225.5" y="-83.5" font-family="Helvetica,sans-Serif" font-size="10.00">SYSCFG_DeInit</text>
</a>
</g>
</g>
<!-- Node1&#45;&gt;Node8 -->
<g id="edge7" class="edge"><title>Node1&#45;&gt;Node8</title>
<path fill="none" stroke="midnightblue" d="M121.343,-111.96C142.439,-106.651 166.877,-100.501 186.67,-95.5201"/>
<polygon fill="midnightblue" stroke="midnightblue" points="120.447,-108.576 111.604,-114.411 122.156,-115.365 120.447,-108.576"/>
</g>
<!-- Node9 -->
<g id="node9" class="node"><title>Node9</title>
<g id="a_node9"><a xlink:href="a01189.html#ga1659cc0ce503ac151568e0c7c02b1ba5" target="_top" xlink:title="Deinitializes the TIMx peripheral registers to their default reset values. ">
<polygon fill="white" stroke="black" points="193,-38.5 193,-57.5 258,-57.5 258,-38.5 193,-38.5"/>
<text text-anchor="middle" x="225.5" y="-45.5" font-family="Helvetica,sans-Serif" font-size="10.00">TIM_DeInit</text>
</a>
</g>
</g>
<!-- Node1&#45;&gt;Node9 -->
<g id="edge8" class="edge"><title>Node1&#45;&gt;Node9</title>
<path fill="none" stroke="midnightblue" d="M99.6837,-109.402C121.277,-97.537 152.827,-80.5975 181,-67 187.68,-63.7761 195.039,-60.4706 201.775,-57.5395"/>
<polygon fill="midnightblue" stroke="midnightblue" points="97.858,-106.412 90.7947,-114.309 101.241,-112.54 97.858,-106.412"/>
</g>
<!-- Node10 -->
<g id="node10" class="node"><title>Node10</title>
<g id="a_node10"><a xlink:href="a01199.html#ga2f8e1ce72da21b6539d8e1f299ec3b0d" target="_top" xlink:title="Deinitializes the USARTx peripheral registers to their default reset values. ">
<polygon fill="white" stroke="black" points="184,-0.5 184,-19.5 267,-19.5 267,-0.5 184,-0.5"/>
<text text-anchor="middle" x="225.5" y="-7.5" font-family="Helvetica,sans-Serif" font-size="10.00">USART_DeInit</text>
</a>
</g>
</g>
<!-- Node1&#45;&gt;Node10 -->
<g id="edge9" class="edge"><title>Node1&#45;&gt;Node10</title>
<path fill="none" stroke="midnightblue" d="M89.5239,-106.887C109.45,-86.3462 145.222,-51.8206 181,-29 186.558,-25.4546 192.891,-22.2697 198.971,-19.5661"/>
<polygon fill="midnightblue" stroke="midnightblue" points="86.8469,-104.623 82.4637,-114.268 91.9053,-109.461 86.8469,-104.623"/>
</g>
<!-- Node3 -->
<g id="node3" class="node"><title>Node3</title>
<g id="a_node3"><a xlink:href="a01269.html#gad273dc4b4b26574e92666e4020e1ef5a" target="_top" xlink:title="Timer&#45;triggered ADC&#45;scan mode with DMA to memory. ">
<polygon fill="white" stroke="black" points="524,-206.5 524,-225.5 660,-225.5 660,-206.5 524,-206.5"/>
<text text-anchor="middle" x="592" y="-213.5" font-family="Helvetica,sans-Serif" font-size="10.00">TIM2_DMA_Trigger_Config</text>
</a>
</g>
</g>
<!-- Node2&#45;&gt;Node3 -->
<g id="edge2" class="edge"><title>Node2&#45;&gt;Node3</title>
<path fill="none" stroke="midnightblue" d="M270.823,-235.325C333.95,-231.515 450.254,-224.495 523.954,-220.047"/>
<polygon fill="midnightblue" stroke="midnightblue" points="270.562,-231.834 260.791,-235.93 270.984,-238.821 270.562,-231.834"/>
</g>
<!-- Node4 -->
<g id="node4" class="node"><title>Node4</title>
<g id="a_node4"><a xlink:href="a01285.html#ga840291bc02cba5474a4cb46a9b9566fe" target="_top" xlink:title="Main function entry. ">
<polygon fill="white" stroke="black" points="828,-177.5 828,-196.5 866,-196.5 866,-177.5 828,-177.5"/>
<text text-anchor="middle" x="847" y="-184.5" font-family="Helvetica,sans-Serif" font-size="10.00">main</text>
</a>
</g>
</g>
<!-- Node3&#45;&gt;Node4 -->
<g id="edge3" class="edge"><title>Node3&#45;&gt;Node4</title>
<path fill="none" stroke="midnightblue" d="M670.239,-207.147C725.339,-200.831 795.216,-192.821 827.769,-189.09"/>
<polygon fill="midnightblue" stroke="midnightblue" points="669.671,-203.689 660.135,-208.305 670.469,-210.643 669.671,-203.689"/>
</g>
<!-- Node11 -->
<g id="node11" class="node"><title>Node11</title>
<g id="a_node11"><a xlink:href="a00580.html#ga5cf7d7f613f4241fb77321ef9554f46b" target="_top" xlink:title="Callback for custom pins initialization for USARTx. ">
<polygon fill="white" stroke="black" points="306,-76.5 306,-95.5 488,-95.5 488,-76.5 306,-76.5"/>
<text text-anchor="middle" x="397" y="-83.5" font-family="Helvetica,sans-Serif" font-size="10.00">TM_USART_InitCustomPinsCallback</text>
</a>
</g>
</g>
<!-- Node10&#45;&gt;Node11 -->
<g id="edge10" class="edge"><title>Node10&#45;&gt;Node11</title>
<path fill="none" stroke="midnightblue" d="M257.944,-23.6762C262.004,-25.4591 266.103,-27.2676 270,-29 307.077,-45.4828 350.112,-65.0441 375.081,-76.436"/>
<polygon fill="midnightblue" stroke="midnightblue" points="259.218,-20.4136 248.654,-19.6102 256.412,-26.8262 259.218,-20.4136"/>
</g>
<!-- Node11&#45;&gt;Node11 -->
<g id="edge11" class="edge"><title>Node11&#45;&gt;Node11</title>
<path fill="none" stroke="midnightblue" d="M365.189,-104.275C366.096,-109.741 376.699,-114 397,-114 427.215,-114 435.949,-104.565 423.202,-95.7571"/>
<polygon fill="midnightblue" stroke="midnightblue" points="368.221,-106.034 370.798,-95.7571 362.375,-102.184 368.221,-106.034"/>
</g>
<!-- Node12 -->
<g id="node12" class="node"><title>Node12</title>
<g id="a_node12"><a xlink:href="a00580.html#gab807a241fae0eae0d5434bae20a3569f" target="_top" xlink:title="Puts character to USART port. ">
<polygon fill="white" stroke="black" points="544,-114.5 544,-133.5 640,-133.5 640,-114.5 544,-114.5"/>
<text text-anchor="middle" x="592" y="-121.5" font-family="Helvetica,sans-Serif" font-size="10.00">TM_USART_Putc</text>
</a>
</g>
</g>
<!-- Node11&#45;&gt;Node12 -->
<g id="edge12" class="edge"><title>Node11&#45;&gt;Node12</title>
<path fill="none" stroke="midnightblue" d="M456.756,-97.5685C484.72,-103.074 517.705,-109.569 543.98,-114.742"/>
<polygon fill="midnightblue" stroke="midnightblue" points="457.19,-94.0868 446.702,-95.589 455.838,-100.955 457.19,-94.0868"/>
</g>
<!-- Node13 -->
<g id="node13" class="node"><title>Node13</title>
<g id="a_node13"><a xlink:href="a00580.html#ga70bed9fb6612cb572a8c10e148404344" target="_top" xlink:title="Initializes USARTx peripheral and corresponding pins. ">
<polygon fill="white" stroke="black" points="699.5,-157.5 699.5,-176.5 788.5,-176.5 788.5,-157.5 699.5,-157.5"/>
<text text-anchor="middle" x="744" y="-164.5" font-family="Helvetica,sans-Serif" font-size="10.00">TM_USART_Init</text>
</a>
</g>
</g>
<!-- Node12&#45;&gt;Node13 -->
<g id="edge13" class="edge"><title>Node12&#45;&gt;Node13</title>
<path fill="none" stroke="midnightblue" d="M635.997,-136.326C659.462,-143.052 688.072,-151.254 709.803,-157.484"/>
<polygon fill="midnightblue" stroke="midnightblue" points="636.867,-132.934 626.29,-133.543 634.938,-139.663 636.867,-132.934"/>
</g>
<!-- Node14 -->
<g id="node14" class="node"><title>Node14</title>
<g id="a_node14"><a xlink:href="a00580.html#ga453aeaa886278333403ff4937c01dcf3" target="_top" xlink:title="Puts string to USART port. ">
<polygon fill="white" stroke="black" points="696,-114.5 696,-133.5 792,-133.5 792,-114.5 696,-114.5"/>
<text text-anchor="middle" x="744" y="-121.5" font-family="Helvetica,sans-Serif" font-size="10.00">TM_USART_Puts</text>
</a>
</g>
</g>
<!-- Node12&#45;&gt;Node14 -->
<g id="edge15" class="edge"><title>Node12&#45;&gt;Node14</title>
<path fill="none" stroke="midnightblue" d="M650.279,-117.42C665.336,-117.126 681.403,-117.213 695.86,-117.682"/>
<polygon fill="midnightblue" stroke="midnightblue" points="649.955,-113.927 640.049,-117.685 650.137,-120.925 649.955,-113.927"/>
</g>
<!-- Node13&#45;&gt;Node4 -->
<g id="edge14" class="edge"><title>Node13&#45;&gt;Node4</title>
<path fill="none" stroke="midnightblue" d="M798.767,-177.647C809.256,-179.724 819.556,-181.764 827.848,-183.405"/>
<polygon fill="midnightblue" stroke="midnightblue" points="799.202,-174.165 788.713,-175.656 797.842,-181.032 799.202,-174.165"/>
</g>
<!-- Node14&#45;&gt;Node12 -->
<g id="edge16" class="edge"><title>Node14&#45;&gt;Node12</title>
<path fill="none" stroke="midnightblue" d="M685.626,-130.582C670.566,-130.874 654.5,-130.785 640.049,-130.315"/>
<polygon fill="midnightblue" stroke="midnightblue" points="685.953,-134.074 695.86,-130.318 685.773,-127.077 685.953,-134.074"/>
</g>
</g>
</svg>
