<?xml version="1.0" encoding="UTF-8" standalone="no"?>
<!DOCTYPE svg PUBLIC "-//W3C//DTD SVG 1.1//EN"
 "http://www.w3.org/Graphics/SVG/1.1/DTD/svg11.dtd">
<!-- Generated by graphviz version 2.38.0 (20140413.2041)
 -->
<!-- Title: HASH_SetLastWordValidBitsNbr Pages: 1 -->
<svg width="284pt" height="142pt"
 viewBox="0.00 0.00 284.00 142.00" xmlns="http://www.w3.org/2000/svg" xmlns:xlink="http://www.w3.org/1999/xlink">
<g id="graph0" class="graph" transform="scale(1 1) rotate(0) translate(4 138)">
<title>HASH_SetLastWordValidBitsNbr</title>
<polygon fill="white" stroke="none" points="-4,4 -4,-138 280,-138 280,4 -4,4"/>
<!-- Node1 -->
<g id="node1" class="node"><title>Node1</title>
<polygon fill="#bfbfbf" stroke="black" points="0,-57.5 0,-76.5 162,-76.5 162,-57.5 0,-57.5"/>
<text text-anchor="middle" x="81" y="-64.5" font-family="Helvetica,sans-Serif" font-size="10.00">HASH_SetLastWordValidBitsNbr</text>
</g>
<!-- Node2 -->
<g id="node2" class="node"><title>Node2</title>
<g id="a_node2"><a xlink:href="a01125.html#ga82a155884e458cc6b7c1a4565c1ac8e9" target="_top" xlink:title="Compute the HASH MD5 digest. ">
<polygon fill="white" stroke="black" points="201.5,-114.5 201.5,-133.5 272.5,-133.5 272.5,-114.5 201.5,-114.5"/>
<text text-anchor="middle" x="237" y="-121.5" font-family="Helvetica,sans-Serif" font-size="10.00">HASH_MD5</text>
</a>
</g>
</g>
<!-- Node1&#45;&gt;Node2 -->
<g id="edge1" class="edge"><title>Node1&#45;&gt;Node2</title>
<path fill="none" stroke="midnightblue" d="M117.3,-80.0655C145.607,-90.5428 184.68,-105.005 210.14,-114.428"/>
<polygon fill="midnightblue" stroke="midnightblue" points="118.369,-76.7294 107.776,-76.5405 115.939,-83.2941 118.369,-76.7294"/>
</g>
<!-- Node3 -->
<g id="node3" class="node"><title>Node3</title>
<g id="a_node3"><a xlink:href="a01125.html#gac61733e7aa66bdd2f21be4b34165b5be" target="_top" xlink:title="Compute the HMAC MD5 digest. ">
<polygon fill="white" stroke="black" points="200.5,-76.5 200.5,-95.5 273.5,-95.5 273.5,-76.5 200.5,-76.5"/>
<text text-anchor="middle" x="237" y="-83.5" font-family="Helvetica,sans-Serif" font-size="10.00">HMAC_MD5</text>
</a>
</g>
</g>
<!-- Node1&#45;&gt;Node3 -->
<g id="edge2" class="edge"><title>Node1&#45;&gt;Node3</title>
<path fill="none" stroke="midnightblue" d="M169.429,-77.7867C180.235,-79.12 190.763,-80.4188 200.138,-81.5755"/>
<polygon fill="midnightblue" stroke="midnightblue" points="169.805,-74.3066 159.451,-76.5557 168.947,-81.2539 169.805,-74.3066"/>
</g>
<!-- Node4 -->
<g id="node4" class="node"><title>Node4</title>
<g id="a_node4"><a xlink:href="a01126.html#ga2728c02c36de6d800e1ede56ea7789cb" target="_top" xlink:title="Compute the HASH SHA1 digest. ">
<polygon fill="white" stroke="black" points="198.5,-38.5 198.5,-57.5 275.5,-57.5 275.5,-38.5 198.5,-38.5"/>
<text text-anchor="middle" x="237" y="-45.5" font-family="Helvetica,sans-Serif" font-size="10.00">HASH_SHA1</text>
</a>
</g>
</g>
<!-- Node1&#45;&gt;Node4 -->
<g id="edge3" class="edge"><title>Node1&#45;&gt;Node4</title>
<path fill="none" stroke="midnightblue" d="M169.533,-56.2004C179.561,-54.9633 189.345,-53.7562 198.189,-52.665"/>
<polygon fill="midnightblue" stroke="midnightblue" points="168.947,-52.7461 159.451,-57.4443 169.805,-59.6934 168.947,-52.7461"/>
</g>
<!-- Node5 -->
<g id="node5" class="node"><title>Node5</title>
<g id="a_node5"><a xlink:href="a01126.html#ga2e38e900ca7838c1cea17cef19953a5e" target="_top" xlink:title="Compute the HMAC SHA1 digest. ">
<polygon fill="white" stroke="black" points="198,-0.5 198,-19.5 276,-19.5 276,-0.5 198,-0.5"/>
<text text-anchor="middle" x="237" y="-7.5" font-family="Helvetica,sans-Serif" font-size="10.00">HMAC_SHA1</text>
</a>
</g>
</g>
<!-- Node1&#45;&gt;Node5 -->
<g id="edge4" class="edge"><title>Node1&#45;&gt;Node5</title>
<path fill="none" stroke="midnightblue" d="M117.3,-53.9345C145.607,-43.4572 184.68,-28.9949 210.14,-19.5716"/>
<polygon fill="midnightblue" stroke="midnightblue" points="115.939,-50.7059 107.776,-57.4595 118.369,-57.2706 115.939,-50.7059"/>
</g>
</g>
</svg>
