<?xml version="1.0" encoding="UTF-8" standalone="no"?>
<!DOCTYPE svg PUBLIC "-//W3C//DTD SVG 1.1//EN"
 "http://www.w3.org/Graphics/SVG/1.1/DTD/svg11.dtd">
<!-- Generated by graphviz version 2.38.0 (20140413.2041)
 -->
<!-- Title: RTC_ByteToBcd2 Pages: 1 -->
<svg width="224pt" height="104pt"
 viewBox="0.00 0.00 224.00 104.00" xmlns="http://www.w3.org/2000/svg" xmlns:xlink="http://www.w3.org/1999/xlink">
<g id="graph0" class="graph" transform="scale(1 1) rotate(0) translate(4 100)">
<title>RTC_ByteToBcd2</title>
<polygon fill="white" stroke="none" points="-4,4 -4,-100 220,-100 220,4 -4,4"/>
<!-- Node1 -->
<g id="node1" class="node"><title>Node1</title>
<polygon fill="#bfbfbf" stroke="black" points="0,-38.5 0,-57.5 97,-57.5 97,-38.5 0,-38.5"/>
<text text-anchor="middle" x="48.5" y="-45.5" font-family="Helvetica,sans-Serif" font-size="10.00">RTC_ByteToBcd2</text>
</g>
<!-- Node2 -->
<g id="node2" class="node"><title>Node2</title>
<g id="a_node2"><a xlink:href="a01159.html#ga9f9df80cfa82f7a4dd9f4d0cf2ffb3a6" target="_top" xlink:title="Set the RTC current time. ">
<polygon fill="white" stroke="black" points="134.5,-76.5 134.5,-95.5 214.5,-95.5 214.5,-76.5 134.5,-76.5"/>
<text text-anchor="middle" x="174.5" y="-83.5" font-family="Helvetica,sans-Serif" font-size="10.00">RTC_SetTime</text>
</a>
</g>
</g>
<!-- Node1&#45;&gt;Node2 -->
<g id="edge1" class="edge"><title>Node1&#45;&gt;Node2</title>
<path fill="none" stroke="midnightblue" d="M90.4047,-60.5353C107.273,-65.7048 126.508,-71.5991 142.22,-76.4141"/>
<polygon fill="midnightblue" stroke="midnightblue" points="91.3771,-57.1727 80.7904,-57.589 89.326,-63.8655 91.3771,-57.1727"/>
</g>
<!-- Node3 -->
<g id="node3" class="node"><title>Node3</title>
<g id="a_node3"><a xlink:href="a01159.html#ga69d08538147f3d89c818dcfabf50e362" target="_top" xlink:title="Set the RTC current date. ">
<polygon fill="white" stroke="black" points="135,-38.5 135,-57.5 214,-57.5 214,-38.5 135,-38.5"/>
<text text-anchor="middle" x="174.5" y="-45.5" font-family="Helvetica,sans-Serif" font-size="10.00">RTC_SetDate</text>
</a>
</g>
</g>
<!-- Node1&#45;&gt;Node3 -->
<g id="edge2" class="edge"><title>Node1&#45;&gt;Node3</title>
<path fill="none" stroke="midnightblue" d="M107.125,-48C116.461,-48 125.931,-48 134.68,-48"/>
<polygon fill="midnightblue" stroke="midnightblue" points="107.087,-44.5001 97.087,-48 107.087,-51.5001 107.087,-44.5001"/>
</g>
<!-- Node4 -->
<g id="node4" class="node"><title>Node4</title>
<g id="a_node4"><a xlink:href="a01160.html#ga44e3334f8e882df9b8a59b47f0857395" target="_top" xlink:title="Set the specified RTC Alarm. ">
<polygon fill="white" stroke="black" points="133,-0.5 133,-19.5 216,-19.5 216,-0.5 133,-0.5"/>
<text text-anchor="middle" x="174.5" y="-7.5" font-family="Helvetica,sans-Serif" font-size="10.00">RTC_SetAlarm</text>
</a>
</g>
</g>
<!-- Node1&#45;&gt;Node4 -->
<g id="edge3" class="edge"><title>Node1&#45;&gt;Node4</title>
<path fill="none" stroke="midnightblue" d="M90.4047,-35.4647C107.273,-30.2952 126.508,-24.4009 142.22,-19.5859"/>
<polygon fill="midnightblue" stroke="midnightblue" points="89.326,-32.1345 80.7904,-38.411 91.3771,-38.8273 89.326,-32.1345"/>
</g>
</g>
</svg>
