<?xml version="1.0" encoding="UTF-8" standalone="no"?>
<!DOCTYPE svg PUBLIC "-//W3C//DTD SVG 1.1//EN"
 "http://www.w3.org/Graphics/SVG/1.1/DTD/svg11.dtd">
<!-- Generated by graphviz version 2.38.0 (20140413.2041)
 -->
<!-- Title: GPIO_Init Pages: 1 -->
<svg width="464pt" height="142pt"
 viewBox="0.00 0.00 464.00 142.00" xmlns="http://www.w3.org/2000/svg" xmlns:xlink="http://www.w3.org/1999/xlink">
<g id="graph0" class="graph" transform="scale(1 1) rotate(0) translate(4 138)">
<title>GPIO_Init</title>
<polygon fill="white" stroke="none" points="-4,4 -4,-138 460,-138 460,4 -4,4"/>
<!-- Node1 -->
<g id="node1" class="node"><title>Node1</title>
<polygon fill="#bfbfbf" stroke="black" points="0,-57.5 0,-76.5 60,-76.5 60,-57.5 0,-57.5"/>
<text text-anchor="middle" x="30" y="-64.5" font-family="Helvetica,sans-Serif" font-size="10.00">GPIO_Init</text>
</g>
<!-- Node2 -->
<g id="node2" class="node"><title>Node2</title>
<g id="a_node2"><a xlink:href="a00580.html#ga70bed9fb6612cb572a8c10e148404344" target="_top" xlink:title="Initializes USARTx peripheral and corresponding pins. ">
<polygon fill="white" stroke="black" points="119.5,-114.5 119.5,-133.5 208.5,-133.5 208.5,-114.5 119.5,-114.5"/>
<text text-anchor="middle" x="164" y="-121.5" font-family="Helvetica,sans-Serif" font-size="10.00">TM_USART_Init</text>
</a>
</g>
</g>
<!-- Node1&#45;&gt;Node2 -->
<g id="edge1" class="edge"><title>Node1&#45;&gt;Node2</title>
<path fill="none" stroke="midnightblue" d="M53.5093,-82.0634C65.6961,-89.722 81.2417,-98.7136 96,-105 104.565,-108.648 114.039,-111.821 123.101,-114.474"/>
<polygon fill="midnightblue" stroke="midnightblue" points="55.2171,-79.0003 44.9135,-76.5335 51.4298,-84.8874 55.2171,-79.0003"/>
</g>
<!-- Node4 -->
<g id="node4" class="node"><title>Node4</title>
<g id="a_node4"><a xlink:href="a01261.html#gad45b8278807ffed1f22e03d86d35bf90" target="_top" xlink:title="Initialize all GPIOs from MDB_GPIO. ">
<polygon fill="white" stroke="black" points="120,-76.5 120,-95.5 208,-95.5 208,-76.5 120,-76.5"/>
<text text-anchor="middle" x="164" y="-83.5" font-family="Helvetica,sans-Serif" font-size="10.00">MDB_GPIO_Init</text>
</a>
</g>
</g>
<!-- Node1&#45;&gt;Node4 -->
<g id="edge3" class="edge"><title>Node1&#45;&gt;Node4</title>
<path fill="none" stroke="midnightblue" d="M70.5991,-72.6999C86.0959,-74.9305 103.918,-77.4957 119.75,-79.7746"/>
<polygon fill="midnightblue" stroke="midnightblue" points="70.6917,-69.1772 60.2951,-71.2167 69.6944,-76.1058 70.6917,-69.1772"/>
</g>
<!-- Node5 -->
<g id="node5" class="node"><title>Node5</title>
<g id="a_node5"><a xlink:href="a01261.html#ga23127fb33a96a81838d3c4b368b0e915" target="_top" xlink:title="Provides GPIO on/off functionality. ">
<polygon fill="white" stroke="black" points="112,-0.5 112,-19.5 216,-19.5 216,-0.5 112,-0.5"/>
<text text-anchor="middle" x="164" y="-7.5" font-family="Helvetica,sans-Serif" font-size="10.00">MDB_GPIO_Switch</text>
</a>
</g>
</g>
<!-- Node1&#45;&gt;Node5 -->
<g id="edge5" class="edge"><title>Node1&#45;&gt;Node5</title>
<path fill="none" stroke="midnightblue" d="M53.5093,-51.9366C65.6961,-44.278 81.2417,-35.2864 96,-29 104.565,-25.3516 114.039,-22.1791 123.101,-19.5262"/>
<polygon fill="midnightblue" stroke="midnightblue" points="51.4298,-49.1126 44.9135,-57.4665 55.2171,-54.9997 51.4298,-49.1126"/>
</g>
<!-- Node8 -->
<g id="node8" class="node"><title>Node8</title>
<g id="a_node8"><a xlink:href="a01269.html#gad273dc4b4b26574e92666e4020e1ef5a" target="_top" xlink:title="Timer&#45;triggered ADC&#45;scan mode with DMA to memory. ">
<polygon fill="white" stroke="black" points="96,-38.5 96,-57.5 232,-57.5 232,-38.5 96,-38.5"/>
<text text-anchor="middle" x="164" y="-45.5" font-family="Helvetica,sans-Serif" font-size="10.00">TIM2_DMA_Trigger_Config</text>
</a>
</g>
</g>
<!-- Node1&#45;&gt;Node8 -->
<g id="edge8" class="edge"><title>Node1&#45;&gt;Node8</title>
<path fill="none" stroke="midnightblue" d="M70.4321,-61.3242C78.761,-60.1253 87.7675,-58.8289 96.7794,-57.5317"/>
<polygon fill="midnightblue" stroke="midnightblue" points="69.6944,-57.8942 60.2951,-62.7833 70.6917,-64.8228 69.6944,-57.8942"/>
</g>
<!-- Node3 -->
<g id="node3" class="node"><title>Node3</title>
<g id="a_node3"><a xlink:href="a01285.html#ga840291bc02cba5474a4cb46a9b9566fe" target="_top" xlink:title="Main function entry. ">
<polygon fill="white" stroke="black" points="277,-76.5 277,-95.5 315,-95.5 315,-76.5 277,-76.5"/>
<text text-anchor="middle" x="296" y="-83.5" font-family="Helvetica,sans-Serif" font-size="10.00">main</text>
</a>
</g>
</g>
<!-- Node2&#45;&gt;Node3 -->
<g id="edge2" class="edge"><title>Node2&#45;&gt;Node3</title>
<path fill="none" stroke="midnightblue" d="M208.752,-111.706C216.503,-109.496 224.494,-107.196 232,-105 247.131,-100.573 264.256,-95.3979 276.828,-91.5674"/>
<polygon fill="midnightblue" stroke="midnightblue" points="207.779,-108.344 199.116,-114.443 209.692,-115.077 207.779,-108.344"/>
</g>
<!-- Node4&#45;&gt;Node3 -->
<g id="edge4" class="edge"><title>Node4&#45;&gt;Node3</title>
<path fill="none" stroke="midnightblue" d="M218.346,-86C239.184,-86 261.675,-86 276.868,-86"/>
<polygon fill="midnightblue" stroke="midnightblue" points="218.288,-82.5001 208.288,-86 218.288,-89.5001 218.288,-82.5001"/>
</g>
<!-- Node6 -->
<g id="node6" class="node"><title>Node6</title>
<g id="a_node6"><a xlink:href="a01232.html#gab27f871618e69ee02c2d2bd756a97397" target="_top" xlink:title="Set beam control source and new state. ">
<polygon fill="white" stroke="black" points="268,-0.5 268,-19.5 324,-19.5 324,-0.5 268,-0.5"/>
<text text-anchor="middle" x="296" y="-7.5" font-family="Helvetica,sans-Serif" font-size="10.00">beamCtrl</text>
</a>
</g>
</g>
<!-- Node5&#45;&gt;Node6 -->
<g id="edge6" class="edge"><title>Node5&#45;&gt;Node6</title>
<path fill="none" stroke="midnightblue" d="M226.045,-10C240.66,-10 255.543,-10 267.723,-10"/>
<polygon fill="midnightblue" stroke="midnightblue" points="226.006,-6.5001 216.006,-10 226.006,-13.5001 226.006,-6.5001"/>
</g>
<!-- Node7 -->
<g id="node7" class="node"><title>Node7</title>
<g id="a_node7"><a xlink:href="a01253.html#ga7133f3f78767503641d307386e68bd28" target="_top" xlink:title="{ function_description } ">
<polygon fill="white" stroke="black" points="360,-0.5 360,-19.5 456,-19.5 456,-0.5 360,-0.5"/>
<text text-anchor="middle" x="408" y="-7.5" font-family="Helvetica,sans-Serif" font-size="10.00">TIM4_IRQHandler</text>
</a>
</g>
</g>
<!-- Node6&#45;&gt;Node7 -->
<g id="edge7" class="edge"><title>Node6&#45;&gt;Node7</title>
<path fill="none" stroke="midnightblue" d="M334.273,-10C342.537,-10 351.398,-10 359.994,-10"/>
<polygon fill="midnightblue" stroke="midnightblue" points="334.191,-6.5001 324.191,-10 334.191,-13.5001 334.191,-6.5001"/>
</g>
<!-- Node8&#45;&gt;Node3 -->
<g id="edge9" class="edge"><title>Node8&#45;&gt;Node3</title>
<path fill="none" stroke="midnightblue" d="M208.752,-60.2942C216.503,-62.5045 224.494,-64.8039 232,-67 247.131,-71.4268 264.256,-76.6021 276.828,-80.4326"/>
<polygon fill="midnightblue" stroke="midnightblue" points="209.692,-56.9229 199.116,-57.5567 207.779,-63.6564 209.692,-56.9229"/>
</g>
</g>
</svg>
