<?xml version="1.0" encoding="UTF-8" standalone="no"?>
<!DOCTYPE svg PUBLIC "-//W3C//DTD SVG 1.1//EN"
 "http://www.w3.org/Graphics/SVG/1.1/DTD/svg11.dtd">
<!-- Generated by graphviz version 2.38.0 (20140413.2041)
 -->
<!-- Title: RCC_AHB1PeriphClockCmd Pages: 1 -->
<svg width="549pt" height="180pt"
 viewBox="0.00 0.00 549.00 180.00" xmlns="http://www.w3.org/2000/svg" xmlns:xlink="http://www.w3.org/1999/xlink">
<g id="graph0" class="graph" transform="scale(1 1) rotate(0) translate(4 176)">
<title>RCC_AHB1PeriphClockCmd</title>
<polygon fill="white" stroke="none" points="-4,4 -4,-176 545,-176 545,4 -4,4"/>
<!-- Node1 -->
<g id="node1" class="node"><title>Node1</title>
<polygon fill="#bfbfbf" stroke="black" points="0,-76.5 0,-95.5 145,-95.5 145,-76.5 0,-76.5"/>
<text text-anchor="middle" x="72.5" y="-83.5" font-family="Helvetica,sans-Serif" font-size="10.00">RCC_AHB1PeriphClockCmd</text>
</g>
<!-- Node2 -->
<g id="node2" class="node"><title>Node2</title>
<g id="a_node2"><a xlink:href="a00580.html#ga70bed9fb6612cb572a8c10e148404344" target="_top" xlink:title="Initializes USARTx peripheral and corresponding pins. ">
<polygon fill="white" stroke="black" points="204.5,-152.5 204.5,-171.5 293.5,-171.5 293.5,-152.5 204.5,-152.5"/>
<text text-anchor="middle" x="249" y="-159.5" font-family="Helvetica,sans-Serif" font-size="10.00">TM_USART_Init</text>
</a>
</g>
</g>
<!-- Node1&#45;&gt;Node2 -->
<g id="edge1" class="edge"><title>Node1&#45;&gt;Node2</title>
<path fill="none" stroke="midnightblue" d="M97.7389,-100.759C119.076,-113.282 151.289,-131.066 181,-143 189.863,-146.56 199.637,-149.732 208.915,-152.417"/>
<polygon fill="midnightblue" stroke="midnightblue" points="99.4091,-97.6805 89.0243,-95.5813 95.8334,-103.698 99.4091,-97.6805"/>
</g>
<!-- Node4 -->
<g id="node4" class="node"><title>Node4</title>
<g id="a_node4"><a xlink:href="a01261.html#gad45b8278807ffed1f22e03d86d35bf90" target="_top" xlink:title="Initialize all GPIOs from MDB_GPIO. ">
<polygon fill="white" stroke="black" points="205,-114.5 205,-133.5 293,-133.5 293,-114.5 205,-114.5"/>
<text text-anchor="middle" x="249" y="-121.5" font-family="Helvetica,sans-Serif" font-size="10.00">MDB_GPIO_Init</text>
</a>
</g>
</g>
<!-- Node1&#45;&gt;Node4 -->
<g id="edge3" class="edge"><title>Node1&#45;&gt;Node4</title>
<path fill="none" stroke="midnightblue" d="M127.547,-97.7695C152.417,-103.185 181.519,-109.523 204.886,-114.611"/>
<polygon fill="midnightblue" stroke="midnightblue" points="128.049,-94.297 117.534,-95.589 126.56,-101.137 128.049,-94.297"/>
</g>
<!-- Node5 -->
<g id="node5" class="node"><title>Node5</title>
<g id="a_node5"><a xlink:href="a01261.html#ga23127fb33a96a81838d3c4b368b0e915" target="_top" xlink:title="Provides GPIO on/off functionality. ">
<polygon fill="white" stroke="black" points="197,-0.5 197,-19.5 301,-19.5 301,-0.5 197,-0.5"/>
<text text-anchor="middle" x="249" y="-7.5" font-family="Helvetica,sans-Serif" font-size="10.00">MDB_GPIO_Switch</text>
</a>
</g>
</g>
<!-- Node1&#45;&gt;Node5 -->
<g id="edge5" class="edge"><title>Node1&#45;&gt;Node5</title>
<path fill="none" stroke="midnightblue" d="M97.7389,-71.2407C119.076,-58.7175 151.289,-40.9338 181,-29 189.863,-25.44 199.637,-22.2678 208.915,-19.5831"/>
<polygon fill="midnightblue" stroke="midnightblue" points="95.8334,-68.3016 89.0243,-76.4187 99.4091,-74.3195 95.8334,-68.3016"/>
</g>
<!-- Node8 -->
<g id="node8" class="node"><title>Node8</title>
<g id="a_node8"><a xlink:href="a01269.html#gae5d12b8da57e95abcca6e6d9ba8a50bb" target="_top" xlink:title="Enable AHBx peripheral clocks for DMA2, GPIOC, ADC1, TIM2. ">
<polygon fill="white" stroke="black" points="186,-76.5 186,-95.5 312,-95.5 312,-76.5 186,-76.5"/>
<text text-anchor="middle" x="249" y="-83.5" font-family="Helvetica,sans-Serif" font-size="10.00">RCC_Periph2DMA_Conf</text>
</a>
</g>
</g>
<!-- Node1&#45;&gt;Node8 -->
<g id="edge8" class="edge"><title>Node1&#45;&gt;Node8</title>
<path fill="none" stroke="midnightblue" d="M155.387,-86C165.597,-86 175.905,-86 185.75,-86"/>
<polygon fill="midnightblue" stroke="midnightblue" points="155.231,-82.5001 145.231,-86 155.231,-89.5001 155.231,-82.5001"/>
</g>
<!-- Node9 -->
<g id="node9" class="node"><title>Node9</title>
<g id="a_node9"><a xlink:href="a01269.html#gad273dc4b4b26574e92666e4020e1ef5a" target="_top" xlink:title="Timer&#45;triggered ADC&#45;scan mode with DMA to memory. ">
<polygon fill="white" stroke="black" points="181,-38.5 181,-57.5 317,-57.5 317,-38.5 181,-38.5"/>
<text text-anchor="middle" x="249" y="-45.5" font-family="Helvetica,sans-Serif" font-size="10.00">TIM2_DMA_Trigger_Config</text>
</a>
</g>
</g>
<!-- Node1&#45;&gt;Node9 -->
<g id="edge10" class="edge"><title>Node1&#45;&gt;Node9</title>
<path fill="none" stroke="midnightblue" d="M127.469,-74.2474C152.143,-68.8742 180.995,-62.5914 204.283,-57.5201"/>
<polygon fill="midnightblue" stroke="midnightblue" points="126.56,-70.8633 117.534,-76.411 128.049,-77.703 126.56,-70.8633"/>
</g>
<!-- Node3 -->
<g id="node3" class="node"><title>Node3</title>
<g id="a_node3"><a xlink:href="a01285.html#ga840291bc02cba5474a4cb46a9b9566fe" target="_top" xlink:title="Main function entry. ">
<polygon fill="white" stroke="black" points="362,-95.5 362,-114.5 400,-114.5 400,-95.5 362,-95.5"/>
<text text-anchor="middle" x="381" y="-102.5" font-family="Helvetica,sans-Serif" font-size="10.00">main</text>
</a>
</g>
</g>
<!-- Node2&#45;&gt;Node3 -->
<g id="edge2" class="edge"><title>Node2&#45;&gt;Node3</title>
<path fill="none" stroke="midnightblue" d="M300.028,-149.412C305.831,-147.484 311.6,-145.344 317,-143 335.044,-135.167 354.177,-123.007 366.559,-114.56"/>
<polygon fill="midnightblue" stroke="midnightblue" points="298.79,-146.132 290.29,-152.456 300.878,-152.813 298.79,-146.132"/>
</g>
<!-- Node4&#45;&gt;Node3 -->
<g id="edge4" class="edge"><title>Node4&#45;&gt;Node3</title>
<path fill="none" stroke="midnightblue" d="M303.346,-116.203C324.184,-113.158 346.675,-109.871 361.868,-107.65"/>
<polygon fill="midnightblue" stroke="midnightblue" points="302.677,-112.764 293.288,-117.673 303.689,-119.69 302.677,-112.764"/>
</g>
<!-- Node6 -->
<g id="node6" class="node"><title>Node6</title>
<g id="a_node6"><a xlink:href="a01232.html#gab27f871618e69ee02c2d2bd756a97397" target="_top" xlink:title="Set beam control source and new state. ">
<polygon fill="white" stroke="black" points="353,-0.5 353,-19.5 409,-19.5 409,-0.5 353,-0.5"/>
<text text-anchor="middle" x="381" y="-7.5" font-family="Helvetica,sans-Serif" font-size="10.00">beamCtrl</text>
</a>
</g>
</g>
<!-- Node5&#45;&gt;Node6 -->
<g id="edge6" class="edge"><title>Node5&#45;&gt;Node6</title>
<path fill="none" stroke="midnightblue" d="M311.045,-10C325.66,-10 340.543,-10 352.723,-10"/>
<polygon fill="midnightblue" stroke="midnightblue" points="311.006,-6.5001 301.006,-10 311.006,-13.5001 311.006,-6.5001"/>
</g>
<!-- Node7 -->
<g id="node7" class="node"><title>Node7</title>
<g id="a_node7"><a xlink:href="a01253.html#ga7133f3f78767503641d307386e68bd28" target="_top" xlink:title="{ function_description } ">
<polygon fill="white" stroke="black" points="445,-0.5 445,-19.5 541,-19.5 541,-0.5 445,-0.5"/>
<text text-anchor="middle" x="493" y="-7.5" font-family="Helvetica,sans-Serif" font-size="10.00">TIM4_IRQHandler</text>
</a>
</g>
</g>
<!-- Node6&#45;&gt;Node7 -->
<g id="edge7" class="edge"><title>Node6&#45;&gt;Node7</title>
<path fill="none" stroke="midnightblue" d="M419.273,-10C427.537,-10 436.398,-10 444.994,-10"/>
<polygon fill="midnightblue" stroke="midnightblue" points="419.191,-6.5001 409.191,-10 419.191,-13.5001 419.191,-6.5001"/>
</g>
<!-- Node8&#45;&gt;Node3 -->
<g id="edge9" class="edge"><title>Node8&#45;&gt;Node3</title>
<path fill="none" stroke="midnightblue" d="M322.517,-96.5986C337.158,-98.7385 351.285,-100.803 361.87,-102.35"/>
<polygon fill="midnightblue" stroke="midnightblue" points="322.736,-93.0935 312.335,-95.1104 321.723,-100.02 322.736,-93.0935"/>
</g>
<!-- Node9&#45;&gt;Node3 -->
<g id="edge11" class="edge"><title>Node9&#45;&gt;Node3</title>
<path fill="none" stroke="midnightblue" d="M300.028,-60.5882C305.831,-62.5164 311.6,-64.656 317,-67 335.044,-74.8326 354.177,-86.9929 366.559,-95.4398"/>
<polygon fill="midnightblue" stroke="midnightblue" points="300.878,-57.187 290.29,-57.5439 298.79,-63.8682 300.878,-57.187"/>
</g>
</g>
</svg>
