<?xml version="1.0" encoding="UTF-8" standalone="no"?>
<!DOCTYPE svg PUBLIC "-//W3C//DTD SVG 1.1//EN"
 "http://www.w3.org/Graphics/SVG/1.1/DTD/svg11.dtd">
<!-- Generated by graphviz version 2.38.0 (20140413.2041)
 -->
<!-- Title: Support Functions Pages: 1 -->
<svg width="253pt" height="264pt"
 viewBox="0.00 0.00 253.00 263.50" xmlns="http://www.w3.org/2000/svg" xmlns:xlink="http://www.w3.org/1999/xlink">
<g id="graph0" class="graph" transform="scale(1 1) rotate(0) translate(4 259.5)">
<title>Support Functions</title>
<polygon fill="white" stroke="none" points="-4,4 -4,-259.5 249,-259.5 249,4 -4,4"/>
<!-- Node4 -->
<g id="node1" class="node"><title>Node4</title>
<g id="a_node1"><a xlink:href="a01208.html" target="_top" xlink:title="Convert 16&#45;bit Integer\l value">
<polygon fill="white" stroke="black" points="133,-225 133,-255 244,-255 244,-225 133,-225"/>
<text text-anchor="start" x="141" y="-243" font-family="Helvetica,sans-Serif" font-size="10.00">Convert 16&#45;bit Integer</text>
<text text-anchor="middle" x="188.5" y="-232" font-family="Helvetica,sans-Serif" font-size="10.00"> value</text>
</a>
</g>
</g>
<!-- Node3 -->
<g id="node2" class="node"><title>Node3</title>
<g id="a_node2"><a xlink:href="a01207.html" target="_top" xlink:title="Convert 32&#45;bit floating\l point value">
<polygon fill="white" stroke="black" points="132,-176 132,-206 245,-206 245,-176 132,-176"/>
<text text-anchor="start" x="140" y="-194" font-family="Helvetica,sans-Serif" font-size="10.00">Convert 32&#45;bit floating</text>
<text text-anchor="middle" x="188.5" y="-183" font-family="Helvetica,sans-Serif" font-size="10.00"> point value</text>
</a>
</g>
</g>
<!-- Node0 -->
<g id="node3" class="node"><title>Node0</title>
<polygon fill="#bfbfbf" stroke="black" points="0,-110.5 0,-129.5 96,-129.5 96,-110.5 0,-110.5"/>
<text text-anchor="middle" x="48" y="-117.5" font-family="Helvetica,sans-Serif" font-size="10.00">Support Functions</text>
</g>
<!-- Node0&#45;&gt;Node4 -->
<g id="edge4" class="edge"><title>Node0&#45;&gt;Node4</title>
<path fill="none" stroke="black" d="M60.8431,-138.097C75.4263,-159.194 101.981,-193.974 132,-216 136.486,-219.291 141.493,-222.249 146.613,-224.869"/>
<polygon fill="black" stroke="black" points="63.6802,-136.044 55.1831,-129.716 57.8791,-139.962 63.6802,-136.044"/>
</g>
<!-- Node0&#45;&gt;Node3 -->
<g id="edge3" class="edge"><title>Node0&#45;&gt;Node3</title>
<path fill="none" stroke="black" d="M73.5322,-134.81C89.8607,-144.437 111.923,-157.01 132,-167 138.109,-170.04 144.694,-173.083 151.119,-175.932"/>
<polygon fill="black" stroke="black" points="75.0234,-131.625 64.639,-129.523 71.4465,-137.642 75.0234,-131.625"/>
</g>
<!-- Node5 -->
<g id="node4" class="node"><title>Node5</title>
<g id="a_node4"><a xlink:href="a01209.html" target="_top" xlink:title="Convert 32&#45;bit Integer\l value">
<polygon fill="white" stroke="black" points="133,-127 133,-157 244,-157 244,-127 133,-127"/>
<text text-anchor="start" x="141" y="-145" font-family="Helvetica,sans-Serif" font-size="10.00">Convert 32&#45;bit Integer</text>
<text text-anchor="middle" x="188.5" y="-134" font-family="Helvetica,sans-Serif" font-size="10.00"> value</text>
</a>
</g>
</g>
<!-- Node0&#45;&gt;Node5 -->
<g id="edge5" class="edge"><title>Node0&#45;&gt;Node5</title>
<path fill="none" stroke="black" d="M106.383,-129.115C115.124,-130.503 124.125,-131.933 132.806,-133.312"/>
<polygon fill="black" stroke="black" points="106.702,-125.622 96.2765,-127.51 105.604,-132.535 106.702,-125.622"/>
</g>
<!-- Node2 -->
<g id="node5" class="node"><title>Node2</title>
<g id="a_node5"><a xlink:href="a01206.html" target="_top" xlink:title="Vector Fill">
<polygon fill="white" stroke="black" points="158,-88.5 158,-107.5 219,-107.5 219,-88.5 158,-88.5"/>
<text text-anchor="middle" x="188.5" y="-95.5" font-family="Helvetica,sans-Serif" font-size="10.00">Vector Fill</text>
</a>
</g>
</g>
<!-- Node0&#45;&gt;Node2 -->
<g id="edge2" class="edge"><title>Node0&#45;&gt;Node2</title>
<path fill="none" stroke="black" d="M106.497,-110.867C124.123,-108.067 142.795,-105.101 157.764,-102.723"/>
<polygon fill="black" stroke="black" points="105.604,-107.465 96.2765,-112.49 106.702,-114.378 105.604,-107.465"/>
</g>
<!-- Node6 -->
<g id="node6" class="node"><title>Node6</title>
<g id="a_node6"><a xlink:href="a01210.html" target="_top" xlink:title="Convert 8&#45;bit Integer\l value">
<polygon fill="white" stroke="black" points="135.5,-39 135.5,-69 241.5,-69 241.5,-39 135.5,-39"/>
<text text-anchor="start" x="143.5" y="-57" font-family="Helvetica,sans-Serif" font-size="10.00">Convert 8&#45;bit Integer</text>
<text text-anchor="middle" x="188.5" y="-46" font-family="Helvetica,sans-Serif" font-size="10.00"> value</text>
</a>
</g>
</g>
<!-- Node0&#45;&gt;Node6 -->
<g id="edge6" class="edge"><title>Node0&#45;&gt;Node6</title>
<path fill="none" stroke="black" d="M77.3529,-105.683C93.3347,-97.6916 113.705,-87.6357 132,-79 138.976,-75.7069 146.487,-72.2591 153.66,-69.0125"/>
<polygon fill="black" stroke="black" points="75.3961,-102.749 68.0269,-110.361 78.5347,-109.006 75.3961,-102.749"/>
</g>
<!-- Node1 -->
<g id="node7" class="node"><title>Node1</title>
<g id="a_node7"><a xlink:href="a01205.html" target="_top" xlink:title="Vector Copy">
<polygon fill="white" stroke="black" points="153,-0.5 153,-19.5 224,-19.5 224,-0.5 153,-0.5"/>
<text text-anchor="middle" x="188.5" y="-7.5" font-family="Helvetica,sans-Serif" font-size="10.00">Vector Copy</text>
</a>
</g>
</g>
<!-- Node0&#45;&gt;Node1 -->
<g id="edge1" class="edge"><title>Node0&#45;&gt;Node1</title>
<path fill="none" stroke="black" d="M61.2989,-102.179C75.9984,-82.0883 102.358,-49.6694 132,-30 138.315,-25.8094 145.617,-22.3704 152.807,-19.5986"/>
<polygon fill="black" stroke="black" points="58.355,-100.279 55.3956,-110.452 64.0531,-104.345 58.355,-100.279"/>
</g>
</g>
</svg>
