<?xml version="1.0" encoding="UTF-8" standalone="no"?>
<!DOCTYPE svg PUBLIC "-//W3C//DTD SVG 1.1//EN"
 "http://www.w3.org/Graphics/SVG/1.1/DTD/svg11.dtd">
<!-- Generated by graphviz version 2.38.0 (20140413.2041)
 -->
<!-- Title: SCB_CleanInvalidateDCache_by_Addr Pages: 1 -->
<svg width="404pt" height="53pt"
 viewBox="0.00 0.00 404.00 52.50" xmlns="http://www.w3.org/2000/svg" xmlns:xlink="http://www.w3.org/1999/xlink">
<g id="graph0" class="graph" transform="scale(1 1) rotate(0) translate(4 48.5)">
<title>SCB_CleanInvalidateDCache_by_Addr</title>
<polygon fill="white" stroke="none" points="-4,4 -4,-48.5 400,-48.5 400,4 -4,4"/>
<!-- Node1 -->
<g id="node1" class="node"><title>Node1</title>
<polygon fill="#bfbfbf" stroke="black" points="0,-0.5 0,-30.5 146,-30.5 146,-0.5 0,-0.5"/>
<text text-anchor="start" x="8" y="-18.5" font-family="Helvetica,sans-Serif" font-size="10.00">SCB_CleanInvalidateDCache</text>
<text text-anchor="middle" x="73" y="-7.5" font-family="Helvetica,sans-Serif" font-size="10.00">_by_Addr</text>
</g>
<!-- Node2 -->
<g id="node2" class="node"><title>Node2</title>
<g id="a_node2"><a xlink:href="a01141.html#gae4e8f0238527c69f522029b93c8e5b78" target="_top" xlink:title="System Tick Configuration. ">
<polygon fill="white" stroke="black" points="182,-25 182,-44 268,-44 268,-25 182,-25"/>
<text text-anchor="middle" x="225" y="-32" font-family="Helvetica,sans-Serif" font-size="10.00">SysTick_Config</text>
</a>
</g>
</g>
<!-- Node1&#45;&gt;Node2 -->
<g id="edge1" class="edge"><title>Node1&#45;&gt;Node2</title>
<path fill="none" stroke="midnightblue" d="M146.364,-24.6661C154.897,-25.747 163.476,-26.8337 171.659,-27.8701"/>
<polygon fill="midnightblue" stroke="midnightblue" points="171.416,-31.3673 181.777,-29.1517 172.296,-24.4228 171.416,-31.3673"/>
</g>
<!-- Node3 -->
<g id="node3" class="node"><title>Node3</title>
<g id="a_node3"><a xlink:href="a01140.html#ga2305cbd44aaad792e3a4e538bdaf14f9" target="_top" xlink:title="Set Interrupt Priority. ">
<polygon fill="white" stroke="black" points="304,-6 304,-25 396,-25 396,-6 304,-6"/>
<text text-anchor="middle" x="350" y="-13" font-family="Helvetica,sans-Serif" font-size="10.00">NVIC_SetPriority</text>
</a>
</g>
</g>
<!-- Node1&#45;&gt;Node3 -->
<g id="edge3" class="edge"><title>Node1&#45;&gt;Node3</title>
<path fill="none" stroke="midnightblue" d="M146.253,-15.5C192.416,-15.5 251.351,-15.5 293.768,-15.5"/>
<polygon fill="midnightblue" stroke="midnightblue" points="293.907,-19.0001 303.907,-15.5 293.907,-12.0001 293.907,-19.0001"/>
</g>
<!-- Node2&#45;&gt;Node3 -->
<g id="edge2" class="edge"><title>Node2&#45;&gt;Node3</title>
<path fill="none" stroke="midnightblue" d="M268.33,-27.9613C276.521,-26.696 285.216,-25.3528 293.75,-24.0346"/>
<polygon fill="midnightblue" stroke="midnightblue" points="294.304,-27.4906 303.652,-22.5049 293.235,-20.5726 294.304,-27.4906"/>
</g>
</g>
</svg>
