<?xml version="1.0" encoding="UTF-8" standalone="no"?>
<!DOCTYPE svg PUBLIC "-//W3C//DTD SVG 1.1//EN"
 "http://www.w3.org/Graphics/SVG/1.1/DTD/svg11.dtd">
<!-- Generated by graphviz version 2.38.0 (20140413.2041)
 -->
<!-- Title: Interpolation Functions Pages: 1 -->
<svg width="265pt" height="66pt"
 viewBox="0.00 0.00 265.00 66.00" xmlns="http://www.w3.org/2000/svg" xmlns:xlink="http://www.w3.org/1999/xlink">
<g id="graph0" class="graph" transform="scale(1 1) rotate(0) translate(4 62)">
<title>Interpolation Functions</title>
<polygon fill="white" stroke="none" points="-4,4 -4,-62 261,-62 261,4 -4,4"/>
<!-- Node0 -->
<g id="node1" class="node"><title>Node0</title>
<polygon fill="#bfbfbf" stroke="black" points="0,-19.5 0,-38.5 116,-38.5 116,-19.5 0,-19.5"/>
<text text-anchor="middle" x="58" y="-26.5" font-family="Helvetica,sans-Serif" font-size="10.00">Interpolation Functions</text>
</g>
<!-- Node2 -->
<g id="node2" class="node"><title>Node2</title>
<g id="a_node2"><a xlink:href="a01133.html" target="_top" xlink:title="Bilinear Interpolation">
<polygon fill="white" stroke="black" points="152,-38.5 152,-57.5 257,-57.5 257,-38.5 152,-38.5"/>
<text text-anchor="middle" x="204.5" y="-45.5" font-family="Helvetica,sans-Serif" font-size="10.00">Bilinear Interpolation</text>
</a>
</g>
</g>
<!-- Node0&#45;&gt;Node2 -->
<g id="edge2" class="edge"><title>Node0&#45;&gt;Node2</title>
<path fill="none" stroke="black" d="M126.199,-37.8359C134.857,-38.9742 143.612,-40.1254 151.963,-41.2235"/>
<polygon fill="black" stroke="black" points="126.481,-34.3429 116.11,-36.5093 125.569,-41.2832 126.481,-34.3429"/>
</g>
<!-- Node1 -->
<g id="node3" class="node"><title>Node1</title>
<g id="a_node3"><a xlink:href="a01131.html" target="_top" xlink:title="Linear Interpolation">
<polygon fill="white" stroke="black" points="155,-0.5 155,-19.5 254,-19.5 254,-0.5 155,-0.5"/>
<text text-anchor="middle" x="204.5" y="-7.5" font-family="Helvetica,sans-Serif" font-size="10.00">Linear Interpolation</text>
</a>
</g>
</g>
<!-- Node0&#45;&gt;Node1 -->
<g id="edge1" class="edge"><title>Node0&#45;&gt;Node1</title>
<path fill="none" stroke="black" d="M126.097,-20.1775C135.752,-18.9081 145.529,-17.6224 154.736,-16.4118"/>
<polygon fill="black" stroke="black" points="125.569,-16.7168 116.11,-21.4907 126.481,-23.6571 125.569,-16.7168"/>
</g>
</g>
</svg>
