<?xml version="1.0" encoding="UTF-8" standalone="no"?>
<!DOCTYPE svg PUBLIC "-//W3C//DTD SVG 1.1//EN"
 "http://www.w3.org/Graphics/SVG/1.1/DTD/svg11.dtd">
<!-- Generated by graphviz version 2.38.0 (20140413.2041)
 -->
<!-- Title: HASH_GetDigest Pages: 1 -->
<svg width="217pt" height="142pt"
 viewBox="0.00 0.00 217.00 142.00" xmlns="http://www.w3.org/2000/svg" xmlns:xlink="http://www.w3.org/1999/xlink">
<g id="graph0" class="graph" transform="scale(1 1) rotate(0) translate(4 138)">
<title>HASH_GetDigest</title>
<polygon fill="white" stroke="none" points="-4,4 -4,-138 213,-138 213,4 -4,4"/>
<!-- Node1 -->
<g id="node1" class="node"><title>Node1</title>
<polygon fill="#bfbfbf" stroke="black" points="0,-57.5 0,-76.5 95,-76.5 95,-57.5 0,-57.5"/>
<text text-anchor="middle" x="47.5" y="-64.5" font-family="Helvetica,sans-Serif" font-size="10.00">HASH_GetDigest</text>
</g>
<!-- Node2 -->
<g id="node2" class="node"><title>Node2</title>
<g id="a_node2"><a xlink:href="a01125.html#ga82a155884e458cc6b7c1a4565c1ac8e9" target="_top" xlink:title="Compute the HASH MD5 digest. ">
<polygon fill="white" stroke="black" points="134.5,-114.5 134.5,-133.5 205.5,-133.5 205.5,-114.5 134.5,-114.5"/>
<text text-anchor="middle" x="170" y="-121.5" font-family="Helvetica,sans-Serif" font-size="10.00">HASH_MD5</text>
</a>
</g>
</g>
<!-- Node1&#45;&gt;Node2 -->
<g id="edge1" class="edge"><title>Node1&#45;&gt;Node2</title>
<path fill="none" stroke="midnightblue" d="M77.8789,-80.8971C99.8651,-91.2972 129.366,-105.252 148.765,-114.428"/>
<polygon fill="midnightblue" stroke="midnightblue" points="79.2053,-77.6527 68.669,-76.5405 76.212,-83.9805 79.2053,-77.6527"/>
</g>
<!-- Node3 -->
<g id="node3" class="node"><title>Node3</title>
<g id="a_node3"><a xlink:href="a01125.html#gac61733e7aa66bdd2f21be4b34165b5be" target="_top" xlink:title="Compute the HMAC MD5 digest. ">
<polygon fill="white" stroke="black" points="133.5,-76.5 133.5,-95.5 206.5,-95.5 206.5,-76.5 133.5,-76.5"/>
<text text-anchor="middle" x="170" y="-83.5" font-family="Helvetica,sans-Serif" font-size="10.00">HMAC_MD5</text>
</a>
</g>
</g>
<!-- Node1&#45;&gt;Node3 -->
<g id="edge2" class="edge"><title>Node1&#45;&gt;Node3</title>
<path fill="none" stroke="midnightblue" d="M105.053,-75.917C114.698,-77.4379 124.47,-78.9787 133.376,-80.3829"/>
<polygon fill="midnightblue" stroke="midnightblue" points="105.512,-72.4462 95.0884,-74.3459 104.421,-79.3608 105.512,-72.4462"/>
</g>
<!-- Node4 -->
<g id="node4" class="node"><title>Node4</title>
<g id="a_node4"><a xlink:href="a01126.html#ga2728c02c36de6d800e1ede56ea7789cb" target="_top" xlink:title="Compute the HASH SHA1 digest. ">
<polygon fill="white" stroke="black" points="131.5,-38.5 131.5,-57.5 208.5,-57.5 208.5,-38.5 131.5,-38.5"/>
<text text-anchor="middle" x="170" y="-45.5" font-family="Helvetica,sans-Serif" font-size="10.00">HASH_SHA1</text>
</a>
</g>
</g>
<!-- Node1&#45;&gt;Node4 -->
<g id="edge3" class="edge"><title>Node1&#45;&gt;Node4</title>
<path fill="none" stroke="midnightblue" d="M105.106,-58.0745C114.058,-56.6631 123.116,-55.2348 131.489,-53.9147"/>
<polygon fill="midnightblue" stroke="midnightblue" points="104.421,-54.6392 95.0884,-59.6541 105.512,-61.5538 104.421,-54.6392"/>
</g>
<!-- Node5 -->
<g id="node5" class="node"><title>Node5</title>
<g id="a_node5"><a xlink:href="a01126.html#ga2e38e900ca7838c1cea17cef19953a5e" target="_top" xlink:title="Compute the HMAC SHA1 digest. ">
<polygon fill="white" stroke="black" points="131,-0.5 131,-19.5 209,-19.5 209,-0.5 131,-0.5"/>
<text text-anchor="middle" x="170" y="-7.5" font-family="Helvetica,sans-Serif" font-size="10.00">HMAC_SHA1</text>
</a>
</g>
</g>
<!-- Node1&#45;&gt;Node5 -->
<g id="edge4" class="edge"><title>Node1&#45;&gt;Node5</title>
<path fill="none" stroke="midnightblue" d="M77.8789,-53.1029C99.8651,-42.7028 129.366,-28.748 148.765,-19.5716"/>
<polygon fill="midnightblue" stroke="midnightblue" points="76.212,-50.0195 68.669,-57.4595 79.2053,-56.3473 76.212,-50.0195"/>
</g>
</g>
</svg>
