<?xml version="1.0" encoding="UTF-8" standalone="no"?>
<!DOCTYPE svg PUBLIC "-//W3C//DTD SVG 1.1//EN"
 "http://www.w3.org/Graphics/SVG/1.1/DTD/svg11.dtd">
<!-- Generated by graphviz version 2.38.0 (20140413.2041)
 -->
<!-- Title: Functions and Instructions Reference Pages: 1 -->
<svg width="289pt" height="230pt"
 viewBox="0.00 0.00 289.00 229.50" xmlns="http://www.w3.org/2000/svg" xmlns:xlink="http://www.w3.org/1999/xlink">
<g id="graph0" class="graph" transform="scale(1 1) rotate(0) translate(4 225.5)">
<title>Functions and Instructions Reference</title>
<polygon fill="white" stroke="none" points="-4,4 -4,-225.5 285,-225.5 285,4 -4,4"/>
<!-- Node0 -->
<g id="node1" class="node"><title>Node0</title>
<polygon fill="#bfbfbf" stroke="black" points="0,-101.5 0,-131.5 132,-131.5 132,-101.5 0,-101.5"/>
<text text-anchor="start" x="8" y="-119.5" font-family="Helvetica,sans-Serif" font-size="10.00">Functions and Instructions</text>
<text text-anchor="middle" x="66" y="-108.5" font-family="Helvetica,sans-Serif" font-size="10.00"> Reference</text>
</g>
<!-- Node4 -->
<g id="node2" class="node"><title>Node4</title>
<g id="a_node2"><a xlink:href="a01144.html" target="_top" xlink:title="Functions that access the ITM debug interface. ">
<polygon fill="white" stroke="black" points="184.5,-202 184.5,-221 264.5,-221 264.5,-202 184.5,-202"/>
<text text-anchor="middle" x="224.5" y="-209" font-family="Helvetica,sans-Serif" font-size="10.00">ITM Functions</text>
</a>
</g>
</g>
<!-- Node0&#45;&gt;Node4 -->
<g id="edge4" class="edge"><title>Node0&#45;&gt;Node4</title>
<path fill="none" stroke="black" d="M91.5412,-138.482C111.119,-155.116 139.838,-177.571 168,-192.5 174.839,-196.125 182.508,-199.273 189.913,-201.906"/>
<polygon fill="black" stroke="black" points="93.596,-135.633 83.7386,-131.749 89.0226,-140.932 93.596,-135.633"/>
</g>
<!-- Node2 -->
<g id="node3" class="node"><title>Node2</title>
<g id="a_node3"><a xlink:href="a01142.html" target="_top" xlink:title="Functions that manage interrupts and exceptions via the NVIC. ">
<polygon fill="white" stroke="black" points="181,-164 181,-183 268,-183 268,-164 181,-164"/>
<text text-anchor="middle" x="224.5" y="-171" font-family="Helvetica,sans-Serif" font-size="10.00">NVIC Functions</text>
</a>
</g>
</g>
<!-- Node0&#45;&gt;Node2 -->
<g id="edge2" class="edge"><title>Node0&#45;&gt;Node2</title>
<path fill="none" stroke="black" d="M115.71,-135.164C132.267,-141.418 150.903,-148.359 168,-154.5 176.818,-157.667 186.466,-161.012 195.208,-163.998"/>
<polygon fill="black" stroke="black" points="116.822,-131.842 106.23,-131.573 114.342,-138.388 116.822,-131.842"/>
</g>
<!-- Node5 -->
<g id="node4" class="node"><title>Node5</title>
<g id="a_node4"><a xlink:href="a01145.html" target="_top" xlink:title="Function that provides FPU type. ">
<polygon fill="white" stroke="black" points="183,-126 183,-145 266,-145 266,-126 183,-126"/>
<text text-anchor="middle" x="224.5" y="-133" font-family="Helvetica,sans-Serif" font-size="10.00">FPU Functions</text>
</a>
</g>
</g>
<!-- Node0&#45;&gt;Node5 -->
<g id="edge5" class="edge"><title>Node0&#45;&gt;Node5</title>
<path fill="none" stroke="black" d="M142.123,-125.62C156.078,-127.315 170.167,-129.025 182.608,-130.536"/>
<polygon fill="black" stroke="black" points="142.359,-122.123 132.01,-124.393 141.516,-129.072 142.359,-122.123"/>
</g>
<!-- Node6 -->
<g id="node5" class="node"><title>Node6</title>
<g id="a_node5"><a xlink:href="a01146.html" target="_top" xlink:title="Functions that configure Instruction and Data cache. ">
<polygon fill="white" stroke="black" points="179,-88 179,-107 270,-107 270,-88 179,-88"/>
<text text-anchor="middle" x="224.5" y="-95" font-family="Helvetica,sans-Serif" font-size="10.00">Cache Functions</text>
</a>
</g>
</g>
<!-- Node0&#45;&gt;Node6 -->
<g id="edge6" class="edge"><title>Node0&#45;&gt;Node6</title>
<path fill="none" stroke="black" d="M142.075,-107.385C154.686,-105.854 167.407,-104.31 178.925,-102.912"/>
<polygon fill="black" stroke="black" points="141.516,-103.928 132.01,-108.607 142.359,-110.877 141.516,-103.928"/>
</g>
<!-- Node3 -->
<g id="node6" class="node"><title>Node3</title>
<g id="a_node6"><a xlink:href="a01143.html" target="_top" xlink:title="Functions that configure the System. ">
<polygon fill="white" stroke="black" points="175.5,-50 175.5,-69 273.5,-69 273.5,-50 175.5,-50"/>
<text text-anchor="middle" x="224.5" y="-57" font-family="Helvetica,sans-Serif" font-size="10.00">SysTick Functions</text>
</a>
</g>
</g>
<!-- Node0&#45;&gt;Node3 -->
<g id="edge3" class="edge"><title>Node0&#45;&gt;Node3</title>
<path fill="none" stroke="black" d="M115.71,-97.836C132.267,-91.5823 150.903,-84.6413 168,-78.5 176.818,-75.3326 186.466,-71.9879 195.208,-69.0024"/>
<polygon fill="black" stroke="black" points="114.342,-94.6118 106.23,-101.427 116.822,-101.158 114.342,-94.6118"/>
</g>
<!-- Node1 -->
<g id="node7" class="node"><title>Node1</title>
<g id="a_node7"><a xlink:href="a01134.html" target="_top" xlink:title="CMSIS Core Register\l Access Functions">
<polygon fill="white" stroke="black" points="168,-0.5 168,-30.5 281,-30.5 281,-0.5 168,-0.5"/>
<text text-anchor="start" x="176" y="-18.5" font-family="Helvetica,sans-Serif" font-size="10.00">CMSIS Core Register</text>
<text text-anchor="middle" x="224.5" y="-7.5" font-family="Helvetica,sans-Serif" font-size="10.00"> Access Functions</text>
</a>
</g>
</g>
<!-- Node0&#45;&gt;Node1 -->
<g id="edge1" class="edge"><title>Node0&#45;&gt;Node1</title>
<path fill="none" stroke="black" d="M92.6693,-94.657C112.443,-78.471 140.896,-56.5322 168,-40.5 174.003,-36.949 180.6,-33.5674 187.085,-30.5037"/>
<polygon fill="black" stroke="black" points="90.2271,-92.135 84.7555,-101.208 94.6906,-97.5273 90.2271,-92.135"/>
</g>
</g>
</svg>
