<?xml version="1.0" encoding="UTF-8" standalone="no"?>
<!DOCTYPE svg PUBLIC "-//W3C//DTD SVG 1.1//EN"
 "http://www.w3.org/Graphics/SVG/1.1/DTD/svg11.dtd">
<!-- Generated by graphviz version 2.38.0 (20140413.2041)
 -->
<!-- Title: FLASH_WaitForLastOperation Pages: 1 -->
<svg width="291pt" height="28pt"
 viewBox="0.00 0.00 291.00 28.00" xmlns="http://www.w3.org/2000/svg" xmlns:xlink="http://www.w3.org/1999/xlink">
<g id="graph0" class="graph" transform="scale(1 1) rotate(0) translate(4 24)">
<title>FLASH_WaitForLastOperation</title>
<polygon fill="white" stroke="none" points="-4,4 -4,-24 287,-24 287,4 -4,4"/>
<!-- Node1 -->
<g id="node1" class="node"><title>Node1</title>
<polygon fill="#bfbfbf" stroke="black" points="-2.84217e-14,-0.5 -2.84217e-14,-19.5 149,-19.5 149,-0.5 -2.84217e-14,-0.5"/>
<text text-anchor="middle" x="74.5" y="-7.5" font-family="Helvetica,sans-Serif" font-size="10.00">FLASH_WaitForLastOperation</text>
</g>
<!-- Node2 -->
<g id="node2" class="node"><title>Node2</title>
<g id="a_node2"><a xlink:href="a01112.html#gac265b8d1e7ea11e44ceee28797c3debb" target="_top" xlink:title="Returns the FLASH Status. ">
<polygon fill="white" stroke="black" points="185,-0.5 185,-19.5 283,-19.5 283,-0.5 185,-0.5"/>
<text text-anchor="middle" x="234" y="-7.5" font-family="Helvetica,sans-Serif" font-size="10.00">FLASH_GetStatus</text>
</a>
</g>
</g>
<!-- Node1&#45;&gt;Node2 -->
<g id="edge1" class="edge"><title>Node1&#45;&gt;Node2</title>
<path fill="none" stroke="midnightblue" d="M149.177,-10C157.621,-10 166.143,-10 174.353,-10"/>
<polygon fill="midnightblue" stroke="midnightblue" points="174.555,-13.5001 184.555,-10 174.555,-6.5001 174.555,-13.5001"/>
</g>
</g>
</svg>
