<?xml version="1.0" encoding="UTF-8" standalone="no"?>
<!DOCTYPE svg PUBLIC "-//W3C//DTD SVG 1.1//EN"
 "http://www.w3.org/Graphics/SVG/1.1/DTD/svg11.dtd">
<!-- Generated by graphviz version 2.38.0 (20140413.2041)
 -->
<!-- Title: FLASH_EraseAllSectors Pages: 1 -->
<svg width="452pt" height="28pt"
 viewBox="0.00 0.00 452.00 28.00" xmlns="http://www.w3.org/2000/svg" xmlns:xlink="http://www.w3.org/1999/xlink">
<g id="graph0" class="graph" transform="scale(1 1) rotate(0) translate(4 24)">
<title>FLASH_EraseAllSectors</title>
<polygon fill="white" stroke="none" points="-4,4 -4,-24 448,-24 448,4 -4,4"/>
<!-- Node1 -->
<g id="node1" class="node"><title>Node1</title>
<polygon fill="#bfbfbf" stroke="black" points="0,-0.5 0,-19.5 125,-19.5 125,-0.5 0,-0.5"/>
<text text-anchor="middle" x="62.5" y="-7.5" font-family="Helvetica,sans-Serif" font-size="10.00">FLASH_EraseAllSectors</text>
</g>
<!-- Node2 -->
<g id="node2" class="node"><title>Node2</title>
<g id="a_node2"><a xlink:href="a01112.html#gaaf8ea3b00c9a5f5eca0df9a795b83f22" target="_top" xlink:title="Waits for a FLASH operation to complete. ">
<polygon fill="white" stroke="black" points="161,-0.5 161,-19.5 310,-19.5 310,-0.5 161,-0.5"/>
<text text-anchor="middle" x="235.5" y="-7.5" font-family="Helvetica,sans-Serif" font-size="10.00">FLASH_WaitForLastOperation</text>
</a>
</g>
</g>
<!-- Node1&#45;&gt;Node2 -->
<g id="edge1" class="edge"><title>Node1&#45;&gt;Node2</title>
<path fill="none" stroke="midnightblue" d="M125.235,-10C133.555,-10 142.201,-10 150.822,-10"/>
<polygon fill="midnightblue" stroke="midnightblue" points="150.911,-13.5001 160.911,-10 150.911,-6.5001 150.911,-13.5001"/>
</g>
<!-- Node3 -->
<g id="node3" class="node"><title>Node3</title>
<g id="a_node3"><a xlink:href="a01112.html#gac265b8d1e7ea11e44ceee28797c3debb" target="_top" xlink:title="Returns the FLASH Status. ">
<polygon fill="white" stroke="black" points="346,-0.5 346,-19.5 444,-19.5 444,-0.5 346,-0.5"/>
<text text-anchor="middle" x="395" y="-7.5" font-family="Helvetica,sans-Serif" font-size="10.00">FLASH_GetStatus</text>
</a>
</g>
</g>
<!-- Node2&#45;&gt;Node3 -->
<g id="edge2" class="edge"><title>Node2&#45;&gt;Node3</title>
<path fill="none" stroke="midnightblue" d="M310.177,-10C318.621,-10 327.143,-10 335.353,-10"/>
<polygon fill="midnightblue" stroke="midnightblue" points="335.555,-13.5001 345.555,-10 335.555,-6.5001 335.555,-13.5001"/>
</g>
</g>
</svg>
