<?xml version="1.0" encoding="UTF-8" standalone="no"?>
<!DOCTYPE svg PUBLIC "-//W3C//DTD SVG 1.1//EN"
 "http://www.w3.org/Graphics/SVG/1.1/DTD/svg11.dtd">
<!-- Generated by graphviz version 2.38.0 (20140413.2041)
 -->
<!-- Title: SystemInit Pages: 1 -->
<svg width="346pt" height="47pt"
 viewBox="0.00 0.00 346.00 47.00" xmlns="http://www.w3.org/2000/svg" xmlns:xlink="http://www.w3.org/1999/xlink">
<g id="graph0" class="graph" transform="scale(1 1) rotate(0) translate(4 43)">
<title>SystemInit</title>
<polygon fill="white" stroke="none" points="-4,4 -4,-43 342,-43 342,4 -4,4"/>
<!-- Node1 -->
<g id="node1" class="node"><title>Node1</title>
<polygon fill="#bfbfbf" stroke="black" points="0,-19.5 0,-38.5 64,-38.5 64,-19.5 0,-19.5"/>
<text text-anchor="middle" x="32" y="-26.5" font-family="Helvetica,sans-Serif" font-size="10.00">SystemInit</text>
</g>
<!-- Node2 -->
<g id="node2" class="node"><title>Node2</title>
<g id="a_node2"><a xlink:href="a01292.html#ga1ee14ac28e60198cc998586807b51e4c" target="_top" xlink:title="Configures the System clock source, PLL Multiplier and Divider factors, AHB/APBx prescalers and Flash...">
<polygon fill="white" stroke="black" points="264,-19.5 264,-38.5 338,-38.5 338,-19.5 264,-19.5"/>
<text text-anchor="middle" x="301" y="-26.5" font-family="Helvetica,sans-Serif" font-size="10.00">SetSysClock</text>
</a>
</g>
</g>
<!-- Node1&#45;&gt;Node2 -->
<g id="edge1" class="edge"><title>Node1&#45;&gt;Node2</title>
<path fill="none" stroke="midnightblue" d="M64.1508,-29C110.933,-29 199.622,-29 253.908,-29"/>
<polygon fill="midnightblue" stroke="midnightblue" points="253.954,-32.5001 263.954,-29 253.954,-25.5001 253.954,-32.5001"/>
</g>
<!-- Node3 -->
<g id="node3" class="node"><title>Node3</title>
<g id="a_node3"><a xlink:href="a01292.html#gae0c36a9591fe6e9c45ecb21a794f0f0f" target="_top" xlink:title="Update SystemCoreClock variable according to Clock Register Values. The SystemCoreClock variable cont...">
<polygon fill="white" stroke="black" points="100,-0.5 100,-19.5 228,-19.5 228,-0.5 100,-0.5"/>
<text text-anchor="middle" x="164" y="-7.5" font-family="Helvetica,sans-Serif" font-size="10.00">SystemCoreClockUpdate</text>
</a>
</g>
</g>
<!-- Node1&#45;&gt;Node3 -->
<g id="edge2" class="edge"><title>Node1&#45;&gt;Node3</title>
<path fill="none" stroke="midnightblue" d="M64.1382,-24.449C72.0817,-23.2881 80.9613,-21.9903 90.0515,-20.6617"/>
<polygon fill="midnightblue" stroke="midnightblue" points="90.5749,-24.1225 99.9635,-19.213 89.5625,-17.1961 90.5749,-24.1225"/>
</g>
<!-- Node3&#45;&gt;Node2 -->
<g id="edge3" class="edge"><title>Node3&#45;&gt;Node2</title>
<path fill="none" stroke="midnightblue" d="M228.152,-18.8881C236.741,-20.0968 245.424,-21.3189 253.642,-22.4755"/>
<polygon fill="midnightblue" stroke="midnightblue" points="253.37,-25.9717 263.76,-23.8996 254.345,-19.04 253.37,-25.9717"/>
</g>
</g>
</svg>
