<?xml version="1.0" encoding="UTF-8" standalone="no"?>
<!DOCTYPE svg PUBLIC "-//W3C//DTD SVG 1.1//EN"
 "http://www.w3.org/Graphics/SVG/1.1/DTD/svg11.dtd">
<!-- Generated by graphviz version 2.38.0 (20140413.2041)
 -->
<!-- Title: MD_DAC_Init Pages: 1 -->
<svg width="203pt" height="66pt"
 viewBox="0.00 0.00 203.00 66.00" xmlns="http://www.w3.org/2000/svg" xmlns:xlink="http://www.w3.org/1999/xlink">
<g id="graph0" class="graph" transform="scale(1 1) rotate(0) translate(4 62)">
<title>MD_DAC_Init</title>
<polygon fill="white" stroke="none" points="-4,4 -4,-62 199,-62 199,4 -4,4"/>
<!-- Node1 -->
<g id="node1" class="node"><title>Node1</title>
<polygon fill="#bfbfbf" stroke="black" points="0,-19.5 0,-38.5 78,-38.5 78,-19.5 0,-19.5"/>
<text text-anchor="middle" x="39" y="-26.5" font-family="Helvetica,sans-Serif" font-size="10.00">MD_DAC_Init</text>
</g>
<!-- Node2 -->
<g id="node2" class="node"><title>Node2</title>
<g id="a_node2"><a xlink:href="a01229.html#ga76a4711f406d06b13979cb89d6358cfc" target="_top" xlink:title="Initialize GPIO pins. ">
<polygon fill="white" stroke="black" points="114,-38.5 114,-57.5 195,-57.5 195,-38.5 114,-38.5"/>
<text text-anchor="middle" x="154.5" y="-45.5" font-family="Helvetica,sans-Serif" font-size="10.00">MD_GPIO_Init</text>
</a>
</g>
</g>
<!-- Node1&#45;&gt;Node2 -->
<g id="edge1" class="edge"><title>Node1&#45;&gt;Node2</title>
<path fill="none" stroke="midnightblue" d="M78.1096,-35.3796C86.3488,-36.7588 95.1777,-38.2368 103.787,-39.678"/>
<polygon fill="midnightblue" stroke="midnightblue" points="103.304,-43.1458 113.745,-41.3449 104.46,-36.2418 103.304,-43.1458"/>
</g>
<!-- Node3 -->
<g id="node3" class="node"><title>Node3</title>
<g id="a_node3"><a xlink:href="a00094.html#ga7c59850468ed4bf0659663fe495441da" target="_top" xlink:title="Initializes the DAC peripheral according to the specified parameters in the DAC_InitStruct. ">
<polygon fill="white" stroke="black" points="126,-0.5 126,-19.5 183,-19.5 183,-0.5 126,-0.5"/>
<text text-anchor="middle" x="154.5" y="-7.5" font-family="Helvetica,sans-Serif" font-size="10.00">DAC_Init</text>
</a>
</g>
</g>
<!-- Node1&#45;&gt;Node3 -->
<g id="edge2" class="edge"><title>Node1&#45;&gt;Node3</title>
<path fill="none" stroke="midnightblue" d="M78.1096,-22.6204C90.1635,-20.6026 103.48,-18.3735 115.524,-16.3572"/>
<polygon fill="midnightblue" stroke="midnightblue" points="116.433,-19.7539 125.718,-14.6508 115.277,-12.8499 116.433,-19.7539"/>
</g>
</g>
</svg>
