<?xml version="1.0" encoding="UTF-8" standalone="no"?>
<!DOCTYPE svg PUBLIC "-//W3C//DTD SVG 1.1//EN"
 "http://www.w3.org/Graphics/SVG/1.1/DTD/svg11.dtd">
<!-- Generated by graphviz version 2.38.0 (20140413.2041)
 -->
<!-- Title: MDB_GPIO_Init Pages: 1 -->
<svg width="277pt" height="142pt"
 viewBox="0.00 0.00 277.00 142.00" xmlns="http://www.w3.org/2000/svg" xmlns:xlink="http://www.w3.org/1999/xlink">
<g id="graph0" class="graph" transform="scale(1 1) rotate(0) translate(4 138)">
<title>MDB_GPIO_Init</title>
<polygon fill="white" stroke="none" points="-4,4 -4,-138 273,-138 273,4 -4,4"/>
<!-- Node1 -->
<g id="node1" class="node"><title>Node1</title>
<polygon fill="#bfbfbf" stroke="black" points="0,-57.5 0,-76.5 88,-76.5 88,-57.5 0,-57.5"/>
<text text-anchor="middle" x="44" y="-64.5" font-family="Helvetica,sans-Serif" font-size="10.00">MDB_GPIO_Init</text>
</g>
<!-- Node2 -->
<g id="node2" class="node"><title>Node2</title>
<g id="a_node2"><a xlink:href="a00111.html#ga80c89116820d48bb38db2e7d5e5a49b9" target="_top" xlink:title="Enables or disables the AHB1 peripheral clock. ">
<polygon fill="white" stroke="black" points="124,-114.5 124,-133.5 269,-133.5 269,-114.5 124,-114.5"/>
<text text-anchor="middle" x="196.5" y="-121.5" font-family="Helvetica,sans-Serif" font-size="10.00">RCC_AHB1PeriphClockCmd</text>
</a>
</g>
</g>
<!-- Node1&#45;&gt;Node2 -->
<g id="edge1" class="edge"><title>Node1&#45;&gt;Node2</title>
<path fill="none" stroke="midnightblue" d="M62.4677,-76.5838C78.2061,-84.9305 102.158,-96.9271 124,-105 130.475,-107.393 137.384,-109.619 144.258,-111.643"/>
<polygon fill="midnightblue" stroke="midnightblue" points="143.675,-115.115 154.25,-114.458 145.574,-108.377 143.675,-115.115"/>
</g>
<!-- Node3 -->
<g id="node3" class="node"><title>Node3</title>
<g id="a_node3"><a xlink:href="a00102.html#ga71abf9404261370d03cca449b88d3a65" target="_top" xlink:title="Initializes the GPIOx peripheral according to the specified parameters in the GPIO_InitStruct. ">
<polygon fill="white" stroke="black" points="166.5,-76.5 166.5,-95.5 226.5,-95.5 226.5,-76.5 166.5,-76.5"/>
<text text-anchor="middle" x="196.5" y="-83.5" font-family="Helvetica,sans-Serif" font-size="10.00">GPIO_Init</text>
</a>
</g>
</g>
<!-- Node1&#45;&gt;Node3 -->
<g id="edge2" class="edge"><title>Node1&#45;&gt;Node3</title>
<path fill="none" stroke="midnightblue" d="M88.1273,-72.4446C109.527,-75.1463 135.195,-78.3867 156.067,-81.0218"/>
<polygon fill="midnightblue" stroke="midnightblue" points="155.832,-84.5198 166.192,-82.3 156.709,-77.5749 155.832,-84.5198"/>
</g>
<!-- Node4 -->
<g id="node4" class="node"><title>Node4</title>
<g id="a_node4"><a xlink:href="a01261.html#ga1de48ba66939a9726f7930fc6a1e653a" target="_top" xlink:title="MDB_GPIO_Off">
<polygon fill="white" stroke="black" points="152.5,-38.5 152.5,-57.5 240.5,-57.5 240.5,-38.5 152.5,-38.5"/>
<text text-anchor="middle" x="196.5" y="-45.5" font-family="Helvetica,sans-Serif" font-size="10.00">MDB_GPIO_Off</text>
</a>
</g>
</g>
<!-- Node1&#45;&gt;Node4 -->
<g id="edge3" class="edge"><title>Node1&#45;&gt;Node4</title>
<path fill="none" stroke="midnightblue" d="M88.1273,-61.5554C104.973,-59.4287 124.462,-56.9682 142.176,-54.732"/>
<polygon fill="midnightblue" stroke="midnightblue" points="142.884,-58.1705 152.366,-53.4454 142.007,-51.2256 142.884,-58.1705"/>
</g>
<!-- Node5 -->
<g id="node5" class="node"><title>Node5</title>
<g id="a_node5"><a xlink:href="a01261.html#ga9915de13874ce89948d7d860af7e28c8" target="_top" xlink:title="{ function_description } ">
<polygon fill="white" stroke="black" points="153,-0.5 153,-19.5 240,-19.5 240,-0.5 153,-0.5"/>
<text text-anchor="middle" x="196.5" y="-7.5" font-family="Helvetica,sans-Serif" font-size="10.00">MDB_GPIO_On</text>
</a>
</g>
</g>
<!-- Node1&#45;&gt;Node5 -->
<g id="edge4" class="edge"><title>Node1&#45;&gt;Node5</title>
<path fill="none" stroke="midnightblue" d="M62.4677,-57.4162C78.2061,-49.0695 102.158,-37.0729 124,-29 130.475,-26.6066 137.384,-24.3806 144.258,-22.3573"/>
<polygon fill="midnightblue" stroke="midnightblue" points="145.574,-25.6229 154.25,-19.5421 143.675,-18.8853 145.574,-25.6229"/>
</g>
</g>
</svg>
