<?xml version="1.0" encoding="UTF-8" standalone="no"?>
<!DOCTYPE svg PUBLIC "-//W3C//DTD SVG 1.1//EN"
 "http://www.w3.org/Graphics/SVG/1.1/DTD/svg11.dtd">
<!-- Generated by graphviz version 2.38.0 (20140413.2041)
 -->
<!-- Title: Stm32f4xx Pages: 1 -->
<svg width="318pt" height="291pt"
 viewBox="0.00 0.00 318.00 291.00" xmlns="http://www.w3.org/2000/svg" xmlns:xlink="http://www.w3.org/1999/xlink">
<g id="graph0" class="graph" transform="scale(1 1) rotate(0) translate(4 287)">
<title>Stm32f4xx</title>
<polygon fill="white" stroke="none" points="-4,4 -4,-287 314,-287 314,4 -4,4"/>
<!-- Node0 -->
<g id="node1" class="node"><title>Node0</title>
<polygon fill="#bfbfbf" stroke="black" points="85,-137.5 85,-156.5 149,-156.5 149,-137.5 85,-137.5"/>
<text text-anchor="middle" x="117" y="-144.5" font-family="Helvetica,sans-Serif" font-size="10.00">Stm32f4xx</text>
</g>
<!-- Node6 -->
<g id="node2" class="node"><title>Node6</title>
<g id="a_node2"><a xlink:href="a01303.html" target="_top" xlink:title="Peripheral_memory_map">
<polygon fill="white" stroke="black" points="185,-263.5 185,-282.5 310,-282.5 310,-263.5 185,-263.5"/>
<text text-anchor="middle" x="247.5" y="-270.5" font-family="Helvetica,sans-Serif" font-size="10.00">Peripheral_memory_map</text>
</a>
</g>
</g>
<!-- Node0&#45;&gt;Node6 -->
<g id="edge6" class="edge"><title>Node0&#45;&gt;Node6</title>
<path fill="none" stroke="black" d="M125.023,-166.016C134.831,-189.984 154.881,-230.841 185,-254 190.05,-257.883 195.899,-260.978 201.943,-263.445"/>
<polygon fill="black" stroke="black" points="128.243,-164.638 121.343,-156.597 121.723,-167.186 128.243,-164.638"/>
</g>
<!-- Node8 -->
<g id="node3" class="node"><title>Node8</title>
<g id="a_node3"><a xlink:href="a01305.html" target="_top" xlink:title="Exported_constants">
<polygon fill="white" stroke="black" points="195.5,-225.5 195.5,-244.5 299.5,-244.5 299.5,-225.5 195.5,-225.5"/>
<text text-anchor="middle" x="247.5" y="-232.5" font-family="Helvetica,sans-Serif" font-size="10.00">Exported_constants</text>
</a>
</g>
</g>
<!-- Node0&#45;&gt;Node8 -->
<g id="edge8" class="edge"><title>Node0&#45;&gt;Node8</title>
<path fill="none" stroke="black" d="M131.441,-165.301C143.762,-180.858 163.341,-202.725 185,-216 191.193,-219.796 198.206,-222.889 205.223,-225.392"/>
<polygon fill="black" stroke="black" points="133.925,-162.789 125.064,-156.982 128.37,-167.048 133.925,-162.789"/>
</g>
<!-- Node2 -->
<g id="node4" class="node"><title>Node2</title>
<g id="a_node4"><a xlink:href="a01300.html" target="_top" xlink:title="Library_configuration\l_section">
<polygon fill="white" stroke="black" points="194,-176 194,-206 301,-206 301,-176 194,-176"/>
<text text-anchor="start" x="202" y="-194" font-family="Helvetica,sans-Serif" font-size="10.00">Library_configuration</text>
<text text-anchor="middle" x="247.5" y="-183" font-family="Helvetica,sans-Serif" font-size="10.00">_section</text>
</a>
</g>
</g>
<!-- Node0&#45;&gt;Node2 -->
<g id="edge2" class="edge"><title>Node0&#45;&gt;Node2</title>
<path fill="none" stroke="black" d="M155.64,-159.888C170.324,-164.916 187.26,-170.715 202.502,-175.935"/>
<polygon fill="black" stroke="black" points="156.477,-156.476 145.883,-156.547 154.21,-163.098 156.477,-156.476"/>
</g>
<!-- Node4 -->
<g id="node5" class="node"><title>Node4</title>
<g id="a_node5"><a xlink:href="a01302.html" target="_top" xlink:title="Exported_types">
<polygon fill="white" stroke="black" points="205,-137.5 205,-156.5 290,-156.5 290,-137.5 205,-137.5"/>
<text text-anchor="middle" x="247.5" y="-144.5" font-family="Helvetica,sans-Serif" font-size="10.00">Exported_types</text>
</a>
</g>
</g>
<!-- Node0&#45;&gt;Node4 -->
<g id="edge4" class="edge"><title>Node0&#45;&gt;Node4</title>
<path fill="none" stroke="black" d="M159.366,-147C173.968,-147 190.383,-147 204.996,-147"/>
<polygon fill="black" stroke="black" points="159.106,-143.5 149.106,-147 159.106,-150.5 159.106,-143.5"/>
</g>
<!-- Node5 -->
<g id="node7" class="node"><title>Node5</title>
<g id="a_node7"><a xlink:href="a00027.html" target="_top" xlink:title="Peripheral_registers\l_structures">
<polygon fill="white" stroke="black" points="196,-88 196,-118 299,-118 299,-88 196,-88"/>
<text text-anchor="start" x="204" y="-106" font-family="Helvetica,sans-Serif" font-size="10.00">Peripheral_registers</text>
<text text-anchor="middle" x="247.5" y="-95" font-family="Helvetica,sans-Serif" font-size="10.00">_structures</text>
</a>
</g>
</g>
<!-- Node0&#45;&gt;Node5 -->
<g id="edge5" class="edge"><title>Node0&#45;&gt;Node5</title>
<path fill="none" stroke="black" d="M155.64,-134.112C170.324,-129.084 187.26,-123.285 202.502,-118.065"/>
<polygon fill="black" stroke="black" points="154.21,-130.902 145.883,-137.453 156.477,-137.524 154.21,-130.902"/>
</g>
<!-- Node3 -->
<g id="node8" class="node"><title>Node3</title>
<g id="a_node8"><a xlink:href="a01301.html" target="_top" xlink:title="Configuration_section\l_for_CMSIS">
<polygon fill="white" stroke="black" points="192,-39 192,-69 303,-69 303,-39 192,-39"/>
<text text-anchor="start" x="200" y="-57" font-family="Helvetica,sans-Serif" font-size="10.00">Configuration_section</text>
<text text-anchor="middle" x="247.5" y="-46" font-family="Helvetica,sans-Serif" font-size="10.00">_for_CMSIS</text>
</a>
</g>
</g>
<!-- Node0&#45;&gt;Node3 -->
<g id="edge3" class="edge"><title>Node0&#45;&gt;Node3</title>
<path fill="none" stroke="black" d="M131.685,-129.082C144.164,-113.771 163.836,-92.0508 185,-78 190.061,-74.6402 195.662,-71.6428 201.363,-69.0019"/>
<polygon fill="black" stroke="black" points="128.68,-127.239 125.212,-137.25 134.166,-131.587 128.68,-127.239"/>
</g>
<!-- Node7 -->
<g id="node9" class="node"><title>Node7</title>
<g id="a_node9"><a xlink:href="a01304.html" target="_top" xlink:title="Peripheral_declaration">
<polygon fill="white" stroke="black" points="191,-0.5 191,-19.5 304,-19.5 304,-0.5 191,-0.5"/>
<text text-anchor="middle" x="247.5" y="-7.5" font-family="Helvetica,sans-Serif" font-size="10.00">Peripheral_declaration</text>
</a>
</g>
</g>
<!-- Node0&#45;&gt;Node7 -->
<g id="edge7" class="edge"><title>Node0&#45;&gt;Node7</title>
<path fill="none" stroke="black" d="M123.836,-127.925C132.793,-101.814 152.4,-55.202 185,-29 189.791,-25.1496 195.362,-22.0766 201.156,-19.6248"/>
<polygon fill="black" stroke="black" points="120.505,-126.851 120.735,-137.443 127.161,-129.02 120.505,-126.851"/>
</g>
<!-- Node1 -->
<g id="node6" class="node"><title>Node1</title>
<g id="a_node6"><a xlink:href="a01279.html" target="_top" xlink:title="CMSIS">
<polygon fill="white" stroke="black" points="0,-137.5 0,-156.5 49,-156.5 49,-137.5 0,-137.5"/>
<text text-anchor="middle" x="24.5" y="-144.5" font-family="Helvetica,sans-Serif" font-size="10.00">CMSIS</text>
</a>
</g>
</g>
<!-- Node1&#45;&gt;Node0 -->
<g id="edge1" class="edge"><title>Node1&#45;&gt;Node0</title>
<path fill="none" stroke="black" d="M59.4579,-147C67.799,-147 76.6871,-147 84.8867,-147"/>
<polygon fill="black" stroke="black" points="59.2778,-143.5 49.2778,-147 59.2778,-150.5 59.2778,-143.5"/>
</g>
</g>
</svg>
