<?xml version="1.0" encoding="UTF-8" standalone="no"?>
<!DOCTYPE svg PUBLIC "-//W3C//DTD SVG 1.1//EN"
 "http://www.w3.org/Graphics/SVG/1.1/DTD/svg11.dtd">
<!-- Generated by graphviz version 2.38.0 (20140413.2041)
 -->
<!-- Title: MDB_GPIO_Switch Pages: 1 -->
<svg width="293pt" height="142pt"
 viewBox="0.00 0.00 293.00 142.00" xmlns="http://www.w3.org/2000/svg" xmlns:xlink="http://www.w3.org/1999/xlink">
<g id="graph0" class="graph" transform="scale(1 1) rotate(0) translate(4 138)">
<title>MDB_GPIO_Switch</title>
<polygon fill="white" stroke="none" points="-4,4 -4,-138 289,-138 289,4 -4,4"/>
<!-- Node1 -->
<g id="node1" class="node"><title>Node1</title>
<polygon fill="#bfbfbf" stroke="black" points="0,-57.5 0,-76.5 104,-76.5 104,-57.5 0,-57.5"/>
<text text-anchor="middle" x="52" y="-64.5" font-family="Helvetica,sans-Serif" font-size="10.00">MDB_GPIO_Switch</text>
</g>
<!-- Node2 -->
<g id="node2" class="node"><title>Node2</title>
<g id="a_node2"><a xlink:href="a01261.html#ga1de48ba66939a9726f7930fc6a1e653a" target="_top" xlink:title="MDB_GPIO_Off">
<polygon fill="white" stroke="black" points="168.5,-114.5 168.5,-133.5 256.5,-133.5 256.5,-114.5 168.5,-114.5"/>
<text text-anchor="middle" x="212.5" y="-121.5" font-family="Helvetica,sans-Serif" font-size="10.00">MDB_GPIO_Off</text>
</a>
</g>
</g>
<!-- Node1&#45;&gt;Node2 -->
<g id="edge1" class="edge"><title>Node1&#45;&gt;Node2</title>
<path fill="none" stroke="midnightblue" d="M72.6976,-76.6318C90.1104,-84.8965 116.346,-96.7452 140,-105 146.836,-107.386 154.129,-109.642 161.346,-111.711"/>
<polygon fill="midnightblue" stroke="midnightblue" points="160.518,-115.113 171.09,-114.409 162.387,-108.367 160.518,-115.113"/>
</g>
<!-- Node3 -->
<g id="node3" class="node"><title>Node3</title>
<g id="a_node3"><a xlink:href="a01261.html#ga9915de13874ce89948d7d860af7e28c8" target="_top" xlink:title="{ function_description } ">
<polygon fill="white" stroke="black" points="169,-76.5 169,-95.5 256,-95.5 256,-76.5 169,-76.5"/>
<text text-anchor="middle" x="212.5" y="-83.5" font-family="Helvetica,sans-Serif" font-size="10.00">MDB_GPIO_On</text>
</a>
</g>
</g>
<!-- Node1&#45;&gt;Node3 -->
<g id="edge2" class="edge"><title>Node1&#45;&gt;Node3</title>
<path fill="none" stroke="midnightblue" d="M104.023,-73.1163C121.498,-75.2111 141.08,-77.5584 158.693,-79.6698"/>
<polygon fill="midnightblue" stroke="midnightblue" points="158.459,-83.1668 168.805,-80.882 159.293,-76.2166 158.459,-83.1668"/>
</g>
<!-- Node4 -->
<g id="node4" class="node"><title>Node4</title>
<g id="a_node4"><a xlink:href="a00111.html#ga80c89116820d48bb38db2e7d5e5a49b9" target="_top" xlink:title="Enables or disables the AHB1 peripheral clock. ">
<polygon fill="white" stroke="black" points="140,-38.5 140,-57.5 285,-57.5 285,-38.5 140,-38.5"/>
<text text-anchor="middle" x="212.5" y="-45.5" font-family="Helvetica,sans-Serif" font-size="10.00">RCC_AHB1PeriphClockCmd</text>
</a>
</g>
</g>
<!-- Node1&#45;&gt;Node4 -->
<g id="edge3" class="edge"><title>Node1&#45;&gt;Node4</title>
<path fill="none" stroke="midnightblue" d="M104.023,-60.8837C112.219,-59.9013 120.877,-58.8633 129.579,-57.8201"/>
<polygon fill="midnightblue" stroke="midnightblue" points="130.277,-61.2617 139.789,-56.5962 129.444,-54.3114 130.277,-61.2617"/>
</g>
<!-- Node5 -->
<g id="node5" class="node"><title>Node5</title>
<g id="a_node5"><a xlink:href="a00102.html#ga71abf9404261370d03cca449b88d3a65" target="_top" xlink:title="Initializes the GPIOx peripheral according to the specified parameters in the GPIO_InitStruct. ">
<polygon fill="white" stroke="black" points="182.5,-0.5 182.5,-19.5 242.5,-19.5 242.5,-0.5 182.5,-0.5"/>
<text text-anchor="middle" x="212.5" y="-7.5" font-family="Helvetica,sans-Serif" font-size="10.00">GPIO_Init</text>
</a>
</g>
</g>
<!-- Node1&#45;&gt;Node5 -->
<g id="edge4" class="edge"><title>Node1&#45;&gt;Node5</title>
<path fill="none" stroke="midnightblue" d="M72.6976,-57.3682C90.1104,-49.1035 116.346,-37.2548 140,-29 150.384,-25.376 161.822,-22.0505 172.446,-19.2293"/>
<polygon fill="midnightblue" stroke="midnightblue" points="173.511,-22.5694 182.322,-16.6857 171.765,-15.7906 173.511,-22.5694"/>
</g>
</g>
</svg>
