<?xml version="1.0" encoding="UTF-8" standalone="no"?>
<!DOCTYPE svg PUBLIC "-//W3C//DTD SVG 1.1//EN"
 "http://www.w3.org/Graphics/SVG/1.1/DTD/svg11.dtd">
<!-- Generated by graphviz version 2.38.0 (20140413.2041)
 -->
<!-- Title: fastConsoleCase Pages: 1 -->
<svg width="233pt" height="104pt"
 viewBox="0.00 0.00 233.00 104.00" xmlns="http://www.w3.org/2000/svg" xmlns:xlink="http://www.w3.org/1999/xlink">
<g id="graph0" class="graph" transform="scale(1 1) rotate(0) translate(4 100)">
<title>fastConsoleCase</title>
<polygon fill="white" stroke="none" points="-4,4 -4,-100 229,-100 229,4 -4,4"/>
<!-- Node1 -->
<g id="node1" class="node"><title>Node1</title>
<polygon fill="#bfbfbf" stroke="black" points="0,-38.5 0,-57.5 92,-57.5 92,-38.5 0,-38.5"/>
<text text-anchor="middle" x="46" y="-45.5" font-family="Helvetica,sans-Serif" font-size="10.00">fastConsoleCase</text>
</g>
<!-- Node2 -->
<g id="node2" class="node"><title>Node2</title>
<g id="a_node2"><a xlink:href="a00580.html#gabb0a95fd20e5e2a894e658b64a29ee61" target="_top" xlink:title="Gets string from USART. ">
<polygon fill="white" stroke="black" points="128,-76.5 128,-95.5 225,-95.5 225,-76.5 128,-76.5"/>
<text text-anchor="middle" x="176.5" y="-83.5" font-family="Helvetica,sans-Serif" font-size="10.00">TM_USART_Gets</text>
</a>
</g>
</g>
<!-- Node1&#45;&gt;Node2 -->
<g id="edge1" class="edge"><title>Node1&#45;&gt;Node2</title>
<path fill="none" stroke="midnightblue" d="M79.426,-57.589C95.7097,-62.4044 115.642,-68.2988 133.122,-73.468"/>
<polygon fill="midnightblue" stroke="midnightblue" points="132.502,-76.9345 143.084,-76.4141 134.487,-70.2219 132.502,-76.9345"/>
</g>
<!-- Node3 -->
<g id="node3" class="node"><title>Node3</title>
<g id="a_node3"><a xlink:href="a01275.html#ga3471071fc0b691d5ea05997762e9171c" target="_top" xlink:title="Signal generator Integer array pointer. ">
<polygon fill="white" stroke="black" points="140,-38.5 140,-57.5 213,-57.5 213,-38.5 140,-38.5"/>
<text text-anchor="middle" x="176.5" y="-45.5" font-family="Helvetica,sans-Serif" font-size="10.00">__attribute__</text>
</a>
</g>
</g>
<!-- Node1&#45;&gt;Node3 -->
<g id="edge2" class="edge"><title>Node1&#45;&gt;Node3</title>
<path fill="none" stroke="midnightblue" d="M92.3043,-48C104.376,-48 117.427,-48 129.534,-48"/>
<polygon fill="midnightblue" stroke="midnightblue" points="129.882,-51.5001 139.882,-48 129.882,-44.5001 129.882,-51.5001"/>
</g>
<!-- Node4 -->
<g id="node4" class="node"><title>Node4</title>
<g id="a_node4"><a xlink:href="a01124.html#gae31536b19b82b93ed184fb1ab73cfcb3" target="_top" xlink:title="Initialization function for the floating&#45;point PID Control. ">
<polygon fill="white" stroke="black" points="132.5,-0.5 132.5,-19.5 220.5,-19.5 220.5,-0.5 132.5,-0.5"/>
<text text-anchor="middle" x="176.5" y="-7.5" font-family="Helvetica,sans-Serif" font-size="10.00">arm_pid_init_f32</text>
</a>
</g>
</g>
<!-- Node1&#45;&gt;Node4 -->
<g id="edge3" class="edge"><title>Node1&#45;&gt;Node4</title>
<path fill="none" stroke="midnightblue" d="M79.426,-38.411C95.7097,-33.5956 115.642,-27.7012 133.122,-22.532"/>
<polygon fill="midnightblue" stroke="midnightblue" points="134.487,-25.7781 143.084,-19.5859 132.502,-19.0655 134.487,-25.7781"/>
</g>
</g>
</svg>
