<?xml version="1.0" encoding="UTF-8" standalone="no"?>
<!DOCTYPE svg PUBLIC "-//W3C//DTD SVG 1.1//EN"
 "http://www.w3.org/Graphics/SVG/1.1/DTD/svg11.dtd">
<!-- Generated by graphviz version 2.38.0 (20140413.2041)
 -->
<!-- Title: TIM2_DMA_Trigger_Config Pages: 1 -->
<!--zoomable 1291 -->
<svg id="main" version="1.1" xmlns="http://www.w3.org/2000/svg" xmlns:xlink="http://www.w3.org/1999/xlink" xml:space="preserve" onload="init(evt)">
<style type="text/css"><![CDATA[
.edge:hover path { stroke: red; }
.edge:hover polygon { stroke: red; fill: red; }
]]></style>
<script type="text/javascript"><![CDATA[
var edges = document.getElementsByTagName('g');
if (edges && edges.length) {
  for (var i=0;i<edges.length;i++) {
    if (edges[i].id.substr(0,4)=='edge') {
      edges[i].setAttribute('class','edge');
    }
  }
}
]]></script>
        <defs>
                <circle id="rim" cx="0" cy="0" r="7"/>
                <circle id="rim2" cx="0" cy="0" r="3.5"/>
                <g id="zoomPlus">
                        <use xlink:href="#rim" fill="#404040">
                                <set attributeName="fill" to="#808080" begin="zoomplus.mouseover" end="zoomplus.mouseout"/>
                        </use>
                        <path d="M-4,0h8M0,-4v8" fill="none" stroke="white" stroke-width="1.5" pointer-events="none"/>
                </g>
                <g id="zoomMin">
                        <use xlink:href="#rim" fill="#404040">
                                <set attributeName="fill" to="#808080" begin="zoomminus.mouseover" end="zoomminus.mouseout"/>
                        </use>
                        <path d="M-4,0h8" fill="none" stroke="white" stroke-width="1.5" pointer-events="none"/>
                </g>
                <g id="dirArrow">
                        <path fill="none" stroke="white" stroke-width="1.5" d="M0,-3.0v7 M-2.5,-0.5L0,-3.0L2.5,-0.5"/>
                </g>
               <g id="resetDef">
                       <use xlink:href="#rim2" fill="#404040">
                               <set attributeName="fill" to="#808080" begin="reset.mouseover" end="reset.mouseout"/>
                       </use>
               </g>
        </defs>

<script type="text/javascript">
var viewWidth = 561;
var viewHeight = 1291;
var sectionId = 'dynsection-3';
</script>
<script xlink:href="svgpan.js"/>
<svg id="graph" class="graph">
<g id="viewport">
<title>TIM2_DMA_Trigger_Config</title>
<polygon fill="white" stroke="none" points="-4,4 -4,-1287 557,-1287 557,4 -4,4"/>
<!-- Node1 -->
<g id="node1" class="node"><title>Node1</title>
<polygon fill="#bfbfbf" stroke="black" points="0,-643.5 0,-662.5 136,-662.5 136,-643.5 0,-643.5"/>
<text text-anchor="middle" x="68" y="-650.5" font-family="Helvetica,sans-Serif" font-size="10.00">TIM2_DMA_Trigger_Config</text>
</g>
<!-- Node2 -->
<g id="node2" class="node"><title>Node2</title>
<g id="a_node2"><a xlink:href="a00117.html#ga1556a0b9a5d53506875fd7de0cbc6b1f" target="_top" xlink:title="Fills each TIM_TimeBaseInitStruct member with its default value. ">
<polygon fill="white" stroke="black" points="210.5,-1263.5 210.5,-1282.5 333.5,-1282.5 333.5,-1263.5 210.5,-1263.5"/>
<text text-anchor="middle" x="272" y="-1270.5" font-family="Helvetica,sans-Serif" font-size="10.00">TIM_TimeBaseStructInit</text>
</a>
</g>
</g>
<!-- Node1&#45;&gt;Node2 -->
<g id="edge1" class="edge"><title>Node1&#45;&gt;Node2</title>
<path fill="none" stroke="midnightblue" d="M69.2077,-662.676C70.9194,-732.984 84.9236,-1165.17 172,-1254 179.785,-1261.94 189.806,-1267.11 200.472,-1270.4"/>
<polygon fill="midnightblue" stroke="midnightblue" points="199.851,-1273.85 210.404,-1272.91 201.567,-1267.06 199.851,-1273.85"/>
</g>
<!-- Node3 -->
<g id="node3" class="node"><title>Node3</title>
<g id="a_node3"><a xlink:href="a00117.html#ga83fd58c9416802d9638bbe1715c98932" target="_top" xlink:title="Initializes the TIMx Time Base Unit peripheral according to the specified parameters in the TIM_TimeB...">
<polygon fill="white" stroke="black" points="223.5,-1225.5 223.5,-1244.5 320.5,-1244.5 320.5,-1225.5 223.5,-1225.5"/>
<text text-anchor="middle" x="272" y="-1232.5" font-family="Helvetica,sans-Serif" font-size="10.00">TIM_TimeBaseInit</text>
</a>
</g>
</g>
<!-- Node1&#45;&gt;Node3 -->
<g id="edge2" class="edge"><title>Node1&#45;&gt;Node3</title>
<path fill="none" stroke="midnightblue" d="M69.3379,-662.93C71.8746,-731.417 90.1506,-1133.44 172,-1216 182.916,-1227.01 198.133,-1232.68 213.367,-1235.38"/>
<polygon fill="midnightblue" stroke="midnightblue" points="212.952,-1238.85 223.336,-1236.75 213.907,-1231.92 212.952,-1238.85"/>
</g>
<!-- Node4 -->
<g id="node4" class="node"><title>Node4</title>
<g id="a_node4"><a xlink:href="a00117.html#ga28745aaa549e2067e42c19569209e6c6" target="_top" xlink:title="Selects the TIMx Trigger Output Mode. ">
<polygon fill="white" stroke="black" points="209,-1187.5 209,-1206.5 335,-1206.5 335,-1187.5 209,-1187.5"/>
<text text-anchor="middle" x="272" y="-1194.5" font-family="Helvetica,sans-Serif" font-size="10.00">TIM_SelectOutputTrigger</text>
</a>
</g>
</g>
<!-- Node1&#45;&gt;Node4 -->
<g id="edge3" class="edge"><title>Node1&#45;&gt;Node4</title>
<path fill="none" stroke="midnightblue" d="M69.4664,-662.68C72.8033,-727.779 95.1627,-1101.48 172,-1178 179.471,-1185.44 188.908,-1190.43 198.973,-1193.71"/>
<polygon fill="midnightblue" stroke="midnightblue" points="198.204,-1197.13 208.771,-1196.36 200.03,-1190.37 198.204,-1197.13"/>
</g>
<!-- Node5 -->
<g id="node5" class="node"><title>Node5</title>
<g id="a_node5"><a xlink:href="a00117.html#ga70e3d6c09d55ee69002e154c85cd40e4" target="_top" xlink:title="Enables or disables the specified TIM interrupts. ">
<polygon fill="white" stroke="black" points="233.5,-1149.5 233.5,-1168.5 310.5,-1168.5 310.5,-1149.5 233.5,-1149.5"/>
<text text-anchor="middle" x="272" y="-1156.5" font-family="Helvetica,sans-Serif" font-size="10.00">TIM_ITConfig</text>
</a>
</g>
</g>
<!-- Node1&#45;&gt;Node5 -->
<g id="edge4" class="edge"><title>Node1&#45;&gt;Node5</title>
<path fill="none" stroke="midnightblue" d="M69.6319,-662.779C73.8781,-725.388 100.298,-1069.63 172,-1140 185.428,-1153.18 205.036,-1158.64 223.265,-1160.54"/>
<polygon fill="midnightblue" stroke="midnightblue" points="223.268,-1164.05 233.491,-1161.27 223.765,-1157.07 223.268,-1164.05"/>
</g>
<!-- Node6 -->
<g id="node6" class="node"><title>Node6</title>
<g id="a_node6"><a xlink:href="a00117.html#ga2bdc275bcbd2ce9d1ba632e6c89896b7" target="_top" xlink:title="Enables or disables the specified TIM peripheral. ">
<polygon fill="white" stroke="black" points="242,-1111.5 242,-1130.5 302,-1130.5 302,-1111.5 242,-1111.5"/>
<text text-anchor="middle" x="272" y="-1118.5" font-family="Helvetica,sans-Serif" font-size="10.00">TIM_Cmd</text>
</a>
</g>
</g>
<!-- Node1&#45;&gt;Node6 -->
<g id="edge5" class="edge"><title>Node1&#45;&gt;Node6</title>
<path fill="none" stroke="midnightblue" d="M69.819,-662.784C75.0195,-722.527 105.378,-1037.73 172,-1102 187.552,-1117 211.133,-1121.95 231.38,-1123.06"/>
<polygon fill="midnightblue" stroke="midnightblue" points="231.518,-1126.56 241.604,-1123.32 231.696,-1119.57 231.518,-1126.56"/>
</g>
<!-- Node7 -->
<g id="node7" class="node"><title>Node7</title>
<g id="a_node7"><a xlink:href="a01269.html#ga63bf5922e4a4d0715a99ed083d89948b" target="_top" xlink:title="Configuration method for &quot;ADC continuous scan mode with timer triggered DMA&quot;. ">
<polygon fill="white" stroke="black" points="210,-1062 210,-1092 334,-1092 334,-1062 210,-1062"/>
<text text-anchor="start" x="218" y="-1080" font-family="Helvetica,sans-Serif" font-size="10.00">ADC_ContScanMode_w</text>
<text text-anchor="middle" x="272" y="-1069" font-family="Helvetica,sans-Serif" font-size="10.00">_DMA_timeTrigd</text>
</a>
</g>
</g>
<!-- Node1&#45;&gt;Node7 -->
<g id="edge6" class="edge"><title>Node1&#45;&gt;Node7</title>
<path fill="none" stroke="midnightblue" d="M70.1665,-662.716C77.0114,-718.145 113.671,-993.978 172,-1052 179.842,-1059.8 189.743,-1065.28 200.233,-1069.12"/>
<polygon fill="midnightblue" stroke="midnightblue" points="199.401,-1072.52 209.991,-1072.19 201.504,-1065.85 199.401,-1072.52"/>
</g>
<!-- Node8 -->
<g id="node8" class="node"><title>Node8</title>
<g id="a_node8"><a xlink:href="a00111.html#ga80c89116820d48bb38db2e7d5e5a49b9" target="_top" xlink:title="Enables or disables the AHB1 peripheral clock. ">
<polygon fill="white" stroke="black" points="199.5,-1023.5 199.5,-1042.5 344.5,-1042.5 344.5,-1023.5 199.5,-1023.5"/>
<text text-anchor="middle" x="272" y="-1030.5" font-family="Helvetica,sans-Serif" font-size="10.00">RCC_AHB1PeriphClockCmd</text>
</a>
</g>
</g>
<!-- Node1&#45;&gt;Node8 -->
<g id="edge7" class="edge"><title>Node1&#45;&gt;Node8</title>
<path fill="none" stroke="midnightblue" d="M70.3586,-662.518C77.9696,-714.504 116.954,-963.613 172,-1014 177.204,-1018.76 183.224,-1022.5 189.674,-1025.41"/>
<polygon fill="midnightblue" stroke="midnightblue" points="188.796,-1028.82 199.387,-1029.11 191.288,-1022.28 188.796,-1028.82"/>
</g>
<!-- Node9 -->
<g id="node9" class="node"><title>Node9</title>
<g id="a_node9"><a xlink:href="a00102.html#gab28de41278e7f8c63d0851e2733b10df" target="_top" xlink:title="Fills each GPIO_InitStruct member with its default value. ">
<polygon fill="white" stroke="black" points="229,-985.5 229,-1004.5 315,-1004.5 315,-985.5 229,-985.5"/>
<text text-anchor="middle" x="272" y="-992.5" font-family="Helvetica,sans-Serif" font-size="10.00">GPIO_StructInit</text>
</a>
</g>
</g>
<!-- Node1&#45;&gt;Node9 -->
<g id="edge8" class="edge"><title>Node1&#45;&gt;Node9</title>
<path fill="none" stroke="midnightblue" d="M68.8035,-662.777C68.4883,-706.824 73.3907,-888.485 172,-976 184.683,-987.256 201.946,-992.713 218.507,-995.149"/>
<polygon fill="midnightblue" stroke="midnightblue" points="218.35,-998.653 228.68,-996.3 219.137,-991.698 218.35,-998.653"/>
</g>
<!-- Node10 -->
<g id="node10" class="node"><title>Node10</title>
<g id="a_node10"><a xlink:href="a00102.html#ga71abf9404261370d03cca449b88d3a65" target="_top" xlink:title="Initializes the GPIOx peripheral according to the specified parameters in the GPIO_InitStruct. ">
<polygon fill="white" stroke="black" points="242,-947.5 242,-966.5 302,-966.5 302,-947.5 242,-947.5"/>
<text text-anchor="middle" x="272" y="-954.5" font-family="Helvetica,sans-Serif" font-size="10.00">GPIO_Init</text>
</a>
</g>
</g>
<!-- Node1&#45;&gt;Node10 -->
<g id="edge9" class="edge"><title>Node1&#45;&gt;Node10</title>
<path fill="none" stroke="midnightblue" d="M69.2679,-662.732C70.9505,-703.529 83.1828,-862.151 172,-938 188.32,-951.937 211.72,-956.882 231.673,-958.251"/>
<polygon fill="midnightblue" stroke="midnightblue" points="231.601,-961.751 241.737,-958.67 231.892,-954.757 231.601,-961.751"/>
</g>
<!-- Node11 -->
<g id="node11" class="node"><title>Node11</title>
<g id="a_node11"><a xlink:href="a00098.html#ga0f7f95f750a90a6824f4e9b6f58adc7e" target="_top" xlink:title="Fills each DMA_InitStruct member with its default value. ">
<polygon fill="white" stroke="black" points="230,-909.5 230,-928.5 314,-928.5 314,-909.5 230,-909.5"/>
<text text-anchor="middle" x="272" y="-916.5" font-family="Helvetica,sans-Serif" font-size="10.00">DMA_StructInit</text>
</a>
</g>
</g>
<!-- Node1&#45;&gt;Node11 -->
<g id="edge10" class="edge"><title>Node1&#45;&gt;Node11</title>
<path fill="none" stroke="midnightblue" d="M69.8588,-662.708C73.7137,-700.066 92.8729,-835.663 172,-900 185.269,-910.789 202.833,-916.11 219.48,-918.565"/>
<polygon fill="midnightblue" stroke="midnightblue" points="219.343,-922.072 229.68,-919.747 220.149,-915.119 219.343,-922.072"/>
</g>
<!-- Node12 -->
<g id="node12" class="node"><title>Node12</title>
<g id="a_node12"><a xlink:href="a00098.html#gaced8a4149acfb0a50b50e63273a87148" target="_top" xlink:title="Initializes the DMAy Streamx according to the specified parameters in the DMA_InitStruct structure...">
<polygon fill="white" stroke="black" points="243,-871.5 243,-890.5 301,-890.5 301,-871.5 243,-871.5"/>
<text text-anchor="middle" x="272" y="-878.5" font-family="Helvetica,sans-Serif" font-size="10.00">DMA_Init</text>
</a>
</g>
</g>
<!-- Node1&#45;&gt;Node12 -->
<g id="edge11" class="edge"><title>Node1&#45;&gt;Node12</title>
<path fill="none" stroke="midnightblue" d="M70.6684,-662.834C76.9567,-696.658 102.508,-809.034 172,-862 189.187,-875.1 212.826,-879.983 232.694,-881.528"/>
<polygon fill="midnightblue" stroke="midnightblue" points="232.515,-885.023 242.687,-882.058 232.886,-878.033 232.515,-885.023"/>
</g>
<!-- Node13 -->
<g id="node13" class="node"><title>Node13</title>
<g id="a_node13"><a xlink:href="a00098.html#gab2bea22f9f6dc62fdd7afb385a0c1f73" target="_top" xlink:title="Enables or disables the specified DMAy Streamx. ">
<polygon fill="white" stroke="black" points="239.5,-833.5 239.5,-852.5 304.5,-852.5 304.5,-833.5 239.5,-833.5"/>
<text text-anchor="middle" x="272" y="-840.5" font-family="Helvetica,sans-Serif" font-size="10.00">DMA_Cmd</text>
</a>
</g>
</g>
<!-- Node1&#45;&gt;Node13 -->
<g id="edge12" class="edge"><title>Node1&#45;&gt;Node13</title>
<path fill="none" stroke="midnightblue" d="M71.742,-662.693C80.6497,-692.279 111.742,-781.962 172,-824 188.592,-835.575 210.385,-840.571 229.299,-842.569"/>
<polygon fill="midnightblue" stroke="midnightblue" points="229.209,-846.073 239.459,-843.393 229.775,-839.096 229.209,-846.073"/>
</g>
<!-- Node14 -->
<g id="node14" class="node"><title>Node14</title>
<g id="a_node14"><a xlink:href="a00098.html#gab9c469a3f5d4aca5c97dee798ffc2f05" target="_top" xlink:title="Enables or disables the specified DMAy Streamx interrupts. ">
<polygon fill="white" stroke="black" points="231,-795.5 231,-814.5 313,-814.5 313,-795.5 231,-795.5"/>
<text text-anchor="middle" x="272" y="-802.5" font-family="Helvetica,sans-Serif" font-size="10.00">DMA_ITConfig</text>
</a>
</g>
</g>
<!-- Node1&#45;&gt;Node14 -->
<g id="edge13" class="edge"><title>Node1&#45;&gt;Node14</title>
<path fill="none" stroke="midnightblue" d="M73.3856,-662.636C85.2792,-687.581 120.733,-754.517 172,-786 186.45,-794.874 204.143,-799.752 220.555,-802.388"/>
<polygon fill="midnightblue" stroke="midnightblue" points="220.186,-805.87 230.567,-803.756 221.133,-798.935 220.186,-805.87"/>
</g>
<!-- Node15 -->
<g id="node15" class="node"><title>Node15</title>
<g id="a_node15"><a xlink:href="a00098.html#gad5433018889cd36140d98bb380c4e76e" target="_top" xlink:title="Clears the DMAy Streamx&#39;s interrupt pending bits. ">
<polygon fill="white" stroke="black" points="210,-757.5 210,-776.5 334,-776.5 334,-757.5 210,-757.5"/>
<text text-anchor="middle" x="272" y="-764.5" font-family="Helvetica,sans-Serif" font-size="10.00">DMA_ClearITPendingBit</text>
</a>
</g>
</g>
<!-- Node1&#45;&gt;Node15 -->
<g id="edge14" class="edge"><title>Node1&#45;&gt;Node15</title>
<path fill="none" stroke="midnightblue" d="M76.3067,-662.67C91.6696,-682.244 129.432,-726.521 172,-748 180.73,-752.405 190.366,-755.793 200.095,-758.397"/>
<polygon fill="midnightblue" stroke="midnightblue" points="199.284,-761.801 209.826,-760.748 200.928,-754.997 199.284,-761.801"/>
</g>
<!-- Node16 -->
<g id="node16" class="node"><title>Node16</title>
<g id="a_node16"><a xlink:href="a00109.html#ga4ab373ed0870c06fca5eb51d639adf41" target="_top" xlink:title="Initializes the NVIC peripheral according to the specified parameters in the NVIC_InitStruct. ">
<polygon fill="white" stroke="black" points="242,-719.5 242,-738.5 302,-738.5 302,-719.5 242,-719.5"/>
<text text-anchor="middle" x="272" y="-726.5" font-family="Helvetica,sans-Serif" font-size="10.00">NVIC_Init</text>
</a>
</g>
</g>
<!-- Node1&#45;&gt;Node16 -->
<g id="edge15" class="edge"><title>Node1&#45;&gt;Node16</title>
<path fill="none" stroke="midnightblue" d="M82.9811,-662.631C102.179,-675.402 138.18,-697.749 172,-710 191.071,-716.908 213.165,-721.456 231.637,-724.364"/>
<polygon fill="midnightblue" stroke="midnightblue" points="231.36,-727.861 241.763,-725.854 232.379,-720.935 231.36,-727.861"/>
</g>
<!-- Node17 -->
<g id="node17" class="node"><title>Node17</title>
<g id="a_node17"><a xlink:href="a00028.html#ga6c6e754d1d0a98d56e465efaf73272ec" target="_top" xlink:title="Fills each ADC_InitStruct member with its default value. ">
<polygon fill="white" stroke="black" points="230.5,-681.5 230.5,-700.5 313.5,-700.5 313.5,-681.5 230.5,-681.5"/>
<text text-anchor="middle" x="272" y="-688.5" font-family="Helvetica,sans-Serif" font-size="10.00">ADC_StructInit</text>
</a>
</g>
</g>
<!-- Node1&#45;&gt;Node17 -->
<g id="edge16" class="edge"><title>Node1&#45;&gt;Node17</title>
<path fill="none" stroke="midnightblue" d="M119.712,-662.54C150.477,-668.327 189.599,-675.687 220.352,-681.472"/>
<polygon fill="midnightblue" stroke="midnightblue" points="219.961,-684.96 230.436,-683.369 221.255,-678.081 219.961,-684.96"/>
</g>
<!-- Node18 -->
<g id="node18" class="node"><title>Node18</title>
<g id="a_node18"><a xlink:href="a00028.html#gad60a6414b4932c704f6f7a7c2963fa2a" target="_top" xlink:title="Fills each ADC_CommonInitStruct member with its default value. ">
<polygon fill="white" stroke="black" points="210.5,-643.5 210.5,-662.5 333.5,-662.5 333.5,-643.5 210.5,-643.5"/>
<text text-anchor="middle" x="272" y="-650.5" font-family="Helvetica,sans-Serif" font-size="10.00">ADC_CommonStructInit</text>
</a>
</g>
</g>
<!-- Node1&#45;&gt;Node18 -->
<g id="edge17" class="edge"><title>Node1&#45;&gt;Node18</title>
<path fill="none" stroke="midnightblue" d="M136.263,-653C156.877,-653 179.609,-653 200.436,-653"/>
<polygon fill="midnightblue" stroke="midnightblue" points="200.49,-656.5 210.49,-653 200.49,-649.5 200.49,-656.5"/>
</g>
<!-- Node19 -->
<g id="node19" class="node"><title>Node19</title>
<g id="a_node19"><a xlink:href="a00028.html#ga40882d399e3371755ed610c1134e634e" target="_top" xlink:title="Enables or disables the specified ADC peripheral. ">
<polygon fill="white" stroke="black" points="239.5,-605.5 239.5,-624.5 304.5,-624.5 304.5,-605.5 239.5,-605.5"/>
<text text-anchor="middle" x="272" y="-612.5" font-family="Helvetica,sans-Serif" font-size="10.00">ADC_Cmd</text>
</a>
</g>
</g>
<!-- Node1&#45;&gt;Node19 -->
<g id="edge18" class="edge"><title>Node1&#45;&gt;Node19</title>
<path fill="none" stroke="midnightblue" d="M119.712,-643.46C153.563,-637.092 197.533,-628.821 229.338,-622.837"/>
<polygon fill="midnightblue" stroke="midnightblue" points="230.028,-626.269 239.209,-620.981 228.734,-619.39 230.028,-626.269"/>
</g>
<!-- Node20 -->
<g id="node20" class="node"><title>Node20</title>
<g id="a_node20"><a xlink:href="a00028.html#ga1962afdd9eebe5c896bbba2e4f26fe09" target="_top" xlink:title="Deinitializes all ADCs peripherals registers to their default reset values. ">
<polygon fill="white" stroke="black" points="237,-567.5 237,-586.5 307,-586.5 307,-567.5 237,-567.5"/>
<text text-anchor="middle" x="272" y="-574.5" font-family="Helvetica,sans-Serif" font-size="10.00">ADC_DeInit</text>
</a>
</g>
</g>
<!-- Node1&#45;&gt;Node20 -->
<g id="edge19" class="edge"><title>Node1&#45;&gt;Node20</title>
<path fill="none" stroke="midnightblue" d="M82.9811,-643.369C102.179,-630.598 138.18,-608.251 172,-596 189.469,-589.672 209.475,-585.325 226.91,-582.404"/>
<polygon fill="midnightblue" stroke="midnightblue" points="227.503,-585.854 236.839,-580.845 226.417,-578.939 227.503,-585.854"/>
</g>
<!-- Node22 -->
<g id="node22" class="node"><title>Node22</title>
<g id="a_node22"><a xlink:href="a00111.html#ga56ff55caf8d835351916b40dd030bc87" target="_top" xlink:title="Enables or disables the High Speed APB (APB2) peripheral clock. ">
<polygon fill="white" stroke="black" points="200,-529.5 200,-548.5 344,-548.5 344,-529.5 200,-529.5"/>
<text text-anchor="middle" x="272" y="-536.5" font-family="Helvetica,sans-Serif" font-size="10.00">RCC_APB2PeriphClockCmd</text>
</a>
</g>
</g>
<!-- Node1&#45;&gt;Node22 -->
<g id="edge21" class="edge"><title>Node1&#45;&gt;Node22</title>
<path fill="none" stroke="midnightblue" d="M76.3067,-643.33C91.6696,-623.756 129.432,-579.479 172,-558 177.691,-555.128 183.766,-552.689 190.002,-550.618"/>
<polygon fill="midnightblue" stroke="midnightblue" points="191.323,-553.876 199.9,-547.656 189.316,-547.17 191.323,-553.876"/>
</g>
<!-- Node23 -->
<g id="node23" class="node"><title>Node23</title>
<g id="a_node23"><a xlink:href="a00028.html#ga5803f6581a9cd7e90b6e637067102d94" target="_top" xlink:title="Initializes the ADCs peripherals according to the specified parameters in the ADC_CommonInitStruct. ">
<polygon fill="white" stroke="black" points="223.5,-491.5 223.5,-510.5 320.5,-510.5 320.5,-491.5 223.5,-491.5"/>
<text text-anchor="middle" x="272" y="-498.5" font-family="Helvetica,sans-Serif" font-size="10.00">ADC_CommonInit</text>
</a>
</g>
</g>
<!-- Node1&#45;&gt;Node23 -->
<g id="edge22" class="edge"><title>Node1&#45;&gt;Node23</title>
<path fill="none" stroke="midnightblue" d="M73.3856,-643.364C85.2792,-618.419 120.733,-551.483 172,-520 184.301,-512.446 198.952,-507.787 213.162,-504.943"/>
<polygon fill="midnightblue" stroke="midnightblue" points="214.133,-508.327 223.391,-503.176 212.942,-501.429 214.133,-508.327"/>
</g>
<!-- Node24 -->
<g id="node24" class="node"><title>Node24</title>
<g id="a_node24"><a xlink:href="a00028.html#gabbab6038cf8691404350625e477254f9" target="_top" xlink:title="Initializes the ADCx peripheral according to the specified parameters in the ADC_InitStruct. ">
<polygon fill="white" stroke="black" points="243.5,-453.5 243.5,-472.5 300.5,-472.5 300.5,-453.5 243.5,-453.5"/>
<text text-anchor="middle" x="272" y="-460.5" font-family="Helvetica,sans-Serif" font-size="10.00">ADC_Init</text>
</a>
</g>
</g>
<!-- Node1&#45;&gt;Node24 -->
<g id="edge23" class="edge"><title>Node1&#45;&gt;Node24</title>
<path fill="none" stroke="midnightblue" d="M71.742,-643.307C80.6497,-613.721 111.742,-524.038 172,-482 189.764,-469.608 213.489,-464.756 233.26,-463.052"/>
<polygon fill="midnightblue" stroke="midnightblue" points="233.718,-466.53 243.48,-462.412 233.281,-459.543 233.718,-466.53"/>
</g>
<!-- Node25 -->
<g id="node25" class="node"><title>Node25</title>
<g id="a_node25"><a xlink:href="a00028.html#gac531adb577b648d4bb8881f2ed627d52" target="_top" xlink:title="Configures for the selected ADC regular channel its corresponding rank in the sequencer and its sampl...">
<polygon fill="white" stroke="black" points="201,-415.5 201,-434.5 343,-434.5 343,-415.5 201,-415.5"/>
<text text-anchor="middle" x="272" y="-422.5" font-family="Helvetica,sans-Serif" font-size="10.00">ADC_RegularChannelConfig</text>
</a>
</g>
</g>
<!-- Node1&#45;&gt;Node25 -->
<g id="edge24" class="edge"><title>Node1&#45;&gt;Node25</title>
<path fill="none" stroke="midnightblue" d="M70.6684,-643.166C76.9567,-609.342 102.508,-496.966 172,-444 177.837,-439.551 184.419,-436.049 191.344,-433.305"/>
<polygon fill="midnightblue" stroke="midnightblue" points="192.635,-436.562 200.963,-430.013 190.369,-429.939 192.635,-436.562"/>
</g>
<!-- Node26 -->
<g id="node26" class="node"><title>Node26</title>
<g id="a_node26"><a xlink:href="a00028.html#ga03cef3d12292ffa2b8520524d5b0226c" target="_top" xlink:title="Configures the analog watchdog guarded single channel. ">
<polygon fill="white" stroke="black" points="199.5,-366 199.5,-396 344.5,-396 344.5,-366 199.5,-366"/>
<text text-anchor="start" x="207.5" y="-384" font-family="Helvetica,sans-Serif" font-size="10.00">ADC_AnalogWatchdogSingle</text>
<text text-anchor="middle" x="272" y="-373" font-family="Helvetica,sans-Serif" font-size="10.00">ChannelConfig</text>
</a>
</g>
</g>
<!-- Node1&#45;&gt;Node26 -->
<g id="edge25" class="edge"><title>Node1&#45;&gt;Node26</title>
<path fill="none" stroke="midnightblue" d="M69.9741,-643.43C74.2526,-606.577 94.763,-472.594 172,-406 177.322,-401.411 183.37,-397.644 189.791,-394.554"/>
<polygon fill="midnightblue" stroke="midnightblue" points="191.568,-397.604 199.424,-390.495 188.849,-391.153 191.568,-397.604"/>
</g>
<!-- Node27 -->
<g id="node27" class="node"><title>Node27</title>
<g id="a_node27"><a xlink:href="a00028.html#ga79588d02aa8e4147f21cb90a4708366d" target="_top" xlink:title="Configures the high and low thresholds of the analog watchdog. ">
<polygon fill="white" stroke="black" points="189,-317 189,-347 355,-347 355,-317 189,-317"/>
<text text-anchor="start" x="197" y="-335" font-family="Helvetica,sans-Serif" font-size="10.00">ADC_AnalogWatchdogThresholds</text>
<text text-anchor="middle" x="272" y="-324" font-family="Helvetica,sans-Serif" font-size="10.00">Config</text>
</a>
</g>
</g>
<!-- Node1&#45;&gt;Node27 -->
<g id="edge26" class="edge"><title>Node1&#45;&gt;Node27</title>
<path fill="none" stroke="midnightblue" d="M69.2438,-643.322C70.83,-602.003 82.7314,-438.779 172,-357 174.484,-354.725 177.144,-352.65 179.941,-350.757"/>
<polygon fill="midnightblue" stroke="midnightblue" points="181.852,-353.694 188.702,-345.612 178.307,-347.658 181.852,-353.694"/>
</g>
<!-- Node28 -->
<g id="node28" class="node"><title>Node28</title>
<g id="a_node28"><a xlink:href="a00028.html#gad017d69bec6e497afd35ba25ea22d86e" target="_top" xlink:title="Enables or disables the analog watchdog on single/all regular or injected channels. ">
<polygon fill="white" stroke="black" points="202.5,-278.5 202.5,-297.5 341.5,-297.5 341.5,-278.5 202.5,-278.5"/>
<text text-anchor="middle" x="272" y="-285.5" font-family="Helvetica,sans-Serif" font-size="10.00">ADC_AnalogWatchdogCmd</text>
</a>
</g>
</g>
<!-- Node1&#45;&gt;Node28 -->
<g id="edge27" class="edge"><title>Node1&#45;&gt;Node28</title>
<path fill="none" stroke="midnightblue" d="M68.5964,-643.22C67.2813,-597.472 68.1396,-402.835 172,-308 178.076,-302.452 185.25,-298.266 192.916,-295.129"/>
<polygon fill="midnightblue" stroke="midnightblue" points="194.178,-298.396 202.471,-291.802 191.876,-291.785 194.178,-298.396"/>
</g>
<!-- Node29 -->
<g id="node29" class="node"><title>Node29</title>
<g id="a_node29"><a xlink:href="a00028.html#gad4c84b54b539944f555488bf979f82b6" target="_top" xlink:title="Enables or disables the specified ADC interrupts. ">
<polygon fill="white" stroke="black" points="231.5,-240.5 231.5,-259.5 312.5,-259.5 312.5,-240.5 231.5,-240.5"/>
<text text-anchor="middle" x="272" y="-247.5" font-family="Helvetica,sans-Serif" font-size="10.00">ADC_ITConfig</text>
</a>
</g>
</g>
<!-- Node1&#45;&gt;Node29 -->
<g id="edge28" class="edge"><title>Node1&#45;&gt;Node29</title>
<path fill="none" stroke="midnightblue" d="M70.2182,-643.242C77.2133,-588.782 114.003,-322.941 172,-269 185.177,-256.745 203.739,-251.269 221.235,-249.104"/>
<polygon fill="midnightblue" stroke="midnightblue" points="221.722,-252.574 231.365,-248.185 221.09,-245.603 221.722,-252.574"/>
</g>
<!-- Node30 -->
<g id="node30" class="node"><title>Node30</title>
<g id="a_node30"><a xlink:href="a00028.html#ga912fd3e923ae4435621724e1bbc52729" target="_top" xlink:title="Enables or disables the ADC DMA request after last transfer (Single&#45;ADC mode) ">
<polygon fill="white" stroke="black" points="172,-202.5 172,-221.5 372,-221.5 372,-202.5 172,-202.5"/>
<text text-anchor="middle" x="272" y="-209.5" font-family="Helvetica,sans-Serif" font-size="10.00">ADC_DMARequestAfterLastTransferCmd</text>
</a>
</g>
</g>
<!-- Node1&#45;&gt;Node30 -->
<g id="edge29" class="edge"><title>Node1&#45;&gt;Node30</title>
<path fill="none" stroke="midnightblue" d="M69.9495,-643.43C75.8096,-586.329 108.894,-291.04 172,-231 173.474,-229.598 175.018,-228.283 176.623,-227.052"/>
<polygon fill="midnightblue" stroke="midnightblue" points="178.614,-229.933 185.112,-221.565 174.814,-224.054 178.614,-229.933"/>
</g>
<!-- Node31 -->
<g id="node31" class="node"><title>Node31</title>
<g id="a_node31"><a xlink:href="a00098.html#ga38d4a4ab8990299f8a6cf064e1e811d0" target="_top" xlink:title="Deinitialize the DMAy Streamx registers to their default reset values. ">
<polygon fill="white" stroke="black" points="236.5,-164.5 236.5,-183.5 307.5,-183.5 307.5,-164.5 236.5,-164.5"/>
<text text-anchor="middle" x="272" y="-171.5" font-family="Helvetica,sans-Serif" font-size="10.00">DMA_DeInit</text>
</a>
</g>
</g>
<!-- Node1&#45;&gt;Node31 -->
<g id="edge30" class="edge"><title>Node1&#45;&gt;Node31</title>
<path fill="none" stroke="midnightblue" d="M69.7492,-643.372C74.6293,-583.185 103.851,-259.091 172,-193 186.27,-179.161 207.367,-173.862 226.423,-172.249"/>
<polygon fill="midnightblue" stroke="midnightblue" points="226.651,-175.742 236.448,-171.709 226.274,-168.752 226.651,-175.742"/>
</g>
<!-- Node32 -->
<g id="node32" class="node"><title>Node32</title>
<g id="a_node32"><a xlink:href="a00028.html#ga40f2be2edf2a33fc15f4a5933b562970" target="_top" xlink:title="Enables or disables the ADC DMA request after last transfer in multi ADC mode. ">
<polygon fill="white" stroke="black" points="187.5,-115 187.5,-145 356.5,-145 356.5,-115 187.5,-115"/>
<text text-anchor="start" x="195.5" y="-133" font-family="Helvetica,sans-Serif" font-size="10.00">ADC_MultiModeDMARequestAfter</text>
<text text-anchor="middle" x="272" y="-122" font-family="Helvetica,sans-Serif" font-size="10.00">LastTransferCmd</text>
</a>
</g>
</g>
<!-- Node1&#45;&gt;Node32 -->
<g id="edge31" class="edge"><title>Node1&#45;&gt;Node32</title>
<path fill="none" stroke="midnightblue" d="M69.6222,-643.462C73.8944,-580.885 100.865,-229.291 172,-155 174.069,-152.839 176.295,-150.855 178.649,-149.033"/>
<polygon fill="midnightblue" stroke="midnightblue" points="180.691,-151.879 187.101,-143.443 176.83,-146.04 180.691,-151.879"/>
</g>
<!-- Node33 -->
<g id="node33" class="node"><title>Node33</title>
<g id="a_node33"><a xlink:href="a00028.html#gac1cd466e725595812c1bbfdad2459ff1" target="_top" xlink:title="Enables the selected ADC software start conversion of the regular channels. ">
<polygon fill="white" stroke="black" points="208.5,-76.5 208.5,-95.5 335.5,-95.5 335.5,-76.5 208.5,-76.5"/>
<text text-anchor="middle" x="272" y="-83.5" font-family="Helvetica,sans-Serif" font-size="10.00">ADC_SoftwareStartConv</text>
</a>
</g>
</g>
<!-- Node1&#45;&gt;Node33 -->
<g id="edge32" class="edge"><title>Node1&#45;&gt;Node33</title>
<path fill="none" stroke="midnightblue" d="M69.3918,-643.358C72.2927,-576.855 92.5831,-186.473 172,-106 179.374,-98.5282 188.713,-93.4573 198.695,-90.073"/>
<polygon fill="midnightblue" stroke="midnightblue" points="199.75,-93.412 208.419,-87.3217 197.844,-86.6764 199.75,-93.412"/>
</g>
<!-- Node34 -->
<g id="node34" class="node"><title>Node34</title>
<g id="a_node34"><a xlink:href="a00028.html#ga848682e2d7d3de9f8cf03ffa4c11f0b5" target="_top" xlink:title="Enables or disables the temperature sensor and Vrefint channels. ">
<polygon fill="white" stroke="black" points="197.5,-38.5 197.5,-57.5 346.5,-57.5 346.5,-38.5 197.5,-38.5"/>
<text text-anchor="middle" x="272" y="-45.5" font-family="Helvetica,sans-Serif" font-size="10.00">ADC_TempSensorVrefintCmd</text>
</a>
</g>
</g>
<!-- Node1&#45;&gt;Node34 -->
<g id="edge33" class="edge"><title>Node1&#45;&gt;Node34</title>
<path fill="none" stroke="midnightblue" d="M69.2595,-643.121C71.3021,-573.2 87.0309,-153.307 172,-67 176.593,-62.3349 181.957,-58.6274 187.769,-55.6974"/>
<polygon fill="midnightblue" stroke="midnightblue" points="189.373,-58.8197 197.225,-51.707 186.651,-52.3704 189.373,-58.8197"/>
</g>
<!-- Node35 -->
<g id="node35" class="node"><title>Node35</title>
<g id="a_node35"><a xlink:href="a00028.html#gac5881d5995818001584b27b137a8dbcb" target="_top" xlink:title="Enables or disables the specified ADC DMA request. ">
<polygon fill="white" stroke="black" points="228.5,-0.5 228.5,-19.5 315.5,-19.5 315.5,-0.5 228.5,-0.5"/>
<text text-anchor="middle" x="272" y="-7.5" font-family="Helvetica,sans-Serif" font-size="10.00">ADC_DMACmd</text>
</a>
</g>
</g>
<!-- Node1&#45;&gt;Node35 -->
<g id="edge34" class="edge"><title>Node1&#45;&gt;Node35</title>
<path fill="none" stroke="midnightblue" d="M69.14,-643.418C70.3857,-571.895 81.7764,-121.603 172,-29 183.935,-16.7508 201.183,-11.0846 217.949,-8.76046"/>
<polygon fill="midnightblue" stroke="midnightblue" points="218.677,-12.2048 228.274,-7.7163 217.973,-5.24027 218.677,-12.2048"/>
</g>
<!-- Node21 -->
<g id="node21" class="node"><title>Node21</title>
<g id="a_node21"><a xlink:href="a00111.html#gad94553850ac07106a27ee85fec37efdf" target="_top" xlink:title="Forces or releases High Speed APB (APB2) peripheral reset. ">
<polygon fill="white" stroke="black" points="408,-567.5 408,-586.5 553,-586.5 553,-567.5 408,-567.5"/>
<text text-anchor="middle" x="480.5" y="-574.5" font-family="Helvetica,sans-Serif" font-size="10.00">RCC_APB2PeriphResetCmd</text>
</a>
</g>
</g>
<!-- Node20&#45;&gt;Node21 -->
<g id="edge20" class="edge"><title>Node20&#45;&gt;Node21</title>
<path fill="none" stroke="midnightblue" d="M307.099,-577C331.701,-577 365.996,-577 397.524,-577"/>
<polygon fill="midnightblue" stroke="midnightblue" points="397.648,-580.5 407.648,-577 397.648,-573.5 397.648,-580.5"/>
</g>
</g>
</svg>
        <g id="navigator" transform="translate(0 0)" fill="#404254">
                <rect fill="#f2f5e9" fill-opacity="0.5" stroke="#606060" stroke-width=".5" x="0" y="0" width="60" height="60"/>
                <use id="zoomplus" xlink:href="#zoomPlus" x="17" y="9" onmousedown="handleZoom(evt,'in')"/>
                <use id="zoomminus" xlink:href="#zoomMin" x="42" y="9" onmousedown="handleZoom(evt,'out')"/>
                <use id="reset" xlink:href="#resetDef" x="30" y="36" onmousedown="handleReset()"/>
                <g id="arrowUp" xlink:href="#dirArrow" transform="translate(30 24)" onmousedown="handlePan(0,-1)">
                  <use xlink:href="#rim" fill="#404040">
                        <set attributeName="fill" to="#808080" begin="arrowUp.mouseover" end="arrowUp.mouseout"/>
                  </use>
                  <path fill="none" stroke="white" stroke-width="1.5" d="M0,-3.0v7 M-2.5,-0.5L0,-3.0L2.5,-0.5"/>
                </g>
                <g id="arrowRight" xlink:href="#dirArrow" transform="rotate(90) translate(36 -43)" onmousedown="handlePan(1,0)">
                  <use xlink:href="#rim" fill="#404040">
                        <set attributeName="fill" to="#808080" begin="arrowRight.mouseover" end="arrowRight.mouseout"/>
                  </use>
                  <path fill="none" stroke="white" stroke-width="1.5" d="M0,-3.0v7 M-2.5,-0.5L0,-3.0L2.5,-0.5"/>
                </g>
                <g id="arrowDown" xlink:href="#dirArrow" transform="rotate(180) translate(-30 -48)" onmousedown="handlePan(0,1)">
                  <use xlink:href="#rim" fill="#404040">
                        <set attributeName="fill" to="#808080" begin="arrowDown.mouseover" end="arrowDown.mouseout"/>
                  </use>
                  <path fill="none" stroke="white" stroke-width="1.5" d="M0,-3.0v7 M-2.5,-0.5L0,-3.0L2.5,-0.5"/>
                </g>
                <g id="arrowLeft" xlink:href="#dirArrow" transform="rotate(270) translate(-36 17)" onmousedown="handlePan(-1,0)">
                  <use xlink:href="#rim" fill="#404040">
                        <set attributeName="fill" to="#808080" begin="arrowLeft.mouseover" end="arrowLeft.mouseout"/>
                  </use>
                  <path fill="none" stroke="white" stroke-width="1.5" d="M0,-3.0v7 M-2.5,-0.5L0,-3.0L2.5,-0.5"/>
                </g>
        </g>
        <svg viewBox="0 0 15 15" width="100%" height="30px" preserveAspectRatio="xMaxYMin meet">
         <g id="arrow_out" transform="scale(0.3 0.3)">
          <a xlink:href="a01269_gad273dc4b4b26574e92666e4020e1ef5a_cgraph_org.svg" target="_base">
           <rect id="button" ry="5" rx="5" y="6" x="6" height="38" width="38"
                fill="#f2f5e9" fill-opacity="0.5" stroke="#606060" stroke-width="1.0"/>
           <path id="arrow"
             d="M 11.500037,31.436501 C 11.940474,20.09759 22.043105,11.32322 32.158766,21.979434 L 37.068811,17.246167 C 37.068811,17.246167 37.088388,32 37.088388,32 L 22.160133,31.978069 C 22.160133,31.978069 26.997745,27.140456 26.997745,27.140456 C 18.528582,18.264221 13.291696,25.230495 11.500037,31.436501 z"
             style="fill:#404040;"/>
          </a>
         </g>
        </svg>
</svg>
