<?xml version="1.0" encoding="UTF-8" standalone="no"?>
<!DOCTYPE svg PUBLIC "-//W3C//DTD SVG 1.1//EN"
 "http://www.w3.org/Graphics/SVG/1.1/DTD/svg11.dtd">
<!-- Generated by graphviz version 2.38.0 (20140413.2041)
 -->
<!-- Title: MDB_GPIO_Switch Pages: 1 -->
<svg width="341pt" height="28pt"
 viewBox="0.00 0.00 341.00 28.00" xmlns="http://www.w3.org/2000/svg" xmlns:xlink="http://www.w3.org/1999/xlink">
<g id="graph0" class="graph" transform="scale(1 1) rotate(0) translate(4 24)">
<title>MDB_GPIO_Switch</title>
<polygon fill="white" stroke="none" points="-4,4 -4,-24 337,-24 337,4 -4,4"/>
<!-- Node1 -->
<g id="node1" class="node"><title>Node1</title>
<polygon fill="#bfbfbf" stroke="black" points="0,-0.5 0,-19.5 104,-19.5 104,-0.5 0,-0.5"/>
<text text-anchor="middle" x="52" y="-7.5" font-family="Helvetica,sans-Serif" font-size="10.00">MDB_GPIO_Switch</text>
</g>
<!-- Node2 -->
<g id="node2" class="node"><title>Node2</title>
<g id="a_node2"><a xlink:href="a01232.html#gab27f871618e69ee02c2d2bd756a97397" target="_top" xlink:title="Set beam control source and new state. ">
<polygon fill="white" stroke="black" points="140,-0.5 140,-19.5 196,-19.5 196,-0.5 140,-0.5"/>
<text text-anchor="middle" x="168" y="-7.5" font-family="Helvetica,sans-Serif" font-size="10.00">beamCtrl</text>
</a>
</g>
</g>
<!-- Node1&#45;&gt;Node2 -->
<g id="edge1" class="edge"><title>Node1&#45;&gt;Node2</title>
<path fill="none" stroke="midnightblue" d="M114.447,-10C123.393,-10 132.193,-10 139.956,-10"/>
<polygon fill="midnightblue" stroke="midnightblue" points="114.331,-6.5001 104.331,-10 114.331,-13.5001 114.331,-6.5001"/>
</g>
<!-- Node3 -->
<g id="node3" class="node"><title>Node3</title>
<g id="a_node3"><a xlink:href="a01253.html#ga3e965ca8f413e014ad3a4e27b6b7c0bc" target="_top" xlink:title="Timer 4 overrun IRQ callback. ">
<polygon fill="white" stroke="black" points="232,-0.5 232,-19.5 333,-19.5 333,-0.5 232,-0.5"/>
<text text-anchor="middle" x="282.5" y="-7.5" font-family="Helvetica,sans-Serif" font-size="10.00">TIM4_IRQ_Handler</text>
</a>
</g>
</g>
<!-- Node2&#45;&gt;Node3 -->
<g id="edge2" class="edge"><title>Node2&#45;&gt;Node3</title>
<path fill="none" stroke="midnightblue" d="M206.449,-10C214.527,-10 223.189,-10 231.654,-10"/>
<polygon fill="midnightblue" stroke="midnightblue" points="206.233,-6.5001 196.233,-10 206.233,-13.5001 206.233,-6.5001"/>
</g>
</g>
</svg>
