<?xml version="1.0" encoding="UTF-8" standalone="no"?>
<!DOCTYPE svg PUBLIC "-//W3C//DTD SVG 1.1//EN"
 "http://www.w3.org/Graphics/SVG/1.1/DTD/svg11.dtd">
<!-- Generated by graphviz version 2.38.0 (20140413.2041)
 -->
<!-- Title: arm_rms_f32 Pages: 1 -->
<!--zoomable 1738 -->
<svg id="main" version="1.1" xmlns="http://www.w3.org/2000/svg" xmlns:xlink="http://www.w3.org/1999/xlink" xml:space="preserve" onload="init(evt)">
<style type="text/css"><![CDATA[
.edge:hover path { stroke: red; }
.edge:hover polygon { stroke: red; fill: red; }
]]></style>
<script type="text/javascript"><![CDATA[
var edges = document.getElementsByTagName('g');
if (edges && edges.length) {
  for (var i=0;i<edges.length;i++) {
    if (edges[i].id.substr(0,4)=='edge') {
      edges[i].setAttribute('class','edge');
    }
  }
}
]]></script>
        <defs>
                <circle id="rim" cx="0" cy="0" r="7"/>
                <circle id="rim2" cx="0" cy="0" r="3.5"/>
                <g id="zoomPlus">
                        <use xlink:href="#rim" fill="#404040">
                                <set attributeName="fill" to="#808080" begin="zoomplus.mouseover" end="zoomplus.mouseout"/>
                        </use>
                        <path d="M-4,0h8M0,-4v8" fill="none" stroke="white" stroke-width="1.5" pointer-events="none"/>
                </g>
                <g id="zoomMin">
                        <use xlink:href="#rim" fill="#404040">
                                <set attributeName="fill" to="#808080" begin="zoomminus.mouseover" end="zoomminus.mouseout"/>
                        </use>
                        <path d="M-4,0h8" fill="none" stroke="white" stroke-width="1.5" pointer-events="none"/>
                </g>
                <g id="dirArrow">
                        <path fill="none" stroke="white" stroke-width="1.5" d="M0,-3.0v7 M-2.5,-0.5L0,-3.0L2.5,-0.5"/>
                </g>
               <g id="resetDef">
                       <use xlink:href="#rim2" fill="#404040">
                               <set attributeName="fill" to="#808080" begin="reset.mouseover" end="reset.mouseout"/>
                       </use>
               </g>
        </defs>

<script type="text/javascript">
var viewWidth = 481;
var viewHeight = 1738;
var sectionId = 'dynsection-1';
</script>
<script xlink:href="svgpan.js"/>
<svg id="graph" class="graph">
<g id="viewport">
<title>arm_rms_f32</title>
<polygon fill="white" stroke="none" points="-4,4 -4,-1734 477,-1734 477,4 -4,4"/>
<!-- Node1 -->
<g id="node1" class="node"><title>Node1</title>
<polygon fill="#bfbfbf" stroke="black" points="0,-893.5 0,-912.5 74,-912.5 74,-893.5 0,-893.5"/>
<text text-anchor="middle" x="37" y="-900.5" font-family="Helvetica,sans-Serif" font-size="10.00">arm_rms_f32</text>
</g>
<!-- Node2 -->
<g id="node2" class="node"><title>Node2</title>
<g id="a_node2"><a xlink:href="a01130.html#ga56a40d1cf842b0b45267df6761975da0" target="_top" xlink:title="Floating&#45;point square root function. ">
<polygon fill="white" stroke="black" points="110,-893.5 110,-912.5 184,-912.5 184,-893.5 110,-893.5"/>
<text text-anchor="middle" x="147" y="-900.5" font-family="Helvetica,sans-Serif" font-size="10.00">arm_sqrt_f32</text>
</a>
</g>
</g>
<!-- Node1&#45;&gt;Node2 -->
<g id="edge1" class="edge"><title>Node1&#45;&gt;Node2</title>
<path fill="none" stroke="midnightblue" d="M74.2629,-896.585C82.3661,-896.268 91.0689,-896.176 99.5209,-896.309"/>
<polygon fill="midnightblue" stroke="midnightblue" points="99.5584,-899.811 109.649,-896.581 99.7468,-892.813 99.5584,-899.811"/>
</g>
<!-- Node2&#45;&gt;Node1 -->
<g id="edge15" class="edge"><title>Node2&#45;&gt;Node1</title>
<path fill="none" stroke="midnightblue" d="M109.649,-909.419C101.541,-909.734 92.8374,-909.824 84.3872,-909.69"/>
<polygon fill="midnightblue" stroke="midnightblue" points="84.3542,-906.188 74.2629,-909.415 84.1643,-913.185 84.3542,-906.188"/>
</g>
<!-- Node3 -->
<g id="node3" class="node"><title>Node3</title>
<g id="a_node3"><a xlink:href="a01130.html#ga119e25831e141d734d7ef10636670058" target="_top" xlink:title="Q31 square root function. ">
<polygon fill="white" stroke="black" points="397,-1444.5 397,-1463.5 473,-1463.5 473,-1444.5 397,-1444.5"/>
<text text-anchor="middle" x="435" y="-1451.5" font-family="Helvetica,sans-Serif" font-size="10.00">arm_sqrt_q31</text>
</a>
</g>
</g>
<!-- Node2&#45;&gt;Node3 -->
<g id="edge2" class="edge"><title>Node2&#45;&gt;Node3</title>
<path fill="none" stroke="midnightblue" d="M148.977,-912.733C153.886,-959.763 177.332,-1163 220,-1207 265.183,-1253.59 313.468,-1200.81 361,-1245 416.575,-1296.67 429.848,-1392.96 433.012,-1434.3"/>
<polygon fill="midnightblue" stroke="midnightblue" points="429.529,-1434.67 433.663,-1444.43 436.514,-1434.22 429.529,-1434.67"/>
</g>
<!-- Node4 -->
<g id="node4" class="node"><title>Node4</title>
<g id="a_node4"><a xlink:href="a01130.html#ga5abe5ca724f3e15849662b03752c1238" target="_top" xlink:title="Q15 square root function. ">
<polygon fill="white" stroke="black" points="397,-1026.5 397,-1045.5 473,-1045.5 473,-1026.5 397,-1026.5"/>
<text text-anchor="middle" x="435" y="-1033.5" font-family="Helvetica,sans-Serif" font-size="10.00">arm_sqrt_q15</text>
</a>
</g>
</g>
<!-- Node2&#45;&gt;Node4 -->
<g id="edge3" class="edge"><title>Node2&#45;&gt;Node4</title>
<path fill="none" stroke="midnightblue" d="M163.813,-912.663C178.086,-921.062 199.873,-933.091 220,-941 280.406,-964.738 302.933,-950.007 361,-979 382.165,-989.568 403.114,-1006.82 417.104,-1019.57"/>
<polygon fill="midnightblue" stroke="midnightblue" points="414.794,-1022.21 424.487,-1026.48 419.577,-1017.09 414.794,-1022.21"/>
</g>
<!-- Node5 -->
<g id="node5" class="node"><title>Node5</title>
<g id="a_node5"><a xlink:href="a01199.html#ga0b93d31bb5b5ed214c2b94d8a7744cd2" target="_top" xlink:title="Sum of the squares of the elements of a Q31 vector. ">
<polygon fill="white" stroke="black" points="247.5,-1634.5 247.5,-1653.5 333.5,-1653.5 333.5,-1634.5 247.5,-1634.5"/>
<text text-anchor="middle" x="290.5" y="-1641.5" font-family="Helvetica,sans-Serif" font-size="10.00">arm_power_q31</text>
</a>
</g>
</g>
<!-- Node2&#45;&gt;Node5 -->
<g id="edge4" class="edge"><title>Node2&#45;&gt;Node5</title>
<path fill="none" stroke="midnightblue" d="M148.309,-912.613C151.009,-994.119 171.67,-1567.81 220,-1625 224.774,-1630.65 231.05,-1634.7 237.879,-1637.59"/>
<polygon fill="midnightblue" stroke="midnightblue" points="236.852,-1640.94 247.447,-1640.86 239.114,-1634.32 236.852,-1640.94"/>
</g>
<!-- Node6 -->
<g id="node6" class="node"><title>Node6</title>
<g id="a_node6"><a xlink:href="a01199.html#ga993c00dd7f661d66bdb6e58426e893aa" target="_top" xlink:title="Sum of the squares of the elements of a floating&#45;point vector. ">
<polygon fill="white" stroke="black" points="249,-1596.5 249,-1615.5 332,-1615.5 332,-1596.5 249,-1596.5"/>
<text text-anchor="middle" x="290.5" y="-1603.5" font-family="Helvetica,sans-Serif" font-size="10.00">arm_power_f32</text>
</a>
</g>
</g>
<!-- Node2&#45;&gt;Node6 -->
<g id="edge5" class="edge"><title>Node2&#45;&gt;Node6</title>
<path fill="none" stroke="midnightblue" d="M148.374,-912.853C151.49,-992.761 174.185,-1533.09 220,-1587 225.126,-1593.03 231.965,-1597.24 239.356,-1600.16"/>
<polygon fill="midnightblue" stroke="midnightblue" points="238.336,-1603.51 248.926,-1603.21 240.462,-1596.84 238.336,-1603.51"/>
</g>
<!-- Node7 -->
<g id="node7" class="node"><title>Node7</title>
<g id="a_node7"><a xlink:href="a01199.html#ga7050c04b7515e01a75c38f1abbaf71ba" target="_top" xlink:title="Sum of the squares of the elements of a Q15 vector. ">
<polygon fill="white" stroke="black" points="247.5,-1558.5 247.5,-1577.5 333.5,-1577.5 333.5,-1558.5 247.5,-1558.5"/>
<text text-anchor="middle" x="290.5" y="-1565.5" font-family="Helvetica,sans-Serif" font-size="10.00">arm_power_q15</text>
</a>
</g>
</g>
<!-- Node2&#45;&gt;Node7 -->
<g id="edge6" class="edge"><title>Node2&#45;&gt;Node7</title>
<path fill="none" stroke="midnightblue" d="M148.435,-912.791C151.945,-989.941 176.637,-1498.29 220,-1549 224.643,-1554.43 230.673,-1558.38 237.24,-1561.25"/>
<polygon fill="midnightblue" stroke="midnightblue" points="236.553,-1564.71 247.147,-1564.71 238.863,-1558.11 236.553,-1564.71"/>
</g>
<!-- Node8 -->
<g id="node8" class="node"><title>Node8</title>
<g id="a_node8"><a xlink:href="a01199.html#gaf969c85c5655e3d72d7b99ff188f92c9" target="_top" xlink:title="Sum of the squares of the elements of a Q7 vector. ">
<polygon fill="white" stroke="black" points="250.5,-1520.5 250.5,-1539.5 330.5,-1539.5 330.5,-1520.5 250.5,-1520.5"/>
<text text-anchor="middle" x="290.5" y="-1527.5" font-family="Helvetica,sans-Serif" font-size="10.00">arm_power_q7</text>
</a>
</g>
</g>
<!-- Node2&#45;&gt;Node8 -->
<g id="edge7" class="edge"><title>Node2&#45;&gt;Node8</title>
<path fill="none" stroke="midnightblue" d="M148.5,-912.683C152.417,-986.864 179.079,-1463.48 220,-1511 225.455,-1517.33 232.798,-1521.66 240.671,-1524.59"/>
<polygon fill="midnightblue" stroke="midnightblue" points="239.864,-1528 250.447,-1527.51 241.869,-1521.29 239.864,-1528"/>
</g>
<!-- Node9 -->
<g id="node9" class="node"><title>Node9</title>
<g id="a_node9"><a xlink:href="a01197.html#gaebc707ee539020357c25da4c75b52eb7" target="_top" xlink:title="Mean value of a Q7 vector. ">
<polygon fill="white" stroke="black" points="251.5,-1482.5 251.5,-1501.5 329.5,-1501.5 329.5,-1482.5 251.5,-1482.5"/>
<text text-anchor="middle" x="290.5" y="-1489.5" font-family="Helvetica,sans-Serif" font-size="10.00">arm_mean_q7</text>
</a>
</g>
</g>
<!-- Node2&#45;&gt;Node9 -->
<g id="edge8" class="edge"><title>Node2&#45;&gt;Node9</title>
<path fill="none" stroke="midnightblue" d="M147.816,-912.517C146.71,-979.886 143.343,-1384.68 220,-1473 225.657,-1479.52 233.314,-1483.9 241.481,-1486.83"/>
<polygon fill="midnightblue" stroke="midnightblue" points="240.636,-1490.23 251.214,-1489.64 242.576,-1483.5 240.636,-1490.23"/>
</g>
<!-- Node10 -->
<g id="node10" class="node"><title>Node10</title>
<g id="a_node10"><a xlink:href="a01197.html#gac882495d5f098819fd3939c1ef7795b3" target="_top" xlink:title="Mean value of a Q15 vector. ">
<polygon fill="white" stroke="black" points="249,-1444.5 249,-1463.5 332,-1463.5 332,-1444.5 249,-1444.5"/>
<text text-anchor="middle" x="290.5" y="-1451.5" font-family="Helvetica,sans-Serif" font-size="10.00">arm_mean_q15</text>
</a>
</g>
</g>
<!-- Node2&#45;&gt;Node10 -->
<g id="edge9" class="edge"><title>Node2&#45;&gt;Node10</title>
<path fill="none" stroke="midnightblue" d="M147.909,-912.709C147.499,-978.016 148.312,-1353.14 220,-1435 225.042,-1440.76 231.645,-1444.85 238.773,-1447.74"/>
<polygon fill="midnightblue" stroke="midnightblue" points="238.131,-1451.21 248.723,-1450.99 240.301,-1444.56 238.131,-1451.21"/>
</g>
<!-- Node11 -->
<g id="node11" class="node"><title>Node11</title>
<g id="a_node11"><a xlink:href="a01197.html#gacf2526d8c2d75e486e8f0b0e31877ad0" target="_top" xlink:title="Mean value of a Q31 vector. ">
<polygon fill="white" stroke="black" points="249,-1406.5 249,-1425.5 332,-1425.5 332,-1406.5 249,-1406.5"/>
<text text-anchor="middle" x="290.5" y="-1413.5" font-family="Helvetica,sans-Serif" font-size="10.00">arm_mean_q31</text>
</a>
</g>
</g>
<!-- Node2&#45;&gt;Node11 -->
<g id="edge10" class="edge"><title>Node2&#45;&gt;Node11</title>
<path fill="none" stroke="midnightblue" d="M148.021,-912.816C148.355,-975.679 153.237,-1321.54 220,-1397 225.072,-1402.73 231.689,-1406.81 238.824,-1409.7"/>
<polygon fill="midnightblue" stroke="midnightblue" points="238.185,-1413.17 248.777,-1412.94 240.353,-1406.51 238.185,-1413.17"/>
</g>
<!-- Node12 -->
<g id="node12" class="node"><title>Node12</title>
<g id="a_node12"><a xlink:href="a01197.html#ga74ce08c49ab61e57bd50c3a0ca1fdb2b" target="_top" xlink:title="Mean value of a floating&#45;point vector. ">
<polygon fill="white" stroke="black" points="250,-1368.5 250,-1387.5 331,-1387.5 331,-1368.5 250,-1368.5"/>
<text text-anchor="middle" x="290.5" y="-1375.5" font-family="Helvetica,sans-Serif" font-size="10.00">arm_mean_f32</text>
</a>
</g>
</g>
<!-- Node2&#45;&gt;Node12 -->
<g id="edge11" class="edge"><title>Node2&#45;&gt;Node12</title>
<path fill="none" stroke="midnightblue" d="M148.152,-912.831C149.277,-972.876 158.115,-1289.89 220,-1359 225.398,-1365.03 232.505,-1369.22 240.114,-1372.13"/>
<polygon fill="midnightblue" stroke="midnightblue" points="239.341,-1375.55 249.928,-1375.15 241.404,-1368.86 239.341,-1375.55"/>
</g>
<!-- Node13 -->
<g id="node13" class="node"><title>Node13</title>
<g id="a_node13"><a xlink:href="a01202.html#ga393f26c5a3bfa05624fb8d32232a6d96" target="_top" xlink:title="Variance of the elements of a floating&#45;point vector. ">
<polygon fill="white" stroke="black" points="255,-1330.5 255,-1349.5 326,-1349.5 326,-1330.5 255,-1330.5"/>
<text text-anchor="middle" x="290.5" y="-1337.5" font-family="Helvetica,sans-Serif" font-size="10.00">arm_var_f32</text>
</a>
</g>
</g>
<!-- Node2&#45;&gt;Node13 -->
<g id="edge12" class="edge"><title>Node2&#45;&gt;Node13</title>
<path fill="none" stroke="midnightblue" d="M148.303,-912.746C150.263,-969.609 162.947,-1258.17 220,-1321 226.553,-1328.22 235.557,-1332.8 244.912,-1335.69"/>
<polygon fill="midnightblue" stroke="midnightblue" points="244.152,-1339.1 254.7,-1338.12 245.839,-1332.31 244.152,-1339.1"/>
</g>
<!-- Node14 -->
<g id="node14" class="node"><title>Node14</title>
<g id="a_node14"><a xlink:href="a01202.html#gac02873f1c2cc80adfd799305f0e6465d" target="_top" xlink:title="Variance of the elements of a Q31 vector. ">
<polygon fill="white" stroke="black" points="254,-1292.5 254,-1311.5 327,-1311.5 327,-1292.5 254,-1292.5"/>
<text text-anchor="middle" x="290.5" y="-1299.5" font-family="Helvetica,sans-Serif" font-size="10.00">arm_var_q31</text>
</a>
</g>
</g>
<!-- Node2&#45;&gt;Node14 -->
<g id="edge13" class="edge"><title>Node2&#45;&gt;Node14</title>
<path fill="none" stroke="midnightblue" d="M148.474,-912.553C151.313,-965.88 167.729,-1226.39 220,-1283 226.357,-1289.88 234.944,-1294.37 243.912,-1297.26"/>
<polygon fill="midnightblue" stroke="midnightblue" points="243.145,-1300.68 253.705,-1299.82 244.915,-1293.91 243.145,-1300.68"/>
</g>
<!-- Node15 -->
<g id="node15" class="node"><title>Node15</title>
<g id="a_node15"><a xlink:href="a01202.html#ga79dce009ed2de28a125aeb3f19631654" target="_top" xlink:title="Variance of the elements of a Q15 vector. ">
<polygon fill="white" stroke="black" points="254,-1254.5 254,-1273.5 327,-1273.5 327,-1254.5 254,-1254.5"/>
<text text-anchor="middle" x="290.5" y="-1261.5" font-family="Helvetica,sans-Serif" font-size="10.00">arm_var_q15</text>
</a>
</g>
</g>
<!-- Node2&#45;&gt;Node15 -->
<g id="edge14" class="edge"><title>Node2&#45;&gt;Node15</title>
<path fill="none" stroke="midnightblue" d="M148.802,-912.705C153.098,-962.511 174.902,-1189.03 220,-1240 226.404,-1247.24 235.098,-1252.29 244.168,-1255.82"/>
<polygon fill="midnightblue" stroke="midnightblue" points="243.082,-1259.15 253.675,-1258.98 245.287,-1252.51 243.082,-1259.15"/>
</g>
<!-- Node16 -->
<g id="node16" class="node"><title>Node16</title>
<g id="a_node16"><a xlink:href="a01200.html#gae33015fda23fc44e7ead5e5ed7e8d314" target="_top" xlink:title="Root Mean Square of the elements of a Q31 vector. ">
<polygon fill="white" stroke="black" points="252.5,-1178.5 252.5,-1197.5 328.5,-1197.5 328.5,-1178.5 252.5,-1178.5"/>
<text text-anchor="middle" x="290.5" y="-1185.5" font-family="Helvetica,sans-Serif" font-size="10.00">arm_rms_q31</text>
</a>
</g>
</g>
<!-- Node2&#45;&gt;Node16 -->
<g id="edge16" class="edge"><title>Node2&#45;&gt;Node16</title>
<path fill="none" stroke="midnightblue" d="M147.472,-912.618C145.922,-950.944 145.5,-1094.31 220,-1169 226.159,-1175.17 234.118,-1179.39 242.44,-1182.27"/>
<polygon fill="midnightblue" stroke="midnightblue" points="241.714,-1185.7 252.289,-1185.06 243.622,-1178.96 241.714,-1185.7"/>
</g>
<!-- Node17 -->
<g id="node17" class="node"><title>Node17</title>
<g id="a_node17"><a xlink:href="a01200.html#gaf5b836b72dda9e5dfbbd17c7906fd13f" target="_top" xlink:title="Root Mean Square of the elements of a Q15 vector. ">
<polygon fill="white" stroke="black" points="252.5,-1064.5 252.5,-1083.5 328.5,-1083.5 328.5,-1064.5 252.5,-1064.5"/>
<text text-anchor="middle" x="290.5" y="-1071.5" font-family="Helvetica,sans-Serif" font-size="10.00">arm_rms_q15</text>
</a>
</g>
</g>
<!-- Node2&#45;&gt;Node17 -->
<g id="edge18" class="edge"><title>Node2&#45;&gt;Node17</title>
<path fill="none" stroke="midnightblue" d="M149.66,-912.525C154.838,-939.294 173.231,-1015.8 220,-1055 226.546,-1060.49 234.544,-1064.4 242.754,-1067.18"/>
<polygon fill="midnightblue" stroke="midnightblue" points="241.837,-1070.56 252.415,-1069.97 243.774,-1063.84 241.837,-1070.56"/>
</g>
<!-- Node18 -->
<g id="node18" class="node"><title>Node18</title>
<g id="a_node18"><a xlink:href="a01201.html#ga4969b5b5f3d001377bc401a3ee99dfc2" target="_top" xlink:title="Standard deviation of the elements of a floating&#45;point vector. ">
<polygon fill="white" stroke="black" points="255,-1140.5 255,-1159.5 326,-1159.5 326,-1140.5 255,-1140.5"/>
<text text-anchor="middle" x="290.5" y="-1147.5" font-family="Helvetica,sans-Serif" font-size="10.00">arm_std_f32</text>
</a>
</g>
</g>
<!-- Node2&#45;&gt;Node18 -->
<g id="edge20" class="edge"><title>Node2&#45;&gt;Node18</title>
<path fill="none" stroke="midnightblue" d="M148.053,-912.554C148.971,-946.861 157.17,-1061.57 220,-1122 228.438,-1130.11 239.994,-1134.84 251.262,-1138"/>
<polygon fill="midnightblue" stroke="midnightblue" points="250.454,-1141.4 261.004,-1140.42 252.145,-1134.61 250.454,-1141.4"/>
</g>
<!-- Node19 -->
<g id="node19" class="node"><title>Node19</title>
<g id="a_node19"><a xlink:href="a01201.html#ga39495e74f96116178be085c9dc7742f5" target="_top" xlink:title="Standard deviation of the elements of a Q31 vector. ">
<polygon fill="white" stroke="black" points="254,-1710.5 254,-1729.5 327,-1729.5 327,-1710.5 254,-1710.5"/>
<text text-anchor="middle" x="290.5" y="-1717.5" font-family="Helvetica,sans-Serif" font-size="10.00">arm_std_q31</text>
</a>
</g>
</g>
<!-- Node2&#45;&gt;Node19 -->
<g id="edge22" class="edge"><title>Node2&#45;&gt;Node19</title>
<path fill="none" stroke="midnightblue" d="M148.211,-912.514C150.194,-998.34 166.705,-1637.33 220,-1701 226.198,-1708.4 234.976,-1713.07 244.216,-1715.98"/>
<polygon fill="midnightblue" stroke="midnightblue" points="243.372,-1719.37 253.923,-1718.41 245.074,-1712.58 243.372,-1719.37"/>
</g>
<!-- Node20 -->
<g id="node20" class="node"><title>Node20</title>
<g id="a_node20"><a xlink:href="a01201.html#gaf9d27afa9928ff28a63cd98ea9218a72" target="_top" xlink:title="Standard deviation of the elements of a Q15 vector. ">
<polygon fill="white" stroke="black" points="254,-1102.5 254,-1121.5 327,-1121.5 327,-1102.5 254,-1102.5"/>
<text text-anchor="middle" x="290.5" y="-1109.5" font-family="Helvetica,sans-Serif" font-size="10.00">arm_std_q15</text>
</a>
</g>
</g>
<!-- Node2&#45;&gt;Node20 -->
<g id="edge24" class="edge"><title>Node2&#45;&gt;Node20</title>
<path fill="none" stroke="midnightblue" d="M148.667,-912.564C151.357,-943.57 164.138,-1042.23 220,-1093 226.725,-1099.11 235.232,-1103.29 243.966,-1106.13"/>
<polygon fill="midnightblue" stroke="midnightblue" points="243.274,-1109.57 253.841,-1108.81 245.105,-1102.81 243.274,-1109.57"/>
</g>
<!-- Node21 -->
<g id="node21" class="node"><title>Node21</title>
<g id="a_node21"><a xlink:href="a01167.html#gae45024c497392cde2ae358a76d435213" target="_top" xlink:title="Floating&#45;point complex magnitude. ">
<polygon fill="white" stroke="black" points="237,-1026.5 237,-1045.5 344,-1045.5 344,-1026.5 237,-1026.5"/>
<text text-anchor="middle" x="290.5" y="-1033.5" font-family="Helvetica,sans-Serif" font-size="10.00">arm_cmplx_mag_f32</text>
</a>
</g>
</g>
<!-- Node2&#45;&gt;Node21 -->
<g id="edge26" class="edge"><title>Node2&#45;&gt;Node21</title>
<path fill="none" stroke="midnightblue" d="M153.356,-912.551C162.853,-933.655 185.003,-982.097 220,-1008 230.869,-1016.04 244.951,-1020.68 257.595,-1024.04"/>
<polygon fill="midnightblue" stroke="midnightblue" points="256.786,-1027.44 267.338,-1026.49 258.495,-1020.65 256.786,-1027.44"/>
</g>
<!-- Node22 -->
<g id="node22" class="node"><title>Node22</title>
<g id="a_node22"><a xlink:href="a01167.html#ga14f82f9230e9d96d5b9774e2fefcb7be" target="_top" xlink:title="Q31 complex magnitude. ">
<polygon fill="white" stroke="black" points="235.5,-1672.5 235.5,-1691.5 345.5,-1691.5 345.5,-1672.5 235.5,-1672.5"/>
<text text-anchor="middle" x="290.5" y="-1679.5" font-family="Helvetica,sans-Serif" font-size="10.00">arm_cmplx_mag_q31</text>
</a>
</g>
</g>
<!-- Node2&#45;&gt;Node22 -->
<g id="edge28" class="edge"><title>Node2&#45;&gt;Node22</title>
<path fill="none" stroke="midnightblue" d="M148.258,-912.583C150.593,-996.359 169.193,-1602.58 220,-1663 221.962,-1665.33 224.181,-1667.4 226.59,-1669.22"/>
<polygon fill="midnightblue" stroke="midnightblue" points="225.039,-1672.37 235.413,-1674.52 228.644,-1666.37 225.039,-1672.37"/>
</g>
<!-- Node23 -->
<g id="node23" class="node"><title>Node23</title>
<g id="a_node23"><a xlink:href="a01167.html#ga0a4a8f77a6a51d9b3f3b9d729f85b7a4" target="_top" xlink:title="Q15 complex magnitude. ">
<polygon fill="white" stroke="black" points="235.5,-988.5 235.5,-1007.5 345.5,-1007.5 345.5,-988.5 235.5,-988.5"/>
<text text-anchor="middle" x="290.5" y="-995.5" font-family="Helvetica,sans-Serif" font-size="10.00">arm_cmplx_mag_q15</text>
</a>
</g>
</g>
<!-- Node2&#45;&gt;Node23 -->
<g id="edge30" class="edge"><title>Node2&#45;&gt;Node23</title>
<path fill="none" stroke="midnightblue" d="M155.369,-912.647C167.367,-927.74 192.554,-956.966 220,-974 226.94,-978.307 234.752,-981.96 242.567,-985.018"/>
<polygon fill="midnightblue" stroke="midnightblue" points="241.449,-988.335 252.043,-988.455 243.836,-981.755 241.449,-988.335"/>
</g>
<!-- Node24 -->
<g id="node24" class="node"><title>Node24</title>
<g id="a_node24"><a xlink:href="a01166.html#ga2b08b5e8001d2c15204639d00893fc70" target="_top" xlink:title="Q15 complex dot product. ">
<polygon fill="white" stroke="black" points="226.5,-912.5 226.5,-931.5 354.5,-931.5 354.5,-912.5 226.5,-912.5"/>
<text text-anchor="middle" x="290.5" y="-919.5" font-family="Helvetica,sans-Serif" font-size="10.00">arm_cmplx_dot_prod_q15</text>
</a>
</g>
</g>
<!-- Node2&#45;&gt;Node24 -->
<g id="edge32" class="edge"><title>Node2&#45;&gt;Node24</title>
<path fill="none" stroke="midnightblue" d="M184.073,-907.844C193.915,-909.165 204.947,-910.647 216.067,-912.14"/>
<polygon fill="midnightblue" stroke="midnightblue" points="215.896,-915.648 226.273,-913.51 216.828,-908.71 215.896,-915.648"/>
</g>
<!-- Node25 -->
<g id="node25" class="node"><title>Node25</title>
<g id="a_node25"><a xlink:href="a01166.html#ga5b731a59db062a9ad84562ef68a6c8af" target="_top" xlink:title="Q31 complex dot product. ">
<polygon fill="white" stroke="black" points="226.5,-874.5 226.5,-893.5 354.5,-893.5 354.5,-874.5 226.5,-874.5"/>
<text text-anchor="middle" x="290.5" y="-881.5" font-family="Helvetica,sans-Serif" font-size="10.00">arm_cmplx_dot_prod_q31</text>
</a>
</g>
</g>
<!-- Node2&#45;&gt;Node25 -->
<g id="edge33" class="edge"><title>Node2&#45;&gt;Node25</title>
<path fill="none" stroke="midnightblue" d="M184.073,-898.156C193.915,-896.835 204.947,-895.353 216.067,-893.86"/>
<polygon fill="midnightblue" stroke="midnightblue" points="216.828,-897.29 226.273,-892.49 215.896,-890.352 216.828,-897.29"/>
</g>
<!-- Node26 -->
<g id="node26" class="node"><title>Node26</title>
<g id="a_node26"><a xlink:href="a01166.html#gadcfaf567a25eb641da4043eafb9bb076" target="_top" xlink:title="Floating&#45;point complex dot product. ">
<polygon fill="white" stroke="black" points="227.5,-836.5 227.5,-855.5 353.5,-855.5 353.5,-836.5 227.5,-836.5"/>
<text text-anchor="middle" x="290.5" y="-843.5" font-family="Helvetica,sans-Serif" font-size="10.00">arm_cmplx_dot_prod_f32</text>
</a>
</g>
</g>
<!-- Node2&#45;&gt;Node26 -->
<g id="edge34" class="edge"><title>Node2&#45;&gt;Node26</title>
<path fill="none" stroke="midnightblue" d="M163.82,-893.354C178.098,-884.967 199.887,-872.946 220,-865 225.955,-862.647 232.307,-860.476 238.66,-858.507"/>
<polygon fill="midnightblue" stroke="midnightblue" points="239.982,-861.767 248.586,-855.584 238.004,-855.052 239.982,-861.767"/>
</g>
<!-- Node27 -->
<g id="node27" class="node"><title>Node27</title>
<g id="a_node27"><a xlink:href="a01170.html#ga3bd8889dcb45980e1d3e53344df54e85" target="_top" xlink:title="Q15 complex&#45;by&#45;real multiplication. ">
<polygon fill="white" stroke="black" points="225,-798.5 225,-817.5 356,-817.5 356,-798.5 225,-798.5"/>
<text text-anchor="middle" x="290.5" y="-805.5" font-family="Helvetica,sans-Serif" font-size="10.00">arm_cmplx_mult_real_q15</text>
</a>
</g>
</g>
<!-- Node2&#45;&gt;Node27 -->
<g id="edge35" class="edge"><title>Node2&#45;&gt;Node27</title>
<path fill="none" stroke="midnightblue" d="M154.337,-893.478C165.597,-877.315 190.686,-844.557 220,-827 223.622,-824.831 227.497,-822.903 231.495,-821.191"/>
<polygon fill="midnightblue" stroke="midnightblue" points="232.887,-824.407 240.986,-817.576 230.396,-817.865 232.887,-824.407"/>
</g>
<!-- Node28 -->
<g id="node28" class="node"><title>Node28</title>
<g id="a_node28"><a xlink:href="a01170.html#ga715e4bb8e945b8ca51ec5237611697ce" target="_top" xlink:title="Q31 complex&#45;by&#45;real multiplication. ">
<polygon fill="white" stroke="black" points="225,-760.5 225,-779.5 356,-779.5 356,-760.5 225,-760.5"/>
<text text-anchor="middle" x="290.5" y="-767.5" font-family="Helvetica,sans-Serif" font-size="10.00">arm_cmplx_mult_real_q31</text>
</a>
</g>
</g>
<!-- Node2&#45;&gt;Node28 -->
<g id="edge36" class="edge"><title>Node2&#45;&gt;Node28</title>
<path fill="none" stroke="midnightblue" d="M151.305,-893.351C159.364,-871.305 182.181,-816.992 220,-789 222.532,-787.126 225.239,-785.436 228.062,-783.913"/>
<polygon fill="midnightblue" stroke="midnightblue" points="229.791,-786.97 237.398,-779.595 226.852,-780.617 229.791,-786.97"/>
</g>
<!-- Node29 -->
<g id="node29" class="node"><title>Node29</title>
<g id="a_node29"><a xlink:href="a01170.html#ga9c18616f56cb4d3c0889ce0b339221ca" target="_top" xlink:title="Floating&#45;point complex&#45;by&#45;real multiplication. ">
<polygon fill="white" stroke="black" points="226.5,-722.5 226.5,-741.5 354.5,-741.5 354.5,-722.5 226.5,-722.5"/>
<text text-anchor="middle" x="290.5" y="-729.5" font-family="Helvetica,sans-Serif" font-size="10.00">arm_cmplx_mult_real_f32</text>
</a>
</g>
</g>
<!-- Node2&#45;&gt;Node29 -->
<g id="edge37" class="edge"><title>Node2&#45;&gt;Node29</title>
<path fill="none" stroke="midnightblue" d="M149.66,-893.475C154.838,-866.706 173.231,-790.205 220,-751 222.013,-749.312 224.164,-747.774 226.415,-746.371"/>
<polygon fill="midnightblue" stroke="midnightblue" points="228.287,-749.343 235.527,-741.608 225.043,-743.139 228.287,-749.343"/>
</g>
<!-- Node30 -->
<g id="node30" class="node"><title>Node30</title>
<g id="a_node30"><a xlink:href="a01198.html#ga3631d38ac8d715fc14f6f1b343f4c4ed" target="_top" xlink:title="Minimum value of a Q7 vector. ">
<polygon fill="white" stroke="black" points="255.5,-684.5 255.5,-703.5 325.5,-703.5 325.5,-684.5 255.5,-684.5"/>
<text text-anchor="middle" x="290.5" y="-691.5" font-family="Helvetica,sans-Serif" font-size="10.00">arm_min_q7</text>
</a>
</g>
</g>
<!-- Node2&#45;&gt;Node30 -->
<g id="edge38" class="edge"><title>Node2&#45;&gt;Node30</title>
<path fill="none" stroke="midnightblue" d="M148.667,-893.436C151.357,-862.43 164.138,-763.774 220,-713 227.07,-706.574 236.107,-702.292 245.309,-699.445"/>
<polygon fill="midnightblue" stroke="midnightblue" points="246.457,-702.764 255.273,-696.887 244.716,-695.984 246.457,-702.764"/>
</g>
<!-- Node31 -->
<g id="node31" class="node"><title>Node31</title>
<g id="a_node31"><a xlink:href="a01198.html#gad065e37535ebb726750ac1545cb3fa6f" target="_top" xlink:title="Minimum value of a Q15 vector. ">
<polygon fill="white" stroke="black" points="253,-646.5 253,-665.5 328,-665.5 328,-646.5 253,-646.5"/>
<text text-anchor="middle" x="290.5" y="-653.5" font-family="Helvetica,sans-Serif" font-size="10.00">arm_min_q15</text>
</a>
</g>
</g>
<!-- Node2&#45;&gt;Node31 -->
<g id="edge39" class="edge"><title>Node2&#45;&gt;Node31</title>
<path fill="none" stroke="midnightblue" d="M147.984,-893.085C148.485,-857.847 155.076,-737.439 220,-675 226.42,-668.826 234.645,-664.617 243.174,-661.757"/>
<polygon fill="midnightblue" stroke="midnightblue" points="244.155,-665.117 252.854,-659.068 242.282,-658.372 244.155,-665.117"/>
</g>
<!-- Node32 -->
<g id="node32" class="node"><title>Node32</title>
<g id="a_node32"><a xlink:href="a01198.html#gab20faeceb5ff5d2d9dd628c2ecf41303" target="_top" xlink:title="Minimum value of a Q31 vector. ">
<polygon fill="white" stroke="black" points="253,-608.5 253,-627.5 328,-627.5 328,-608.5 253,-608.5"/>
<text text-anchor="middle" x="290.5" y="-615.5" font-family="Helvetica,sans-Serif" font-size="10.00">arm_min_q31</text>
</a>
</g>
</g>
<!-- Node2&#45;&gt;Node32 -->
<g id="edge40" class="edge"><title>Node2&#45;&gt;Node32</title>
<path fill="none" stroke="midnightblue" d="M147.472,-893.382C145.922,-855.056 145.5,-711.688 220,-637 226.29,-630.694 234.458,-626.426 242.972,-623.55"/>
<polygon fill="midnightblue" stroke="midnightblue" points="243.952,-626.911 252.65,-620.861 242.078,-620.166 243.952,-626.911"/>
</g>
<!-- Node33 -->
<g id="node33" class="node"><title>Node33</title>
<g id="a_node33"><a xlink:href="a01198.html#gaf62b1673740fc516ea64daf777b7d74a" target="_top" xlink:title="Minimum value of a floating&#45;point vector. ">
<polygon fill="white" stroke="black" points="254,-570.5 254,-589.5 327,-589.5 327,-570.5 254,-570.5"/>
<text text-anchor="middle" x="290.5" y="-577.5" font-family="Helvetica,sans-Serif" font-size="10.00">arm_min_f32</text>
</a>
</g>
</g>
<!-- Node2&#45;&gt;Node33 -->
<g id="edge41" class="edge"><title>Node2&#45;&gt;Node33</title>
<path fill="none" stroke="midnightblue" d="M148.98,-893.27C153.905,-846.255 177.412,-643.075 220,-599 226.511,-592.262 235.162,-587.84 244.143,-584.956"/>
<polygon fill="midnightblue" stroke="midnightblue" points="245.145,-588.312 253.933,-582.394 243.372,-581.54 245.145,-588.312"/>
</g>
<!-- Node34 -->
<g id="node34" class="node"><title>Node34</title>
<g id="a_node34"><a xlink:href="a01196.html#ga6afd64d381b5c232de59163ebfe71e35" target="_top" xlink:title="Maximum value of a Q7 vector. ">
<polygon fill="white" stroke="black" points="254,-532.5 254,-551.5 327,-551.5 327,-532.5 254,-532.5"/>
<text text-anchor="middle" x="290.5" y="-539.5" font-family="Helvetica,sans-Serif" font-size="10.00">arm_max_q7</text>
</a>
</g>
</g>
<!-- Node2&#45;&gt;Node34 -->
<g id="edge42" class="edge"><title>Node2&#45;&gt;Node34</title>
<path fill="none" stroke="midnightblue" d="M148.693,-893.428C152.512,-843.291 172.562,-611.341 220,-561 226.426,-554.181 235.042,-549.726 244.016,-546.835"/>
<polygon fill="midnightblue" stroke="midnightblue" points="245.018,-550.19 253.807,-544.274 243.247,-543.418 245.018,-550.19"/>
</g>
<!-- Node35 -->
<g id="node35" class="node"><title>Node35</title>
<g id="a_node35"><a xlink:href="a01196.html#gac132856c68f4bf2a056eaad5921c7880" target="_top" xlink:title="Maximum value of a Q15 vector. ">
<polygon fill="white" stroke="black" points="251.5,-494.5 251.5,-513.5 329.5,-513.5 329.5,-494.5 251.5,-494.5"/>
<text text-anchor="middle" x="290.5" y="-501.5" font-family="Helvetica,sans-Serif" font-size="10.00">arm_max_q15</text>
</a>
</g>
</g>
<!-- Node2&#45;&gt;Node35 -->
<g id="edge43" class="edge"><title>Node2&#45;&gt;Node35</title>
<path fill="none" stroke="midnightblue" d="M148.474,-893.447C151.313,-840.12 167.729,-579.607 220,-523 225.794,-516.725 233.442,-512.446 241.542,-509.544"/>
<polygon fill="midnightblue" stroke="midnightblue" points="242.556,-512.894 251.175,-506.733 240.595,-506.174 242.556,-512.894"/>
</g>
<!-- Node36 -->
<g id="node36" class="node"><title>Node36</title>
<g id="a_node36"><a xlink:href="a01196.html#gaff7cbd4e955382def06724cc4cc85795" target="_top" xlink:title="Maximum value of a Q31 vector. ">
<polygon fill="white" stroke="black" points="251.5,-456.5 251.5,-475.5 329.5,-475.5 329.5,-456.5 251.5,-456.5"/>
<text text-anchor="middle" x="290.5" y="-463.5" font-family="Helvetica,sans-Serif" font-size="10.00">arm_max_q31</text>
</a>
</g>
</g>
<!-- Node2&#45;&gt;Node36 -->
<g id="edge44" class="edge"><title>Node2&#45;&gt;Node36</title>
<path fill="none" stroke="midnightblue" d="M148.303,-893.254C150.263,-836.391 162.947,-547.829 220,-485 225.802,-478.61 233.526,-474.285 241.713,-471.375"/>
<polygon fill="midnightblue" stroke="midnightblue" points="242.81,-474.701 251.45,-468.57 240.872,-467.975 242.81,-474.701"/>
</g>
<!-- Node37 -->
<g id="node37" class="node"><title>Node37</title>
<g id="a_node37"><a xlink:href="a01196.html#ga5b89d1b04575aeec494f678695fb87d8" target="_top" xlink:title="Maximum value of a floating&#45;point vector. ">
<polygon fill="white" stroke="black" points="252.5,-418.5 252.5,-437.5 328.5,-437.5 328.5,-418.5 252.5,-418.5"/>
<text text-anchor="middle" x="290.5" y="-425.5" font-family="Helvetica,sans-Serif" font-size="10.00">arm_max_f32</text>
</a>
</g>
</g>
<!-- Node2&#45;&gt;Node37 -->
<g id="edge45" class="edge"><title>Node2&#45;&gt;Node37</title>
<path fill="none" stroke="midnightblue" d="M148.152,-893.169C149.277,-833.124 158.115,-516.114 220,-447 226.002,-440.297 234.118,-435.861 242.686,-432.947"/>
<polygon fill="midnightblue" stroke="midnightblue" points="243.746,-436.285 252.463,-430.263 241.894,-429.535 243.746,-436.285"/>
</g>
<!-- Node38 -->
<g id="node38" class="node"><title>Node38</title>
<g id="a_node38"><a xlink:href="a01169.html#ga67e96abfc9c3e30efb70a2ec9d0fe7e8" target="_top" xlink:title="Q15 complex&#45;by&#45;complex multiplication. ">
<polygon fill="white" stroke="black" points="220,-380.5 220,-399.5 361,-399.5 361,-380.5 220,-380.5"/>
<text text-anchor="middle" x="290.5" y="-387.5" font-family="Helvetica,sans-Serif" font-size="10.00">arm_cmplx_mult_cmplx_q15</text>
</a>
</g>
</g>
<!-- Node2&#45;&gt;Node38 -->
<g id="edge46" class="edge"><title>Node2&#45;&gt;Node38</title>
<path fill="none" stroke="midnightblue" d="M148.021,-893.184C148.355,-830.321 153.237,-484.459 220,-409 221.168,-407.68 222.418,-406.447 223.738,-405.297"/>
<polygon fill="midnightblue" stroke="midnightblue" points="225.761,-408.153 231.968,-399.566 221.761,-402.408 225.761,-408.153"/>
</g>
<!-- Node39 -->
<g id="node39" class="node"><title>Node39</title>
<g id="a_node39"><a xlink:href="a01169.html#ga1829e50993a90742de225a0ce4213838" target="_top" xlink:title="Q31 complex&#45;by&#45;complex multiplication. ">
<polygon fill="white" stroke="black" points="220,-342.5 220,-361.5 361,-361.5 361,-342.5 220,-342.5"/>
<text text-anchor="middle" x="290.5" y="-349.5" font-family="Helvetica,sans-Serif" font-size="10.00">arm_cmplx_mult_cmplx_q31</text>
</a>
</g>
</g>
<!-- Node2&#45;&gt;Node39 -->
<g id="edge47" class="edge"><title>Node2&#45;&gt;Node39</title>
<path fill="none" stroke="midnightblue" d="M147.909,-893.291C147.499,-827.984 148.312,-452.863 220,-371 221.161,-369.674 222.406,-368.436 223.72,-367.281"/>
<polygon fill="midnightblue" stroke="midnightblue" points="225.746,-370.135 231.926,-361.53 221.728,-364.402 225.746,-370.135"/>
</g>
<!-- Node40 -->
<g id="node40" class="node"><title>Node40</title>
<g id="a_node40"><a xlink:href="a01169.html#ga14b47080054a1ba1250a86805be1ff6b" target="_top" xlink:title="Floating&#45;point complex&#45;by&#45;complex multiplication. ">
<polygon fill="white" stroke="black" points="221,-304.5 221,-323.5 360,-323.5 360,-304.5 221,-304.5"/>
<text text-anchor="middle" x="290.5" y="-311.5" font-family="Helvetica,sans-Serif" font-size="10.00">arm_cmplx_mult_cmplx_f32</text>
</a>
</g>
</g>
<!-- Node2&#45;&gt;Node40 -->
<g id="edge48" class="edge"><title>Node2&#45;&gt;Node40</title>
<path fill="none" stroke="midnightblue" d="M147.816,-893.483C146.71,-826.114 143.343,-421.325 220,-333 221.025,-331.819 222.115,-330.708 223.263,-329.663"/>
<polygon fill="midnightblue" stroke="midnightblue" points="225.496,-332.368 231.564,-323.683 221.405,-326.688 225.496,-332.368"/>
</g>
<!-- Node41 -->
<g id="node41" class="node"><title>Node41</title>
<g id="a_node41"><a xlink:href="a01205.html#ga177704107f94564e9abe4daaa36f4554" target="_top" xlink:title="Converts the elements of the floating&#45;point vector to Q31 vector. ">
<polygon fill="white" stroke="black" points="244.5,-266.5 244.5,-285.5 336.5,-285.5 336.5,-266.5 244.5,-266.5"/>
<text text-anchor="middle" x="290.5" y="-273.5" font-family="Helvetica,sans-Serif" font-size="10.00">arm_float_to_q31</text>
</a>
</g>
</g>
<!-- Node2&#45;&gt;Node41 -->
<g id="edge49" class="edge"><title>Node2&#45;&gt;Node41</title>
<path fill="none" stroke="midnightblue" d="M148.5,-893.317C152.417,-819.136 179.079,-342.522 220,-295 224.026,-290.324 229.081,-286.745 234.619,-284.013"/>
<polygon fill="midnightblue" stroke="midnightblue" points="236.295,-287.114 244.299,-280.172 233.713,-280.608 236.295,-287.114"/>
</g>
<!-- Node42 -->
<g id="node42" class="node"><title>Node42</title>
<g id="a_node42"><a xlink:href="a01205.html#ga215456e35a18db86882e1d3f0d24e1f2" target="_top" xlink:title="Converts the elements of the floating&#45;point vector to Q15 vector. ">
<polygon fill="white" stroke="black" points="244.5,-228.5 244.5,-247.5 336.5,-247.5 336.5,-228.5 244.5,-228.5"/>
<text text-anchor="middle" x="290.5" y="-235.5" font-family="Helvetica,sans-Serif" font-size="10.00">arm_float_to_q15</text>
</a>
</g>
</g>
<!-- Node2&#45;&gt;Node42 -->
<g id="edge50" class="edge"><title>Node2&#45;&gt;Node42</title>
<path fill="none" stroke="midnightblue" d="M148.435,-893.209C151.945,-816.059 176.637,-307.709 220,-257 224.01,-252.31 229.055,-248.723 234.588,-245.986"/>
<polygon fill="midnightblue" stroke="midnightblue" points="236.262,-249.087 244.262,-242.141 233.676,-242.582 236.262,-249.087"/>
</g>
<!-- Node43 -->
<g id="node43" class="node"><title>Node43</title>
<g id="a_node43"><a xlink:href="a01205.html#ga44a393818cdee8dce80f2d66add25411" target="_top" xlink:title="Converts the elements of the floating&#45;point vector to Q7 vector. ">
<polygon fill="white" stroke="black" points="247.5,-190.5 247.5,-209.5 333.5,-209.5 333.5,-190.5 247.5,-190.5"/>
<text text-anchor="middle" x="290.5" y="-197.5" font-family="Helvetica,sans-Serif" font-size="10.00">arm_float_to_q7</text>
</a>
</g>
</g>
<!-- Node2&#45;&gt;Node43 -->
<g id="edge51" class="edge"><title>Node2&#45;&gt;Node43</title>
<path fill="none" stroke="midnightblue" d="M148.374,-893.147C151.49,-813.239 174.185,-272.91 220,-219 224.789,-213.364 231.074,-209.319 237.907,-206.429"/>
<polygon fill="midnightblue" stroke="midnightblue" points="239.142,-209.705 247.476,-203.164 236.882,-203.08 239.142,-209.705"/>
</g>
<!-- Node44 -->
<g id="node44" class="node"><title>Node44</title>
<g id="a_node44"><a xlink:href="a01207.html#ga901dede4661365c9e7c630d3eb31c32c" target="_top" xlink:title="Converts the elements of the Q31 vector to Q15 vector. ">
<polygon fill="white" stroke="black" points="246,-152.5 246,-171.5 335,-171.5 335,-152.5 246,-152.5"/>
<text text-anchor="middle" x="290.5" y="-159.5" font-family="Helvetica,sans-Serif" font-size="10.00">arm_q31_to_q15</text>
</a>
</g>
</g>
<!-- Node2&#45;&gt;Node44 -->
<g id="edge52" class="edge"><title>Node2&#45;&gt;Node44</title>
<path fill="none" stroke="midnightblue" d="M148.309,-893.387C151.009,-811.881 171.67,-238.185 220,-181 224.292,-175.922 229.798,-172.133 235.829,-169.317"/>
<polygon fill="midnightblue" stroke="midnightblue" points="237.499,-172.43 245.639,-165.649 235.047,-165.873 237.499,-172.43"/>
</g>
<!-- Node45 -->
<g id="node45" class="node"><title>Node45</title>
<g id="a_node45"><a xlink:href="a01207.html#ga7f297d1a7d776805395095fdb24a8071" target="_top" xlink:title="Converts the elements of the Q31 vector to Q7 vector. ">
<polygon fill="white" stroke="black" points="249,-114.5 249,-133.5 332,-133.5 332,-114.5 249,-114.5"/>
<text text-anchor="middle" x="290.5" y="-121.5" font-family="Helvetica,sans-Serif" font-size="10.00">arm_q31_to_q7</text>
</a>
</g>
</g>
<!-- Node2&#45;&gt;Node45 -->
<g id="edge53" class="edge"><title>Node2&#45;&gt;Node45</title>
<path fill="none" stroke="midnightblue" d="M148.258,-893.417C150.593,-809.641 169.193,-203.419 220,-143 225.095,-136.942 231.917,-132.717 239.302,-129.791"/>
<polygon fill="midnightblue" stroke="midnightblue" points="240.407,-133.112 248.87,-126.737 238.279,-126.444 240.407,-133.112"/>
</g>
<!-- Node46 -->
<g id="node46" class="node"><title>Node46</title>
<g id="a_node46"><a xlink:href="a01206.html#gaf8b0d2324de273fc430b0e61ad4e9eb2" target="_top" xlink:title="Converts the elements of the Q15 vector to floating&#45;point vector. ">
<polygon fill="white" stroke="black" points="244.5,-76.5 244.5,-95.5 336.5,-95.5 336.5,-76.5 244.5,-76.5"/>
<text text-anchor="middle" x="290.5" y="-83.5" font-family="Helvetica,sans-Serif" font-size="10.00">arm_q15_to_float</text>
</a>
</g>
</g>
<!-- Node2&#45;&gt;Node46 -->
<g id="edge54" class="edge"><title>Node2&#45;&gt;Node46</title>
<path fill="none" stroke="midnightblue" d="M148.211,-893.486C150.194,-807.66 166.705,-168.666 220,-105 223.961,-100.269 228.975,-96.6551 234.491,-93.9044"/>
<polygon fill="midnightblue" stroke="midnightblue" points="236.162,-97.006 244.148,-90.0447 233.564,-90.5059 236.162,-97.006"/>
</g>
<!-- Node47 -->
<g id="node47" class="node"><title>Node47</title>
<g id="a_node47"><a xlink:href="a01206.html#ga7ba2d87366990ad5380439e2b4a4c0a5" target="_top" xlink:title="Converts the elements of the Q15 vector to Q31 vector. ">
<polygon fill="white" stroke="black" points="246,-38.5 246,-57.5 335,-57.5 335,-38.5 246,-38.5"/>
<text text-anchor="middle" x="290.5" y="-45.5" font-family="Helvetica,sans-Serif" font-size="10.00">arm_q15_to_q31</text>
</a>
</g>
</g>
<!-- Node2&#45;&gt;Node47 -->
<g id="edge55" class="edge"><title>Node2&#45;&gt;Node47</title>
<path fill="none" stroke="midnightblue" d="M148.173,-893.314C149.843,-804.535 164.265,-133.857 220,-67 224.413,-61.7066 230.145,-57.8116 236.425,-54.9582"/>
<polygon fill="midnightblue" stroke="midnightblue" points="237.738,-58.2047 245.927,-51.4815 235.333,-51.6309 237.738,-58.2047"/>
</g>
<!-- Node48 -->
<g id="node48" class="node"><title>Node48</title>
<g id="a_node48"><a xlink:href="a01206.html#ga8fb31855ff8cce09c2ec9308f48ded69" target="_top" xlink:title="Converts the elements of the Q15 vector to Q7 vector. ">
<polygon fill="white" stroke="black" points="249,-0.5 249,-19.5 332,-19.5 332,-0.5 249,-0.5"/>
<text text-anchor="middle" x="290.5" y="-7.5" font-family="Helvetica,sans-Serif" font-size="10.00">arm_q15_to_q7</text>
</a>
</g>
</g>
<!-- Node2&#45;&gt;Node48 -->
<g id="edge56" class="edge"><title>Node2&#45;&gt;Node48</title>
<path fill="none" stroke="midnightblue" d="M148.133,-893.45C149.474,-803.007 161.758,-99.1284 220,-29 225.057,-22.9105 231.861,-18.6706 239.239,-15.738"/>
<polygon fill="midnightblue" stroke="midnightblue" points="240.343,-19.0596 248.803,-12.6816 238.212,-12.3918 240.343,-19.0596"/>
</g>
<!-- Node16&#45;&gt;Node3 -->
<g id="edge17" class="edge"><title>Node16&#45;&gt;Node3</title>
<path fill="none" stroke="midnightblue" d="M328.697,-1193.94C340.363,-1197.47 352.419,-1203.07 361,-1212 422.117,-1275.58 432.264,-1388.48 433.803,-1434.07"/>
<polygon fill="midnightblue" stroke="midnightblue" points="430.305,-1434.23 434.034,-1444.15 437.304,-1434.07 430.305,-1434.23"/>
</g>
<!-- Node17&#45;&gt;Node4 -->
<g id="edge19" class="edge"><title>Node17&#45;&gt;Node4</title>
<path fill="none" stroke="midnightblue" d="M327.459,-1064.41C345.939,-1059.48 368.656,-1053.43 388.359,-1048.17"/>
<polygon fill="midnightblue" stroke="midnightblue" points="389.292,-1051.54 398.053,-1045.59 387.489,-1044.78 389.292,-1051.54"/>
</g>
<!-- Node18&#45;&gt;Node2 -->
<g id="edge21" class="edge"><title>Node18&#45;&gt;Node2</title>
<path fill="none" stroke="midnightblue" d="M254.65,-1155.74C242.351,-1153.75 229.286,-1148.93 220,-1140 158.217,-1080.58 149.259,-968.669 148.105,-922.888"/>
<polygon fill="midnightblue" stroke="midnightblue" points="151.603,-922.692 147.952,-912.746 144.603,-922.798 151.603,-922.692"/>
</g>
<!-- Node19&#45;&gt;Node3 -->
<g id="edge23" class="edge"><title>Node19&#45;&gt;Node3</title>
<path fill="none" stroke="midnightblue" d="M327.157,-1717.26C339.254,-1714.66 351.975,-1709.84 361,-1701 425.486,-1637.82 433.662,-1520.67 434.238,-1473.97"/>
<polygon fill="midnightblue" stroke="midnightblue" points="437.738,-1473.7 434.25,-1463.69 430.738,-1473.69 437.738,-1473.7"/>
</g>
<!-- Node20&#45;&gt;Node4 -->
<g id="edge25" class="edge"><title>Node20&#45;&gt;Node4</title>
<path fill="none" stroke="midnightblue" d="M327.143,-1105.14C338.327,-1102.23 350.49,-1098.27 361,-1093 382.146,-1082.39 403.098,-1065.15 417.094,-1052.4"/>
<polygon fill="midnightblue" stroke="midnightblue" points="419.563,-1054.89 424.48,-1045.5 414.784,-1049.77 419.563,-1054.89"/>
</g>
<!-- Node21&#45;&gt;Node2 -->
<g id="edge27" class="edge"><title>Node21&#45;&gt;Node2</title>
<path fill="none" stroke="midnightblue" d="M236.684,-1035.05C230.742,-1032.71 225.027,-1029.72 220,-1026 184.454,-999.69 162.16,-950.127 152.918,-922.343"/>
<polygon fill="midnightblue" stroke="midnightblue" points="156.192,-921.079 149.927,-912.535 149.496,-923.121 156.192,-921.079"/>
</g>
<!-- Node22&#45;&gt;Node3 -->
<g id="edge29" class="edge"><title>Node22&#45;&gt;Node3</title>
<path fill="none" stroke="midnightblue" d="M345.546,-1673.02C351.207,-1670.46 356.519,-1667.18 361,-1663 416.481,-1611.23 429.805,-1515 432.998,-1473.68"/>
<polygon fill="midnightblue" stroke="midnightblue" points="436.499,-1473.77 433.656,-1463.56 429.514,-1473.32 436.499,-1473.77"/>
</g>
<!-- Node23&#45;&gt;Node4 -->
<g id="edge31" class="edge"><title>Node23&#45;&gt;Node4</title>
<path fill="none" stroke="midnightblue" d="M327.459,-1007.59C345.939,-1012.52 368.656,-1018.57 388.359,-1023.83"/>
<polygon fill="midnightblue" stroke="midnightblue" points="387.489,-1027.22 398.053,-1026.41 389.292,-1020.46 387.489,-1027.22"/>
</g>
</g>
</svg>
        <g id="navigator" transform="translate(0 0)" fill="#404254">
                <rect fill="#f2f5e9" fill-opacity="0.5" stroke="#606060" stroke-width=".5" x="0" y="0" width="60" height="60"/>
                <use id="zoomplus" xlink:href="#zoomPlus" x="17" y="9" onmousedown="handleZoom(evt,'in')"/>
                <use id="zoomminus" xlink:href="#zoomMin" x="42" y="9" onmousedown="handleZoom(evt,'out')"/>
                <use id="reset" xlink:href="#resetDef" x="30" y="36" onmousedown="handleReset()"/>
                <g id="arrowUp" xlink:href="#dirArrow" transform="translate(30 24)" onmousedown="handlePan(0,-1)">
                  <use xlink:href="#rim" fill="#404040">
                        <set attributeName="fill" to="#808080" begin="arrowUp.mouseover" end="arrowUp.mouseout"/>
                  </use>
                  <path fill="none" stroke="white" stroke-width="1.5" d="M0,-3.0v7 M-2.5,-0.5L0,-3.0L2.5,-0.5"/>
                </g>
                <g id="arrowRight" xlink:href="#dirArrow" transform="rotate(90) translate(36 -43)" onmousedown="handlePan(1,0)">
                  <use xlink:href="#rim" fill="#404040">
                        <set attributeName="fill" to="#808080" begin="arrowRight.mouseover" end="arrowRight.mouseout"/>
                  </use>
                  <path fill="none" stroke="white" stroke-width="1.5" d="M0,-3.0v7 M-2.5,-0.5L0,-3.0L2.5,-0.5"/>
                </g>
                <g id="arrowDown" xlink:href="#dirArrow" transform="rotate(180) translate(-30 -48)" onmousedown="handlePan(0,1)">
                  <use xlink:href="#rim" fill="#404040">
                        <set attributeName="fill" to="#808080" begin="arrowDown.mouseover" end="arrowDown.mouseout"/>
                  </use>
                  <path fill="none" stroke="white" stroke-width="1.5" d="M0,-3.0v7 M-2.5,-0.5L0,-3.0L2.5,-0.5"/>
                </g>
                <g id="arrowLeft" xlink:href="#dirArrow" transform="rotate(270) translate(-36 17)" onmousedown="handlePan(-1,0)">
                  <use xlink:href="#rim" fill="#404040">
                        <set attributeName="fill" to="#808080" begin="arrowLeft.mouseover" end="arrowLeft.mouseout"/>
                  </use>
                  <path fill="none" stroke="white" stroke-width="1.5" d="M0,-3.0v7 M-2.5,-0.5L0,-3.0L2.5,-0.5"/>
                </g>
        </g>
        <svg viewBox="0 0 15 15" width="100%" height="30px" preserveAspectRatio="xMaxYMin meet">
         <g id="arrow_out" transform="scale(0.3 0.3)">
          <a xlink:href="a01200_ga0e3ab1b57da32d45388d1fa90d7fd88c_cgraph_org.svg" target="_base">
           <rect id="button" ry="5" rx="5" y="6" x="6" height="38" width="38"
                fill="#f2f5e9" fill-opacity="0.5" stroke="#606060" stroke-width="1.0"/>
           <path id="arrow"
             d="M 11.500037,31.436501 C 11.940474,20.09759 22.043105,11.32322 32.158766,21.979434 L 37.068811,17.246167 C 37.068811,17.246167 37.088388,32 37.088388,32 L 22.160133,31.978069 C 22.160133,31.978069 26.997745,27.140456 26.997745,27.140456 C 18.528582,18.264221 13.291696,25.230495 11.500037,31.436501 z"
             style="fill:#404040;"/>
          </a>
         </g>
        </svg>
</svg>
