<?xml version="1.0" encoding="UTF-8" standalone="no"?>
<!DOCTYPE svg PUBLIC "-//W3C//DTD SVG 1.1//EN"
 "http://www.w3.org/Graphics/SVG/1.1/DTD/svg11.dtd">
<!-- Generated by graphviz version 2.38.0 (20140413.2041)
 -->
<!-- Title: Helper Pages: 1 -->
<svg width="304pt" height="142pt"
 viewBox="0.00 0.00 304.00 142.00" xmlns="http://www.w3.org/2000/svg" xmlns:xlink="http://www.w3.org/1999/xlink">
<g id="graph0" class="graph" transform="scale(1 1) rotate(0) translate(4 138)">
<title>Helper</title>
<polygon fill="white" stroke="none" points="-4,4 -4,-138 300,-138 300,4 -4,4"/>
<!-- Node2 -->
<g id="node1" class="node"><title>Node2</title>
<g id="a_node1"><a xlink:href="a01251.html" target="_top" xlink:title="Helper_Macros">
<polygon fill="white" stroke="black" points="208,-114.5 208,-133.5 291,-133.5 291,-114.5 208,-114.5"/>
<text text-anchor="middle" x="249.5" y="-121.5" font-family="Helvetica,sans-Serif" font-size="10.00">Helper_Macros</text>
</a>
</g>
</g>
<!-- Node0 -->
<g id="node2" class="node"><title>Node0</title>
<polygon fill="#bfbfbf" stroke="black" points="122,-57.5 122,-76.5 167,-76.5 167,-57.5 122,-57.5"/>
<text text-anchor="middle" x="144.5" y="-64.5" font-family="Helvetica,sans-Serif" font-size="10.00">Helper</text>
</g>
<!-- Node0&#45;&gt;Node2 -->
<g id="edge2" class="edge"><title>Node0&#45;&gt;Node2</title>
<path fill="none" stroke="black" d="M166.97,-82.5833C177.532,-89.8835 190.626,-98.4036 203,-105 209.345,-108.383 216.425,-111.591 223.075,-114.376"/>
<polygon fill="black" stroke="black" points="168.956,-79.7014 158.764,-76.807 164.927,-85.4254 168.956,-79.7014"/>
</g>
<!-- Node4 -->
<g id="node3" class="node"><title>Node4</title>
<g id="a_node3"><a xlink:href="a01253.html" target="_top" xlink:title="Helper_Variables">
<polygon fill="white" stroke="black" points="204,-76.5 204,-95.5 295,-95.5 295,-76.5 204,-76.5"/>
<text text-anchor="middle" x="249.5" y="-83.5" font-family="Helvetica,sans-Serif" font-size="10.00">Helper_Variables</text>
</a>
</g>
</g>
<!-- Node0&#45;&gt;Node4 -->
<g id="edge4" class="edge"><title>Node0&#45;&gt;Node4</title>
<path fill="none" stroke="black" d="M177.405,-72.8854C185.753,-74.4254 194.909,-76.1143 203.791,-77.7527"/>
<polygon fill="black" stroke="black" points="177.813,-69.4016 167.344,-71.0294 176.543,-76.2855 177.813,-69.4016"/>
</g>
<!-- Node5 -->
<g id="node5" class="node"><title>Node5</title>
<g id="a_node5"><a xlink:href="a01254.html" target="_top" xlink:title="Helper_Functions">
<polygon fill="white" stroke="black" points="203,-38.5 203,-57.5 296,-57.5 296,-38.5 203,-38.5"/>
<text text-anchor="middle" x="249.5" y="-45.5" font-family="Helvetica,sans-Serif" font-size="10.00">Helper_Functions</text>
</a>
</g>
</g>
<!-- Node0&#45;&gt;Node5 -->
<g id="edge5" class="edge"><title>Node0&#45;&gt;Node5</title>
<path fill="none" stroke="black" d="M177.442,-61.1078C185.517,-59.6183 194.344,-57.9899 202.948,-56.4028"/>
<polygon fill="black" stroke="black" points="176.543,-57.7145 167.344,-62.9706 177.813,-64.5984 176.543,-57.7145"/>
</g>
<!-- Node3 -->
<g id="node6" class="node"><title>Node3</title>
<g id="a_node6"><a xlink:href="a01252.html" target="_top" xlink:title="Helper_Typedefs">
<polygon fill="white" stroke="black" points="204,-0.5 204,-19.5 295,-19.5 295,-0.5 204,-0.5"/>
<text text-anchor="middle" x="249.5" y="-7.5" font-family="Helvetica,sans-Serif" font-size="10.00">Helper_Typedefs</text>
</a>
</g>
</g>
<!-- Node0&#45;&gt;Node3 -->
<g id="edge3" class="edge"><title>Node0&#45;&gt;Node3</title>
<path fill="none" stroke="black" d="M166.97,-51.4167C177.532,-44.1165 190.626,-35.5964 203,-29 209.345,-25.6173 216.425,-22.4088 223.075,-19.6245"/>
<polygon fill="black" stroke="black" points="164.927,-48.5746 158.764,-57.193 168.956,-54.2986 164.927,-48.5746"/>
</g>
<!-- Node1 -->
<g id="node4" class="node"><title>Node1</title>
<g id="a_node4"><a xlink:href="a01230.html" target="_top" xlink:title="MD_Application">
<polygon fill="white" stroke="black" points="0,-57.5 0,-76.5 86,-76.5 86,-57.5 0,-57.5"/>
<text text-anchor="middle" x="43" y="-64.5" font-family="Helvetica,sans-Serif" font-size="10.00">MD_Application</text>
</a>
</g>
</g>
<!-- Node1&#45;&gt;Node0 -->
<g id="edge1" class="edge"><title>Node1&#45;&gt;Node0</title>
<path fill="none" stroke="black" d="M96.355,-67C105.365,-67 114.261,-67 121.856,-67"/>
<polygon fill="black" stroke="black" points="96.197,-63.5001 86.197,-67 96.1969,-70.5001 96.197,-63.5001"/>
</g>
</g>
</svg>
