<?xml version="1.0" encoding="UTF-8" standalone="no"?>
<!DOCTYPE svg PUBLIC "-//W3C//DTD SVG 1.1//EN"
 "http://www.w3.org/Graphics/SVG/1.1/DTD/svg11.dtd">
<!-- Generated by graphviz version 2.38.0 (20140413.2041)
 -->
<!-- Title: Analog Pages: 1 -->
<svg width="344pt" height="180pt"
 viewBox="0.00 0.00 344.00 180.00" xmlns="http://www.w3.org/2000/svg" xmlns:xlink="http://www.w3.org/1999/xlink">
<g id="graph0" class="graph" transform="scale(1 1) rotate(0) translate(4 176)">
<title>Analog</title>
<polygon fill="white" stroke="none" points="-4,4 -4,-176 340,-176 340,4 -4,4"/>
<!-- Node1 -->
<g id="node1" class="node"><title>Node1</title>
<g id="a_node1"><a xlink:href="a01230.html" target="_top" xlink:title="MD_Application">
<polygon fill="white" stroke="black" points="0,-76.5 0,-95.5 86,-95.5 86,-76.5 0,-76.5"/>
<text text-anchor="middle" x="43" y="-83.5" font-family="Helvetica,sans-Serif" font-size="10.00">MD_Application</text>
</a>
</g>
</g>
<!-- Node0 -->
<g id="node3" class="node"><title>Node0</title>
<polygon fill="#bfbfbf" stroke="black" points="122,-76.5 122,-95.5 169,-95.5 169,-76.5 122,-76.5"/>
<text text-anchor="middle" x="145.5" y="-83.5" font-family="Helvetica,sans-Serif" font-size="10.00">Analog</text>
</g>
<!-- Node1&#45;&gt;Node0 -->
<g id="edge1" class="edge"><title>Node1&#45;&gt;Node0</title>
<path fill="none" stroke="black" d="M96.1873,-86C105.2,-86 114.129,-86 121.813,-86"/>
<polygon fill="black" stroke="black" points="96.0388,-82.5001 86.0387,-86 96.0387,-89.5001 96.0388,-82.5001"/>
</g>
<!-- Node6 -->
<g id="node2" class="node"><title>Node6</title>
<g id="a_node2"><a xlink:href="a01286.html" target="_top" xlink:title="Analog_Function_Pointers">
<polygon fill="white" stroke="black" points="205,-152.5 205,-171.5 336,-171.5 336,-152.5 205,-152.5"/>
<text text-anchor="middle" x="270.5" y="-159.5" font-family="Helvetica,sans-Serif" font-size="10.00">Analog_Function_Pointers</text>
</a>
</g>
</g>
<!-- Node0&#45;&gt;Node6 -->
<g id="edge6" class="edge"><title>Node0&#45;&gt;Node6</title>
<path fill="none" stroke="black" d="M160.402,-103.527C171.296,-116.173 187.499,-132.759 205,-143 211.549,-146.832 218.931,-149.943 226.3,-152.452"/>
<polygon fill="black" stroke="black" points="162.839,-100.984 153.758,-95.5275 157.455,-105.456 162.839,-100.984"/>
</g>
<!-- Node5 -->
<g id="node4" class="node"><title>Node5</title>
<g id="a_node4"><a xlink:href="a01243.html" target="_top" xlink:title="Analog_Functions">
<polygon fill="white" stroke="black" points="223,-114.5 223,-133.5 318,-133.5 318,-114.5 223,-114.5"/>
<text text-anchor="middle" x="270.5" y="-121.5" font-family="Helvetica,sans-Serif" font-size="10.00">Analog_Functions</text>
</a>
</g>
</g>
<!-- Node0&#45;&gt;Node5 -->
<g id="edge5" class="edge"><title>Node0&#45;&gt;Node5</title>
<path fill="none" stroke="black" d="M178.825,-96.6747C187.325,-99.4334 196.495,-102.367 205,-105 215.148,-108.142 226.231,-111.451 236.303,-114.411"/>
<polygon fill="black" stroke="black" points="179.827,-93.3201 169.235,-93.5449 177.655,-99.9747 179.827,-93.3201"/>
</g>
<!-- Node3 -->
<g id="node5" class="node"><title>Node3</title>
<g id="a_node5"><a xlink:href="a01241.html" target="_top" xlink:title="Analog_Variables">
<polygon fill="white" stroke="black" points="224.5,-76.5 224.5,-95.5 316.5,-95.5 316.5,-76.5 224.5,-76.5"/>
<text text-anchor="middle" x="270.5" y="-83.5" font-family="Helvetica,sans-Serif" font-size="10.00">Analog_Variables</text>
</a>
</g>
</g>
<!-- Node0&#45;&gt;Node3 -->
<g id="edge3" class="edge"><title>Node0&#45;&gt;Node3</title>
<path fill="none" stroke="black" d="M179.11,-86C192.985,-86 209.399,-86 224.406,-86"/>
<polygon fill="black" stroke="black" points="179.06,-82.5001 169.06,-86 179.06,-89.5001 179.06,-82.5001"/>
</g>
<!-- Node4 -->
<g id="node6" class="node"><title>Node4</title>
<g id="a_node6"><a xlink:href="a01242.html" target="_top" xlink:title="Analog_Typedefs">
<polygon fill="white" stroke="black" points="224.5,-38.5 224.5,-57.5 316.5,-57.5 316.5,-38.5 224.5,-38.5"/>
<text text-anchor="middle" x="270.5" y="-45.5" font-family="Helvetica,sans-Serif" font-size="10.00">Analog_Typedefs</text>
</a>
</g>
</g>
<!-- Node0&#45;&gt;Node4 -->
<g id="edge4" class="edge"><title>Node0&#45;&gt;Node4</title>
<path fill="none" stroke="black" d="M178.825,-75.3253C187.325,-72.5666 196.495,-69.6332 205,-67 215.148,-63.8581 226.231,-60.5491 236.303,-57.5888"/>
<polygon fill="black" stroke="black" points="177.655,-72.0253 169.235,-78.4551 179.827,-78.6799 177.655,-72.0253"/>
</g>
<!-- Node2 -->
<g id="node7" class="node"><title>Node2</title>
<g id="a_node7"><a xlink:href="a01240.html" target="_top" xlink:title="Analog_Macros">
<polygon fill="white" stroke="black" points="228.5,-0.5 228.5,-19.5 312.5,-19.5 312.5,-0.5 228.5,-0.5"/>
<text text-anchor="middle" x="270.5" y="-7.5" font-family="Helvetica,sans-Serif" font-size="10.00">Analog_Macros</text>
</a>
</g>
</g>
<!-- Node0&#45;&gt;Node2 -->
<g id="edge2" class="edge"><title>Node0&#45;&gt;Node2</title>
<path fill="none" stroke="black" d="M160.402,-68.473C171.296,-55.8266 187.499,-39.2412 205,-29 212.154,-24.814 220.3,-21.4884 228.339,-18.868"/>
<polygon fill="black" stroke="black" points="157.455,-66.5437 153.758,-76.4725 162.839,-71.0164 157.455,-66.5437"/>
</g>
</g>
</svg>
