<?xml version="1.0" encoding="UTF-8" standalone="no"?>
<!DOCTYPE svg PUBLIC "-//W3C//DTD SVG 1.1//EN"
 "http://www.w3.org/Graphics/SVG/1.1/DTD/svg11.dtd">
<!-- Generated by graphviz version 2.38.0 (20140413.2041)
 -->
<!-- Title: ADC_IRQ_Handler Pages: 1 -->
<svg width="449pt" height="116pt"
 viewBox="0.00 0.00 449.00 115.50" xmlns="http://www.w3.org/2000/svg" xmlns:xlink="http://www.w3.org/1999/xlink">
<g id="graph0" class="graph" transform="scale(1 1) rotate(0) translate(4 111.5)">
<title>ADC_IRQ_Handler</title>
<polygon fill="white" stroke="none" points="-4,4 -4,-111.5 445,-111.5 445,4 -4,4"/>
<!-- Node1 -->
<g id="node1" class="node"><title>Node1</title>
<polygon fill="#bfbfbf" stroke="black" points="0,-50 0,-69 101,-69 101,-50 0,-50"/>
<text text-anchor="middle" x="50.5" y="-57" font-family="Helvetica,sans-Serif" font-size="10.00">ADC_IRQ_Handler</text>
</g>
<!-- Node2 -->
<g id="node2" class="node"><title>Node2</title>
<g id="a_node2"><a xlink:href="a00028.html#gaa12546e51ec905c90a3aada432bd4633" target="_top" xlink:title="Checks whether the specified ADC flag is set or not. ">
<polygon fill="white" stroke="black" points="149.5,-88 149.5,-107 256.5,-107 256.5,-88 149.5,-88"/>
<text text-anchor="middle" x="203" y="-95" font-family="Helvetica,sans-Serif" font-size="10.00">ADC_GetFlagStatus</text>
</a>
</g>
</g>
<!-- Node1&#45;&gt;Node2 -->
<g id="edge1" class="edge"><title>Node1&#45;&gt;Node2</title>
<path fill="none" stroke="midnightblue" d="M89.4775,-69.089C109.159,-74.0583 133.391,-80.1767 154.321,-85.4613"/>
<polygon fill="midnightblue" stroke="midnightblue" points="153.743,-88.9253 164.296,-87.9799 155.457,-82.1383 153.743,-88.9253"/>
</g>
<!-- Node3 -->
<g id="node3" class="node"><title>Node3</title>
<g id="a_node3"><a xlink:href="a00028.html#ga601c6a67bd883eb631ecc7aa5e999b9c" target="_top" xlink:title="Clears the ADCx&#39;s interrupt pending bits. ">
<polygon fill="white" stroke="black" points="141.5,-50 141.5,-69 264.5,-69 264.5,-50 141.5,-50"/>
<text text-anchor="middle" x="203" y="-57" font-family="Helvetica,sans-Serif" font-size="10.00">ADC_ClearITPendingBit</text>
</a>
</g>
</g>
<!-- Node1&#45;&gt;Node3 -->
<g id="edge2" class="edge"><title>Node1&#45;&gt;Node3</title>
<path fill="none" stroke="midnightblue" d="M101.196,-59.5C110.829,-59.5 121.095,-59.5 131.251,-59.5"/>
<polygon fill="midnightblue" stroke="midnightblue" points="131.343,-63.0001 141.343,-59.5 131.343,-56.0001 131.343,-63.0001"/>
</g>
<!-- Node4 -->
<g id="node4" class="node"><title>Node4</title>
<g id="a_node4"><a xlink:href="a01243.html#gaee2322aa05f1f3ad93c480e4ef565ad6" target="_top" xlink:title="Safe state function. ">
<polygon fill="white" stroke="black" points="137,-0.5 137,-30.5 269,-30.5 269,-0.5 137,-0.5"/>
<text text-anchor="start" x="145" y="-18.5" font-family="Helvetica,sans-Serif" font-size="10.00">DAC_SetDualChanSigned</text>
<text text-anchor="middle" x="203" y="-7.5" font-family="Helvetica,sans-Serif" font-size="10.00">_Tripped</text>
</a>
</g>
</g>
<!-- Node1&#45;&gt;Node4 -->
<g id="edge3" class="edge"><title>Node1&#45;&gt;Node4</title>
<path fill="none" stroke="midnightblue" d="M84.1563,-49.9527C100.723,-45.1094 121.396,-39.0654 140.781,-33.398"/>
<polygon fill="midnightblue" stroke="midnightblue" points="141.854,-36.7309 150.47,-30.5654 139.889,-30.0122 141.854,-36.7309"/>
</g>
<!-- Node5 -->
<g id="node5" class="node"><title>Node5</title>
<g id="a_node5"><a xlink:href="a00094.html#ga4ca2cfdf56ab35a23f2517f23d7fbb24" target="_top" xlink:title="Set the specified data holding register value for dual channel DAC. ">
<polygon fill="white" stroke="black" points="305,-6 305,-25 441,-25 441,-6 305,-6"/>
<text text-anchor="middle" x="373" y="-13" font-family="Helvetica,sans-Serif" font-size="10.00">DAC_SetDualChannelData</text>
</a>
</g>
</g>
<!-- Node4&#45;&gt;Node5 -->
<g id="edge4" class="edge"><title>Node4&#45;&gt;Node5</title>
<path fill="none" stroke="midnightblue" d="M269.434,-15.5C277.687,-15.5 286.192,-15.5 294.608,-15.5"/>
<polygon fill="midnightblue" stroke="midnightblue" points="294.806,-19.0001 304.806,-15.5 294.806,-12.0001 294.806,-19.0001"/>
</g>
</g>
</svg>
