<?xml version="1.0" encoding="UTF-8" standalone="no"?>
<!DOCTYPE svg PUBLIC "-//W3C//DTD SVG 1.1//EN"
 "http://www.w3.org/Graphics/SVG/1.1/DTD/svg11.dtd">
<!-- Generated by graphviz version 2.38.0 (20140413.2041)
 -->
<!-- Title: DAC_SetSignedValue Pages: 1 -->
<svg width="278pt" height="66pt"
 viewBox="0.00 0.00 278.00 66.00" xmlns="http://www.w3.org/2000/svg" xmlns:xlink="http://www.w3.org/1999/xlink">
<g id="graph0" class="graph" transform="scale(1 1) rotate(0) translate(4 62)">
<title>DAC_SetSignedValue</title>
<polygon fill="white" stroke="none" points="-4,4 -4,-62 274,-62 274,4 -4,4"/>
<!-- Node1 -->
<g id="node1" class="node"><title>Node1</title>
<polygon fill="#bfbfbf" stroke="black" points="0,-19.5 0,-38.5 113,-38.5 113,-19.5 0,-19.5"/>
<text text-anchor="middle" x="56.5" y="-26.5" font-family="Helvetica,sans-Serif" font-size="10.00">DAC_SetSignedValue</text>
</g>
<!-- Node2 -->
<g id="node2" class="node"><title>Node2</title>
<g id="a_node2"><a xlink:href="a00094.html#gad06b4230d2b17d1d13f41dce4c782461" target="_top" xlink:title="Set the specified data holding register value for DAC channel1. ">
<polygon fill="white" stroke="black" points="149,-38.5 149,-57.5 270,-57.5 270,-38.5 149,-38.5"/>
<text text-anchor="middle" x="209.5" y="-45.5" font-family="Helvetica,sans-Serif" font-size="10.00">DAC_SetChannel1Data</text>
</a>
</g>
</g>
<!-- Node1&#45;&gt;Node2 -->
<g id="edge1" class="edge"><title>Node1&#45;&gt;Node2</title>
<path fill="none" stroke="midnightblue" d="M113.298,-36.0209C121.631,-37.0694 130.308,-38.1613 138.883,-39.2403"/>
<polygon fill="midnightblue" stroke="midnightblue" points="138.518,-42.7218 148.877,-40.4977 139.392,-35.7766 138.518,-42.7218"/>
</g>
<!-- Node3 -->
<g id="node3" class="node"><title>Node3</title>
<g id="a_node3"><a xlink:href="a00094.html#ga44e12006ec186791378d132da8541552" target="_top" xlink:title="Set the specified data holding register value for DAC channel2. ">
<polygon fill="white" stroke="black" points="149,-0.5 149,-19.5 270,-19.5 270,-0.5 149,-0.5"/>
<text text-anchor="middle" x="209.5" y="-7.5" font-family="Helvetica,sans-Serif" font-size="10.00">DAC_SetChannel2Data</text>
</a>
</g>
</g>
<!-- Node1&#45;&gt;Node3 -->
<g id="edge2" class="edge"><title>Node1&#45;&gt;Node3</title>
<path fill="none" stroke="midnightblue" d="M113.298,-21.9791C121.631,-20.9306 130.308,-19.8387 138.883,-18.7597"/>
<polygon fill="midnightblue" stroke="midnightblue" points="139.392,-22.2234 148.877,-17.5023 138.518,-15.2782 139.392,-22.2234"/>
</g>
</g>
</svg>
