<?xml version="1.0" encoding="UTF-8" standalone="no"?>
<!DOCTYPE svg PUBLIC "-//W3C//DTD SVG 1.1//EN"
 "http://www.w3.org/Graphics/SVG/1.1/DTD/svg11.dtd">
<!-- Generated by graphviz version 2.38.0 (20140413.2041)
 -->
<!-- Title: Main Pages: 1 -->
<svg width="290pt" height="180pt"
 viewBox="0.00 0.00 290.00 180.00" xmlns="http://www.w3.org/2000/svg" xmlns:xlink="http://www.w3.org/1999/xlink">
<g id="graph0" class="graph" transform="scale(1 1) rotate(0) translate(4 176)">
<title>Main</title>
<polygon fill="white" stroke="none" points="-4,4 -4,-176 286,-176 286,4 -4,4"/>
<!-- Node0 -->
<g id="node1" class="node"><title>Node0</title>
<polygon fill="#bfbfbf" stroke="black" points="122,-76.5 122,-95.5 160,-95.5 160,-76.5 122,-76.5"/>
<text text-anchor="middle" x="141" y="-83.5" font-family="Helvetica,sans-Serif" font-size="10.00">Main</text>
</g>
<!-- Node6 -->
<g id="node3" class="node"><title>Node6</title>
<g id="a_node3"><a xlink:href="a01287.html" target="_top" xlink:title="Main_Function">
<polygon fill="white" stroke="black" points="199,-152.5 199,-171.5 279,-171.5 279,-152.5 199,-152.5"/>
<text text-anchor="middle" x="239" y="-159.5" font-family="Helvetica,sans-Serif" font-size="10.00">Main_Function</text>
</a>
</g>
</g>
<!-- Node0&#45;&gt;Node6 -->
<g id="edge6" class="edge"><title>Node0&#45;&gt;Node6</title>
<path fill="none" stroke="black" d="M155.634,-103.683C165.757,-115.92 180.451,-131.932 196,-143 201.086,-146.62 206.971,-149.798 212.697,-152.467"/>
<polygon fill="black" stroke="black" points="158.111,-101.176 149.124,-95.5643 152.65,-105.555 158.111,-101.176"/>
</g>
<!-- Node2 -->
<g id="node4" class="node"><title>Node2</title>
<g id="a_node4"><a xlink:href="a01261.html" target="_top" xlink:title="Check compiler selection flags. ">
<polygon fill="white" stroke="black" points="201.5,-114.5 201.5,-133.5 276.5,-133.5 276.5,-114.5 201.5,-114.5"/>
<text text-anchor="middle" x="239" y="-121.5" font-family="Helvetica,sans-Serif" font-size="10.00">Main_Macros</text>
</a>
</g>
</g>
<!-- Node0&#45;&gt;Node2 -->
<g id="edge2" class="edge"><title>Node0&#45;&gt;Node2</title>
<path fill="none" stroke="black" d="M169.644,-96.9423C183.616,-102.473 200.414,-109.122 213.86,-114.445"/>
<polygon fill="black" stroke="black" points="170.643,-93.5737 160.057,-93.1475 168.067,-100.082 170.643,-93.5737"/>
</g>
<!-- Node4 -->
<g id="node5" class="node"><title>Node4</title>
<g id="a_node5"><a xlink:href="a01262.html" target="_top" xlink:title="Main_Variables">
<polygon fill="white" stroke="black" points="197.5,-76.5 197.5,-95.5 280.5,-95.5 280.5,-76.5 197.5,-76.5"/>
<text text-anchor="middle" x="239" y="-83.5" font-family="Helvetica,sans-Serif" font-size="10.00">Main_Variables</text>
</a>
</g>
</g>
<!-- Node0&#45;&gt;Node4 -->
<g id="edge4" class="edge"><title>Node0&#45;&gt;Node4</title>
<path fill="none" stroke="black" d="M170.186,-86C178.688,-86 188.197,-86 197.342,-86"/>
<polygon fill="black" stroke="black" points="170.057,-82.5001 160.057,-86 170.057,-89.5001 170.057,-82.5001"/>
</g>
<!-- Node5 -->
<g id="node6" class="node"><title>Node5</title>
<g id="a_node6"><a xlink:href="a01263.html" target="_top" xlink:title="Main_Functions">
<polygon fill="white" stroke="black" points="196,-38.5 196,-57.5 282,-57.5 282,-38.5 196,-38.5"/>
<text text-anchor="middle" x="239" y="-45.5" font-family="Helvetica,sans-Serif" font-size="10.00">Main_Functions</text>
</a>
</g>
</g>
<!-- Node0&#45;&gt;Node5 -->
<g id="edge5" class="edge"><title>Node0&#45;&gt;Node5</title>
<path fill="none" stroke="black" d="M169.644,-75.0577C183.616,-69.5269 200.414,-62.878 213.86,-57.5553"/>
<polygon fill="black" stroke="black" points="168.067,-71.9176 160.057,-78.8525 170.643,-78.4263 168.067,-71.9176"/>
</g>
<!-- Node3 -->
<g id="node7" class="node"><title>Node3</title>
<g id="a_node7"><a xlink:href="a00095.html" target="_top" xlink:title="Main_Typedefs">
<polygon fill="white" stroke="black" points="197.5,-0.5 197.5,-19.5 280.5,-19.5 280.5,-0.5 197.5,-0.5"/>
<text text-anchor="middle" x="239" y="-7.5" font-family="Helvetica,sans-Serif" font-size="10.00">Main_Typedefs</text>
</a>
</g>
</g>
<!-- Node0&#45;&gt;Node3 -->
<g id="edge3" class="edge"><title>Node0&#45;&gt;Node3</title>
<path fill="none" stroke="black" d="M155.634,-68.3172C165.757,-56.0803 180.451,-40.0684 196,-29 201.086,-25.3799 206.971,-22.202 212.697,-19.5328"/>
<polygon fill="black" stroke="black" points="152.65,-66.4445 149.124,-76.4357 158.111,-70.8236 152.65,-66.4445"/>
</g>
<!-- Node1 -->
<g id="node2" class="node"><title>Node1</title>
<g id="a_node2"><a xlink:href="a01230.html" target="_top" xlink:title="MD_Application">
<polygon fill="white" stroke="black" points="0,-76.5 0,-95.5 86,-95.5 86,-76.5 0,-76.5"/>
<text text-anchor="middle" x="43" y="-83.5" font-family="Helvetica,sans-Serif" font-size="10.00">MD_Application</text>
</a>
</g>
</g>
<!-- Node1&#45;&gt;Node0 -->
<g id="edge1" class="edge"><title>Node1&#45;&gt;Node0</title>
<path fill="none" stroke="black" d="M96.1128,-86C105.32,-86 114.324,-86 121.756,-86"/>
<polygon fill="black" stroke="black" points="96.107,-82.5001 86.107,-86 96.107,-89.5001 96.107,-82.5001"/>
</g>
</g>
</svg>
