<?xml version="1.0" encoding="UTF-8" standalone="no"?>
<!DOCTYPE svg PUBLIC "-//W3C//DTD SVG 1.1//EN"
 "http://www.w3.org/Graphics/SVG/1.1/DTD/svg11.dtd">
<!-- Generated by graphviz version 2.38.0 (20140413.2041)
 -->
<!-- Title: arm_copy_q15 Pages: 1 -->
<svg width="255pt" height="242pt"
 viewBox="0.00 0.00 255.00 242.00" xmlns="http://www.w3.org/2000/svg" xmlns:xlink="http://www.w3.org/1999/xlink">
<g id="graph0" class="graph" transform="scale(1 1) rotate(0) translate(4 238)">
<title>arm_copy_q15</title>
<polygon fill="white" stroke="none" points="-4,4 -4,-238 251,-238 251,4 -4,4"/>
<!-- Node1 -->
<g id="node1" class="node"><title>Node1</title>
<polygon fill="#bfbfbf" stroke="black" points="0,-110.5 0,-129.5 80,-129.5 80,-110.5 0,-110.5"/>
<text text-anchor="middle" x="40" y="-117.5" font-family="Helvetica,sans-Serif" font-size="10.00">arm_copy_q15</text>
</g>
<!-- Node2 -->
<g id="node2" class="node"><title>Node2</title>
<g id="a_node2"><a xlink:href="a01177.html#gaf16f490d245391ec18a42adc73d6d749" target="_top" xlink:title="Convolution of Q15 sequences (fast version) for Cortex&#45;M3 and Cortex&#45;M4. ">
<polygon fill="white" stroke="black" points="121,-214.5 121,-233.5 242,-233.5 242,-214.5 121,-214.5"/>
<text text-anchor="middle" x="181.5" y="-221.5" font-family="Helvetica,sans-Serif" font-size="10.00">arm_conv_fast_opt_q15</text>
</a>
</g>
</g>
<!-- Node1&#45;&gt;Node2 -->
<g id="edge1" class="edge"><title>Node1&#45;&gt;Node2</title>
<path fill="none" stroke="midnightblue" d="M52.5158,-138.275C65.6142,-157.602 88.7543,-187.646 116,-205 122.006,-208.826 128.812,-211.907 135.696,-214.381"/>
<polygon fill="midnightblue" stroke="midnightblue" points="55.3329,-136.189 46.9183,-129.751 49.4817,-140.031 55.3329,-136.189"/>
</g>
<!-- Node3 -->
<g id="node3" class="node"><title>Node3</title>
<g id="a_node3"><a xlink:href="a01177.html#gac77dbcaef5c754cac27eab96c4753a3c" target="_top" xlink:title="Convolution of Q15 sequences. ">
<polygon fill="white" stroke="black" points="132,-176.5 132,-195.5 231,-195.5 231,-176.5 132,-176.5"/>
<text text-anchor="middle" x="181.5" y="-183.5" font-family="Helvetica,sans-Serif" font-size="10.00">arm_conv_opt_q15</text>
</a>
</g>
</g>
<!-- Node1&#45;&gt;Node3 -->
<g id="edge2" class="edge"><title>Node1&#45;&gt;Node3</title>
<path fill="none" stroke="midnightblue" d="M62.2231,-135.501C76.7807,-145.57 96.8552,-158.378 116,-167 124.09,-170.643 133.061,-173.798 141.677,-176.433"/>
<polygon fill="midnightblue" stroke="midnightblue" points="64.1178,-132.555 53.9296,-129.648 60.0813,-138.274 64.1178,-132.555"/>
</g>
<!-- Node4 -->
<g id="node4" class="node"><title>Node4</title>
<g id="a_node4"><a xlink:href="a01178.html#ga3de9c4ddcc7886de25b70d875099a8d9" target="_top" xlink:title="Partial convolution of Q15 sequences (fast version) for Cortex&#45;M3 and Cortex&#45;M4. ">
<polygon fill="white" stroke="black" points="125,-127 125,-157 238,-157 238,-127 125,-127"/>
<text text-anchor="start" x="133" y="-145" font-family="Helvetica,sans-Serif" font-size="10.00">arm_conv_partial_fast</text>
<text text-anchor="middle" x="181.5" y="-134" font-family="Helvetica,sans-Serif" font-size="10.00">_opt_q15</text>
</a>
</g>
</g>
<!-- Node1&#45;&gt;Node4 -->
<g id="edge3" class="edge"><title>Node1&#45;&gt;Node4</title>
<path fill="none" stroke="midnightblue" d="M90.2684,-127.77C101.477,-129.538 113.46,-131.427 124.912,-133.233"/>
<polygon fill="midnightblue" stroke="midnightblue" points="90.6529,-124.287 80.2298,-126.187 89.5624,-131.202 90.6529,-124.287"/>
</g>
<!-- Node5 -->
<g id="node5" class="node"><title>Node5</title>
<g id="a_node5"><a xlink:href="a01178.html#ga834b23b4ade8682beeb55778399101f8" target="_top" xlink:title="Partial convolution of Q15 sequences. ">
<polygon fill="white" stroke="black" points="116,-88.5 116,-107.5 247,-107.5 247,-88.5 116,-88.5"/>
<text text-anchor="middle" x="181.5" y="-95.5" font-family="Helvetica,sans-Serif" font-size="10.00">arm_conv_partial_opt_q15</text>
</a>
</g>
</g>
<!-- Node1&#45;&gt;Node5 -->
<g id="edge4" class="edge"><title>Node1&#45;&gt;Node5</title>
<path fill="none" stroke="midnightblue" d="M90.1128,-112.255C99.8352,-110.721 110.145,-109.095 120.19,-107.511"/>
<polygon fill="midnightblue" stroke="midnightblue" points="89.5624,-108.798 80.2298,-113.813 90.6529,-115.713 89.5624,-108.798"/>
</g>
<!-- Node6 -->
<g id="node6" class="node"><title>Node6</title>
<g id="a_node6"><a xlink:href="a01179.html#ga40a0236b17220e8e22a22b5bc1c53c6b" target="_top" xlink:title="Correlation of Q15 sequences (fast version) for Cortex&#45;M3 and Cortex&#45;M4. ">
<polygon fill="white" stroke="black" points="132.5,-39 132.5,-69 230.5,-69 230.5,-39 132.5,-39"/>
<text text-anchor="start" x="140.5" y="-57" font-family="Helvetica,sans-Serif" font-size="10.00">arm_correlate_fast</text>
<text text-anchor="middle" x="181.5" y="-46" font-family="Helvetica,sans-Serif" font-size="10.00">_opt_q15</text>
</a>
</g>
</g>
<!-- Node1&#45;&gt;Node6 -->
<g id="edge5" class="edge"><title>Node1&#45;&gt;Node6</title>
<path fill="none" stroke="midnightblue" d="M65.8698,-105.339C80.2741,-97.1186 98.8893,-86.9516 116,-79 123.406,-75.5583 131.428,-72.1812 139.217,-69.077"/>
<polygon fill="midnightblue" stroke="midnightblue" points="63.9824,-102.387 57.0704,-110.417 67.4811,-108.45 63.9824,-102.387"/>
</g>
<!-- Node7 -->
<g id="node7" class="node"><title>Node7</title>
<g id="a_node7"><a xlink:href="a01179.html#gad71c0ec70ec69edbc48563d9a5f68451" target="_top" xlink:title="Correlation of Q15 sequences. ">
<polygon fill="white" stroke="black" points="123.5,-0.5 123.5,-19.5 239.5,-19.5 239.5,-0.5 123.5,-0.5"/>
<text text-anchor="middle" x="181.5" y="-7.5" font-family="Helvetica,sans-Serif" font-size="10.00">arm_correlate_opt_q15</text>
</a>
</g>
</g>
<!-- Node1&#45;&gt;Node7 -->
<g id="edge6" class="edge"><title>Node1&#45;&gt;Node7</title>
<path fill="none" stroke="midnightblue" d="M51.7356,-101.624C64.5455,-81.2567 87.8105,-48.8078 116,-30 122.437,-25.7055 129.842,-22.296 137.288,-19.6006"/>
<polygon fill="midnightblue" stroke="midnightblue" points="48.6705,-99.928 46.4581,-110.289 54.649,-103.569 48.6705,-99.928"/>
</g>
</g>
</svg>
