<?xml version="1.0" encoding="UTF-8" standalone="no"?>
<!DOCTYPE svg PUBLIC "-//W3C//DTD SVG 1.1//EN"
 "http://www.w3.org/Graphics/SVG/1.1/DTD/svg11.dtd">
<!-- Generated by graphviz version 2.38.0 (20140413.2041)
 -->
<!-- Title: MD_GPIO_Init Pages: 1 -->
<svg width="316pt" height="104pt"
 viewBox="0.00 0.00 316.00 104.00" xmlns="http://www.w3.org/2000/svg" xmlns:xlink="http://www.w3.org/1999/xlink">
<g id="graph0" class="graph" transform="scale(1 1) rotate(0) translate(4 100)">
<title>MD_GPIO_Init</title>
<polygon fill="white" stroke="none" points="-4,4 -4,-100 312,-100 312,4 -4,4"/>
<!-- Node1 -->
<g id="node1" class="node"><title>Node1</title>
<polygon fill="#bfbfbf" stroke="black" points="0,-38.5 0,-57.5 81,-57.5 81,-38.5 0,-38.5"/>
<text text-anchor="middle" x="40.5" y="-45.5" font-family="Helvetica,sans-Serif" font-size="10.00">MD_GPIO_Init</text>
</g>
<!-- Node2 -->
<g id="node2" class="node"><title>Node2</title>
<g id="a_node2"><a xlink:href="a01218.html#gabb02137ecc24355b4c9d3da38b59a44d" target="_top" xlink:title="Initializes DAC channel and it&#39;s pin. ">
<polygon fill="white" stroke="black" points="136.5,-76.5 136.5,-95.5 214.5,-95.5 214.5,-76.5 136.5,-76.5"/>
<text text-anchor="middle" x="175.5" y="-83.5" font-family="Helvetica,sans-Serif" font-size="10.00">MD_DAC_Init</text>
</a>
</g>
</g>
<!-- Node1&#45;&gt;Node2 -->
<g id="edge1" class="edge"><title>Node1&#45;&gt;Node2</title>
<path fill="none" stroke="midnightblue" d="M84.8669,-60.3906C103.081,-65.5945 123.939,-71.5541 140.949,-76.4141"/>
<polygon fill="midnightblue" stroke="midnightblue" points="85.6383,-56.971 75.0615,-57.589 83.7152,-63.7016 85.6383,-56.971"/>
</g>
<!-- Node4 -->
<g id="node4" class="node"><title>Node4</title>
<g id="a_node4"><a xlink:href="a01225.html#gaca7a1ac308a8fda1547ddc0f5872aa74" target="_top" xlink:title="Configure all pins for on&#45;board LEDs as outputs. ">
<polygon fill="white" stroke="black" points="123.5,-38.5 123.5,-57.5 227.5,-57.5 227.5,-38.5 123.5,-38.5"/>
<text text-anchor="middle" x="175.5" y="-45.5" font-family="Helvetica,sans-Serif" font-size="10.00">MD_DISCO_LedInit</text>
</a>
</g>
</g>
<!-- Node1&#45;&gt;Node4 -->
<g id="edge3" class="edge"><title>Node1&#45;&gt;Node4</title>
<path fill="none" stroke="midnightblue" d="M91.1994,-48C101.591,-48 112.568,-48 123.022,-48"/>
<polygon fill="midnightblue" stroke="midnightblue" points="91.0443,-44.5001 81.0443,-48 91.0443,-51.5001 91.0443,-44.5001"/>
</g>
<!-- Node5 -->
<g id="node5" class="node"><title>Node5</title>
<g id="a_node5"><a xlink:href="a01225.html#ga99e90c818f4042ca67ee111f9c666297" target="_top" xlink:title="Configures Button pin as input. ">
<polygon fill="white" stroke="black" points="117,-0.5 117,-19.5 234,-19.5 234,-0.5 117,-0.5"/>
<text text-anchor="middle" x="175.5" y="-7.5" font-family="Helvetica,sans-Serif" font-size="10.00">MD_DISCO_ButtonInit</text>
</a>
</g>
</g>
<!-- Node1&#45;&gt;Node5 -->
<g id="edge5" class="edge"><title>Node1&#45;&gt;Node5</title>
<path fill="none" stroke="midnightblue" d="M84.8669,-35.6094C103.081,-30.4055 123.939,-24.4459 140.949,-19.5859"/>
<polygon fill="midnightblue" stroke="midnightblue" points="83.7152,-32.2984 75.0615,-38.411 85.6383,-39.029 83.7152,-32.2984"/>
</g>
<!-- Node3 -->
<g id="node3" class="node"><title>Node3</title>
<g id="a_node3"><a xlink:href="a01287.html#ga840291bc02cba5474a4cb46a9b9566fe" target="_top" xlink:title="Main function entry. ">
<polygon fill="white" stroke="black" points="270,-38.5 270,-57.5 308,-57.5 308,-38.5 270,-38.5"/>
<text text-anchor="middle" x="289" y="-45.5" font-family="Helvetica,sans-Serif" font-size="10.00">main</text>
</a>
</g>
</g>
<!-- Node2&#45;&gt;Node3 -->
<g id="edge2" class="edge"><title>Node2&#45;&gt;Node3</title>
<path fill="none" stroke="midnightblue" d="M215.39,-73.2618C221.62,-71.1887 227.992,-69.0493 234,-67 245.852,-62.9572 259.118,-58.2914 269.536,-54.5951"/>
<polygon fill="midnightblue" stroke="midnightblue" points="214.18,-69.9754 205.788,-76.4425 216.381,-76.6203 214.18,-69.9754"/>
</g>
<!-- Node4&#45;&gt;Node3 -->
<g id="edge4" class="edge"><title>Node4&#45;&gt;Node3</title>
<path fill="none" stroke="midnightblue" d="M237.971,-48C249.641,-48 260.972,-48 269.892,-48"/>
<polygon fill="midnightblue" stroke="midnightblue" points="237.681,-44.5001 227.681,-48 237.681,-51.5001 237.681,-44.5001"/>
</g>
<!-- Node5&#45;&gt;Node3 -->
<g id="edge6" class="edge"><title>Node5&#45;&gt;Node3</title>
<path fill="none" stroke="midnightblue" d="M215.39,-22.7382C221.62,-24.8113 227.992,-26.9507 234,-29 245.852,-33.0428 259.118,-37.7086 269.536,-41.4049"/>
<polygon fill="midnightblue" stroke="midnightblue" points="216.381,-19.3797 205.788,-19.5575 214.18,-26.0246 216.381,-19.3797"/>
</g>
</g>
</svg>
