<?xml version="1.0" encoding="UTF-8" standalone="no"?>
<!DOCTYPE svg PUBLIC "-//W3C//DTD SVG 1.1//EN"
 "http://www.w3.org/Graphics/SVG/1.1/DTD/svg11.dtd">
<!-- Generated by graphviz version 2.38.0 (20140413.2041)
 -->
<!-- Title: MD_GPIO_InitAlternate Pages: 1 -->
<svg width="684pt" height="66pt"
 viewBox="0.00 0.00 684.00 66.00" xmlns="http://www.w3.org/2000/svg" xmlns:xlink="http://www.w3.org/1999/xlink">
<g id="graph0" class="graph" transform="scale(1 1) rotate(0) translate(4 62)">
<title>MD_GPIO_InitAlternate</title>
<polygon fill="white" stroke="none" points="-4,4 -4,-62 680,-62 680,4 -4,4"/>
<!-- Node1 -->
<g id="node1" class="node"><title>Node1</title>
<polygon fill="#bfbfbf" stroke="black" points="0,-0.5 0,-19.5 120,-19.5 120,-0.5 0,-0.5"/>
<text text-anchor="middle" x="60" y="-7.5" font-family="Helvetica,sans-Serif" font-size="10.00">MD_GPIO_InitAlternate</text>
</g>
<!-- Node2 -->
<g id="node2" class="node"><title>Node2</title>
<g id="a_node2"><a xlink:href="a00580.html#ga5cf7d7f613f4241fb77321ef9554f46b" target="_top" xlink:title="Callback for custom pins initialization for USARTx. ">
<polygon fill="white" stroke="black" points="156,-0.5 156,-19.5 338,-19.5 338,-0.5 156,-0.5"/>
<text text-anchor="middle" x="247" y="-7.5" font-family="Helvetica,sans-Serif" font-size="10.00">TM_USART_InitCustomPinsCallback</text>
</a>
</g>
</g>
<!-- Node1&#45;&gt;Node2 -->
<g id="edge1" class="edge"><title>Node1&#45;&gt;Node2</title>
<path fill="none" stroke="midnightblue" d="M130.124,-10C138.517,-10 147.184,-10 155.824,-10"/>
<polygon fill="midnightblue" stroke="midnightblue" points="130.044,-6.5001 120.044,-10 130.044,-13.5001 130.044,-6.5001"/>
</g>
<!-- Node2&#45;&gt;Node2 -->
<g id="edge2" class="edge"><title>Node2&#45;&gt;Node2</title>
<path fill="none" stroke="midnightblue" d="M214.44,-28.2746C215.368,-33.741 226.222,-38 247,-38 277.926,-38 286.865,-28.5653 273.818,-19.7571"/>
<polygon fill="midnightblue" stroke="midnightblue" points="217.494,-30.0054 220.182,-19.7571 211.69,-26.0928 217.494,-30.0054"/>
</g>
<!-- Node3 -->
<g id="node3" class="node"><title>Node3</title>
<g id="a_node3"><a xlink:href="a00580.html#gab807a241fae0eae0d5434bae20a3569f" target="_top" xlink:title="Puts character to USART port. ">
<polygon fill="white" stroke="black" points="374,-0.5 374,-19.5 470,-19.5 470,-0.5 374,-0.5"/>
<text text-anchor="middle" x="422" y="-7.5" font-family="Helvetica,sans-Serif" font-size="10.00">TM_USART_Putc</text>
</a>
</g>
</g>
<!-- Node2&#45;&gt;Node3 -->
<g id="edge3" class="edge"><title>Node2&#45;&gt;Node3</title>
<path fill="none" stroke="midnightblue" d="M348.107,-10C356.963,-10 365.623,-10 373.704,-10"/>
<polygon fill="midnightblue" stroke="midnightblue" points="348.047,-6.5001 338.047,-10 348.047,-13.5001 348.047,-6.5001"/>
</g>
<!-- Node4 -->
<g id="node4" class="node"><title>Node4</title>
<g id="a_node4"><a xlink:href="a00580.html#ga70bed9fb6612cb572a8c10e148404344" target="_top" xlink:title="Initializes USARTx peripheral and corresponding pins. ">
<polygon fill="white" stroke="black" points="509.5,-38.5 509.5,-57.5 598.5,-57.5 598.5,-38.5 509.5,-38.5"/>
<text text-anchor="middle" x="554" y="-45.5" font-family="Helvetica,sans-Serif" font-size="10.00">TM_USART_Init</text>
</a>
</g>
</g>
<!-- Node3&#45;&gt;Node4 -->
<g id="edge4" class="edge"><title>Node3&#45;&gt;Node4</title>
<path fill="none" stroke="midnightblue" d="M465.884,-22.5353C483.569,-27.7048 503.734,-33.5991 520.206,-38.4141"/>
<polygon fill="midnightblue" stroke="midnightblue" points="466.385,-19.0353 455.804,-19.589 464.421,-25.7542 466.385,-19.0353"/>
</g>
<!-- Node6 -->
<g id="node6" class="node"><title>Node6</title>
<g id="a_node6"><a xlink:href="a00580.html#ga453aeaa886278333403ff4937c01dcf3" target="_top" xlink:title="Puts string to USART port. ">
<polygon fill="white" stroke="black" points="506,-0.5 506,-19.5 602,-19.5 602,-0.5 506,-0.5"/>
<text text-anchor="middle" x="554" y="-7.5" font-family="Helvetica,sans-Serif" font-size="10.00">TM_USART_Puts</text>
</a>
</g>
</g>
<!-- Node3&#45;&gt;Node6 -->
<g id="edge6" class="edge"><title>Node3&#45;&gt;Node6</title>
<path fill="none" stroke="midnightblue" d="M480.539,-3.28969C489.034,-3.19895 497.703,-3.2638 505.952,-3.48422"/>
<polygon fill="midnightblue" stroke="midnightblue" points="480.235,0.205426 470.301,-3.47752 480.363,-6.7934 480.235,0.205426"/>
</g>
<!-- Node5 -->
<g id="node5" class="node"><title>Node5</title>
<g id="a_node5"><a xlink:href="a01285.html#ga840291bc02cba5474a4cb46a9b9566fe" target="_top" xlink:title="Main function entry. ">
<polygon fill="white" stroke="black" points="638,-38.5 638,-57.5 676,-57.5 676,-38.5 638,-38.5"/>
<text text-anchor="middle" x="657" y="-45.5" font-family="Helvetica,sans-Serif" font-size="10.00">main</text>
</a>
</g>
</g>
<!-- Node4&#45;&gt;Node5 -->
<g id="edge5" class="edge"><title>Node4&#45;&gt;Node5</title>
<path fill="none" stroke="midnightblue" d="M608.767,-48C619.256,-48 629.556,-48 637.848,-48"/>
<polygon fill="midnightblue" stroke="midnightblue" points="608.713,-44.5001 598.713,-48 608.713,-51.5001 608.713,-44.5001"/>
</g>
<!-- Node6&#45;&gt;Node3 -->
<g id="edge7" class="edge"><title>Node6&#45;&gt;Node3</title>
<path fill="none" stroke="midnightblue" d="M495.722,-16.7075C487.229,-16.8014 478.559,-16.7397 470.301,-16.5225"/>
<polygon fill="midnightblue" stroke="midnightblue" points="496.02,-20.2026 505.952,-16.5158 495.888,-13.2038 496.02,-20.2026"/>
</g>
</g>
</svg>
