<?xml version="1.0" encoding="UTF-8" standalone="no"?>
<!DOCTYPE svg PUBLIC "-//W3C//DTD SVG 1.1//EN"
 "http://www.w3.org/Graphics/SVG/1.1/DTD/svg11.dtd">
<!-- Generated by graphviz version 2.38.0 (20140413.2041)
 -->
<!-- Title: TIM4_IRQHandler Pages: 1 -->
<svg width="580pt" height="199pt"
 viewBox="0.00 0.00 580.00 199.00" xmlns="http://www.w3.org/2000/svg" xmlns:xlink="http://www.w3.org/1999/xlink">
<g id="graph0" class="graph" transform="scale(1 1) rotate(0) translate(4 195)">
<title>TIM4_IRQHandler</title>
<polygon fill="white" stroke="none" points="-4,4 -4,-195 576,-195 576,4 -4,4"/>
<!-- Node1 -->
<g id="node1" class="node"><title>Node1</title>
<polygon fill="#bfbfbf" stroke="black" points="0,-95.5 0,-114.5 96,-114.5 96,-95.5 0,-95.5"/>
<text text-anchor="middle" x="48" y="-102.5" font-family="Helvetica,sans-Serif" font-size="10.00">TIM4_IRQHandler</text>
</g>
<!-- Node2 -->
<g id="node2" class="node"><title>Node2</title>
<g id="a_node2"><a xlink:href="a00117.html#ga0827a0b411707304f76d33050727c24d" target="_top" xlink:title="Checks whether the TIM interrupt has occurred or not. ">
<polygon fill="white" stroke="black" points="145.5,-171.5 145.5,-190.5 237.5,-190.5 237.5,-171.5 145.5,-171.5"/>
<text text-anchor="middle" x="191.5" y="-178.5" font-family="Helvetica,sans-Serif" font-size="10.00">TIM_GetITStatus</text>
</a>
</g>
</g>
<!-- Node1&#45;&gt;Node2 -->
<g id="edge1" class="edge"><title>Node1&#45;&gt;Node2</title>
<path fill="none" stroke="midnightblue" d="M60.6944,-114.659C76.1782,-127.054 104.717,-148.554 132,-162 136.379,-164.158 141.06,-166.152 145.795,-167.97"/>
<polygon fill="midnightblue" stroke="midnightblue" points="144.917,-171.373 155.511,-171.454 147.279,-164.784 144.917,-171.373"/>
</g>
<!-- Node3 -->
<g id="node3" class="node"><title>Node3</title>
<g id="a_node3"><a xlink:href="a00117.html#ga9eb1e95af71ed380f51a2c6d585cc5d6" target="_top" xlink:title="Clears the TIMx&#39;s interrupt pending bits. ">
<polygon fill="white" stroke="black" points="132,-133.5 132,-152.5 251,-152.5 251,-133.5 132,-133.5"/>
<text text-anchor="middle" x="191.5" y="-140.5" font-family="Helvetica,sans-Serif" font-size="10.00">TIM_ClearITPendingBit</text>
</a>
</g>
</g>
<!-- Node1&#45;&gt;Node3 -->
<g id="edge2" class="edge"><title>Node1&#45;&gt;Node3</title>
<path fill="none" stroke="midnightblue" d="M84.7064,-114.589C102.973,-119.494 125.408,-125.52 144.911,-130.757"/>
<polygon fill="midnightblue" stroke="midnightblue" points="144.239,-134.201 154.805,-133.414 146.055,-127.44 144.239,-134.201"/>
</g>
<!-- Node4 -->
<g id="node4" class="node"><title>Node4</title>
<g id="a_node4"><a xlink:href="a01261.html#ga96648f92af47de61ebadb96b6a543415" target="_top" xlink:title="Provides GPIO pin toggle functionality for MD_GPIO_NAME_t types defined in MDB_GPIO. ">
<polygon fill="white" stroke="black" points="139.5,-95.5 139.5,-114.5 243.5,-114.5 243.5,-95.5 139.5,-95.5"/>
<text text-anchor="middle" x="191.5" y="-102.5" font-family="Helvetica,sans-Serif" font-size="10.00">MDB_GPIO_Toggle</text>
</a>
</g>
</g>
<!-- Node1&#45;&gt;Node4 -->
<g id="edge3" class="edge"><title>Node1&#45;&gt;Node4</title>
<path fill="none" stroke="midnightblue" d="M96.1175,-105C106.705,-105 118.089,-105 129.161,-105"/>
<polygon fill="midnightblue" stroke="midnightblue" points="129.209,-108.5 139.209,-105 129.209,-101.5 129.209,-108.5"/>
</g>
<!-- Node5 -->
<g id="node5" class="node"><title>Node5</title>
<g id="a_node5"><a xlink:href="a01232.html#gab27f871618e69ee02c2d2bd756a97397" target="_top" xlink:title="Set beam control source and new state. ">
<polygon fill="white" stroke="black" points="163.5,-57.5 163.5,-76.5 219.5,-76.5 219.5,-57.5 163.5,-57.5"/>
<text text-anchor="middle" x="191.5" y="-64.5" font-family="Helvetica,sans-Serif" font-size="10.00">beamCtrl</text>
</a>
</g>
</g>
<!-- Node1&#45;&gt;Node5 -->
<g id="edge4" class="edge"><title>Node1&#45;&gt;Node5</title>
<path fill="none" stroke="midnightblue" d="M84.7064,-95.411C105.673,-89.7803 132.133,-82.6745 153.346,-76.9778"/>
<polygon fill="midnightblue" stroke="midnightblue" points="154.541,-80.281 163.291,-74.3071 152.725,-73.5206 154.541,-80.281"/>
</g>
<!-- Node11 -->
<g id="node11" class="node"><title>Node11</title>
<g id="a_node11"><a xlink:href="a00098.html#gab9c469a3f5d4aca5c97dee798ffc2f05" target="_top" xlink:title="Enables or disables the specified DMAy Streamx interrupts. ">
<polygon fill="white" stroke="black" points="150.5,-19.5 150.5,-38.5 232.5,-38.5 232.5,-19.5 150.5,-19.5"/>
<text text-anchor="middle" x="191.5" y="-26.5" font-family="Helvetica,sans-Serif" font-size="10.00">DMA_ITConfig</text>
</a>
</g>
</g>
<!-- Node1&#45;&gt;Node11 -->
<g id="edge10" class="edge"><title>Node1&#45;&gt;Node11</title>
<path fill="none" stroke="midnightblue" d="M60.6944,-95.3406C76.1782,-82.9465 104.717,-61.4461 132,-48 136.379,-45.8418 141.06,-43.8484 145.795,-42.0299"/>
<polygon fill="midnightblue" stroke="midnightblue" points="147.279,-45.2159 155.511,-38.5459 144.917,-38.6267 147.279,-45.2159"/>
</g>
<!-- Node6 -->
<g id="node6" class="node"><title>Node6</title>
<g id="a_node6"><a xlink:href="a01261.html#ga23127fb33a96a81838d3c4b368b0e915" target="_top" xlink:title="Provides GPIO on/off functionality. ">
<polygon fill="white" stroke="black" points="287,-57.5 287,-76.5 391,-76.5 391,-57.5 287,-57.5"/>
<text text-anchor="middle" x="339" y="-64.5" font-family="Helvetica,sans-Serif" font-size="10.00">MDB_GPIO_Switch</text>
</a>
</g>
</g>
<!-- Node5&#45;&gt;Node6 -->
<g id="edge5" class="edge"><title>Node5&#45;&gt;Node6</title>
<path fill="none" stroke="midnightblue" d="M219.526,-67C235.697,-67 256.935,-67 276.958,-67"/>
<polygon fill="midnightblue" stroke="midnightblue" points="276.972,-70.5001 286.972,-67 276.972,-63.5001 276.972,-70.5001"/>
</g>
<!-- Node7 -->
<g id="node7" class="node"><title>Node7</title>
<g id="a_node7"><a xlink:href="a01261.html#ga1de48ba66939a9726f7930fc6a1e653a" target="_top" xlink:title="MDB_GPIO_Off">
<polygon fill="white" stroke="black" points="455.5,-114.5 455.5,-133.5 543.5,-133.5 543.5,-114.5 455.5,-114.5"/>
<text text-anchor="middle" x="499.5" y="-121.5" font-family="Helvetica,sans-Serif" font-size="10.00">MDB_GPIO_Off</text>
</a>
</g>
</g>
<!-- Node6&#45;&gt;Node7 -->
<g id="edge6" class="edge"><title>Node6&#45;&gt;Node7</title>
<path fill="none" stroke="midnightblue" d="M359.698,-76.6318C377.11,-84.8965 403.346,-96.7452 427,-105 433.836,-107.386 441.129,-109.642 448.346,-111.711"/>
<polygon fill="midnightblue" stroke="midnightblue" points="447.518,-115.113 458.09,-114.409 449.387,-108.367 447.518,-115.113"/>
</g>
<!-- Node8 -->
<g id="node8" class="node"><title>Node8</title>
<g id="a_node8"><a xlink:href="a01261.html#ga9915de13874ce89948d7d860af7e28c8" target="_top" xlink:title="{ function_description } ">
<polygon fill="white" stroke="black" points="456,-76.5 456,-95.5 543,-95.5 543,-76.5 456,-76.5"/>
<text text-anchor="middle" x="499.5" y="-83.5" font-family="Helvetica,sans-Serif" font-size="10.00">MDB_GPIO_On</text>
</a>
</g>
</g>
<!-- Node6&#45;&gt;Node8 -->
<g id="edge7" class="edge"><title>Node6&#45;&gt;Node8</title>
<path fill="none" stroke="midnightblue" d="M391.023,-73.1163C408.498,-75.2111 428.08,-77.5584 445.693,-79.6698"/>
<polygon fill="midnightblue" stroke="midnightblue" points="445.459,-83.1668 455.805,-80.882 446.293,-76.2166 445.459,-83.1668"/>
</g>
<!-- Node9 -->
<g id="node9" class="node"><title>Node9</title>
<g id="a_node9"><a xlink:href="a00111.html#ga80c89116820d48bb38db2e7d5e5a49b9" target="_top" xlink:title="Enables or disables the AHB1 peripheral clock. ">
<polygon fill="white" stroke="black" points="427,-38.5 427,-57.5 572,-57.5 572,-38.5 427,-38.5"/>
<text text-anchor="middle" x="499.5" y="-45.5" font-family="Helvetica,sans-Serif" font-size="10.00">RCC_AHB1PeriphClockCmd</text>
</a>
</g>
</g>
<!-- Node6&#45;&gt;Node9 -->
<g id="edge8" class="edge"><title>Node6&#45;&gt;Node9</title>
<path fill="none" stroke="midnightblue" d="M391.023,-60.8837C399.219,-59.9013 407.877,-58.8633 416.579,-57.8201"/>
<polygon fill="midnightblue" stroke="midnightblue" points="417.277,-61.2617 426.789,-56.5962 416.444,-54.3114 417.277,-61.2617"/>
</g>
<!-- Node10 -->
<g id="node10" class="node"><title>Node10</title>
<g id="a_node10"><a xlink:href="a00102.html#ga71abf9404261370d03cca449b88d3a65" target="_top" xlink:title="Initializes the GPIOx peripheral according to the specified parameters in the GPIO_InitStruct. ">
<polygon fill="white" stroke="black" points="469.5,-0.5 469.5,-19.5 529.5,-19.5 529.5,-0.5 469.5,-0.5"/>
<text text-anchor="middle" x="499.5" y="-7.5" font-family="Helvetica,sans-Serif" font-size="10.00">GPIO_Init</text>
</a>
</g>
</g>
<!-- Node6&#45;&gt;Node10 -->
<g id="edge9" class="edge"><title>Node6&#45;&gt;Node10</title>
<path fill="none" stroke="midnightblue" d="M359.698,-57.3682C377.11,-49.1035 403.346,-37.2548 427,-29 437.384,-25.376 448.822,-22.0505 459.446,-19.2293"/>
<polygon fill="midnightblue" stroke="midnightblue" points="460.511,-22.5694 469.322,-16.6857 458.765,-15.7906 460.511,-22.5694"/>
</g>
</g>
</svg>
