<?xml version="1.0" encoding="UTF-8" standalone="no"?>
<!DOCTYPE svg PUBLIC "-//W3C//DTD SVG 1.1//EN"
 "http://www.w3.org/Graphics/SVG/1.1/DTD/svg11.dtd">
<!-- Generated by graphviz version 2.38.0 (20140413.2041)
 -->
<!-- Title: DMA2_Stream0_IRQHandler Pages: 1 -->
<svg width="491pt" height="306pt"
 viewBox="0.00 0.00 491.00 305.50" xmlns="http://www.w3.org/2000/svg" xmlns:xlink="http://www.w3.org/1999/xlink">
<g id="graph0" class="graph" transform="scale(1 1) rotate(0) translate(4 301.5)">
<title>DMA2_Stream0_IRQHandler</title>
<polygon fill="white" stroke="none" points="-4,4 -4,-301.5 487,-301.5 487,4 -4,4"/>
<!-- Node1 -->
<g id="node1" class="node"><title>Node1</title>
<polygon fill="#bfbfbf" stroke="black" points="0,-145 0,-164 143,-164 143,-145 0,-145"/>
<text text-anchor="middle" x="71.5" y="-152" font-family="Helvetica,sans-Serif" font-size="10.00">DMA2_Stream0_IRQHandler</text>
</g>
<!-- Node2 -->
<g id="node2" class="node"><title>Node2</title>
<g id="a_node2"><a xlink:href="a00098.html#gad5433018889cd36140d98bb380c4e76e" target="_top" xlink:title="Clears the DMAy Streamx&#39;s interrupt pending bits. ">
<polygon fill="white" stroke="black" points="183,-278 183,-297 307,-297 307,-278 183,-278"/>
<text text-anchor="middle" x="245" y="-285" font-family="Helvetica,sans-Serif" font-size="10.00">DMA_ClearITPendingBit</text>
</a>
</g>
</g>
<!-- Node1&#45;&gt;Node2 -->
<g id="edge1" class="edge"><title>Node1&#45;&gt;Node2</title>
<path fill="none" stroke="midnightblue" d="M78.7159,-164.073C93.4267,-185.958 132.642,-239.957 179,-268.5 182.395,-270.59 186.03,-272.46 189.783,-274.131"/>
<polygon fill="midnightblue" stroke="midnightblue" points="188.698,-277.465 199.285,-277.888 191.272,-270.956 188.698,-277.465"/>
</g>
<!-- Node3 -->
<g id="node3" class="node"><title>Node3</title>
<g id="a_node3"><a xlink:href="a00098.html#gab9c469a3f5d4aca5c97dee798ffc2f05" target="_top" xlink:title="Enables or disables the specified DMAy Streamx interrupts. ">
<polygon fill="white" stroke="black" points="204,-240 204,-259 286,-259 286,-240 204,-240"/>
<text text-anchor="middle" x="245" y="-247" font-family="Helvetica,sans-Serif" font-size="10.00">DMA_ITConfig</text>
</a>
</g>
</g>
<!-- Node1&#45;&gt;Node3 -->
<g id="edge2" class="edge"><title>Node1&#45;&gt;Node3</title>
<path fill="none" stroke="midnightblue" d="M83.2127,-164.043C101.576,-179.945 140.791,-211.944 179,-230.5 183.705,-232.785 188.737,-234.849 193.841,-236.701"/>
<polygon fill="midnightblue" stroke="midnightblue" points="193.083,-240.138 203.677,-240.001 195.31,-233.502 193.083,-240.138"/>
</g>
<!-- Node4 -->
<g id="node4" class="node"><title>Node4</title>
<g id="a_node4"><a xlink:href="a00098.html#gad0ccf5f6548bd7cf8f2cae30393bb716" target="_top" xlink:title="Checks whether the specified DMAy Streamx interrupt has occurred or not. ">
<polygon fill="white" stroke="black" points="196,-202 196,-221 294,-221 294,-202 196,-202"/>
<text text-anchor="middle" x="245" y="-209" font-family="Helvetica,sans-Serif" font-size="10.00">DMA_GetITStatus</text>
</a>
</g>
</g>
<!-- Node1&#45;&gt;Node4 -->
<g id="edge3" class="edge"><title>Node1&#45;&gt;Node4</title>
<path fill="none" stroke="midnightblue" d="M98.1805,-164.138C119.663,-172.085 151.176,-183.478 179,-192.5 185.688,-194.668 192.797,-196.861 199.767,-198.947"/>
<polygon fill="midnightblue" stroke="midnightblue" points="199.232,-202.438 209.813,-201.913 201.214,-195.724 199.232,-202.438"/>
</g>
<!-- Node5 -->
<g id="node5" class="node"><title>Node5</title>
<g id="a_node5"><a xlink:href="a01232.html#gad1ffe8d2675c42ec8bcd3ff6b5ccdded" target="_top" xlink:title="Safely update actuator control signals. ">
<polygon fill="white" stroke="black" points="199.5,-164 199.5,-183 290.5,-183 290.5,-164 199.5,-164"/>
<text text-anchor="middle" x="245" y="-171" font-family="Helvetica,sans-Serif" font-size="10.00">updateActuator_f</text>
</a>
</g>
</g>
<!-- Node1&#45;&gt;Node5 -->
<g id="edge4" class="edge"><title>Node1&#45;&gt;Node5</title>
<path fill="none" stroke="midnightblue" d="M143.246,-162.338C158.541,-164.032 174.493,-165.8 189.074,-167.415"/>
<polygon fill="midnightblue" stroke="midnightblue" points="189.095,-170.939 199.42,-168.561 189.866,-163.981 189.095,-170.939"/>
</g>
<!-- Node6 -->
<g id="node6" class="node"><title>Node6</title>
<g id="a_node6"><a xlink:href="a00599.html#gac5c79ed46abf2d72b8cf41fa6c708bda" target="_top" xlink:title="Process function for the floating&#45;point PID Control. ">
<polygon fill="white" stroke="black" points="210,-126 210,-145 280,-145 280,-126 210,-126"/>
<text text-anchor="middle" x="245" y="-133" font-family="Helvetica,sans-Serif" font-size="10.00">arm_pid_f32</text>
</a>
</g>
</g>
<!-- Node1&#45;&gt;Node6 -->
<g id="edge5" class="edge"><title>Node1&#45;&gt;Node6</title>
<path fill="none" stroke="midnightblue" d="M143.246,-146.662C162.348,-144.546 182.476,-142.316 199.677,-140.41"/>
<polygon fill="midnightblue" stroke="midnightblue" points="200.419,-143.85 209.973,-139.27 199.648,-136.892 200.419,-143.85"/>
</g>
<!-- Node7 -->
<g id="node7" class="node"><title>Node7</title>
<g id="a_node7"><a xlink:href="a00028.html#gaa12546e51ec905c90a3aada432bd4633" target="_top" xlink:title="Checks whether the specified ADC flag is set or not. ">
<polygon fill="white" stroke="black" points="191.5,-88 191.5,-107 298.5,-107 298.5,-88 191.5,-88"/>
<text text-anchor="middle" x="245" y="-95" font-family="Helvetica,sans-Serif" font-size="10.00">ADC_GetFlagStatus</text>
</a>
</g>
</g>
<!-- Node1&#45;&gt;Node7 -->
<g id="edge6" class="edge"><title>Node1&#45;&gt;Node7</title>
<path fill="none" stroke="midnightblue" d="M98.1805,-144.862C119.663,-136.915 151.176,-125.522 179,-116.5 185.688,-114.332 192.797,-112.139 199.767,-110.053"/>
<polygon fill="midnightblue" stroke="midnightblue" points="201.214,-113.276 209.813,-107.087 199.232,-106.562 201.214,-113.276"/>
</g>
<!-- Node8 -->
<g id="node8" class="node"><title>Node8</title>
<g id="a_node8"><a xlink:href="a00028.html#ga601c6a67bd883eb631ecc7aa5e999b9c" target="_top" xlink:title="Clears the ADCx&#39;s interrupt pending bits. ">
<polygon fill="white" stroke="black" points="183.5,-50 183.5,-69 306.5,-69 306.5,-50 183.5,-50"/>
<text text-anchor="middle" x="245" y="-57" font-family="Helvetica,sans-Serif" font-size="10.00">ADC_ClearITPendingBit</text>
</a>
</g>
</g>
<!-- Node1&#45;&gt;Node8 -->
<g id="edge7" class="edge"><title>Node1&#45;&gt;Node8</title>
<path fill="none" stroke="midnightblue" d="M83.2127,-144.957C101.576,-129.055 140.791,-97.0559 179,-78.5 183.64,-76.2466 188.599,-74.2075 193.631,-72.3754"/>
<polygon fill="midnightblue" stroke="midnightblue" points="194.975,-75.6159 203.334,-69.1055 192.74,-68.9825 194.975,-75.6159"/>
</g>
<!-- Node9 -->
<g id="node9" class="node"><title>Node9</title>
<g id="a_node9"><a xlink:href="a01237.html#gaee2322aa05f1f3ad93c480e4ef565ad6" target="_top" xlink:title="Safe state function. ">
<polygon fill="white" stroke="black" points="179,-0.5 179,-30.5 311,-30.5 311,-0.5 179,-0.5"/>
<text text-anchor="start" x="187" y="-18.5" font-family="Helvetica,sans-Serif" font-size="10.00">DAC_SetDualChanSigned</text>
<text text-anchor="middle" x="245" y="-7.5" font-family="Helvetica,sans-Serif" font-size="10.00">_Tripped</text>
</a>
</g>
</g>
<!-- Node1&#45;&gt;Node9 -->
<g id="edge8" class="edge"><title>Node1&#45;&gt;Node9</title>
<path fill="none" stroke="midnightblue" d="M79.1117,-144.869C94.3485,-123.33 134.088,-70.7854 179,-40.5 181.895,-38.5481 184.963,-36.7185 188.13,-35.0084"/>
<polygon fill="midnightblue" stroke="midnightblue" points="189.834,-38.0703 197.249,-30.5031 186.733,-31.7944 189.834,-38.0703"/>
</g>
<!-- Node10 -->
<g id="node10" class="node"><title>Node10</title>
<g id="a_node10"><a xlink:href="a00094.html#ga4ca2cfdf56ab35a23f2517f23d7fbb24" target="_top" xlink:title="Set the specified data holding register value for dual channel DAC. ">
<polygon fill="white" stroke="black" points="347,-6 347,-25 483,-25 483,-6 347,-6"/>
<text text-anchor="middle" x="415" y="-13" font-family="Helvetica,sans-Serif" font-size="10.00">DAC_SetDualChannelData</text>
</a>
</g>
</g>
<!-- Node9&#45;&gt;Node10 -->
<g id="edge9" class="edge"><title>Node9&#45;&gt;Node10</title>
<path fill="none" stroke="midnightblue" d="M311.434,-15.5C319.687,-15.5 328.192,-15.5 336.608,-15.5"/>
<polygon fill="midnightblue" stroke="midnightblue" points="336.806,-19.0001 346.806,-15.5 336.806,-12.0001 336.806,-19.0001"/>
</g>
</g>
</svg>
