<?xml version="1.0" encoding="UTF-8" standalone="no"?>
<!DOCTYPE svg PUBLIC "-//W3C//DTD SVG 1.1//EN"
 "http://www.w3.org/Graphics/SVG/1.1/DTD/svg11.dtd">
<!-- Generated by graphviz version 2.38.0 (20140413.2041)
 -->
<!-- Title: Exported_constants Pages: 1 -->
<svg width="355pt" height="78pt"
 viewBox="0.00 0.00 355.00 77.50" xmlns="http://www.w3.org/2000/svg" xmlns:xlink="http://www.w3.org/1999/xlink">
<g id="graph0" class="graph" transform="scale(1 1) rotate(0) translate(4 73.5)">
<title>Exported_constants</title>
<polygon fill="white" stroke="none" points="-4,4 -4,-73.5 351,-73.5 351,4 -4,4"/>
<!-- Node1 -->
<g id="node1" class="node"><title>Node1</title>
<g id="a_node1"><a xlink:href="a01299.html" target="_top" xlink:title="Stm32f4xx">
<polygon fill="white" stroke="black" points="0,-22.5 0,-41.5 64,-41.5 64,-22.5 0,-22.5"/>
<text text-anchor="middle" x="32" y="-29.5" font-family="Helvetica,sans-Serif" font-size="10.00">Stm32f4xx</text>
</a>
</g>
</g>
<!-- Node0 -->
<g id="node2" class="node"><title>Node0</title>
<polygon fill="#bfbfbf" stroke="black" points="100,-22.5 100,-41.5 204,-41.5 204,-22.5 100,-22.5"/>
<text text-anchor="middle" x="152" y="-29.5" font-family="Helvetica,sans-Serif" font-size="10.00">Exported_constants</text>
</g>
<!-- Node1&#45;&gt;Node0 -->
<g id="edge1" class="edge"><title>Node1&#45;&gt;Node0</title>
<path fill="none" stroke="black" d="M74.1193,-32C82.3666,-32 91.1287,-32 99.6725,-32"/>
<polygon fill="black" stroke="black" points="74.0031,-28.5001 64.0031,-32 74.0031,-35.5001 74.0031,-28.5001"/>
</g>
<!-- Node2 -->
<g id="node3" class="node"><title>Node2</title>
<g id="a_node3"><a xlink:href="a01306.html" target="_top" xlink:title="Peripheral_Registers\l_Bits_Definition">
<polygon fill="white" stroke="black" points="240,-39 240,-69 347,-69 347,-39 240,-39"/>
<text text-anchor="start" x="248" y="-57" font-family="Helvetica,sans-Serif" font-size="10.00">Peripheral_Registers</text>
<text text-anchor="middle" x="293.5" y="-46" font-family="Helvetica,sans-Serif" font-size="10.00">_Bits_Definition</text>
</a>
</g>
</g>
<!-- Node0&#45;&gt;Node2 -->
<g id="edge2" class="edge"><title>Node0&#45;&gt;Node2</title>
<path fill="none" stroke="black" d="M214.14,-41.6421C222.744,-42.999 231.526,-44.384 239.95,-45.7126"/>
<polygon fill="black" stroke="black" points="214.576,-38.1677 204.153,-40.0671 213.485,-45.0822 214.576,-38.1677"/>
</g>
<!-- Node3 -->
<g id="node4" class="node"><title>Node3</title>
<g id="a_node4"><a xlink:href="a01307.html" target="_top" xlink:title="Exported_macro">
<polygon fill="white" stroke="black" points="249.5,-0.5 249.5,-19.5 337.5,-19.5 337.5,-0.5 249.5,-0.5"/>
<text text-anchor="middle" x="293.5" y="-7.5" font-family="Helvetica,sans-Serif" font-size="10.00">Exported_macro</text>
</a>
</g>
</g>
<!-- Node0&#45;&gt;Node3 -->
<g id="edge3" class="edge"><title>Node0&#45;&gt;Node3</title>
<path fill="none" stroke="black" d="M214.345,-22.3254C226.077,-20.4753 238.131,-18.5743 249.153,-16.8361"/>
<polygon fill="black" stroke="black" points="213.485,-18.9178 204.153,-23.9329 214.576,-25.8323 213.485,-18.9178"/>
</g>
</g>
</svg>
