<?xml version="1.0" encoding="UTF-8" standalone="no"?>
<!DOCTYPE svg PUBLIC "-//W3C//DTD SVG 1.1//EN"
 "http://www.w3.org/Graphics/SVG/1.1/DTD/svg11.dtd">
<!-- Generated by graphviz version 2.38.0 (20140413.2041)
 -->
<!-- Title: md_stm32f4_dac_waveform.h Pages: 1 -->
<svg width="363pt" height="308pt"
 viewBox="0.00 0.00 363.00 308.00" xmlns="http://www.w3.org/2000/svg" xmlns:xlink="http://www.w3.org/1999/xlink">
<g id="graph0" class="graph" transform="scale(1 1) rotate(0) translate(4 304)">
<title>md_stm32f4_dac_waveform.h</title>
<polygon fill="white" stroke="none" points="-4,4 -4,-304 359,-304 359,4 -4,4"/>
<!-- Node1 -->
<g id="node1" class="node"><title>Node1</title>
<polygon fill="#bfbfbf" stroke="black" points="34.5,-280.5 34.5,-299.5 182.5,-299.5 182.5,-280.5 34.5,-280.5"/>
<text text-anchor="middle" x="108.5" y="-287.5" font-family="Helvetica,sans-Serif" font-size="10.00">md_stm32f4_dac_waveform.h</text>
</g>
<!-- Node2 -->
<g id="node2" class="node"><title>Node2</title>
<g id="a_node2"><a xlink:href="a00484.html" target="_top" xlink:title="CMSIS Cortex&#45;M4 Device Peripheral Access Layer Header File. This file contains all the peripheral reg...">
<polygon fill="white" stroke="black" points="73,-112.5 73,-131.5 144,-131.5 144,-112.5 73,-112.5"/>
<text text-anchor="middle" x="108.5" y="-119.5" font-family="Helvetica,sans-Serif" font-size="10.00">stm32f4xx.h</text>
</a>
</g>
</g>
<!-- Node1&#45;&gt;Node2 -->
<g id="edge1" class="edge"><title>Node1&#45;&gt;Node2</title>
<path fill="none" stroke="midnightblue" d="M92.961,-280.446C60.0684,-261.198 -11.3734,-212.663 16.5,-168 26.9051,-151.327 45.4757,-140.663 63.221,-133.927"/>
<polygon fill="midnightblue" stroke="midnightblue" points="64.6252,-137.145 72.9374,-130.576 62.3427,-130.528 64.6252,-137.145"/>
</g>
<!-- Node9 -->
<g id="node9" class="node"><title>Node9</title>
<g id="a_node9"><a xlink:href="a00500.html" target="_top" xlink:title="This file contains all the functions prototypes for the DAC firmware library. ">
<polygon fill="white" stroke="black" points="25.5,-168.5 25.5,-187.5 117.5,-187.5 117.5,-168.5 25.5,-168.5"/>
<text text-anchor="middle" x="71.5" y="-175.5" font-family="Helvetica,sans-Serif" font-size="10.00">stm32f4xx_dac.h</text>
</a>
</g>
</g>
<!-- Node1&#45;&gt;Node9 -->
<g id="edge9" class="edge"><title>Node1&#45;&gt;Node9</title>
<path fill="none" stroke="midnightblue" d="M104.08,-280.208C99.7049,-271.26 93.0233,-256.909 88.5,-244 83.1302,-228.675 78.5732,-210.795 75.5331,-197.671"/>
<polygon fill="midnightblue" stroke="midnightblue" points="78.8671,-196.541 73.2696,-187.546 72.0357,-198.068 78.8671,-196.541"/>
</g>
<!-- Node10 -->
<g id="node10" class="node"><title>Node10</title>
<g id="a_node10"><a xlink:href="a00456.html" target="_top" xlink:title="Project XA&#45;Galvo scanner specific digital to analog converter methods. ">
<polygon fill="white" stroke="black" points="97.5,-224.5 97.5,-243.5 197.5,-243.5 197.5,-224.5 97.5,-224.5"/>
<text text-anchor="middle" x="147.5" y="-231.5" font-family="Helvetica,sans-Serif" font-size="10.00">md_stm32f4_dac.h</text>
</a>
</g>
</g>
<!-- Node1&#45;&gt;Node10 -->
<g id="edge11" class="edge"><title>Node1&#45;&gt;Node10</title>
<path fill="none" stroke="midnightblue" d="M114.94,-280.083C120.449,-272.455 128.531,-261.264 135.265,-251.941"/>
<polygon fill="midnightblue" stroke="midnightblue" points="138.162,-253.907 141.18,-243.751 132.487,-249.809 138.162,-253.907"/>
</g>
<!-- Node12 -->
<g id="node12" class="node"><title>Node12</title>
<g id="a_node12"><a xlink:href="a00434.html" target="_top" xlink:title="Global defines include file. ">
<polygon fill="white" stroke="black" points="215.5,-224.5 215.5,-243.5 271.5,-243.5 271.5,-224.5 215.5,-224.5"/>
<text text-anchor="middle" x="243.5" y="-231.5" font-family="Helvetica,sans-Serif" font-size="10.00">globals.h</text>
</a>
</g>
</g>
<!-- Node1&#45;&gt;Node12 -->
<g id="edge15" class="edge"><title>Node1&#45;&gt;Node12</title>
<path fill="none" stroke="midnightblue" d="M129.891,-280.444C152.207,-271.517 187.403,-257.439 212.708,-247.317"/>
<polygon fill="midnightblue" stroke="midnightblue" points="214.224,-250.48 222.209,-243.516 211.624,-243.981 214.224,-250.48"/>
</g>
<!-- Node3 -->
<g id="node3" class="node"><title>Node3</title>
<g id="a_node3"><a xlink:href="a00427.html" target="_top" xlink:title="CMSIS Cortex&#45;M4 Core Peripheral Access Layer Header File. ">
<polygon fill="white" stroke="black" points="74.5,-56.5 74.5,-75.5 142.5,-75.5 142.5,-56.5 74.5,-56.5"/>
<text text-anchor="middle" x="108.5" y="-63.5" font-family="Helvetica,sans-Serif" font-size="10.00">core_cm4.h</text>
</a>
</g>
</g>
<!-- Node2&#45;&gt;Node3 -->
<g id="edge2" class="edge"><title>Node2&#45;&gt;Node3</title>
<path fill="none" stroke="midnightblue" d="M108.5,-112.083C108.5,-105.006 108.5,-94.8611 108.5,-85.9865"/>
<polygon fill="midnightblue" stroke="midnightblue" points="112,-85.751 108.5,-75.7511 105,-85.7511 112,-85.751"/>
</g>
<!-- Node4 -->
<g id="node4" class="node"><title>Node4</title>
<polygon fill="white" stroke="#bfbfbf" points="0,-0.5 0,-19.5 49,-19.5 49,-0.5 0,-0.5"/>
<text text-anchor="middle" x="24.5" y="-7.5" font-family="Helvetica,sans-Serif" font-size="10.00">stdint.h</text>
</g>
<!-- Node2&#45;&gt;Node4 -->
<g id="edge8" class="edge"><title>Node2&#45;&gt;Node4</title>
<path fill="none" stroke="midnightblue" d="M99.0383,-112.183C89.9219,-103.446 76.0043,-89.4593 65.5,-76 53.6101,-60.7654 42.0496,-41.962 34.252,-28.5052"/>
<polygon fill="midnightblue" stroke="midnightblue" points="37.2749,-26.7406 29.2883,-19.779 31.1904,-30.2017 37.2749,-26.7406"/>
</g>
<!-- Node8 -->
<g id="node8" class="node"><title>Node8</title>
<g id="a_node8"><a xlink:href="a00568_source.html" target="_top" xlink:title="system_stm32f4xx.h">
<polygon fill="white" stroke="black" points="160.5,-56.5 160.5,-75.5 268.5,-75.5 268.5,-56.5 160.5,-56.5"/>
<text text-anchor="middle" x="214.5" y="-63.5" font-family="Helvetica,sans-Serif" font-size="10.00">system_stm32f4xx.h</text>
</a>
</g>
</g>
<!-- Node2&#45;&gt;Node8 -->
<g id="edge7" class="edge"><title>Node2&#45;&gt;Node8</title>
<path fill="none" stroke="midnightblue" d="M125.531,-112.324C142.53,-103.664 168.876,-90.2424 188.493,-80.249"/>
<polygon fill="midnightblue" stroke="midnightblue" points="190.19,-83.3125 197.512,-75.6545 187.012,-77.0752 190.19,-83.3125"/>
</g>
<!-- Node3&#45;&gt;Node4 -->
<g id="edge3" class="edge"><title>Node3&#45;&gt;Node4</title>
<path fill="none" stroke="midnightblue" d="M95.0039,-56.324C81.9004,-47.9002 61.7881,-34.9709 46.3931,-25.0741"/>
<polygon fill="midnightblue" stroke="midnightblue" points="48.267,-22.118 37.9626,-19.6545 44.4817,-28.0063 48.267,-22.118"/>
</g>
<!-- Node5 -->
<g id="node5" class="node"><title>Node5</title>
<g id="a_node5"><a xlink:href="a00430.html" target="_top" xlink:title="CMSIS Cortex&#45;M Core Instruction Access Header File. ">
<polygon fill="white" stroke="black" points="67.5,-0.5 67.5,-19.5 149.5,-19.5 149.5,-0.5 67.5,-0.5"/>
<text text-anchor="middle" x="108.5" y="-7.5" font-family="Helvetica,sans-Serif" font-size="10.00">core_cmInstr.h</text>
</a>
</g>
</g>
<!-- Node3&#45;&gt;Node5 -->
<g id="edge4" class="edge"><title>Node3&#45;&gt;Node5</title>
<path fill="none" stroke="midnightblue" d="M108.5,-56.083C108.5,-49.0059 108.5,-38.8611 108.5,-29.9865"/>
<polygon fill="midnightblue" stroke="midnightblue" points="112,-29.751 108.5,-19.7511 105,-29.7511 112,-29.751"/>
</g>
<!-- Node6 -->
<g id="node6" class="node"><title>Node6</title>
<g id="a_node6"><a xlink:href="a00429.html" target="_top" xlink:title="CMSIS Cortex&#45;M Core Function Access Header File. ">
<polygon fill="white" stroke="black" points="167.5,-0.5 167.5,-19.5 251.5,-19.5 251.5,-0.5 167.5,-0.5"/>
<text text-anchor="middle" x="209.5" y="-7.5" font-family="Helvetica,sans-Serif" font-size="10.00">core_cmFunc.h</text>
</a>
</g>
</g>
<!-- Node3&#45;&gt;Node6 -->
<g id="edge5" class="edge"><title>Node3&#45;&gt;Node6</title>
<path fill="none" stroke="midnightblue" d="M124.727,-56.324C140.851,-47.7034 165.8,-34.3643 184.464,-24.3855"/>
<polygon fill="midnightblue" stroke="midnightblue" points="186.144,-27.456 193.313,-19.6545 182.844,-21.283 186.144,-27.456"/>
</g>
<!-- Node7 -->
<g id="node7" class="node"><title>Node7</title>
<g id="a_node7"><a xlink:href="a00431.html" target="_top" xlink:title="CMSIS Cortex&#45;M SIMD Header File. ">
<polygon fill="white" stroke="black" points="270,-0.5 270,-19.5 355,-19.5 355,-0.5 270,-0.5"/>
<text text-anchor="middle" x="312.5" y="-7.5" font-family="Helvetica,sans-Serif" font-size="10.00">core_cmSimd.h</text>
</a>
</g>
</g>
<!-- Node3&#45;&gt;Node7 -->
<g id="edge6" class="edge"><title>Node3&#45;&gt;Node7</title>
<path fill="none" stroke="midnightblue" d="M140.824,-56.4435C175.889,-47.1616 231.998,-32.3093 270.465,-22.127"/>
<polygon fill="midnightblue" stroke="midnightblue" points="271.555,-25.4589 280.327,-19.5164 269.764,-18.692 271.555,-25.4589"/>
</g>
<!-- Node9&#45;&gt;Node2 -->
<g id="edge10" class="edge"><title>Node9&#45;&gt;Node2</title>
<path fill="none" stroke="midnightblue" d="M77.6098,-168.083C82.7822,-160.534 90.3461,-149.495 96.6944,-140.23"/>
<polygon fill="midnightblue" stroke="midnightblue" points="99.7388,-141.979 102.504,-131.751 93.9643,-138.022 99.7388,-141.979"/>
</g>
<!-- Node10&#45;&gt;Node2 -->
<g id="edge12" class="edge"><title>Node10&#45;&gt;Node2</title>
<path fill="none" stroke="midnightblue" d="M144.836,-224.104C141.021,-211.524 133.669,-187.855 126.5,-168 123.245,-158.985 119.323,-149.084 115.972,-140.869"/>
<polygon fill="midnightblue" stroke="midnightblue" points="119.179,-139.466 112.126,-131.56 112.71,-142.139 119.179,-139.466"/>
</g>
<!-- Node11 -->
<g id="node11" class="node"><title>Node11</title>
<g id="a_node11"><a xlink:href="a00464.html" target="_top" xlink:title="Provides generic methods for GPIO module initialization and manipulation. ">
<polygon fill="white" stroke="black" points="173.5,-168.5 173.5,-187.5 275.5,-187.5 275.5,-168.5 173.5,-168.5"/>
<text text-anchor="middle" x="224.5" y="-175.5" font-family="Helvetica,sans-Serif" font-size="10.00">md_stm32f4_gpio.h</text>
</a>
</g>
</g>
<!-- Node10&#45;&gt;Node11 -->
<g id="edge13" class="edge"><title>Node10&#45;&gt;Node11</title>
<path fill="none" stroke="midnightblue" d="M159.871,-224.324C171.658,-216.058 189.632,-203.453 203.636,-193.632"/>
<polygon fill="midnightblue" stroke="midnightblue" points="205.982,-196.262 212.159,-187.655 201.962,-190.531 205.982,-196.262"/>
</g>
<!-- Node11&#45;&gt;Node2 -->
<g id="edge14" class="edge"><title>Node11&#45;&gt;Node2</title>
<path fill="none" stroke="midnightblue" d="M206.119,-168.444C187.284,-159.675 157.769,-145.935 136.121,-135.858"/>
<polygon fill="midnightblue" stroke="midnightblue" points="137.338,-132.564 126.795,-131.516 134.383,-138.91 137.338,-132.564"/>
</g>
</g>
</svg>
