<?xml version="1.0" encoding="UTF-8" standalone="no"?>
<!DOCTYPE svg PUBLIC "-//W3C//DTD SVG 1.1//EN"
 "http://www.w3.org/Graphics/SVG/1.1/DTD/svg11.dtd">
<!-- Generated by graphviz version 2.38.0 (20140413.2041)
 -->
<!-- Title: md_stm32f4_disco.h Pages: 1 -->
<svg width="378pt" height="252pt"
 viewBox="0.00 0.00 377.50 252.00" xmlns="http://www.w3.org/2000/svg" xmlns:xlink="http://www.w3.org/1999/xlink">
<g id="graph0" class="graph" transform="scale(1 1) rotate(0) translate(4 248)">
<title>md_stm32f4_disco.h</title>
<polygon fill="white" stroke="none" points="-4,4 -4,-248 373.5,-248 373.5,4 -4,4"/>
<!-- Node1 -->
<g id="node1" class="node"><title>Node1</title>
<polygon fill="#bfbfbf" stroke="black" points="30.5,-224.5 30.5,-243.5 137.5,-243.5 137.5,-224.5 30.5,-224.5"/>
<text text-anchor="middle" x="84" y="-231.5" font-family="Helvetica,sans-Serif" font-size="10.00">md_stm32f4_disco.h</text>
</g>
<!-- Node2 -->
<g id="node2" class="node"><title>Node2</title>
<g id="a_node2"><a xlink:href="a00434.html" target="_top" xlink:title="Global defines include file. ">
<polygon fill="white" stroke="black" points="0,-168.5 0,-187.5 56,-187.5 56,-168.5 0,-168.5"/>
<text text-anchor="middle" x="28" y="-175.5" font-family="Helvetica,sans-Serif" font-size="10.00">globals.h</text>
</a>
</g>
</g>
<!-- Node1&#45;&gt;Node2 -->
<g id="edge1" class="edge"><title>Node1&#45;&gt;Node2</title>
<path fill="none" stroke="midnightblue" d="M75.0026,-224.324C66.8056,-216.42 54.4945,-204.548 44.528,-194.938"/>
<polygon fill="midnightblue" stroke="midnightblue" points="46.789,-192.256 37.1611,-187.834 41.9301,-197.295 46.789,-192.256"/>
</g>
<!-- Node3 -->
<g id="node3" class="node"><title>Node3</title>
<g id="a_node3"><a xlink:href="a00484.html" target="_top" xlink:title="CMSIS Cortex&#45;M4 Device Peripheral Access Layer Header File. This file contains all the peripheral reg...">
<polygon fill="white" stroke="black" points="87.5,-112.5 87.5,-131.5 158.5,-131.5 158.5,-112.5 87.5,-112.5"/>
<text text-anchor="middle" x="123" y="-119.5" font-family="Helvetica,sans-Serif" font-size="10.00">stm32f4xx.h</text>
</a>
</g>
</g>
<!-- Node1&#45;&gt;Node3 -->
<g id="edge2" class="edge"><title>Node1&#45;&gt;Node3</title>
<path fill="none" stroke="midnightblue" d="M86.1039,-224.469C89.2827,-211.933 95.7175,-187.87 103,-168 106.31,-158.969 110.573,-149.185 114.312,-141.054"/>
<polygon fill="midnightblue" stroke="midnightblue" points="117.567,-142.358 118.658,-131.82 111.233,-139.378 117.567,-142.358"/>
</g>
<!-- Node10 -->
<g id="node10" class="node"><title>Node10</title>
<g id="a_node10"><a xlink:href="a00464.html" target="_top" xlink:title="Provides generic methods for GPIO module initialization and manipulation. ">
<polygon fill="white" stroke="black" points="112,-168.5 112,-187.5 214,-187.5 214,-168.5 112,-168.5"/>
<text text-anchor="middle" x="163" y="-175.5" font-family="Helvetica,sans-Serif" font-size="10.00">md_stm32f4_gpio.h</text>
</a>
</g>
</g>
<!-- Node1&#45;&gt;Node10 -->
<g id="edge10" class="edge"><title>Node1&#45;&gt;Node10</title>
<path fill="none" stroke="midnightblue" d="M96.6927,-224.324C108.901,-215.979 127.578,-203.212 142.003,-193.352"/>
<polygon fill="midnightblue" stroke="midnightblue" points="144.058,-196.187 150.339,-187.655 140.108,-190.408 144.058,-196.187"/>
</g>
<!-- Node4 -->
<g id="node4" class="node"><title>Node4</title>
<g id="a_node4"><a xlink:href="a00427.html" target="_top" xlink:title="CMSIS Cortex&#45;M4 Core Peripheral Access Layer Header File. ">
<polygon fill="white" stroke="black" points="89,-56.5 89,-75.5 157,-75.5 157,-56.5 89,-56.5"/>
<text text-anchor="middle" x="123" y="-63.5" font-family="Helvetica,sans-Serif" font-size="10.00">core_cm4.h</text>
</a>
</g>
</g>
<!-- Node3&#45;&gt;Node4 -->
<g id="edge3" class="edge"><title>Node3&#45;&gt;Node4</title>
<path fill="none" stroke="midnightblue" d="M123,-112.083C123,-105.006 123,-94.8611 123,-85.9865"/>
<polygon fill="midnightblue" stroke="midnightblue" points="126.5,-85.751 123,-75.7511 119.5,-85.7511 126.5,-85.751"/>
</g>
<!-- Node5 -->
<g id="node5" class="node"><title>Node5</title>
<polygon fill="white" stroke="#bfbfbf" points="14.5,-0.5 14.5,-19.5 63.5,-19.5 63.5,-0.5 14.5,-0.5"/>
<text text-anchor="middle" x="39" y="-7.5" font-family="Helvetica,sans-Serif" font-size="10.00">stdint.h</text>
</g>
<!-- Node3&#45;&gt;Node5 -->
<g id="edge9" class="edge"><title>Node3&#45;&gt;Node5</title>
<path fill="none" stroke="midnightblue" d="M113.538,-112.183C104.422,-103.446 90.5043,-89.4593 80,-76 68.1101,-60.7654 56.5496,-41.962 48.752,-28.5052"/>
<polygon fill="midnightblue" stroke="midnightblue" points="51.7749,-26.7406 43.7883,-19.779 45.6904,-30.2017 51.7749,-26.7406"/>
</g>
<!-- Node9 -->
<g id="node9" class="node"><title>Node9</title>
<g id="a_node9"><a xlink:href="a00568_source.html" target="_top" xlink:title="system_stm32f4xx.h">
<polygon fill="white" stroke="black" points="175,-56.5 175,-75.5 283,-75.5 283,-56.5 175,-56.5"/>
<text text-anchor="middle" x="229" y="-63.5" font-family="Helvetica,sans-Serif" font-size="10.00">system_stm32f4xx.h</text>
</a>
</g>
</g>
<!-- Node3&#45;&gt;Node9 -->
<g id="edge8" class="edge"><title>Node3&#45;&gt;Node9</title>
<path fill="none" stroke="midnightblue" d="M140.031,-112.324C157.03,-103.664 183.376,-90.2424 202.993,-80.249"/>
<polygon fill="midnightblue" stroke="midnightblue" points="204.69,-83.3125 212.012,-75.6545 201.512,-77.0752 204.69,-83.3125"/>
</g>
<!-- Node4&#45;&gt;Node5 -->
<g id="edge4" class="edge"><title>Node4&#45;&gt;Node5</title>
<path fill="none" stroke="midnightblue" d="M109.504,-56.324C96.4004,-47.9002 76.2881,-34.9709 60.8931,-25.0741"/>
<polygon fill="midnightblue" stroke="midnightblue" points="62.767,-22.118 52.4626,-19.6545 58.9817,-28.0063 62.767,-22.118"/>
</g>
<!-- Node6 -->
<g id="node6" class="node"><title>Node6</title>
<g id="a_node6"><a xlink:href="a00430.html" target="_top" xlink:title="CMSIS Cortex&#45;M Core Instruction Access Header File. ">
<polygon fill="white" stroke="black" points="82,-0.5 82,-19.5 164,-19.5 164,-0.5 82,-0.5"/>
<text text-anchor="middle" x="123" y="-7.5" font-family="Helvetica,sans-Serif" font-size="10.00">core_cmInstr.h</text>
</a>
</g>
</g>
<!-- Node4&#45;&gt;Node6 -->
<g id="edge5" class="edge"><title>Node4&#45;&gt;Node6</title>
<path fill="none" stroke="midnightblue" d="M123,-56.083C123,-49.0059 123,-38.8611 123,-29.9865"/>
<polygon fill="midnightblue" stroke="midnightblue" points="126.5,-29.751 123,-19.7511 119.5,-29.7511 126.5,-29.751"/>
</g>
<!-- Node7 -->
<g id="node7" class="node"><title>Node7</title>
<g id="a_node7"><a xlink:href="a00429.html" target="_top" xlink:title="CMSIS Cortex&#45;M Core Function Access Header File. ">
<polygon fill="white" stroke="black" points="182,-0.5 182,-19.5 266,-19.5 266,-0.5 182,-0.5"/>
<text text-anchor="middle" x="224" y="-7.5" font-family="Helvetica,sans-Serif" font-size="10.00">core_cmFunc.h</text>
</a>
</g>
</g>
<!-- Node4&#45;&gt;Node7 -->
<g id="edge6" class="edge"><title>Node4&#45;&gt;Node7</title>
<path fill="none" stroke="midnightblue" d="M139.227,-56.324C155.351,-47.7034 180.3,-34.3643 198.964,-24.3855"/>
<polygon fill="midnightblue" stroke="midnightblue" points="200.644,-27.456 207.813,-19.6545 197.344,-21.283 200.644,-27.456"/>
</g>
<!-- Node8 -->
<g id="node8" class="node"><title>Node8</title>
<g id="a_node8"><a xlink:href="a00431.html" target="_top" xlink:title="CMSIS Cortex&#45;M SIMD Header File. ">
<polygon fill="white" stroke="black" points="284.5,-0.5 284.5,-19.5 369.5,-19.5 369.5,-0.5 284.5,-0.5"/>
<text text-anchor="middle" x="327" y="-7.5" font-family="Helvetica,sans-Serif" font-size="10.00">core_cmSimd.h</text>
</a>
</g>
</g>
<!-- Node4&#45;&gt;Node8 -->
<g id="edge7" class="edge"><title>Node4&#45;&gt;Node8</title>
<path fill="none" stroke="midnightblue" d="M155.324,-56.4435C190.389,-47.1616 246.498,-32.3093 284.965,-22.127"/>
<polygon fill="midnightblue" stroke="midnightblue" points="286.055,-25.4589 294.827,-19.5164 284.264,-18.692 286.055,-25.4589"/>
</g>
<!-- Node10&#45;&gt;Node3 -->
<g id="edge11" class="edge"><title>Node10&#45;&gt;Node3</title>
<path fill="none" stroke="midnightblue" d="M156.395,-168.083C150.745,-160.455 142.455,-149.264 135.549,-139.941"/>
<polygon fill="midnightblue" stroke="midnightblue" points="138.247,-137.703 129.482,-131.751 132.622,-141.87 138.247,-137.703"/>
</g>
</g>
</svg>
