<?xml version="1.0" encoding="UTF-8" standalone="no"?>
<!DOCTYPE svg PUBLIC "-//W3C//DTD SVG 1.1//EN"
 "http://www.w3.org/Graphics/SVG/1.1/DTD/svg11.dtd">
<!-- Generated by graphviz version 2.38.0 (20140413.2041)
 -->
<!-- Title: pid.h Pages: 1 -->
<svg width="501pt" height="308pt"
 viewBox="0.00 0.00 500.59 308.00" xmlns="http://www.w3.org/2000/svg" xmlns:xlink="http://www.w3.org/1999/xlink">
<g id="graph0" class="graph" transform="scale(1 1) rotate(0) translate(4 304)">
<title>pid.h</title>
<polygon fill="white" stroke="none" points="-4,4 -4,-304 496.594,-304 496.594,4 -4,4"/>
<!-- Node1 -->
<g id="node1" class="node"><title>Node1</title>
<polygon fill="#bfbfbf" stroke="black" points="240.594,-280.5 240.594,-299.5 278.594,-299.5 278.594,-280.5 240.594,-280.5"/>
<text text-anchor="middle" x="259.594" y="-287.5" font-family="Helvetica,sans-Serif" font-size="10.00">pid.h</text>
</g>
<!-- Node2 -->
<g id="node2" class="node"><title>Node2</title>
<g id="a_node2"><a xlink:href="a00440.html" target="_top" xlink:title="Main header definition. ">
<polygon fill="white" stroke="black" points="236.594,-224.5 236.594,-243.5 282.594,-243.5 282.594,-224.5 236.594,-224.5"/>
<text text-anchor="middle" x="259.594" y="-231.5" font-family="Helvetica,sans-Serif" font-size="10.00">main.h</text>
</a>
</g>
</g>
<!-- Node1&#45;&gt;Node2 -->
<g id="edge1" class="edge"><title>Node1&#45;&gt;Node2</title>
<path fill="none" stroke="midnightblue" d="M259.594,-269.805C259.594,-260.91 259.594,-250.78 259.594,-243.751"/>
<polygon fill="midnightblue" stroke="midnightblue" points="256.094,-270.083 259.594,-280.083 263.094,-270.083 256.094,-270.083"/>
</g>
<!-- Node3 -->
<g id="node3" class="node"><title>Node3</title>
<g id="a_node3"><a xlink:href="a00128.html" target="_top" xlink:title="Provides DMA related configuration and access functions for ADC and DAC. ">
<polygon fill="white" stroke="black" points="16.5941,-168.5 16.5941,-187.5 102.594,-187.5 102.594,-168.5 16.5941,-168.5"/>
<text text-anchor="middle" x="59.5941" y="-175.5" font-family="Helvetica,sans-Serif" font-size="10.00">adc_dac_dma.h</text>
</a>
</g>
</g>
<!-- Node1&#45;&gt;Node3 -->
<g id="edge18" class="edge"><title>Node1&#45;&gt;Node3</title>
<path fill="none" stroke="midnightblue" d="M234.951,-275.446C193.226,-252.497 109.832,-206.631 75.2149,-187.591"/>
<polygon fill="midnightblue" stroke="midnightblue" points="233.452,-278.616 243.9,-280.368 236.825,-272.482 233.452,-278.616"/>
</g>
<!-- Node4 -->
<g id="node4" class="node"><title>Node4</title>
<g id="a_node4"><a xlink:href="a00126.html" target="_top" xlink:title="Controlling beam and primary actuators. ">
<polygon fill="white" stroke="black" points="120.094,-56.5 120.094,-75.5 185.094,-75.5 185.094,-56.5 120.094,-56.5"/>
<text text-anchor="middle" x="152.594" y="-63.5" font-family="Helvetica,sans-Serif" font-size="10.00">actuators.h</text>
</a>
</g>
</g>
<!-- Node1&#45;&gt;Node4 -->
<g id="edge19" class="edge"><title>Node1&#45;&gt;Node4</title>
<path fill="none" stroke="midnightblue" d="M230.131,-287.429C175.069,-282.705 57.6163,-263.785 7.59415,-188 -27.4455,-134.914 73.8924,-92.7987 125.033,-75.5128"/>
<polygon fill="midnightblue" stroke="midnightblue" points="230.037,-290.932 240.273,-288.197 230.566,-283.952 230.037,-290.932"/>
</g>
<!-- Node6 -->
<g id="node6" class="node"><title>Node6</title>
<g id="a_node6"><a xlink:href="a00437.html" target="_top" xlink:title="Callback handler implementations. ">
<polygon fill="white" stroke="black" points="295.594,-0.5 295.594,-19.5 377.594,-19.5 377.594,-0.5 295.594,-0.5"/>
<text text-anchor="middle" x="336.594" y="-7.5" font-family="Helvetica,sans-Serif" font-size="10.00">irq_callbacks.c</text>
</a>
</g>
</g>
<!-- Node1&#45;&gt;Node6 -->
<g id="edge20" class="edge"><title>Node1&#45;&gt;Node6</title>
<path fill="none" stroke="midnightblue" d="M288.839,-283.62C336.724,-272.936 426.594,-244.198 426.594,-179 426.594,-179 426.594,-179 426.594,-121 426.594,-73.8712 376.495,-35.8352 351.054,-19.5584"/>
<polygon fill="midnightblue" stroke="midnightblue" points="287.816,-280.259 278.751,-285.743 289.258,-287.109 287.816,-280.259"/>
</g>
<!-- Node11 -->
<g id="node11" class="node"><title>Node11</title>
<g id="a_node11"><a xlink:href="a00476.html" target="_top" xlink:title="pid.c">
<polygon fill="white" stroke="black" points="454.594,-224.5 454.594,-243.5 492.594,-243.5 492.594,-224.5 454.594,-224.5"/>
<text text-anchor="middle" x="473.594" y="-231.5" font-family="Helvetica,sans-Serif" font-size="10.00">pid.c</text>
</a>
</g>
</g>
<!-- Node1&#45;&gt;Node11 -->
<g id="edge21" class="edge"><title>Node1&#45;&gt;Node11</title>
<path fill="none" stroke="midnightblue" d="M288.417,-282.047C324.174,-273.372 386.98,-257.974 440.594,-244 445.076,-242.832 449.891,-241.54 454.419,-240.308"/>
<polygon fill="midnightblue" stroke="midnightblue" points="287.548,-278.656 278.653,-284.411 289.196,-285.459 287.548,-278.656"/>
</g>
<!-- Node2&#45;&gt;Node3 -->
<g id="edge2" class="edge"><title>Node2&#45;&gt;Node3</title>
<path fill="none" stroke="midnightblue" d="M226.303,-225.33C186.851,-215.332 122.218,-197.898 86.016,-187.505"/>
<polygon fill="midnightblue" stroke="midnightblue" points="225.687,-228.784 236.239,-227.822 227.391,-221.994 225.687,-228.784"/>
</g>
<!-- Node2&#45;&gt;Node6 -->
<g id="edge15" class="edge"><title>Node2&#45;&gt;Node6</title>
<path fill="none" stroke="midnightblue" d="M288.817,-219.995C304.001,-212.238 322.141,-201.305 335.594,-188 356.297,-167.525 361.748,-160.04 369.594,-132 381.387,-89.8527 354.318,-39.2969 342.142,-19.5192"/>
<polygon fill="midnightblue" stroke="midnightblue" points="287.252,-216.864 279.813,-224.408 290.333,-223.15 287.252,-216.864"/>
</g>
<!-- Node7 -->
<g id="node7" class="node"><title>Node7</title>
<g id="a_node7"><a xlink:href="a00438.html" target="_top" xlink:title="Analog processing related callback handler definition. ">
<polygon fill="white" stroke="black" points="278.594,-112.5 278.594,-131.5 360.594,-131.5 360.594,-112.5 278.594,-112.5"/>
<text text-anchor="middle" x="319.594" y="-119.5" font-family="Helvetica,sans-Serif" font-size="10.00">irq_callbacks.h</text>
</a>
</g>
</g>
<!-- Node2&#45;&gt;Node7 -->
<g id="edge14" class="edge"><title>Node2&#45;&gt;Node7</title>
<path fill="none" stroke="midnightblue" d="M273.814,-217.743C282.685,-209.97 293.242,-199.69 299.594,-188 309.54,-169.698 310.904,-144.566 314.095,-131.566"/>
<polygon fill="midnightblue" stroke="midnightblue" points="271.356,-215.24 266.018,-224.391 275.898,-220.566 271.356,-215.24"/>
</g>
<!-- Node9 -->
<g id="node9" class="node"><title>Node9</title>
<g id="a_node9"><a xlink:href="a00439.html" target="_top" xlink:title="Main source implementation (29&#45;04&#45;2015) ">
<polygon fill="white" stroke="black" points="120.594,-168.5 120.594,-187.5 166.594,-187.5 166.594,-168.5 120.594,-168.5"/>
<text text-anchor="middle" x="143.594" y="-175.5" font-family="Helvetica,sans-Serif" font-size="10.00">main.c</text>
</a>
</g>
</g>
<!-- Node2&#45;&gt;Node9 -->
<g id="edge16" class="edge"><title>Node2&#45;&gt;Node9</title>
<path fill="none" stroke="midnightblue" d="M231.874,-220.096C210.202,-210.007 180.692,-196.27 161.889,-187.516"/>
<polygon fill="midnightblue" stroke="midnightblue" points="230.671,-223.396 241.214,-224.444 233.625,-217.05 230.671,-223.396"/>
</g>
<!-- Node10 -->
<g id="node10" class="node"><title>Node10</title>
<g id="a_node10"><a xlink:href="a00529.html" target="_top" xlink:title="stm32f4xx_it.c">
<polygon fill="white" stroke="black" points="185.094,-168.5 185.094,-187.5 266.094,-187.5 266.094,-168.5 185.094,-168.5"/>
<text text-anchor="middle" x="225.594" y="-175.5" font-family="Helvetica,sans-Serif" font-size="10.00">stm32f4xx_it.c</text>
</a>
</g>
</g>
<!-- Node2&#45;&gt;Node10 -->
<g id="edge17" class="edge"><title>Node2&#45;&gt;Node10</title>
<path fill="none" stroke="midnightblue" d="M248.617,-215.566C242.767,-206.275 235.825,-195.248 231.104,-187.751"/>
<polygon fill="midnightblue" stroke="midnightblue" points="245.69,-217.486 253.98,-224.083 251.613,-213.756 245.69,-217.486"/>
</g>
<!-- Node3&#45;&gt;Node2 -->
<g id="edge8" class="edge"><title>Node3&#45;&gt;Node2</title>
<path fill="none" stroke="midnightblue" d="M106.127,-190.06C146.913,-200.592 204.36,-216.165 236.236,-225.378"/>
<polygon fill="midnightblue" stroke="midnightblue" points="106.958,-186.66 96.4018,-187.564 105.218,-193.44 106.958,-186.66"/>
</g>
<!-- Node3&#45;&gt;Node4 -->
<g id="edge3" class="edge"><title>Node3&#45;&gt;Node4</title>
<path fill="none" stroke="midnightblue" d="M57.256,-157.897C60.1162,-144.072 67.5273,-125.519 78.5941,-112 91.6354,-96.0695 111.71,-83.358 127.909,-75.5626"/>
<polygon fill="midnightblue" stroke="midnightblue" points="53.7374,-157.821 55.9434,-168.184 60.6811,-158.707 53.7374,-157.821"/>
</g>
<!-- Node3&#45;&gt;Node7 -->
<g id="edge9" class="edge"><title>Node3&#45;&gt;Node7</title>
<path fill="none" stroke="midnightblue" d="M110.585,-166.41C159.722,-156.204 233.121,-140.96 278.589,-131.516"/>
<polygon fill="midnightblue" stroke="midnightblue" points="109.871,-162.983 100.792,-168.444 111.295,-169.837 109.871,-162.983"/>
</g>
<!-- Node8 -->
<g id="node8" class="node"><title>Node8</title>
<g id="a_node8"><a xlink:href="a00127.html" target="_top" xlink:title="adc_dac_dma.c">
<polygon fill="white" stroke="black" points="96.5941,-112.5 96.5941,-131.5 182.594,-131.5 182.594,-112.5 96.5941,-112.5"/>
<text text-anchor="middle" x="139.594" y="-119.5" font-family="Helvetica,sans-Serif" font-size="10.00">adc_dac_dma.c</text>
</a>
</g>
</g>
<!-- Node3&#45;&gt;Node8 -->
<g id="edge13" class="edge"><title>Node3&#45;&gt;Node8</title>
<path fill="none" stroke="midnightblue" d="M80.8947,-162.622C95.5092,-152.757 114.421,-139.992 126.773,-131.655"/>
<polygon fill="midnightblue" stroke="midnightblue" points="78.7779,-159.828 72.4475,-168.324 82.6942,-165.63 78.7779,-159.828"/>
</g>
<!-- Node4&#45;&gt;Node2 -->
<g id="edge4" class="edge"><title>Node4&#45;&gt;Node2</title>
<path fill="none" stroke="midnightblue" d="M180.008,-80.3481C209.62,-96.479 255.163,-126.688 274.594,-168 283.467,-186.864 272.446,-211.335 265.121,-224.203"/>
<polygon fill="midnightblue" stroke="midnightblue" points="181.486,-77.1709 171.007,-75.6093 178.225,-83.3649 181.486,-77.1709"/>
</g>
<!-- Node4&#45;&gt;Node3 -->
<g id="edge5" class="edge"><title>Node4&#45;&gt;Node3</title>
<path fill="none" stroke="midnightblue" d="M133.817,-80.9072C121.845,-88.6549 106.986,-99.3054 96.5941,-112 82.4286,-129.304 74.2526,-154.857 67.4755,-168.184"/>
<polygon fill="midnightblue" stroke="midnightblue" points="135.698,-83.8588 142.288,-75.5626 131.963,-77.9387 135.698,-83.8588"/>
</g>
<!-- Node5 -->
<g id="node5" class="node"><title>Node5</title>
<g id="a_node5"><a xlink:href="a00125.html" target="_top" xlink:title="Controlling beam and primary actuators. ">
<polygon fill="white" stroke="black" points="120.094,-0.5 120.094,-19.5 185.094,-19.5 185.094,-0.5 120.094,-0.5"/>
<text text-anchor="middle" x="152.594" y="-7.5" font-family="Helvetica,sans-Serif" font-size="10.00">actuators.c</text>
</a>
</g>
</g>
<!-- Node4&#45;&gt;Node5 -->
<g id="edge6" class="edge"><title>Node4&#45;&gt;Node5</title>
<path fill="none" stroke="midnightblue" d="M152.594,-45.8045C152.594,-36.9102 152.594,-26.7798 152.594,-19.7511"/>
<polygon fill="midnightblue" stroke="midnightblue" points="149.094,-46.083 152.594,-56.083 156.094,-46.083 149.094,-46.083"/>
</g>
<!-- Node4&#45;&gt;Node6 -->
<g id="edge7" class="edge"><title>Node4&#45;&gt;Node6</title>
<path fill="none" stroke="midnightblue" d="M191.549,-53.5677C226.259,-43.381 276.271,-28.7034 307.575,-19.5164"/>
<polygon fill="midnightblue" stroke="midnightblue" points="190.359,-50.2691 181.749,-56.4435 192.33,-56.9858 190.359,-50.2691"/>
</g>
<!-- Node7&#45;&gt;Node2 -->
<g id="edge10" class="edge"><title>Node7&#45;&gt;Node2</title>
<path fill="none" stroke="midnightblue" d="M327.07,-141.64C327.897,-155.234 325.364,-173.701 317.594,-188 309.211,-203.425 293.509,-216.397 280.25,-224.391"/>
<polygon fill="midnightblue" stroke="midnightblue" points="330.51,-140.969 325.627,-131.566 323.581,-141.961 330.51,-140.969"/>
</g>
<!-- Node7&#45;&gt;Node4 -->
<g id="edge11" class="edge"><title>Node7&#45;&gt;Node4</title>
<path fill="none" stroke="midnightblue" d="M283.424,-109.304C251.957,-99.1294 207.1,-84.6246 178.932,-75.5164"/>
<polygon fill="midnightblue" stroke="midnightblue" points="282.541,-112.697 293.132,-112.444 284.694,-106.037 282.541,-112.697"/>
</g>
<!-- Node7&#45;&gt;Node6 -->
<g id="edge12" class="edge"><title>Node7&#45;&gt;Node6</title>
<path fill="none" stroke="midnightblue" d="M322.477,-102.348C326.2,-78.2538 332.528,-37.3079 335.266,-19.5914"/>
<polygon fill="midnightblue" stroke="midnightblue" points="318.997,-101.951 320.928,-112.368 325.914,-103.02 318.997,-101.951"/>
</g>
</g>
</svg>
