<?xml version="1.0" encoding="UTF-8" standalone="no"?>
<!DOCTYPE svg PUBLIC "-//W3C//DTD SVG 1.1//EN"
 "http://www.w3.org/Graphics/SVG/1.1/DTD/svg11.dtd">
<!-- Generated by graphviz version 2.38.0 (20140413.2041)
 -->
<!-- Title: irq_callbacks.h Pages: 1 -->
<svg width="436pt" height="252pt"
 viewBox="0.00 0.00 436.02 252.00" xmlns="http://www.w3.org/2000/svg" xmlns:xlink="http://www.w3.org/1999/xlink">
<g id="graph0" class="graph" transform="scale(1 1) rotate(0) translate(4 248)">
<title>irq_callbacks.h</title>
<polygon fill="white" stroke="none" points="-4,4 -4,-248 432.021,-248 432.021,4 -4,4"/>
<!-- Node1 -->
<g id="node1" class="node"><title>Node1</title>
<polygon fill="#bfbfbf" stroke="black" points="158,-224.5 158,-243.5 240,-243.5 240,-224.5 158,-224.5"/>
<text text-anchor="middle" x="199" y="-231.5" font-family="Helvetica,sans-Serif" font-size="10.00">irq_callbacks.h</text>
</g>
<!-- Node2 -->
<g id="node2" class="node"><title>Node2</title>
<g id="a_node2"><a xlink:href="a00440.html" target="_top" xlink:title="Main header definition. ">
<polygon fill="white" stroke="black" points="176,-168.5 176,-187.5 222,-187.5 222,-168.5 176,-168.5"/>
<text text-anchor="middle" x="199" y="-175.5" font-family="Helvetica,sans-Serif" font-size="10.00">main.h</text>
</a>
</g>
</g>
<!-- Node1&#45;&gt;Node2 -->
<g id="edge1" class="edge"><title>Node1&#45;&gt;Node2</title>
<path fill="none" stroke="midnightblue" d="M192.528,-214.101C191.896,-205.136 192.343,-194.858 193.869,-187.751"/>
<polygon fill="midnightblue" stroke="midnightblue" points="189.066,-214.622 193.834,-224.083 196.007,-213.713 189.066,-214.622"/>
</g>
<!-- Node4 -->
<g id="node4" class="node"><title>Node4</title>
<g id="a_node4"><a xlink:href="a00126.html" target="_top" xlink:title="Controlling beam and primary actuators. ">
<polygon fill="white" stroke="black" points="104.5,-56.5 104.5,-75.5 169.5,-75.5 169.5,-56.5 104.5,-56.5"/>
<text text-anchor="middle" x="137" y="-63.5" font-family="Helvetica,sans-Serif" font-size="10.00">actuators.h</text>
</a>
</g>
</g>
<!-- Node1&#45;&gt;Node4 -->
<g id="edge15" class="edge"><title>Node1&#45;&gt;Node4</title>
<path fill="none" stroke="midnightblue" d="M171.368,-219.712C141.52,-203.635 95.6088,-173.474 76,-132 64.6225,-107.936 96.0699,-86.8658 117.932,-75.6295"/>
<polygon fill="midnightblue" stroke="midnightblue" points="169.955,-222.922 180.441,-224.433 173.186,-216.712 169.955,-222.922"/>
</g>
<!-- Node6 -->
<g id="node6" class="node"><title>Node6</title>
<g id="a_node6"><a xlink:href="a00437.html" target="_top" xlink:title="Callback handler implementations. ">
<polygon fill="white" stroke="black" points="196,-0.5 196,-19.5 278,-19.5 278,-0.5 196,-0.5"/>
<text text-anchor="middle" x="237" y="-7.5" font-family="Helvetica,sans-Serif" font-size="10.00">irq_callbacks.c</text>
</a>
</g>
</g>
<!-- Node1&#45;&gt;Node6 -->
<g id="edge16" class="edge"><title>Node1&#45;&gt;Node6</title>
<path fill="none" stroke="midnightblue" d="M250.141,-225.692C302.946,-215.122 382.727,-190.016 420,-132 458.55,-71.9971 342.798,-35.0354 277.847,-19.5104"/>
<polygon fill="midnightblue" stroke="midnightblue" points="249.459,-222.258 240.286,-227.559 250.763,-229.136 249.459,-222.258"/>
</g>
<!-- Node2&#45;&gt;Node1 -->
<g id="edge11" class="edge"><title>Node2&#45;&gt;Node1</title>
<path fill="none" stroke="midnightblue" d="M205.458,-197.691C206.106,-206.635 205.676,-216.927 204.166,-224.083"/>
<polygon fill="midnightblue" stroke="midnightblue" points="208.923,-197.2 204.131,-187.751 201.985,-198.126 208.923,-197.2"/>
</g>
<!-- Node3 -->
<g id="node3" class="node"><title>Node3</title>
<g id="a_node3"><a xlink:href="a00128.html" target="_top" xlink:title="Provides DMA related configuration and access functions for ADC and DAC. ">
<polygon fill="white" stroke="black" points="85,-112.5 85,-131.5 171,-131.5 171,-112.5 85,-112.5"/>
<text text-anchor="middle" x="128" y="-119.5" font-family="Helvetica,sans-Serif" font-size="10.00">adc_dac_dma.h</text>
</a>
</g>
</g>
<!-- Node2&#45;&gt;Node3 -->
<g id="edge2" class="edge"><title>Node2&#45;&gt;Node3</title>
<path fill="none" stroke="midnightblue" d="M174.102,-162.658C160.035,-152.859 143.668,-140.184 134.466,-131.834"/>
<polygon fill="midnightblue" stroke="midnightblue" points="172.234,-165.62 182.478,-168.324 176.156,-159.822 172.234,-165.62"/>
</g>
<!-- Node2&#45;&gt;Node6 -->
<g id="edge12" class="edge"><title>Node2&#45;&gt;Node6</title>
<path fill="none" stroke="midnightblue" d="M203.366,-157.93C211.609,-121.92 229.164,-45.2312 235.039,-19.5681"/>
<polygon fill="midnightblue" stroke="midnightblue" points="199.863,-157.546 201.043,-168.075 206.686,-159.108 199.863,-157.546"/>
</g>
<!-- Node8 -->
<g id="node8" class="node"><title>Node8</title>
<g id="a_node8"><a xlink:href="a00439.html" target="_top" xlink:title="Main source implementation (29&#45;04&#45;2015) ">
<polygon fill="white" stroke="black" points="265,-112.5 265,-131.5 311,-131.5 311,-112.5 265,-112.5"/>
<text text-anchor="middle" x="288" y="-119.5" font-family="Helvetica,sans-Serif" font-size="10.00">main.c</text>
</a>
</g>
</g>
<!-- Node2&#45;&gt;Node8 -->
<g id="edge13" class="edge"><title>Node2&#45;&gt;Node8</title>
<path fill="none" stroke="midnightblue" d="M222.238,-162.901C238.558,-152.999 259.865,-140.071 273.736,-131.655"/>
<polygon fill="midnightblue" stroke="midnightblue" points="220.033,-160.144 213.299,-168.324 223.664,-166.129 220.033,-160.144"/>
</g>
<!-- Node9 -->
<g id="node9" class="node"><title>Node9</title>
<g id="a_node9"><a xlink:href="a00531.html" target="_top" xlink:title="stm32f4xx_it.c">
<polygon fill="white" stroke="black" points="329.5,-112.5 329.5,-131.5 410.5,-131.5 410.5,-112.5 329.5,-112.5"/>
<text text-anchor="middle" x="370" y="-119.5" font-family="Helvetica,sans-Serif" font-size="10.00">stm32f4xx_it.c</text>
</a>
</g>
</g>
<!-- Node2&#45;&gt;Node9 -->
<g id="edge14" class="edge"><title>Node2&#45;&gt;Node9</title>
<path fill="none" stroke="midnightblue" d="M231.91,-166.607C264.144,-156.428 312.683,-141.1 342.798,-131.59"/>
<polygon fill="midnightblue" stroke="midnightblue" points="230.544,-163.368 222.062,-169.717 232.652,-170.043 230.544,-163.368"/>
</g>
<!-- Node3&#45;&gt;Node1 -->
<g id="edge9" class="edge"><title>Node3&#45;&gt;Node1</title>
<path fill="none" stroke="midnightblue" d="M137.996,-140.487C145.669,-153.702 156.667,-172.203 167,-188 175.397,-200.836 185.797,-215.205 192.417,-224.177"/>
<polygon fill="midnightblue" stroke="midnightblue" points="140.868,-138.46 132.842,-131.543 134.803,-141.955 140.868,-138.46"/>
</g>
<!-- Node3&#45;&gt;Node2 -->
<g id="edge8" class="edge"><title>Node3&#45;&gt;Node2</title>
<path fill="none" stroke="midnightblue" d="M152.914,-137.352C167.066,-147.212 183.542,-159.979 192.707,-168.324"/>
<polygon fill="midnightblue" stroke="midnightblue" points="154.733,-134.358 144.489,-131.655 150.812,-140.156 154.733,-134.358"/>
</g>
<!-- Node3&#45;&gt;Node4 -->
<g id="edge3" class="edge"><title>Node3&#45;&gt;Node4</title>
<path fill="none" stroke="midnightblue" d="M124.706,-101.805C125.587,-92.9102 127.73,-82.7798 130.41,-75.7511"/>
<polygon fill="midnightblue" stroke="midnightblue" points="121.198,-101.958 124.32,-112.083 128.193,-102.222 121.198,-101.958"/>
</g>
<!-- Node7 -->
<g id="node7" class="node"><title>Node7</title>
<g id="a_node7"><a xlink:href="a00127.html" target="_top" xlink:title="adc_dac_dma.c">
<polygon fill="white" stroke="black" points="0,-56.5 0,-75.5 86,-75.5 86,-56.5 0,-56.5"/>
<text text-anchor="middle" x="43" y="-63.5" font-family="Helvetica,sans-Serif" font-size="10.00">adc_dac_dma.c</text>
</a>
</g>
</g>
<!-- Node3&#45;&gt;Node7 -->
<g id="edge10" class="edge"><title>Node3&#45;&gt;Node7</title>
<path fill="none" stroke="midnightblue" d="M105.806,-106.901C90.22,-96.9986 69.8703,-84.0705 56.6228,-75.6545"/>
<polygon fill="midnightblue" stroke="midnightblue" points="104.026,-109.916 114.343,-112.324 107.779,-104.007 104.026,-109.916"/>
</g>
<!-- Node4&#45;&gt;Node2 -->
<g id="edge4" class="edge"><title>Node4&#45;&gt;Node2</title>
<path fill="none" stroke="midnightblue" d="M155.41,-82.4598C163.956,-90.4948 173.614,-100.937 180,-112 190.698,-130.532 195.788,-155.567 197.837,-168.492"/>
<polygon fill="midnightblue" stroke="midnightblue" points="157.483,-79.6184 147.7,-75.552 152.812,-84.8319 157.483,-79.6184"/>
</g>
<!-- Node4&#45;&gt;Node3 -->
<g id="edge5" class="edge"><title>Node4&#45;&gt;Node3</title>
<path fill="none" stroke="midnightblue" d="M140.314,-85.9865C139.453,-94.8611 137.325,-105.006 134.652,-112.083"/>
<polygon fill="midnightblue" stroke="midnightblue" points="143.82,-85.8675 140.672,-75.7511 136.825,-85.6224 143.82,-85.8675"/>
</g>
<!-- Node5 -->
<g id="node5" class="node"><title>Node5</title>
<g id="a_node5"><a xlink:href="a00125.html" target="_top" xlink:title="Controlling beam and primary actuators. ">
<polygon fill="white" stroke="black" points="104.5,-0.5 104.5,-19.5 169.5,-19.5 169.5,-0.5 104.5,-0.5"/>
<text text-anchor="middle" x="137" y="-7.5" font-family="Helvetica,sans-Serif" font-size="10.00">actuators.c</text>
</a>
</g>
</g>
<!-- Node4&#45;&gt;Node5 -->
<g id="edge6" class="edge"><title>Node4&#45;&gt;Node5</title>
<path fill="none" stroke="midnightblue" d="M137,-45.8045C137,-36.9102 137,-26.7798 137,-19.7511"/>
<polygon fill="midnightblue" stroke="midnightblue" points="133.5,-46.083 137,-56.083 140.5,-46.083 133.5,-46.083"/>
</g>
<!-- Node4&#45;&gt;Node6 -->
<g id="edge7" class="edge"><title>Node4&#45;&gt;Node6</title>
<path fill="none" stroke="midnightblue" d="M162.088,-51.4526C180.549,-41.4835 205.097,-28.2279 220.973,-19.6545"/>
<polygon fill="midnightblue" stroke="midnightblue" points="160.203,-48.4928 153.067,-56.324 163.529,-54.6521 160.203,-48.4928"/>
</g>
</g>
</svg>
