<?xml version="1.0" encoding="UTF-8" standalone="no"?>
<!DOCTYPE svg PUBLIC "-//W3C//DTD SVG 1.1//EN"
 "http://www.w3.org/Graphics/SVG/1.1/DTD/svg11.dtd">
<!-- Generated by graphviz version 2.38.0 (20140413.2041)
 -->
<!-- Title: helper.h Pages: 1 -->
<svg width="456pt" height="308pt"
 viewBox="0.00 0.00 456.44 308.00" xmlns="http://www.w3.org/2000/svg" xmlns:xlink="http://www.w3.org/1999/xlink">
<g id="graph0" class="graph" transform="scale(1 1) rotate(0) translate(4 304)">
<title>helper.h</title>
<polygon fill="white" stroke="none" points="-4,4 -4,-304 452.435,-304 452.435,4 -4,4"/>
<!-- Node1 -->
<g id="node1" class="node"><title>Node1</title>
<polygon fill="#bfbfbf" stroke="black" points="97.435,-280.5 97.435,-299.5 148.435,-299.5 148.435,-280.5 97.435,-280.5"/>
<text text-anchor="middle" x="122.935" y="-287.5" font-family="Helvetica,sans-Serif" font-size="10.00">helper.h</text>
</g>
<!-- Node2 -->
<g id="node2" class="node"><title>Node2</title>
<g id="a_node2"><a xlink:href="a00440.html" target="_top" xlink:title="Main header definition. ">
<polygon fill="white" stroke="black" points="147.935,-224.5 147.935,-243.5 193.935,-243.5 193.935,-224.5 147.935,-224.5"/>
<text text-anchor="middle" x="170.935" y="-231.5" font-family="Helvetica,sans-Serif" font-size="10.00">main.h</text>
</a>
</g>
</g>
<!-- Node1&#45;&gt;Node2 -->
<g id="edge1" class="edge"><title>Node1&#45;&gt;Node2</title>
<path fill="none" stroke="midnightblue" d="M137.663,-272.431C146.075,-262.967 156.284,-251.483 163.156,-243.751"/>
<polygon fill="midnightblue" stroke="midnightblue" points="134.889,-270.284 130.861,-280.083 140.121,-274.934 134.889,-270.284"/>
</g>
<!-- Node3 -->
<g id="node3" class="node"><title>Node3</title>
<g id="a_node3"><a xlink:href="a00128.html" target="_top" xlink:title="Provides DMA related configuration and access functions for ADC and DAC. ">
<polygon fill="white" stroke="black" points="22.935,-168.5 22.935,-187.5 108.935,-187.5 108.935,-168.5 22.935,-168.5"/>
<text text-anchor="middle" x="65.935" y="-175.5" font-family="Helvetica,sans-Serif" font-size="10.00">adc_dac_dma.h</text>
</a>
</g>
</g>
<!-- Node1&#45;&gt;Node3 -->
<g id="edge18" class="edge"><title>Node1&#45;&gt;Node3</title>
<path fill="none" stroke="midnightblue" d="M113.774,-271.32C101.363,-247.37 79.6919,-205.548 70.3869,-187.591"/>
<polygon fill="midnightblue" stroke="midnightblue" points="110.754,-273.1 118.462,-280.368 116.969,-269.879 110.754,-273.1"/>
</g>
<!-- Node4 -->
<g id="node4" class="node"><title>Node4</title>
<g id="a_node4"><a xlink:href="a00126.html" target="_top" xlink:title="Controlling beam and primary actuators. ">
<polygon fill="white" stroke="black" points="17.435,-56.5 17.435,-75.5 82.435,-75.5 82.435,-56.5 17.435,-56.5"/>
<text text-anchor="middle" x="49.935" y="-63.5" font-family="Helvetica,sans-Serif" font-size="10.00">actuators.h</text>
</a>
</g>
</g>
<!-- Node1&#45;&gt;Node4 -->
<g id="edge19" class="edge"><title>Node1&#45;&gt;Node4</title>
<path fill="none" stroke="midnightblue" d="M99.7077,-274.913C73.8909,-257.859 33.2909,-226.571 13.935,-188 -1.26203,-157.716 -4.48999,-143.523 7.93502,-112 13.8916,-96.8879 27.5814,-83.8572 37.7213,-75.7638"/>
<polygon fill="midnightblue" stroke="midnightblue" points="97.8575,-277.885 108.164,-280.341 101.639,-271.994 97.8575,-277.885"/>
</g>
<!-- Node11 -->
<g id="node11" class="node"><title>Node11</title>
<g id="a_node11"><a xlink:href="a00435.html" target="_top" xlink:title="helper.c">
<polygon fill="white" stroke="black" points="212.435,-224.5 212.435,-243.5 263.435,-243.5 263.435,-224.5 212.435,-224.5"/>
<text text-anchor="middle" x="237.935" y="-231.5" font-family="Helvetica,sans-Serif" font-size="10.00">helper.c</text>
</a>
</g>
</g>
<!-- Node1&#45;&gt;Node11 -->
<g id="edge20" class="edge"><title>Node1&#45;&gt;Node11</title>
<path fill="none" stroke="midnightblue" d="M150.416,-276.096C171.901,-266.007 201.157,-252.27 219.798,-243.516"/>
<polygon fill="midnightblue" stroke="midnightblue" points="148.721,-273.025 141.157,-280.444 151.697,-279.361 148.721,-273.025"/>
</g>
<!-- Node2&#45;&gt;Node3 -->
<g id="edge2" class="edge"><title>Node2&#45;&gt;Node3</title>
<path fill="none" stroke="midnightblue" d="M139.989,-220.096C118.96,-210.007 92.5066,-196.27 77.4148,-187.516"/>
<polygon fill="midnightblue" stroke="midnightblue" points="138.671,-223.344 149.209,-224.444 141.657,-217.013 138.671,-223.344"/>
</g>
<!-- Node6 -->
<g id="node6" class="node"><title>Node6</title>
<g id="a_node6"><a xlink:href="a00437.html" target="_top" xlink:title="Callback handler implementations. ">
<polygon fill="white" stroke="black" points="164.935,-0.5 164.935,-19.5 246.935,-19.5 246.935,-0.5 164.935,-0.5"/>
<text text-anchor="middle" x="205.935" y="-7.5" font-family="Helvetica,sans-Serif" font-size="10.00">irq_callbacks.c</text>
</a>
</g>
</g>
<!-- Node2&#45;&gt;Node6 -->
<g id="edge15" class="edge"><title>Node2&#45;&gt;Node6</title>
<path fill="none" stroke="midnightblue" d="M190.411,-217.696C211.408,-199.791 243.491,-167.979 255.935,-132 270.794,-89.0375 231.918,-39.3513 214.199,-19.6695"/>
<polygon fill="midnightblue" stroke="midnightblue" points="187.924,-215.211 182.445,-224.279 192.383,-220.607 187.924,-215.211"/>
</g>
<!-- Node7 -->
<g id="node7" class="node"><title>Node7</title>
<g id="a_node7"><a xlink:href="a00438.html" target="_top" xlink:title="Analog processing related callback handler definition. ">
<polygon fill="white" stroke="black" points="164.935,-112.5 164.935,-131.5 246.935,-131.5 246.935,-112.5 164.935,-112.5"/>
<text text-anchor="middle" x="205.935" y="-119.5" font-family="Helvetica,sans-Serif" font-size="10.00">irq_callbacks.h</text>
</a>
</g>
</g>
<!-- Node2&#45;&gt;Node7 -->
<g id="edge14" class="edge"><title>Node2&#45;&gt;Node7</title>
<path fill="none" stroke="midnightblue" d="M171.654,-214.348C176.888,-190.254 190.376,-149.308 199.366,-131.591"/>
<polygon fill="midnightblue" stroke="midnightblue" points="168.177,-213.905 169.838,-224.368 175.065,-215.153 168.177,-213.905"/>
</g>
<!-- Node9 -->
<g id="node9" class="node"><title>Node9</title>
<g id="a_node9"><a xlink:href="a00439.html" target="_top" xlink:title="Main source implementation (29&#45;04&#45;2015) ">
<polygon fill="white" stroke="black" points="302.935,-168.5 302.935,-187.5 348.935,-187.5 348.935,-168.5 302.935,-168.5"/>
<text text-anchor="middle" x="325.935" y="-175.5" font-family="Helvetica,sans-Serif" font-size="10.00">main.c</text>
</a>
</g>
</g>
<!-- Node2&#45;&gt;Node9 -->
<g id="edge16" class="edge"><title>Node2&#45;&gt;Node9</title>
<path fill="none" stroke="midnightblue" d="M203.669,-221.596C233.411,-211.234 276.536,-196.21 302.825,-187.051"/>
<polygon fill="midnightblue" stroke="midnightblue" points="202.432,-218.32 194.14,-224.916 204.735,-224.931 202.432,-218.32"/>
</g>
<!-- Node10 -->
<g id="node10" class="node"><title>Node10</title>
<g id="a_node10"><a xlink:href="a00531.html" target="_top" xlink:title="stm32f4xx_it.c">
<polygon fill="white" stroke="black" points="367.435,-168.5 367.435,-187.5 448.435,-187.5 448.435,-168.5 367.435,-168.5"/>
<text text-anchor="middle" x="407.935" y="-175.5" font-family="Helvetica,sans-Serif" font-size="10.00">stm32f4xx_it.c</text>
</a>
</g>
</g>
<!-- Node2&#45;&gt;Node10 -->
<g id="edge17" class="edge"><title>Node2&#45;&gt;Node10</title>
<path fill="none" stroke="midnightblue" d="M203.974,-223.85C266.326,-208.391 327.95,-195.29 367.32,-187.19"/>
<polygon fill="midnightblue" stroke="midnightblue" points="202.818,-220.531 193.964,-226.351 204.515,-227.322 202.818,-220.531"/>
</g>
<!-- Node3&#45;&gt;Node2 -->
<g id="edge8" class="edge"><title>Node3&#45;&gt;Node2</title>
<path fill="none" stroke="midnightblue" d="M97.0339,-191.977C117.91,-201.998 144.08,-215.585 159.18,-224.324"/>
<polygon fill="midnightblue" stroke="midnightblue" points="98.4107,-188.757 87.8734,-187.655 95.4233,-195.087 98.4107,-188.757"/>
</g>
<!-- Node3&#45;&gt;Node4 -->
<g id="edge3" class="edge"><title>Node3&#45;&gt;Node4</title>
<path fill="none" stroke="midnightblue" d="M34.0974,-163.181C22.4405,-155.506 10.8279,-144.893 4.93502,-132 -4.61035,-111.116 16.5228,-87.8491 33.3124,-75.6094"/>
<polygon fill="midnightblue" stroke="midnightblue" points="32.5484,-166.333 42.9262,-168.467 36.144,-160.327 32.5484,-166.333"/>
</g>
<!-- Node3&#45;&gt;Node7 -->
<g id="edge9" class="edge"><title>Node3&#45;&gt;Node7</title>
<path fill="none" stroke="midnightblue" d="M97.6372,-164.772C123.935,-154.629 160.651,-140.467 183.855,-131.516"/>
<polygon fill="midnightblue" stroke="midnightblue" points="96.1889,-161.579 88.1184,-168.444 98.708,-168.11 96.1889,-161.579"/>
</g>
<!-- Node8 -->
<g id="node8" class="node"><title>Node8</title>
<g id="a_node8"><a xlink:href="a00127.html" target="_top" xlink:title="adc_dac_dma.c">
<polygon fill="white" stroke="black" points="22.935,-112.5 22.935,-131.5 108.935,-131.5 108.935,-112.5 22.935,-112.5"/>
<text text-anchor="middle" x="65.935" y="-119.5" font-family="Helvetica,sans-Serif" font-size="10.00">adc_dac_dma.c</text>
</a>
</g>
</g>
<!-- Node3&#45;&gt;Node8 -->
<g id="edge13" class="edge"><title>Node3&#45;&gt;Node8</title>
<path fill="none" stroke="midnightblue" d="M65.935,-157.805C65.935,-148.91 65.935,-138.78 65.935,-131.751"/>
<polygon fill="midnightblue" stroke="midnightblue" points="62.4351,-158.083 65.935,-168.083 69.4351,-158.083 62.4351,-158.083"/>
</g>
<!-- Node4&#45;&gt;Node2 -->
<g id="edge4" class="edge"><title>Node4&#45;&gt;Node2</title>
<path fill="none" stroke="midnightblue" d="M77.4992,-80.3974C91.0954,-88.1124 106.901,-98.8867 117.935,-112 148.057,-147.798 163.828,-203.379 168.992,-224.482"/>
<polygon fill="midnightblue" stroke="midnightblue" points="78.9877,-77.2236 68.5253,-75.554 75.663,-83.3837 78.9877,-77.2236"/>
</g>
<!-- Node4&#45;&gt;Node3 -->
<g id="edge5" class="edge"><title>Node4&#45;&gt;Node3</title>
<path fill="none" stroke="midnightblue" d="M38.7042,-83.1977C27.9186,-96.1338 15.1048,-114.869 22.935,-132 30.2803,-148.07 46.5125,-160.6 57.1621,-168.311"/>
<polygon fill="midnightblue" stroke="midnightblue" points="41.3714,-85.4642 45.2616,-75.6094 36.075,-80.8873 41.3714,-85.4642"/>
</g>
<!-- Node5 -->
<g id="node5" class="node"><title>Node5</title>
<g id="a_node5"><a xlink:href="a00125.html" target="_top" xlink:title="Controlling beam and primary actuators. ">
<polygon fill="white" stroke="black" points="17.435,-0.5 17.435,-19.5 82.435,-19.5 82.435,-0.5 17.435,-0.5"/>
<text text-anchor="middle" x="49.935" y="-7.5" font-family="Helvetica,sans-Serif" font-size="10.00">actuators.c</text>
</a>
</g>
</g>
<!-- Node4&#45;&gt;Node5 -->
<g id="edge6" class="edge"><title>Node4&#45;&gt;Node5</title>
<path fill="none" stroke="midnightblue" d="M49.935,-45.8045C49.935,-36.9102 49.935,-26.7798 49.935,-19.7511"/>
<polygon fill="midnightblue" stroke="midnightblue" points="46.4351,-46.083 49.935,-56.083 53.4351,-46.083 46.4351,-46.083"/>
</g>
<!-- Node4&#45;&gt;Node6 -->
<g id="edge7" class="edge"><title>Node4&#45;&gt;Node6</title>
<path fill="none" stroke="midnightblue" d="M84.1047,-53.172C113.479,-43.0039 155.133,-28.5852 181.332,-19.5164"/>
<polygon fill="midnightblue" stroke="midnightblue" points="82.9586,-49.8649 74.6537,-56.4435 85.2485,-56.4798 82.9586,-49.8649"/>
</g>
<!-- Node7&#45;&gt;Node2 -->
<g id="edge10" class="edge"><title>Node7&#45;&gt;Node2</title>
<path fill="none" stroke="midnightblue" d="M205.228,-141.597C200.006,-165.666 186.521,-206.617 177.524,-224.368"/>
<polygon fill="midnightblue" stroke="midnightblue" points="208.702,-142.055 207.037,-131.591 201.814,-140.809 208.702,-142.055"/>
</g>
<!-- Node7&#45;&gt;Node4 -->
<g id="edge11" class="edge"><title>Node7&#45;&gt;Node4</title>
<path fill="none" stroke="midnightblue" d="M171.765,-109.172C142.391,-99.0039 100.737,-84.5852 74.538,-75.5164"/>
<polygon fill="midnightblue" stroke="midnightblue" points="170.622,-112.48 181.216,-112.444 172.911,-105.865 170.622,-112.48"/>
</g>
<!-- Node7&#45;&gt;Node6 -->
<g id="edge12" class="edge"><title>Node7&#45;&gt;Node6</title>
<path fill="none" stroke="midnightblue" d="M205.935,-102.348C205.935,-78.2538 205.935,-37.3079 205.935,-19.5914"/>
<polygon fill="midnightblue" stroke="midnightblue" points="202.435,-102.368 205.935,-112.368 209.435,-102.369 202.435,-102.368"/>
</g>
</g>
</svg>
