<?xml version="1.0" encoding="UTF-8" standalone="no"?>
<!DOCTYPE svg PUBLIC "-//W3C//DTD SVG 1.1//EN"
 "http://www.w3.org/Graphics/SVG/1.1/DTD/svg11.dtd">
<!-- Generated by graphviz version 2.38.0 (20140413.2041)
 -->
<!-- Title: signalGen.c Pages: 1 -->
<svg width="154pt" height="140pt"
 viewBox="0.00 0.00 153.50 140.00" xmlns="http://www.w3.org/2000/svg" xmlns:xlink="http://www.w3.org/1999/xlink">
<g id="graph0" class="graph" transform="scale(1 1) rotate(0) translate(4 136)">
<title>signalGen.c</title>
<polygon fill="white" stroke="none" points="-4,4 -4,-136 149.5,-136 149.5,4 -4,4"/>
<!-- Node1 -->
<g id="node1" class="node"><title>Node1</title>
<polygon fill="#bfbfbf" stroke="black" points="36.5,-112.5 36.5,-131.5 104.5,-131.5 104.5,-112.5 36.5,-112.5"/>
<text text-anchor="middle" x="70.5" y="-119.5" font-family="Helvetica,sans-Serif" font-size="10.00">signalGen.c</text>
</g>
<!-- Node2 -->
<g id="node2" class="node"><title>Node2</title>
<polygon fill="white" stroke="#bfbfbf" points="0,-56.5 0,-75.5 59,-75.5 59,-56.5 0,-56.5"/>
<text text-anchor="middle" x="29.5" y="-63.5" font-family="Helvetica,sans-Serif" font-size="10.00">inttypes.h</text>
</g>
<!-- Node1&#45;&gt;Node2 -->
<g id="edge1" class="edge"><title>Node1&#45;&gt;Node2</title>
<path fill="none" stroke="midnightblue" d="M63.7297,-112.083C57.9384,-104.455 49.4415,-93.2645 42.3625,-83.9408"/>
<polygon fill="midnightblue" stroke="midnightblue" points="44.979,-81.5991 36.1443,-75.7511 39.4039,-85.8321 44.979,-81.5991"/>
</g>
<!-- Node3 -->
<g id="node3" class="node"><title>Node3</title>
<g id="a_node3"><a xlink:href="a00482.html" target="_top" xlink:title="Provides DAC driven signal generator functions. ">
<polygon fill="white" stroke="black" points="77.5,-56.5 77.5,-75.5 145.5,-75.5 145.5,-56.5 77.5,-56.5"/>
<text text-anchor="middle" x="111.5" y="-63.5" font-family="Helvetica,sans-Serif" font-size="10.00">signalGen.h</text>
</a>
</g>
</g>
<!-- Node1&#45;&gt;Node3 -->
<g id="edge2" class="edge"><title>Node1&#45;&gt;Node3</title>
<path fill="none" stroke="midnightblue" d="M77.2703,-112.083C83.0616,-104.455 91.5585,-93.2645 98.6375,-83.9408"/>
<polygon fill="midnightblue" stroke="midnightblue" points="101.596,-85.8321 104.856,-75.7511 96.021,-81.5991 101.596,-85.8321"/>
</g>
<!-- Node4 -->
<g id="node4" class="node"><title>Node4</title>
<polygon fill="white" stroke="#bfbfbf" points="88.5,-0.5 88.5,-19.5 134.5,-19.5 134.5,-0.5 88.5,-0.5"/>
<text text-anchor="middle" x="111.5" y="-7.5" font-family="Helvetica,sans-Serif" font-size="10.00">stdio.h</text>
</g>
<!-- Node3&#45;&gt;Node4 -->
<g id="edge3" class="edge"><title>Node3&#45;&gt;Node4</title>
<path fill="none" stroke="midnightblue" d="M111.5,-56.083C111.5,-49.0059 111.5,-38.8611 111.5,-29.9865"/>
<polygon fill="midnightblue" stroke="midnightblue" points="115,-29.751 111.5,-19.7511 108,-29.7511 115,-29.751"/>
</g>
</g>
</svg>
