<?xml version="1.0" encoding="UTF-8" standalone="no"?>
<!DOCTYPE svg PUBLIC "-//W3C//DTD SVG 1.1//EN"
 "http://www.w3.org/Graphics/SVG/1.1/DTD/svg11.dtd">
<!-- Generated by graphviz version 2.38.0 (20140413.2041)
 -->
<!-- Title: main.h Pages: 1 -->
<svg width="490pt" height="252pt"
 viewBox="0.00 0.00 489.50 252.00" xmlns="http://www.w3.org/2000/svg" xmlns:xlink="http://www.w3.org/1999/xlink">
<g id="graph0" class="graph" transform="scale(1 1) rotate(0) translate(4 248)">
<title>main.h</title>
<polygon fill="white" stroke="none" points="-4,4 -4,-248 485.5,-248 485.5,4 -4,4"/>
<!-- Node1 -->
<g id="node1" class="node"><title>Node1</title>
<polygon fill="#bfbfbf" stroke="black" points="216,-224.5 216,-243.5 262,-243.5 262,-224.5 216,-224.5"/>
<text text-anchor="middle" x="239" y="-231.5" font-family="Helvetica,sans-Serif" font-size="10.00">main.h</text>
</g>
<!-- Node2 -->
<g id="node2" class="node"><title>Node2</title>
<g id="a_node2"><a xlink:href="a00128.html" target="_top" xlink:title="Provides DMA related configuration and access functions for ADC and DAC. ">
<polygon fill="white" stroke="black" points="78,-168.5 78,-187.5 164,-187.5 164,-168.5 78,-168.5"/>
<text text-anchor="middle" x="121" y="-175.5" font-family="Helvetica,sans-Serif" font-size="10.00">adc_dac_dma.h</text>
</a>
</g>
</g>
<!-- Node1&#45;&gt;Node2 -->
<g id="edge1" class="edge"><title>Node1&#45;&gt;Node2</title>
<path fill="none" stroke="midnightblue" d="M206.476,-220.752C182.867,-210.64 152.288,-196.545 134.688,-187.597"/>
<polygon fill="midnightblue" stroke="midnightblue" points="205.211,-224.017 215.785,-224.681 207.933,-217.568 205.211,-224.017"/>
</g>
<!-- Node5 -->
<g id="node5" class="node"><title>Node5</title>
<g id="a_node5"><a xlink:href="a00437.html" target="_top" xlink:title="Callback handler implementations. ">
<polygon fill="white" stroke="black" points="207,-0.5 207,-19.5 289,-19.5 289,-0.5 207,-0.5"/>
<text text-anchor="middle" x="248" y="-7.5" font-family="Helvetica,sans-Serif" font-size="10.00">irq_callbacks.c</text>
</a>
</g>
</g>
<!-- Node1&#45;&gt;Node5 -->
<g id="edge14" class="edge"><title>Node1&#45;&gt;Node5</title>
<path fill="none" stroke="midnightblue" d="M250.712,-215.754C263.093,-196.374 281.804,-163.493 289,-132 298.881,-88.7542 268.299,-39.2274 254.446,-19.6288"/>
<polygon fill="midnightblue" stroke="midnightblue" points="247.632,-214.069 245.066,-224.349 253.482,-217.913 247.632,-214.069"/>
</g>
<!-- Node6 -->
<g id="node6" class="node"><title>Node6</title>
<g id="a_node6"><a xlink:href="a00438.html" target="_top" xlink:title="Analog processing related callback handler definition. ">
<polygon fill="white" stroke="black" points="198,-112.5 198,-131.5 280,-131.5 280,-112.5 198,-112.5"/>
<text text-anchor="middle" x="239" y="-119.5" font-family="Helvetica,sans-Serif" font-size="10.00">irq_callbacks.h</text>
</a>
</g>
</g>
<!-- Node1&#45;&gt;Node6 -->
<g id="edge13" class="edge"><title>Node1&#45;&gt;Node6</title>
<path fill="none" stroke="midnightblue" d="M233.784,-214.348C231.352,-190.254 231.812,-149.308 235.165,-131.591"/>
<polygon fill="midnightblue" stroke="midnightblue" points="230.332,-214.936 235.157,-224.368 237.267,-213.986 230.332,-214.936"/>
</g>
<!-- Node8 -->
<g id="node8" class="node"><title>Node8</title>
<g id="a_node8"><a xlink:href="a00439.html" target="_top" xlink:title="Main source implementation (29&#45;04&#45;2015) ">
<polygon fill="white" stroke="black" points="336,-168.5 336,-187.5 382,-187.5 382,-168.5 336,-168.5"/>
<text text-anchor="middle" x="359" y="-175.5" font-family="Helvetica,sans-Serif" font-size="10.00">main.c</text>
</a>
</g>
</g>
<!-- Node1&#45;&gt;Node8 -->
<g id="edge15" class="edge"><title>Node1&#45;&gt;Node8</title>
<path fill="none" stroke="midnightblue" d="M267.373,-220.232C289.82,-210.131 320.535,-196.309 340.075,-187.516"/>
<polygon fill="midnightblue" stroke="midnightblue" points="265.697,-217.148 258.014,-224.444 268.57,-223.532 265.697,-217.148"/>
</g>
<!-- Node9 -->
<g id="node9" class="node"><title>Node9</title>
<g id="a_node9"><a xlink:href="a00531.html" target="_top" xlink:title="stm32f4xx_it.c">
<polygon fill="white" stroke="black" points="400.5,-168.5 400.5,-187.5 481.5,-187.5 481.5,-168.5 400.5,-168.5"/>
<text text-anchor="middle" x="441" y="-175.5" font-family="Helvetica,sans-Serif" font-size="10.00">stm32f4xx_it.c</text>
</a>
</g>
</g>
<!-- Node1&#45;&gt;Node9 -->
<g id="edge16" class="edge"><title>Node1&#45;&gt;Node9</title>
<path fill="none" stroke="midnightblue" d="M272.205,-224.123C310.147,-213.98 371.802,-197.498 409.163,-187.511"/>
<polygon fill="midnightblue" stroke="midnightblue" points="270.929,-220.842 262.172,-226.806 272.737,-227.604 270.929,-220.842"/>
</g>
<!-- Node2&#45;&gt;Node1 -->
<g id="edge7" class="edge"><title>Node2&#45;&gt;Node1</title>
<path fill="none" stroke="midnightblue" d="M154.282,-191.573C177.714,-201.63 207.72,-215.467 225.156,-224.324"/>
<polygon fill="midnightblue" stroke="midnightblue" points="155.595,-188.328 145.022,-187.655 152.867,-194.775 155.595,-188.328"/>
</g>
<!-- Node3 -->
<g id="node3" class="node"><title>Node3</title>
<g id="a_node3"><a xlink:href="a00126.html" target="_top" xlink:title="Controlling beam and primary actuators. ">
<polygon fill="white" stroke="black" points="126.5,-56.5 126.5,-75.5 191.5,-75.5 191.5,-56.5 126.5,-56.5"/>
<text text-anchor="middle" x="159" y="-63.5" font-family="Helvetica,sans-Serif" font-size="10.00">actuators.h</text>
</a>
</g>
</g>
<!-- Node2&#45;&gt;Node3 -->
<g id="edge2" class="edge"><title>Node2&#45;&gt;Node3</title>
<path fill="none" stroke="midnightblue" d="M122.227,-158.348C128.119,-134.254 142.724,-93.3079 152.197,-75.5914"/>
<polygon fill="midnightblue" stroke="midnightblue" points="118.753,-157.865 120.139,-168.368 125.606,-159.293 118.753,-157.865"/>
</g>
<!-- Node2&#45;&gt;Node6 -->
<g id="edge8" class="edge"><title>Node2&#45;&gt;Node6</title>
<path fill="none" stroke="midnightblue" d="M148.9,-164.232C170.973,-154.131 201.176,-140.309 220.39,-131.516"/>
<polygon fill="midnightblue" stroke="midnightblue" points="147.334,-161.1 139.697,-168.444 150.247,-167.465 147.334,-161.1"/>
</g>
<!-- Node7 -->
<g id="node7" class="node"><title>Node7</title>
<g id="a_node7"><a xlink:href="a00127.html" target="_top" xlink:title="adc_dac_dma.c">
<polygon fill="white" stroke="black" points="0,-112.5 0,-131.5 86,-131.5 86,-112.5 0,-112.5"/>
<text text-anchor="middle" x="43" y="-119.5" font-family="Helvetica,sans-Serif" font-size="10.00">adc_dac_dma.c</text>
</a>
</g>
</g>
<!-- Node2&#45;&gt;Node7 -->
<g id="edge12" class="edge"><title>Node2&#45;&gt;Node7</title>
<path fill="none" stroke="midnightblue" d="M100.232,-162.622C85.9829,-152.757 67.5438,-139.992 55.5009,-131.655"/>
<polygon fill="midnightblue" stroke="midnightblue" points="98.2538,-165.51 108.468,-168.324 102.238,-159.754 98.2538,-165.51"/>
</g>
<!-- Node3&#45;&gt;Node1 -->
<g id="edge3" class="edge"><title>Node3&#45;&gt;Node1</title>
<path fill="none" stroke="midnightblue" d="M167.215,-85.1471C173.172,-98.2179 181.469,-116.251 189,-132 205.459,-166.42 225.855,-207.005 234.64,-224.392"/>
<polygon fill="midnightblue" stroke="midnightblue" points="170.322,-83.5243 163,-75.8671 163.949,-86.4193 170.322,-83.5243"/>
</g>
<!-- Node3&#45;&gt;Node2 -->
<g id="edge4" class="edge"><title>Node3&#45;&gt;Node2</title>
<path fill="none" stroke="midnightblue" d="M157.786,-85.5974C151.908,-109.666 137.305,-150.617 127.825,-168.368"/>
<polygon fill="midnightblue" stroke="midnightblue" points="161.258,-86.0947 159.867,-75.5914 154.404,-84.669 161.258,-86.0947"/>
</g>
<!-- Node4 -->
<g id="node4" class="node"><title>Node4</title>
<g id="a_node4"><a xlink:href="a00125.html" target="_top" xlink:title="Controlling beam and primary actuators. ">
<polygon fill="white" stroke="black" points="123.5,-0.5 123.5,-19.5 188.5,-19.5 188.5,-0.5 123.5,-0.5"/>
<text text-anchor="middle" x="156" y="-7.5" font-family="Helvetica,sans-Serif" font-size="10.00">actuators.c</text>
</a>
</g>
</g>
<!-- Node3&#45;&gt;Node4 -->
<g id="edge5" class="edge"><title>Node3&#45;&gt;Node4</title>
<path fill="none" stroke="midnightblue" d="M157.934,-45.8045C157.439,-36.9102 156.877,-26.7798 156.486,-19.7511"/>
<polygon fill="midnightblue" stroke="midnightblue" points="154.455,-46.2926 158.505,-56.083 161.444,-45.9042 154.455,-46.2926"/>
</g>
<!-- Node3&#45;&gt;Node5 -->
<g id="edge6" class="edge"><title>Node3&#45;&gt;Node5</title>
<path fill="none" stroke="midnightblue" d="M182.238,-50.9005C198.558,-40.9986 219.865,-28.0705 233.736,-19.6545"/>
<polygon fill="midnightblue" stroke="midnightblue" points="180.033,-48.1444 173.299,-56.324 183.664,-54.1289 180.033,-48.1444"/>
</g>
<!-- Node6&#45;&gt;Node1 -->
<g id="edge9" class="edge"><title>Node6&#45;&gt;Node1</title>
<path fill="none" stroke="midnightblue" d="M244.211,-141.597C246.647,-165.666 246.191,-206.617 242.843,-224.368"/>
<polygon fill="midnightblue" stroke="midnightblue" points="247.665,-141.022 242.835,-131.591 240.73,-141.975 247.665,-141.022"/>
</g>
<!-- Node6&#45;&gt;Node3 -->
<g id="edge10" class="edge"><title>Node6&#45;&gt;Node3</title>
<path fill="none" stroke="midnightblue" d="M217.699,-106.622C203.085,-96.7574 184.173,-83.9919 171.821,-75.6545"/>
<polygon fill="midnightblue" stroke="midnightblue" points="215.9,-109.63 226.147,-112.324 219.816,-103.828 215.9,-109.63"/>
</g>
<!-- Node6&#45;&gt;Node5 -->
<g id="edge11" class="edge"><title>Node6&#45;&gt;Node5</title>
<path fill="none" stroke="midnightblue" d="M240.526,-102.348C242.497,-78.2538 245.848,-37.3079 247.297,-19.5914"/>
<polygon fill="midnightblue" stroke="midnightblue" points="237.033,-102.116 239.706,-112.368 244.01,-102.687 237.033,-102.116"/>
</g>
</g>
</svg>
