<?xml version="1.0" encoding="UTF-8" standalone="no"?>
<!DOCTYPE svg PUBLIC "-//W3C//DTD SVG 1.1//EN"
 "http://www.w3.org/Graphics/SVG/1.1/DTD/svg11.dtd">
<!-- Generated by graphviz version 2.38.0 (20140413.2041)
 -->
<!-- Title: core_cm0plus.h Pages: 1 -->
<svg width="260pt" height="84pt"
 viewBox="0.00 0.00 259.50 84.00" xmlns="http://www.w3.org/2000/svg" xmlns:xlink="http://www.w3.org/1999/xlink">
<g id="graph0" class="graph" transform="scale(1 1) rotate(0) translate(4 80)">
<title>core_cm0plus.h</title>
<polygon fill="white" stroke="none" points="-4,4 -4,-80 255.5,-80 255.5,4 -4,4"/>
<!-- Node1 -->
<g id="node1" class="node"><title>Node1</title>
<polygon fill="#bfbfbf" stroke="black" points="65.5,-56.5 65.5,-75.5 151.5,-75.5 151.5,-56.5 65.5,-56.5"/>
<text text-anchor="middle" x="108.5" y="-63.5" font-family="Helvetica,sans-Serif" font-size="10.00">core_cm0plus.h</text>
</g>
<!-- Node2 -->
<g id="node2" class="node"><title>Node2</title>
<polygon fill="white" stroke="#bfbfbf" points="0,-0.5 0,-19.5 49,-19.5 49,-0.5 0,-0.5"/>
<text text-anchor="middle" x="24.5" y="-7.5" font-family="Helvetica,sans-Serif" font-size="10.00">stdint.h</text>
</g>
<!-- Node1&#45;&gt;Node2 -->
<g id="edge1" class="edge"><title>Node1&#45;&gt;Node2</title>
<path fill="none" stroke="midnightblue" d="M95.0039,-56.324C81.9004,-47.9002 61.7881,-34.9709 46.3931,-25.0741"/>
<polygon fill="midnightblue" stroke="midnightblue" points="48.267,-22.118 37.9626,-19.6545 44.4817,-28.0063 48.267,-22.118"/>
</g>
<!-- Node3 -->
<g id="node3" class="node"><title>Node3</title>
<g id="a_node3"><a xlink:href="a00430.html" target="_top" xlink:title="CMSIS Cortex&#45;M Core Instruction Access Header File. ">
<polygon fill="white" stroke="black" points="67.5,-0.5 67.5,-19.5 149.5,-19.5 149.5,-0.5 67.5,-0.5"/>
<text text-anchor="middle" x="108.5" y="-7.5" font-family="Helvetica,sans-Serif" font-size="10.00">core_cmInstr.h</text>
</a>
</g>
</g>
<!-- Node1&#45;&gt;Node3 -->
<g id="edge2" class="edge"><title>Node1&#45;&gt;Node3</title>
<path fill="none" stroke="midnightblue" d="M108.5,-56.083C108.5,-49.0059 108.5,-38.8611 108.5,-29.9865"/>
<polygon fill="midnightblue" stroke="midnightblue" points="112,-29.751 108.5,-19.7511 105,-29.7511 112,-29.751"/>
</g>
<!-- Node4 -->
<g id="node4" class="node"><title>Node4</title>
<g id="a_node4"><a xlink:href="a00429.html" target="_top" xlink:title="CMSIS Cortex&#45;M Core Function Access Header File. ">
<polygon fill="white" stroke="black" points="167.5,-0.5 167.5,-19.5 251.5,-19.5 251.5,-0.5 167.5,-0.5"/>
<text text-anchor="middle" x="209.5" y="-7.5" font-family="Helvetica,sans-Serif" font-size="10.00">core_cmFunc.h</text>
</a>
</g>
</g>
<!-- Node1&#45;&gt;Node4 -->
<g id="edge3" class="edge"><title>Node1&#45;&gt;Node4</title>
<path fill="none" stroke="midnightblue" d="M124.727,-56.324C140.851,-47.7034 165.8,-34.3643 184.464,-24.3855"/>
<polygon fill="midnightblue" stroke="midnightblue" points="186.144,-27.456 193.313,-19.6545 182.844,-21.283 186.144,-27.456"/>
</g>
</g>
</svg>
