<?xml version="1.0" encoding="UTF-8" standalone="no"?>
<!DOCTYPE svg PUBLIC "-//W3C//DTD SVG 1.1//EN"
 "http://www.w3.org/Graphics/SVG/1.1/DTD/svg11.dtd">
<!-- Generated by graphviz version 2.38.0 (20140413.2041)
 -->
<!-- Title: core_cm4.h Pages: 1 -->
<svg width="363pt" height="84pt"
 viewBox="0.00 0.00 363.00 84.00" xmlns="http://www.w3.org/2000/svg" xmlns:xlink="http://www.w3.org/1999/xlink">
<g id="graph0" class="graph" transform="scale(1 1) rotate(0) translate(4 80)">
<title>core_cm4.h</title>
<polygon fill="white" stroke="none" points="-4,4 -4,-80 359,-80 359,4 -4,4"/>
<!-- Node1 -->
<g id="node1" class="node"><title>Node1</title>
<polygon fill="#bfbfbf" stroke="black" points="124.5,-56.5 124.5,-75.5 192.5,-75.5 192.5,-56.5 124.5,-56.5"/>
<text text-anchor="middle" x="158.5" y="-63.5" font-family="Helvetica,sans-Serif" font-size="10.00">core_cm4.h</text>
</g>
<!-- Node2 -->
<g id="node2" class="node"><title>Node2</title>
<polygon fill="white" stroke="#bfbfbf" points="0,-0.5 0,-19.5 49,-19.5 49,-0.5 0,-0.5"/>
<text text-anchor="middle" x="24.5" y="-7.5" font-family="Helvetica,sans-Serif" font-size="10.00">stdint.h</text>
</g>
<!-- Node1&#45;&gt;Node2 -->
<g id="edge1" class="edge"><title>Node1&#45;&gt;Node2</title>
<path fill="none" stroke="midnightblue" d="M137.267,-56.4435C115.116,-47.5171 80.1813,-33.4387 55.064,-23.3168"/>
<polygon fill="midnightblue" stroke="midnightblue" points="56.2168,-20.0079 45.6334,-19.5164 53.6003,-26.5006 56.2168,-20.0079"/>
</g>
<!-- Node3 -->
<g id="node3" class="node"><title>Node3</title>
<g id="a_node3"><a xlink:href="a00430.html" target="_top" xlink:title="CMSIS Cortex&#45;M Core Instruction Access Header File. ">
<polygon fill="white" stroke="black" points="67.5,-0.5 67.5,-19.5 149.5,-19.5 149.5,-0.5 67.5,-0.5"/>
<text text-anchor="middle" x="108.5" y="-7.5" font-family="Helvetica,sans-Serif" font-size="10.00">core_cmInstr.h</text>
</a>
</g>
</g>
<!-- Node1&#45;&gt;Node3 -->
<g id="edge2" class="edge"><title>Node1&#45;&gt;Node3</title>
<path fill="none" stroke="midnightblue" d="M150.244,-56.083C143.035,-48.2982 132.39,-36.8015 123.654,-27.3665"/>
<polygon fill="midnightblue" stroke="midnightblue" points="125.965,-24.7108 116.603,-19.7511 120.829,-29.4666 125.965,-24.7108"/>
</g>
<!-- Node4 -->
<g id="node4" class="node"><title>Node4</title>
<g id="a_node4"><a xlink:href="a00429.html" target="_top" xlink:title="CMSIS Cortex&#45;M Core Function Access Header File. ">
<polygon fill="white" stroke="black" points="167.5,-0.5 167.5,-19.5 251.5,-19.5 251.5,-0.5 167.5,-0.5"/>
<text text-anchor="middle" x="209.5" y="-7.5" font-family="Helvetica,sans-Serif" font-size="10.00">core_cmFunc.h</text>
</a>
</g>
</g>
<!-- Node1&#45;&gt;Node4 -->
<g id="edge3" class="edge"><title>Node1&#45;&gt;Node4</title>
<path fill="none" stroke="midnightblue" d="M166.922,-56.083C174.348,-48.2195 185.352,-36.5688 194.312,-27.0813"/>
<polygon fill="midnightblue" stroke="midnightblue" points="196.913,-29.4244 201.235,-19.7511 191.824,-24.618 196.913,-29.4244"/>
</g>
<!-- Node5 -->
<g id="node5" class="node"><title>Node5</title>
<g id="a_node5"><a xlink:href="a00431.html" target="_top" xlink:title="CMSIS Cortex&#45;M SIMD Header File. ">
<polygon fill="white" stroke="black" points="270,-0.5 270,-19.5 355,-19.5 355,-0.5 270,-0.5"/>
<text text-anchor="middle" x="312.5" y="-7.5" font-family="Helvetica,sans-Serif" font-size="10.00">core_cmSimd.h</text>
</a>
</g>
</g>
<!-- Node1&#45;&gt;Node5 -->
<g id="edge4" class="edge"><title>Node1&#45;&gt;Node5</title>
<path fill="none" stroke="midnightblue" d="M182.902,-56.4435C208.697,-47.3986 249.577,-33.064 278.518,-22.9158"/>
<polygon fill="midnightblue" stroke="midnightblue" points="279.934,-26.1283 288.212,-19.5164 277.618,-19.5226 279.934,-26.1283"/>
</g>
</g>
</svg>
