<?xml version="1.0" encoding="UTF-8" standalone="no"?>
<!DOCTYPE svg PUBLIC "-//W3C//DTD SVG 1.1//EN"
 "http://www.w3.org/Graphics/SVG/1.1/DTD/svg11.dtd">
<!-- Generated by graphviz version 2.38.0 (20140413.2041)
 -->
<!-- Title: misc.h Pages: 1 -->
<!--zoomable 364 -->
<svg id="main" version="1.1" xmlns="http://www.w3.org/2000/svg" xmlns:xlink="http://www.w3.org/1999/xlink" xml:space="preserve" onload="init(evt)">
<style type="text/css"><![CDATA[
.edge:hover path { stroke: red; }
.edge:hover polygon { stroke: red; fill: red; }
]]></style>
<script type="text/javascript"><![CDATA[
var edges = document.getElementsByTagName('g');
if (edges && edges.length) {
  for (var i=0;i<edges.length;i++) {
    if (edges[i].id.substr(0,4)=='edge') {
      edges[i].setAttribute('class','edge');
    }
  }
}
]]></script>
        <defs>
                <circle id="rim" cx="0" cy="0" r="7"/>
                <circle id="rim2" cx="0" cy="0" r="3.5"/>
                <g id="zoomPlus">
                        <use xlink:href="#rim" fill="#404040">
                                <set attributeName="fill" to="#808080" begin="zoomplus.mouseover" end="zoomplus.mouseout"/>
                        </use>
                        <path d="M-4,0h8M0,-4v8" fill="none" stroke="white" stroke-width="1.5" pointer-events="none"/>
                </g>
                <g id="zoomMin">
                        <use xlink:href="#rim" fill="#404040">
                                <set attributeName="fill" to="#808080" begin="zoomminus.mouseover" end="zoomminus.mouseout"/>
                        </use>
                        <path d="M-4,0h8" fill="none" stroke="white" stroke-width="1.5" pointer-events="none"/>
                </g>
                <g id="dirArrow">
                        <path fill="none" stroke="white" stroke-width="1.5" d="M0,-3.0v7 M-2.5,-0.5L0,-3.0L2.5,-0.5"/>
                </g>
               <g id="resetDef">
                       <use xlink:href="#rim2" fill="#404040">
                               <set attributeName="fill" to="#808080" begin="reset.mouseover" end="reset.mouseout"/>
                       </use>
               </g>
        </defs>

<script type="text/javascript">
var viewWidth = 690;
var viewHeight = 364;
var sectionId = 'dynsection-1';
</script>
<script xlink:href="svgpan.js"/>
<svg id="graph" class="graph">
<g id="viewport">
<title>misc.h</title>
<polygon fill="white" stroke="none" points="-4,4 -4,-360 686,-360 686,4 -4,4"/>
<!-- Node1 -->
<g id="node1" class="node"><title>Node1</title>
<polygon fill="#bfbfbf" stroke="black" points="495,-336.5 495,-355.5 541,-355.5 541,-336.5 495,-336.5"/>
<text text-anchor="middle" x="518" y="-343.5" font-family="Helvetica,sans-Serif" font-size="10.00">misc.h</text>
</g>
<!-- Node2 -->
<g id="node2" class="node"><title>Node2</title>
<g id="a_node2"><a xlink:href="a00576_source.html" target="_top" xlink:title="tm_stm32f4_usart.h">
<polygon fill="white" stroke="black" points="261,-280.5 261,-299.5 365,-299.5 365,-280.5 261,-280.5"/>
<text text-anchor="middle" x="313" y="-287.5" font-family="Helvetica,sans-Serif" font-size="10.00">tm_stm32f4_usart.h</text>
</a>
</g>
</g>
<!-- Node1&#45;&gt;Node2 -->
<g id="edge1" class="edge"><title>Node1&#45;&gt;Node2</title>
<path fill="none" stroke="midnightblue" d="M484.733,-336.237C446.313,-326.117 383.526,-309.577 345.454,-299.549"/>
<polygon fill="midnightblue" stroke="midnightblue" points="484.321,-339.748 494.882,-338.91 486.104,-332.979 484.321,-339.748"/>
</g>
<!-- Node15 -->
<g id="node15" class="node"><title>Node15</title>
<g id="a_node15"><a xlink:href="a00475.html" target="_top" xlink:title="Provides nested vector interrupt controller configuration methods. ">
<polygon fill="white" stroke="black" points="430,-280.5 430,-299.5 504,-299.5 504,-280.5 430,-280.5"/>
<text text-anchor="middle" x="467" y="-287.5" font-family="Helvetica,sans-Serif" font-size="10.00">nvic_config.h</text>
</a>
</g>
</g>
<!-- Node1&#45;&gt;Node15 -->
<g id="edge22" class="edge"><title>Node1&#45;&gt;Node15</title>
<path fill="none" stroke="midnightblue" d="M502.622,-328.718C493.633,-319.2 482.641,-307.561 475.265,-299.751"/>
<polygon fill="midnightblue" stroke="midnightblue" points="500.168,-331.216 509.578,-336.083 505.257,-326.41 500.168,-331.216"/>
</g>
<!-- Node17 -->
<g id="node17" class="node"><title>Node17</title>
<g id="a_node17"><a xlink:href="a00491_source.html" target="_top" xlink:title="stm32f4xx_conf.h">
<polygon fill="white" stroke="black" points="522.5,-280.5 522.5,-299.5 617.5,-299.5 617.5,-280.5 522.5,-280.5"/>
<text text-anchor="middle" x="570" y="-287.5" font-family="Helvetica,sans-Serif" font-size="10.00">stm32f4xx_conf.h</text>
</a>
</g>
</g>
<!-- Node1&#45;&gt;Node17 -->
<g id="edge25" class="edge"><title>Node1&#45;&gt;Node17</title>
<path fill="none" stroke="midnightblue" d="M533.679,-328.718C542.845,-319.2 554.053,-307.561 561.573,-299.751"/>
<polygon fill="midnightblue" stroke="midnightblue" points="531.002,-326.452 526.587,-336.083 536.044,-331.308 531.002,-326.452"/>
</g>
<!-- Node18 -->
<g id="node18" class="node"><title>Node18</title>
<g id="a_node18"><a xlink:href="a00472.html" target="_top" xlink:title="This file provides all the miscellaneous firmware functions (add&#45;on to CMSIS functions). ">
<polygon fill="white" stroke="black" points="636,-280.5 636,-299.5 682,-299.5 682,-280.5 636,-280.5"/>
<text text-anchor="middle" x="659" y="-287.5" font-family="Helvetica,sans-Serif" font-size="10.00">misc.c</text>
</a>
</g>
</g>
<!-- Node1&#45;&gt;Node18 -->
<g id="edge26" class="edge"><title>Node1&#45;&gt;Node18</title>
<path fill="none" stroke="midnightblue" d="M549.929,-332.772C576.414,-322.629 613.392,-308.467 636.763,-299.516"/>
<polygon fill="midnightblue" stroke="midnightblue" points="548.429,-329.599 540.342,-336.444 550.932,-336.136 548.429,-329.599"/>
</g>
<!-- Node3 -->
<g id="node3" class="node"><title>Node3</title>
<g id="a_node3"><a xlink:href="a00575_source.html" target="_top" xlink:title="tm_stm32f4_usart.c">
<polygon fill="white" stroke="black" points="308,-224.5 308,-243.5 412,-243.5 412,-224.5 308,-224.5"/>
<text text-anchor="middle" x="360" y="-231.5" font-family="Helvetica,sans-Serif" font-size="10.00">tm_stm32f4_usart.c</text>
</a>
</g>
</g>
<!-- Node2&#45;&gt;Node3 -->
<g id="edge2" class="edge"><title>Node2&#45;&gt;Node3</title>
<path fill="none" stroke="midnightblue" d="M327.421,-272.431C335.658,-262.967 345.654,-251.483 352.383,-243.751"/>
<polygon fill="midnightblue" stroke="midnightblue" points="324.686,-270.242 320.761,-280.083 329.966,-274.838 324.686,-270.242"/>
</g>
<!-- Node4 -->
<g id="node4" class="node"><title>Node4</title>
<g id="a_node4"><a xlink:href="a00578_source.html" target="_top" xlink:title="tm_stm32f4_usart_dma.h">
<polygon fill="white" stroke="black" points="49,-224.5 49,-243.5 177,-243.5 177,-224.5 49,-224.5"/>
<text text-anchor="middle" x="113" y="-231.5" font-family="Helvetica,sans-Serif" font-size="10.00">tm_stm32f4_usart_dma.h</text>
</a>
</g>
</g>
<!-- Node2&#45;&gt;Node4 -->
<g id="edge3" class="edge"><title>Node2&#45;&gt;Node4</title>
<path fill="none" stroke="midnightblue" d="M271.626,-277.829C233.864,-267.633 178.86,-252.782 144.542,-243.516"/>
<polygon fill="midnightblue" stroke="midnightblue" points="270.743,-281.216 281.309,-280.444 272.567,-274.458 270.743,-281.216"/>
</g>
<!-- Node6 -->
<g id="node6" class="node"><title>Node6</title>
<g id="a_node6"><a xlink:href="a00440.html" target="_top" xlink:title="Main header definition. ">
<polygon fill="white" stroke="black" points="244,-224.5 244,-243.5 290,-243.5 290,-224.5 244,-224.5"/>
<text text-anchor="middle" x="267" y="-231.5" font-family="Helvetica,sans-Serif" font-size="10.00">main.h</text>
</a>
</g>
</g>
<!-- Node2&#45;&gt;Node6 -->
<g id="edge5" class="edge"><title>Node2&#45;&gt;Node6</title>
<path fill="none" stroke="midnightblue" d="M298.886,-272.431C290.824,-262.967 281.041,-251.483 274.455,-243.751"/>
<polygon fill="midnightblue" stroke="midnightblue" points="296.255,-274.74 305.404,-280.083 301.584,-270.201 296.255,-274.74"/>
</g>
<!-- Node5 -->
<g id="node5" class="node"><title>Node5</title>
<g id="a_node5"><a xlink:href="a00577_source.html" target="_top" xlink:title="tm_stm32f4_usart_dma.c">
<polygon fill="white" stroke="black" points="0,-168.5 0,-187.5 128,-187.5 128,-168.5 0,-168.5"/>
<text text-anchor="middle" x="64" y="-175.5" font-family="Helvetica,sans-Serif" font-size="10.00">tm_stm32f4_usart_dma.c</text>
</a>
</g>
</g>
<!-- Node4&#45;&gt;Node5 -->
<g id="edge4" class="edge"><title>Node4&#45;&gt;Node5</title>
<path fill="none" stroke="midnightblue" d="M97.9655,-216.431C89.3778,-206.967 78.9565,-195.483 71.9408,-187.751"/>
<polygon fill="midnightblue" stroke="midnightblue" points="95.5967,-219.029 104.909,-224.083 100.781,-214.325 95.5967,-219.029"/>
</g>
<!-- Node7 -->
<g id="node7" class="node"><title>Node7</title>
<g id="a_node7"><a xlink:href="a00128.html" target="_top" xlink:title="Provides DMA related configuration and access functions for ADC and DAC. ">
<polygon fill="white" stroke="black" points="404,-168.5 404,-187.5 490,-187.5 490,-168.5 404,-168.5"/>
<text text-anchor="middle" x="447" y="-175.5" font-family="Helvetica,sans-Serif" font-size="10.00">adc_dac_dma.h</text>
</a>
</g>
</g>
<!-- Node6&#45;&gt;Node7 -->
<g id="edge6" class="edge"><title>Node6&#45;&gt;Node7</title>
<path fill="none" stroke="midnightblue" d="M299.916,-221.429C332.174,-211.263 380.891,-196.704 413.39,-187.556"/>
<polygon fill="midnightblue" stroke="midnightblue" points="298.531,-218.196 290.062,-224.562 300.653,-224.867 298.531,-218.196"/>
</g>
<!-- Node10 -->
<g id="node10" class="node"><title>Node10</title>
<g id="a_node10"><a xlink:href="a00437.html" target="_top" xlink:title="Callback handler implementations. ">
<polygon fill="white" stroke="black" points="230,-0.5 230,-19.5 312,-19.5 312,-0.5 230,-0.5"/>
<text text-anchor="middle" x="271" y="-7.5" font-family="Helvetica,sans-Serif" font-size="10.00">irq_callbacks.c</text>
</a>
</g>
</g>
<!-- Node6&#45;&gt;Node10 -->
<g id="edge19" class="edge"><title>Node6&#45;&gt;Node10</title>
<path fill="none" stroke="midnightblue" d="M234.039,-226.216C213.205,-220.04 187.863,-208.611 175,-188 170.294,-180.459 172.591,-176.556 175,-168 192.747,-104.956 243.631,-42.2044 263.201,-19.7041"/>
<polygon fill="midnightblue" stroke="midnightblue" points="233.266,-229.633 243.831,-228.844 235.08,-222.872 233.266,-229.633"/>
</g>
<!-- Node11 -->
<g id="node11" class="node"><title>Node11</title>
<g id="a_node11"><a xlink:href="a00438.html" target="_top" xlink:title="Analog processing related callback handler definition. ">
<polygon fill="white" stroke="black" points="230,-112.5 230,-131.5 312,-131.5 312,-112.5 230,-112.5"/>
<text text-anchor="middle" x="271" y="-119.5" font-family="Helvetica,sans-Serif" font-size="10.00">irq_callbacks.h</text>
</a>
</g>
</g>
<!-- Node6&#45;&gt;Node11 -->
<g id="edge18" class="edge"><title>Node6&#45;&gt;Node11</title>
<path fill="none" stroke="midnightblue" d="M262.462,-214.348C260.906,-190.254 262.855,-149.308 266.852,-131.591"/>
<polygon fill="midnightblue" stroke="midnightblue" points="258.987,-214.769 263.471,-224.368 265.951,-214.068 258.987,-214.769"/>
</g>
<!-- Node13 -->
<g id="node13" class="node"><title>Node13</title>
<g id="a_node13"><a xlink:href="a00439.html" target="_top" xlink:title="Main source implementation (29&#45;04&#45;2015) ">
<polygon fill="white" stroke="black" points="184,-168.5 184,-187.5 230,-187.5 230,-168.5 184,-168.5"/>
<text text-anchor="middle" x="207" y="-175.5" font-family="Helvetica,sans-Serif" font-size="10.00">main.c</text>
</a>
</g>
</g>
<!-- Node6&#45;&gt;Node13 -->
<g id="edge20" class="edge"><title>Node6&#45;&gt;Node13</title>
<path fill="none" stroke="midnightblue" d="M249.819,-217.537C239.121,-207.909 225.744,-195.869 216.815,-187.834"/>
<polygon fill="midnightblue" stroke="midnightblue" points="247.586,-220.236 257.36,-224.324 252.268,-215.033 247.586,-220.236"/>
</g>
<!-- Node14 -->
<g id="node14" class="node"><title>Node14</title>
<g id="a_node14"><a xlink:href="a00531.html" target="_top" xlink:title="stm32f4xx_it.c">
<polygon fill="white" stroke="black" points="304.5,-168.5 304.5,-187.5 385.5,-187.5 385.5,-168.5 304.5,-168.5"/>
<text text-anchor="middle" x="345" y="-175.5" font-family="Helvetica,sans-Serif" font-size="10.00">stm32f4xx_it.c</text>
</a>
</g>
</g>
<!-- Node6&#45;&gt;Node14 -->
<g id="edge21" class="edge"><title>Node6&#45;&gt;Node14</title>
<path fill="none" stroke="midnightblue" d="M287.768,-218.622C302.017,-208.757 320.456,-195.992 332.499,-187.655"/>
<polygon fill="midnightblue" stroke="midnightblue" points="285.762,-215.754 279.532,-224.324 289.746,-221.51 285.762,-215.754"/>
</g>
<!-- Node7&#45;&gt;Node6 -->
<g id="edge12" class="edge"><title>Node7&#45;&gt;Node6</title>
<path fill="none" stroke="midnightblue" d="M414.166,-190.546C378.267,-201.861 321.914,-218.635 290.262,-227.323"/>
<polygon fill="midnightblue" stroke="midnightblue" points="415.242,-193.876 423.711,-187.51 413.121,-187.205 415.242,-193.876"/>
</g>
<!-- Node8 -->
<g id="node8" class="node"><title>Node8</title>
<g id="a_node8"><a xlink:href="a00126.html" target="_top" xlink:title="Controlling beam and primary actuators. ">
<polygon fill="white" stroke="black" points="334.5,-56.5 334.5,-75.5 399.5,-75.5 399.5,-56.5 334.5,-56.5"/>
<text text-anchor="middle" x="367" y="-63.5" font-family="Helvetica,sans-Serif" font-size="10.00">actuators.h</text>
</a>
</g>
</g>
<!-- Node7&#45;&gt;Node8 -->
<g id="edge7" class="edge"><title>Node7&#45;&gt;Node8</title>
<path fill="none" stroke="midnightblue" d="M418.645,-162.877C407.123,-154.79 394.713,-143.897 386,-132 372.787,-113.958 364.209,-88.7163 363.588,-75.6311"/>
<polygon fill="midnightblue" stroke="midnightblue" points="416.925,-165.934 427.208,-168.485 420.76,-160.078 416.925,-165.934"/>
</g>
<!-- Node7&#45;&gt;Node11 -->
<g id="edge13" class="edge"><title>Node7&#45;&gt;Node11</title>
<path fill="none" stroke="midnightblue" d="M409.311,-165.436C376.128,-155.255 328.572,-140.664 298.757,-131.516"/>
<polygon fill="midnightblue" stroke="midnightblue" points="408.525,-168.856 419.112,-168.444 410.579,-162.164 408.525,-168.856"/>
</g>
<!-- Node12 -->
<g id="node12" class="node"><title>Node12</title>
<g id="a_node12"><a xlink:href="a00127.html" target="_top" xlink:title="adc_dac_dma.c">
<polygon fill="white" stroke="black" points="404,-112.5 404,-131.5 490,-131.5 490,-112.5 404,-112.5"/>
<text text-anchor="middle" x="447" y="-119.5" font-family="Helvetica,sans-Serif" font-size="10.00">adc_dac_dma.c</text>
</a>
</g>
</g>
<!-- Node7&#45;&gt;Node12 -->
<g id="edge17" class="edge"><title>Node7&#45;&gt;Node12</title>
<path fill="none" stroke="midnightblue" d="M447,-157.805C447,-148.91 447,-138.78 447,-131.751"/>
<polygon fill="midnightblue" stroke="midnightblue" points="443.5,-158.083 447,-168.083 450.5,-158.083 443.5,-158.083"/>
</g>
<!-- Node8&#45;&gt;Node6 -->
<g id="edge8" class="edge"><title>Node8&#45;&gt;Node6</title>
<path fill="none" stroke="midnightblue" d="M409.88,-69.1324C440.2,-73.1507 478.897,-83.9073 499,-112 518.657,-139.469 520.666,-162.086 499,-188 470.034,-222.645 343.009,-213.875 299,-224 296.075,-224.673 293.019,-225.444 290.004,-226.245"/>
<polygon fill="midnightblue" stroke="midnightblue" points="409.876,-65.6101 399.549,-67.9747 409.097,-72.5666 409.876,-65.6101"/>
</g>
<!-- Node8&#45;&gt;Node7 -->
<g id="edge9" class="edge"><title>Node8&#45;&gt;Node7</title>
<path fill="none" stroke="midnightblue" d="M379.651,-84.9474C385.885,-98.6737 393.471,-117.623 404,-132 414.863,-146.834 431.474,-160.105 441.027,-168.326"/>
<polygon fill="midnightblue" stroke="midnightblue" points="382.641,-83.0934 375.12,-75.6311 376.346,-86.1548 382.641,-83.0934"/>
</g>
<!-- Node9 -->
<g id="node9" class="node"><title>Node9</title>
<g id="a_node9"><a xlink:href="a00125.html" target="_top" xlink:title="Controlling beam and primary actuators. ">
<polygon fill="white" stroke="black" points="334.5,-0.5 334.5,-19.5 399.5,-19.5 399.5,-0.5 334.5,-0.5"/>
<text text-anchor="middle" x="367" y="-7.5" font-family="Helvetica,sans-Serif" font-size="10.00">actuators.c</text>
</a>
</g>
</g>
<!-- Node8&#45;&gt;Node9 -->
<g id="edge10" class="edge"><title>Node8&#45;&gt;Node9</title>
<path fill="none" stroke="midnightblue" d="M367,-45.8045C367,-36.9102 367,-26.7798 367,-19.7511"/>
<polygon fill="midnightblue" stroke="midnightblue" points="363.5,-46.083 367,-56.083 370.5,-46.083 363.5,-46.083"/>
</g>
<!-- Node8&#45;&gt;Node10 -->
<g id="edge11" class="edge"><title>Node8&#45;&gt;Node10</title>
<path fill="none" stroke="midnightblue" d="M342.426,-51.1774C324.761,-41.2407 301.487,-28.1492 286.386,-19.6545"/>
<polygon fill="midnightblue" stroke="midnightblue" points="341.144,-54.4718 351.576,-56.324 344.576,-48.3708 341.144,-54.4718"/>
</g>
<!-- Node11&#45;&gt;Node6 -->
<g id="edge14" class="edge"><title>Node11&#45;&gt;Node6</title>
<path fill="none" stroke="midnightblue" d="M275.534,-141.597C277.096,-165.666 275.151,-206.617 271.157,-224.368"/>
<polygon fill="midnightblue" stroke="midnightblue" points="279.011,-141.189 274.523,-131.591 272.047,-141.893 279.011,-141.189"/>
</g>
<!-- Node11&#45;&gt;Node8 -->
<g id="edge15" class="edge"><title>Node11&#45;&gt;Node8</title>
<path fill="none" stroke="midnightblue" d="M295.574,-107.177C313.239,-97.2407 336.513,-84.1492 351.614,-75.6545"/>
<polygon fill="midnightblue" stroke="midnightblue" points="293.424,-104.371 286.424,-112.324 296.856,-110.472 293.424,-104.371"/>
</g>
<!-- Node11&#45;&gt;Node10 -->
<g id="edge16" class="edge"><title>Node11&#45;&gt;Node10</title>
<path fill="none" stroke="midnightblue" d="M271,-102.348C271,-78.2538 271,-37.3079 271,-19.5914"/>
<polygon fill="midnightblue" stroke="midnightblue" points="267.5,-102.368 271,-112.368 274.5,-102.369 267.5,-102.368"/>
</g>
<!-- Node15&#45;&gt;Node7 -->
<g id="edge23" class="edge"><title>Node15&#45;&gt;Node7</title>
<path fill="none" stroke="midnightblue" d="M488.878,-274.411C505.062,-261.685 522.737,-242.423 513,-224 503.863,-206.712 484.769,-194.816 469.459,-187.618"/>
<polygon fill="midnightblue" stroke="midnightblue" points="486.681,-271.683 480.705,-280.431 490.832,-277.319 486.681,-271.683"/>
</g>
<!-- Node16 -->
<g id="node16" class="node"><title>Node16</title>
<g id="a_node16"><a xlink:href="a00474.html" target="_top" xlink:title="TODO. ">
<polygon fill="white" stroke="black" points="430,-224.5 430,-243.5 504,-243.5 504,-224.5 430,-224.5"/>
<text text-anchor="middle" x="467" y="-231.5" font-family="Helvetica,sans-Serif" font-size="10.00">nvic_config.c</text>
</a>
</g>
</g>
<!-- Node15&#45;&gt;Node16 -->
<g id="edge24" class="edge"><title>Node15&#45;&gt;Node16</title>
<path fill="none" stroke="midnightblue" d="M467,-269.805C467,-260.91 467,-250.78 467,-243.751"/>
<polygon fill="midnightblue" stroke="midnightblue" points="463.5,-270.083 467,-280.083 470.5,-270.083 463.5,-270.083"/>
</g>
</g>
</svg>
        <g id="navigator" transform="translate(0 0)" fill="#404254">
                <rect fill="#f2f5e9" fill-opacity="0.5" stroke="#606060" stroke-width=".5" x="0" y="0" width="60" height="60"/>
                <use id="zoomplus" xlink:href="#zoomPlus" x="17" y="9" onmousedown="handleZoom(evt,'in')"/>
                <use id="zoomminus" xlink:href="#zoomMin" x="42" y="9" onmousedown="handleZoom(evt,'out')"/>
                <use id="reset" xlink:href="#resetDef" x="30" y="36" onmousedown="handleReset()"/>
                <g id="arrowUp" xlink:href="#dirArrow" transform="translate(30 24)" onmousedown="handlePan(0,-1)">
                  <use xlink:href="#rim" fill="#404040">
                        <set attributeName="fill" to="#808080" begin="arrowUp.mouseover" end="arrowUp.mouseout"/>
                  </use>
                  <path fill="none" stroke="white" stroke-width="1.5" d="M0,-3.0v7 M-2.5,-0.5L0,-3.0L2.5,-0.5"/>
                </g>
                <g id="arrowRight" xlink:href="#dirArrow" transform="rotate(90) translate(36 -43)" onmousedown="handlePan(1,0)">
                  <use xlink:href="#rim" fill="#404040">
                        <set attributeName="fill" to="#808080" begin="arrowRight.mouseover" end="arrowRight.mouseout"/>
                  </use>
                  <path fill="none" stroke="white" stroke-width="1.5" d="M0,-3.0v7 M-2.5,-0.5L0,-3.0L2.5,-0.5"/>
                </g>
                <g id="arrowDown" xlink:href="#dirArrow" transform="rotate(180) translate(-30 -48)" onmousedown="handlePan(0,1)">
                  <use xlink:href="#rim" fill="#404040">
                        <set attributeName="fill" to="#808080" begin="arrowDown.mouseover" end="arrowDown.mouseout"/>
                  </use>
                  <path fill="none" stroke="white" stroke-width="1.5" d="M0,-3.0v7 M-2.5,-0.5L0,-3.0L2.5,-0.5"/>
                </g>
                <g id="arrowLeft" xlink:href="#dirArrow" transform="rotate(270) translate(-36 17)" onmousedown="handlePan(-1,0)">
                  <use xlink:href="#rim" fill="#404040">
                        <set attributeName="fill" to="#808080" begin="arrowLeft.mouseover" end="arrowLeft.mouseout"/>
                  </use>
                  <path fill="none" stroke="white" stroke-width="1.5" d="M0,-3.0v7 M-2.5,-0.5L0,-3.0L2.5,-0.5"/>
                </g>
        </g>
        <svg viewBox="0 0 15 15" width="100%" height="30px" preserveAspectRatio="xMaxYMin meet">
         <g id="arrow_out" transform="scale(0.3 0.3)">
          <a xlink:href="a01470_org.svg" target="_base">
           <rect id="button" ry="5" rx="5" y="6" x="6" height="38" width="38"
                fill="#f2f5e9" fill-opacity="0.5" stroke="#606060" stroke-width="1.0"/>
           <path id="arrow"
             d="M 11.500037,31.436501 C 11.940474,20.09759 22.043105,11.32322 32.158766,21.979434 L 37.068811,17.246167 C 37.068811,17.246167 37.088388,32 37.088388,32 L 22.160133,31.978069 C 22.160133,31.978069 26.997745,27.140456 26.997745,27.140456 C 18.528582,18.264221 13.291696,25.230495 11.500037,31.436501 z"
             style="fill:#404040;"/>
          </a>
         </g>
        </svg>
</svg>
