<?xml version="1.0" encoding="UTF-8" standalone="no"?>
<!DOCTYPE svg PUBLIC "-//W3C//DTD SVG 1.1//EN"
 "http://www.w3.org/Graphics/SVG/1.1/DTD/svg11.dtd">
<!-- Generated by graphviz version 2.38.0 (20140413.2041)
 -->
<!-- Title: md_stm32f4_disco.h Pages: 1 -->
<svg width="368pt" height="308pt"
 viewBox="0.00 0.00 367.50 308.00" xmlns="http://www.w3.org/2000/svg" xmlns:xlink="http://www.w3.org/1999/xlink">
<g id="graph0" class="graph" transform="scale(1 1) rotate(0) translate(4 304)">
<title>md_stm32f4_disco.h</title>
<polygon fill="white" stroke="none" points="-4,4 -4,-304 363.5,-304 363.5,4 -4,4"/>
<!-- Node1 -->
<g id="node1" class="node"><title>Node1</title>
<polygon fill="#bfbfbf" stroke="black" points="95,-280.5 95,-299.5 202,-299.5 202,-280.5 95,-280.5"/>
<text text-anchor="middle" x="148.5" y="-287.5" font-family="Helvetica,sans-Serif" font-size="10.00">md_stm32f4_disco.h</text>
</g>
<!-- Node2 -->
<g id="node2" class="node"><title>Node2</title>
<g id="a_node2"><a xlink:href="a00461.html" target="_top" xlink:title="DESCRIPTION. ">
<polygon fill="white" stroke="black" points="0,-224.5 0,-243.5 107,-243.5 107,-224.5 0,-224.5"/>
<text text-anchor="middle" x="53.5" y="-231.5" font-family="Helvetica,sans-Serif" font-size="10.00">md_stm32f4_disco.c</text>
</a>
</g>
</g>
<!-- Node1&#45;&gt;Node2 -->
<g id="edge1" class="edge"><title>Node1&#45;&gt;Node2</title>
<path fill="none" stroke="midnightblue" d="M124.182,-275.177C106.701,-265.241 83.6699,-252.149 68.7255,-243.655"/>
<polygon fill="midnightblue" stroke="midnightblue" points="122.813,-278.425 133.237,-280.324 126.273,-272.339 122.813,-278.425"/>
</g>
<!-- Node3 -->
<g id="node3" class="node"><title>Node3</title>
<g id="a_node3"><a xlink:href="a00440.html" target="_top" xlink:title="Main header definition. ">
<polygon fill="white" stroke="black" points="125.5,-224.5 125.5,-243.5 171.5,-243.5 171.5,-224.5 125.5,-224.5"/>
<text text-anchor="middle" x="148.5" y="-231.5" font-family="Helvetica,sans-Serif" font-size="10.00">main.h</text>
</a>
</g>
</g>
<!-- Node1&#45;&gt;Node3 -->
<g id="edge2" class="edge"><title>Node1&#45;&gt;Node3</title>
<path fill="none" stroke="midnightblue" d="M148.5,-269.805C148.5,-260.91 148.5,-250.78 148.5,-243.751"/>
<polygon fill="midnightblue" stroke="midnightblue" points="145,-270.083 148.5,-280.083 152,-270.083 145,-270.083"/>
</g>
<!-- Node7 -->
<g id="node7" class="node"><title>Node7</title>
<g id="a_node7"><a xlink:href="a00437.html" target="_top" xlink:title="Callback handler implementations. ">
<polygon fill="white" stroke="black" points="239.5,-0.5 239.5,-19.5 321.5,-19.5 321.5,-0.5 239.5,-0.5"/>
<text text-anchor="middle" x="280.5" y="-7.5" font-family="Helvetica,sans-Serif" font-size="10.00">irq_callbacks.c</text>
</a>
</g>
</g>
<!-- Node1&#45;&gt;Node7 -->
<g id="edge19" class="edge"><title>Node1&#45;&gt;Node7</title>
<path fill="none" stroke="midnightblue" d="M212.159,-282.599C274.28,-272.421 359.5,-246.21 359.5,-179 359.5,-179 359.5,-179 359.5,-121 359.5,-75.857 315.062,-36.5535 292.844,-19.7232"/>
<polygon fill="midnightblue" stroke="midnightblue" points="211.371,-279.179 202.017,-284.154 212.432,-286.098 211.371,-279.179"/>
</g>
<!-- Node4 -->
<g id="node4" class="node"><title>Node4</title>
<g id="a_node4"><a xlink:href="a00128.html" target="_top" xlink:title="Provides DMA related configuration and access functions for ADC and DAC. ">
<polygon fill="white" stroke="black" points="207.5,-168.5 207.5,-187.5 293.5,-187.5 293.5,-168.5 207.5,-168.5"/>
<text text-anchor="middle" x="250.5" y="-175.5" font-family="Helvetica,sans-Serif" font-size="10.00">adc_dac_dma.h</text>
</a>
</g>
</g>
<!-- Node3&#45;&gt;Node4 -->
<g id="edge3" class="edge"><title>Node3&#45;&gt;Node4</title>
<path fill="none" stroke="midnightblue" d="M168.632,-219.177C186.136,-209.241 211.153,-196.149 229.042,-187.655"/>
<polygon fill="midnightblue" stroke="midnightblue" points="166.662,-216.274 159.773,-224.324 170.178,-222.327 166.662,-216.274"/>
</g>
<!-- Node3&#45;&gt;Node7 -->
<g id="edge16" class="edge"><title>Node3&#45;&gt;Node7</title>
<path fill="none" stroke="midnightblue" d="M181.724,-228.004C222.494,-221.116 288.015,-207.324 302.5,-188 342.061,-135.225 300.56,-47.7379 285.502,-19.8368"/>
<polygon fill="midnightblue" stroke="midnightblue" points="180.993,-224.577 171.689,-229.645 182.123,-231.486 180.993,-224.577"/>
</g>
<!-- Node8 -->
<g id="node8" class="node"><title>Node8</title>
<g id="a_node8"><a xlink:href="a00438.html" target="_top" xlink:title="Analog processing related callback handler definition. ">
<polygon fill="white" stroke="black" points="51.5,-112.5 51.5,-131.5 133.5,-131.5 133.5,-112.5 51.5,-112.5"/>
<text text-anchor="middle" x="92.5" y="-119.5" font-family="Helvetica,sans-Serif" font-size="10.00">irq_callbacks.h</text>
</a>
</g>
</g>
<!-- Node3&#45;&gt;Node8 -->
<g id="edge15" class="edge"><title>Node3&#45;&gt;Node8</title>
<path fill="none" stroke="midnightblue" d="M115.688,-224.263C80.8774,-213.47 30.6745,-195.606 25.5,-188 10.5269,-165.992 43.5559,-143.522 68.5858,-131.628"/>
<polygon fill="midnightblue" stroke="midnightblue" points="114.903,-227.682 125.488,-227.235 116.935,-220.983 114.903,-227.682"/>
</g>
<!-- Node10 -->
<g id="node10" class="node"><title>Node10</title>
<g id="a_node10"><a xlink:href="a00439.html" target="_top" xlink:title="Main source implementation (29&#45;04&#45;2015) ">
<polygon fill="white" stroke="black" points="43.5,-168.5 43.5,-187.5 89.5,-187.5 89.5,-168.5 43.5,-168.5"/>
<text text-anchor="middle" x="66.5" y="-175.5" font-family="Helvetica,sans-Serif" font-size="10.00">main.c</text>
</a>
</g>
</g>
<!-- Node3&#45;&gt;Node10 -->
<g id="edge17" class="edge"><title>Node3&#45;&gt;Node10</title>
<path fill="none" stroke="midnightblue" d="M126.667,-218.622C111.687,-208.757 92.3025,-195.992 79.642,-187.655"/>
<polygon fill="midnightblue" stroke="midnightblue" points="125.049,-221.747 135.325,-224.324 128.899,-215.901 125.049,-221.747"/>
</g>
<!-- Node11 -->
<g id="node11" class="node"><title>Node11</title>
<g id="a_node11"><a xlink:href="a00531.html" target="_top" xlink:title="stm32f4xx_it.c">
<polygon fill="white" stroke="black" points="108,-168.5 108,-187.5 189,-187.5 189,-168.5 108,-168.5"/>
<text text-anchor="middle" x="148.5" y="-175.5" font-family="Helvetica,sans-Serif" font-size="10.00">stm32f4xx_it.c</text>
</a>
</g>
</g>
<!-- Node3&#45;&gt;Node11 -->
<g id="edge18" class="edge"><title>Node3&#45;&gt;Node11</title>
<path fill="none" stroke="midnightblue" d="M148.5,-213.805C148.5,-204.91 148.5,-194.78 148.5,-187.751"/>
<polygon fill="midnightblue" stroke="midnightblue" points="145,-214.083 148.5,-224.083 152,-214.083 145,-214.083"/>
</g>
<!-- Node4&#45;&gt;Node3 -->
<g id="edge9" class="edge"><title>Node4&#45;&gt;Node3</title>
<path fill="none" stroke="midnightblue" d="M230.614,-192.683C213.032,-202.675 187.737,-215.912 169.751,-224.444"/>
<polygon fill="midnightblue" stroke="midnightblue" points="232.61,-195.571 239.493,-187.516 229.09,-189.521 232.61,-195.571"/>
</g>
<!-- Node5 -->
<g id="node5" class="node"><title>Node5</title>
<g id="a_node5"><a xlink:href="a00126.html" target="_top" xlink:title="Controlling beam and primary actuators. ">
<polygon fill="white" stroke="black" points="138,-56.5 138,-75.5 203,-75.5 203,-56.5 138,-56.5"/>
<text text-anchor="middle" x="170.5" y="-63.5" font-family="Helvetica,sans-Serif" font-size="10.00">actuators.h</text>
</a>
</g>
</g>
<!-- Node4&#45;&gt;Node5 -->
<g id="edge4" class="edge"><title>Node4&#45;&gt;Node5</title>
<path fill="none" stroke="midnightblue" d="M222.145,-162.877C210.623,-154.79 198.213,-143.897 189.5,-132 176.287,-113.958 167.709,-88.7163 167.088,-75.6311"/>
<polygon fill="midnightblue" stroke="midnightblue" points="220.425,-165.934 230.708,-168.485 224.26,-160.078 220.425,-165.934"/>
</g>
<!-- Node4&#45;&gt;Node8 -->
<g id="edge10" class="edge"><title>Node4&#45;&gt;Node8</title>
<path fill="none" stroke="midnightblue" d="M215.892,-165.172C186.141,-155.004 143.953,-140.585 117.418,-131.516"/>
<polygon fill="midnightblue" stroke="midnightblue" points="214.87,-168.521 225.464,-168.444 217.134,-161.898 214.87,-168.521"/>
</g>
<!-- Node9 -->
<g id="node9" class="node"><title>Node9</title>
<g id="a_node9"><a xlink:href="a00127.html" target="_top" xlink:title="adc_dac_dma.c">
<polygon fill="white" stroke="black" points="207.5,-112.5 207.5,-131.5 293.5,-131.5 293.5,-112.5 207.5,-112.5"/>
<text text-anchor="middle" x="250.5" y="-119.5" font-family="Helvetica,sans-Serif" font-size="10.00">adc_dac_dma.c</text>
</a>
</g>
</g>
<!-- Node4&#45;&gt;Node9 -->
<g id="edge14" class="edge"><title>Node4&#45;&gt;Node9</title>
<path fill="none" stroke="midnightblue" d="M250.5,-157.805C250.5,-148.91 250.5,-138.78 250.5,-131.751"/>
<polygon fill="midnightblue" stroke="midnightblue" points="247,-158.083 250.5,-168.083 254,-158.083 247,-158.083"/>
</g>
<!-- Node5&#45;&gt;Node3 -->
<g id="edge5" class="edge"><title>Node5&#45;&gt;Node3</title>
<path fill="none" stroke="midnightblue" d="M127.823,-71.7151C99.8563,-77.0052 64.5278,-88.2227 42.5,-112 24.9891,-130.902 30.8621,-142.454 27.5,-168 26.3401,-176.813 22.427,-180.701 27.5,-188 33.32,-196.374 92.022,-215.586 125.473,-225.993"/>
<polygon fill="midnightblue" stroke="midnightblue" points="128.485,-75.1528 137.755,-70.0221 127.309,-68.2523 128.485,-75.1528"/>
</g>
<!-- Node5&#45;&gt;Node4 -->
<g id="edge6" class="edge"><title>Node5&#45;&gt;Node4</title>
<path fill="none" stroke="midnightblue" d="M183.151,-84.9474C189.385,-98.6737 196.971,-117.623 207.5,-132 218.363,-146.834 234.974,-160.105 244.527,-168.326"/>
<polygon fill="midnightblue" stroke="midnightblue" points="186.141,-83.0934 178.62,-75.6311 179.846,-86.1548 186.141,-83.0934"/>
</g>
<!-- Node6 -->
<g id="node6" class="node"><title>Node6</title>
<g id="a_node6"><a xlink:href="a00125.html" target="_top" xlink:title="Controlling beam and primary actuators. ">
<polygon fill="white" stroke="black" points="138,-0.5 138,-19.5 203,-19.5 203,-0.5 138,-0.5"/>
<text text-anchor="middle" x="170.5" y="-7.5" font-family="Helvetica,sans-Serif" font-size="10.00">actuators.c</text>
</a>
</g>
</g>
<!-- Node5&#45;&gt;Node6 -->
<g id="edge7" class="edge"><title>Node5&#45;&gt;Node6</title>
<path fill="none" stroke="midnightblue" d="M170.5,-45.8045C170.5,-36.9102 170.5,-26.7798 170.5,-19.7511"/>
<polygon fill="midnightblue" stroke="midnightblue" points="167,-46.083 170.5,-56.083 174,-46.083 167,-46.083"/>
</g>
<!-- Node5&#45;&gt;Node7 -->
<g id="edge8" class="edge"><title>Node5&#45;&gt;Node7</title>
<path fill="none" stroke="midnightblue" d="M197.262,-51.8622C217.659,-41.8492 245.166,-28.3458 262.87,-19.6545"/>
<polygon fill="midnightblue" stroke="midnightblue" points="195.608,-48.7753 188.173,-56.324 198.692,-55.059 195.608,-48.7753"/>
</g>
<!-- Node8&#45;&gt;Node3 -->
<g id="edge11" class="edge"><title>Node8&#45;&gt;Node3</title>
<path fill="none" stroke="midnightblue" d="M72.251,-137.071C53.4218,-149.658 30.574,-169.001 43.5,-188 48.7065,-195.653 99.5006,-213.691 128.68,-224.462"/>
<polygon fill="midnightblue" stroke="midnightblue" points="74.2094,-139.973 80.7366,-131.628 70.4298,-134.082 74.2094,-139.973"/>
</g>
<!-- Node8&#45;&gt;Node5 -->
<g id="edge12" class="edge"><title>Node8&#45;&gt;Node5</title>
<path fill="none" stroke="midnightblue" d="M113.268,-106.622C127.517,-96.7574 145.956,-83.9919 157.999,-75.6545"/>
<polygon fill="midnightblue" stroke="midnightblue" points="111.262,-103.754 105.032,-112.324 115.246,-109.51 111.262,-103.754"/>
</g>
<!-- Node8&#45;&gt;Node7 -->
<g id="edge13" class="edge"><title>Node8&#45;&gt;Node7</title>
<path fill="none" stroke="midnightblue" d="M134.891,-109.461C158.5,-101.958 187.817,-90.7999 211.5,-76 237.18,-59.9522 261.59,-33.394 273.29,-19.7244"/>
<polygon fill="midnightblue" stroke="midnightblue" points="133.686,-106.169 125.155,-112.452 135.742,-112.86 133.686,-106.169"/>
</g>
</g>
</svg>
