<?xml version="1.0" encoding="UTF-8" standalone="no"?>
<!DOCTYPE svg PUBLIC "-//W3C//DTD SVG 1.1//EN"
 "http://www.w3.org/Graphics/SVG/1.1/DTD/svg11.dtd">
<!-- Generated by graphviz version 2.38.0 (20140413.2041)
 -->
<!-- Title: pid.c Pages: 1 -->
<svg width="555pt" height="252pt"
 viewBox="0.00 0.00 554.50 252.00" xmlns="http://www.w3.org/2000/svg" xmlns:xlink="http://www.w3.org/1999/xlink">
<g id="graph0" class="graph" transform="scale(1 1) rotate(0) translate(4 248)">
<title>pid.c</title>
<polygon fill="white" stroke="none" points="-4,4 -4,-248 550.5,-248 550.5,4 -4,4"/>
<!-- Node1 -->
<g id="node1" class="node"><title>Node1</title>
<polygon fill="#bfbfbf" stroke="black" points="162,-224.5 162,-243.5 200,-243.5 200,-224.5 162,-224.5"/>
<text text-anchor="middle" x="181" y="-231.5" font-family="Helvetica,sans-Serif" font-size="10.00">pid.c</text>
</g>
<!-- Node2 -->
<g id="node2" class="node"><title>Node2</title>
<g id="a_node2"><a xlink:href="a00479.html" target="_top" xlink:title="PID compensator implementation. ">
<polygon fill="white" stroke="black" points="162,-168.5 162,-187.5 200,-187.5 200,-168.5 162,-168.5"/>
<text text-anchor="middle" x="181" y="-175.5" font-family="Helvetica,sans-Serif" font-size="10.00">pid.h</text>
</a>
</g>
</g>
<!-- Node1&#45;&gt;Node2 -->
<g id="edge1" class="edge"><title>Node1&#45;&gt;Node2</title>
<path fill="none" stroke="midnightblue" d="M181,-224.083C181,-217.006 181,-206.861 181,-197.986"/>
<polygon fill="midnightblue" stroke="midnightblue" points="184.5,-197.751 181,-187.751 177.5,-197.751 184.5,-197.751"/>
</g>
<!-- Node3 -->
<g id="node3" class="node"><title>Node3</title>
<polygon fill="white" stroke="#bfbfbf" points="0,-112.5 0,-131.5 48,-131.5 48,-112.5 0,-112.5"/>
<text text-anchor="middle" x="24" y="-119.5" font-family="Helvetica,sans-Serif" font-size="10.00">stdlib.h</text>
</g>
<!-- Node2&#45;&gt;Node3 -->
<g id="edge2" class="edge"><title>Node2&#45;&gt;Node3</title>
<path fill="none" stroke="midnightblue" d="M161.749,-170.379C135.889,-161.484 89.5199,-145.536 57.7828,-134.62"/>
<polygon fill="midnightblue" stroke="midnightblue" points="58.6319,-131.21 48.0372,-131.268 56.3551,-137.83 58.6319,-131.21"/>
</g>
<!-- Node4 -->
<g id="node4" class="node"><title>Node4</title>
<polygon fill="white" stroke="#bfbfbf" points="66,-112.5 66,-131.5 112,-131.5 112,-112.5 66,-112.5"/>
<text text-anchor="middle" x="89" y="-119.5" font-family="Helvetica,sans-Serif" font-size="10.00">stdio.h</text>
</g>
<!-- Node2&#45;&gt;Node4 -->
<g id="edge3" class="edge"><title>Node2&#45;&gt;Node4</title>
<path fill="none" stroke="midnightblue" d="M166.219,-168.324C151.733,-159.822 129.427,-146.729 112.507,-136.797"/>
<polygon fill="midnightblue" stroke="midnightblue" points="114.141,-133.698 103.745,-131.655 110.597,-139.735 114.141,-133.698"/>
</g>
<!-- Node5 -->
<g id="node5" class="node"><title>Node5</title>
<polygon fill="white" stroke="#bfbfbf" points="130.5,-112.5 130.5,-131.5 179.5,-131.5 179.5,-112.5 130.5,-112.5"/>
<text text-anchor="middle" x="155" y="-119.5" font-family="Helvetica,sans-Serif" font-size="10.00">string.h</text>
</g>
<!-- Node2&#45;&gt;Node5 -->
<g id="edge4" class="edge"><title>Node2&#45;&gt;Node5</title>
<path fill="none" stroke="midnightblue" d="M176.707,-168.083C173.148,-160.691 167.978,-149.953 163.576,-140.811"/>
<polygon fill="midnightblue" stroke="midnightblue" points="166.705,-139.243 159.213,-131.751 160.398,-142.279 166.705,-139.243"/>
</g>
<!-- Node6 -->
<g id="node6" class="node"><title>Node6</title>
<polygon fill="white" stroke="#bfbfbf" points="191.5,-0.5 191.5,-19.5 240.5,-19.5 240.5,-0.5 191.5,-0.5"/>
<text text-anchor="middle" x="216" y="-7.5" font-family="Helvetica,sans-Serif" font-size="10.00">stdint.h</text>
</g>
<!-- Node2&#45;&gt;Node6 -->
<g id="edge5" class="edge"><title>Node2&#45;&gt;Node6</title>
<path fill="none" stroke="midnightblue" d="M182.882,-168.075C188.391,-141.945 204.57,-65.2106 212.083,-29.577"/>
<polygon fill="midnightblue" stroke="midnightblue" points="215.555,-30.0751 214.193,-19.5681 208.706,-28.6309 215.555,-30.0751"/>
</g>
<!-- Node7 -->
<g id="node7" class="node"><title>Node7</title>
<g id="a_node7"><a xlink:href="a00484.html" target="_top" xlink:title="CMSIS Cortex&#45;M4 Device Peripheral Access Layer Header File. This file contains all the peripheral reg...">
<polygon fill="white" stroke="black" points="236.5,-112.5 236.5,-131.5 307.5,-131.5 307.5,-112.5 236.5,-112.5"/>
<text text-anchor="middle" x="272" y="-119.5" font-family="Helvetica,sans-Serif" font-size="10.00">stm32f4xx.h</text>
</a>
</g>
</g>
<!-- Node2&#45;&gt;Node7 -->
<g id="edge6" class="edge"><title>Node2&#45;&gt;Node7</title>
<path fill="none" stroke="midnightblue" d="M195.621,-168.324C209.949,-159.822 232.013,-146.729 248.749,-136.797"/>
<polygon fill="midnightblue" stroke="midnightblue" points="250.602,-139.768 257.416,-131.655 247.03,-133.748 250.602,-139.768"/>
</g>
<!-- Node13 -->
<g id="node13" class="node"><title>Node13</title>
<g id="a_node13"><a xlink:href="a00434.html" target="_top" xlink:title="Global defines include file. ">
<polygon fill="white" stroke="black" points="326,-112.5 326,-131.5 382,-131.5 382,-112.5 326,-112.5"/>
<text text-anchor="middle" x="354" y="-119.5" font-family="Helvetica,sans-Serif" font-size="10.00">globals.h</text>
</a>
</g>
</g>
<!-- Node2&#45;&gt;Node13 -->
<g id="edge14" class="edge"><title>Node2&#45;&gt;Node13</title>
<path fill="none" stroke="midnightblue" d="M200.175,-171.015C228.239,-162.255 281.048,-145.771 316.872,-134.589"/>
<polygon fill="midnightblue" stroke="midnightblue" points="317.988,-137.907 326.491,-131.587 315.902,-131.225 317.988,-137.907"/>
</g>
<!-- Node7&#45;&gt;Node6 -->
<g id="edge13" class="edge"><title>Node7&#45;&gt;Node6</title>
<path fill="none" stroke="midnightblue" d="M267.606,-112.368C258.446,-94.376 237.153,-52.5503 224.974,-28.6267"/>
<polygon fill="midnightblue" stroke="midnightblue" points="228.03,-26.9152 220.374,-19.5914 221.792,-30.091 228.03,-26.9152"/>
</g>
<!-- Node8 -->
<g id="node8" class="node"><title>Node8</title>
<g id="a_node8"><a xlink:href="a00427.html" target="_top" xlink:title="CMSIS Cortex&#45;M4 Core Peripheral Access Layer Header File. ">
<polygon fill="white" stroke="black" points="274,-56.5 274,-75.5 342,-75.5 342,-56.5 274,-56.5"/>
<text text-anchor="middle" x="308" y="-63.5" font-family="Helvetica,sans-Serif" font-size="10.00">core_cm4.h</text>
</a>
</g>
</g>
<!-- Node7&#45;&gt;Node8 -->
<g id="edge7" class="edge"><title>Node7&#45;&gt;Node8</title>
<path fill="none" stroke="midnightblue" d="M277.945,-112.083C282.977,-104.534 290.337,-93.4948 296.513,-84.2298"/>
<polygon fill="midnightblue" stroke="midnightblue" points="299.531,-86.0131 302.166,-75.7511 293.707,-82.1301 299.531,-86.0131"/>
</g>
<!-- Node12 -->
<g id="node12" class="node"><title>Node12</title>
<g id="a_node12"><a xlink:href="a00568_source.html" target="_top" xlink:title="system_stm32f4xx.h">
<polygon fill="white" stroke="black" points="360,-56.5 360,-75.5 468,-75.5 468,-56.5 360,-56.5"/>
<text text-anchor="middle" x="414" y="-63.5" font-family="Helvetica,sans-Serif" font-size="10.00">system_stm32f4xx.h</text>
</a>
</g>
</g>
<!-- Node7&#45;&gt;Node12 -->
<g id="edge12" class="edge"><title>Node7&#45;&gt;Node12</title>
<path fill="none" stroke="midnightblue" d="M294.5,-112.444C318.077,-103.478 355.322,-89.314 381.964,-79.1827"/>
<polygon fill="midnightblue" stroke="midnightblue" points="383.502,-82.3424 391.605,-75.5164 381.014,-75.7995 383.502,-82.3424"/>
</g>
<!-- Node8&#45;&gt;Node6 -->
<g id="edge8" class="edge"><title>Node8&#45;&gt;Node6</title>
<path fill="none" stroke="midnightblue" d="M293.219,-56.324C278.733,-47.8215 256.427,-34.7288 239.507,-24.7975"/>
<polygon fill="midnightblue" stroke="midnightblue" points="241.141,-21.6981 230.745,-19.6545 237.597,-27.735 241.141,-21.6981"/>
</g>
<!-- Node9 -->
<g id="node9" class="node"><title>Node9</title>
<g id="a_node9"><a xlink:href="a00430.html" target="_top" xlink:title="CMSIS Cortex&#45;M Core Instruction Access Header File. ">
<polygon fill="white" stroke="black" points="259,-0.5 259,-19.5 341,-19.5 341,-0.5 259,-0.5"/>
<text text-anchor="middle" x="300" y="-7.5" font-family="Helvetica,sans-Serif" font-size="10.00">core_cmInstr.h</text>
</a>
</g>
</g>
<!-- Node8&#45;&gt;Node9 -->
<g id="edge9" class="edge"><title>Node8&#45;&gt;Node9</title>
<path fill="none" stroke="midnightblue" d="M306.679,-56.083C305.619,-48.9272 304.094,-38.6353 302.769,-29.6911"/>
<polygon fill="midnightblue" stroke="midnightblue" points="306.224,-29.1302 301.296,-19.7511 299.3,-30.1561 306.224,-29.1302"/>
</g>
<!-- Node10 -->
<g id="node10" class="node"><title>Node10</title>
<g id="a_node10"><a xlink:href="a00429.html" target="_top" xlink:title="CMSIS Cortex&#45;M Core Function Access Header File. ">
<polygon fill="white" stroke="black" points="359,-0.5 359,-19.5 443,-19.5 443,-0.5 359,-0.5"/>
<text text-anchor="middle" x="401" y="-7.5" font-family="Helvetica,sans-Serif" font-size="10.00">core_cmFunc.h</text>
</a>
</g>
</g>
<!-- Node8&#45;&gt;Node10 -->
<g id="edge10" class="edge"><title>Node8&#45;&gt;Node10</title>
<path fill="none" stroke="midnightblue" d="M322.942,-56.324C337.585,-47.8215 360.134,-34.7288 377.238,-24.7975"/>
<polygon fill="midnightblue" stroke="midnightblue" points="379.205,-27.7027 386.095,-19.6545 375.69,-21.6491 379.205,-27.7027"/>
</g>
<!-- Node11 -->
<g id="node11" class="node"><title>Node11</title>
<g id="a_node11"><a xlink:href="a00431.html" target="_top" xlink:title="CMSIS Cortex&#45;M SIMD Header File. ">
<polygon fill="white" stroke="black" points="461.5,-0.5 461.5,-19.5 546.5,-19.5 546.5,-0.5 461.5,-0.5"/>
<text text-anchor="middle" x="504" y="-7.5" font-family="Helvetica,sans-Serif" font-size="10.00">core_cmSimd.h</text>
</a>
</g>
</g>
<!-- Node8&#45;&gt;Node11 -->
<g id="edge11" class="edge"><title>Node8&#45;&gt;Node11</title>
<path fill="none" stroke="midnightblue" d="M339.057,-56.4435C372.603,-47.2011 426.197,-32.4356 463.141,-22.2572"/>
<polygon fill="midnightblue" stroke="midnightblue" points="464.377,-25.5469 473.089,-19.5164 462.518,-18.7984 464.377,-25.5469"/>
</g>
</g>
</svg>
