<?xml version="1.0" encoding="UTF-8" standalone="no"?>
<!DOCTYPE svg PUBLIC "-//W3C//DTD SVG 1.1//EN"
 "http://www.w3.org/Graphics/SVG/1.1/DTD/svg11.dtd">
<!-- Generated by graphviz version 2.38.0 (20140413.2041)
 -->
<!-- Title: stm32f4xx_usart.h Pages: 1 -->
<svg width="598pt" height="364pt"
 viewBox="0.00 0.00 597.56 364.00" xmlns="http://www.w3.org/2000/svg" xmlns:xlink="http://www.w3.org/1999/xlink">
<g id="graph0" class="graph" transform="scale(1 1) rotate(0) translate(4 360)">
<title>stm32f4xx_usart.h</title>
<polygon fill="white" stroke="none" points="-4,4 -4,-360 593.563,-360 593.563,4 -4,4"/>
<!-- Node1 -->
<g id="node1" class="node"><title>Node1</title>
<polygon fill="#bfbfbf" stroke="black" points="255,-336.5 255,-355.5 353,-355.5 353,-336.5 255,-336.5"/>
<text text-anchor="middle" x="304" y="-343.5" font-family="Helvetica,sans-Serif" font-size="10.00">stm32f4xx_usart.h</text>
</g>
<!-- Node2 -->
<g id="node2" class="node"><title>Node2</title>
<g id="a_node2"><a xlink:href="a00574_source.html" target="_top" xlink:title="tm_stm32f4_usart.h">
<polygon fill="white" stroke="black" points="134,-280.5 134,-299.5 238,-299.5 238,-280.5 134,-280.5"/>
<text text-anchor="middle" x="186" y="-287.5" font-family="Helvetica,sans-Serif" font-size="10.00">tm_stm32f4_usart.h</text>
</a>
</g>
</g>
<!-- Node1&#45;&gt;Node2 -->
<g id="edge1" class="edge"><title>Node1&#45;&gt;Node2</title>
<path fill="none" stroke="midnightblue" d="M276.1,-332.232C254.027,-322.131 223.824,-308.309 204.61,-299.516"/>
<polygon fill="midnightblue" stroke="midnightblue" points="274.753,-335.465 285.303,-336.444 277.666,-329.1 274.753,-335.465"/>
</g>
<!-- Node15 -->
<g id="node15" class="node"><title>Node15</title>
<g id="a_node15"><a xlink:href="a00489_source.html" target="_top" xlink:title="stm32f4xx_conf.h">
<polygon fill="white" stroke="black" points="256.5,-280.5 256.5,-299.5 351.5,-299.5 351.5,-280.5 256.5,-280.5"/>
<text text-anchor="middle" x="304" y="-287.5" font-family="Helvetica,sans-Serif" font-size="10.00">stm32f4xx_conf.h</text>
</a>
</g>
</g>
<!-- Node1&#45;&gt;Node15 -->
<g id="edge22" class="edge"><title>Node1&#45;&gt;Node15</title>
<path fill="none" stroke="midnightblue" d="M304,-325.805C304,-316.91 304,-306.78 304,-299.751"/>
<polygon fill="midnightblue" stroke="midnightblue" points="300.5,-326.083 304,-336.083 307.5,-326.083 300.5,-326.083"/>
</g>
<!-- Node16 -->
<g id="node16" class="node"><title>Node16</title>
<g id="a_node16"><a xlink:href="a00559.html" target="_top" xlink:title="This file provides firmware functions to manage the following functionalities of the Universal synchr...">
<polygon fill="white" stroke="black" points="370,-280.5 370,-299.5 468,-299.5 468,-280.5 370,-280.5"/>
<text text-anchor="middle" x="419" y="-287.5" font-family="Helvetica,sans-Serif" font-size="10.00">stm32f4xx_usart.c</text>
</a>
</g>
</g>
<!-- Node1&#45;&gt;Node16 -->
<g id="edge23" class="edge"><title>Node1&#45;&gt;Node16</title>
<path fill="none" stroke="midnightblue" d="M331.481,-332.096C352.966,-322.007 382.222,-308.27 400.863,-299.516"/>
<polygon fill="midnightblue" stroke="midnightblue" points="329.786,-329.025 322.222,-336.444 332.762,-335.361 329.786,-329.025"/>
</g>
<!-- Node3 -->
<g id="node3" class="node"><title>Node3</title>
<g id="a_node3"><a xlink:href="a00573_source.html" target="_top" xlink:title="tm_stm32f4_usart.c">
<polygon fill="white" stroke="black" points="0,-224.5 0,-243.5 104,-243.5 104,-224.5 0,-224.5"/>
<text text-anchor="middle" x="52" y="-231.5" font-family="Helvetica,sans-Serif" font-size="10.00">tm_stm32f4_usart.c</text>
</a>
</g>
</g>
<!-- Node2&#45;&gt;Node3 -->
<g id="edge2" class="edge"><title>Node2&#45;&gt;Node3</title>
<path fill="none" stroke="midnightblue" d="M155.323,-276.638C130.177,-266.504 95.2459,-252.427 73.1334,-243.516"/>
<polygon fill="midnightblue" stroke="midnightblue" points="154.184,-279.952 164.767,-280.444 156.8,-273.459 154.184,-279.952"/>
</g>
<!-- Node4 -->
<g id="node4" class="node"><title>Node4</title>
<g id="a_node4"><a xlink:href="a00576_source.html" target="_top" xlink:title="tm_stm32f4_usart_dma.h">
<polygon fill="white" stroke="black" points="122,-224.5 122,-243.5 250,-243.5 250,-224.5 122,-224.5"/>
<text text-anchor="middle" x="186" y="-231.5" font-family="Helvetica,sans-Serif" font-size="10.00">tm_stm32f4_usart_dma.h</text>
</a>
</g>
</g>
<!-- Node2&#45;&gt;Node4 -->
<g id="edge3" class="edge"><title>Node2&#45;&gt;Node4</title>
<path fill="none" stroke="midnightblue" d="M186,-269.805C186,-260.91 186,-250.78 186,-243.751"/>
<polygon fill="midnightblue" stroke="midnightblue" points="182.5,-270.083 186,-280.083 189.5,-270.083 182.5,-270.083"/>
</g>
<!-- Node6 -->
<g id="node6" class="node"><title>Node6</title>
<g id="a_node6"><a xlink:href="a00440.html" target="_top" xlink:title="Main header definition. ">
<polygon fill="white" stroke="black" points="315,-224.5 315,-243.5 361,-243.5 361,-224.5 315,-224.5"/>
<text text-anchor="middle" x="338" y="-231.5" font-family="Helvetica,sans-Serif" font-size="10.00">main.h</text>
</a>
</g>
</g>
<!-- Node2&#45;&gt;Node6 -->
<g id="edge5" class="edge"><title>Node2&#45;&gt;Node6</title>
<path fill="none" stroke="midnightblue" d="M219.727,-277.018C248.512,-266.792 289.161,-252.351 314.527,-243.339"/>
<polygon fill="midnightblue" stroke="midnightblue" points="218.336,-273.798 210.085,-280.444 220.68,-280.394 218.336,-273.798"/>
</g>
<!-- Node5 -->
<g id="node5" class="node"><title>Node5</title>
<g id="a_node5"><a xlink:href="a00575_source.html" target="_top" xlink:title="tm_stm32f4_usart_dma.c">
<polygon fill="white" stroke="black" points="75,-168.5 75,-187.5 203,-187.5 203,-168.5 75,-168.5"/>
<text text-anchor="middle" x="139" y="-175.5" font-family="Helvetica,sans-Serif" font-size="10.00">tm_stm32f4_usart_dma.c</text>
</a>
</g>
</g>
<!-- Node4&#45;&gt;Node5 -->
<g id="edge4" class="edge"><title>Node4&#45;&gt;Node5</title>
<path fill="none" stroke="midnightblue" d="M171.579,-216.431C163.342,-206.967 153.346,-195.483 146.617,-187.751"/>
<polygon fill="midnightblue" stroke="midnightblue" points="169.034,-218.838 178.239,-224.083 174.314,-214.242 169.034,-218.838"/>
</g>
<!-- Node7 -->
<g id="node7" class="node"><title>Node7</title>
<g id="a_node7"><a xlink:href="a00128.html" target="_top" xlink:title="Provides DMA related configuration and access functions for ADC and DAC. ">
<polygon fill="white" stroke="black" points="479,-168.5 479,-187.5 565,-187.5 565,-168.5 479,-168.5"/>
<text text-anchor="middle" x="522" y="-175.5" font-family="Helvetica,sans-Serif" font-size="10.00">adc_dac_dma.h</text>
</a>
</g>
</g>
<!-- Node6&#45;&gt;Node7 -->
<g id="edge6" class="edge"><title>Node6&#45;&gt;Node7</title>
<path fill="none" stroke="midnightblue" d="M370.975,-221.675C404.036,-211.48 454.491,-196.725 487.936,-187.507"/>
<polygon fill="midnightblue" stroke="midnightblue" points="369.82,-218.368 361.311,-224.681 371.899,-225.053 369.82,-218.368"/>
</g>
<!-- Node10 -->
<g id="node10" class="node"><title>Node10</title>
<g id="a_node10"><a xlink:href="a00437.html" target="_top" xlink:title="Callback handler implementations. ">
<polygon fill="white" stroke="black" points="284,-0.5 284,-19.5 366,-19.5 366,-0.5 284,-0.5"/>
<text text-anchor="middle" x="325" y="-7.5" font-family="Helvetica,sans-Serif" font-size="10.00">irq_callbacks.c</text>
</a>
</g>
</g>
<!-- Node6&#45;&gt;Node10 -->
<g id="edge19" class="edge"><title>Node6&#45;&gt;Node10</title>
<path fill="none" stroke="midnightblue" d="M323.004,-216.918C306.837,-198.217 282.42,-165.6 275,-132 265.247,-87.8318 300.87,-39.2155 317.217,-19.7557"/>
<polygon fill="midnightblue" stroke="midnightblue" points="320.489,-219.356 329.76,-224.484 325.71,-214.693 320.489,-219.356"/>
</g>
<!-- Node11 -->
<g id="node11" class="node"><title>Node11</title>
<g id="a_node11"><a xlink:href="a00438.html" target="_top" xlink:title="Analog processing related callback handler definition. ">
<polygon fill="white" stroke="black" points="284,-112.5 284,-131.5 366,-131.5 366,-112.5 284,-112.5"/>
<text text-anchor="middle" x="325" y="-119.5" font-family="Helvetica,sans-Serif" font-size="10.00">irq_callbacks.h</text>
</a>
</g>
</g>
<!-- Node6&#45;&gt;Node11 -->
<g id="edge18" class="edge"><title>Node6&#45;&gt;Node11</title>
<path fill="none" stroke="midnightblue" d="M314.819,-217.057C307.389,-209.002 300.412,-198.685 297,-188 290.634,-168.064 302.307,-144.427 313.036,-131.873"/>
<polygon fill="midnightblue" stroke="midnightblue" points="312.667,-219.844 322.285,-224.286 317.536,-214.816 312.667,-219.844"/>
</g>
<!-- Node13 -->
<g id="node13" class="node"><title>Node13</title>
<g id="a_node13"><a xlink:href="a00439.html" target="_top" xlink:title="Main source implementation (29&#45;04&#45;2015) ">
<polygon fill="white" stroke="black" points="315,-168.5 315,-187.5 361,-187.5 361,-168.5 315,-168.5"/>
<text text-anchor="middle" x="338" y="-175.5" font-family="Helvetica,sans-Serif" font-size="10.00">main.c</text>
</a>
</g>
</g>
<!-- Node6&#45;&gt;Node13 -->
<g id="edge20" class="edge"><title>Node6&#45;&gt;Node13</title>
<path fill="none" stroke="midnightblue" d="M338,-213.805C338,-204.91 338,-194.78 338,-187.751"/>
<polygon fill="midnightblue" stroke="midnightblue" points="334.5,-214.083 338,-224.083 341.5,-214.083 334.5,-214.083"/>
</g>
<!-- Node14 -->
<g id="node14" class="node"><title>Node14</title>
<g id="a_node14"><a xlink:href="a00529.html" target="_top" xlink:title="stm32f4xx_it.c">
<polygon fill="white" stroke="black" points="379.5,-168.5 379.5,-187.5 460.5,-187.5 460.5,-168.5 379.5,-168.5"/>
<text text-anchor="middle" x="420" y="-175.5" font-family="Helvetica,sans-Serif" font-size="10.00">stm32f4xx_it.c</text>
</a>
</g>
</g>
<!-- Node6&#45;&gt;Node14 -->
<g id="edge21" class="edge"><title>Node6&#45;&gt;Node14</title>
<path fill="none" stroke="midnightblue" d="M359.833,-218.622C374.813,-208.757 394.197,-195.992 406.858,-187.655"/>
<polygon fill="midnightblue" stroke="midnightblue" points="357.601,-215.901 351.175,-224.324 361.451,-221.747 357.601,-215.901"/>
</g>
<!-- Node7&#45;&gt;Node6 -->
<g id="edge12" class="edge"><title>Node7&#45;&gt;Node6</title>
<path fill="none" stroke="midnightblue" d="M488.15,-190.595C451.262,-201.954 393.481,-218.779 361.306,-227.424"/>
<polygon fill="midnightblue" stroke="midnightblue" points="489.45,-193.856 497.962,-187.548 487.373,-187.171 489.45,-193.856"/>
</g>
<!-- Node8 -->
<g id="node8" class="node"><title>Node8</title>
<g id="a_node8"><a xlink:href="a00126.html" target="_top" xlink:title="Controlling beam and primary actuators. ">
<polygon fill="white" stroke="black" points="409.5,-56.5 409.5,-75.5 474.5,-75.5 474.5,-56.5 409.5,-56.5"/>
<text text-anchor="middle" x="442" y="-63.5" font-family="Helvetica,sans-Serif" font-size="10.00">actuators.h</text>
</a>
</g>
</g>
<!-- Node7&#45;&gt;Node8 -->
<g id="edge7" class="edge"><title>Node7&#45;&gt;Node8</title>
<path fill="none" stroke="midnightblue" d="M493.645,-162.877C482.123,-154.79 469.713,-143.897 461,-132 447.787,-113.958 439.209,-88.7163 438.588,-75.6311"/>
<polygon fill="midnightblue" stroke="midnightblue" points="491.925,-165.934 502.208,-168.485 495.76,-160.078 491.925,-165.934"/>
</g>
<!-- Node7&#45;&gt;Node11 -->
<g id="edge13" class="edge"><title>Node7&#45;&gt;Node11</title>
<path fill="none" stroke="midnightblue" d="M480.771,-165.699C443.591,-155.507 389.729,-140.743 356.069,-131.516"/>
<polygon fill="midnightblue" stroke="midnightblue" points="480.215,-169.175 490.785,-168.444 482.066,-162.424 480.215,-169.175"/>
</g>
<!-- Node12 -->
<g id="node12" class="node"><title>Node12</title>
<g id="a_node12"><a xlink:href="a00127.html" target="_top" xlink:title="adc_dac_dma.c">
<polygon fill="white" stroke="black" points="479,-112.5 479,-131.5 565,-131.5 565,-112.5 479,-112.5"/>
<text text-anchor="middle" x="522" y="-119.5" font-family="Helvetica,sans-Serif" font-size="10.00">adc_dac_dma.c</text>
</a>
</g>
</g>
<!-- Node7&#45;&gt;Node12 -->
<g id="edge17" class="edge"><title>Node7&#45;&gt;Node12</title>
<path fill="none" stroke="midnightblue" d="M522,-157.805C522,-148.91 522,-138.78 522,-131.751"/>
<polygon fill="midnightblue" stroke="midnightblue" points="518.5,-158.083 522,-168.083 525.5,-158.083 518.5,-158.083"/>
</g>
<!-- Node8&#45;&gt;Node6 -->
<g id="edge8" class="edge"><title>Node8&#45;&gt;Node6</title>
<path fill="none" stroke="midnightblue" d="M484.88,-69.1324C515.2,-73.1507 553.897,-83.9073 574,-112 593.657,-139.469 595.532,-161.975 574,-188 547.079,-220.539 415.081,-229.757 361.086,-232.189"/>
<polygon fill="midnightblue" stroke="midnightblue" points="484.876,-65.6101 474.549,-67.9747 484.097,-72.5666 484.876,-65.6101"/>
</g>
<!-- Node8&#45;&gt;Node7 -->
<g id="edge9" class="edge"><title>Node8&#45;&gt;Node7</title>
<path fill="none" stroke="midnightblue" d="M454.651,-84.9474C460.885,-98.6737 468.471,-117.623 479,-132 489.863,-146.834 506.474,-160.105 516.027,-168.326"/>
<polygon fill="midnightblue" stroke="midnightblue" points="457.641,-83.0934 450.12,-75.6311 451.346,-86.1548 457.641,-83.0934"/>
</g>
<!-- Node9 -->
<g id="node9" class="node"><title>Node9</title>
<g id="a_node9"><a xlink:href="a00125.html" target="_top" xlink:title="Controlling beam and primary actuators. ">
<polygon fill="white" stroke="black" points="409.5,-0.5 409.5,-19.5 474.5,-19.5 474.5,-0.5 409.5,-0.5"/>
<text text-anchor="middle" x="442" y="-7.5" font-family="Helvetica,sans-Serif" font-size="10.00">actuators.c</text>
</a>
</g>
</g>
<!-- Node8&#45;&gt;Node9 -->
<g id="edge10" class="edge"><title>Node8&#45;&gt;Node9</title>
<path fill="none" stroke="midnightblue" d="M442,-45.8045C442,-36.9102 442,-26.7798 442,-19.7511"/>
<polygon fill="midnightblue" stroke="midnightblue" points="438.5,-46.083 442,-56.083 445.5,-46.083 438.5,-46.083"/>
</g>
<!-- Node8&#45;&gt;Node10 -->
<g id="edge11" class="edge"><title>Node8&#45;&gt;Node10</title>
<path fill="none" stroke="midnightblue" d="M414.336,-52.2321C392.451,-42.1312 362.503,-28.3091 343.452,-19.5164"/>
<polygon fill="midnightblue" stroke="midnightblue" points="412.915,-55.4308 423.461,-56.4435 415.848,-49.075 412.915,-55.4308"/>
</g>
<!-- Node11&#45;&gt;Node6 -->
<g id="edge14" class="edge"><title>Node11&#45;&gt;Node6</title>
<path fill="none" stroke="midnightblue" d="M321.173,-141.548C316.063,-154.591 310.027,-172.425 315,-188 319.549,-202.246 330.437,-215.84 336.212,-224.286"/>
<polygon fill="midnightblue" stroke="midnightblue" points="324.575,-142.46 324.985,-131.873 318.063,-139.894 324.575,-142.46"/>
</g>
<!-- Node11&#45;&gt;Node8 -->
<g id="edge15" class="edge"><title>Node11&#45;&gt;Node8</title>
<path fill="none" stroke="midnightblue" d="M352.664,-108.232C374.549,-98.1312 404.497,-84.3091 423.548,-75.5164"/>
<polygon fill="midnightblue" stroke="midnightblue" points="351.152,-105.075 343.539,-112.444 354.085,-111.431 351.152,-105.075"/>
</g>
<!-- Node11&#45;&gt;Node10 -->
<g id="edge16" class="edge"><title>Node11&#45;&gt;Node10</title>
<path fill="none" stroke="midnightblue" d="M325,-102.348C325,-78.2538 325,-37.3079 325,-19.5914"/>
<polygon fill="midnightblue" stroke="midnightblue" points="321.5,-102.368 325,-112.368 328.5,-102.369 321.5,-102.368"/>
</g>
</g>
</svg>
