<?xml version="1.0" encoding="UTF-8" standalone="no"?>
<!DOCTYPE svg PUBLIC "-//W3C//DTD SVG 1.1//EN"
 "http://www.w3.org/Graphics/SVG/1.1/DTD/svg11.dtd">
<!-- Generated by graphviz version 2.38.0 (20140413.2041)
 -->
<!-- Title: stm32f4xx_cryp_tdes.c Pages: 1 -->
<svg width="363pt" height="252pt"
 viewBox="0.00 0.00 363.00 252.00" xmlns="http://www.w3.org/2000/svg" xmlns:xlink="http://www.w3.org/1999/xlink">
<g id="graph0" class="graph" transform="scale(1 1) rotate(0) translate(4 248)">
<title>stm32f4xx_cryp_tdes.c</title>
<polygon fill="white" stroke="none" points="-4,4 -4,-248 359,-248 359,4 -4,4"/>
<!-- Node1 -->
<g id="node1" class="node"><title>Node1</title>
<polygon fill="#bfbfbf" stroke="black" points="49,-224.5 49,-243.5 168,-243.5 168,-224.5 49,-224.5"/>
<text text-anchor="middle" x="108.5" y="-231.5" font-family="Helvetica,sans-Serif" font-size="10.00">stm32f4xx_cryp_tdes.c</text>
</g>
<!-- Node2 -->
<g id="node2" class="node"><title>Node2</title>
<g id="a_node2"><a xlink:href="a00495.html" target="_top" xlink:title="This file contains all the functions prototypes for the Cryptographic processor(CRYP) firmware librar...">
<polygon fill="white" stroke="black" points="61,-168.5 61,-187.5 156,-187.5 156,-168.5 61,-168.5"/>
<text text-anchor="middle" x="108.5" y="-175.5" font-family="Helvetica,sans-Serif" font-size="10.00">stm32f4xx_cryp.h</text>
</a>
</g>
</g>
<!-- Node1&#45;&gt;Node2 -->
<g id="edge1" class="edge"><title>Node1&#45;&gt;Node2</title>
<path fill="none" stroke="midnightblue" d="M108.5,-224.083C108.5,-217.006 108.5,-206.861 108.5,-197.986"/>
<polygon fill="midnightblue" stroke="midnightblue" points="112,-197.751 108.5,-187.751 105,-197.751 112,-197.751"/>
</g>
<!-- Node3 -->
<g id="node3" class="node"><title>Node3</title>
<g id="a_node3"><a xlink:href="a00484.html" target="_top" xlink:title="CMSIS Cortex&#45;M4 Device Peripheral Access Layer Header File. This file contains all the peripheral reg...">
<polygon fill="white" stroke="black" points="73,-112.5 73,-131.5 144,-131.5 144,-112.5 73,-112.5"/>
<text text-anchor="middle" x="108.5" y="-119.5" font-family="Helvetica,sans-Serif" font-size="10.00">stm32f4xx.h</text>
</a>
</g>
</g>
<!-- Node2&#45;&gt;Node3 -->
<g id="edge2" class="edge"><title>Node2&#45;&gt;Node3</title>
<path fill="none" stroke="midnightblue" d="M108.5,-168.083C108.5,-161.006 108.5,-150.861 108.5,-141.986"/>
<polygon fill="midnightblue" stroke="midnightblue" points="112,-141.751 108.5,-131.751 105,-141.751 112,-141.751"/>
</g>
<!-- Node4 -->
<g id="node4" class="node"><title>Node4</title>
<g id="a_node4"><a xlink:href="a00427.html" target="_top" xlink:title="CMSIS Cortex&#45;M4 Core Peripheral Access Layer Header File. ">
<polygon fill="white" stroke="black" points="74.5,-56.5 74.5,-75.5 142.5,-75.5 142.5,-56.5 74.5,-56.5"/>
<text text-anchor="middle" x="108.5" y="-63.5" font-family="Helvetica,sans-Serif" font-size="10.00">core_cm4.h</text>
</a>
</g>
</g>
<!-- Node3&#45;&gt;Node4 -->
<g id="edge3" class="edge"><title>Node3&#45;&gt;Node4</title>
<path fill="none" stroke="midnightblue" d="M108.5,-112.083C108.5,-105.006 108.5,-94.8611 108.5,-85.9865"/>
<polygon fill="midnightblue" stroke="midnightblue" points="112,-85.751 108.5,-75.7511 105,-85.7511 112,-85.751"/>
</g>
<!-- Node5 -->
<g id="node5" class="node"><title>Node5</title>
<polygon fill="white" stroke="#bfbfbf" points="0,-0.5 0,-19.5 49,-19.5 49,-0.5 0,-0.5"/>
<text text-anchor="middle" x="24.5" y="-7.5" font-family="Helvetica,sans-Serif" font-size="10.00">stdint.h</text>
</g>
<!-- Node3&#45;&gt;Node5 -->
<g id="edge9" class="edge"><title>Node3&#45;&gt;Node5</title>
<path fill="none" stroke="midnightblue" d="M99.0383,-112.183C89.9219,-103.446 76.0043,-89.4593 65.5,-76 53.6101,-60.7654 42.0496,-41.962 34.252,-28.5052"/>
<polygon fill="midnightblue" stroke="midnightblue" points="37.2749,-26.7406 29.2883,-19.779 31.1904,-30.2017 37.2749,-26.7406"/>
</g>
<!-- Node9 -->
<g id="node9" class="node"><title>Node9</title>
<g id="a_node9"><a xlink:href="a00568_source.html" target="_top" xlink:title="system_stm32f4xx.h">
<polygon fill="white" stroke="black" points="160.5,-56.5 160.5,-75.5 268.5,-75.5 268.5,-56.5 160.5,-56.5"/>
<text text-anchor="middle" x="214.5" y="-63.5" font-family="Helvetica,sans-Serif" font-size="10.00">system_stm32f4xx.h</text>
</a>
</g>
</g>
<!-- Node3&#45;&gt;Node9 -->
<g id="edge8" class="edge"><title>Node3&#45;&gt;Node9</title>
<path fill="none" stroke="midnightblue" d="M125.531,-112.324C142.53,-103.664 168.876,-90.2424 188.493,-80.249"/>
<polygon fill="midnightblue" stroke="midnightblue" points="190.19,-83.3125 197.512,-75.6545 187.012,-77.0752 190.19,-83.3125"/>
</g>
<!-- Node4&#45;&gt;Node5 -->
<g id="edge4" class="edge"><title>Node4&#45;&gt;Node5</title>
<path fill="none" stroke="midnightblue" d="M95.0039,-56.324C81.9004,-47.9002 61.7881,-34.9709 46.3931,-25.0741"/>
<polygon fill="midnightblue" stroke="midnightblue" points="48.267,-22.118 37.9626,-19.6545 44.4817,-28.0063 48.267,-22.118"/>
</g>
<!-- Node6 -->
<g id="node6" class="node"><title>Node6</title>
<g id="a_node6"><a xlink:href="a00430.html" target="_top" xlink:title="CMSIS Cortex&#45;M Core Instruction Access Header File. ">
<polygon fill="white" stroke="black" points="67.5,-0.5 67.5,-19.5 149.5,-19.5 149.5,-0.5 67.5,-0.5"/>
<text text-anchor="middle" x="108.5" y="-7.5" font-family="Helvetica,sans-Serif" font-size="10.00">core_cmInstr.h</text>
</a>
</g>
</g>
<!-- Node4&#45;&gt;Node6 -->
<g id="edge5" class="edge"><title>Node4&#45;&gt;Node6</title>
<path fill="none" stroke="midnightblue" d="M108.5,-56.083C108.5,-49.0059 108.5,-38.8611 108.5,-29.9865"/>
<polygon fill="midnightblue" stroke="midnightblue" points="112,-29.751 108.5,-19.7511 105,-29.7511 112,-29.751"/>
</g>
<!-- Node7 -->
<g id="node7" class="node"><title>Node7</title>
<g id="a_node7"><a xlink:href="a00429.html" target="_top" xlink:title="CMSIS Cortex&#45;M Core Function Access Header File. ">
<polygon fill="white" stroke="black" points="167.5,-0.5 167.5,-19.5 251.5,-19.5 251.5,-0.5 167.5,-0.5"/>
<text text-anchor="middle" x="209.5" y="-7.5" font-family="Helvetica,sans-Serif" font-size="10.00">core_cmFunc.h</text>
</a>
</g>
</g>
<!-- Node4&#45;&gt;Node7 -->
<g id="edge6" class="edge"><title>Node4&#45;&gt;Node7</title>
<path fill="none" stroke="midnightblue" d="M124.727,-56.324C140.851,-47.7034 165.8,-34.3643 184.464,-24.3855"/>
<polygon fill="midnightblue" stroke="midnightblue" points="186.144,-27.456 193.313,-19.6545 182.844,-21.283 186.144,-27.456"/>
</g>
<!-- Node8 -->
<g id="node8" class="node"><title>Node8</title>
<g id="a_node8"><a xlink:href="a00431.html" target="_top" xlink:title="CMSIS Cortex&#45;M SIMD Header File. ">
<polygon fill="white" stroke="black" points="270,-0.5 270,-19.5 355,-19.5 355,-0.5 270,-0.5"/>
<text text-anchor="middle" x="312.5" y="-7.5" font-family="Helvetica,sans-Serif" font-size="10.00">core_cmSimd.h</text>
</a>
</g>
</g>
<!-- Node4&#45;&gt;Node8 -->
<g id="edge7" class="edge"><title>Node4&#45;&gt;Node8</title>
<path fill="none" stroke="midnightblue" d="M140.824,-56.4435C175.889,-47.1616 231.998,-32.3093 270.465,-22.127"/>
<polygon fill="midnightblue" stroke="midnightblue" points="271.555,-25.4589 280.327,-19.5164 269.764,-18.692 271.555,-25.4589"/>
</g>
</g>
</svg>
