<?xml version="1.0" encoding="UTF-8" standalone="no"?>
<!DOCTYPE svg PUBLIC "-//W3C//DTD SVG 1.1//EN"
 "http://www.w3.org/Graphics/SVG/1.1/DTD/svg11.dtd">
<!-- Generated by graphviz version 2.38.0 (20140413.2041)
 -->
<!-- Title: stm32f4xx_dma.h Pages: 1 -->
<svg width="363pt" height="140pt"
 viewBox="0.00 0.00 362.50 140.00" xmlns="http://www.w3.org/2000/svg" xmlns:xlink="http://www.w3.org/1999/xlink">
<g id="graph0" class="graph" transform="scale(1 1) rotate(0) translate(4 136)">
<title>stm32f4xx_dma.h</title>
<polygon fill="white" stroke="none" points="-4,4 -4,-136 358.5,-136 358.5,4 -4,4"/>
<!-- Node1 -->
<g id="node1" class="node"><title>Node1</title>
<polygon fill="#bfbfbf" stroke="black" points="146.5,-112.5 146.5,-131.5 241.5,-131.5 241.5,-112.5 146.5,-112.5"/>
<text text-anchor="middle" x="194" y="-119.5" font-family="Helvetica,sans-Serif" font-size="10.00">stm32f4xx_dma.h</text>
</g>
<!-- Node2 -->
<g id="node2" class="node"><title>Node2</title>
<g id="a_node2"><a xlink:href="a00578_source.html" target="_top" xlink:title="tm_stm32f4_usart_dma.h">
<polygon fill="white" stroke="black" points="0,-56.5 0,-75.5 128,-75.5 128,-56.5 0,-56.5"/>
<text text-anchor="middle" x="64" y="-63.5" font-family="Helvetica,sans-Serif" font-size="10.00">tm_stm32f4_usart_dma.h</text>
</a>
</g>
</g>
<!-- Node1&#45;&gt;Node2 -->
<g id="edge1" class="edge"><title>Node1&#45;&gt;Node2</title>
<path fill="none" stroke="midnightblue" d="M163.915,-108.503C139.543,-98.3795 105.86,-84.388 84.5025,-75.5164"/>
<polygon fill="midnightblue" stroke="midnightblue" points="162.823,-111.84 173.401,-112.444 165.509,-105.375 162.823,-111.84"/>
</g>
<!-- Node4 -->
<g id="node4" class="node"><title>Node4</title>
<g id="a_node4"><a xlink:href="a00491_source.html" target="_top" xlink:title="stm32f4xx_conf.h">
<polygon fill="white" stroke="black" points="146.5,-56.5 146.5,-75.5 241.5,-75.5 241.5,-56.5 146.5,-56.5"/>
<text text-anchor="middle" x="194" y="-63.5" font-family="Helvetica,sans-Serif" font-size="10.00">stm32f4xx_conf.h</text>
</a>
</g>
</g>
<!-- Node1&#45;&gt;Node4 -->
<g id="edge3" class="edge"><title>Node1&#45;&gt;Node4</title>
<path fill="none" stroke="midnightblue" d="M194,-101.805C194,-92.9102 194,-82.7798 194,-75.7511"/>
<polygon fill="midnightblue" stroke="midnightblue" points="190.5,-102.083 194,-112.083 197.5,-102.083 190.5,-102.083"/>
</g>
<!-- Node5 -->
<g id="node5" class="node"><title>Node5</title>
<g id="a_node5"><a xlink:href="a00505.html" target="_top" xlink:title="This file provides firmware functions to manage the following functionalities of the Direct Memory Ac...">
<polygon fill="white" stroke="black" points="259.5,-56.5 259.5,-75.5 354.5,-75.5 354.5,-56.5 259.5,-56.5"/>
<text text-anchor="middle" x="307" y="-63.5" font-family="Helvetica,sans-Serif" font-size="10.00">stm32f4xx_dma.c</text>
</a>
</g>
</g>
<!-- Node1&#45;&gt;Node5 -->
<g id="edge4" class="edge"><title>Node1&#45;&gt;Node5</title>
<path fill="none" stroke="midnightblue" d="M221.003,-108.096C242.114,-98.0073 270.862,-84.2697 289.179,-75.5164"/>
<polygon fill="midnightblue" stroke="midnightblue" points="219.419,-104.974 211.905,-112.444 222.437,-111.29 219.419,-104.974"/>
</g>
<!-- Node3 -->
<g id="node3" class="node"><title>Node3</title>
<g id="a_node3"><a xlink:href="a00577_source.html" target="_top" xlink:title="tm_stm32f4_usart_dma.c">
<polygon fill="white" stroke="black" points="0,-0.5 0,-19.5 128,-19.5 128,-0.5 0,-0.5"/>
<text text-anchor="middle" x="64" y="-7.5" font-family="Helvetica,sans-Serif" font-size="10.00">tm_stm32f4_usart_dma.c</text>
</a>
</g>
</g>
<!-- Node2&#45;&gt;Node3 -->
<g id="edge2" class="edge"><title>Node2&#45;&gt;Node3</title>
<path fill="none" stroke="midnightblue" d="M64,-45.8045C64,-36.9102 64,-26.7798 64,-19.7511"/>
<polygon fill="midnightblue" stroke="midnightblue" points="60.5001,-46.083 64,-56.083 67.5001,-46.083 60.5001,-46.083"/>
</g>
</g>
</svg>
