<?xml version="1.0" encoding="UTF-8" standalone="no"?>
<!DOCTYPE svg PUBLIC "-//W3C//DTD SVG 1.1//EN"
 "http://www.w3.org/Graphics/SVG/1.1/DTD/svg11.dtd">
<!-- Generated by graphviz version 2.38.0 (20140413.2041)
 -->
<!-- Title: stm32f4xx_flash.h Pages: 1 -->
<svg width="218pt" height="84pt"
 viewBox="0.00 0.00 218.00 84.00" xmlns="http://www.w3.org/2000/svg" xmlns:xlink="http://www.w3.org/1999/xlink">
<g id="graph0" class="graph" transform="scale(1 1) rotate(0) translate(4 80)">
<title>stm32f4xx_flash.h</title>
<polygon fill="white" stroke="none" points="-4,4 -4,-80 214,-80 214,4 -4,4"/>
<!-- Node1 -->
<g id="node1" class="node"><title>Node1</title>
<polygon fill="#bfbfbf" stroke="black" points="56,-56.5 56,-75.5 153,-75.5 153,-56.5 56,-56.5"/>
<text text-anchor="middle" x="104.5" y="-63.5" font-family="Helvetica,sans-Serif" font-size="10.00">stm32f4xx_flash.h</text>
</g>
<!-- Node2 -->
<g id="node2" class="node"><title>Node2</title>
<g id="a_node2"><a xlink:href="a00491_source.html" target="_top" xlink:title="stm32f4xx_conf.h">
<polygon fill="white" stroke="black" points="0,-0.5 0,-19.5 95,-19.5 95,-0.5 0,-0.5"/>
<text text-anchor="middle" x="47.5" y="-7.5" font-family="Helvetica,sans-Serif" font-size="10.00">stm32f4xx_conf.h</text>
</a>
</g>
</g>
<!-- Node1&#45;&gt;Node2 -->
<g id="edge1" class="edge"><title>Node1&#45;&gt;Node2</title>
<path fill="none" stroke="midnightblue" d="M87.8785,-49.2533C77.766,-39.6731 65.2234,-27.7906 56.8247,-19.8339"/>
<polygon fill="midnightblue" stroke="midnightblue" points="85.6753,-51.9873 95.342,-56.324 90.4895,-46.9056 85.6753,-51.9873"/>
</g>
<!-- Node3 -->
<g id="node3" class="node"><title>Node3</title>
<g id="a_node3"><a xlink:href="a00513.html" target="_top" xlink:title="This file provides firmware functions to manage the following functionalities of the FLASH peripheral...">
<polygon fill="white" stroke="black" points="113,-0.5 113,-19.5 210,-19.5 210,-0.5 113,-0.5"/>
<text text-anchor="middle" x="161.5" y="-7.5" font-family="Helvetica,sans-Serif" font-size="10.00">stm32f4xx_flash.c</text>
</a>
</g>
</g>
<!-- Node1&#45;&gt;Node3 -->
<g id="edge2" class="edge"><title>Node1&#45;&gt;Node3</title>
<path fill="none" stroke="midnightblue" d="M121.121,-49.2533C131.234,-39.6731 143.777,-27.7906 152.175,-19.8339"/>
<polygon fill="midnightblue" stroke="midnightblue" points="118.51,-46.9056 113.658,-56.324 123.325,-51.9873 118.51,-46.9056"/>
</g>
</g>
</svg>
