<?xml version="1.0" encoding="UTF-8" standalone="no"?>
<!DOCTYPE svg PUBLIC "-//W3C//DTD SVG 1.1//EN"
 "http://www.w3.org/Graphics/SVG/1.1/DTD/svg11.dtd">
<!-- Generated by graphviz version 2.38.0 (20140413.2041)
 -->
<!-- Title: stm32f4xx_gpio.h Pages: 1 -->
<!--zoomable 364 -->
<svg id="main" version="1.1" xmlns="http://www.w3.org/2000/svg" xmlns:xlink="http://www.w3.org/1999/xlink" xml:space="preserve" onload="init(evt)">
<style type="text/css"><![CDATA[
.edge:hover path { stroke: red; }
.edge:hover polygon { stroke: red; fill: red; }
]]></style>
<script type="text/javascript"><![CDATA[
var edges = document.getElementsByTagName('g');
if (edges && edges.length) {
  for (var i=0;i<edges.length;i++) {
    if (edges[i].id.substr(0,4)=='edge') {
      edges[i].setAttribute('class','edge');
    }
  }
}
]]></script>
        <defs>
                <circle id="rim" cx="0" cy="0" r="7"/>
                <circle id="rim2" cx="0" cy="0" r="3.5"/>
                <g id="zoomPlus">
                        <use xlink:href="#rim" fill="#404040">
                                <set attributeName="fill" to="#808080" begin="zoomplus.mouseover" end="zoomplus.mouseout"/>
                        </use>
                        <path d="M-4,0h8M0,-4v8" fill="none" stroke="white" stroke-width="1.5" pointer-events="none"/>
                </g>
                <g id="zoomMin">
                        <use xlink:href="#rim" fill="#404040">
                                <set attributeName="fill" to="#808080" begin="zoomminus.mouseover" end="zoomminus.mouseout"/>
                        </use>
                        <path d="M-4,0h8" fill="none" stroke="white" stroke-width="1.5" pointer-events="none"/>
                </g>
                <g id="dirArrow">
                        <path fill="none" stroke="white" stroke-width="1.5" d="M0,-3.0v7 M-2.5,-0.5L0,-3.0L2.5,-0.5"/>
                </g>
               <g id="resetDef">
                       <use xlink:href="#rim2" fill="#404040">
                               <set attributeName="fill" to="#808080" begin="reset.mouseover" end="reset.mouseout"/>
                       </use>
               </g>
        </defs>

<script type="text/javascript">
var viewWidth = 573;
var viewHeight = 364;
var sectionId = 'dynsection-1';
</script>
<script xlink:href="svgpan.js"/>
<svg id="graph" class="graph">
<g id="viewport">
<title>stm32f4xx_gpio.h</title>
<polygon fill="white" stroke="none" points="-4,4 -4,-360 568.5,-360 568.5,4 -4,4"/>
<!-- Node1 -->
<g id="node1" class="node"><title>Node1</title>
<polygon fill="#bfbfbf" stroke="black" points="307.5,-336.5 307.5,-355.5 401.5,-355.5 401.5,-336.5 307.5,-336.5"/>
<text text-anchor="middle" x="354.5" y="-343.5" font-family="Helvetica,sans-Serif" font-size="10.00">stm32f4xx_gpio.h</text>
</g>
<!-- Node2 -->
<g id="node2" class="node"><title>Node2</title>
<g id="a_node2"><a xlink:href="a00470_source.html" target="_top" xlink:title="mdb_gpio.h">
<polygon fill="white" stroke="black" points="125,-280.5 125,-299.5 192,-299.5 192,-280.5 125,-280.5"/>
<text text-anchor="middle" x="158.5" y="-287.5" font-family="Helvetica,sans-Serif" font-size="10.00">mdb_gpio.h</text>
</a>
</g>
</g>
<!-- Node1&#45;&gt;Node2 -->
<g id="edge1" class="edge"><title>Node1&#45;&gt;Node2</title>
<path fill="none" stroke="midnightblue" d="M313.48,-333.699C276.489,-323.507 222.9,-308.743 189.411,-299.516"/>
<polygon fill="midnightblue" stroke="midnightblue" points="312.873,-337.162 323.443,-336.444 314.732,-330.413 312.873,-337.162"/>
</g>
<!-- Node4 -->
<g id="node4" class="node"><title>Node4</title>
<g id="a_node4"><a xlink:href="a00471_source.html" target="_top" xlink:title="mdb_gpio.h">
<polygon fill="white" stroke="black" points="272,-280.5 272,-299.5 339,-299.5 339,-280.5 272,-280.5"/>
<text text-anchor="middle" x="305.5" y="-287.5" font-family="Helvetica,sans-Serif" font-size="10.00">mdb_gpio.h</text>
</a>
</g>
</g>
<!-- Node1&#45;&gt;Node4 -->
<g id="edge3" class="edge"><title>Node1&#45;&gt;Node4</title>
<path fill="none" stroke="midnightblue" d="M339.466,-328.431C330.878,-318.967 320.457,-307.483 313.441,-299.751"/>
<polygon fill="midnightblue" stroke="midnightblue" points="337.097,-331.029 346.409,-336.083 342.281,-326.325 337.097,-331.029"/>
</g>
<!-- Node15 -->
<g id="node15" class="node"><title>Node15</title>
<g id="a_node15"><a xlink:href="a00491_source.html" target="_top" xlink:title="stm32f4xx_conf.h">
<polygon fill="white" stroke="black" points="357,-280.5 357,-299.5 452,-299.5 452,-280.5 357,-280.5"/>
<text text-anchor="middle" x="404.5" y="-287.5" font-family="Helvetica,sans-Serif" font-size="10.00">stm32f4xx_conf.h</text>
</a>
</g>
</g>
<!-- Node1&#45;&gt;Node15 -->
<g id="edge23" class="edge"><title>Node1&#45;&gt;Node15</title>
<path fill="none" stroke="midnightblue" d="M369.576,-328.718C378.389,-319.2 389.166,-307.561 396.397,-299.751"/>
<polygon fill="midnightblue" stroke="midnightblue" points="366.982,-326.367 362.756,-336.083 372.119,-331.123 366.982,-326.367"/>
</g>
<!-- Node16 -->
<g id="node16" class="node"><title>Node16</title>
<g id="a_node16"><a xlink:href="a00523.html" target="_top" xlink:title="This file provides firmware functions to manage the following functionalities of the GPIO peripheral:...">
<polygon fill="white" stroke="black" points="470.5,-280.5 470.5,-299.5 564.5,-299.5 564.5,-280.5 470.5,-280.5"/>
<text text-anchor="middle" x="517.5" y="-287.5" font-family="Helvetica,sans-Serif" font-size="10.00">stm32f4xx_gpio.c</text>
</a>
</g>
</g>
<!-- Node1&#45;&gt;Node16 -->
<g id="edge24" class="edge"><title>Node1&#45;&gt;Node16</title>
<path fill="none" stroke="midnightblue" d="M390.203,-333.172C420.896,-323.004 464.419,-308.585 491.793,-299.516"/>
<polygon fill="midnightblue" stroke="midnightblue" points="388.72,-329.976 380.328,-336.444 390.921,-336.621 388.72,-329.976"/>
</g>
<!-- Node3 -->
<g id="node3" class="node"><title>Node3</title>
<g id="a_node3"><a xlink:href="a00468_source.html" target="_top" xlink:title="mdb_gpio.c">
<polygon fill="white" stroke="black" points="0,-224.5 0,-243.5 67,-243.5 67,-224.5 0,-224.5"/>
<text text-anchor="middle" x="33.5" y="-231.5" font-family="Helvetica,sans-Serif" font-size="10.00">mdb_gpio.c</text>
</a>
</g>
</g>
<!-- Node2&#45;&gt;Node3 -->
<g id="edge2" class="edge"><title>Node2&#45;&gt;Node3</title>
<path fill="none" stroke="midnightblue" d="M129.259,-276.368C105.85,-266.255 73.6587,-252.349 53.214,-243.516"/>
<polygon fill="midnightblue" stroke="midnightblue" points="128.125,-279.691 138.693,-280.444 130.901,-273.265 128.125,-279.691"/>
</g>
<!-- Node5 -->
<g id="node5" class="node"><title>Node5</title>
<g id="a_node5"><a xlink:href="a00440.html" target="_top" xlink:title="Main header definition. ">
<polygon fill="white" stroke="black" points="314.5,-224.5 314.5,-243.5 360.5,-243.5 360.5,-224.5 314.5,-224.5"/>
<text text-anchor="middle" x="337.5" y="-231.5" font-family="Helvetica,sans-Serif" font-size="10.00">main.h</text>
</a>
</g>
</g>
<!-- Node4&#45;&gt;Node5 -->
<g id="edge4" class="edge"><title>Node4&#45;&gt;Node5</title>
<path fill="none" stroke="midnightblue" d="M316.004,-271.275C321.473,-262.045 327.918,-251.17 332.314,-243.751"/>
<polygon fill="midnightblue" stroke="midnightblue" points="312.871,-269.696 310.784,-280.083 318.893,-273.264 312.871,-269.696"/>
</g>
<!-- Node7 -->
<g id="node7" class="node"><title>Node7</title>
<g id="a_node7"><a xlink:href="a00126.html" target="_top" xlink:title="Controlling beam and primary actuators. ">
<polygon fill="white" stroke="black" points="234,-56.5 234,-75.5 299,-75.5 299,-56.5 234,-56.5"/>
<text text-anchor="middle" x="266.5" y="-63.5" font-family="Helvetica,sans-Serif" font-size="10.00">actuators.h</text>
</a>
</g>
</g>
<!-- Node4&#45;&gt;Node7 -->
<g id="edge21" class="edge"><title>Node4&#45;&gt;Node7</title>
<path fill="none" stroke="midnightblue" d="M265.596,-277.101C226.088,-262.945 167.807,-235.097 141.5,-188 130.12,-167.626 148.136,-122.49 157.5,-112 177.27,-89.8549 209.613,-78.3594 233.944,-72.5539"/>
<polygon fill="midnightblue" stroke="midnightblue" points="264.61,-280.463 275.205,-280.408 266.888,-273.844 264.61,-280.463"/>
</g>
<!-- Node14 -->
<g id="node14" class="node"><title>Node14</title>
<g id="a_node14"><a xlink:href="a00469_source.html" target="_top" xlink:title="mdb_gpio.c">
<polygon fill="white" stroke="black" points="379,-224.5 379,-243.5 446,-243.5 446,-224.5 379,-224.5"/>
<text text-anchor="middle" x="412.5" y="-231.5" font-family="Helvetica,sans-Serif" font-size="10.00">mdb_gpio.c</text>
</a>
</g>
</g>
<!-- Node4&#45;&gt;Node14 -->
<g id="edge22" class="edge"><title>Node4&#45;&gt;Node14</title>
<path fill="none" stroke="midnightblue" d="M331.802,-275.726C351.615,-265.727 378.207,-252.307 395.351,-243.655"/>
<polygon fill="midnightblue" stroke="midnightblue" points="330.042,-272.694 322.691,-280.324 333.196,-278.943 330.042,-272.694"/>
</g>
<!-- Node6 -->
<g id="node6" class="node"><title>Node6</title>
<g id="a_node6"><a xlink:href="a00128.html" target="_top" xlink:title="Provides DMA related configuration and access functions for ADC and DAC. ">
<polygon fill="white" stroke="black" points="325.5,-168.5 325.5,-187.5 411.5,-187.5 411.5,-168.5 325.5,-168.5"/>
<text text-anchor="middle" x="368.5" y="-175.5" font-family="Helvetica,sans-Serif" font-size="10.00">adc_dac_dma.h</text>
</a>
</g>
</g>
<!-- Node5&#45;&gt;Node6 -->
<g id="edge5" class="edge"><title>Node5&#45;&gt;Node6</title>
<path fill="none" stroke="midnightblue" d="M341.582,-214.69C346.112,-205.589 352.616,-195.014 358.345,-187.751"/>
<polygon fill="midnightblue" stroke="midnightblue" points="338.273,-213.52 337.453,-224.083 344.681,-216.337 338.273,-213.52"/>
</g>
<!-- Node9 -->
<g id="node9" class="node"><title>Node9</title>
<g id="a_node9"><a xlink:href="a00437.html" target="_top" xlink:title="Callback handler implementations. ">
<polygon fill="white" stroke="black" points="407.5,-0.5 407.5,-19.5 489.5,-19.5 489.5,-0.5 407.5,-0.5"/>
<text text-anchor="middle" x="448.5" y="-7.5" font-family="Helvetica,sans-Serif" font-size="10.00">irq_callbacks.c</text>
</a>
</g>
</g>
<!-- Node5&#45;&gt;Node9 -->
<g id="edge18" class="edge"><title>Node5&#45;&gt;Node9</title>
<path fill="none" stroke="midnightblue" d="M370.306,-221.91C398.692,-211.96 437.207,-197.501 450.5,-188 477.168,-168.938 487.127,-162.744 498.5,-132 514.272,-89.3641 474.883,-39.4943 456.895,-19.7164"/>
<polygon fill="midnightblue" stroke="midnightblue" points="369.047,-218.642 360.746,-225.226 371.341,-225.256 369.047,-218.642"/>
</g>
<!-- Node10 -->
<g id="node10" class="node"><title>Node10</title>
<g id="a_node10"><a xlink:href="a00438.html" target="_top" xlink:title="Analog processing related callback handler definition. ">
<polygon fill="white" stroke="black" points="407.5,-112.5 407.5,-131.5 489.5,-131.5 489.5,-112.5 407.5,-112.5"/>
<text text-anchor="middle" x="448.5" y="-119.5" font-family="Helvetica,sans-Serif" font-size="10.00">irq_callbacks.h</text>
</a>
</g>
</g>
<!-- Node5&#45;&gt;Node10 -->
<g id="edge17" class="edge"><title>Node5&#45;&gt;Node10</title>
<path fill="none" stroke="midnightblue" d="M364.52,-220.24C379.927,-212.881 398.498,-202.229 411.5,-188 426.751,-171.31 434.543,-145.033 441.062,-131.572"/>
<polygon fill="midnightblue" stroke="midnightblue" points="363.056,-217.061 355.414,-224.399 365.964,-223.428 363.056,-217.061"/>
</g>
<!-- Node12 -->
<g id="node12" class="node"><title>Node12</title>
<g id="a_node12"><a xlink:href="a00439.html" target="_top" xlink:title="Main source implementation (29&#45;04&#45;2015) ">
<polygon fill="white" stroke="black" points="161.5,-168.5 161.5,-187.5 207.5,-187.5 207.5,-168.5 161.5,-168.5"/>
<text text-anchor="middle" x="184.5" y="-175.5" font-family="Helvetica,sans-Serif" font-size="10.00">main.c</text>
</a>
</g>
</g>
<!-- Node5&#45;&gt;Node12 -->
<g id="edge19" class="edge"><title>Node5&#45;&gt;Node12</title>
<path fill="none" stroke="midnightblue" d="M304.545,-221.369C275.455,-211.102 233.77,-196.389 207.956,-187.279"/>
<polygon fill="midnightblue" stroke="midnightblue" points="303.668,-224.771 314.263,-224.799 305.998,-218.17 303.668,-224.771"/>
</g>
<!-- Node13 -->
<g id="node13" class="node"><title>Node13</title>
<g id="a_node13"><a xlink:href="a00531.html" target="_top" xlink:title="stm32f4xx_it.c">
<polygon fill="white" stroke="black" points="226,-168.5 226,-187.5 307,-187.5 307,-168.5 226,-168.5"/>
<text text-anchor="middle" x="266.5" y="-175.5" font-family="Helvetica,sans-Serif" font-size="10.00">stm32f4xx_it.c</text>
</a>
</g>
</g>
<!-- Node5&#45;&gt;Node13 -->
<g id="edge20" class="edge"><title>Node5&#45;&gt;Node13</title>
<path fill="none" stroke="midnightblue" d="M317.91,-218.101C305.132,-208.382 288.887,-196.027 278.115,-187.834"/>
<polygon fill="midnightblue" stroke="midnightblue" points="316.014,-221.056 326.093,-224.324 320.252,-215.484 316.014,-221.056"/>
</g>
<!-- Node6&#45;&gt;Node5 -->
<g id="edge11" class="edge"><title>Node6&#45;&gt;Node5</title>
<path fill="none" stroke="midnightblue" d="M364.52,-197.103C360.021,-206.181 353.526,-216.77 347.785,-224.083"/>
<polygon fill="midnightblue" stroke="midnightblue" points="367.81,-198.316 368.607,-187.751 361.396,-195.513 367.81,-198.316"/>
</g>
<!-- Node6&#45;&gt;Node7 -->
<g id="edge6" class="edge"><title>Node6&#45;&gt;Node7</title>
<path fill="none" stroke="midnightblue" d="M330.34,-164.094C314.594,-156.518 297.427,-145.72 285.5,-132 270.829,-115.123 262.866,-89.3897 262.723,-75.9231"/>
<polygon fill="midnightblue" stroke="midnightblue" points="329.344,-167.484 339.9,-168.392 332.214,-161.099 329.344,-167.484"/>
</g>
<!-- Node6&#45;&gt;Node10 -->
<g id="edge12" class="edge"><title>Node6&#45;&gt;Node10</title>
<path fill="none" stroke="midnightblue" d="M389.801,-162.622C404.415,-152.757 423.327,-139.992 435.679,-131.655"/>
<polygon fill="midnightblue" stroke="midnightblue" points="387.684,-159.828 381.353,-168.324 391.6,-165.63 387.684,-159.828"/>
</g>
<!-- Node11 -->
<g id="node11" class="node"><title>Node11</title>
<g id="a_node11"><a xlink:href="a00127.html" target="_top" xlink:title="adc_dac_dma.c">
<polygon fill="white" stroke="black" points="303.5,-112.5 303.5,-131.5 389.5,-131.5 389.5,-112.5 303.5,-112.5"/>
<text text-anchor="middle" x="346.5" y="-119.5" font-family="Helvetica,sans-Serif" font-size="10.00">adc_dac_dma.c</text>
</a>
</g>
</g>
<!-- Node6&#45;&gt;Node11 -->
<g id="edge16" class="edge"><title>Node6&#45;&gt;Node11</title>
<path fill="none" stroke="midnightblue" d="M361.04,-158.69C357.333,-149.589 353.024,-139.014 350.065,-131.751"/>
<polygon fill="midnightblue" stroke="midnightblue" points="357.853,-160.143 364.867,-168.083 364.335,-157.502 357.853,-160.143"/>
</g>
<!-- Node7&#45;&gt;Node5 -->
<g id="edge7" class="edge"><title>Node7&#45;&gt;Node5</title>
<path fill="none" stroke="midnightblue" d="M237.725,-79.9341C194.052,-101.333 119.436,-145.929 152.5,-188 172.414,-213.339 269.33,-226.185 314.386,-230.869"/>
<polygon fill="midnightblue" stroke="midnightblue" points="239.268,-83.076 246.783,-75.6085 236.251,-76.7591 239.268,-83.076"/>
</g>
<!-- Node7&#45;&gt;Node6 -->
<g id="edge8" class="edge"><title>Node7&#45;&gt;Node6</title>
<path fill="none" stroke="midnightblue" d="M278.323,-85.0601C284.232,-99.1039 291.694,-118.419 303.5,-132 317.902,-148.568 339.946,-160.875 354.561,-168.392"/>
<polygon fill="midnightblue" stroke="midnightblue" points="281.52,-83.6347 274.255,-75.9231 275.125,-86.4821 281.52,-83.6347"/>
</g>
<!-- Node8 -->
<g id="node8" class="node"><title>Node8</title>
<g id="a_node8"><a xlink:href="a00125.html" target="_top" xlink:title="Controlling beam and primary actuators. ">
<polygon fill="white" stroke="black" points="234,-0.5 234,-19.5 299,-19.5 299,-0.5 234,-0.5"/>
<text text-anchor="middle" x="266.5" y="-7.5" font-family="Helvetica,sans-Serif" font-size="10.00">actuators.c</text>
</a>
</g>
</g>
<!-- Node7&#45;&gt;Node8 -->
<g id="edge9" class="edge"><title>Node7&#45;&gt;Node8</title>
<path fill="none" stroke="midnightblue" d="M266.5,-45.8045C266.5,-36.9102 266.5,-26.7798 266.5,-19.7511"/>
<polygon fill="midnightblue" stroke="midnightblue" points="263,-46.083 266.5,-56.083 270,-46.083 263,-46.083"/>
</g>
<!-- Node7&#45;&gt;Node9 -->
<g id="edge10" class="edge"><title>Node7&#45;&gt;Node9</title>
<path fill="none" stroke="midnightblue" d="M305.031,-53.5677C339.364,-43.381 388.833,-28.7034 419.796,-19.5164"/>
<polygon fill="midnightblue" stroke="midnightblue" points="303.93,-50.2436 295.338,-56.4435 305.921,-56.9544 303.93,-50.2436"/>
</g>
<!-- Node10&#45;&gt;Node5 -->
<g id="edge13" class="edge"><title>Node10&#45;&gt;Node5</title>
<path fill="none" stroke="midnightblue" d="M451.425,-141.591C448.924,-155.692 441.534,-174.831 429.5,-188 411.146,-208.087 381.695,-221.045 360.803,-227.673"/>
<polygon fill="midnightblue" stroke="midnightblue" points="454.916,-141.859 452.379,-131.572 447.947,-141.196 454.916,-141.859"/>
</g>
<!-- Node10&#45;&gt;Node7 -->
<g id="edge14" class="edge"><title>Node10&#45;&gt;Node7</title>
<path fill="none" stroke="midnightblue" d="M409.969,-109.568C375.636,-99.381 326.167,-84.7034 295.204,-75.5164"/>
<polygon fill="midnightblue" stroke="midnightblue" points="409.079,-112.954 419.662,-112.444 411.07,-106.244 409.079,-112.954"/>
</g>
<!-- Node10&#45;&gt;Node9 -->
<g id="edge15" class="edge"><title>Node10&#45;&gt;Node9</title>
<path fill="none" stroke="midnightblue" d="M448.5,-102.348C448.5,-78.2538 448.5,-37.3079 448.5,-19.5914"/>
<polygon fill="midnightblue" stroke="midnightblue" points="445,-102.368 448.5,-112.368 452,-102.369 445,-102.368"/>
</g>
</g>
</svg>
        <g id="navigator" transform="translate(0 0)" fill="#404254">
                <rect fill="#f2f5e9" fill-opacity="0.5" stroke="#606060" stroke-width=".5" x="0" y="0" width="60" height="60"/>
                <use id="zoomplus" xlink:href="#zoomPlus" x="17" y="9" onmousedown="handleZoom(evt,'in')"/>
                <use id="zoomminus" xlink:href="#zoomMin" x="42" y="9" onmousedown="handleZoom(evt,'out')"/>
                <use id="reset" xlink:href="#resetDef" x="30" y="36" onmousedown="handleReset()"/>
                <g id="arrowUp" xlink:href="#dirArrow" transform="translate(30 24)" onmousedown="handlePan(0,-1)">
                  <use xlink:href="#rim" fill="#404040">
                        <set attributeName="fill" to="#808080" begin="arrowUp.mouseover" end="arrowUp.mouseout"/>
                  </use>
                  <path fill="none" stroke="white" stroke-width="1.5" d="M0,-3.0v7 M-2.5,-0.5L0,-3.0L2.5,-0.5"/>
                </g>
                <g id="arrowRight" xlink:href="#dirArrow" transform="rotate(90) translate(36 -43)" onmousedown="handlePan(1,0)">
                  <use xlink:href="#rim" fill="#404040">
                        <set attributeName="fill" to="#808080" begin="arrowRight.mouseover" end="arrowRight.mouseout"/>
                  </use>
                  <path fill="none" stroke="white" stroke-width="1.5" d="M0,-3.0v7 M-2.5,-0.5L0,-3.0L2.5,-0.5"/>
                </g>
                <g id="arrowDown" xlink:href="#dirArrow" transform="rotate(180) translate(-30 -48)" onmousedown="handlePan(0,1)">
                  <use xlink:href="#rim" fill="#404040">
                        <set attributeName="fill" to="#808080" begin="arrowDown.mouseover" end="arrowDown.mouseout"/>
                  </use>
                  <path fill="none" stroke="white" stroke-width="1.5" d="M0,-3.0v7 M-2.5,-0.5L0,-3.0L2.5,-0.5"/>
                </g>
                <g id="arrowLeft" xlink:href="#dirArrow" transform="rotate(270) translate(-36 17)" onmousedown="handlePan(-1,0)">
                  <use xlink:href="#rim" fill="#404040">
                        <set attributeName="fill" to="#808080" begin="arrowLeft.mouseover" end="arrowLeft.mouseout"/>
                  </use>
                  <path fill="none" stroke="white" stroke-width="1.5" d="M0,-3.0v7 M-2.5,-0.5L0,-3.0L2.5,-0.5"/>
                </g>
        </g>
        <svg viewBox="0 0 15 15" width="100%" height="30px" preserveAspectRatio="xMaxYMin meet">
         <g id="arrow_out" transform="scale(0.3 0.3)">
          <a xlink:href="a01537_org.svg" target="_base">
           <rect id="button" ry="5" rx="5" y="6" x="6" height="38" width="38"
                fill="#f2f5e9" fill-opacity="0.5" stroke="#606060" stroke-width="1.0"/>
           <path id="arrow"
             d="M 11.500037,31.436501 C 11.940474,20.09759 22.043105,11.32322 32.158766,21.979434 L 37.068811,17.246167 C 37.068811,17.246167 37.088388,32 37.088388,32 L 22.160133,31.978069 C 22.160133,31.978069 26.997745,27.140456 26.997745,27.140456 C 18.528582,18.264221 13.291696,25.230495 11.500037,31.436501 z"
             style="fill:#404040;"/>
          </a>
         </g>
        </svg>
</svg>
