<?xml version="1.0" encoding="UTF-8" standalone="no"?>
<!DOCTYPE svg PUBLIC "-//W3C//DTD SVG 1.1//EN"
 "http://www.w3.org/Graphics/SVG/1.1/DTD/svg11.dtd">
<!-- Generated by graphviz version 2.38.0 (20140413.2041)
 -->
<!-- Title: stm32f4xx_dac.h Pages: 1 -->
<svg width="548pt" height="308pt"
 viewBox="0.00 0.00 548.30 308.00" xmlns="http://www.w3.org/2000/svg" xmlns:xlink="http://www.w3.org/1999/xlink">
<g id="graph0" class="graph" transform="scale(1 1) rotate(0) translate(4 304)">
<title>stm32f4xx_dac.h</title>
<polygon fill="white" stroke="none" points="-4,4 -4,-304 544.301,-304 544.301,4 -4,4"/>
<!-- Node1 -->
<g id="node1" class="node"><title>Node1</title>
<polygon fill="#bfbfbf" stroke="black" points="257,-280.5 257,-299.5 349,-299.5 349,-280.5 257,-280.5"/>
<text text-anchor="middle" x="303" y="-287.5" font-family="Helvetica,sans-Serif" font-size="10.00">stm32f4xx_dac.h</text>
</g>
<!-- Node2 -->
<g id="node2" class="node"><title>Node2</title>
<g id="a_node2"><a xlink:href="a00458.html" target="_top" xlink:title="Waveform generation extension for DAC library. ">
<polygon fill="white" stroke="black" points="47,-224.5 47,-243.5 195,-243.5 195,-224.5 47,-224.5"/>
<text text-anchor="middle" x="121" y="-231.5" font-family="Helvetica,sans-Serif" font-size="10.00">md_stm32f4_dac_waveform.h</text>
</a>
</g>
</g>
<!-- Node1&#45;&gt;Node2 -->
<g id="edge1" class="edge"><title>Node1&#45;&gt;Node2</title>
<path fill="none" stroke="midnightblue" d="M264.469,-277.568C230.136,-267.381 180.667,-252.703 149.704,-243.516"/>
<polygon fill="midnightblue" stroke="midnightblue" points="263.579,-280.954 274.162,-280.444 265.57,-274.244 263.579,-280.954"/>
</g>
<!-- Node4 -->
<g id="node4" class="node"><title>Node4</title>
<g id="a_node4"><a xlink:href="a00128.html" target="_top" xlink:title="Provides DMA related configuration and access functions for ADC and DAC. ">
<polygon fill="white" stroke="black" points="260,-224.5 260,-243.5 346,-243.5 346,-224.5 260,-224.5"/>
<text text-anchor="middle" x="303" y="-231.5" font-family="Helvetica,sans-Serif" font-size="10.00">adc_dac_dma.h</text>
</a>
</g>
</g>
<!-- Node1&#45;&gt;Node4 -->
<g id="edge3" class="edge"><title>Node1&#45;&gt;Node4</title>
<path fill="none" stroke="midnightblue" d="M303,-269.805C303,-260.91 303,-250.78 303,-243.751"/>
<polygon fill="midnightblue" stroke="midnightblue" points="299.5,-270.083 303,-280.083 306.5,-270.083 299.5,-270.083"/>
</g>
<!-- Node13 -->
<g id="node13" class="node"><title>Node13</title>
<g id="a_node13"><a xlink:href="a00497.html" target="_top" xlink:title="This file provides firmware functions to manage the following functionalities of the Digital&#45;to&#45;Analo...">
<polygon fill="white" stroke="black" points="364,-224.5 364,-243.5 456,-243.5 456,-224.5 364,-224.5"/>
<text text-anchor="middle" x="410" y="-231.5" font-family="Helvetica,sans-Serif" font-size="10.00">stm32f4xx_dac.c</text>
</a>
</g>
</g>
<!-- Node1&#45;&gt;Node13 -->
<g id="edge20" class="edge"><title>Node1&#45;&gt;Node13</title>
<path fill="none" stroke="midnightblue" d="M329.302,-275.726C349.115,-265.727 375.707,-252.307 392.851,-243.655"/>
<polygon fill="midnightblue" stroke="midnightblue" points="327.542,-272.694 320.191,-280.324 330.696,-278.943 327.542,-272.694"/>
</g>
<!-- Node3 -->
<g id="node3" class="node"><title>Node3</title>
<g id="a_node3"><a xlink:href="a00457_source.html" target="_top" xlink:title="md_stm32f4_dac_waveform.c">
<polygon fill="white" stroke="black" points="0,-168.5 0,-187.5 148,-187.5 148,-168.5 0,-168.5"/>
<text text-anchor="middle" x="74" y="-175.5" font-family="Helvetica,sans-Serif" font-size="10.00">md_stm32f4_dac_waveform.c</text>
</a>
</g>
</g>
<!-- Node2&#45;&gt;Node3 -->
<g id="edge2" class="edge"><title>Node2&#45;&gt;Node3</title>
<path fill="none" stroke="midnightblue" d="M106.579,-216.431C98.3419,-206.967 88.3461,-195.483 81.6167,-187.751"/>
<polygon fill="midnightblue" stroke="midnightblue" points="104.034,-218.838 113.239,-224.083 109.314,-214.242 104.034,-218.838"/>
</g>
<!-- Node5 -->
<g id="node5" class="node"><title>Node5</title>
<g id="a_node5"><a xlink:href="a00126.html" target="_top" xlink:title="Controlling beam and primary actuators. ">
<polygon fill="white" stroke="black" points="270.5,-168.5 270.5,-187.5 335.5,-187.5 335.5,-168.5 270.5,-168.5"/>
<text text-anchor="middle" x="303" y="-175.5" font-family="Helvetica,sans-Serif" font-size="10.00">actuators.h</text>
</a>
</g>
</g>
<!-- Node4&#45;&gt;Node5 -->
<g id="edge4" class="edge"><title>Node4&#45;&gt;Node5</title>
<path fill="none" stroke="midnightblue" d="M296.528,-214.101C295.896,-205.136 296.343,-194.858 297.869,-187.751"/>
<polygon fill="midnightblue" stroke="midnightblue" points="293.066,-214.622 297.834,-224.083 300.007,-213.713 293.066,-214.622"/>
</g>
<!-- Node6 -->
<g id="node6" class="node"><title>Node6</title>
<g id="a_node6"><a xlink:href="a00440.html" target="_top" xlink:title="Main header definition. ">
<polygon fill="white" stroke="black" points="392,-112.5 392,-131.5 438,-131.5 438,-112.5 392,-112.5"/>
<text text-anchor="middle" x="415" y="-119.5" font-family="Helvetica,sans-Serif" font-size="10.00">main.h</text>
</a>
</g>
</g>
<!-- Node4&#45;&gt;Node6 -->
<g id="edge17" class="edge"><title>Node4&#45;&gt;Node6</title>
<path fill="none" stroke="midnightblue" d="M324.788,-219.631C338.682,-211.923 356.151,-201.147 369,-188 385.518,-171.099 397.25,-145.376 405.887,-131.917"/>
<polygon fill="midnightblue" stroke="midnightblue" points="322.973,-216.633 315.841,-224.468 326.302,-222.791 322.973,-216.633"/>
</g>
<!-- Node7 -->
<g id="node7" class="node"><title>Node7</title>
<g id="a_node7"><a xlink:href="a00438.html" target="_top" xlink:title="Analog processing related callback handler definition. ">
<polygon fill="white" stroke="black" points="279,-56.5 279,-75.5 361,-75.5 361,-56.5 279,-56.5"/>
<text text-anchor="middle" x="320" y="-63.5" font-family="Helvetica,sans-Serif" font-size="10.00">irq_callbacks.h</text>
</a>
</g>
</g>
<!-- Node4&#45;&gt;Node7 -->
<g id="edge18" class="edge"><title>Node4&#45;&gt;Node7</title>
<path fill="none" stroke="midnightblue" d="M323.045,-217.528C331.531,-209.709 340.486,-199.452 345,-188 360.811,-147.888 336.382,-96.1714 325.155,-75.801"/>
<polygon fill="midnightblue" stroke="midnightblue" points="320.531,-215.073 315.214,-224.236 325.085,-220.389 320.531,-215.073"/>
</g>
<!-- Node12 -->
<g id="node12" class="node"><title>Node12</title>
<g id="a_node12"><a xlink:href="a00127.html" target="_top" xlink:title="adc_dac_dma.c">
<polygon fill="white" stroke="black" points="166,-168.5 166,-187.5 252,-187.5 252,-168.5 166,-168.5"/>
<text text-anchor="middle" x="209" y="-175.5" font-family="Helvetica,sans-Serif" font-size="10.00">adc_dac_dma.c</text>
</a>
</g>
</g>
<!-- Node4&#45;&gt;Node12 -->
<g id="edge19" class="edge"><title>Node4&#45;&gt;Node12</title>
<path fill="none" stroke="midnightblue" d="M278.938,-219.177C261.641,-209.241 238.852,-196.149 224.065,-187.655"/>
<polygon fill="midnightblue" stroke="midnightblue" points="277.483,-222.378 287.897,-224.324 280.97,-216.308 277.483,-222.378"/>
</g>
<!-- Node5&#45;&gt;Node4 -->
<g id="edge14" class="edge"><title>Node5&#45;&gt;Node4</title>
<path fill="none" stroke="midnightblue" d="M309.458,-197.691C310.106,-206.635 309.676,-216.927 308.166,-224.083"/>
<polygon fill="midnightblue" stroke="midnightblue" points="312.923,-197.2 308.131,-187.751 305.985,-198.126 312.923,-197.2"/>
</g>
<!-- Node5&#45;&gt;Node6 -->
<g id="edge5" class="edge"><title>Node5&#45;&gt;Node6</title>
<path fill="none" stroke="midnightblue" d="M330.249,-163.862C351.016,-153.849 379.023,-140.346 397.05,-131.655"/>
<polygon fill="midnightblue" stroke="midnightblue" points="328.482,-160.828 320.995,-168.324 331.523,-167.134 328.482,-160.828"/>
</g>
<!-- Node8 -->
<g id="node8" class="node"><title>Node8</title>
<g id="a_node8"><a xlink:href="a00437.html" target="_top" xlink:title="Callback handler implementations. ">
<polygon fill="white" stroke="black" points="279,-0.5 279,-19.5 361,-19.5 361,-0.5 279,-0.5"/>
<text text-anchor="middle" x="320" y="-7.5" font-family="Helvetica,sans-Serif" font-size="10.00">irq_callbacks.c</text>
</a>
</g>
</g>
<!-- Node5&#45;&gt;Node8 -->
<g id="edge16" class="edge"><title>Node5&#45;&gt;Node8</title>
<path fill="none" stroke="midnightblue" d="M263.312,-164.576C247.905,-157.594 231.861,-147.15 223,-132 218.512,-124.327 219.959,-120.353 223,-112 238.635,-69.0512 283.619,-34.7135 306.413,-19.5019"/>
<polygon fill="midnightblue" stroke="midnightblue" points="262.175,-167.894 272.753,-168.488 264.854,-161.427 262.175,-167.894"/>
</g>
<!-- Node11 -->
<g id="node11" class="node"><title>Node11</title>
<g id="a_node11"><a xlink:href="a00125.html" target="_top" xlink:title="Controlling beam and primary actuators. ">
<polygon fill="white" stroke="black" points="232.5,-112.5 232.5,-131.5 297.5,-131.5 297.5,-112.5 232.5,-112.5"/>
<text text-anchor="middle" x="265" y="-119.5" font-family="Helvetica,sans-Serif" font-size="10.00">actuators.c</text>
</a>
</g>
</g>
<!-- Node5&#45;&gt;Node11 -->
<g id="edge15" class="edge"><title>Node5&#45;&gt;Node11</title>
<path fill="none" stroke="midnightblue" d="M290.935,-159.855C284.355,-150.505 276.489,-139.327 271.158,-131.751"/>
<polygon fill="midnightblue" stroke="midnightblue" points="288.108,-161.919 296.725,-168.083 293.832,-157.891 288.108,-161.919"/>
</g>
<!-- Node6&#45;&gt;Node4 -->
<g id="edge6" class="edge"><title>Node6&#45;&gt;Node4</title>
<path fill="none" stroke="midnightblue" d="M414.815,-141.873C410.088,-155.835 400.034,-174.664 387,-188 371.186,-204.181 348.373,-216.77 330.292,-224.468"/>
<polygon fill="midnightblue" stroke="midnightblue" points="418.275,-142.477 417.419,-131.917 411.502,-140.706 418.275,-142.477"/>
</g>
<!-- Node6&#45;&gt;Node7 -->
<g id="edge7" class="edge"><title>Node6&#45;&gt;Node7</title>
<path fill="none" stroke="midnightblue" d="M385.484,-107.59C366.592,-97.6052 343.398,-84.2672 330.115,-75.6545"/>
<polygon fill="midnightblue" stroke="midnightblue" points="384.133,-110.831 394.622,-112.324 387.353,-104.616 384.133,-110.831"/>
</g>
<!-- Node6&#45;&gt;Node8 -->
<g id="edge11" class="edge"><title>Node6&#45;&gt;Node8</title>
<path fill="none" stroke="midnightblue" d="M448.266,-115.731C492.043,-107.393 560.506,-88.6592 534,-56 512.647,-29.6904 417.029,-18.1923 361.092,-13.6418"/>
<polygon fill="midnightblue" stroke="midnightblue" points="447.493,-112.314 438.275,-117.537 448.739,-119.202 447.493,-112.314"/>
</g>
<!-- Node9 -->
<g id="node9" class="node"><title>Node9</title>
<g id="a_node9"><a xlink:href="a00439.html" target="_top" xlink:title="Main source implementation (29&#45;04&#45;2015) ">
<polygon fill="white" stroke="black" points="479,-56.5 479,-75.5 525,-75.5 525,-56.5 479,-56.5"/>
<text text-anchor="middle" x="502" y="-63.5" font-family="Helvetica,sans-Serif" font-size="10.00">main.c</text>
</a>
</g>
</g>
<!-- Node6&#45;&gt;Node9 -->
<g id="edge12" class="edge"><title>Node6&#45;&gt;Node9</title>
<path fill="none" stroke="midnightblue" d="M437.716,-106.901C453.669,-96.9986 474.497,-84.0705 488.057,-75.6545"/>
<polygon fill="midnightblue" stroke="midnightblue" points="435.629,-104.077 428.978,-112.324 439.32,-110.024 435.629,-104.077"/>
</g>
<!-- Node10 -->
<g id="node10" class="node"><title>Node10</title>
<g id="a_node10"><a xlink:href="a00529.html" target="_top" xlink:title="stm32f4xx_it.c">
<polygon fill="white" stroke="black" points="379.5,-56.5 379.5,-75.5 460.5,-75.5 460.5,-56.5 379.5,-56.5"/>
<text text-anchor="middle" x="420" y="-63.5" font-family="Helvetica,sans-Serif" font-size="10.00">stm32f4xx_it.c</text>
</a>
</g>
</g>
<!-- Node6&#45;&gt;Node10 -->
<g id="edge13" class="edge"><title>Node6&#45;&gt;Node10</title>
<path fill="none" stroke="midnightblue" d="M416.75,-102.101C417.58,-93.1357 418.532,-82.8579 419.19,-75.7511"/>
<polygon fill="midnightblue" stroke="midnightblue" points="413.263,-101.803 415.826,-112.083 420.233,-102.448 413.263,-101.803"/>
</g>
<!-- Node7&#45;&gt;Node5 -->
<g id="edge9" class="edge"><title>Node7&#45;&gt;Node5</title>
<path fill="none" stroke="midnightblue" d="M317.126,-85.5974C313.406,-109.666 307.077,-150.617 304.334,-168.368"/>
<polygon fill="midnightblue" stroke="midnightblue" points="320.604,-86.0087 318.672,-75.5914 313.686,-84.9395 320.604,-86.0087"/>
</g>
<!-- Node7&#45;&gt;Node6 -->
<g id="edge8" class="edge"><title>Node7&#45;&gt;Node6</title>
<path fill="none" stroke="midnightblue" d="M349.469,-80.3855C368.354,-90.3643 391.552,-103.703 404.851,-112.324"/>
<polygon fill="midnightblue" stroke="midnightblue" points="350.825,-77.1461 340.336,-75.6545 347.605,-83.3618 350.825,-77.1461"/>
</g>
<!-- Node7&#45;&gt;Node8 -->
<g id="edge10" class="edge"><title>Node7&#45;&gt;Node8</title>
<path fill="none" stroke="midnightblue" d="M320,-45.8045C320,-36.9102 320,-26.7798 320,-19.7511"/>
<polygon fill="midnightblue" stroke="midnightblue" points="316.5,-46.083 320,-56.083 323.5,-46.083 316.5,-46.083"/>
</g>
</g>
</svg>
