<?xml version="1.0" encoding="UTF-8" standalone="no"?>
<!DOCTYPE svg PUBLIC "-//W3C//DTD SVG 1.1//EN"
 "http://www.w3.org/Graphics/SVG/1.1/DTD/svg11.dtd">
<!-- Generated by graphviz version 2.38.0 (20140413.2041)
 -->
<!-- Title: stm32f4xx_spdifrx.c Pages: 1 -->
<svg width="364pt" height="252pt"
 viewBox="0.00 0.00 364.00 252.00" xmlns="http://www.w3.org/2000/svg" xmlns:xlink="http://www.w3.org/1999/xlink">
<g id="graph0" class="graph" transform="scale(1 1) rotate(0) translate(4 248)">
<title>stm32f4xx_spdifrx.c</title>
<polygon fill="white" stroke="none" points="-4,4 -4,-248 360,-248 360,4 -4,4"/>
<!-- Node1 -->
<g id="node1" class="node"><title>Node1</title>
<polygon fill="#bfbfbf" stroke="black" points="57,-224.5 57,-243.5 162,-243.5 162,-224.5 57,-224.5"/>
<text text-anchor="middle" x="109.5" y="-231.5" font-family="Helvetica,sans-Serif" font-size="10.00">stm32f4xx_spdifrx.c</text>
</g>
<!-- Node2 -->
<g id="node2" class="node"><title>Node2</title>
<g id="a_node2"><a xlink:href="a00554.html" target="_top" xlink:title="This file contains all the functions prototypes for the SPDIFRX firmware library. ...">
<polygon fill="white" stroke="black" points="0,-168.5 0,-187.5 105,-187.5 105,-168.5 0,-168.5"/>
<text text-anchor="middle" x="52.5" y="-175.5" font-family="Helvetica,sans-Serif" font-size="10.00">stm32f4xx_spdifrx.h</text>
</a>
</g>
</g>
<!-- Node1&#45;&gt;Node2 -->
<g id="edge1" class="edge"><title>Node1&#45;&gt;Node2</title>
<path fill="none" stroke="midnightblue" d="M100.342,-224.324C91.9985,-216.42 79.4676,-204.548 69.3231,-194.938"/>
<polygon fill="midnightblue" stroke="midnightblue" points="71.4913,-192.171 61.8247,-187.834 66.6771,-197.252 71.4913,-192.171"/>
</g>
<!-- Node10 -->
<g id="node10" class="node"><title>Node10</title>
<g id="a_node10"><a xlink:href="a00544.html" target="_top" xlink:title="This file contains all the functions prototypes for the RCC firmware library. ">
<polygon fill="white" stroke="black" points="123,-168.5 123,-187.5 212,-187.5 212,-168.5 123,-168.5"/>
<text text-anchor="middle" x="167.5" y="-175.5" font-family="Helvetica,sans-Serif" font-size="10.00">stm32f4xx_rcc.h</text>
</a>
</g>
</g>
<!-- Node1&#45;&gt;Node10 -->
<g id="edge10" class="edge"><title>Node1&#45;&gt;Node10</title>
<path fill="none" stroke="midnightblue" d="M118.819,-224.324C127.393,-216.341 140.312,-204.313 150.688,-194.653"/>
<polygon fill="midnightblue" stroke="midnightblue" points="153.078,-197.21 158.012,-187.834 148.308,-192.086 153.078,-197.21"/>
</g>
<!-- Node3 -->
<g id="node3" class="node"><title>Node3</title>
<g id="a_node3"><a xlink:href="a00484.html" target="_top" xlink:title="CMSIS Cortex&#45;M4 Device Peripheral Access Layer Header File. This file contains all the peripheral reg...">
<polygon fill="white" stroke="black" points="74,-112.5 74,-131.5 145,-131.5 145,-112.5 74,-112.5"/>
<text text-anchor="middle" x="109.5" y="-119.5" font-family="Helvetica,sans-Serif" font-size="10.00">stm32f4xx.h</text>
</a>
</g>
</g>
<!-- Node2&#45;&gt;Node3 -->
<g id="edge2" class="edge"><title>Node2&#45;&gt;Node3</title>
<path fill="none" stroke="midnightblue" d="M61.658,-168.324C70.0015,-160.42 82.5324,-148.548 92.6769,-138.938"/>
<polygon fill="midnightblue" stroke="midnightblue" points="95.3229,-141.252 100.175,-131.834 90.5087,-136.171 95.3229,-141.252"/>
</g>
<!-- Node4 -->
<g id="node4" class="node"><title>Node4</title>
<g id="a_node4"><a xlink:href="a00427.html" target="_top" xlink:title="CMSIS Cortex&#45;M4 Core Peripheral Access Layer Header File. ">
<polygon fill="white" stroke="black" points="75.5,-56.5 75.5,-75.5 143.5,-75.5 143.5,-56.5 75.5,-56.5"/>
<text text-anchor="middle" x="109.5" y="-63.5" font-family="Helvetica,sans-Serif" font-size="10.00">core_cm4.h</text>
</a>
</g>
</g>
<!-- Node3&#45;&gt;Node4 -->
<g id="edge3" class="edge"><title>Node3&#45;&gt;Node4</title>
<path fill="none" stroke="midnightblue" d="M109.5,-112.083C109.5,-105.006 109.5,-94.8611 109.5,-85.9865"/>
<polygon fill="midnightblue" stroke="midnightblue" points="113,-85.751 109.5,-75.7511 106,-85.7511 113,-85.751"/>
</g>
<!-- Node5 -->
<g id="node5" class="node"><title>Node5</title>
<polygon fill="white" stroke="#bfbfbf" points="1,-0.5 1,-19.5 50,-19.5 50,-0.5 1,-0.5"/>
<text text-anchor="middle" x="25.5" y="-7.5" font-family="Helvetica,sans-Serif" font-size="10.00">stdint.h</text>
</g>
<!-- Node3&#45;&gt;Node5 -->
<g id="edge9" class="edge"><title>Node3&#45;&gt;Node5</title>
<path fill="none" stroke="midnightblue" d="M100.038,-112.183C90.9219,-103.446 77.0043,-89.4593 66.5,-76 54.6101,-60.7654 43.0496,-41.962 35.252,-28.5052"/>
<polygon fill="midnightblue" stroke="midnightblue" points="38.2749,-26.7406 30.2883,-19.779 32.1904,-30.2017 38.2749,-26.7406"/>
</g>
<!-- Node9 -->
<g id="node9" class="node"><title>Node9</title>
<g id="a_node9"><a xlink:href="a00568_source.html" target="_top" xlink:title="system_stm32f4xx.h">
<polygon fill="white" stroke="black" points="161.5,-56.5 161.5,-75.5 269.5,-75.5 269.5,-56.5 161.5,-56.5"/>
<text text-anchor="middle" x="215.5" y="-63.5" font-family="Helvetica,sans-Serif" font-size="10.00">system_stm32f4xx.h</text>
</a>
</g>
</g>
<!-- Node3&#45;&gt;Node9 -->
<g id="edge8" class="edge"><title>Node3&#45;&gt;Node9</title>
<path fill="none" stroke="midnightblue" d="M126.531,-112.324C143.53,-103.664 169.876,-90.2424 189.493,-80.249"/>
<polygon fill="midnightblue" stroke="midnightblue" points="191.19,-83.3125 198.512,-75.6545 188.012,-77.0752 191.19,-83.3125"/>
</g>
<!-- Node4&#45;&gt;Node5 -->
<g id="edge4" class="edge"><title>Node4&#45;&gt;Node5</title>
<path fill="none" stroke="midnightblue" d="M96.0039,-56.324C82.9004,-47.9002 62.7881,-34.9709 47.3931,-25.0741"/>
<polygon fill="midnightblue" stroke="midnightblue" points="49.267,-22.118 38.9626,-19.6545 45.4817,-28.0063 49.267,-22.118"/>
</g>
<!-- Node6 -->
<g id="node6" class="node"><title>Node6</title>
<g id="a_node6"><a xlink:href="a00430.html" target="_top" xlink:title="CMSIS Cortex&#45;M Core Instruction Access Header File. ">
<polygon fill="white" stroke="black" points="68.5,-0.5 68.5,-19.5 150.5,-19.5 150.5,-0.5 68.5,-0.5"/>
<text text-anchor="middle" x="109.5" y="-7.5" font-family="Helvetica,sans-Serif" font-size="10.00">core_cmInstr.h</text>
</a>
</g>
</g>
<!-- Node4&#45;&gt;Node6 -->
<g id="edge5" class="edge"><title>Node4&#45;&gt;Node6</title>
<path fill="none" stroke="midnightblue" d="M109.5,-56.083C109.5,-49.0059 109.5,-38.8611 109.5,-29.9865"/>
<polygon fill="midnightblue" stroke="midnightblue" points="113,-29.751 109.5,-19.7511 106,-29.7511 113,-29.751"/>
</g>
<!-- Node7 -->
<g id="node7" class="node"><title>Node7</title>
<g id="a_node7"><a xlink:href="a00429.html" target="_top" xlink:title="CMSIS Cortex&#45;M Core Function Access Header File. ">
<polygon fill="white" stroke="black" points="168.5,-0.5 168.5,-19.5 252.5,-19.5 252.5,-0.5 168.5,-0.5"/>
<text text-anchor="middle" x="210.5" y="-7.5" font-family="Helvetica,sans-Serif" font-size="10.00">core_cmFunc.h</text>
</a>
</g>
</g>
<!-- Node4&#45;&gt;Node7 -->
<g id="edge6" class="edge"><title>Node4&#45;&gt;Node7</title>
<path fill="none" stroke="midnightblue" d="M125.727,-56.324C141.851,-47.7034 166.8,-34.3643 185.464,-24.3855"/>
<polygon fill="midnightblue" stroke="midnightblue" points="187.144,-27.456 194.313,-19.6545 183.844,-21.283 187.144,-27.456"/>
</g>
<!-- Node8 -->
<g id="node8" class="node"><title>Node8</title>
<g id="a_node8"><a xlink:href="a00431.html" target="_top" xlink:title="CMSIS Cortex&#45;M SIMD Header File. ">
<polygon fill="white" stroke="black" points="271,-0.5 271,-19.5 356,-19.5 356,-0.5 271,-0.5"/>
<text text-anchor="middle" x="313.5" y="-7.5" font-family="Helvetica,sans-Serif" font-size="10.00">core_cmSimd.h</text>
</a>
</g>
</g>
<!-- Node4&#45;&gt;Node8 -->
<g id="edge7" class="edge"><title>Node4&#45;&gt;Node8</title>
<path fill="none" stroke="midnightblue" d="M141.824,-56.4435C176.889,-47.1616 232.998,-32.3093 271.465,-22.127"/>
<polygon fill="midnightblue" stroke="midnightblue" points="272.555,-25.4589 281.327,-19.5164 270.764,-18.692 272.555,-25.4589"/>
</g>
<!-- Node10&#45;&gt;Node3 -->
<g id="edge11" class="edge"><title>Node10&#45;&gt;Node3</title>
<path fill="none" stroke="midnightblue" d="M158.181,-168.324C149.607,-160.341 136.688,-148.313 126.312,-138.653"/>
<polygon fill="midnightblue" stroke="midnightblue" points="128.692,-136.086 118.988,-131.834 123.922,-141.21 128.692,-136.086"/>
</g>
</g>
</svg>
