<?xml version="1.0" encoding="UTF-8" standalone="no"?>
<!DOCTYPE svg PUBLIC "-//W3C//DTD SVG 1.1//EN"
 "http://www.w3.org/Graphics/SVG/1.1/DTD/svg11.dtd">
<!-- Generated by graphviz version 2.38.0 (20140413.2041)
 -->
<!-- Title: MDB_GPIO_t Pages: 1 -->
<svg width="135pt" height="347pt"
 viewBox="0.00 0.00 134.50 347.00" xmlns="http://www.w3.org/2000/svg" xmlns:xlink="http://www.w3.org/1999/xlink">
<g id="graph0" class="graph" transform="scale(1 1) rotate(0) translate(4 343)">
<title>MDB_GPIO_t</title>
<polygon fill="white" stroke="none" points="-4,4 -4,-343 130.5,-343 130.5,4 -4,4"/>
<!-- Node1 -->
<g id="node1" class="node"><title>Node1</title>
<polygon fill="#bfbfbf" stroke="black" points="-7.10543e-15,-0.5 -7.10543e-15,-134.5 107,-134.5 107,-0.5 -7.10543e-15,-0.5"/>
<text text-anchor="middle" x="53.5" y="-122.5" font-family="Helvetica,sans-Serif" font-size="10.00">MDB_GPIO_t</text>
<polyline fill="none" stroke="black" points="-7.10543e-15,-115.5 107,-115.5 "/>
<text text-anchor="start" x="8" y="-103.5" font-family="Helvetica,sans-Serif" font-size="10.00">+ _GPIO_NAME</text>
<text text-anchor="start" x="8" y="-92.5" font-family="Helvetica,sans-Serif" font-size="10.00">+ _GPIO_PIN</text>
<text text-anchor="start" x="8" y="-81.5" font-family="Helvetica,sans-Serif" font-size="10.00">+ _GPIO_AHB_CLK</text>
<text text-anchor="start" x="8" y="-70.5" font-family="Helvetica,sans-Serif" font-size="10.00">+ _GPIO_Mode</text>
<text text-anchor="start" x="8" y="-59.5" font-family="Helvetica,sans-Serif" font-size="10.00">+ _GPIO_OType</text>
<text text-anchor="start" x="8" y="-48.5" font-family="Helvetica,sans-Serif" font-size="10.00">+ _GPIO_PuPd</text>
<text text-anchor="start" x="8" y="-37.5" font-family="Helvetica,sans-Serif" font-size="10.00">+ _GPIO_Speed</text>
<text text-anchor="start" x="8" y="-26.5" font-family="Helvetica,sans-Serif" font-size="10.00">+ _GPIO_INIT</text>
<polyline fill="none" stroke="black" points="-7.10543e-15,-19.5 107,-19.5 "/>
<text text-anchor="middle" x="53.5" y="-7.5" font-family="Helvetica,sans-Serif" font-size="10.00"> </text>
</g>
<!-- Node2 -->
<g id="node2" class="node"><title>Node2</title>
<g id="a_node2"><a xlink:href="a00027.html#a01357" target="_top" xlink:title="General Purpose I/O. ">
<polygon fill="white" stroke="black" points="11.5,-182.5 11.5,-338.5 95.5,-338.5 95.5,-182.5 11.5,-182.5"/>
<text text-anchor="middle" x="53.5" y="-326.5" font-family="Helvetica,sans-Serif" font-size="10.00">GPIO_TypeDef</text>
<polyline fill="none" stroke="black" points="11.5,-319.5 95.5,-319.5 "/>
<text text-anchor="start" x="19.5" y="-307.5" font-family="Helvetica,sans-Serif" font-size="10.00">+ MODER</text>
<text text-anchor="start" x="19.5" y="-296.5" font-family="Helvetica,sans-Serif" font-size="10.00">+ OTYPER</text>
<text text-anchor="start" x="19.5" y="-285.5" font-family="Helvetica,sans-Serif" font-size="10.00">+ OSPEEDR</text>
<text text-anchor="start" x="19.5" y="-274.5" font-family="Helvetica,sans-Serif" font-size="10.00">+ PUPDR</text>
<text text-anchor="start" x="19.5" y="-263.5" font-family="Helvetica,sans-Serif" font-size="10.00">+ IDR</text>
<text text-anchor="start" x="19.5" y="-252.5" font-family="Helvetica,sans-Serif" font-size="10.00">+ ODR</text>
<text text-anchor="start" x="19.5" y="-241.5" font-family="Helvetica,sans-Serif" font-size="10.00">+ BSRRL</text>
<text text-anchor="start" x="19.5" y="-230.5" font-family="Helvetica,sans-Serif" font-size="10.00">+ BSRRH</text>
<text text-anchor="start" x="19.5" y="-219.5" font-family="Helvetica,sans-Serif" font-size="10.00">+ LCKR</text>
<text text-anchor="start" x="19.5" y="-208.5" font-family="Helvetica,sans-Serif" font-size="10.00">+ AFR</text>
<polyline fill="none" stroke="black" points="11.5,-201.5 95.5,-201.5 "/>
<text text-anchor="middle" x="53.5" y="-189.5" font-family="Helvetica,sans-Serif" font-size="10.00"> </text>
</a>
</g>
</g>
<!-- Node2&#45;&gt;Node1 -->
<g id="edge1" class="edge"><title>Node2&#45;&gt;Node1</title>
<path fill="none" stroke="#404040" d="M53.5,-182.364C53.5,-170.607 53.5,-158.464 53.5,-146.685"/>
<polygon fill="none" stroke="#404040" points="53.5001,-146.573 49.5,-140.573 53.5,-134.573 57.5,-140.573 53.5001,-146.573"/>
<text text-anchor="middle" x="90" y="-156" font-family="Helvetica,sans-Serif" font-size="10.00"> +_GPIO_PORT</text>
</g>
</g>
</svg>
