<?xml version="1.0" encoding="UTF-8" standalone="no"?>
<!DOCTYPE svg PUBLIC "-//W3C//DTD SVG 1.1//EN"
 "http://www.w3.org/Graphics/SVG/1.1/DTD/svg11.dtd">
<!-- Generated by graphviz version 2.38.0 (20140413.2041)
 -->
<!-- Title: RTC_AlarmTypeDef Pages: 1 -->
<svg width="169pt" height="226pt"
 viewBox="0.00 0.00 169.00 226.00" xmlns="http://www.w3.org/2000/svg" xmlns:xlink="http://www.w3.org/1999/xlink">
<g id="graph0" class="graph" transform="scale(1 1) rotate(0) translate(4 222)">
<title>RTC_AlarmTypeDef</title>
<polygon fill="white" stroke="none" points="-4,4 -4,-222 165,-222 165,4 -4,4"/>
<!-- Node1 -->
<g id="node1" class="node"><title>Node1</title>
<polygon fill="#bfbfbf" stroke="black" points="0,-0.5 0,-79.5 156,-79.5 156,-0.5 0,-0.5"/>
<text text-anchor="middle" x="78" y="-67.5" font-family="Helvetica,sans-Serif" font-size="10.00">RTC_AlarmTypeDef</text>
<polyline fill="none" stroke="black" points="0,-60.5 156,-60.5 "/>
<text text-anchor="start" x="8" y="-48.5" font-family="Helvetica,sans-Serif" font-size="10.00">+ RTC_AlarmMask</text>
<text text-anchor="start" x="8" y="-37.5" font-family="Helvetica,sans-Serif" font-size="10.00">+ RTC_AlarmDateWeekDaySel</text>
<text text-anchor="start" x="8" y="-26.5" font-family="Helvetica,sans-Serif" font-size="10.00">+ RTC_AlarmDateWeekDay</text>
<polyline fill="none" stroke="black" points="0,-19.5 156,-19.5 "/>
<text text-anchor="middle" x="78" y="-7.5" font-family="Helvetica,sans-Serif" font-size="10.00"> </text>
</g>
<!-- Node2 -->
<g id="node2" class="node"><title>Node2</title>
<g id="a_node2"><a xlink:href="a00112.html#a01394" target="_top" xlink:title="RTC Time structure definition. ">
<polygon fill="white" stroke="black" points="27,-127.5 27,-217.5 129,-217.5 129,-127.5 27,-127.5"/>
<text text-anchor="middle" x="78" y="-205.5" font-family="Helvetica,sans-Serif" font-size="10.00">RTC_TimeTypeDef</text>
<polyline fill="none" stroke="black" points="27,-198.5 129,-198.5 "/>
<text text-anchor="start" x="35" y="-186.5" font-family="Helvetica,sans-Serif" font-size="10.00">+ RTC_Hours</text>
<text text-anchor="start" x="35" y="-175.5" font-family="Helvetica,sans-Serif" font-size="10.00">+ RTC_Minutes</text>
<text text-anchor="start" x="35" y="-164.5" font-family="Helvetica,sans-Serif" font-size="10.00">+ RTC_Seconds</text>
<text text-anchor="start" x="35" y="-153.5" font-family="Helvetica,sans-Serif" font-size="10.00">+ RTC_H12</text>
<polyline fill="none" stroke="black" points="27,-146.5 129,-146.5 "/>
<text text-anchor="middle" x="78" y="-134.5" font-family="Helvetica,sans-Serif" font-size="10.00"> </text>
</a>
</g>
</g>
<!-- Node2&#45;&gt;Node1 -->
<g id="edge1" class="edge"><title>Node2&#45;&gt;Node1</title>
<path fill="none" stroke="#404040" d="M78,-127.319C78,-116.024 78,-103.785 78,-92.1718"/>
<polygon fill="none" stroke="#404040" points="78.0001,-91.8892 74,-85.8893 78,-79.8892 82,-85.8892 78.0001,-91.8892"/>
<text text-anchor="middle" x="119.5" y="-101" font-family="Helvetica,sans-Serif" font-size="10.00"> +RTC_AlarmTime</text>
</g>
</g>
</svg>
