<?xml version="1.0" encoding="UTF-8" standalone="no"?>
<!DOCTYPE svg PUBLIC "-//W3C//DTD SVG 1.1//EN"
 "http://www.w3.org/Graphics/SVG/1.1/DTD/svg11.dtd">
<!-- Generated by graphviz version 2.38.0 (20140413.2041)
 -->
<!-- Title: DMA2D_BG_InitTypeDef Pages: 1 -->
<svg width="185pt" height="176pt"
 viewBox="0.00 0.00 185.00 176.00" xmlns="http://www.w3.org/2000/svg" xmlns:xlink="http://www.w3.org/1999/xlink">
<g id="graph0" class="graph" transform="scale(1 1) rotate(0) translate(4 172)">
<title>DMA2D_BG_InitTypeDef</title>
<polygon fill="white" stroke="none" points="-4,4 -4,-172 181,-172 181,4 -4,4"/>
<!-- Node1 -->
<g id="node1" class="node"><title>Node1</title>
<polygon fill="#bfbfbf" stroke="black" points="-1.42109e-14,-0.5 -1.42109e-14,-167.5 177,-167.5 177,-0.5 -1.42109e-14,-0.5"/>
<text text-anchor="middle" x="88.5" y="-155.5" font-family="Helvetica,sans-Serif" font-size="10.00">DMA2D_BG_InitTypeDef</text>
<polyline fill="none" stroke="black" points="-1.42109e-14,-148.5 177,-148.5 "/>
<text text-anchor="start" x="8" y="-136.5" font-family="Helvetica,sans-Serif" font-size="10.00">+ DMA2D_BGMA</text>
<text text-anchor="start" x="8" y="-125.5" font-family="Helvetica,sans-Serif" font-size="10.00">+ DMA2D_BGO</text>
<text text-anchor="start" x="8" y="-114.5" font-family="Helvetica,sans-Serif" font-size="10.00">+ DMA2D_BGCM</text>
<text text-anchor="start" x="8" y="-103.5" font-family="Helvetica,sans-Serif" font-size="10.00">+ DMA2D_BG_CLUT_CM</text>
<text text-anchor="start" x="8" y="-92.5" font-family="Helvetica,sans-Serif" font-size="10.00">+ DMA2D_BG_CLUT_SIZE</text>
<text text-anchor="start" x="8" y="-81.5" font-family="Helvetica,sans-Serif" font-size="10.00">+ DMA2D_BGPFC_ALPHA_MODE</text>
<text text-anchor="start" x="8" y="-70.5" font-family="Helvetica,sans-Serif" font-size="10.00">+ DMA2D_BGPFC_ALPHA_VALUE</text>
<text text-anchor="start" x="8" y="-59.5" font-family="Helvetica,sans-Serif" font-size="10.00">+ DMA2D_BGC_BLUE</text>
<text text-anchor="start" x="8" y="-48.5" font-family="Helvetica,sans-Serif" font-size="10.00">+ DMA2D_BGC_GREEN</text>
<text text-anchor="start" x="8" y="-37.5" font-family="Helvetica,sans-Serif" font-size="10.00">+ DMA2D_BGC_RED</text>
<text text-anchor="start" x="8" y="-26.5" font-family="Helvetica,sans-Serif" font-size="10.00">+ DMA2D_BGCMAR</text>
<polyline fill="none" stroke="black" points="-1.42109e-14,-19.5 177,-19.5 "/>
<text text-anchor="middle" x="88.5" y="-7.5" font-family="Helvetica,sans-Serif" font-size="10.00"> </text>
</g>
</g>
</svg>
