<?xml version="1.0" encoding="UTF-8" standalone="no"?>
<!DOCTYPE svg PUBLIC "-//W3C//DTD SVG 1.1//EN"
 "http://www.w3.org/Graphics/SVG/1.1/DTD/svg11.dtd">
<!-- Generated by graphviz version 2.38.0 (20140413.2041)
 -->
<!-- Title: arm_dct4_instance_q15 Pages: 1 -->
<svg width="288pt" height="419pt"
 viewBox="0.00 0.00 287.50 419.00" xmlns="http://www.w3.org/2000/svg" xmlns:xlink="http://www.w3.org/1999/xlink">
<g id="graph0" class="graph" transform="scale(1 1) rotate(0) translate(4 415)">
<title>arm_dct4_instance_q15</title>
<polygon fill="white" stroke="none" points="-4,4 -4,-415 283.5,-415 283.5,4 -4,4"/>
<!-- Node1 -->
<g id="node1" class="node"><title>Node1</title>
<polygon fill="#bfbfbf" stroke="black" points="63.5,-0.5 63.5,-101.5 183.5,-101.5 183.5,-0.5 63.5,-0.5"/>
<text text-anchor="middle" x="123.5" y="-89.5" font-family="Helvetica,sans-Serif" font-size="10.00">arm_dct4_instance_q15</text>
<polyline fill="none" stroke="black" points="63.5,-82.5 183.5,-82.5 "/>
<text text-anchor="start" x="71.5" y="-70.5" font-family="Helvetica,sans-Serif" font-size="10.00">+ N</text>
<text text-anchor="start" x="71.5" y="-59.5" font-family="Helvetica,sans-Serif" font-size="10.00">+ Nby2</text>
<text text-anchor="start" x="71.5" y="-48.5" font-family="Helvetica,sans-Serif" font-size="10.00">+ normalize</text>
<text text-anchor="start" x="71.5" y="-37.5" font-family="Helvetica,sans-Serif" font-size="10.00">+ pTwiddle</text>
<text text-anchor="start" x="71.5" y="-26.5" font-family="Helvetica,sans-Serif" font-size="10.00">+ pCosFactor</text>
<polyline fill="none" stroke="black" points="63.5,-19.5 183.5,-19.5 "/>
<text text-anchor="middle" x="123.5" y="-7.5" font-family="Helvetica,sans-Serif" font-size="10.00"> </text>
</g>
<!-- Node2 -->
<g id="node2" class="node"><title>Node2</title>
<g id="a_node2"><a xlink:href="a00048.html" target="_top" xlink:title="Instance structure for the Q15 CFFT/CIFFT function. ">
<polygon fill="white" stroke="black" points="0,-149.5 0,-272.5 147,-272.5 147,-149.5 0,-149.5"/>
<text text-anchor="middle" x="73.5" y="-260.5" font-family="Helvetica,sans-Serif" font-size="10.00">arm_cfft_radix4_instance_q15</text>
<polyline fill="none" stroke="black" points="0,-253.5 147,-253.5 "/>
<text text-anchor="start" x="8" y="-241.5" font-family="Helvetica,sans-Serif" font-size="10.00">+ fftLen</text>
<text text-anchor="start" x="8" y="-230.5" font-family="Helvetica,sans-Serif" font-size="10.00">+ ifftFlag</text>
<text text-anchor="start" x="8" y="-219.5" font-family="Helvetica,sans-Serif" font-size="10.00">+ bitReverseFlag</text>
<text text-anchor="start" x="8" y="-208.5" font-family="Helvetica,sans-Serif" font-size="10.00">+ pTwiddle</text>
<text text-anchor="start" x="8" y="-197.5" font-family="Helvetica,sans-Serif" font-size="10.00">+ pBitRevTable</text>
<text text-anchor="start" x="8" y="-186.5" font-family="Helvetica,sans-Serif" font-size="10.00">+ twidCoefModifier</text>
<text text-anchor="start" x="8" y="-175.5" font-family="Helvetica,sans-Serif" font-size="10.00">+ bitRevFactor</text>
<polyline fill="none" stroke="black" points="0,-168.5 147,-168.5 "/>
<text text-anchor="middle" x="73.5" y="-156.5" font-family="Helvetica,sans-Serif" font-size="10.00"> </text>
</a>
</g>
</g>
<!-- Node2&#45;&gt;Node1 -->
<g id="edge1" class="edge"><title>Node2&#45;&gt;Node1</title>
<path fill="none" stroke="#404040" d="M92.6883,-149.365C96.4268,-137.551 100.349,-125.158 104.094,-113.322"/>
<polygon fill="none" stroke="#404040" points="104.147,-113.155 102.144,-106.228 107.768,-101.714 109.771,-108.642 104.147,-113.155"/>
<text text-anchor="middle" x="116" y="-123" font-family="Helvetica,sans-Serif" font-size="10.00"> +pCfft</text>
</g>
<!-- Node3 -->
<g id="node3" class="node"><title>Node3</title>
<g id="a_node3"><a xlink:href="a00089.html" target="_top" xlink:title="Instance structure for the Q15 RFFT/RIFFT function. ">
<polygon fill="white" stroke="black" points="165,-155 165,-267 278,-267 278,-155 165,-155"/>
<text text-anchor="middle" x="221.5" y="-255" font-family="Helvetica,sans-Serif" font-size="10.00">arm_rfft_instance_q15</text>
<polyline fill="none" stroke="black" points="165,-248 278,-248 "/>
<text text-anchor="start" x="173" y="-236" font-family="Helvetica,sans-Serif" font-size="10.00">+ fftLenReal</text>
<text text-anchor="start" x="173" y="-225" font-family="Helvetica,sans-Serif" font-size="10.00">+ ifftFlagR</text>
<text text-anchor="start" x="173" y="-214" font-family="Helvetica,sans-Serif" font-size="10.00">+ bitReverseFlagR</text>
<text text-anchor="start" x="173" y="-203" font-family="Helvetica,sans-Serif" font-size="10.00">+ twidCoefRModifier</text>
<text text-anchor="start" x="173" y="-192" font-family="Helvetica,sans-Serif" font-size="10.00">+ pTwiddleAReal</text>
<text text-anchor="start" x="173" y="-181" font-family="Helvetica,sans-Serif" font-size="10.00">+ pTwiddleBReal</text>
<polyline fill="none" stroke="black" points="165,-174 278,-174 "/>
<text text-anchor="middle" x="221.5" y="-162" font-family="Helvetica,sans-Serif" font-size="10.00"> </text>
</a>
</g>
</g>
<!-- Node3&#45;&gt;Node1 -->
<g id="edge2" class="edge"><title>Node3&#45;&gt;Node1</title>
<path fill="none" stroke="#404040" d="M187.224,-154.739C178.691,-140.982 169.502,-126.166 160.83,-112.185"/>
<polygon fill="none" stroke="#404040" points="160.644,-111.885 154.082,-108.895 154.319,-101.687 160.881,-104.678 160.644,-111.885"/>
<text text-anchor="middle" x="188" y="-123" font-family="Helvetica,sans-Serif" font-size="10.00"> +pRfft</text>
</g>
<!-- Node4 -->
<g id="node4" class="node"><title>Node4</title>
<g id="a_node4"><a xlink:href="a00042.html" target="_top" xlink:title="Instance structure for the fixed&#45;point CFFT/CIFFT function. ">
<polygon fill="white" stroke="black" points="163.5,-320.5 163.5,-410.5 279.5,-410.5 279.5,-320.5 163.5,-320.5"/>
<text text-anchor="middle" x="221.5" y="-398.5" font-family="Helvetica,sans-Serif" font-size="10.00">arm_cfft_instance_q15</text>
<polyline fill="none" stroke="black" points="163.5,-391.5 279.5,-391.5 "/>
<text text-anchor="start" x="171.5" y="-379.5" font-family="Helvetica,sans-Serif" font-size="10.00">+ fftLen</text>
<text text-anchor="start" x="171.5" y="-368.5" font-family="Helvetica,sans-Serif" font-size="10.00">+ pTwiddle</text>
<text text-anchor="start" x="171.5" y="-357.5" font-family="Helvetica,sans-Serif" font-size="10.00">+ pBitRevTable</text>
<text text-anchor="start" x="171.5" y="-346.5" font-family="Helvetica,sans-Serif" font-size="10.00">+ bitRevLength</text>
<polyline fill="none" stroke="black" points="163.5,-339.5 279.5,-339.5 "/>
<text text-anchor="middle" x="221.5" y="-327.5" font-family="Helvetica,sans-Serif" font-size="10.00"> </text>
</a>
</g>
</g>
<!-- Node4&#45;&gt;Node3 -->
<g id="edge3" class="edge"><title>Node4&#45;&gt;Node3</title>
<path fill="none" stroke="#404040" d="M221.5,-320.391C221.5,-307.532 221.5,-293.18 221.5,-279.236"/>
<polygon fill="none" stroke="#404040" points="221.5,-279.135 217.5,-273.135 221.5,-267.135 225.5,-273.135 221.5,-279.135"/>
<text text-anchor="middle" x="237" y="-294" font-family="Helvetica,sans-Serif" font-size="10.00"> +pCfft</text>
</g>
</g>
</svg>
