<?xml version="1.0" encoding="UTF-8" standalone="no"?>
<!DOCTYPE svg PUBLIC "-//W3C//DTD SVG 1.1//EN"
 "http://www.w3.org/Graphics/SVG/1.1/DTD/svg11.dtd">
<!-- Generated by graphviz version 2.38.0 (20140413.2041)
 -->
<!-- Title: arm_dct4_instance_f32 Pages: 1 -->
<svg width="212pt" height="463pt"
 viewBox="0.00 0.00 211.50 463.00" xmlns="http://www.w3.org/2000/svg" xmlns:xlink="http://www.w3.org/1999/xlink">
<g id="graph0" class="graph" transform="scale(1 1) rotate(0) translate(4 459)">
<title>arm_dct4_instance_f32</title>
<polygon fill="white" stroke="none" points="-4,4 -4,-459 207.5,-459 207.5,4 -4,4"/>
<!-- Node1 -->
<g id="node1" class="node"><title>Node1</title>
<polygon fill="#bfbfbf" stroke="black" points="0,-0.5 0,-101.5 118,-101.5 118,-0.5 0,-0.5"/>
<text text-anchor="middle" x="59" y="-89.5" font-family="Helvetica,sans-Serif" font-size="10.00">arm_dct4_instance_f32</text>
<polyline fill="none" stroke="black" points="0,-82.5 118,-82.5 "/>
<text text-anchor="start" x="8" y="-70.5" font-family="Helvetica,sans-Serif" font-size="10.00">+ N</text>
<text text-anchor="start" x="8" y="-59.5" font-family="Helvetica,sans-Serif" font-size="10.00">+ Nby2</text>
<text text-anchor="start" x="8" y="-48.5" font-family="Helvetica,sans-Serif" font-size="10.00">+ normalize</text>
<text text-anchor="start" x="8" y="-37.5" font-family="Helvetica,sans-Serif" font-size="10.00">+ pTwiddle</text>
<text text-anchor="start" x="8" y="-26.5" font-family="Helvetica,sans-Serif" font-size="10.00">+ pCosFactor</text>
<polyline fill="none" stroke="black" points="0,-19.5 118,-19.5 "/>
<text text-anchor="middle" x="59" y="-7.5" font-family="Helvetica,sans-Serif" font-size="10.00"> </text>
</g>
<!-- Node2 -->
<g id="node2" class="node"><title>Node2</title>
<g id="a_node2"><a xlink:href="a00047.html" target="_top" xlink:title="Instance structure for the floating&#45;point CFFT/CIFFT function. ">
<polygon fill="white" stroke="black" points="4.5,-320.5 4.5,-454.5 149.5,-454.5 149.5,-320.5 4.5,-320.5"/>
<text text-anchor="middle" x="77" y="-442.5" font-family="Helvetica,sans-Serif" font-size="10.00">arm_cfft_radix4_instance_f32</text>
<polyline fill="none" stroke="black" points="4.5,-435.5 149.5,-435.5 "/>
<text text-anchor="start" x="12.5" y="-423.5" font-family="Helvetica,sans-Serif" font-size="10.00">+ fftLen</text>
<text text-anchor="start" x="12.5" y="-412.5" font-family="Helvetica,sans-Serif" font-size="10.00">+ ifftFlag</text>
<text text-anchor="start" x="12.5" y="-401.5" font-family="Helvetica,sans-Serif" font-size="10.00">+ bitReverseFlag</text>
<text text-anchor="start" x="12.5" y="-390.5" font-family="Helvetica,sans-Serif" font-size="10.00">+ pTwiddle</text>
<text text-anchor="start" x="12.5" y="-379.5" font-family="Helvetica,sans-Serif" font-size="10.00">+ pBitRevTable</text>
<text text-anchor="start" x="12.5" y="-368.5" font-family="Helvetica,sans-Serif" font-size="10.00">+ twidCoefModifier</text>
<text text-anchor="start" x="12.5" y="-357.5" font-family="Helvetica,sans-Serif" font-size="10.00">+ bitRevFactor</text>
<text text-anchor="start" x="12.5" y="-346.5" font-family="Helvetica,sans-Serif" font-size="10.00">+ onebyfftLen</text>
<polyline fill="none" stroke="black" points="4.5,-339.5 149.5,-339.5 "/>
<text text-anchor="middle" x="77" y="-327.5" font-family="Helvetica,sans-Serif" font-size="10.00"> </text>
</a>
</g>
</g>
<!-- Node2&#45;&gt;Node1 -->
<g id="edge1" class="edge"><title>Node2&#45;&gt;Node1</title>
<path fill="none" stroke="#404040" d="M60.5733,-320.251C57.4268,-304.838 54.6129,-288.424 53,-273 47.2682,-218.188 51.298,-204.085 53,-149 53.3482,-137.73 53.9235,-125.734 54.5836,-114.158"/>
<polygon fill="none" stroke="#404040" points="54.6053,-113.796 50.9731,-107.566 55.3264,-101.818 58.9586,-108.047 54.6053,-113.796"/>
<text text-anchor="middle" x="68.5" y="-208.5" font-family="Helvetica,sans-Serif" font-size="10.00"> +pCfft</text>
</g>
<!-- Node3 -->
<g id="node3" class="node"><title>Node3</title>
<g id="a_node3"><a xlink:href="a00088.html" target="_top" xlink:title="Instance structure for the floating&#45;point RFFT/RIFFT function. ">
<polygon fill="white" stroke="black" points="92.5,-149.5 92.5,-272.5 203.5,-272.5 203.5,-149.5 92.5,-149.5"/>
<text text-anchor="middle" x="148" y="-260.5" font-family="Helvetica,sans-Serif" font-size="10.00">arm_rfft_instance_f32</text>
<polyline fill="none" stroke="black" points="92.5,-253.5 203.5,-253.5 "/>
<text text-anchor="start" x="100.5" y="-241.5" font-family="Helvetica,sans-Serif" font-size="10.00">+ fftLenReal</text>
<text text-anchor="start" x="100.5" y="-230.5" font-family="Helvetica,sans-Serif" font-size="10.00">+ fftLenBy2</text>
<text text-anchor="start" x="100.5" y="-219.5" font-family="Helvetica,sans-Serif" font-size="10.00">+ ifftFlagR</text>
<text text-anchor="start" x="100.5" y="-208.5" font-family="Helvetica,sans-Serif" font-size="10.00">+ bitReverseFlagR</text>
<text text-anchor="start" x="100.5" y="-197.5" font-family="Helvetica,sans-Serif" font-size="10.00">+ twidCoefRModifier</text>
<text text-anchor="start" x="100.5" y="-186.5" font-family="Helvetica,sans-Serif" font-size="10.00">+ pTwiddleAReal</text>
<text text-anchor="start" x="100.5" y="-175.5" font-family="Helvetica,sans-Serif" font-size="10.00">+ pTwiddleBReal</text>
<polyline fill="none" stroke="black" points="92.5,-168.5 203.5,-168.5 "/>
<text text-anchor="middle" x="148" y="-156.5" font-family="Helvetica,sans-Serif" font-size="10.00"> </text>
</a>
</g>
</g>
<!-- Node2&#45;&gt;Node3 -->
<g id="edge3" class="edge"><title>Node2&#45;&gt;Node3</title>
<path fill="none" stroke="#404040" d="M104.045,-320.031C108.856,-308.207 113.887,-295.842 118.755,-283.876"/>
<polygon fill="none" stroke="#404040" points="118.839,-283.67 117.395,-276.605 123.361,-272.555 124.805,-279.62 118.839,-283.67"/>
<text text-anchor="middle" x="129.5" y="-294" font-family="Helvetica,sans-Serif" font-size="10.00"> +pCfft</text>
</g>
<!-- Node3&#45;&gt;Node1 -->
<g id="edge2" class="edge"><title>Node3&#45;&gt;Node1</title>
<path fill="none" stroke="#404040" d="M113.845,-149.365C106.982,-137.182 99.7724,-124.382 92.918,-112.214"/>
<polygon fill="none" stroke="#404040" points="92.8931,-112.17 86.4633,-108.905 87.0037,-101.714 93.4335,-104.979 92.8931,-112.17"/>
<text text-anchor="middle" x="118.5" y="-123" font-family="Helvetica,sans-Serif" font-size="10.00"> +pRfft</text>
</g>
</g>
</svg>
