<?xml version="1.0" encoding="UTF-8" standalone="no"?>
<!DOCTYPE svg PUBLIC "-//W3C//DTD SVG 1.1//EN"
 "http://www.w3.org/Graphics/SVG/1.1/DTD/svg11.dtd">
<!-- Generated by graphviz version 2.38.0 (20140413.2041)
 -->
<!-- Title: arm_dct4_instance_q31 Pages: 1 -->
<svg width="288pt" height="419pt"
 viewBox="0.00 0.00 287.50 419.00" xmlns="http://www.w3.org/2000/svg" xmlns:xlink="http://www.w3.org/1999/xlink">
<g id="graph0" class="graph" transform="scale(1 1) rotate(0) translate(4 415)">
<title>arm_dct4_instance_q31</title>
<polygon fill="white" stroke="none" points="-4,4 -4,-415 283.5,-415 283.5,4 -4,4"/>
<!-- Node1 -->
<g id="node1" class="node"><title>Node1</title>
<polygon fill="#bfbfbf" stroke="black" points="109,-0.5 109,-101.5 229,-101.5 229,-0.5 109,-0.5"/>
<text text-anchor="middle" x="169" y="-89.5" font-family="Helvetica,sans-Serif" font-size="10.00">arm_dct4_instance_q31</text>
<polyline fill="none" stroke="black" points="109,-82.5 229,-82.5 "/>
<text text-anchor="start" x="117" y="-70.5" font-family="Helvetica,sans-Serif" font-size="10.00">+ N</text>
<text text-anchor="start" x="117" y="-59.5" font-family="Helvetica,sans-Serif" font-size="10.00">+ Nby2</text>
<text text-anchor="start" x="117" y="-48.5" font-family="Helvetica,sans-Serif" font-size="10.00">+ normalize</text>
<text text-anchor="start" x="117" y="-37.5" font-family="Helvetica,sans-Serif" font-size="10.00">+ pTwiddle</text>
<text text-anchor="start" x="117" y="-26.5" font-family="Helvetica,sans-Serif" font-size="10.00">+ pCosFactor</text>
<polyline fill="none" stroke="black" points="109,-19.5 229,-19.5 "/>
<text text-anchor="middle" x="169" y="-7.5" font-family="Helvetica,sans-Serif" font-size="10.00"> </text>
</g>
<!-- Node2 -->
<g id="node2" class="node"><title>Node2</title>
<g id="a_node2"><a xlink:href="a00090.html" target="_top" xlink:title="Instance structure for the Q31 RFFT/RIFFT function. ">
<polygon fill="white" stroke="black" points="1.5,-155 1.5,-267 114.5,-267 114.5,-155 1.5,-155"/>
<text text-anchor="middle" x="58" y="-255" font-family="Helvetica,sans-Serif" font-size="10.00">arm_rfft_instance_q31</text>
<polyline fill="none" stroke="black" points="1.5,-248 114.5,-248 "/>
<text text-anchor="start" x="9.5" y="-236" font-family="Helvetica,sans-Serif" font-size="10.00">+ fftLenReal</text>
<text text-anchor="start" x="9.5" y="-225" font-family="Helvetica,sans-Serif" font-size="10.00">+ ifftFlagR</text>
<text text-anchor="start" x="9.5" y="-214" font-family="Helvetica,sans-Serif" font-size="10.00">+ bitReverseFlagR</text>
<text text-anchor="start" x="9.5" y="-203" font-family="Helvetica,sans-Serif" font-size="10.00">+ twidCoefRModifier</text>
<text text-anchor="start" x="9.5" y="-192" font-family="Helvetica,sans-Serif" font-size="10.00">+ pTwiddleAReal</text>
<text text-anchor="start" x="9.5" y="-181" font-family="Helvetica,sans-Serif" font-size="10.00">+ pTwiddleBReal</text>
<polyline fill="none" stroke="black" points="1.5,-174 114.5,-174 "/>
<text text-anchor="middle" x="58" y="-162" font-family="Helvetica,sans-Serif" font-size="10.00"> </text>
</a>
</g>
</g>
<!-- Node2&#45;&gt;Node1 -->
<g id="edge1" class="edge"><title>Node2&#45;&gt;Node1</title>
<path fill="none" stroke="#404040" d="M96.8224,-154.739C106.582,-140.847 117.1,-125.875 127.007,-111.774"/>
<polygon fill="none" stroke="#404040" points="127.195,-111.506 127.371,-104.297 134.093,-101.687 133.917,-108.896 127.195,-111.506"/>
<text text-anchor="middle" x="136.5" y="-123" font-family="Helvetica,sans-Serif" font-size="10.00"> +pRfft</text>
</g>
<!-- Node3 -->
<g id="node3" class="node"><title>Node3</title>
<g id="a_node3"><a xlink:href="a00043.html" target="_top" xlink:title="Instance structure for the fixed&#45;point CFFT/CIFFT function. ">
<polygon fill="white" stroke="black" points="0,-320.5 0,-410.5 116,-410.5 116,-320.5 0,-320.5"/>
<text text-anchor="middle" x="58" y="-398.5" font-family="Helvetica,sans-Serif" font-size="10.00">arm_cfft_instance_q31</text>
<polyline fill="none" stroke="black" points="0,-391.5 116,-391.5 "/>
<text text-anchor="start" x="8" y="-379.5" font-family="Helvetica,sans-Serif" font-size="10.00">+ fftLen</text>
<text text-anchor="start" x="8" y="-368.5" font-family="Helvetica,sans-Serif" font-size="10.00">+ pTwiddle</text>
<text text-anchor="start" x="8" y="-357.5" font-family="Helvetica,sans-Serif" font-size="10.00">+ pBitRevTable</text>
<text text-anchor="start" x="8" y="-346.5" font-family="Helvetica,sans-Serif" font-size="10.00">+ bitRevLength</text>
<polyline fill="none" stroke="black" points="0,-339.5 116,-339.5 "/>
<text text-anchor="middle" x="58" y="-327.5" font-family="Helvetica,sans-Serif" font-size="10.00"> </text>
</a>
</g>
</g>
<!-- Node3&#45;&gt;Node2 -->
<g id="edge2" class="edge"><title>Node3&#45;&gt;Node2</title>
<path fill="none" stroke="#404040" d="M58,-320.391C58,-307.532 58,-293.18 58,-279.236"/>
<polygon fill="none" stroke="#404040" points="58.0001,-279.135 54,-273.135 58,-267.135 62,-273.135 58.0001,-279.135"/>
<text text-anchor="middle" x="73.5" y="-294" font-family="Helvetica,sans-Serif" font-size="10.00"> +pCfft</text>
</g>
<!-- Node4 -->
<g id="node4" class="node"><title>Node4</title>
<g id="a_node4"><a xlink:href="a00049.html" target="_top" xlink:title="Instance structure for the Q31 CFFT/CIFFT function. ">
<polygon fill="white" stroke="black" points="132.5,-149.5 132.5,-272.5 279.5,-272.5 279.5,-149.5 132.5,-149.5"/>
<text text-anchor="middle" x="206" y="-260.5" font-family="Helvetica,sans-Serif" font-size="10.00">arm_cfft_radix4_instance_q31</text>
<polyline fill="none" stroke="black" points="132.5,-253.5 279.5,-253.5 "/>
<text text-anchor="start" x="140.5" y="-241.5" font-family="Helvetica,sans-Serif" font-size="10.00">+ fftLen</text>
<text text-anchor="start" x="140.5" y="-230.5" font-family="Helvetica,sans-Serif" font-size="10.00">+ ifftFlag</text>
<text text-anchor="start" x="140.5" y="-219.5" font-family="Helvetica,sans-Serif" font-size="10.00">+ bitReverseFlag</text>
<text text-anchor="start" x="140.5" y="-208.5" font-family="Helvetica,sans-Serif" font-size="10.00">+ pTwiddle</text>
<text text-anchor="start" x="140.5" y="-197.5" font-family="Helvetica,sans-Serif" font-size="10.00">+ pBitRevTable</text>
<text text-anchor="start" x="140.5" y="-186.5" font-family="Helvetica,sans-Serif" font-size="10.00">+ twidCoefModifier</text>
<text text-anchor="start" x="140.5" y="-175.5" font-family="Helvetica,sans-Serif" font-size="10.00">+ bitRevFactor</text>
<polyline fill="none" stroke="black" points="132.5,-168.5 279.5,-168.5 "/>
<text text-anchor="middle" x="206" y="-156.5" font-family="Helvetica,sans-Serif" font-size="10.00"> </text>
</a>
</g>
</g>
<!-- Node4&#45;&gt;Node1 -->
<g id="edge3" class="edge"><title>Node4&#45;&gt;Node1</title>
<path fill="none" stroke="#404040" d="M191.801,-149.365C189.063,-137.674 186.192,-125.416 183.447,-113.692"/>
<polygon fill="none" stroke="#404040" points="183.378,-113.398 178.115,-108.468 180.642,-101.714 185.905,-106.644 183.378,-113.398"/>
<text text-anchor="middle" x="202.5" y="-123" font-family="Helvetica,sans-Serif" font-size="10.00"> +pCfft</text>
</g>
</g>
</svg>
