<?xml version="1.0" encoding="UTF-8" standalone="no"?>
<!DOCTYPE svg PUBLIC "-//W3C//DTD SVG 1.1//EN"
 "http://www.w3.org/Graphics/SVG/1.1/DTD/svg11.dtd">
<!-- Generated by graphviz version 2.38.0 (20140413.2041)
 -->
<!-- Title: arm_rfft_instance_q15 Pages: 1 -->
<svg width="124pt" height="259pt"
 viewBox="0.00 0.00 124.00 259.00" xmlns="http://www.w3.org/2000/svg" xmlns:xlink="http://www.w3.org/1999/xlink">
<g id="graph0" class="graph" transform="scale(1 1) rotate(0) translate(4 255)">
<title>arm_rfft_instance_q15</title>
<polygon fill="white" stroke="none" points="-4,4 -4,-255 120,-255 120,4 -4,4"/>
<!-- Node1 -->
<g id="node1" class="node"><title>Node1</title>
<polygon fill="#bfbfbf" stroke="black" points="1.5,-0.5 1.5,-112.5 114.5,-112.5 114.5,-0.5 1.5,-0.5"/>
<text text-anchor="middle" x="58" y="-100.5" font-family="Helvetica,sans-Serif" font-size="10.00">arm_rfft_instance_q15</text>
<polyline fill="none" stroke="black" points="1.5,-93.5 114.5,-93.5 "/>
<text text-anchor="start" x="9.5" y="-81.5" font-family="Helvetica,sans-Serif" font-size="10.00">+ fftLenReal</text>
<text text-anchor="start" x="9.5" y="-70.5" font-family="Helvetica,sans-Serif" font-size="10.00">+ ifftFlagR</text>
<text text-anchor="start" x="9.5" y="-59.5" font-family="Helvetica,sans-Serif" font-size="10.00">+ bitReverseFlagR</text>
<text text-anchor="start" x="9.5" y="-48.5" font-family="Helvetica,sans-Serif" font-size="10.00">+ twidCoefRModifier</text>
<text text-anchor="start" x="9.5" y="-37.5" font-family="Helvetica,sans-Serif" font-size="10.00">+ pTwiddleAReal</text>
<text text-anchor="start" x="9.5" y="-26.5" font-family="Helvetica,sans-Serif" font-size="10.00">+ pTwiddleBReal</text>
<polyline fill="none" stroke="black" points="1.5,-19.5 114.5,-19.5 "/>
<text text-anchor="middle" x="58" y="-7.5" font-family="Helvetica,sans-Serif" font-size="10.00"> </text>
</g>
<!-- Node2 -->
<g id="node2" class="node"><title>Node2</title>
<g id="a_node2"><a xlink:href="a00042.html" target="_top" xlink:title="Instance structure for the fixed&#45;point CFFT/CIFFT function. ">
<polygon fill="white" stroke="black" points="-7.10543e-15,-160.5 -7.10543e-15,-250.5 116,-250.5 116,-160.5 -7.10543e-15,-160.5"/>
<text text-anchor="middle" x="58" y="-238.5" font-family="Helvetica,sans-Serif" font-size="10.00">arm_cfft_instance_q15</text>
<polyline fill="none" stroke="black" points="-7.10543e-15,-231.5 116,-231.5 "/>
<text text-anchor="start" x="8" y="-219.5" font-family="Helvetica,sans-Serif" font-size="10.00">+ fftLen</text>
<text text-anchor="start" x="8" y="-208.5" font-family="Helvetica,sans-Serif" font-size="10.00">+ pTwiddle</text>
<text text-anchor="start" x="8" y="-197.5" font-family="Helvetica,sans-Serif" font-size="10.00">+ pBitRevTable</text>
<text text-anchor="start" x="8" y="-186.5" font-family="Helvetica,sans-Serif" font-size="10.00">+ bitRevLength</text>
<polyline fill="none" stroke="black" points="-7.10543e-15,-179.5 116,-179.5 "/>
<text text-anchor="middle" x="58" y="-167.5" font-family="Helvetica,sans-Serif" font-size="10.00"> </text>
</a>
</g>
</g>
<!-- Node2&#45;&gt;Node1 -->
<g id="edge1" class="edge"><title>Node2&#45;&gt;Node1</title>
<path fill="none" stroke="#404040" d="M58,-160.395C58,-149.105 58,-136.707 58,-124.547"/>
<polygon fill="none" stroke="#404040" points="58.0001,-124.515 54,-118.515 58,-112.515 62,-118.515 58.0001,-124.515"/>
<text text-anchor="middle" x="73.5" y="-134" font-family="Helvetica,sans-Serif" font-size="10.00"> +pCfft</text>
</g>
</g>
</svg>
