<?xml version="1.0" encoding="UTF-8" standalone="no"?>
<!DOCTYPE svg PUBLIC "-//W3C//DTD SVG 1.1//EN"
 "http://www.w3.org/Graphics/SVG/1.1/DTD/svg11.dtd">
<!-- Generated by graphviz version 2.38.0 (20140413.2041)
 -->
<!-- Title: arm_dct4_instance_f32 Pages: 1 -->
<!--zoomable 463 -->
<svg id="main" version="1.1" xmlns="http://www.w3.org/2000/svg" xmlns:xlink="http://www.w3.org/1999/xlink" xml:space="preserve" onload="init(evt)">
<style type="text/css"><![CDATA[
.edge:hover path { stroke: red; }
.edge:hover polygon { stroke: red; fill: red; }
]]></style>
<script type="text/javascript"><![CDATA[
var edges = document.getElementsByTagName('g');
if (edges && edges.length) {
  for (var i=0;i<edges.length;i++) {
    if (edges[i].id.substr(0,4)=='edge') {
      edges[i].setAttribute('class','edge');
    }
  }
}
]]></script>
        <defs>
                <circle id="rim" cx="0" cy="0" r="7"/>
                <circle id="rim2" cx="0" cy="0" r="3.5"/>
                <g id="zoomPlus">
                        <use xlink:href="#rim" fill="#404040">
                                <set attributeName="fill" to="#808080" begin="zoomplus.mouseover" end="zoomplus.mouseout"/>
                        </use>
                        <path d="M-4,0h8M0,-4v8" fill="none" stroke="white" stroke-width="1.5" pointer-events="none"/>
                </g>
                <g id="zoomMin">
                        <use xlink:href="#rim" fill="#404040">
                                <set attributeName="fill" to="#808080" begin="zoomminus.mouseover" end="zoomminus.mouseout"/>
                        </use>
                        <path d="M-4,0h8" fill="none" stroke="white" stroke-width="1.5" pointer-events="none"/>
                </g>
                <g id="dirArrow">
                        <path fill="none" stroke="white" stroke-width="1.5" d="M0,-3.0v7 M-2.5,-0.5L0,-3.0L2.5,-0.5"/>
                </g>
               <g id="resetDef">
                       <use xlink:href="#rim2" fill="#404040">
                               <set attributeName="fill" to="#808080" begin="reset.mouseover" end="reset.mouseout"/>
                       </use>
               </g>
        </defs>

<script type="text/javascript">
var viewWidth = 212;
var viewHeight = 463;
var sectionId = 'dynsection-0';
</script>
<script xlink:href="svgpan.js"/>
<svg id="graph" class="graph">
<g id="viewport">
<title>arm_dct4_instance_f32</title>
<polygon fill="white" stroke="none" points="-4,4 -4,-459 207.5,-459 207.5,4 -4,4"/>
<!-- Node1 -->
<g id="node1" class="node"><title>Node1</title>
<polygon fill="#bfbfbf" stroke="black" points="0,-0.5 0,-101.5 118,-101.5 118,-0.5 0,-0.5"/>
<text text-anchor="middle" x="59" y="-89.5" font-family="Helvetica,sans-Serif" font-size="10.00">arm_dct4_instance_f32</text>
<polyline fill="none" stroke="black" points="0,-82.5 118,-82.5 "/>
<text text-anchor="start" x="8" y="-70.5" font-family="Helvetica,sans-Serif" font-size="10.00">+ N</text>
<text text-anchor="start" x="8" y="-59.5" font-family="Helvetica,sans-Serif" font-size="10.00">+ Nby2</text>
<text text-anchor="start" x="8" y="-48.5" font-family="Helvetica,sans-Serif" font-size="10.00">+ normalize</text>
<text text-anchor="start" x="8" y="-37.5" font-family="Helvetica,sans-Serif" font-size="10.00">+ pTwiddle</text>
<text text-anchor="start" x="8" y="-26.5" font-family="Helvetica,sans-Serif" font-size="10.00">+ pCosFactor</text>
<polyline fill="none" stroke="black" points="0,-19.5 118,-19.5 "/>
<text text-anchor="middle" x="59" y="-7.5" font-family="Helvetica,sans-Serif" font-size="10.00"> </text>
</g>
<!-- Node2 -->
<g id="node2" class="node"><title>Node2</title>
<g id="a_node2"><a xlink:href="a00047.html" target="_top" xlink:title="Instance structure for the floating&#45;point CFFT/CIFFT function. ">
<polygon fill="white" stroke="black" points="4.5,-320.5 4.5,-454.5 149.5,-454.5 149.5,-320.5 4.5,-320.5"/>
<text text-anchor="middle" x="77" y="-442.5" font-family="Helvetica,sans-Serif" font-size="10.00">arm_cfft_radix4_instance_f32</text>
<polyline fill="none" stroke="black" points="4.5,-435.5 149.5,-435.5 "/>
<text text-anchor="start" x="12.5" y="-423.5" font-family="Helvetica,sans-Serif" font-size="10.00">+ fftLen</text>
<text text-anchor="start" x="12.5" y="-412.5" font-family="Helvetica,sans-Serif" font-size="10.00">+ ifftFlag</text>
<text text-anchor="start" x="12.5" y="-401.5" font-family="Helvetica,sans-Serif" font-size="10.00">+ bitReverseFlag</text>
<text text-anchor="start" x="12.5" y="-390.5" font-family="Helvetica,sans-Serif" font-size="10.00">+ pTwiddle</text>
<text text-anchor="start" x="12.5" y="-379.5" font-family="Helvetica,sans-Serif" font-size="10.00">+ pBitRevTable</text>
<text text-anchor="start" x="12.5" y="-368.5" font-family="Helvetica,sans-Serif" font-size="10.00">+ twidCoefModifier</text>
<text text-anchor="start" x="12.5" y="-357.5" font-family="Helvetica,sans-Serif" font-size="10.00">+ bitRevFactor</text>
<text text-anchor="start" x="12.5" y="-346.5" font-family="Helvetica,sans-Serif" font-size="10.00">+ onebyfftLen</text>
<polyline fill="none" stroke="black" points="4.5,-339.5 149.5,-339.5 "/>
<text text-anchor="middle" x="77" y="-327.5" font-family="Helvetica,sans-Serif" font-size="10.00"> </text>
</a>
</g>
</g>
<!-- Node2&#45;&gt;Node1 -->
<g id="edge1" class="edge"><title>Node2&#45;&gt;Node1</title>
<path fill="none" stroke="#404040" d="M60.5733,-320.251C57.4268,-304.838 54.6129,-288.424 53,-273 47.2682,-218.188 51.298,-204.085 53,-149 53.3482,-137.73 53.9235,-125.734 54.5836,-114.158"/>
<polygon fill="none" stroke="#404040" points="54.6053,-113.796 50.9731,-107.566 55.3264,-101.818 58.9586,-108.047 54.6053,-113.796"/>
<text text-anchor="middle" x="68.5" y="-208.5" font-family="Helvetica,sans-Serif" font-size="10.00"> +pCfft</text>
</g>
<!-- Node3 -->
<g id="node3" class="node"><title>Node3</title>
<g id="a_node3"><a xlink:href="a00088.html" target="_top" xlink:title="Instance structure for the floating&#45;point RFFT/RIFFT function. ">
<polygon fill="white" stroke="black" points="92.5,-149.5 92.5,-272.5 203.5,-272.5 203.5,-149.5 92.5,-149.5"/>
<text text-anchor="middle" x="148" y="-260.5" font-family="Helvetica,sans-Serif" font-size="10.00">arm_rfft_instance_f32</text>
<polyline fill="none" stroke="black" points="92.5,-253.5 203.5,-253.5 "/>
<text text-anchor="start" x="100.5" y="-241.5" font-family="Helvetica,sans-Serif" font-size="10.00">+ fftLenReal</text>
<text text-anchor="start" x="100.5" y="-230.5" font-family="Helvetica,sans-Serif" font-size="10.00">+ fftLenBy2</text>
<text text-anchor="start" x="100.5" y="-219.5" font-family="Helvetica,sans-Serif" font-size="10.00">+ ifftFlagR</text>
<text text-anchor="start" x="100.5" y="-208.5" font-family="Helvetica,sans-Serif" font-size="10.00">+ bitReverseFlagR</text>
<text text-anchor="start" x="100.5" y="-197.5" font-family="Helvetica,sans-Serif" font-size="10.00">+ twidCoefRModifier</text>
<text text-anchor="start" x="100.5" y="-186.5" font-family="Helvetica,sans-Serif" font-size="10.00">+ pTwiddleAReal</text>
<text text-anchor="start" x="100.5" y="-175.5" font-family="Helvetica,sans-Serif" font-size="10.00">+ pTwiddleBReal</text>
<polyline fill="none" stroke="black" points="92.5,-168.5 203.5,-168.5 "/>
<text text-anchor="middle" x="148" y="-156.5" font-family="Helvetica,sans-Serif" font-size="10.00"> </text>
</a>
</g>
</g>
<!-- Node2&#45;&gt;Node3 -->
<g id="edge3" class="edge"><title>Node2&#45;&gt;Node3</title>
<path fill="none" stroke="#404040" d="M104.045,-320.031C108.856,-308.207 113.887,-295.842 118.755,-283.876"/>
<polygon fill="none" stroke="#404040" points="118.839,-283.67 117.395,-276.605 123.361,-272.555 124.805,-279.62 118.839,-283.67"/>
<text text-anchor="middle" x="129.5" y="-294" font-family="Helvetica,sans-Serif" font-size="10.00"> +pCfft</text>
</g>
<!-- Node3&#45;&gt;Node1 -->
<g id="edge2" class="edge"><title>Node3&#45;&gt;Node1</title>
<path fill="none" stroke="#404040" d="M113.845,-149.365C106.982,-137.182 99.7724,-124.382 92.918,-112.214"/>
<polygon fill="none" stroke="#404040" points="92.8931,-112.17 86.4633,-108.905 87.0037,-101.714 93.4335,-104.979 92.8931,-112.17"/>
<text text-anchor="middle" x="118.5" y="-123" font-family="Helvetica,sans-Serif" font-size="10.00"> +pRfft</text>
</g>
</g>
</svg>
        <g id="navigator" transform="translate(0 0)" fill="#404254">
                <rect fill="#f2f5e9" fill-opacity="0.5" stroke="#606060" stroke-width=".5" x="0" y="0" width="60" height="60"/>
                <use id="zoomplus" xlink:href="#zoomPlus" x="17" y="9" onmousedown="handleZoom(evt,'in')"/>
                <use id="zoomminus" xlink:href="#zoomMin" x="42" y="9" onmousedown="handleZoom(evt,'out')"/>
                <use id="reset" xlink:href="#resetDef" x="30" y="36" onmousedown="handleReset()"/>
                <g id="arrowUp" xlink:href="#dirArrow" transform="translate(30 24)" onmousedown="handlePan(0,-1)">
                  <use xlink:href="#rim" fill="#404040">
                        <set attributeName="fill" to="#808080" begin="arrowUp.mouseover" end="arrowUp.mouseout"/>
                  </use>
                  <path fill="none" stroke="white" stroke-width="1.5" d="M0,-3.0v7 M-2.5,-0.5L0,-3.0L2.5,-0.5"/>
                </g>
                <g id="arrowRight" xlink:href="#dirArrow" transform="rotate(90) translate(36 -43)" onmousedown="handlePan(1,0)">
                  <use xlink:href="#rim" fill="#404040">
                        <set attributeName="fill" to="#808080" begin="arrowRight.mouseover" end="arrowRight.mouseout"/>
                  </use>
                  <path fill="none" stroke="white" stroke-width="1.5" d="M0,-3.0v7 M-2.5,-0.5L0,-3.0L2.5,-0.5"/>
                </g>
                <g id="arrowDown" xlink:href="#dirArrow" transform="rotate(180) translate(-30 -48)" onmousedown="handlePan(0,1)">
                  <use xlink:href="#rim" fill="#404040">
                        <set attributeName="fill" to="#808080" begin="arrowDown.mouseover" end="arrowDown.mouseout"/>
                  </use>
                  <path fill="none" stroke="white" stroke-width="1.5" d="M0,-3.0v7 M-2.5,-0.5L0,-3.0L2.5,-0.5"/>
                </g>
                <g id="arrowLeft" xlink:href="#dirArrow" transform="rotate(270) translate(-36 17)" onmousedown="handlePan(-1,0)">
                  <use xlink:href="#rim" fill="#404040">
                        <set attributeName="fill" to="#808080" begin="arrowLeft.mouseover" end="arrowLeft.mouseout"/>
                  </use>
                  <path fill="none" stroke="white" stroke-width="1.5" d="M0,-3.0v7 M-2.5,-0.5L0,-3.0L2.5,-0.5"/>
                </g>
        </g>
        <svg viewBox="0 0 15 15" width="100%" height="30px" preserveAspectRatio="xMaxYMin meet">
         <g id="arrow_out" transform="scale(0.3 0.3)">
          <a xlink:href="a01727_org.svg" target="_base">
           <rect id="button" ry="5" rx="5" y="6" x="6" height="38" width="38"
                fill="#f2f5e9" fill-opacity="0.5" stroke="#606060" stroke-width="1.0"/>
           <path id="arrow"
             d="M 11.500037,31.436501 C 11.940474,20.09759 22.043105,11.32322 32.158766,21.979434 L 37.068811,17.246167 C 37.068811,17.246167 37.088388,32 37.088388,32 L 22.160133,31.978069 C 22.160133,31.978069 26.997745,27.140456 26.997745,27.140456 C 18.528582,18.264221 13.291696,25.230495 11.500037,31.436501 z"
             style="fill:#404040;"/>
          </a>
         </g>
        </svg>
</svg>
