<?xml version="1.0" encoding="UTF-8" standalone="no"?>
<!DOCTYPE svg PUBLIC "-//W3C//DTD SVG 1.1//EN"
 "http://www.w3.org/Graphics/SVG/1.1/DTD/svg11.dtd">
<!-- Generated by graphviz version 2.38.0 (20140413.2041)
 -->
<!-- Title: 00&#45;STM32F4_LIBRARY_MDB Pages: 1 -->
<svg width="260pt" height="132pt"
 viewBox="0.00 0.00 260.00 132.00" xmlns="http://www.w3.org/2000/svg" xmlns:xlink="http://www.w3.org/1999/xlink">
<g id="graph0" class="graph" transform="scale(1 1) rotate(0) translate(4 128)">
<title>00&#45;STM32F4_LIBRARY_MDB</title>
<polygon fill="white" stroke="none" points="-4,4 -4,-128 256,-128 256,4 -4,4"/>
<g id="clust1" class="cluster"><title>clusterdir_f35b6d06d9a189103de193c5301bf232</title>
<g id="a_clust1"><a xlink:href="dir_f35b6d06d9a189103de193c5301bf232.html" target="_top">
<polygon fill="#eeeeff" stroke="black" points="8,-64 8,-116 244,-116 244,-64 8,-64"/>
</a>
</g>
</g>
<!-- dir_f35b6d06d9a189103de193c5301bf232 -->
<g id="node1" class="node"><title>dir_f35b6d06d9a189103de193c5301bf232</title>
<text text-anchor="middle" x="162" y="-87.5" font-family="Helvetica,sans-Serif" font-size="10.00">00&#45;STM32F4_LIBRARY_MDB</text>
</g>
<!-- dir_62c92c554b2f7ce10cfadafd25736073 -->
<g id="node3" class="node"><title>dir_62c92c554b2f7ce10cfadafd25736073</title>
<g id="a_node3"><a xlink:href="dir_62c92c554b2f7ce10cfadafd25736073.html" target="_top" xlink:title="inc">
<polygon fill="none" stroke="black" points="189,-36 135,-36 135,-0 189,-0 189,-36"/>
<text text-anchor="middle" x="162" y="-15.5" font-family="Helvetica,sans-Serif" font-size="10.00">inc</text>
</a>
</g>
</g>
<!-- dir_f35b6d06d9a189103de193c5301bf232&#45;&gt;dir_62c92c554b2f7ce10cfadafd25736073 -->
<g id="edge2" class="edge"><title>dir_f35b6d06d9a189103de193c5301bf232&#45;&gt;dir_62c92c554b2f7ce10cfadafd25736073</title>
<path fill="none" stroke="black" d="M156.084,-71.6966C155.289,-63.9827 155.062,-54.7125 155.405,-46.1124"/>
<polygon fill="black" stroke="black" points="158.898,-46.3243 156.105,-36.1043 151.915,-45.8356 158.898,-46.3243"/>
<g id="a_edge2&#45;headlabel"><a xlink:href="dir_000002_000001.html" target="_top" xlink:title="6">
<text text-anchor="middle" x="161.48" y="-47.6083" font-family="Helvetica,sans-Serif" font-size="10.00">6</text>
</a>
</g>
</g>
<!-- dir_591491033371a6200a2f734deb98dfb7 -->
<g id="node2" class="node"><title>dir_591491033371a6200a2f734deb98dfb7</title>
<g id="a_node2"><a xlink:href="dir_591491033371a6200a2f734deb98dfb7.html" target="_top" xlink:title="TM">
<polygon fill="white" stroke="black" points="70,-108 16,-108 16,-72 70,-72 70,-108"/>
<text text-anchor="middle" x="43" y="-87.5" font-family="Helvetica,sans-Serif" font-size="10.00">TM</text>
</a>
</g>
</g>
<!-- dir_591491033371a6200a2f734deb98dfb7&#45;&gt;dir_62c92c554b2f7ce10cfadafd25736073 -->
<g id="edge3" class="edge"><title>dir_591491033371a6200a2f734deb98dfb7&#45;&gt;dir_62c92c554b2f7ce10cfadafd25736073</title>
<path fill="none" stroke="black" d="M66.7669,-71.9503C70.7997,-69.2153 74.9827,-66.4735 79,-64 93.8846,-54.8352 110.771,-45.4972 125.409,-37.7206"/>
<polygon fill="black" stroke="black" points="127.439,-40.6072 134.659,-32.8533 124.18,-34.4123 127.439,-40.6072"/>
<g id="a_edge3&#45;headlabel"><a xlink:href="dir_000003_000001.html" target="_top" xlink:title="3">
<text text-anchor="middle" x="125.58" y="-42.2936" font-family="Helvetica,sans-Serif" font-size="10.00">3</text>
</a>
</g>
</g>
<!-- dir_62c92c554b2f7ce10cfadafd25736073&#45;&gt;dir_f35b6d06d9a189103de193c5301bf232 -->
<g id="edge1" class="edge"><title>dir_62c92c554b2f7ce10cfadafd25736073&#45;&gt;dir_f35b6d06d9a189103de193c5301bf232</title>
<path fill="none" stroke="black" d="M167.895,-36.1043C168.701,-43.7913 168.937,-53.0537 168.604,-61.6651"/>
<polygon fill="black" stroke="black" points="165.109,-61.4805 167.916,-71.6966 172.092,-61.9597 165.109,-61.4805"/>
<g id="a_edge1&#45;headlabel"><a xlink:href="dir_000001_000002.html" target="_top" xlink:title="4">
<text text-anchor="middle" x="162.522" y="-55.2" font-family="Helvetica,sans-Serif" font-size="10.00">4</text>
</a>
</g>
</g>
</g>
</svg>
