<?xml version="1.0" encoding="UTF-8" standalone="no"?>
<!DOCTYPE svg PUBLIC "-//W3C//DTD SVG 1.1//EN"
 "http://www.w3.org/Graphics/SVG/1.1/DTD/svg11.dtd">
<!-- Generated by graphviz version 2.38.0 (20140413.2041)
 -->
<!-- Title: inc Pages: 1 -->
<svg width="157pt" height="116pt"
 viewBox="0.00 0.00 157.00 116.00" xmlns="http://www.w3.org/2000/svg" xmlns:xlink="http://www.w3.org/1999/xlink">
<g id="graph0" class="graph" transform="scale(1 1) rotate(0) translate(4 112)">
<title>inc</title>
<polygon fill="white" stroke="none" points="-4,4 -4,-112 153,-112 153,4 -4,4"/>
<!-- dir_62c92c554b2f7ce10cfadafd25736073 -->
<g id="node1" class="node"><title>dir_62c92c554b2f7ce10cfadafd25736073</title>
<g id="a_node1"><a xlink:href="dir_62c92c554b2f7ce10cfadafd25736073.html" target="_top" xlink:title="inc">
<polygon fill="#eeeeff" stroke="black" points="101.5,-108 47.5,-108 47.5,-72 101.5,-72 101.5,-108"/>
<text text-anchor="middle" x="74.5" y="-87.5" font-family="Helvetica,sans-Serif" font-size="10.00">inc</text>
</a>
</g>
</g>
<!-- dir_f35b6d06d9a189103de193c5301bf232 -->
<g id="node2" class="node"><title>dir_f35b6d06d9a189103de193c5301bf232</title>
<g id="a_node2"><a xlink:href="dir_f35b6d06d9a189103de193c5301bf232.html" target="_top" xlink:title="00&#45;STM32F4_LIBRARY_MDB">
<polygon fill="white" stroke="red" points="149,-36 0,-36 0,-0 149,-0 149,-36"/>
<text text-anchor="middle" x="74.5" y="-15.5" font-family="Helvetica,sans-Serif" font-size="10.00">00&#45;STM32F4_LIBRARY_MDB</text>
</a>
</g>
</g>
<!-- dir_62c92c554b2f7ce10cfadafd25736073&#45;&gt;dir_f35b6d06d9a189103de193c5301bf232 -->
<g id="edge1" class="edge"><title>dir_62c92c554b2f7ce10cfadafd25736073&#45;&gt;dir_f35b6d06d9a189103de193c5301bf232</title>
<path fill="none" stroke="black" d="M68.5843,-71.6966C67.7886,-63.9827 67.5621,-54.7125 67.9047,-46.1124"/>
<polygon fill="black" stroke="black" points="71.3984,-46.3243 68.605,-36.1043 64.4154,-45.8356 71.3984,-46.3243"/>
<g id="a_edge1&#45;headlabel"><a xlink:href="dir_000001_000002.html" target="_top" xlink:title="4">
<text text-anchor="middle" x="73.9799" y="-47.6083" font-family="Helvetica,sans-Serif" font-size="10.00">4</text>
</a>
</g>
</g>
<!-- dir_f35b6d06d9a189103de193c5301bf232&#45;&gt;dir_62c92c554b2f7ce10cfadafd25736073 -->
<g id="edge2" class="edge"><title>dir_f35b6d06d9a189103de193c5301bf232&#45;&gt;dir_62c92c554b2f7ce10cfadafd25736073</title>
<path fill="none" stroke="black" d="M80.395,-36.1043C81.2005,-43.7913 81.4369,-53.0537 81.104,-61.6651"/>
<polygon fill="black" stroke="black" points="77.6085,-61.4805 80.4157,-71.6966 84.5921,-61.9597 77.6085,-61.4805"/>
<g id="a_edge2&#45;headlabel"><a xlink:href="dir_000002_000001.html" target="_top" xlink:title="6">
<text text-anchor="middle" x="75.0219" y="-55.2" font-family="Helvetica,sans-Serif" font-size="10.00">6</text>
</a>
</g>
</g>
</g>
</svg>
