<?xml version="1.0" encoding="UTF-8" standalone="no"?>
<!DOCTYPE svg PUBLIC "-//W3C//DTD SVG 1.1//EN"
 "http://www.w3.org/Graphics/SVG/1.1/DTD/svg11.dtd">
<!-- Generated by graphviz version 2.38.0 (20140413.2041)
 -->
<!-- Title: src Pages: 1 -->
<svg width="115pt" height="151pt"
 viewBox="0.00 0.00 115.00 151.00" xmlns="http://www.w3.org/2000/svg" xmlns:xlink="http://www.w3.org/1999/xlink">
<g id="graph0" class="graph" transform="scale(1 1) rotate(0) translate(4 147)">
<title>src</title>
<polygon fill="white" stroke="none" points="-4,4 -4,-147 111,-147 111,4 -4,4"/>
<g id="clust1" class="cluster"><title>clusterdir_8a15977b2d9dc57cb351421694cd4a5d</title>
<g id="a_clust1"><a xlink:href="dir_8a15977b2d9dc57cb351421694cd4a5d.html" target="_top" xlink:title="StdPeriph_Driver">
<polygon fill="#ddddee" stroke="black" points="8,-64 8,-135 99,-135 99,-64 8,-64"/>
<text text-anchor="middle" x="53.5" y="-123" font-family="Helvetica,sans-Serif" font-size="10.00">StdPeriph_Driver</text>
</a>
</g>
</g>
<!-- dir_e20de90c3220761f1a578897bad51448 -->
<g id="node1" class="node"><title>dir_e20de90c3220761f1a578897bad51448</title>
<g id="a_node1"><a xlink:href="dir_e20de90c3220761f1a578897bad51448.html" target="_top" xlink:title="src">
<polygon fill="#eeeeff" stroke="black" points="80,-108 26,-108 26,-72 80,-72 80,-108"/>
<text text-anchor="middle" x="53" y="-87.5" font-family="Helvetica,sans-Serif" font-size="10.00">src</text>
</a>
</g>
</g>
<!-- dir_fc7f95e49a544aaeba66fda643db0da0 -->
<g id="node2" class="node"><title>dir_fc7f95e49a544aaeba66fda643db0da0</title>
<g id="a_node2"><a xlink:href="dir_fc7f95e49a544aaeba66fda643db0da0.html" target="_top" xlink:title="inc">
<polygon fill="none" stroke="black" points="80,-36 26,-36 26,-0 80,-0 80,-36"/>
<text text-anchor="middle" x="53" y="-15.5" font-family="Helvetica,sans-Serif" font-size="10.00">inc</text>
</a>
</g>
</g>
<!-- dir_e20de90c3220761f1a578897bad51448&#45;&gt;dir_fc7f95e49a544aaeba66fda643db0da0 -->
<g id="edge1" class="edge"><title>dir_e20de90c3220761f1a578897bad51448&#45;&gt;dir_fc7f95e49a544aaeba66fda643db0da0</title>
<path fill="none" stroke="black" d="M53,-71.6966C53,-63.9827 53,-54.7125 53,-46.1124"/>
<polygon fill="black" stroke="black" points="56.5001,-46.1043 53,-36.1043 49.5001,-46.1044 56.5001,-46.1043"/>
<g id="a_edge1&#45;headlabel"><a xlink:href="dir_000045_000046.html" target="_top" xlink:title="66">
<text text-anchor="middle" x="59.3393" y="-47.199" font-family="Helvetica,sans-Serif" font-size="10.00">66</text>
</a>
</g>
</g>
</g>
</svg>
