<?xml version="1.0" encoding="UTF-8" standalone="no"?>
<!DOCTYPE svg PUBLIC "-//W3C//DTD SVG 1.1//EN"
 "http://www.w3.org/Graphics/SVG/1.1/DTD/svg11.dtd">
<!-- Generated by graphviz version 2.38.0 (20140413.2041)
 -->
<!-- Title: StdPeriph_Driver Pages: 1 -->
<svg width="204pt" height="204pt"
 viewBox="0.00 0.00 204.00 204.00" xmlns="http://www.w3.org/2000/svg" xmlns:xlink="http://www.w3.org/1999/xlink">
<g id="graph0" class="graph" transform="scale(1 1) rotate(0) translate(4 200)">
<title>StdPeriph_Driver</title>
<polygon fill="white" stroke="none" points="-4,4 -4,-200 200,-200 200,4 -4,4"/>
<g id="clust1" class="cluster"><title>clusterdir_8a15977b2d9dc57cb351421694cd4a5d</title>
<g id="a_clust1"><a xlink:href="dir_8a15977b2d9dc57cb351421694cd4a5d.html" target="_top">
<polygon fill="#eeeeff" stroke="black" points="8,-64 8,-188 188,-188 188,-64 8,-64"/>
</a>
</g>
</g>
<!-- dir_8a15977b2d9dc57cb351421694cd4a5d -->
<g id="node1" class="node"><title>dir_8a15977b2d9dc57cb351421694cd4a5d</title>
<text text-anchor="middle" x="134" y="-159.5" font-family="Helvetica,sans-Serif" font-size="10.00">StdPeriph_Driver</text>
</g>
<!-- dir_fc7f95e49a544aaeba66fda643db0da0 -->
<g id="node2" class="node"><title>dir_fc7f95e49a544aaeba66fda643db0da0</title>
<g id="a_node2"><a xlink:href="dir_fc7f95e49a544aaeba66fda643db0da0.html" target="_top" xlink:title="inc">
<polygon fill="white" stroke="black" points="70,-108 16,-108 16,-72 70,-72 70,-108"/>
<text text-anchor="middle" x="43" y="-87.5" font-family="Helvetica,sans-Serif" font-size="10.00">inc</text>
</a>
</g>
</g>
<!-- dir_10df14bc324a15ef44aeb7322a2bd0d6 -->
<g id="node4" class="node"><title>dir_10df14bc324a15ef44aeb7322a2bd0d6</title>
<g id="a_node4"><a xlink:href="dir_10df14bc324a15ef44aeb7322a2bd0d6.html" target="_top" xlink:title="CMSIS">
<polygon fill="white" stroke="red" points="70,-36 16,-36 16,-0 70,-0 70,-36"/>
<text text-anchor="middle" x="43" y="-15.5" font-family="Helvetica,sans-Serif" font-size="10.00">CMSIS</text>
</a>
</g>
</g>
<!-- dir_fc7f95e49a544aaeba66fda643db0da0&#45;&gt;dir_10df14bc324a15ef44aeb7322a2bd0d6 -->
<g id="edge1" class="edge"><title>dir_fc7f95e49a544aaeba66fda643db0da0&#45;&gt;dir_10df14bc324a15ef44aeb7322a2bd0d6</title>
<path fill="none" stroke="black" d="M43,-71.6966C43,-63.9827 43,-54.7125 43,-46.1124"/>
<polygon fill="black" stroke="black" points="46.5001,-46.1043 43,-36.1043 39.5001,-46.1044 46.5001,-46.1043"/>
<g id="a_edge1&#45;headlabel"><a xlink:href="dir_000046_000002.html" target="_top" xlink:title="37">
<text text-anchor="middle" x="49.3393" y="-47.199" font-family="Helvetica,sans-Serif" font-size="10.00">37</text>
</a>
</g>
</g>
<!-- dir_e20de90c3220761f1a578897bad51448 -->
<g id="node3" class="node"><title>dir_e20de90c3220761f1a578897bad51448</title>
<g id="a_node3"><a xlink:href="dir_e20de90c3220761f1a578897bad51448.html" target="_top" xlink:title="src">
<polygon fill="white" stroke="black" points="70,-180 16,-180 16,-144 70,-144 70,-180"/>
<text text-anchor="middle" x="43" y="-159.5" font-family="Helvetica,sans-Serif" font-size="10.00">src</text>
</a>
</g>
</g>
<!-- dir_e20de90c3220761f1a578897bad51448&#45;&gt;dir_fc7f95e49a544aaeba66fda643db0da0 -->
<g id="edge2" class="edge"><title>dir_e20de90c3220761f1a578897bad51448&#45;&gt;dir_fc7f95e49a544aaeba66fda643db0da0</title>
<path fill="none" stroke="black" d="M43,-143.697C43,-135.983 43,-126.712 43,-118.112"/>
<polygon fill="black" stroke="black" points="46.5001,-118.104 43,-108.104 39.5001,-118.104 46.5001,-118.104"/>
<g id="a_edge2&#45;headlabel"><a xlink:href="dir_000045_000046.html" target="_top" xlink:title="66">
<text text-anchor="middle" x="49.3393" y="-119.199" font-family="Helvetica,sans-Serif" font-size="10.00">66</text>
</a>
</g>
</g>
</g>
</svg>
