<?xml version="1.0" encoding="UTF-8" standalone="no"?>
<!DOCTYPE svg PUBLIC "-//W3C//DTD SVG 1.1//EN"
 "http://www.w3.org/Graphics/SVG/1.1/DTD/svg11.dtd">
<!-- Generated by graphviz version 2.38.0 (20140413.2041)
 -->
<!-- Title: CMSIS Pages: 1 -->
<svg width="238pt" height="148pt"
 viewBox="0.00 0.00 238.00 148.00" xmlns="http://www.w3.org/2000/svg" xmlns:xlink="http://www.w3.org/1999/xlink">
<g id="graph0" class="graph" transform="scale(1 1) rotate(0) translate(4 144)">
<title>CMSIS</title>
<polygon fill="white" stroke="none" points="-4,4 -4,-144 234,-144 234,4 -4,4"/>
<g id="clust1" class="cluster"><title>clusterdir_10df14bc324a15ef44aeb7322a2bd0d6</title>
<g id="a_clust1"><a xlink:href="dir_10df14bc324a15ef44aeb7322a2bd0d6.html" target="_top">
<polygon fill="#eeeeff" stroke="black" points="8,-8 8,-132 222,-132 222,-8 8,-8"/>
</a>
</g>
</g>
<!-- dir_10df14bc324a15ef44aeb7322a2bd0d6 -->
<g id="node1" class="node"><title>dir_10df14bc324a15ef44aeb7322a2bd0d6</title>
<text text-anchor="middle" x="187" y="-103.5" font-family="Helvetica,sans-Serif" font-size="10.00">CMSIS</text>
</g>
<!-- dir_5740f42ca04fe043515bcd7c9461bef6 -->
<g id="node2" class="node"><title>dir_5740f42ca04fe043515bcd7c9461bef6</title>
<g id="a_node2"><a xlink:href="dir_5740f42ca04fe043515bcd7c9461bef6.html" target="_top" xlink:title="core">
<polygon fill="white" stroke="black" points="142,-52 88,-52 88,-16 142,-16 142,-52"/>
<text text-anchor="middle" x="115" y="-31.5" font-family="Helvetica,sans-Serif" font-size="10.00">core</text>
</a>
</g>
</g>
<!-- dir_981838f6e9c63ec09b77d832830a84c0 -->
<g id="node3" class="node"><title>dir_981838f6e9c63ec09b77d832830a84c0</title>
<g id="a_node3"><a xlink:href="dir_981838f6e9c63ec09b77d832830a84c0.html" target="_top" xlink:title="device">
<polygon fill="white" stroke="black" points="142,-124 88,-124 88,-88 142,-88 142,-124"/>
<text text-anchor="middle" x="115" y="-103.5" font-family="Helvetica,sans-Serif" font-size="10.00">device</text>
</a>
</g>
</g>
<!-- dir_981838f6e9c63ec09b77d832830a84c0&#45;&gt;dir_5740f42ca04fe043515bcd7c9461bef6 -->
<g id="edge1" class="edge"><title>dir_981838f6e9c63ec09b77d832830a84c0&#45;&gt;dir_5740f42ca04fe043515bcd7c9461bef6</title>
<path fill="none" stroke="black" d="M115,-87.6966C115,-79.9827 115,-70.7125 115,-62.1124"/>
<polygon fill="black" stroke="black" points="118.5,-62.1043 115,-52.1043 111.5,-62.1044 118.5,-62.1043"/>
<g id="a_edge1&#45;headlabel"><a xlink:href="dir_000044_000014.html" target="_top" xlink:title="1">
<text text-anchor="middle" x="121.339" y="-63.199" font-family="Helvetica,sans-Serif" font-size="10.00">1</text>
</a>
</g>
</g>
<!-- dir_ca35e1b3030965276a9a53cdba1d64ce -->
<g id="node4" class="node"><title>dir_ca35e1b3030965276a9a53cdba1d64ce</title>
<g id="a_node4"><a xlink:href="dir_ca35e1b3030965276a9a53cdba1d64ce.html" target="_top" xlink:title="dsp_lib">
<polygon fill="white" stroke="red" points="70,-124 16,-124 16,-88 70,-88 70,-124"/>
<text text-anchor="middle" x="43" y="-103.5" font-family="Helvetica,sans-Serif" font-size="10.00">dsp_lib</text>
</a>
</g>
</g>
</g>
</svg>
