<?xml version="1.0" encoding="UTF-8" standalone="no"?>
<!DOCTYPE svg PUBLIC "-//W3C//DTD SVG 1.1//EN"
 "http://www.w3.org/Graphics/SVG/1.1/DTD/svg11.dtd">
<!-- Generated by graphviz version 2.38.0 (20140413.2041)
 -->
<!-- Title: src Pages: 1 -->
<svg width="157pt" height="188pt"
 viewBox="0.00 0.00 157.00 188.00" xmlns="http://www.w3.org/2000/svg" xmlns:xlink="http://www.w3.org/1999/xlink">
<g id="graph0" class="graph" transform="scale(1 1) rotate(0) translate(4 184)">
<title>src</title>
<polygon fill="white" stroke="none" points="-4,4 -4,-184 153,-184 153,4 -4,4"/>
<!-- dir_a3f96fa416555f870f8f9424777b7b97 -->
<g id="node1" class="node"><title>dir_a3f96fa416555f870f8f9424777b7b97</title>
<g id="a_node1"><a xlink:href="dir_a3f96fa416555f870f8f9424777b7b97.html" target="_top" xlink:title="src">
<polygon fill="#eeeeff" stroke="black" points="128.5,-180 74.5,-180 74.5,-144 128.5,-144 128.5,-180"/>
<text text-anchor="middle" x="101.5" y="-159.5" font-family="Helvetica,sans-Serif" font-size="10.00">src</text>
</a>
</g>
</g>
<!-- dir_62c92c554b2f7ce10cfadafd25736073 -->
<g id="node2" class="node"><title>dir_62c92c554b2f7ce10cfadafd25736073</title>
<g id="a_node2"><a xlink:href="dir_62c92c554b2f7ce10cfadafd25736073.html" target="_top" xlink:title="inc">
<polygon fill="none" stroke="black" points="101.5,-108 47.5,-108 47.5,-72 101.5,-72 101.5,-108"/>
<text text-anchor="middle" x="74.5" y="-87.5" font-family="Helvetica,sans-Serif" font-size="10.00">inc</text>
</a>
</g>
</g>
<!-- dir_a3f96fa416555f870f8f9424777b7b97&#45;&gt;dir_62c92c554b2f7ce10cfadafd25736073 -->
<g id="edge3" class="edge"><title>dir_a3f96fa416555f870f8f9424777b7b97&#45;&gt;dir_62c92c554b2f7ce10cfadafd25736073</title>
<path fill="none" stroke="black" d="M94.8258,-143.697C91.7851,-135.813 88.1173,-126.304 84.7393,-117.546"/>
<polygon fill="black" stroke="black" points="87.9617,-116.175 81.0974,-108.104 81.4307,-118.694 87.9617,-116.175"/>
<g id="a_edge3&#45;headlabel"><a xlink:href="dir_000000_000001.html" target="_top" xlink:title="20">
<text text-anchor="middle" x="91.9043" y="-116.007" font-family="Helvetica,sans-Serif" font-size="10.00">20</text>
</a>
</g>
</g>
<!-- dir_f35b6d06d9a189103de193c5301bf232 -->
<g id="node3" class="node"><title>dir_f35b6d06d9a189103de193c5301bf232</title>
<g id="a_node3"><a xlink:href="dir_f35b6d06d9a189103de193c5301bf232.html" target="_top" xlink:title="00&#45;STM32F4_LIBRARY_MDB">
<polygon fill="white" stroke="red" points="149,-36 0,-36 0,-0 149,-0 149,-36"/>
<text text-anchor="middle" x="74.5" y="-15.5" font-family="Helvetica,sans-Serif" font-size="10.00">00&#45;STM32F4_LIBRARY_MDB</text>
</a>
</g>
</g>
<!-- dir_a3f96fa416555f870f8f9424777b7b97&#45;&gt;dir_f35b6d06d9a189103de193c5301bf232 -->
<g id="edge4" class="edge"><title>dir_a3f96fa416555f870f8f9424777b7b97&#45;&gt;dir_f35b6d06d9a189103de193c5301bf232</title>
<path fill="none" stroke="black" d="M107.146,-143.877C112.257,-125.661 117.94,-96.196 110.5,-72 107.491,-62.2153 101.993,-52.6161 96.1843,-44.3336"/>
<polygon fill="black" stroke="black" points="98.9072,-42.1306 90.1099,-36.2264 93.3052,-46.3279 98.9072,-42.1306"/>
<g id="a_edge4&#45;headlabel"><a xlink:href="dir_000000_000002.html" target="_top" xlink:title="1">
<text text-anchor="middle" x="103.335" y="-40.8048" font-family="Helvetica,sans-Serif" font-size="10.00">1</text>
</a>
</g>
</g>
<!-- dir_62c92c554b2f7ce10cfadafd25736073&#45;&gt;dir_f35b6d06d9a189103de193c5301bf232 -->
<g id="edge1" class="edge"><title>dir_62c92c554b2f7ce10cfadafd25736073&#45;&gt;dir_f35b6d06d9a189103de193c5301bf232</title>
<path fill="none" stroke="black" d="M68.5843,-71.6966C67.7886,-63.9827 67.5621,-54.7125 67.9047,-46.1124"/>
<polygon fill="black" stroke="black" points="71.3984,-46.3243 68.605,-36.1043 64.4154,-45.8356 71.3984,-46.3243"/>
<g id="a_edge1&#45;headlabel"><a xlink:href="dir_000001_000002.html" target="_top" xlink:title="4">
<text text-anchor="middle" x="73.9799" y="-47.6083" font-family="Helvetica,sans-Serif" font-size="10.00">4</text>
</a>
</g>
</g>
<!-- dir_f35b6d06d9a189103de193c5301bf232&#45;&gt;dir_62c92c554b2f7ce10cfadafd25736073 -->
<g id="edge2" class="edge"><title>dir_f35b6d06d9a189103de193c5301bf232&#45;&gt;dir_62c92c554b2f7ce10cfadafd25736073</title>
<path fill="none" stroke="black" d="M80.395,-36.1043C81.2005,-43.7913 81.4369,-53.0537 81.104,-61.6651"/>
<polygon fill="black" stroke="black" points="77.6085,-61.4805 80.4157,-71.6966 84.5921,-61.9597 77.6085,-61.4805"/>
<g id="a_edge2&#45;headlabel"><a xlink:href="dir_000002_000001.html" target="_top" xlink:title="6">
<text text-anchor="middle" x="75.0219" y="-55.2" font-family="Helvetica,sans-Serif" font-size="10.00">6</text>
</a>
</g>
</g>
</g>
</svg>
