<?xml version="1.0" encoding="UTF-8" standalone="no"?>
<!DOCTYPE svg PUBLIC "-//W3C//DTD SVG 1.1//EN"
 "http://www.w3.org/Graphics/SVG/1.1/DTD/svg11.dtd">
<!-- Generated by graphviz version 2.38.0 (20140413.2041)
 -->
<!-- Title: TM Pages: 1 -->
<svg width="173pt" height="151pt"
 viewBox="0.00 0.00 173.00 151.00" xmlns="http://www.w3.org/2000/svg" xmlns:xlink="http://www.w3.org/1999/xlink">
<g id="graph0" class="graph" transform="scale(1 1) rotate(0) translate(4 147)">
<title>TM</title>
<polygon fill="white" stroke="none" points="-4,4 -4,-147 169,-147 169,4 -4,4"/>
<g id="clust1" class="cluster"><title>clusterdir_f35b6d06d9a189103de193c5301bf232</title>
<g id="a_clust1"><a xlink:href="dir_f35b6d06d9a189103de193c5301bf232.html" target="_top" xlink:title="00&#45;STM32F4_LIBRARY_MDB">
<polygon fill="#ddddee" stroke="black" points="8,-64 8,-135 157,-135 157,-64 8,-64"/>
<text text-anchor="middle" x="82.5" y="-123" font-family="Helvetica,sans-Serif" font-size="10.00">00&#45;STM32F4_LIBRARY_MDB</text>
</a>
</g>
</g>
<!-- dir_591491033371a6200a2f734deb98dfb7 -->
<g id="node1" class="node"><title>dir_591491033371a6200a2f734deb98dfb7</title>
<g id="a_node1"><a xlink:href="dir_591491033371a6200a2f734deb98dfb7.html" target="_top" xlink:title="TM">
<polygon fill="#eeeeff" stroke="black" points="109,-108 55,-108 55,-72 109,-72 109,-108"/>
<text text-anchor="middle" x="82" y="-87.5" font-family="Helvetica,sans-Serif" font-size="10.00">TM</text>
</a>
</g>
</g>
<!-- dir_62c92c554b2f7ce10cfadafd25736073 -->
<g id="node2" class="node"><title>dir_62c92c554b2f7ce10cfadafd25736073</title>
<g id="a_node2"><a xlink:href="dir_62c92c554b2f7ce10cfadafd25736073.html" target="_top" xlink:title="inc">
<polygon fill="none" stroke="black" points="109,-36 55,-36 55,-0 109,-0 109,-36"/>
<text text-anchor="middle" x="82" y="-15.5" font-family="Helvetica,sans-Serif" font-size="10.00">inc</text>
</a>
</g>
</g>
<!-- dir_591491033371a6200a2f734deb98dfb7&#45;&gt;dir_62c92c554b2f7ce10cfadafd25736073 -->
<g id="edge1" class="edge"><title>dir_591491033371a6200a2f734deb98dfb7&#45;&gt;dir_62c92c554b2f7ce10cfadafd25736073</title>
<path fill="none" stroke="black" d="M82,-71.6966C82,-63.9827 82,-54.7125 82,-46.1124"/>
<polygon fill="black" stroke="black" points="85.5001,-46.1043 82,-36.1043 78.5001,-46.1044 85.5001,-46.1043"/>
<g id="a_edge1&#45;headlabel"><a xlink:href="dir_000003_000001.html" target="_top" xlink:title="3">
<text text-anchor="middle" x="88.3393" y="-47.199" font-family="Helvetica,sans-Serif" font-size="10.00">3</text>
</a>
</g>
</g>
</g>
</svg>
