<?xml version="1.0" encoding="UTF-8" standalone="no"?>
<!-- Created with Sodipodi ("http://www.sodipodi.com/") -->

<svg
   xmlns:dc="http://purl.org/dc/elements/1.1/"
   xmlns:cc="http://creativecommons.org/ns#"
   xmlns:rdf="http://www.w3.org/1999/02/22-rdf-syntax-ns#"
   xmlns:svg="http://www.w3.org/2000/svg"
   xmlns="http://www.w3.org/2000/svg"
   xmlns:xlink="http://www.w3.org/1999/xlink"
   xmlns:sodipodi="http://sodipodi.sourceforge.net/DTD/sodipodi-0.dtd"
   xmlns:inkscape="http://www.inkscape.org/namespaces/inkscape"
   width="694.91718"
   height="695.823"
   viewBox="0 0 520.70135 521.38009"
   id="svg602"
   sodipodi:version="0.32"
   sodipodi:docname="gnu_flatten_lowres.svg"
   inkscape:version="0.92.0 unknown"
   version="1.1">
  <sodipodi:namedview
     id="base"
     inkscape:zoom="0.99999999"
     inkscape:cx="486.86363"
     inkscape:cy="416.48212"
     inkscape:window-width="1687"
     inkscape:window-height="881"
     inkscape:window-x="2080"
     inkscape:window-y="54"
     showgrid="false"
     inkscape:window-maximized="0"
     inkscape:current-layer="svg602"
     inkscape:snap-others="false"
     inkscape:snap-nodes="false"
     units="px"
     fit-margin-top="31.7"
     fit-margin-bottom="35.9"
     fit-margin-left="2.5"
     fit-margin-right="2.5" />
  <defs
     id="defs605">
    <linearGradient
       id="linearGradient659">
      <stop
         id="stop660"
         offset="0.0000000"
         style="stop-color:#a0a0a0;stop-opacity:1.0000000;" />
      <stop
         id="stop661"
         offset="1.0000000"
         style="stop-color:#000000;stop-opacity:1.0000000;" />
    </linearGradient>
    <linearGradient
       y2="0.052287582"
       x2="0.45994064"
       y1="0.96732026"
       x1="0.46587536"
       id="linearGradient662"
       xlink:href="#linearGradient659" />
  </defs>
  <path
     inkscape:connector-curvature="0"
     sodipodi:nodetypes="ccccsc"
     id="path629"
     d="M287.85131 459.65201L271.93331 490.41151L262.30891 473.58361L251.69951 490.76471L227.48871 473.348685L196.90501 433.19491L162.13911 352.66651"
     style="fill:none;stroke:#000000;stroke-width:1.49859977;stroke-linecap:round;stroke-linejoin:round;stroke-miterlimit:4;stroke-dasharray:none;stroke-dashoffset:0;stroke-opacity:1" />
  <path
     inkscape:connector-curvature="0"
     sodipodi:nodetypes="cscccccccccccccssscsssccccccccs"
     id="path630"
     d="M131.25831 193.14141L199.55661 154.35481L234.13901 161.19871L275.63581 151.19681L314.63951 160.19871L355.507835 156.95396L389.63951 179.19871L423.63951 232.19871L461.26451 227.32371L491.561385 207.308085L514.63951 163.19871L516.76451 105.19871025L504.63951 65.198718L478.01451 37.19868925L438.63951 27.198698L378.63951 47.198688L354.63951 45.198728L356.76451 52.6987155L368.63951 63.198718L436.63951 74.198708L453.76451 101.948709L459.63951 143.19871L446.49786 169.1006975L432.63951 175.19871L402.92656 161.7402725L377.63951 131.19871L354.421535 104.740684L323.63951 94.198708L294.1960975 103.734709L274.16931 113.78581L247.0738975 102.495859L215.63951 91.198708L180.948599047 106.64520675L149.158172375 137.2363715L119.064264266 167.29378L89.462909 181.13901L69.554409 168.03736L62.639509 144.19871L75.014509125 99.3237115L92.8738844219 75.1518333125L119.63951 64.198698L195.63951 63.198718L217.63951 45.198728L191.87341 46.785808L159.5867225 31.86159425L102.63951 26.198718L62.827009375 43.5112040937L30.889508975 73.19870275L2.6395087 135.19871L12.76450885 192.32371L27.2488839531 220.558085L50.639509 241.19871L89.8895095 255.69871L100.63951 255.19871L107.3423975 231.1591225L131.25831 193.14141L131.25831 193.14141"
     style="fill:none;fill-opacity:1;fill-rule:nonzero;stroke:#000000;stroke-width:1.49859977;stroke-linecap:round;stroke-linejoin:round;stroke-miterlimit:4;stroke-dasharray:none;stroke-dashoffset:0;stroke-opacity:1" />
  <path
     inkscape:connector-curvature="0"
     sodipodi:nodetypes="cscccc"
     id="path631"
     d="M100.52501 255.72131L83.639509 300.19871L60.639509 331.19871L107.251372 316.68471L165.63951 286.19871L186.88951 234.44871L200.63951 190.19871L227.63951 179.19871"
     style="fill:none;stroke:#000000;stroke-width:1.49859977;stroke-linecap:round;stroke-linejoin:round;stroke-miterlimit:4;stroke-dasharray:none;stroke-dashoffset:0;stroke-opacity:1" />
  <path
     inkscape:connector-curvature="0"
     sodipodi:nodetypes="ccsccc"
     id="path632"
     d="M423.43581 231.74491L432.380935 253.0712225L441.909238125 263.563495937L455.63951 265.19871L443.16501 279.5669225L418.63951 281.94871L386.9553475 271.353335L367.63951 251.69871L368.63951 275.19871L367.94051 286.24731"
     style="fill:none;stroke:#000000;stroke-width:1.49859977;stroke-linecap:round;stroke-linejoin:round;stroke-miterlimit:4;stroke-dasharray:none;stroke-dashoffset:0;stroke-opacity:1" />
  <path
     inkscape:connector-curvature="0"
     sodipodi:nodetypes="ccc"
     id="path634"
     d="M339.09771 311.84551L322.6484475 289.216285L294.63951 281.19871L278.17076 288.683085L272.38951 300.57371L275.63951 319.19871"
     style="fill:none;stroke:#000000;stroke-width:1.49859977;stroke-linecap:round;stroke-linejoin:round;stroke-miterlimit:4;stroke-dasharray:none;stroke-dashoffset:0;stroke-opacity:1" />
  <path
     inkscape:connector-curvature="0"
     sodipodi:nodetypes="csssss"
     id="path635"
     d="M293.06711 301.24281L314.98001 307.41711L322.16321 327.42391L309.64361 321.21381L293.06711 313.95471L293.06711 301.24281L293.06711 301.24281"
     style="font-size:12px;fill:none;stroke:#000000;stroke-width:1.49859977;stroke-linecap:round;stroke-linejoin:round;stroke-miterlimit:4;stroke-dasharray:none;stroke-dashoffset:0" />
  <path
     inkscape:connector-curvature="0"
     sodipodi:nodetypes="cccssssscsc"
     id="path636"
     d="M340.63951 179.19871L326.63951 213.94871L362.13951 275.69871L380.63951 293.70101L398.63481 292.04971L404.8995975 310.228935L401.14281 327.19871L392.45601 350.28811L393.63951 370.19871L384.6115725 384.741635L372.63951 389.19871L330.14371 384.69451L284.35471 387.9367475L258.040463125 380.407767812L237.15211 356.17911"
     style="fill:none;stroke:#000000;stroke-width:1.49859977;stroke-linecap:round;stroke-linejoin:round;stroke-miterlimit:4;stroke-dasharray:none;stroke-dashoffset:0;stroke-opacity:1" />
  <path
     inkscape:connector-curvature="0"
     sodipodi:nodetypes="ccscccc"
     id="path637"
     d="M387.21691 383.27561L383.33481 416.13251L352.75381 453.32761L319.35981 491.10931L310.31821 466.60791L292.43481 493.73101L285.48291 470.50431"
     style="fill:none;stroke:#000000;stroke-width:1.49859977;stroke-linecap:round;stroke-linejoin:round;stroke-miterlimit:4;stroke-dasharray:none;stroke-dashoffset:0;stroke-opacity:1" />
  <path
     inkscape:connector-curvature="0"
     sodipodi:nodetypes="cc"
     id="path638"
     d="M271.63951 179.19871L289.88741 215.68241"
     style="fill:none;stroke:#000000;stroke-width:1.49859977;stroke-linecap:round;stroke-linejoin:round;stroke-miterlimit:4;stroke-dasharray:none;stroke-dashoffset:0;stroke-opacity:1" />
  <path
     inkscape:connector-curvature="0"
     id="path639"
     d="M346.63951 168.19871L359.63951 183.19871L357.63951 210.19871"
     style="fill:none;stroke:#000000;stroke-width:1.49859977;stroke-linecap:round;stroke-linejoin:round;stroke-miterlimit:4;stroke-dasharray:none;stroke-dashoffset:0;stroke-opacity:1" />
  <path
     inkscape:connector-curvature="0"
     sodipodi:nodetypes="cc"
     id="path640"
     d="M360.13951 244.19871L368.19041 267.12341"
     style="fill:none;stroke:#000000;stroke-width:1.49859977;stroke-linecap:round;stroke-linejoin:round;stroke-miterlimit:4;stroke-dasharray:none;stroke-dashoffset:0;stroke-opacity:1" />
  <path
     inkscape:connector-curvature="0"
     id="path641"
     d="M360.13951 217.19871L360.13951 209.69871"
     style="fill:none;stroke:#000000;stroke-width:1.49859977;stroke-linecap:round;stroke-linejoin:round;stroke-miterlimit:4;stroke-dasharray:none;stroke-dashoffset:0;stroke-opacity:1" />
  <path
     inkscape:connector-curvature="0"
     id="path642"
     d="M331.13951 218.94871L348.38951 213.94871L365.13951 222.19871L362.38951 228.69871L351.63951 220.69871L331.13951 218.94871L331.13951 218.94871"
     style="fill:none;fill-opacity:1;stroke:#000000;stroke-width:1.49859977;stroke-linecap:round;stroke-linejoin:round;stroke-miterlimit:4;stroke-dasharray:none;stroke-dashoffset:0;stroke-opacity:1" />
  <path
     inkscape:connector-curvature="0"
     sodipodi:nodetypes="cssssc"
     id="path643"
     d="m 347.03531,220.32881 -9.9092,5.98711 7.9677,9.68299 8.5618,-7.5539 -6.6203,-8.1162 v 0"
     style="font-size:12px;fill:none;stroke:#000000;stroke-width:1.49859977;stroke-linecap:round;stroke-linejoin:round;stroke-miterlimit:4;stroke-dasharray:none;stroke-dashoffset:0" />
  <path
     inkscape:connector-curvature="0"
     sodipodi:nodetypes="ccccsc"
     id="path644"
     d="M271.88951 223.69871L266.63951 213.94871L239.88901 218.19801L224.63951 233.19871L248.38621 222.69941L271.88951 223.69871L271.88951 223.69871"
     style="fill:none;fill-opacity:1;stroke:#000000;stroke-width:1.49859977;stroke-linecap:round;stroke-linejoin:round;stroke-miterlimit:4;stroke-dasharray:none;stroke-dashoffset:0;stroke-opacity:1" />
  <path
     inkscape:connector-curvature="0"
     sodipodi:nodetypes="ccc"
     id="path645"
     d="M230.38671 233.69851L255.64771 240.70111L270.13951 230.69871"
     style="fill:none;stroke:#000000;stroke-width:1.49859977;stroke-linecap:round;stroke-linejoin:round;stroke-miterlimit:4;stroke-dasharray:none;stroke-dashoffset:0;stroke-opacity:1" />
  <path
     inkscape:connector-curvature="0"
     sodipodi:nodetypes="sssss"
     id="path646"
     d="M252.83216 222.33436L244.69901 231.32001L254.03241 238.72251L262.80991 228.77751L252.83216 222.33436L252.83216 222.33436"
     style="fill:none;fill-opacity:1;stroke:#000000;stroke-width:1.49859977;stroke-linecap:round;stroke-linejoin:round;stroke-miterlimit:4;stroke-dasharray:none;stroke-dashoffset:0;stroke-opacity:1" />
  <path
     inkscape:connector-curvature="0"
     sodipodi:nodetypes="ccc"
     id="path647"
     d="M227.88948 215.94074L246.39324 198.69871L267.88951 209.19871"
     style="fill:none;stroke:#000000;stroke-width:1.49859977;stroke-linecap:round;stroke-linejoin:round;stroke-miterlimit:4;stroke-dasharray:none;stroke-dashoffset:0;stroke-opacity:1" />
  <path
     inkscape:connector-curvature="0"
     sodipodi:nodetypes="ccc"
     id="path648"
     d="M327.39071 205.95171L339.88761 200.69871L356.38431 205.69781"
     style="fill:none;stroke:#000000;stroke-width:1.49859977;stroke-linecap:round;stroke-linejoin:round;stroke-miterlimit:4;stroke-dasharray:none;stroke-dashoffset:0;stroke-opacity:1" />
  <path
     inkscape:connector-curvature="0"
     sodipodi:nodetypes="ccc"
     id="path652"
     d="M339.52811 236.75811L351.14221 237.88221L361.00801 234.26061"
     style="fill:none;fill-opacity:1;fill-rule:evenodd;stroke:#000000;stroke-width:1.49859977;stroke-linecap:round;stroke-linejoin:round;stroke-miterlimit:4;stroke-dasharray:none;stroke-dashoffset:0;stroke-opacity:1" />
  <ellipse
     ry="3.1637325"
     rx="2.9972074"
     cy="229.18211"
     cx="250.8609"
     id="path657"
     style="fill:none;fill-opacity:1;fill-rule:evenodd;stroke:none;stroke-width:1.49859977;stroke-linecap:round;stroke-linejoin:round;stroke-miterlimit:4;stroke-dasharray:none;stroke-dashoffset:0;stroke-opacity:1" />
  <ellipse
     ry="2.7682648"
     rx="2.6225486"
     cy="227.03821"
     cx="343.14987"
     id="path658"
     style="fill:none;fill-opacity:1;fill-rule:evenodd;stroke:none;stroke-width:1.49859977;stroke-linecap:round;stroke-linejoin:round;stroke-miterlimit:4;stroke-dasharray:none;stroke-dashoffset:0;stroke-opacity:1" />
  <path
     inkscape:connector-curvature="0"
     sodipodi:nodetypes="cc"
     id="path736"
     d="M262.37051 473.32451L263.07701 460.25521"
     style="fill:none;fill-opacity:1;fill-rule:evenodd;stroke:#000000;stroke-width:1.49859977;stroke-linecap:round;stroke-linejoin:round;stroke-miterlimit:4;stroke-dasharray:none;stroke-dashoffset:0;stroke-opacity:1" />
  <path
     inkscape:connector-curvature="0"
     sodipodi:nodetypes="cc"
     id="path737"
     d="M310.29301 466.72931L309.36391 457.91441"
     style="fill:none;fill-opacity:1;fill-rule:evenodd;stroke:#000000;stroke-width:1.49859977;stroke-linecap:round;stroke-linejoin:round;stroke-miterlimit:4;stroke-dasharray:none;stroke-dashoffset:0;stroke-opacity:1" />
  <metadata
     id="metadata1601">
    <rdf:RDF>
      <cc:Work
         rdf:about="">
        <dc:format>image/svg+xml</dc:format>
        <dc:type
           rdf:resource="http://purl.org/dc/dcmitype/StillImage" />
        <dc:title />
      </cc:Work>
    </rdf:RDF>
  </metadata>
  <path
     sodipodi:nodetypes="cc"
     inkscape:connector-curvature="0"
     id="path4530"
     d="M379.55651 421.44021L338.64480125 429.80124625L291.58031 426.97541"
     style="fill:none;stroke:#000000;stroke-width:1.49859977;stroke-linecap:butt;stroke-linejoin:miter;stroke-miterlimit:4;stroke-dasharray:none;stroke-opacity:1" />
  <path
     inkscape:connector-curvature="0"
     sodipodi:nodetypes="sssss"
     id="path646-3"
     d="m 250.61566,228.51699 -0.87908,3.46947 3.45913,0.64033 0.91449,-3.8089 -3.49454,-0.3009 v 0"
     style="fill:none;fill-opacity:1;stroke:#000000;stroke-width:0.4425512;stroke-linecap:round;stroke-linejoin:round;stroke-miterlimit:4;stroke-dasharray:none;stroke-dashoffset:0;stroke-opacity:1" />
  <path
     inkscape:connector-curvature="0"
     sodipodi:nodetypes="sssss"
     id="path646-3-6"
     d="m 342.27628,226.72645 1.35241,3.70489 3.54733,-1.5634 -1.5308,-4.03597 -3.36894,1.89448 v 0"
     style="fill:none;fill-opacity:1;stroke:#000000;stroke-width:0.48767179;stroke-linecap:round;stroke-linejoin:round;stroke-miterlimit:4;stroke-dasharray:none;stroke-dashoffset:0;stroke-opacity:1" />
</svg>
