<?xml version="1.0" encoding="UTF-8" standalone="no"?>
<!-- Created with Sodipodi ("http://www.sodipodi.com/") -->

<svg
   xmlns:dc="http://purl.org/dc/elements/1.1/"
   xmlns:cc="http://creativecommons.org/ns#"
   xmlns:rdf="http://www.w3.org/1999/02/22-rdf-syntax-ns#"
   xmlns:svg="http://www.w3.org/2000/svg"
   xmlns="http://www.w3.org/2000/svg"
   xmlns:xlink="http://www.w3.org/1999/xlink"
   xmlns:sodipodi="http://sodipodi.sourceforge.net/DTD/sodipodi-0.dtd"
   xmlns:inkscape="http://www.inkscape.org/namespaces/inkscape"
   version="1.1"
   inkscape:version="0.92.0 unknown"
   sodipodi:docname="gnu_beziers.svg"
   sodipodi:version="0.32"
   id="svg602"
   viewBox="0 0 516.41774 495.44858"
   height="495.44855mm"
   width="516.41772mm">
  <sodipodi:namedview
     fit-margin-bottom="12.5905"
     fit-margin-left="0"
     fit-margin-right="0"
     fit-margin-top="12.5905"
     id="base"
     inkscape:current-layer="svg602"
     inkscape:cx="-173.83198"
     inkscape:cy="1456.4617"
     inkscape:document-units="mm"
     inkscape:snap-center="true"
     inkscape:snap-object-midpoints="true"
     inkscape:window-height="975"
     inkscape:window-maximized="0"
     inkscape:window-width="1228"
     inkscape:window-x="19"
     inkscape:window-y="40"
     inkscape:zoom="0.5"
     scale-x="1"
     showgrid="false"
     units="mm" />
  <defs
     id="defs605">
    <linearGradient
       id="linearGradient659">
      <stop
         id="stop660"
         offset="0.0000000"
         style="stop-color:#a0a0a0;stop-opacity:1.0000000;" />
      <stop
         id="stop661"
         offset="1.0000000"
         style="stop-color:#000000;stop-opacity:1.0000000;" />
    </linearGradient>
    <linearGradient
       gradientUnits="userSpaceOnUse"
       gradientTransform="scale(1.4833363,0.67415597)"
       y2="98.165245"
       x2="193.38409"
       y1="12.099577"
       x1="265.83301"
       id="linearGradient662"
       xlink:href="#linearGradient659" />
  </defs>
  <path
     sodipodi:nodetypes="c"
     id="path633"
     d=""
     style="fill:none;stroke:#000000;stroke-width:1.05833328;stroke-linecap:round;stroke-linejoin:round;stroke-miterlimit:4;stroke-dasharray:none;stroke-dashoffset:0;stroke-opacity:1"
     inkscape:connector-curvature="0" />
  <path
     sodipodi:nodetypes="ccccsc"
     id="path629"
     d="m 285.74096,448.24993 c -0.7759,11.7651 -7.7872,24.3619 -15.918,30.7595 -1.4789,-8.5566 -6.0921,-14.7086 -9.6244,-16.8279 -2.6111,5.7638 -4.2514,9.8232 -10.6094,17.1811 0,1 -46.2973,-28.2528 -54.7945,-57.5698 -9.7651,-35.7962 -19.2767,-37.5647 -34.7659,-80.5284"
     style="fill:none;stroke:#000000;stroke-width:1.05833328;stroke-linecap:round;stroke-linejoin:round;stroke-miterlimit:4;stroke-dasharray:none;stroke-dashoffset:0;stroke-opacity:1"
     inkscape:connector-curvature="0" />
  <path
     sodipodi:nodetypes="cscccccccccccccssscsssccccccccs"
     id="path630"
     d="m 129.14796,181.73933 21.20535,-16.20553 17.55315,-11.54836 7.8281,-4.17676 7.42037,-3.1913 7.18109,-2.26545 7.11024,-1.3992 5.18864,-0.2811 4.69173,0.54532 8.39179,2.56658 7.90132,2.86215 4.07863,0.9148 4.33029,0.23615 4.51101,0.39058 5.13831,-0.82824 11.29025,-3.81292 11.19468,-4.1881 5.01882,-1.29723 4.34373,-0.26599 4.15474,0.0794 4.81863,0.83517 10.71298,3.02372 10.62073,3.30504 8.69662,1.75857 9.7395,-3.2816 10.26915,-1.61928 10.48191,0.02 10.37777,1.63615 9.95672,3.22924 9.21879,4.79926 8.16395,6.3462 6.79221,7.87003 6.62891,8.30664 6.27734,8.83398 10.84375,17.23438 10.25,18.625 3.04883,0.27539 8.21679,0.0527 11.99024,-1.33007 6.97436,-1.54615 7.39478,-2.3269 7.64087,-3.25269 7.71265,-4.32348 7.6101,-5.53931 7.33325,-6.90015 6.88209,-8.406 6.25659,-10.05689 5.45678,-11.85278 4.48267,-13.79367 2.31836,-17.00781 1.04101,-15.17969 -0.10742,-13.58594 -1.12695,-12.226559 -2.01758,-11.101565 -2.7793,-10.210941 -3.4121,-9.554683 -3.91602,-9.13281 -4.8457,-7.785169 -6.16993,-7.433602 -7.31835,-6.824224 -8.29102,-5.957034 -9.08789,-4.832032 -9.70899,-3.449217 -10.15429,-1.80859 -10.42383,0.08985 -10.08398,1.679687 -9.2754,2.570313 -16.26562,6.5 -13.45313,6.124997 -5.75976,2.10156 -5.16211,1.023434 -9.23438,0.109398 -7.64062,-0.734363 -7.125,-1.374995 0.35937,2.249996 1.76563,5.249991 1.73242,3.046872 2.4707,2.953124 3.3379,2.578127 4.33398,1.92188 6.20312,1.25195 8.35938,0.888671 20.1875,1.484374 10.32812,0.994141 9.48438,1.427734 7.89062,2.06054 5.54688,2.89258 4.31055,4.44141 4.48632,6.33984 4.36915,7.88672 3.95898,9.082035 3.25586,9.92578 2.25976,10.41797 0.97071,10.55859 -0.61133,10.34766 -2.10534,9.10256 -3.10403,7.20444 -3.78476,5.52643 -4.14752,4.06856 -4.19231,2.83081 -3.91915,1.81319 -5.74689,1.45401 -3.76551,0.12606 -3.77261,-0.49052 -7.52297,-2.63096 -7.42066,-4.49786 -7.2312,-5.96516 -6.95458,-7.03285 -6.5908,-7.70094 -11.74167,-15.80777 -11.34006,-14.98935 -5.78715,-6.203069 -6.09077,-5.265611 -6.56351,-4.27085 -7.20542,-3.218814 -8.01645,-2.10947 -8.99664,-0.94284 -7.56825,0.64208 -7.55864,2.12596 -7.35604,3.125944 -6.96048,3.64202 -11.96237,6.896731 -4.61594,2.286929 -3.44848,0.86744 -5.84391,-0.6062 -6.56352,-2.505739 -14.68798,-8.178011 -7.82551,-4.406194 -7.94722,-3.77362 -7.91945,-2.507991 -7.74221,-0.60935 -9.01049,1.5844 -8.77277,3.265861 -8.55387,4.702364 -8.35378,5.893881 -8.1725,6.840419 -8.01003,7.54198 -15.6079,16.20876 -15.18377,16.07533 -14.91014,13.98208 -7.39948,5.59364 -7.38751,4.3354 -7.394354,2.83219 -7.42,1.084 -6.37277,-0.92233 -5.40854,-2.74753 -4.495,-4.18801 -3.63219,-5.24378 -2.82009,-5.91484 -2.0587,-6.2012 -1.34804,-6.10284 -0.68807,-5.61977 0.43945,-7.41602 2.13868,-10.8496 3.94335,-12.93555 5.85352,-13.67383 3.67603,-6.692625 4.19311,-6.37183 4.72339,-5.88257 5.26684,-5.22485 5.82349,-4.39869 6.393304,-3.404053 6.97632,-2.24097 7.57251,-0.909427 27.625,-0.01561 20.875,0.640629 15.625,0.07813 6.3125,-0.552732 5.5625,-1.150388 4.86343,-1.740786 4.13262,-2.138328 6.32676,-4.965174 4.16535,-5.043027 2.51184,-4.112684 -3.74673,1.472652 -5.2127,1.262094 -7.1745,0.291491 -9.63217,-1.439157 -6.42197,-2.374868 -7.39563,-3.702693 -8.5585,-4.394967 -9.91059,-4.451687 -11.45186,-3.872852 -13.18236,-2.658466 -15.10204,-0.808525 -8.33004,0.488075 -8.88091,1.188892 -10.527334,2.696284 -10.17579,3.874019 -9.77734,4.916991 -9.33203,5.825193 -8.83984,6.598631 -8.300785,7.237304 -7.714844,7.741211 -7.082031,8.110348 -6.402344,8.34473 -5.675781,8.44434 -4.902344,8.409181 -4.0820304,8.239265 -3.214844,7.934569 -2.300781,7.49512 -1.33984405,6.9209 -0.332031,6.21191 0.79101605,12.63477 1.787109,14.19335 3.029297,15.06055 4.5175774,15.23633 6.251953,14.7207 3.853272,6.95093 4.37915,6.56274 4.935791,6.08814 5.523193,5.5271 6.141358,4.87964 6.790283,4.14575 13.05859,6.34375 10.78516,4.28125 8.67578,2.59375 6.73047,1.28125 4.94922,0.34375 3.33203,-0.21875 2.46875,-0.625 1.556744,-7.07555 5.14614,-16.96404 4.14217,-10.19208 5.30723,-10.26648 6.5615,-9.54162 3.77899,-4.24923 4.12602,-3.7683 v 0"
     style="fill:none;fill-opacity:1;fill-rule:nonzero;stroke:#000000;stroke-width:1.05833328;stroke-linecap:round;stroke-linejoin:round;stroke-miterlimit:4;stroke-dasharray:none;stroke-dashoffset:0;stroke-opacity:1"
     inkscape:connector-curvature="0" />
  <path
     sodipodi:nodetypes="cscccc"
     id="path631"
     d="m 98.414666,244.31923 c 0,0 -9.6519,31.5256 -16.8855,44.4774 -6.5568,11.5633 -13.1694,23.4057 -23,31 8.537,-1.2363 80.761294,-22.4677 104.999994,-45 20,-19 25,-87 35,-96 10,-9 27,-11 27,-11"
     style="fill:none;stroke:#000000;stroke-width:1.05833328;stroke-linecap:round;stroke-linejoin:round;stroke-miterlimit:4;stroke-dasharray:none;stroke-dashoffset:0;stroke-opacity:1"
     inkscape:connector-curvature="0" />
  <path
     sodipodi:nodetypes="ccsccc"
     id="path632"
     d="m 421.32546,220.34283 c 2.3009,5.6263 10.8182,40.0926 32.2037,33.4538 -7.6066,15.3229 -13.3254,17.409 -37,16.75 -23.4211,-0.661 -44.07,-17.51 -51,-30.25 -1.4757,6.0267 2,19.5 1,23.5 -0.3495,3.6747 -0.699,4.8691 -0.699,11.0486"
     style="fill:none;stroke:#000000;stroke-width:1.05833328;stroke-linecap:round;stroke-linejoin:round;stroke-miterlimit:4;stroke-dasharray:none;stroke-dashoffset:0;stroke-opacity:1"
     inkscape:connector-curvature="0" />
  <path
     sodipodi:nodetypes="ccc"
     id="path634"
     d="m 336.98736,300.44343 c -3.8855,-18.0145 -25.1598,-32.1145 -44.4582,-30.6468 -31,5 -22,34 -19,38"
     style="fill:none;stroke:#000000;stroke-width:1.05833328;stroke-linecap:round;stroke-linejoin:round;stroke-miterlimit:4;stroke-dasharray:none;stroke-dashoffset:0;stroke-opacity:1"
     inkscape:connector-curvature="0" />
  <path
     sodipodi:nodetypes="csssss"
     id="path635"
     d="m 290.95676,289.84073 c 5.3027,-3.6995 15.7555,-2.0502 21.9129,6.1743 4.8014,6.2558 9.9732,17.732 7.1832,20.0068 -2.4372,2.2711 -6.8261,-3.7555 -12.5196,-6.2101 -7.5759,-3.4639 -11.006,-0.9817 -16.5765,-7.2591 -3.6912,-3.9323 -3.3737,-10.3581 0,-12.7119 z"
     style="font-size:12px;fill:none;stroke:#000000;stroke-width:1.05833328;stroke-linecap:round;stroke-linejoin:round;stroke-miterlimit:4;stroke-dasharray:none;stroke-dashoffset:0"
     inkscape:connector-curvature="0" />
  <path
     sodipodi:nodetypes="cccssssscsc"
     id="path636"
     d="m 338.52916,167.79663 c -6.25,3.25 -13,14.75 -14,34.75 4.5,15.5 27,40.25 35.5,61.75 1,11 14.5,18.0023 18.5,18.0023 4,0 10.2588,-7.0603 17.9953,-1.6513 10.829,7.9242 5.0411,28.8374 2.508,35.149 -3.4189,9.0178 -8.1945,11.4733 -8.6868,23.0894 -0.3528,8.6776 2.7,10.4449 1.1835,19.9106 -2.0745,13.4478 -15,19 -21,19 -6,0 -30.2227,-4.3051 -42.4958,-4.5042 -19.7805,-0.3047 -71.3263,18.4558 -92.9916,-28.5154"
     style="fill:none;stroke:#000000;stroke-width:1.05833328;stroke-linecap:round;stroke-linejoin:round;stroke-miterlimit:4;stroke-dasharray:none;stroke-dashoffset:0;stroke-opacity:1"
     inkscape:connector-curvature="0" />
  <path
     sodipodi:nodetypes="ccscccc"
     id="path637"
     d="m 385.10656,371.87353 c 3.0907,5.21 1.8036,21.4474 -3.8821,32.8569 -7.6677,11.3959 -23.7761,30.8153 -30.581,37.1951 -6.6793,6.7581 -15.2246,27.1922 -33.394,37.7817 -1.6948,-13.3859 -7.1236,-10.4287 -9.0416,-24.5014 -2.2217,15.0797 -11.05,21.4319 -17.8834,27.1231 0.7395,-15.4858 -6.394,-14.0496 -6.9519,-23.2267"
     style="fill:none;stroke:#000000;stroke-width:1.05833328;stroke-linecap:round;stroke-linejoin:round;stroke-miterlimit:4;stroke-dasharray:none;stroke-dashoffset:0;stroke-opacity:1"
     inkscape:connector-curvature="0" />
  <path
     sodipodi:nodetypes="cc"
     id="path638"
     d="m 269.52916,167.79663 c 4.246,3.4967 16.4958,23.9869 18.2479,36.4837"
     style="fill:none;stroke:#000000;stroke-width:1.05833328;stroke-linecap:round;stroke-linejoin:round;stroke-miterlimit:4;stroke-dasharray:none;stroke-dashoffset:0;stroke-opacity:1"
     inkscape:connector-curvature="0" />
  <path
     id="path639"
     d="m 344.52916,156.79663 c 0,0 12,11 13,15 1,4 3,26 -2,27"
     style="fill:none;stroke:#000000;stroke-width:1.05833328;stroke-linecap:round;stroke-linejoin:round;stroke-miterlimit:4;stroke-dasharray:none;stroke-dashoffset:0;stroke-opacity:1"
     inkscape:connector-curvature="0" />
  <path
     sodipodi:nodetypes="cc"
     id="path640"
     d="m 358.02916,232.79663 c 2.9271,4.228 8.0509,22.9247 8.0509,22.9247"
     style="fill:none;stroke:#000000;stroke-width:1.05833328;stroke-linecap:round;stroke-linejoin:round;stroke-miterlimit:4;stroke-dasharray:none;stroke-dashoffset:0;stroke-opacity:1"
     inkscape:connector-curvature="0" />
  <path
     id="path641"
     d="m 358.02916,205.79663 c 0,0 0,-7.5 0,-7.5"
     style="fill:none;stroke:#000000;stroke-width:1.05833328;stroke-linecap:round;stroke-linejoin:round;stroke-miterlimit:4;stroke-dasharray:none;stroke-dashoffset:0;stroke-opacity:1"
     inkscape:connector-curvature="0" />
  <path
     id="path642"
     d="m 329.02916,207.54663 c 0,0 13.5,-5.5 17.25,-5 3.75,0.5 16.75,8.25 16.75,8.25 0,0 -1.5,7.25 -2.75,6.5 -1.25,-0.75 -5.5,-7.25 -10.75,-8 -5.25,-0.75 -20.5,-1.75 -20.5,-1.75 z"
     style="fill:none;fill-opacity:1;stroke:#000000;stroke-width:1.05833328;stroke-linecap:round;stroke-linejoin:round;stroke-miterlimit:4;stroke-dasharray:none;stroke-dashoffset:0;stroke-opacity:1"
     inkscape:connector-curvature="0" />
  <path
     sodipodi:nodetypes="cssss"
     id="path643"
     d="m 344.92496,208.92673 c -4.8877,-0.1806 -10.2124,2.8113 -9.9092,8.9012 0.2473,4.7949 3.2402,6.3922 7.9677,6.7689 5.4414,0.4168 8.7263,-2.959 8.5618,-7.5539 -0.1276,-3.7765 -2.3804,-7.9662 -6.6203,-8.1162 z"
     style="font-size:12px;fill:none;stroke:#000000;stroke-width:1.05833328;stroke-linecap:round;stroke-linejoin:round;stroke-miterlimit:4;stroke-dasharray:none;stroke-dashoffset:0"
     inkscape:connector-curvature="0" />
  <path
     sodipodi:nodetypes="ccccsc"
     id="path644"
     d="m 269.77916,212.29663 c 0,0 -0.2538,-4.2551 -5.25,-9.75 -3.9972,-0.4995 -20.7505,1.7493 -26.7505,4.2493 -6,2.5 -9.0056,8.2495 -15.2495,15.0007 8.5,-5.25 16.1727,-9.1038 23.7467,-10.4993 9.748,-1.75 23.5033,0.9993 23.5033,0.9993 z"
     style="fill:none;fill-opacity:1;stroke:#000000;stroke-width:1.05833328;stroke-linecap:round;stroke-linejoin:round;stroke-miterlimit:4;stroke-dasharray:none;stroke-dashoffset:0;stroke-opacity:1"
     inkscape:connector-curvature="0" />
  <path
     sodipodi:nodetypes="ccc"
     id="path645"
     d="m 228.27636,222.29643 c 5.4949,4.7455 10.7707,8.5023 25.261,7.0026 14.2404,-4.2472 14.4918,-10.0024 14.4918,-10.0024"
     style="fill:none;stroke:#000000;stroke-width:1.05833328;stroke-linecap:round;stroke-linejoin:round;stroke-miterlimit:4;stroke-dasharray:none;stroke-dashoffset:0;stroke-opacity:1"
     inkscape:connector-curvature="0" />
  <path
     inkscape:connector-curvature="0"
     sodipodi:nodetypes="sssss"
     id="path646"
     d="m 250.9593,210.88017 c -5.98496,1.09231 -9.43144,4.28256 -8.37064,9.03776 0.8586,4.041 4.1466,7.6066 9.3334,7.4025 6.1538,-0.4803 9.5274,-4.7615 8.7775,-9.945 -0.8693,-4.5612 -4.59141,-7.43498 -9.74026,-6.49526 z"
     style="fill:none;fill-opacity:1;stroke:#000000;stroke-width:1.05833328;stroke-linecap:round;stroke-linejoin:round;stroke-miterlimit:4;stroke-dasharray:none;stroke-dashoffset:0;stroke-opacity:1" />
  <path
     sodipodi:nodetypes="ccc"
     id="path647"
     d="m 225.77913,204.53866 c 3.4979,-11.7395 11.50536,-16.24273 18.50376,-17.24203 15.2507,-9e-4 20.24677,7.7519 21.49627,10.5"
     style="fill:none;stroke:#000000;stroke-width:1.05833328;stroke-linecap:round;stroke-linejoin:round;stroke-miterlimit:4;stroke-dasharray:none;stroke-dashoffset:0;stroke-opacity:1"
     inkscape:connector-curvature="0" />
  <path
     sodipodi:nodetypes="ccc"
     id="path648"
     d="m 325.28036,194.54963 c 6.4939,-3.9962 3.7507,-3.753 12.4969,-5.253 10.7445,-1.9995 16.4967,4.9991 16.4967,4.9991"
     style="fill:none;stroke:#000000;stroke-width:1.05833328;stroke-linecap:round;stroke-linejoin:round;stroke-miterlimit:4;stroke-dasharray:none;stroke-dashoffset:0;stroke-opacity:1"
     inkscape:connector-curvature="0" />
  <path
     sodipodi:nodetypes="ccc"
     id="path652"
     d="m 337.41776,225.35603 c 3.2054,0.3748 7.1599,1.4988 11.6141,1.1241 4.704,-0.2082 6.4108,-1.6651 9.8658,-3.6216"
     style="fill:none;fill-opacity:1;fill-rule:evenodd;stroke:#000000;stroke-width:1.05833328;stroke-linecap:round;stroke-linejoin:round;stroke-miterlimit:4;stroke-dasharray:none;stroke-dashoffset:0;stroke-opacity:1"
     inkscape:connector-curvature="0" />
  <path
     sodipodi:nodetypes="cscccc"
     id="path656"
     d="m 377.44616,410.03813 c -7.3823,4.9149 -21.0139,6.4406 -31.0278,6.99 -9.6744,0.5307 -41.5833,2.7839 -56.9484,-1.4548 16.0716,4.2387 4.3563,-0.3459 19.9907,2.9537 5.0377,6.4787 37.3269,9.1521 53.1314,8.1554 3.901,-4.0436 10.7639,-11.6998 14.8541,-16.6443 z"
     style="fill:none;fill-opacity:1;fill-rule:evenodd;stroke:#000000;stroke-width:1.05833328;stroke-linecap:round;stroke-linejoin:round;stroke-miterlimit:4;stroke-dasharray:none;stroke-dashoffset:0;stroke-opacity:1"
     inkscape:connector-curvature="0" />
  <ellipse
     id="path657"
     style="fill:none;fill-opacity:1;fill-rule:evenodd;stroke:#000000;stroke-width:1.05833328;stroke-linecap:round;stroke-linejoin:round;stroke-miterlimit:4;stroke-dasharray:none;stroke-dashoffset:0;stroke-opacity:1"
     cx="248.75056"
     cy="217.78003"
     rx="2.9972074"
     ry="3.1637325" />
  <ellipse
     id="path658"
     style="fill:none;fill-opacity:1;fill-rule:evenodd;stroke:#000000;stroke-width:1.05833328;stroke-linecap:round;stroke-linejoin:round;stroke-miterlimit:4;stroke-dasharray:none;stroke-dashoffset:0;stroke-opacity:1"
     cx="341.03952"
     cy="215.63612"
     rx="2.6225486"
     ry="2.7682648" />
  <path
     sodipodi:nodetypes="cc"
     id="path736"
     d="m 260.26016,461.92243 c 1.4129,-3.5322 1.2363,-8.4775 0.7065,-13.0693"
     style="fill:none;fill-opacity:1;fill-rule:evenodd;stroke:#000000;stroke-width:1.05833328;stroke-linecap:round;stroke-linejoin:round;stroke-miterlimit:4;stroke-dasharray:none;stroke-dashoffset:0;stroke-opacity:1"
     inkscape:connector-curvature="0" />
  <path
     sodipodi:nodetypes="cc"
     id="path737"
     d="m 308.18266,455.32723 c 0,-3.5323 -0.5152,-5.8783 -0.9291,-8.8149"
     style="fill:none;fill-opacity:1;fill-rule:evenodd;stroke:#000000;stroke-width:1.05833328;stroke-linecap:round;stroke-linejoin:round;stroke-miterlimit:4;stroke-dasharray:none;stroke-dashoffset:0;stroke-opacity:1"
     inkscape:connector-curvature="0" />
  <metadata
     id="metadata1601">
    <rdf:RDF>
      <cc:Work
         rdf:about="">
        <dc:format>image/svg+xml</dc:format>
        <dc:type
           rdf:resource="http://purl.org/dc/dcmitype/StillImage" />
        <dc:title></dc:title>
      </cc:Work>
    </rdf:RDF>
  </metadata>
</svg>
