<?xml version="1.0" encoding="UTF-8" standalone="no"?>
<!-- Created with Sodipodi ("http://www.sodipodi.com/") -->

<svg
   xmlns:dc="http://purl.org/dc/elements/1.1/"
   xmlns:cc="http://creativecommons.org/ns#"
   xmlns:rdf="http://www.w3.org/1999/02/22-rdf-syntax-ns#"
   xmlns:svg="http://www.w3.org/2000/svg"
   xmlns="http://www.w3.org/2000/svg"
   xmlns:xlink="http://www.w3.org/1999/xlink"
   xmlns:sodipodi="http://sodipodi.sourceforge.net/DTD/sodipodi-0.dtd"
   xmlns:inkscape="http://www.inkscape.org/namespaces/inkscape"
   width="694.91718"
   height="695.823"
   viewBox="0 0 520.70135 521.38009"
   id="svg602"
   sodipodi:version="0.32"
   sodipodi:docname="gnu_bezier.svg"
   inkscape:version="0.92.0 unknown"
   version="1.1">
  <defs
     id="defs605">
    <linearGradient
       id="linearGradient659">
      <stop
         style="stop-color:#a0a0a0;stop-opacity:1.0000000;"
         offset="0.0000000"
         id="stop660" />
      <stop
         style="stop-color:#000000;stop-opacity:1.0000000;"
         offset="1.0000000"
         id="stop661" />
    </linearGradient>
    <linearGradient
       xlink:href="#linearGradient659"
       id="linearGradient662"
       x1="0.46587536"
       y1="0.96732026"
       x2="0.45994064"
       y2="0.052287582" />
  </defs>
  <sodipodi:namedview
     id="base"
     inkscape:zoom="1"
     inkscape:cx="304.67241"
     inkscape:cy="435.97893"
     inkscape:window-width="1148"
     inkscape:window-height="881"
     inkscape:window-x="2771"
     inkscape:window-y="89"
     showgrid="false"
     inkscape:window-maximized="0"
     inkscape:current-layer="svg602"
     inkscape:snap-others="false"
     inkscape:snap-nodes="false"
     units="px"
     fit-margin-top="31.7"
     fit-margin-bottom="35.9"
     fit-margin-left="2.5"
     fit-margin-right="2.5" />
  <path
     style="fill:none;stroke:#000000;stroke-width:1.49859977;stroke-linecap:round;stroke-linejoin:round;stroke-miterlimit:4;stroke-dasharray:none;stroke-dashoffset:0;stroke-opacity:1"
     d="m 287.85131,459.65201 c -0.7759,11.7651 -7.7872,24.3619 -15.918,30.7595 -1.4789,-8.5566 -6.0921,-14.7086 -9.6244,-16.8279 -2.6111,5.7638 -4.2514,9.8232 -10.6094,17.1811 0,1 -46.2973,-28.2528 -54.7945,-57.5698 -9.7651,-35.7962 -19.2767,-37.5647 -34.7659,-80.5284"
     id="path629"
     sodipodi:nodetypes="ccccsc"
     inkscape:connector-curvature="0" />
  <path
     style="fill:none;fill-opacity:1;fill-rule:nonzero;stroke:#000000;stroke-width:1.49859977;stroke-linecap:round;stroke-linejoin:round;stroke-miterlimit:4;stroke-dasharray:none;stroke-dashoffset:0;stroke-opacity:1"
     d="m 131.25831,193.14141 c 31.3075,-24.9241 49.2824,-36.1574 68.2983,-38.7866 14.6098,-2.0745 22.5885,7.342 34.5824,6.8439 11,3 31.0066,-11.0009 41.4968,-10.0019 9.9906,-0.999 29.5051,8.5005 39.0037,9.0019 24.9841,-10.9879 58.9981,-3.9981 75,19 18,21 34,53 34,53 0,0 70,10 91,-69 8,-48 1,-74.000002 -10,-97.999992 -11,-21.00004 -38,-41.00003 -66,-38.00002 -28,3 -47,19 -60,19.99999 -13,1.00004 -24,-1.99996 -24,-1.99996 0,0 1,13.99997 14,17.99999 13,3.99999 57,2 68,10.99999 11,9 27,42.000002 23,69.000002 -4,27 -22.0444,31.4053 -27,32 -20.0444,2.4053 -40.8568,-23.6278 -55,-44 -15.3629,-22.1292 -28.5517,-36.092202 -54,-37.000002 -20.0233,-0.6964 -42.0024,19.596702 -49.4702,19.587102 -14.4914,1.4789 -38.2531,-24.056402 -58.5298,-22.587102 -48.7233,3.5307 -86.5014,89.256302 -126.176601,89.940302 -18.3248,0.316 -25.8234,-22.9403 -26.8234,-36.9403 -1,-14 15,-78.999992 57.000001,-80.000012 42,-0.99998 62,3.00001 76,-0.99998 14,-4.00002 19.5275,-13.58475 22,-17.99999 -4.2387,1.76611 -11.0644,4.99752 -25.7661,1.58708 -15.9952,-3.99761 -40.358,-28.93793 -89.2339,-20.58709 C 45.639509,37.198688 1.6395087,104.19871 2.6395087,135.19871 c 1,31 10.0000003,86 48.0000003,106 38,20 50.000001,14 50.000001,14 0,0 7.6681,-43.4198 30.6188,-62.0573 z"
     id="path630"
     sodipodi:nodetypes="cscccccccccccccssscsssccccccccs"
     inkscape:connector-curvature="0" />
  <path
     style="fill:none;stroke:#000000;stroke-width:1.49859977;stroke-linecap:round;stroke-linejoin:round;stroke-miterlimit:4;stroke-dasharray:none;stroke-dashoffset:0;stroke-opacity:1"
     d="m 100.52501,255.72131 c 0,0 -9.651901,31.5256 -16.885501,44.4774 -6.5568,11.5633 -13.1694,23.4057 -23,31 8.537,-1.2363 80.761301,-22.4677 105.000001,-45 20,-19 25,-87 35,-96 10,-9 27,-11 27,-11"
     id="path631"
     sodipodi:nodetypes="cscccc"
     inkscape:connector-curvature="0" />
  <path
     style="fill:none;stroke:#000000;stroke-width:1.49859977;stroke-linecap:round;stroke-linejoin:round;stroke-miterlimit:4;stroke-dasharray:none;stroke-dashoffset:0;stroke-opacity:1"
     d="m 423.43581,231.74491 c 2.3009,5.6263 10.8182,40.0926 32.2037,33.4538 -7.6066,15.3229 -13.3254,17.409 -37,16.75 -23.4211,-0.661 -44.07,-17.51 -51,-30.25 -1.4757,6.0267 2,19.5 1,23.5 -0.3495,3.6747 -0.699,4.8691 -0.699,11.0486"
     id="path632"
     sodipodi:nodetypes="ccsccc"
     inkscape:connector-curvature="0" />
  <path
     style="fill:none;stroke:#000000;stroke-width:1.49859977;stroke-linecap:round;stroke-linejoin:round;stroke-miterlimit:4;stroke-dasharray:none;stroke-dashoffset:0;stroke-opacity:1"
     d=""
     id="path633"
     sodipodi:nodetypes="c"
     inkscape:connector-curvature="0" />
  <path
     style="fill:none;stroke:#000000;stroke-width:1.49859977;stroke-linecap:round;stroke-linejoin:round;stroke-miterlimit:4;stroke-dasharray:none;stroke-dashoffset:0;stroke-opacity:1"
     d="m 339.09771,311.84551 c -3.8855,-18.0145 -25.1598,-32.1145 -44.4582,-30.6468 -31,5 -22,34 -19,38"
     id="path634"
     sodipodi:nodetypes="ccc"
     inkscape:connector-curvature="0" />
  <path
     style="font-size:12px;fill:none;stroke:#000000;stroke-width:1.49859977;stroke-linecap:round;stroke-linejoin:round;stroke-miterlimit:4;stroke-dasharray:none;stroke-dashoffset:0"
     d="m 293.06711,301.24281 c 5.3027,-3.6995 15.7555,-2.0502 21.9129,6.1743 4.8014,6.2558 9.9732,17.732 7.1832,20.0068 -2.4372,2.2711 -6.8261,-3.7555 -12.5196,-6.2101 -7.5759,-3.4639 -11.006,-0.9817 -16.5765,-7.2591 -3.6912,-3.9323 -3.3737,-10.3581 0,-12.7119 z"
     id="path635"
     sodipodi:nodetypes="csssss"
     inkscape:connector-curvature="0" />
  <path
     style="fill:none;stroke:#000000;stroke-width:1.49859977;stroke-linecap:round;stroke-linejoin:round;stroke-miterlimit:4;stroke-dasharray:none;stroke-dashoffset:0;stroke-opacity:1"
     d="m 340.63951,179.19871 c -6.25,3.25 -13,14.75 -14,34.75 4.5,15.5 27,40.25 35.5,61.75 1,11 14.5,18.0023 18.5,18.0023 4,0 10.2588,-7.0603 17.9953,-1.6513 10.829,7.9242 5.0411,28.8374 2.508,35.149 -3.4189,9.0178 -8.1945,11.4733 -8.6868,23.0894 -0.3528,8.6776 2.7,10.4449 1.1835,19.9106 -2.0745,13.4478 -15,19 -21,19 -6,0 -30.2227,-4.3051 -42.4958,-4.5042 -19.7805,-0.3047 -71.3263,18.4558 -92.9916,-28.5154"
     id="path636"
     sodipodi:nodetypes="cccssssscsc"
     inkscape:connector-curvature="0" />
  <path
     style="fill:none;stroke:#000000;stroke-width:1.49859977;stroke-linecap:round;stroke-linejoin:round;stroke-miterlimit:4;stroke-dasharray:none;stroke-dashoffset:0;stroke-opacity:1"
     d="m 387.21691,383.27561 c 3.0907,5.21 1.8036,21.4474 -3.8821,32.8569 -7.6677,11.3959 -23.7761,30.8153 -30.581,37.1951 -6.6793,6.7581 -15.2246,27.1922 -33.394,37.7817 -1.6948,-13.3859 -7.1236,-10.4287 -9.0416,-24.5014 -2.2217,15.0797 -11.05,21.4319 -17.8834,27.1231 0.7395,-15.4858 -6.394,-14.0496 -6.9519,-23.2267"
     id="path637"
     sodipodi:nodetypes="ccscccc"
     inkscape:connector-curvature="0" />
  <path
     style="fill:none;stroke:#000000;stroke-width:1.49859977;stroke-linecap:round;stroke-linejoin:round;stroke-miterlimit:4;stroke-dasharray:none;stroke-dashoffset:0;stroke-opacity:1"
     d="m 271.63951,179.19871 c 4.246,3.4967 16.4958,23.9869 18.2479,36.4837"
     id="path638"
     sodipodi:nodetypes="cc"
     inkscape:connector-curvature="0" />
  <path
     style="fill:none;stroke:#000000;stroke-width:1.49859977;stroke-linecap:round;stroke-linejoin:round;stroke-miterlimit:4;stroke-dasharray:none;stroke-dashoffset:0;stroke-opacity:1"
     d="m 346.63951,168.19871 c 0,0 12,11 13,15 1,4 3,26 -2,27"
     id="path639"
     inkscape:connector-curvature="0" />
  <path
     style="fill:none;stroke:#000000;stroke-width:1.49859977;stroke-linecap:round;stroke-linejoin:round;stroke-miterlimit:4;stroke-dasharray:none;stroke-dashoffset:0;stroke-opacity:1"
     d="m 360.13951,244.19871 c 2.9271,4.228 8.0509,22.9247 8.0509,22.9247"
     id="path640"
     sodipodi:nodetypes="cc"
     inkscape:connector-curvature="0" />
  <path
     style="fill:none;stroke:#000000;stroke-width:1.49859977;stroke-linecap:round;stroke-linejoin:round;stroke-miterlimit:4;stroke-dasharray:none;stroke-dashoffset:0;stroke-opacity:1"
     d="m 360.13951,217.19871 c 0,0 0,-7.5 0,-7.5"
     id="path641"
     inkscape:connector-curvature="0" />
  <path
     style="fill:none;fill-opacity:1;stroke:#000000;stroke-width:1.49859977;stroke-linecap:round;stroke-linejoin:round;stroke-miterlimit:4;stroke-dasharray:none;stroke-dashoffset:0;stroke-opacity:1"
     d="m 331.13951,218.94871 c 0,0 13.5,-5.5 17.25,-5 3.75,0.5 16.75,8.25 16.75,8.25 0,0 -1.5,7.25 -2.75,6.5 -1.25,-0.75 -5.5,-7.25 -10.75,-8 -5.25,-0.75 -20.5,-1.75 -20.5,-1.75 z"
     id="path642"
     inkscape:connector-curvature="0" />
  <path
     style="font-size:12px;fill:none;stroke:#000000;stroke-width:1.49859977;stroke-linecap:round;stroke-linejoin:round;stroke-miterlimit:4;stroke-dasharray:none;stroke-dashoffset:0"
     d="m 347.03531,220.32881 c -4.8877,-0.1806 -10.2124,2.8113 -9.9092,8.9012 0.2473,4.7949 3.2402,6.3922 7.9677,6.7689 5.4414,0.4168 8.7263,-2.959 8.5618,-7.5539 -0.1276,-3.7765 -2.3804,-7.9662 -6.6203,-8.1162 z"
     id="path643"
     sodipodi:nodetypes="cssss"
     inkscape:connector-curvature="0" />
  <path
     style="fill:none;fill-opacity:1;stroke:#000000;stroke-width:1.49859977;stroke-linecap:round;stroke-linejoin:round;stroke-miterlimit:4;stroke-dasharray:none;stroke-dashoffset:0;stroke-opacity:1"
     d="m 271.88951,223.69871 c 0,0 -0.2538,-4.2551 -5.25,-9.75 -3.9972,-0.4995 -20.7505,1.7493 -26.7505,4.2493 -6,2.5 -9.0056,8.2495 -15.2495,15.0007 8.5,-5.25 16.1727,-9.1038 23.7467,-10.4993 9.748,-1.75 23.5033,0.9993 23.5033,0.9993 z"
     id="path644"
     sodipodi:nodetypes="ccccsc"
     inkscape:connector-curvature="0" />
  <path
     style="fill:none;stroke:#000000;stroke-width:1.49859977;stroke-linecap:round;stroke-linejoin:round;stroke-miterlimit:4;stroke-dasharray:none;stroke-dashoffset:0;stroke-opacity:1"
     d="m 230.38671,233.69851 c 5.4949,4.7455 10.7707,8.5023 25.261,7.0026 14.2404,-4.2472 14.4918,-10.0024 14.4918,-10.0024"
     id="path645"
     sodipodi:nodetypes="ccc"
     inkscape:connector-curvature="0" />
  <path
     style="fill:none;fill-opacity:1;stroke:#000000;stroke-width:1.49859977;stroke-linecap:round;stroke-linejoin:round;stroke-miterlimit:4;stroke-dasharray:none;stroke-dashoffset:0;stroke-opacity:1"
     d="m 252.83216,222.33436 c -5.8908,0.9187 -9.19395,4.23045 -8.13315,8.98565 0.8586,4.041 4.1466,7.6066 9.3334,7.4025 6.1538,-0.4803 9.5274,-4.7615 8.7775,-9.945 -0.8693,-4.5612 -5.62275,-7.09605 -9.97775,-6.44315 z"
     id="path646"
     sodipodi:nodetypes="sssss"
     inkscape:connector-curvature="0" />
  <path
     style="fill:none;stroke:#000000;stroke-width:1.49859977;stroke-linecap:round;stroke-linejoin:round;stroke-miterlimit:4;stroke-dasharray:none;stroke-dashoffset:0;stroke-opacity:1"
     d="m 227.88948,215.94074 c 3.4979,-11.7395 11.50536,-16.24273 18.50376,-17.24203 15.2507,-9e-4 20.24677,7.7519 21.49627,10.5"
     id="path647"
     sodipodi:nodetypes="ccc"
     inkscape:connector-curvature="0" />
  <path
     style="fill:none;stroke:#000000;stroke-width:1.49859977;stroke-linecap:round;stroke-linejoin:round;stroke-miterlimit:4;stroke-dasharray:none;stroke-dashoffset:0;stroke-opacity:1"
     d="m 327.39071,205.95171 c 6.4939,-3.9962 3.7507,-3.753 12.4969,-5.253 10.7445,-1.9995 16.4967,4.9991 16.4967,4.9991"
     id="path648"
     sodipodi:nodetypes="ccc"
     inkscape:connector-curvature="0" />
  <path
     style="fill:none;fill-opacity:1;fill-rule:evenodd;stroke:#000000;stroke-width:1.49859977;stroke-linecap:round;stroke-linejoin:round;stroke-miterlimit:4;stroke-dasharray:none;stroke-dashoffset:0;stroke-opacity:1"
     d="m 339.52811,236.75811 c 3.2054,0.3748 7.1599,1.4988 11.6141,1.1241 4.704,-0.2082 6.4108,-1.6651 9.8658,-3.6216"
     id="path652"
     sodipodi:nodetypes="ccc"
     inkscape:connector-curvature="0" />
  <ellipse
     style="fill:none;fill-opacity:1;fill-rule:evenodd;stroke:none;stroke-width:1.49859977;stroke-linecap:round;stroke-linejoin:round;stroke-miterlimit:4;stroke-dasharray:none;stroke-dashoffset:0;stroke-opacity:1"
     id="path657"
     cx="250.8609"
     cy="229.18211"
     rx="2.9972074"
     ry="3.1637325" />
  <ellipse
     style="fill:none;fill-opacity:1;fill-rule:evenodd;stroke:none;stroke-width:1.49859977;stroke-linecap:round;stroke-linejoin:round;stroke-miterlimit:4;stroke-dasharray:none;stroke-dashoffset:0;stroke-opacity:1"
     id="path658"
     cx="343.14987"
     cy="227.03821"
     rx="2.6225486"
     ry="2.7682648" />
  <path
     style="fill:none;fill-opacity:1;fill-rule:evenodd;stroke:#000000;stroke-width:1.49859977;stroke-linecap:round;stroke-linejoin:round;stroke-miterlimit:4;stroke-dasharray:none;stroke-dashoffset:0;stroke-opacity:1"
     d="m 262.37051,473.32451 c 1.4129,-3.5322 1.2363,-8.4775 0.7065,-13.0693"
     id="path736"
     sodipodi:nodetypes="cc"
     inkscape:connector-curvature="0" />
  <path
     style="fill:none;fill-opacity:1;fill-rule:evenodd;stroke:#000000;stroke-width:1.49859977;stroke-linecap:round;stroke-linejoin:round;stroke-miterlimit:4;stroke-dasharray:none;stroke-dashoffset:0;stroke-opacity:1"
     d="m 310.29301,466.72931 c 0,-3.5323 -0.5152,-5.8783 -0.9291,-8.8149"
     id="path737"
     sodipodi:nodetypes="cc"
     inkscape:connector-curvature="0" />
  <metadata
     id="metadata1601">
    <rdf:RDF>
      <cc:Work
         rdf:about="">
        <dc:format>image/svg+xml</dc:format>
        <dc:type
           rdf:resource="http://purl.org/dc/dcmitype/StillImage" />
        <dc:title></dc:title>
      </cc:Work>
    </rdf:RDF>
  </metadata>
  <path
     style="fill:none;stroke:#000000;stroke-width:1.49859977;stroke-linecap:butt;stroke-linejoin:miter;stroke-miterlimit:4;stroke-dasharray:none;stroke-opacity:1"
     d="m 379.55651,421.44021 c -24.61436,10.41059 -55.15813,10.04044 -87.9762,5.5352"
     id="path4530"
     inkscape:connector-curvature="0"
     sodipodi:nodetypes="cc" />
  <circle
     style="opacity:1;fill:#ffffff;fill-opacity:1;fill-rule:nonzero;stroke:#000000;stroke-width:1.04901981;stroke-linecap:round;stroke-miterlimit:4;stroke-dasharray:none;stroke-dashoffset:0;stroke-opacity:1"
     id="path5367"
     cx="249.81075"
     cy="228.90561"
     r="2.3842578" />
  <circle
     style="opacity:1;fill:#ffffff;fill-opacity:1;fill-rule:nonzero;stroke:#000000;stroke-width:1.04901981;stroke-linecap:round;stroke-miterlimit:4;stroke-dasharray:none;stroke-dashoffset:0;stroke-opacity:1"
     id="path5367-3"
     cx="342.06827"
     cy="227.24988"
     r="2.3842578" />
</svg>
