<svg version="1.1" xmlns="http://www.w3.org/2000/svg" xmlns:xlink="http://www.w3.org/1999/xlink" width="628" height="905"><defs></defs><g><g transform="translate(-54,-6) scale(1,1)"><rect fill="#ffffff" stroke="none" x="112" y="88" width="520" height="128"></rect></g><g transform="translate(-54,-6) scale(1,1)"><path fill="none" stroke="#989898" d="M 112 88 L 632 88 L 632 216 L 112 216 L 112 88 Z Z" stroke-miterlimit="10"></path></g><g transform="translate(-54,-6) scale(1,1)"><rect fill="#ffffff" stroke="none" x="64" y="208" width="608" height="24"></rect></g><g transform="translate(-54,-6) scale(1,1)"><path fill="none" stroke="#ffffff" d="M 64 208 L 672 208 L 672 232 L 64 232 L 64 208 Z Z" stroke-miterlimit="10"></path></g><g transform="translate(-54,-6) scale(1,1)"><rect fill="#ffffff" stroke="none" x="208" y="584" width="312" height="296"></rect></g><g transform="translate(-54,-6) scale(1,1)"><path fill="none" stroke="#989898" d="M 208 584 L 520 584 L 520 880 L 208 880 L 208 584 Z Z" stroke-miterlimit="10"></path></g><g transform="translate(-54,-6) scale(1,1)"><path fill="#ffffff" stroke="none" d="M 308 497.5 L 364.5 472 L 421 497.5 L 364.5 523 L 308 497.5"></path></g><g transform="translate(-54,-6) scale(1,1)"><path fill="none" stroke="#000000" d="M 308 497.5 L 364.5 472 L 421 497.5 L 364.5 523 L 308 497.5 L 308 497.5" stroke-miterlimit="10"></path></g><g transform="translate(-54,-6) scale(1,1)"><g><path fill="none" stroke="none"></path><text fill="#000000" stroke="none" font-family="Arial" font-size="13px" font-style="normal" font-weight="normal" text-decoration="none" x="346" y="497.5">Specs</text><text fill="#000000" stroke="none" font-family="Arial" font-size="13px" font-style="normal" font-weight="normal" text-decoration="none" x="338" y="510.5">reached?</text></g></g><g transform="translate(-54,-6) scale(1,1)"><path fill="#ffffff" stroke="#000000" d="M 152 120 L 264 120 L 264 176 C 227 158 189 189.5 152 167 L 152 120 Z" stroke-miterlimit="10"></path></g><g transform="translate(-54,-6) scale(1,1)"><g><path fill="none" stroke="none"></path><text fill="#000000" stroke="none" font-family="Arial" font-size="13px" font-style="normal" font-weight="normal" text-decoration="none" x="164.5" y="143.5">Develop analog</text><text fill="#000000" stroke="none" font-family="Arial" font-size="13px" font-style="normal" font-weight="normal" text-decoration="none" x="165.5" y="156.5">circuit diagram</text></g></g><g transform="translate(-54,-6) scale(1,1)"><path fill="#ffffff" stroke="#000000" d="M 424 336 C 415.1634432 336 408 343.1634432 408 352 C 408 360.8365568 415.1634432 368 424 368 L 312 368 C 303.1634432 368 296 360.8365568 296 352 C 296 343.1634432 303.1634432 336 312 336 L 424 336 Z" stroke-miterlimit="10"></path></g><g transform="translate(-54,-6) scale(1,1)"><g><path fill="none" stroke="none"></path><text fill="#000000" stroke="none" font-family="Arial" font-size="13px" font-style="normal" font-weight="normal" text-decoration="none" x="323.5" y="358.5">Spice output</text></g></g><g transform="translate(-54,-6) scale(1,1)"><path fill="#dbdbdb" stroke="none" d="M 216 72 L 506 72 L 516 82 L 516 95 L 216 95 L 216 72"></path></g><g transform="translate(-54,-6) scale(1,1)"><path fill="none" stroke="#707070" d="M 216 72 L 506 72 L 516 82 L 516 95 L 216 95 L 216 72 L 216 72" stroke-miterlimit="10"></path></g><g transform="translate(-54,-6) scale(1,1)"><path fill="none" stroke="#707070" d="M 506 72 L 506 82 L 516 82 L 506 72" stroke-miterlimit="10"></path></g><g transform="translate(-54,-6) scale(1,1)"><g><path fill="none" stroke="none"></path><text fill="#707070" stroke="none" font-family="Arial" font-size="13px" font-style="normal" font-weight="normal" text-decoration="none" x="221" y="90">Circuit simulator LTspiceIV (Linear Technologies)</text></g></g><g transform="translate(-54,-6) scale(1,1)"><path fill="#ffffff" stroke="none" d="M 168 16 L 557 16 L 567 26 L 567 39 L 168 39 L 168 16"></path></g><g transform="translate(-54,-6) scale(1,1)"><path fill="none" stroke="#717171" d="M 168 16 L 557 16 L 567 26 L 567 39 L 168 39 L 168 16 L 168 16" stroke-miterlimit="10"></path></g><g transform="translate(-54,-6) scale(1,1)"><path fill="none" stroke="#717171" d="M 557 16 L 557 26 L 567 26 L 557 16" stroke-miterlimit="10"></path></g><g transform="translate(-54,-6) scale(1,1)"><g><path fill="none" stroke="none"></path><text fill="#000000" stroke="none" font-family="Arial" font-size="13px" font-style="normal" font-weight="normal" text-decoration="none" x="173" y="34">Generate MATLAB/Simulink LTI object from analog spice circuit</text></g></g><g transform="translate(-54,-6) scale(1,1)"><rect fill="#ffffff" stroke="none" x="284" y="264" width="160" height="45"></rect></g><g transform="translate(-54,-6) scale(1,1)"><path fill="none" stroke="#000000" d="M 284 264 L 444 264 L 444 309 L 284 309 L 284 264 Z Z" stroke-miterlimit="10"></path></g><g transform="translate(-54,-6) scale(1,1)"><g><path fill="none" stroke="none"></path><text fill="#000000" stroke="none" font-family="Arial" font-size="13px" font-style="normal" font-weight="normal" text-decoration="none" x="311.5" y="286.5">Perform frequency</text><text fill="#000000" stroke="none" font-family="Arial" font-size="13px" font-style="normal" font-weight="normal" text-decoration="none" x="294" y="299.5">domain spice simulation</text></g></g><g transform="translate(-54,-6) scale(1,1)"><path fill="#ffffff" stroke="#000000" d="M 304 120 L 418 120 L 418 166 C 380 152 342 176.5 304 159 L 304 120 Z" stroke-miterlimit="10"></path></g><g transform="translate(-54,-6) scale(1,1)"><path fill="#ffffff" stroke="#000000" d="M 309 125 L 423 125 L 423 171 C 385 157 347 181.5 309 164 L 309 125 Z" stroke-miterlimit="10"></path></g><g transform="translate(-54,-6) scale(1,1)"><path fill="#ffffff" stroke="#000000" d="M 314 130 L 428 130 L 428 176 C 390 162 352 186.5 314 169 L 314 130 Z" stroke-miterlimit="10"></path></g><g transform="translate(-54,-6) scale(1,1)"><g><path fill="none" stroke="none"></path><text fill="#000000" stroke="none" font-family="Arial" font-size="13px" font-style="normal" font-weight="normal" text-decoration="none" x="340.5" y="148.5">Simulation</text><text fill="#000000" stroke="none" font-family="Arial" font-size="13px" font-style="normal" font-weight="normal" text-decoration="none" x="338.5" y="161.5">parameters</text></g></g><g transform="translate(-54,-6) scale(1,1)"><path fill="#ffffff" stroke="none" d="M 350 222.5 C 350 214.4918704 356.4918704 208 364.5 208 C 372.5081296 208 379 214.4918704 379 222.5 C 379 230.5081296 372.5081296 237 364.5 237 C 356.4918704 237 350 230.5081296 350 222.5 Z"></path></g><g transform="translate(-54,-6) scale(1,1)"><path fill="none" stroke="#000000" d="M 350 222.5 C 350 214.4918704 356.4918704 208 364.5 208 C 372.5081296 208 379 214.4918704 379 222.5 C 379 230.5081296 372.5081296 237 364.5 237 C 356.4918704 237 350 230.5081296 350 222.5 Z" stroke-miterlimit="10"></path></g><g transform="translate(-54,-6) scale(1,1)"><path fill="none" stroke="#000000" d="M 353 211 L 375 233" stroke-miterlimit="10"></path></g><g transform="translate(-54,-6) scale(1,1)"><path fill="none" stroke="#000000" d="M 375 211 L 353 233" stroke-miterlimit="10"></path></g><g transform="translate(-54,-6) scale(1,1)"><path fill="none" stroke="#000000" d="M 208 176 L 208 224 L 350 224" stroke-miterlimit="10"></path></g><g transform="translate(-54,-6) scale(1,1)"><path fill="#000000" stroke="none" d="M 339.83732514237585 228.209517756016 L 350 224 L 339.83732514237585 219.790482243984"></path></g><g transform="translate(-54,-6) scale(1,1)"><path fill="none" stroke="#000000" d="M 339.83732514237585 228.209517756016 L 350 224 L 339.83732514237585 219.790482243984 L 339.83732514237585 228.209517756016" stroke-miterlimit="10"></path></g><g transform="translate(-54,-6) scale(1,1)"><path fill="#ffffff" stroke="none" d="M 280 392 L 448 392 L 420 437 L 308 437 L 280 392"></path></g><g transform="translate(-54,-6) scale(1,1)"><path fill="none" stroke="#000000" d="M 280 392 L 448 392 L 420 437 L 308 437 L 280 392 L 280 392" stroke-miterlimit="10"></path></g><g transform="translate(-54,-6) scale(1,1)"><g><path fill="none" stroke="none"></path><text fill="#000000" stroke="none" font-family="Arial" font-size="13px" font-style="normal" font-weight="normal" text-decoration="none" x="319.5" y="414.5">Inspect system</text><text fill="#000000" stroke="none" font-family="Arial" font-size="13px" font-style="normal" font-weight="normal" text-decoration="none" x="334" y="427.5">waveforms</text></g></g><g transform="translate(-54,-6) scale(1,1)"><path fill="#ffffff" stroke="#000000" d="M 464 120 L 582 120 L 582 190 C 543 168 503 206.5 464 179 L 464 120 Z" stroke-miterlimit="10"></path></g><g transform="translate(-54,-6) scale(1,1)"><path fill="#ffffff" stroke="#000000" d="M 469 125 L 587 125 L 587 195 C 548 173 508 211.5 469 184 L 469 125 Z" stroke-miterlimit="10"></path></g><g transform="translate(-54,-6) scale(1,1)"><path fill="#ffffff" stroke="#000000" d="M 474 130 L 592 130 L 592 200 C 553 178 513 216.5 474 189 L 474 130 Z" stroke-miterlimit="10"></path></g><g transform="translate(-54,-6) scale(1,1)"><g><path fill="none" stroke="none"></path><text fill="#000000" stroke="none" font-family="Arial" font-size="13px" font-style="normal" font-weight="normal" text-decoration="none" x="496" y="145.5">Circuit target</text><text fill="#000000" stroke="none" font-family="Arial" font-size="13px" font-style="normal" font-weight="normal" text-decoration="none" x="493.5" y="158.5">specifications</text><text fill="#000000" stroke="none" font-family="Arial" font-size="13px" font-style="normal" font-weight="normal" text-decoration="none" x="503" y="171.5">(frequency</text><text fill="#000000" stroke="none" font-family="Arial" font-size="13px" font-style="normal" font-weight="normal" text-decoration="none" x="510" y="184.5">domain)</text></g></g><g transform="translate(-54,-6) scale(1,1)"><path fill="#ffffff" stroke="none" d="M 170 440 L 267 440 L 251 498 L 186 498 L 170 440"></path></g><g transform="translate(-54,-6) scale(1,1)"><path fill="none" stroke="#000000" d="M 170 440 L 267 440 L 251 498 L 186 498 L 170 440 L 170 440" stroke-miterlimit="10"></path></g><g transform="translate(-54,-6) scale(1,1)"><g><path fill="none" stroke="none"></path><text fill="#000000" stroke="none" font-family="Arial" font-size="13px" font-style="normal" font-weight="normal" text-decoration="none" x="199.5" y="462.5">Modify</text><text fill="#000000" stroke="none" font-family="Arial" font-size="13px" font-style="normal" font-weight="normal" text-decoration="none" x="201" y="475.5">circuit</text><text fill="#000000" stroke="none" font-family="Arial" font-size="13px" font-style="normal" font-weight="normal" text-decoration="none" x="195.5" y="488.5">diagram</text></g></g><g transform="translate(-54,-6) scale(1,1)"><path fill="#ffffff" stroke="none" d="M 170 504 L 267 504 L 251 562 L 186 562 L 170 504"></path></g><g transform="translate(-54,-6) scale(1,1)"><path fill="none" stroke="#000000" d="M 170 504 L 267 504 L 251 562 L 186 562 L 170 504 L 170 504" stroke-miterlimit="10"></path></g><g transform="translate(-54,-6) scale(1,1)"><g><path fill="none" stroke="none"></path><text fill="#000000" stroke="none" font-family="Arial" font-size="13px" font-style="normal" font-weight="normal" text-decoration="none" x="199.5" y="526.5">Modify</text><text fill="#000000" stroke="none" font-family="Arial" font-size="13px" font-style="normal" font-weight="normal" text-decoration="none" x="186.5" y="539.5">component</text><text fill="#000000" stroke="none" font-family="Arial" font-size="13px" font-style="normal" font-weight="normal" text-decoration="none" x="186" y="552.5">parameters</text></g></g><g transform="translate(-54,-6) scale(1,1)"><path fill="none" stroke="#000000" d="M 308 498 L 267 498" stroke-miterlimit="10"></path></g><g transform="translate(-54,-6) scale(1,1)"><path fill="#000000" stroke="none" d="M 277.16267485762415 493.790482243984 L 267 498 L 277.16267485762415 502.209517756016"></path></g><g transform="translate(-54,-6) scale(1,1)"><path fill="none" stroke="#000000" d="M 277.16267485762415 493.790482243984 L 267 498 L 277.16267485762415 502.209517756016 L 277.16267485762415 493.790482243984" stroke-miterlimit="10"></path></g><g transform="translate(-54,-6) scale(1,1)"><g><path fill="none" stroke="none"></path><text fill="#000000" stroke="none" font-family="Arial" font-size="13px" font-style="normal" font-weight="normal" text-decoration="none" x="277.5" y="519.5">No</text></g></g><g transform="translate(-54,-6) scale(1,1)"><path fill="#ffffff" stroke="none" d="M 120 497.5 C 120 489.4918704 126.4918704 483 134.5 483 C 142.5081296 483 149 489.4918704 149 497.5 C 149 505.5081296 142.5081296 512 134.5 512 C 126.4918704 512 120 505.5081296 120 497.5 Z"></path></g><g transform="translate(-54,-6) scale(1,1)"><path fill="none" stroke="#000000" d="M 120 497.5 C 120 489.4918704 126.4918704 483 134.5 483 C 142.5081296 483 149 489.4918704 149 497.5 C 149 505.5081296 142.5081296 512 134.5 512 C 126.4918704 512 120 505.5081296 120 497.5 Z" stroke-miterlimit="10"></path></g><g transform="translate(-54,-6) scale(1,1)"><path fill="none" stroke="#000000" d="M 134 483 L 134 512" stroke-miterlimit="10"></path></g><g transform="translate(-54,-6) scale(1,1)"><path fill="none" stroke="#000000" d="M 120 497 L 149 497" stroke-miterlimit="10"></path></g><g transform="translate(-54,-6) scale(1,1)"><path fill="none" stroke="#000000" d="M 170 456 L 144 456 M 144 456 A 8 8 0 0 0 136 464 L 136 483" stroke-miterlimit="10"></path></g><g transform="translate(-54,-6) scale(1,1)"><path fill="#000000" stroke="none" d="M 131.790482243984 472.83732514237585 L 136 483 L 140.209517756016 472.83732514237585"></path></g><g transform="translate(-54,-6) scale(1,1)"><path fill="none" stroke="#000000" d="M 131.790482243984 472.83732514237585 L 136 483 L 140.209517756016 472.83732514237585 L 131.790482243984 472.83732514237585" stroke-miterlimit="10"></path></g><g transform="translate(-54,-6) scale(1,1)"><path fill="none" stroke="#000000" d="M 170 536 L 144 536 M 144 536 A 8 8 0 0 1 136 528 L 136 512" stroke-miterlimit="10"></path></g><g transform="translate(-54,-6) scale(1,1)"><path fill="#000000" stroke="none" d="M 140.209517756016 522.1626748576241 L 136 512 L 131.790482243984 522.1626748576241"></path></g><g transform="translate(-54,-6) scale(1,1)"><path fill="none" stroke="#000000" d="M 140.209517756016 522.1626748576241 L 136 512 L 131.790482243984 522.1626748576241 L 140.209517756016 522.1626748576241" stroke-miterlimit="10"></path></g><g transform="translate(-54,-6) scale(1,1)"><path fill="none" stroke="#000000" d="M 120 496 L 104 496 M 104 496 A 8 8 0 0 1 96 488 L 96 296 M 96 296 A 8 8 0 0 1 104 288 L 284 288" stroke-miterlimit="10"></path></g><g transform="translate(-54,-6) scale(1,1)"><path fill="#000000" stroke="none" d="M 273.83732514237585 292.209517756016 L 284 288 L 273.83732514237585 283.790482243984"></path></g><g transform="translate(-54,-6) scale(1,1)"><path fill="none" stroke="#000000" d="M 273.83732514237585 292.209517756016 L 284 288 L 273.83732514237585 283.790482243984 L 273.83732514237585 292.209517756016" stroke-miterlimit="10"></path></g><g transform="translate(-54,-6) scale(1,1)"><path fill="none" stroke="#000000" d="M 364 237 L 364 264" stroke-miterlimit="10"></path></g><g transform="translate(-54,-6) scale(1,1)"><path fill="#000000" stroke="none" d="M 359.790482243984 253.83732514237585 L 364 264 L 368.209517756016 253.83732514237585"></path></g><g transform="translate(-54,-6) scale(1,1)"><path fill="none" stroke="#000000" d="M 359.790482243984 253.83732514237585 L 364 264 L 368.209517756016 253.83732514237585 L 359.790482243984 253.83732514237585" stroke-miterlimit="10"></path></g><g transform="translate(-54,-6) scale(1,1)"><path fill="none" stroke="#000000" d="M 364 309 L 364 336" stroke-miterlimit="10"></path></g><g transform="translate(-54,-6) scale(1,1)"><path fill="#000000" stroke="none" d="M 359.790482243984 325.83732514237585 L 364 336 L 368.209517756016 325.83732514237585"></path></g><g transform="translate(-54,-6) scale(1,1)"><path fill="none" stroke="#000000" d="M 359.790482243984 325.83732514237585 L 364 336 L 368.209517756016 325.83732514237585 L 359.790482243984 325.83732514237585" stroke-miterlimit="10"></path></g><g transform="translate(-54,-6) scale(1,1)"><path fill="none" stroke="#000000" d="M 364 368 L 364 392" stroke-miterlimit="10"></path></g><g transform="translate(-54,-6) scale(1,1)"><path fill="#000000" stroke="none" d="M 359.790482243984 381.83732514237585 L 364 392 L 368.209517756016 381.83732514237585"></path></g><g transform="translate(-54,-6) scale(1,1)"><path fill="none" stroke="#000000" d="M 359.790482243984 381.83732514237585 L 364 392 L 368.209517756016 381.83732514237585 L 359.790482243984 381.83732514237585" stroke-miterlimit="10"></path></g><g transform="translate(-54,-6) scale(1,1)"><path fill="none" stroke="#000000" d="M 364 437 L 364 472" stroke-miterlimit="10"></path></g><g transform="translate(-54,-6) scale(1,1)"><path fill="#000000" stroke="none" d="M 359.790482243984 461.83732514237585 L 364 472 L 368.209517756016 461.83732514237585"></path></g><g transform="translate(-54,-6) scale(1,1)"><path fill="none" stroke="#000000" d="M 359.790482243984 461.83732514237585 L 364 472 L 368.209517756016 461.83732514237585 L 359.790482243984 461.83732514237585" stroke-miterlimit="10"></path></g><g transform="translate(-54,-6) scale(1,1)"><path fill="#ffffff" stroke="none" d="M 364 632 L 424 709 L 304 709 L 364 632"></path></g><g transform="translate(-54,-6) scale(1,1)"><path fill="none" stroke="#000000" d="M 364 632 L 424 709 L 304 709 L 364 632 L 364 632" stroke-miterlimit="10"></path></g><g transform="translate(-54,-6) scale(1,1)"><g><path fill="none" stroke="none"></path><text fill="#000000" stroke="none" font-family="Arial" font-size="13px" font-style="normal" font-weight="normal" text-decoration="none" x="343" y="673.5">Extract</text><text fill="#000000" stroke="none" font-family="Arial" font-size="13px" font-style="normal" font-weight="normal" text-decoration="none" x="336" y="686.5">frequency</text><text fill="#000000" stroke="none" font-family="Arial" font-size="13px" font-style="normal" font-weight="normal" text-decoration="none" x="337.5" y="699.5">response</text></g></g><g transform="translate(-54,-6) scale(1,1)"><path fill="none" stroke="#000000" d="M 364 523 L 364 568" stroke-miterlimit="10"></path></g><g transform="translate(-54,-6) scale(1,1)"><path fill="#000000" stroke="none" d="M 359.790482243984 557.8373251423759 L 364 568 L 368.209517756016 557.8373251423759"></path></g><g transform="translate(-54,-6) scale(1,1)"><path fill="none" stroke="#000000" d="M 359.790482243984 557.8373251423759 L 364 568 L 368.209517756016 557.8373251423759 L 359.790482243984 557.8373251423759" stroke-miterlimit="10"></path></g><g transform="translate(-54,-6) scale(1,1)"><g><path fill="none" stroke="none"></path><text fill="#000000" stroke="none" font-family="Arial" font-size="13px" font-style="normal" font-weight="normal" text-decoration="none" x="366.5" y="550.5">Yes</text></g></g><g transform="translate(-54,-6) scale(1,1)"><path fill="none" stroke="#000000" d="M 424 352 L 480 352 M 480 352 A 8 8 0 0 1 488 360 L 488 664 M 488 664 A 8 8 0 0 1 480 672 L 424 672" stroke-miterlimit="10"></path></g><g transform="translate(-54,-6) scale(1,1)"><path fill="#000000" stroke="none" d="M 434.16267485762415 667.790482243984 L 424 672 L 434.16267485762415 676.209517756016"></path></g><g transform="translate(-54,-6) scale(1,1)"><path fill="none" stroke="#000000" d="M 434.16267485762415 667.790482243984 L 424 672 L 434.16267485762415 676.209517756016 L 434.16267485762415 667.790482243984" stroke-miterlimit="10"></path></g><g transform="translate(-54,-6) scale(1,1)"><path fill="#ffffff" stroke="none" d="M 324 735 L 424 735 L 404 767 L 304 767 L 324 735"></path></g><g transform="translate(-54,-6) scale(1,1)"><path fill="none" stroke="#000000" d="M 324 735 L 424 735 L 404 767 L 304 767 L 324 735 L 324 735" stroke-miterlimit="10"></path></g><g transform="translate(-54,-6) scale(1,1)"><g><path fill="none" stroke="none"></path><text fill="#000000" stroke="none" font-family="Arial" font-size="13px" font-style="normal" font-weight="normal" text-decoration="none" x="344.5" y="757.5">fr_data</text></g></g><g transform="translate(-54,-6) scale(1,1)"><path fill="none" stroke="#000000" d="M 364 709 L 364 735" stroke-miterlimit="10"></path></g><g transform="translate(-54,-6) scale(1,1)"><path fill="#000000" stroke="none" d="M 359.790482243984 724.8373251423759 L 364 735 L 368.209517756016 724.8373251423759"></path></g><g transform="translate(-54,-6) scale(1,1)"><path fill="none" stroke="#000000" d="M 359.790482243984 724.8373251423759 L 364 735 L 368.209517756016 724.8373251423759 L 359.790482243984 724.8373251423759" stroke-miterlimit="10"></path></g><g transform="translate(-54,-6) scale(1,1)"><rect fill="#ffffff" stroke="none" x="264" y="793" width="200" height="32"></rect></g><g transform="translate(-54,-6) scale(1,1)"><path fill="none" stroke="#000000" d="M 264 793 L 464 793 L 464 825 L 264 825 L 264 793 Z Z" stroke-miterlimit="10"></path></g><g transform="translate(-54,-6) scale(1,1)"><path fill="none" stroke="#000000" d="M 269 793 L 269 825" stroke-miterlimit="10"></path></g><g transform="translate(-54,-6) scale(1,1)"><path fill="none" stroke="#000000" d="M 459 793 L 459 825" stroke-miterlimit="10"></path></g><g transform="translate(-54,-6) scale(1,1)"><g><path fill="none" stroke="none"></path><text fill="#000000" stroke="none" font-family="Arial" font-size="13px" font-style="normal" font-weight="normal" text-decoration="none" x="288.5" y="815.5">tfest(fr_data, order, estOpt)</text></g></g><g transform="translate(-54,-6) scale(1,1)"><path fill="#ffffff" stroke="none" d="M 96 683 L 223 683 L 233 693 L 233 706 L 96 706 L 96 683"></path></g><g transform="translate(-54,-6) scale(1,1)"><path fill="none" stroke="#707070" d="M 96 683 L 223 683 L 233 693 L 233 706 L 96 706 L 96 683 L 96 683" stroke-miterlimit="10"></path></g><g transform="translate(-54,-6) scale(1,1)"><path fill="none" stroke="#707070" d="M 223 683 L 223 693 L 233 693 L 223 683" stroke-miterlimit="10"></path></g><g transform="translate(-54,-6) scale(1,1)"><g><path fill="none" stroke="none"></path><text fill="#707070" stroke="none" font-family="Arial" font-size="13px" font-style="normal" font-weight="normal" text-decoration="none" x="101" y="701">Complex data vector </text></g></g><g transform="translate(-54,-6) scale(1,1)"><path fill="none" stroke="#000000" d="M 304 734 L 211 708" stroke-miterlimit="10" stroke-dasharray="3"></path></g><g transform="translate(-54,-6) scale(1,1)"><rect fill="#dbdbdb" stroke="none" x="312" y="568" width="104" height="32"></rect></g><g transform="translate(-54,-6) scale(1,1)"><path fill="none" stroke="#000000" d="M 312 568 L 416 568 L 416 600 L 312 600 L 312 568 Z Z" stroke-miterlimit="10"></path></g><g transform="translate(-54,-6) scale(1,1)"><g><path fill="none" stroke="none"></path><text fill="#000000" stroke="none" font-family="Arial" font-size="13px" font-style="normal" font-weight="normal" text-decoration="none" x="335" y="590.5">idSpice.m</text></g></g><g transform="translate(-54,-6) scale(1,1)"><path fill="none" stroke="#000000" d="M 364 600 L 364 632" stroke-miterlimit="10"></path></g><g transform="translate(-54,-6) scale(1,1)"><path fill="#000000" stroke="none" d="M 359.790482243984 621.8373251423759 L 364 632 L 368.209517756016 621.8373251423759"></path></g><g transform="translate(-54,-6) scale(1,1)"><path fill="none" stroke="#000000" d="M 359.790482243984 621.8373251423759 L 364 632 L 368.209517756016 621.8373251423759 L 359.790482243984 621.8373251423759" stroke-miterlimit="10"></path></g><g transform="translate(-54,-6) scale(1,1)"><path fill="none" stroke="#000000" d="M 364 767 L 364 793" stroke-miterlimit="10"></path></g><g transform="translate(-54,-6) scale(1,1)"><path fill="#000000" stroke="none" d="M 359.790482243984 782.8373251423759 L 364 793 L 368.209517756016 782.8373251423759"></path></g><g transform="translate(-54,-6) scale(1,1)"><path fill="none" stroke="#000000" d="M 359.790482243984 782.8373251423759 L 364 793 L 368.209517756016 782.8373251423759 L 359.790482243984 782.8373251423759" stroke-miterlimit="10"></path></g><g transform="translate(-54,-6) scale(1,1)"><path fill="#ffffff" stroke="none" d="M 96 727 L 223 727 L 233 737 L 233 780 L 96 780 L 96 727"></path></g><g transform="translate(-54,-6) scale(1,1)"><path fill="none" stroke="#707070" d="M 96 727 L 223 727 L 233 737 L 233 780 L 96 780 L 96 727 L 96 727" stroke-miterlimit="10"></path></g><g transform="translate(-54,-6) scale(1,1)"><path fill="none" stroke="#707070" d="M 223 727 L 223 737 L 233 737 L 223 727" stroke-miterlimit="10"></path></g><g transform="translate(-54,-6) scale(1,1)"><g><path fill="none" stroke="none"></path><text fill="#707070" stroke="none" font-family="Arial" font-size="13px" font-style="normal" font-weight="normal" text-decoration="none" x="101" y="745">MATLAB function:</text></g></g><g transform="translate(-54,-6) scale(1,1)"><g><path fill="none" stroke="none"></path><text fill="#707070" stroke="none" font-family="Arial" font-size="13px" font-style="normal" font-weight="normal" text-decoration="none" x="101" y="760">Frequency response</text></g></g><g transform="translate(-54,-6) scale(1,1)"><g><path fill="none" stroke="none"></path><text fill="#707070" stroke="none" font-family="Arial" font-size="13px" font-style="normal" font-weight="normal" text-decoration="none" x="101" y="775">estimation</text></g></g><g transform="translate(-54,-6) scale(1,1)"><path fill="none" stroke="#000000" d="M 302 792 L 235 773" stroke-miterlimit="10" stroke-dasharray="3"></path></g><g transform="translate(-54,-6) scale(1,1)"><rect fill="#dbdbdb" stroke="none" x="320" y="856" width="88" height="45"></rect></g><g transform="translate(-54,-6) scale(1,1)"><path fill="none" stroke="#000000" d="M 320 856 L 408 856 L 408 901 L 320 901 L 320 856 Z Z" stroke-miterlimit="10"></path></g><g transform="translate(-54,-6) scale(1,1)"><g><path fill="none" stroke="none"></path><text fill="#000000" stroke="none" font-family="Arial" font-size="13px" font-style="normal" font-weight="normal" text-decoration="none" x="338" y="878.5">MATLAB</text><text fill="#000000" stroke="none" font-family="Arial" font-size="13px" font-style="normal" font-weight="normal" text-decoration="none" x="336" y="891.5">LTI object</text></g></g><g transform="translate(-54,-6) scale(1,1)"><path fill="none" stroke="#000000" d="M 364 825 L 364 856" stroke-miterlimit="10"></path></g><g transform="translate(-54,-6) scale(1,1)"><path fill="#000000" stroke="none" d="M 359.790482243984 845.8373251423759 L 364 856 L 368.209517756016 845.8373251423759"></path></g><g transform="translate(-54,-6) scale(1,1)"><path fill="none" stroke="#000000" d="M 359.790482243984 845.8373251423759 L 364 856 L 368.209517756016 845.8373251423759 L 359.790482243984 845.8373251423759" stroke-miterlimit="10"></path></g><g transform="translate(-54,-6) scale(1,1)"><path fill="none" stroke="#000000" d="M 365 176 L 365 208" stroke-miterlimit="10"></path></g><g transform="translate(-54,-6) scale(1,1)"><path fill="#000000" stroke="none" d="M 360.790482243984 197.83732514237585 L 365 208 L 369.209517756016 197.83732514237585"></path></g><g transform="translate(-54,-6) scale(1,1)"><path fill="none" stroke="#000000" d="M 360.790482243984 197.83732514237585 L 365 208 L 369.209517756016 197.83732514237585 L 360.790482243984 197.83732514237585" stroke-miterlimit="10"></path></g><g transform="translate(-54,-6) scale(1,1)"><path fill="none" stroke="#000000" d="M 528 200 L 528 488 M 528 488 A 8 8 0 0 1 520 496 L 421 496" stroke-miterlimit="10"></path></g><g transform="translate(-54,-6) scale(1,1)"><path fill="#000000" stroke="none" d="M 431.16267485762415 491.790482243984 L 421 496 L 431.16267485762415 500.209517756016"></path></g><g transform="translate(-54,-6) scale(1,1)"><path fill="none" stroke="#000000" d="M 431.16267485762415 491.790482243984 L 421 496 L 431.16267485762415 500.209517756016 L 431.16267485762415 491.790482243984" stroke-miterlimit="10"></path></g><g transform="translate(-54,-6) scale(1,1)"><path fill="#ffffff" stroke="none" d="M 480 584 C 480 579.5817216 483.5817216 576 488 576 C 492.4182784 576 496 579.5817216 496 584 C 496 588.4182784 492.4182784 592 488 592 C 483.5817216 592 480 588.4182784 480 584 Z"></path></g><g transform="translate(-54,-6) scale(1,1)"><path fill="none" stroke="#000000" d="M 480 584 C 480 579.5817216 483.5817216 576 488 576 C 492.4182784 576 496 579.5817216 496 584 C 496 588.4182784 492.4182784 592 488 592 C 483.5817216 592 480 588.4182784 480 584 Z" stroke-miterlimit="10"></path></g></g></svg>